<?xml version="1.0" encoding="UTF-8" standalone="no"?>
<!-- Created with Inkscape (http://www.inkscape.org/) -->

<svg
   xmlns:dc="http://purl.org/dc/elements/1.1/"
   xmlns:cc="http://creativecommons.org/ns#"
   xmlns:rdf="http://www.w3.org/1999/02/22-rdf-syntax-ns#"
   xmlns:svg="http://www.w3.org/2000/svg"
   xmlns="http://www.w3.org/2000/svg"
   xmlns:sodipodi="http://sodipodi.sourceforge.net/DTD/sodipodi-0.dtd"
   xmlns:inkscape="http://www.inkscape.org/namespaces/inkscape"
   width="387.21875"
   height="390.75"
   id="svg2"
   version="1.1"
   inkscape:version="0.48.2 r9819"
   sodipodi:docname="RAMBo-cover.svg">
  <defs
     id="defs4">
    <symbol
       id="*PAPER_SPACE" />
    <symbol
       id="*MODEL_SPACE" />
    <pattern
       id="Hatch"
       x="0"
       y="0"
       patternUnits="userSpaceOnUse"
       width="8"
       height="8">
      <path
         id="path3014"
         d="M8 4 l-4,4"
         stroke-width="0.25"
         stroke="#000000"
         linecap="square" />
      <path
         id="path3016"
         d="M6 2 l-4,4"
         stroke-width="0.25"
         stroke="#000000"
         linecap="square" />
      <path
         id="path3018"
         d="M4 0 l-4,4"
         stroke-width="0.25"
         stroke="#000000"
         linecap="square" />
    </pattern>
    <marker
       orient="auto"
       id="DistanceX"
       style="overflow:visible"
       refX="0"
       refY="0">
      <path
         id="path3011"
         d="M 3,-3 -3,3 M 0,-5 0,5"
         style="stroke:#000000;stroke-width:0.5"
         inkscape:connector-curvature="0" />
    </marker>
    <symbol
       id="*PAPER_SPACE-9" />
    <symbol
       id="*MODEL_SPACE-8" />
    <pattern
       id="Hatch-7"
       x="0"
       y="0"
       patternUnits="userSpaceOnUse"
       width="8"
       height="8">
      <path
         id="path22228"
         d="M8 4 l-4,4"
         stroke-width="0.25"
         stroke="#000000"
         linecap="square" />
      <path
         id="path22230"
         d="M6 2 l-4,4"
         stroke-width="0.25"
         stroke="#000000"
         linecap="square" />
      <path
         id="path22232"
         d="M4 0 l-4,4"
         stroke-width="0.25"
         stroke="#000000"
         linecap="square" />
    </pattern>
    <marker
       orient="auto"
       id="DistanceX-6"
       style="overflow:visible"
       refX="0"
       refY="0">
      <path
         id="path22225"
         d="M 3,-3 -3,3 M 0,-5 0,5"
         style="stroke:#000000;stroke-width:0.5"
         inkscape:connector-curvature="0" />
    </marker>
  </defs>
  <sodipodi:namedview
     id="base"
     pagecolor="#ffffff"
     bordercolor="#666666"
     borderopacity="1.0"
     inkscape:pageopacity="0.0"
     inkscape:pageshadow="2"
     inkscape:zoom="2.1266795"
     inkscape:cx="193.60937"
     inkscape:cy="195.375"
     inkscape:document-units="px"
     inkscape:current-layer="layer1"
     showgrid="false"
     fit-margin-top="0"
     fit-margin-left="0"
     fit-margin-right="0"
     fit-margin-bottom="0"
     inkscape:window-width="1920"
     inkscape:window-height="1011"
     inkscape:window-x="0"
     inkscape:window-y="0"
     inkscape:window-maximized="1" />
  <metadata
     id="metadata7">
    <rdf:RDF>
      <cc:Work
         rdf:about="">
        <dc:format>image/svg+xml</dc:format>
        <dc:type
           rdf:resource="http://purl.org/dc/dcmitype/StillImage" />
        <dc:title />
      </cc:Work>
    </rdf:RDF>
  </metadata>
  <g
     inkscape:label="Layer 1"
     inkscape:groupmode="layer"
     id="layer1"
     transform="translate(-313,-634.125)">
    <path
       id="path3222"
       style="fill:none;stroke:#000000"
       d="m 313.51386,1013.757 0,-368.50392 m 0,0 2.03031,-6.24685 m 0,0 5.31496,-3.86222 m 0,0 3.28465,0 m 0,0 0,-0.52086 m 0,0 364.96059,0 m 0,0 0,0.52086 m 0,0 3.2847,0 m 0,0 5.3149,3.86222 m 0,0 2.0304,6.24685 m 0,0 0,368.50392 m 0,0 -2.0304,6.2469 m 0,0 -5.3149,3.8622 m 0,0 -3.2847,0 m 0,0 0,0.5208 m 0,0 -364.96059,0 m 0,0 0,-0.5208 m 0,0 -3.28465,0 m 0,0 -5.31496,-3.8622 m 0,0 -2.03031,-6.2469 m 16.65354,-13.1102 0.34725,-2.18977 m 0,0 1.00629,-1.9772 m 0,0 1.56615,-1.5661 m 0,0 1.97716,-1.0063 m 0,0 2.18977,-0.3472 m 0,0 2.18976,0.3472 m 0,0 1.97717,1.0063 m 0,0 1.56614,1.5661 m 0,0 1.0063,1.9772 m 0,0 0.34724,2.18977 m 0,0 -0.34724,2.1897 m 0,0 -1.0063,1.9772 m 0,0 -1.56614,1.5661 m 0,0 -1.97717,1.0063 m 0,0 -2.18976,0.3473 m 0,0 -2.18977,-0.3473 m 0,0 -1.97716,-1.0063 m 0,0 -1.56615,-1.5661 m 0,0 -1.00629,-1.9772 m 0,0 -0.34725,-2.1897 m 0,-342.2835 0.34725,-2.18976 m 0,0 1.00629,-1.97716 m 0,0 1.56615,-1.56615 m 0,0 1.97716,-1.0063 m 0,0 2.18977,-0.34724 m 0,0 2.18976,0.34724 m 0,0 1.97717,1.0063 m 0,0 1.56614,1.56615 m 0,0 1.0063,1.97716 m 0,0 0.34724,2.18976 m 0,0 -0.34724,2.18978 m 0,0 -1.0063,1.97715 m 0,0 -1.56614,1.56615 m 0,0 -1.97717,1.00629 m 0,0 -2.18976,0.34726 m 0,0 -2.18977,-0.34726 m 0,0 -1.97716,-1.00629 m 0,0 -1.56615,-1.56615 m 0,0 -1.00629,-1.97715 m 0,0 -0.34725,-2.18978 m 338.74017,342.2835 0.3472,-2.18977 m 0,0 1.0063,-1.9772 m 0,0 1.5662,-1.5661 m 0,0 1.9771,-1.0063 m 0,0 2.1898,-0.3472 m 0,0 2.1898,0.3472 m 0,0 1.9771,1.0063 m 0,0 1.5662,1.5661 m 0,0 1.0063,1.9772 m 0,0 0.3472,2.18977 m 0,0 -0.3472,2.1897 m 0,0 -1.0063,1.9772 m 0,0 -1.5662,1.5661 m 0,0 -1.9771,1.0063 m 0,0 -2.1898,0.3473 m 0,0 -2.1898,-0.3473 m 0,0 -1.9771,-1.0063 m 0,0 -1.5662,-1.5661 m 0,0 -1.0063,-1.9772 m 0,0 -0.3472,-2.1897 m 0,-342.2835 0.3472,-2.18976 m 0,0 1.0063,-1.97716 m 0,0 1.5662,-1.56615 m 0,0 1.9771,-1.0063 m 0,0 2.1898,-0.34724 m 0,0 2.1898,0.34724 m 0,0 1.9771,1.0063 m 0,0 1.5662,1.56615 m 0,0 1.0063,1.97716 m 0,0 0.3472,2.18976 m 0,0 -0.3472,2.18978 m 0,0 -1.0063,1.97715 m 0,0 -1.5662,1.56615 m 0,0 -1.9771,1.00629 m 0,0 -2.1898,0.34726 m 0,0 -2.1898,-0.34726 m 0,0 -1.9771,-1.00629 m 0,0 -1.5662,-1.56615 m 0,0 -1.0063,-1.97715 m 0,0 -0.3472,-2.18978"
       inkscape:connector-curvature="0" />
    <text
       xml:space="preserve"
       style="font-size:25.56025887px;font-style:normal;font-variant:normal;font-weight:normal;font-stretch:normal;line-height:125%;letter-spacing:0px;word-spacing:0px;fill:none;stroke:#ff0000;font-family:FreeMono;-inkscape-font-specification:FreeMono"
       x="-1019.2185"
       y="411.71933"
       id="text3015"
       sodipodi:linespacing="125%"
       transform="matrix(0,-1,1,0,0,0)"><tspan
         sodipodi:role="line"
         id="tspan3017"
         x="-1019.2185"
         y="411.71933"
         style="font-style:normal;font-variant:normal;font-weight:500;font-stretch:normal;fill:none;stroke:#ff0000;font-family:Cantarell;-inkscape-font-specification:Cantarell Medium">reset</tspan></text>
    <text
       xml:space="preserve"
       style="font-size:40.93521118px;font-style:normal;font-variant:normal;font-weight:normal;font-stretch:normal;line-height:125%;letter-spacing:0px;word-spacing:0px;fill:none;stroke:#ff0000;font-family:FreeMono;-inkscape-font-specification:FreeMono"
       x="-1024.689"
       y="498.27692"
       id="text3019"
       sodipodi:linespacing="125%"
       transform="matrix(0,-1,1,0,0,0)"><tspan
         sodipodi:role="line"
         id="tspan3021"
         x="-1024.689"
         y="498.27692"
         style="font-style:normal;font-variant:normal;font-weight:500;font-stretch:normal;fill:none;stroke:#ff0000;font-family:Cantarell;-inkscape-font-specification:Cantarell Medium">USB</tspan></text>
  </g>
</svg>
