<?xml version="1.0" encoding="UTF-8" standalone="no"?>
<!-- Created with Inkscape (http://www.inkscape.org/) -->

<svg
   xmlns:dc="http://purl.org/dc/elements/1.1/"
   xmlns:cc="http://creativecommons.org/ns#"
   xmlns:rdf="http://www.w3.org/1999/02/22-rdf-syntax-ns#"
   xmlns:svg="http://www.w3.org/2000/svg"
   xmlns="http://www.w3.org/2000/svg"
   xmlns:sodipodi="http://sodipodi.sourceforge.net/DTD/sodipodi-0.dtd"
   xmlns:inkscape="http://www.inkscape.org/namespaces/inkscape"
   width="52.34375"
   height="52.3125"
   id="svg14553"
   version="1.1"
   inkscape:version="0.48.2 r9819"
   sodipodi:docname="New document 13">
  <defs
     id="defs14555" />
  <sodipodi:namedview
     id="base"
     pagecolor="#ffffff"
     bordercolor="#666666"
     borderopacity="1.0"
     inkscape:pageopacity="0.0"
     inkscape:pageshadow="2"
     inkscape:zoom="7.8488784"
     inkscape:cx="63.820027"
     inkscape:cy="36.102268"
     inkscape:document-units="px"
     inkscape:current-layer="layer1"
     showgrid="false"
     fit-margin-top="0"
     fit-margin-left="0"
     fit-margin-right="0"
     fit-margin-bottom="0"
     inkscape:window-width="1920"
     inkscape:window-height="1011"
     inkscape:window-x="0"
     inkscape:window-y="0"
     inkscape:window-maximized="1" />
  <metadata
     id="metadata14558">
    <rdf:RDF>
      <cc:Work
         rdf:about="">
        <dc:format>image/svg+xml</dc:format>
        <dc:type
           rdf:resource="http://purl.org/dc/dcmitype/StillImage" />
        <dc:title></dc:title>
      </cc:Work>
    </rdf:RDF>
  </metadata>
  <g
     inkscape:label="Layer 1"
     inkscape:groupmode="layer"
     id="layer1"
     transform="translate(843.27524,-300.47119)">
    <g
       transform="matrix(0.55950551,0,0,0.55950551,-1279.4868,132.46169)"
       id="layer1-0"
       inkscape:label="Camada 1">
      <path
         id="path3665"
         style="fill:#000000;fill-opacity:1;stroke:none"
         d="m 791.05862,362.42261 2.88468,0 2.88468,0 2.88469,0 2.88468,0 4.3894,-6.45175 4.3894,-6.45175 4.3894,-6.45175 4.3894,-6.45175 0.23897,-0.25217 0.29875,-0.16087 0.33379,-0.0609 0.34407,0.0475 0.31169,0.15389 0.24188,0.23786 0.15651,0.3008 0.0556,0.34269 0,5.69015 0,5.69014 0,5.69015 0,5.69015 3.97533,-5.84234 3.97533,-5.84235 3.97532,-5.84235 3.97533,-5.84234 0.23885,-0.25202 0.29866,-0.16084 0.3338,-0.061 0.34429,0.0474 0.31166,0.15389 0.24182,0.23786 0.15646,0.3008 0.0556,0.34269 0,6.29936 0,6.29936 0,6.29937 0,6.29936 1.74844,-0.001 1.74844,-10e-4 1.74844,-10e-4 1.74844,-0.001 2.1617,-3.17656 2.1617,-3.17656 2.1617,-3.17657 2.1617,-3.17656 -3.02822,0 -3.02821,0 -3.02821,0 -3.02822,0 -0.21259,-0.021 -0.20249,-0.0615 -0.18668,-0.0996 -0.16518,-0.13528 -0.13539,-0.16496 -0.0996,-0.18641 -0.0615,-0.20221 -0.021,-0.21234 7e-5,-5.69026 8e-5,-5.69027 7e-5,-5.69026 7e-5,-5.69026 -3.97521,5.8425 -3.97521,5.8425 -3.97521,5.8425 -3.97521,5.8425 -0.23889,0.25224 -0.29875,0.16085 -0.33386,0.0609 -0.34424,-0.0476 -0.31158,-0.15389 -0.24177,-0.23784 -0.15645,-0.30075 -0.0556,-0.34261 0,-5.6903 0,-5.6903 0,-5.69031 0,-5.6903 -3.97495,5.84246 -3.97495,5.84247 -3.97494,5.84246 -3.97495,5.84246 -0.17457,0.1992 -0.21448,0.14916 -0.24398,0.0936 -0.26305,0.0325 -2.01982,10e-4 -2.01981,10e-4 -2.01982,0.001 -2.01982,10e-4 -2.16163,3.17649 -2.16162,3.17648 -2.16163,3.17649 -2.16163,3.17649 0,0 0,-1e-5 0,-10e-6 z m 29.99317,2.16647 -0.0798,-0.003 -0.08,-0.009 -0.0798,-0.0149 -0.0793,-0.021 -0.31158,-0.15389 -0.24178,-0.23784 -0.15644,-0.30075 -0.0556,-0.34261 0,-5.69015 0,-5.69015 0,-5.69014 0,-5.69015 -3.9748,5.84227 -3.97479,5.84227 -3.9748,5.84227 -3.97479,5.84227 -0.1748,0.19929 -0.21469,0.14919 -0.24416,0.0935 -0.26319,0.0324 -3.54033,0 -3.54033,0 -3.54034,0 -3.54033,0 -0.29278,-0.0402 -0.26659,-0.11503 -0.22653,-0.18151 -0.17262,-0.23966 -0.10138,-0.27715 -0.0229,-0.28917 0.0546,-0.28496 0.13119,-0.26451 2.53017,-3.71799 2.53018,-3.71799 2.53017,-3.71798 2.53018,-3.71799 0.17466,-0.19912 0.2145,-0.14913 0.24395,-0.0936 0.26297,-0.0326 2.01974,-10e-4 2.01974,-0.001 2.01974,-10e-4 2.01974,-10e-4 4.38967,-6.45198 4.38967,-6.45199 4.38966,-6.45198 4.38967,-6.45198 0.23902,-0.25219 0.29884,-0.1609 0.33385,-0.061 0.34403,0.0476 0.31161,0.15389 0.24183,0.23786 0.1565,0.30079 0.0556,0.3427 0,5.6903 0,5.6903 0,5.6903 0,5.6903 3.97522,-5.8425 3.97521,-5.8425 3.97521,-5.8425 3.97522,-5.8425 0.23893,-0.25204 0.2987,-0.16087 0.33382,-0.061 0.34429,0.0475 0.3116,0.15391 0.24182,0.23789 0.1565,0.30081 0.0556,0.34263 -7e-5,6.29963 -8e-5,6.29963 -7e-5,6.29963 -7e-5,6.29963 3.26918,0 3.26919,0 3.26918,0 3.26918,0 0.29275,0.0402 0.26652,0.11503 0.22648,0.18151 0.1726,0.23966 0.10146,0.27728 0.0229,0.28916 -0.0546,0.28488 -0.13128,0.26447 -2.53021,3.71806 -2.53021,3.71807 -2.5302,3.71806 -2.53021,3.71807 -0.17464,0.19912 -0.21446,0.14912 -0.2439,0.0936 -0.26296,0.0326 -2.16311,10e-4 -2.16312,0.001 -2.16312,10e-4 -2.16311,0.001 -1.9e-4,0 -7e-5,0 6e-5,0 2e-4,0 -0.21249,-0.021 -0.20239,-0.0614 -0.1866,-0.0995 -0.16513,-0.13516 -0.13547,-0.16501 -0.0997,-0.18652 -0.0616,-0.20231 -0.0211,-0.21239 0,-5.69015 0,-5.69014 0,-5.69015 0,-5.69015 -3.97533,5.84235 -3.97532,5.84235 -3.97533,5.84234 -3.97532,5.84235 -0.17727,0.20168 -0.21605,0.14891 -0.24357,0.0922 -0.25981,0.0316 -1.9e-4,0 -1.9e-4,1e-5 -1.9e-4,10e-6 z m 5.39058,-64.30696 c -25.81406,0 -46.80472,20.93481 -46.80472,46.74887 0,25.81406 20.99066,46.74887 46.80472,46.74887 25.81406,0 46.74887,-20.93481 46.74887,-46.74887 0,-25.81406 -20.93481,-46.74887 -46.74887,-46.74887 z m 0,2.68094 c 24.36518,0 44.06793,19.70275 44.06793,44.06793 0,24.36517 -19.70275,44.06793 -44.06793,44.06793 -24.36518,0 -44.12378,-19.70276 -44.12378,-44.06793 0,-24.36518 19.7586,-44.06793 44.12378,-44.06793 z"
         inkscape:connector-curvature="0" />
    </g>
  </g>
</svg>
