<?xml version="1.0" encoding="UTF-8" standalone="no"?>
<!-- Created with Inkscape (http://www.inkscape.org/) -->

<svg
   xmlns:dc="http://purl.org/dc/elements/1.1/"
   xmlns:cc="http://creativecommons.org/ns#"
   xmlns:rdf="http://www.w3.org/1999/02/22-rdf-syntax-ns#"
   xmlns:svg="http://www.w3.org/2000/svg"
   xmlns="http://www.w3.org/2000/svg"
   xmlns:sodipodi="http://sodipodi.sourceforge.net/DTD/sodipodi-0.dtd"
   xmlns:inkscape="http://www.inkscape.org/namespaces/inkscape"
   width="46.634476"
   height="17.716536"
   id="svg2"
   version="1.1"
   inkscape:version="0.48.2 r9819"
   sodipodi:docname="New document 1">
  <defs
     id="defs4" />
  <sodipodi:namedview
     id="base"
     pagecolor="#ffffff"
     bordercolor="#666666"
     borderopacity="1.0"
     inkscape:pageopacity="0.0"
     inkscape:pageshadow="2"
     inkscape:zoom="26.549971"
     inkscape:cx="26.22411"
     inkscape:cy="3.7742106"
     inkscape:document-units="px"
     inkscape:current-layer="layer1"
     showgrid="false"
     fit-margin-top="0"
     fit-margin-left="0"
     fit-margin-right="0"
     fit-margin-bottom="0"
     inkscape:window-width="1920"
     inkscape:window-height="1011"
     inkscape:window-x="0"
     inkscape:window-y="0"
     inkscape:window-maximized="1" />
  <metadata
     id="metadata7">
    <rdf:RDF>
      <cc:Work
         rdf:about="">
        <dc:format>image/svg+xml</dc:format>
        <dc:type
           rdf:resource="http://purl.org/dc/dcmitype/StillImage" />
        <dc:title></dc:title>
      </cc:Work>
    </rdf:RDF>
  </metadata>
  <g
     inkscape:label="Layer 1"
     inkscape:groupmode="layer"
     id="layer1"
     transform="translate(-342.064,-418.22279)">
    <path
       id="path2994"
       style="font-size:27.98820686px;font-style:normal;font-variant:normal;font-weight:normal;font-stretch:normal;line-height:125%;letter-spacing:0px;word-spacing:0px;fill:#000000;fill-opacity:1;stroke:none;font-family:FreeMono;-inkscape-font-specification:FreeMono"
       d="m 388.08273,419.76214 -0.0271,-0.003 -0.0394,-0.009 -0.0516,-0.0153 -0.0638,-0.0214 -0.0761,-0.0276 -0.0883,-0.0337 -0.10058,-0.0398 -0.11282,-0.0459 -0.1172,-0.0459 -0.1277,-0.0398 -0.1382,-0.0337 -0.14868,-0.0275 -0.15919,-0.0214 -0.16967,-0.0153 -0.18018,-0.009 -0.19066,-0.003 -0.28076,0.008 -0.28251,0.0249 -0.28426,0.0416 -0.28601,0.0582 -0.28775,0.0748 -0.2895,0.0914 -0.29125,0.10801 -0.293,0.12463 -0.29213,0.13295 -0.28863,0.14694 -0.28513,0.16094 -0.28163,0.17492 -0.27813,0.18892 -0.27463,0.20292 -0.27114,0.2169 -0.26763,0.2309 -0.2602,0.2484 -0.24884,0.26939 -0.23746,0.29038 -0.22609,0.31137 -0.21473,0.33236 -0.20335,0.35335 -0.19198,0.37433 -0.18061,0.39533 -0.15744,0.41152 -0.13644,0.42288 -0.11545,0.43426 -0.0945,0.44563 -0.0735,0.45699 -0.0525,0.46837 -0.0315,0.47973 -0.0105,0.4911 8.8e-4,0.0494 0.003,0.0783 0.004,0.10714 0.006,0.13601 0.008,0.16487 0.01,0.19373 0.0114,0.22259 0.0131,0.25145 0.44606,-0.80028 0.48454,-0.69358 0.52303,-0.58688 0.56152,-0.48017 0.59999,-0.37347 0.63848,-0.26676 0.67697,-0.16006 0.71545,-0.0534 0.46749,0.0241 0.45087,0.0722 0.43425,0.12026 0.41764,0.16837 0.40102,0.21647 0.3844,0.26457 0.36778,0.31268 0.35117,0.36078 0.32798,0.39403 0.28426,0.41239 0.24052,0.43076 0.19679,0.44912 0.15306,0.46749 0.10933,0.48586 0.0656,0.50422 0.0219,0.52259 -0.0219,0.55583 -0.0656,0.53396 -0.10933,0.5121 -0.15306,0.49023 -0.19679,0.46836 -0.24052,0.4465 -0.28426,0.42463 -0.32798,0.40277 -0.35991,0.36735 -0.38003,0.31837 -0.40014,0.26938 -0.42027,0.22041 -0.44037,0.17143 -0.4605,0.12244 -0.4806,0.0735 -0.50073,0.0245 -0.60831,-0.0363 -0.57944,-0.10889 -0.55058,-0.18148 -0.52172,-0.25409 -0.49286,-0.32667 -0.46399,-0.39927 -0.43512,-0.47186 -0.40627,-0.54446 -0.36734,-0.60174 -0.31837,-0.64373 -0.26938,-0.68571 -0.22041,-0.72769 -0.17143,-0.76968 -0.12245,-0.81165 -0.0735,-0.85365 -0.0245,-0.89562 0.0367,-1.01807 0.11021,-0.96909 0.18367,-0.92011 0.25714,-0.87113 0.33061,-0.82216 0.40408,-0.77317 0.47755,-0.7242 0.55102,-0.67522 0.61136,-0.61661 0.64461,-0.53439 0.67784,-0.45219 0.71107,-0.36996 0.74431,-0.28776 0.77755,-0.20554 0.81079,-0.12333 0.84402,-0.0411 0.21997,0.005 0.21209,0.0144 0.20423,0.0241 0.19635,0.0337 0.18848,0.0433 0.18062,0.0529 0.17274,0.0625 0.16487,0.0722 0.15743,0.0717 0.13644,0.0752 0.11545,0.0787 0.0945,0.0822 0.0735,0.0857 0.0525,0.0892 0.0315,0.0927 0.0105,0.0962 -0.003,0.0551 -0.008,0.0534 -0.0131,0.0516 -0.0184,0.0499 -0.0236,0.0481 -0.0289,0.0464 -0.0341,0.0446 -0.0394,0.0428 -0.0363,0.0394 -0.0389,0.0341 -0.0415,0.0289 -0.0442,0.0236 -0.0468,0.0184 -0.0494,0.0131 -0.052,0.008 -0.0547,0.003 m -8.5364,10.49558 0.15393,0.54927 0.16793,0.51428 0.18192,0.4793 0.19592,0.44431 0.20991,0.40933 0.22391,0.37434 0.2379,0.33936 0.2519,0.30437 0.26894,0.26239 0.28907,0.2274 0.30918,0.19242 0.3293,0.15744 0.34941,0.12245 0.36953,0.0875 0.38965,0.0525 0.40977,0.0175 0.38352,-0.0192 0.36691,-0.0577 0.35029,-0.0962 0.33367,-0.13469 0.31705,-0.17318 0.30044,-0.21166 0.28383,-0.25014 0.2672,-0.28863 0.24926,-0.31662 0.21603,-0.33411 0.1828,-0.3516 0.14956,-0.36909 0.11633,-0.38659 0.0831,-0.40408 0.0499,-0.42157 0.0166,-0.43907 -0.0166,-0.40583 -0.0499,-0.39183 -0.0831,-0.37784 -0.11633,-0.36385 -0.14956,-0.34985 -0.1828,-0.33586 -0.21603,-0.32187 -0.24926,-0.30787 -0.26546,-0.28207 -0.27857,-0.24445 -0.29169,-0.20685 -0.30481,-0.16924 -0.31793,-0.13163 -0.33105,-0.094 -0.34417,-0.0564 -0.35728,-0.0188 -0.17493,0.005 -0.17492,0.0158 -0.17493,0.0262 -0.17492,0.0367 -0.17493,0.0472 -0.17493,0.0577 -0.17492,0.0682 -0.17493,0.0787 -0.16399,0.0844 -0.15612,0.0853 -0.14826,0.0862 -0.14037,0.087 -0.13251,0.0879 -0.12464,0.0888 -0.11676,0.0897 -0.10889,0.0905 -0.10627,0.0897 -0.10889,0.10103 -0.11151,0.11239 -0.11414,0.12376 -0.11677,0.13513 -0.11938,0.1465 -0.12201,0.15787 -0.12464,0.16924 -0.1137,0.16094 -0.10321,0.14693 -0.0927,0.13295 -0.0822,0.11895 -0.0717,0.10496 -0.0612,0.091 -0.0507,0.077 -0.0402,0.063 -0.031,0.0617 -0.0372,0.073 -0.0433,0.0844 -0.0494,0.0958 -0.0555,0.10715 -0.0617,0.11851 -0.0678,0.12988 -0.0739,0.14125 m -9.9249,0 -0.93061,0 -0.9306,0 -0.93061,0 -0.93061,0 -0.93061,0 -0.9306,0 -0.93061,0 -0.93061,0 -0.18892,0.51428 -0.18892,0.51429 -0.18892,0.51428 -0.18892,0.51428 -0.18893,0.51428 -0.18892,0.51429 -0.18892,0.51428 -0.18892,0.51428 0.27638,0 0.27639,0 0.27638,0 0.27639,0 0.27638,0 0.27638,0 0.27639,0 0.27638,0 0.17711,0.009 0.1535,0.0262 0.12988,0.0437 0.10627,0.0612 0.0826,0.0787 0.059,0.0962 0.0354,0.1137 0.0118,0.1312 -0.0118,0.13775 -0.0354,0.11939 -0.059,0.10102 -0.0826,0.0827 -0.10627,0.0643 -0.12988,0.0459 -0.1535,0.0275 -0.17711,0.009 -0.52828,0 -0.52827,0 -0.52828,0 -0.52828,0 -0.52828,0 -0.52827,0 -0.52828,0 -0.52828,0 -0.17711,-0.009 -0.1535,-0.0275 -0.12988,-0.0459 -0.10627,-0.0643 -0.0827,-0.0827 -0.059,-0.10102 -0.0354,-0.11939 -0.0118,-0.13775 0.0118,-0.1312 0.0354,-0.1137 0.059,-0.0962 0.0827,-0.0787 0.10627,-0.0612 0.12988,-0.0437 0.1535,-0.0262 0.17711,-0.009 0.10846,0 0.10845,0 0.10846,0 0.10845,0 0.10846,0 0.10845,0 0.10846,0 0.10845,0 0.62624,-1.68279 0.62623,-1.68279 0.62624,-1.68279 0.62623,-1.68279 0.62624,-1.68279 0.62623,-1.68279 0.62624,-1.68279 0.62623,-1.68279 -0.41982,0 -0.41982,0 -0.41983,0 -0.41982,0 -0.41982,0 -0.41982,0 -0.41983,0 -0.41982,0 -0.17711,-0.009 -0.1535,-0.0276 -0.12988,-0.0459 -0.10627,-0.0643 -0.0827,-0.0827 -0.059,-0.10102 -0.0354,-0.11939 -0.0118,-0.13776 0.0118,-0.13119 0.0354,-0.1137 0.059,-0.0962 0.0827,-0.0787 0.10627,-0.0612 0.12988,-0.0437 0.1535,-0.0263 0.17711,-0.009 0.7137,0 0.7137,0 0.7137,0 0.7137,0 0.71369,0 0.7137,0 0.7137,0 0.7137,0 0.68921,1.82623 0.68921,1.82623 0.68921,1.82623 0.68921,1.82623 0.68921,1.82623 0.68921,1.82623 0.68921,1.82623 0.68921,1.82623 0.12945,0 0.12944,0 0.12945,0 0.12944,0 0.12945,0 0.12944,0 0.12945,0 0.12944,0 0.17711,0.009 0.1535,0.0262 0.12988,0.0437 0.10627,0.0612 0.0827,0.0787 0.059,0.0962 0.0354,0.1137 0.0118,0.1312 -0.0118,0.13775 -0.0354,0.11939 -0.059,0.10102 -0.0827,0.0827 -0.10627,0.0643 -0.12988,0.0459 -0.1535,0.0275 -0.17711,0.009 -0.54577,0 -0.54577,0 -0.54577,0 -0.54577,0 -0.54577,0 -0.54577,0 -0.54577,0 -0.54577,0 -0.17711,-0.009 -0.1535,-0.0275 -0.12989,-0.0459 -0.10626,-0.0643 -0.0827,-0.0827 -0.059,-0.10102 -0.0354,-0.11939 -0.0118,-0.13775 0.0118,-0.1312 0.0354,-0.1137 0.059,-0.0962 0.0827,-0.0787 0.10626,-0.0612 0.12989,-0.0437 0.1535,-0.0262 0.17711,-0.009 0.26589,0 0.26589,0 0.26589,0 0.26589,0 0.26588,0 0.26589,0 0.26589,0 0.26589,0 -0.19592,-0.51428 -0.19591,-0.51428 -0.19592,-0.51429 -0.19592,-0.51428 -0.19592,-0.51428 -0.19591,-0.51428 -0.19592,-0.51429 -0.19592,-0.51428 m -0.41982,-1.14752 -0.39183,-1.02507 -0.39184,-1.02506 -0.39183,-1.02507 -0.39184,-1.02507 -0.39183,-1.02507 -0.39184,-1.02506 -0.39183,-1.02507 -0.39184,-1.02507 -0.0525,0 -0.0525,0 -0.0525,0 -0.0525,0 -0.0525,0 -0.0525,0 -0.0525,0 -0.0525,0 -0.37784,1.02507 -0.37784,1.02507 -0.37784,1.02506 -0.37784,1.02507 -0.37784,1.02507 -0.37784,1.02507 -0.37784,1.02506 -0.37784,1.02507 0.82215,0 0.82216,0 0.82215,0 0.82216,0 0.82215,0 0.82215,0 0.82216,0 0.82215,0 m -23.72307,-0.61574 0,0.73469 0,0.73469 0,0.73469 0,0.73469 0,0.73469 0,0.73469 0,0.73469 0,0.73469 0.26239,0 0.26239,0 0.26239,0 0.26239,0 0.26238,0 0.26239,0 0.26239,0 0.26239,0 0.17711,0.009 0.1535,0.0262 0.12988,0.0437 0.10627,0.0612 0.0827,0.0787 0.059,0.0962 0.0354,0.1137 0.0118,0.1312 -0.0118,0.13775 -0.0354,0.11939 -0.059,0.10102 -0.0827,0.0827 -0.10627,0.0643 -0.12988,0.0459 -0.1535,0.0275 -0.17711,0.009 -0.59475,0 -0.59475,0 -0.59475,0 -0.59474,0 -0.59475,0 -0.59475,0 -0.59475,0 -0.59475,0 -0.17711,-0.009 -0.1535,-0.0275 -0.12988,-0.0459 -0.10627,-0.0643 -0.0827,-0.0827 -0.059,-0.10102 -0.0354,-0.11939 -0.0118,-0.13775 0.0118,-0.1312 0.0354,-0.1137 0.059,-0.0962 0.0827,-0.0787 0.10627,-0.0612 0.12988,-0.0437 0.1535,-0.0262 0.17711,-0.009 0.18892,0 0.18892,0 0.18892,0 0.18892,0 0.18892,0 0.18892,0 0.18892,0 0.18892,0 0,-1.68279 0,-1.68279 0,-1.68279 0,-1.68279 0,-1.68279 0,-1.68279 0,-1.68279 0,-1.68279 -0.18892,0 -0.18892,0 -0.18892,0 -0.18892,0 -0.18892,0 -0.18892,0 -0.18892,0 -0.18892,0 -0.17711,-0.009 -0.1535,-0.0276 -0.12988,-0.0459 -0.10627,-0.0643 -0.0827,-0.0827 -0.059,-0.10102 -0.0354,-0.11939 -0.0118,-0.13776 0.0118,-0.13119 0.0354,-0.1137 0.059,-0.0962 0.0827,-0.0787 0.10627,-0.0612 0.12988,-0.0437 0.1535,-0.0263 0.17711,-0.009 0.86763,0 0.86764,0 0.86763,0 0.86764,0 0.86763,0 0.86763,0 0.86764,0 0.86763,0 0.50204,0.0206 0.48454,0.0617 0.46705,0.10277 0.44957,0.14388 0.43206,0.18498 0.41458,0.22609 0.39709,0.2672 0.37959,0.3083 0.35422,0.3293 0.30699,0.34417 0.25977,0.35904 0.21253,0.3739 0.16531,0.38878 0.11807,0.40364 0.0709,0.4185 0.0236,0.43338 -0.0608,0.65729 -0.18236,0.61443 -0.30394,0.57157 -0.42551,0.52872 -0.54708,0.48586 -0.66865,0.443 -0.79023,0.40014 -0.9118,0.35728 0.3223,0.22784 0.30918,0.23572 0.29606,0.24358 0.28294,0.25146 0.26983,0.25933 0.2567,0.2672 0.24359,0.27507 0.23047,0.28294 0.23658,0.31574 0.26195,0.37347 0.28732,0.4312 0.31268,0.48892 0.33804,0.54664 0.36341,0.60437 0.38878,0.66209 0.41414,0.71982 0.10846,0 0.10845,0 0.10846,0 0.10845,0 0.10846,0 0.10845,0 0.10846,0 0.10845,0 0.17711,0.009 0.15349,0.0262 0.12988,0.0437 0.10627,0.0612 0.0827,0.0787 0.059,0.0962 0.0354,0.1137 0.0118,0.1312 -0.0118,0.13775 -0.0354,0.11939 -0.059,0.10102 -0.0827,0.0827 -0.10627,0.0643 -0.12988,0.0459 -0.15349,0.0275 -0.17711,0.009 -0.19942,0 -0.19941,0 -0.19942,0 -0.19941,0 -0.19942,0 -0.19942,0 -0.19941,0 -0.19942,0 -0.45175,-0.82259 -0.43164,-0.76049 -0.41151,-0.69839 -0.3914,-0.6363 -0.37128,-0.57419 -0.35117,-0.5121 -0.33104,-0.45 -0.31093,-0.3879 -0.30044,-0.35247 -0.31356,-0.32974 -0.32667,-0.30699 -0.3398,-0.28426 -0.35291,-0.26151 -0.36603,-0.23878 -0.37915,-0.21603 -0.39227,-0.1933 -0.4618,0 -0.46181,0 -0.4618,0 -0.46181,0 -0.4618,0 -0.46181,0 -0.4618,0 -0.46181,0 m 0,-1.14752 0.39883,0 0.39883,0 0.39883,0 0.39884,0 0.39883,0 0.39883,0 0.39883,0 0.39883,0 0.50816,-0.0149 0.48892,-0.0446 0.46967,-0.0743 0.45044,-0.10408 0.43119,-0.13382 0.41196,-0.16356 0.39271,-0.19329 0.37347,-0.22303 0.3411,-0.24402 0.29562,-0.25626 0.25015,-0.26851 0.20466,-0.28076 0.15918,-0.293 0.1137,-0.30525 0.0682,-0.3175 0.0227,-0.32974 -0.0188,-0.31005 -0.0564,-0.30043 -0.094,-0.29082 -0.13163,-0.28119 -0.16924,-0.27157 -0.20685,-0.26196 -0.24445,-0.25233 -0.28207,-0.24272 -0.29913,-0.22958 -0.30962,-0.19898 -0.32012,-0.16836 -0.33061,-0.13776 -0.3411,-0.10714 -0.3516,-0.0765 -0.3621,-0.0459 -0.37259,-0.0153 -0.53527,0 -0.53528,0 -0.53527,0 -0.53527,0 -0.53528,0 -0.53527,0 -0.53528,0 -0.53527,0 0,0.80466 0,0.80466 0,0.80466 0,0.80466 0,0.80466 0,0.80466 0,0.80466 0,0.80466"
       inkscape:connector-curvature="0"
       sodipodi:nodetypes="cccccccccccccccccccccccccccccccccccccccccccccccccccccccccccccccccccccccccccccccccccccccccccccccccccccccccccccccccccccccccccccccccccccccccccccccccccccccccccccccccccccccccccccccccccccccccccccccccccccccccccccccccccccccccccccccccccccccccccccccccccccccccccccccccccccccccccccccccccccccccccccccccccccccccccccccccccccccccccccccccccccccccccccccccccccccccccccccccccccccccccccccccccccccccccccccccccccccccccccccccccccccccccccccccccccccccccccccccccccccccccccccccccccccccccccccccccccccccccccccccccccccccccccccccccccccccccccccccccccccccccccccccccccccccccccccccccccccccccccccccccccccccccccccccccccccccccccccccccccccccccccccccccccccccccccccccccccccccccccccccccccccccccccccccccccccccccccccccccccccccccccccccccccccccccccccccccccccccccccccccccccc" />
  </g>
</svg>
