<?xml version="1.0" encoding="UTF-8" standalone="no"?>
<!-- Created with Inkscape (http://www.inkscape.org/) -->

<svg
   xmlns:dc="http://purl.org/dc/elements/1.1/"
   xmlns:cc="http://creativecommons.org/ns#"
   xmlns:rdf="http://www.w3.org/1999/02/22-rdf-syntax-ns#"
   xmlns:svg="http://www.w3.org/2000/svg"
   xmlns="http://www.w3.org/2000/svg"
   xmlns:sodipodi="http://sodipodi.sourceforge.net/DTD/sodipodi-0.dtd"
   xmlns:inkscape="http://www.inkscape.org/namespaces/inkscape"
   width="128.69545"
   height="53.149605"
   id="svg2"
   version="1.1"
   inkscape:version="0.48.2 r9819"
   sodipodi:docname="New document 1">
  <defs
     id="defs4" />
  <sodipodi:namedview
     id="base"
     pagecolor="#ffffff"
     bordercolor="#666666"
     borderopacity="1.0"
     inkscape:pageopacity="0.0"
     inkscape:pageshadow="2"
     inkscape:zoom="3.9029631"
     inkscape:cx="157.43995"
     inkscape:cy="37.446136"
     inkscape:document-units="px"
     inkscape:current-layer="layer1"
     showgrid="false"
     fit-margin-top="0"
     fit-margin-left="0"
     fit-margin-right="0"
     fit-margin-bottom="0"
     inkscape:window-width="1920"
     inkscape:window-height="1011"
     inkscape:window-x="0"
     inkscape:window-y="0"
     inkscape:window-maximized="1" />
  <metadata
     id="metadata7">
    <rdf:RDF>
      <cc:Work
         rdf:about="">
        <dc:format>image/svg+xml</dc:format>
        <dc:type
           rdf:resource="http://purl.org/dc/dcmitype/StillImage" />
        <dc:title></dc:title>
      </cc:Work>
    </rdf:RDF>
  </metadata>
  <g
     inkscape:label="Layer 1"
     inkscape:groupmode="layer"
     id="layer1"
     transform="translate(633.75768,-565.04575)">
    <path
       id="path3020"
       style="font-size:27.53865623px;font-style:normal;font-variant:normal;font-weight:normal;font-stretch:normal;line-height:125%;letter-spacing:0px;word-spacing:0px;fill:#000000;fill-opacity:1;stroke:none;font-family:FreeMono;-inkscape-font-specification:FreeMono"
       d="m -505.06223,606.82189 0,2.75386 c -10e-6,2.16638 -0.47735,3.92886 -1.43201,5.28743 -0.95469,1.35857 -2.19392,2.03786 -3.71772,2.03786 -1.52381,0 -2.76305,-0.67929 -3.71772,-2.03786 -0.95468,-1.35857 -1.43201,-3.12105 -1.43201,-5.28743 l 0,-2.75386 c 0,-2.18472 0.47733,-3.95638 1.43201,-5.31496 0.95467,-1.35856 2.19391,-2.03785 3.71772,-2.03786 1.5238,10e-6 2.76303,0.6793 3.71772,2.03786 0.95466,1.35858 1.432,3.13024 1.43201,5.31496 m -5.14973,-6.22374 c -1.24843,2e-5 -2.23064,0.63341 -2.94664,1.90017 -0.71601,1.24843 -1.07401,2.73552 -1.074,4.46126 l 0,2.45094 c -10e-6,1.7992 0.36717,3.31382 1.10154,4.54388 0.75272,1.2117 1.72575,1.81755 2.9191,1.81755 1.24841,0 2.23062,-0.62421 2.94664,-1.87263 0.71599,-1.26677 1.07399,-2.76304 1.074,-4.4888 l 0,-2.45094 c -10e-6,-1.79918 -0.37637,-3.30462 -1.12908,-4.51634 -0.73438,-1.23004 -1.69823,-1.84507 -2.89156,-1.84509 m -11.36271,6.22374 0,2.75386 c -10e-6,2.16638 -0.47735,3.92886 -1.43201,5.28743 -0.95468,1.35857 -2.19392,2.03786 -3.71772,2.03786 -1.52381,0 -2.76305,-0.67929 -3.71771,-2.03786 -0.95468,-1.35857 -1.43202,-3.12105 -1.43201,-5.28743 l 0,-2.75386 c -1e-5,-2.18472 0.47733,-3.95638 1.43201,-5.31496 0.95466,-1.35856 2.1939,-2.03785 3.71771,-2.03786 1.5238,10e-6 2.76304,0.6793 3.71772,2.03786 0.95466,1.35858 1.432,3.13024 1.43201,5.31496 m -5.14973,-6.22374 c -1.24842,2e-5 -2.23063,0.63341 -2.94663,1.90017 -0.71601,1.24843 -1.07401,2.73552 -1.07401,4.46126 l 0,2.45094 c 0,1.7992 0.36718,3.31382 1.10155,4.54388 0.75271,1.2117 1.72575,1.81755 2.91909,1.81755 1.24841,0 2.23063,-0.62421 2.94664,-1.87263 0.71599,-1.26677 1.074,-2.76304 1.07401,-4.4888 l 0,-2.45094 c -10e-6,-1.79918 -0.37638,-3.30462 -1.12909,-4.51634 -0.73437,-1.23004 -1.69822,-1.84507 -2.89156,-1.84509 m -11.3627,6.22374 0,2.75386 c -2e-5,2.16638 -0.47735,3.92886 -1.43201,5.28743 -0.95469,1.35857 -2.19393,2.03786 -3.71772,2.03786 -1.52381,0 -2.76305,-0.67929 -3.71772,-2.03786 -0.95468,-1.35857 -1.43201,-3.12105 -1.43201,-5.28743 l 0,-2.75386 c 0,-2.18472 0.47733,-3.95638 1.43201,-5.31496 0.95467,-1.35856 2.19391,-2.03785 3.71772,-2.03786 1.52379,10e-6 2.76303,0.6793 3.71772,2.03786 0.95466,1.35858 1.43199,3.13024 1.43201,5.31496 m -5.14973,-6.22374 c -1.24843,2e-5 -2.23064,0.63341 -2.94664,1.90017 -0.71601,1.24843 -1.07401,2.73552 -1.07401,4.46126 l 0,2.45094 c 0,1.7992 0.36718,3.31382 1.10155,4.54388 0.75272,1.2117 1.72575,1.81755 2.9191,1.81755 1.24841,0 2.23062,-0.62421 2.94663,-1.87263 0.716,-1.26677 1.074,-2.76304 1.07401,-4.4888 l 0,-2.45094 c -10e-6,-1.79918 -0.37637,-3.30462 -1.12908,-4.51634 -0.73438,-1.23004 -1.69823,-1.84507 -2.89156,-1.84509 m -11.36271,6.22374 0,2.75386 c -10e-6,2.16638 -0.47735,3.92886 -1.43201,5.28743 -0.95468,1.35857 -2.19392,2.03786 -3.71772,2.03786 -1.52381,0 -2.76305,-0.67929 -3.71772,-2.03786 -0.95467,-1.35857 -1.43201,-3.12105 -1.43201,-5.28743 l 0,-2.75386 c 0,-2.18472 0.47734,-3.95638 1.43201,-5.31496 0.95467,-1.35856 2.19391,-2.03785 3.71772,-2.03786 1.5238,10e-6 2.76304,0.6793 3.71772,2.03786 0.95466,1.35858 1.432,3.13024 1.43201,5.31496 m -5.14973,-6.22374 c -1.24842,2e-5 -2.23063,0.63341 -2.94663,1.90017 -0.71601,1.24843 -1.07402,2.73552 -1.07401,4.46126 l 0,2.45094 c -10e-6,1.7992 0.36718,3.31382 1.10155,4.54388 0.75271,1.2117 1.72574,1.81755 2.91909,1.81755 1.24841,0 2.23062,-0.62421 2.94664,-1.87263 0.71599,-1.26677 1.07399,-2.76304 1.07401,-4.4888 l 0,-2.45094 c -2e-5,-1.79918 -0.37638,-3.30462 -1.12909,-4.51634 -0.73437,-1.23004 -1.69823,-1.84507 -2.89156,-1.84509 m -15.93412,16.8812 0.44062,-6.1962 -2.50602,0 -0.41308,6.1962 c -0.0551,0.47733 -0.24785,0.716 -0.57831,0.716 -0.14688,0 -0.27539,-0.0551 -0.38554,-0.16523 -0.11016,-0.11015 -0.16524,-0.24785 -0.16524,-0.41308 0,-0.0918 0,-0.16523 0,-0.22031 l 0.44062,-6.11358 -2.39586,0 c -0.4957,10e-6 -0.74355,-0.19276 -0.74354,-0.57831 -10e-6,-0.36718 0.24784,-0.55077 0.74354,-0.55077 l 2.45094,0 0.24785,-3.46988 -2.14802,0 c -0.4957,1e-5 -0.74354,-0.19276 -0.74354,-0.57831 0,-0.36717 0.24784,-0.55076 0.74354,-0.55077 l 2.23063,0 0.44062,-6.1962 c 0.0367,-0.45896 0.22948,-0.68845 0.57831,-0.68846 0.34882,1e-5 0.52323,0.2295 0.52324,0.68846 -10e-6,0.0184 -10e-6,0.0459 0,0.0826 l -0.41308,6.11358 2.50602,0 0.44062,-6.1962 c 0.0183,-0.45896 0.20194,-0.68845 0.55077,-0.68846 0.36717,10e-6 0.55076,0.2295 0.55077,0.68846 -1e-5,0.0367 -1e-5,0.0643 0,0.0826 l -0.44062,6.11358 2.45094,0 c 0.49569,10e-6 0.74353,0.1836 0.74355,0.55077 -2e-5,0.38555 -0.24786,0.57832 -0.74355,0.57831 l -2.50601,0 -0.24785,3.46988 2.20309,0 c 0.49568,0 0.74353,0.18359 0.74354,0.55077 -10e-6,0.38555 -0.24786,0.57832 -0.74354,0.57831 l -2.28571,0 -0.44062,6.1962 c -0.0184,0.47733 -0.21114,0.716 -0.57831,0.716 -0.12852,0 -0.25703,-0.0551 -0.38554,-0.16523 -0.11016,-0.11015 -0.16524,-0.22031 -0.16523,-0.33046 -10e-6,-0.0734 -10e-6,-0.14688 0,-0.22031 m 0.77108,-10.79516 -2.50602,0 -0.24784,3.46988 2.50601,0 0.24785,-3.46988 m -12.7121,0.13774 0,2.75386 c -10e-6,2.16638 -0.47735,3.92886 -1.43201,5.28743 -0.95469,1.35857 -2.19392,2.03786 -3.71772,2.03786 -1.52381,0 -2.76305,-0.67929 -3.71772,-2.03786 -0.95467,-1.35857 -1.43201,-3.12105 -1.43201,-5.28743 l 0,-2.75386 c 0,-2.18472 0.47734,-3.95638 1.43201,-5.31496 0.95467,-1.35856 2.19391,-2.03785 3.71772,-2.03786 1.5238,10e-6 2.76303,0.6793 3.71772,2.03786 0.95466,1.35858 1.432,3.13024 1.43201,5.31496 m -5.14973,-6.22374 c -1.24843,2e-5 -2.23064,0.63341 -2.94664,1.90017 -0.71601,1.24843 -1.07401,2.73552 -1.074,4.46126 l 0,2.45094 c -1e-5,1.7992 0.36717,3.31382 1.10154,4.54388 0.75272,1.2117 1.72575,1.81755 2.9191,1.81755 1.24841,0 2.23062,-0.62421 2.94664,-1.87263 0.71599,-1.26677 1.07399,-2.76304 1.074,-4.4888 l 0,-2.45094 c -10e-6,-1.79918 -0.37637,-3.30462 -1.12908,-4.51634 -0.73437,-1.23004 -1.69823,-1.84507 -2.89156,-1.84509 m -11.36271,6.22374 0,2.75386 c -10e-6,2.16638 -0.47735,3.92886 -1.43201,5.28743 -0.95468,1.35857 -2.19392,2.03786 -3.71772,2.03786 -1.52381,0 -2.76305,-0.67929 -3.71771,-2.03786 -0.95468,-1.35857 -1.43202,-3.12105 -1.43201,-5.28743 l 0,-2.75386 c -1e-5,-2.18472 0.47733,-3.95638 1.43201,-5.31496 0.95466,-1.35856 2.1939,-2.03785 3.71771,-2.03786 1.5238,10e-6 2.76304,0.6793 3.71772,2.03786 0.95466,1.35858 1.432,3.13024 1.43201,5.31496 m -5.14973,-6.22374 c -1.24842,2e-5 -2.23063,0.63341 -2.94663,1.90017 -0.71601,1.24843 -1.07401,2.73552 -1.07401,4.46126 l 0,2.45094 c 0,1.7992 0.36718,3.31382 1.10155,4.54388 0.75271,1.2117 1.72575,1.81755 2.91909,1.81755 1.24841,0 2.23063,-0.62421 2.94664,-1.87263 0.71599,-1.26677 1.074,-2.76304 1.07401,-4.4888 l 0,-2.45094 c -10e-6,-1.79918 -0.37637,-3.30462 -1.12909,-4.51634 -0.73437,-1.23004 -1.69822,-1.84507 -2.89156,-1.84509 m -18.52275,1.51463 0,13.24609 7.51805,0 0,-4.40618 c -10e-6,-0.49569 0.19276,-0.74354 0.57831,-0.74355 0.36717,10e-6 0.55076,0.24786 0.55078,0.74355 l 0,5.53527 -12.41994,0 c -0.4957,0 -0.74354,-0.19277 -0.74354,-0.57832 0,-0.36718 0.24784,-0.55077 0.74354,-0.55077 l 2.64371,0 0,-13.24609 -2.64371,0 c -0.4957,10e-6 -0.74354,-0.19276 -0.74354,-0.57831 0,-0.36717 0.24784,-0.55076 0.74354,-0.55078 l 6.41651,0 c 0.49568,2e-5 0.74353,0.18361 0.74354,0.55078 -10e-6,0.38555 -0.24786,0.57832 -0.74354,0.57831 l -2.64371,0 m 96.23813,-21.17723 0,-13.24609 -1.48709,0 c -0.49569,10e-6 -0.74354,-0.19276 -0.74354,-0.57831 0,-0.36717 0.24785,-0.55076 0.74354,-0.55078 l 7.10498,0 c 1.3402,2e-5 2.46011,0.38556 3.35971,1.15663 0.89959,0.75273 1.34938,1.69823 1.3494,2.83648 -2e-5,1.35858 -0.78028,2.46013 -2.34079,3.30464 2.33159,0.82616 3.4974,2.1572 3.49741,3.9931 -10e-6,1.15663 -0.44981,2.14802 -1.34939,2.97418 -0.88125,0.82616 -1.94608,1.23924 -3.19449,1.23924 l -8.42683,0 c -0.49569,0 -0.74354,-0.19277 -0.74354,-0.57832 0,-0.36718 0.24785,-0.55077 0.74354,-0.55077 l 1.48709,0 m 1.12909,-7.49051 4.04818,0 c 1.17497,1e-5 2.13882,-0.27538 2.89156,-0.82616 0.75271,-0.55077 1.12907,-1.24841 1.12908,-2.09294 -10e-6,-0.80779 -0.33965,-1.4779 -1.01893,-2.01032 -0.6793,-0.55076 -1.52381,-0.82615 -2.53355,-0.82616 l -4.51634,0 0,5.75558 m 9.22545,4.40618 c -2e-5,-0.38553 -0.0826,-0.75272 -0.24785,-1.10154 -0.14689,-0.34882 -0.39474,-0.68846 -0.74355,-1.01893 -0.34883,-0.34882 -0.88124,-0.62421 -1.59724,-0.82616 -0.69765,-0.22031 -1.54217,-0.33046 -2.53355,-0.33047 l -4.10326,0 0,6.36143 5.72804,0 c 0.97302,0 1.79918,-0.29374 2.47848,-0.88124 0.67927,-0.60584 1.01891,-1.34021 1.01893,-2.20309 m -21.02878,4.21342 -1.92771,0 -4.62649,-10.35454 -1.12908,0 c -0.4957,10e-6 -0.74355,-0.19276 -0.74355,-0.57831 0,-0.36717 0.24785,-0.55076 0.74355,-0.55077 l 4.15833,0 c 0.51405,1e-5 0.77108,0.1836 0.77108,0.55077 0,0.38555 -0.25703,0.57832 -0.77108,0.57831 l -1.79001,0 4.1308,9.22545 0.52323,0 4.04818,-9.22545 -1.87262,0 c -0.49571,10e-6 -0.74356,-0.19276 -0.74355,-0.57831 -10e-6,-0.36717 0.24784,-0.55076 0.74355,-0.55077 l 4.18587,0 c 0.49568,1e-5 0.74353,0.1836 0.74355,0.55077 -2e-5,0.38555 -0.24787,0.57832 -0.74355,0.57831 l -1.12908,0 -4.57142,10.35454 m -11.44532,-5.4802 -11.45608,0 c 0.20194,1.45038 0.80779,2.61618 1.81755,3.49741 1.00974,0.86288 2.25816,1.29432 3.74525,1.29432 0.86287,0 1.74411,-0.13769 2.64372,-0.41308 0.89958,-0.27539 1.62476,-0.63339 2.17555,-1.07401 0.18358,-0.12851 0.33045,-0.19277 0.44062,-0.19277 0.14686,0 0.26619,0.0551 0.358,0.16523 0.11014,0.11016 0.16522,0.23867 0.16523,0.38554 -10e-6,0.47734 -0.66094,0.97304 -1.98278,1.48709 -1.30351,0.51406 -2.57946,0.77108 -3.82787,0.77108 -1.85428,0 -3.43316,-0.6242 -4.73665,-1.87262 -1.28514,-1.24842 -1.92771,-2.76304 -1.92771,-4.54388 0,-1.67067 0.60585,-3.06596 1.81755,-4.18588 1.2117,-1.13825 2.69878,-1.70738 4.46126,-1.70739 1.85426,10e-6 3.36889,0.5875 4.54388,1.76247 1.17497,1.15663 1.76246,2.6988 1.76248,4.62649 m -11.45608,-1.12908 10.29945,0 c -0.22032,-1.24841 -0.79863,-2.24898 -1.73493,-3.00171 -0.93633,-0.75272 -2.07459,-1.12908 -3.4148,-1.12909 -1.34022,10e-6 -2.4693,0.37637 -3.38725,1.12909 -0.91796,0.73437 -1.50545,1.73494 -1.76247,3.00171 m -5.05636,-2.86402 c -0.0918,1e-5 -0.37637,-0.19276 -0.8537,-0.57831 -0.47735,-0.38553 -0.9455,-0.5783 -1.40447,-0.57832 -0.62422,2e-5 -1.27597,0.22032 -1.95524,0.66093 -0.66094,0.44063 -1.75331,1.35858 -3.2771,2.75387 l 0,6.08604 4.92942,0 c 0.49568,0 0.74353,0.19277 0.74354,0.57831 -10e-6,0.36719 -0.24786,0.55078 -0.74354,0.55078 l -8.70222,0 c -0.4957,0 -0.74355,-0.19277 -0.74354,-0.57832 -10e-6,-0.36718 0.24784,-0.55077 0.74354,-0.55077 l 2.64371,0 0,-9.22545 -2.0654,0 c -0.4957,10e-6 -0.74354,-0.19276 -0.74354,-0.57831 0,-0.36717 0.24784,-0.55076 0.74354,-0.55077 l 3.19449,0 0,2.80894 c 1.26677,-1.15661 2.29488,-1.95523 3.08433,-2.39586 0.78943,-0.45897 1.53297,-0.68846 2.23063,-0.68847 0.73435,1e-5 1.37692,0.22032 1.9277,0.66093 0.55076,0.44063 0.82615,0.78945 0.82616,1.04647 -10e-6,0.16524 -0.0551,0.30293 -0.16523,0.41308 -0.11017,0.11016 -0.24786,0.16524 -0.41308,0.16523 m -27.96852,-3.46987 c 0,-0.82615 0.4957,-1.70738 1.48709,-2.64371 1.00975,-0.95466 2.22145,-1.432 3.6351,-1.43201 1.34021,10e-6 2.51519,0.47735 3.52495,1.43201 1.0281,0.95468 1.54215,2.05623 1.54217,3.30464 -2e-5,0.82617 -0.24786,1.60643 -0.74355,2.34078 -0.47735,0.71602 -1.55135,1.85428 -3.22202,3.41479 l -5.7005,5.31497 0,0.0826 8.64714,0 0,-0.99139 c -2e-5,-0.49569 0.19276,-0.74354 0.57831,-0.74354 0.36717,0 0.55076,0.24785 0.55077,0.74354 l 0,2.12048 -10.85023,0 0,-1.65232 6.49912,-6.11358 c 1.28513,-1.26677 2.12047,-2.18473 2.50602,-2.75387 0.40389,-0.56912 0.60584,-1.16579 0.60585,-1.79001 -10e-6,-0.95466 -0.39473,-1.79 -1.18416,-2.50602 -0.78945,-0.71599 -1.70741,-1.07399 -2.75387,-1.07401 -0.93632,2e-5 -1.79001,0.2754 -2.56109,0.82616 -0.75273,0.55079 -1.23924,1.23925 -1.45955,2.0654 -0.11016,0.3672 -0.30293,0.55079 -0.57831,0.55077 -0.12852,2e-5 -0.24785,-0.0459 -0.358,-0.13769 -0.11016,-0.11014 -0.16524,-0.22948 -0.16524,-0.358 m -10.39885,8.28914 -1.26678,0 -4.37864,-9.72114 -0.22031,0 0,13.24609 2.03786,0 c 0.51405,0 0.77107,0.18359 0.77108,0.55077 -1e-5,0.38555 -0.25703,0.57832 -0.77108,0.57832 l -4.10326,0 c -0.4957,0 -0.74355,-0.19277 -0.74355,-0.57832 0,-0.36718 0.24785,-0.55077 0.74355,-0.55077 l 0.93631,0 0,-13.24609 -0.68847,0 c -0.49569,10e-6 -0.74354,-0.19276 -0.74354,-0.57831 0,-0.36717 0.24785,-0.55076 0.74354,-0.55078 l 2.72633,0 4.32357,9.58346 4.24095,-9.58346 2.75387,0 c 0.49568,2e-5 0.74353,0.18361 0.74354,0.55078 -10e-6,0.38555 -0.24786,0.57832 -0.74354,0.57831 l -0.68847,0 0,13.24609 0.93632,0 c 0.49568,0 0.74352,0.18359 0.74354,0.55077 -2e-5,0.38555 -0.24786,0.57832 -0.74354,0.57832 l -4.10326,0 c -0.49571,0 -0.74356,-0.19277 -0.74355,-0.57832 -1e-5,-0.36718 0.24784,-0.55077 0.74355,-0.55077 l 2.03786,0 0,-13.24609 -0.22031,0 -4.32357,9.72114 m -16.51244,0 -1.26677,0 -4.37865,-9.72114 -0.22031,0 0,13.24609 2.03786,0 c 0.51405,0 0.77108,0.18359 0.77108,0.55077 0,0.38555 -0.25703,0.57832 -0.77108,0.57832 l -4.10326,0 c -0.4957,0 -0.74354,-0.19277 -0.74354,-0.57832 0,-0.36718 0.24784,-0.55077 0.74354,-0.55077 l 0.93632,0 0,-13.24609 -0.68847,0 c -0.4957,10e-6 -0.74355,-0.19276 -0.74354,-0.57831 -1e-5,-0.36717 0.24784,-0.55076 0.74354,-0.55078 l 2.72633,0 4.32356,9.58346 4.24096,-9.58346 2.75386,0 c 0.49568,2e-5 0.74353,0.18361 0.74355,0.55078 -2e-5,0.38555 -0.24787,0.57832 -0.74355,0.57831 l -0.68846,0 0,13.24609 0.93631,0 c 0.49568,0 0.74353,0.18359 0.74355,0.55077 -2e-5,0.38555 -0.24787,0.57832 -0.74355,0.57832 l -4.10326,0 c -0.49571,0 -0.74355,-0.19277 -0.74354,-0.57832 -1e-5,-0.36718 0.24783,-0.55077 0.74354,-0.55077 l 2.03786,0 0,-13.24609 -0.22031,0 -4.32357,9.72114" />
  </g>
</svg>
