  0
SECTION
  2
HEADER
  9
$ACADVER
  1
AC1014
  9
$HANDSEED
  5
FFFF
  9
$MEASUREMENT
 70
     1
  0
ENDSEC
  0
SECTION
  2
TABLES
  0
TABLE
  2
VPORT
  5
8
330
0
100
AcDbSymbolTable
 70
     4
  0
VPORT
  5
2E
330
8
100
AcDbSymbolTableRecord
100
AcDbViewportTableRecord
  2
*ACTIVE
 70
     0
 10
0.0
 20
0.0
 11
1.0
 21
1.0
 12
210.0
 22
148.5
 13
0.0
 23
0.0
 14
10.0
 24
10.0
 15
10.0
 25
10.0
 16
0.0
 26
0.0
 36
1.0
 17
0.0
 27
0.0
 37
0.0
 40
341.0
 41
1.24
 42
50.0
 43
0.0
 44
0.0
 50
0.0
 51
0.0
 71
     0
 72
   100
 73
     1
 74
     3
 75
     0
 76
     0
 77
     0
 78
     0
  0
ENDTAB
  0
TABLE
  2
LTYPE
  5
5
330
0
100
AcDbSymbolTable
 70
     1
  0
LTYPE
  5
14
330
5
100
AcDbSymbolTableRecord
100
AcDbLinetypeTableRecord
  2
BYBLOCK
 70
     0
  3

 72
    65
 73
     0
 40
0.0
  0
LTYPE
  5
15
330
5
100
AcDbSymbolTableRecord
100
AcDbLinetypeTableRecord
  2
BYLAYER
 70
     0
  3

 72
    65
 73
     0
 40
0.0
  0
LTYPE
  5
16
330
5
100
AcDbSymbolTableRecord
100
AcDbLinetypeTableRecord
  2
CONTINUOUS
 70
     0
  3
Solid line
 72
    65
 73
     0
 40
0.0
  0
ENDTAB
  0
TABLE
  2
LAYER
  5
2
100
AcDbSymbolTable
 70
2
  0
LAYER
  5
50
100
AcDbSymbolTableRecord
100
AcDbLayerTableRecord
  2
0
 70
0
  6
CONTINUOUS
  0
LAYER
  5
51
100
AcDbSymbolTableRecord
100
AcDbLayerTableRecord
  2
Camada_1
 70
0
  6
CONTINUOUS
  0
ENDTAB
  0
TABLE
  2
STYLE
  5
3
330
0
100
AcDbSymbolTable
 70
     1
  0
STYLE
  5
11
330
3
100
AcDbSymbolTableRecord
100
AcDbTextStyleTableRecord
  2
STANDARD
 70
     0
 40
0.0
 41
1.0
 50
0.0
 71
     0
 42
2.5
  3
txt
  4

  0
ENDTAB
  0
TABLE
  2
VIEW
  5
6
330
0
100
AcDbSymbolTable
 70
     0
  0
ENDTAB
  0
TABLE
  2
UCS
  5
7
330
0
100
AcDbSymbolTable
 70
     0
  0
ENDTAB
  0
TABLE
  2
APPID
  5
9
330
0
100
AcDbSymbolTable
 70
     2
  0
APPID
  5
12
330
9
100
AcDbSymbolTableRecord
100
AcDbRegAppTableRecord
  2
ACAD
 70
     0
  0
ENDTAB
  0
TABLE
  2
DIMSTYLE
  5
A
330
0
100
AcDbSymbolTable
 70
     1
  0
DIMSTYLE
105
27
330
A
100
AcDbSymbolTableRecord
100
AcDbDimStyleTableRecord
  2
ISO-25
 70
     0
  3

  4

  5

  6

  7

 40
1.0
 41
2.5
 42
0.625
 43
3.75
 44
1.25
 45
0.0
 46
0.0
 47
0.0
 48
0.0
140
2.5
141
2.5
142
0.0
143
0.03937007874016
144
1.0
145
0.0
146
1.0
147
0.625
 71
     0
 72
     0
 73
     0
 74
     0
 75
     0
 76
     0
 77
     1
 78
     8
170
     0
171
     3
172
     1
173
     0
174
     0
175
     0
176
     0
177
     0
178
     0
270
     2
271
     2
272
     2
273
     2
274
     3
340
11
275
     0
280
     0
281
     0
282
     0
283
     0
284
     8
285
     0
286
     0
287
     3
288
     0
  0
ENDTAB
  0
TABLE
  2
BLOCK_RECORD
  5
1
330
0
100
AcDbSymbolTable
 70
     1
  0
BLOCK_RECORD
  5
1F
330
1
100
AcDbSymbolTableRecord
100
AcDbBlockTableRecord
  2
*MODEL_SPACE
  0
BLOCK_RECORD
  5
1B
330
1
100
AcDbSymbolTableRecord
100
AcDbBlockTableRecord
  2
*PAPER_SPACE
  0
ENDTAB
  0
ENDSEC
  0
SECTION
  2
BLOCKS
  0
BLOCK
  5
20
330
1F
100
AcDbEntity
  8
0
100
AcDbBlockBegin
  2
*MODEL_SPACE
 70
     0
 10
0.0
 20
0.0
 30
0.0
  3
*MODEL_SPACE
  1

  0
ENDBLK
  5
21
330
1F
100
AcDbEntity
  8
0
100
AcDbBlockEnd
  0
BLOCK
  5
1C
330
1B
100
AcDbEntity
 67
     1
  8
0
100
AcDbBlockBegin
  2
*PAPER_SPACE
  1

  0
ENDBLK
  5
1D
330
1B
100
AcDbEntity
 67
     1
  8
0
100
AcDbBlockEnd
  0
ENDSEC
  0
SECTION
  2
ENTITIES
  0
LWPOLYLINE
  5
100
100
AcDbEntity
  8
Camada_1
 62
7
100
AcDbPolyline
 90
50
 70
0
 10
13.555486
 20
19.840139
 30
0.0
 10
13.484931
 20
19.699028
 30
0.0
 10
13.414375
 20
19.549097
 30
0.0
 10
13.335000
 20
19.390347
 30
0.0
 10
13.246806
 20
19.222778
 30
0.0
 10
13.158611
 20
19.055208
 30
0.0
 10
13.070417
 20
18.887639
 30
0.0
 10
12.973403
 20
18.720069
 30
0.0
 10
12.876389
 20
18.552500
 30
0.0
 10
12.779375
 20
18.384931
 30
0.0
 10
12.682361
 20
18.226181
 30
0.0
 10
12.585347
 20
18.067431
 30
0.0
 10
12.488333
 20
17.908681
 30
0.0
 10
12.391319
 20
17.758750
 30
0.0
 10
12.303125
 20
17.608819
 30
0.0
 10
12.206111
 20
17.476528
 30
0.0
 10
12.117917
 20
17.353056
 30
0.0
 10
12.117917
 20
17.300139
 30
0.0
 10
12.117917
 20
17.238403
 30
0.0
 10
12.117917
 20
17.185486
 30
0.0
 10
12.117917
 20
17.132569
 30
0.0
 10
12.364861
 20
17.132569
 30
0.0
 10
12.620625
 20
17.132569
 30
0.0
 10
12.867569
 20
17.132569
 30
0.0
 10
13.114514
 20
17.132569
 30
0.0
 10
13.264444
 20
17.256042
 30
0.0
 10
13.414375
 20
17.388333
 30
0.0
 10
13.573125
 20
17.538264
 30
0.0
 10
13.740694
 20
17.705833
 30
0.0
 10
13.908264
 20
17.873403
 30
0.0
 10
14.075833
 20
18.049792
 30
0.0
 10
14.234583
 20
18.235000
 30
0.0
 10
14.393333
 20
18.411389
 30
0.0
 10
14.552083
 20
18.596597
 30
0.0
 10
14.702014
 20
18.764167
 30
0.0
 10
14.843125
 20
18.940556
 30
0.0
 10
14.975417
 20
19.108125
 30
0.0
 10
15.098889
 20
19.266875
 30
0.0
 10
15.204722
 20
19.416806
 30
0.0
 10
15.292917
 20
19.549097
 30
0.0
 10
15.372292
 20
19.672569
 30
0.0
 10
15.372292
 20
19.716667
 30
0.0
 10
15.372292
 20
19.760764
 30
0.0
 10
15.372292
 20
19.796042
 30
0.0
 10
15.372292
 20
19.840139
 30
0.0
 10
14.913681
 20
19.840139
 30
0.0
 10
14.463889
 20
19.840139
 30
0.0
 10
14.005278
 20
19.840139
 30
0.0
 10
13.555486
 20
19.840139
 30
0.0
 10
13.555486
 20
19.840139
 30
0.0
  0
LWPOLYLINE
  5
101
100
AcDbEntity
  8
Camada_1
 62
7
100
AcDbPolyline
 90
90
 70
0
 10
162.965694
 20
19.328611
 30
0.0
 10
162.903958
 20
19.090486
 30
0.0
 10
162.824583
 20
18.887639
 30
0.0
 10
162.745208
 20
18.728889
 30
0.0
 10
162.648194
 20
18.605417
 30
0.0
 10
162.542361
 20
18.508403
 30
0.0
 10
162.418889
 20
18.437847
 30
0.0
 10
162.268958
 20
18.402569
 30
0.0
 10
162.092569
 20
18.384931
 30
0.0
 10
161.969097
 20
18.393750
 30
0.0
 10
161.836806
 20
18.420208
 30
0.0
 10
161.704514
 20
18.464306
 30
0.0
 10
161.563403
 20
18.526042
 30
0.0
 10
161.422292
 20
18.605417
 30
0.0
 10
161.272361
 20
18.684792
 30
0.0
 10
161.122431
 20
18.764167
 30
0.0
 10
160.963681
 20
18.852361
 30
0.0
 10
160.804931
 20
18.931736
 30
0.0
 10
160.646181
 20
19.019931
 30
0.0
 10
160.478611
 20
19.090486
 30
0.0
 10
160.311042
 20
19.161042
 30
0.0
 10
160.143472
 20
19.231597
 30
0.0
 10
159.975903
 20
19.275694
 30
0.0
 10
159.808333
 20
19.302153
 30
0.0
 10
159.631944
 20
19.310972
 30
0.0
 10
159.446736
 20
19.302153
 30
0.0
 10
159.270347
 20
19.275694
 30
0.0
 10
159.102778
 20
19.222778
 30
0.0
 10
158.944028
 20
19.152222
 30
0.0
 10
158.802917
 20
19.072847
 30
0.0
 10
158.661806
 20
18.975833
 30
0.0
 10
158.538333
 20
18.852361
 30
0.0
 10
158.414861
 20
18.720069
 30
0.0
 10
158.317847
 20
18.570139
 30
0.0
 10
158.220833
 20
18.402569
 30
0.0
 10
158.132639
 20
18.226181
 30
0.0
 10
158.062083
 20
18.032153
 30
0.0
 10
158.000347
 20
17.820486
 30
0.0
 10
157.956250
 20
17.600000
 30
0.0
 10
157.912153
 20
17.370694
 30
0.0
 10
157.885694
 20
17.132569
 30
0.0
 10
158.106181
 20
17.132569
 30
0.0
 10
158.317847
 20
17.132569
 30
0.0
 10
158.529514
 20
17.132569
 30
0.0
 10
158.750000
 20
17.132569
 30
0.0
 10
158.811736
 20
17.370694
 30
0.0
 10
158.882292
 20
17.564722
 30
0.0
 10
158.970486
 20
17.732292
 30
0.0
 10
159.058681
 20
17.855764
 30
0.0
 10
159.173333
 20
17.952778
 30
0.0
 10
159.305625
 20
18.023333
 30
0.0
 10
159.455556
 20
18.067431
 30
0.0
 10
159.631944
 20
18.085069
 30
0.0
 10
159.764236
 20
18.067431
 30
0.0
 10
159.905347
 20
18.040972
 30
0.0
 10
160.046458
 20
17.996875
 30
0.0
 10
160.187569
 20
17.935139
 30
0.0
 10
160.337500
 20
17.855764
 30
0.0
 10
160.487431
 20
17.785208
 30
0.0
 10
160.637361
 20
17.697014
 30
0.0
 10
160.787292
 20
17.608819
 30
0.0
 10
160.946042
 20
17.520625
 30
0.0
 10
161.104792
 20
17.441250
 30
0.0
 10
161.263542
 20
17.361875
 30
0.0
 10
161.431111
 20
17.291319
 30
0.0
 10
161.589861
 20
17.229583
 30
0.0
 10
161.757431
 20
17.185486
 30
0.0
 10
161.925000
 20
17.159028
 30
0.0
 10
162.092569
 20
17.150208
 30
0.0
 10
162.277778
 20
17.159028
 30
0.0
 10
162.454167
 20
17.185486
 30
0.0
 10
162.621736
 20
17.238403
 30
0.0
 10
162.780486
 20
17.300139
 30
0.0
 10
162.921597
 20
17.388333
 30
0.0
 10
163.062708
 20
17.494167
 30
0.0
 10
163.186181
 20
17.608819
 30
0.0
 10
163.300833
 20
17.741111
 30
0.0
 10
163.406667
 20
17.891042
 30
0.0
 10
163.494861
 20
18.058611
 30
0.0
 10
163.583056
 20
18.235000
 30
0.0
 10
163.653611
 20
18.429028
 30
0.0
 10
163.715347
 20
18.640694
 30
0.0
 10
163.768264
 20
18.852361
 30
0.0
 10
163.812361
 20
19.090486
 30
0.0
 10
163.838819
 20
19.328611
 30
0.0
 10
163.618333
 20
19.328611
 30
0.0
 10
163.397847
 20
19.328611
 30
0.0
 10
163.186181
 20
19.328611
 30
0.0
 10
162.965694
 20
19.328611
 30
0.0
 10
162.965694
 20
19.328611
 30
0.0
  0
LWPOLYLINE
  5
102
100
AcDbEntity
  8
Camada_1
 62
7
100
AcDbPolyline
 90
66
 70
0
 10
172.129097
 20
16.356458
 30
0.0
 10
171.476458
 20
16.321181
 30
0.0
 10
170.867917
 20
16.241806
 30
0.0
 10
170.312292
 20
16.100694
 30
0.0
 10
169.791944
 20
15.906667
 30
0.0
 10
169.315694
 20
15.659722
 30
0.0
 10
168.883542
 20
15.377500
 30
0.0
 10
168.495486
 20
15.042361
 30
0.0
 10
168.142708
 20
14.654306
 30
0.0
 10
167.842847
 20
14.230972
 30
0.0
 10
167.578264
 20
13.763528
 30
0.0
 10
167.357778
 20
13.252028
 30
0.0
 10
167.172569
 20
12.696389
 30
0.0
 10
167.040278
 20
12.105472
 30
0.0
 10
166.943264
 20
11.488139
 30
0.0
 10
166.881528
 20
10.835472
 30
0.0
 10
166.863889
 20
10.147584
 30
0.0
 10
166.881528
 20
9.459639
 30
0.0
 10
166.943264
 20
8.807028
 30
0.0
 10
167.040278
 20
8.180833
 30
0.0
 10
167.172569
 20
7.581111
 30
0.0
 10
167.357778
 20
7.034306
 30
0.0
 10
167.569444
 20
6.513972
 30
0.0
 10
167.834028
 20
6.046528
 30
0.0
 10
168.133889
 20
5.614361
 30
0.0
 10
168.486667
 20
5.226305
 30
0.0
 10
168.874722
 20
4.891195
 30
0.0
 10
169.298056
 20
4.600139
 30
0.0
 10
169.774306
 20
4.353194
 30
0.0
 10
170.294653
 20
4.159167
 30
0.0
 10
170.859097
 20
4.018056
 30
0.0
 10
171.458819
 20
3.929861
 30
0.0
 10
172.111458
 20
3.903417
 30
0.0
 10
172.737639
 20
3.929861
 30
0.0
 10
173.319722
 20
4.018056
 30
0.0
 10
173.866528
 20
4.159167
 30
0.0
 10
174.369236
 20
4.353194
 30
0.0
 10
174.845486
 20
4.600139
 30
0.0
 10
175.277639
 20
4.891195
 30
0.0
 10
175.665694
 20
5.226305
 30
0.0
 10
176.018472
 20
5.614361
 30
0.0
 10
176.327153
 20
6.046528
 30
0.0
 10
176.600556
 20
6.513972
 30
0.0
 10
176.821042
 20
7.034306
 30
0.0
 10
177.015069
 20
7.581111
 30
0.0
 10
177.156181
 20
8.172028
 30
0.0
 10
177.262014
 20
8.798194
 30
0.0
 10
177.332569
 20
9.450833
 30
0.0
 10
177.350208
 20
10.129916
 30
0.0
 10
177.332569
 20
10.826667
 30
0.0
 10
177.262014
 20
11.479306
 30
0.0
 10
177.156181
 20
12.096667
 30
0.0
 10
177.015069
 20
12.687584
 30
0.0
 10
176.821042
 20
13.243194
 30
0.0
 10
176.600556
 20
13.754722
 30
0.0
 10
176.327153
 20
14.222139
 30
0.0
 10
176.018472
 20
14.645472
 30
0.0
 10
175.665694
 20
15.033542
 30
0.0
 10
175.277639
 20
15.368681
 30
0.0
 10
174.845486
 20
15.659722
 30
0.0
 10
174.378056
 20
15.906667
 30
0.0
 10
173.875347
 20
16.100694
 30
0.0
 10
173.337361
 20
16.241806
 30
0.0
 10
172.755278
 20
16.321181
 30
0.0
 10
172.129097
 20
16.356458
 30
0.0
 10
172.129097
 20
16.356458
 30
0.0
  0
LWPOLYLINE
  5
103
100
AcDbEntity
  8
Camada_1
 62
7
100
AcDbPolyline
 90
146
 70
0
 10
24.227014
 20
16.338819
 30
0.0
 10
23.539097
 20
16.312361
 30
0.0
 10
22.886458
 20
16.224167
 30
0.0
 10
22.277917
 20
16.091875
 30
0.0
 10
21.704653
 20
15.897847
 30
0.0
 10
21.175486
 20
15.659722
 30
0.0
 10
20.690417
 20
15.377500
 30
0.0
 10
20.249444
 20
15.042361
 30
0.0
 10
19.852569
 20
14.654306
 30
0.0
 10
19.499792
 20
14.230972
 30
0.0
 10
19.191111
 20
13.772361
 30
0.0
 10
18.926528
 20
13.260833
 30
0.0
 10
18.697222
 20
12.705194
 30
0.0
 10
18.529653
 20
12.114306
 30
0.0
 10
18.406181
 20
11.488139
 30
0.0
 10
18.335625
 20
10.826667
 30
0.0
 10
18.309167
 20
10.129916
 30
0.0
 10
18.335625
 20
9.433194
 30
0.0
 10
18.397361
 20
8.762917
 30
0.0
 10
18.512014
 20
8.136750
 30
0.0
 10
18.670764
 20
7.537028
 30
0.0
 10
18.864792
 20
6.981389
 30
0.0
 10
19.102917
 20
6.469861
 30
0.0
 10
19.385139
 20
6.002416
 30
0.0
 10
19.711458
 20
5.579083
 30
0.0
 10
20.073056
 20
5.199861
 30
0.0
 10
20.478750
 20
4.864722
 30
0.0
 10
20.919722
 20
4.573695
 30
0.0
 10
21.395972
 20
4.335556
 30
0.0
 10
21.916319
 20
4.150361
 30
0.0
 10
22.471944
 20
4.009250
 30
0.0
 10
23.062847
 20
3.929861
 30
0.0
 10
23.697847
 20
3.903417
 30
0.0
 10
24.006528
 20
3.912222
 30
0.0
 10
24.297569
 20
3.912222
 30
0.0
 10
24.579792
 20
3.929861
 30
0.0
 10
24.853194
 20
3.947500
 30
0.0
 10
25.117778
 20
3.973972
 30
0.0
 10
25.382361
 20
4.000417
 30
0.0
 10
25.629306
 20
4.035694
 30
0.0
 10
25.885069
 20
4.070972
 30
0.0
 10
26.123194
 20
4.115084
 30
0.0
 10
26.361319
 20
4.159167
 30
0.0
 10
26.599444
 20
4.203250
 30
0.0
 10
26.828750
 20
4.265000
 30
0.0
 10
27.066875
 20
4.317917
 30
0.0
 10
27.296181
 20
4.388472
 30
0.0
 10
27.525486
 20
4.450194
 30
0.0
 10
27.745972
 20
4.529583
 30
0.0
 10
27.745972
 20
6.011250
 30
0.0
 10
27.745972
 20
7.492917
 30
0.0
 10
27.745972
 20
8.974583
 30
0.0
 10
27.745972
 20
10.456250
 30
0.0
 10
26.749375
 20
10.456250
 30
0.0
 10
25.752778
 20
10.456250
 30
0.0
 10
24.747361
 20
10.456250
 30
0.0
 10
23.750764
 20
10.456250
 30
0.0
 10
23.750764
 20
10.112306
 30
0.0
 10
23.750764
 20
9.777139
 30
0.0
 10
23.750764
 20
9.433194
 30
0.0
 10
23.750764
 20
9.098056
 30
0.0
 10
24.368125
 20
9.098056
 30
0.0
 10
24.985486
 20
9.098056
 30
0.0
 10
25.602847
 20
9.098056
 30
0.0
 10
26.220208
 20
9.098056
 30
0.0
 10
26.220208
 20
8.198472
 30
0.0
 10
26.220208
 20
7.298889
 30
0.0
 10
26.220208
 20
6.390472
 30
0.0
 10
26.220208
 20
5.490917
 30
0.0
 10
26.114375
 20
5.473250
 30
0.0
 10
25.999722
 20
5.446806
 30
0.0
 10
25.885069
 20
5.429167
 30
0.0
 10
25.770417
 20
5.402694
 30
0.0
 10
25.655764
 20
5.385084
 30
0.0
 10
25.541111
 20
5.358611
 30
0.0
 10
25.417639
 20
5.340972
 30
0.0
 10
25.294167
 20
5.323333
 30
0.0
 10
25.161875
 20
5.314528
 30
0.0
 10
25.020764
 20
5.296861
 30
0.0
 10
24.879653
 20
5.279250
 30
0.0
 10
24.729722
 20
5.270417
 30
0.0
 10
24.579792
 20
5.261583
 30
0.0
 10
24.421042
 20
5.252778
 30
0.0
 10
24.244653
 20
5.252778
 30
0.0
 10
24.068264
 20
5.252778
 30
0.0
 10
23.539097
 20
5.279250
 30
0.0
 10
23.045208
 20
5.340972
 30
0.0
 10
22.586597
 20
5.455639
 30
0.0
 10
22.172083
 20
5.605556
 30
0.0
 10
21.801667
 20
5.808417
 30
0.0
 10
21.457708
 20
6.037694
 30
0.0
 10
21.157847
 20
6.302306
 30
0.0
 10
20.893264
 20
6.610972
 30
0.0
 10
20.663958
 20
6.946111
 30
0.0
 10
20.461111
 20
7.316528
 30
0.0
 10
20.293542
 20
7.713417
 30
0.0
 10
20.161250
 20
8.145556
 30
0.0
 10
20.064236
 20
8.604167
 30
0.0
 10
19.993681
 20
9.089250
 30
0.0
 10
19.958403
 20
9.591944
 30
0.0
 10
19.940764
 20
10.121111
 30
0.0
 10
19.958403
 20
10.667917
 30
0.0
 10
20.011319
 20
11.188250
 30
0.0
 10
20.099514
 20
11.690972
 30
0.0
 10
20.214167
 20
12.149583
 30
0.0
 10
20.364097
 20
12.581750
 30
0.0
 10
20.549306
 20
12.987416
 30
0.0
 10
20.760972
 20
13.349028
 30
0.0
 10
21.007917
 20
13.684167
 30
0.0
 10
21.290139
 20
13.975194
 30
0.0
 10
21.598819
 20
14.239806
 30
0.0
 10
21.942778
 20
14.460278
 30
0.0
 10
22.313194
 20
14.645472
 30
0.0
 10
22.718889
 20
14.786597
 30
0.0
 10
23.151042
 20
14.892431
 30
0.0
 10
23.609653
 20
14.962986
 30
0.0
 10
24.103542
 20
14.980625
 30
0.0
 10
24.288750
 20
14.980625
 30
0.0
 10
24.482778
 20
14.962986
 30
0.0
 10
24.676806
 20
14.945347
 30
0.0
 10
24.862014
 20
14.918889
 30
0.0
 10
25.056042
 20
14.892431
 30
0.0
 10
25.250069
 20
14.857153
 30
0.0
 10
25.435278
 20
14.813056
 30
0.0
 10
25.620486
 20
14.768972
 30
0.0
 10
25.796875
 20
14.716028
 30
0.0
 10
25.973264
 20
14.663139
 30
0.0
 10
26.149653
 20
14.610194
 30
0.0
 10
26.317222
 20
14.548472
 30
0.0
 10
26.493611
 20
14.486750
 30
0.0
 10
26.652361
 20
14.425000
 30
0.0
 10
26.811111
 20
14.354444
 30
0.0
 10
26.961042
 20
14.283889
 30
0.0
 10
27.110972
 20
14.619028
 30
0.0
 10
27.260903
 20
14.954167
 30
0.0
 10
27.410833
 20
15.289306
 30
0.0
 10
27.560764
 20
15.624444
 30
0.0
 10
27.190347
 20
15.792014
 30
0.0
 10
26.802292
 20
15.933125
 30
0.0
 10
26.405417
 20
16.056597
 30
0.0
 10
25.990903
 20
16.153611
 30
0.0
 10
25.558750
 20
16.232986
 30
0.0
 10
25.126597
 20
16.294722
 30
0.0
 10
24.676806
 20
16.321181
 30
0.0
 10
24.227014
 20
16.338819
 30
0.0
 10
24.227014
 20
16.338819
 30
0.0
  0
LWPOLYLINE
  5
104
100
AcDbEntity
  8
Camada_1
 62
7
100
AcDbPolyline
 90
114
 70
0
 10
86.800972
 20
16.338819
 30
0.0
 10
86.148333
 20
16.303542
 30
0.0
 10
85.530972
 20
16.224167
 30
0.0
 10
84.957708
 20
16.083056
 30
0.0
 10
84.419722
 20
15.880208
 30
0.0
 10
83.925833
 20
15.633264
 30
0.0
 10
83.476042
 20
15.333403
 30
0.0
 10
83.061528
 20
14.989444
 30
0.0
 10
82.691111
 20
14.610194
 30
0.0
 10
82.355972
 20
14.178056
 30
0.0
 10
82.073750
 20
13.710639
 30
0.0
 10
81.826806
 20
13.199083
 30
0.0
 10
81.623958
 20
12.643472
 30
0.0
 10
81.474028
 20
12.061389
 30
0.0
 10
81.359375
 20
11.444028
 30
0.0
 10
81.297639
 20
10.800194
 30
0.0
 10
81.271181
 20
10.129916
 30
0.0
 10
81.288819
 20
9.450833
 30
0.0
 10
81.350556
 20
8.798194
 30
0.0
 10
81.447569
 20
8.172028
 30
0.0
 10
81.588681
 20
7.581111
 30
0.0
 10
81.765069
 20
7.034306
 30
0.0
 10
81.985556
 20
6.513972
 30
0.0
 10
82.241319
 20
6.046528
 30
0.0
 10
82.550000
 20
5.614361
 30
0.0
 10
82.893958
 20
5.226305
 30
0.0
 10
83.282014
 20
4.891195
 30
0.0
 10
83.714167
 20
4.600139
 30
0.0
 10
84.190417
 20
4.353194
 30
0.0
 10
84.710764
 20
4.159167
 30
0.0
 10
85.275208
 20
4.018056
 30
0.0
 10
85.883750
 20
3.929861
 30
0.0
 10
86.545208
 20
3.903417
 30
0.0
 10
86.783333
 20
3.903417
 30
0.0
 10
87.003819
 20
3.912222
 30
0.0
 10
87.224306
 20
3.921028
 30
0.0
 10
87.427153
 20
3.938695
 30
0.0
 10
87.621181
 20
3.956305
 30
0.0
 10
87.815208
 20
3.973972
 30
0.0
 10
88.000417
 20
3.991583
 30
0.0
 10
88.176806
 20
4.018056
 30
0.0
 10
88.353194
 20
4.053333
 30
0.0
 10
88.529583
 20
4.088611
 30
0.0
 10
88.697153
 20
4.123889
 30
0.0
 10
88.855903
 20
4.167972
 30
0.0
 10
89.014653
 20
4.220917
 30
0.0
 10
89.182222
 20
4.273805
 30
0.0
 10
89.340972
 20
4.335556
 30
0.0
 10
89.499722
 20
4.388472
 30
0.0
 10
89.499722
 20
4.723611
 30
0.0
 10
89.499722
 20
5.058750
 30
0.0
 10
89.499722
 20
5.393889
 30
0.0
 10
89.499722
 20
5.729028
 30
0.0
 10
89.182222
 20
5.640833
 30
0.0
 10
88.855903
 20
5.552639
 30
0.0
 10
88.529583
 20
5.473250
 30
0.0
 10
88.194444
 20
5.393889
 30
0.0
 10
87.859306
 20
5.332139
 30
0.0
 10
87.515347
 20
5.288056
 30
0.0
 10
87.162569
 20
5.261583
 30
0.0
 10
86.800972
 20
5.252778
 30
0.0
 10
86.324722
 20
5.270417
 30
0.0
 10
85.883750
 20
5.332139
 30
0.0
 10
85.469236
 20
5.437972
 30
0.0
 10
85.090000
 20
5.579083
 30
0.0
 10
84.746042
 20
5.755472
 30
0.0
 10
84.428542
 20
5.975972
 30
0.0
 10
84.137500
 20
6.222917
 30
0.0
 10
83.881736
 20
6.513972
 30
0.0
 10
83.652431
 20
6.849083
 30
0.0
 10
83.449583
 20
7.210694
 30
0.0
 10
83.282014
 20
7.607584
 30
0.0
 10
83.140903
 20
8.039722
 30
0.0
 10
83.035069
 20
8.507139
 30
0.0
 10
82.964514
 20
9.009861
 30
0.0
 10
82.920417
 20
9.547861
 30
0.0
 10
82.902778
 20
10.112306
 30
0.0
 10
82.920417
 20
10.667917
 30
0.0
 10
82.973333
 20
11.188250
 30
0.0
 10
83.052708
 20
11.682139
 30
0.0
 10
83.176181
 20
12.149583
 30
0.0
 10
83.326111
 20
12.581750
 30
0.0
 10
83.511319
 20
12.987416
 30
0.0
 10
83.722986
 20
13.349028
 30
0.0
 10
83.961111
 20
13.684167
 30
0.0
 10
84.225694
 20
13.975194
 30
0.0
 10
84.525556
 20
14.230972
 30
0.0
 10
84.843056
 20
14.460278
 30
0.0
 10
85.195833
 20
14.636667
 30
0.0
 10
85.566250
 20
14.786597
 30
0.0
 10
85.954306
 20
14.892431
 30
0.0
 10
86.368819
 20
14.954167
 30
0.0
 10
86.800972
 20
14.980625
 30
0.0
 10
87.180208
 20
14.962986
 30
0.0
 10
87.532986
 20
14.927708
 30
0.0
 10
87.868125
 20
14.874792
 30
0.0
 10
88.185625
 20
14.786597
 30
0.0
 10
88.485486
 20
14.689583
 30
0.0
 10
88.776528
 20
14.583750
 30
0.0
 10
89.049931
 20
14.460278
 30
0.0
 10
89.323333
 20
14.336806
 30
0.0
 10
89.482083
 20
14.654306
 30
0.0
 10
89.640833
 20
14.980625
 30
0.0
 10
89.808403
 20
15.298125
 30
0.0
 10
89.967153
 20
15.624444
 30
0.0
 10
89.632014
 20
15.783194
 30
0.0
 10
89.270417
 20
15.933125
 30
0.0
 10
88.900000
 20
16.047778
 30
0.0
 10
88.503125
 20
16.153611
 30
0.0
 10
88.088611
 20
16.232986
 30
0.0
 10
87.674097
 20
16.285903
 30
0.0
 10
87.241944
 20
16.321181
 30
0.0
 10
86.800972
 20
16.338819
 30
0.0
 10
86.800972
 20
16.338819
 30
0.0
  0
LWPOLYLINE
  5
105
100
AcDbEntity
  8
Camada_1
 62
7
100
AcDbPolyline
 90
189
 70
0
 10
152.038403
 20
16.338819
 30
0.0
 10
151.385764
 20
16.303542
 30
0.0
 10
150.777222
 20
16.224167
 30
0.0
 10
150.203958
 20
16.083056
 30
0.0
 10
149.665972
 20
15.880208
 30
0.0
 10
149.172083
 20
15.633264
 30
0.0
 10
148.713472
 20
15.333403
 30
0.0
 10
148.298958
 20
14.989444
 30
0.0
 10
147.928542
 20
14.610194
 30
0.0
 10
147.602222
 20
14.178056
 30
0.0
 10
147.320000
 20
13.710639
 30
0.0
 10
147.073056
 20
13.199083
 30
0.0
 10
146.870208
 20
12.643472
 30
0.0
 10
146.711458
 20
12.061389
 30
0.0
 10
146.605625
 20
11.444028
 30
0.0
 10
146.535069
 20
10.800194
 30
0.0
 10
146.517431
 20
10.129916
 30
0.0
 10
146.535069
 20
9.450833
 30
0.0
 10
146.596806
 20
8.798194
 30
0.0
 10
146.693819
 20
8.172028
 30
0.0
 10
146.826111
 20
7.581111
 30
0.0
 10
147.011319
 20
7.034306
 30
0.0
 10
147.222986
 20
6.513972
 30
0.0
 10
147.487569
 20
6.046528
 30
0.0
 10
147.787431
 20
5.614361
 30
0.0
 10
148.140208
 20
5.226305
 30
0.0
 10
148.528264
 20
4.891195
 30
0.0
 10
148.960417
 20
4.600139
 30
0.0
 10
149.436667
 20
4.353194
 30
0.0
 10
149.957014
 20
4.159167
 30
0.0
 10
150.521458
 20
4.018056
 30
0.0
 10
151.130000
 20
3.929861
 30
0.0
 10
151.015347
 20
3.709361
 30
0.0
 10
150.830139
 20
3.338972
 30
0.0
 10
150.644931
 20
2.977361
 30
0.0
 10
150.459722
 20
2.615750
 30
0.0
 10
150.609653
 20
2.580472
 30
0.0
 10
150.750764
 20
2.545194
 30
0.0
 10
150.891875
 20
2.501111
 30
0.0
 10
151.024167
 20
2.465833
 30
0.0
 10
151.147639
 20
2.421750
 30
0.0
 10
151.271111
 20
2.377639
 30
0.0
 10
151.376944
 20
2.324722
 30
0.0
 10
151.482778
 20
2.280639
 30
0.0
 10
151.570972
 20
2.218889
 30
0.0
 10
151.650347
 20
2.157139
 30
0.0
 10
151.720903
 20
2.095417
 30
0.0
 10
151.773819
 20
2.024861
 30
0.0
 10
151.826736
 20
1.954306
 30
0.0
 10
151.853194
 20
1.866111
 30
0.0
 10
151.879653
 20
1.777917
 30
0.0
 10
151.879653
 20
1.680917
 30
0.0
 10
151.862014
 20
1.495694
 30
0.0
 10
151.800278
 20
1.336944
 30
0.0
 10
151.694444
 20
1.204639
 30
0.0
 10
151.553333
 20
1.098805
 30
0.0
 10
151.368125
 20
1.019444
 30
0.0
 10
151.156458
 20
0.966528
 30
0.0
 10
150.909514
 20
0.931250
 30
0.0
 10
150.636111
 20
0.922416
 30
0.0
 10
150.565556
 20
0.922416
 30
0.0
 10
150.486181
 20
0.922416
 30
0.0
 10
150.397986
 20
0.931250
 30
0.0
 10
150.292153
 20
0.931250
 30
0.0
 10
150.203958
 20
0.940084
 30
0.0
 10
150.115764
 20
0.948889
 30
0.0
 10
150.036389
 20
0.957694
 30
0.0
 10
149.974653
 20
0.966528
 30
0.0
 10
149.974653
 20
0.746028
 30
0.0
 10
149.974653
 20
0.516750
 30
0.0
 10
149.974653
 20
0.296250
 30
0.0
 10
149.974653
 20
0.075750
 30
0.0
 10
150.036389
 20
0.058139
 30
0.0
 10
150.115764
 20
0.049306
 30
0.0
 10
150.195139
 20
0.040472
 30
0.0
 10
150.283333
 20
0.022861
 30
0.0
 10
150.371528
 20
0.014028
 30
0.0
 10
150.468542
 20
0.005194
 30
0.0
 10
150.556736
 20
0.005194
 30
0.0
 10
150.653750
 20
-0.003611
 30
0.0
 10
151.227014
 20
0.022861
 30
0.0
 10
151.729722
 20
0.111028
 30
0.0
 10
152.144236
 20
0.252139
 30
0.0
 10
152.470556
 20
0.446195
 30
0.0
 10
152.726319
 20
0.693139
 30
0.0
 10
152.911528
 20
0.984167
 30
0.0
 10
153.017361
 20
1.310472
 30
0.0
 10
153.061458
 20
1.689722
 30
0.0
 10
153.061458
 20
1.698528
 30
0.0
 10
153.052639
 20
1.857306
 30
0.0
 10
153.035000
 20
1.998417
 30
0.0
 10
152.999722
 20
2.130694
 30
0.0
 10
152.946806
 20
2.262972
 30
0.0
 10
152.893889
 20
2.377639
 30
0.0
 10
152.832153
 20
2.483472
 30
0.0
 10
152.752778
 20
2.580472
 30
0.0
 10
152.673403
 20
2.677500
 30
0.0
 10
152.576389
 20
2.748056
 30
0.0
 10
152.479375
 20
2.827416
 30
0.0
 10
152.373542
 20
2.889167
 30
0.0
 10
152.258889
 20
2.942083
 30
0.0
 10
152.135417
 20
2.995000
 30
0.0
 10
152.003125
 20
3.039083
 30
0.0
 10
151.870833
 20
3.083194
 30
0.0
 10
151.738542
 20
3.118472
 30
0.0
 10
151.853194
 20
3.356583
 30
0.0
 10
151.967847
 20
3.594722
 30
0.0
 10
152.091319
 20
3.832861
 30
0.0
 10
152.126597
 20
3.903417
 30
0.0
 10
152.250069
 20
3.912222
 30
0.0
 10
152.461736
 20
3.921028
 30
0.0
 10
152.673403
 20
3.938695
 30
0.0
 10
152.867431
 20
3.956305
 30
0.0
 10
153.061458
 20
3.973972
 30
0.0
 10
153.246667
 20
3.991583
 30
0.0
 10
153.423056
 20
4.018056
 30
0.0
 10
153.599444
 20
4.053333
 30
0.0
 10
153.767014
 20
4.088611
 30
0.0
 10
153.934583
 20
4.123889
 30
0.0
 10
154.102153
 20
4.167972
 30
0.0
 10
154.260903
 20
4.220917
 30
0.0
 10
154.419653
 20
4.273805
 30
0.0
 10
154.587222
 20
4.335556
 30
0.0
 10
154.745972
 20
4.388472
 30
0.0
 10
154.745972
 20
4.723611
 30
0.0
 10
154.745972
 20
5.058750
 30
0.0
 10
154.745972
 20
5.393889
 30
0.0
 10
154.745972
 20
5.729028
 30
0.0
 10
154.419653
 20
5.640833
 30
0.0
 10
154.093333
 20
5.552639
 30
0.0
 10
153.767014
 20
5.473250
 30
0.0
 10
153.440694
 20
5.393889
 30
0.0
 10
153.105556
 20
5.332139
 30
0.0
 10
152.761597
 20
5.288056
 30
0.0
 10
152.400000
 20
5.261583
 30
0.0
 10
152.038403
 20
5.252778
 30
0.0
 10
151.570972
 20
5.270417
 30
0.0
 10
151.130000
 20
5.332139
 30
0.0
 10
150.715486
 20
5.437972
 30
0.0
 10
150.336250
 20
5.579083
 30
0.0
 10
149.992292
 20
5.755472
 30
0.0
 10
149.665972
 20
5.975972
 30
0.0
 10
149.383750
 20
6.222917
 30
0.0
 10
149.119167
 20
6.522778
 30
0.0
 10
148.889861
 20
6.849083
 30
0.0
 10
148.695833
 20
7.210694
 30
0.0
 10
148.528264
 20
7.607584
 30
0.0
 10
148.387153
 20
8.039722
 30
0.0
 10
148.281319
 20
8.507139
 30
0.0
 10
148.201944
 20
9.018695
 30
0.0
 10
148.157847
 20
9.547861
 30
0.0
 10
148.149028
 20
10.112306
 30
0.0
 10
148.157847
 20
10.667917
 30
0.0
 10
148.210764
 20
11.188250
 30
0.0
 10
148.298958
 20
11.682139
 30
0.0
 10
148.413611
 20
12.149583
 30
0.0
 10
148.572361
 20
12.581750
 30
0.0
 10
148.757569
 20
12.987416
 30
0.0
 10
148.969236
 20
13.349028
 30
0.0
 10
149.207361
 20
13.684167
 30
0.0
 10
149.471944
 20
13.975194
 30
0.0
 10
149.771806
 20
14.239806
 30
0.0
 10
150.089306
 20
14.460278
 30
0.0
 10
150.433264
 20
14.636667
 30
0.0
 10
150.803681
 20
14.786597
 30
0.0
 10
151.200556
 20
14.892431
 30
0.0
 10
151.606250
 20
14.962986
 30
0.0
 10
152.038403
 20
14.980625
 30
0.0
 10
152.417639
 20
14.962986
 30
0.0
 10
152.779236
 20
14.927708
 30
0.0
 10
153.114375
 20
14.874792
 30
0.0
 10
153.431875
 20
14.786597
 30
0.0
 10
153.731736
 20
14.689583
 30
0.0
 10
154.022778
 20
14.583750
 30
0.0
 10
154.296181
 20
14.460278
 30
0.0
 10
154.560764
 20
14.336806
 30
0.0
 10
154.728333
 20
14.654306
 30
0.0
 10
154.887083
 20
14.980625
 30
0.0
 10
155.045833
 20
15.298125
 30
0.0
 10
155.204583
 20
15.624444
 30
0.0
 10
154.869444
 20
15.783194
 30
0.0
 10
154.516667
 20
15.933125
 30
0.0
 10
154.137431
 20
16.047778
 30
0.0
 10
153.740556
 20
16.153611
 30
0.0
 10
153.334861
 20
16.232986
 30
0.0
 10
152.911528
 20
16.285903
 30
0.0
 10
152.479375
 20
16.321181
 30
0.0
 10
152.038403
 20
16.338819
 30
0.0
 10
152.038403
 20
16.338819
 30
0.0
  0
LWPOLYLINE
  5
106
100
AcDbEntity
  8
Camada_1
 62
7
100
AcDbPolyline
 90
34
 70
0
 10
45.076181
 20
16.215347
 30
0.0
 10
43.964931
 20
13.172639
 30
0.0
 10
42.853681
 20
10.138750
 30
0.0
 10
41.742431
 20
7.104861
 30
0.0
 10
40.640000
 20
4.070972
 30
0.0
 10
41.028056
 20
4.070972
 30
0.0
 10
41.416111
 20
4.070972
 30
0.0
 10
41.804167
 20
4.070972
 30
0.0
 10
42.192222
 20
4.070972
 30
0.0
 10
42.527361
 20
5.005833
 30
0.0
 10
42.862500
 20
5.940694
 30
0.0
 10
43.197639
 20
6.875556
 30
0.0
 10
43.532778
 20
7.819250
 30
0.0
 10
44.661667
 20
7.819250
 30
0.0
 10
45.781736
 20
7.819250
 30
0.0
 10
46.910625
 20
7.819250
 30
0.0
 10
48.039514
 20
7.819250
 30
0.0
 10
48.365833
 20
6.875556
 30
0.0
 10
48.700972
 20
5.940694
 30
0.0
 10
49.027292
 20
5.005833
 30
0.0
 10
49.362431
 20
4.070972
 30
0.0
 10
49.759306
 20
4.070972
 30
0.0
 10
50.147361
 20
4.070972
 30
0.0
 10
50.544236
 20
4.070972
 30
0.0
 10
50.932292
 20
4.070972
 30
0.0
 10
49.821042
 20
7.104861
 30
0.0
 10
48.709792
 20
10.138750
 30
0.0
 10
47.598542
 20
13.172639
 30
0.0
 10
46.487292
 20
16.215347
 30
0.0
 10
46.134514
 20
16.215347
 30
0.0
 10
45.781736
 20
16.215347
 30
0.0
 10
45.428958
 20
16.215347
 30
0.0
 10
45.076181
 20
16.215347
 30
0.0
 10
45.076181
 20
16.215347
 30
0.0
  0
LWPOLYLINE
  5
107
100
AcDbEntity
  8
Camada_1
 62
7
100
AcDbPolyline
 90
34
 70
0
 10
94.906042
 20
16.215347
 30
0.0
 10
93.794792
 20
13.172639
 30
0.0
 10
92.683542
 20
10.138750
 30
0.0
 10
91.572292
 20
7.104861
 30
0.0
 10
90.461042
 20
4.070972
 30
0.0
 10
90.849097
 20
4.070972
 30
0.0
 10
91.237153
 20
4.070972
 30
0.0
 10
91.625208
 20
4.070972
 30
0.0
 10
92.013264
 20
4.070972
 30
0.0
 10
92.348403
 20
5.005833
 30
0.0
 10
92.683542
 20
5.940694
 30
0.0
 10
93.018681
 20
6.875556
 30
0.0
 10
93.353819
 20
7.819250
 30
0.0
 10
94.482708
 20
7.819250
 30
0.0
 10
95.611597
 20
7.819250
 30
0.0
 10
96.740486
 20
7.819250
 30
0.0
 10
97.860556
 20
7.819250
 30
0.0
 10
98.195694
 20
6.875556
 30
0.0
 10
98.522014
 20
5.940694
 30
0.0
 10
98.857153
 20
5.005833
 30
0.0
 10
99.183472
 20
4.070972
 30
0.0
 10
99.580347
 20
4.070972
 30
0.0
 10
99.977222
 20
4.070972
 30
0.0
 10
100.365278
 20
4.070972
 30
0.0
 10
100.762153
 20
4.070972
 30
0.0
 10
99.650903
 20
7.104861
 30
0.0
 10
98.530833
 20
10.138750
 30
0.0
 10
97.419583
 20
13.172639
 30
0.0
 10
96.308333
 20
16.215347
 30
0.0
 10
95.955556
 20
16.215347
 30
0.0
 10
95.602778
 20
16.215347
 30
0.0
 10
95.258819
 20
16.215347
 30
0.0
 10
94.906042
 20
16.215347
 30
0.0
 10
94.906042
 20
16.215347
 30
0.0
  0
LWPOLYLINE
  5
108
100
AcDbEntity
  8
Camada_1
 62
7
100
AcDbPolyline
 90
34
 70
0
 10
139.797014
 20
16.215347
 30
0.0
 10
138.685764
 20
13.172639
 30
0.0
 10
137.574514
 20
10.138750
 30
0.0
 10
136.472083
 20
7.104861
 30
0.0
 10
135.360833
 20
4.070972
 30
0.0
 10
135.748889
 20
4.070972
 30
0.0
 10
136.136944
 20
4.070972
 30
0.0
 10
136.525000
 20
4.070972
 30
0.0
 10
136.913056
 20
4.070972
 30
0.0
 10
137.248194
 20
5.005833
 30
0.0
 10
137.583333
 20
5.940694
 30
0.0
 10
137.918472
 20
6.875556
 30
0.0
 10
138.253611
 20
7.819250
 30
0.0
 10
139.382500
 20
7.819250
 30
0.0
 10
140.502569
 20
7.819250
 30
0.0
 10
141.631458
 20
7.819250
 30
0.0
 10
142.760347
 20
7.819250
 30
0.0
 10
143.095486
 20
6.875556
 30
0.0
 10
143.421806
 20
5.940694
 30
0.0
 10
143.756944
 20
5.005833
 30
0.0
 10
144.083264
 20
4.070972
 30
0.0
 10
144.480139
 20
4.070972
 30
0.0
 10
144.868194
 20
4.070972
 30
0.0
 10
145.265069
 20
4.070972
 30
0.0
 10
145.653125
 20
4.070972
 30
0.0
 10
144.541875
 20
7.104861
 30
0.0
 10
143.430625
 20
10.138750
 30
0.0
 10
142.319375
 20
13.172639
 30
0.0
 10
141.208125
 20
16.215347
 30
0.0
 10
140.855347
 20
16.215347
 30
0.0
 10
140.502569
 20
16.215347
 30
0.0
 10
140.149792
 20
16.215347
 30
0.0
 10
139.797014
 20
16.215347
 30
0.0
 10
139.797014
 20
16.215347
 30
0.0
  0
LWPOLYLINE
  5
109
100
AcDbEntity
  8
Camada_1
 62
7
100
AcDbPolyline
 90
34
 70
0
 10
160.143472
 20
16.215347
 30
0.0
 10
159.032222
 20
13.172639
 30
0.0
 10
157.929792
 20
10.138750
 30
0.0
 10
156.818542
 20
7.104861
 30
0.0
 10
155.707292
 20
4.070972
 30
0.0
 10
156.095347
 20
4.070972
 30
0.0
 10
156.483403
 20
4.070972
 30
0.0
 10
156.871458
 20
4.070972
 30
0.0
 10
157.259514
 20
4.070972
 30
0.0
 10
157.594653
 20
5.005833
 30
0.0
 10
157.929792
 20
5.940694
 30
0.0
 10
158.264931
 20
6.875556
 30
0.0
 10
158.600069
 20
7.819250
 30
0.0
 10
159.728958
 20
7.819250
 30
0.0
 10
160.857847
 20
7.819250
 30
0.0
 10
161.977917
 20
7.819250
 30
0.0
 10
163.106806
 20
7.819250
 30
0.0
 10
163.441944
 20
6.875556
 30
0.0
 10
163.768264
 20
5.940694
 30
0.0
 10
164.103403
 20
5.005833
 30
0.0
 10
164.429722
 20
4.070972
 30
0.0
 10
164.826597
 20
4.070972
 30
0.0
 10
165.214653
 20
4.070972
 30
0.0
 10
165.611528
 20
4.070972
 30
0.0
 10
165.999583
 20
4.070972
 30
0.0
 10
164.888333
 20
7.104861
 30
0.0
 10
163.777083
 20
10.138750
 30
0.0
 10
162.665833
 20
13.172639
 30
0.0
 10
161.554583
 20
16.215347
 30
0.0
 10
161.201806
 20
16.215347
 30
0.0
 10
160.849028
 20
16.215347
 30
0.0
 10
160.496250
 20
16.215347
 30
0.0
 10
160.143472
 20
16.215347
 30
0.0
 10
160.143472
 20
16.215347
 30
0.0
  0
LWPOLYLINE
  5
10a
100
AcDbEntity
  8
Camada_1
 62
7
100
AcDbPolyline
 90
82
 70
0
 10
37.720764
 20
16.180069
 30
0.0
 10
37.720764
 20
14.213333
 30
0.0
 10
37.720764
 20
12.237778
 30
0.0
 10
37.720764
 20
10.271028
 30
0.0
 10
37.720764
 20
8.304306
 30
0.0
 10
37.703125
 20
7.977972
 30
0.0
 10
37.667847
 20
7.660472
 30
0.0
 10
37.614931
 20
7.360639
 30
0.0
 10
37.544375
 20
7.069583
 30
0.0
 10
37.447361
 20
6.796195
 30
0.0
 10
37.332708
 20
6.549250
 30
0.0
 10
37.200417
 20
6.319916
 30
0.0
 10
37.041667
 20
6.108250
 30
0.0
 10
36.856458
 20
5.914250
 30
0.0
 10
36.653611
 20
5.746667
 30
0.0
 10
36.424306
 20
5.596750
 30
0.0
 10
36.168542
 20
5.473250
 30
0.0
 10
35.895139
 20
5.376250
 30
0.0
 10
35.586458
 20
5.305694
 30
0.0
 10
35.260139
 20
5.270417
 30
0.0
 10
34.907361
 20
5.252778
 30
0.0
 10
34.228264
 20
5.305694
 30
0.0
 10
33.637361
 20
5.446806
 30
0.0
 10
33.143472
 20
5.702584
 30
0.0
 10
32.737778
 20
6.046528
 30
0.0
 10
32.429097
 20
6.487500
 30
0.0
 10
32.199792
 20
7.007861
 30
0.0
 10
32.067500
 20
7.607584
 30
0.0
 10
32.023403
 20
8.286667
 30
0.0
 10
32.023403
 20
10.253417
 30
0.0
 10
32.023403
 20
12.228972
 30
0.0
 10
32.023403
 20
14.195694
 30
0.0
 10
32.023403
 20
16.162431
 30
0.0
 10
31.635347
 20
16.162431
 30
0.0
 10
31.256111
 20
16.162431
 30
0.0
 10
30.868056
 20
16.162431
 30
0.0
 10
30.480000
 20
16.162431
 30
0.0
 10
30.480000
 20
14.213333
 30
0.0
 10
30.480000
 20
12.264250
 30
0.0
 10
30.480000
 20
10.315139
 30
0.0
 10
30.480000
 20
8.374861
 30
0.0
 10
30.497639
 20
7.880972
 30
0.0
 10
30.550556
 20
7.404722
 30
0.0
 10
30.638750
 20
6.954916
 30
0.0
 10
30.762222
 20
6.531583
 30
0.0
 10
30.920972
 20
6.143528
 30
0.0
 10
31.106181
 20
5.773139
 30
0.0
 10
31.335486
 20
5.437972
 30
0.0
 10
31.591250
 20
5.129306
 30
0.0
 10
31.882292
 20
4.847083
 30
0.0
 10
32.208611
 20
4.608972
 30
0.0
 10
32.561389
 20
4.397306
 30
0.0
 10
32.949444
 20
4.220917
 30
0.0
 10
33.372778
 20
4.079806
 30
0.0
 10
33.822569
 20
3.982778
 30
0.0
 10
34.307639
 20
3.921028
 30
0.0
 10
34.819167
 20
3.903417
 30
0.0
 10
35.365972
 20
3.921028
 30
0.0
 10
35.868681
 20
3.991583
 30
0.0
 10
36.344931
 20
4.097416
 30
0.0
 10
36.777083
 20
4.247361
 30
0.0
 10
37.173958
 20
4.432584
 30
0.0
 10
37.535556
 20
4.644250
 30
0.0
 10
37.861875
 20
4.900000
 30
0.0
 10
38.152917
 20
5.173417
 30
0.0
 10
38.417500
 20
5.490917
 30
0.0
 10
38.637986
 20
5.826028
 30
0.0
 10
38.832014
 20
6.187639
 30
0.0
 10
38.981944
 20
6.584528
 30
0.0
 10
39.105417
 20
6.999028
 30
0.0
 10
39.184792
 20
7.431195
 30
0.0
 10
39.237708
 20
7.872139
 30
0.0
 10
39.255347
 20
8.339583
 30
0.0
 10
39.255347
 20
10.297500
 30
0.0
 10
39.255347
 20
12.255417
 30
0.0
 10
39.255347
 20
14.222139
 30
0.0
 10
39.255347
 20
16.180069
 30
0.0
 10
38.867292
 20
16.180069
 30
0.0
 10
38.488056
 20
16.180069
 30
0.0
 10
38.100000
 20
16.180069
 30
0.0
 10
37.720764
 20
16.180069
 30
0.0
 10
37.720764
 20
16.180069
 30
0.0
  0
LWPOLYLINE
  5
10b
100
AcDbEntity
  8
Camada_1
 62
7
100
AcDbPolyline
 90
58
 70
0
 10
0.000000
 20
16.162431
 30
0.0
 10
0.000000
 20
13.137361
 30
0.0
 10
0.000000
 20
10.121111
 30
0.0
 10
0.000000
 20
7.096028
 30
0.0
 10
0.000000
 20
4.070972
 30
0.0
 10
0.388056
 20
4.070972
 30
0.0
 10
0.767292
 20
4.070972
 30
0.0
 10
1.155347
 20
4.070972
 30
0.0
 10
1.534583
 20
4.070972
 30
0.0
 10
1.534583
 20
5.323333
 30
0.0
 10
1.534583
 20
6.566861
 30
0.0
 10
1.534583
 20
7.819250
 30
0.0
 10
1.534583
 20
9.062778
 30
0.0
 10
2.010833
 20
9.062778
 30
0.0
 10
2.487083
 20
9.062778
 30
0.0
 10
2.963333
 20
9.062778
 30
0.0
 10
3.430764
 20
9.062778
 30
0.0
 10
4.162778
 20
7.819250
 30
0.0
 10
4.885972
 20
6.566861
 30
0.0
 10
5.609167
 20
5.323333
 30
0.0
 10
6.332361
 20
4.070972
 30
0.0
 10
6.790972
 20
4.070972
 30
0.0
 10
7.240764
 20
4.070972
 30
0.0
 10
7.690556
 20
4.070972
 30
0.0
 10
8.149167
 20
4.070972
 30
0.0
 10
7.320139
 20
5.429167
 30
0.0
 10
6.499931
 20
6.778528
 30
0.0
 10
5.679722
 20
8.136750
 30
0.0
 10
4.859514
 20
9.486111
 30
0.0
 10
5.080000
 20
9.574306
 30
0.0
 10
5.300486
 20
9.680139
 30
0.0
 10
5.520972
 20
9.785972
 30
0.0
 10
5.741458
 20
9.909444
 30
0.0
 10
5.953125
 20
10.041750
 30
0.0
 10
6.147153
 20
10.200472
 30
0.0
 10
6.332361
 20
10.368056
 30
0.0
 10
6.499931
 20
10.544444
 30
0.0
 10
6.658681
 20
10.747306
 30
0.0
 10
6.808611
 20
10.976583
 30
0.0
 10
6.932083
 20
11.214722
 30
0.0
 10
7.037917
 20
11.470472
 30
0.0
 10
7.126111
 20
11.752694
 30
0.0
 10
7.196667
 20
12.052584
 30
0.0
 10
7.231944
 20
12.378889
 30
0.0
 10
7.249583
 20
12.731667
 30
0.0
 10
7.179028
 20
13.543056
 30
0.0
 10
6.985000
 20
14.239806
 30
0.0
 10
6.658681
 20
14.830694
 30
0.0
 10
6.191250
 20
15.306944
 30
0.0
 10
5.600347
 20
15.686181
 30
0.0
 10
4.859514
 20
15.950764
 30
0.0
 10
3.968750
 20
16.109514
 30
0.0
 10
2.945694
 20
16.162431
 30
0.0
 10
2.204861
 20
16.162431
 30
0.0
 10
1.472847
 20
16.162431
 30
0.0
 10
0.732014
 20
16.162431
 30
0.0
 10
0.000000
 20
16.162431
 30
0.0
 10
0.000000
 20
16.162431
 30
0.0
  0
LWPOLYLINE
  5
10c
100
AcDbEntity
  8
Camada_1
 62
7
100
AcDbPolyline
 90
50
 70
0
 10
9.992431
 20
16.162431
 30
0.0
 10
9.992431
 20
13.137361
 30
0.0
 10
9.992431
 20
10.121111
 30
0.0
 10
9.992431
 20
7.096028
 30
0.0
 10
9.992431
 20
4.070972
 30
0.0
 10
11.562292
 20
4.070972
 30
0.0
 10
13.132153
 20
4.070972
 30
0.0
 10
14.702014
 20
4.070972
 30
0.0
 10
16.271875
 20
4.070972
 30
0.0
 10
16.271875
 20
4.406111
 30
0.0
 10
16.271875
 20
4.750084
 30
0.0
 10
16.271875
 20
5.085194
 30
0.0
 10
16.271875
 20
5.429167
 30
0.0
 10
15.081250
 20
5.429167
 30
0.0
 10
13.899444
 20
5.429167
 30
0.0
 10
12.717639
 20
5.429167
 30
0.0
 10
11.527014
 20
5.429167
 30
0.0
 10
11.527014
 20
6.505139
 30
0.0
 10
11.527014
 20
7.581111
 30
0.0
 10
11.527014
 20
8.657083
 30
0.0
 10
11.527014
 20
9.724250
 30
0.0
 10
12.638264
 20
9.724250
 30
0.0
 10
13.740694
 20
9.724250
 30
0.0
 10
14.851944
 20
9.724250
 30
0.0
 10
15.954375
 20
9.724250
 30
0.0
 10
15.954375
 20
10.059361
 30
0.0
 10
15.954375
 20
10.394528
 30
0.0
 10
15.954375
 20
10.729639
 30
0.0
 10
15.954375
 20
11.064806
 30
0.0
 10
14.851944
 20
11.064806
 30
0.0
 10
13.740694
 20
11.064806
 30
0.0
 10
12.638264
 20
11.064806
 30
0.0
 10
11.527014
 20
11.064806
 30
0.0
 10
11.527014
 20
11.999639
 30
0.0
 10
11.527014
 20
12.934528
 30
0.0
 10
11.527014
 20
13.869361
 30
0.0
 10
11.527014
 20
14.804236
 30
0.0
 10
12.717639
 20
14.804236
 30
0.0
 10
13.899444
 20
14.804236
 30
0.0
 10
15.081250
 20
14.804236
 30
0.0
 10
16.271875
 20
14.804236
 30
0.0
 10
16.271875
 20
15.148194
 30
0.0
 10
16.271875
 20
15.483333
 30
0.0
 10
16.271875
 20
15.827292
 30
0.0
 10
16.271875
 20
16.162431
 30
0.0
 10
14.702014
 20
16.162431
 30
0.0
 10
13.132153
 20
16.162431
 30
0.0
 10
11.562292
 20
16.162431
 30
0.0
 10
9.992431
 20
16.162431
 30
0.0
 10
9.992431
 20
16.162431
 30
0.0
  0
LWPOLYLINE
  5
10d
100
AcDbEntity
  8
Camada_1
 62
7
100
AcDbPolyline
 90
46
 70
0
 10
56.973611
 20
16.162431
 30
0.0
 10
56.973611
 20
13.137361
 30
0.0
 10
56.973611
 20
10.112306
 30
0.0
 10
56.973611
 20
7.096028
 30
0.0
 10
56.973611
 20
4.070972
 30
0.0
 10
57.732083
 20
4.070972
 30
0.0
 10
58.481736
 20
4.070972
 30
0.0
 10
59.240208
 20
4.070972
 30
0.0
 10
59.998681
 20
4.070972
 30
0.0
 10
60.677778
 20
4.097416
 30
0.0
 10
61.312778
 20
4.167972
 30
0.0
 10
61.912500
 20
4.291472
 30
0.0
 10
62.476944
 20
4.459028
 30
0.0
 10
63.006111
 20
4.679528
 30
0.0
 10
63.491181
 20
4.944083
 30
0.0
 10
63.932153
 20
5.252778
 30
0.0
 10
64.329028
 20
5.614361
 30
0.0
 10
64.690625
 20
6.028889
 30
0.0
 10
64.999306
 20
6.487500
 30
0.0
 10
65.263889
 20
6.990194
 30
0.0
 10
65.484375
 20
7.545833
 30
0.0
 10
65.660764
 20
8.145556
 30
0.0
 10
65.784236
 20
8.798194
 30
0.0
 10
65.854792
 20
9.486111
 30
0.0
 10
65.881250
 20
10.235750
 30
0.0
 10
65.854792
 20
10.941305
 30
0.0
 10
65.784236
 20
11.602778
 30
0.0
 10
65.660764
 20
12.220139
 30
0.0
 10
65.484375
 20
12.793417
 30
0.0
 10
65.263889
 20
13.331389
 30
0.0
 10
65.008125
 20
13.816472
 30
0.0
 10
64.717083
 20
14.257416
 30
0.0
 10
64.373125
 20
14.645472
 30
0.0
 10
63.993889
 20
14.998264
 30
0.0
 10
63.579375
 20
15.306944
 30
0.0
 10
63.120764
 20
15.571528
 30
0.0
 10
62.626875
 20
15.783194
 30
0.0
 10
62.097708
 20
15.950764
 30
0.0
 10
61.542083
 20
16.065417
 30
0.0
 10
60.960000
 20
16.135972
 30
0.0
 10
60.333819
 20
16.162431
 30
0.0
 10
59.495972
 20
16.162431
 30
0.0
 10
58.658125
 20
16.162431
 30
0.0
 10
57.811458
 20
16.162431
 30
0.0
 10
56.973611
 20
16.162431
 30
0.0
 10
56.973611
 20
16.162431
 30
0.0
  0
LWPOLYLINE
  5
10e
100
AcDbEntity
  8
Camada_1
 62
7
100
AcDbPolyline
 90
50
 70
0
 10
68.553542
 20
16.162431
 30
0.0
 10
68.553542
 20
13.137361
 30
0.0
 10
68.553542
 20
10.112306
 30
0.0
 10
68.553542
 20
7.096028
 30
0.0
 10
68.553542
 20
4.070972
 30
0.0
 10
70.123403
 20
4.070972
 30
0.0
 10
71.693264
 20
4.070972
 30
0.0
 10
73.263125
 20
4.070972
 30
0.0
 10
74.832986
 20
4.070972
 30
0.0
 10
74.832986
 20
4.406111
 30
0.0
 10
74.832986
 20
4.750084
 30
0.0
 10
74.832986
 20
5.085194
 30
0.0
 10
74.832986
 20
5.429167
 30
0.0
 10
73.642361
 20
5.429167
 30
0.0
 10
72.460556
 20
5.429167
 30
0.0
 10
71.278750
 20
5.429167
 30
0.0
 10
70.088125
 20
5.429167
 30
0.0
 10
70.088125
 20
6.505139
 30
0.0
 10
70.088125
 20
7.572306
 30
0.0
 10
70.088125
 20
8.648250
 30
0.0
 10
70.088125
 20
9.724250
 30
0.0
 10
71.199375
 20
9.724250
 30
0.0
 10
72.301806
 20
9.724250
 30
0.0
 10
73.404236
 20
9.724250
 30
0.0
 10
74.515486
 20
9.724250
 30
0.0
 10
74.515486
 20
10.059361
 30
0.0
 10
74.515486
 20
10.394528
 30
0.0
 10
74.515486
 20
10.729639
 30
0.0
 10
74.515486
 20
11.064806
 30
0.0
 10
73.404236
 20
11.064806
 30
0.0
 10
72.301806
 20
11.064806
 30
0.0
 10
71.199375
 20
11.064806
 30
0.0
 10
70.088125
 20
11.064806
 30
0.0
 10
70.088125
 20
11.999639
 30
0.0
 10
70.088125
 20
12.934528
 30
0.0
 10
70.088125
 20
13.869361
 30
0.0
 10
70.088125
 20
14.804236
 30
0.0
 10
71.278750
 20
14.804236
 30
0.0
 10
72.460556
 20
14.804236
 30
0.0
 10
73.642361
 20
14.804236
 30
0.0
 10
74.832986
 20
14.804236
 30
0.0
 10
74.832986
 20
15.148194
 30
0.0
 10
74.832986
 20
15.483333
 30
0.0
 10
74.832986
 20
15.818472
 30
0.0
 10
74.832986
 20
16.162431
 30
0.0
 10
73.263125
 20
16.162431
 30
0.0
 10
71.693264
 20
16.162431
 30
0.0
 10
70.123403
 20
16.162431
 30
0.0
 10
68.553542
 20
16.162431
 30
0.0
 10
68.553542
 20
16.162431
 30
0.0
  0
LWPOLYLINE
  5
10f
100
AcDbEntity
  8
Camada_1
 62
7
100
AcDbPolyline
 90
26
 70
0
 10
102.393750
 20
16.162431
 30
0.0
 10
102.393750
 20
13.137361
 30
0.0
 10
102.393750
 20
10.112306
 30
0.0
 10
102.393750
 20
7.096028
 30
0.0
 10
102.393750
 20
4.070972
 30
0.0
 10
103.963611
 20
4.070972
 30
0.0
 10
105.533472
 20
4.070972
 30
0.0
 10
107.103333
 20
4.070972
 30
0.0
 10
108.673194
 20
4.070972
 30
0.0
 10
108.673194
 20
4.414916
 30
0.0
 10
108.673194
 20
4.758889
 30
0.0
 10
108.673194
 20
5.102861
 30
0.0
 10
108.673194
 20
5.446806
 30
0.0
 10
107.491389
 20
5.446806
 30
0.0
 10
106.300764
 20
5.446806
 30
0.0
 10
105.118958
 20
5.446806
 30
0.0
 10
103.937153
 20
5.446806
 30
0.0
 10
103.937153
 20
8.119083
 30
0.0
 10
103.937153
 20
10.800194
 30
0.0
 10
103.937153
 20
13.481305
 30
0.0
 10
103.937153
 20
16.162431
 30
0.0
 10
103.549097
 20
16.162431
 30
0.0
 10
103.169861
 20
16.162431
 30
0.0
 10
102.781806
 20
16.162431
 30
0.0
 10
102.393750
 20
16.162431
 30
0.0
 10
102.393750
 20
16.162431
 30
0.0
  0
LWPOLYLINE
  5
110
100
AcDbEntity
  8
Camada_1
 62
7
100
AcDbPolyline
 90
50
 70
0
 10
109.766806
 20
16.162431
 30
0.0
 10
109.766806
 20
15.950764
 30
0.0
 10
109.766806
 20
15.739097
 30
0.0
 10
109.766806
 20
15.527431
 30
0.0
 10
109.766806
 20
15.315764
 30
0.0
 10
110.119583
 20
15.236389
 30
0.0
 10
110.481181
 20
15.148194
 30
0.0
 10
110.833958
 20
15.060000
 30
0.0
 10
111.186736
 20
14.980625
 30
0.0
 10
111.186736
 20
12.546472
 30
0.0
 10
111.186736
 20
10.112306
 30
0.0
 10
111.186736
 20
7.686944
 30
0.0
 10
111.186736
 20
5.252778
 30
0.0
 10
110.833958
 20
5.164583
 30
0.0
 10
110.481181
 20
5.085194
 30
0.0
 10
110.119583
 20
4.997028
 30
0.0
 10
109.766806
 20
4.908805
 30
0.0
 10
109.766806
 20
4.705972
 30
0.0
 10
109.766806
 20
4.494306
 30
0.0
 10
109.766806
 20
4.282639
 30
0.0
 10
109.766806
 20
4.070972
 30
0.0
 10
110.860417
 20
4.070972
 30
0.0
 10
111.954028
 20
4.070972
 30
0.0
 10
113.056458
 20
4.070972
 30
0.0
 10
114.150069
 20
4.070972
 30
0.0
 10
114.150069
 20
4.282639
 30
0.0
 10
114.150069
 20
4.494306
 30
0.0
 10
114.150069
 20
4.705972
 30
0.0
 10
114.150069
 20
4.908805
 30
0.0
 10
113.797292
 20
4.997028
 30
0.0
 10
113.435694
 20
5.085194
 30
0.0
 10
113.082917
 20
5.164583
 30
0.0
 10
112.730139
 20
5.252778
 30
0.0
 10
112.730139
 20
7.686944
 30
0.0
 10
112.730139
 20
10.112306
 30
0.0
 10
112.730139
 20
12.546472
 30
0.0
 10
112.730139
 20
14.980625
 30
0.0
 10
113.082917
 20
15.060000
 30
0.0
 10
113.435694
 20
15.148194
 30
0.0
 10
113.797292
 20
15.236389
 30
0.0
 10
114.150069
 20
15.315764
 30
0.0
 10
114.150069
 20
15.527431
 30
0.0
 10
114.150069
 20
15.739097
 30
0.0
 10
114.150069
 20
15.950764
 30
0.0
 10
114.150069
 20
16.162431
 30
0.0
 10
113.056458
 20
16.162431
 30
0.0
 10
111.954028
 20
16.162431
 30
0.0
 10
110.860417
 20
16.162431
 30
0.0
 10
109.766806
 20
16.162431
 30
0.0
 10
109.766806
 20
16.162431
 30
0.0
  0
LWPOLYLINE
  5
111
100
AcDbEntity
  8
Camada_1
 62
7
100
AcDbPolyline
 90
82
 70
0
 10
116.487222
 20
16.162431
 30
0.0
 10
116.487222
 20
13.137361
 30
0.0
 10
116.487222
 20
10.112306
 30
0.0
 10
116.487222
 20
7.096028
 30
0.0
 10
116.487222
 20
4.070972
 30
0.0
 10
117.492639
 20
4.070972
 30
0.0
 10
118.498056
 20
4.070972
 30
0.0
 10
119.503472
 20
4.070972
 30
0.0
 10
120.500069
 20
4.070972
 30
0.0
 10
120.949861
 20
4.088611
 30
0.0
 10
121.373194
 20
4.132694
 30
0.0
 10
121.770069
 20
4.203250
 30
0.0
 10
122.149306
 20
4.309083
 30
0.0
 10
122.502083
 20
4.441389
 30
0.0
 10
122.819583
 20
4.600139
 30
0.0
 10
123.110625
 20
4.785361
 30
0.0
 10
123.384028
 20
4.997028
 30
0.0
 10
123.622153
 20
5.235139
 30
0.0
 10
123.833819
 20
5.499722
 30
0.0
 10
124.010208
 20
5.781944
 30
0.0
 10
124.160139
 20
6.099444
 30
0.0
 10
124.274792
 20
6.434583
 30
0.0
 10
124.362986
 20
6.796195
 30
0.0
 10
124.415903
 20
7.175417
 30
0.0
 10
124.433542
 20
7.572306
 30
0.0
 10
124.415903
 20
7.916250
 30
0.0
 10
124.380625
 20
8.233750
 30
0.0
 10
124.310069
 20
8.524806
 30
0.0
 10
124.213056
 20
8.780556
 30
0.0
 10
124.098403
 20
9.018695
 30
0.0
 10
123.966111
 20
9.239167
 30
0.0
 10
123.807361
 20
9.433194
 30
0.0
 10
123.630972
 20
9.600750
 30
0.0
 10
123.436944
 20
9.759528
 30
0.0
 10
123.225278
 20
9.900639
 30
0.0
 10
122.995972
 20
10.015278
 30
0.0
 10
122.749028
 20
10.112306
 30
0.0
 10
122.502083
 20
10.200472
 30
0.0
 10
122.237500
 20
10.279861
 30
0.0
 10
121.964097
 20
10.350417
 30
0.0
 10
121.681875
 20
10.403333
 30
0.0
 10
121.681875
 20
10.429806
 30
0.0
 10
121.681875
 20
10.447416
 30
0.0
 10
121.681875
 20
10.465084
 30
0.0
 10
121.681875
 20
10.491528
 30
0.0
 10
121.964097
 20
10.535639
 30
0.0
 10
122.228681
 20
10.597361
 30
0.0
 10
122.475625
 20
10.685556
 30
0.0
 10
122.704931
 20
10.782584
 30
0.0
 10
122.916597
 20
10.906028
 30
0.0
 10
123.119444
 20
11.047139
 30
0.0
 10
123.304653
 20
11.197083
 30
0.0
 10
123.463403
 20
11.355833
 30
0.0
 10
123.604514
 20
11.532222
 30
0.0
 10
123.736806
 20
11.717416
 30
0.0
 10
123.842639
 20
11.929083
 30
0.0
 10
123.930833
 20
12.140750
 30
0.0
 10
124.001389
 20
12.370084
 30
0.0
 10
124.054306
 20
12.608194
 30
0.0
 10
124.080764
 20
12.846305
 30
0.0
 10
124.089583
 20
13.102083
 30
0.0
 10
124.071944
 20
13.507778
 30
0.0
 10
124.027847
 20
13.887028
 30
0.0
 10
123.939653
 20
14.222139
 30
0.0
 10
123.816181
 20
14.530833
 30
0.0
 10
123.666250
 20
14.813056
 30
0.0
 10
123.481042
 20
15.060000
 30
0.0
 10
123.260556
 20
15.280486
 30
0.0
 10
123.004792
 20
15.474514
 30
0.0
 10
122.713750
 20
15.642083
 30
0.0
 10
122.396250
 20
15.783194
 30
0.0
 10
122.043472
 20
15.906667
 30
0.0
 10
121.655417
 20
15.994861
 30
0.0
 10
121.232083
 20
16.065417
 30
0.0
 10
120.782292
 20
16.118333
 30
0.0
 10
120.306042
 20
16.153611
 30
0.0
 10
119.794514
 20
16.162431
 30
0.0
 10
118.965486
 20
16.162431
 30
0.0
 10
118.145278
 20
16.162431
 30
0.0
 10
117.316250
 20
16.162431
 30
0.0
 10
116.487222
 20
16.162431
 30
0.0
 10
116.487222
 20
16.162431
 30
0.0
  0
LWPOLYLINE
  5
112
100
AcDbEntity
  8
Camada_1
 62
7
100
AcDbPolyline
 90
58
 70
0
 10
127.008819
 20
16.162431
 30
0.0
 10
127.008819
 20
13.137361
 30
0.0
 10
127.008819
 20
10.112306
 30
0.0
 10
127.008819
 20
7.096028
 30
0.0
 10
127.008819
 20
4.070972
 30
0.0
 10
127.396875
 20
4.070972
 30
0.0
 10
127.784931
 20
4.070972
 30
0.0
 10
128.164167
 20
4.070972
 30
0.0
 10
128.552222
 20
4.070972
 30
0.0
 10
128.552222
 20
5.314528
 30
0.0
 10
128.552222
 20
6.566861
 30
0.0
 10
128.552222
 20
7.819250
 30
0.0
 10
128.552222
 20
9.062778
 30
0.0
 10
129.019653
 20
9.062778
 30
0.0
 10
129.495903
 20
9.062778
 30
0.0
 10
129.972153
 20
9.062778
 30
0.0
 10
130.448403
 20
9.062778
 30
0.0
 10
131.171597
 20
7.819250
 30
0.0
 10
131.894792
 20
6.566861
 30
0.0
 10
132.617986
 20
5.314528
 30
0.0
 10
133.350000
 20
4.070972
 30
0.0
 10
133.799792
 20
4.070972
 30
0.0
 10
134.249583
 20
4.070972
 30
0.0
 10
134.708194
 20
4.070972
 30
0.0
 10
135.157986
 20
4.070972
 30
0.0
 10
134.337778
 20
5.420361
 30
0.0
 10
133.517569
 20
6.778528
 30
0.0
 10
132.688542
 20
8.127917
 30
0.0
 10
131.868333
 20
9.486111
 30
0.0
 10
132.088819
 20
9.574306
 30
0.0
 10
132.318125
 20
9.671305
 30
0.0
 10
132.538611
 20
9.785972
 30
0.0
 10
132.750278
 20
9.909444
 30
0.0
 10
132.961944
 20
10.041750
 30
0.0
 10
133.155972
 20
10.191667
 30
0.0
 10
133.341181
 20
10.359250
 30
0.0
 10
133.517569
 20
10.544444
 30
0.0
 10
133.676319
 20
10.747306
 30
0.0
 10
133.817431
 20
10.967778
 30
0.0
 10
133.940903
 20
11.214722
 30
0.0
 10
134.046736
 20
11.470472
 30
0.0
 10
134.143750
 20
11.752694
 30
0.0
 10
134.205486
 20
12.052584
 30
0.0
 10
134.240764
 20
12.378889
 30
0.0
 10
134.258403
 20
12.731667
 30
0.0
 10
134.187847
 20
13.534250
 30
0.0
 10
133.993819
 20
14.239806
 30
0.0
 10
133.667500
 20
14.830694
 30
0.0
 10
133.208889
 20
15.306944
 30
0.0
 10
132.609167
 20
15.686181
 30
0.0
 10
131.868333
 20
15.950764
 30
0.0
 10
130.986389
 20
16.109514
 30
0.0
 10
129.954514
 20
16.162431
 30
0.0
 10
129.222500
 20
16.162431
 30
0.0
 10
128.481667
 20
16.162431
 30
0.0
 10
127.749653
 20
16.162431
 30
0.0
 10
127.008819
 20
16.162431
 30
0.0
 10
127.008819
 20
16.162431
 30
0.0
  0
LWPOLYLINE
  5
113
100
AcDbEntity
  8
Camada_1
 62
7
100
AcDbPolyline
 90
66
 70
0
 10
172.129097
 20
14.998264
 30
0.0
 10
172.587708
 20
14.971806
 30
0.0
 10
173.011042
 20
14.910069
 30
0.0
 10
173.399097
 20
14.804236
 30
0.0
 10
173.751875
 20
14.654306
 30
0.0
 10
174.078194
 20
14.469083
 30
0.0
 10
174.369236
 20
14.248611
 30
0.0
 10
174.633819
 20
13.992861
 30
0.0
 10
174.871944
 20
13.692972
 30
0.0
 10
175.074792
 20
13.366667
 30
0.0
 10
175.251181
 20
13.005084
 30
0.0
 10
175.392292
 20
12.608194
 30
0.0
 10
175.515764
 20
12.176028
 30
0.0
 10
175.603958
 20
11.708611
 30
0.0
 10
175.665694
 20
11.214722
 30
0.0
 10
175.709792
 20
10.685556
 30
0.0
 10
175.718611
 20
10.129916
 30
0.0
 10
175.709792
 20
9.583139
 30
0.0
 10
175.665694
 20
9.053972
 30
0.0
 10
175.603958
 20
8.560084
 30
0.0
 10
175.515764
 20
8.092639
 30
0.0
 10
175.392292
 20
7.651667
 30
0.0
 10
175.251181
 20
7.254806
 30
0.0
 10
175.065972
 20
6.884361
 30
0.0
 10
174.863125
 20
6.549250
 30
0.0
 10
174.625000
 20
6.258194
 30
0.0
 10
174.360417
 20
5.993611
 30
0.0
 10
174.060556
 20
5.773139
 30
0.0
 10
173.734236
 20
5.579083
 30
0.0
 10
173.381458
 20
5.437972
 30
0.0
 10
172.993403
 20
5.332139
 30
0.0
 10
172.570069
 20
5.270417
 30
0.0
 10
172.111458
 20
5.252778
 30
0.0
 10
171.661667
 20
5.270417
 30
0.0
 10
171.238333
 20
5.332139
 30
0.0
 10
170.841458
 20
5.437972
 30
0.0
 10
170.488681
 20
5.579083
 30
0.0
 10
170.162361
 20
5.773139
 30
0.0
 10
169.862500
 20
5.993611
 30
0.0
 10
169.597917
 20
6.258194
 30
0.0
 10
169.359792
 20
6.549250
 30
0.0
 10
169.156944
 20
6.884361
 30
0.0
 10
168.980556
 20
7.254806
 30
0.0
 10
168.830625
 20
7.651667
 30
0.0
 10
168.707153
 20
8.092639
 30
0.0
 10
168.610139
 20
8.560084
 30
0.0
 10
168.548403
 20
9.053972
 30
0.0
 10
168.504306
 20
9.583139
 30
0.0
 10
168.495486
 20
10.129916
 30
0.0
 10
168.504306
 20
10.685556
 30
0.0
 10
168.548403
 20
11.214722
 30
0.0
 10
168.610139
 20
11.708611
 30
0.0
 10
168.707153
 20
12.176028
 30
0.0
 10
168.830625
 20
12.608194
 30
0.0
 10
168.980556
 20
13.005084
 30
0.0
 10
169.156944
 20
13.366667
 30
0.0
 10
169.368611
 20
13.692972
 30
0.0
 10
169.606736
 20
13.992861
 30
0.0
 10
169.871319
 20
14.248611
 30
0.0
 10
170.171181
 20
14.469083
 30
0.0
 10
170.497500
 20
14.654306
 30
0.0
 10
170.859097
 20
14.804236
 30
0.0
 10
171.255972
 20
14.910069
 30
0.0
 10
171.679306
 20
14.971806
 30
0.0
 10
172.129097
 20
14.998264
 30
0.0
 10
172.129097
 20
14.998264
 30
0.0
  0
LWPOLYLINE
  5
114
100
AcDbEntity
  8
Camada_1
 62
7
100
AcDbPolyline
 90
46
 70
0
 10
1.534583
 20
14.848333
 30
0.0
 10
1.869722
 20
14.848333
 30
0.0
 10
2.196042
 20
14.848333
 30
0.0
 10
2.531181
 20
14.848333
 30
0.0
 10
2.866319
 20
14.848333
 30
0.0
 10
3.210278
 20
14.839514
 30
0.0
 10
3.527778
 20
14.813056
 30
0.0
 10
3.827639
 20
14.777778
 30
0.0
 10
4.101042
 20
14.724861
 30
0.0
 10
4.356806
 20
14.654306
 30
0.0
 10
4.586111
 20
14.574916
 30
0.0
 10
4.788958
 20
14.469083
 30
0.0
 10
4.974167
 20
14.345639
 30
0.0
 10
5.132917
 20
14.204528
 30
0.0
 10
5.274028
 20
14.045750
 30
0.0
 10
5.388681
 20
13.860556
 30
0.0
 10
5.485694
 20
13.666528
 30
0.0
 10
5.556250
 20
13.446028
 30
0.0
 10
5.617986
 20
13.207917
 30
0.0
 10
5.644444
 20
12.943333
 30
0.0
 10
5.653264
 20
12.652306
 30
0.0
 10
5.644444
 20
12.378889
 30
0.0
 10
5.617986
 20
12.123139
 30
0.0
 10
5.565069
 20
11.876195
 30
0.0
 10
5.503333
 20
11.655694
 30
0.0
 10
5.415139
 20
11.452861
 30
0.0
 10
5.300486
 20
11.267639
 30
0.0
 10
5.168194
 20
11.100084
 30
0.0
 10
5.009444
 20
10.941305
 30
0.0
 10
4.833056
 20
10.809028
 30
0.0
 10
4.630208
 20
10.694361
 30
0.0
 10
4.409722
 20
10.597361
 30
0.0
 10
4.162778
 20
10.517972
 30
0.0
 10
3.889375
 20
10.456250
 30
0.0
 10
3.580694
 20
10.412139
 30
0.0
 10
3.254375
 20
10.385694
 30
0.0
 10
2.892778
 20
10.376861
 30
0.0
 10
2.557639
 20
10.376861
 30
0.0
 10
2.213681
 20
10.376861
 30
0.0
 10
1.878542
 20
10.376861
 30
0.0
 10
1.534583
 20
10.376861
 30
0.0
 10
1.534583
 20
11.488139
 30
0.0
 10
1.534583
 20
12.608194
 30
0.0
 10
1.534583
 20
13.728250
 30
0.0
 10
1.534583
 20
14.848333
 30
0.0
 10
1.534583
 20
14.848333
 30
0.0
  0
LWPOLYLINE
  5
115
100
AcDbEntity
  8
Camada_1
 62
7
100
AcDbPolyline
 90
38
 70
0
 10
58.508194
 20
14.848333
 30
0.0
 10
58.922708
 20
14.848333
 30
0.0
 10
59.337222
 20
14.848333
 30
0.0
 10
59.760556
 20
14.848333
 30
0.0
 10
60.175069
 20
14.848333
 30
0.0
 10
60.642500
 20
14.830694
 30
0.0
 10
61.092292
 20
14.777778
 30
0.0
 10
61.506806
 20
14.689583
 30
0.0
 10
61.903681
 20
14.566111
 30
0.0
 10
62.265278
 20
14.407361
 30
0.0
 10
62.600417
 20
14.222139
 30
0.0
 10
62.909097
 20
13.992861
 30
0.0
 10
63.182500
 20
13.719444
 30
0.0
 10
63.429444
 20
13.419583
 30
0.0
 10
63.641111
 20
13.075639
 30
0.0
 10
63.826319
 20
12.687584
 30
0.0
 10
63.976250
 20
12.264250
 30
0.0
 10
64.099722
 20
11.805639
 30
0.0
 10
64.179097
 20
11.302917
 30
0.0
 10
64.232014
 20
10.764916
 30
0.0
 10
64.249653
 20
10.182861
 30
0.0
 10
64.179097
 20
9.071583
 30
0.0
 10
63.976250
 20
8.101472
 30
0.0
 10
63.623472
 20
7.281250
 30
0.0
 10
63.138403
 20
6.602139
 30
0.0
 10
62.521042
 20
6.072972
 30
0.0
 10
61.762569
 20
5.693750
 30
0.0
 10
60.871806
 20
5.464444
 30
0.0
 10
59.848750
 20
5.393889
 30
0.0
 10
59.513611
 20
5.393889
 30
0.0
 10
59.178472
 20
5.393889
 30
0.0
 10
58.843333
 20
5.393889
 30
0.0
 10
58.508194
 20
5.393889
 30
0.0
 10
58.508194
 20
7.757500
 30
0.0
 10
58.508194
 20
10.121111
 30
0.0
 10
58.508194
 20
12.484722
 30
0.0
 10
58.508194
 20
14.848333
 30
0.0
 10
58.508194
 20
14.848333
 30
0.0
  0
LWPOLYLINE
  5
116
100
AcDbEntity
  8
Camada_1
 62
7
100
AcDbPolyline
 90
38
 70
0
 10
118.030625
 20
14.848333
 30
0.0
 10
118.489236
 20
14.848333
 30
0.0
 10
118.947847
 20
14.848333
 30
0.0
 10
119.415278
 20
14.848333
 30
0.0
 10
119.873889
 20
14.848333
 30
0.0
 10
120.517708
 20
14.821875
 30
0.0
 10
121.064514
 20
14.742500
 30
0.0
 10
121.523125
 20
14.601389
 30
0.0
 10
121.884722
 20
14.416195
 30
0.0
 10
122.158125
 20
14.169250
 30
0.0
 10
122.360972
 20
13.842917
 30
0.0
 10
122.484444
 20
13.454861
 30
0.0
 10
122.519722
 20
12.996250
 30
0.0
 10
122.510903
 20
12.758139
 30
0.0
 10
122.484444
 20
12.537639
 30
0.0
 10
122.449167
 20
12.325972
 30
0.0
 10
122.387431
 20
12.131944
 30
0.0
 10
122.316875
 20
11.955556
 30
0.0
 10
122.219861
 20
11.796806
 30
0.0
 10
122.105208
 20
11.655694
 30
0.0
 10
121.972917
 20
11.523417
 30
0.0
 10
121.822986
 20
11.408750
 30
0.0
 10
121.637778
 20
11.311750
 30
0.0
 10
121.434931
 20
11.223528
 30
0.0
 10
121.214444
 20
11.161806
 30
0.0
 10
120.967500
 20
11.100084
 30
0.0
 10
120.685278
 20
11.064806
 30
0.0
 10
120.385417
 20
11.038333
 30
0.0
 10
120.050278
 20
11.029528
 30
0.0
 10
119.538750
 20
11.029528
 30
0.0
 10
119.036042
 20
11.029528
 30
0.0
 10
118.533333
 20
11.029528
 30
0.0
 10
118.030625
 20
11.029528
 30
0.0
 10
118.030625
 20
11.990833
 30
0.0
 10
118.030625
 20
12.943333
 30
0.0
 10
118.030625
 20
13.895833
 30
0.0
 10
118.030625
 20
14.848333
 30
0.0
 10
118.030625
 20
14.848333
 30
0.0
  0
LWPOLYLINE
  5
117
100
AcDbEntity
  8
Camada_1
 62
7
100
AcDbPolyline
 90
46
 70
0
 10
128.552222
 20
14.848333
 30
0.0
 10
128.878542
 20
14.848333
 30
0.0
 10
129.213681
 20
14.848333
 30
0.0
 10
129.540000
 20
14.848333
 30
0.0
 10
129.875139
 20
14.848333
 30
0.0
 10
130.219097
 20
14.839514
 30
0.0
 10
130.545417
 20
14.813056
 30
0.0
 10
130.845278
 20
14.777778
 30
0.0
 10
131.118681
 20
14.724861
 30
0.0
 10
131.365625
 20
14.654306
 30
0.0
 10
131.594931
 20
14.566111
 30
0.0
 10
131.797778
 20
14.469083
 30
0.0
 10
131.982986
 20
14.345639
 30
0.0
 10
132.141736
 20
14.195694
 30
0.0
 10
132.282847
 20
14.036944
 30
0.0
 10
132.397500
 20
13.860556
 30
0.0
 10
132.494514
 20
13.666528
 30
0.0
 10
132.573889
 20
13.446028
 30
0.0
 10
132.626806
 20
13.207917
 30
0.0
 10
132.662083
 20
12.943333
 30
0.0
 10
132.670903
 20
12.652306
 30
0.0
 10
132.662083
 20
12.378889
 30
0.0
 10
132.626806
 20
12.123139
 30
0.0
 10
132.582708
 20
11.876195
 30
0.0
 10
132.512153
 20
11.655694
 30
0.0
 10
132.423958
 20
11.452861
 30
0.0
 10
132.318125
 20
11.267639
 30
0.0
 10
132.185833
 20
11.091250
 30
0.0
 10
132.027083
 20
10.941305
 30
0.0
 10
131.850694
 20
10.809028
 30
0.0
 10
131.647847
 20
10.694361
 30
0.0
 10
131.418542
 20
10.597361
 30
0.0
 10
131.171597
 20
10.509167
 30
0.0
 10
130.898194
 20
10.447416
 30
0.0
 10
130.598333
 20
10.403333
 30
0.0
 10
130.263194
 20
10.376861
 30
0.0
 10
129.910417
 20
10.368056
 30
0.0
 10
129.566458
 20
10.368056
 30
0.0
 10
129.231319
 20
10.368056
 30
0.0
 10
128.887361
 20
10.368056
 30
0.0
 10
128.552222
 20
10.368056
 30
0.0
 10
128.552222
 20
11.488139
 30
0.0
 10
128.552222
 20
12.608194
 30
0.0
 10
128.552222
 20
13.728250
 30
0.0
 10
128.552222
 20
14.848333
 30
0.0
 10
128.552222
 20
14.848333
 30
0.0
  0
LWPOLYLINE
  5
118
100
AcDbEntity
  8
Camada_1
 62
7
100
AcDbPolyline
 90
46
 70
0
 10
45.772917
 20
14.557306
 30
0.0
 10
45.808194
 20
14.425000
 30
0.0
 10
45.843472
 20
14.292694
 30
0.0
 10
45.878750
 20
14.160417
 30
0.0
 10
45.914028
 20
14.028139
 30
0.0
 10
45.949306
 20
13.895833
 30
0.0
 10
45.984583
 20
13.763528
 30
0.0
 10
46.028681
 20
13.640084
 30
0.0
 10
46.063958
 20
13.516583
 30
0.0
 10
46.099236
 20
13.393139
 30
0.0
 10
46.134514
 20
13.278472
 30
0.0
 10
46.169792
 20
13.163805
 30
0.0
 10
46.205069
 20
13.049167
 30
0.0
 10
46.240347
 20
12.952139
 30
0.0
 10
46.266806
 20
12.855139
 30
0.0
 10
46.302083
 20
12.766944
 30
0.0
 10
46.328542
 20
12.687584
 30
0.0
 10
46.628403
 20
11.814444
 30
0.0
 10
46.937083
 20
10.932500
 30
0.0
 10
47.245764
 20
10.059361
 30
0.0
 10
47.554444
 20
9.177416
 30
0.0
 10
46.672500
 20
9.177416
 30
0.0
 10
45.790556
 20
9.177416
 30
0.0
 10
44.908611
 20
9.177416
 30
0.0
 10
44.026667
 20
9.177416
 30
0.0
 10
44.326528
 20
10.059361
 30
0.0
 10
44.626389
 20
10.932500
 30
0.0
 10
44.926250
 20
11.814444
 30
0.0
 10
45.226111
 20
12.687584
 30
0.0
 10
45.252569
 20
12.758139
 30
0.0
 10
45.279028
 20
12.846305
 30
0.0
 10
45.314306
 20
12.934528
 30
0.0
 10
45.340764
 20
13.031528
 30
0.0
 10
45.376042
 20
13.146195
 30
0.0
 10
45.420139
 20
13.260833
 30
0.0
 10
45.455417
 20
13.375472
 30
0.0
 10
45.490694
 20
13.498972
 30
0.0
 10
45.525972
 20
13.631250
 30
0.0
 10
45.570069
 20
13.754722
 30
0.0
 10
45.605347
 20
13.895833
 30
0.0
 10
45.640625
 20
14.028139
 30
0.0
 10
45.675903
 20
14.160417
 30
0.0
 10
45.711181
 20
14.292694
 30
0.0
 10
45.746458
 20
14.425000
 30
0.0
 10
45.772917
 20
14.557306
 30
0.0
 10
45.772917
 20
14.557306
 30
0.0
  0
LWPOLYLINE
  5
119
100
AcDbEntity
  8
Camada_1
 62
7
100
AcDbPolyline
 90
46
 70
0
 10
95.593958
 20
14.557306
 30
0.0
 10
95.629236
 20
14.425000
 30
0.0
 10
95.664514
 20
14.292694
 30
0.0
 10
95.699792
 20
14.160417
 30
0.0
 10
95.735069
 20
14.028139
 30
0.0
 10
95.779167
 20
13.895833
 30
0.0
 10
95.814444
 20
13.763528
 30
0.0
 10
95.849722
 20
13.640084
 30
0.0
 10
95.885000
 20
13.516583
 30
0.0
 10
95.920278
 20
13.393139
 30
0.0
 10
95.955556
 20
13.278472
 30
0.0
 10
95.990833
 20
13.163805
 30
0.0
 10
96.026111
 20
13.049167
 30
0.0
 10
96.061389
 20
12.952139
 30
0.0
 10
96.096667
 20
12.855139
 30
0.0
 10
96.123125
 20
12.766944
 30
0.0
 10
96.149583
 20
12.687584
 30
0.0
 10
96.458264
 20
11.814444
 30
0.0
 10
96.766944
 20
10.932500
 30
0.0
 10
97.066806
 20
10.059361
 30
0.0
 10
97.375486
 20
9.177416
 30
0.0
 10
96.493542
 20
9.177416
 30
0.0
 10
95.611597
 20
9.177416
 30
0.0
 10
94.729653
 20
9.177416
 30
0.0
 10
93.856528
 20
9.177416
 30
0.0
 10
94.156389
 20
10.059361
 30
0.0
 10
94.456250
 20
10.932500
 30
0.0
 10
94.756111
 20
11.814444
 30
0.0
 10
95.055972
 20
12.687584
 30
0.0
 10
95.082431
 20
12.766944
 30
0.0
 10
95.108889
 20
12.846305
 30
0.0
 10
95.135347
 20
12.934528
 30
0.0
 10
95.170625
 20
13.031528
 30
0.0
 10
95.205903
 20
13.146195
 30
0.0
 10
95.241181
 20
13.260833
 30
0.0
 10
95.276458
 20
13.375472
 30
0.0
 10
95.320556
 20
13.498972
 30
0.0
 10
95.355833
 20
13.631250
 30
0.0
 10
95.391111
 20
13.763528
 30
0.0
 10
95.426389
 20
13.895833
 30
0.0
 10
95.461667
 20
14.028139
 30
0.0
 10
95.505764
 20
14.160417
 30
0.0
 10
95.532222
 20
14.292694
 30
0.0
 10
95.567500
 20
14.425000
 30
0.0
 10
95.593958
 20
14.557306
 30
0.0
 10
95.593958
 20
14.557306
 30
0.0
  0
LWPOLYLINE
  5
11a
100
AcDbEntity
  8
Camada_1
 62
7
100
AcDbPolyline
 90
46
 70
0
 10
140.493750
 20
14.557306
 30
0.0
 10
140.529028
 20
14.425000
 30
0.0
 10
140.564306
 20
14.292694
 30
0.0
 10
140.599583
 20
14.160417
 30
0.0
 10
140.634861
 20
14.028139
 30
0.0
 10
140.670139
 20
13.895833
 30
0.0
 10
140.705417
 20
13.763528
 30
0.0
 10
140.749514
 20
13.640084
 30
0.0
 10
140.784792
 20
13.516583
 30
0.0
 10
140.820069
 20
13.393139
 30
0.0
 10
140.855347
 20
13.278472
 30
0.0
 10
140.890625
 20
13.163805
 30
0.0
 10
140.925903
 20
13.049167
 30
0.0
 10
140.961181
 20
12.952139
 30
0.0
 10
140.996458
 20
12.855139
 30
0.0
 10
141.022917
 20
12.766944
 30
0.0
 10
141.049375
 20
12.687584
 30
0.0
 10
141.358056
 20
11.814444
 30
0.0
 10
141.657917
 20
10.932500
 30
0.0
 10
141.966597
 20
10.059361
 30
0.0
 10
142.275278
 20
9.177416
 30
0.0
 10
141.393333
 20
9.177416
 30
0.0
 10
140.511389
 20
9.177416
 30
0.0
 10
139.629444
 20
9.177416
 30
0.0
 10
138.747500
 20
9.177416
 30
0.0
 10
139.047361
 20
10.059361
 30
0.0
 10
139.347222
 20
10.932500
 30
0.0
 10
139.647083
 20
11.814444
 30
0.0
 10
139.946944
 20
12.687584
 30
0.0
 10
139.973403
 20
12.758139
 30
0.0
 10
139.999861
 20
12.846305
 30
0.0
 10
140.035139
 20
12.934528
 30
0.0
 10
140.061597
 20
13.031528
 30
0.0
 10
140.096875
 20
13.146195
 30
0.0
 10
140.140972
 20
13.260833
 30
0.0
 10
140.176250
 20
13.375472
 30
0.0
 10
140.211528
 20
13.498972
 30
0.0
 10
140.246806
 20
13.631250
 30
0.0
 10
140.290903
 20
13.754722
 30
0.0
 10
140.326181
 20
13.895833
 30
0.0
 10
140.361458
 20
14.028139
 30
0.0
 10
140.396736
 20
14.160417
 30
0.0
 10
140.432014
 20
14.292694
 30
0.0
 10
140.467292
 20
14.425000
 30
0.0
 10
140.493750
 20
14.557306
 30
0.0
 10
140.493750
 20
14.557306
 30
0.0
  0
LWPOLYLINE
  5
11b
100
AcDbEntity
  8
Camada_1
 62
7
100
AcDbPolyline
 90
46
 70
0
 10
160.840208
 20
14.557306
 30
0.0
 10
160.875486
 20
14.425000
 30
0.0
 10
160.910764
 20
14.292694
 30
0.0
 10
160.946042
 20
14.160417
 30
0.0
 10
160.981319
 20
14.028139
 30
0.0
 10
161.016597
 20
13.895833
 30
0.0
 10
161.051875
 20
13.763528
 30
0.0
 10
161.095972
 20
13.640084
 30
0.0
 10
161.131250
 20
13.516583
 30
0.0
 10
161.166528
 20
13.393139
 30
0.0
 10
161.201806
 20
13.278472
 30
0.0
 10
161.237083
 20
13.163805
 30
0.0
 10
161.272361
 20
13.049167
 30
0.0
 10
161.307639
 20
12.952139
 30
0.0
 10
161.342917
 20
12.855139
 30
0.0
 10
161.369375
 20
12.766944
 30
0.0
 10
161.395833
 20
12.687584
 30
0.0
 10
161.704514
 20
11.814444
 30
0.0
 10
162.004375
 20
10.932500
 30
0.0
 10
162.313056
 20
10.059361
 30
0.0
 10
162.621736
 20
9.177416
 30
0.0
 10
161.739792
 20
9.177416
 30
0.0
 10
160.857847
 20
9.177416
 30
0.0
 10
159.975903
 20
9.177416
 30
0.0
 10
159.093958
 20
9.177416
 30
0.0
 10
159.393819
 20
10.059361
 30
0.0
 10
159.693681
 20
10.932500
 30
0.0
 10
159.993542
 20
11.814444
 30
0.0
 10
160.293403
 20
12.687584
 30
0.0
 10
160.319861
 20
12.766944
 30
0.0
 10
160.346319
 20
12.846305
 30
0.0
 10
160.381597
 20
12.934528
 30
0.0
 10
160.408056
 20
13.031528
 30
0.0
 10
160.452153
 20
13.146195
 30
0.0
 10
160.487431
 20
13.260833
 30
0.0
 10
160.522708
 20
13.375472
 30
0.0
 10
160.557986
 20
13.498972
 30
0.0
 10
160.593264
 20
13.631250
 30
0.0
 10
160.637361
 20
13.763528
 30
0.0
 10
160.672639
 20
13.895833
 30
0.0
 10
160.707917
 20
14.028139
 30
0.0
 10
160.743194
 20
14.160417
 30
0.0
 10
160.778472
 20
14.292694
 30
0.0
 10
160.813750
 20
14.425000
 30
0.0
 10
160.840208
 20
14.557306
 30
0.0
 10
160.840208
 20
14.557306
 30
0.0
  0
LWPOLYLINE
  5
11c
100
AcDbEntity
  8
Camada_1
 62
7
100
AcDbPolyline
 90
46
 70
0
 10
118.030625
 20
9.741861
 30
0.0
 10
118.550972
 20
9.741861
 30
0.0
 10
119.080139
 20
9.741861
 30
0.0
 10
119.609306
 20
9.741861
 30
0.0
 10
120.129653
 20
9.741861
 30
0.0
 10
120.491250
 20
9.733056
 30
0.0
 10
120.826389
 20
9.706583
 30
0.0
 10
121.135069
 20
9.653695
 30
0.0
 10
121.408472
 20
9.583139
 30
0.0
 10
121.646597
 20
9.503750
 30
0.0
 10
121.867083
 20
9.406750
 30
0.0
 10
122.061111
 20
9.292083
 30
0.0
 10
122.219861
 20
9.159806
 30
0.0
 10
122.369792
 20
9.009861
 30
0.0
 10
122.493264
 20
8.851111
 30
0.0
 10
122.590278
 20
8.683528
 30
0.0
 10
122.669653
 20
8.498333
 30
0.0
 10
122.731389
 20
8.295472
 30
0.0
 10
122.775486
 20
8.083805
 30
0.0
 10
122.801944
 20
7.872139
 30
0.0
 10
122.810764
 20
7.642861
 30
0.0
 10
122.801944
 20
7.395917
 30
0.0
 10
122.775486
 20
7.157778
 30
0.0
 10
122.731389
 20
6.928472
 30
0.0
 10
122.678472
 20
6.716806
 30
0.0
 10
122.599097
 20
6.513972
 30
0.0
 10
122.502083
 20
6.328750
 30
0.0
 10
122.378611
 20
6.161195
 30
0.0
 10
122.237500
 20
6.002416
 30
0.0
 10
122.078750
 20
5.861305
 30
0.0
 10
121.893542
 20
5.737861
 30
0.0
 10
121.681875
 20
5.632028
 30
0.0
 10
121.443750
 20
5.543805
 30
0.0
 10
121.187986
 20
5.473250
 30
0.0
 10
120.896944
 20
5.420361
 30
0.0
 10
120.579444
 20
5.385084
 30
0.0
 10
120.226667
 20
5.376250
 30
0.0
 10
119.679861
 20
5.376250
 30
0.0
 10
119.133056
 20
5.376250
 30
0.0
 10
118.577431
 20
5.376250
 30
0.0
 10
118.030625
 20
5.376250
 30
0.0
 10
118.030625
 20
6.469861
 30
0.0
 10
118.030625
 20
7.563472
 30
0.0
 10
118.030625
 20
8.648250
 30
0.0
 10
118.030625
 20
9.741861
 30
0.0
 10
118.030625
 20
9.741861
 30
0.0
  0
ENDSEC
  0
SECTION
  2
OBJECTS
  0
DICTIONARY
  5
C
330
0
100
AcDbDictionary
  3
ACAD_GROUP
350
D
  3
ACAD_MLINESTYLE
350
17
  0
DICTIONARY
  5
D
330
C
100
AcDbDictionary
  0
DICTIONARY
  5
1A
330
C
100
AcDbDictionary
  0
DICTIONARY
  5
17
330
C
100
AcDbDictionary
  3
STANDARD
350
18
  0
DICTIONARY
  5
19
330
C
100
AcDbDictionary
  0
ENDSEC
  0
EOF
