<?xml version="1.0" encoding="UTF-8" standalone="no"?>
<!-- Created with Inkscape (http://www.inkscape.org/) -->

<svg
   xmlns:dc="http://purl.org/dc/elements/1.1/"
   xmlns:cc="http://creativecommons.org/ns#"
   xmlns:rdf="http://www.w3.org/1999/02/22-rdf-syntax-ns#"
   xmlns:svg="http://www.w3.org/2000/svg"
   xmlns="http://www.w3.org/2000/svg"
   xmlns:sodipodi="http://sodipodi.sourceforge.net/DTD/sodipodi-0.dtd"
   xmlns:inkscape="http://www.inkscape.org/namespaces/inkscape"
   width="170.53125"
   height="59.96875"
   id="svg78832"
   version="1.1"
   inkscape:version="0.48.2 r9819"
   sodipodi:docname="New document 4">
  <defs
     id="defs78834" />
  <sodipodi:namedview
     id="base"
     pagecolor="#ffffff"
     bordercolor="#666666"
     borderopacity="1.0"
     inkscape:pageopacity="0.0"
     inkscape:pageshadow="2"
     inkscape:zoom="10.267913"
     inkscape:cx="85.265625"
     inkscape:cy="29.984375"
     inkscape:document-units="px"
     inkscape:current-layer="layer1"
     showgrid="false"
     fit-margin-top="0"
     fit-margin-left="0"
     fit-margin-right="0"
     fit-margin-bottom="0"
     inkscape:window-width="1920"
     inkscape:window-height="1011"
     inkscape:window-x="0"
     inkscape:window-y="0"
     inkscape:window-maximized="1" />
  <metadata
     id="metadata78837">
    <rdf:RDF>
      <cc:Work
         rdf:about="">
        <dc:format>image/svg+xml</dc:format>
        <dc:type
           rdf:resource="http://purl.org/dc/dcmitype/StillImage" />
        <dc:title></dc:title>
      </cc:Work>
    </rdf:RDF>
  </metadata>
  <g
     inkscape:label="Layer 1"
     inkscape:groupmode="layer"
     id="layer1"
     transform="translate(982.40625,-208.09375)">
    <path
       inkscape:connector-curvature="0"
       id="path78801"
       style="font-size:28.15305519px;font-style:normal;font-variant:normal;font-weight:normal;font-stretch:normal;line-height:125%;letter-spacing:0px;word-spacing:0px;fill:none;stroke:#ff0000;font-family:Andika Basic;-inkscape-font-specification:Andika Basic"
       d="m -819.87321,264.53869 c -1.228,0 -2.3506,-0.2062 -3.3679,-0.6186 -1.0172,-0.42156 -1.8878,-0.97142 -2.6118,-1.64959 l 0.3436,-2.95552 c 0.3758,0.42156 0.779,0.80647 1.2097,1.15471 0.4308,0.34825 0.889,0.6461 1.3747,0.89353 0.4949,0.24744 1.0172,0.4399 1.5671,0.57736 0.5499,0.1283 1.1364,0.19245 1.7596,0.19245 0.5223,0 1.0539,-0.0779 1.5946,-0.23369 0.5407,-0.15579 1.0264,-0.38948 1.4571,-0.70108 0.4399,-0.32075 0.7973,-0.71482 1.0723,-1.18221 0.2749,-0.47654 0.4123,-1.03099 0.4124,-1.66334 -10e-5,-0.55902 -0.1467,-1.06764 -0.4399,-1.52587 -0.2841,-0.46738 -0.6828,-0.86603 -1.196,-1.19595 -0.5132,-0.33908 -1.1181,-0.60026 -1.8145,-0.78356 -0.6965,-0.18328 -1.448,-0.27492 -2.2545,-0.27493 l -0.9622,0 0,-2.33693 0.9622,0 c 0.6873,2e-5 1.338,-0.0962 1.952,-0.28868 0.614,-0.19244 1.1502,-0.44446 1.6084,-0.75606 0.4674,-0.31158 0.8385,-0.66899 1.1135,-1.07223 0.2749,-0.40322 0.4124,-0.8202 0.4124,-1.25095 0,-0.46736 -0.11,-0.86602 -0.33,-1.19595 -0.2107,-0.33907 -0.4903,-0.61858 -0.8385,-0.83854 -0.3391,-0.21993 -0.724,-0.38031 -1.1547,-0.48113 -0.4216,-0.10996 -0.8386,-0.16495 -1.251,-0.16496 -0.5315,1e-5 -1.0264,0.0367 -1.4846,0.10997 -0.4582,0.0733 -0.8935,0.19247 -1.3059,0.35741 -0.4124,0.16498 -0.8157,0.38492 -1.2097,0.65984 -0.3849,0.27495 -0.7698,0.60945 -1.1547,1.0035 l -0.4812,-2.33692 c 0.275,-0.31157 0.6095,-0.60025 1.0035,-0.86604 0.3941,-0.27491 0.8248,-0.5086 1.2922,-0.70108 0.4766,-0.20159 0.9852,-0.35739 1.5259,-0.46738 0.5407,-0.10995 1.0997,-0.16494 1.6771,-0.16496 0.8523,2e-5 1.6587,0.10999 2.4194,0.32992 0.7698,0.21996 1.4434,0.53614 2.0207,0.94851 0.5774,0.40326 1.0356,0.89813 1.3747,1.48464 0.3391,0.58654 0.5086,1.24637 0.5086,1.97951 0,0.63236 -0.1375,1.2143 -0.4124,1.74582 -0.2749,0.52238 -0.6278,0.98519 -1.0585,1.38841 -0.4215,0.40324 -0.8935,0.73774 -1.4159,1.0035 -0.5224,0.25661 -1.0264,0.43532 -1.5121,0.53612 0.3207,0.055 0.669,0.14206 1.0447,0.26118 0.3849,0.11915 0.7653,0.27953 1.141,0.48113 0.3757,0.19247 0.7377,0.43074 1.086,0.71483 0.3482,0.2841 0.6552,0.6186 0.921,1.0035 0.2749,0.38491 0.4903,0.8248 0.6461,1.31967 0.165,0.48572 0.2474,1.03559 0.2474,1.6496 0,0.80647 -0.2062,1.5717 -0.6185,2.29568 -0.4033,0.71483 -0.9486,1.34259 -1.6359,1.88329 -0.6873,0.53153 -1.4846,0.95309 -2.3919,1.26468 -0.9073,0.31159 -1.8558,0.46739 -2.8456,0.46739 m -16.6334,-17.66439 -4.1239,2.36441 -0.3437,-2.47439 4.7426,-2.91428 2.3369,0 0,18.00806 4.3302,0 0,2.33692 -11.2722,0 0,-2.33692 4.3301,0 0,-14.9838 m -8.5916,7.14823 c 0,2.02534 -0.1879,3.71159 -0.5636,5.05875 -0.3666,1.34718 -0.8706,2.42858 -1.5121,3.2442 -0.6415,0.80647 -1.3976,1.37925 -2.2682,1.71833 -0.8706,0.32992 -1.8054,0.49488 -2.8043,0.49488 -0.9898,0 -1.9062,-0.16954 -2.7493,-0.50863 -0.8432,-0.33908 -1.5717,-0.90269 -2.1858,-1.69083 -0.6048,-0.7973 -1.0814,-1.85121 -1.4296,-3.16172 -0.3391,-1.3105 -0.5086,-2.93718 -0.5086,-4.88004 0,-1.93368 0.1833,-3.56953 0.5498,-4.90754 0.3758,-1.33799 0.8844,-2.41939 1.5259,-3.2442 0.6507,-0.83395 1.4113,-1.43421 2.2819,-1.80081 0.8707,-0.37572 1.8008,-0.56359 2.7906,-0.56361 0.9989,2e-5 1.9154,0.18331 2.7493,0.54986 0.8431,0.35743 1.5671,0.94396 2.172,1.75957 0.614,0.80648 1.0905,1.86039 1.4296,3.16172 0.3483,1.30136 0.5224,2.89138 0.5224,4.77007 m -2.7493,0.34367 c 0,-1.51212 -0.092,-2.79055 -0.2749,-3.83531 -0.1833,-1.05389 -0.4537,-1.90618 -0.8111,-2.55687 -0.3574,-0.65982 -0.8019,-1.13178 -1.3334,-1.4159 -0.5316,-0.29324 -1.1456,-0.43987 -1.8421,-0.43989 -0.6598,2e-5 -1.2555,0.14665 -1.787,0.43989 -0.5224,0.28412 -0.9669,0.74234 -1.3334,1.37467 -0.3666,0.63235 -0.6507,1.4434 -0.8523,2.43314 -0.1925,0.98977 -0.2887,2.18573 -0.2887,3.58787 0,1.51214 0.092,2.79515 0.2749,3.84905 0.1925,1.04475 0.4674,1.89245 0.8248,2.54312 0.3666,0.65068 0.8156,1.12265 1.3472,1.4159 0.5315,0.29327 1.1364,0.4399 1.8145,0.4399 0.6599,0 1.251,-0.14663 1.7734,-0.4399 0.5315,-0.29325 0.9805,-0.75147 1.3471,-1.37466 0.3666,-0.63234 0.6461,-1.44339 0.8386,-2.43315 0.2016,-0.98975 0.3024,-2.1857 0.3024,-3.58786 m -14.159,9.82882 -13.1968,0 0,-2.33692 c 0.6232,-0.44905 1.2876,-0.96684 1.9933,-1.55337 0.7148,-0.59568 1.4205,-1.2326 2.117,-1.91078 0.7056,-0.67816 1.3792,-1.38381 2.0207,-2.11697 0.6507,-0.74231 1.2235,-1.48463 1.7184,-2.22695 0.4948,-0.74231 0.8889,-1.47088 1.1822,-2.18571 0.3024,-0.72398 0.4536,-1.40215 0.4536,-2.0345 0,-0.6415 -0.1146,-1.18678 -0.3437,-1.63585 -0.2199,-0.4582 -0.5132,-0.82936 -0.8798,-1.11347 -0.3665,-0.29325 -0.7835,-0.50403 -1.2509,-0.63235 -0.4674,-0.12828 -0.9485,-0.19243 -1.4434,-0.19245 -0.4216,2e-5 -0.8569,0.0642 -1.3059,0.19245 -0.4491,0.11916 -0.889,0.29328 -1.3197,0.52237 -0.4216,0.22913 -0.8294,0.49948 -1.2234,0.81105 -0.3849,0.31161 -0.7286,0.65069 -1.031,1.01725 l -0.6186,-2.33692 c 0.2749,-0.38489 0.6323,-0.73772 1.0722,-1.05849 0.4399,-0.3299 0.9256,-0.614 1.4571,-0.85229 0.5407,-0.24742 1.1044,-0.43529 1.6909,-0.56361 0.5957,-0.13745 1.1822,-0.20618 1.7595,-0.2062 0.8248,2e-5 1.6084,0.13749 2.3507,0.4124 0.7515,0.26578 1.4113,0.65069 1.9795,1.15471 0.5682,0.4949 1.0173,1.09975 1.3472,1.81455 0.3391,0.70568 0.5086,1.50298 0.5086,2.39191 0,0.76983 -0.142,1.55338 -0.4261,2.35068 -0.275,0.78815 -0.6461,1.5717 -1.1135,2.35067 -0.4674,0.76981 -0.9989,1.52129 -1.5946,2.25444 -0.5957,0.73316 -1.2097,1.42965 -1.8421,2.08948 -0.6323,0.65985 -1.2555,1.27386 -1.8695,1.84205 -0.614,0.55903 -1.173,1.05391 -1.6771,1.48463 l 3.5054,0 c 0.6782,1e-5 1.3197,1e-5 1.9245,0 0.6049,-0.009 1.1593,-0.0183 1.6634,-0.0275 0.5132,-0.0183 0.9714,-0.0412 1.3746,-0.0687 0.4033,-0.0275 0.7423,-0.0641 1.0173,-0.10998 l 0,2.47439 m -14.9838,-21.99459 -11.4097,25.36249 -2.062,0 11.4097,-25.36249 2.062,0 m -20.0013,7.6981 c 1.4663,1e-5 2.5889,0.48115 3.3679,1.44339 0.7789,0.95311 1.1684,2.3736 1.1684,4.26145 l 0,8.59163 -2.5431,0 0,-7.56063 c 0,-0.86145 -0.06,-1.57169 -0.1787,-2.13073 -0.11,-0.55901 -0.2795,-0.99891 -0.5086,-1.31967 -0.22,-0.32991 -0.5041,-0.55902 -0.8523,-0.68733 -0.3391,-0.12829 -0.7423,-0.19244 -1.2097,-0.19245 -0.4949,10e-6 -0.9806,0.11915 -1.4571,0.35741 -0.4674,0.22912 -0.8982,0.53155 -1.2922,0.90727 -0.3941,0.36659 -0.7423,0.78357 -1.0448,1.25095 -0.3024,0.46739 -0.5269,0.93477 -0.6735,1.40215 l 0,7.97303 -2.5432,0 0,-8.45416 c 0,-1.35632 -0.078,-2.50187 -0.2337,-3.43665 -0.1466,-0.94392 -0.2978,-1.65417 -0.4536,-2.13073 l 2.4744,0 c 0.055,0.14665 0.11,0.3391 0.165,0.57736 0.055,0.22912 0.1053,0.47198 0.1512,0.72857 0.046,0.25662 0.087,0.50864 0.1237,0.75606 l 0.11,0.6186 c 0.8706,-1.04473 1.7504,-1.79621 2.6393,-2.25444 0.8889,-0.46737 1.8191,-0.70107 2.7906,-0.70108 m -19.6302,14.64014 c -2.9326,0 -4.3989,-1.97035 -4.3989,-5.91104 l 0,-4.05525 c 0,-0.43988 0,-0.83854 -0.014,-1.19596 0,-0.3574 -0.01,-0.70106 -0.027,-1.03099 -0.018,-0.33907 -0.046,-0.68274 -0.082,-1.031 -0.037,-0.34823 -0.087,-0.72856 -0.1512,-1.14097 l 2.818,0 0,7.62937 c 0,0.77898 0.037,1.45256 0.11,2.02075 0.082,0.55903 0.2153,1.02184 0.3986,1.38841 0.1833,0.35741 0.4216,0.62318 0.7149,0.7973 0.3024,0.17413 0.6735,0.26119 1.1134,0.26119 0.4033,0 0.834,-0.11914 1.2922,-0.35741 0.4582,-0.24744 0.8935,-0.55903 1.3059,-0.93477 0.4216,-0.37574 0.8019,-0.78814 1.141,-1.2372 0.3483,-0.45821 0.614,-0.8981 0.7973,-1.31967 l 0,-3.84905 c 0,-0.44905 0,-0.85228 -0.014,-1.2097 0,-0.36657 -0.01,-0.71482 -0.027,-1.04475 -0.018,-0.3299 -0.046,-0.6644 -0.082,-1.0035 -0.037,-0.33907 -0.087,-0.71939 -0.1512,-1.14097 l 2.818,0 0,7.83557 c 0,1.33801 0.073,2.51105 0.22,3.51913 0.1558,0.99892 0.3803,1.88787 0.6736,2.66684 l -2.337,0 c -0.064,-0.15579 -0.1328,-0.33908 -0.2062,-0.54986 -0.073,-0.21078 -0.1466,-0.43531 -0.2199,-0.67358 -0.064,-0.23828 -0.1283,-0.48572 -0.1924,-0.74232 -0.055,-0.26577 -0.1009,-0.52695 -0.1375,-0.78356 -0.834,1.01725 -1.6954,1.78706 -2.5844,2.30943 -0.8798,0.52237 -1.8054,0.78356 -2.7768,0.78356 m -15.0402,0 c -0.3299,0 -0.6919,-0.0321 -1.086,-0.0962 -0.3849,-0.055 -0.7744,-0.14663 -1.1684,-0.27493 -0.3941,-0.1283 -0.7653,-0.29326 -1.1135,-0.49488 -0.3483,-0.20161 -0.6461,-0.43989 -0.8935,-0.71482 l 0.6186,-2.54312 c 0.2291,0.26577 0.4857,0.50404 0.7698,0.71482 0.2841,0.20162 0.5773,0.37116 0.8798,0.50862 0.3115,0.13747 0.6277,0.24286 0.9485,0.31618 0.3299,0.0733 0.6552,0.10997 0.976,0.10997 0.504,0 0.9668,-0.0871 1.3884,-0.26119 0.4215,-0.18328 0.7835,-0.45821 1.086,-0.82479 0.3024,-0.37574 0.5361,-0.84771 0.7011,-1.4159 0.1741,-0.56819 0.2611,-1.24636 0.2611,-2.0345 l 0,-6.80457 c 0,-0.66899 0,-1.31966 -0.014,-1.95202 0,-0.64149 -0.01,-1.24176 -0.027,-1.80081 -0.01,-0.56817 -0.028,-1.09054 -0.055,-1.56711 -0.027,-0.4857 -0.064,-0.91184 -0.11,-1.27844 l 2.8181,0 0,12.71562 c 0,1.42965 -0.1466,2.63477 -0.4399,3.61536 -0.2933,0.98059 -0.7057,1.77331 -1.2372,2.37816 -0.5224,0.60485 -1.1501,1.04016 -1.8833,1.30593 -0.7331,0.26576 -1.5396,0.39865 -2.4194,0.39865 m -4.8802,-22.33827 -11.4097,25.36249 -2.062,0 11.4097,-25.36249 2.062,0 m -26.4897,14.43394 6.6258,0 0,-9.3477 -6.6258,9.3477 m 9.2377,2.13072 0,5.42991 -2.6119,0 0,-5.42991 -9.004,0 0,-2.13072 9.004,-12.78435 2.6119,0 0,12.78435 2.6118,0 0,2.13072 -2.6118,0 m -14.0903,-4.74258 c 0,2.02534 -0.1879,3.71159 -0.5636,5.05875 -0.3666,1.34718 -0.8706,2.42858 -1.5121,3.2442 -0.6416,0.80647 -1.3976,1.37925 -2.2682,1.71833 -0.8707,0.32992 -1.8054,0.49488 -2.8043,0.49488 -0.9898,0 -1.9062,-0.16954 -2.7494,-0.50863 -0.8431,-0.33908 -1.5717,-0.90269 -2.1857,-1.69083 -0.6048,-0.7973 -1.0814,-1.85121 -1.4296,-3.16172 -0.3391,-1.3105 -0.5086,-2.93718 -0.5086,-4.88004 0,-1.93368 0.1832,-3.56953 0.5498,-4.90754 0.3758,-1.33799 0.8844,-2.41939 1.5259,-3.2442 0.6507,-0.83395 1.4113,-1.43421 2.2819,-1.80081 0.8706,-0.37572 1.8008,-0.56359 2.7906,-0.56361 0.9989,2e-5 1.9153,0.18331 2.7493,0.54986 0.8431,0.35743 1.5671,0.94396 2.172,1.75957 0.614,0.80648 1.0905,1.86039 1.4296,3.16172 0.3483,1.30136 0.5224,2.89138 0.5224,4.77007 m -2.7493,0.34367 c 0,-1.51212 -0.092,-2.79055 -0.275,-3.83531 -0.1833,-1.05389 -0.4536,-1.90618 -0.811,-2.55687 -0.3574,-0.65982 -0.8019,-1.13178 -1.3334,-1.4159 -0.5316,-0.29324 -1.1456,-0.43987 -1.8421,-0.43989 -0.6598,2e-5 -1.2555,0.14665 -1.787,0.43989 -0.5224,0.28412 -0.9669,0.74234 -1.3335,1.37467 -0.3665,0.63235 -0.6506,1.4434 -0.8522,2.43314 -0.1925,0.98977 -0.2887,2.18573 -0.2887,3.58787 0,1.51214 0.092,2.79515 0.2749,3.84905 0.1925,1.04475 0.4674,1.89245 0.8248,2.54312 0.3666,0.65068 0.8156,1.12265 1.3472,1.4159 0.5315,0.29327 1.1364,0.4399 1.8145,0.4399 0.6599,0 1.251,-0.14663 1.7733,-0.4399 0.5316,-0.29325 0.9806,-0.75147 1.3472,-1.37466 0.3666,-0.63234 0.6461,-1.44339 0.8386,-2.43315 0.2016,-0.98975 0.3024,-2.1857 0.3024,-3.58786 m 97.4222,-25.01883 c -1.228,0 -2.3507,-0.2062 -3.3679,-0.6186 -1.0173,-0.42156 -1.8879,-0.97142 -2.6119,-1.64959 l 0.3437,-2.95552 c 0.3757,0.42157 0.779,0.80647 1.2097,1.15471 0.4307,0.34825 0.8889,0.6461 1.3746,0.89353 0.4949,0.24744 1.0173,0.4399 1.5672,0.57736 0.5498,0.1283 1.1363,0.19246 1.7595,0.19245 0.5224,1e-5 1.0539,-0.0779 1.5946,-0.23369 0.5407,-0.15579 1.0264,-0.38948 1.4572,-0.70108 0.4399,-0.32075 0.7973,-0.71482 1.0722,-1.1822 0.2749,-0.47655 0.4124,-1.031 0.4124,-1.66334 0,-0.55903 -0.1466,-1.06765 -0.4399,-1.52588 -0.2841,-0.46737 -0.6827,-0.86603 -1.1959,-1.19595 -0.5133,-0.33908 -1.1181,-0.60026 -1.8146,-0.78356 -0.6965,-0.18328 -1.448,-0.27492 -2.2544,-0.27493 l -0.9623,0 0,-2.33693 0.9623,0 c 0.6873,2e-5 1.338,-0.0962 1.952,-0.28867 0.614,-0.19244 1.1501,-0.44447 1.6083,-0.75607 0.4674,-0.31157 0.8386,-0.66899 1.1135,-1.07223 0.2749,-0.40322 0.4124,-0.8202 0.4124,-1.25094 0,-0.46737 -0.11,-0.86602 -0.3299,-1.19596 -0.2108,-0.33907 -0.4903,-0.61858 -0.8386,-0.83854 -0.339,-0.21993 -0.7239,-0.38031 -1.1547,-0.48113 -0.4215,-0.10996 -0.8385,-0.16495 -1.2509,-0.16496 -0.5316,10e-6 -1.0264,0.0367 -1.4846,0.10997 -0.4583,0.0733 -0.8936,0.19247 -1.306,0.35741 -0.4124,0.16498 -0.8156,0.38492 -1.2097,0.65984 -0.3849,0.27495 -0.7698,0.60945 -1.1547,1.0035 l -0.4811,-2.33692 c 0.2749,-0.31157 0.6094,-0.60025 1.0035,-0.86604 0.3941,-0.27491 0.8248,-0.5086 1.2922,-0.70108 0.4765,-0.20159 0.9851,-0.35739 1.5258,-0.46738 0.5407,-0.10995 1.0998,-0.16494 1.6771,-0.16496 0.8523,2e-5 1.6588,0.10999 2.4194,0.32992 0.7698,0.21996 1.4434,0.53614 2.0208,0.94851 0.5773,0.40326 1.0355,0.89813 1.3746,1.48464 0.3391,0.58654 0.5087,1.24637 0.5087,1.97951 0,0.63236 -0.1375,1.2143 -0.4124,1.74582 -0.275,0.52238 -0.6278,0.98519 -1.0585,1.38841 -0.4216,0.40324 -0.8936,0.73774 -1.4159,1.0035 -0.5224,0.25661 -1.0264,0.43532 -1.5121,0.53612 0.3207,0.055 0.6689,0.14206 1.0447,0.26118 0.3849,0.11915 0.7652,0.27953 1.141,0.48113 0.3757,0.19247 0.7377,0.43074 1.0859,0.71483 0.3483,0.2841 0.6553,0.6186 0.9211,1.0035 0.2749,0.38491 0.4902,0.8248 0.6461,1.31967 0.1649,0.48573 0.2474,1.03559 0.2474,1.6496 0,0.80647 -0.2062,1.5717 -0.6186,2.29568 -0.4032,0.71483 -0.9485,1.34259 -1.6358,1.88329 -0.6874,0.53153 -1.4847,0.9531 -2.392,1.26469 -0.9072,0.31158 -1.8558,0.46738 -2.8455,0.46738 m -9.224,-2.26819 c -0.4032,0.37574 -0.8752,0.70566 -1.4159,0.98976 -0.5407,0.27493 -1.1089,0.50862 -1.7046,0.70107 -0.5865,0.19245 -1.1822,0.3345 -1.787,0.42615 -0.6049,0.10081 -1.1685,0.15121 -1.6908,0.15121 -1.393,0 -2.644,-0.23369 -3.7529,-0.70108 -1.1089,-0.47655 -2.0528,-1.15013 -2.8318,-2.02075 -0.779,-0.87978 -1.3792,-1.94285 -1.8008,-3.18921 -0.4124,-1.24635 -0.6186,-2.64393 -0.6186,-4.19272 0,-1.76872 0.2566,-3.3175 0.7698,-4.64635 0.5132,-1.33799 1.196,-2.45146 2.0483,-3.34043 0.8614,-0.88893 1.8512,-1.55335 2.9692,-1.99326 1.1181,-0.44903 2.282,-0.67356 3.4917,-0.67358 0.4949,2e-5 0.9989,0.0321 1.5121,0.0962 0.5132,0.0642 1.0264,0.16956 1.5396,0.31617 0.5224,0.14665 1.0402,0.34368 1.5534,0.5911 0.5132,0.24746 1.0172,0.55447 1.5121,0.92103 l -0.8248,2.47439 c -0.4307,-0.38489 -0.8706,-0.71023 -1.3196,-0.97601 -0.4491,-0.26575 -0.8982,-0.47654 -1.3472,-0.63235 -0.4491,-0.16494 -0.8981,-0.27949 -1.3472,-0.34366 -0.4399,-0.0733 -0.866,-0.10996 -1.2784,-0.10998 -0.9623,2e-5 -1.8467,0.16956 -2.6531,0.50863 -0.8065,0.32993 -1.503,0.82939 -2.0895,1.49838 -0.5774,0.66902 -1.031,1.50298 -1.3609,2.50188 -0.3299,0.98977 -0.4949,2.14448 -0.4949,3.46415 0,1.06308 0.1421,2.08033 0.4262,3.05174 0.284,0.97144 0.701,1.82831 1.2509,2.57062 0.5499,0.73316 1.2234,1.31968 2.0208,1.75957 0.8064,0.43989 1.7274,0.65984 2.763,0.65983 0.5224,1e-5 1.0493,-0.0596 1.5809,-0.1787 0.5407,-0.11914 1.0676,-0.28868 1.5808,-0.50863 0.5132,-0.2291 1.0035,-0.49945 1.4709,-0.81105 0.4674,-0.31158 0.8935,-0.65983 1.2785,-1.04474 l 0.5498,2.68059 m -29.8164,-4.05522 c 0,0.67817 0,1.31968 0,1.92452 0.01,0.60486 0.018,1.16389 0.027,1.67709 0.018,0.51321 0.041,0.97143 0.069,1.37466 0.027,0.40324 0.064,0.73774 0.1099,1.0035 l -3.0242,0 c 0.1008,-0.54986 0.1603,-1.34258 0.1787,-2.37816 0.018,-1.04474 0.028,-2.24527 0.028,-3.60161 l 0,-9.7326 c 0,-0.64149 -0.01,-1.23718 -0.028,-1.78706 -0.01,-0.55901 -0.027,-1.05847 -0.055,-1.49838 -0.027,-0.43987 -0.069,-0.79728 -0.1237,-1.07223 0.4765,-0.0183 1.0035,-0.0412 1.5808,-0.0687 0.4949,-0.0183 1.0814,-0.032 1.7596,-0.0412 0.6782,-0.0183 1.4205,-0.0275 2.2269,-0.0275 1.0723,2e-5 2.0483,0.10999 2.9281,0.32992 0.8889,0.2108 1.6496,0.5453 2.2819,1.0035 0.6323,0.44907 1.1226,1.03101 1.4709,1.74582 0.3574,0.71484 0.5361,1.56713 0.5361,2.55687 0,0.83397 -0.1329,1.57171 -0.3986,2.2132 -0.2567,0.64152 -0.6003,1.19597 -1.031,1.66334 -0.4216,0.45823 -0.9027,0.83856 -1.4434,1.14097 -0.5407,0.30244 -1.0906,0.53155 -1.6496,0.68733 0.2749,0.37575 0.6094,0.83855 1.0035,1.38841 0.4032,0.54071 0.8294,1.11806 1.2784,1.73207 0.4582,0.60486 0.9164,1.22345 1.3747,1.85579 0.4674,0.62319 0.9027,1.20054 1.3059,1.73208 0.4032,0.53153 0.7561,0.98975 1.0585,1.37466 0.3024,0.3849 0.5132,0.64609 0.6323,0.78355 l -3.5053,0 -5.8011,-8.59163 -2.7906,0 0,2.61186 m 0,-4.74258 2.6119,0 c 1.5579,1e-5 2.7355,-0.32074 3.5329,-0.96226 0.8064,-0.6415 1.2096,-1.53503 1.2097,-2.68059 -10e-5,-0.58651 -0.092,-1.1043 -0.275,-1.55337 -0.1741,-0.4582 -0.4536,-0.83853 -0.8385,-1.14097 -0.3758,-0.31157 -0.8661,-0.54526 -1.4709,-0.70107 -0.5957,-0.16495 -1.3151,-0.24743 -2.1582,-0.24744 -0.4857,1e-5 -0.9531,0.009 -1.4022,0.0275 -0.4399,0.009 -0.8431,0.0229 -1.2097,0.0412 l 0,7.21697 m -6.6668,10.72231 -13.1967,0 0,-2.33692 c 0.6232,-0.44905 1.2876,-0.96684 1.9932,-1.55337 0.7149,-0.59568 1.4205,-1.2326 2.117,-1.91077 0.7057,-0.67816 1.3792,-1.38382 2.0208,-2.11698 0.6506,-0.74231 1.2234,-1.48463 1.7183,-2.22695 0.4949,-0.74231 0.8889,-1.47088 1.1822,-2.18571 0.3024,-0.72398 0.4536,-1.40214 0.4536,-2.0345 0,-0.6415 -0.1145,-1.18678 -0.3436,-1.63585 -0.22,-0.4582 -0.5132,-0.82936 -0.8798,-1.11347 -0.3666,-0.29325 -0.7836,-0.50403 -1.251,-0.63235 -0.4673,-0.12828 -0.9485,-0.19243 -1.4433,-0.19245 -0.4216,2e-5 -0.8569,0.0642 -1.306,0.19245 -0.449,0.11916 -0.8889,0.29328 -1.3196,0.52237 -0.4216,0.22913 -0.8294,0.49948 -1.2235,0.81105 -0.3849,0.31161 -0.7286,0.65069 -1.031,1.01725 l -0.6186,-2.33692 c 0.2749,-0.38489 0.6324,-0.73772 1.0722,-1.05849 0.4399,-0.3299 0.9256,-0.614 1.4572,-0.85229 0.5407,-0.24742 1.1043,-0.43529 1.6908,-0.56361 0.5957,-0.13745 1.1822,-0.20618 1.7596,-0.2062 0.8248,2e-5 1.6083,0.13749 2.3507,0.4124 0.7514,0.26579 1.4113,0.65069 1.9795,1.15471 0.5681,0.4949 1.0172,1.09975 1.3471,1.81456 0.3391,0.70567 0.5086,1.50297 0.5087,2.39191 -10e-5,0.76982 -0.1421,1.55338 -0.4262,2.35067 -0.2749,0.78815 -0.6461,1.5717 -1.1135,2.35067 -0.4674,0.76982 -0.9989,1.5213 -1.5946,2.25444 -0.5957,0.73316 -1.2097,1.42965 -1.842,2.08948 -0.6324,0.65985 -1.2555,1.27386 -1.8696,1.84205 -0.614,0.55903 -1.173,1.05391 -1.677,1.48463 l 3.5053,0 c 0.6782,1e-5 1.3197,1e-5 1.9246,0 0.6048,-0.009 1.1593,-0.0183 1.6633,-0.0275 0.5132,-0.0183 0.9714,-0.0412 1.3747,-0.0687 0.4032,-0.0275 0.7423,-0.0641 1.0172,-0.10998 l 0,2.47439 m -33.2805,-20.07006 5.911,17.25199 5.9798,-17.25199 3.0243,0 c 0.1099,3.27171 0.2199,6.27763 0.3299,9.01777 0.027,0.77899 0.06,1.56254 0.096,2.35067 0.037,0.77898 0.073,1.54421 0.11,2.29568 0.037,0.74233 0.073,1.45257 0.1099,2.13073 0.037,0.669 0.069,1.28302 0.096,1.84204 0.037,0.55904 0.073,1.04933 0.1099,1.47089 0.037,0.4124 0.073,0.73315 0.11,0.96226 l -2.5431,0 -0.3849,-16.46843 -5.6636,16.46843 -2.6806,0 -5.6911,-16.42719 -0.4261,16.42719 -2.5432,0 c 0.027,-0.22911 0.06,-0.54986 0.096,-0.96226 0.037,-0.42156 0.069,-0.91185 0.096,-1.47089 0.037,-0.55902 0.073,-1.17304 0.11,-1.84204 0.037,-0.67816 0.073,-1.3884 0.1099,-2.13073 0.037,-0.75147 0.069,-1.5167 0.096,-2.29568 0.037,-0.78813 0.073,-1.57168 0.1099,-2.35067 0.11,-2.74014 0.2246,-5.74606 0.3437,-9.01777 l 3.093,0 m -24.6876,0 5.911,17.25199 5.9798,-17.25199 3.0242,0 c 0.11,3.27171 0.22,6.27763 0.33,9.01777 0.027,0.77899 0.059,1.56254 0.096,2.35067 0.037,0.77898 0.073,1.54421 0.11,2.29568 0.037,0.74233 0.073,1.45257 0.1099,2.13073 0.037,0.669 0.069,1.28302 0.096,1.84204 0.037,0.55904 0.073,1.04933 0.1099,1.47089 0.037,0.4124 0.073,0.73315 0.11,0.96226 l -2.5431,0 -0.3849,-16.46843 -5.6636,16.46843 -2.6806,0 -5.6911,-16.42719 -0.4262,16.42719 -2.5431,0 c 0.028,-0.22911 0.06,-0.54986 0.096,-0.96226 0.037,-0.42156 0.069,-0.91185 0.096,-1.47089 0.037,-0.55902 0.073,-1.17304 0.1099,-1.84204 0.037,-0.67816 0.073,-1.3884 0.11,-2.13073 0.037,-0.75147 0.069,-1.5167 0.096,-2.29568 0.037,-0.78813 0.073,-1.57168 0.11,-2.35067 0.11,-2.74014 0.2245,-5.74606 0.3437,-9.01777 l 3.093,0" />
  </g>
</svg>
