  0
SECTION
  2
HEADER
  9
$ACADVER
  1
AC1014
  9
$HANDSEED
  5
FFFF
  9
$MEASUREMENT
 70
     1
  0
ENDSEC
  0
SECTION
  2
TABLES
  0
TABLE
  2
VPORT
  5
8
330
0
100
AcDbSymbolTable
 70
     4
  0
VPORT
  5
2E
330
8
100
AcDbSymbolTableRecord
100
AcDbViewportTableRecord
  2
*ACTIVE
 70
     0
 10
0.0
 20
0.0
 11
1.0
 21
1.0
 12
210.0
 22
148.5
 13
0.0
 23
0.0
 14
10.0
 24
10.0
 15
10.0
 25
10.0
 16
0.0
 26
0.0
 36
1.0
 17
0.0
 27
0.0
 37
0.0
 40
341.0
 41
1.24
 42
50.0
 43
0.0
 44
0.0
 50
0.0
 51
0.0
 71
     0
 72
   100
 73
     1
 74
     3
 75
     0
 76
     0
 77
     0
 78
     0
  0
ENDTAB
  0
TABLE
  2
LTYPE
  5
5
330
0
100
AcDbSymbolTable
 70
     1
  0
LTYPE
  5
14
330
5
100
AcDbSymbolTableRecord
100
AcDbLinetypeTableRecord
  2
BYBLOCK
 70
     0
  3

 72
    65
 73
     0
 40
0.0
  0
LTYPE
  5
15
330
5
100
AcDbSymbolTableRecord
100
AcDbLinetypeTableRecord
  2
BYLAYER
 70
     0
  3

 72
    65
 73
     0
 40
0.0
  0
LTYPE
  5
16
330
5
100
AcDbSymbolTableRecord
100
AcDbLinetypeTableRecord
  2
CONTINUOUS
 70
     0
  3
Solid line
 72
    65
 73
     0
 40
0.0
  0
ENDTAB
  0
TABLE
  2
LAYER
  5
2
100
AcDbSymbolTable
 70
13
  0
LAYER
  5
50
100
AcDbSymbolTableRecord
100
AcDbLayerTableRecord
  2
0
 70
0
  6
CONTINUOUS
  0
LAYER
  5
51
100
AcDbSymbolTableRecord
100
AcDbLayerTableRecord
  2
1
 70
0
  6
CONTINUOUS
  0
LAYER
  5
52
100
AcDbSymbolTableRecord
100
AcDbLayerTableRecord
  2
2
 70
0
  6
CONTINUOUS
  0
LAYER
  5
53
100
AcDbSymbolTableRecord
100
AcDbLayerTableRecord
  2
3
 70
0
  6
CONTINUOUS
  0
LAYER
  5
54
100
AcDbSymbolTableRecord
100
AcDbLayerTableRecord
  2
4
 70
0
  6
CONTINUOUS
  0
LAYER
  5
55
100
AcDbSymbolTableRecord
100
AcDbLayerTableRecord
  2
5
 70
0
  6
CONTINUOUS
  0
LAYER
  5
56
100
AcDbSymbolTableRecord
100
AcDbLayerTableRecord
  2
6
 70
0
  6
CONTINUOUS
  0
LAYER
  5
57
100
AcDbSymbolTableRecord
100
AcDbLayerTableRecord
  2
7
 70
0
  6
CONTINUOUS
  0
LAYER
  5
58
100
AcDbSymbolTableRecord
100
AcDbLayerTableRecord
  2
8
 70
0
  6
CONTINUOUS
  0
LAYER
  5
59
100
AcDbSymbolTableRecord
100
AcDbLayerTableRecord
  2
9
 70
0
  6
CONTINUOUS
  0
LAYER
  5
5a
100
AcDbSymbolTableRecord
100
AcDbLayerTableRecord
  2
mm
 70
0
  6
CONTINUOUS
  0
LAYER
  5
5b
100
AcDbSymbolTableRecord
100
AcDbLayerTableRecord
  2
.
 70
0
  6
CONTINUOUS
  0
LAYER
  5
5c
100
AcDbSymbolTableRecord
100
AcDbLayerTableRecord
  2
,
 70
0
  6
CONTINUOUS
  0
ENDTAB
  0
TABLE
  2
STYLE
  5
3
330
0
100
AcDbSymbolTable
 70
     1
  0
STYLE
  5
11
330
3
100
AcDbSymbolTableRecord
100
AcDbTextStyleTableRecord
  2
STANDARD
 70
     0
 40
0.0
 41
1.0
 50
0.0
 71
     0
 42
2.5
  3
txt
  4

  0
ENDTAB
  0
TABLE
  2
VIEW
  5
6
330
0
100
AcDbSymbolTable
 70
     0
  0
ENDTAB
  0
TABLE
  2
UCS
  5
7
330
0
100
AcDbSymbolTable
 70
     0
  0
ENDTAB
  0
TABLE
  2
APPID
  5
9
330
0
100
AcDbSymbolTable
 70
     2
  0
APPID
  5
12
330
9
100
AcDbSymbolTableRecord
100
AcDbRegAppTableRecord
  2
ACAD
 70
     0
  0
ENDTAB
  0
TABLE
  2
DIMSTYLE
  5
A
330
0
100
AcDbSymbolTable
 70
     1
  0
DIMSTYLE
105
27
330
A
100
AcDbSymbolTableRecord
100
AcDbDimStyleTableRecord
  2
ISO-25
 70
     0
  3

  4

  5

  6

  7

 40
1.0
 41
2.5
 42
0.625
 43
3.75
 44
1.25
 45
0.0
 46
0.0
 47
0.0
 48
0.0
140
2.5
141
2.5
142
0.0
143
0.03937007874016
144
1.0
145
0.0
146
1.0
147
0.625
 71
     0
 72
     0
 73
     0
 74
     0
 75
     0
 76
     0
 77
     1
 78
     8
170
     0
171
     3
172
     1
173
     0
174
     0
175
     0
176
     0
177
     0
178
     0
270
     2
271
     2
272
     2
273
     2
274
     3
340
11
275
     0
280
     0
281
     0
282
     0
283
     0
284
     8
285
     0
286
     0
287
     3
288
     0
  0
ENDTAB
  0
TABLE
  2
BLOCK_RECORD
  5
1
330
0
100
AcDbSymbolTable
 70
     1
  0
BLOCK_RECORD
  5
1F
330
1
100
AcDbSymbolTableRecord
100
AcDbBlockTableRecord
  2
*MODEL_SPACE
  0
BLOCK_RECORD
  5
1B
330
1
100
AcDbSymbolTableRecord
100
AcDbBlockTableRecord
  2
*PAPER_SPACE
  0
ENDTAB
  0
ENDSEC
  0
SECTION
  2
BLOCKS
  0
BLOCK
  5
20
330
1F
100
AcDbEntity
  8
0
100
AcDbBlockBegin
  2
*MODEL_SPACE
 70
     0
 10
0.0
 20
0.0
 30
0.0
  3
*MODEL_SPACE
  1

  0
ENDBLK
  5
21
330
1F
100
AcDbEntity
  8
0
100
AcDbBlockEnd
  0
BLOCK
  5
1C
330
1B
100
AcDbEntity
 67
     1
  8
0
100
AcDbBlockBegin
  2
*PAPER_SPACE
  1

  0
ENDBLK
  5
1D
330
1B
100
AcDbEntity
 67
     1
  8
0
100
AcDbBlockEnd
  0
ENDSEC
  0
SECTION
  2
ENTITIES
  0
LWPOLYLINE
  5
100
100
AcDbEntity
  8
0
 62
7
100
AcDbPolyline
 90
33
 70
0
 10
1.929254
 20
4.293966
 30
0.0
 10
1.942345
 20
4.440383
 30
0.0
 10
1.981619
 20
4.576465
 30
0.0
 10
2.047075
 20
4.702209
 30
0.0
 10
2.138714
 20
4.817621
 30
0.0
 10
2.251369
 20
4.914084
 30
0.0
 10
2.374359
 20
4.982986
 30
0.0
 10
2.507684
 20
5.024326
 30
0.0
 10
2.651345
 20
5.038107
 30
0.0
 10
2.800173
 20
5.024326
 30
0.0
 10
2.937977
 20
4.982986
 30
0.0
 10
3.064757
 20
4.914084
 30
0.0
 10
3.180512
 20
4.817621
 30
0.0
 10
3.276975
 20
4.702209
 30
0.0
 10
3.345877
 20
4.576465
 30
0.0
 10
3.387218
 20
4.440383
 30
0.0
 10
3.400998
 20
4.293966
 30
0.0
 10
3.387218
 20
4.145483
 30
0.0
 10
3.345877
 20
4.008713
 30
0.0
 10
3.276975
 20
3.883657
 30
0.0
 10
3.180512
 20
3.770314
 30
0.0
 10
3.066824
 20
3.676263
 30
0.0
 10
2.940733
 20
3.609083
 30
0.0
 10
2.802240
 20
3.568776
 30
0.0
 10
2.651345
 20
3.555340
 30
0.0
 10
2.503206
 20
3.568432
 30
0.0
 10
2.367469
 20
3.607703
 30
0.0
 10
2.244134
 20
3.673162
 30
0.0
 10
2.133202
 20
3.764799
 30
0.0
 10
2.043975
 20
3.876421
 30
0.0
 10
1.980241
 20
4.001821
 30
0.0
 10
1.942001
 20
4.141004
 30
0.0
 10
1.929254
 20
4.293966
 30
0.0
  0
LWPOLYLINE
  5
101
100
AcDbEntity
  8
0
 62
7
100
AcDbPolyline
 90
33
 70
0
 10
2.662369
 20
7.656381
 30
0.0
 10
2.298223
 20
7.604015
 30
0.0
 10
1.982997
 20
7.446919
 30
0.0
 10
1.716691
 20
7.185093
 30
0.0
 10
1.499306
 20
6.818534
 30
0.0
 10
1.332907
 20
6.344833
 30
0.0
 10
1.214051
 20
5.761578
 30
0.0
 10
1.142737
 20
5.068770
 30
0.0
 10
1.118966
 20
4.266407
 30
0.0
 10
1.142737
 20
3.466457
 30
0.0
 10
1.214051
 20
2.775371
 30
0.0
 10
1.332907
 20
2.193149
 30
0.0
 10
1.499306
 20
1.719792
 30
0.0
 10
1.716691
 20
1.353233
 30
0.0
 10
1.982997
 20
1.091407
 30
0.0
 10
2.298223
 20
0.934311
 30
0.0
 10
2.662369
 20
0.881944
 30
0.0
 10
3.028583
 20
0.934311
 30
0.0
 10
3.344498
 20
1.091407
 30
0.0
 10
3.610116
 20
1.353233
 30
0.0
 10
3.825435
 20
1.719792
 30
0.0
 10
3.994243
 20
2.193149
 30
0.0
 10
4.114821
 20
2.775371
 30
0.0
 10
4.187168
 20
3.466457
 30
0.0
 10
4.211283
 20
4.266407
 30
0.0
 10
4.187168
 20
5.068770
 30
0.0
 10
4.114821
 20
5.761578
 30
0.0
 10
3.994243
 20
6.344833
 30
0.0
 10
3.825435
 20
6.818534
 30
0.0
 10
3.610116
 20
7.185093
 30
0.0
 10
3.344498
 20
7.446919
 30
0.0
 10
3.028583
 20
7.604015
 30
0.0
 10
2.662369
 20
7.656381
 30
0.0
  0
LWPOLYLINE
  5
102
100
AcDbEntity
  8
0
 62
7
100
AcDbPolyline
 90
33
 70
0
 10
2.662369
 20
8.538326
 30
0.0
 10
3.280764
 20
8.470801
 30
0.0
 10
3.818543
 20
8.268231
 30
0.0
 10
4.275707
 20
7.930611
 30
0.0
 10
4.652256
 20
7.457942
 30
0.0
 10
4.948879
 20
6.853329
 30
0.0
 10
5.160753
 20
6.119868
 30
0.0
 10
5.287877
 20
5.257560
 30
0.0
 10
5.330252
 20
4.266407
 30
0.0
 10
5.287877
 20
3.277664
 30
0.0
 10
5.160753
 20
2.417078
 30
0.0
 10
4.948879
 20
1.684652
 30
0.0
 10
4.652256
 20
1.080383
 30
0.0
 10
4.275707
 20
0.607715
 30
0.0
 10
3.818543
 20
0.270095
 30
0.0
 10
3.280764
 20
0.067524
 30
0.0
 10
2.662369
 20
0.000000
 30
0.0
 10
2.043974
 20
0.067524
 30
0.0
 10
1.506195
 20
0.270095
 30
0.0
 10
1.049031
 20
0.607715
 30
0.0
 10
0.672482
 20
1.080383
 30
0.0
 10
0.378271
 20
1.684652
 30
0.0
 10
0.168121
 20
2.417081
 30
0.0
 10
0.042030
 20
3.277664
 30
0.0
 10
0.000000
 20
4.266407
 30
0.0
 10
0.042030
 20
5.257560
 30
0.0
 10
0.168120
 20
6.119868
 30
0.0
 10
0.378271
 20
6.853329
 30
0.0
 10
0.672482
 20
7.457942
 30
0.0
 10
1.049031
 20
7.930611
 30
0.0
 10
1.506195
 20
8.268231
 30
0.0
 10
2.043974
 20
8.470801
 30
0.0
 10
2.662369
 20
8.538326
 30
0.0
  0
LWPOLYLINE
  5
103
100
AcDbEntity
  8
1
 62
7
100
AcDbPolyline
 90
12
 70
0
 10
0.132292
 20
1.096919
 30
0.0
 10
1.863107
 20
1.096919
 30
0.0
 10
1.863107
 20
7.386286
 30
0.0
 10
0.000000
 20
6.967361
 30
0.0
 10
0.000000
 20
7.981597
 30
0.0
 10
1.852083
 20
8.389496
 30
0.0
 10
2.965537
 20
8.389496
 30
0.0
 10
2.965537
 20
1.096919
 30
0.0
 10
4.674306
 20
1.096919
 30
0.0
 10
4.674306
 20
0.159853
 30
0.0
 10
0.132292
 20
0.159853
 30
0.0
 10
0.132292
 20
1.096919
 30
0.0
  0
LWPOLYLINE
  5
104
100
AcDbEntity
  8
2
 62
7
100
AcDbPolyline
 90
85
 70
0
 10
1.218187
 20
1.096919
 30
0.0
 10
2.163521
 20
1.096919
 30
0.0
 10
3.108856
 20
1.096919
 30
0.0
 10
4.054190
 20
1.096919
 30
0.0
 10
4.999524
 20
1.096919
 30
0.0
 10
4.999524
 20
0.862652
 30
0.0
 10
4.999524
 20
0.628385
 30
0.0
 10
4.999524
 20
0.394121
 30
0.0
 10
4.999524
 20
0.159853
 30
0.0
 10
3.749643
 20
0.159853
 30
0.0
 10
2.499762
 20
0.159853
 30
0.0
 10
1.249881
 20
0.159853
 30
0.0
 10
0.000000
 20
0.159853
 30
0.0
 10
0.000000
 20
0.394121
 30
0.0
 10
0.000000
 20
0.628385
 30
0.0
 10
0.000000
 20
0.862652
 30
0.0
 10
0.000000
 20
1.096919
 30
0.0
 10
0.499195
 20
1.624020
 30
0.0
 10
0.966006
 20
2.119424
 30
0.0
 10
1.400432
 20
2.583132
 30
0.0
 10
1.802474
 20
3.015147
 30
0.0
 10
2.158353
 20
3.400654
 30
0.0
 10
2.454287
 20
3.724837
 30
0.0
 10
2.690276
 20
3.987698
 30
0.0
 10
2.866319
 20
4.189236
 30
0.0
 10
3.119535
 20
4.509285
 30
0.0
 10
3.327963
 20
4.796951
 30
0.0
 10
3.491605
 20
5.052232
 30
0.0
 10
3.610460
 20
5.275131
 30
0.0
 10
3.694865
 20
5.485627
 30
0.0
 10
3.755153
 20
5.698188
 30
0.0
 10
3.791327
 20
5.912818
 30
0.0
 10
3.803385
 20
6.129514
 30
0.0
 10
3.777891
 20
6.455421
 30
0.0
 10
3.701410
 20
6.744121
 30
0.0
 10
3.573942
 20
6.995612
 30
0.0
 10
3.395486
 20
7.209897
 30
0.0
 10
3.175345
 20
7.381119
 30
0.0
 10
2.917307
 20
7.503417
 30
0.0
 10
2.621373
 20
7.576797
 30
0.0
 10
2.287544
 20
7.601258
 30
0.0
 10
2.033641
 20
7.589890
 30
0.0
 10
1.773536
 20
7.555783
 30
0.0
 10
1.507230
 20
7.498938
 30
0.0
 10
1.234722
 20
7.419357
 30
0.0
 10
0.954981
 20
7.316693
 30
0.0
 10
0.666971
 20
7.190605
 30
0.0
 10
0.370694
 20
7.041086
 30
0.0
 10
0.066147
 20
6.868143
 30
0.0
 10
0.066147
 20
7.149262
 30
0.0
 10
0.066147
 20
7.430383
 30
0.0
 10
0.066147
 20
7.711502
 30
0.0
 10
0.066147
 20
7.992621
 30
0.0
 10
0.348645
 20
8.119401
 30
0.0
 10
0.628387
 20
8.229645
 30
0.0
 10
0.905372
 20
8.323351
 30
0.0
 10
1.179601
 20
8.400522
 30
0.0
 10
1.454175
 20
8.460811
 30
0.0
 10
1.726682
 20
8.503875
 30
0.0
 10
1.997123
 20
8.529712
 30
0.0
 10
2.265497
 20
8.538326
 30
0.0
 10
2.839449
 20
8.498019
 30
0.0
 10
3.354146
 20
8.377095
 30
0.0
 10
3.809588
 20
8.175557
 30
0.0
 10
4.205774
 20
7.893403
 30
0.0
 10
4.528923
 20
7.548550
 30
0.0
 10
4.759744
 20
7.153396
 30
0.0
 10
4.898236
 20
6.707945
 30
0.0
 10
4.944401
 20
6.212197
 30
0.0
 10
4.928898
 20
5.947613
 30
0.0
 10
4.882389
 20
5.683030
 30
0.0
 10
4.804875
 20
5.418447
 30
0.0
 10
4.696356
 20
5.153863
 30
0.0
 10
4.555795
 20
4.882391
 30
0.0
 10
4.376650
 20
4.597135
 30
0.0
 10
4.158920
 20
4.298101
 30
0.0
 10
3.902606
 20
3.985285
 30
0.0
 10
3.730695
 20
3.788915
 30
0.0
 10
3.523645
 20
3.558094
 30
0.0
 10
3.281454
 20
3.292822
 30
0.0
 10
3.004123
 20
2.993099
 30
0.0
 10
2.673394
 20
2.636876
 30
0.0
 10
2.265495
 20
2.202107
 30
0.0
 10
1.780426
 20
1.688787
 30
0.0
 10
1.218187
 20
1.096919
 30
0.0
  0
LWPOLYLINE
  5
105
100
AcDbEntity
  8
3
 62
7
100
AcDbPolyline
 90
117
 70
0
 10
3.522266
 20
4.564064
 30
0.0
 10
3.903639
 20
4.435562
 30
0.0
 10
4.237469
 20
4.265030
 30
0.0
 10
4.523756
 20
4.052466
 30
0.0
 10
4.762500
 20
3.797873
 30
0.0
 10
4.950603
 20
3.507796
 30
0.0
 10
5.084961
 20
3.183269
 30
0.0
 10
5.165577
 20
2.824288
 30
0.0
 10
5.192449
 20
2.430859
 30
0.0
 10
5.144562
 20
1.893423
 30
0.0
 10
5.000902
 20
1.416623
 30
0.0
 10
4.761468
 20
1.000455
 30
0.0
 10
4.426260
 20
0.644923
 30
0.0
 10
4.009059
 20
0.362768
 30
0.0
 10
3.518132
 20
0.161231
 30
0.0
 10
2.953481
 20
0.040307
 30
0.0
 10
2.315106
 20
0.000000
 30
0.0
 10
2.029852
 20
0.006545
 30
0.0
 10
1.741842
 20
0.026182
 30
0.0
 10
1.451076
 20
0.058911
 30
0.0
 10
1.157554
 20
0.104730
 30
0.0
 10
0.864031
 20
0.162952
 30
0.0
 10
0.573264
 20
0.232887
 30
0.0
 10
0.285254
 20
0.314537
 30
0.0
 10
0.000000
 20
0.407899
 30
0.0
 10
0.000000
 20
0.684883
 30
0.0
 10
0.000000
 20
0.961870
 30
0.0
 10
0.000000
 20
1.238857
 30
0.0
 10
0.000000
 20
1.515841
 30
0.0
 10
0.280087
 20
1.379070
 30
0.0
 10
0.558106
 20
1.260904
 30
0.0
 10
0.834058
 20
1.161342
 30
0.0
 10
1.107942
 20
1.080383
 30
0.0
 10
1.380450
 20
1.017682
 30
0.0
 10
1.652269
 20
0.972896
 30
0.0
 10
1.923398
 20
0.946023
 30
0.0
 10
2.193838
 20
0.937065
 30
0.0
 10
2.624819
 20
0.962903
 30
0.0
 10
3.002746
 20
1.040418
 30
0.0
 10
3.327619
 20
1.169611
 30
0.0
 10
3.599437
 20
1.350478
 30
0.0
 10
3.814066
 20
1.579922
 30
0.0
 10
3.967372
 20
1.854841
 30
0.0
 10
4.059357
 20
2.175233
 30
0.0
 10
4.090018
 20
2.541103
 30
0.0
 10
4.059357
 20
2.880789
 30
0.0
 10
3.967373
 20
3.183269
 30
0.0
 10
3.814066
 20
3.448541
 30
0.0
 10
3.599437
 20
3.676605
 30
0.0
 10
3.332442
 20
3.862296
 30
0.0
 10
3.022039
 20
3.994932
 30
0.0
 10
2.668228
 20
4.074516
 30
0.0
 10
2.271008
 20
4.101042
 30
0.0
 10
2.058791
 20
4.101042
 30
0.0
 10
1.846573
 20
4.101042
 30
0.0
 10
1.634355
 20
4.101042
 30
0.0
 10
1.422138
 20
4.101042
 30
0.0
 10
1.422138
 20
4.329797
 30
0.0
 10
1.422138
 20
4.558549
 30
0.0
 10
1.422138
 20
4.787305
 30
0.0
 10
1.422138
 20
5.016060
 30
0.0
 10
1.634355
 20
5.016060
 30
0.0
 10
1.846573
 20
5.016060
 30
0.0
 10
2.058791
 20
5.016060
 30
0.0
 10
2.271008
 20
5.016060
 30
0.0
 10
2.633087
 20
5.037074
 30
0.0
 10
2.953137
 20
5.100120
 30
0.0
 10
3.231156
 20
5.205194
 30
0.0
 10
3.467145
 20
5.352299
 30
0.0
 10
3.655248
 20
5.536957
 30
0.0
 10
3.789607
 20
5.754686
 30
0.0
 10
3.870222
 20
6.005491
 30
0.0
 10
3.897094
 20
6.289367
 30
0.0
 10
3.871945
 20
6.587713
 30
0.0
 10
3.796497
 20
6.848850
 30
0.0
 10
3.670751
 20
7.072782
 30
0.0
 10
3.494707
 20
7.259506
 30
0.0
 10
3.274910
 20
7.409022
 30
0.0
 10
3.012393
 20
7.515820
 30
0.0
 10
2.707158
 20
7.579899
 30
0.0
 10
2.359203
 20
7.601258
 30
0.0
 10
2.111845
 20
7.594369
 30
0.0
 10
1.860353
 20
7.573699
 30
0.0
 10
1.604727
 20
7.539248
 30
0.0
 10
1.344967
 20
7.491016
 30
0.0
 10
1.080039
 20
7.429003
 30
0.0
 10
0.808909
 20
7.353213
 30
0.0
 10
0.531579
 20
7.263638
 30
0.0
 10
0.248048
 20
7.160285
 30
0.0
 10
0.248048
 20
7.416602
 30
0.0
 10
0.248048
 20
7.672917
 30
0.0
 10
0.248048
 20
7.929231
 30
0.0
 10
0.248048
 20
8.185548
 30
0.0
 10
0.572231
 20
8.268231
 30
0.0
 10
0.877811
 20
8.339887
 30
0.0
 10
1.164788
 20
8.400522
 30
0.0
 10
1.433161
 20
8.450131
 30
0.0
 10
1.687409
 20
8.488717
 30
0.0
 10
1.926499
 20
8.516276
 30
0.0
 10
2.150430
 20
8.532814
 30
0.0
 10
2.359203
 20
8.538326
 30
0.0
 10
2.929710
 20
8.500429
 30
0.0
 10
3.439584
 20
8.386741
 30
0.0
 10
3.888824
 20
8.197260
 30
0.0
 10
4.277431
 20
7.931988
 30
0.0
 10
4.593346
 20
7.606772
 30
0.0
 10
4.819001
 20
7.231944
 30
0.0
 10
4.954393
 20
6.807508
 30
0.0
 10
4.999524
 20
6.333465
 30
0.0
 10
4.975753
 20
6.008590
 30
0.0
 10
4.904439
 20
5.711969
 30
0.0
 10
4.785583
 20
5.443595
 30
0.0
 10
4.619185
 20
5.203472
 30
0.0
 10
4.410068
 20
4.994010
 30
0.0
 10
4.157543
 20
4.817621
 30
0.0
 10
3.861609
 20
4.674306
 30
0.0
 10
3.522266
 20
4.564064
 30
0.0
  0
LWPOLYLINE
  5
106
100
AcDbEntity
  8
4
 62
7
100
AcDbPolyline
 90
4
 70
0
 10
3.489192
 20
7.375260
 30
0.0
 10
0.892968
 20
3.026173
 30
0.0
 10
3.489192
 20
3.026173
 30
0.0
 10
3.489192
 20
7.375260
 30
0.0
  0
LWPOLYLINE
  5
107
100
AcDbEntity
  8
4
 62
7
100
AcDbPolyline
 90
12
 70
0
 10
3.307292
 20
8.389496
 30
0.0
 10
4.597135
 20
8.389496
 30
0.0
 10
4.597135
 20
3.026173
 30
0.0
 10
5.694053
 20
3.026173
 30
0.0
 10
5.694053
 20
2.122178
 30
0.0
 10
4.597135
 20
2.122178
 30
0.0
 10
4.597135
 20
0.159853
 30
0.0
 10
3.489192
 20
0.159853
 30
0.0
 10
3.489192
 20
2.122178
 30
0.0
 10
0.000000
 20
2.122178
 30
0.0
 10
0.000000
 20
3.175000
 30
0.0
 10
3.307292
 20
8.389496
 30
0.0
  0
LWPOLYLINE
  5
108
100
AcDbEntity
  8
5
 62
7
100
AcDbPolyline
 90
83
 70
0
 10
0.352778
 20
8.389496
 30
0.0
 10
1.394575
 20
8.389496
 30
0.0
 10
2.436372
 20
8.389496
 30
0.0
 10
3.478170
 20
8.389496
 30
0.0
 10
4.519967
 20
8.389496
 30
0.0
 10
4.519967
 20
8.155229
 30
0.0
 10
4.519967
 20
7.920965
 30
0.0
 10
4.519967
 20
7.686698
 30
0.0
 10
4.519967
 20
7.452431
 30
0.0
 10
3.731728
 20
7.452431
 30
0.0
 10
2.943490
 20
7.452431
 30
0.0
 10
2.155252
 20
7.452431
 30
0.0
 10
1.367014
 20
7.452431
 30
0.0
 10
1.367014
 20
6.946691
 30
0.0
 10
1.367014
 20
6.440952
 30
0.0
 10
1.367014
 20
5.935210
 30
0.0
 10
1.367014
 20
5.429470
 30
0.0
 10
1.841060
 20
5.556250
 30
0.0
 10
2.326129
 20
5.600347
 30
0.0
 10
2.932466
 20
5.553148
 30
0.0
 10
3.472657
 20
5.411557
 30
0.0
 10
3.946702
 20
5.175566
 30
0.0
 10
4.354601
 20
4.845183
 30
0.0
 10
4.682574
 20
4.434182
 30
0.0
 10
4.916841
 20
3.956349
 30
0.0
 10
5.057401
 20
3.411680
 30
0.0
 10
5.104254
 20
2.800175
 30
0.0
 10
5.054989
 20
2.184191
 30
0.0
 10
4.907194
 20
1.637109
 30
0.0
 10
4.660870
 20
1.158931
 30
0.0
 10
4.316016
 20
0.749653
 30
0.0
 10
3.888479
 20
0.421680
 30
0.0
 10
3.388596
 20
0.187412
 30
0.0
 10
2.816365
 20
0.046855
 30
0.0
 10
2.171787
 20
0.000000
 30
0.0
 10
1.850705
 20
0.005512
 30
0.0
 10
1.543402
 20
0.022050
 30
0.0
 10
1.249880
 20
0.049609
 30
0.0
 10
0.970139
 20
0.088194
 30
0.0
 10
0.706934
 20
0.137803
 30
0.0
 10
0.457509
 20
0.198439
 30
0.0
 10
0.221864
 20
0.270095
 30
0.0
 10
0.000000
 20
0.352778
 30
0.0
 10
0.000000
 20
0.635277
 30
0.0
 10
0.000000
 20
0.917773
 30
0.0
 10
0.000000
 20
1.200271
 30
0.0
 10
0.000000
 20
1.482770
 30
0.0
 10
0.253904
 20
1.353577
 30
0.0
 10
0.508497
 20
1.241611
 30
0.0
 10
0.763778
 20
1.146872
 30
0.0
 10
1.019748
 20
1.069357
 30
0.0
 10
1.277441
 20
1.011479
 30
0.0
 10
1.537891
 20
0.970139
 30
0.0
 10
1.801096
 20
0.945334
 30
0.0
 10
2.067058
 20
0.937065
 30
0.0
 10
2.500795
 20
0.967382
 30
0.0
 10
2.881478
 20
1.058333
 30
0.0
 10
3.209107
 20
1.209918
 30
0.0
 10
3.483681
 20
1.422135
 30
0.0
 10
3.703133
 20
1.690164
 30
0.0
 10
3.859884
 20
2.009180
 30
0.0
 10
3.953935
 20
2.379184
 30
0.0
 10
3.985285
 20
2.800175
 30
0.0
 10
3.952902
 20
3.216687
 30
0.0
 10
3.855750
 20
3.584279
 30
0.0
 10
3.693831
 20
3.902950
 30
0.0
 10
3.467145
 20
4.172701
 30
0.0
 10
3.185336
 20
4.387331
 30
0.0
 10
2.852539
 20
4.540637
 30
0.0
 10
2.468755
 20
4.632621
 30
0.0
 10
2.033984
 20
4.663282
 30
0.0
 10
1.812120
 20
4.656737
 30
0.0
 10
1.593012
 20
4.637100
 30
0.0
 10
1.376660
 20
4.604371
 30
0.0
 10
1.163063
 20
4.558549
 30
0.0
 10
0.953258
 20
4.502396
 30
0.0
 10
0.748275
 20
4.433149
 30
0.0
 10
0.548115
 20
4.350811
 30
0.0
 10
0.352778
 20
4.255383
 30
0.0
 10
0.352778
 20
5.288912
 30
0.0
 10
0.352778
 20
6.322438
 30
0.0
 10
0.352778
 20
7.355967
 30
0.0
 10
0.352778
 20
8.389496
 30
0.0
  0
LWPOLYLINE
  5
109
100
AcDbEntity
  8
6
 62
7
100
AcDbPolyline
 90
69
 70
0
 10
4.729426
 20
8.207595
 30
0.0
 10
4.729426
 20
7.951281
 30
0.0
 10
4.729426
 20
7.694967
 30
0.0
 10
4.729426
 20
7.438650
 30
0.0
 10
4.729426
 20
7.182335
 30
0.0
 10
4.553037
 20
7.278110
 30
0.0
 10
4.371136
 20
7.361482
 30
0.0
 10
4.183723
 20
7.432449
 30
0.0
 10
3.990797
 20
7.491016
 30
0.0
 10
3.793049
 20
7.539248
 30
0.0
 10
3.591166
 20
7.573699
 30
0.0
 10
3.385150
 20
7.594369
 30
0.0
 10
3.175000
 20
7.601258
 30
0.0
 10
2.677873
 20
7.551304
 30
0.0
 10
2.244824
 20
7.401441
 30
0.0
 10
1.875853
 20
7.151672
 30
0.0
 10
1.570962
 20
6.801996
 30
0.0
 10
1.332217
 20
6.357922
 30
0.0
 10
1.161685
 20
5.819456
 30
0.0
 10
1.059366
 20
5.186590
 30
0.0
 10
1.025260
 20
4.459331
 30
0.0
 10
1.170298
 20
4.718747
 30
0.0
 10
1.340831
 20
4.945781
 30
0.0
 10
1.536857
 20
5.140427
 30
0.0
 10
1.758377
 20
5.302690
 30
0.0
 10
2.001256
 20
5.432916
 30
0.0
 10
2.261360
 20
5.525934
 30
0.0
 10
2.538690
 20
5.581743
 30
0.0
 10
2.833246
 20
5.600347
 30
0.0
 10
3.394796
 20
5.554528
 30
0.0
 10
3.888823
 20
5.417069
 30
0.0
 10
4.315326
 20
5.187970
 30
0.0
 10
4.674306
 20
4.867230
 30
0.0
 10
4.961282
 20
4.465187
 30
0.0
 10
5.166265
 20
3.986665
 30
0.0
 10
5.289255
 20
3.431661
 30
0.0
 10
5.330252
 20
2.800175
 30
0.0
 10
5.288222
 20
2.170755
 30
0.0
 10
5.162131
 20
1.616439
 30
0.0
 10
4.951979
 20
1.137226
 30
0.0
 10
4.657767
 20
0.733117
 30
0.0
 10
4.287419
 20
0.412380
 30
0.0
 10
3.848859
 20
0.183281
 30
0.0
 10
3.342087
 20
0.045819
 30
0.0
 10
2.767101
 20
0.000000
 30
0.0
 10
2.098408
 20
0.064079
 30
0.0
 10
1.525488
 20
0.256314
 30
0.0
 10
1.048342
 20
0.576710
 30
0.0
 10
0.666970
 20
1.025260
 30
0.0
 10
0.375171
 20
1.614370
 30
0.0
 10
0.166743
 20
2.350934
 30
0.0
 10
0.041686
 20
3.234947
 30
0.0
 10
0.000000
 20
4.266407
 30
0.0
 10
0.049954
 20
5.246192
 30
0.0
 10
0.199815
 20
6.101952
 30
0.0
 10
0.449585
 20
6.833692
 30
0.0
 10
0.799262
 20
7.441407
 30
0.0
 10
1.246435
 20
7.921309
 30
0.0
 10
1.783181
 20
8.264096
 30
0.0
 10
2.409500
 20
8.469768
 30
0.0
 10
3.125391
 20
8.538326
 30
0.0
 10
3.329340
 20
8.532814
 30
0.0
 10
3.533290
 20
8.516276
 30
0.0
 10
3.737239
 20
8.488717
 30
0.0
 10
3.941188
 20
8.450131
 30
0.0
 10
4.143415
 20
8.403965
 30
0.0
 10
4.342197
 20
8.348156
 30
0.0
 10
4.537534
 20
8.282700
 30
0.0
 10
4.729426
 20
8.207595
 30
0.0
  0
LWPOLYLINE
  5
10a
100
AcDbEntity
  8
6
 62
7
100
AcDbPolyline
 90
33
 70
0
 10
2.745051
 20
4.729426
 30
0.0
 10
2.408466
 20
4.697386
 30
0.0
 10
2.109776
 20
4.601269
 30
0.0
 10
1.848983
 20
4.441074
 30
0.0
 10
1.626085
 20
4.216798
 30
0.0
 10
1.447629
 20
3.936024
 30
0.0
 10
1.320159
 20
3.606326
 30
0.0
 10
1.243678
 20
3.227711
 30
0.0
 10
1.218184
 20
2.800175
 30
0.0
 10
1.243678
 20
2.372637
 30
0.0
 10
1.320159
 20
1.994021
 30
0.0
 10
1.447629
 20
1.664324
 30
0.0
 10
1.626085
 20
1.383549
 30
0.0
 10
1.848983
 20
1.159276
 30
0.0
 10
2.109776
 20
0.999078
 30
0.0
 10
2.408466
 20
0.902962
 30
0.0
 10
2.745051
 20
0.870921
 30
0.0
 10
3.091628
 20
0.901237
 30
0.0
 10
3.392730
 20
0.992189
 30
0.0
 10
3.648355
 20
1.143773
 30
0.0
 10
3.858506
 20
1.355990
 30
0.0
 10
4.022493
 20
1.630220
 30
0.0
 10
4.139627
 20
1.962328
 30
0.0
 10
4.209907
 20
2.352311
 30
0.0
 10
4.233333
 20
2.800175
 30
0.0
 10
4.209907
 20
3.250102
 30
0.0
 10
4.139627
 20
3.640777
 30
0.0
 10
4.022493
 20
3.972196
 30
0.0
 10
3.858506
 20
4.244357
 30
0.0
 10
3.648355
 20
4.456574
 30
0.0
 10
3.392729
 20
4.608158
 30
0.0
 10
3.091628
 20
4.699110
 30
0.0
 10
2.745051
 20
4.729426
 30
0.0
  0
LWPOLYLINE
  5
10b
100
AcDbEntity
  8
7
 62
7
100
AcDbPolyline
 90
8
 70
0
 10
0.000000
 20
8.389496
 30
0.0
 10
5.181422
 20
8.389496
 30
0.0
 10
5.181422
 20
7.915453
 30
0.0
 10
2.237932
 20
0.159853
 30
0.0
 10
1.074869
 20
0.159853
 30
0.0
 10
3.941188
 20
7.452431
 30
0.0
 10
0.000000
 20
7.452431
 30
0.0
 10
0.000000
 20
8.389496
 30
0.0
  0
LWPOLYLINE
  5
10c
100
AcDbEntity
  8
8
 62
7
100
AcDbPolyline
 90
33
 70
0
 10
2.673392
 20
4.067968
 30
0.0
 10
2.322337
 20
4.041786
 30
0.0
 10
2.013312
 20
3.963238
 30
0.0
 10
1.746317
 20
3.832324
 30
0.0
 10
1.521353
 20
3.649046
 30
0.0
 10
1.345309
 20
3.420635
 30
0.0
 10
1.219563
 20
3.148818
 30
0.0
 10
1.144115
 20
2.833590
 30
0.0
 10
1.118966
 20
2.474956
 30
0.0
 10
1.144460
 20
2.115634
 30
0.0
 10
1.220941
 20
1.798340
 30
0.0
 10
1.348409
 20
1.523077
 30
0.0
 10
1.526865
 20
1.289843
 30
0.0
 10
1.753552
 20
1.106565
 30
0.0
 10
2.020203
 20
0.975651
 30
0.0
 10
2.326816
 20
0.897103
 30
0.0
 10
2.673392
 20
0.870921
 30
0.0
 10
3.026515
 20
0.896758
 30
0.0
 10
3.336229
 20
0.974273
 30
0.0
 10
3.602534
 20
1.103463
 30
0.0
 10
3.825432
 20
1.284331
 30
0.0
 10
4.003889
 20
1.515841
 30
0.0
 10
4.131358
 20
1.791451
 30
0.0
 10
4.207839
 20
2.111155
 30
0.0
 10
4.233333
 20
2.474956
 30
0.0
 10
4.207495
 20
2.831524
 30
0.0
 10
4.129980
 20
3.146061
 30
0.0
 10
4.000788
 20
3.418569
 30
0.0
 10
3.819920
 20
3.649046
 30
0.0
 10
3.595300
 20
3.832324
 30
0.0
 10
3.329339
 20
3.963238
 30
0.0
 10
3.022036
 20
4.041786
 30
0.0
 10
2.673392
 20
4.067968
 30
0.0
  0
LWPOLYLINE
  5
10d
100
AcDbEntity
  8
8
 62
7
100
AcDbPolyline
 90
65
 70
0
 10
1.703253
 20
4.530990
 30
0.0
 10
1.367012
 20
4.641576
 30
0.0
 10
1.069356
 20
4.791439
 30
0.0
 10
0.810285
 20
4.980576
 30
0.0
 10
0.589799
 20
5.208984
 30
0.0
 10
0.416166
 20
5.469777
 30
0.0
 10
0.292143
 20
5.756066
 30
0.0
 10
0.217729
 20
6.067846
 30
0.0
 10
0.192924
 20
6.405121
 30
0.0
 10
0.234610
 20
6.870209
 30
0.0
 10
0.359667
 20
7.284311
 30
0.0
 10
0.568095
 20
7.647424
 30
0.0
 10
0.859894
 20
7.959550
 30
0.0
 10
1.223352
 20
8.212765
 30
0.0
 10
1.646754
 20
8.393630
 30
0.0
 10
2.130101
 20
8.502153
 30
0.0
 10
2.673392
 20
8.538326
 30
0.0
 10
3.219095
 20
8.502153
 30
0.0
 10
3.704165
 20
8.393630
 30
0.0
 10
4.128600
 20
8.212765
 30
0.0
 10
4.492402
 20
7.959550
 30
0.0
 10
4.784203
 20
7.647424
 30
0.0
 10
4.992632
 20
7.284311
 30
0.0
 10
5.117689
 20
6.870209
 30
0.0
 10
5.159375
 20
6.405121
 30
0.0
 10
5.134226
 20
6.067846
 30
0.0
 10
5.058777
 20
5.756066
 30
0.0
 10
4.933031
 20
5.469777
 30
0.0
 10
4.756985
 20
5.208984
 30
0.0
 10
4.538911
 20
4.980576
 30
0.0
 10
4.281562
 20
4.791439
 30
0.0
 10
3.984940
 20
4.641576
 30
0.0
 10
3.649043
 20
4.530990
 30
0.0
 10
4.037995
 20
4.416958
 30
0.0
 10
4.378026
 20
4.256761
 30
0.0
 10
4.669137
 20
4.050400
 30
0.0
 10
4.911327
 20
3.797873
 30
0.0
 10
5.104252
 20
3.501940
 30
0.0
 10
5.242056
 20
3.165354
 30
0.0
 10
5.324739
 20
2.788116
 30
0.0
 10
5.352299
 20
2.370226
 30
0.0
 10
5.307857
 20
1.843817
 30
0.0
 10
5.174533
 20
1.378037
 30
0.0
 10
4.952324
 20
0.972896
 30
0.0
 10
4.641232
 20
0.628385
 30
0.0
 10
4.251592
 20
0.353466
 30
0.0
 10
3.793739
 20
0.157096
 30
0.0
 10
3.267672
 20
0.039274
 30
0.0
 10
2.673392
 20
0.000000
 30
0.0
 10
2.079114
 20
0.038930
 30
0.0
 10
1.553048
 20
0.155719
 30
0.0
 10
1.095196
 20
0.350365
 30
0.0
 10
0.705556
 20
0.622873
 30
0.0
 10
0.396875
 20
0.967037
 30
0.0
 10
0.176389
 20
1.371148
 30
0.0
 10
0.044097
 20
1.835204
 30
0.0
 10
0.000000
 20
2.359203
 30
0.0
 10
0.027216
 20
2.779505
 30
0.0
 10
0.108864
 20
3.158465
 30
0.0
 10
0.244945
 20
3.496084
 30
0.0
 10
0.435458
 20
3.792361
 30
0.0
 10
0.680059
 20
4.047298
 30
0.0
 10
0.972893
 20
4.255383
 30
0.0
 10
1.313957
 20
4.416614
 30
0.0
 10
1.703253
 20
4.530990
 30
0.0
  0
LWPOLYLINE
  5
10e
100
AcDbEntity
  8
8
 62
7
100
AcDbPolyline
 90
33
 70
0
 10
1.300867
 20
6.300391
 30
0.0
 10
1.322915
 20
5.989297
 30
0.0
 10
1.389061
 20
5.717481
 30
0.0
 10
1.499304
 20
5.484935
 30
0.0
 10
1.653644
 20
5.291667
 30
0.0
 10
1.849670
 20
5.139738
 30
0.0
 10
2.084970
 20
5.031218
 30
0.0
 10
2.359544
 20
4.966104
 30
0.0
 10
2.673392
 20
4.944401
 30
0.0
 10
2.989652
 20
4.966104
 30
0.0
 10
3.265948
 20
5.031218
 30
0.0
 10
3.502282
 20
5.139738
 30
0.0
 10
3.698652
 20
5.291667
 30
0.0
 10
3.852992
 20
5.484935
 30
0.0
 10
3.963235
 20
5.717481
 30
0.0
 10
4.029381
 20
5.989297
 30
0.0
 10
4.051430
 20
6.300391
 30
0.0
 10
4.029381
 20
6.616649
 30
0.0
 10
3.963235
 20
6.892948
 30
0.0
 10
3.852992
 20
7.129280
 30
0.0
 10
3.698652
 20
7.325651
 30
0.0
 10
3.504350
 20
7.479992
 30
0.0
 10
3.268705
 20
7.590234
 30
0.0
 10
2.991720
 20
7.656381
 30
0.0
 10
2.673392
 20
7.678428
 30
0.0
 10
2.359544
 20
7.656034
 30
0.0
 10
2.084970
 20
7.588857
 30
0.0
 10
1.849670
 20
7.476891
 30
0.0
 10
1.653644
 20
7.320139
 30
0.0
 10
1.499304
 20
7.124113
 30
0.0
 10
1.389061
 20
6.888813
 30
0.0
 10
1.322915
 20
6.614239
 30
0.0
 10
1.300867
 20
6.300391
 30
0.0
  0
LWPOLYLINE
  5
10f
100
AcDbEntity
  8
9
 62
7
100
AcDbPolyline
 90
33
 70
0
 10
2.585201
 20
3.808897
 30
0.0
 10
2.921442
 20
3.840937
 30
0.0
 10
3.219098
 20
3.937054
 30
0.0
 10
3.478169
 20
4.097251
 30
0.0
 10
3.698655
 20
4.321528
 30
0.0
 10
3.877110
 20
4.602302
 30
0.0
 10
4.004579
 20
4.932000
 30
0.0
 10
4.081060
 20
5.310615
 30
0.0
 10
4.106553
 20
5.738151
 30
0.0
 10
4.081060
 20
6.165686
 30
0.0
 10
4.004579
 20
6.544304
 30
0.0
 10
3.877110
 20
6.873999
 30
0.0
 10
3.698655
 20
7.154774
 30
0.0
 10
3.478169
 20
7.379050
 30
0.0
 10
3.219098
 20
7.539248
 30
0.0
 10
2.921442
 20
7.635364
 30
0.0
 10
2.585201
 20
7.667405
 30
0.0
 10
2.238624
 20
7.636744
 30
0.0
 10
1.937522
 20
7.544760
 30
0.0
 10
1.681895
 20
7.391454
 30
0.0
 10
1.471744
 20
7.176824
 30
0.0
 10
1.307758
 20
6.905004
 30
0.0
 10
1.190625
 20
6.574621
 30
0.0
 10
1.120345
 20
6.185670
 30
0.0
 10
1.096919
 20
5.738151
 30
0.0
 10
1.120001
 20
5.288221
 30
0.0
 10
1.189247
 20
4.897546
 30
0.0
 10
1.304657
 20
4.566130
 30
0.0
 10
1.466232
 20
4.293966
 30
0.0
 10
1.676728
 20
4.081749
 30
0.0
 10
1.933388
 20
3.930165
 30
0.0
 10
2.236212
 20
3.839213
 30
0.0
 10
2.585201
 20
3.808897
 30
0.0
  0
LWPOLYLINE
  5
110
100
AcDbEntity
  8
9
 62
7
100
AcDbPolyline
 90
69
 70
0
 10
0.600826
 20
0.330731
 30
0.0
 10
0.600826
 20
0.587045
 30
0.0
 10
0.600826
 20
0.843359
 30
0.0
 10
0.600826
 20
1.099676
 30
0.0
 10
0.600826
 20
1.355990
 30
0.0
 10
0.777215
 20
1.259871
 30
0.0
 10
0.959115
 20
1.175467
 30
0.0
 10
1.146528
 20
1.102775
 30
0.0
 10
1.339452
 20
1.041798
 30
0.0
 10
1.537201
 20
0.995976
 30
0.0
 10
1.739084
 20
0.963247
 30
0.0
 10
1.945101
 20
0.943610
 30
0.0
 10
2.155252
 20
0.937065
 30
0.0
 10
2.652035
 20
0.986674
 30
0.0
 10
3.084050
 20
1.135501
 30
0.0
 10
3.451297
 20
1.383549
 30
0.0
 10
3.753776
 20
1.730815
 30
0.0
 10
3.992522
 20
2.177299
 30
0.0
 10
4.163054
 20
2.717492
 30
0.0
 10
4.265374
 20
3.351389
 30
0.0
 10
4.299481
 20
4.078994
 30
0.0
 10
4.156853
 20
3.819234
 30
0.0
 10
3.988043
 20
3.591168
 30
0.0
 10
3.793051
 20
3.394797
 30
0.0
 10
3.571875
 20
3.230121
 30
0.0
 10
3.328995
 20
3.102308
 30
0.0
 10
3.068891
 20
3.011015
 30
0.0
 10
2.791561
 20
2.956238
 30
0.0
 10
2.497006
 20
2.937978
 30
0.0
 10
1.935111
 20
2.983797
 30
0.0
 10
1.440051
 20
3.121256
 30
0.0
 10
1.011825
 20
3.350356
 30
0.0
 10
0.650435
 20
3.671093
 30
0.0
 10
0.365870
 20
4.075893
 30
0.0
 10
0.162609
 20
4.557172
 30
0.0
 10
0.040652
 20
5.114933
 30
0.0
 10
0.000000
 20
5.749174
 30
0.0
 10
0.041686
 20
6.375837
 30
0.0
 10
0.166743
 20
6.927398
 30
0.0
 10
0.375171
 20
7.403854
 30
0.0
 10
0.666970
 20
7.805208
 30
0.0
 10
1.037662
 20
8.125948
 30
0.0
 10
1.477256
 20
8.355045
 30
0.0
 10
1.985752
 20
8.492507
 30
0.0
 10
2.563151
 20
8.538326
 30
0.0
 10
3.231844
 20
8.473903
 30
0.0
 10
3.804764
 20
8.280631
 30
0.0
 10
4.281910
 20
7.958514
 30
0.0
 10
4.663282
 20
7.507551
 30
0.0
 10
4.955081
 20
6.918441
 30
0.0
 10
5.163509
 20
6.181880
 30
0.0
 10
5.288566
 20
5.297867
 30
0.0
 10
5.330252
 20
4.266407
 30
0.0
 10
5.279954
 20
3.288690
 30
0.0
 10
5.129059
 20
2.433616
 30
0.0
 10
4.877567
 20
1.701190
 30
0.0
 10
4.525478
 20
1.091407
 30
0.0
 10
4.080372
 20
0.613915
 30
0.0
 10
3.544315
 20
0.272852
 30
0.0
 10
2.917308
 20
0.068213
 30
0.0
 10
2.199349
 20
0.000000
 30
0.0
 10
1.997811
 20
0.005512
 30
0.0
 10
1.795585
 20
0.022050
 30
0.0
 10
1.592669
 20
0.049609
 30
0.0
 10
1.389064
 20
0.088194
 30
0.0
 10
1.186836
 20
0.134358
 30
0.0
 10
0.988054
 20
0.190170
 30
0.0
 10
0.792717
 20
0.255628
 30
0.0
 10
0.600826
 20
0.330731
 30
0.0
  0
LWPOLYLINE
  5
111
100
AcDbEntity
  8
mm
 62
7
100
AcDbPolyline
 90
109
 70
0
 10
9.916363
 20
5.705077
 30
0.0
 10
10.016271
 20
5.890424
 30
0.0
 10
10.128580
 20
6.049586
 30
0.0
 10
10.253292
 20
6.182569
 30
0.0
 10
10.390406
 20
6.289367
 30
0.0
 10
10.543713
 20
6.373772
 30
0.0
 10
10.711490
 20
6.434060
 30
0.0
 10
10.893735
 20
6.470235
 30
0.0
 10
11.090450
 20
6.482292
 30
0.0
 10
11.434960
 20
6.446119
 30
0.0
 10
11.724348
 20
6.337599
 30
0.0
 10
11.958615
 20
6.156731
 30
0.0
 10
12.137760
 20
5.903516
 30
0.0
 10
12.272808
 20
5.553151
 30
0.0
 10
12.369270
 20
5.075315
 30
0.0
 10
12.427148
 20
4.470013
 30
0.0
 10
12.446440
 20
3.737240
 30
0.0
 10
12.446440
 20
2.842892
 30
0.0
 10
12.446440
 20
1.948547
 30
0.0
 10
12.446440
 20
1.054202
 30
0.0
 10
12.446440
 20
0.159853
 30
0.0
 10
12.214930
 20
0.159853
 30
0.0
 10
11.983419
 20
0.159853
 30
0.0
 10
11.751909
 20
0.159853
 30
0.0
 10
11.520399
 20
0.159853
 30
0.0
 10
11.520399
 20
1.043175
 30
0.0
 10
11.520399
 20
1.926497
 30
0.0
 10
11.520399
 20
2.809821
 30
0.0
 10
11.520399
 20
3.693143
 30
0.0
 10
11.511097
 20
4.284320
 30
0.0
 10
11.483192
 20
4.751476
 30
0.0
 10
11.436683
 20
5.094608
 30
0.0
 10
11.371572
 20
5.313717
 30
0.0
 10
11.284754
 20
5.453586
 30
0.0
 10
11.167621
 20
5.553496
 30
0.0
 10
11.020171
 20
5.613440
 30
0.0
 10
10.842405
 20
5.633421
 30
0.0
 10
10.639144
 20
5.612062
 30
0.0
 10
10.470334
 20
5.547981
 30
0.0
 10
10.335975
 20
5.441185
 30
0.0
 10
10.236067
 20
5.291667
 30
0.0
 10
10.166132
 20
5.065669
 30
0.0
 10
10.116177
 20
4.723915
 30
0.0
 10
10.086205
 20
4.266407
 30
0.0
 10
10.076214
 20
3.693143
 30
0.0
 10
10.076214
 20
2.809821
 30
0.0
 10
10.076214
 20
1.926497
 30
0.0
 10
10.076214
 20
1.043175
 30
0.0
 10
10.076214
 20
0.159853
 30
0.0
 10
9.844703
 20
0.159853
 30
0.0
 10
9.613193
 20
0.159853
 30
0.0
 10
9.381682
 20
0.159853
 30
0.0
 10
9.150172
 20
0.159853
 30
0.0
 10
9.150172
 20
1.043175
 30
0.0
 10
9.150172
 20
1.926497
 30
0.0
 10
9.150172
 20
2.809821
 30
0.0
 10
9.150172
 20
3.693143
 30
0.0
 10
9.140182
 20
4.291211
 30
0.0
 10
9.110210
 20
4.762500
 30
0.0
 10
9.060256
 20
5.107011
 30
0.0
 10
8.990322
 20
5.324740
 30
0.0
 10
8.897303
 20
5.459789
 30
0.0
 10
8.772590
 20
5.556250
 30
0.0
 10
8.616183
 20
5.614128
 30
0.0
 10
8.428081
 20
5.633421
 30
0.0
 10
8.242046
 20
5.612062
 30
0.0
 10
8.086328
 20
5.547981
 30
0.0
 10
7.960926
 20
5.441185
 30
0.0
 10
7.865841
 20
5.291667
 30
0.0
 10
7.798318
 20
5.065669
 30
0.0
 10
7.750087
 20
4.723915
 30
0.0
 10
7.721148
 20
4.266407
 30
0.0
 10
7.711502
 20
3.693143
 30
0.0
 10
7.711502
 20
2.809821
 30
0.0
 10
7.711502
 20
1.926497
 30
0.0
 10
7.711502
 20
1.043175
 30
0.0
 10
7.711502
 20
0.159853
 30
0.0
 10
7.481370
 20
0.159853
 30
0.0
 10
7.251237
 20
0.159853
 30
0.0
 10
7.021105
 20
0.159853
 30
0.0
 10
6.790972
 20
0.159853
 30
0.0
 10
6.790972
 20
1.703256
 30
0.0
 10
6.790972
 20
3.246659
 30
0.0
 10
6.790972
 20
4.790062
 30
0.0
 10
6.790972
 20
6.333465
 30
0.0
 10
7.021105
 20
6.333465
 30
0.0
 10
7.251237
 20
6.333465
 30
0.0
 10
7.481370
 20
6.333465
 30
0.0
 10
7.711502
 20
6.333465
 30
0.0
 10
7.711502
 20
6.201173
 30
0.0
 10
7.711502
 20
6.068881
 30
0.0
 10
7.711502
 20
5.936590
 30
0.0
 10
7.711502
 20
5.804298
 30
0.0
 10
7.807965
 20
5.959673
 30
0.0
 10
7.915451
 20
6.095063
 30
0.0
 10
8.033962
 20
6.210475
 30
0.0
 10
8.163498
 20
6.305903
 30
0.0
 10
8.305780
 20
6.383074
 30
0.0
 10
8.457019
 20
6.438194
 30
0.0
 10
8.617216
 20
6.471268
 30
0.0
 10
8.786371
 20
6.482292
 30
0.0
 10
8.986876
 20
6.470235
 30
0.0
 10
9.169466
 20
6.434060
 30
0.0
 10
9.334142
 20
6.373772
 30
0.0
 10
9.480903
 20
6.289367
 30
0.0
 10
9.613538
 20
6.180503
 30
0.0
 10
9.730327
 20
6.046831
 30
0.0
 10
9.831269
 20
5.888355
 30
0.0
 10
9.916363
 20
5.705077
 30
0.0
  0
LWPOLYLINE
  5
112
100
AcDbEntity
  8
mm
 62
7
100
AcDbPolyline
 90
109
 70
0
 10
3.125391
 20
5.705077
 30
0.0
 10
3.225298
 20
5.890424
 30
0.0
 10
3.337608
 20
6.049586
 30
0.0
 10
3.462320
 20
6.182569
 30
0.0
 10
3.599434
 20
6.289367
 30
0.0
 10
3.752741
 20
6.373772
 30
0.0
 10
3.920518
 20
6.434060
 30
0.0
 10
4.102763
 20
6.470235
 30
0.0
 10
4.299478
 20
6.482292
 30
0.0
 10
4.643988
 20
6.446119
 30
0.0
 10
4.933376
 20
6.337599
 30
0.0
 10
5.167642
 20
6.156731
 30
0.0
 10
5.346787
 20
5.903516
 30
0.0
 10
5.481835
 20
5.553151
 30
0.0
 10
5.578298
 20
5.075315
 30
0.0
 10
5.636176
 20
4.470013
 30
0.0
 10
5.655468
 20
3.737240
 30
0.0
 10
5.655468
 20
2.842892
 30
0.0
 10
5.655468
 20
1.948547
 30
0.0
 10
5.655468
 20
1.054202
 30
0.0
 10
5.655468
 20
0.159853
 30
0.0
 10
5.423957
 20
0.159853
 30
0.0
 10
5.192447
 20
0.159853
 30
0.0
 10
4.960937
 20
0.159853
 30
0.0
 10
4.729426
 20
0.159853
 30
0.0
 10
4.729426
 20
1.043175
 30
0.0
 10
4.729426
 20
1.926497
 30
0.0
 10
4.729426
 20
2.809821
 30
0.0
 10
4.729426
 20
3.693143
 30
0.0
 10
4.720125
 20
4.284320
 30
0.0
 10
4.692220
 20
4.751476
 30
0.0
 10
4.645711
 20
5.094608
 30
0.0
 10
4.580599
 20
5.313717
 30
0.0
 10
4.493782
 20
5.453586
 30
0.0
 10
4.376649
 20
5.553496
 30
0.0
 10
4.229199
 20
5.613440
 30
0.0
 10
4.051433
 20
5.633421
 30
0.0
 10
3.848172
 20
5.612062
 30
0.0
 10
3.679362
 20
5.547981
 30
0.0
 10
3.545003
 20
5.441185
 30
0.0
 10
3.445095
 20
5.291667
 30
0.0
 10
3.375159
 20
5.065669
 30
0.0
 10
3.325205
 20
4.723915
 30
0.0
 10
3.295233
 20
4.266407
 30
0.0
 10
3.285242
 20
3.693143
 30
0.0
 10
3.285242
 20
2.809821
 30
0.0
 10
3.285242
 20
1.926497
 30
0.0
 10
3.285242
 20
1.043175
 30
0.0
 10
3.285242
 20
0.159853
 30
0.0
 10
3.053731
 20
0.159853
 30
0.0
 10
2.822221
 20
0.159853
 30
0.0
 10
2.590710
 20
0.159853
 30
0.0
 10
2.359200
 20
0.159853
 30
0.0
 10
2.359200
 20
1.043175
 30
0.0
 10
2.359200
 20
1.926497
 30
0.0
 10
2.359200
 20
2.809821
 30
0.0
 10
2.359200
 20
3.693143
 30
0.0
 10
2.349209
 20
4.291211
 30
0.0
 10
2.319237
 20
4.762500
 30
0.0
 10
2.269284
 20
5.107011
 30
0.0
 10
2.199349
 20
5.324740
 30
0.0
 10
2.106331
 20
5.459789
 30
0.0
 10
1.981618
 20
5.556250
 30
0.0
 10
1.825211
 20
5.614128
 30
0.0
 10
1.637109
 20
5.633421
 30
0.0
 10
1.451074
 20
5.612062
 30
0.0
 10
1.295356
 20
5.547981
 30
0.0
 10
1.169954
 20
5.441185
 30
0.0
 10
1.074869
 20
5.291667
 30
0.0
 10
1.007345
 20
5.065669
 30
0.0
 10
0.959115
 20
4.723915
 30
0.0
 10
0.930176
 20
4.266407
 30
0.0
 10
0.920530
 20
3.693143
 30
0.0
 10
0.920530
 20
2.809821
 30
0.0
 10
0.920530
 20
1.926497
 30
0.0
 10
0.920530
 20
1.043175
 30
0.0
 10
0.920530
 20
0.159853
 30
0.0
 10
0.690397
 20
0.159853
 30
0.0
 10
0.460265
 20
0.159853
 30
0.0
 10
0.230132
 20
0.159853
 30
0.0
 10
0.000000
 20
0.159853
 30
0.0
 10
0.000000
 20
1.703256
 30
0.0
 10
0.000000
 20
3.246659
 30
0.0
 10
0.000000
 20
4.790062
 30
0.0
 10
0.000000
 20
6.333465
 30
0.0
 10
0.230132
 20
6.333465
 30
0.0
 10
0.460265
 20
6.333465
 30
0.0
 10
0.690397
 20
6.333465
 30
0.0
 10
0.920530
 20
6.333465
 30
0.0
 10
0.920530
 20
6.201173
 30
0.0
 10
0.920530
 20
6.068881
 30
0.0
 10
0.920530
 20
5.936590
 30
0.0
 10
0.920530
 20
5.804298
 30
0.0
 10
1.016992
 20
5.959673
 30
0.0
 10
1.124479
 20
6.095063
 30
0.0
 10
1.242990
 20
6.210475
 30
0.0
 10
1.372526
 20
6.305903
 30
0.0
 10
1.514808
 20
6.383074
 30
0.0
 10
1.666047
 20
6.438194
 30
0.0
 10
1.826244
 20
6.471268
 30
0.0
 10
1.995399
 20
6.482292
 30
0.0
 10
2.195904
 20
6.470235
 30
0.0
 10
2.378494
 20
6.434060
 30
0.0
 10
2.543170
 20
6.373772
 30
0.0
 10
2.689931
 20
6.289367
 30
0.0
 10
2.822566
 20
6.180503
 30
0.0
 10
2.939355
 20
6.046831
 30
0.0
 10
3.040296
 20
5.888355
 30
0.0
 10
3.125391
 20
5.705077
 30
0.0
  0
LWPOLYLINE
  5
113
100
AcDbEntity
  8
.
 62
7
100
AcDbPolyline
 90
5
 70
0
 10
1.872538
 20
1.847206
 30
0.0
 10
3.261601
 20
1.847206
 30
0.0
 10
3.261601
 20
0.165999
 30
0.0
 10
1.872538
 20
0.165999
 30
0.0
 10
1.872538
 20
1.847206
 30
0.0
  0
LWPOLYLINE
  5
114
100
AcDbEntity
  8
,
 62
7
100
AcDbPolyline
 90
7
 70
0
 10
2.026016
 20
1.836182
 30
0.0
 10
3.415079
 20
1.836182
 30
0.0
 10
3.415079
 20
0.695166
 30
0.0
 10
2.329185
 20
-1.415989
 30
0.0
 10
1.480313
 20
-1.415989
 30
0.0
 10
2.026016
 20
0.695166
 30
0.0
 10
2.026016
 20
1.836182
 30
0.0
  0
ENDSEC
  0
SECTION
  2
OBJECTS
  0
DICTIONARY
  5
C
330
0
100
AcDbDictionary
  3
ACAD_GROUP
350
D
  3
ACAD_MLINESTYLE
350
17
  0
DICTIONARY
  5
D
330
C
100
AcDbDictionary
  0
DICTIONARY
  5
1A
330
C
100
AcDbDictionary
  0
DICTIONARY
  5
17
330
C
100
AcDbDictionary
  3
STANDARD
350
18
  0
DICTIONARY
  5
19
330
C
100
AcDbDictionary
  0
ENDSEC
  0
EOF
