999
DXF created by Inkscape
  0
SECTION
  2
HEADER
  9
$ACADVER
  1
AC1014
  9
$HANDSEED
  5
FFFF
  9
$MEASUREMENT
 70
     1
  0
ENDSEC
  0
SECTION
  2
TABLES
  0
TABLE
  2
VPORT
  5
8
330
0
100
AcDbSymbolTable
 70
     4
  0
VPORT
  5
2E
330
8
100
AcDbSymbolTableRecord
100
AcDbViewportTableRecord
  2
*ACTIVE
 70
     0
 10
0.0
 20
0.0
 11
1.0
 21
1.0
 12
210.0
 22
148.5
 13
0.0
 23
0.0
 14
10.0
 24
10.0
 15
10.0
 25
10.0
 16
0.0
 26
0.0
 36
1.0
 17
0.0
 27
0.0
 37
0.0
 40
341.0
 41
1.24
 42
50.0
 43
0.0
 44
0.0
 50
0.0
 51
0.0
 71
     0
 72
   100
 73
     1
 74
     3
 75
     0
 76
     0
 77
     0
 78
     0
  0
ENDTAB
  0
TABLE
  2
LTYPE
  5
5
330
0
100
AcDbSymbolTable
 70
     1
  0
LTYPE
  5
14
330
5
100
AcDbSymbolTableRecord
100
AcDbLinetypeTableRecord
  2
BYBLOCK
 70
     0
  3

 72
    65
 73
     0
 40
0.0
  0
LTYPE
  5
15
330
5
100
AcDbSymbolTableRecord
100
AcDbLinetypeTableRecord
  2
BYLAYER
 70
     0
  3

 72
    65
 73
     0
 40
0.0
  0
LTYPE
  5
16
330
5
100
AcDbSymbolTableRecord
100
AcDbLinetypeTableRecord
  2
CONTINUOUS
 70
     0
  3
Solid line
 72
    65
 73
     0
 40
0.0
  0
ENDTAB
  0
TABLE
  2
LAYER
  5
2
100
AcDbSymbolTable
 70
5
  0
LAYER
  5
50
100
AcDbSymbolTableRecord
100
AcDbLayerTableRecord
  2
0
 70
0
  6
CONTINUOUS
  0
LAYER
  5
51
100
AcDbSymbolTableRecord
100
AcDbLayerTableRecord
  2
ymin
 70
0
  6
CONTINUOUS
  0
LAYER
  5
52
100
AcDbSymbolTableRecord
100
AcDbLayerTableRecord
  2
ymax
 70
0
  6
CONTINUOUS
  0
LAYER
  5
53
100
AcDbSymbolTableRecord
100
AcDbLayerTableRecord
  2
zmin
 70
0
  6
CONTINUOUS
  0
LAYER
  5
54
100
AcDbSymbolTableRecord
100
AcDbLayerTableRecord
  2
zmax
 70
0
  6
CONTINUOUS
  0
ENDTAB
  0
TABLE
  2
STYLE
  5
3
330
0
100
AcDbSymbolTable
 70
     1
  0
STYLE
  5
11
330
3
100
AcDbSymbolTableRecord
100
AcDbTextStyleTableRecord
  2
STANDARD
 70
     0
 40
0.0
 41
1.0
 50
0.0
 71
     0
 42
2.5
  3
txt
  4

  0
ENDTAB
  0
TABLE
  2
VIEW
  5
6
330
0
100
AcDbSymbolTable
 70
     0
  0
ENDTAB
  0
TABLE
  2
UCS
  5
7
330
0
100
AcDbSymbolTable
 70
     0
  0
ENDTAB
  0
TABLE
  2
APPID
  5
9
330
0
100
AcDbSymbolTable
 70
     2
  0
APPID
  5
12
330
9
100
AcDbSymbolTableRecord
100
AcDbRegAppTableRecord
  2
ACAD
 70
     0
  0
ENDTAB
  0
TABLE
  2
DIMSTYLE
  5
A
330
0
100
AcDbSymbolTable
 70
     1
  0
DIMSTYLE
105
27
330
A
100
AcDbSymbolTableRecord
100
AcDbDimStyleTableRecord
  2
ISO-25
 70
     0
  3

  4

  5

  6

  7

 40
1.0
 41
2.5
 42
0.625
 43
3.75
 44
1.25
 45
0.0
 46
0.0
 47
0.0
 48
0.0
140
2.5
141
2.5
142
0.0
143
0.03937007874016
144
1.0
145
0.0
146
1.0
147
0.625
 71
     0
 72
     0
 73
     0
 74
     0
 75
     0
 76
     0
 77
     1
 78
     8
170
     0
171
     3
172
     1
173
     0
174
     0
175
     0
176
     0
177
     0
178
     0
270
     2
271
     2
272
     2
273
     2
274
     3
340
11
275
     0
280
     0
281
     0
282
     0
283
     0
284
     8
285
     0
286
     0
287
     3
288
     0
  0
ENDTAB
  0
TABLE
  2
BLOCK_RECORD
  5
1
330
0
100
AcDbSymbolTable
 70
     1
  0
BLOCK_RECORD
  5
1F
330
1
100
AcDbSymbolTableRecord
100
AcDbBlockTableRecord
  2
*MODEL_SPACE
  0
BLOCK_RECORD
  5
1B
330
1
100
AcDbSymbolTableRecord
100
AcDbBlockTableRecord
  2
*PAPER_SPACE
  0
ENDTAB
  0
ENDSEC
  0
SECTION
  2
BLOCKS
  0
BLOCK
  5
20
330
1F
100
AcDbEntity
  8
0
100
AcDbBlockBegin
  2
*MODEL_SPACE
 70
     0
 10
0.0
 20
0.0
 30
0.0
  3
*MODEL_SPACE
  1

  0
ENDBLK
  5
21
330
1F
100
AcDbEntity
  8
0
100
AcDbBlockEnd
  0
BLOCK
  5
1C
330
1B
100
AcDbEntity
 67
     1
  8
0
100
AcDbBlockBegin
  2
*PAPER_SPACE
  1

  0
ENDBLK
  5
1D
330
1B
100
AcDbEntity
 67
     1
  8
0
100
AcDbBlockEnd
  0
ENDSEC
  0
SECTION
  2
ENTITIES
  0
LWPOLYLINE
  5
100
100
AcDbEntity
  8
ymin
 62
7
100
AcDbPolyline
 90
25
 70
0
 10
9.419268
 20
2.291296
 30
0.0
 10
8.526728
 20
2.291296
 30
0.0
 10
7.634187
 20
2.291296
 30
0.0
 10
6.741647
 20
2.291296
 30
0.0
 10
5.849106
 20
2.291296
 30
0.0
 10
5.744199
 20
2.302951
 30
0.0
 10
5.669266
 20
2.337920
 30
0.0
 10
5.624306
 20
2.396202
 30
0.0
 10
5.609320
 20
2.477797
 30
0.0
 10
5.624306
 20
2.555504
 30
0.0
 10
5.669266
 20
2.611009
 30
0.0
 10
5.744199
 20
2.644314
 30
0.0
 10
5.849106
 20
2.655417
 30
0.0
 10
6.741647
 20
2.655417
 30
0.0
 10
7.634187
 20
2.655417
 30
0.0
 10
8.526728
 20
2.655417
 30
0.0
 10
9.419268
 20
2.655417
 30
0.0
 10
9.524172
 20
2.644314
 30
0.0
 10
9.599104
 20
2.611009
 30
0.0
 10
9.644064
 20
2.555504
 30
0.0
 10
9.659053
 20
2.477797
 30
0.0
 10
9.644064
 20
2.396202
 30
0.0
 10
9.599104
 20
2.337920
 30
0.0
 10
9.524172
 20
2.302951
 30
0.0
 10
9.419268
 20
2.291296
 30
0.0
  0
LWPOLYLINE
  5
101
100
AcDbEntity
  8
ymin
 62
7
100
AcDbPolyline
 90
109
 70
0
 10
2.504440
 20
2.255773
 30
0.0
 10
2.504440
 20
1.782860
 30
0.0
 10
2.504440
 20
1.309946
 30
0.0
 10
2.504440
 20
0.837032
 30
0.0
 10
2.504440
 20
0.364119
 30
0.0
 10
2.737566
 20
0.364119
 30
0.0
 10
2.970692
 20
0.364119
 30
0.0
 10
3.203819
 20
0.364119
 30
0.0
 10
3.436945
 20
0.364119
 30
0.0
 10
3.541850
 20
0.353017
 30
0.0
 10
3.616783
 20
0.319713
 30
0.0
 10
3.661744
 20
0.264207
 30
0.0
 10
3.676732
 20
0.186498
 30
0.0
 10
3.661744
 20
0.104905
 30
0.0
 10
3.616783
 20
0.046623
 30
0.0
 10
3.541850
 20
0.011654
 30
0.0
 10
3.436945
 20
-0.000002
 30
0.0
 10
2.879662
 20
-0.000002
 30
0.0
 10
2.322380
 20
-0.000002
 30
0.0
 10
1.765098
 20
-0.000002
 30
0.0
 10
1.207815
 20
-0.000002
 30
0.0
 10
1.102908
 20
0.011654
 30
0.0
 10
1.027974
 20
0.046625
 30
0.0
 10
0.983014
 20
0.104906
 30
0.0
 10
0.968028
 20
0.186500
 30
0.0
 10
0.983014
 20
0.264208
 30
0.0
 10
1.027974
 20
0.319714
 30
0.0
 10
1.102908
 20
0.353018
 30
0.0
 10
1.207815
 20
0.364119
 30
0.0
 10
1.440941
 20
0.364119
 30
0.0
 10
1.674067
 20
0.364119
 30
0.0
 10
1.907194
 20
0.364119
 30
0.0
 10
2.140320
 20
0.364119
 30
0.0
 10
2.140320
 20
0.837032
 30
0.0
 10
2.140320
 20
1.309946
 30
0.0
 10
2.140320
 20
1.782860
 30
0.0
 10
2.140320
 20
2.255773
 30
0.0
 10
1.742895
 20
2.850800
 30
0.0
 10
1.345470
 20
3.445826
 30
0.0
 10
0.948046
 20
4.040853
 30
0.0
 10
0.550621
 20
4.635880
 30
0.0
 10
0.497336
 20
4.635880
 30
0.0
 10
0.444050
 20
4.635880
 30
0.0
 10
0.390764
 20
4.635880
 30
0.0
 10
0.337479
 20
4.635880
 30
0.0
 10
0.232571
 20
4.647533
 30
0.0
 10
0.157638
 20
4.682501
 30
0.0
 10
0.112678
 20
4.740784
 30
0.0
 10
0.097691
 20
4.822381
 30
0.0
 10
0.112678
 20
4.900086
 30
0.0
 10
0.157638
 20
4.955591
 30
0.0
 10
0.232571
 20
4.988896
 30
0.0
 10
0.337479
 20
5.000000
 30
0.0
 10
0.583926
 20
5.000000
 30
0.0
 10
0.830374
 20
5.000000
 30
0.0
 10
1.076822
 20
5.000000
 30
0.0
 10
1.323269
 20
5.000000
 30
0.0
 10
1.428175
 20
4.988896
 30
0.0
 10
1.503108
 20
4.955591
 30
0.0
 10
1.548069
 20
4.900086
 30
0.0
 10
1.563057
 20
4.822381
 30
0.0
 10
1.548069
 20
4.740784
 30
0.0
 10
1.503108
 20
4.682501
 30
0.0
 10
1.428175
 20
4.647533
 30
0.0
 10
1.323269
 20
4.635880
 30
0.0
 10
1.238900
 20
4.635880
 30
0.0
 10
1.154530
 20
4.635880
 30
0.0
 10
1.070161
 20
4.635880
 30
0.0
 10
0.985791
 20
4.635880
 30
0.0
 10
1.323269
 20
4.131883
 30
0.0
 10
1.660747
 20
3.627887
 30
0.0
 10
1.998224
 20
3.123890
 30
0.0
 10
2.335702
 20
2.619893
 30
0.0
 10
2.666520
 20
3.123890
 30
0.0
 10
2.997337
 20
3.627887
 30
0.0
 10
3.328154
 20
4.131883
 30
0.0
 10
3.658972
 20
4.635880
 30
0.0
 10
3.570161
 20
4.635880
 30
0.0
 10
3.481351
 20
4.635880
 30
0.0
 10
3.392540
 20
4.635880
 30
0.0
 10
3.303730
 20
4.635880
 30
0.0
 10
3.194937
 20
4.647533
 30
0.0
 10
3.117227
 20
4.682501
 30
0.0
 10
3.070603
 20
4.740784
 30
0.0
 10
3.055064
 20
4.822381
 30
0.0
 10
3.070603
 20
4.900086
 30
0.0
 10
3.117227
 20
4.955591
 30
0.0
 10
3.194937
 20
4.988896
 30
0.0
 10
3.303730
 20
5.000000
 30
0.0
 10
3.547958
 20
5.000000
 30
0.0
 10
3.792185
 20
5.000000
 30
0.0
 10
4.036412
 20
5.000000
 30
0.0
 10
4.280639
 20
5.000000
 30
0.0
 10
4.385544
 20
4.988896
 30
0.0
 10
4.460476
 20
4.955591
 30
0.0
 10
4.505437
 20
4.900086
 30
0.0
 10
4.520426
 20
4.822381
 30
0.0
 10
4.505437
 20
4.740784
 30
0.0
 10
4.460476
 20
4.682501
 30
0.0
 10
4.385544
 20
4.647533
 30
0.0
 10
4.280639
 20
4.635880
 30
0.0
 10
4.227354
 20
4.635880
 30
0.0
 10
4.174068
 20
4.635880
 30
0.0
 10
4.120783
 20
4.635880
 30
0.0
 10
4.067497
 20
4.635880
 30
0.0
 10
3.676733
 20
4.040853
 30
0.0
 10
3.285968
 20
3.445826
 30
0.0
 10
2.895204
 20
2.850800
 30
0.0
 10
2.504440
 20
2.255773
 30
0.0
  0
LWPOLYLINE
  5
102
100
AcDbEntity
  8
ymax
 62
7
100
AcDbPolyline
 90
65
 70
0
 10
7.811807
 20
2.317938
 30
0.0
 10
7.811807
 20
1.869448
 30
0.0
 10
7.811807
 20
1.420958
 30
0.0
 10
7.811807
 20
0.972468
 30
0.0
 10
7.811807
 20
0.523978
 30
0.0
 10
7.800704
 20
0.419071
 30
0.0
 10
7.767400
 20
0.344138
 30
0.0
 10
7.711894
 20
0.299178
 30
0.0
 10
7.634188
 20
0.284192
 30
0.0
 10
7.552592
 20
0.299178
 30
0.0
 10
7.494310
 20
0.344138
 30
0.0
 10
7.459342
 20
0.419071
 30
0.0
 10
7.447686
 20
0.523978
 30
0.0
 10
7.447686
 20
0.972468
 30
0.0
 10
7.447686
 20
1.420958
 30
0.0
 10
7.447686
 20
1.869448
 30
0.0
 10
7.447686
 20
2.317938
 30
0.0
 10
7.048041
 20
2.317938
 30
0.0
 10
6.648396
 20
2.317938
 30
0.0
 10
6.248751
 20
2.317938
 30
0.0
 10
5.849106
 20
2.317938
 30
0.0
 10
5.744199
 20
2.329594
 30
0.0
 10
5.669266
 20
2.364562
 30
0.0
 10
5.624306
 20
2.422844
 30
0.0
 10
5.609319
 20
2.504439
 30
0.0
 10
5.624306
 20
2.582147
 30
0.0
 10
5.669266
 20
2.637653
 30
0.0
 10
5.744199
 20
2.670958
 30
0.0
 10
5.849106
 20
2.682061
 30
0.0
 10
6.248751
 20
2.682061
 30
0.0
 10
6.648396
 20
2.682061
 30
0.0
 10
7.048041
 20
2.682061
 30
0.0
 10
7.447686
 20
2.682061
 30
0.0
 10
7.447686
 20
3.128331
 30
0.0
 10
7.447686
 20
3.574600
 30
0.0
 10
7.447686
 20
4.020870
 30
0.0
 10
7.447686
 20
4.467139
 30
0.0
 10
7.459342
 20
4.572043
 30
0.0
 10
7.494311
 20
4.646976
 30
0.0
 10
7.552593
 20
4.691937
 30
0.0
 10
7.634188
 20
4.706926
 30
0.0
 10
7.711895
 20
4.691937
 30
0.0
 10
7.767400
 20
4.646976
 30
0.0
 10
7.800705
 20
4.572043
 30
0.0
 10
7.811807
 20
4.467139
 30
0.0
 10
7.811807
 20
4.020870
 30
0.0
 10
7.811807
 20
3.574600
 30
0.0
 10
7.811807
 20
3.128331
 30
0.0
 10
7.811807
 20
2.682061
 30
0.0
 10
8.211452
 20
2.682061
 30
0.0
 10
8.611097
 20
2.682061
 30
0.0
 10
9.010742
 20
2.682061
 30
0.0
 10
9.410387
 20
2.682061
 30
0.0
 10
9.519177
 20
2.670958
 30
0.0
 10
9.596885
 20
2.637653
 30
0.0
 10
9.643510
 20
2.582147
 30
0.0
 10
9.659052
 20
2.504439
 30
0.0
 10
9.643510
 20
2.422844
 30
0.0
 10
9.596885
 20
2.364563
 30
0.0
 10
9.519177
 20
2.329594
 30
0.0
 10
9.410387
 20
2.317938
 30
0.0
 10
9.010742
 20
2.317938
 30
0.0
 10
8.611097
 20
2.317938
 30
0.0
 10
8.211452
 20
2.317938
 30
0.0
 10
7.811807
 20
2.317938
 30
0.0
  0
LWPOLYLINE
  5
103
100
AcDbEntity
  8
ymax
 62
7
100
AcDbPolyline
 90
109
 70
0
 10
2.504440
 20
2.255773
 30
0.0
 10
2.504440
 20
1.782860
 30
0.0
 10
2.504440
 20
1.309946
 30
0.0
 10
2.504440
 20
0.837032
 30
0.0
 10
2.504440
 20
0.364119
 30
0.0
 10
2.737566
 20
0.364119
 30
0.0
 10
2.970692
 20
0.364119
 30
0.0
 10
3.203819
 20
0.364119
 30
0.0
 10
3.436945
 20
0.364119
 30
0.0
 10
3.541850
 20
0.353017
 30
0.0
 10
3.616783
 20
0.319713
 30
0.0
 10
3.661744
 20
0.264207
 30
0.0
 10
3.676732
 20
0.186498
 30
0.0
 10
3.661744
 20
0.104905
 30
0.0
 10
3.616783
 20
0.046623
 30
0.0
 10
3.541850
 20
0.011654
 30
0.0
 10
3.436945
 20
-0.000002
 30
0.0
 10
2.879662
 20
-0.000002
 30
0.0
 10
2.322380
 20
-0.000002
 30
0.0
 10
1.765098
 20
-0.000002
 30
0.0
 10
1.207815
 20
-0.000002
 30
0.0
 10
1.102908
 20
0.011654
 30
0.0
 10
1.027974
 20
0.046625
 30
0.0
 10
0.983014
 20
0.104906
 30
0.0
 10
0.968028
 20
0.186500
 30
0.0
 10
0.983014
 20
0.264208
 30
0.0
 10
1.027974
 20
0.319714
 30
0.0
 10
1.102908
 20
0.353018
 30
0.0
 10
1.207815
 20
0.364119
 30
0.0
 10
1.440941
 20
0.364119
 30
0.0
 10
1.674067
 20
0.364119
 30
0.0
 10
1.907194
 20
0.364119
 30
0.0
 10
2.140320
 20
0.364119
 30
0.0
 10
2.140320
 20
0.837032
 30
0.0
 10
2.140320
 20
1.309946
 30
0.0
 10
2.140320
 20
1.782860
 30
0.0
 10
2.140320
 20
2.255773
 30
0.0
 10
1.742895
 20
2.850800
 30
0.0
 10
1.345470
 20
3.445826
 30
0.0
 10
0.948046
 20
4.040853
 30
0.0
 10
0.550621
 20
4.635880
 30
0.0
 10
0.497336
 20
4.635880
 30
0.0
 10
0.444050
 20
4.635880
 30
0.0
 10
0.390764
 20
4.635880
 30
0.0
 10
0.337479
 20
4.635880
 30
0.0
 10
0.232571
 20
4.647533
 30
0.0
 10
0.157638
 20
4.682501
 30
0.0
 10
0.112678
 20
4.740784
 30
0.0
 10
0.097691
 20
4.822381
 30
0.0
 10
0.112678
 20
4.900086
 30
0.0
 10
0.157638
 20
4.955591
 30
0.0
 10
0.232571
 20
4.988896
 30
0.0
 10
0.337479
 20
5.000000
 30
0.0
 10
0.583926
 20
5.000000
 30
0.0
 10
0.830374
 20
5.000000
 30
0.0
 10
1.076822
 20
5.000000
 30
0.0
 10
1.323269
 20
5.000000
 30
0.0
 10
1.428175
 20
4.988896
 30
0.0
 10
1.503108
 20
4.955591
 30
0.0
 10
1.548069
 20
4.900086
 30
0.0
 10
1.563057
 20
4.822381
 30
0.0
 10
1.548069
 20
4.740784
 30
0.0
 10
1.503108
 20
4.682501
 30
0.0
 10
1.428175
 20
4.647533
 30
0.0
 10
1.323269
 20
4.635880
 30
0.0
 10
1.238900
 20
4.635880
 30
0.0
 10
1.154530
 20
4.635880
 30
0.0
 10
1.070161
 20
4.635880
 30
0.0
 10
0.985791
 20
4.635880
 30
0.0
 10
1.323269
 20
4.131883
 30
0.0
 10
1.660747
 20
3.627887
 30
0.0
 10
1.998224
 20
3.123890
 30
0.0
 10
2.335702
 20
2.619893
 30
0.0
 10
2.666520
 20
3.123890
 30
0.0
 10
2.997337
 20
3.627887
 30
0.0
 10
3.328154
 20
4.131883
 30
0.0
 10
3.658972
 20
4.635880
 30
0.0
 10
3.570161
 20
4.635880
 30
0.0
 10
3.481351
 20
4.635880
 30
0.0
 10
3.392540
 20
4.635880
 30
0.0
 10
3.303730
 20
4.635880
 30
0.0
 10
3.194937
 20
4.647533
 30
0.0
 10
3.117227
 20
4.682501
 30
0.0
 10
3.070603
 20
4.740784
 30
0.0
 10
3.055064
 20
4.822381
 30
0.0
 10
3.070603
 20
4.900086
 30
0.0
 10
3.117227
 20
4.955591
 30
0.0
 10
3.194937
 20
4.988896
 30
0.0
 10
3.303730
 20
5.000000
 30
0.0
 10
3.547958
 20
5.000000
 30
0.0
 10
3.792185
 20
5.000000
 30
0.0
 10
4.036412
 20
5.000000
 30
0.0
 10
4.280639
 20
5.000000
 30
0.0
 10
4.385544
 20
4.988896
 30
0.0
 10
4.460476
 20
4.955591
 30
0.0
 10
4.505437
 20
4.900086
 30
0.0
 10
4.520426
 20
4.822381
 30
0.0
 10
4.505437
 20
4.740784
 30
0.0
 10
4.460476
 20
4.682501
 30
0.0
 10
4.385544
 20
4.647533
 30
0.0
 10
4.280639
 20
4.635880
 30
0.0
 10
4.227354
 20
4.635880
 30
0.0
 10
4.174068
 20
4.635880
 30
0.0
 10
4.120783
 20
4.635880
 30
0.0
 10
4.067497
 20
4.635880
 30
0.0
 10
3.676733
 20
4.040853
 30
0.0
 10
3.285968
 20
3.445826
 30
0.0
 10
2.895204
 20
2.850800
 30
0.0
 10
2.504440
 20
2.255773
 30
0.0
  0
LWPOLYLINE
  5
104
100
AcDbEntity
  8
zmin
 62
7
100
AcDbPolyline
 90
25
 70
0
 10
9.419268
 20
2.291296
 30
0.0
 10
8.526728
 20
2.291296
 30
0.0
 10
7.634187
 20
2.291296
 30
0.0
 10
6.741647
 20
2.291296
 30
0.0
 10
5.849106
 20
2.291296
 30
0.0
 10
5.744199
 20
2.302951
 30
0.0
 10
5.669266
 20
2.337920
 30
0.0
 10
5.624306
 20
2.396202
 30
0.0
 10
5.609320
 20
2.477797
 30
0.0
 10
5.624306
 20
2.555504
 30
0.0
 10
5.669266
 20
2.611009
 30
0.0
 10
5.744199
 20
2.644314
 30
0.0
 10
5.849106
 20
2.655417
 30
0.0
 10
6.741647
 20
2.655417
 30
0.0
 10
7.634187
 20
2.655417
 30
0.0
 10
8.526728
 20
2.655417
 30
0.0
 10
9.419268
 20
2.655417
 30
0.0
 10
9.524172
 20
2.644314
 30
0.0
 10
9.599104
 20
2.611009
 30
0.0
 10
9.644064
 20
2.555504
 30
0.0
 10
9.659053
 20
2.477797
 30
0.0
 10
9.644064
 20
2.396202
 30
0.0
 10
9.599104
 20
2.337920
 30
0.0
 10
9.524172
 20
2.302951
 30
0.0
 10
9.419268
 20
2.291296
 30
0.0
  0
LWPOLYLINE
  5
105
100
AcDbEntity
  8
zmin
 62
7
100
AcDbPolyline
 90
73
 70
0
 10
4.058615
 20
-0.000001
 30
0.0
 10
3.183837
 20
-0.000001
 30
0.0
 10
2.309059
 20
-0.000001
 30
0.0
 10
1.434281
 20
-0.000001
 30
0.0
 10
0.559503
 20
-0.000001
 30
0.0
 10
0.559503
 20
0.130994
 30
0.0
 10
0.559503
 20
0.261989
 30
0.0
 10
0.559503
 20
0.392983
 30
0.0
 10
0.559503
 20
0.523978
 30
0.0
 10
1.287745
 20
1.545293
 30
0.0
 10
2.015987
 20
2.566607
 30
0.0
 10
2.744229
 20
3.587921
 30
0.0
 10
3.472471
 20
4.609235
 30
0.0
 10
3.472471
 20
4.615896
 30
0.0
 10
3.472471
 20
4.622556
 30
0.0
 10
3.472471
 20
4.629217
 30
0.0
 10
3.472471
 20
4.635877
 30
0.0
 10
2.875224
 20
4.635877
 30
0.0
 10
2.277976
 20
4.635877
 30
0.0
 10
1.680729
 20
4.635877
 30
0.0
 10
1.083482
 20
4.635877
 30
0.0
 10
1.083482
 20
4.373887
 30
0.0
 10
1.083482
 20
4.111898
 30
0.0
 10
1.083482
 20
3.849908
 30
0.0
 10
1.083482
 20
3.587918
 30
0.0
 10
1.072380
 20
3.479124
 30
0.0
 10
1.039076
 20
3.401414
 30
0.0
 10
0.983570
 20
3.354789
 30
0.0
 10
0.905863
 20
3.339249
 30
0.0
 10
0.824267
 20
3.354789
 30
0.0
 10
0.765985
 20
3.401414
 30
0.0
 10
0.731017
 20
3.479124
 30
0.0
 10
0.719362
 20
3.587918
 30
0.0
 10
0.719362
 20
3.940938
 30
0.0
 10
0.719362
 20
4.293958
 30
0.0
 10
0.719362
 20
4.646978
 30
0.0
 10
0.719362
 20
4.999997
 30
0.0
 10
1.494228
 20
4.999997
 30
0.0
 10
2.269095
 20
4.999997
 30
0.0
 10
3.043961
 20
4.999997
 30
0.0
 10
3.818828
 20
4.999997
 30
0.0
 10
3.818828
 20
4.871223
 30
0.0
 10
3.818828
 20
4.742448
 30
0.0
 10
3.818828
 20
4.613674
 30
0.0
 10
3.818828
 20
4.484899
 30
0.0
 10
3.090587
 20
3.463585
 30
0.0
 10
2.362345
 20
2.442271
 30
0.0
 10
1.634104
 20
1.420957
 30
0.0
 10
0.905863
 20
0.399642
 30
0.0
 10
0.905863
 20
0.390761
 30
0.0
 10
0.905863
 20
0.381879
 30
0.0
 10
0.905863
 20
0.372998
 30
0.0
 10
0.905863
 20
0.364116
 30
0.0
 10
1.603021
 20
0.364116
 30
0.0
 10
2.300179
 20
0.364116
 30
0.0
 10
2.997337
 20
0.364116
 30
0.0
 10
3.694495
 20
0.364116
 30
0.0
 10
3.694495
 20
0.677171
 30
0.0
 10
3.694495
 20
0.990226
 30
0.0
 10
3.694495
 20
1.303281
 30
0.0
 10
3.694495
 20
1.616336
 30
0.0
 10
3.705592
 20
1.721243
 30
0.0
 10
3.738895
 20
1.796176
 30
0.0
 10
3.794402
 20
1.841137
 30
0.0
 10
3.872113
 20
1.856123
 30
0.0
 10
3.953705
 20
1.841137
 30
0.0
 10
4.011985
 20
1.796176
 30
0.0
 10
4.046955
 20
1.721243
 30
0.0
 10
4.058614
 20
1.616336
 30
0.0
 10
4.058614
 20
1.212251
 30
0.0
 10
4.058614
 20
0.808166
 30
0.0
 10
4.058614
 20
0.404081
 30
0.0
 10
4.058614
 20
-0.000004
 30
0.0
  0
LWPOLYLINE
  5
106
100
AcDbEntity
  8
zmax
 62
7
100
AcDbPolyline
 90
65
 70
0
 10
7.811807
 20
2.317938
 30
0.0
 10
7.811807
 20
1.869448
 30
0.0
 10
7.811807
 20
1.420958
 30
0.0
 10
7.811807
 20
0.972468
 30
0.0
 10
7.811807
 20
0.523978
 30
0.0
 10
7.800704
 20
0.419071
 30
0.0
 10
7.767400
 20
0.344138
 30
0.0
 10
7.711894
 20
0.299178
 30
0.0
 10
7.634188
 20
0.284192
 30
0.0
 10
7.552592
 20
0.299178
 30
0.0
 10
7.494310
 20
0.344138
 30
0.0
 10
7.459342
 20
0.419071
 30
0.0
 10
7.447686
 20
0.523978
 30
0.0
 10
7.447686
 20
0.972468
 30
0.0
 10
7.447686
 20
1.420958
 30
0.0
 10
7.447686
 20
1.869448
 30
0.0
 10
7.447686
 20
2.317938
 30
0.0
 10
7.048041
 20
2.317938
 30
0.0
 10
6.648396
 20
2.317938
 30
0.0
 10
6.248751
 20
2.317938
 30
0.0
 10
5.849106
 20
2.317938
 30
0.0
 10
5.744199
 20
2.329594
 30
0.0
 10
5.669266
 20
2.364562
 30
0.0
 10
5.624306
 20
2.422844
 30
0.0
 10
5.609319
 20
2.504439
 30
0.0
 10
5.624306
 20
2.582147
 30
0.0
 10
5.669266
 20
2.637653
 30
0.0
 10
5.744199
 20
2.670958
 30
0.0
 10
5.849106
 20
2.682061
 30
0.0
 10
6.248751
 20
2.682061
 30
0.0
 10
6.648396
 20
2.682061
 30
0.0
 10
7.048041
 20
2.682061
 30
0.0
 10
7.447686
 20
2.682061
 30
0.0
 10
7.447686
 20
3.128331
 30
0.0
 10
7.447686
 20
3.574600
 30
0.0
 10
7.447686
 20
4.020870
 30
0.0
 10
7.447686
 20
4.467139
 30
0.0
 10
7.459342
 20
4.572043
 30
0.0
 10
7.494311
 20
4.646976
 30
0.0
 10
7.552593
 20
4.691937
 30
0.0
 10
7.634188
 20
4.706926
 30
0.0
 10
7.711895
 20
4.691937
 30
0.0
 10
7.767400
 20
4.646976
 30
0.0
 10
7.800705
 20
4.572043
 30
0.0
 10
7.811807
 20
4.467139
 30
0.0
 10
7.811807
 20
4.020870
 30
0.0
 10
7.811807
 20
3.574600
 30
0.0
 10
7.811807
 20
3.128331
 30
0.0
 10
7.811807
 20
2.682061
 30
0.0
 10
8.211452
 20
2.682061
 30
0.0
 10
8.611097
 20
2.682061
 30
0.0
 10
9.010742
 20
2.682061
 30
0.0
 10
9.410387
 20
2.682061
 30
0.0
 10
9.519177
 20
2.670958
 30
0.0
 10
9.596885
 20
2.637653
 30
0.0
 10
9.643510
 20
2.582147
 30
0.0
 10
9.659052
 20
2.504439
 30
0.0
 10
9.643510
 20
2.422844
 30
0.0
 10
9.596885
 20
2.364563
 30
0.0
 10
9.519177
 20
2.329594
 30
0.0
 10
9.410387
 20
2.317938
 30
0.0
 10
9.010742
 20
2.317938
 30
0.0
 10
8.611097
 20
2.317938
 30
0.0
 10
8.211452
 20
2.317938
 30
0.0
 10
7.811807
 20
2.317938
 30
0.0
  0
LWPOLYLINE
  5
107
100
AcDbEntity
  8
zmax
 62
7
100
AcDbPolyline
 90
73
 70
0
 10
4.058616
 20
-0.000001
 30
0.0
 10
3.183838
 20
-0.000001
 30
0.0
 10
2.309060
 20
-0.000001
 30
0.0
 10
1.434281
 20
-0.000001
 30
0.0
 10
0.559503
 20
-0.000001
 30
0.0
 10
0.559503
 20
0.130994
 30
0.0
 10
0.559503
 20
0.261989
 30
0.0
 10
0.559503
 20
0.392983
 30
0.0
 10
0.559503
 20
0.523978
 30
0.0
 10
1.287745
 20
1.545293
 30
0.0
 10
2.015987
 20
2.566607
 30
0.0
 10
2.744229
 20
3.587921
 30
0.0
 10
3.472471
 20
4.609235
 30
0.0
 10
3.472471
 20
4.615896
 30
0.0
 10
3.472471
 20
4.622556
 30
0.0
 10
3.472471
 20
4.629217
 30
0.0
 10
3.472471
 20
4.635877
 30
0.0
 10
2.875224
 20
4.635877
 30
0.0
 10
2.277976
 20
4.635877
 30
0.0
 10
1.680729
 20
4.635877
 30
0.0
 10
1.083482
 20
4.635877
 30
0.0
 10
1.083482
 20
4.373887
 30
0.0
 10
1.083482
 20
4.111898
 30
0.0
 10
1.083482
 20
3.849908
 30
0.0
 10
1.083482
 20
3.587918
 30
0.0
 10
1.072380
 20
3.479124
 30
0.0
 10
1.039076
 20
3.401414
 30
0.0
 10
0.983570
 20
3.354789
 30
0.0
 10
0.905863
 20
3.339249
 30
0.0
 10
0.824267
 20
3.354789
 30
0.0
 10
0.765985
 20
3.401414
 30
0.0
 10
0.731017
 20
3.479124
 30
0.0
 10
0.719362
 20
3.587918
 30
0.0
 10
0.719362
 20
3.940938
 30
0.0
 10
0.719362
 20
4.293958
 30
0.0
 10
0.719362
 20
4.646978
 30
0.0
 10
0.719362
 20
4.999997
 30
0.0
 10
1.494228
 20
4.999997
 30
0.0
 10
2.269095
 20
4.999997
 30
0.0
 10
3.043961
 20
4.999997
 30
0.0
 10
3.818828
 20
4.999997
 30
0.0
 10
3.818828
 20
4.871223
 30
0.0
 10
3.818828
 20
4.742448
 30
0.0
 10
3.818828
 20
4.613674
 30
0.0
 10
3.818828
 20
4.484899
 30
0.0
 10
3.090587
 20
3.463585
 30
0.0
 10
2.362345
 20
2.442271
 30
0.0
 10
1.634104
 20
1.420957
 30
0.0
 10
0.905863
 20
0.399642
 30
0.0
 10
0.905863
 20
0.390761
 30
0.0
 10
0.905863
 20
0.381879
 30
0.0
 10
0.905863
 20
0.372998
 30
0.0
 10
0.905863
 20
0.364116
 30
0.0
 10
1.603021
 20
0.364116
 30
0.0
 10
2.300179
 20
0.364116
 30
0.0
 10
2.997337
 20
0.364116
 30
0.0
 10
3.694495
 20
0.364116
 30
0.0
 10
3.694495
 20
0.677171
 30
0.0
 10
3.694495
 20
0.990226
 30
0.0
 10
3.694495
 20
1.303281
 30
0.0
 10
3.694495
 20
1.616336
 30
0.0
 10
3.705592
 20
1.721243
 30
0.0
 10
3.738895
 20
1.796176
 30
0.0
 10
3.794402
 20
1.841137
 30
0.0
 10
3.872113
 20
1.856123
 30
0.0
 10
3.953705
 20
1.841137
 30
0.0
 10
4.011985
 20
1.796176
 30
0.0
 10
4.046955
 20
1.721243
 30
0.0
 10
4.058614
 20
1.616336
 30
0.0
 10
4.058614
 20
1.212251
 30
0.0
 10
4.058614
 20
0.808166
 30
0.0
 10
4.058614
 20
0.404081
 30
0.0
 10
4.058614
 20
-0.000004
 30
0.0
  0
ENDSEC
  0
SECTION
  2
OBJECTS
  0
DICTIONARY
  5
C
330
0
100
AcDbDictionary
  3
ACAD_GROUP
350
D
  3
ACAD_MLINESTYLE
350
17
  0
DICTIONARY
  5
D
330
C
100
AcDbDictionary
  0
DICTIONARY
  5
1A
330
C
100
AcDbDictionary
  0
DICTIONARY
  5
17
330
C
100
AcDbDictionary
  3
STANDARD
350
18
  0
DICTIONARY
  5
19
330
C
100
AcDbDictionary
  0
ENDSEC
  0
EOF
