999
DXF created by Inkscape
  0
SECTION
  2
HEADER
  9
$ACADVER
  1
AC1014
  9
$HANDSEED
  5
FFFF
  9
$MEASUREMENT
 70
     1
  0
ENDSEC
  0
SECTION
  2
TABLES
  0
TABLE
  2
VPORT
  5
8
330
0
100
AcDbSymbolTable
 70
     4
  0
VPORT
  5
2E
330
8
100
AcDbSymbolTableRecord
100
AcDbViewportTableRecord
  2
*ACTIVE
 70
     0
 10
0.0
 20
0.0
 11
1.0
 21
1.0
 12
210.0
 22
148.5
 13
0.0
 23
0.0
 14
10.0
 24
10.0
 15
10.0
 25
10.0
 16
0.0
 26
0.0
 36
1.0
 17
0.0
 27
0.0
 37
0.0
 40
341.0
 41
1.24
 42
50.0
 43
0.0
 44
0.0
 50
0.0
 51
0.0
 71
     0
 72
   100
 73
     1
 74
     3
 75
     0
 76
     0
 77
     0
 78
     0
  0
ENDTAB
  0
TABLE
  2
LTYPE
  5
5
330
0
100
AcDbSymbolTable
 70
     1
  0
LTYPE
  5
14
330
5
100
AcDbSymbolTableRecord
100
AcDbLinetypeTableRecord
  2
BYBLOCK
 70
     0
  3

 72
    65
 73
     0
 40
0.0
  0
LTYPE
  5
15
330
5
100
AcDbSymbolTableRecord
100
AcDbLinetypeTableRecord
  2
BYLAYER
 70
     0
  3

 72
    65
 73
     0
 40
0.0
  0
LTYPE
  5
16
330
5
100
AcDbSymbolTableRecord
100
AcDbLinetypeTableRecord
  2
CONTINUOUS
 70
     0
  3
Solid line
 72
    65
 73
     0
 40
0.0
  0
ENDTAB
  0
TABLE
  2
LAYER
  5
2
100
AcDbSymbolTable
 70
2
  0
LAYER
  5
50
100
AcDbSymbolTableRecord
100
AcDbLayerTableRecord
  2
0
 70
0
  6
CONTINUOUS
  0
LAYER
  5
51
100
AcDbSymbolTableRecord
100
AcDbLayerTableRecord
  2
Layer_1
 70
0
  6
CONTINUOUS
  0
ENDTAB
  0
TABLE
  2
STYLE
  5
3
330
0
100
AcDbSymbolTable
 70
     1
  0
STYLE
  5
11
330
3
100
AcDbSymbolTableRecord
100
AcDbTextStyleTableRecord
  2
STANDARD
 70
     0
 40
0.0
 41
1.0
 50
0.0
 71
     0
 42
2.5
  3
txt
  4

  0
ENDTAB
  0
TABLE
  2
VIEW
  5
6
330
0
100
AcDbSymbolTable
 70
     0
  0
ENDTAB
  0
TABLE
  2
UCS
  5
7
330
0
100
AcDbSymbolTable
 70
     0
  0
ENDTAB
  0
TABLE
  2
APPID
  5
9
330
0
100
AcDbSymbolTable
 70
     2
  0
APPID
  5
12
330
9
100
AcDbSymbolTableRecord
100
AcDbRegAppTableRecord
  2
ACAD
 70
     0
  0
ENDTAB
  0
TABLE
  2
DIMSTYLE
  5
A
330
0
100
AcDbSymbolTable
 70
     1
  0
DIMSTYLE
105
27
330
A
100
AcDbSymbolTableRecord
100
AcDbDimStyleTableRecord
  2
ISO-25
 70
     0
  3

  4

  5

  6

  7

 40
1.0
 41
2.5
 42
0.625
 43
3.75
 44
1.25
 45
0.0
 46
0.0
 47
0.0
 48
0.0
140
2.5
141
2.5
142
0.0
143
0.03937007874016
144
1.0
145
0.0
146
1.0
147
0.625
 71
     0
 72
     0
 73
     0
 74
     0
 75
     0
 76
     0
 77
     1
 78
     8
170
     0
171
     3
172
     1
173
     0
174
     0
175
     0
176
     0
177
     0
178
     0
270
     2
271
     2
272
     2
273
     2
274
     3
340
11
275
     0
280
     0
281
     0
282
     0
283
     0
284
     8
285
     0
286
     0
287
     3
288
     0
  0
ENDTAB
  0
TABLE
  2
BLOCK_RECORD
  5
1
330
0
100
AcDbSymbolTable
 70
     1
  0
BLOCK_RECORD
  5
1F
330
1
100
AcDbSymbolTableRecord
100
AcDbBlockTableRecord
  2
*MODEL_SPACE
  0
BLOCK_RECORD
  5
1B
330
1
100
AcDbSymbolTableRecord
100
AcDbBlockTableRecord
  2
*PAPER_SPACE
  0
ENDTAB
  0
ENDSEC
  0
SECTION
  2
BLOCKS
  0
BLOCK
  5
20
330
1F
100
AcDbEntity
  8
0
100
AcDbBlockBegin
  2
*MODEL_SPACE
 70
     0
 10
0.0
 20
0.0
 30
0.0
  3
*MODEL_SPACE
  1

  0
ENDBLK
  5
21
330
1F
100
AcDbEntity
  8
0
100
AcDbBlockEnd
  0
BLOCK
  5
1C
330
1B
100
AcDbEntity
 67
     1
  8
0
100
AcDbBlockBegin
  2
*PAPER_SPACE
  1

  0
ENDBLK
  5
1D
330
1B
100
AcDbEntity
 67
     1
  8
0
100
AcDbBlockEnd
  0
ENDSEC
  0
SECTION
  2
ENTITIES
  0
LWPOLYLINE
  5
100
100
AcDbEntity
  8
Layer_1
 62
7
100
AcDbPolyline
 90
21
 70
0
 10
0.145023
 20
3.137747
 30
0.0
 10
0.145023
 20
107.137742
 30
0.0
 10
0.718021
 20
108.900742
 30
0.0
 10
2.218021
 20
109.990746
 30
0.0
 10
3.145022
 20
109.990746
 30
0.0
 10
3.145022
 20
110.137744
 30
0.0
 10
106.145011
 20
110.137744
 30
0.0
 10
106.145011
 20
109.990746
 30
0.0
 10
107.072026
 20
109.990746
 30
0.0
 10
108.572009
 20
108.900742
 30
0.0
 10
109.145033
 20
107.137742
 30
0.0
 10
109.145033
 20
3.137747
 30
0.0
 10
108.572009
 20
1.374733
 30
0.0
 10
107.072026
 20
0.284734
 30
0.0
 10
106.145011
 20
0.284734
 30
0.0
 10
106.145011
 20
0.137753
 30
0.0
 10
3.145022
 20
0.137753
 30
0.0
 10
3.145022
 20
0.284734
 30
0.0
 10
2.218021
 20
0.284734
 30
0.0
 10
0.718021
 20
1.374733
 30
0.0
 10
0.145023
 20
3.137747
 30
0.0
  0
LWPOLYLINE
  5
101
100
AcDbEntity
  8
Layer_1
 62
7
100
AcDbPolyline
 90
21
 70
0
 10
4.845022
 20
6.837736
 30
0.0
 10
4.943023
 20
7.455738
 30
0.0
 10
5.227021
 20
8.013748
 30
0.0
 10
5.669023
 20
8.455736
 30
0.0
 10
6.227022
 20
8.739736
 30
0.0
 10
6.845023
 20
8.837724
 30
0.0
 10
7.463022
 20
8.739736
 30
0.0
 10
8.021024
 20
8.455736
 30
0.0
 10
8.463023
 20
8.013748
 30
0.0
 10
8.747023
 20
7.455738
 30
0.0
 10
8.845022
 20
6.837736
 30
0.0
 10
8.747023
 20
6.219754
 30
0.0
 10
8.463023
 20
5.661745
 30
0.0
 10
8.021024
 20
5.219756
 30
0.0
 10
7.463022
 20
4.935756
 30
0.0
 10
6.845023
 20
4.837740
 30
0.0
 10
6.227022
 20
4.935756
 30
0.0
 10
5.669023
 20
5.219756
 30
0.0
 10
5.227021
 20
5.661745
 30
0.0
 10
4.943023
 20
6.219754
 30
0.0
 10
4.845022
 20
6.837736
 30
0.0
  0
LWPOLYLINE
  5
102
100
AcDbEntity
  8
Layer_1
 62
7
100
AcDbPolyline
 90
21
 70
0
 10
4.845022
 20
103.437746
 30
0.0
 10
4.943023
 20
104.055745
 30
0.0
 10
5.227021
 20
104.613744
 30
0.0
 10
5.669023
 20
105.055746
 30
0.0
 10
6.227022
 20
105.339746
 30
0.0
 10
6.845023
 20
105.437745
 30
0.0
 10
7.463022
 20
105.339746
 30
0.0
 10
8.021024
 20
105.055746
 30
0.0
 10
8.463023
 20
104.613744
 30
0.0
 10
8.747023
 20
104.055745
 30
0.0
 10
8.845022
 20
103.437746
 30
0.0
 10
8.747023
 20
102.819742
 30
0.0
 10
8.463023
 20
102.261746
 30
0.0
 10
8.021024
 20
101.819744
 30
0.0
 10
7.463022
 20
101.535746
 30
0.0
 10
6.845023
 20
101.437742
 30
0.0
 10
6.227022
 20
101.535746
 30
0.0
 10
5.669023
 20
101.819744
 30
0.0
 10
5.227021
 20
102.261746
 30
0.0
 10
4.943023
 20
102.819742
 30
0.0
 10
4.845022
 20
103.437746
 30
0.0
  0
LWPOLYLINE
  5
103
100
AcDbEntity
  8
Layer_1
 62
7
100
AcDbPolyline
 90
21
 70
0
 10
100.445025
 20
6.837736
 30
0.0
 10
100.543013
 20
7.455738
 30
0.0
 10
100.827013
 20
8.013748
 30
0.0
 10
101.269030
 20
8.455736
 30
0.0
 10
101.827011
 20
8.739736
 30
0.0
 10
102.445021
 20
8.837724
 30
0.0
 10
103.063032
 20
8.739736
 30
0.0
 10
103.621013
 20
8.455736
 30
0.0
 10
104.063030
 20
8.013748
 30
0.0
 10
104.347030
 20
7.455738
 30
0.0
 10
104.445017
 20
6.837736
 30
0.0
 10
104.347030
 20
6.219754
 30
0.0
 10
104.063030
 20
5.661745
 30
0.0
 10
103.621013
 20
5.219756
 30
0.0
 10
103.063032
 20
4.935756
 30
0.0
 10
102.445021
 20
4.837740
 30
0.0
 10
101.827011
 20
4.935756
 30
0.0
 10
101.269030
 20
5.219756
 30
0.0
 10
100.827013
 20
5.661745
 30
0.0
 10
100.543013
 20
6.219754
 30
0.0
 10
100.445025
 20
6.837736
 30
0.0
  0
LWPOLYLINE
  5
104
100
AcDbEntity
  8
Layer_1
 62
7
100
AcDbPolyline
 90
21
 70
0
 10
100.445025
 20
103.437746
 30
0.0
 10
100.543013
 20
104.055745
 30
0.0
 10
100.827013
 20
104.613744
 30
0.0
 10
101.269030
 20
105.055746
 30
0.0
 10
101.827011
 20
105.339746
 30
0.0
 10
102.445021
 20
105.437745
 30
0.0
 10
103.063032
 20
105.339746
 30
0.0
 10
103.621013
 20
105.055746
 30
0.0
 10
104.063030
 20
104.613744
 30
0.0
 10
104.347030
 20
104.055745
 30
0.0
 10
104.445017
 20
103.437746
 30
0.0
 10
104.347030
 20
102.819742
 30
0.0
 10
104.063030
 20
102.261746
 30
0.0
 10
103.621013
 20
101.819744
 30
0.0
 10
103.063032
 20
101.535746
 30
0.0
 10
102.445021
 20
101.437742
 30
0.0
 10
101.827011
 20
101.535746
 30
0.0
 10
101.269030
 20
101.819744
 30
0.0
 10
100.827013
 20
102.261746
 30
0.0
 10
100.543013
 20
102.819742
 30
0.0
 10
100.445025
 20
103.437746
 30
0.0
  0
SPLINE
  5
105
100
AcDbEntity
  8
Layer_1
 62
1
100
AcDbSpline
 70
8
 71
3
 72
8
 73
4
 74
0
 40
0
 40
0
 40
0
 40
0
 40
1
 40
1
 40
1
 40
1
 10
47.697466
 20
19.254566
 30
0.0
 10
47.693713
 20
19.326016
 30
0.0
 10
47.691822
 20
19.450118
 30
0.0
 10
47.691822
 20
19.626874
 30
0.0
  0
SPLINE
  5
106
100
AcDbEntity
  8
Layer_1
 62
1
100
AcDbSpline
 70
8
 71
3
 72
8
 73
4
 74
0
 40
0
 40
0
 40
0
 40
0
 40
1
 40
1
 40
1
 40
1
 10
47.691822
 20
19.626874
 30
0.0
 10
47.688068
 20
19.803621
 30
0.0
 10
47.686177
 20
19.940885
 30
0.0
 10
47.686177
 20
20.038667
 30
0.0
  0
SPLINE
  5
107
100
AcDbEntity
  8
Layer_1
 62
1
100
AcDbSpline
 70
8
 71
3
 72
8
 73
4
 74
0
 40
0
 40
0
 40
0
 40
0
 40
1
 40
1
 40
1
 40
1
 10
47.686177
 20
20.038667
 30
0.0
 10
47.682424
 20
20.136443
 30
0.0
 10
47.674888
 20
20.273707
 30
0.0
 10
47.663628
 20
20.450463
 30
0.0
  0
SPLINE
  5
108
100
AcDbEntity
  8
Layer_1
 62
1
100
AcDbSpline
 70
8
 71
3
 72
8
 73
4
 74
0
 40
0
 40
0
 40
0
 40
0
 40
1
 40
1
 40
1
 40
1
 10
47.663628
 20
20.450463
 30
0.0
 10
47.648585
 20
20.627210
 30
0.0
 10
47.633549
 20
20.768237
 30
0.0
 10
47.618500
 20
20.873539
 30
0.0
  0
SPLINE
  5
109
100
AcDbEntity
  8
Layer_1
 62
1
100
AcDbSpline
 70
8
 71
3
 72
8
 73
4
 74
0
 40
0
 40
0
 40
0
 40
0
 40
1
 40
1
 40
1
 40
1
 10
47.618500
 20
20.873539
 30
0.0
 10
47.599704
 20
20.982596
 30
0.0
 10
47.573376
 20
21.112339
 30
0.0
 10
47.539526
 20
21.262772
 30
0.0
  0
SPLINE
  5
10a
100
AcDbEntity
  8
Layer_1
 62
1
100
AcDbSpline
 70
8
 71
3
 72
8
 73
4
 74
0
 40
0
 40
0
 40
0
 40
0
 40
1
 40
1
 40
1
 40
1
 10
47.539526
 20
21.262772
 30
0.0
 10
47.501923
 20
21.416955
 30
0.0
 10
47.460555
 20
21.541057
 30
0.0
 10
47.415422
 20
21.635079
 30
0.0
  0
SPLINE
  5
10b
100
AcDbEntity
  8
Layer_1
 62
1
100
AcDbSpline
 70
8
 71
3
 72
8
 73
4
 74
0
 40
0
 40
0
 40
0
 40
0
 40
1
 40
1
 40
1
 40
1
 10
47.415422
 20
21.635079
 30
0.0
 10
47.366538
 20
21.732852
 30
0.0
 10
47.306368
 20
21.834390
 30
0.0
 10
47.234910
 20
21.939693
 30
0.0
  0
SPLINE
  5
10c
100
AcDbEntity
  8
Layer_1
 62
1
100
AcDbSpline
 70
8
 71
3
 72
8
 73
4
 74
0
 40
0
 40
0
 40
0
 40
0
 40
1
 40
1
 40
1
 40
1
 10
47.234910
 20
21.939693
 30
0.0
 10
47.159700
 20
22.048749
 30
0.0
 10
47.076967
 20
22.133365
 30
0.0
 10
46.986704
 20
22.193541
 30
0.0
  0
SPLINE
  5
10d
100
AcDbEntity
  8
Layer_1
 62
1
100
AcDbSpline
 70
8
 71
3
 72
8
 73
4
 74
0
 40
0
 40
0
 40
0
 40
0
 40
1
 40
1
 40
1
 40
1
 10
46.986704
 20
22.193541
 30
0.0
 10
46.896455
 20
22.253705
 30
0.0
 10
46.789275
 20
22.302594
 30
0.0
 10
46.665165
 20
22.340206
 30
0.0
  0
SPLINE
  5
10e
100
AcDbEntity
  8
Layer_1
 62
1
100
AcDbSpline
 70
8
 71
3
 72
8
 73
4
 74
0
 40
0
 40
0
 40
0
 40
0
 40
1
 40
1
 40
1
 40
1
 10
46.665165
 20
22.340206
 30
0.0
 10
46.537310
 20
22.381568
 30
0.0
 10
46.398163
 20
22.402252
 30
0.0
 10
46.247730
 20
22.402258
 30
0.0
  0
SPLINE
  5
10f
100
AcDbEntity
  8
Layer_1
 62
1
100
AcDbSpline
 70
8
 71
3
 72
8
 73
4
 74
0
 40
0
 40
0
 40
0
 40
0
 40
1
 40
1
 40
1
 40
1
 10
46.247730
 20
22.402258
 30
0.0
 10
46.134915
 20
22.402252
 30
0.0
 10
46.027735
 20
22.390969
 30
0.0
 10
45.926192
 20
22.368411
 30
0.0
  0
SPLINE
  5
110
100
AcDbEntity
  8
Layer_1
 62
1
100
AcDbSpline
 70
8
 71
3
 72
8
 73
4
 74
0
 40
0
 40
0
 40
0
 40
0
 40
1
 40
1
 40
1
 40
1
 10
45.926192
 20
22.368411
 30
0.0
 10
45.824659
 20
22.345833
 30
0.0
 10
45.715600
 20
22.298835
 30
0.0
 10
45.599011
 20
22.227388
 30
0.0
  0
SPLINE
  5
111
100
AcDbEntity
  8
Layer_1
 62
1
100
AcDbSpline
 70
8
 71
3
 72
8
 73
4
 74
0
 40
0
 40
0
 40
0
 40
0
 40
1
 40
1
 40
1
 40
1
 10
45.599011
 20
22.227388
 30
0.0
 10
45.482437
 20
22.155929
 30
0.0
 10
45.382778
 20
22.063792
 30
0.0
 10
45.300036
 20
21.950976
 30
0.0
  0
SPLINE
  5
112
100
AcDbEntity
  8
Layer_1
 62
1
100
AcDbSpline
 70
8
 71
3
 72
8
 73
4
 74
0
 40
0
 40
0
 40
0
 40
0
 40
1
 40
1
 40
1
 40
1
 10
45.300036
 20
21.950976
 30
0.0
 10
45.217309
 20
21.838150
 30
0.0
 10
45.147738
 20
21.682083
 30
0.0
 10
45.091319
 20
21.482770
 30
0.0
  0
SPLINE
  5
113
100
AcDbEntity
  8
Layer_1
 62
1
100
AcDbSpline
 70
8
 71
3
 72
8
 73
4
 74
0
 40
0
 40
0
 40
0
 40
0
 40
1
 40
1
 40
1
 40
1
 10
45.091319
 20
21.482770
 30
0.0
 10
45.034917
 20
21.287209
 30
0.0
 10
45.006712
 20
21.059690
 30
0.0
 10
45.006703
 20
20.800207
 30
0.0
  0
LWPOLYLINE
  5
114
100
AcDbEntity
  8
Layer_1
 62
1
100
AcDbPolyline
 90
2
 70
0
 10
45.006695
 20
19.254566
 30
0.0
 10
47.697466
 20
19.254566
 30
0.0
  0
LWPOLYLINE
  5
115
100
AcDbEntity
  8
Layer_1
 62
1
100
AcDbPolyline
 90
2
 70
0
 10
45.006703
 20
20.800207
 30
0.0
 10
45.006703
 20
19.254566
 30
0.0
  0
SPLINE
  5
116
100
AcDbEntity
  8
Layer_1
 62
1
100
AcDbSpline
 70
8
 71
3
 72
8
 73
4
 74
0
 40
0
 40
0
 40
0
 40
0
 40
1
 40
1
 40
1
 40
1
 10
51.443117
 20
20.749438
 30
0.0
 10
51.443120
 20
20.884817
 30
0.0
 10
51.443120
 20
20.997638
 30
0.0
 10
51.443117
 20
21.087898
 30
0.0
  0
SPLINE
  5
117
100
AcDbEntity
  8
Layer_1
 62
1
100
AcDbSpline
 70
8
 71
3
 72
8
 73
4
 74
0
 40
0
 40
0
 40
0
 40
0
 40
1
 40
1
 40
1
 40
1
 10
51.443117
 20
21.087898
 30
0.0
 10
51.439363
 20
21.181912
 30
0.0
 10
51.428074
 20
21.315415
 30
0.0
 10
51.409270
 20
21.488411
 30
0.0
  0
SPLINE
  5
118
100
AcDbEntity
  8
Layer_1
 62
1
100
AcDbSpline
 70
8
 71
3
 72
8
 73
4
 74
0
 40
0
 40
0
 40
0
 40
0
 40
1
 40
1
 40
1
 40
1
 10
51.409270
 20
21.488411
 30
0.0
 10
51.386720
 20
21.661399
 30
0.0
 10
51.358504
 20
21.808065
 30
0.0
 10
51.324657
 20
21.928413
 30
0.0
  0
SPLINE
  5
119
100
AcDbEntity
  8
Layer_1
 62
1
100
AcDbSpline
 70
8
 71
3
 72
8
 73
4
 74
0
 40
0
 40
0
 40
0
 40
0
 40
1
 40
1
 40
1
 40
1
 10
51.324657
 20
21.928413
 30
0.0
 10
51.287051
 20
22.052509
 30
0.0
 10
51.232520
 20
22.189773
 30
0.0
 10
51.161067
 20
22.340206
 30
0.0
  0
SPLINE
  5
11a
100
AcDbEntity
  8
Layer_1
 62
1
100
AcDbSpline
 70
8
 71
3
 72
8
 73
4
 74
0
 40
0
 40
0
 40
0
 40
0
 40
1
 40
1
 40
1
 40
1
 10
51.161067
 20
22.340206
 30
0.0
 10
51.085854
 20
22.490628
 30
0.0
 10
50.997477
 20
22.610970
 30
0.0
 10
50.895939
 20
22.701233
 30
0.0
  0
SPLINE
  5
11b
100
AcDbEntity
  8
Layer_1
 62
1
100
AcDbSpline
 70
8
 71
3
 72
8
 73
4
 74
0
 40
0
 40
0
 40
0
 40
0
 40
1
 40
1
 40
1
 40
1
 10
50.895939
 20
22.701233
 30
0.0
 10
50.794401
 20
22.795244
 30
0.0
 10
50.664658
 20
22.874218
 30
0.0
 10
50.506706
 20
22.938156
 30
0.0
  0
SPLINE
  5
11c
100
AcDbEntity
  8
Layer_1
 62
1
100
AcDbSpline
 70
8
 71
3
 72
8
 73
4
 74
0
 40
0
 40
0
 40
0
 40
0
 40
1
 40
1
 40
1
 40
1
 10
50.506706
 20
22.938156
 30
0.0
 10
50.344999
 20
23.002082
 30
0.0
 10
50.162607
 20
23.034046
 30
0.0
 10
49.959528
 20
23.034055
 30
0.0
  0
SPLINE
  5
11d
100
AcDbEntity
  8
Layer_1
 62
1
100
AcDbSpline
 70
8
 71
3
 72
8
 73
4
 74
0
 40
0
 40
0
 40
0
 40
0
 40
1
 40
1
 40
1
 40
1
 10
49.959528
 20
23.034055
 30
0.0
 10
49.459360
 20
23.034046
 30
0.0
 10
49.068248
 20
22.840371
 30
0.0
 10
48.786192
 20
22.453027
 30
0.0
  0
SPLINE
  5
11e
100
AcDbEntity
  8
Layer_1
 62
1
100
AcDbSpline
 70
8
 71
3
 72
8
 73
4
 74
0
 40
0
 40
0
 40
0
 40
0
 40
1
 40
1
 40
1
 40
1
 10
48.786192
 20
22.453027
 30
0.0
 10
48.504145
 20
22.065671
 30
0.0
 10
48.363118
 20
21.544816
 30
0.0
 10
48.363116
 20
20.890464
 30
0.0
  0
SPLINE
  5
11f
100
AcDbEntity
  8
Layer_1
 62
1
100
AcDbSpline
 70
8
 71
3
 72
8
 73
4
 74
0
 40
0
 40
0
 40
0
 40
0
 40
1
 40
1
 40
1
 40
1
 10
48.363116
 20
20.890464
 30
0.0
 10
48.363118
 20
20.819006
 30
0.0
 10
48.389447
 20
20.273707
 30
0.0
 10
48.442090
 20
19.254566
 30
0.0
  0
LWPOLYLINE
  5
120
100
AcDbEntity
  8
Layer_1
 62
1
100
AcDbPolyline
 90
3
 70
0
 10
48.442090
 20
19.254566
 30
0.0
 10
51.443117
 20
19.254566
 30
0.0
 10
51.443117
 20
20.749438
 30
0.0
  0
SPLINE
  5
121
100
AcDbEntity
  8
Layer_1
 62
1
100
AcDbSpline
 70
8
 71
3
 72
8
 73
4
 74
0
 40
0
 40
0
 40
0
 40
0
 40
1
 40
1
 40
1
 40
1
 10
44.273371
 20
21.121745
 30
0.0
 10
44.273377
 20
21.396271
 30
0.0
 10
44.303465
 20
21.646357
 30
0.0
 10
44.363626
 20
21.872002
 30
0.0
  0
SPLINE
  5
122
100
AcDbEntity
  8
Layer_1
 62
1
100
AcDbSpline
 70
8
 71
3
 72
8
 73
4
 74
0
 40
0
 40
0
 40
0
 40
0
 40
1
 40
1
 40
1
 40
1
 10
44.363626
 20
21.872002
 30
0.0
 10
44.420045
 20
22.101398
 30
0.0
 10
44.493378
 20
22.289431
 30
0.0
 10
44.583627
 20
22.436105
 30
0.0
  0
SPLINE
  5
123
100
AcDbEntity
  8
Layer_1
 62
1
100
AcDbSpline
 70
8
 71
3
 72
8
 73
4
 74
0
 40
0
 40
0
 40
0
 40
0
 40
1
 40
1
 40
1
 40
1
 10
44.583627
 20
22.436105
 30
0.0
 10
44.673890
 20
22.586527
 30
0.0
 10
44.781069
 20
22.718149
 30
0.0
 10
44.905165
 20
22.830976
 30
0.0
  0
SPLINE
  5
124
100
AcDbEntity
  8
Layer_1
 62
1
100
AcDbSpline
 70
8
 71
3
 72
8
 73
4
 74
0
 40
0
 40
0
 40
0
 40
0
 40
1
 40
1
 40
1
 40
1
 10
44.905165
 20
22.830976
 30
0.0
 10
45.029275
 20
22.947551
 30
0.0
 10
45.149618
 20
23.035929
 30
0.0
 10
45.266192
 20
23.096104
 30
0.0
  0
SPLINE
  5
125
100
AcDbEntity
  8
Layer_1
 62
1
100
AcDbSpline
 70
8
 71
3
 72
8
 73
4
 74
0
 40
0
 40
0
 40
0
 40
0
 40
1
 40
1
 40
1
 40
1
 10
45.266192
 20
23.096104
 30
0.0
 10
45.382778
 20
23.156268
 30
0.0
 10
45.506883
 20
23.205158
 30
0.0
 10
45.638500
 20
23.242772
 30
0.0
  0
SPLINE
  5
126
100
AcDbEntity
  8
Layer_1
 62
1
100
AcDbSpline
 70
8
 71
3
 72
8
 73
4
 74
0
 40
0
 40
0
 40
0
 40
0
 40
1
 40
1
 40
1
 40
1
 10
45.638500
 20
23.242772
 30
0.0
 10
45.770128
 20
23.280373
 30
0.0
 10
45.879190
 20
23.302936
 30
0.0
 10
45.965677
 20
23.310463
 30
0.0
  0
SPLINE
  5
127
100
AcDbEntity
  8
Layer_1
 62
1
100
AcDbSpline
 70
8
 71
3
 72
8
 73
4
 74
0
 40
0
 40
0
 40
0
 40
0
 40
1
 40
1
 40
1
 40
1
 10
45.965677
 20
23.310463
 30
0.0
 10
46.048419
 20
23.321724
 30
0.0
 10
46.127393
 20
23.327368
 30
0.0
 10
46.202603
 20
23.327397
 30
0.0
  0
SPLINE
  5
128
100
AcDbEntity
  8
Layer_1
 62
1
100
AcDbSpline
 70
8
 71
3
 72
8
 73
4
 74
0
 40
0
 40
0
 40
0
 40
0
 40
1
 40
1
 40
1
 40
1
 10
46.202603
 20
23.327397
 30
0.0
 10
46.529789
 20
23.327388
 30
0.0
 10
46.856966
 20
23.216449
 30
0.0
 10
47.184141
 20
22.994575
 30
0.0
  0
SPLINE
  5
129
100
AcDbEntity
  8
Layer_1
 62
1
100
AcDbSpline
 70
8
 71
3
 72
8
 73
4
 74
0
 40
0
 40
0
 40
0
 40
0
 40
1
 40
1
 40
1
 40
1
 10
47.184141
 20
22.994575
 30
0.0
 10
47.507565
 20
22.772689
 30
0.0
 10
47.716282
 20
22.537646
 30
0.0
 10
47.810296
 20
22.289445
 30
0.0
  0
SPLINE
  5
12a
100
AcDbEntity
  8
Layer_1
 62
1
100
AcDbSpline
 70
8
 71
3
 72
8
 73
4
 74
0
 40
0
 40
0
 40
0
 40
0
 40
1
 40
1
 40
1
 40
1
 10
47.810296
 20
22.289445
 30
0.0
 10
47.900556
 20
22.785852
 30
0.0
 10
48.141238
 20
23.192003
 30
0.0
 10
48.532347
 20
23.507909
 30
0.0
  0
SPLINE
  5
12b
100
AcDbEntity
  8
Layer_1
 62
1
100
AcDbSpline
 70
8
 71
3
 72
8
 73
4
 74
0
 40
0
 40
0
 40
0
 40
0
 40
1
 40
1
 40
1
 40
1
 10
48.532347
 20
23.507909
 30
0.0
 10
48.919700
 20
23.827559
 30
0.0
 10
49.361581
 20
23.987387
 30
0.0
 10
49.857987
 20
23.987396
 30
0.0
  0
SPLINE
  5
12c
100
AcDbEntity
  8
Layer_1
 62
1
100
AcDbSpline
 70
8
 71
3
 72
8
 73
4
 74
0
 40
0
 40
0
 40
0
 40
0
 40
1
 40
1
 40
1
 40
1
 10
49.857987
 20
23.987396
 30
0.0
 10
49.974571
 20
23.987387
 30
0.0
 10
50.096795
 20
23.976107
 30
0.0
 10
50.224656
 20
23.953549
 30
0.0
  0
SPLINE
  5
12d
100
AcDbEntity
  8
Layer_1
 62
1
100
AcDbSpline
 70
8
 71
3
 72
8
 73
4
 74
0
 40
0
 40
0
 40
0
 40
0
 40
1
 40
1
 40
1
 40
1
 10
50.224656
 20
23.953549
 30
0.0
 10
50.352520
 20
23.934753
 30
0.0
 10
50.497305
 20
23.895253
 30
0.0
 10
50.659013
 20
23.835089
 30
0.0
  0
SPLINE
  5
12e
100
AcDbEntity
  8
Layer_1
 62
1
100
AcDbSpline
 70
8
 71
3
 72
8
 73
4
 74
0
 40
0
 40
0
 40
0
 40
0
 40
1
 40
1
 40
1
 40
1
 10
50.659013
 20
23.835089
 30
0.0
 10
50.820726
 20
23.774911
 30
0.0
 10
50.974913
 20
23.697816
 30
0.0
 10
51.121578
 20
23.603805
 30
0.0
  0
SPLINE
  5
12f
100
AcDbEntity
  8
Layer_1
 62
1
100
AcDbSpline
 70
8
 71
3
 72
8
 73
4
 74
0
 40
0
 40
0
 40
0
 40
0
 40
1
 40
1
 40
1
 40
1
 10
51.121578
 20
23.603805
 30
0.0
 10
51.268246
 20
23.509783
 30
0.0
 10
51.414914
 20
23.381919
 30
0.0
 10
51.561579
 20
23.220217
 30
0.0
  0
SPLINE
  5
130
100
AcDbEntity
  8
Layer_1
 62
1
100
AcDbSpline
 70
8
 71
3
 72
8
 73
4
 74
0
 40
0
 40
0
 40
0
 40
0
 40
1
 40
1
 40
1
 40
1
 10
51.561579
 20
23.220217
 30
0.0
 10
51.704486
 20
23.058501
 30
0.0
 10
51.828587
 20
22.872347
 30
0.0
 10
51.933887
 20
22.661753
 30
0.0
  0
SPLINE
  5
131
100
AcDbEntity
  8
Layer_1
 62
1
100
AcDbSpline
 70
8
 71
3
 72
8
 73
4
 74
0
 40
0
 40
0
 40
0
 40
0
 40
1
 40
1
 40
1
 40
1
 10
51.933887
 20
22.661753
 30
0.0
 10
52.039187
 20
22.454910
 30
0.0
 10
52.125682
 20
22.199185
 30
0.0
 10
52.193373
 20
21.894574
 30
0.0
  0
SPLINE
  5
132
100
AcDbEntity
  8
Layer_1
 62
1
100
AcDbSpline
 70
8
 71
3
 72
8
 73
4
 74
0
 40
0
 40
0
 40
0
 40
0
 40
1
 40
1
 40
1
 40
1
 10
52.193373
 20
21.894574
 30
0.0
 10
52.257305
 20
21.593714
 30
0.0
 10
52.289273
 20
21.262775
 30
0.0
 10
52.289273
 20
20.901753
 30
0.0
  0
LWPOLYLINE
  5
133
100
AcDbEntity
  8
Layer_1
 62
1
100
AcDbPolyline
 90
2
 70
0
 10
44.273371
 20
18.295589
 30
0.0
 10
44.273371
 20
21.121745
 30
0.0
  0
SPLINE
  5
134
100
AcDbEntity
  8
Layer_1
 62
1
100
AcDbSpline
 70
8
 71
3
 72
8
 73
4
 74
0
 40
0
 40
0
 40
0
 40
0
 40
1
 40
1
 40
1
 40
1
 10
44.200027
 20
13.619178
 30
0.0
 10
44.200036
 20
14.235924
 30
0.0
 10
44.307215
 20
14.899685
 30
0.0
 10
44.521566
 20
15.610459
 30
0.0
  0
LWPOLYLINE
  5
135
100
AcDbEntity
  8
Layer_1
 62
1
100
AcDbPolyline
 90
3
 70
0
 10
52.289273
 20
20.901753
 30
0.0
 10
52.289273
 20
18.295597
 30
0.0
 10
44.273371
 20
18.295597
 30
0.0
  0
SPLINE
  5
136
100
AcDbEntity
  8
Layer_1
 62
1
100
AcDbSpline
 70
8
 71
3
 72
8
 73
4
 74
0
 40
0
 40
0
 40
0
 40
0
 40
1
 40
1
 40
1
 40
1
 10
45.395927
 20
15.300204
 30
0.0
 10
45.200378
 20
14.623274
 30
0.0
 10
45.102599
 20
14.036607
 30
0.0
 10
45.102594
 20
13.540201
 30
0.0
  0
SPLINE
  5
137
100
AcDbEntity
  8
Layer_1
 62
1
100
AcDbSpline
 70
8
 71
3
 72
8
 73
4
 74
0
 40
0
 40
0
 40
0
 40
0
 40
1
 40
1
 40
1
 40
1
 10
45.102594
 20
13.540201
 30
0.0
 10
45.102599
 20
12.983616
 30
0.0
 10
45.221062
 20
12.511651
 30
0.0
 10
45.457976
 20
12.124303
 30
0.0
  0
SPLINE
  5
138
100
AcDbEntity
  8
Layer_1
 62
1
100
AcDbSpline
 70
8
 71
3
 72
8
 73
4
 74
0
 40
0
 40
0
 40
0
 40
0
 40
1
 40
1
 40
1
 40
1
 10
45.457976
 20
12.124303
 30
0.0
 10
45.691146
 20
11.740713
 30
0.0
 10
45.993883
 20
11.548917
 30
0.0
 10
46.366184
 20
11.548920
 30
0.0
  0
SPLINE
  5
139
100
AcDbEntity
  8
Layer_1
 62
1
100
AcDbSpline
 70
8
 71
3
 72
8
 73
4
 74
0
 40
0
 40
0
 40
0
 40
0
 40
1
 40
1
 40
1
 40
1
 10
46.366184
 20
11.548920
 30
0.0
 10
46.573028
 20
11.548917
 30
0.0
 10
46.757299
 20
11.610969
 30
0.0
 10
46.919004
 20
11.735074
 30
0.0
  0
SPLINE
  5
13a
100
AcDbEntity
  8
Layer_1
 62
1
100
AcDbSpline
 70
8
 71
3
 72
8
 73
4
 74
0
 40
0
 40
0
 40
0
 40
0
 40
1
 40
1
 40
1
 40
1
 10
46.919004
 20
11.735074
 30
0.0
 10
47.080718
 20
11.859173
 30
0.0
 10
47.212343
 20
12.022763
 30
0.0
 10
47.313875
 20
12.225844
 30
0.0
  0
SPLINE
  5
13b
100
AcDbEntity
  8
Layer_1
 62
1
100
AcDbSpline
 70
8
 71
3
 72
8
 73
4
 74
0
 40
0
 40
0
 40
0
 40
0
 40
1
 40
1
 40
1
 40
1
 10
47.313875
 20
12.225844
 30
0.0
 10
47.415419
 20
12.428917
 30
0.0
 10
47.516957
 20
12.660198
 30
0.0
 10
47.618492
 20
12.919690
 30
0.0
  0
SPLINE
  5
13c
100
AcDbEntity
  8
Layer_1
 62
1
100
AcDbSpline
 70
8
 71
3
 72
8
 73
4
 74
0
 40
0
 40
0
 40
0
 40
0
 40
1
 40
1
 40
1
 40
1
 10
47.618492
 20
12.919690
 30
0.0
 10
47.716273
 20
13.179171
 30
0.0
 10
47.806531
 20
13.442419
 30
0.0
 10
47.889262
 20
13.709433
 30
0.0
  0
SPLINE
  5
13d
100
AcDbEntity
  8
Layer_1
 62
1
100
AcDbSpline
 70
8
 71
3
 72
8
 73
4
 74
0
 40
0
 40
0
 40
0
 40
0
 40
1
 40
1
 40
1
 40
1
 10
47.889262
 20
13.709433
 30
0.0
 10
47.972001
 20
13.980197
 30
0.0
 10
48.077301
 20
14.245325
 30
0.0
 10
48.205159
 20
14.504820
 30
0.0
  0
SPLINE
  5
13e
100
AcDbEntity
  8
Layer_1
 62
1
100
AcDbSpline
 70
8
 71
3
 72
8
 73
4
 74
0
 40
0
 40
0
 40
0
 40
0
 40
1
 40
1
 40
1
 40
1
 10
48.205159
 20
14.504820
 30
0.0
 10
48.333025
 20
14.764300
 30
0.0
 10
48.474051
 20
14.995581
 30
0.0
 10
48.628235
 20
15.198666
 30
0.0
  0
SPLINE
  5
13f
100
AcDbEntity
  8
Layer_1
 62
1
100
AcDbSpline
 70
8
 71
3
 72
8
 73
4
 74
0
 40
0
 40
0
 40
0
 40
0
 40
1
 40
1
 40
1
 40
1
 10
48.628235
 20
15.198666
 30
0.0
 10
48.778665
 20
15.401736
 30
0.0
 10
48.976102
 20
15.565326
 30
0.0
 10
49.220543
 20
15.689433
 30
0.0
  0
SPLINE
  5
140
100
AcDbEntity
  8
Layer_1
 62
1
100
AcDbSpline
 70
8
 71
3
 72
8
 73
4
 74
0
 40
0
 40
0
 40
0
 40
0
 40
1
 40
1
 40
1
 40
1
 10
49.220543
 20
15.689433
 30
0.0
 10
49.464990
 20
15.813529
 30
0.0
 10
49.741401
 20
15.875581
 30
0.0
 10
50.049774
 20
15.875587
 30
0.0
  0
SPLINE
  5
141
100
AcDbEntity
  8
Layer_1
 62
1
100
AcDbSpline
 70
8
 71
3
 72
8
 73
4
 74
0
 40
0
 40
0
 40
0
 40
0
 40
1
 40
1
 40
1
 40
1
 10
50.049774
 20
15.875587
 30
0.0
 10
50.264136
 20
15.875581
 30
0.0
 10
50.478495
 20
15.841734
 30
0.0
 10
50.692852
 20
15.774049
 30
0.0
  0
SPLINE
  5
142
100
AcDbEntity
  8
Layer_1
 62
1
100
AcDbSpline
 70
8
 71
3
 72
8
 73
4
 74
0
 40
0
 40
0
 40
0
 40
0
 40
1
 40
1
 40
1
 40
1
 10
50.692852
 20
15.774049
 30
0.0
 10
50.903451
 20
15.706350
 30
0.0
 10
51.114051
 20
15.593531
 30
0.0
 10
51.324648
 20
15.435588
 30
0.0
  0
SPLINE
  5
143
100
AcDbEntity
  8
Layer_1
 62
1
100
AcDbSpline
 70
8
 71
3
 72
8
 73
4
 74
0
 40
0
 40
0
 40
0
 40
0
 40
1
 40
1
 40
1
 40
1
 10
51.324648
 20
15.435588
 30
0.0
 10
51.531486
 20
15.277632
 30
0.0
 10
51.713878
 20
15.082077
 30
0.0
 10
51.871826
 20
14.848922
 30
0.0
  0
SPLINE
  5
144
100
AcDbEntity
  8
Layer_1
 62
1
100
AcDbSpline
 70
8
 71
3
 72
8
 73
4
 74
0
 40
0
 40
0
 40
0
 40
0
 40
1
 40
1
 40
1
 40
1
 10
51.871826
 20
14.848922
 30
0.0
 10
52.029775
 20
14.615753
 30
0.0
 10
52.157638
 20
14.320540
 30
0.0
 10
52.255417
 20
13.963280
 30
0.0
  0
SPLINE
  5
145
100
AcDbEntity
  8
Layer_1
 62
1
100
AcDbSpline
 70
8
 71
3
 72
8
 73
4
 74
0
 40
0
 40
0
 40
0
 40
0
 40
1
 40
1
 40
1
 40
1
 10
52.255417
 20
13.963280
 30
0.0
 10
52.353196
 20
13.609772
 30
0.0
 10
52.402082
 20
13.214898
 30
0.0
 10
52.402082
 20
12.778664
 30
0.0
  0
SPLINE
  5
146
100
AcDbEntity
  8
Layer_1
 62
1
100
AcDbSpline
 70
8
 71
3
 72
8
 73
4
 74
0
 40
0
 40
0
 40
0
 40
0
 40
1
 40
1
 40
1
 40
1
 10
52.402082
 20
12.778664
 30
0.0
 10
52.402082
 20
12.342422
 30
0.0
 10
52.356955
 20
11.940026
 30
0.0
 10
52.266698
 20
11.571484
 30
0.0
  0
SPLINE
  5
147
100
AcDbEntity
  8
Layer_1
 62
1
100
AcDbSpline
 70
8
 71
3
 72
8
 73
4
 74
0
 40
0
 40
0
 40
0
 40
0
 40
1
 40
1
 40
1
 40
1
 10
52.266698
 20
11.571484
 30
0.0
 10
52.176443
 20
11.206694
 30
0.0
 10
52.041058
 20
10.796781
 30
0.0
 10
51.860546
 20
10.341740
 30
0.0
  0
LWPOLYLINE
  5
148
100
AcDbEntity
  8
Layer_1
 62
1
100
AcDbPolyline
 90
2
 70
0
 10
44.521566
 20
15.610459
 30
0.0
 10
45.395927
 20
15.300204
 30
0.0
  0
SPLINE
  5
149
100
AcDbEntity
  8
Layer_1
 62
1
100
AcDbSpline
 70
8
 71
3
 72
8
 73
4
 74
0
 40
0
 40
0
 40
0
 40
0
 40
1
 40
1
 40
1
 40
1
 10
50.929774
 20
10.668920
 30
0.0
 10
51.279521
 20
11.609087
 30
0.0
 10
51.454391
 20
12.351822
 30
0.0
 10
51.454391
 20
12.897124
 30
0.0
  0
SPLINE
  5
14a
100
AcDbEntity
  8
Layer_1
 62
1
100
AcDbSpline
 70
8
 71
3
 72
8
 73
4
 74
0
 40
0
 40
0
 40
0
 40
0
 40
1
 40
1
 40
1
 40
1
 10
51.454391
 20
12.897124
 30
0.0
 10
51.454391
 20
13.468745
 30
0.0
 10
51.339691
 20
13.933190
 30
0.0
 10
51.110289
 20
14.290461
 30
0.0
  0
SPLINE
  5
14b
100
AcDbEntity
  8
Layer_1
 62
1
100
AcDbSpline
 70
8
 71
3
 72
8
 73
4
 74
0
 40
0
 40
0
 40
0
 40
0
 40
1
 40
1
 40
1
 40
1
 10
51.110289
 20
14.290461
 30
0.0
 10
50.880888
 20
14.651479
 30
0.0
 10
50.574392
 20
14.831991
 30
0.0
 10
50.190801
 20
14.831997
 30
0.0
  0
SPLINE
  5
14c
100
AcDbEntity
  8
Layer_1
 62
1
100
AcDbSpline
 70
8
 71
3
 72
8
 73
4
 74
0
 40
0
 40
0
 40
0
 40
0
 40
1
 40
1
 40
1
 40
1
 10
50.190801
 20
14.831997
 30
0.0
 10
49.935076
 20
14.831991
 30
0.0
 10
49.715076
 20
14.751137
 30
0.0
 10
49.530802
 20
14.589433
 30
0.0
  0
SPLINE
  5
14d
100
AcDbEntity
  8
Layer_1
 62
1
100
AcDbSpline
 70
8
 71
3
 72
8
 73
4
 74
0
 40
0
 40
0
 40
0
 40
0
 40
1
 40
1
 40
1
 40
1
 10
49.530802
 20
14.589433
 30
0.0
 10
49.342768
 20
14.431478
 30
0.0
 10
49.192341
 20
14.224641
 30
0.0
 10
49.079517
 20
13.968922
 30
0.0
  0
SPLINE
  5
14e
100
AcDbEntity
  8
Layer_1
 62
1
100
AcDbSpline
 70
8
 71
3
 72
8
 73
4
 74
0
 40
0
 40
0
 40
0
 40
0
 40
1
 40
1
 40
1
 40
1
 10
49.079517
 20
13.968922
 30
0.0
 10
48.962939
 20
13.716951
 30
0.0
 10
48.855760
 20
13.436778
 30
0.0
 10
48.757978
 20
13.128408
 30
0.0
  0
SPLINE
  5
14f
100
AcDbEntity
  8
Layer_1
 62
1
100
AcDbSpline
 70
8
 71
3
 72
8
 73
4
 74
0
 40
0
 40
0
 40
0
 40
0
 40
1
 40
1
 40
1
 40
1
 10
48.757978
 20
13.128408
 30
0.0
 10
48.656443
 20
12.820026
 30
0.0
 10
48.549264
 20
12.511651
 30
0.0
 10
48.436440
 20
12.203278
 30
0.0
  0
SPLINE
  5
150
100
AcDbEntity
  8
Layer_1
 62
1
100
AcDbSpline
 70
8
 71
3
 72
8
 73
4
 74
0
 40
0
 40
0
 40
0
 40
0
 40
1
 40
1
 40
1
 40
1
 10
48.436440
 20
12.203278
 30
0.0
 10
48.319862
 20
11.898661
 30
0.0
 10
48.186360
 20
11.618491
 30
0.0
 10
48.035927
 20
11.362766
 30
0.0
  0
SPLINE
  5
151
100
AcDbEntity
  8
Layer_1
 62
1
100
AcDbSpline
 70
8
 71
3
 72
8
 73
4
 74
0
 40
0
 40
0
 40
0
 40
0
 40
1
 40
1
 40
1
 40
1
 10
48.035927
 20
11.362766
 30
0.0
 10
47.885505
 20
11.110798
 30
0.0
 10
47.682427
 20
10.903960
 30
0.0
 10
47.426697
 20
10.742253
 30
0.0
  0
SPLINE
  5
152
100
AcDbEntity
  8
Layer_1
 62
1
100
AcDbSpline
 70
8
 71
3
 72
8
 73
4
 74
0
 40
0
 40
0
 40
0
 40
0
 40
1
 40
1
 40
1
 40
1
 10
47.426697
 20
10.742253
 30
0.0
 10
47.170975
 20
10.584301
 30
0.0
 10
46.870120
 20
10.505327
 30
0.0
 10
46.524133
 20
10.505330
 30
0.0
  0
SPLINE
  5
153
100
AcDbEntity
  8
Layer_1
 62
1
100
AcDbSpline
 70
8
 71
3
 72
8
 73
4
 74
0
 40
0
 40
0
 40
0
 40
0
 40
1
 40
1
 40
1
 40
1
 10
46.524133
 20
10.505330
 30
0.0
 10
46.215763
 20
10.505327
 30
0.0
 10
45.920547
 20
10.578660
 30
0.0
 10
45.638491
 20
10.725328
 30
0.0
  0
SPLINE
  5
154
100
AcDbEntity
  8
Layer_1
 62
1
100
AcDbSpline
 70
8
 71
3
 72
8
 73
4
 74
0
 40
0
 40
0
 40
0
 40
0
 40
1
 40
1
 40
1
 40
1
 10
45.638491
 20
10.725328
 30
0.0
 10
45.356447
 20
10.875755
 30
0.0
 10
45.110121
 20
11.082593
 30
0.0
 10
44.899515
 20
11.345841
 30
0.0
  0
SPLINE
  5
155
100
AcDbEntity
  8
Layer_1
 62
1
100
AcDbSpline
 70
8
 71
3
 72
8
 73
4
 74
0
 40
0
 40
0
 40
0
 40
0
 40
1
 40
1
 40
1
 40
1
 10
44.899515
 20
11.345841
 30
0.0
 10
44.685164
 20
11.609087
 30
0.0
 10
44.515933
 20
11.938147
 30
0.0
 10
44.391823
 20
12.333024
 30
0.0
  0
SPLINE
  5
156
100
AcDbEntity
  8
Layer_1
 62
1
100
AcDbSpline
 70
8
 71
3
 72
8
 73
4
 74
0
 40
0
 40
0
 40
0
 40
0
 40
1
 40
1
 40
1
 40
1
 10
44.391823
 20
12.333024
 30
0.0
 10
44.263968
 20
12.727889
 30
0.0
 10
44.200036
 20
13.156607
 30
0.0
 10
44.200027
 20
13.619178
 30
0.0
  0
LWPOLYLINE
  5
157
100
AcDbEntity
  8
Layer_1
 62
1
100
AcDbPolyline
 90
2
 70
0
 10
51.860546
 20
10.341740
 30
0.0
 10
50.929774
 20
10.668920
 30
0.0
  0
SPLINE
  5
158
100
AcDbEntity
  8
Layer_1
 62
1
100
AcDbSpline
 70
8
 71
3
 72
8
 73
4
 74
0
 40
0
 40
0
 40
0
 40
0
 40
1
 40
1
 40
1
 40
1
 10
49.468749
 20
2.647386
 30
0.0
 10
49.788408
 20
2.647386
 30
0.0
 10
50.062940
 20
2.673632
 30
0.0
 10
50.292339
 20
2.726351
 30
0.0
  0
SPLINE
  5
159
100
AcDbEntity
  8
Layer_1
 62
1
100
AcDbSpline
 70
8
 71
3
 72
8
 73
4
 74
0
 40
0
 40
0
 40
0
 40
0
 40
1
 40
1
 40
1
 40
1
 10
50.292339
 20
2.726351
 30
0.0
 10
50.521743
 20
2.782768
 30
0.0
 10
50.736102
 20
2.899325
 30
0.0
 10
50.935416
 20
3.076081
 30
0.0
  0
SPLINE
  5
15a
100
AcDbEntity
  8
Layer_1
 62
1
100
AcDbSpline
 70
8
 71
3
 72
8
 73
4
 74
0
 40
0
 40
0
 40
0
 40
0
 40
1
 40
1
 40
1
 40
1
 10
50.935416
 20
3.076081
 30
0.0
 10
51.360375
 20
3.452170
 30
0.0
 10
51.572854
 20
4.006850
 30
0.0
 10
51.572851
 20
4.740204
 30
0.0
  0
SPLINE
  5
15b
100
AcDbEntity
  8
Layer_1
 62
1
100
AcDbSpline
 70
8
 71
3
 72
8
 73
4
 74
0
 40
0
 40
0
 40
0
 40
0
 40
1
 40
1
 40
1
 40
1
 10
51.572851
 20
4.740204
 30
0.0
 10
51.572854
 20
5.270444
 30
0.0
 10
51.458154
 20
5.712319
 30
0.0
 10
51.228749
 20
6.065830
 30
0.0
  0
SPLINE
  5
15c
100
AcDbEntity
  8
Layer_1
 62
1
100
AcDbSpline
 70
8
 71
3
 72
8
 73
4
 74
0
 40
0
 40
0
 40
0
 40
0
 40
1
 40
1
 40
1
 40
1
 10
51.228749
 20
6.065830
 30
0.0
 10
50.995588
 20
6.423096
 30
0.0
 10
50.668408
 20
6.654377
 30
0.0
 10
50.247211
 20
6.759674
 30
0.0
  0
SPLINE
  5
15d
100
AcDbEntity
  8
Layer_1
 62
1
100
AcDbSpline
 70
8
 71
3
 72
8
 73
4
 74
0
 40
0
 40
0
 40
0
 40
0
 40
1
 40
1
 40
1
 40
1
 10
50.247211
 20
6.759674
 30
0.0
 10
50.047898
 20
6.808555
 30
0.0
 10
49.788408
 20
6.833023
 30
0.0
 10
49.468749
 20
6.833023
 30
0.0
  0
LWPOLYLINE
  5
15e
100
AcDbEntity
  8
Layer_1
 62
1
100
AcDbPolyline
 90
3
 70
0
 10
44.273363
 20
1.688394
 30
0.0
 10
44.273363
 20
2.647386
 30
0.0
 10
49.468749
 20
2.647386
 30
0.0
  0
SPLINE
  5
15f
100
AcDbEntity
  8
Layer_1
 62
1
100
AcDbSpline
 70
8
 71
3
 72
8
 73
4
 74
0
 40
0
 40
0
 40
0
 40
0
 40
1
 40
1
 40
1
 40
1
 10
44.273363
 20
7.780711
 30
0.0
 10
45.480549
 20
7.780706
 30
0.0
 10
46.467728
 20
7.780706
 30
0.0
 10
47.234901
 20
7.780711
 30
0.0
  0
SPLINE
  5
160
100
AcDbEntity
  8
Layer_1
 62
1
100
AcDbSpline
 70
8
 71
3
 72
8
 73
4
 74
0
 40
0
 40
0
 40
0
 40
0
 40
1
 40
1
 40
1
 40
1
 10
47.234901
 20
7.780711
 30
0.0
 10
48.002086
 20
7.784465
 30
0.0
 10
48.494736
 20
7.786356
 30
0.0
 10
48.712851
 20
7.786356
 30
0.0
  0
SPLINE
  5
161
100
AcDbEntity
  8
Layer_1
 62
1
100
AcDbSpline
 70
8
 71
3
 72
8
 73
4
 74
0
 40
0
 40
0
 40
0
 40
0
 40
1
 40
1
 40
1
 40
1
 10
48.712851
 20
7.786356
 30
0.0
 10
48.927213
 20
7.786347
 30
0.0
 10
49.100204
 20
7.786347
 30
0.0
 10
49.231827
 20
7.786356
 30
0.0
  0
SPLINE
  5
162
100
AcDbEntity
  8
Layer_1
 62
1
100
AcDbSpline
 70
8
 71
3
 72
8
 73
4
 74
0
 40
0
 40
0
 40
0
 40
0
 40
1
 40
1
 40
1
 40
1
 10
49.231827
 20
7.786356
 30
0.0
 10
49.359693
 20
7.790109
 30
0.0
 10
49.466873
 20
7.792000
 30
0.0
 10
49.553365
 20
7.792000
 30
0.0
  0
SPLINE
  5
163
100
AcDbEntity
  8
Layer_1
 62
1
100
AcDbSpline
 70
8
 71
3
 72
8
 73
4
 74
0
 40
0
 40
0
 40
0
 40
0
 40
1
 40
1
 40
1
 40
1
 10
49.553365
 20
7.792000
 30
0.0
 10
49.726359
 20
7.791992
 30
0.0
 10
49.878666
 20
7.788247
 30
0.0
 10
50.010289
 20
7.780711
 30
0.0
  0
SPLINE
  5
164
100
AcDbEntity
  8
Layer_1
 62
1
100
AcDbSpline
 70
8
 71
3
 72
8
 73
4
 74
0
 40
0
 40
0
 40
0
 40
0
 40
1
 40
1
 40
1
 40
1
 10
50.010289
 20
7.780711
 30
0.0
 10
50.138152
 20
7.773176
 30
0.0
 10
50.307384
 20
7.746859
 30
0.0
 10
50.517981
 20
7.701737
 30
0.0
  0
SPLINE
  5
165
100
AcDbEntity
  8
Layer_1
 62
1
100
AcDbSpline
 70
8
 71
3
 72
8
 73
4
 74
0
 40
0
 40
0
 40
0
 40
0
 40
1
 40
1
 40
1
 40
1
 10
50.517981
 20
7.701737
 30
0.0
 10
50.728581
 20
7.660363
 30
0.0
 10
50.912852
 20
7.602073
 30
0.0
 10
51.070801
 20
7.526867
 30
0.0
  0
SPLINE
  5
166
100
AcDbEntity
  8
Layer_1
 62
1
100
AcDbSpline
 70
8
 71
3
 72
8
 73
4
 74
0
 40
0
 40
0
 40
0
 40
0
 40
1
 40
1
 40
1
 40
1
 10
51.070801
 20
7.526867
 30
0.0
 10
51.224990
 20
7.451646
 30
0.0
 10
51.390460
 20
7.336945
 30
0.0
 10
51.567213
 20
7.182764
 30
0.0
  0
SPLINE
  5
167
100
AcDbEntity
  8
Layer_1
 62
1
100
AcDbSpline
 70
8
 71
3
 72
8
 73
4
 74
0
 40
0
 40
0
 40
0
 40
0
 40
1
 40
1
 40
1
 40
1
 10
51.567213
 20
7.182764
 30
0.0
 10
51.743966
 20
7.032329
 30
0.0
 10
51.890631
 20
6.851819
 30
0.0
 10
52.007211
 20
6.641225
 30
0.0
  0
SPLINE
  5
168
100
AcDbEntity
  8
Layer_1
 62
1
100
AcDbSpline
 70
8
 71
3
 72
8
 73
4
 74
0
 40
0
 40
0
 40
0
 40
0
 40
1
 40
1
 40
1
 40
1
 10
52.007211
 20
6.641225
 30
0.0
 10
52.120032
 20
6.434384
 30
0.0
 10
52.214049
 20
6.167374
 30
0.0
 10
52.289264
 20
5.840194
 30
0.0
  0
SPLINE
  5
169
100
AcDbEntity
  8
Layer_1
 62
1
100
AcDbSpline
 70
8
 71
3
 72
8
 73
4
 74
0
 40
0
 40
0
 40
0
 40
0
 40
1
 40
1
 40
1
 40
1
 10
52.289264
 20
5.840194
 30
0.0
 10
52.364476
 20
5.516767
 30
0.0
 10
52.402082
 20
5.150104
 30
0.0
 10
52.402082
 20
4.740204
 30
0.0
  0
SPLINE
  5
16a
100
AcDbEntity
  8
Layer_1
 62
1
100
AcDbSpline
 70
8
 71
3
 72
8
 73
4
 74
0
 40
0
 40
0
 40
0
 40
0
 40
1
 40
1
 40
1
 40
1
 10
52.402082
 20
4.740204
 30
0.0
 10
52.402082
 20
4.300192
 30
0.0
 10
52.356955
 20
3.905335
 30
0.0
 10
52.266698
 20
3.555577
 30
0.0
  0
SPLINE
  5
16b
100
AcDbEntity
  8
Layer_1
 62
1
100
AcDbSpline
 70
8
 71
3
 72
8
 73
4
 74
0
 40
0
 40
0
 40
0
 40
0
 40
1
 40
1
 40
1
 40
1
 10
52.266698
 20
3.555577
 30
0.0
 10
52.172681
 20
3.205847
 30
0.0
 10
52.061742
 20
2.931301
 30
0.0
 10
51.933879
 20
2.731996
 30
0.0
  0
SPLINE
  5
16c
100
AcDbEntity
  8
Layer_1
 62
1
100
AcDbSpline
 70
8
 71
3
 72
8
 73
4
 74
0
 40
0
 40
0
 40
0
 40
0
 40
1
 40
1
 40
1
 40
1
 10
51.933879
 20
2.731996
 30
0.0
 10
51.806015
 20
2.532662
 30
0.0
 10
51.651829
 20
2.359688
 30
0.0
 10
51.471314
 20
2.213017
 30
0.0
  0
SPLINE
  5
16d
100
AcDbEntity
  8
Layer_1
 62
1
100
AcDbSpline
 70
8
 71
3
 72
8
 73
4
 74
0
 40
0
 40
0
 40
0
 40
0
 40
1
 40
1
 40
1
 40
1
 10
51.471314
 20
2.213017
 30
0.0
 10
51.290801
 20
2.070100
 30
0.0
 10
51.136615
 20
1.970447
 30
0.0
 10
51.008748
 20
1.914031
 30
0.0
  0
SPLINE
  5
16e
100
AcDbEntity
  8
Layer_1
 62
1
100
AcDbSpline
 70
8
 71
3
 72
8
 73
4
 74
0
 40
0
 40
0
 40
0
 40
0
 40
1
 40
1
 40
1
 40
1
 10
51.008748
 20
1.914031
 30
0.0
 10
50.877126
 20
1.861397
 30
0.0
 10
50.739861
 20
1.818132
 30
0.0
 10
50.596955
 20
1.784294
 30
0.0
  0
SPLINE
  5
16f
100
AcDbEntity
  8
Layer_1
 62
1
100
AcDbSpline
 70
8
 71
3
 72
8
 73
4
 74
0
 40
0
 40
0
 40
0
 40
0
 40
1
 40
1
 40
1
 40
1
 10
50.596955
 20
1.784294
 30
0.0
 10
50.348752
 20
1.720370
 30
0.0
 10
49.997129
 20
1.688394
 30
0.0
 10
49.542082
 20
1.688394
 30
0.0
  0
LWPOLYLINE
  5
170
100
AcDbEntity
  8
Layer_1
 62
1
100
AcDbPolyline
 90
3
 70
0
 10
49.468749
 20
6.833023
 30
0.0
 10
44.273363
 20
6.833023
 30
0.0
 10
44.273363
 20
7.780711
 30
0.0
  0
SPLINE
  5
171
100
AcDbEntity
  8
Layer_1
 62
1
100
AcDbSpline
 70
8
 71
3
 72
8
 73
4
 74
0
 40
0
 40
0
 40
0
 40
0
 40
1
 40
1
 40
1
 40
1
 10
27.800910
 20
18.253352
 30
0.0
 10
27.887792
 20
17.912859
 30
0.0
 10
27.931234
 20
17.647514
 30
0.0
 10
27.931234
 20
17.457313
 30
0.0
  0
SPLINE
  5
172
100
AcDbEntity
  8
Layer_1
 62
1
100
AcDbSpline
 70
8
 71
3
 72
8
 73
4
 74
0
 40
0
 40
0
 40
0
 40
0
 40
1
 40
1
 40
1
 40
1
 10
27.931234
 20
17.457313
 30
0.0
 10
27.931234
 20
17.267106
 30
0.0
 10
27.900709
 20
17.106254
 30
0.0
 10
27.839656
 20
16.974755
 30
0.0
  0
SPLINE
  5
173
100
AcDbEntity
  8
Layer_1
 62
1
100
AcDbSpline
 70
8
 71
3
 72
8
 73
4
 74
0
 40
0
 40
0
 40
0
 40
0
 40
1
 40
1
 40
1
 40
1
 10
27.839656
 20
16.974755
 30
0.0
 10
27.778603
 20
16.843256
 30
0.0
 10
27.691718
 20
16.743457
 30
0.0
 10
27.579004
 20
16.675360
 30
0.0
  0
SPLINE
  5
174
100
AcDbEntity
  8
Layer_1
 62
1
100
AcDbSpline
 70
8
 71
3
 72
8
 73
4
 74
0
 40
0
 40
0
 40
0
 40
0
 40
1
 40
1
 40
1
 40
1
 10
27.579004
 20
16.675360
 30
0.0
 10
27.466290
 20
16.607262
 30
0.0
 10
27.345358
 20
16.557950
 30
0.0
 10
27.216207
 20
16.527424
 30
0.0
  0
SPLINE
  5
175
100
AcDbEntity
  8
Layer_1
 62
1
100
AcDbSpline
 70
8
 71
3
 72
8
 73
4
 74
0
 40
0
 40
0
 40
0
 40
0
 40
1
 40
1
 40
1
 40
1
 10
27.216207
 20
16.527424
 30
0.0
 10
27.084709
 20
16.499259
 30
0.0
 10
26.934425
 20
16.485156
 30
0.0
 10
26.765352
 20
16.485156
 30
0.0
  0
LWPOLYLINE
  5
176
100
AcDbEntity
  8
Layer_1
 62
1
100
AcDbPolyline
 90
2
 70
0
 10
49.542082
 20
1.688394
 30
0.0
 10
44.273363
 20
1.688394
 30
0.0
  0
SPLINE
  5
177
100
AcDbEntity
  8
Layer_1
 62
1
100
AcDbSpline
 70
8
 71
3
 72
8
 73
4
 74
0
 40
0
 40
0
 40
0
 40
0
 40
1
 40
1
 40
1
 40
1
 10
26.758307
 20
17.062814
 30
0.0
 10
27.239691
 20
17.062811
 30
0.0
 10
27.480381
 20
17.253018
 30
0.0
 10
27.480381
 20
17.633428
 30
0.0
  0
SPLINE
  5
178
100
AcDbEntity
  8
Layer_1
 62
1
100
AcDbSpline
 70
8
 71
3
 72
8
 73
4
 74
0
 40
0
 40
0
 40
0
 40
0
 40
1
 40
1
 40
1
 40
1
 10
27.480381
 20
17.633428
 30
0.0
 10
27.480381
 20
17.701522
 30
0.0
 10
27.455715
 20
17.881160
 30
0.0
 10
27.406411
 20
18.172340
 30
0.0
  0
LWPOLYLINE
  5
179
100
AcDbEntity
  8
Layer_1
 62
1
100
AcDbPolyline
 90
12
 70
0
 10
26.765352
 20
16.485156
 30
0.0
 10
24.835132
 20
16.485156
 30
0.0
 10
24.835132
 20
16.016690
 30
0.0
 10
24.380754
 20
16.016690
 30
0.0
 10
24.380754
 20
16.485156
 30
0.0
 10
23.383943
 20
16.485156
 30
0.0
 10
23.383943
 20
17.062814
 30
0.0
 10
24.380754
 20
17.062814
 30
0.0
 10
24.380754
 20
18.123027
 30
0.0
 10
24.835132
 20
18.123027
 30
0.0
 10
24.835132
 20
17.062814
 30
0.0
 10
26.758307
 20
17.062814
 30
0.0
  0
SPLINE
  5
17a
100
AcDbEntity
  8
Layer_1
 62
1
100
AcDbSpline
 70
8
 71
3
 72
8
 73
4
 74
0
 40
0
 40
0
 40
0
 40
0
 40
1
 40
1
 40
1
 40
1
 10
24.313831
 20
14.012500
 30
0.0
 10
24.313834
 20
14.181568
 30
0.0
 10
24.334970
 20
14.333028
 30
0.0
 10
24.377232
 20
14.466878
 30
0.0
  0
SPLINE
  5
17b
100
AcDbEntity
  8
Layer_1
 62
1
100
AcDbSpline
 70
8
 71
3
 72
8
 73
4
 74
0
 40
0
 40
0
 40
0
 40
0
 40
1
 40
1
 40
1
 40
1
 10
24.377232
 20
14.466878
 30
0.0
 10
24.417155
 20
14.603070
 30
0.0
 10
24.468816
 20
14.715784
 30
0.0
 10
24.532215
 20
14.805017
 30
0.0
  0
SPLINE
  5
17c
100
AcDbEntity
  8
Layer_1
 62
1
100
AcDbSpline
 70
8
 71
3
 72
8
 73
4
 74
0
 40
0
 40
0
 40
0
 40
0
 40
1
 40
1
 40
1
 40
1
 10
24.532215
 20
14.805017
 30
0.0
 10
24.595619
 20
14.894247
 30
0.0
 10
24.678979
 20
14.970562
 30
0.0
 10
24.782297
 20
15.033966
 30
0.0
  0
SPLINE
  5
17d
100
AcDbEntity
  8
Layer_1
 62
1
100
AcDbSpline
 70
8
 71
3
 72
8
 73
4
 74
0
 40
0
 40
0
 40
0
 40
0
 40
1
 40
1
 40
1
 40
1
 10
24.782297
 20
15.033966
 30
0.0
 10
24.883274
 20
15.099713
 30
0.0
 10
24.981896
 20
15.149026
 30
0.0
 10
25.078171
 20
15.181905
 30
0.0
  0
SPLINE
  5
17e
100
AcDbEntity
  8
Layer_1
 62
1
100
AcDbSpline
 70
8
 71
3
 72
8
 73
4
 74
0
 40
0
 40
0
 40
0
 40
0
 40
1
 40
1
 40
1
 40
1
 10
25.078171
 20
15.181905
 30
0.0
 10
25.172103
 20
15.217123
 30
0.0
 10
25.285988
 20
15.244129
 30
0.0
 10
25.419835
 20
15.262916
 30
0.0
  0
SPLINE
  5
17f
100
AcDbEntity
  8
Layer_1
 62
1
100
AcDbSpline
 70
8
 71
3
 72
8
 73
4
 74
0
 40
0
 40
0
 40
0
 40
0
 40
1
 40
1
 40
1
 40
1
 10
25.419835
 20
15.262916
 30
0.0
 10
25.553684
 20
15.281712
 30
0.0
 10
25.669920
 20
15.293442
 30
0.0
 10
25.768543
 20
15.298141
 30
0.0
  0
SPLINE
  5
180
100
AcDbEntity
  8
Layer_1
 62
1
100
AcDbSpline
 70
8
 71
3
 72
8
 73
4
 74
0
 40
0
 40
0
 40
0
 40
0
 40
1
 40
1
 40
1
 40
1
 10
25.768543
 20
15.298141
 30
0.0
 10
25.867168
 20
15.302825
 30
0.0
 10
25.983404
 20
15.305168
 30
0.0
 10
26.117251
 20
15.305196
 30
0.0
  0
LWPOLYLINE
  5
181
100
AcDbEntity
  8
Layer_1
 62
1
100
AcDbPolyline
 90
2
 70
0
 10
27.406411
 20
18.172340
 30
0.0
 10
27.800910
 20
18.253352
 30
0.0
  0
SPLINE
  5
182
100
AcDbEntity
  8
Layer_1
 62
1
100
AcDbSpline
 70
8
 71
3
 72
8
 73
4
 74
0
 40
0
 40
0
 40
0
 40
0
 40
1
 40
1
 40
1
 40
1
 10
26.391989
 20
12.913555
 30
0.0
 10
26.518794
 20
12.913552
 30
0.0
 10
26.645596
 20
12.941721
 30
0.0
 10
26.772399
 20
12.998089
 30
0.0
  0
SPLINE
  5
183
100
AcDbEntity
  8
Layer_1
 62
1
100
AcDbSpline
 70
8
 71
3
 72
8
 73
4
 74
0
 40
0
 40
0
 40
0
 40
0
 40
1
 40
1
 40
1
 40
1
 10
26.772399
 20
12.998089
 30
0.0
 10
26.896853
 20
13.056794
 30
0.0
 10
27.011915
 20
13.137806
 30
0.0
 10
27.117582
 20
13.241127
 30
0.0
  0
SPLINE
  5
184
100
AcDbEntity
  8
Layer_1
 62
1
100
AcDbSpline
 70
8
 71
3
 72
8
 73
4
 74
0
 40
0
 40
0
 40
0
 40
0
 40
1
 40
1
 40
1
 40
1
 10
27.117582
 20
13.241127
 30
0.0
 10
27.220903
 20
13.346794
 30
0.0
 10
27.305440
 20
13.484166
 30
0.0
 10
27.371190
 20
13.653237
 30
0.0
  0
SPLINE
  5
185
100
AcDbEntity
  8
Layer_1
 62
1
100
AcDbSpline
 70
8
 71
3
 72
8
 73
4
 74
0
 40
0
 40
0
 40
0
 40
0
 40
1
 40
1
 40
1
 40
1
 10
27.371190
 20
13.653237
 30
0.0
 10
27.436939
 20
13.824653
 30
0.0
 10
27.469815
 20
14.013682
 30
0.0
 10
27.469812
 20
14.220328
 30
0.0
  0
SPLINE
  5
186
100
AcDbEntity
  8
Layer_1
 62
1
100
AcDbSpline
 70
8
 71
3
 72
8
 73
4
 74
0
 40
0
 40
0
 40
0
 40
0
 40
1
 40
1
 40
1
 40
1
 10
27.469812
 20
14.220328
 30
0.0
 10
27.469815
 20
14.464538
 30
0.0
 10
27.427547
 20
14.728709
 30
0.0
 10
27.343010
 20
15.012845
 30
0.0
  0
LWPOLYLINE
  5
187
100
AcDbEntity
  8
Layer_1
 62
1
100
AcDbPolyline
 90
3
 70
0
 10
26.117251
 20
15.305196
 30
0.0
 10
26.391989
 20
15.305196
 30
0.0
 10
26.391989
 20
12.913555
 30
0.0
  0
SPLINE
  5
188
100
AcDbEntity
  8
Layer_1
 62
1
100
AcDbSpline
 70
8
 71
3
 72
8
 73
4
 74
0
 40
0
 40
0
 40
0
 40
0
 40
1
 40
1
 40
1
 40
1
 10
27.737508
 20
15.114992
 30
0.0
 10
27.866659
 20
14.736928
 30
0.0
 10
27.931234
 20
14.365913
 30
0.0
 10
27.931234
 20
14.001945
 30
0.0
  0
SPLINE
  5
189
100
AcDbEntity
  8
Layer_1
 62
1
100
AcDbSpline
 70
8
 71
3
 72
8
 73
4
 74
0
 40
0
 40
0
 40
0
 40
0
 40
1
 40
1
 40
1
 40
1
 10
27.931234
 20
14.001945
 30
0.0
 10
27.931234
 20
13.745989
 30
0.0
 10
27.897187
 20
13.518213
 30
0.0
 10
27.829087
 20
13.318617
 30
0.0
  0
SPLINE
  5
18a
100
AcDbEntity
  8
Layer_1
 62
1
100
AcDbSpline
 70
8
 71
3
 72
8
 73
4
 74
0
 40
0
 40
0
 40
0
 40
0
 40
1
 40
1
 40
1
 40
1
 10
27.829087
 20
13.318617
 30
0.0
 10
27.760989
 20
13.121369
 30
0.0
 10
27.672933
 20
12.961691
 30
0.0
 10
27.564915
 20
12.839584
 30
0.0
  0
SPLINE
  5
18b
100
AcDbEntity
  8
Layer_1
 62
1
100
AcDbSpline
 70
8
 71
3
 72
8
 73
4
 74
0
 40
0
 40
0
 40
0
 40
0
 40
1
 40
1
 40
1
 40
1
 10
27.564915
 20
12.839584
 30
0.0
 10
27.454550
 20
12.719826
 30
0.0
 10
27.323051
 20
12.621201
 30
0.0
 10
27.170417
 20
12.543711
 30
0.0
  0
SPLINE
  5
18c
100
AcDbEntity
  8
Layer_1
 62
1
100
AcDbSpline
 70
8
 71
3
 72
8
 73
4
 74
0
 40
0
 40
0
 40
0
 40
0
 40
1
 40
1
 40
1
 40
1
 10
27.170417
 20
12.543711
 30
0.0
 10
27.017785
 20
12.466221
 30
0.0
 10
26.866328
 20
12.412212
 30
0.0
 10
26.716042
 20
12.381687
 30
0.0
  0
SPLINE
  5
18d
100
AcDbEntity
  8
Layer_1
 62
1
100
AcDbSpline
 70
8
 71
3
 72
8
 73
4
 74
0
 40
0
 40
0
 40
0
 40
0
 40
1
 40
1
 40
1
 40
1
 10
26.716042
 20
12.381687
 30
0.0
 10
26.563410
 20
12.353521
 30
0.0
 10
26.402558
 20
12.339419
 30
0.0
 10
26.233484
 20
12.339419
 30
0.0
  0
SPLINE
  5
18e
100
AcDbEntity
  8
Layer_1
 62
1
100
AcDbSpline
 70
8
 71
3
 72
8
 73
4
 74
0
 40
0
 40
0
 40
0
 40
0
 40
1
 40
1
 40
1
 40
1
 10
26.233484
 20
12.339419
 30
0.0
 10
25.972838
 20
12.339419
 30
0.0
 10
25.734495
 20
12.371118
 30
0.0
 10
25.518457
 20
12.434519
 30
0.0
  0
SPLINE
  5
18f
100
AcDbEntity
  8
Layer_1
 62
1
100
AcDbSpline
 70
8
 71
3
 72
8
 73
4
 74
0
 40
0
 40
0
 40
0
 40
0
 40
1
 40
1
 40
1
 40
1
 10
25.518457
 20
12.434519
 30
0.0
 10
25.302427
 20
12.497920
 30
0.0
 10
25.121616
 20
12.583631
 30
0.0
 10
24.976023
 20
12.691649
 30
0.0
  0
SPLINE
  5
190
100
AcDbEntity
  8
Layer_1
 62
1
100
AcDbSpline
 70
8
 71
3
 72
8
 73
4
 74
0
 40
0
 40
0
 40
0
 40
0
 40
1
 40
1
 40
1
 40
1
 10
24.976023
 20
12.691649
 30
0.0
 10
24.828091
 20
12.799664
 30
0.0
 10
24.703636
 20
12.925292
 30
0.0
 10
24.602660
 20
13.068534
 30
0.0
  0
SPLINE
  5
191
100
AcDbEntity
  8
Layer_1
 62
1
100
AcDbSpline
 70
8
 71
3
 72
8
 73
4
 74
0
 40
0
 40
0
 40
0
 40
0
 40
1
 40
1
 40
1
 40
1
 10
24.602660
 20
13.068534
 30
0.0
 10
24.501689
 20
13.214121
 30
0.0
 10
24.428896
 20
13.365582
 30
0.0
 10
24.384277
 20
13.522912
 30
0.0
  0
SPLINE
  5
192
100
AcDbEntity
  8
Layer_1
 62
1
100
AcDbSpline
 70
8
 71
3
 72
8
 73
4
 74
0
 40
0
 40
0
 40
0
 40
0
 40
1
 40
1
 40
1
 40
1
 10
24.384277
 20
13.522912
 30
0.0
 10
24.337318
 20
13.682588
 30
0.0
 10
24.313834
 20
13.845788
 30
0.0
 10
24.313831
 20
14.012511
 30
0.0
  0
SPLINE
  5
193
100
AcDbEntity
  8
Layer_1
 62
1
100
AcDbSpline
 70
8
 71
3
 72
8
 73
4
 74
0
 40
0
 40
0
 40
0
 40
0
 40
1
 40
1
 40
1
 40
1
 10
24.813999
 20
13.889231
 30
0.0
 10
24.814002
 20
13.682588
 30
0.0
 10
24.871533
 20
13.504124
 30
0.0
 10
24.986590
 20
13.353841
 30
0.0
  0
SPLINE
  5
194
100
AcDbEntity
  8
Layer_1
 62
1
100
AcDbSpline
 70
8
 71
3
 72
8
 73
4
 74
0
 40
0
 40
0
 40
0
 40
0
 40
1
 40
1
 40
1
 40
1
 10
24.986590
 20
13.353841
 30
0.0
 10
25.099306
 20
13.205903
 30
0.0
 10
25.240200
 20
13.097885
 30
0.0
 10
25.409268
 20
13.029788
 30
0.0
  0
SPLINE
  5
195
100
AcDbEntity
  8
Layer_1
 62
1
100
AcDbSpline
 70
8
 71
3
 72
8
 73
4
 74
0
 40
0
 40
0
 40
0
 40
0
 40
1
 40
1
 40
1
 40
1
 10
25.409268
 20
13.029788
 30
0.0
 10
25.578339
 20
12.961691
 30
0.0
 10
25.760324
 20
12.927640
 30
0.0
 10
25.955224
 20
12.927643
 30
0.0
  0
LWPOLYLINE
  5
196
100
AcDbEntity
  8
Layer_1
 62
1
100
AcDbPolyline
 90
2
 70
0
 10
27.343010
 20
15.012845
 30
0.0
 10
27.737508
 20
15.114992
 30
0.0
  0
SPLINE
  5
197
100
AcDbEntity
  8
Layer_1
 62
1
100
AcDbSpline
 70
8
 71
3
 72
8
 73
4
 74
0
 40
0
 40
0
 40
0
 40
0
 40
1
 40
1
 40
1
 40
1
 10
25.955224
 20
14.745149
 30
0.0
 10
25.194410
 20
14.745146
 30
0.0
 10
24.814002
 20
14.459842
 30
0.0
 10
24.813999
 20
13.889231
 30
0.0
  0
SPLINE
  5
198
100
AcDbEntity
  8
Layer_1
 62
1
100
AcDbSpline
 70
8
 71
3
 72
8
 73
4
 74
0
 40
0
 40
0
 40
0
 40
0
 40
1
 40
1
 40
1
 40
1
 10
24.313831
 20
10.381008
 30
0.0
 10
24.313834
 20
10.430318
 30
0.0
 10
24.314960
 20
10.476109
 30
0.0
 10
24.317359
 20
10.518377
 30
0.0
  0
SPLINE
  5
199
100
AcDbEntity
  8
Layer_1
 62
1
100
AcDbSpline
 70
8
 71
3
 72
8
 73
4
 74
0
 40
0
 40
0
 40
0
 40
0
 40
1
 40
1
 40
1
 40
1
 10
24.317359
 20
10.518377
 30
0.0
 10
24.317362
 20
10.562991
 30
0.0
 10
24.319617
 20
10.605259
 30
0.0
 10
24.324414
 20
10.645180
 30
0.0
  0
SPLINE
  5
19a
100
AcDbEntity
  8
Layer_1
 62
1
100
AcDbSpline
 70
8
 71
3
 72
8
 73
4
 74
0
 40
0
 40
0
 40
0
 40
0
 40
1
 40
1
 40
1
 40
1
 10
24.324414
 20
10.645180
 30
0.0
 10
24.329128
 20
10.687445
 30
0.0
 10
24.332627
 20
10.722669
 30
0.0
 10
24.334970
 20
10.750849
 30
0.0
  0
SPLINE
  5
19b
100
AcDbEntity
  8
Layer_1
 62
1
100
AcDbSpline
 70
8
 71
3
 72
8
 73
4
 74
0
 40
0
 40
0
 40
0
 40
0
 40
1
 40
1
 40
1
 40
1
 10
24.334970
 20
10.750849
 30
0.0
 10
24.337227
 20
10.781374
 30
0.0
 10
24.342025
 20
10.815422
 30
0.0
 10
24.349052
 20
10.852997
 30
0.0
  0
SPLINE
  5
19c
100
AcDbEntity
  8
Layer_1
 62
1
100
AcDbSpline
 70
8
 71
3
 72
8
 73
4
 74
0
 40
0
 40
0
 40
0
 40
0
 40
1
 40
1
 40
1
 40
1
 10
24.349052
 20
10.852997
 30
0.0
 10
24.356108
 20
10.892914
 30
0.0
 10
24.361978
 20
10.921091
 30
0.0
 10
24.366663
 20
10.937531
 30
0.0
  0
SPLINE
  5
19d
100
AcDbEntity
  8
Layer_1
 62
1
100
AcDbSpline
 70
8
 71
3
 72
8
 73
4
 74
0
 40
0
 40
0
 40
0
 40
0
 40
1
 40
1
 40
1
 40
1
 10
24.366663
 20
10.937531
 30
0.0
 10
24.368921
 20
10.956327
 30
0.0
 10
24.376061
 20
10.985667
 30
0.0
 10
24.387802
 20
11.025590
 30
0.0
  0
SPLINE
  5
19e
100
AcDbEntity
  8
Layer_1
 62
1
100
AcDbSpline
 70
8
 71
3
 72
8
 73
4
 74
0
 40
0
 40
0
 40
0
 40
0
 40
1
 40
1
 40
1
 40
1
 10
24.387802
 20
11.025590
 30
0.0
 10
24.397200
 20
11.067855
 30
0.0
 10
24.403070
 20
11.093684
 30
0.0
 10
24.405412
 20
11.103079
 30
0.0
  0
SPLINE
  5
19f
100
AcDbEntity
  8
Layer_1
 62
1
100
AcDbSpline
 70
8
 71
3
 72
8
 73
4
 74
0
 40
0
 40
0
 40
0
 40
0
 40
1
 40
1
 40
1
 40
1
 10
24.405412
 20
11.103079
 30
0.0
 10
24.407670
 20
11.112477
 30
0.0
 10
24.415996
 20
11.139475
 30
0.0
 10
24.430078
 20
11.184091
 30
0.0
  0
SPLINE
  5
1a0
100
AcDbEntity
  8
Layer_1
 62
1
100
AcDbSpline
 70
8
 71
3
 72
8
 73
4
 74
0
 40
0
 40
0
 40
0
 40
0
 40
1
 40
1
 40
1
 40
1
 10
24.430078
 20
11.184091
 30
0.0
 10
24.444161
 20
11.231053
 30
0.0
 10
24.452402
 20
11.258059
 30
0.0
 10
24.454745
 20
11.265106
 30
0.0
  0
LWPOLYLINE
  5
1a1
100
AcDbEntity
  8
Layer_1
 62
1
100
AcDbPolyline
 90
2
 70
0
 10
25.955224
 20
12.927643
 30
0.0
 10
25.955224
 20
14.745149
 30
0.0
  0
SPLINE
  5
1a2
100
AcDbEntity
  8
Layer_1
 62
1
100
AcDbSpline
 70
8
 71
3
 72
8
 73
4
 74
0
 40
0
 40
0
 40
0
 40
0
 40
1
 40
1
 40
1
 40
1
 10
24.895034
 20
11.117168
 30
0.0
 10
24.808152
 20
10.802507
 30
0.0
 10
24.764712
 20
10.525421
 30
0.0
 10
24.764709
 20
10.285905
 30
0.0
  0
SPLINE
  5
1a3
100
AcDbEntity
  8
Layer_1
 62
1
100
AcDbSpline
 70
8
 71
3
 72
8
 73
4
 74
0
 40
0
 40
0
 40
0
 40
0
 40
1
 40
1
 40
1
 40
1
 10
24.764709
 20
10.285905
 30
0.0
 10
24.764712
 20
10.147359
 30
0.0
 10
24.778792
 20
10.024079
 30
0.0
 10
24.806975
 20
9.916064
 30
0.0
  0
SPLINE
  5
1a4
100
AcDbEntity
  8
Layer_1
 62
1
100
AcDbSpline
 70
8
 71
3
 72
8
 73
4
 74
0
 40
0
 40
0
 40
0
 40
0
 40
1
 40
1
 40
1
 40
1
 10
24.806975
 20
9.916064
 30
0.0
 10
24.835169
 20
9.810394
 30
0.0
 10
24.869205
 20
9.728206
 30
0.0
 10
24.909122
 20
9.669503
 30
0.0
  0
SPLINE
  5
1a5
100
AcDbEntity
  8
Layer_1
 62
1
100
AcDbSpline
 70
8
 71
3
 72
8
 73
4
 74
0
 40
0
 40
0
 40
0
 40
0
 40
1
 40
1
 40
1
 40
1
 10
24.909122
 20
9.669503
 30
0.0
 10
24.949046
 20
9.613144
 30
0.0
 10
24.996010
 20
9.566182
 30
0.0
 10
25.050013
 20
9.528612
 30
0.0
  0
SPLINE
  5
1a6
100
AcDbEntity
  8
Layer_1
 62
1
100
AcDbSpline
 70
8
 71
3
 72
8
 73
4
 74
0
 40
0
 40
0
 40
0
 40
0
 40
1
 40
1
 40
1
 40
1
 10
25.050013
 20
9.528612
 30
0.0
 10
25.101677
 20
9.493385
 30
0.0
 10
25.147468
 20
9.469905
 30
0.0
 10
25.187385
 20
9.458164
 30
0.0
  0
SPLINE
  5
1a7
100
AcDbEntity
  8
Layer_1
 62
1
100
AcDbSpline
 70
8
 71
3
 72
8
 73
4
 74
0
 40
0
 40
0
 40
0
 40
0
 40
1
 40
1
 40
1
 40
1
 10
25.187385
 20
9.458164
 30
0.0
 10
25.227305
 20
9.448766
 30
0.0
 10
25.266052
 20
9.444081
 30
0.0
 10
25.303621
 20
9.444081
 30
0.0
  0
SPLINE
  5
1a8
100
AcDbEntity
  8
Layer_1
 62
1
100
AcDbSpline
 70
8
 71
3
 72
8
 73
4
 74
0
 40
0
 40
0
 40
0
 40
0
 40
1
 40
1
 40
1
 40
1
 10
25.303621
 20
9.444081
 30
0.0
 10
25.399898
 20
9.444081
 30
0.0
 10
25.485609
 20
9.493391
 30
0.0
 10
25.560748
 20
9.592019
 30
0.0
  0
SPLINE
  5
1a9
100
AcDbEntity
  8
Layer_1
 62
1
100
AcDbSpline
 70
8
 71
3
 72
8
 73
4
 74
0
 40
0
 40
0
 40
0
 40
0
 40
1
 40
1
 40
1
 40
1
 10
25.560748
 20
9.592019
 30
0.0
 10
25.635893
 20
9.692990
 30
0.0
 10
25.696946
 20
9.817444
 30
0.0
 10
25.743908
 20
9.965382
 30
0.0
  0
SPLINE
  5
1aa
100
AcDbEntity
  8
Layer_1
 62
1
100
AcDbSpline
 70
8
 71
3
 72
8
 73
4
 74
0
 40
0
 40
0
 40
0
 40
0
 40
1
 40
1
 40
1
 40
1
 10
25.743908
 20
9.965382
 30
0.0
 10
25.790875
 20
10.115666
 30
0.0
 10
25.847232
 20
10.277689
 30
0.0
 10
25.912978
 20
10.451459
 30
0.0
  0
SPLINE
  5
1ab
100
AcDbEntity
  8
Layer_1
 62
1
100
AcDbSpline
 70
8
 71
3
 72
8
 73
4
 74
0
 40
0
 40
0
 40
0
 40
0
 40
1
 40
1
 40
1
 40
1
 10
25.912978
 20
10.451459
 30
0.0
 10
25.976382
 20
10.625224
 30
0.0
 10
26.044480
 20
10.786076
 30
0.0
 10
26.117273
 20
10.934014
 30
0.0
  0
SPLINE
  5
1ac
100
AcDbEntity
  8
Layer_1
 62
1
100
AcDbSpline
 70
8
 71
3
 72
8
 73
4
 74
0
 40
0
 40
0
 40
0
 40
0
 40
1
 40
1
 40
1
 40
1
 10
26.117273
 20
10.934014
 30
0.0
 10
26.187719
 20
11.084298
 30
0.0
 10
26.287518
 20
11.208752
 30
0.0
 10
26.416669
 20
11.307380
 30
0.0
  0
SPLINE
  5
1ad
100
AcDbEntity
  8
Layer_1
 62
1
100
AcDbSpline
 70
8
 71
3
 72
8
 73
4
 74
0
 40
0
 40
0
 40
0
 40
0
 40
1
 40
1
 40
1
 40
1
 10
26.416669
 20
11.307380
 30
0.0
 10
26.545819
 20
11.408348
 30
0.0
 10
26.694932
 20
11.458835
 30
0.0
 10
26.864000
 20
11.458837
 30
0.0
  0
SPLINE
  5
1ae
100
AcDbEntity
  8
Layer_1
 62
1
100
AcDbSpline
 70
8
 71
3
 72
8
 73
4
 74
0
 40
0
 40
0
 40
0
 40
0
 40
1
 40
1
 40
1
 40
1
 10
26.864000
 20
11.458837
 30
0.0
 10
26.960277
 20
11.458835
 30
0.0
 10
27.054206
 20
11.445912
 30
0.0
 10
27.145784
 20
11.420091
 30
0.0
  0
SPLINE
  5
1af
100
AcDbEntity
  8
Layer_1
 62
1
100
AcDbSpline
 70
8
 71
3
 72
8
 73
4
 74
0
 40
0
 40
0
 40
0
 40
0
 40
1
 40
1
 40
1
 40
1
 10
27.145784
 20
11.420091
 30
0.0
 10
27.235017
 20
11.396610
 30
0.0
 10
27.328944
 20
11.349643
 30
0.0
 10
27.427569
 20
11.279200
 30
0.0
  0
SPLINE
  5
1b0
100
AcDbEntity
  8
Layer_1
 62
1
100
AcDbSpline
 70
8
 71
3
 72
8
 73
4
 74
0
 40
0
 40
0
 40
0
 40
0
 40
1
 40
1
 40
1
 40
1
 10
27.427569
 20
11.279200
 30
0.0
 10
27.526192
 20
11.211100
 30
0.0
 10
27.611903
 20
11.121867
 30
0.0
 10
27.684696
 20
11.011507
 30
0.0
  0
SPLINE
  5
1b1
100
AcDbEntity
  8
Layer_1
 62
1
100
AcDbSpline
 70
8
 71
3
 72
8
 73
4
 74
0
 40
0
 40
0
 40
0
 40
0
 40
1
 40
1
 40
1
 40
1
 10
27.684696
 20
11.011507
 30
0.0
 10
27.755142
 20
10.903486
 30
0.0
 10
27.813847
 20
10.757896
 30
0.0
 10
27.860811
 20
10.574740
 30
0.0
  0
SPLINE
  5
1b2
100
AcDbEntity
  8
Layer_1
 62
1
100
AcDbSpline
 70
8
 71
3
 72
8
 73
4
 74
0
 40
0
 40
0
 40
0
 40
0
 40
1
 40
1
 40
1
 40
1
 10
27.860811
 20
10.574740
 30
0.0
 10
27.907776
 20
10.391577
 30
0.0
 10
27.931257
 20
10.181415
 30
0.0
 10
27.931257
 20
9.944250
 30
0.0
  0
SPLINE
  5
1b3
100
AcDbEntity
  8
Layer_1
 62
1
100
AcDbSpline
 70
8
 71
3
 72
8
 73
4
 74
0
 40
0
 40
0
 40
0
 40
0
 40
1
 40
1
 40
1
 40
1
 10
27.931257
 20
9.944250
 30
0.0
 10
27.931257
 20
9.584972
 30
0.0
 10
27.843201
 20
9.190474
 30
0.0
 10
27.667085
 20
8.760756
 30
0.0
  0
LWPOLYLINE
  5
1b4
100
AcDbEntity
  8
Layer_1
 62
1
100
AcDbPolyline
 90
2
 70
0
 10
24.454745
 20
11.265106
 30
0.0
 10
24.895034
 20
11.117168
 30
0.0
  0
SPLINE
  5
1b5
100
AcDbEntity
  8
Layer_1
 62
1
100
AcDbSpline
 70
8
 71
3
 72
8
 73
4
 74
0
 40
0
 40
0
 40
0
 40
0
 40
1
 40
1
 40
1
 40
1
 10
27.230318
 20
8.922780
 30
0.0
 10
27.319551
 20
9.164645
 30
0.0
 10
27.382953
 20
9.361892
 30
0.0
 10
27.420525
 20
9.514527
 30
0.0
  0
SPLINE
  5
1b6
100
AcDbEntity
  8
Layer_1
 62
1
100
AcDbSpline
 70
8
 71
3
 72
8
 73
4
 74
0
 40
0
 40
0
 40
0
 40
0
 40
1
 40
1
 40
1
 40
1
 10
27.420525
 20
9.514527
 30
0.0
 10
27.458094
 20
9.669506
 30
0.0
 10
27.476882
 20
9.820966
 30
0.0
 10
27.476879
 20
9.968905
 30
0.0
  0
SPLINE
  5
1b7
100
AcDbEntity
  8
Layer_1
 62
1
100
AcDbSpline
 70
8
 71
3
 72
8
 73
4
 74
0
 40
0
 40
0
 40
0
 40
0
 40
1
 40
1
 40
1
 40
1
 10
27.476879
 20
9.968905
 30
0.0
 10
27.476882
 20
10.541864
 30
0.0
 10
27.294896
 20
10.828345
 30
0.0
 10
26.930923
 20
10.828345
 30
0.0
  0
SPLINE
  5
1b8
100
AcDbEntity
  8
Layer_1
 62
1
100
AcDbSpline
 70
8
 71
3
 72
8
 73
4
 74
0
 40
0
 40
0
 40
0
 40
0
 40
1
 40
1
 40
1
 40
1
 10
26.930923
 20
10.828345
 30
0.0
 10
26.851085
 20
10.828345
 30
0.0
 10
26.780640
 20
10.800179
 30
0.0
 10
26.719586
 20
10.743811
 30
0.0
  0
SPLINE
  5
1b9
100
AcDbEntity
  8
Layer_1
 62
1
100
AcDbSpline
 70
8
 71
3
 72
8
 73
4
 74
0
 40
0
 40
0
 40
0
 40
0
 40
1
 40
1
 40
1
 40
1
 10
26.719586
 20
10.743811
 30
0.0
 10
26.658533
 20
10.687451
 30
0.0
 10
26.609221
 20
10.612309
 30
0.0
 10
26.571648
 20
10.518383
 30
0.0
  0
SPLINE
  5
1ba
100
AcDbEntity
  8
Layer_1
 62
1
100
AcDbSpline
 70
8
 71
3
 72
8
 73
4
 74
0
 40
0
 40
0
 40
0
 40
0
 40
1
 40
1
 40
1
 40
1
 10
26.571648
 20
10.518383
 30
0.0
 10
26.531731
 20
10.424454
 30
0.0
 10
26.491811
 20
10.317610
 30
0.0
 10
26.451890
 20
10.197854
 30
0.0
  0
SPLINE
  5
1bb
100
AcDbEntity
  8
Layer_1
 62
1
100
AcDbSpline
 70
8
 71
3
 72
8
 73
4
 74
0
 40
0
 40
0
 40
0
 40
0
 40
1
 40
1
 40
1
 40
1
 10
26.451890
 20
10.197854
 30
0.0
 10
26.409625
 20
10.080442
 30
0.0
 10
26.370878
 20
9.959509
 30
0.0
 10
26.335654
 20
9.835058
 30
0.0
  0
SPLINE
  5
1bc
100
AcDbEntity
  8
Layer_1
 62
1
100
AcDbSpline
 70
8
 71
3
 72
8
 73
4
 74
0
 40
0
 40
0
 40
0
 40
0
 40
1
 40
1
 40
1
 40
1
 10
26.335654
 20
9.835058
 30
0.0
 10
26.300433
 20
9.712949
 30
0.0
 10
26.254642
 20
9.592016
 30
0.0
 10
26.198285
 20
9.472261
 30
0.0
  0
SPLINE
  5
1bd
100
AcDbEntity
  8
Layer_1
 62
1
100
AcDbSpline
 70
8
 71
3
 72
8
 73
4
 74
0
 40
0
 40
0
 40
0
 40
0
 40
1
 40
1
 40
1
 40
1
 10
26.198285
 20
9.472261
 30
0.0
 10
26.139583
 20
9.354848
 30
0.0
 10
26.076179
 20
9.249179
 30
0.0
 10
26.008082
 20
9.155252
 30
0.0
  0
SPLINE
  5
1be
100
AcDbEntity
  8
Layer_1
 62
1
100
AcDbSpline
 70
8
 71
3
 72
8
 73
4
 74
0
 40
0
 40
0
 40
0
 40
0
 40
1
 40
1
 40
1
 40
1
 10
26.008082
 20
9.155252
 30
0.0
 10
25.937636
 20
9.061323
 30
0.0
 10
25.847232
 20
8.986181
 30
0.0
 10
25.736863
 20
8.929824
 30
0.0
  0
SPLINE
  5
1bf
100
AcDbEntity
  8
Layer_1
 62
1
100
AcDbSpline
 70
8
 71
3
 72
8
 73
4
 74
0
 40
0
 40
0
 40
0
 40
0
 40
1
 40
1
 40
1
 40
1
 10
25.736863
 20
8.929824
 30
0.0
 10
25.626500
 20
8.873467
 30
0.0
 10
25.502046
 20
8.845290
 30
0.0
 10
25.363500
 20
8.845290
 30
0.0
  0
SPLINE
  5
1c0
100
AcDbEntity
  8
Layer_1
 62
1
100
AcDbSpline
 70
8
 71
3
 72
8
 73
4
 74
0
 40
0
 40
0
 40
0
 40
0
 40
1
 40
1
 40
1
 40
1
 10
25.363500
 20
8.845290
 30
0.0
 10
25.278966
 20
8.845290
 30
0.0
 10
25.193258
 20
8.858216
 30
0.0
 10
25.106370
 20
8.884037
 30
0.0
  0
SPLINE
  5
1c1
100
AcDbEntity
  8
Layer_1
 62
1
100
AcDbSpline
 70
8
 71
3
 72
8
 73
4
 74
0
 40
0
 40
0
 40
0
 40
0
 40
1
 40
1
 40
1
 40
1
 10
25.106370
 20
8.884037
 30
0.0
 10
25.017143
 20
8.912202
 30
0.0
 10
24.924388
 20
8.962700
 30
0.0
 10
24.828111
 20
9.035494
 30
0.0
  0
SPLINE
  5
1c2
100
AcDbEntity
  8
Layer_1
 62
1
100
AcDbSpline
 70
8
 71
3
 72
8
 73
4
 74
0
 40
0
 40
0
 40
0
 40
0
 40
1
 40
1
 40
1
 40
1
 10
24.828111
 20
9.035494
 30
0.0
 10
24.729488
 20
9.110636
 30
0.0
 10
24.643780
 20
9.203391
 30
0.0
 10
24.570981
 20
9.313757
 30
0.0
  0
SPLINE
  5
1c3
100
AcDbEntity
  8
Layer_1
 62
1
100
AcDbSpline
 70
8
 71
3
 72
8
 73
4
 74
0
 40
0
 40
0
 40
0
 40
0
 40
1
 40
1
 40
1
 40
1
 10
24.570981
 20
9.313757
 30
0.0
 10
24.495842
 20
9.424120
 30
0.0
 10
24.434789
 20
9.570884
 30
0.0
 10
24.387821
 20
9.754043
 30
0.0
  0
SPLINE
  5
1c4
100
AcDbEntity
  8
Layer_1
 62
1
100
AcDbSpline
 70
8
 71
3
 72
8
 73
4
 74
0
 40
0
 40
0
 40
0
 40
0
 40
1
 40
1
 40
1
 40
1
 10
24.387821
 20
9.754043
 30
0.0
 10
24.338514
 20
9.939551
 30
0.0
 10
24.313856
 20
10.148539
 30
0.0
 10
24.313854
 20
10.381014
 30
0.0
  0
SPLINE
  5
1c5
100
AcDbEntity
  8
Layer_1
 62
1
100
AcDbSpline
 70
8
 71
3
 72
8
 73
4
 74
0
 40
0
 40
0
 40
0
 40
0
 40
1
 40
1
 40
1
 40
1
 10
24.313831
 20
6.545213
 30
0.0
 10
24.313834
 20
6.714292
 30
0.0
 10
24.334970
 20
6.865761
 30
0.0
 10
24.377232
 20
6.999591
 30
0.0
  0
SPLINE
  5
1c6
100
AcDbEntity
  8
Layer_1
 62
1
100
AcDbSpline
 70
8
 71
3
 72
8
 73
4
 74
0
 40
0
 40
0
 40
0
 40
0
 40
1
 40
1
 40
1
 40
1
 10
24.377232
 20
6.999591
 30
0.0
 10
24.417155
 20
7.135791
 30
0.0
 10
24.468816
 20
7.248505
 30
0.0
 10
24.532215
 20
7.337738
 30
0.0
  0
SPLINE
  5
1c7
100
AcDbEntity
  8
Layer_1
 62
1
100
AcDbSpline
 70
8
 71
3
 72
8
 73
4
 74
0
 40
0
 40
0
 40
0
 40
0
 40
1
 40
1
 40
1
 40
1
 10
24.532215
 20
7.337738
 30
0.0
 10
24.595619
 20
7.426968
 30
0.0
 10
24.678979
 20
7.503284
 30
0.0
 10
24.782297
 20
7.566688
 30
0.0
  0
SPLINE
  5
1c8
100
AcDbEntity
  8
Layer_1
 62
1
100
AcDbSpline
 70
8
 71
3
 72
8
 73
4
 74
0
 40
0
 40
0
 40
0
 40
0
 40
1
 40
1
 40
1
 40
1
 10
24.782297
 20
7.566688
 30
0.0
 10
24.883274
 20
7.632435
 30
0.0
 10
24.981896
 20
7.681747
 30
0.0
 10
25.078171
 20
7.714626
 30
0.0
  0
SPLINE
  5
1c9
100
AcDbEntity
  8
Layer_1
 62
1
100
AcDbSpline
 70
8
 71
3
 72
8
 73
4
 74
0
 40
0
 40
0
 40
0
 40
0
 40
1
 40
1
 40
1
 40
1
 10
25.078171
 20
7.714626
 30
0.0
 10
25.172103
 20
7.749845
 30
0.0
 10
25.285988
 20
7.776851
 30
0.0
 10
25.419835
 20
7.795638
 30
0.0
  0
SPLINE
  5
1ca
100
AcDbEntity
  8
Layer_1
 62
1
100
AcDbSpline
 70
8
 71
3
 72
8
 73
4
 74
0
 40
0
 40
0
 40
0
 40
0
 40
1
 40
1
 40
1
 40
1
 10
25.419835
 20
7.795638
 30
0.0
 10
25.553684
 20
7.814434
 30
0.0
 10
25.669920
 20
7.826161
 30
0.0
 10
25.768543
 20
7.830862
 30
0.0
  0
SPLINE
  5
1cb
100
AcDbEntity
  8
Layer_1
 62
1
100
AcDbSpline
 70
8
 71
3
 72
8
 73
4
 74
0
 40
0
 40
0
 40
0
 40
0
 40
1
 40
1
 40
1
 40
1
 10
25.768543
 20
7.830862
 30
0.0
 10
25.867168
 20
7.835547
 30
0.0
 10
25.983404
 20
7.837890
 30
0.0
 10
26.117251
 20
7.837918
 30
0.0
  0
LWPOLYLINE
  5
1cc
100
AcDbEntity
  8
Layer_1
 62
1
100
AcDbPolyline
 90
2
 70
0
 10
27.667085
 20
8.760756
 30
0.0
 10
27.230318
 20
8.922780
 30
0.0
  0
SPLINE
  5
1cd
100
AcDbEntity
  8
Layer_1
 62
1
100
AcDbSpline
 70
8
 71
3
 72
8
 73
4
 74
0
 40
0
 40
0
 40
0
 40
0
 40
1
 40
1
 40
1
 40
1
 10
26.391989
 20
5.446268
 30
0.0
 10
26.518794
 20
5.446268
 30
0.0
 10
26.645596
 20
5.474490
 30
0.0
 10
26.772399
 20
5.530794
 30
0.0
  0
SPLINE
  5
1ce
100
AcDbEntity
  8
Layer_1
 62
1
100
AcDbSpline
 70
8
 71
3
 72
8
 73
4
 74
0
 40
0
 40
0
 40
0
 40
0
 40
1
 40
1
 40
1
 40
1
 10
26.772399
 20
5.530794
 30
0.0
 10
26.896853
 20
5.589496
 30
0.0
 10
27.011915
 20
5.670522
 30
0.0
 10
27.117582
 20
5.773843
 30
0.0
  0
SPLINE
  5
1cf
100
AcDbEntity
  8
Layer_1
 62
1
100
AcDbSpline
 70
8
 71
3
 72
8
 73
4
 74
0
 40
0
 40
0
 40
0
 40
0
 40
1
 40
1
 40
1
 40
1
 10
27.117582
 20
5.773843
 30
0.0
 10
27.220903
 20
5.879507
 30
0.0
 10
27.305440
 20
6.016865
 30
0.0
 10
27.371190
 20
6.185944
 30
0.0
  0
SPLINE
  5
1d0
100
AcDbEntity
  8
Layer_1
 62
1
100
AcDbSpline
 70
8
 71
3
 72
8
 73
4
 74
0
 40
0
 40
0
 40
0
 40
0
 40
1
 40
1
 40
1
 40
1
 10
27.371190
 20
6.185944
 30
0.0
 10
27.436939
 20
6.357366
 30
0.0
 10
27.469815
 20
6.546398
 30
0.0
 10
27.469812
 20
6.753042
 30
0.0
  0
SPLINE
  5
1d1
100
AcDbEntity
  8
Layer_1
 62
1
100
AcDbSpline
 70
8
 71
3
 72
8
 73
4
 74
0
 40
0
 40
0
 40
0
 40
0
 40
1
 40
1
 40
1
 40
1
 10
27.469812
 20
6.753042
 30
0.0
 10
27.469815
 20
6.997248
 30
0.0
 10
27.427547
 20
7.261431
 30
0.0
 10
27.343010
 20
7.545567
 30
0.0
  0
LWPOLYLINE
  5
1d2
100
AcDbEntity
  8
Layer_1
 62
1
100
AcDbPolyline
 90
3
 70
0
 10
26.117251
 20
7.837918
 30
0.0
 10
26.391989
 20
7.837918
 30
0.0
 10
26.391989
 20
5.446268
 30
0.0
  0
SPLINE
  5
1d3
100
AcDbEntity
  8
Layer_1
 62
1
100
AcDbSpline
 70
8
 71
3
 72
8
 73
4
 74
0
 40
0
 40
0
 40
0
 40
0
 40
1
 40
1
 40
1
 40
1
 10
27.737508
 20
7.647714
 30
0.0
 10
27.866659
 20
7.269649
 30
0.0
 10
27.931234
 20
6.898612
 30
0.0
 10
27.931234
 20
6.534658
 30
0.0
  0
SPLINE
  5
1d4
100
AcDbEntity
  8
Layer_1
 62
1
100
AcDbSpline
 70
8
 71
3
 72
8
 73
4
 74
0
 40
0
 40
0
 40
0
 40
0
 40
1
 40
1
 40
1
 40
1
 10
27.931234
 20
6.534658
 30
0.0
 10
27.931234
 20
6.278711
 30
0.0
 10
27.897187
 20
6.050929
 30
0.0
 10
27.829087
 20
5.851342
 30
0.0
  0
SPLINE
  5
1d5
100
AcDbEntity
  8
Layer_1
 62
1
100
AcDbSpline
 70
8
 71
3
 72
8
 73
4
 74
0
 40
0
 40
0
 40
0
 40
0
 40
1
 40
1
 40
1
 40
1
 10
27.829087
 20
5.851342
 30
0.0
 10
27.760989
 20
5.654068
 30
0.0
 10
27.672933
 20
5.494387
 30
0.0
 10
27.564915
 20
5.372298
 30
0.0
  0
SPLINE
  5
1d6
100
AcDbEntity
  8
Layer_1
 62
1
100
AcDbSpline
 70
8
 71
3
 72
8
 73
4
 74
0
 40
0
 40
0
 40
0
 40
0
 40
1
 40
1
 40
1
 40
1
 10
27.564915
 20
5.372298
 30
0.0
 10
27.454550
 20
5.252522
 30
0.0
 10
27.323051
 20
5.153914
 30
0.0
 10
27.170417
 20
5.076416
 30
0.0
  0
SPLINE
  5
1d7
100
AcDbEntity
  8
Layer_1
 62
1
100
AcDbSpline
 70
8
 71
3
 72
8
 73
4
 74
0
 40
0
 40
0
 40
0
 40
0
 40
1
 40
1
 40
1
 40
1
 10
27.170417
 20
5.076416
 30
0.0
 10
27.017785
 20
4.998918
 30
0.0
 10
26.866328
 20
4.944928
 30
0.0
 10
26.716042
 20
4.914392
 30
0.0
  0
SPLINE
  5
1d8
100
AcDbEntity
  8
Layer_1
 62
1
100
AcDbSpline
 70
8
 71
3
 72
8
 73
4
 74
0
 40
0
 40
0
 40
0
 40
0
 40
1
 40
1
 40
1
 40
1
 10
26.716042
 20
4.914392
 30
0.0
 10
26.563410
 20
4.886170
 30
0.0
 10
26.402558
 20
4.872115
 30
0.0
 10
26.233484
 20
4.872115
 30
0.0
  0
SPLINE
  5
1d9
100
AcDbEntity
  8
Layer_1
 62
1
100
AcDbSpline
 70
8
 71
3
 72
8
 73
4
 74
0
 40
0
 40
0
 40
0
 40
0
 40
1
 40
1
 40
1
 40
1
 10
26.233484
 20
4.872115
 30
0.0
 10
25.972838
 20
4.872115
 30
0.0
 10
25.734495
 20
4.903837
 30
0.0
 10
25.518457
 20
4.967224
 30
0.0
  0
SPLINE
  5
1da
100
AcDbEntity
  8
Layer_1
 62
1
100
AcDbSpline
 70
8
 71
3
 72
8
 73
4
 74
0
 40
0
 40
0
 40
0
 40
0
 40
1
 40
1
 40
1
 40
1
 10
25.518457
 20
4.967224
 30
0.0
 10
25.302427
 20
5.030639
 30
0.0
 10
25.121616
 20
5.116350
 30
0.0
 10
24.976023
 20
5.224357
 30
0.0
  0
SPLINE
  5
1db
100
AcDbEntity
  8
Layer_1
 62
1
100
AcDbSpline
 70
8
 71
3
 72
8
 73
4
 74
0
 40
0
 40
0
 40
0
 40
0
 40
1
 40
1
 40
1
 40
1
 10
24.976023
 20
5.224357
 30
0.0
 10
24.828091
 20
5.332363
 30
0.0
 10
24.703636
 20
5.458008
 30
0.0
 10
24.602660
 20
5.601236
 30
0.0
  0
SPLINE
  5
1dc
100
AcDbEntity
  8
Layer_1
 62
1
100
AcDbSpline
 70
8
 71
3
 72
8
 73
4
 74
0
 40
0
 40
0
 40
0
 40
0
 40
1
 40
1
 40
1
 40
1
 10
24.602660
 20
5.601236
 30
0.0
 10
24.501689
 20
5.746835
 30
0.0
 10
24.428896
 20
5.898303
 30
0.0
 10
24.384277
 20
6.055614
 30
0.0
  0
SPLINE
  5
1dd
100
AcDbEntity
  8
Layer_1
 62
1
100
AcDbSpline
 70
8
 71
3
 72
8
 73
4
 74
0
 40
0
 40
0
 40
0
 40
0
 40
1
 40
1
 40
1
 40
1
 10
24.384277
 20
6.055614
 30
0.0
 10
24.337318
 20
6.215295
 30
0.0
 10
24.313834
 20
6.378504
 30
0.0
 10
24.313831
 20
6.545213
 30
0.0
  0
SPLINE
  5
1de
100
AcDbEntity
  8
Layer_1
 62
1
100
AcDbSpline
 70
8
 71
3
 72
8
 73
4
 74
0
 40
0
 40
0
 40
0
 40
0
 40
1
 40
1
 40
1
 40
1
 10
24.813999
 20
6.421938
 30
0.0
 10
24.814002
 20
6.215295
 30
0.0
 10
24.871533
 20
6.036846
 30
0.0
 10
24.986590
 20
5.886563
 30
0.0
  0
SPLINE
  5
1df
100
AcDbEntity
  8
Layer_1
 62
1
100
AcDbSpline
 70
8
 71
3
 72
8
 73
4
 74
0
 40
0
 40
0
 40
0
 40
0
 40
1
 40
1
 40
1
 40
1
 10
24.986590
 20
5.886563
 30
0.0
 10
25.099306
 20
5.738622
 30
0.0
 10
25.240200
 20
5.630587
 30
0.0
 10
25.409268
 20
5.562487
 30
0.0
  0
SPLINE
  5
1e0
100
AcDbEntity
  8
Layer_1
 62
1
100
AcDbSpline
 70
8
 71
3
 72
8
 73
4
 74
0
 40
0
 40
0
 40
0
 40
0
 40
1
 40
1
 40
1
 40
1
 10
25.409268
 20
5.562487
 30
0.0
 10
25.578339
 20
5.494387
 30
0.0
 10
25.760324
 20
5.460351
 30
0.0
 10
25.955224
 20
5.460351
 30
0.0
  0
LWPOLYLINE
  5
1e1
100
AcDbEntity
  8
Layer_1
 62
1
100
AcDbPolyline
 90
2
 70
0
 10
27.343010
 20
7.545567
 30
0.0
 10
27.737508
 20
7.647714
 30
0.0
  0
SPLINE
  5
1e2
100
AcDbEntity
  8
Layer_1
 62
1
100
AcDbSpline
 70
8
 71
3
 72
8
 73
4
 74
0
 40
0
 40
0
 40
0
 40
0
 40
1
 40
1
 40
1
 40
1
 10
25.955224
 20
7.277870
 30
0.0
 10
25.194410
 20
7.277868
 30
0.0
 10
24.814002
 20
6.992564
 30
0.0
 10
24.813999
 20
6.421938
 30
0.0
  0
SPLINE
  5
1e3
100
AcDbEntity
  8
Layer_1
 62
1
100
AcDbSpline
 70
8
 71
3
 72
8
 73
4
 74
0
 40
0
 40
0
 40
0
 40
0
 40
1
 40
1
 40
1
 40
1
 10
24.641406
 20
2.744668
 30
0.0
 10
24.423026
 20
3.038179
 30
0.0
 10
24.313834
 20
3.362226
 30
0.0
 10
24.313831
 20
3.716810
 30
0.0
  0
SPLINE
  5
1e4
100
AcDbEntity
  8
Layer_1
 62
1
100
AcDbSpline
 70
8
 71
3
 72
8
 73
4
 74
0
 40
0
 40
0
 40
0
 40
0
 40
1
 40
1
 40
1
 40
1
 10
24.313831
 20
3.716810
 30
0.0
 10
24.313834
 20
3.961017
 30
0.0
 10
24.359624
 20
4.182928
 30
0.0
 10
24.451200
 20
4.382516
 30
0.0
  0
LWPOLYLINE
  5
1e5
100
AcDbEntity
  8
Layer_1
 62
1
100
AcDbPolyline
 90
2
 70
0
 10
25.955224
 20
5.460351
 30
0.0
 10
25.955224
 20
7.277870
 30
0.0
  0
SPLINE
  5
1e6
100
AcDbEntity
  8
Layer_1
 62
1
100
AcDbSpline
 70
8
 71
3
 72
8
 73
4
 74
0
 40
0
 40
0
 40
0
 40
0
 40
1
 40
1
 40
1
 40
1
 10
24.912622
 20
4.206409
 30
0.0
 10
24.842179
 20
4.023247
 30
0.0
 10
24.806955
 20
3.833058
 30
0.0
 10
24.806952
 20
3.635812
 30
0.0
  0
SPLINE
  5
1e7
100
AcDbEntity
  8
Layer_1
 62
1
100
AcDbSpline
 70
8
 71
3
 72
8
 73
4
 74
0
 40
0
 40
0
 40
0
 40
0
 40
1
 40
1
 40
1
 40
1
 10
24.806952
 20
3.635812
 30
0.0
 10
24.806955
 20
3.342273
 30
0.0
 10
24.887970
 20
3.066373
 30
0.0
 10
25.049991
 20
2.808055
 30
0.0
  0
LWPOLYLINE
  5
1e8
100
AcDbEntity
  8
Layer_1
 62
1
100
AcDbPolyline
 90
2
 70
0
 10
24.451200
 20
4.382516
 30
0.0
 10
24.912622
 20
4.206409
 30
0.0
  0
LWPOLYLINE
  5
1e9
100
AcDbEntity
  8
Layer_1
 62
1
100
AcDbPolyline
 90
6
 70
0
 10
25.049991
 20
2.808055
 30
0.0
 10
27.860789
 20
2.808055
 30
0.0
 10
27.860789
 20
2.230402
 30
0.0
 10
24.380754
 20
2.230402
 30
0.0
 10
24.380754
 20
2.635476
 30
0.0
 10
24.641406
 20
2.744668
 30
0.0
  0
ENDSEC
  0
SECTION
  2
OBJECTS
  0
DICTIONARY
  5
C
330
0
100
AcDbDictionary
  3
ACAD_GROUP
350
D
  3
ACAD_MLINESTYLE
350
17
  0
DICTIONARY
  5
D
330
C
100
AcDbDictionary
  0
DICTIONARY
  5
1A
330
C
100
AcDbDictionary
  0
DICTIONARY
  5
17
330
C
100
AcDbDictionary
  3
STANDARD
350
18
  0
DICTIONARY
  5
19
330
C
100
AcDbDictionary
  0
ENDSEC
  0
EOF
