  0
SECTION
  2
HEADER
  9
$ACADVER
  1
AC1014
  9
$HANDSEED
  5
FFFF
  9
$MEASUREMENT
 70
     1
  0
ENDSEC
  0
SECTION
  2
TABLES
  0
TABLE
  2
VPORT
  5
8
330
0
100
AcDbSymbolTable
 70
     4
  0
VPORT
  5
2E
330
8
100
AcDbSymbolTableRecord
100
AcDbViewportTableRecord
  2
*ACTIVE
 70
     0
 10
0.0
 20
0.0
 11
1.0
 21
1.0
 12
210.0
 22
148.5
 13
0.0
 23
0.0
 14
10.0
 24
10.0
 15
10.0
 25
10.0
 16
0.0
 26
0.0
 36
1.0
 17
0.0
 27
0.0
 37
0.0
 40
341.0
 41
1.24
 42
50.0
 43
0.0
 44
0.0
 50
0.0
 51
0.0
 71
     0
 72
   100
 73
     1
 74
     3
 75
     0
 76
     0
 77
     0
 78
     0
  0
ENDTAB
  0
TABLE
  2
LTYPE
  5
5
330
0
100
AcDbSymbolTable
 70
     1
  0
LTYPE
  5
14
330
5
100
AcDbSymbolTableRecord
100
AcDbLinetypeTableRecord
  2
BYBLOCK
 70
     0
  3

 72
    65
 73
     0
 40
0.0
  0
LTYPE
  5
15
330
5
100
AcDbSymbolTableRecord
100
AcDbLinetypeTableRecord
  2
BYLAYER
 70
     0
  3

 72
    65
 73
     0
 40
0.0
  0
LTYPE
  5
16
330
5
100
AcDbSymbolTableRecord
100
AcDbLinetypeTableRecord
  2
CONTINUOUS
 70
     0
  3
Solid line
 72
    65
 73
     0
 40
0.0
  0
ENDTAB
  0
TABLE
  2
LAYER
  5
2
100
AcDbSymbolTable
 70
1
  0
LAYER
  5
50
100
AcDbSymbolTableRecord
100
AcDbLayerTableRecord
  2
0
 70
0
  6
CONTINUOUS
  0
ENDTAB
  0
TABLE
  2
STYLE
  5
3
330
0
100
AcDbSymbolTable
 70
     1
  0
STYLE
  5
11
330
3
100
AcDbSymbolTableRecord
100
AcDbTextStyleTableRecord
  2
STANDARD
 70
     0
 40
0.0
 41
1.0
 50
0.0
 71
     0
 42
2.5
  3
txt
  4

  0
ENDTAB
  0
TABLE
  2
VIEW
  5
6
330
0
100
AcDbSymbolTable
 70
     0
  0
ENDTAB
  0
TABLE
  2
UCS
  5
7
330
0
100
AcDbSymbolTable
 70
     0
  0
ENDTAB
  0
TABLE
  2
APPID
  5
9
330
0
100
AcDbSymbolTable
 70
     2
  0
APPID
  5
12
330
9
100
AcDbSymbolTableRecord
100
AcDbRegAppTableRecord
  2
ACAD
 70
     0
  0
ENDTAB
  0
TABLE
  2
DIMSTYLE
  5
A
330
0
100
AcDbSymbolTable
 70
     1
  0
DIMSTYLE
105
27
330
A
100
AcDbSymbolTableRecord
100
AcDbDimStyleTableRecord
  2
ISO-25
 70
     0
  3

  4

  5

  6

  7

 40
1.0
 41
2.5
 42
0.625
 43
3.75
 44
1.25
 45
0.0
 46
0.0
 47
0.0
 48
0.0
140
2.5
141
2.5
142
0.0
143
0.03937007874016
144
1.0
145
0.0
146
1.0
147
0.625
 71
     0
 72
     0
 73
     0
 74
     0
 75
     0
 76
     0
 77
     1
 78
     8
170
     0
171
     3
172
     1
173
     0
174
     0
175
     0
176
     0
177
     0
178
     0
270
     2
271
     2
272
     2
273
     2
274
     3
340
11
275
     0
280
     0
281
     0
282
     0
283
     0
284
     8
285
     0
286
     0
287
     3
288
     0
  0
ENDTAB
  0
TABLE
  2
BLOCK_RECORD
  5
1
330
0
100
AcDbSymbolTable
 70
     1
  0
BLOCK_RECORD
  5
1F
330
1
100
AcDbSymbolTableRecord
100
AcDbBlockTableRecord
  2
*MODEL_SPACE
  0
BLOCK_RECORD
  5
1B
330
1
100
AcDbSymbolTableRecord
100
AcDbBlockTableRecord
  2
*PAPER_SPACE
  0
ENDTAB
  0
ENDSEC
  0
SECTION
  2
BLOCKS
  0
BLOCK
  5
20
330
1F
100
AcDbEntity
  8
0
100
AcDbBlockBegin
  2
*MODEL_SPACE
 70
     0
 10
0.0
 20
0.0
 30
0.0
  3
*MODEL_SPACE
  1

  0
ENDBLK
  5
21
330
1F
100
AcDbEntity
  8
0
100
AcDbBlockEnd
  0
BLOCK
  5
1C
330
1B
100
AcDbEntity
 67
     1
  8
0
100
AcDbBlockBegin
  2
*PAPER_SPACE
  1

  0
ENDBLK
  5
1D
330
1B
100
AcDbEntity
 67
     1
  8
0
100
AcDbBlockEnd
  0
ENDSEC
  0
SECTION
  2
ENTITIES
  0
LWPOLYLINE
  5
100
100
AcDbEntity
  8
0
 62
7
100
AcDbPolyline
 90
45
 70
0
 10
0.411024
 20
113.792160
 30
0.0
 10
0.411024
 20
624.028344
 30
0.0
 10
14.584256
 20
624.028344
 30
0.0
 10
14.584256
 20
641.036224
 30
0.0
 10
28.757480
 20
641.036224
 30
0.0
 10
28.757480
 20
624.028344
 30
0.0
 10
52.851968
 20
624.028344
 30
0.0
 10
52.851968
 20
608.437792
 30
0.0
 10
48.600000
 20
608.437792
 30
0.0
 10
48.600000
 20
599.933856
 30
0.0
 10
52.851968
 20
599.933856
 30
0.0
 10
52.851968
 20
595.681888
 30
0.0
 10
61.355904
 20
595.681888
 30
0.0
 10
61.355904
 20
599.933856
 30
0.0
 10
65.607872
 20
599.933856
 30
0.0
 10
65.607872
 20
608.437792
 30
0.0
 10
61.355904
 20
608.437792
 30
0.0
 10
61.355904
 20
624.028344
 30
0.0
 10
85.450392
 20
624.028344
 30
0.0
 10
85.450392
 20
641.036224
 30
0.0
 10
99.623624
 20
641.036224
 30
0.0
 10
99.623624
 20
624.028344
 30
0.0
 10
113.796848
 20
624.028344
 30
0.0
 10
113.796848
 20
113.792160
 30
0.0
 10
99.623624
 20
113.792160
 30
0.0
 10
99.623624
 20
96.784240
 30
0.0
 10
85.450392
 20
96.784240
 30
0.0
 10
85.450392
 20
113.792160
 30
0.0
 10
61.355904
 20
113.792160
 30
0.0
 10
61.355904
 20
129.382640
 30
0.0
 10
65.607872
 20
129.382640
 30
0.0
 10
65.607872
 20
137.886640
 30
0.0
 10
61.355904
 20
137.886640
 30
0.0
 10
61.355904
 20
142.138560
 30
0.0
 10
52.851968
 20
142.138560
 30
0.0
 10
52.851968
 20
137.886640
 30
0.0
 10
48.600000
 20
137.886640
 30
0.0
 10
48.600000
 20
129.382640
 30
0.0
 10
52.851968
 20
129.382640
 30
0.0
 10
52.851968
 20
113.792160
 30
0.0
 10
28.757480
 20
113.792160
 30
0.0
 10
28.757480
 20
96.784240
 30
0.0
 10
14.584256
 20
96.784240
 30
0.0
 10
14.584256
 20
113.792160
 30
0.0
 10
0.411024
 20
113.792160
 30
0.0
  0
LWPOLYLINE
  5
101
100
AcDbEntity
  8
0
 62
7
100
AcDbPolyline
 90
51
 70
0
 10
127.740472
 20
34.254800
 30
0.0
 10
127.740472
 20
34.589280
 30
0.0
 10
127.975752
 20
227.883760
 30
0.0
 10
128.023912
 20
229.298240
 30
0.0
 10
128.117480
 20
230.707120
 30
0.0
 10
128.256376
 20
232.113040
 30
0.0
 10
128.446296
 20
233.516240
 30
0.0
 10
128.678744
 20
234.908000
 30
0.0
 10
128.959368
 20
236.294160
 30
0.0
 10
129.285352
 20
237.668960
 30
0.0
 10
129.656696
 20
239.032480
 30
0.0
 10
130.073384
 20
240.384560
 30
0.0
 10
130.535432
 20
241.719680
 30
0.0
 10
131.040000
 20
243.040640
 30
0.0
 10
131.589920
 20
244.341760
 30
0.0
 10
132.179528
 20
245.625840
 30
0.0
 10
132.814488
 20
246.890080
 30
0.0
 10
133.491968
 20
248.131680
 30
0.0
 10
134.209136
 20
249.350560
 30
0.0
 10
134.965984
 20
250.543920
 30
0.0
 10
135.762520
 20
251.711840
 30
0.0
 10
136.595904
 20
252.851360
 30
0.0
 10
137.468976
 20
253.962480
 30
0.0
 10
138.376064
 20
255.045360
 30
0.0
 10
139.320000
 20
256.099840
 30
0.0
 10
140.297952
 20
257.117440
 30
0.0
 10
141.309920
 20
258.106800
 30
0.0
 10
142.355904
 20
259.059200
 30
0.0
 10
143.430240
 20
259.974800
 30
0.0
 10
144.535752
 20
260.856400
 30
0.0
 10
269.260160
 20
360.068960
 30
0.0
 10
270.394016
 20
360.913680
 30
0.0
 10
271.553384
 20
361.718720
 30
0.0
 10
272.741104
 20
362.486960
 30
0.0
 10
273.954328
 20
363.212560
 30
0.0
 10
275.190240
 20
363.898560
 30
0.0
 10
276.448816
 20
364.544880
 30
0.0
 10
277.727248
 20
365.148640
 30
0.0
 10
279.025512
 20
365.707120
 30
0.0
 10
280.340784
 20
366.222960
 30
0.0
 10
281.673072
 20
366.696400
 30
0.0
 10
283.019528
 20
367.124400
 30
0.0
 10
284.380160
 20
367.507120
 30
0.0
 10
285.752128
 20
367.844400
 30
0.0
 10
287.135432
 20
368.136400
 30
0.0
 10
288.527248
 20
368.380160
 30
0.0
 10
289.927560
 20
368.581440
 30
0.0
 10
291.333544
 20
368.731680
 30
0.0
 10
292.742360
 20
368.839360
 30
0.0
 10
294.154016
 20
368.896160
 30
0.0
 10
295.568504
 20
368.907280
 30
0.0
  0
LWPOLYLINE
  5
102
100
AcDbEntity
  8
0
 62
7
100
AcDbPolyline
 90
36
 70
0
 10
295.568504
 20
368.907440
 30
0.0
 10
395.844094
 20
368.907440
 30
0.0
 10
395.844094
 20
312.217360
 30
0.0
 10
395.863934
 20
312.217360
 30
0.0
 10
395.863937
 20
311.514320
 30
0.0
 10
396.017008
 20
310.116880
 30
0.0
 10
396.325984
 20
308.747680
 30
0.0
 10
396.782362
 20
307.418240
 30
0.0
 10
397.380473
 20
306.145520
 30
0.0
 10
398.117480
 20
304.949280
 30
0.0
 10
398.982047
 20
303.840960
 30
0.0
 10
399.960000
 20
302.831840
 30
0.0
 10
401.045670
 20
301.938880
 30
0.0
 10
402.222047
 20
301.170720
 30
0.0
 10
403.474961
 20
300.535760
 30
0.0
 10
404.793071
 20
300.042480
 30
0.0
 10
406.153701
 20
299.696720
 30
0.0
 10
407.545512
 20
299.503920
 30
0.0
 10
408.951496
 20
299.467120
 30
0.0
 10
410.351811
 20
299.583280
 30
0.0
 10
411.732283
 20
299.852560
 30
0.0
 10
413.073071
 20
300.272160
 30
0.0
 10
414.360000
 20
300.836240
 30
0.0
 10
415.576063
 20
301.539200
 30
0.0
 10
416.709922
 20
302.369760
 30
0.0
 10
417.744567
 20
303.322240
 30
0.0
 10
418.665826
 20
304.382400
 30
0.0
 10
419.468031
 20
305.536080
 30
0.0
 10
420.137008
 20
306.774800
 30
0.0
 10
420.664252
 20
308.075920
 30
0.0
 10
421.046929
 20
309.428000
 30
0.0
 10
421.279370
 20
310.814160
 30
0.0
 10
421.355906
 20
312.217360
 30
0.0
 10
421.355906
 20
368.907440
 30
0.0
 10
522.340160
 20
368.907440
 30
0.0
 10
523.751808
 20
368.873040
 30
0.0
  0
LWPOLYLINE
  5
103
100
AcDbEntity
  8
0
 62
7
100
AcDbPolyline
 90
69
 70
0
 10
523.751808
 20
368.873360
 30
0.0
 10
525.163464
 20
368.791200
 30
0.0
 10
526.572280
 20
368.663600
 30
0.0
 10
527.972600
 20
368.487840
 30
0.0
 10
529.370080
 20
368.263920
 30
0.0
 10
530.756224
 20
367.994640
 30
0.0
 10
532.133856
 20
367.680000
 30
0.0
 10
533.502992
 20
367.320000
 30
0.0
 10
534.855120
 20
366.914640
 30
0.0
 10
536.195904
 20
366.466800
 30
0.0
 10
537.519688
 20
365.970720
 30
0.0
 10
538.826456
 20
365.432160
 30
0.0
 10
540.116224
 20
364.851040
 30
0.0
 10
541.383304
 20
364.227440
 30
0.0
 10
542.630552
 20
363.561280
 30
0.0
 10
543.855120
 20
362.855440
 30
0.0
 10
545.054176
 20
362.107120
 30
0.0
 10
546.230552
 20
361.321920
 30
0.0
 10
547.375744
 20
360.497040
 30
0.0
 10
548.495432
 20
359.632480
 30
0.0
 10
673.219840
 20
260.419840
 30
0.0
 10
674.311184
 20
259.521280
 30
0.0
 10
675.371336
 20
258.585840
 30
0.0
 10
676.400312
 20
257.616400
 30
0.0
 10
677.395272
 20
256.612880
 30
0.0
 10
678.356224
 20
255.575440
 30
0.0
 10
679.283152
 20
254.509600
 30
0.0
 10
680.173232
 20
253.412560
 30
0.0
 10
681.026456
 20
252.284400
 30
0.0
 10
681.842832
 20
251.130720
 30
0.0
 10
682.619528
 20
249.948640
 30
0.0
 10
683.356536
 20
248.743920
 30
0.0
 10
684.051024
 20
247.513680
 30
0.0
 10
684.705824
 20
246.260800
 30
0.0
 10
685.320944
 20
244.988000
 30
0.0
 10
685.890712
 20
243.695440
 30
0.0
 10
686.417952
 20
242.382960
 30
0.0
 10
686.902680
 20
241.053520
 30
0.0
 10
687.342048
 20
239.709920
 30
0.0
 10
687.736064
 20
238.352160
 30
0.0
 10
688.084728
 20
236.982960
 30
0.0
 10
688.388032
 20
235.602480
 30
0.0
 10
688.643152
 20
234.213520
 30
0.0
 10
688.855744
 20
232.816080
 30
0.0
 10
689.017320
 20
231.412880
 30
0.0
 10
689.136376
 20
230.004080
 30
0.0
 10
689.207256
 20
228.592480
 30
0.0
 10
689.229880
 20
227.177920
 30
0.0
 10
689.513384
 20
34.422080
 30
0.0
 10
689.317792
 20
34.152720
 30
0.0
 10
689.229920
 20
34.152720
 30
0.0
 10
689.229920
 20
14.579520
 30
0.0
 10
689.159040
 20
13.167840
 30
0.0
 10
688.949288
 20
11.770400
 30
0.0
 10
688.600632
 20
10.401280
 30
0.0
 10
688.115904
 20
9.074640
 30
0.0
 10
687.503624
 20
7.801920
 30
0.0
 10
686.766616
 20
6.594320
 30
0.0
 10
685.913384
 20
5.468960
 30
0.0
 10
684.952440
 20
4.434320
 30
0.0
 10
683.892280
 20
3.498880
 30
0.0
 10
682.747088
 20
2.674000
 30
0.0
 10
681.522520
 20
1.968160
 30
0.0
 10
680.235592
 20
1.387120
 30
0.0
 10
678.894800
 20
0.936400
 30
0.0
 10
677.517168
 20
0.621760
 30
0.0
 10
676.116848
 20
0.446000
 30
0.0
 10
675.056696
 20
0.420400
 30
0.0
 10
675.056696
 20
0.406080
 30
0.0
  0
LWPOLYLINE
  5
104
100
AcDbEntity
  8
0
 62
7
100
AcDbPolyline
 90
3
 70
0
 10
675.056696
 20
0.406320
 30
0.0
 10
561.670864
 20
0.406320
 30
0.0
 10
561.670864
 20
0.420720
 30
0.0
  0
LWPOLYLINE
  5
105
100
AcDbEntity
  8
0
 62
7
100
AcDbPolyline
 90
2
 70
0
 10
561.670864
 20
0.420480
 30
0.0
 10
561.316536
 20
0.411680
 30
0.0
  0
LWPOLYLINE
  5
106
100
AcDbEntity
  8
0
 62
7
100
AcDbPolyline
 90
38
 70
0
 10
561.316536
 20
0.412000
 30
0.0
 10
559.907720
 20
0.516880
 30
0.0
 10
558.515904
 20
0.760640
 30
0.0
 10
557.158112
 20
1.143280
 30
0.0
 10
555.842832
 20
1.659200
 30
0.0
 10
554.584248
 20
2.305520
 30
0.0
 10
553.396536
 20
3.070880
 30
0.0
 10
552.293856
 20
3.952480
 30
0.0
 10
551.281888
 20
4.938880
 30
0.0
 10
550.371968
 20
6.021760
 30
0.0
 10
549.578264
 20
7.189600
 30
0.0
 10
548.900784
 20
8.431200
 30
0.0
 10
548.353704
 20
9.732320
 30
0.0
 10
547.937008
 20
11.081600
 30
0.0
 10
547.656376
 20
12.467680
 30
0.0
 10
547.514648
 20
13.873680
 30
0.0
 10
547.514648
 20
14.579520
 30
0.0
 10
547.497608
 20
14.579520
 30
0.0
 10
547.497640
 20
34.152720
 30
0.0
 10
269.702360
 20
34.152720
 30
0.0
 10
269.702360
 20
14.579520
 30
0.0
 10
269.631480
 20
13.167840
 30
0.0
 10
269.421736
 20
11.770400
 30
0.0
 10
269.073072
 20
10.401280
 30
0.0
 10
268.588344
 20
9.074640
 30
0.0
 10
267.976064
 20
7.801920
 30
0.0
 10
267.239056
 20
6.594320
 30
0.0
 10
266.385824
 20
5.468960
 30
0.0
 10
265.424880
 20
4.434320
 30
0.0
 10
264.364728
 20
3.498880
 30
0.0
 10
263.219528
 20
2.674000
 30
0.0
 10
261.994960
 20
1.968160
 30
0.0
 10
260.708032
 20
1.387120
 30
0.0
 10
259.367248
 20
0.936400
 30
0.0
 10
257.989608
 20
0.621760
 30
0.0
 10
256.589288
 20
0.446000
 30
0.0
 10
255.529136
 20
0.420400
 30
0.0
 10
255.529136
 20
0.406080
 30
0.0
  0
LWPOLYLINE
  5
107
100
AcDbEntity
  8
0
 62
7
100
AcDbPolyline
 90
3
 70
0
 10
255.529136
 20
0.406320
 30
0.0
 10
142.143304
 20
0.406320
 30
0.0
 10
142.143304
 20
0.420720
 30
0.0
  0
LWPOLYLINE
  5
108
100
AcDbEntity
  8
0
 62
7
100
AcDbPolyline
 90
2
 70
0
 10
142.143304
 20
0.420480
 30
0.0
 10
141.788976
 20
0.411680
 30
0.0
  0
LWPOLYLINE
  5
109
100
AcDbEntity
  8
0
 62
7
100
AcDbPolyline
 90
20
 70
0
 10
141.788976
 20
0.412000
 30
0.0
 10
140.380160
 20
0.516880
 30
0.0
 10
138.988344
 20
0.760640
 30
0.0
 10
137.630552
 20
1.143280
 30
0.0
 10
136.315272
 20
1.659200
 30
0.0
 10
135.056696
 20
2.305520
 30
0.0
 10
133.868976
 20
3.070880
 30
0.0
 10
132.766296
 20
3.952480
 30
0.0
 10
131.754328
 20
4.938880
 30
0.0
 10
130.844408
 20
6.021760
 30
0.0
 10
130.050712
 20
7.189600
 30
0.0
 10
129.373232
 20
8.431200
 30
0.0
 10
128.826144
 20
9.732320
 30
0.0
 10
128.409448
 20
11.081600
 30
0.0
 10
128.128816
 20
12.467680
 30
0.0
 10
127.987088
 20
13.873680
 30
0.0
 10
127.987088
 20
14.579520
 30
0.0
 10
127.970048
 20
14.579520
 30
0.0
 10
127.970080
 20
34.181120
 30
0.0
 10
127.740472
 20
34.254720
 30
0.0
  0
LWPOLYLINE
  5
10a
100
AcDbEntity
  8
0
 62
7
100
AcDbPolyline
 90
154
 70
0
 10
127.740472
 20
402.758720
 30
0.0
 10
127.740472
 20
403.093200
 30
0.0
 10
127.975752
 20
596.387720
 30
0.0
 10
128.023912
 20
597.802208
 30
0.0
 10
128.117480
 20
599.211024
 30
0.0
 10
128.256376
 20
600.617008
 30
0.0
 10
128.446296
 20
602.020160
 30
0.0
 10
128.678744
 20
603.411968
 30
0.0
 10
128.959368
 20
604.798112
 30
0.0
 10
129.285352
 20
606.172912
 30
0.0
 10
129.656696
 20
607.536376
 30
0.0
 10
130.073384
 20
608.888504
 30
0.0
 10
130.535432
 20
610.223624
 30
0.0
 10
131.040000
 20
611.544568
 30
0.0
 10
131.589920
 20
612.845672
 30
0.0
 10
132.179528
 20
614.129760
 30
0.0
 10
132.814488
 20
615.394016
 30
0.0
 10
133.491968
 20
616.635592
 30
0.0
 10
134.209136
 20
617.854488
 30
0.0
 10
134.965984
 20
619.047872
 30
0.0
 10
135.762520
 20
620.215744
 30
0.0
 10
136.595904
 20
621.355272
 30
0.0
 10
137.468976
 20
622.466456
 30
0.0
 10
138.376064
 20
623.549288
 30
0.0
 10
139.320000
 20
624.603776
 30
0.0
 10
140.297952
 20
625.621416
 30
0.0
 10
141.309920
 20
626.610712
 30
0.0
 10
142.355904
 20
627.563152
 30
0.0
 10
143.430240
 20
628.478744
 30
0.0
 10
144.535752
 20
629.360312
 30
0.0
 10
269.260160
 20
728.572912
 30
0.0
 10
270.394016
 20
729.417640
 30
0.0
 10
271.553384
 20
730.222680
 30
0.0
 10
272.741104
 20
730.990864
 30
0.0
 10
273.954328
 20
731.716536
 30
0.0
 10
275.190240
 20
732.402520
 30
0.0
 10
276.448816
 20
733.048816
 30
0.0
 10
277.727248
 20
733.652600
 30
0.0
 10
279.025512
 20
734.211024
 30
0.0
 10
280.340784
 20
734.726928
 30
0.0
 10
281.673072
 20
735.200312
 30
0.0
 10
283.019528
 20
735.628344
 30
0.0
 10
284.380160
 20
736.011024
 30
0.0
 10
285.752128
 20
736.348344
 30
0.0
 10
287.135432
 20
736.640312
 30
0.0
 10
288.527248
 20
736.884096
 30
0.0
 10
289.927560
 20
737.085352
 30
0.0
 10
291.333544
 20
737.235592
 30
0.0
 10
292.742360
 20
737.343304
 30
0.0
 10
294.154016
 20
737.400024
 30
0.0
 10
295.568504
 20
737.411360
 30
0.0
 10
395.844094
 20
737.411336
 30
0.0
 10
395.844094
 20
680.721256
 30
0.0
 10
395.863934
 20
680.721256
 30
0.0
 10
395.863937
 20
680.018264
 30
0.0
 10
396.017008
 20
678.620784
 30
0.0
 10
396.325984
 20
677.251656
 30
0.0
 10
396.782362
 20
675.922208
 30
0.0
 10
397.380473
 20
674.649448
 30
0.0
 10
398.117480
 20
673.453232
 30
0.0
 10
398.982047
 20
672.344880
 30
0.0
 10
399.960000
 20
671.335744
 30
0.0
 10
401.045670
 20
670.442832
 30
0.0
 10
402.222047
 20
669.674648
 30
0.0
 10
403.474961
 20
669.039688
 30
0.0
 10
404.793071
 20
668.546456
 30
0.0
 10
406.153701
 20
668.200632
 30
0.0
 10
407.545512
 20
668.007872
 30
0.0
 10
408.951496
 20
667.970992
 30
0.0
 10
410.351811
 20
668.087248
 30
0.0
 10
411.732283
 20
668.356536
 30
0.0
 10
413.073071
 20
668.776064
 30
0.0
 10
414.360000
 20
669.340160
 30
0.0
 10
415.576063
 20
670.043152
 30
0.0
 10
416.709922
 20
670.873704
 30
0.0
 10
417.744567
 20
671.826144
 30
0.0
 10
418.665826
 20
672.886296
 30
0.0
 10
419.468031
 20
674.040000
 30
0.0
 10
420.137008
 20
675.278744
 30
0.0
 10
420.664252
 20
676.579840
 30
0.0
 10
421.046929
 20
677.931968
 30
0.0
 10
421.279370
 20
679.318112
 30
0.0
 10
421.355906
 20
680.721256
 30
0.0
 10
421.355906
 20
737.411336
 30
0.0
 10
522.340160
 20
737.411336
 30
0.0
 10
523.751808
 20
737.377336
 30
0.0
 10
525.163464
 20
737.295120
 30
0.0
 10
526.572280
 20
737.167560
 30
0.0
 10
527.972600
 20
736.991808
 30
0.0
 10
529.370080
 20
736.767872
 30
0.0
 10
530.756224
 20
736.498584
 30
0.0
 10
532.133856
 20
736.183936
 30
0.0
 10
533.502992
 20
735.823936
 30
0.0
 10
534.855120
 20
735.418584
 30
0.0
 10
536.195904
 20
734.970712
 30
0.0
 10
537.519688
 20
734.474648
 30
0.0
 10
538.826456
 20
733.936064
 30
0.0
 10
540.116224
 20
733.354960
 30
0.0
 10
541.383304
 20
732.731336
 30
0.0
 10
542.630552
 20
732.065200
 30
0.0
 10
543.855120
 20
731.359368
 30
0.0
 10
545.054176
 20
730.611024
 30
0.0
 10
546.230552
 20
729.825824
 30
0.0
 10
547.375744
 20
729.000944
 30
0.0
 10
548.495432
 20
728.136376
 30
0.0
 10
673.219840
 20
628.923776
 30
0.0
 10
674.311184
 20
628.025200
 30
0.0
 10
675.371336
 20
627.089768
 30
0.0
 10
676.400312
 20
626.120312
 30
0.0
 10
677.395272
 20
625.116848
 30
0.0
 10
678.356224
 20
624.079368
 30
0.0
 10
679.283152
 20
623.013544
 30
0.0
 10
680.173232
 20
621.916536
 30
0.0
 10
681.026456
 20
620.788344
 30
0.0
 10
681.842832
 20
619.634648
 30
0.0
 10
682.619528
 20
618.452600
 30
0.0
 10
683.356536
 20
617.247872
 30
0.0
 10
684.051024
 20
616.017640
 30
0.0
 10
684.705824
 20
614.764728
 30
0.0
 10
685.320944
 20
613.491968
 30
0.0
 10
685.890712
 20
612.199368
 30
0.0
 10
686.417952
 20
610.886928
 30
0.0
 10
686.902680
 20
609.557480
 30
0.0
 10
687.342048
 20
608.213856
 30
0.0
 10
687.736064
 20
606.856064
 30
0.0
 10
688.084728
 20
605.486928
 30
0.0
 10
688.388032
 20
604.106456
 30
0.0
 10
688.643152
 20
602.717480
 30
0.0
 10
688.855744
 20
601.320000
 30
0.0
 10
689.017320
 20
599.916848
 30
0.0
 10
689.136376
 20
598.508032
 30
0.0
 10
689.207256
 20
597.096376
 30
0.0
 10
689.229880
 20
595.681888
 30
0.0
 10
689.513384
 20
402.926000
 30
0.0
 10
689.317792
 20
402.656720
 30
0.0
 10
689.229920
 20
402.656720
 30
0.0
 10
689.229920
 20
383.083440
 30
0.0
 10
689.159040
 20
381.671840
 30
0.0
 10
688.949288
 20
380.274320
 30
0.0
 10
688.600632
 20
378.905200
 30
0.0
 10
688.115904
 20
377.578560
 30
0.0
 10
687.503624
 20
376.305840
 30
0.0
 10
686.766616
 20
375.098240
 30
0.0
 10
685.913384
 20
373.972880
 30
0.0
 10
684.952440
 20
372.938240
 30
0.0
 10
683.892280
 20
372.002800
 30
0.0
 10
682.747088
 20
371.177920
 30
0.0
 10
681.522520
 20
370.472160
 30
0.0
 10
680.235592
 20
369.891040
 30
0.0
 10
678.894800
 20
369.440320
 30
0.0
 10
677.517168
 20
369.125680
 30
0.0
 10
676.116848
 20
368.949920
 30
0.0
 10
675.056696
 20
368.924320
 30
0.0
 10
675.056696
 20
368.910000
 30
0.0
  0
LWPOLYLINE
  5
10b
100
AcDbEntity
  8
0
 62
7
100
AcDbPolyline
 90
3
 70
0
 10
675.056696
 20
368.910240
 30
0.0
 10
561.670864
 20
368.910240
 30
0.0
 10
561.670864
 20
368.924640
 30
0.0
  0
LWPOLYLINE
  5
10c
100
AcDbEntity
  8
0
 62
7
100
AcDbPolyline
 90
2
 70
0
 10
561.670864
 20
368.924400
 30
0.0
 10
561.316536
 20
368.915600
 30
0.0
  0
LWPOLYLINE
  5
10d
100
AcDbEntity
  8
0
 62
7
100
AcDbPolyline
 90
38
 70
0
 10
561.316536
 20
368.915920
 30
0.0
 10
559.907720
 20
369.020800
 30
0.0
 10
558.515904
 20
369.264560
 30
0.0
 10
557.158112
 20
369.647280
 30
0.0
 10
555.842832
 20
370.163120
 30
0.0
 10
554.584248
 20
370.809440
 30
0.0
 10
553.396536
 20
371.574800
 30
0.0
 10
552.293856
 20
372.456400
 30
0.0
 10
551.281888
 20
373.442800
 30
0.0
 10
550.371968
 20
374.525680
 30
0.0
 10
549.578264
 20
375.693520
 30
0.0
 10
548.900784
 20
376.935120
 30
0.0
 10
548.353704
 20
378.236240
 30
0.0
 10
547.937008
 20
379.585520
 30
0.0
 10
547.656376
 20
380.971680
 30
0.0
 10
547.514648
 20
382.377600
 30
0.0
 10
547.514648
 20
383.083440
 30
0.0
 10
547.497608
 20
383.083440
 30
0.0
 10
547.497640
 20
402.656720
 30
0.0
 10
269.702360
 20
402.656720
 30
0.0
 10
269.702360
 20
383.083440
 30
0.0
 10
269.631480
 20
381.671840
 30
0.0
 10
269.421736
 20
380.274320
 30
0.0
 10
269.073072
 20
378.905200
 30
0.0
 10
268.588344
 20
377.578560
 30
0.0
 10
267.976064
 20
376.305840
 30
0.0
 10
267.239056
 20
375.098240
 30
0.0
 10
266.385824
 20
373.972880
 30
0.0
 10
265.424880
 20
372.938240
 30
0.0
 10
264.364728
 20
372.002800
 30
0.0
 10
263.219528
 20
371.177920
 30
0.0
 10
261.994960
 20
370.472160
 30
0.0
 10
260.708032
 20
369.891040
 30
0.0
 10
259.367248
 20
369.440320
 30
0.0
 10
257.989608
 20
369.125680
 30
0.0
 10
256.589288
 20
368.949920
 30
0.0
 10
255.529136
 20
368.924320
 30
0.0
 10
255.529136
 20
368.910000
 30
0.0
  0
LWPOLYLINE
  5
10e
100
AcDbEntity
  8
0
 62
7
100
AcDbPolyline
 90
3
 70
0
 10
255.529136
 20
368.910240
 30
0.0
 10
142.143304
 20
368.910240
 30
0.0
 10
142.143304
 20
368.924640
 30
0.0
  0
LWPOLYLINE
  5
10f
100
AcDbEntity
  8
0
 62
7
100
AcDbPolyline
 90
2
 70
0
 10
142.143304
 20
368.924400
 30
0.0
 10
141.788976
 20
368.915600
 30
0.0
  0
LWPOLYLINE
  5
110
100
AcDbEntity
  8
0
 62
7
100
AcDbPolyline
 90
20
 70
0
 10
141.788976
 20
368.915920
 30
0.0
 10
140.380160
 20
369.020800
 30
0.0
 10
138.988344
 20
369.264560
 30
0.0
 10
137.630552
 20
369.647280
 30
0.0
 10
136.315272
 20
370.163120
 30
0.0
 10
135.056696
 20
370.809440
 30
0.0
 10
133.868976
 20
371.574800
 30
0.0
 10
132.766296
 20
372.456400
 30
0.0
 10
131.754328
 20
373.442800
 30
0.0
 10
130.844408
 20
374.525680
 30
0.0
 10
130.050712
 20
375.693520
 30
0.0
 10
129.373232
 20
376.935120
 30
0.0
 10
128.826144
 20
378.236240
 30
0.0
 10
128.409448
 20
379.585520
 30
0.0
 10
128.128816
 20
380.971680
 30
0.0
 10
127.987088
 20
382.377600
 30
0.0
 10
127.987088
 20
383.083440
 30
0.0
 10
127.970048
 20
383.083440
 30
0.0
 10
127.970080
 20
402.685040
 30
0.0
 10
127.740472
 20
402.758640
 30
0.0
  0
LWPOLYLINE
  5
111
100
AcDbEntity
  8
0
 62
7
100
AcDbPolyline
 90
5
 70
0
 10
135.765352
 20
71.272480
 30
0.0
 10
135.765352
 20
85.445680
 30
0.0
 10
154.190552
 20
85.445680
 30
0.0
 10
154.190552
 20
71.272480
 30
0.0
 10
135.765352
 20
71.272480
 30
0.0
  0
LWPOLYLINE
  5
112
100
AcDbEntity
  8
0
 62
7
100
AcDbPolyline
 90
5
 70
0
 10
135.765352
 20
142.138560
 30
0.0
 10
135.765352
 20
156.311840
 30
0.0
 10
154.190552
 20
156.311840
 30
0.0
 10
154.190552
 20
142.138560
 30
0.0
 10
135.765352
 20
142.138560
 30
0.0
  0
LWPOLYLINE
  5
113
100
AcDbEntity
  8
0
 62
7
100
AcDbPolyline
 90
5
 70
0
 10
135.765352
 20
439.776376
 30
0.0
 10
135.765352
 20
453.949608
 30
0.0
 10
154.190552
 20
453.949608
 30
0.0
 10
154.190552
 20
439.776376
 30
0.0
 10
135.765352
 20
439.776376
 30
0.0
  0
LWPOLYLINE
  5
114
100
AcDbEntity
  8
0
 62
7
100
AcDbPolyline
 90
5
 70
0
 10
135.765352
 20
510.642520
 30
0.0
 10
135.765352
 20
524.815744
 30
0.0
 10
154.190552
 20
524.815744
 30
0.0
 10
154.190552
 20
510.642520
 30
0.0
 10
135.765352
 20
510.642520
 30
0.0
  0
LWPOLYLINE
  5
115
100
AcDbEntity
  8
0
 62
7
100
AcDbPolyline
 90
21
 70
0
 10
140.725984
 20
113.792160
 30
0.0
 10
140.932912
 20
115.107440
 30
0.0
 10
141.536696
 20
116.292320
 30
0.0
 10
142.477792
 20
117.233360
 30
0.0
 10
143.662680
 20
117.837200
 30
0.0
 10
144.977952
 20
118.044080
 30
0.0
 10
146.293232
 20
117.837200
 30
0.0
 10
147.478112
 20
117.233360
 30
0.0
 10
148.419216
 20
116.292320
 30
0.0
 10
149.022992
 20
115.107440
 30
0.0
 10
149.229920
 20
113.792160
 30
0.0
 10
149.022992
 20
112.476880
 30
0.0
 10
148.419216
 20
111.292000
 30
0.0
 10
147.478112
 20
110.350880
 30
0.0
 10
146.293232
 20
109.747120
 30
0.0
 10
144.977952
 20
109.540160
 30
0.0
 10
143.662680
 20
109.747120
 30
0.0
 10
142.477792
 20
110.350880
 30
0.0
 10
141.536696
 20
111.292000
 30
0.0
 10
140.932912
 20
112.476880
 30
0.0
 10
140.725984
 20
113.792160
 30
0.0
  0
LWPOLYLINE
  5
116
100
AcDbEntity
  8
0
 62
7
100
AcDbPolyline
 90
21
 70
0
 10
140.725984
 20
482.296064
 30
0.0
 10
140.932912
 20
483.611336
 30
0.0
 10
141.536696
 20
484.796224
 30
0.0
 10
142.477792
 20
485.737320
 30
0.0
 10
143.662680
 20
486.341104
 30
0.0
 10
144.977952
 20
486.548032
 30
0.0
 10
146.293232
 20
486.341104
 30
0.0
 10
147.478112
 20
485.737320
 30
0.0
 10
148.419216
 20
484.796224
 30
0.0
 10
149.022992
 20
483.611336
 30
0.0
 10
149.229920
 20
482.296064
 30
0.0
 10
149.022992
 20
480.980784
 30
0.0
 10
148.419216
 20
479.795904
 30
0.0
 10
147.478112
 20
478.854800
 30
0.0
 10
146.293232
 20
478.251024
 30
0.0
 10
144.977952
 20
478.044096
 30
0.0
 10
143.662680
 20
478.251024
 30
0.0
 10
142.477792
 20
478.854800
 30
0.0
 10
141.536696
 20
479.795904
 30
0.0
 10
140.932912
 20
480.980784
 30
0.0
 10
140.725984
 20
482.296064
 30
0.0
  0
LWPOLYLINE
  5
117
100
AcDbEntity
  8
0
 62
1
100
AcDbPolyline
 90
12
 70
0
 10
258.363776
 20
90.009440
 30
0.0
 10
258.590552
 20
91.157440
 30
0.0
 10
259.114960
 20
92.220480
 30
0.0
 10
269.234648
 20
107.088160
 30
0.0
 10
289.474016
 20
136.823600
 30
0.0
 10
299.593704
 20
151.705520
 30
0.0
 10
300.288192
 20
152.499200
 30
0.0
 10
301.152760
 20
153.094480
 30
0.0
 10
302.130712
 20
153.462960
 30
0.0
 10
303.179528
 20
153.604720
 30
0.0
 10
319.337008
 20
153.604720
 30
0.0
 10
327.415744
 20
153.619120
 30
0.0
  0
LWPOLYLINE
  5
118
100
AcDbEntity
  8
0
 62
1
100
AcDbPolyline
 90
44
 70
0
 10
327.415744
 20
153.618880
 30
0.0
 10
335.494488
 20
153.618880
 30
0.0
 10
370.615748
 20
205.237760
 30
0.0
 10
388.176378
 20
231.047280
 30
0.0
 10
405.737008
 20
256.856720
 30
0.0
 10
406.686614
 20
257.862960
 30
0.0
 10
407.877166
 20
258.500800
 30
0.0
 10
409.223622
 20
258.741760
 30
0.0
 10
410.598425
 20
258.557440
 30
0.0
 10
411.845670
 20
257.948000
 30
0.0
 10
412.809449
 20
256.984240
 30
0.0
 10
413.433071
 20
255.793680
 30
0.0
 10
413.659842
 20
254.418880
 30
0.0
 10
413.659842
 20
163.370080
 30
0.0
 10
429.562205
 20
186.741760
 30
0.0
 10
445.464567
 20
210.113360
 30
0.0
 10
461.352756
 20
233.485040
 30
0.0
 10
477.255118
 20
256.856720
 30
0.0
 10
478.218898
 20
257.862960
 30
0.0
 10
479.409449
 20
258.500800
 30
0.0
 10
480.741732
 20
258.741760
 30
0.0
 10
482.116535
 20
258.557440
 30
0.0
 10
483.363779
 20
257.948000
 30
0.0
 10
484.341732
 20
256.984240
 30
0.0
 10
484.965354
 20
255.793680
 30
0.0
 10
485.177953
 20
254.418880
 30
0.0
 10
485.177953
 20
153.618880
 30
0.0
 10
537.491336
 20
153.618880
 30
0.0
 10
538.667720
 20
153.462960
 30
0.0
 10
539.730712
 20
152.995280
 30
0.0
 10
540.637792
 20
152.272480
 30
0.0
 10
541.318112
 20
151.322800
 30
0.0
 10
541.729136
 20
150.203120
 30
0.0
 10
541.828344
 20
149.055120
 30
0.0
 10
541.601576
 20
147.907120
 30
0.0
 10
541.077168
 20
146.858240
 30
0.0
 10
530.957480
 20
131.976400
 30
0.0
 10
510.718112
 20
102.240960
 30
0.0
 10
500.598424
 20
87.359040
 30
0.0
 10
499.889768
 20
86.565360
 30
0.0
 10
499.039368
 20
85.970080
 30
0.0
 10
498.061416
 20
85.601600
 30
0.0
 10
497.012600
 20
85.474000
 30
0.0
 10
488.352756
 20
85.459600
 30
0.0
  0
LWPOLYLINE
  5
119
100
AcDbEntity
  8
0
 62
1
100
AcDbPolyline
 90
3
 70
0
 10
488.352756
 20
85.459840
 30
0.0
 10
479.707086
 20
85.459840
 30
0.0
 10
471.047244
 20
85.445440
 30
0.0
  0
LWPOLYLINE
  5
11a
100
AcDbEntity
  8
0
 62
1
100
AcDbPolyline
 90
20
 70
0
 10
471.047244
 20
85.445680
 30
0.0
 10
462.401575
 20
85.445680
 30
0.0
 10
461.551181
 20
85.530720
 30
0.0
 10
460.743307
 20
85.771680
 30
0.0
 10
459.992126
 20
86.168480
 30
0.0
 10
459.340158
 20
86.707120
 30
0.0
 10
458.787402
 20
87.373200
 30
0.0
 10
458.390551
 20
88.124400
 30
0.0
 10
458.149606
 20
88.932320
 30
0.0
 10
458.064567
 20
89.782640
 30
0.0
 10
458.064567
 20
180.817360
 30
0.0
 10
442.162205
 20
157.445680
 30
0.0
 10
426.259842
 20
134.088160
 30
0.0
 10
410.357480
 20
110.716560
 30
0.0
 10
394.455118
 20
87.344880
 30
0.0
 10
393.746457
 20
86.537040
 30
0.0
 10
392.881890
 20
85.941760
 30
0.0
 10
391.903937
 20
85.573200
 30
0.0
 10
390.869291
 20
85.445680
 30
0.0
 10
390.543307
 20
85.460080
 30
0.0
  0
LWPOLYLINE
  5
11b
100
AcDbEntity
  8
0
 62
1
100
AcDbPolyline
 90
2
 70
0
 10
390.543307
 20
85.459840
 30
0.0
 10
390.231496
 20
85.487840
 30
0.0
  0
LWPOLYLINE
  5
11c
100
AcDbEntity
  8
0
 62
1
100
AcDbPolyline
 90
2
 70
0
 10
390.231496
 20
85.488160
 30
0.0
 10
389.905512
 20
85.559360
 30
0.0
  0
LWPOLYLINE
  5
11d
100
AcDbEntity
  8
0
 62
1
100
AcDbPolyline
 90
22
 70
0
 10
389.905512
 20
85.559040
 30
0.0
 10
389.593701
 20
85.644080
 30
0.0
 10
388.346457
 20
86.253520
 30
0.0
 10
387.382677
 20
87.203120
 30
0.0
 10
386.759055
 20
88.407840
 30
0.0
 10
386.532283
 20
89.782640
 30
0.0
 10
386.532283
 20
180.817360
 30
0.0
 10
370.629922
 20
157.445680
 30
0.0
 10
354.727559
 20
134.088160
 30
0.0
 10
338.839370
 20
110.716560
 30
0.0
 10
322.937008
 20
87.344880
 30
0.0
 10
322.228344
 20
86.551200
 30
0.0
 10
321.377952
 20
85.955920
 30
0.0
 10
320.400000
 20
85.573200
 30
0.0
 10
319.351184
 20
85.445680
 30
0.0
 10
262.700784
 20
85.445680
 30
0.0
 10
261.524408
 20
85.601600
 30
0.0
 10
260.461416
 20
86.069280
 30
0.0
 10
259.554328
 20
86.792160
 30
0.0
 10
258.874016
 20
87.755920
 30
0.0
 10
258.462992
 20
88.861440
 30
0.0
 10
258.363776
 20
90.009440
 30
0.0
  0
LWPOLYLINE
  5
11e
100
AcDbEntity
  8
0
 62
1
100
AcDbPolyline
 90
99
 70
0
 10
258.363776
 20
458.513384
 30
0.0
 10
258.590552
 20
459.661416
 30
0.0
 10
259.114960
 20
460.724408
 30
0.0
 10
269.234648
 20
475.592128
 30
0.0
 10
289.474016
 20
505.327560
 30
0.0
 10
299.593704
 20
520.209448
 30
0.0
 10
300.288192
 20
521.003152
 30
0.0
 10
301.152760
 20
521.598424
 30
0.0
 10
302.130712
 20
521.966928
 30
0.0
 10
303.179528
 20
522.108664
 30
0.0
 10
319.337008
 20
522.108664
 30
0.0
 10
327.415744
 20
522.122824
 30
0.0
 10
335.494488
 20
522.122832
 30
0.0
 10
370.615748
 20
573.741728
 30
0.0
 10
388.176378
 20
599.551184
 30
0.0
 10
405.737008
 20
625.360632
 30
0.0
 10
406.686614
 20
626.366928
 30
0.0
 10
407.877166
 20
627.004728
 30
0.0
 10
409.223622
 20
627.245672
 30
0.0
 10
410.598425
 20
627.061416
 30
0.0
 10
411.845670
 20
626.451968
 30
0.0
 10
412.809449
 20
625.488192
 30
0.0
 10
413.433071
 20
624.297640
 30
0.0
 10
413.659842
 20
622.922832
 30
0.0
 10
413.659842
 20
531.874016
 30
0.0
 10
429.562205
 20
555.245672
 30
0.0
 10
445.464567
 20
578.617320
 30
0.0
 10
461.352756
 20
601.988976
 30
0.0
 10
477.255118
 20
625.360632
 30
0.0
 10
478.218898
 20
626.366928
 30
0.0
 10
479.409449
 20
627.004728
 30
0.0
 10
480.741732
 20
627.245672
 30
0.0
 10
482.116535
 20
627.061416
 30
0.0
 10
483.363779
 20
626.451968
 30
0.0
 10
484.341732
 20
625.488192
 30
0.0
 10
484.965354
 20
624.297640
 30
0.0
 10
485.177953
 20
622.922832
 30
0.0
 10
485.177953
 20
522.122832
 30
0.0
 10
537.491336
 20
522.122832
 30
0.0
 10
538.667720
 20
521.966928
 30
0.0
 10
539.730712
 20
521.499216
 30
0.0
 10
540.637792
 20
520.776376
 30
0.0
 10
541.318112
 20
519.826768
 30
0.0
 10
541.729136
 20
518.707088
 30
0.0
 10
541.828344
 20
517.559056
 30
0.0
 10
541.601576
 20
516.411024
 30
0.0
 10
541.077168
 20
515.362208
 30
0.0
 10
530.957480
 20
500.480312
 30
0.0
 10
510.718112
 20
470.744880
 30
0.0
 10
500.598424
 20
455.862992
 30
0.0
 10
499.889768
 20
455.069288
 30
0.0
 10
499.039368
 20
454.474016
 30
0.0
 10
498.061416
 20
454.105512
 30
0.0
 10
497.012600
 20
453.977952
 30
0.0
 10
488.352756
 20
453.963792
 30
0.0
 10
479.707086
 20
453.963776
 30
0.0
 10
471.047244
 20
453.949616
 30
0.0
 10
462.401575
 20
453.949608
 30
0.0
 10
461.551181
 20
454.034648
 30
0.0
 10
460.743307
 20
454.275592
 30
0.0
 10
459.992126
 20
454.672440
 30
0.0
 10
459.340158
 20
455.211024
 30
0.0
 10
458.787402
 20
455.877168
 30
0.0
 10
458.390551
 20
456.628344
 30
0.0
 10
458.149606
 20
457.436224
 30
0.0
 10
458.064567
 20
458.286616
 30
0.0
 10
458.064567
 20
549.321256
 30
0.0
 10
442.162205
 20
525.949608
 30
0.0
 10
426.259842
 20
502.592128
 30
0.0
 10
410.357480
 20
479.220472
 30
0.0
 10
394.455118
 20
455.848816
 30
0.0
 10
393.746457
 20
455.040944
 30
0.0
 10
392.881890
 20
454.445672
 30
0.0
 10
391.903937
 20
454.077168
 30
0.0
 10
390.869291
 20
453.949608
 30
0.0
 10
390.543307
 20
453.963768
 30
0.0
 10
390.231496
 20
453.992096
 30
0.0
 10
389.905512
 20
454.063008
 30
0.0
 10
389.593701
 20
454.148032
 30
0.0
 10
388.346457
 20
454.757480
 30
0.0
 10
387.382677
 20
455.707088
 30
0.0
 10
386.759055
 20
456.911808
 30
0.0
 10
386.532283
 20
458.286616
 30
0.0
 10
386.532283
 20
549.321256
 30
0.0
 10
370.629922
 20
525.949608
 30
0.0
 10
354.727559
 20
502.592128
 30
0.0
 10
338.839370
 20
479.220472
 30
0.0
 10
322.937008
 20
455.848816
 30
0.0
 10
322.228344
 20
455.055120
 30
0.0
 10
321.377952
 20
454.459840
 30
0.0
 10
320.400000
 20
454.077168
 30
0.0
 10
319.351184
 20
453.949608
 30
0.0
 10
262.700784
 20
453.949608
 30
0.0
 10
261.524408
 20
454.105512
 30
0.0
 10
260.461416
 20
454.573232
 30
0.0
 10
259.554328
 20
455.296064
 30
0.0
 10
258.874016
 20
456.259840
 30
0.0
 10
258.462992
 20
457.365352
 30
0.0
 10
258.363776
 20
458.513384
 30
0.0
  0
LWPOLYLINE
  5
11f
100
AcDbEntity
  8
0
 62
1
100
AcDbPolyline
 90
6
 70
0
 10
270.892912
 20
94.105520
 30
0.0
 10
279.538584
 20
106.818880
 30
0.0
 10
288.184256
 20
119.518080
 30
0.0
 10
296.829920
 20
132.231520
 30
0.0
 10
305.475592
 20
144.930720
 30
0.0
 10
313.554328
 20
144.945120
 30
0.0
  0
LWPOLYLINE
  5
120
100
AcDbEntity
  8
0
 62
1
100
AcDbPolyline
 90
3
 70
0
 10
313.554328
 20
144.944880
 30
0.0
 10
329.725984
 20
144.944880
 30
0.0
 10
337.804725
 20
144.959280
 30
0.0
  0
LWPOLYLINE
  5
121
100
AcDbEntity
  8
0
 62
1
100
AcDbPolyline
 90
38
 70
0
 10
337.804725
 20
144.959040
 30
0.0
 10
338.853543
 20
145.086640
 30
0.0
 10
339.831496
 20
145.455120
 30
0.0
 10
340.681890
 20
146.050400
 30
0.0
 10
341.376378
 20
146.858240
 30
0.0
 10
357.278740
 20
170.229920
 30
0.0
 10
373.181102
 20
193.587440
 30
0.0
 10
389.083465
 20
216.959040
 30
0.0
 10
404.985826
 20
240.330720
 30
0.0
 10
404.985826
 20
149.281920
 30
0.0
 10
405.198425
 20
147.921280
 30
0.0
 10
405.836221
 20
146.716560
 30
0.0
 10
406.800000
 20
145.766960
 30
0.0
 10
408.047244
 20
145.143280
 30
0.0
 10
409.422047
 20
144.959040
 30
0.0
 10
410.754330
 20
145.200000
 30
0.0
 10
411.944882
 20
145.837760
 30
0.0
 10
412.908662
 20
146.858240
 30
0.0
 10
428.811024
 20
170.229920
 30
0.0
 10
444.713386
 20
193.587440
 30
0.0
 10
460.615748
 20
216.959040
 30
0.0
 10
476.503937
 20
240.330720
 30
0.0
 10
476.503937
 20
149.296080
 30
0.0
 10
476.588976
 20
148.445680
 30
0.0
 10
476.844094
 20
147.637760
 30
0.0
 10
477.240945
 20
146.886640
 30
0.0
 10
477.779527
 20
146.220480
 30
0.0
 10
478.445670
 20
145.681920
 30
0.0
 10
479.182677
 20
145.285040
 30
0.0
 10
479.990551
 20
145.044080
 30
0.0
 10
480.840945
 20
144.959040
 30
0.0
 10
529.299216
 20
144.959040
 30
0.0
 10
520.653544
 20
132.245680
 30
0.0
 10
512.007872
 20
119.546480
 30
0.0
 10
503.362208
 20
106.833040
 30
0.0
 10
494.716536
 20
94.133840
 30
0.0
 10
487.714961
 20
94.133840
 30
0.0
 10
480.727559
 20
94.119440
 30
0.0
  0
LWPOLYLINE
  5
122
100
AcDbEntity
  8
0
 62
1
100
AcDbPolyline
 90
27
 70
0
 10
480.727559
 20
94.119680
 30
0.0
 10
466.738582
 20
94.119680
 30
0.0
 10
466.738582
 20
194.905520
 30
0.0
 10
466.511811
 20
196.280320
 30
0.0
 10
465.888189
 20
197.485040
 30
0.0
 10
464.924410
 20
198.434640
 30
0.0
 10
463.677166
 20
199.044080
 30
0.0
 10
462.302362
 20
199.228320
 30
0.0
 10
460.955906
 20
198.987440
 30
0.0
 10
459.765354
 20
198.349600
 30
0.0
 10
458.815748
 20
197.343280
 30
0.0
 10
427.011024
 20
150.600000
 30
0.0
 10
411.108662
 20
127.228320
 30
0.0
 10
395.206299
 20
103.856720
 30
0.0
 10
395.206299
 20
194.905520
 30
0.0
 10
394.979527
 20
196.280320
 30
0.0
 10
394.355906
 20
197.485040
 30
0.0
 10
393.392126
 20
198.434640
 30
0.0
 10
392.144882
 20
199.044080
 30
0.0
 10
390.770078
 20
199.242480
 30
0.0
 10
389.437795
 20
198.987440
 30
0.0
 10
388.233071
 20
198.349600
 30
0.0
 10
387.283465
 20
197.343280
 30
0.0
 10
369.722834
 20
171.533840
 30
0.0
 10
334.601575
 20
119.914960
 30
0.0
 10
317.055120
 20
94.105520
 30
0.0
 10
270.892912
 20
94.105520
 30
0.0
  0
LWPOLYLINE
  5
123
100
AcDbEntity
  8
0
 62
1
100
AcDbPolyline
 90
72
 70
0
 10
270.892912
 20
462.609448
 30
0.0
 10
279.538584
 20
475.322832
 30
0.0
 10
288.184256
 20
488.022048
 30
0.0
 10
296.829920
 20
500.735432
 30
0.0
 10
305.475592
 20
513.434648
 30
0.0
 10
313.554328
 20
513.448808
 30
0.0
 10
329.725984
 20
513.448816
 30
0.0
 10
337.804725
 20
513.462976
 30
0.0
 10
338.853543
 20
513.590552
 30
0.0
 10
339.831496
 20
513.959056
 30
0.0
 10
340.681890
 20
514.554328
 30
0.0
 10
341.376378
 20
515.362208
 30
0.0
 10
357.278740
 20
538.733856
 30
0.0
 10
373.181102
 20
562.091336
 30
0.0
 10
389.083465
 20
585.462992
 30
0.0
 10
404.985826
 20
608.834648
 30
0.0
 10
404.985826
 20
517.785824
 30
0.0
 10
405.198425
 20
516.425200
 30
0.0
 10
405.836221
 20
515.220472
 30
0.0
 10
406.800000
 20
514.270864
 30
0.0
 10
408.047244
 20
513.647240
 30
0.0
 10
409.422047
 20
513.462992
 30
0.0
 10
410.754330
 20
513.703936
 30
0.0
 10
411.944882
 20
514.341728
 30
0.0
 10
412.908662
 20
515.362208
 30
0.0
 10
428.811024
 20
538.733856
 30
0.0
 10
444.713386
 20
562.091336
 30
0.0
 10
460.615748
 20
585.462992
 30
0.0
 10
476.503937
 20
608.834648
 30
0.0
 10
476.503937
 20
517.800000
 30
0.0
 10
476.588976
 20
516.949608
 30
0.0
 10
476.844094
 20
516.141728
 30
0.0
 10
477.240945
 20
515.390552
 30
0.0
 10
477.779527
 20
514.724408
 30
0.0
 10
478.445670
 20
514.185824
 30
0.0
 10
479.182677
 20
513.788976
 30
0.0
 10
479.990551
 20
513.548032
 30
0.0
 10
480.840945
 20
513.462992
 30
0.0
 10
529.299216
 20
513.462992
 30
0.0
 10
520.653544
 20
500.749608
 30
0.0
 10
512.007872
 20
488.050392
 30
0.0
 10
503.362208
 20
475.337008
 30
0.0
 10
494.716536
 20
462.637792
 30
0.0
 10
487.714961
 20
462.637792
 30
0.0
 10
480.727559
 20
462.623632
 30
0.0
 10
466.738582
 20
462.623624
 30
0.0
 10
466.738582
 20
563.409448
 30
0.0
 10
466.511811
 20
564.784256
 30
0.0
 10
465.888189
 20
565.988976
 30
0.0
 10
464.924410
 20
566.938584
 30
0.0
 10
463.677166
 20
567.548032
 30
0.0
 10
462.302362
 20
567.732280
 30
0.0
 10
460.955906
 20
567.491336
 30
0.0
 10
459.765354
 20
566.853544
 30
0.0
 10
458.815748
 20
565.847240
 30
0.0
 10
427.011024
 20
519.103936
 30
0.0
 10
411.108662
 20
495.732280
 30
0.0
 10
395.206299
 20
472.360632
 30
0.0
 10
395.206299
 20
563.409448
 30
0.0
 10
394.979527
 20
564.784256
 30
0.0
 10
394.355906
 20
565.988976
 30
0.0
 10
393.392126
 20
566.938584
 30
0.0
 10
392.144882
 20
567.548032
 30
0.0
 10
390.770078
 20
567.746456
 30
0.0
 10
389.437795
 20
567.491336
 30
0.0
 10
388.233071
 20
566.853544
 30
0.0
 10
387.283465
 20
565.847240
 30
0.0
 10
369.722834
 20
540.037792
 30
0.0
 10
352.162205
 20
514.228344
 30
0.0
 10
334.601575
 20
488.418896
 30
0.0
 10
317.055120
 20
462.609448
 30
0.0
 10
270.892912
 20
462.609448
 30
0.0
  0
LWPOLYLINE
  5
124
100
AcDbEntity
  8
0
 62
7
100
AcDbPolyline
 90
5
 70
0
 10
663.009448
 20
71.272480
 30
0.0
 10
663.009448
 20
85.445680
 30
0.0
 10
681.434648
 20
85.445680
 30
0.0
 10
681.434648
 20
71.272480
 30
0.0
 10
663.009448
 20
71.272480
 30
0.0
  0
LWPOLYLINE
  5
125
100
AcDbEntity
  8
0
 62
7
100
AcDbPolyline
 90
5
 70
0
 10
663.009448
 20
142.138560
 30
0.0
 10
663.009448
 20
156.311840
 30
0.0
 10
681.434648
 20
156.311840
 30
0.0
 10
681.434648
 20
142.138560
 30
0.0
 10
663.009448
 20
142.138560
 30
0.0
  0
LWPOLYLINE
  5
126
100
AcDbEntity
  8
0
 62
7
100
AcDbPolyline
 90
5
 70
0
 10
663.009448
 20
439.776376
 30
0.0
 10
663.009448
 20
453.949608
 30
0.0
 10
681.434648
 20
453.949608
 30
0.0
 10
681.434648
 20
439.776376
 30
0.0
 10
663.009448
 20
439.776376
 30
0.0
  0
LWPOLYLINE
  5
127
100
AcDbEntity
  8
0
 62
7
100
AcDbPolyline
 90
5
 70
0
 10
663.009448
 20
510.642520
 30
0.0
 10
663.009448
 20
524.815744
 30
0.0
 10
681.434648
 20
524.815744
 30
0.0
 10
681.434648
 20
510.642520
 30
0.0
 10
663.009448
 20
510.642520
 30
0.0
  0
LWPOLYLINE
  5
128
100
AcDbEntity
  8
0
 62
7
100
AcDbPolyline
 90
21
 70
0
 10
667.970080
 20
113.792160
 30
0.0
 10
668.177008
 20
115.107440
 30
0.0
 10
668.780784
 20
116.292320
 30
0.0
 10
669.721888
 20
117.233360
 30
0.0
 10
670.906768
 20
117.837200
 30
0.0
 10
672.222048
 20
118.044080
 30
0.0
 10
673.537320
 20
117.837200
 30
0.0
 10
674.722208
 20
117.233360
 30
0.0
 10
675.663304
 20
116.292320
 30
0.0
 10
676.267088
 20
115.107440
 30
0.0
 10
676.474016
 20
113.792160
 30
0.0
 10
676.267088
 20
112.476880
 30
0.0
 10
675.663304
 20
111.292000
 30
0.0
 10
674.722208
 20
110.350880
 30
0.0
 10
673.537320
 20
109.747120
 30
0.0
 10
672.222048
 20
109.540160
 30
0.0
 10
670.906768
 20
109.747120
 30
0.0
 10
669.721888
 20
110.350880
 30
0.0
 10
668.780784
 20
111.292000
 30
0.0
 10
668.177008
 20
112.476880
 30
0.0
 10
667.970080
 20
113.792160
 30
0.0
  0
LWPOLYLINE
  5
129
100
AcDbEntity
  8
0
 62
7
100
AcDbPolyline
 90
21
 70
0
 10
667.970080
 20
482.296064
 30
0.0
 10
668.177008
 20
483.611336
 30
0.0
 10
668.780784
 20
484.796224
 30
0.0
 10
669.721888
 20
485.737320
 30
0.0
 10
670.906768
 20
486.341104
 30
0.0
 10
672.222048
 20
486.548032
 30
0.0
 10
673.537320
 20
486.341104
 30
0.0
 10
674.722208
 20
485.737320
 30
0.0
 10
675.663304
 20
484.796224
 30
0.0
 10
676.267088
 20
483.611336
 30
0.0
 10
676.474016
 20
482.296064
 30
0.0
 10
676.267088
 20
480.980784
 30
0.0
 10
675.663304
 20
479.795904
 30
0.0
 10
674.722208
 20
478.854800
 30
0.0
 10
673.537320
 20
478.251024
 30
0.0
 10
672.222048
 20
478.044096
 30
0.0
 10
670.906768
 20
478.251024
 30
0.0
 10
669.721888
 20
478.854800
 30
0.0
 10
668.780784
 20
479.795904
 30
0.0
 10
668.177008
 20
480.980784
 30
0.0
 10
667.970080
 20
482.296064
 30
0.0
  0
LWPOLYLINE
  5
12a
100
AcDbEntity
  8
0
 62
7
100
AcDbPolyline
 90
45
 70
0
 10
703.403152
 20
113.792160
 30
0.0
 10
703.403152
 20
624.028344
 30
0.0
 10
717.576376
 20
624.028344
 30
0.0
 10
717.576376
 20
641.036224
 30
0.0
 10
731.749608
 20
641.036224
 30
0.0
 10
731.749608
 20
624.028344
 30
0.0
 10
755.844096
 20
624.028344
 30
0.0
 10
755.844096
 20
608.437792
 30
0.0
 10
751.592128
 20
608.437792
 30
0.0
 10
751.592128
 20
599.933856
 30
0.0
 10
755.844096
 20
599.933856
 30
0.0
 10
755.844096
 20
595.681888
 30
0.0
 10
764.348032
 20
595.681888
 30
0.0
 10
764.348032
 20
599.933856
 30
0.0
 10
768.600000
 20
599.933856
 30
0.0
 10
768.600000
 20
608.437792
 30
0.0
 10
764.348032
 20
608.437792
 30
0.0
 10
764.348032
 20
624.028344
 30
0.0
 10
788.442520
 20
624.028344
 30
0.0
 10
788.442520
 20
641.036224
 30
0.0
 10
802.615744
 20
641.036224
 30
0.0
 10
802.615744
 20
624.028344
 30
0.0
 10
816.788976
 20
624.028344
 30
0.0
 10
816.788976
 20
113.792160
 30
0.0
 10
802.615744
 20
113.792160
 30
0.0
 10
802.615744
 20
96.784240
 30
0.0
 10
788.442520
 20
96.784240
 30
0.0
 10
788.442520
 20
113.792160
 30
0.0
 10
764.348032
 20
113.792160
 30
0.0
 10
764.348032
 20
129.382640
 30
0.0
 10
768.600000
 20
129.382640
 30
0.0
 10
768.600000
 20
137.886640
 30
0.0
 10
764.348032
 20
137.886640
 30
0.0
 10
764.348032
 20
142.138560
 30
0.0
 10
755.844096
 20
142.138560
 30
0.0
 10
755.844096
 20
137.886640
 30
0.0
 10
751.592128
 20
137.886640
 30
0.0
 10
751.592128
 20
129.382640
 30
0.0
 10
755.844096
 20
129.382640
 30
0.0
 10
755.844096
 20
113.792160
 30
0.0
 10
731.749608
 20
113.792160
 30
0.0
 10
731.749608
 20
96.784240
 30
0.0
 10
717.576376
 20
96.784240
 30
0.0
 10
717.576376
 20
113.792160
 30
0.0
 10
703.403152
 20
113.792160
 30
0.0
  0
ENDSEC
  0
SECTION
  2
OBJECTS
  0
DICTIONARY
  5
C
330
0
100
AcDbDictionary
  3
ACAD_GROUP
350
D
  3
ACAD_MLINESTYLE
350
17
  0
DICTIONARY
  5
D
330
C
100
AcDbDictionary
  0
DICTIONARY
  5
1A
330
C
100
AcDbDictionary
  0
DICTIONARY
  5
17
330
C
100
AcDbDictionary
  3
STANDARD
350
18
  0
DICTIONARY
  5
19
330
C
100
AcDbDictionary
  0
ENDSEC
  0
EOF
