999
DXF created by Inkscape
  0
SECTION
  2
HEADER
  9
$ACADVER
  1
AC1014
  9
$HANDSEED
  5
FFFF
  9
$MEASUREMENT
 70
     1
  0
ENDSEC
  0
SECTION
  2
TABLES
  0
TABLE
  2
VPORT
  5
8
330
0
100
AcDbSymbolTable
 70
     4
  0
VPORT
  5
2E
330
8
100
AcDbSymbolTableRecord
100
AcDbViewportTableRecord
  2
*ACTIVE
 70
     0
 10
0.0
 20
0.0
 11
1.0
 21
1.0
 12
210.0
 22
148.5
 13
0.0
 23
0.0
 14
10.0
 24
10.0
 15
10.0
 25
10.0
 16
0.0
 26
0.0
 36
1.0
 17
0.0
 27
0.0
 37
0.0
 40
341.0
 41
1.24
 42
50.0
 43
0.0
 44
0.0
 50
0.0
 51
0.0
 71
     0
 72
   100
 73
     1
 74
     3
 75
     0
 76
     0
 77
     0
 78
     0
  0
ENDTAB
  0
TABLE
  2
LTYPE
  5
5
330
0
100
AcDbSymbolTable
 70
     1
  0
LTYPE
  5
14
330
5
100
AcDbSymbolTableRecord
100
AcDbLinetypeTableRecord
  2
BYBLOCK
 70
     0
  3

 72
    65
 73
     0
 40
0.0
  0
LTYPE
  5
15
330
5
100
AcDbSymbolTableRecord
100
AcDbLinetypeTableRecord
  2
BYLAYER
 70
     0
  3

 72
    65
 73
     0
 40
0.0
  0
LTYPE
  5
16
330
5
100
AcDbSymbolTableRecord
100
AcDbLinetypeTableRecord
  2
CONTINUOUS
 70
     0
  3
Solid line
 72
    65
 73
     0
 40
0.0
  0
ENDTAB
  0
TABLE
  2
LAYER
  5
2
100
AcDbSymbolTable
 70
2
  0
LAYER
  5
50
100
AcDbSymbolTableRecord
100
AcDbLayerTableRecord
  2
0
 70
0
  6
CONTINUOUS
  0
LAYER
  5
51
100
AcDbSymbolTableRecord
100
AcDbLayerTableRecord
  2
Layer_1
 70
0
  6
CONTINUOUS
  0
ENDTAB
  0
TABLE
  2
STYLE
  5
3
330
0
100
AcDbSymbolTable
 70
     1
  0
STYLE
  5
11
330
3
100
AcDbSymbolTableRecord
100
AcDbTextStyleTableRecord
  2
STANDARD
 70
     0
 40
0.0
 41
1.0
 50
0.0
 71
     0
 42
2.5
  3
txt
  4

  0
ENDTAB
  0
TABLE
  2
VIEW
  5
6
330
0
100
AcDbSymbolTable
 70
     0
  0
ENDTAB
  0
TABLE
  2
UCS
  5
7
330
0
100
AcDbSymbolTable
 70
     0
  0
ENDTAB
  0
TABLE
  2
APPID
  5
9
330
0
100
AcDbSymbolTable
 70
     2
  0
APPID
  5
12
330
9
100
AcDbSymbolTableRecord
100
AcDbRegAppTableRecord
  2
ACAD
 70
     0
  0
ENDTAB
  0
TABLE
  2
DIMSTYLE
  5
A
330
0
100
AcDbSymbolTable
 70
     1
  0
DIMSTYLE
105
27
330
A
100
AcDbSymbolTableRecord
100
AcDbDimStyleTableRecord
  2
ISO-25
 70
     0
  3

  4

  5

  6

  7

 40
1.0
 41
2.5
 42
0.625
 43
3.75
 44
1.25
 45
0.0
 46
0.0
 47
0.0
 48
0.0
140
2.5
141
2.5
142
0.0
143
0.03937007874016
144
1.0
145
0.0
146
1.0
147
0.625
 71
     0
 72
     0
 73
     0
 74
     0
 75
     0
 76
     0
 77
     1
 78
     8
170
     0
171
     3
172
     1
173
     0
174
     0
175
     0
176
     0
177
     0
178
     0
270
     2
271
     2
272
     2
273
     2
274
     3
340
11
275
     0
280
     0
281
     0
282
     0
283
     0
284
     8
285
     0
286
     0
287
     3
288
     0
  0
ENDTAB
  0
TABLE
  2
BLOCK_RECORD
  5
1
330
0
100
AcDbSymbolTable
 70
     1
  0
BLOCK_RECORD
  5
1F
330
1
100
AcDbSymbolTableRecord
100
AcDbBlockTableRecord
  2
*MODEL_SPACE
  0
BLOCK_RECORD
  5
1B
330
1
100
AcDbSymbolTableRecord
100
AcDbBlockTableRecord
  2
*PAPER_SPACE
  0
ENDTAB
  0
ENDSEC
  0
SECTION
  2
BLOCKS
  0
BLOCK
  5
20
330
1F
100
AcDbEntity
  8
0
100
AcDbBlockBegin
  2
*MODEL_SPACE
 70
     0
 10
0.0
 20
0.0
 30
0.0
  3
*MODEL_SPACE
  1

  0
ENDBLK
  5
21
330
1F
100
AcDbEntity
  8
0
100
AcDbBlockEnd
  0
BLOCK
  5
1C
330
1B
100
AcDbEntity
 67
     1
  8
0
100
AcDbBlockBegin
  2
*PAPER_SPACE
  1

  0
ENDBLK
  5
1D
330
1B
100
AcDbEntity
 67
     1
  8
0
100
AcDbBlockEnd
  0
ENDSEC
  0
SECTION
  2
ENTITIES
  0
LWPOLYLINE
  5
100
100
AcDbEntity
  8
Layer_1
 62
7
100
AcDbPolyline
 90
97
 70
0
 10
1.803427
 20
4.951463
 30
0.0
 10
2.258932
 20
4.951463
 30
0.0
 10
2.714437
 20
4.951463
 30
0.0
 10
3.169944
 20
4.951463
 30
0.0
 10
3.625449
 20
4.951463
 30
0.0
 10
4.318557
 20
5.970226
 30
0.0
 10
5.011665
 20
6.988988
 30
0.0
 10
5.704772
 20
8.007751
 30
0.0
 10
6.397880
 20
9.026514
 30
0.0
 10
6.435615
 20
9.066333
 30
0.0
 10
6.482789
 20
9.091735
 30
0.0
 10
6.535496
 20
9.101352
 30
0.0
 10
6.589826
 20
9.093851
 30
0.0
 10
6.639043
 20
9.069551
 30
0.0
 10
6.677237
 20
9.031992
 30
0.0
 10
6.701951
 20
8.984494
 30
0.0
 10
6.710731
 20
8.930382
 30
0.0
 10
6.710731
 20
8.031879
 30
0.0
 10
6.710731
 20
7.133378
 30
0.0
 10
6.710731
 20
6.234876
 30
0.0
 10
6.710731
 20
5.336373
 30
0.0
 10
7.338455
 20
6.258907
 30
0.0
 10
7.966179
 20
7.181443
 30
0.0
 10
8.593901
 20
8.103978
 30
0.0
 10
9.221625
 20
9.026513
 30
0.0
 10
9.259341
 20
9.066308
 30
0.0
 10
9.306501
 20
9.091705
 30
0.0
 10
9.359209
 20
9.101337
 30
0.0
 10
9.413574
 20
9.093853
 30
0.0
 10
9.462787
 20
9.069553
 30
0.0
 10
9.500972
 20
9.031993
 30
0.0
 10
9.525677
 20
8.984496
 30
0.0
 10
9.534457
 20
8.930383
 30
0.0
 10
9.534457
 20
7.935683
 30
0.0
 10
9.534457
 20
6.940984
 30
0.0
 10
9.534457
 20
5.946282
 30
0.0
 10
9.534457
 20
4.951583
 30
0.0
 10
9.810544
 20
4.951741
 30
0.0
 10
10.086631
 20
4.951898
 30
0.0
 10
10.362719
 20
4.952056
 30
0.0
 10
10.638806
 20
4.952214
 30
0.0
 10
10.980149
 20
5.453809
 30
0.0
 10
11.321492
 20
5.955403
 30
0.0
 10
11.662835
 20
6.456999
 30
0.0
 10
12.004178
 20
6.958593
 30
0.0
 10
11.526007
 20
6.958593
 30
0.0
 10
11.047838
 20
6.958593
 30
0.0
 10
10.569669
 20
6.958593
 30
0.0
 10
10.091498
 20
6.958593
 30
0.0
 10
10.057929
 20
6.961909
 30
0.0
 10
10.025955
 20
6.971620
 30
0.0
 10
9.996477
 20
6.987348
 30
0.0
 10
9.970394
 20
7.008709
 30
0.0
 10
9.949016
 20
7.034757
 30
0.0
 10
9.933288
 20
7.064192
 30
0.0
 10
9.923577
 20
7.096122
 30
0.0
 10
9.920261
 20
7.129652
 30
0.0
 10
9.920272
 20
8.028172
 30
0.0
 10
9.920285
 20
8.926693
 30
0.0
 10
9.920296
 20
9.825213
 30
0.0
 10
9.920307
 20
10.723733
 30
0.0
 10
9.292602
 20
9.801173
 30
0.0
 10
8.664897
 20
8.878614
 30
0.0
 10
8.037192
 20
7.956055
 30
0.0
 10
7.409487
 20
7.033495
 30
0.0
 10
7.371765
 20
6.993666
 30
0.0
 10
7.324591
 20
6.968267
 30
0.0
 10
7.271873
 20
6.958650
 30
0.0
 10
7.217515
 20
6.966166
 30
0.0
 10
7.168315
 20
6.990466
 30
0.0
 10
7.130139
 20
7.028022
 30
0.0
 10
7.105434
 20
7.075512
 30
0.0
 10
7.096655
 20
7.129612
 30
0.0
 10
7.096655
 20
8.028138
 30
0.0
 10
7.096655
 20
8.926665
 30
0.0
 10
7.096655
 20
9.825192
 30
0.0
 10
7.096655
 20
10.723718
 30
0.0
 10
6.468991
 20
9.801166
 30
0.0
 10
5.841327
 20
8.878611
 30
0.0
 10
5.213664
 20
7.956058
 30
0.0
 10
4.586000
 20
7.033505
 30
0.0
 10
4.558435
 20
7.002050
 30
0.0
 10
4.524567
 20
6.978497
 30
0.0
 10
4.486042
 20
6.963717
 30
0.0
 10
4.444505
 20
6.958585
 30
0.0
 10
4.125566
 20
6.958427
 30
0.0
 10
3.806628
 20
6.958270
 30
0.0
 10
3.487688
 20
6.958112
 30
0.0
 10
3.168749
 20
6.957954
 30
0.0
 10
2.827417
 20
6.456370
 30
0.0
 10
2.486086
 20
5.954789
 30
0.0
 10
2.144754
 20
5.453205
 30
0.0
 10
1.803423
 20
4.951622
 30
0.0
 10
1.803423
 20
4.951622
 30
0.0
 10
1.803423
 20
4.951624
 30
0.0
 10
1.803423
 20
4.951625
 30
0.0
 10
1.803427
 20
4.951463
 30
0.0
  0
LWPOLYLINE
  5
101
100
AcDbEntity
  8
Layer_1
 62
7
100
AcDbPolyline
 90
129
 70
0
 10
6.539495
 20
4.609366
 30
0.0
 10
6.526895
 20
4.609840
 30
0.0
 10
6.514262
 20
4.611261
 30
0.0
 10
6.501661
 20
4.613614
 30
0.0
 10
6.489140
 20
4.616930
 30
0.0
 10
6.439940
 20
4.641230
 30
0.0
 10
6.401761
 20
4.678786
 30
0.0
 10
6.377059
 20
4.726276
 30
0.0
 10
6.368279
 20
4.780376
 30
0.0
 10
6.368279
 20
5.678878
 30
0.0
 10
6.368279
 20
6.577381
 30
0.0
 10
6.368279
 20
7.475882
 30
0.0
 10
6.368279
 20
8.374384
 30
0.0
 10
5.740639
 20
7.451861
 30
0.0
 10
5.113000
 20
6.529338
 30
0.0
 10
4.485360
 20
5.606815
 30
0.0
 10
3.857721
 20
4.684292
 30
0.0
 10
3.830119
 20
4.652823
 30
0.0
 10
3.796219
 20
4.629266
 30
0.0
 10
3.757664
 20
4.614502
 30
0.0
 10
3.716105
 20
4.609385
 30
0.0
 10
3.157070
 20
4.609385
 30
0.0
 10
2.598035
 20
4.609385
 30
0.0
 10
2.038998
 20
4.609385
 30
0.0
 10
1.479962
 20
4.609385
 30
0.0
 10
1.433731
 20
4.615733
 30
0.0
 10
1.391635
 20
4.633897
 30
0.0
 10
1.355865
 20
4.662558
 30
0.0
 10
1.328607
 20
4.700402
 30
0.0
 10
1.312599
 20
4.744165
 30
0.0
 10
1.308983
 20
4.789826
 30
0.0
 10
1.317604
 20
4.834823
 30
0.0
 10
1.338320
 20
4.876590
 30
0.0
 10
1.737846
 20
5.463679
 30
0.0
 10
2.137374
 20
6.050768
 30
0.0
 10
2.536900
 20
6.637855
 30
0.0
 10
2.936428
 20
7.224944
 30
0.0
 10
2.964008
 20
7.256386
 30
0.0
 10
2.997878
 20
7.279934
 30
0.0
 10
3.036399
 20
7.294714
 30
0.0
 10
3.077923
 20
7.299862
 30
0.0
 10
3.396850
 20
7.300020
 30
0.0
 10
3.715777
 20
7.300178
 30
0.0
 10
4.034704
 20
7.300336
 30
0.0
 10
4.353631
 20
7.300494
 30
0.0
 10
5.046781
 20
8.319293
 30
0.0
 10
5.739931
 20
9.338094
 30
0.0
 10
6.433080
 20
10.356893
 30
0.0
 10
7.126231
 20
11.375692
 30
0.0
 10
7.163973
 20
11.415514
 30
0.0
 10
7.211161
 20
11.440921
 30
0.0
 10
7.263878
 20
11.450553
 30
0.0
 10
7.318202
 20
11.443037
 30
0.0
 10
7.367407
 20
11.418737
 30
0.0
 10
7.405593
 20
11.381178
 30
0.0
 10
7.430305
 20
11.333681
 30
0.0
 10
7.439084
 20
11.279567
 30
0.0
 10
7.439084
 20
10.381041
 30
0.0
 10
7.439084
 20
9.482515
 30
0.0
 10
7.439084
 20
8.583989
 30
0.0
 10
7.439084
 20
7.685463
 30
0.0
 10
8.066791
 20
8.608022
 30
0.0
 10
8.694496
 20
9.530581
 30
0.0
 10
9.322201
 20
10.453141
 30
0.0
 10
9.949908
 20
11.375700
 30
0.0
 10
9.987636
 20
11.415498
 30
0.0
 10
10.034802
 20
11.440900
 30
0.0
 10
10.087514
 20
11.450533
 30
0.0
 10
10.141879
 20
11.443032
 30
0.0
 10
10.191082
 20
11.418729
 30
0.0
 10
10.229267
 20
11.381165
 30
0.0
 10
10.253979
 20
11.333666
 30
0.0
 10
10.262758
 20
11.279563
 30
0.0
 10
10.262747
 20
10.284820
 30
0.0
 10
10.262735
 20
9.290078
 30
0.0
 10
10.262724
 20
8.295336
 30
0.0
 10
10.262713
 20
7.300593
 30
0.0
 10
10.778932
 20
7.300593
 30
0.0
 10
11.295153
 20
7.300593
 30
0.0
 10
11.811373
 20
7.300593
 30
0.0
 10
12.327592
 20
7.300593
 30
0.0
 10
12.373819
 20
7.294245
 30
0.0
 10
12.415904
 20
7.276082
 30
0.0
 10
12.451666
 20
7.247420
 30
0.0
 10
12.478920
 20
7.209577
 30
0.0
 10
12.494941
 20
7.165793
 30
0.0
 10
12.498557
 20
7.120133
 30
0.0
 10
12.489936
 20
7.075149
 30
0.0
 10
12.469206
 20
7.033388
 30
0.0
 10
12.069674
 20
6.446288
 30
0.0
 10
11.670141
 20
5.859187
 30
0.0
 10
11.270610
 20
5.272087
 30
0.0
 10
10.871078
 20
4.684986
 30
0.0
 10
10.843501
 20
4.653544
 30
0.0
 10
10.809637
 20
4.629997
 30
0.0
 10
10.771124
 20
4.615217
 30
0.0
 10
10.729601
 20
4.610069
 30
0.0
 10
10.388035
 20
4.609911
 30
0.0
 10
10.046468
 20
4.609753
 30
0.0
 10
9.704901
 20
4.609595
 30
0.0
 10
9.363335
 20
4.609438
 30
0.0
 10
9.363305
 20
4.609438
 30
0.0
 10
9.363294
 20
4.609438
 30
0.0
 10
9.363304
 20
4.609438
 30
0.0
 10
9.363335
 20
4.609438
 30
0.0
 10
9.329782
 20
4.612754
 30
0.0
 10
9.297824
 20
4.622449
 30
0.0
 10
9.268359
 20
4.638160
 30
0.0
 10
9.242284
 20
4.659503
 30
0.0
 10
9.220893
 20
4.685559
 30
0.0
 10
9.205149
 20
4.715011
 30
0.0
 10
9.195422
 20
4.746957
 30
0.0
 10
9.192091
 20
4.780494
 30
0.0
 10
9.192091
 20
5.678997
 30
0.0
 10
9.192091
 20
6.577498
 30
0.0
 10
9.192091
 20
7.476000
 30
0.0
 10
9.192091
 20
8.374503
 30
0.0
 10
8.564367
 20
7.451967
 30
0.0
 10
7.936644
 20
6.529431
 30
0.0
 10
7.308920
 20
5.606897
 30
0.0
 10
6.681198
 20
4.684362
 30
0.0
 10
6.653206
 20
4.652516
 30
0.0
 10
6.619091
 20
4.629002
 30
0.0
 10
6.580630
 20
4.614443
 30
0.0
 10
6.539604
 20
4.609453
 30
0.0
 10
6.539574
 20
4.609453
 30
0.0
 10
6.539544
 20
4.609452
 30
0.0
 10
6.539514
 20
4.609450
 30
0.0
 10
6.539495
 20
4.609366
 30
0.0
  0
LWPOLYLINE
  5
102
100
AcDbEntity
  8
Layer_1
 62
7
100
AcDbPolyline
 90
129
 70
0
 10
7.390694
 20
14.763750
 30
0.0
 10
7.010864
 20
14.754149
 30
0.0
 10
6.635963
 20
14.725636
 30
0.0
 10
6.266459
 20
14.678683
 30
0.0
 10
5.902820
 20
14.613753
 30
0.0
 10
5.545514
 20
14.531311
 30
0.0
 10
5.195008
 20
14.431820
 30
0.0
 10
4.851770
 20
14.315744
 30
0.0
 10
4.516266
 20
14.183549
 30
0.0
 10
4.188964
 20
14.035698
 30
0.0
 10
3.870333
 20
13.872656
 30
0.0
 10
3.560838
 20
13.694887
 30
0.0
 10
3.260948
 20
13.502856
 30
0.0
 10
2.971131
 20
13.297023
 30
0.0
 10
2.691852
 20
13.077859
 30
0.0
 10
2.423581
 20
12.845823
 30
0.0
 10
2.166785
 20
12.601381
 30
0.0
 10
1.921930
 20
12.344997
 30
0.0
 10
1.689485
 20
12.077136
 30
0.0
 10
1.469916
 20
11.798261
 30
0.0
 10
1.263691
 20
11.508836
 30
0.0
 10
1.071279
 20
11.209327
 30
0.0
 10
0.893145
 20
10.900198
 30
0.0
 10
0.729758
 20
10.581910
 30
0.0
 10
0.581586
 20
10.254932
 30
0.0
 10
0.449094
 20
9.919725
 30
0.0
 10
0.332752
 20
9.576754
 30
0.0
 10
0.233025
 20
9.226483
 30
0.0
 10
0.150383
 20
8.869377
 30
0.0
 10
0.085291
 20
8.505899
 30
0.0
 10
0.038220
 20
8.136515
 30
0.0
 10
0.009632
 20
7.761686
 30
0.0
 10
0.000000
 20
7.381881
 30
0.0
 10
0.009632
 20
7.002076
 30
0.0
 10
0.038220
 20
6.627247
 30
0.0
 10
0.085291
 20
6.257863
 30
0.0
 10
0.150383
 20
5.894385
 30
0.0
 10
0.233025
 20
5.537279
 30
0.0
 10
0.332752
 20
5.187008
 30
0.0
 10
0.449094
 20
4.844037
 30
0.0
 10
0.581586
 20
4.508830
 30
0.0
 10
0.729758
 20
4.181852
 30
0.0
 10
0.893145
 20
3.863564
 30
0.0
 10
1.071279
 20
3.554435
 30
0.0
 10
1.263691
 20
3.254926
 30
0.0
 10
1.469916
 20
2.965501
 30
0.0
 10
1.689485
 20
2.686627
 30
0.0
 10
1.921930
 20
2.418765
 30
0.0
 10
2.166785
 20
2.162381
 30
0.0
 10
2.423581
 20
1.917939
 30
0.0
 10
2.691852
 20
1.685903
 30
0.0
 10
2.971131
 20
1.466739
 30
0.0
 10
3.260948
 20
1.260906
 30
0.0
 10
3.560838
 20
1.068875
 30
0.0
 10
3.870333
 20
0.891106
 30
0.0
 10
4.188964
 20
0.728064
 30
0.0
 10
4.516266
 20
0.580213
 30
0.0
 10
4.851770
 20
0.448018
 30
0.0
 10
5.195008
 20
0.331943
 30
0.0
 10
5.545514
 20
0.232451
 30
0.0
 10
5.902820
 20
0.150009
 30
0.0
 10
6.266459
 20
0.085079
 30
0.0
 10
6.635963
 20
0.038126
 30
0.0
 10
7.010864
 20
0.009613
 30
0.0
 10
7.390694
 20
0.000012
 30
0.0
 10
7.770500
 20
0.009613
 30
0.0
 10
8.145328
 20
0.038126
 30
0.0
 10
8.514712
 20
0.085079
 30
0.0
 10
8.878190
 20
0.150009
 30
0.0
 10
9.235297
 20
0.232451
 30
0.0
 10
9.585568
 20
0.331943
 30
0.0
 10
9.928539
 20
0.448018
 30
0.0
 10
10.263745
 20
0.580213
 30
0.0
 10
10.590724
 20
0.728064
 30
0.0
 10
10.909011
 20
0.891106
 30
0.0
 10
11.218140
 20
1.068875
 30
0.0
 10
11.517649
 20
1.260906
 30
0.0
 10
11.807075
 20
1.466739
 30
0.0
 10
12.085949
 20
1.685903
 30
0.0
 10
12.353811
 20
1.917939
 30
0.0
 10
12.610195
 20
2.162381
 30
0.0
 10
12.854636
 20
2.418765
 30
0.0
 10
13.086673
 20
2.686627
 30
0.0
 10
13.305837
 20
2.965501
 30
0.0
 10
13.511669
 20
3.254926
 30
0.0
 10
13.703700
 20
3.554435
 30
0.0
 10
13.881470
 20
3.863564
 30
0.0
 10
14.044511
 20
4.181852
 30
0.0
 10
14.192362
 20
4.508830
 30
0.0
 10
14.324557
 20
4.844037
 30
0.0
 10
14.440633
 20
5.187008
 30
0.0
 10
14.540124
 20
5.537279
 30
0.0
 10
14.622566
 20
5.894385
 30
0.0
 10
14.687497
 20
6.257863
 30
0.0
 10
14.734450
 20
6.627247
 30
0.0
 10
14.762963
 20
7.002076
 30
0.0
 10
14.772563
 20
7.381881
 30
0.0
 10
14.762963
 20
7.761686
 30
0.0
 10
14.734450
 20
8.136515
 30
0.0
 10
14.687497
 20
8.505899
 30
0.0
 10
14.622566
 20
8.869377
 30
0.0
 10
14.540124
 20
9.226483
 30
0.0
 10
14.440633
 20
9.576754
 30
0.0
 10
14.324557
 20
9.919725
 30
0.0
 10
14.192362
 20
10.254932
 30
0.0
 10
14.044511
 20
10.581910
 30
0.0
 10
13.881470
 20
10.900198
 30
0.0
 10
13.703700
 20
11.209327
 30
0.0
 10
13.511669
 20
11.508836
 30
0.0
 10
13.305837
 20
11.798261
 30
0.0
 10
13.086673
 20
12.077136
 30
0.0
 10
12.854636
 20
12.344997
 30
0.0
 10
12.610195
 20
12.601381
 30
0.0
 10
12.353811
 20
12.845823
 30
0.0
 10
12.085949
 20
13.077859
 30
0.0
 10
11.807075
 20
13.297023
 30
0.0
 10
11.517649
 20
13.502856
 30
0.0
 10
11.218140
 20
13.694887
 30
0.0
 10
10.909011
 20
13.872656
 30
0.0
 10
10.590724
 20
14.035698
 30
0.0
 10
10.263745
 20
14.183549
 30
0.0
 10
9.928539
 20
14.315744
 30
0.0
 10
9.585568
 20
14.431820
 30
0.0
 10
9.235297
 20
14.531311
 30
0.0
 10
8.878190
 20
14.613753
 30
0.0
 10
8.514712
 20
14.678683
 30
0.0
 10
8.145328
 20
14.725636
 30
0.0
 10
7.770500
 20
14.754149
 30
0.0
 10
7.390694
 20
14.763750
 30
0.0
  0
LWPOLYLINE
  5
103
100
AcDbEntity
  8
Layer_1
 62
7
100
AcDbPolyline
 90
129
 70
0
 10
7.390694
 20
14.340416
 30
0.0
 10
7.749157
 20
14.331368
 30
0.0
 10
8.102871
 20
14.304531
 30
0.0
 10
8.451402
 20
14.260335
 30
0.0
 10
8.794314
 20
14.199213
 30
0.0
 10
9.131173
 20
14.121601
 30
0.0
 10
9.461543
 20
14.027935
 30
0.0
 10
9.784990
 20
13.918648
 30
0.0
 10
10.101080
 20
13.794176
 30
0.0
 10
10.409378
 20
13.654953
 30
0.0
 10
10.709448
 20
13.501414
 30
0.0
 10
11.000855
 20
13.333995
 30
0.0
 10
11.283164
 20
13.153129
 30
0.0
 10
11.555941
 20
12.959254
 30
0.0
 10
11.818752
 20
12.752801
 30
0.0
 10
12.071161
 20
12.534207
 30
0.0
 10
12.312733
 20
12.303907
 30
0.0
 10
12.543033
 20
12.062335
 30
0.0
 10
12.761627
 20
11.809926
 30
0.0
 10
12.968080
 20
11.547115
 30
0.0
 10
13.161955
 20
11.274338
 30
0.0
 10
13.342821
 20
10.992029
 30
0.0
 10
13.510240
 20
10.700622
 30
0.0
 10
13.663779
 20
10.400552
 30
0.0
 10
13.803002
 20
10.092254
 30
0.0
 10
13.927474
 20
9.776164
 30
0.0
 10
14.036761
 20
9.452717
 30
0.0
 10
14.130427
 20
9.122347
 30
0.0
 10
14.208039
 20
8.785488
 30
0.0
 10
14.269161
 20
8.442576
 30
0.0
 10
14.313357
 20
8.094045
 30
0.0
 10
14.340194
 20
7.740331
 30
0.0
 10
14.349242
 20
7.381868
 30
0.0
 10
14.340194
 20
7.023405
 30
0.0
 10
14.313357
 20
6.669692
 30
0.0
 10
14.269161
 20
6.321161
 30
0.0
 10
14.208039
 20
5.978250
 30
0.0
 10
14.130427
 20
5.641392
 30
0.0
 10
14.036761
 20
5.311020
 30
0.0
 10
13.927474
 20
4.987572
 30
0.0
 10
13.803002
 20
4.671483
 30
0.0
 10
13.663779
 20
4.363186
 30
0.0
 10
13.510240
 20
4.063117
 30
0.0
 10
13.342821
 20
3.771709
 30
0.0
 10
13.161955
 20
3.489399
 30
0.0
 10
12.968080
 20
3.216622
 30
0.0
 10
12.761627
 20
2.953811
 30
0.0
 10
12.543033
 20
2.701402
 30
0.0
 10
12.312733
 20
2.459831
 30
0.0
 10
12.071161
 20
2.229530
 30
0.0
 10
11.818752
 20
2.010936
 30
0.0
 10
11.555941
 20
1.804483
 30
0.0
 10
11.283164
 20
1.610607
 30
0.0
 10
11.000855
 20
1.429742
 30
0.0
 10
10.709448
 20
1.262323
 30
0.0
 10
10.409378
 20
1.108784
 30
0.0
 10
10.101080
 20
0.969561
 30
0.0
 10
9.784990
 20
0.845089
 30
0.0
 10
9.461543
 20
0.735802
 30
0.0
 10
9.131173
 20
0.642136
 30
0.0
 10
8.794314
 20
0.564524
 30
0.0
 10
8.451402
 20
0.503402
 30
0.0
 10
8.102871
 20
0.459206
 30
0.0
 10
7.749157
 20
0.432368
 30
0.0
 10
7.390694
 20
0.423321
 30
0.0
 10
7.032206
 20
0.432368
 30
0.0
 10
6.678419
 20
0.459206
 30
0.0
 10
6.329769
 20
0.503402
 30
0.0
 10
5.986696
 20
0.564524
 30
0.0
 10
5.649638
 20
0.642136
 30
0.0
 10
5.319033
 20
0.735802
 30
0.0
 10
4.995317
 20
0.845089
 30
0.0
 10
4.678931
 20
0.969561
 30
0.0
 10
4.370310
 20
1.108784
 30
0.0
 10
4.069896
 20
1.262323
 30
0.0
 10
3.778124
 20
1.429742
 30
0.0
 10
3.495435
 20
1.610607
 30
0.0
 10
3.222263
 20
1.804483
 30
0.0
 10
2.959049
 20
2.010936
 30
0.0
 10
2.706231
 20
2.229530
 30
0.0
 10
2.464247
 20
2.459831
 30
0.0
 10
2.233533
 20
2.701402
 30
0.0
 10
2.014529
 20
2.953811
 30
0.0
 10
1.807673
 20
3.216622
 30
0.0
 10
1.613405
 20
3.489399
 30
0.0
 10
1.432158
 20
3.771709
 30
0.0
 10
1.264375
 20
4.063117
 30
0.0
 10
1.110492
 20
4.363186
 30
0.0
 10
0.970946
 20
4.671483
 30
0.0
 10
0.846178
 20
4.987572
 30
0.0
 10
0.736623
 20
5.311020
 30
0.0
 10
0.642721
 20
5.641392
 30
0.0
 10
0.564910
 20
5.978250
 30
0.0
 10
0.503627
 20
6.321161
 30
0.0
 10
0.459312
 20
6.669692
 30
0.0
 10
0.432401
 20
7.023405
 30
0.0
 10
0.423337
 20
7.381868
 30
0.0
 10
0.432401
 20
7.740331
 30
0.0
 10
0.459312
 20
8.094045
 30
0.0
 10
0.503627
 20
8.442576
 30
0.0
 10
0.564910
 20
8.785488
 30
0.0
 10
0.642721
 20
9.122347
 30
0.0
 10
0.736623
 20
9.452717
 30
0.0
 10
0.846178
 20
9.776164
 30
0.0
 10
0.970946
 20
10.092254
 30
0.0
 10
1.110492
 20
10.400552
 30
0.0
 10
1.264375
 20
10.700622
 30
0.0
 10
1.432158
 20
10.992029
 30
0.0
 10
1.613405
 20
11.274338
 30
0.0
 10
1.807673
 20
11.547115
 30
0.0
 10
2.014529
 20
11.809926
 30
0.0
 10
2.233533
 20
12.062335
 30
0.0
 10
2.464247
 20
12.303907
 30
0.0
 10
2.706231
 20
12.534207
 30
0.0
 10
2.959049
 20
12.752801
 30
0.0
 10
3.222263
 20
12.959254
 30
0.0
 10
3.495435
 20
13.153129
 30
0.0
 10
3.778124
 20
13.333995
 30
0.0
 10
4.069896
 20
13.501414
 30
0.0
 10
4.370310
 20
13.654953
 30
0.0
 10
4.678931
 20
13.794176
 30
0.0
 10
4.995317
 20
13.918648
 30
0.0
 10
5.319033
 20
14.027935
 30
0.0
 10
5.649638
 20
14.121601
 30
0.0
 10
5.986696
 20
14.199213
 30
0.0
 10
6.329769
 20
14.260335
 30
0.0
 10
6.678419
 20
14.304531
 30
0.0
 10
7.032206
 20
14.331368
 30
0.0
 10
7.390694
 20
14.340416
 30
0.0
  0
ENDSEC
  0
SECTION
  2
OBJECTS
  0
DICTIONARY
  5
C
330
0
100
AcDbDictionary
  3
ACAD_GROUP
350
D
  3
ACAD_MLINESTYLE
350
17
  0
DICTIONARY
  5
D
330
C
100
AcDbDictionary
  0
DICTIONARY
  5
1A
330
C
100
AcDbDictionary
  0
DICTIONARY
  5
17
330
C
100
AcDbDictionary
  3
STANDARD
350
18
  0
DICTIONARY
  5
19
330
C
100
AcDbDictionary
  0
ENDSEC
  0
EOF
