  0
SECTION
  2
HEADER
  9
$ACADVER
  1
AC1014
  9
$HANDSEED
  5
FFFF
  9
$MEASUREMENT
 70
     1
  0
ENDSEC
  0
SECTION
  2
TABLES
  0
TABLE
  2
VPORT
  5
8
330
0
100
AcDbSymbolTable
 70
     4
  0
VPORT
  5
2E
330
8
100
AcDbSymbolTableRecord
100
AcDbViewportTableRecord
  2
*ACTIVE
 70
     0
 10
0.0
 20
0.0
 11
1.0
 21
1.0
 12
210.0
 22
148.5
 13
0.0
 23
0.0
 14
10.0
 24
10.0
 15
10.0
 25
10.0
 16
0.0
 26
0.0
 36
1.0
 17
0.0
 27
0.0
 37
0.0
 40
341.0
 41
1.24
 42
50.0
 43
0.0
 44
0.0
 50
0.0
 51
0.0
 71
     0
 72
   100
 73
     1
 74
     3
 75
     0
 76
     0
 77
     0
 78
     0
  0
ENDTAB
  0
TABLE
  2
LTYPE
  5
5
330
0
100
AcDbSymbolTable
 70
     1
  0
LTYPE
  5
14
330
5
100
AcDbSymbolTableRecord
100
AcDbLinetypeTableRecord
  2
BYBLOCK
 70
     0
  3

 72
    65
 73
     0
 40
0.0
  0
LTYPE
  5
15
330
5
100
AcDbSymbolTableRecord
100
AcDbLinetypeTableRecord
  2
BYLAYER
 70
     0
  3

 72
    65
 73
     0
 40
0.0
  0
LTYPE
  5
16
330
5
100
AcDbSymbolTableRecord
100
AcDbLinetypeTableRecord
  2
CONTINUOUS
 70
     0
  3
Solid line
 72
    65
 73
     0
 40
0.0
  0
ENDTAB
  0
TABLE
  2
LAYER
  5
2
100
AcDbSymbolTable
 70
2
  0
LAYER
  5
50
100
AcDbSymbolTableRecord
100
AcDbLayerTableRecord
  2
0
 70
0
  6
CONTINUOUS
  0
LAYER
  5
51
100
AcDbSymbolTableRecord
100
AcDbLayerTableRecord
  2
Camada_1
 70
0
  6
CONTINUOUS
  0
ENDTAB
  0
TABLE
  2
STYLE
  5
3
330
0
100
AcDbSymbolTable
 70
     1
  0
STYLE
  5
11
330
3
100
AcDbSymbolTableRecord
100
AcDbTextStyleTableRecord
  2
STANDARD
 70
     0
 40
0.0
 41
1.0
 50
0.0
 71
     0
 42
2.5
  3
txt
  4

  0
ENDTAB
  0
TABLE
  2
VIEW
  5
6
330
0
100
AcDbSymbolTable
 70
     0
  0
ENDTAB
  0
TABLE
  2
UCS
  5
7
330
0
100
AcDbSymbolTable
 70
     0
  0
ENDTAB
  0
TABLE
  2
APPID
  5
9
330
0
100
AcDbSymbolTable
 70
     2
  0
APPID
  5
12
330
9
100
AcDbSymbolTableRecord
100
AcDbRegAppTableRecord
  2
ACAD
 70
     0
  0
ENDTAB
  0
TABLE
  2
DIMSTYLE
  5
A
330
0
100
AcDbSymbolTable
 70
     1
  0
DIMSTYLE
105
27
330
A
100
AcDbSymbolTableRecord
100
AcDbDimStyleTableRecord
  2
ISO-25
 70
     0
  3

  4

  5

  6

  7

 40
1.0
 41
2.5
 42
0.625
 43
3.75
 44
1.25
 45
0.0
 46
0.0
 47
0.0
 48
0.0
140
2.5
141
2.5
142
0.0
143
0.03937007874016
144
1.0
145
0.0
146
1.0
147
0.625
 71
     0
 72
     0
 73
     0
 74
     0
 75
     0
 76
     0
 77
     1
 78
     8
170
     0
171
     3
172
     1
173
     0
174
     0
175
     0
176
     0
177
     0
178
     0
270
     2
271
     2
272
     2
273
     2
274
     3
340
11
275
     0
280
     0
281
     0
282
     0
283
     0
284
     8
285
     0
286
     0
287
     3
288
     0
  0
ENDTAB
  0
TABLE
  2
BLOCK_RECORD
  5
1
330
0
100
AcDbSymbolTable
 70
     1
  0
BLOCK_RECORD
  5
1F
330
1
100
AcDbSymbolTableRecord
100
AcDbBlockTableRecord
  2
*MODEL_SPACE
  0
BLOCK_RECORD
  5
1B
330
1
100
AcDbSymbolTableRecord
100
AcDbBlockTableRecord
  2
*PAPER_SPACE
  0
ENDTAB
  0
ENDSEC
  0
SECTION
  2
BLOCKS
  0
BLOCK
  5
20
330
1F
100
AcDbEntity
  8
0
100
AcDbBlockBegin
  2
*MODEL_SPACE
 70
     0
 10
0.0
 20
0.0
 30
0.0
  3
*MODEL_SPACE
  1

  0
ENDBLK
  5
21
330
1F
100
AcDbEntity
  8
0
100
AcDbBlockEnd
  0
BLOCK
  5
1C
330
1B
100
AcDbEntity
 67
     1
  8
0
100
AcDbBlockBegin
  2
*PAPER_SPACE
  1

  0
ENDBLK
  5
1D
330
1B
100
AcDbEntity
 67
     1
  8
0
100
AcDbBlockEnd
  0
ENDSEC
  0
SECTION
  2
ENTITIES
  0
LWPOLYLINE
  5
100
100
AcDbEntity
  8
Camada_1
 62
7
100
AcDbPolyline
 90
137
 70
0
 10
26.353624
 20
4.916422
 30
0.0
 10
26.353624
 20
6.913934
 30
0.0
 10
26.353624
 20
8.911475
 30
0.0
 10
26.353624
 20
10.908999
 30
0.0
 10
26.353624
 20
12.906525
 30
0.0
 10
26.353624
 20
14.904049
 30
0.0
 10
26.353624
 20
16.901575
 30
0.0
 10
26.353624
 20
18.899099
 30
0.0
 10
26.353624
 20
20.896626
 30
0.0
 10
26.385484
 20
21.216141
 30
0.0
 10
26.476950
 20
21.513055
 30
0.0
 10
26.621846
 20
21.781203
 30
0.0
 10
26.813999
 20
22.014420
 30
0.0
 10
27.047233
 20
22.206540
 30
0.0
 10
27.315376
 20
22.351402
 30
0.0
 10
27.612253
 20
22.442839
 30
0.0
 10
27.931689
 20
22.474688
 30
0.0
 10
28.827143
 20
22.474688
 30
0.0
 10
29.722597
 20
22.474688
 30
0.0
 10
30.618051
 20
22.474688
 30
0.0
 10
31.513505
 20
22.474688
 30
0.0
 10
32.408959
 20
22.474688
 30
0.0
 10
33.304413
 20
22.474688
 30
0.0
 10
34.199867
 20
22.474688
 30
0.0
 10
35.095321
 20
22.474688
 30
0.0
 10
35.414679
 20
22.442839
 30
0.0
 10
35.711518
 20
22.351402
 30
0.0
 10
35.979656
 20
22.206540
 30
0.0
 10
36.212908
 20
22.014420
 30
0.0
 10
36.405090
 20
21.781203
 30
0.0
 10
36.550019
 20
21.513055
 30
0.0
 10
36.641512
 20
21.216141
 30
0.0
 10
36.673384
 20
20.896626
 30
0.0
 10
36.641524
 20
20.577201
 30
0.0
 10
36.550059
 20
20.280354
 30
0.0
 10
36.405164
 20
20.012257
 30
0.0
 10
36.213013
 20
19.779071
 30
0.0
 10
35.979778
 20
19.586971
 30
0.0
 10
35.711636
 20
19.442120
 30
0.0
 10
35.414759
 20
19.350686
 30
0.0
 10
35.095321
 20
19.318837
 30
0.0
 10
34.397125
 20
19.318837
 30
0.0
 10
33.698929
 20
19.318837
 30
0.0
 10
33.000734
 20
19.318837
 30
0.0
 10
32.302537
 20
19.318837
 30
0.0
 10
31.604341
 20
19.318837
 30
0.0
 10
30.906146
 20
19.318837
 30
0.0
 10
30.207950
 20
19.318837
 30
0.0
 10
29.509754
 20
19.318837
 30
0.0
 10
29.509754
 20
18.820960
 30
0.0
 10
29.509754
 20
18.323084
 30
0.0
 10
29.509754
 20
17.825207
 30
0.0
 10
29.509754
 20
17.327330
 30
0.0
 10
29.509754
 20
16.829454
 30
0.0
 10
29.509754
 20
16.331577
 30
0.0
 10
29.509754
 20
15.833700
 30
0.0
 10
29.509754
 20
15.335823
 30
0.0
 10
30.095266
 20
15.335823
 30
0.0
 10
30.680779
 20
15.335823
 30
0.0
 10
31.266291
 20
15.335823
 30
0.0
 10
31.851803
 20
15.335823
 30
0.0
 10
32.437316
 20
15.335823
 30
0.0
 10
33.022828
 20
15.335823
 30
0.0
 10
33.608340
 20
15.335823
 30
0.0
 10
34.193853
 20
15.335823
 30
0.0
 10
34.513289
 20
15.304011
 30
0.0
 10
34.810166
 20
15.212893
 30
0.0
 10
35.078309
 20
15.068937
 30
0.0
 10
35.311543
 20
14.878618
 30
0.0
 10
35.503695
 20
14.648401
 30
0.0
 10
35.648590
 20
14.384757
 30
0.0
 10
35.740055
 20
14.094164
 30
0.0
 10
35.771915
 20
13.783085
 30
0.0
 10
35.740055
 20
13.463637
 30
0.0
 10
35.648590
 20
13.166731
 30
0.0
 10
35.503695
 20
12.898544
 30
0.0
 10
35.311543
 20
12.665259
 30
0.0
 10
35.078309
 20
12.473057
 30
0.0
 10
34.810166
 20
12.328116
 30
0.0
 10
34.513289
 20
12.236620
 30
0.0
 10
34.193853
 20
12.204749
 30
0.0
 10
33.608340
 20
12.204749
 30
0.0
 10
33.022828
 20
12.204749
 30
0.0
 10
32.437316
 20
12.204749
 30
0.0
 10
31.851803
 20
12.204749
 30
0.0
 10
31.266291
 20
12.204749
 30
0.0
 10
30.680779
 20
12.204749
 30
0.0
 10
30.095266
 20
12.204749
 30
0.0
 10
29.509754
 20
12.204749
 30
0.0
 10
29.509754
 20
11.490896
 30
0.0
 10
29.509754
 20
10.777043
 30
0.0
 10
29.509754
 20
10.063193
 30
0.0
 10
29.509754
 20
9.349343
 30
0.0
 10
29.509754
 20
8.635490
 30
0.0
 10
29.509754
 20
7.921637
 30
0.0
 10
29.509754
 20
7.207784
 30
0.0
 10
29.509754
 20
6.493931
 30
0.0
 10
30.270571
 20
6.493931
 30
0.0
 10
31.031389
 20
6.493931
 30
0.0
 10
31.792206
 20
6.493931
 30
0.0
 10
32.553024
 20
6.493931
 30
0.0
 10
33.313841
 20
6.493931
 30
0.0
 10
34.074659
 20
6.493931
 30
0.0
 10
34.835476
 20
6.493931
 30
0.0
 10
35.596294
 20
6.493931
 30
0.0
 10
35.915811
 20
6.462068
 30
0.0
 10
36.212726
 20
6.370600
 30
0.0
 10
36.480874
 20
6.225707
 30
0.0
 10
36.714090
 20
6.033570
 30
0.0
 10
36.906212
 20
5.800342
 30
0.0
 10
37.051073
 20
5.532202
 30
0.0
 10
37.142510
 20
5.235305
 30
0.0
 10
37.174359
 20
4.915886
 30
0.0
 10
37.142510
 20
4.604566
 30
0.0
 10
37.051073
 20
4.313821
 30
0.0
 10
36.906212
 20
4.050112
 30
0.0
 10
36.714090
 20
3.819876
 30
0.0
 10
36.480874
 20
3.629601
 30
0.0
 10
36.212726
 20
3.485696
 30
0.0
 10
35.915811
 20
3.394623
 30
0.0
 10
35.596294
 20
3.362845
 30
0.0
 10
34.638218
 20
3.362845
 30
0.0
 10
33.680143
 20
3.362845
 30
0.0
 10
32.722067
 20
3.362845
 30
0.0
 10
31.763991
 20
3.362845
 30
0.0
 10
30.805916
 20
3.362845
 30
0.0
 10
29.847840
 20
3.362845
 30
0.0
 10
28.889765
 20
3.362845
 30
0.0
 10
27.931689
 20
3.362845
 30
0.0
 10
27.612174
 20
3.394764
 30
0.0
 10
27.315260
 20
3.485950
 30
0.0
 10
27.047112
 20
3.629968
 30
0.0
 10
26.813895
 20
3.820384
 30
0.0
 10
26.621773
 20
4.050677
 30
0.0
 10
26.476911
 20
4.314442
 30
0.0
 10
26.385473
 20
4.605159
 30
0.0
 10
26.353624
 20
4.916422
 30
0.0
  0
LWPOLYLINE
  5
101
100
AcDbEntity
  8
Camada_1
 62
7
100
AcDbPolyline
 90
145
 70
0
 10
0.278269
 20
5.842957
 30
0.0
 10
1.633957
 20
7.837394
 30
0.0
 10
2.989645
 20
9.831813
 30
0.0
 10
4.345334
 20
11.826238
 30
0.0
 10
5.701022
 20
13.820665
 30
0.0
 10
7.056710
 20
15.815093
 30
0.0
 10
8.412399
 20
17.809521
 30
0.0
 10
9.768087
 20
19.803946
 30
0.0
 10
11.123775
 20
21.798374
 30
0.0
 10
11.280372
 20
21.998830
 30
0.0
 10
11.464832
 20
22.167334
 30
0.0
 10
11.672169
 20
22.302406
 30
0.0
 10
11.897396
 20
22.402569
 30
0.0
 10
12.135525
 20
22.466346
 30
0.0
 10
12.381570
 20
22.492254
 30
0.0
 10
12.630543
 20
22.478820
 30
0.0
 10
12.877459
 20
22.424577
 30
0.0
 10
13.111790
 20
22.330114
 30
0.0
 10
13.324379
 20
22.200162
 30
0.0
 10
13.512297
 20
22.039126
 30
0.0
 10
13.672616
 20
21.851417
 30
0.0
 10
13.802407
 20
21.641436
 30
0.0
 10
13.898741
 20
21.413589
 30
0.0
 10
13.958689
 20
21.172286
 30
0.0
 10
13.979322
 20
20.921935
 30
0.0
 10
13.979322
 20
19.563083
 30
0.0
 10
13.979322
 20
18.204229
 30
0.0
 10
13.979322
 20
16.845377
 30
0.0
 10
13.979322
 20
15.486522
 30
0.0
 10
13.979322
 20
14.127670
 30
0.0
 10
13.979322
 20
12.768815
 30
0.0
 10
13.979322
 20
11.409963
 30
0.0
 10
13.979322
 20
10.051108
 30
0.0
 10
14.978101
 20
11.519516
 30
0.0
 10
15.976880
 20
12.987921
 30
0.0
 10
16.975660
 20
14.456329
 30
0.0
 10
17.974439
 20
15.924737
 30
0.0
 10
18.973218
 20
17.393142
 30
0.0
 10
19.971997
 20
18.861549
 30
0.0
 10
20.970776
 20
20.329955
 30
0.0
 10
21.969555
 20
21.798362
 30
0.0
 10
22.126060
 20
21.998819
 30
0.0
 10
22.310452
 20
22.167323
 30
0.0
 10
22.517740
 20
22.302394
 30
0.0
 10
22.742935
 20
22.402558
 30
0.0
 10
22.981044
 20
22.466334
 30
0.0
 10
23.227078
 20
22.492242
 30
0.0
 10
23.476047
 20
22.478809
 30
0.0
 10
23.722960
 20
22.424566
 30
0.0
 10
23.965730
 20
22.330103
 30
0.0
 10
24.184638
 20
22.200151
 30
0.0
 10
24.377063
 20
22.039115
 30
0.0
 10
24.540383
 20
21.851406
 30
0.0
 10
24.671973
 20
21.641424
 30
0.0
 10
24.769214
 20
21.413578
 30
0.0
 10
24.829481
 20
21.172275
 30
0.0
 10
24.850152
 20
20.921924
 30
0.0
 10
24.850152
 20
18.924367
 30
0.0
 10
24.850152
 20
16.926809
 30
0.0
 10
24.850152
 20
14.929251
 30
0.0
 10
24.850152
 20
12.931694
 30
0.0
 10
24.850152
 20
10.934133
 30
0.0
 10
24.850152
 20
8.936570
 30
0.0
 10
24.850152
 20
6.939029
 30
0.0
 10
24.850152
 20
4.941460
 30
0.0
 10
24.818303
 20
4.622013
 30
0.0
 10
24.726866
 20
4.325144
 30
0.0
 10
24.582005
 20
4.057004
 30
0.0
 10
24.389884
 20
3.823776
 30
0.0
 10
24.156668
 20
3.631611
 30
0.0
 10
23.888520
 20
3.486718
 30
0.0
 10
23.591606
 20
3.395250
 30
0.0
 10
23.272090
 20
3.363387
 30
0.0
 10
22.952733
 20
3.395250
 30
0.0
 10
22.655894
 20
3.486718
 30
0.0
 10
22.387756
 20
3.631611
 30
0.0
 10
22.154504
 20
3.823776
 30
0.0
 10
21.962321
 20
4.057004
 30
0.0
 10
21.817392
 20
4.325144
 30
0.0
 10
21.725899
 20
4.622013
 30
0.0
 10
21.694027
 20
4.941460
 30
0.0
 10
21.694027
 20
6.300360
 30
0.0
 10
21.694027
 20
7.659232
 30
0.0
 10
21.694027
 20
9.018132
 30
0.0
 10
21.694027
 20
10.377013
 30
0.0
 10
21.694027
 20
11.735898
 30
0.0
 10
21.694027
 20
13.094787
 30
0.0
 10
21.694027
 20
14.453673
 30
0.0
 10
21.694027
 20
15.812562
 30
0.0
 10
20.698413
 20
14.344123
 30
0.0
 10
19.702799
 20
12.875684
 30
0.0
 10
18.707185
 20
11.407245
 30
0.0
 10
17.711571
 20
9.938806
 30
0.0
 10
16.715957
 20
8.470367
 30
0.0
 10
15.720343
 20
7.001937
 30
0.0
 10
14.724729
 20
5.533478
 30
0.0
 10
13.729115
 20
4.065048
 30
0.0
 10
13.565449
 20
3.864585
 30
0.0
 10
13.377376
 20
3.696070
 30
0.0
 10
13.168724
 20
3.560999
 30
0.0
 10
12.943317
 20
3.460838
 30
0.0
 10
12.704982
 20
3.397056
 30
0.0
 10
12.457544
 20
3.371091
 30
0.0
 10
12.204829
 20
3.384638
 30
0.0
 10
11.950663
 20
3.438881
 30
0.0
 10
11.716321
 20
3.533341
 30
0.0
 10
11.503700
 20
3.663304
 30
0.0
 10
11.315737
 20
3.824340
 30
0.0
 10
11.155367
 20
4.012046
 30
0.0
 10
11.025525
 20
4.222020
 30
0.0
 10
10.929146
 20
4.449858
 30
0.0
 10
10.869166
 20
4.691158
 30
0.0
 10
10.848522
 20
4.941517
 30
0.0
 10
10.848522
 20
6.300417
 30
0.0
 10
10.848522
 20
7.659289
 30
0.0
 10
10.848522
 20
9.018189
 30
0.0
 10
10.848522
 20
10.377069
 30
0.0
 10
10.848522
 20
11.735955
 30
0.0
 10
10.848522
 20
13.094844
 30
0.0
 10
10.848522
 20
14.453729
 30
0.0
 10
10.848522
 20
15.812618
 30
0.0
 10
9.849742
 20
14.344179
 30
0.0
 10
8.850962
 20
12.875740
 30
0.0
 10
7.852182
 20
11.407301
 30
0.0
 10
6.853402
 20
9.938863
 30
0.0
 10
5.854623
 20
8.470424
 30
0.0
 10
4.855843
 20
7.001993
 30
0.0
 10
3.857063
 20
5.533534
 30
0.0
 10
2.858283
 20
4.065104
 30
0.0
 10
2.657795
 20
3.818809
 30
0.0
 10
2.419151
 20
3.625345
 30
0.0
 10
2.151160
 20
3.485843
 30
0.0
 10
1.862632
 20
3.401543
 30
0.0
 10
1.562375
 20
3.373603
 30
0.0
 10
1.259200
 20
3.403152
 30
0.0
 10
0.961915
 20
3.491431
 30
0.0
 10
0.679330
 20
3.639569
 30
0.0
 10
0.440101
 20
3.848132
 30
0.0
 10
0.250210
 20
4.092846
 30
0.0
 10
0.112001
 20
4.365191
 30
0.0
 10
0.027821
 20
4.656642
 30
0.0
 10
0.000013
 20
4.958676
 30
0.0
 10
0.030922
 20
5.262770
 30
0.0
 10
0.122893
 20
5.560374
 30
0.0
 10
0.278269
 20
5.842957
 30
0.0
  0
LWPOLYLINE
  5
102
100
AcDbEntity
  8
Camada_1
 62
7
100
AcDbPolyline
 90
97
 70
0
 10
49.548107
 20
20.871573
 30
0.0
 10
49.515243
 20
20.560256
 30
0.0
 10
49.421342
 20
20.269548
 30
0.0
 10
49.273444
 20
20.005893
 30
0.0
 10
49.078586
 20
19.775729
 30
0.0
 10
48.843806
 20
19.585500
 30
0.0
 10
48.576143
 20
19.441649
 30
0.0
 10
48.282635
 20
19.350612
 30
0.0
 10
47.970321
 20
19.318837
 30
0.0
 10
47.600854
 20
19.318837
 30
0.0
 10
47.231387
 20
19.318837
 30
0.0
 10
46.861919
 20
19.318837
 30
0.0
 10
46.492452
 20
19.318837
 30
0.0
 10
46.122985
 20
19.318837
 30
0.0
 10
45.753518
 20
19.318837
 30
0.0
 10
45.384050
 20
19.318837
 30
0.0
 10
45.014583
 20
19.318837
 30
0.0
 10
45.014583
 20
17.518536
 30
0.0
 10
45.014583
 20
15.718235
 30
0.0
 10
45.014583
 20
13.917931
 30
0.0
 10
45.014583
 20
12.117629
 30
0.0
 10
45.014583
 20
10.317328
 30
0.0
 10
45.014583
 20
8.517013
 30
0.0
 10
45.014583
 20
6.716717
 30
0.0
 10
45.014583
 20
4.916422
 30
0.0
 10
44.982722
 20
4.596918
 30
0.0
 10
44.891258
 20
4.299992
 30
0.0
 10
44.746362
 20
4.031853
 30
0.0
 10
44.554210
 20
3.798652
 30
0.0
 10
44.320976
 20
3.606516
 30
0.0
 10
44.052833
 20
3.461651
 30
0.0
 10
43.755955
 20
3.370211
 30
0.0
 10
43.436517
 20
3.338376
 30
0.0
 10
43.117162
 20
3.370211
 30
0.0
 10
42.820323
 20
3.461651
 30
0.0
 10
42.552186
 20
3.606516
 30
0.0
 10
42.318934
 20
3.798652
 30
0.0
 10
42.126752
 20
4.031853
 30
0.0
 10
41.981822
 20
4.299992
 30
0.0
 10
41.890329
 20
4.596918
 30
0.0
 10
41.858458
 20
4.916422
 30
0.0
 10
41.858458
 20
6.716717
 30
0.0
 10
41.858458
 20
8.517013
 30
0.0
 10
41.858458
 20
10.317328
 30
0.0
 10
41.858458
 20
12.117629
 30
0.0
 10
41.858458
 20
13.917931
 30
0.0
 10
41.858458
 20
15.718235
 30
0.0
 10
41.858458
 20
17.518536
 30
0.0
 10
41.858458
 20
19.318837
 30
0.0
 10
41.489025
 20
19.318837
 30
0.0
 10
41.119592
 20
19.318837
 30
0.0
 10
40.750160
 20
19.318837
 30
0.0
 10
40.380727
 20
19.318837
 30
0.0
 10
40.011294
 20
19.318837
 30
0.0
 10
39.641861
 20
19.318837
 30
0.0
 10
39.272428
 20
19.318837
 30
0.0
 10
38.902996
 20
19.318837
 30
0.0
 10
38.590589
 20
19.350638
 30
0.0
 10
38.297013
 20
19.441728
 30
0.0
 10
38.029300
 20
19.585650
 30
0.0
 10
37.794487
 20
19.775941
 30
0.0
 10
37.599608
 20
20.006138
 30
0.0
 10
37.451699
 20
20.269785
 30
0.0
 10
37.357795
 20
20.560417
 30
0.0
 10
37.324930
 20
20.871573
 30
0.0
 10
37.357795
 20
21.191009
 30
0.0
 10
37.451699
 20
21.487887
 30
0.0
 10
37.599608
 20
21.756029
 30
0.0
 10
37.794487
 20
21.989266
 30
0.0
 10
38.029300
 20
22.181417
 30
0.0
 10
38.297013
 20
22.326313
 30
0.0
 10
38.590589
 20
22.417778
 30
0.0
 10
38.902996
 20
22.449638
 30
0.0
 10
40.036411
 20
22.449638
 30
0.0
 10
41.169827
 20
22.449638
 30
0.0
 10
42.303243
 20
22.449638
 30
0.0
 10
43.436659
 20
22.449638
 30
0.0
 10
44.570074
 20
22.449638
 30
0.0
 10
45.703490
 20
22.449638
 30
0.0
 10
46.836906
 20
22.449638
 30
0.0
 10
47.970321
 20
22.449638
 30
0.0
 10
48.282476
 20
22.417789
 30
0.0
 10
48.575908
 20
22.326352
 30
0.0
 10
48.843560
 20
22.181490
 30
0.0
 10
49.078376
 20
21.989370
 30
0.0
 10
49.273295
 20
21.756153
 30
0.0
 10
49.421262
 20
21.488005
 30
0.0
 10
49.515217
 20
21.191091
 30
0.0
 10
49.548105
 20
20.871573
 30
0.0
 10
49.548105
 20
20.871573
 30
0.0
 10
49.548105
 20
20.871573
 30
0.0
 10
49.548106
 20
20.871573
 30
0.0
 10
49.548106
 20
20.871573
 30
0.0
 10
49.548106
 20
20.871573
 30
0.0
 10
49.548107
 20
20.871573
 30
0.0
 10
49.548107
 20
20.871573
 30
0.0
 10
49.548107
 20
20.871573
 30
0.0
  0
LWPOLYLINE
  5
103
100
AcDbEntity
  8
Camada_1
 62
7
100
AcDbPolyline
 90
81
 70
0
 10
57.062978
 20
21.798374
 30
0.0
 10
57.219552
 20
21.998830
 30
0.0
 10
57.403953
 20
22.167334
 30
0.0
 10
57.611212
 20
22.302406
 30
0.0
 10
57.836357
 20
22.402569
 30
0.0
 10
58.074417
 20
22.466346
 30
0.0
 10
58.320422
 20
22.492254
 30
0.0
 10
58.569401
 20
22.478820
 30
0.0
 10
58.816382
 20
22.424577
 30
0.0
 10
59.050737
 20
22.330114
 30
0.0
 10
59.263388
 20
22.200162
 30
0.0
 10
59.451396
 20
22.039126
 30
0.0
 10
59.611817
 20
21.851417
 30
0.0
 10
59.741707
 20
21.641436
 30
0.0
 10
59.838131
 20
21.413589
 30
0.0
 10
59.898140
 20
21.172286
 30
0.0
 10
59.918799
 20
20.921935
 30
0.0
 10
59.918799
 20
18.924378
 30
0.0
 10
59.918799
 20
16.926820
 30
0.0
 10
59.918799
 20
14.929263
 30
0.0
 10
59.918799
 20
12.931705
 30
0.0
 10
59.918799
 20
10.934145
 30
0.0
 10
59.918799
 20
8.936581
 30
0.0
 10
59.918799
 20
6.939041
 30
0.0
 10
59.918799
 20
4.941472
 30
0.0
 10
59.886987
 20
4.622024
 30
0.0
 10
59.795866
 20
4.325155
 30
0.0
 10
59.651901
 20
4.057016
 30
0.0
 10
59.461559
 20
3.823787
 30
0.0
 10
59.231311
 20
3.631622
 30
0.0
 10
58.967619
 20
3.486729
 30
0.0
 10
58.676959
 20
3.395261
 30
0.0
 10
58.365789
 20
3.363398
 30
0.0
 10
58.046271
 20
3.395261
 30
0.0
 10
57.749356
 20
3.486729
 30
0.0
 10
57.481206
 20
3.631622
 30
0.0
 10
57.247989
 20
3.823787
 30
0.0
 10
57.055869
 20
4.057016
 30
0.0
 10
56.911007
 20
4.325155
 30
0.0
 10
56.819570
 20
4.622024
 30
0.0
 10
56.787721
 20
4.941472
 30
0.0
 10
56.787721
 20
6.300372
 30
0.0
 10
56.787721
 20
7.659244
 30
0.0
 10
56.787721
 20
9.018144
 30
0.0
 10
56.787721
 20
10.377024
 30
0.0
 10
56.787721
 20
11.735910
 30
0.0
 10
56.787721
 20
13.094798
 30
0.0
 10
56.787721
 20
14.453684
 30
0.0
 10
56.787721
 20
15.812573
 30
0.0
 10
55.788905
 20
14.344134
 30
0.0
 10
54.790093
 20
12.875695
 30
0.0
 10
53.791277
 20
11.407256
 30
0.0
 10
52.792463
 20
9.938817
 30
0.0
 10
51.793648
 20
8.470378
 30
0.0
 10
50.794834
 20
7.001948
 30
0.0
 10
49.796019
 20
5.533489
 30
0.0
 10
48.797204
 20
4.065059
 30
0.0
 10
48.596718
 20
3.818764
 30
0.0
 10
48.358071
 20
3.625300
 30
0.0
 10
48.090071
 20
3.485798
 30
0.0
 10
47.801523
 20
3.401498
 30
0.0
 10
47.501233
 20
3.373558
 30
0.0
 10
47.198008
 20
3.403107
 30
0.0
 10
46.900653
 20
3.491386
 30
0.0
 10
46.617975
 20
3.639524
 30
0.0
 10
46.371783
 20
3.848228
 30
0.0
 10
46.178381
 20
4.092745
 30
0.0
 10
46.038951
 20
4.364243
 30
0.0
 10
45.954673
 20
4.653944
 30
0.0
 10
45.926731
 20
4.953043
 30
0.0
 10
45.956301
 20
5.252678
 30
0.0
 10
46.044567
 20
5.544101
 30
0.0
 10
46.192709
 20
5.818477
 30
0.0
 10
47.551493
 20
7.815962
 30
0.0
 10
48.910277
 20
9.813457
 30
0.0
 10
50.269060
 20
11.810944
 30
0.0
 10
51.627844
 20
13.808434
 30
0.0
 10
52.986628
 20
15.805924
 30
0.0
 10
54.345410
 20
17.803414
 30
0.0
 10
55.704195
 20
19.800901
 30
0.0
 10
57.062978
 20
21.798374
 30
0.0
  0
LWPOLYLINE
  5
104
100
AcDbEntity
  8
Camada_1
 62
7
100
AcDbPolyline
 90
145
 70
0
 10
60.970565
 20
5.842957
 30
0.0
 10
62.326287
 20
7.837394
 30
0.0
 10
63.682012
 20
9.831813
 30
0.0
 10
65.037734
 20
11.826238
 30
0.0
 10
66.393456
 20
13.820665
 30
0.0
 10
67.749178
 20
15.815093
 30
0.0
 10
69.104903
 20
17.809521
 30
0.0
 10
70.460626
 20
19.803946
 30
0.0
 10
71.816348
 20
21.798374
 30
0.0
 10
71.972944
 20
21.998830
 30
0.0
 10
72.157408
 20
22.167334
 30
0.0
 10
72.364745
 20
22.302406
 30
0.0
 10
72.589970
 20
22.402569
 30
0.0
 10
72.828100
 20
22.466346
 30
0.0
 10
73.074144
 20
22.492254
 30
0.0
 10
73.323118
 20
22.478820
 30
0.0
 10
73.570034
 20
22.424577
 30
0.0
 10
73.804363
 20
22.330114
 30
0.0
 10
74.016950
 20
22.200162
 30
0.0
 10
74.204868
 20
22.039126
 30
0.0
 10
74.365187
 20
21.851417
 30
0.0
 10
74.494975
 20
21.641436
 30
0.0
 10
74.591309
 20
21.413589
 30
0.0
 10
74.651259
 20
21.172286
 30
0.0
 10
74.671889
 20
20.921935
 30
0.0
 10
74.671889
 20
19.563083
 30
0.0
 10
74.671889
 20
18.204229
 30
0.0
 10
74.671889
 20
16.845377
 30
0.0
 10
74.671889
 20
15.486522
 30
0.0
 10
74.671889
 20
14.127670
 30
0.0
 10
74.671889
 20
12.768815
 30
0.0
 10
74.671889
 20
11.409963
 30
0.0
 10
74.671889
 20
10.051108
 30
0.0
 10
75.670634
 20
11.519516
 30
0.0
 10
76.669379
 20
12.987921
 30
0.0
 10
77.668124
 20
14.456329
 30
0.0
 10
78.666869
 20
15.924737
 30
0.0
 10
79.665614
 20
17.393142
 30
0.0
 10
80.664359
 20
18.861549
 30
0.0
 10
81.663104
 20
20.329955
 30
0.0
 10
82.661849
 20
21.798362
 30
0.0
 10
82.818366
 20
21.998819
 30
0.0
 10
83.002787
 20
22.167323
 30
0.0
 10
83.210122
 20
22.302394
 30
0.0
 10
83.435366
 20
22.402558
 30
0.0
 10
83.673528
 20
22.466334
 30
0.0
 10
83.919606
 20
22.492242
 30
0.0
 10
84.168608
 20
22.478809
 30
0.0
 10
84.415535
 20
22.424566
 30
0.0
 10
84.658131
 20
22.330103
 30
0.0
 10
84.876932
 20
22.200151
 30
0.0
 10
85.069303
 20
22.039115
 30
0.0
 10
85.232605
 20
21.851406
 30
0.0
 10
85.364208
 20
21.641424
 30
0.0
 10
85.461470
 20
21.413578
 30
0.0
 10
85.521762
 20
21.172275
 30
0.0
 10
85.542449
 20
20.921924
 30
0.0
 10
85.542449
 20
18.924367
 30
0.0
 10
85.542449
 20
16.926809
 30
0.0
 10
85.542449
 20
14.929251
 30
0.0
 10
85.542449
 20
12.931694
 30
0.0
 10
85.542449
 20
10.934133
 30
0.0
 10
85.542449
 20
8.936570
 30
0.0
 10
85.542449
 20
6.939029
 30
0.0
 10
85.542449
 20
4.941460
 30
0.0
 10
85.510600
 20
4.622013
 30
0.0
 10
85.419163
 20
4.325144
 30
0.0
 10
85.274301
 20
4.057004
 30
0.0
 10
85.082178
 20
3.823776
 30
0.0
 10
84.848964
 20
3.631611
 30
0.0
 10
84.580813
 20
3.486718
 30
0.0
 10
84.283898
 20
3.395250
 30
0.0
 10
83.964380
 20
3.363387
 30
0.0
 10
83.645105
 20
3.395250
 30
0.0
 10
83.348303
 20
3.486718
 30
0.0
 10
83.080173
 20
3.631611
 30
0.0
 10
82.846902
 20
3.823776
 30
0.0
 10
82.654689
 20
4.057004
 30
0.0
 10
82.509725
 20
4.325144
 30
0.0
 10
82.418203
 20
4.622013
 30
0.0
 10
82.386321
 20
4.941460
 30
0.0
 10
82.386321
 20
6.300360
 30
0.0
 10
82.386321
 20
7.659232
 30
0.0
 10
82.386321
 20
9.018132
 30
0.0
 10
82.386321
 20
10.377013
 30
0.0
 10
82.386321
 20
11.735898
 30
0.0
 10
82.386321
 20
13.094787
 30
0.0
 10
82.386321
 20
14.453673
 30
0.0
 10
82.386321
 20
15.812562
 30
0.0
 10
81.390706
 20
14.344123
 30
0.0
 10
80.395093
 20
12.875684
 30
0.0
 10
79.399478
 20
11.407245
 30
0.0
 10
78.403863
 20
9.938806
 30
0.0
 10
77.408248
 20
8.470367
 30
0.0
 10
76.412633
 20
7.001937
 30
0.0
 10
75.417021
 20
5.533478
 30
0.0
 10
74.421406
 20
4.065048
 30
0.0
 10
74.257742
 20
3.864585
 30
0.0
 10
74.069669
 20
3.696070
 30
0.0
 10
73.861020
 20
3.560999
 30
0.0
 10
73.635611
 20
3.460838
 30
0.0
 10
73.397278
 20
3.397056
 30
0.0
 10
73.149839
 20
3.371091
 30
0.0
 10
72.897123
 20
3.384638
 30
0.0
 10
72.642957
 20
3.438881
 30
0.0
 10
72.408614
 20
3.533341
 30
0.0
 10
72.195993
 20
3.663304
 30
0.0
 10
72.008030
 20
3.824340
 30
0.0
 10
71.847660
 20
4.012046
 30
0.0
 10
71.717818
 20
4.222020
 30
0.0
 10
71.621439
 20
4.449858
 30
0.0
 10
71.561459
 20
4.691158
 30
0.0
 10
71.540828
 20
4.941517
 30
0.0
 10
71.540828
 20
6.300417
 30
0.0
 10
71.540828
 20
7.659289
 30
0.0
 10
71.540828
 20
9.018189
 30
0.0
 10
71.540828
 20
10.377069
 30
0.0
 10
71.540828
 20
11.735955
 30
0.0
 10
71.540828
 20
13.094844
 30
0.0
 10
71.540828
 20
14.453729
 30
0.0
 10
71.540828
 20
15.812618
 30
0.0
 10
70.542050
 20
14.344179
 30
0.0
 10
69.543271
 20
12.875740
 30
0.0
 10
68.544489
 20
11.407301
 30
0.0
 10
67.545710
 20
9.938863
 30
0.0
 10
66.546932
 20
8.470424
 30
0.0
 10
65.548153
 20
7.001993
 30
0.0
 10
64.549371
 20
5.533534
 30
0.0
 10
63.550592
 20
4.065104
 30
0.0
 10
63.350104
 20
3.818809
 30
0.0
 10
63.111463
 20
3.625345
 30
0.0
 10
62.843470
 20
3.485843
 30
0.0
 10
62.554943
 20
3.401543
 30
0.0
 10
62.254687
 20
3.373603
 30
0.0
 10
61.951510
 20
3.403152
 30
0.0
 10
61.654225
 20
3.491431
 30
0.0
 10
61.371639
 20
3.639569
 30
0.0
 10
61.132411
 20
3.848132
 30
0.0
 10
60.942520
 20
4.092846
 30
0.0
 10
60.804310
 20
4.365191
 30
0.0
 10
60.720129
 20
4.656642
 30
0.0
 10
60.692330
 20
4.958676
 30
0.0
 10
60.723239
 20
5.262770
 30
0.0
 10
60.815210
 20
5.560374
 30
0.0
 10
60.970565
 20
5.842957
 30
0.0
  0
LWPOLYLINE
  5
105
100
AcDbEntity
  8
Camada_1
 62
7
100
AcDbPolyline
 90
97
 70
0
 10
129.627769
 20
2.887498
 30
0.0
 10
128.210706
 20
3.030698
 30
0.0
 10
126.890194
 20
3.441303
 30
0.0
 10
125.694709
 20
4.090837
 30
0.0
 10
124.652728
 20
4.950853
 30
0.0
 10
123.792729
 20
5.992817
 30
0.0
 10
123.143186
 20
7.188311
 30
0.0
 10
122.732578
 20
8.508800
 30
0.0
 10
122.589381
 20
9.925875
 30
0.0
 10
122.589381
 20
11.300384
 30
0.0
 10
122.589381
 20
12.674894
 30
0.0
 10
122.589381
 20
14.049401
 30
0.0
 10
122.589381
 20
15.423911
 30
0.0
 10
122.589381
 20
16.798420
 30
0.0
 10
122.589381
 20
18.172927
 30
0.0
 10
122.589381
 20
19.547437
 30
0.0
 10
122.589381
 20
20.921947
 30
0.0
 10
122.621242
 20
21.241371
 30
0.0
 10
122.712707
 20
21.538218
 30
0.0
 10
122.857603
 20
21.806318
 30
0.0
 10
123.049754
 20
22.039502
 30
0.0
 10
123.282991
 20
22.231602
 30
0.0
 10
123.551133
 20
22.376452
 30
0.0
 10
123.848011
 20
22.467887
 30
0.0
 10
124.167447
 20
22.499735
 30
0.0
 10
124.486965
 20
22.467887
 30
0.0
 10
124.783877
 20
22.376452
 30
0.0
 10
125.052024
 20
22.231602
 30
0.0
 10
125.285241
 20
22.039502
 30
0.0
 10
125.477364
 20
21.806318
 30
0.0
 10
125.622226
 20
21.538218
 30
0.0
 10
125.713663
 20
21.241371
 30
0.0
 10
125.745512
 20
20.921947
 30
0.0
 10
125.745512
 20
19.547437
 30
0.0
 10
125.745512
 20
18.172927
 30
0.0
 10
125.745512
 20
16.798420
 30
0.0
 10
125.745512
 20
15.423911
 30
0.0
 10
125.745512
 20
14.049401
 30
0.0
 10
125.745512
 20
12.674894
 30
0.0
 10
125.745512
 20
11.300384
 30
0.0
 10
125.745512
 20
9.925875
 30
0.0
 10
125.823995
 20
9.140668
 30
0.0
 10
126.049262
 20
8.410587
 30
0.0
 10
126.406033
 20
7.750977
 30
0.0
 10
126.879032
 20
7.177022
 30
0.0
 10
127.452982
 20
6.704074
 30
0.0
 10
128.112606
 20
6.347317
 30
0.0
 10
128.842627
 20
6.122103
 30
0.0
 10
129.627769
 20
6.043617
 30
0.0
 10
130.405800
 20
6.122103
 30
0.0
 10
131.132485
 20
6.347317
 30
0.0
 10
131.791674
 20
6.704074
 30
0.0
 10
132.367222
 20
7.177022
 30
0.0
 10
132.842978
 20
7.750977
 30
0.0
 10
133.202797
 20
8.410587
 30
0.0
 10
133.430530
 20
9.140668
 30
0.0
 10
133.510030
 20
9.925875
 30
0.0
 10
133.510030
 20
11.300384
 30
0.0
 10
133.510030
 20
12.674894
 30
0.0
 10
133.510030
 20
14.049401
 30
0.0
 10
133.510030
 20
15.423911
 30
0.0
 10
133.510030
 20
16.798420
 30
0.0
 10
133.510030
 20
18.172927
 30
0.0
 10
133.510030
 20
19.547437
 30
0.0
 10
133.510030
 20
20.921947
 30
0.0
 10
133.541890
 20
21.241371
 30
0.0
 10
133.633355
 20
21.538218
 30
0.0
 10
133.778251
 20
21.806318
 30
0.0
 10
133.970405
 20
22.039502
 30
0.0
 10
134.203639
 20
22.231602
 30
0.0
 10
134.471781
 20
22.376452
 30
0.0
 10
134.768659
 20
22.467887
 30
0.0
 10
135.088095
 20
22.499735
 30
0.0
 10
135.407534
 20
22.467887
 30
0.0
 10
135.704409
 20
22.376452
 30
0.0
 10
135.972554
 20
22.231602
 30
0.0
 10
136.205788
 20
22.039502
 30
0.0
 10
136.397939
 20
21.806318
 30
0.0
 10
136.542835
 20
21.538218
 30
0.0
 10
136.634300
 20
21.241371
 30
0.0
 10
136.666160
 20
20.921947
 30
0.0
 10
136.666160
 20
19.547437
 30
0.0
 10
136.666160
 20
18.172927
 30
0.0
 10
136.666160
 20
16.798420
 30
0.0
 10
136.666160
 20
15.423911
 30
0.0
 10
136.666160
 20
14.049401
 30
0.0
 10
136.666160
 20
12.674894
 30
0.0
 10
136.666160
 20
11.300384
 30
0.0
 10
136.666160
 20
9.925875
 30
0.0
 10
136.522975
 20
8.508800
 30
0.0
 10
136.112392
 20
7.188311
 30
0.0
 10
135.462886
 20
5.992817
 30
0.0
 10
134.602915
 20
4.950853
 30
0.0
 10
133.560954
 20
4.090837
 30
0.0
 10
132.365463
 20
3.441303
 30
0.0
 10
131.044912
 20
3.030698
 30
0.0
 10
129.627769
 20
2.887498
 30
0.0
  0
LWPOLYLINE
  5
106
100
AcDbEntity
  8
Camada_1
 62
7
100
AcDbPolyline
 90
49
 70
0
 10
139.697605
 20
3.363409
 30
0.0
 10
139.378169
 20
3.395272
 30
0.0
 10
139.081291
 20
3.486740
 30
0.0
 10
138.813146
 20
3.631633
 30
0.0
 10
138.579912
 20
3.823798
 30
0.0
 10
138.387758
 20
4.057027
 30
0.0
 10
138.242862
 20
4.325166
 30
0.0
 10
138.151397
 20
4.622036
 30
0.0
 10
138.119537
 20
4.941483
 30
0.0
 10
138.119537
 20
6.935863
 30
0.0
 10
138.119537
 20
8.930271
 30
0.0
 10
138.119537
 20
10.924662
 30
0.0
 10
138.119537
 20
12.919053
 30
0.0
 10
138.119537
 20
14.913447
 30
0.0
 10
138.119537
 20
16.907841
 30
0.0
 10
138.119537
 20
18.902232
 30
0.0
 10
138.119537
 20
20.896626
 30
0.0
 10
138.151397
 20
21.216141
 30
0.0
 10
138.242862
 20
21.513055
 30
0.0
 10
138.387758
 20
21.781203
 30
0.0
 10
138.579912
 20
22.014420
 30
0.0
 10
138.813146
 20
22.206540
 30
0.0
 10
139.081291
 20
22.351402
 30
0.0
 10
139.378169
 20
22.442839
 30
0.0
 10
139.697605
 20
22.474688
 30
0.0
 10
140.009907
 20
22.442839
 30
0.0
 10
140.303381
 20
22.351402
 30
0.0
 10
140.570998
 20
22.206540
 30
0.0
 10
140.805728
 20
22.014420
 30
0.0
 10
141.000535
 20
21.781203
 30
0.0
 10
141.148388
 20
21.513055
 30
0.0
 10
141.242255
 20
21.216141
 30
0.0
 10
141.275109
 20
20.896626
 30
0.0
 10
141.275109
 20
18.902232
 30
0.0
 10
141.275109
 20
16.907841
 30
0.0
 10
141.275109
 20
14.913447
 30
0.0
 10
141.275109
 20
12.919053
 30
0.0
 10
141.275109
 20
10.924662
 30
0.0
 10
141.275109
 20
8.930271
 30
0.0
 10
141.275109
 20
6.935863
 30
0.0
 10
141.275109
 20
4.941483
 30
0.0
 10
141.242255
 20
4.621979
 30
0.0
 10
141.148388
 20
4.325053
 30
0.0
 10
141.000535
 20
4.056914
 30
0.0
 10
140.805728
 20
3.823686
 30
0.0
 10
140.570998
 20
3.631549
 30
0.0
 10
140.303381
 20
3.486684
 30
0.0
 10
140.009907
 20
3.395272
 30
0.0
 10
139.697605
 20
3.363409
 30
0.0
  0
LWPOLYLINE
  5
107
100
AcDbEntity
  8
Camada_1
 62
7
100
AcDbPolyline
 90
121
 70
0
 10
153.999538
 20
3.388527
 30
0.0
 10
153.944476
 20
3.371876
 30
0.0
 10
153.891407
 20
3.359458
 30
0.0
 10
153.840057
 20
3.350427
 30
0.0
 10
153.790140
 20
3.344500
 30
0.0
 10
153.741386
 20
3.340832
 30
0.0
 10
153.693519
 20
3.338009
 30
0.0
 10
153.646255
 20
3.338009
 30
0.0
 10
153.599319
 20
3.337925
 30
0.0
 10
153.394222
 20
3.350625
 30
0.0
 10
153.193810
 20
3.388696
 30
0.0
 10
153.000440
 20
3.451406
 30
0.0
 10
152.816479
 20
3.538190
 30
0.0
 10
152.644284
 20
3.648482
 30
0.0
 10
152.486220
 20
3.781634
 30
0.0
 10
152.344643
 20
3.937111
 30
0.0
 10
152.221922
 20
4.114318
 30
0.0
 10
151.432890
 20
5.476238
 30
0.0
 10
150.643856
 20
6.838158
 30
0.0
 10
149.854825
 20
8.200077
 30
0.0
 10
149.065791
 20
9.561980
 30
0.0
 10
148.276760
 20
10.923897
 30
0.0
 10
147.487729
 20
12.285811
 30
0.0
 10
146.698695
 20
13.647728
 30
0.0
 10
145.909663
 20
15.009642
 30
0.0
 10
145.909663
 20
13.744790
 30
0.0
 10
145.909663
 20
12.479938
 30
0.0
 10
145.909663
 20
11.215086
 30
0.0
 10
145.909663
 20
9.950233
 30
0.0
 10
145.909663
 20
8.685387
 30
0.0
 10
145.909663
 20
7.420523
 30
0.0
 10
145.909663
 20
6.155688
 30
0.0
 10
145.909663
 20
4.890824
 30
0.0
 10
145.877803
 20
4.579505
 30
0.0
 10
145.786338
 20
4.288760
 30
0.0
 10
145.641442
 20
4.025051
 30
0.0
 10
145.449291
 20
3.794842
 30
0.0
 10
145.216057
 20
3.604568
 30
0.0
 10
144.947912
 20
3.460663
 30
0.0
 10
144.651037
 20
3.369590
 30
0.0
 10
144.331598
 20
3.337812
 30
0.0
 10
144.020188
 20
3.369618
 30
0.0
 10
143.729415
 20
3.460748
 30
0.0
 10
143.465709
 20
3.604709
 30
0.0
 10
143.235512
 20
3.795040
 30
0.0
 10
143.045263
 20
4.025305
 30
0.0
 10
142.901400
 20
4.288985
 30
0.0
 10
142.810361
 20
4.579646
 30
0.0
 10
142.778583
 20
4.890824
 30
0.0
 10
142.778583
 20
6.888337
 30
0.0
 10
142.778583
 20
8.885877
 30
0.0
 10
142.778583
 20
10.883401
 30
0.0
 10
142.778583
 20
12.880925
 30
0.0
 10
142.778583
 20
14.878451
 30
0.0
 10
142.778583
 20
16.875975
 30
0.0
 10
142.778583
 20
18.873502
 30
0.0
 10
142.778583
 20
20.871025
 30
0.0
 10
142.800370
 20
21.129919
 30
0.0
 10
142.863563
 20
21.377634
 30
0.0
 10
142.964928
 20
21.610058
 30
0.0
 10
143.101230
 20
21.823082
 30
0.0
 10
143.269235
 20
22.012597
 30
0.0
 10
143.465706
 20
22.174491
 30
0.0
 10
143.687406
 20
22.304661
 30
0.0
 10
143.931105
 20
22.398991
 30
0.0
 10
144.186355
 20
22.442777
 30
0.0
 10
144.441549
 20
22.443906
 30
0.0
 10
144.692007
 20
22.404621
 30
0.0
 10
144.933050
 20
22.326883
 30
0.0
 10
145.160005
 20
22.212746
 30
0.0
 10
145.368195
 20
22.064264
 30
0.0
 10
145.552937
 20
21.883495
 30
0.0
 10
145.709559
 20
21.672488
 30
0.0
 10
146.498591
 20
20.307408
 30
0.0
 10
147.287625
 20
18.942327
 30
0.0
 10
148.076656
 20
17.577246
 30
0.0
 10
148.865687
 20
16.212163
 30
0.0
 10
149.654721
 20
14.847082
 30
0.0
 10
150.443752
 20
13.482002
 30
0.0
 10
151.232786
 20
12.116921
 30
0.0
 10
152.021818
 20
10.751840
 30
0.0
 10
152.021818
 20
12.016726
 30
0.0
 10
152.021818
 20
13.281613
 30
0.0
 10
152.021818
 20
14.546499
 30
0.0
 10
152.021818
 20
15.811388
 30
0.0
 10
152.021818
 20
17.076274
 30
0.0
 10
152.021818
 20
18.341160
 30
0.0
 10
152.021818
 20
19.606046
 30
0.0
 10
152.021818
 20
20.870932
 30
0.0
 10
152.053666
 20
21.190368
 30
0.0
 10
152.145104
 20
21.487246
 30
0.0
 10
152.289966
 20
21.755388
 30
0.0
 10
152.482085
 20
21.988623
 30
0.0
 10
152.715303
 20
22.180774
 30
0.0
 10
152.983448
 20
22.325669
 30
0.0
 10
153.280362
 20
22.417135
 30
0.0
 10
153.599877
 20
22.448995
 30
0.0
 10
153.911047
 20
22.417135
 30
0.0
 10
154.201711
 20
22.325669
 30
0.0
 10
154.465402
 20
22.180774
 30
0.0
 10
154.695653
 20
21.988623
 30
0.0
 10
154.885998
 20
21.755388
 30
0.0
 10
155.029962
 20
21.487246
 30
0.0
 10
155.121086
 20
21.190368
 30
0.0
 10
155.152898
 20
20.870932
 30
0.0
 10
155.152898
 20
18.873408
 30
0.0
 10
155.152898
 20
16.875882
 30
0.0
 10
155.152898
 20
14.878358
 30
0.0
 10
155.152898
 20
12.880832
 30
0.0
 10
155.152898
 20
10.883308
 30
0.0
 10
155.152898
 20
8.885784
 30
0.0
 10
155.152898
 20
6.888243
 30
0.0
 10
155.152898
 20
4.890731
 30
0.0
 10
155.131083
 20
4.632074
 30
0.0
 10
155.067797
 20
4.384848
 30
0.0
 10
154.966296
 20
4.153425
 30
0.0
 10
154.829841
 20
3.942239
 30
0.0
 10
154.661682
 20
3.755661
 30
0.0
 10
154.465078
 20
3.598153
 30
0.0
 10
154.243279
 20
3.474060
 30
0.0
 10
153.999538
 20
3.388527
 30
0.0
  0
LWPOLYLINE
  5
108
100
AcDbEntity
  8
Camada_1
 62
7
100
AcDbPolyline
 90
89
 70
0
 10
167.049606
 20
21.798444
 30
0.0
 10
167.206099
 20
21.998901
 30
0.0
 10
167.390457
 20
22.167402
 30
0.0
 10
167.597699
 20
22.302476
 30
0.0
 10
167.822839
 20
22.402640
 30
0.0
 10
168.060899
 20
22.466416
 30
0.0
 10
168.306887
 20
22.492324
 30
0.0
 10
168.555826
 20
22.478890
 30
0.0
 10
168.802728
 20
22.424645
 30
0.0
 10
169.037241
 20
22.330182
 30
0.0
 10
169.249966
 20
22.200230
 30
0.0
 10
169.437980
 20
22.039197
 30
0.0
 10
169.598361
 20
21.851485
 30
0.0
 10
169.728192
 20
21.641503
 30
0.0
 10
169.824542
 20
21.413660
 30
0.0
 10
169.884498
 20
21.172357
 30
0.0
 10
169.905128
 20
20.922006
 30
0.0
 10
169.905128
 20
18.924446
 30
0.0
 10
169.905128
 20
16.926885
 30
0.0
 10
169.905128
 20
14.929325
 30
0.0
 10
169.905128
 20
12.931767
 30
0.0
 10
169.905128
 20
10.934207
 30
0.0
 10
169.905128
 20
8.936635
 30
0.0
 10
169.905128
 20
6.939094
 30
0.0
 10
169.905128
 20
4.941525
 30
0.0
 10
169.873330
 20
4.622106
 30
0.0
 10
169.782237
 20
4.325209
 30
0.0
 10
169.638307
 20
4.057069
 30
0.0
 10
169.447999
 20
3.823841
 30
0.0
 10
169.217770
 20
3.631704
 30
0.0
 10
168.954076
 20
3.486811
 30
0.0
 10
168.663378
 20
3.395343
 30
0.0
 10
168.352130
 20
3.363480
 30
0.0
 10
168.032694
 20
3.395343
 30
0.0
 10
167.735816
 20
3.486811
 30
0.0
 10
167.467673
 20
3.631704
 30
0.0
 10
167.234439
 20
3.823841
 30
0.0
 10
167.042286
 20
4.057069
 30
0.0
 10
166.897390
 20
4.325209
 30
0.0
 10
166.805924
 20
4.622106
 30
0.0
 10
166.774064
 20
4.941525
 30
0.0
 10
166.774064
 20
6.300425
 30
0.0
 10
166.774064
 20
7.659297
 30
0.0
 10
166.774064
 20
9.018197
 30
0.0
 10
166.774064
 20
10.377083
 30
0.0
 10
166.774064
 20
11.735972
 30
0.0
 10
166.774064
 20
13.094863
 30
0.0
 10
166.774064
 20
14.453752
 30
0.0
 10
166.774064
 20
15.812641
 30
0.0
 10
165.775286
 20
14.344199
 30
0.0
 10
164.776507
 20
12.875760
 30
0.0
 10
163.777728
 20
11.407318
 30
0.0
 10
162.778946
 20
9.938877
 30
0.0
 10
161.780168
 20
8.470432
 30
0.0
 10
160.781389
 20
7.002002
 30
0.0
 10
159.782610
 20
5.533543
 30
0.0
 10
158.783831
 20
4.065113
 30
0.0
 10
158.583434
 20
3.818817
 30
0.0
 10
158.344851
 20
3.625354
 30
0.0
 10
158.076890
 20
3.485880
 30
0.0
 10
157.788354
 20
3.401580
 30
0.0
 10
157.488050
 20
3.373640
 30
0.0
 10
157.184785
 20
3.403189
 30
0.0
 10
156.887366
 20
3.491439
 30
0.0
 10
156.604596
 20
3.639578
 30
0.0
 10
156.358402
 20
3.848281
 30
0.0
 10
156.164995
 20
4.092799
 30
0.0
 10
156.025555
 20
4.364325
 30
0.0
 10
155.941258
 20
4.654026
 30
0.0
 10
155.913290
 20
4.953097
 30
0.0
 10
155.942813
 20
5.252760
 30
0.0
 10
156.031010
 20
5.544155
 30
0.0
 10
156.179058
 20
5.818531
 30
0.0
 10
157.537876
 20
7.816015
 30
0.0
 10
158.896697
 20
9.813511
 30
0.0
 10
160.255516
 20
11.810998
 30
0.0
 10
161.614334
 20
13.808488
 30
0.0
 10
162.973155
 20
15.805977
 30
0.0
 10
164.331973
 20
17.803467
 30
0.0
 10
165.690794
 20
19.800954
 30
0.0
 10
167.049612
 20
21.798444
 30
0.0
 10
167.049612
 20
21.798447
 30
0.0
 10
167.049612
 20
21.798447
 30
0.0
 10
167.049612
 20
21.798450
 30
0.0
 10
167.049612
 20
21.798453
 30
0.0
 10
167.049612
 20
21.798453
 30
0.0
 10
167.049612
 20
21.798456
 30
0.0
 10
167.049612
 20
21.798456
 30
0.0
 10
167.049606
 20
21.798444
 30
0.0
  0
LWPOLYLINE
  5
109
100
AcDbEntity
  8
Camada_1
 62
7
100
AcDbPolyline
 90
105
 70
0
 10
107.441078
 20
3.924016
 30
0.0
 10
107.345224
 20
3.926838
 30
0.0
 10
107.249260
 20
3.935587
 30
0.0
 10
107.153477
 20
3.950262
 30
0.0
 10
107.058148
 20
3.971147
 30
0.0
 10
106.963567
 20
3.997958
 30
0.0
 10
106.870010
 20
4.031034
 30
0.0
 10
106.777766
 20
4.070376
 30
0.0
 10
106.687116
 20
4.116040
 30
0.0
 10
105.533696
 20
4.850438
 30
0.0
 10
104.504265
 20
5.721009
 30
0.0
 10
103.608012
 20
6.712286
 30
0.0
 10
102.854115
 20
7.808833
 30
0.0
 10
102.251765
 20
8.995238
 30
0.0
 10
101.810144
 20
10.256018
 30
0.0
 10
101.538437
 20
11.575757
 30
0.0
 10
101.445826
 20
12.939012
 30
0.0
 10
101.650237
 20
14.960592
 30
0.0
 10
102.236342
 20
16.844710
 30
0.0
 10
103.163453
 20
18.550659
 30
0.0
 10
104.390885
 20
20.037725
 30
0.0
 10
105.877948
 20
21.265199
 30
0.0
 10
107.583956
 20
22.192370
 30
0.0
 10
109.468221
 20
22.778526
 30
0.0
 10
111.490056
 20
22.982959
 30
0.0
 10
113.511543
 20
22.778548
 30
0.0
 10
115.395593
 20
22.192449
 30
0.0
 10
117.101491
 20
21.265346
 30
0.0
 10
118.588526
 20
20.037936
 30
0.0
 10
119.815978
 20
18.550905
 30
0.0
 10
120.743137
 20
16.844948
 30
0.0
 10
121.329293
 20
14.960753
 30
0.0
 10
121.533724
 20
12.939012
 30
0.0
 10
121.441126
 20
11.576005
 30
0.0
 10
121.169457
 20
10.256408
 30
0.0
 10
120.727900
 20
8.995690
 30
0.0
 10
120.125641
 20
7.809284
 30
0.0
 10
119.371865
 20
6.712710
 30
0.0
 10
118.475753
 20
5.721376
 30
0.0
 10
117.446494
 20
4.850749
 30
0.0
 10
116.293269
 20
4.116322
 30
0.0
 10
115.998567
 20
3.992229
 30
0.0
 10
115.694424
 20
3.931184
 30
0.0
 10
115.389433
 20
3.931184
 30
0.0
 10
115.092188
 20
3.988560
 30
0.0
 10
114.811275
 20
4.101336
 30
0.0
 10
114.555285
 20
4.266972
 30
0.0
 10
114.332812
 20
4.482957
 30
0.0
 10
114.152447
 20
4.746722
 30
0.0
 10
114.028359
 20
5.041249
 30
0.0
 10
113.967303
 20
5.345287
 30
0.0
 10
113.966739
 20
5.650256
 30
0.0
 10
114.024137
 20
5.947492
 30
0.0
 10
114.136956
 20
6.228445
 30
0.0
 10
114.302657
 20
6.484505
 30
0.0
 10
114.518701
 20
6.707094
 30
0.0
 10
114.782556
 20
6.887546
 30
0.0
 10
115.573944
 20
7.391454
 30
0.0
 10
116.280256
 20
7.988749
 30
0.0
 10
116.895193
 20
8.668820
 30
0.0
 10
117.412452
 20
9.421055
 30
0.0
 10
117.825736
 20
10.234840
 30
0.0
 10
118.128738
 20
11.099595
 30
0.0
 10
118.315160
 20
12.004707
 30
0.0
 10
118.378702
 20
12.939576
 30
0.0
 10
118.238491
 20
14.325982
 30
0.0
 10
117.836483
 20
15.618136
 30
0.0
 10
117.200599
 20
16.788114
 30
0.0
 10
116.358773
 20
17.807989
 30
0.0
 10
115.338932
 20
18.649835
 30
0.0
 10
114.169005
 20
19.285727
 30
0.0
 10
112.876921
 20
19.687741
 30
0.0
 10
111.490606
 20
19.827952
 30
0.0
 10
110.104107
 20
19.687741
 30
0.0
 10
108.811882
 20
19.285727
 30
0.0
 10
107.641857
 20
18.649835
 30
0.0
 10
106.621948
 20
17.807989
 30
0.0
 10
105.780082
 20
16.788114
 30
0.0
 10
105.144179
 20
15.618136
 30
0.0
 10
104.742162
 20
14.325982
 30
0.0
 10
104.601951
 20
12.939576
 30
0.0
 10
104.665505
 20
12.004616
 30
0.0
 10
104.851957
 20
11.099431
 30
0.0
 10
105.155008
 20
10.234626
 30
0.0
 10
105.568342
 20
9.420801
 30
0.0
 10
106.085652
 20
8.668538
 30
0.0
 10
106.700637
 20
7.988467
 30
0.0
 10
107.406980
 20
7.391172
 30
0.0
 10
108.198382
 20
6.887264
 30
0.0
 10
108.462234
 20
6.706868
 30
0.0
 10
108.678278
 20
6.484364
 30
0.0
 10
108.843980
 20
6.228304
 30
0.0
 10
108.956798
 20
5.947351
 30
0.0
 10
109.014196
 20
5.650115
 30
0.0
 10
109.013632
 20
5.345174
 30
0.0
 10
108.952576
 20
5.041164
 30
0.0
 10
108.828488
 20
4.746722
 30
0.0
 10
108.709317
 20
4.560596
 30
0.0
 10
108.569081
 20
4.396653
 30
0.0
 10
108.410560
 20
4.255711
 30
0.0
 10
108.236539
 20
4.138561
 30
0.0
 10
108.049795
 20
4.046048
 30
0.0
 10
107.853117
 20
3.978936
 30
0.0
 10
107.649279
 20
3.938098
 30
0.0
 10
107.441078
 20
3.924016
 30
0.0
  0
LWPOLYLINE
  5
10a
100
AcDbEntity
  8
Camada_1
 62
7
100
AcDbPolyline
 90
49
 70
0
 10
111.489776
 20
-0.000002
 30
0.0
 10
111.171788
 20
0.032058
 30
0.0
 10
110.875618
 20
0.123978
 30
0.0
 10
110.607609
 20
0.269464
 30
0.0
 10
110.374101
 20
0.462108
 30
0.0
 10
110.181442
 20
0.695619
 30
0.0
 10
110.035976
 20
0.963617
 30
0.0
 10
109.944045
 20
1.259810
 30
0.0
 10
109.911990
 20
1.577789
 30
0.0
 10
109.911990
 20
2.314220
 30
0.0
 10
109.911990
 20
3.050651
 30
0.0
 10
109.911990
 20
3.787081
 30
0.0
 10
109.911990
 20
4.523512
 30
0.0
 10
109.911990
 20
5.259943
 30
0.0
 10
109.911990
 20
5.996373
 30
0.0
 10
109.911990
 20
6.732804
 30
0.0
 10
109.911990
 20
7.469235
 30
0.0
 10
109.944045
 20
7.787214
 30
0.0
 10
110.035976
 20
8.083407
 30
0.0
 10
110.181442
 20
8.351405
 30
0.0
 10
110.374101
 20
8.584916
 30
0.0
 10
110.607609
 20
8.777560
 30
0.0
 10
110.875618
 20
8.923046
 30
0.0
 10
111.171788
 20
9.014966
 30
0.0
 10
111.489776
 20
9.047026
 30
0.0
 10
111.807762
 20
9.014966
 30
0.0
 10
112.103934
 20
8.923046
 30
0.0
 10
112.371944
 20
8.777560
 30
0.0
 10
112.605449
 20
8.584916
 30
0.0
 10
112.798108
 20
8.351405
 30
0.0
 10
112.943576
 20
8.083407
 30
0.0
 10
113.035507
 20
7.787214
 30
0.0
 10
113.067562
 20
7.469235
 30
0.0
 10
113.067562
 20
6.732804
 30
0.0
 10
113.067562
 20
5.996373
 30
0.0
 10
113.067562
 20
5.259943
 30
0.0
 10
113.067562
 20
4.523512
 30
0.0
 10
113.067562
 20
3.787081
 30
0.0
 10
113.067562
 20
3.050651
 30
0.0
 10
113.067562
 20
2.314220
 30
0.0
 10
113.067562
 20
1.577789
 30
0.0
 10
113.035507
 20
1.259810
 30
0.0
 10
112.943576
 20
0.963617
 30
0.0
 10
112.798108
 20
0.695619
 30
0.0
 10
112.605449
 20
0.462108
 30
0.0
 10
112.371944
 20
0.269464
 30
0.0
 10
112.103934
 20
0.123978
 30
0.0
 10
111.807762
 20
0.032058
 30
0.0
 10
111.489776
 20
-0.000002
 30
0.0
  0
LWPOLYLINE
  5
10b
100
AcDbEntity
  8
Camada_1
 62
7
100
AcDbPolyline
 90
97
 70
0
 10
101.284127
 20
24.613351
 30
0.0
 10
101.003341
 20
24.766011
 30
0.0
 10
100.706858
 20
24.856889
 30
0.0
 10
100.403489
 20
24.887666
 30
0.0
 10
100.102036
 20
24.860008
 30
0.0
 10
99.811311
 20
24.775604
 30
0.0
 10
99.540112
 20
24.636127
 30
0.0
 10
99.297251
 20
24.443250
 30
0.0
 10
99.091534
 20
24.198654
 30
0.0
 10
97.526620
 20
21.902841
 30
0.0
 10
95.961706
 20
19.607025
 30
0.0
 10
94.396793
 20
17.311213
 30
0.0
 10
92.831879
 20
15.015400
 30
0.0
 10
91.266965
 20
12.719584
 30
0.0
 10
89.702051
 20
10.423771
 30
0.0
 10
88.137138
 20
8.127964
 30
0.0
 10
86.572224
 20
5.832143
 30
0.0
 10
86.419567
 20
5.551360
 30
0.0
 10
86.328691
 20
5.254829
 30
0.0
 10
86.297929
 20
4.951440
 30
0.0
 10
86.325615
 20
4.649942
 30
0.0
 10
86.410050
 20
4.359225
 30
0.0
 10
86.549578
 20
4.088009
 30
0.0
 10
86.742522
 20
3.845185
 30
0.0
 10
86.987209
 20
3.639558
 30
0.0
 10
87.090926
 20
3.574562
 30
0.0
 10
87.197625
 20
3.518541
 30
0.0
 10
87.306843
 20
3.471382
 30
0.0
 10
87.418117
 20
3.432971
 30
0.0
 10
87.530981
 20
3.403282
 30
0.0
 10
87.644973
 20
3.382115
 30
0.0
 10
87.759631
 20
3.369415
 30
0.0
 10
87.874490
 20
3.365182
 30
0.0
 10
88.062845
 20
3.376471
 30
0.0
 10
88.248263
 20
3.409942
 30
0.0
 10
88.428603
 20
3.465229
 30
0.0
 10
88.601735
 20
3.541937
 30
0.0
 10
88.765525
 20
3.639671
 30
0.0
 10
88.917843
 20
3.758007
 30
0.0
 10
89.056553
 20
3.896578
 30
0.0
 10
89.179522
 20
4.054933
 30
0.0
 10
90.176286
 20
5.517211
 30
0.0
 10
91.173047
 20
6.979489
 30
0.0
 10
92.169811
 20
8.441795
 30
0.0
 10
93.166572
 20
9.904065
 30
0.0
 10
94.163336
 20
11.366348
 30
0.0
 10
95.160096
 20
12.828629
 30
0.0
 10
96.156860
 20
14.290913
 30
0.0
 10
97.153621
 20
15.753196
 30
0.0
 10
97.153621
 20
14.403737
 30
0.0
 10
97.153621
 20
13.054274
 30
0.0
 10
97.153621
 20
11.704814
 30
0.0
 10
97.153621
 20
10.355352
 30
0.0
 10
97.153621
 20
9.005901
 30
0.0
 10
97.153621
 20
7.656427
 30
0.0
 10
97.153621
 20
6.306981
 30
0.0
 10
97.153621
 20
4.957508
 30
0.0
 10
97.185687
 20
4.639528
 30
0.0
 10
97.277649
 20
4.343336
 30
0.0
 10
97.423163
 20
4.075337
 30
0.0
 10
97.615873
 20
3.841827
 30
0.0
 10
97.849429
 20
3.649182
 30
0.0
 10
98.117483
 20
3.503696
 30
0.0
 10
98.413684
 20
3.411777
 30
0.0
 10
98.731684
 20
3.379716
 30
0.0
 10
99.049590
 20
3.411777
 30
0.0
 10
99.345723
 20
3.503696
 30
0.0
 10
99.613727
 20
3.649182
 30
0.0
 10
99.847252
 20
3.841827
 30
0.0
 10
100.039942
 20
4.075337
 30
0.0
 10
100.185444
 20
4.343336
 30
0.0
 10
100.277403
 20
4.639528
 30
0.0
 10
100.309469
 20
4.957508
 30
0.0
 10
100.309469
 20
6.885735
 30
0.0
 10
100.309469
 20
8.813961
 30
0.0
 10
100.309469
 20
10.742180
 30
0.0
 10
100.309469
 20
12.670404
 30
0.0
 10
100.309469
 20
14.598628
 30
0.0
 10
100.309469
 20
16.526852
 30
0.0
 10
100.309469
 20
18.455076
 30
0.0
 10
100.309469
 20
20.383300
 30
0.0
 10
100.483104
 20
20.638031
 30
0.0
 10
100.656741
 20
20.892762
 30
0.0
 10
100.830375
 20
21.147490
 30
0.0
 10
101.004013
 20
21.402221
 30
0.0
 10
101.177647
 20
21.656952
 30
0.0
 10
101.351282
 20
21.911683
 30
0.0
 10
101.524919
 20
22.166411
 30
0.0
 10
101.698553
 20
22.421142
 30
0.0
 10
101.851303
 20
22.701767
 30
0.0
 10
101.942249
 20
22.998165
 30
0.0
 10
101.973074
 20
23.301506
 30
0.0
 10
101.945444
 20
23.602953
 30
0.0
 10
101.861060
 20
23.893673
 30
0.0
 10
101.721594
 20
24.164841
 30
0.0
 10
101.528723
 20
24.407620
 30
0.0
 10
101.284127
 20
24.613351
 30
0.0
  0
ENDSEC
  0
SECTION
  2
OBJECTS
  0
DICTIONARY
  5
C
330
0
100
AcDbDictionary
  3
ACAD_GROUP
350
D
  3
ACAD_MLINESTYLE
350
17
  0
DICTIONARY
  5
D
330
C
100
AcDbDictionary
  0
DICTIONARY
  5
1A
330
C
100
AcDbDictionary
  0
DICTIONARY
  5
17
330
C
100
AcDbDictionary
  3
STANDARD
350
18
  0
DICTIONARY
  5
19
330
C
100
AcDbDictionary
  0
ENDSEC
  0
EOF
