<?xml version="1.0" encoding="UTF-8" standalone="no"?>
<svg
   xmlns:dc="http://purl.org/dc/elements/1.1/"
   xmlns:cc="http://creativecommons.org/ns#"
   xmlns:rdf="http://www.w3.org/1999/02/22-rdf-syntax-ns#"
   xmlns:svg="http://www.w3.org/2000/svg"
   xmlns="http://www.w3.org/2000/svg"
   xmlns:sodipodi="http://sodipodi.sourceforge.net/DTD/sodipodi-0.dtd"
   xmlns:inkscape="http://www.inkscape.org/namespaces/inkscape"
   width="676.85956"
   height="88.184639"
   id="svg3182"
   version="1.1"
   inkscape:version="0.48.2 r9819"
   sodipodi:docname="metamaquina-170mm_X_25mm.dxf">
  <metadata
     id="metadata3230">
    <rdf:RDF>
      <cc:Work
         rdf:about="">
        <dc:format>image/svg+xml</dc:format>
        <dc:type
           rdf:resource="http://purl.org/dc/dcmitype/StillImage" />
        <dc:title></dc:title>
      </cc:Work>
    </rdf:RDF>
  </metadata>
  <sodipodi:namedview
     pagecolor="#ffffff"
     bordercolor="#666666"
     borderopacity="1"
     objecttolerance="10"
     gridtolerance="10"
     guidetolerance="10"
     inkscape:pageopacity="0"
     inkscape:pageshadow="2"
     inkscape:window-width="1920"
     inkscape:window-height="1011"
     id="namedview3228"
     showgrid="false"
     fit-margin-top="0"
     fit-margin-left="0"
     fit-margin-right="0"
     fit-margin-bottom="0"
     inkscape:zoom="5.0743655"
     inkscape:cx="440.64647"
     inkscape:cy="34.577382"
     inkscape:window-x="0"
     inkscape:window-y="0"
     inkscape:window-maximized="1"
     inkscape:current-layer="g3202" />
  <desc
     id="desc3184">/home/felipe/devel/github_metamaquina/Metamaquina2/metamaquina-170mm_X_25mm.dxf - scale = 1.000000</desc>
  <defs
     id="defs3186">
    <marker
       refY="0"
       refX="0"
       style="overflow:visible"
       id="DistanceX"
       orient="auto">
      <path
         style="stroke:#000000;stroke-width:0.5"
         d="M 3,-3 -3,3 M 0,-5 0,5"
         id="path3189"
         inkscape:connector-curvature="0" />
    </marker>
    <pattern
       height="8"
       width="8"
       patternUnits="userSpaceOnUse"
       y="0"
       x="0"
       id="Hatch">
      <path
         linecap="square"
         stroke="#000000"
         stroke-width="0.25"
         d="M8 4 l-4,4"
         id="path3192" />
      <path
         linecap="square"
         stroke="#000000"
         stroke-width="0.25"
         d="M6 2 l-4,4"
         id="path3194" />
      <path
         linecap="square"
         stroke="#000000"
         stroke-width="0.25"
         d="M4 0 l-4,4"
         id="path3196" />
    </pattern>
    <symbol
       id="*MODEL_SPACE" />
    <symbol
       id="*PAPER_SPACE" />
  </defs>
  <g
     inkscape:label="0"
     inkscape:groupmode="layer"
     id="g3200"
     transform="translate(-4.1e-5,-964.17756)" />
  <g
     inkscape:label="Camada_1"
     inkscape:groupmode="layer"
     id="g3202"
     transform="translate(-4.1e-5,-964.17756)">
    <path
       id="path3001"
       style="font-size:202.07637024px;font-style:normal;font-variant:normal;font-weight:bold;font-stretch:normal;line-height:125%;letter-spacing:0px;word-spacing:0px;fill:#800000;fill-opacity:1;stroke:none;font-family:Garoa Hacker Clube;-inkscape-font-specification:Garoa Hacker Clube Bold"
       d="m 667.40427,1022.1322 -2.12286,0 -2.12286,0 -2.12286,0 -2.12286,0 -2.12285,0 -2.12286,0 -2.12286,0 -2.12286,0 0,-0.7573 0,-0.7574 0,-0.7573 0,-0.7574 0,-0.7573 0,-0.7573 0,-0.7574 0,-0.7573 0.12479,-1.2092 0.35716,-1.1317 0.5637,-1.0284 0.74444,-0.8994 0.89934,-0.7444 1.02844,-0.5637 1.13171,-0.3572 1.20917,-0.1248 4.11752,-0.4126 3.83029,-1.1838 3.46237,-1.8746 3.01378,-2.4845 2.4845,-3.0137 1.87454,-3.46238 1.18389,-3.83026 0.41256,-4.1175 -0.41256,-4.09116 -1.18389,-3.81793 -1.87454,-3.46076 -2.4845,-3.0197 -3.01378,-2.49472 -3.46237,-1.88584 -3.83029,-1.19303 -4.11752,-0.41633 -1.38846,0 -1.38847,0 -1.38846,0 -1.38847,0 -1.38846,0 -1.38846,0 -1.38847,0 -1.38846,0 -1.74132,0.17499 -1.62083,0.50203 -1.46592,0.79464 -1.27659,1.05282 -1.05282,1.27659 -0.79464,1.46592 -0.50203,1.62084 -0.17499,1.74132 0.17499,1.73738 0.50203,1.61043 0.79464,1.45121 1.05282,1.25973 1.27659,1.03597 1.46592,0.77994 1.62083,0.49162 1.74132,0.17105 1.38846,0 1.38847,0 1.38846,0 1.38846,0 1.38847,0 1.38846,0 1.38847,0 1.38846,0 0.63883,0.0665 0.59902,0.19023 0.54524,0.29996 0.47747,0.39571 0.3957,0.47746 0.29997,0.54524 0.19023,0.59903 0.0665,0.63884 -0.0665,0.63882 -0.19023,0.59903 -0.29997,0.54524 -0.3957,0.47746 -0.47747,0.39572 -0.54524,0.29996 -0.59902,0.19024 -0.63883,0.0665 -4.6615,0.47459 -4.35061,1.35995 -3.94396,2.14956 -3.44158,2.84344 -2.84345,3.44165 -2.14958,3.9439 -1.35995,4.3506 -0.4746,4.6615 0,1.836 0,1.836 0,1.836 0,1.8359 0,1.836 0,1.836 0,1.836 0,1.836 0.17499,1.711 0.50203,1.5981 0.79464,1.4496 1.05282,1.2656 1.27659,1.0462 1.46592,0.7912 1.62083,0.5008 1.74132,0.1748 3.19003,0 3.19002,0 3.19003,0 3.19002,0 3.19003,0 3.19003,0 3.19002,0 3.19003,0 1.74132,-0.1748 1.62083,-0.5008 1.46592,-0.7912 1.27658,-1.0462 1.05282,-1.2656 0.79464,-1.4496 0.50203,-1.5981 0.17499,-1.711 -0.17499,-1.7413 -0.50203,-1.6209 -0.79464,-1.4659 -1.05282,-1.2766 -1.27658,-1.0528 -1.46592,-0.7947 -1.62083,-0.502 -1.74132,-0.175 m -308.52351,-56.98266 -0.99491,-0.54092 -1.05053,-0.32201 -1.07493,-0.10905 -1.06814,0.098 -1.03012,0.29907 -0.96095,0.49421 -0.86053,0.68342 -0.72892,0.86668 -5.54497,8.13477 -5.54497,8.13478 -5.54496,8.13477 -5.54498,8.13477 -5.54497,8.13477 -5.54497,8.1348 -5.54496,8.1347 -5.54497,8.1348 -0.54092,0.9949 -0.322,1.0507 -0.109,1.075 0.0981,1.0683 0.29918,1.0301 0.49439,0.961 0.68366,0.8604 0.867,0.7286 0.36751,0.2303 0.37806,0.1985 0.387,0.1671 0.39427,0.1361 0.39991,0.1052 0.40391,0.075 0.40627,0.045 0.40698,0.015 0.6674,-0.04 0.657,-0.1186 0.639,-0.1959 0.61346,-0.2718 0.58035,-0.3463 0.53971,-0.4193 0.49149,-0.491 0.43572,-0.5611 3.53184,-5.1813 3.53183,-5.1813 3.53184,-5.1814 3.53183,-5.1812 3.53185,-5.1814 3.53182,-5.1813 3.53184,-5.1813 3.53183,-5.18131 0,4.78151 0,4.7816 0,4.7816 0,4.7815 0,4.7815 0,4.7816 0,4.7815 0,4.7816 0.11362,1.1267 0.32585,1.0495 0.5156,0.9496 0.68283,0.8274 0.82756,0.6826 0.9498,0.5155 1.04953,0.3257 1.12678,0.1136 1.12643,-0.1136 1.04929,-0.3257 0.94962,-0.5155 0.82746,-0.6826 0.68275,-0.8274 0.51556,-0.9496 0.32584,-1.0495 0.11362,-1.1267 0,-6.8323 0,-6.8323 0,-6.8322 0,-6.8323 0,-6.8323 0,-6.83231 0,-6.83229 0,-6.83229 0.61524,-0.90259 0.61525,-0.90259 0.61524,-0.90258 0.61525,-0.90259 0.61524,-0.90259 0.61525,-0.90259 0.61524,-0.90258 0.61524,-0.90259 0.54124,-0.99434 0.32225,-1.05023 0.10923,-1.07483 -0.0979,-1.06812 -0.29899,-1.03011 -0.49418,-0.96083 -0.6834,-0.86024 -0.86668,-0.72897 m 36.16174,87.21266 -1.12673,-0.1136 -1.04942,-0.3257 -0.94964,-0.5155 -0.82739,-0.6826 -0.68265,-0.8274 -0.51543,-0.9496 -0.32574,-1.0495 -0.11358,-1.1267 0,-2.6094 0,-2.6094 0,-2.6094 0,-2.6094 0,-2.6094 0,-2.6094 0,-2.6094 0,-2.6094 0.11358,-1.1267 0.32574,-1.0495 0.51543,-0.9496 0.68265,-0.8274 0.82739,-0.6826 0.94964,-0.5155 1.04942,-0.3257 1.12673,-0.1136 1.12673,0.1136 1.04942,0.3257 0.94965,0.5155 0.82737,0.6826 0.68265,0.8274 0.51544,0.9496 0.32574,1.0495 0.11358,1.1267 0,2.6094 0,2.6094 0,2.6094 0,2.6094 0,2.6094 0,2.6094 0,2.6094 0,2.6094 -0.11358,1.1267 -0.32574,1.0495 -0.51544,0.9496 -0.68265,0.8274 -0.82737,0.6826 -0.94965,0.5155 -1.04942,0.3257 -1.12673,0.1136 m -14.34578,-13.904 -0.33964,-0.01 -0.34003,-0.031 -0.33939,-0.052 -0.33778,-0.074 -0.33512,-0.095 -0.33151,-0.1172 -0.32685,-0.1394 -0.3212,-0.1618 -4.08692,-2.6022 -3.64759,-3.0847 -3.1757,-3.5124 -2.67129,-3.8854 -2.13431,-4.2038 -1.5648,-4.4673 -0.96274,-4.6763 -0.32815,-4.8304 0.72429,-7.16307 2.07675,-6.67601 3.28504,-6.0447 4.34917,-5.26913 5.26912,-4.34932 6.04491,-3.28525 6.67653,-2.07693 7.16399,-0.72437 7.16274,0.72429 6.67577,2.07673 6.04452,3.28501 5.26902,4.34909 4.34924,5.26901 3.28521,6.04473 2.07693,6.67628 0.72437,7.16364 -0.32811,4.8296 -0.9626,4.6757 -1.56458,4.4671 -2.13398,4.2038 -2.67086,3.8855 -3.17521,3.5126 -3.64698,3.0849 -4.08623,2.6023 -1.04422,0.4397 -1.07767,0.2163 -1.08067,0 -1.05324,-0.2033 -0.99536,-0.3996 -0.90705,-0.5869 -0.78829,-0.7653 -0.63909,-0.9346 -0.43968,-1.0436 -0.21634,-1.0773 -0.002,-1.0806 0.20338,-1.0532 0.39975,-0.9955 0.58713,-0.9073 0.76551,-0.7887 0.93492,-0.6394 2.80414,-1.7855 2.50268,-2.1164 2.17891,-2.4097 1.8328,-2.6654 1.4644,-2.8835 1.07362,-3.0641 0.66055,-3.2071 0.22515,-3.3125 -0.49681,-4.9124 -1.42444,-4.57855 -2.25313,-4.14559 -2.98284,-3.61373 -3.61361,-2.98292 -4.14542,-2.25316 -4.57825,-1.42446 -4.91214,-0.49681 -4.91279,0.49681 -4.57875,1.42446 -4.14575,2.25316 -3.61386,2.98292 -2.98299,3.61373 -2.2532,4.14559 -1.42447,4.57855 -0.49681,4.9124 0.2252,3.3129 0.66065,3.2073 1.0738,3.0643 1.46457,2.8836 1.83299,2.6655 2.17908,2.4097 2.50279,2.1164 2.80418,1.7855 0.93491,0.6392 0.76551,0.7884 0.58714,0.9073 0.39974,0.9955 0.20338,1.0532 -0.002,1.0805 -0.21634,1.0772 -0.43968,1.0433 -0.42226,0.6595 -0.4969,0.5809 -0.56168,0.4994 -0.61661,0.4151 -0.6617,0.3278 -0.69689,0.2378 -0.72226,0.1447 -0.73772,0.05 m 211.21132,-63.33468 0.55451,-0.71028 0.65323,-0.59705 0.73432,-0.47861 0.79775,-0.35491 0.84351,-0.22598 0.87161,-0.0918 0.88207,0.0476 0.87485,0.19221 0.83095,0.33471 0.75375,0.46046 0.6662,0.57059 0.56827,0.66512 0.46004,0.74403 0.34139,0.80732 0.21245,0.85501 0.0731,0.88707 0,7.07797 0,7.07797 0,7.07797 0,7.07798 0,7.078 0,7.078 0,7.0779 0,7.078 -0.11267,1.1318 -0.32277,1.052 -0.50999,0.9501 -0.67431,0.8264 -0.81578,0.6808 -0.93435,0.5134 -1.03003,0.3241 -1.10285,0.1129 -1.13186,-0.1129 -1.05192,-0.3241 -0.95012,-0.5134 -0.82642,-0.6808 -0.68085,-0.8264 -0.51342,-0.9501 -0.32409,-1.052 -0.11289,-1.1318 0,-4.815 0,-4.8149 0,-4.815 0,-4.815 0,-4.8149 0,-4.815 0,-4.815 0,-4.81494 -3.53897,5.20314 -3.53899,5.2031 -3.53898,5.2032 -3.53899,5.2031 -3.53897,5.2032 -3.53898,5.2031 -3.53899,5.2032 -3.53898,5.2031 -0.71006,0.8727 -0.84538,0.6855 -0.94947,0.4942 -1.02237,0.2987 -1.06407,0.099 -1.07456,-0.1047 -1.05384,-0.3127 -1.00194,-0.5249 -0.87235,-0.7395 -0.6853,-0.8664 -0.49408,-0.9621 -0.29868,-1.0265 -0.0991,-1.0597 0.10461,-1.0618 0.31251,-1.0325 0.52458,-0.9722 4.81471,-7.0777 4.81472,-7.0778 4.81472,-7.0777 4.81471,-7.0777 4.81471,-7.07773 4.81471,-7.07772 4.81472,-7.07771 4.81471,-7.07772 0,-10e-6 0,0 0,-10e-6 0,-10e-6 0,0 0,-1e-5 0,0 -2e-5,4e-5 m -46.24042,65.23198 -0.1951,0.059 -0.18804,0.044 -0.18195,0.032 -0.17687,0.021 -0.17275,0.013 -0.1696,0.01 -0.16748,0 -0.1663,3e-4 -0.72673,-0.045 -0.71012,-0.1349 -0.68517,-0.2222 -0.65183,-0.3075 -0.61014,-0.3908 -0.56007,-0.4718 -0.50165,-0.5509 -0.43484,-0.6279 -2.79578,-4.8257 -2.79579,-4.8257 -2.79578,-4.8257 -2.79579,-4.8256 -2.79578,-4.8257 -2.79577,-4.8257 -2.79579,-4.8257 -2.79579,-4.82567 0,4.48177 0,4.4818 0,4.4817 0,4.4818 0,4.4817 0,4.4818 0,4.4817 0,4.4818 -0.11289,1.1031 -0.32408,1.0302 -0.51342,0.9344 -0.68085,0.8157 -0.82642,0.6742 -0.95012,0.5099 -1.05192,0.3227 -1.13187,0.1126 -1.10342,-0.1127 -1.0303,-0.3229 -0.93439,-0.5101 -0.81566,-0.6744 -0.67411,-0.8159 -0.50975,-0.9343 -0.32258,-1.0299 -0.1126,-1.1026 0,-7.0778 0,-7.0779 0,-7.0778 0,-7.0779 0,-7.07782 0,-7.07784 0,-7.07785 0,-7.07784 0.0772,-0.91734 0.22391,-0.87773 0.35917,-0.82355 0.48296,-0.75481 0.5953,-0.67151 0.69615,-0.57364 0.78555,-0.46123 0.8635,-0.33424 0.90443,-0.15515 0.90423,-0.004 0.88745,0.1392 0.85409,0.27545 0.80417,0.40442 0.73769,0.52612 0.65459,0.64052 0.55496,0.74766 2.79579,4.8369 2.79578,4.8369 2.79578,4.8369 2.79578,4.83691 2.79579,4.8369 2.79578,4.83687 2.79579,4.8369 2.79578,4.8369 0,-4.4818 0,-4.4819 0,-4.4819 0,-4.4819 0,-4.48188 0,-4.48188 0,-4.48188 0,-4.48188 0.11285,-1.13186 0.32399,-1.05193 0.5133,-0.95011 0.68073,-0.82642 0.82636,-0.68085 0.95012,-0.51341 1.05206,-0.32409 1.13214,-0.11289 1.10257,0.11289 1.02991,0.32409 0.93434,0.51341 0.81585,0.68085 0.67445,0.82642 0.51011,0.95011 0.32288,1.05193 0.11272,1.13186 0,7.07784 0,7.07785 0,7.07784 0,7.07789 0,7.0778 0,7.0778 0,7.0779 0,7.0778 -0.0773,0.9165 -0.22425,0.876 -0.35965,0.82 -0.4835,0.7483 -0.59584,0.6611 -0.69662,0.5581 -0.78591,0.4397 -0.86365,0.3031 m -50.67613,0.089 -1.13186,-0.1129 -1.05193,-0.3241 -0.95012,-0.5134 -0.82642,-0.6809 -0.68086,-0.8264 -0.51341,-0.9501 -0.32409,-1.0519 -0.11289,-1.1319 0,-7.0667 0,-7.0668 0,-7.0667 0,-7.0668 0,-7.06672 0,-7.06675 0,-7.06674 0,-7.06675 0.11289,-1.13214 0.32409,-1.05206 0.51341,-0.95013 0.68086,-0.82636 0.82642,-0.68074 0.95012,-0.51329 1.05193,-0.32399 1.13186,-0.11285 1.10659,0.11285 1.03986,0.32399 0.94825,0.51329 0.83172,0.68074 0.69027,0.82636 0.52388,0.95013 0.3326,1.05206 0.11641,1.13214 0,7.06675 0,7.06674 0,7.06675 0,7.06672 0,7.0668 0,7.0667 0,7.0668 0,7.0667 -0.11641,1.1321 -0.3326,1.0521 -0.52388,0.9501 -0.69027,0.8264 -0.83172,0.6808 -0.94825,0.5133 -1.03986,0.3239 -1.10659,0.1129 m -35.68052,1.6863 -5.02109,-0.5074 -4.67898,-1.4549 -4.23597,-2.3015 -3.69206,-3.0473 -3.04724,-3.692 -2.30153,-4.236 -1.45491,-4.6789 -0.50739,-5.0211 0,-4.8703 0,-4.8703 0,-4.8703 0,-4.87035 0,-4.87031 0,-4.8703 0,-4.87031 0,-4.87031 0.1129,-1.13182 0.32408,-1.05182 0.51342,-0.94996 0.68084,-0.82624 0.82644,-0.68067 0.9501,-0.51325 1.05193,-0.32398 1.13186,-0.11285 1.13216,0.11285 1.05205,0.32398 0.95012,0.51325 0.82636,0.68067 0.68075,0.82624 0.51329,0.94996 0.32399,1.05182 0.11285,1.13182 0,4.87031 0,4.87031 0,4.8703 0,4.87031 0,4.87035 0,4.8703 0,4.8703 0,4.8703 0.27809,2.7822 0.79819,2.5869 1.26415,2.3372 1.67598,2.0337 2.03368,1.6758 2.33725,1.2641 2.58669,0.798 2.782,0.2781 2.7568,-0.2781 2.57487,-0.798 2.33571,-1.2641 2.03935,-1.6758 1.68574,-2.0337 1.27495,-2.3372 0.80693,-2.5869 0.28169,-2.7822 0,-4.8703 0,-4.8703 0,-4.8703 0,-4.87035 0,-4.87031 0,-4.8703 0,-4.87031 0,-4.87031 0.1129,-1.13182 0.32408,-1.05182 0.51341,-0.94996 0.68086,-0.82624 0.82642,-0.68067 0.95011,-0.51325 1.05193,-0.32398 1.13186,-0.11285 1.13188,0.11285 1.05191,0.32398 0.95012,0.51325 0.82642,0.68067 0.68085,0.82624 0.51341,0.94996 0.32409,1.05182 0.11289,1.13182 0,4.87031 0,4.87031 0,4.8703 0,4.87031 0,4.87035 0,4.8703 0,4.8703 0,4.8703 -0.50735,5.0211 -1.45482,4.6789 -2.3014,4.236 -3.04714,3.692 -3.69199,3.0473 -4.23599,2.3015 -4.67912,1.4549 -5.02137,0.5074 m -243.27356,-10.4721 4.80374,-7.0669 4.80375,-7.0668 4.80374,-7.0669 4.80374,-7.0669 4.80374,-7.06683 4.80375,-7.06687 4.80374,-7.06686 4.80374,-7.06687 0.55487,-0.71028 0.65362,-0.59706 0.73465,-0.4786 0.79804,-0.35491 0.84377,-0.22598 0.87181,-0.0918 0.88219,0.0476 0.8749,0.1922 0.8303,0.33471 0.75326,0.46046 0.66585,0.5706 0.56806,0.66511 0.45988,0.74403 0.34134,0.80733 0.21242,0.85501 0.0731,0.88707 0,4.81483 0,4.81484 0,4.81483 0,4.81484 0,4.8148 0,4.8149 0,4.8148 0,4.8148 3.53886,-5.203 3.53886,-5.203 3.53886,-5.203 3.53886,-5.20303 3.53887,-5.20301 3.53886,-5.20302 3.53886,-5.20301 3.53886,-5.20302 0.55458,-0.71028 0.65346,-0.59706 0.73466,-0.4786 0.7981,-0.35491 0.84388,-0.22598 0.87193,-0.0918 0.8823,0.0476 0.87493,0.1922 0.8596,0.33471 0.77527,0.46046 0.68163,0.5706 0.57863,0.66511 0.46631,0.74403 0.34463,0.80733 0.21363,0.85501 0.0733,0.88707 0,7.07796 0,7.07796 0,7.07796 0,7.07792 0,7.078 0,7.078 0,7.0779 0,7.078 -0.11286,1.1319 -0.32398,1.0519 -0.5133,0.9501 -0.68075,0.8264 -0.82635,0.6809 -0.95014,0.5134 -1.05206,0.3241 -1.13215,0.1129 -1.13129,-0.1129 -1.05166,-0.3241 -0.95006,-0.5134 -0.82656,-0.6809 -0.68107,-0.8264 -0.51365,-0.9501 -0.32429,-1.0519 -0.11297,-1.1319 0,-4.815 0,-4.8149 0,-4.815 0,-4.8149 0,-4.815 0,-4.8149 0,-4.815 0,-4.81496 -3.52777,5.20316 -3.52776,5.2031 -3.52777,5.2031 -3.52777,5.2032 -3.52777,5.2031 -3.52777,5.2031 -3.52776,5.2032 -3.52776,5.2031 -0.57992,0.7103 -0.6664,0.5971 -0.7393,0.4786 -0.7987,0.3549 -0.84449,0.226 -0.87675,0.092 -0.89545,-0.048 -0.90059,-0.1922 -0.83035,-0.3347 -0.75338,-0.4605 -0.66601,-0.5706 -0.56824,-0.6651 -0.46007,-0.744 -0.3415,-0.8073 -0.21253,-0.855 -0.0731,-0.8871 0,-4.815 0,-4.8149 0,-4.815 0,-4.8149 0,-4.815 0,-4.8149 0,-4.815 0,-4.81496 -3.53897,5.20316 -3.53899,5.2031 -3.53899,5.2031 -3.53898,5.2032 -3.53897,5.2031 -3.53899,5.2031 -3.53899,5.2032 -3.53898,5.2031 -0.71039,0.8727 -0.84558,0.6855 -0.94958,0.4943 -1.02234,0.2987 -1.0639,0.099 -1.07425,-0.1047 -1.05337,-0.3128 -1.00129,-0.5249 -0.84766,-0.739 -0.67284,-0.8671 -0.48972,-0.965 -0.29828,-1.0327 -0.0985,-1.0702 0.10952,-1.0775 0.32588,-1.0545 0.55047,-1.0013 m -13.84577,-56.53493 0.55479,-0.71028 0.65339,-0.59706 0.73439,-0.4786 0.79775,-0.35491 0.84352,-0.22598 0.87167,-0.0918 0.88221,0.0476 0.87513,0.1922 0.83039,0.33471 0.75349,0.46046 0.66617,0.5706 0.56842,0.66511 0.46024,0.74403 0.34166,0.80733 0.21263,0.85501 0.0732,0.88707 0,7.07796 0,7.07796 0,7.07796 0,7.07796 0,7.078 0,7.078 0,7.0779 0,7.078 -0.11273,1.1319 -0.32286,1.0519 -0.51012,0.9501 -0.67444,0.8264 -0.81584,0.6809 -0.93434,0.5134 -1.0299,0.3241 -1.10257,0.1129 -1.13215,-0.1129 -1.05206,-0.3241 -0.95014,-0.5134 -0.82636,-0.6809 -0.68074,-0.8264 -0.51329,-0.9501 -0.32399,-1.0519 -0.11285,-1.1319 0,-4.815 0,-4.8149 0,-4.815 0,-4.815 0,-4.8149 0,-4.815 0,-4.8149 0,-4.815 -3.53911,5.2031 -3.5391,5.2032 -3.53911,5.2031 -3.5391,5.2031 -3.53911,5.2032 -3.53911,5.2031 -3.5391,5.2032 -3.53911,5.2031 -0.71039,0.8727 -0.84559,0.6855 -0.94961,0.4943 -1.02242,0.2987 -1.06401,0.099 -1.07442,-0.1047 -1.05362,-0.3128 -1.00162,-0.5249 -0.87233,-0.7395 -0.68529,-0.8664 -0.49404,-0.962 -0.29862,-1.0265 -0.099,-1.0598 0.10478,-1.0617 0.31275,-1.0326 0.52491,-0.9722 4.81459,-7.0777 4.81459,-7.0778 4.81459,-7.0777 4.81459,-7.0777 4.81458,-7.07774 4.81459,-7.07772 4.81459,-7.07771 4.81458,-7.07766 m -26.62749,3.28394 -0.11645,1.10309 -0.33272,1.03007 -0.52405,0.93421 -0.69044,0.81554 -0.8319,0.67404 -0.94841,0.50971 -1.03999,0.32257 -1.10662,0.11259 -1.30914,0 -1.30913,0 -1.30914,0 -1.30914,0 -1.30913,0 -1.30914,0 -1.30913,0 -1.30914,0 0,6.37902 0,6.37902 0,6.37903 0,6.379 0,6.379 0,6.3791 0,6.379 0,6.379 -0.11289,1.1321 -0.32409,1.0521 -0.51341,0.9501 -0.68085,0.8263 -0.82642,0.6808 -0.95012,0.5133 -1.05193,0.324 -1.13186,0.1128 -1.13157,-0.1128 -1.0518,-0.324 -0.95009,-0.5133 -0.82648,-0.6808 -0.68096,-0.8263 -0.51353,-0.9501 -0.32419,-1.0521 -0.11293,-1.1321 0,-6.379 0,-6.379 0,-6.3791 0,-6.379 0,-6.379 0,-6.37903 0,-6.37902 0,-6.37902 -1.30901,0 -1.30902,0 -1.30901,0 -1.30901,0 -1.30902,0 -1.30901,0 -1.30902,0 -1.30901,0 -1.10695,-0.11268 -1.04023,-0.32276 -0.94859,-0.50996 -0.83202,-0.67426 -0.69051,-0.81566 -0.52409,-0.93418 -0.33273,-1.0298 -0.11645,-1.10252 0.11645,-1.13186 0.33273,-1.05193 0.52409,-0.95011 0.69051,-0.82643 0.83202,-0.68085 0.94859,-0.51341 1.04023,-0.32409 1.10695,-0.11289 4.01604,0 4.01604,0 4.01604,0 4.01604,0 4.01604,0 4.01604,0 4.01604,0 4.01604,0 1.10606,0.11285 1.03972,0.32399 0.94837,0.51329 0.83203,0.68074 0.69065,0.82636 0.5243,0.95013 0.33291,1.05206 0.11653,1.13215 0,0 0,0 0,0 0,0 0,0 10e-6,0 0,0 0,0 m -174.578167,53.25099 4.803618,-7.0669 4.803619,-7.0668 4.803623,-7.0669 4.803619,-7.0669 4.803619,-7.06683 4.803622,-7.06687 4.803619,-7.06686 4.803619,-7.06687 0.554871,-0.71028 0.653598,-0.59706 0.734659,-0.4786 0.798049,-0.35491 0.843764,-0.22598 0.871813,-0.0918 0.882188,0.0476 0.874899,0.1922 0.830306,0.33471 0.753269,0.46046 0.665851,0.5706 0.568059,0.66511 0.45989,0.74403 0.34134,0.80733 0.212415,0.85501 0.07311,0.88707 0,4.81483 0,4.81484 0,4.81483 0,4.81484 0,4.8148 0,4.8149 0,4.8148 0,4.8148 3.53898,-5.203 3.538981,-5.203 3.538984,-5.203 3.538981,-5.20303 3.538981,-5.20301 3.538981,-5.20302 3.53898,-5.20301 3.538981,-5.20302 0.554545,-0.71028 0.653358,-0.59706 0.734485,-0.4786 0.797935,-0.35491 0.843693,-0.22598 0.871774,-0.0918 0.882174,0.0476 0.874888,0.1922 0.860209,0.33471 0.775658,0.46046 0.681821,0.5706 0.578693,0.66511 0.466264,0.74403 0.344554,0.80733 0.213545,0.85501 0.07324,0.88707 0,7.07796 0,7.07796 0,7.07796 0,7.07792 0,7.078 0,7.078 0,7.0779 0,7.078 -0.112851,1.1319 -0.323989,1.0519 -0.513287,0.9501 -0.680744,0.8264 -0.826356,0.6809 -0.950131,0.5134 -1.052057,0.3241 -1.132144,0.1129 -1.13158,-0.1129 -1.051791,-0.3241 -0.950096,-0.5134 -0.826483,-0.6809 -0.680963,-0.8264 -0.513528,-0.9501 -0.324188,-1.0519 -0.112932,-1.1319 0,-4.815 0,-4.8149 0,-4.815 0,-4.8149 0,-4.815 0,-4.8149 0,-4.815 0,-4.81496 -3.527767,5.20316 -3.527766,5.2031 -3.527766,5.2031 -3.527766,5.2032 -3.527766,5.2031 -3.527766,5.2031 -3.527766,5.2032 -3.527767,5.2031 -0.579918,0.7103 -0.666401,0.5971 -0.739318,0.4786 -0.798686,0.3549 -0.844494,0.226 -0.876749,0.092 -0.895447,-0.048 -0.900588,-0.1922 -0.830346,-0.3347 -0.753381,-0.4605 -0.666011,-0.5706 -0.56824,-0.6651 -0.46007,-0.744 -0.341501,-0.8073 -0.212527,-0.855 -0.07315,-0.8871 0,-4.815 0,-4.8149 0,-4.815 0,-4.8149 0,-4.815 0,-4.8149 0,-4.815 0,-4.81496 -3.538984,5.20316 -3.538985,5.2031 -3.538984,5.2031 -3.538984,5.2032 -3.538981,5.2031 -3.538984,5.2031 -3.538984,5.2032 -3.538985,5.2031 -0.71039,0.8727 -0.845589,0.6855 -0.949575,0.4943 -1.022343,0.2987 -1.063903,0.099 -1.074242,-0.1047 -1.053372,-0.3128 -1.001285,-0.5249 -0.847662,-0.739 -0.672842,-0.8671 -0.489717,-0.965 -0.298276,-1.0327 -0.098532,-1.0702 0.10952,-1.0775 0.325882,-1.0545 0.550545,-1.0013 m 92.392995,3.283 0,-7.0778 0,-7.0779 0,-7.0778 0,-7.0779 0,-7.07782 0,-7.07785 0,-7.07784 0,-7.07785 0.112889,-1.13214 0.324093,-1.05206 0.513411,-0.95013 0.680857,-0.82636 0.826419,-0.68074 0.950113,-0.51329 1.051927,-0.32399 1.13186,-0.11285 3.172868,0 3.17287,0 3.17287,0 3.17287,0 3.17286,0 3.17287,0 3.17287,0 3.17287,0 1.13158,0.11285 1.05179,0.32399 0.9501,0.51329 0.82648,0.68074 0.68096,0.82636 0.51353,0.95013 0.32419,1.05206 0.11293,1.13214 -0.11289,1.13182 -0.32409,1.05182 -0.5134,0.94995 -0.68085,0.82625 -0.82643,0.68067 -0.95011,0.51325 -1.05192,0.32398 -1.13187,0.11285 -2.47392,0 -2.47393,0 -2.47391,0 -2.47393,0 -2.47392,0 -2.47392,0 -2.47393,0 -2.47392,0 0,1.76413 0,1.76413 0,1.76413 0,1.76413 0,1.76413 0,1.76413 0,1.76413 0,1.76413 2.07465,0 2.07465,0 2.07465,0 2.07465,0 2.07465,0 2.07465,0 2.07465,0 2.07465,0 1.13186,0.11272 1.05193,0.32286 0.95011,0.51008 0.82642,0.67436 0.68085,0.81571 0.51341,0.9342 0.32409,1.0297 0.11289,1.1022 -0.11289,1.1319 -0.32409,1.052 -0.51341,0.9503 -0.68085,0.8266 -0.82642,0.681 -0.95011,0.5136 -1.05193,0.3242 -1.13186,0.1129 -2.07465,0 -2.07465,0 -2.07465,0 -2.07465,0 -2.07465,0 -2.07465,0 -2.07465,0 -2.07465,0 0,2.5294 0,2.5294 0,2.5294 0,2.5294 0,2.5294 0,2.5294 0,2.5294 0,2.5294 2.69581,0 2.69581,0 2.69581,0 2.69581,0 2.69581,0 2.69581,0 2.69581,0 2.69581,0 1.13215,0.1129 1.05206,0.3241 0.95013,0.5134 0.82635,0.6808 0.68075,0.8264 0.51329,0.9501 0.32399,1.052 0.11285,1.1318 -0.11285,1.1031 -0.32399,1.0302 -0.51329,0.9344 -0.68075,0.8158 -0.82635,0.6742 -0.95013,0.5099 -1.05206,0.3227 -1.13215,0.1126 -3.39476,0 -3.39475,0 -3.39476,0 -3.39476,0 -3.39475,0 -3.39476,0 -3.39475,0 -3.394758,0 -1.13214,-0.1131 -1.052058,-0.3231 -0.95013,-0.5103 -0.82636,-0.6747 -0.680747,-0.816 -0.513291,-0.9346 -0.323993,-1.0301 -0.11285,-1.1029" />
  </g>
</svg>
