999
DXF created by Inkscape
  0
SECTION
  2
HEADER
  9
$ACADVER
  1
AC1014
  9
$HANDSEED
  5
FFFF
  9
$MEASUREMENT
 70
     1
  0
ENDSEC
  0
SECTION
  2
TABLES
  0
TABLE
  2
VPORT
  5
8
330
0
100
AcDbSymbolTable
 70
     4
  0
VPORT
  5
2E
330
8
100
AcDbSymbolTableRecord
100
AcDbViewportTableRecord
  2
*ACTIVE
 70
     0
 10
0.0
 20
0.0
 11
1.0
 21
1.0
 12
210.0
 22
148.5
 13
0.0
 23
0.0
 14
10.0
 24
10.0
 15
10.0
 25
10.0
 16
0.0
 26
0.0
 36
1.0
 17
0.0
 27
0.0
 37
0.0
 40
341.0
 41
1.24
 42
50.0
 43
0.0
 44
0.0
 50
0.0
 51
0.0
 71
     0
 72
   100
 73
     1
 74
     3
 75
     0
 76
     0
 77
     0
 78
     0
  0
ENDTAB
  0
TABLE
  2
LTYPE
  5
5
330
0
100
AcDbSymbolTable
 70
     1
  0
LTYPE
  5
14
330
5
100
AcDbSymbolTableRecord
100
AcDbLinetypeTableRecord
  2
BYBLOCK
 70
     0
  3

 72
    65
 73
     0
 40
0.0
  0
LTYPE
  5
15
330
5
100
AcDbSymbolTableRecord
100
AcDbLinetypeTableRecord
  2
BYLAYER
 70
     0
  3

 72
    65
 73
     0
 40
0.0
  0
LTYPE
  5
16
330
5
100
AcDbSymbolTableRecord
100
AcDbLinetypeTableRecord
  2
CONTINUOUS
 70
     0
  3
Solid line
 72
    65
 73
     0
 40
0.0
  0
ENDTAB
  0
TABLE
  2
LAYER
  5
2
100
AcDbSymbolTable
 70
2
  0
LAYER
  5
50
100
AcDbSymbolTableRecord
100
AcDbLayerTableRecord
  2
0
 70
0
  6
CONTINUOUS
  0
LAYER
  5
51
100
AcDbSymbolTableRecord
100
AcDbLayerTableRecord
  2
Camada_1
 70
0
  6
CONTINUOUS
  0
ENDTAB
  0
TABLE
  2
STYLE
  5
3
330
0
100
AcDbSymbolTable
 70
     1
  0
STYLE
  5
11
330
3
100
AcDbSymbolTableRecord
100
AcDbTextStyleTableRecord
  2
STANDARD
 70
     0
 40
0.0
 41
1.0
 50
0.0
 71
     0
 42
2.5
  3
txt
  4

  0
ENDTAB
  0
TABLE
  2
VIEW
  5
6
330
0
100
AcDbSymbolTable
 70
     0
  0
ENDTAB
  0
TABLE
  2
UCS
  5
7
330
0
100
AcDbSymbolTable
 70
     0
  0
ENDTAB
  0
TABLE
  2
APPID
  5
9
330
0
100
AcDbSymbolTable
 70
     2
  0
APPID
  5
12
330
9
100
AcDbSymbolTableRecord
100
AcDbRegAppTableRecord
  2
ACAD
 70
     0
  0
ENDTAB
  0
TABLE
  2
DIMSTYLE
  5
A
330
0
100
AcDbSymbolTable
 70
     1
  0
DIMSTYLE
105
27
330
A
100
AcDbSymbolTableRecord
100
AcDbDimStyleTableRecord
  2
ISO-25
 70
     0
  3

  4

  5

  6

  7

 40
1.0
 41
2.5
 42
0.625
 43
3.75
 44
1.25
 45
0.0
 46
0.0
 47
0.0
 48
0.0
140
2.5
141
2.5
142
0.0
143
0.03937007874016
144
1.0
145
0.0
146
1.0
147
0.625
 71
     0
 72
     0
 73
     0
 74
     0
 75
     0
 76
     0
 77
     1
 78
     8
170
     0
171
     3
172
     1
173
     0
174
     0
175
     0
176
     0
177
     0
178
     0
270
     2
271
     2
272
     2
273
     2
274
     3
340
11
275
     0
280
     0
281
     0
282
     0
283
     0
284
     8
285
     0
286
     0
287
     3
288
     0
  0
ENDTAB
  0
TABLE
  2
BLOCK_RECORD
  5
1
330
0
100
AcDbSymbolTable
 70
     1
  0
BLOCK_RECORD
  5
1F
330
1
100
AcDbSymbolTableRecord
100
AcDbBlockTableRecord
  2
*MODEL_SPACE
  0
BLOCK_RECORD
  5
1B
330
1
100
AcDbSymbolTableRecord
100
AcDbBlockTableRecord
  2
*PAPER_SPACE
  0
ENDTAB
  0
ENDSEC
  0
SECTION
  2
BLOCKS
  0
BLOCK
  5
20
330
1F
100
AcDbEntity
  8
0
100
AcDbBlockBegin
  2
*MODEL_SPACE
 70
     0
 10
0.0
 20
0.0
 30
0.0
  3
*MODEL_SPACE
  1

  0
ENDBLK
  5
21
330
1F
100
AcDbEntity
  8
0
100
AcDbBlockEnd
  0
BLOCK
  5
1C
330
1B
100
AcDbEntity
 67
     1
  8
0
100
AcDbBlockBegin
  2
*PAPER_SPACE
  1

  0
ENDBLK
  5
1D
330
1B
100
AcDbEntity
 67
     1
  8
0
100
AcDbBlockEnd
  0
ENDSEC
  0
SECTION
  2
ENTITIES
  0
LWPOLYLINE
  5
100
100
AcDbEntity
  8
Camada_1
 62
7
100
AcDbPolyline
 90
137
 70
0
 10
188.356305
 20
8.531577
 30
0.0
 10
187.757186
 20
8.531577
 30
0.0
 10
187.158068
 20
8.531577
 30
0.0
 10
186.558950
 20
8.531577
 30
0.0
 10
185.959832
 20
8.531577
 30
0.0
 10
185.360716
 20
8.531577
 30
0.0
 10
184.761598
 20
8.531577
 30
0.0
 10
184.162480
 20
8.531577
 30
0.0
 10
183.563361
 20
8.531577
 30
0.0
 10
183.563361
 20
8.745304
 30
0.0
 10
183.563361
 20
8.959059
 30
0.0
 10
183.563361
 20
9.172786
 30
0.0
 10
183.563361
 20
9.386541
 30
0.0
 10
183.563361
 20
9.600268
 30
0.0
 10
183.563361
 20
9.813995
 30
0.0
 10
183.563361
 20
10.027750
 30
0.0
 10
183.563361
 20
10.241477
 30
0.0
 10
183.598580
 20
10.582740
 30
0.0
 10
183.699378
 20
10.902131
 30
0.0
 10
183.858467
 20
11.192369
 30
0.0
 10
184.068564
 20
11.446199
 30
0.0
 10
184.322378
 20
11.656285
 30
0.0
 10
184.612627
 20
11.815374
 30
0.0
 10
184.932021
 20
11.916184
 30
0.0
 10
185.273275
 20
11.951405
 30
0.0
 10
186.435331
 20
12.067850
 30
0.0
 10
187.516324
 20
12.401945
 30
0.0
 10
188.493482
 20
12.930999
 30
0.0
 10
189.344037
 20
13.632180
 30
0.0
 10
190.045218
 20
14.482713
 30
0.0
 10
190.574255
 20
15.459873
 30
0.0
 10
190.908375
 20
16.540858
 30
0.0
 10
191.024809
 20
17.702908
 30
0.0
 10
190.908375
 20
18.857524
 30
0.0
 10
190.574255
 20
19.935029
 30
0.0
 10
190.045218
 20
20.911732
 30
0.0
 10
189.344037
 20
21.763959
 30
0.0
 10
188.493482
 20
22.468024
 30
0.0
 10
187.516324
 20
23.000250
 30
0.0
 10
186.435331
 20
23.336950
 30
0.0
 10
185.273275
 20
23.454447
 30
0.0
 10
184.881421
 20
23.454447
 30
0.0
 10
184.489564
 20
23.454447
 30
0.0
 10
184.097710
 20
23.454447
 30
0.0
 10
183.705852
 20
23.454447
 30
0.0
 10
183.313998
 20
23.454447
 30
0.0
 10
182.922144
 20
23.454447
 30
0.0
 10
182.530287
 20
23.454447
 30
0.0
 10
182.138433
 20
23.454447
 30
0.0
 10
181.646993
 20
23.405061
 30
0.0
 10
181.189559
 20
23.263377
 30
0.0
 10
180.775844
 20
23.039112
 30
0.0
 10
180.415562
 20
22.741983
 30
0.0
 10
180.118433
 20
22.381701
 30
0.0
 10
179.894168
 20
21.967986
 30
0.0
 10
179.752484
 20
21.510549
 30
0.0
 10
179.703098
 20
21.019109
 30
0.0
 10
179.752484
 20
20.528782
 30
0.0
 10
179.894168
 20
20.074283
 30
0.0
 10
180.118433
 20
19.664719
 30
0.0
 10
180.415562
 20
19.309195
 30
0.0
 10
180.775844
 20
19.016822
 30
0.0
 10
181.189559
 20
18.796705
 30
0.0
 10
181.646993
 20
18.657959
 30
0.0
 10
182.138433
 20
18.609685
 30
0.0
 10
182.530287
 20
18.609685
 30
0.0
 10
182.922144
 20
18.609685
 30
0.0
 10
183.313998
 20
18.609685
 30
0.0
 10
183.705852
 20
18.609685
 30
0.0
 10
184.097710
 20
18.609685
 30
0.0
 10
184.489564
 20
18.609685
 30
0.0
 10
184.881421
 20
18.609685
 30
0.0
 10
185.273275
 20
18.609685
 30
0.0
 10
185.453567
 20
18.590917
 30
0.0
 10
185.622624
 20
18.537230
 30
0.0
 10
185.776503
 20
18.452575
 30
0.0
 10
185.911255
 20
18.340897
 30
0.0
 10
186.022931
 20
18.206147
 30
0.0
 10
186.107589
 20
18.052268
 30
0.0
 10
186.161276
 20
17.883208
 30
0.0
 10
186.180044
 20
17.702914
 30
0.0
 10
186.161276
 20
17.522624
 30
0.0
 10
186.107589
 20
17.353565
 30
0.0
 10
186.022931
 20
17.199686
 30
0.0
 10
185.911255
 20
17.064936
 30
0.0
 10
185.776503
 20
16.953255
 30
0.0
 10
185.622624
 20
16.868600
 30
0.0
 10
185.453567
 20
16.814910
 30
0.0
 10
185.273275
 20
16.796142
 30
0.0
 10
183.957696
 20
16.662202
 30
0.0
 10
182.729857
 20
16.278394
 30
0.0
 10
181.616784
 20
15.671740
 30
0.0
 10
180.645494
 20
14.869258
 30
0.0
 10
179.843009
 20
13.897948
 30
0.0
 10
179.236350
 20
12.784892
 30
0.0
 10
178.852542
 20
11.557056
 30
0.0
 10
178.718599
 20
10.241477
 30
0.0
 10
178.718599
 20
9.723317
 30
0.0
 10
178.718599
 20
9.205157
 30
0.0
 10
178.718599
 20
8.686997
 30
0.0
 10
178.718599
 20
8.168865
 30
0.0
 10
178.718599
 20
7.650705
 30
0.0
 10
178.718599
 20
7.132545
 30
0.0
 10
178.718599
 20
6.614385
 30
0.0
 10
178.718599
 20
6.096225
 30
0.0
 10
178.767985
 20
5.613343
 30
0.0
 10
178.909669
 20
5.162324
 30
0.0
 10
179.133934
 20
4.753215
 30
0.0
 10
179.431064
 20
4.396034
 30
0.0
 10
179.791346
 20
4.100773
 30
0.0
 10
180.205061
 20
3.877479
 30
0.0
 10
180.662495
 20
3.736142
 30
0.0
 10
181.153934
 20
3.686810
 30
0.0
 10
182.054232
 20
3.686810
 30
0.0
 10
182.954526
 20
3.686810
 30
0.0
 10
183.854823
 20
3.686810
 30
0.0
 10
184.755118
 20
3.686810
 30
0.0
 10
185.655415
 20
3.686810
 30
0.0
 10
186.555713
 20
3.686810
 30
0.0
 10
187.456007
 20
3.686810
 30
0.0
 10
188.356305
 20
3.686810
 30
0.0
 10
188.847744
 20
3.736142
 30
0.0
 10
189.305178
 20
3.877479
 30
0.0
 10
189.718893
 20
4.100773
 30
0.0
 10
190.079173
 20
4.396034
 30
0.0
 10
190.376302
 20
4.753215
 30
0.0
 10
190.600567
 20
5.162324
 30
0.0
 10
190.742251
 20
5.613343
 30
0.0
 10
190.791637
 20
6.096225
 30
0.0
 10
190.742251
 20
6.587659
 30
0.0
 10
190.600567
 20
7.045113
 30
0.0
 10
190.376302
 20
7.458823
 30
0.0
 10
190.079173
 20
7.819107
 30
0.0
 10
189.718893
 20
8.116231
 30
0.0
 10
189.305178
 20
8.340513
 30
0.0
 10
188.847744
 20
8.482189
 30
0.0
 10
188.356305
 20
8.531577
 30
0.0
  0
LWPOLYLINE
  5
101
100
AcDbEntity
  8
Camada_1
 62
7
100
AcDbPolyline
 90
97
 70
0
 10
101.284114
 20
24.613350
 30
0.0
 10
101.003328
 20
24.766010
 30
0.0
 10
100.706845
 20
24.856888
 30
0.0
 10
100.403476
 20
24.887665
 30
0.0
 10
100.102023
 20
24.860007
 30
0.0
 10
99.811301
 20
24.775603
 30
0.0
 10
99.540099
 20
24.636126
 30
0.0
 10
99.297239
 20
24.443249
 30
0.0
 10
99.091521
 20
24.198653
 30
0.0
 10
97.526607
 20
21.902840
 30
0.0
 10
95.961694
 20
19.607025
 30
0.0
 10
94.396783
 20
17.311212
 30
0.0
 10
92.831866
 20
15.015399
 30
0.0
 10
91.266952
 20
12.719586
 30
0.0
 10
89.702039
 20
10.423765
 30
0.0
 10
88.137128
 20
8.127971
 30
0.0
 10
86.572214
 20
5.832150
 30
0.0
 10
86.419554
 20
5.551367
 30
0.0
 10
86.328679
 20
5.254836
 30
0.0
 10
86.297916
 20
4.951447
 30
0.0
 10
86.325602
 20
4.649949
 30
0.0
 10
86.410038
 20
4.359232
 30
0.0
 10
86.549566
 20
4.088017
 30
0.0
 10
86.742510
 20
3.845193
 30
0.0
 10
86.987196
 20
3.639566
 30
0.0
 10
87.090916
 20
3.574570
 30
0.0
 10
87.197613
 20
3.518549
 30
0.0
 10
87.306833
 20
3.471389
 30
0.0
 10
87.418104
 20
3.432979
 30
0.0
 10
87.530968
 20
3.403289
 30
0.0
 10
87.644960
 20
3.382123
 30
0.0
 10
87.759619
 20
3.369423
 30
0.0
 10
87.874478
 20
3.365189
 30
0.0
 10
88.062833
 20
3.376478
 30
0.0
 10
88.248253
 20
3.409950
 30
0.0
 10
88.428593
 20
3.465237
 30
0.0
 10
88.601725
 20
3.541945
 30
0.0
 10
88.765512
 20
3.639679
 30
0.0
 10
88.917831
 20
3.758014
 30
0.0
 10
89.056540
 20
3.896585
 30
0.0
 10
89.179510
 20
4.054940
 30
0.0
 10
90.176274
 20
5.517218
 30
0.0
 10
91.173034
 20
6.979496
 30
0.0
 10
92.169798
 20
8.441803
 30
0.0
 10
93.166559
 20
9.904052
 30
0.0
 10
94.163326
 20
11.366359
 30
0.0
 10
95.160084
 20
12.828637
 30
0.0
 10
96.156847
 20
14.290915
 30
0.0
 10
97.153608
 20
15.753195
 30
0.0
 10
97.153608
 20
14.403747
 30
0.0
 10
97.153608
 20
13.054273
 30
0.0
 10
97.153608
 20
11.704799
 30
0.0
 10
97.153608
 20
10.355354
 30
0.0
 10
97.153608
 20
9.005908
 30
0.0
 10
97.153608
 20
7.656435
 30
0.0
 10
97.153608
 20
6.306989
 30
0.0
 10
97.153608
 20
4.957515
 30
0.0
 10
97.185674
 20
4.639535
 30
0.0
 10
97.277637
 20
4.343343
 30
0.0
 10
97.423150
 20
4.075345
 30
0.0
 10
97.615860
 20
3.841834
 30
0.0
 10
97.849416
 20
3.649189
 30
0.0
 10
98.117471
 20
3.503704
 30
0.0
 10
98.413671
 20
3.411784
 30
0.0
 10
98.731674
 20
3.379724
 30
0.0
 10
99.049577
 20
3.411784
 30
0.0
 10
99.345710
 20
3.503704
 30
0.0
 10
99.613714
 20
3.649189
 30
0.0
 10
99.847242
 20
3.841834
 30
0.0
 10
100.039929
 20
4.075345
 30
0.0
 10
100.185431
 20
4.343343
 30
0.0
 10
100.277391
 20
4.639535
 30
0.0
 10
100.309457
 20
4.957515
 30
0.0
 10
100.309457
 20
6.885742
 30
0.0
 10
100.309457
 20
8.813969
 30
0.0
 10
100.309457
 20
10.742168
 30
0.0
 10
100.309457
 20
12.670395
 30
0.0
 10
100.309457
 20
14.598621
 30
0.0
 10
100.309457
 20
16.526851
 30
0.0
 10
100.309457
 20
18.455075
 30
0.0
 10
100.309457
 20
20.383299
 30
0.0
 10
100.483091
 20
20.638030
 30
0.0
 10
100.656728
 20
20.892761
 30
0.0
 10
100.830363
 20
21.147489
 30
0.0
 10
101.004000
 20
21.402220
 30
0.0
 10
101.177634
 20
21.656951
 30
0.0
 10
101.351272
 20
21.911682
 30
0.0
 10
101.524906
 20
22.166410
 30
0.0
 10
101.698540
 20
22.421141
 30
0.0
 10
101.851290
 20
22.701766
 30
0.0
 10
101.942236
 20
22.998164
 30
0.0
 10
101.973064
 20
23.301505
 30
0.0
 10
101.945434
 20
23.602953
 30
0.0
 10
101.861052
 20
23.893672
 30
0.0
 10
101.721584
 20
24.164840
 30
0.0
 10
101.528713
 20
24.407619
 30
0.0
 10
101.284117
 20
24.613350
 30
0.0
  0
LWPOLYLINE
  5
102
100
AcDbEntity
  8
Camada_1
 62
7
100
AcDbPolyline
 90
49
 70
0
 10
111.489763
 20
-0.000000
 30
0.0
 10
111.171775
 20
0.032060
 30
0.0
 10
110.875606
 20
0.123980
 30
0.0
 10
110.607596
 20
0.269465
 30
0.0
 10
110.374088
 20
0.462110
 30
0.0
 10
110.181429
 20
0.695621
 30
0.0
 10
110.035963
 20
0.963619
 30
0.0
 10
109.944032
 20
1.259811
 30
0.0
 10
109.911978
 20
1.577791
 30
0.0
 10
109.911978
 20
2.314222
 30
0.0
 10
109.911978
 20
3.050653
 30
0.0
 10
109.911978
 20
3.787083
 30
0.0
 10
109.911978
 20
4.523514
 30
0.0
 10
109.911978
 20
5.259945
 30
0.0
 10
109.911978
 20
5.996375
 30
0.0
 10
109.911978
 20
6.732806
 30
0.0
 10
109.911978
 20
7.469237
 30
0.0
 10
109.944032
 20
7.787216
 30
0.0
 10
110.035963
 20
8.083409
 30
0.0
 10
110.181429
 20
8.351407
 30
0.0
 10
110.374088
 20
8.584917
 30
0.0
 10
110.607596
 20
8.777562
 30
0.0
 10
110.875606
 20
8.923048
 30
0.0
 10
111.171775
 20
9.014968
 30
0.0
 10
111.489763
 20
9.047028
 30
0.0
 10
111.807752
 20
9.014968
 30
0.0
 10
112.103921
 20
8.923048
 30
0.0
 10
112.371934
 20
8.777562
 30
0.0
 10
112.605436
 20
8.584917
 30
0.0
 10
112.798095
 20
8.351407
 30
0.0
 10
112.943564
 20
8.083409
 30
0.0
 10
113.035495
 20
7.787216
 30
0.0
 10
113.067549
 20
7.469237
 30
0.0
 10
113.067549
 20
6.732806
 30
0.0
 10
113.067549
 20
5.996375
 30
0.0
 10
113.067549
 20
5.259945
 30
0.0
 10
113.067549
 20
4.523514
 30
0.0
 10
113.067549
 20
3.787083
 30
0.0
 10
113.067549
 20
3.050653
 30
0.0
 10
113.067549
 20
2.314222
 30
0.0
 10
113.067549
 20
1.577791
 30
0.0
 10
113.035495
 20
1.259811
 30
0.0
 10
112.943564
 20
0.963619
 30
0.0
 10
112.798095
 20
0.695621
 30
0.0
 10
112.605436
 20
0.462110
 30
0.0
 10
112.371934
 20
0.269465
 30
0.0
 10
112.103921
 20
0.123980
 30
0.0
 10
111.807752
 20
0.032060
 30
0.0
 10
111.489763
 20
-0.000000
 30
0.0
  0
LWPOLYLINE
  5
103
100
AcDbEntity
  8
Camada_1
 62
7
100
AcDbPolyline
 90
105
 70
0
 10
107.441066
 20
3.924017
 30
0.0
 10
107.345212
 20
3.926840
 30
0.0
 10
107.249248
 20
3.935589
 30
0.0
 10
107.153464
 20
3.950264
 30
0.0
 10
107.058135
 20
3.971149
 30
0.0
 10
106.963557
 20
3.997960
 30
0.0
 10
106.869997
 20
4.031036
 30
0.0
 10
106.777753
 20
4.070378
 30
0.0
 10
106.687103
 20
4.116041
 30
0.0
 10
105.533684
 20
4.850440
 30
0.0
 10
104.504253
 20
5.721011
 30
0.0
 10
103.608000
 20
6.712288
 30
0.0
 10
102.854102
 20
7.808835
 30
0.0
 10
102.251752
 20
8.995240
 30
0.0
 10
101.810131
 20
10.256012
 30
0.0
 10
101.538424
 20
11.575767
 30
0.0
 10
101.445813
 20
12.939014
 30
0.0
 10
101.650224
 20
14.960591
 30
0.0
 10
102.236329
 20
16.844710
 30
0.0
 10
103.163440
 20
18.550658
 30
0.0
 10
104.390873
 20
20.037724
 30
0.0
 10
105.877935
 20
21.265199
 30
0.0
 10
107.583943
 20
22.192369
 30
0.0
 10
109.468209
 20
22.778525
 30
0.0
 10
111.490046
 20
22.982958
 30
0.0
 10
113.511530
 20
22.778548
 30
0.0
 10
115.395581
 20
22.192448
 30
0.0
 10
117.101479
 20
21.265345
 30
0.0
 10
118.588513
 20
20.037936
 30
0.0
 10
119.815965
 20
18.550904
 30
0.0
 10
120.743125
 20
16.844947
 30
0.0
 10
121.329280
 20
14.960752
 30
0.0
 10
121.533714
 20
12.939014
 30
0.0
 10
121.441114
 20
11.575993
 30
0.0
 10
121.169447
 20
10.256407
 30
0.0
 10
120.727887
 20
8.995692
 30
0.0
 10
120.125631
 20
7.809286
 30
0.0
 10
119.371855
 20
6.712712
 30
0.0
 10
118.475740
 20
5.721378
 30
0.0
 10
117.446481
 20
4.850751
 30
0.0
 10
116.293256
 20
4.116324
 30
0.0
 10
115.998554
 20
3.992231
 30
0.0
 10
115.694412
 20
3.931186
 30
0.0
 10
115.389423
 20
3.931186
 30
0.0
 10
115.092175
 20
3.988562
 30
0.0
 10
114.811262
 20
4.101338
 30
0.0
 10
114.555273
 20
4.266974
 30
0.0
 10
114.332800
 20
4.482959
 30
0.0
 10
114.152434
 20
4.746723
 30
0.0
 10
114.028347
 20
5.041251
 30
0.0
 10
113.967291
 20
5.345289
 30
0.0
 10
113.966726
 20
5.650258
 30
0.0
 10
114.024125
 20
5.947494
 30
0.0
 10
114.136943
 20
6.228447
 30
0.0
 10
114.302644
 20
6.484507
 30
0.0
 10
114.518688
 20
6.707095
 30
0.0
 10
114.782543
 20
6.887548
 30
0.0
 10
115.573934
 20
7.391456
 30
0.0
 10
116.280246
 20
7.988751
 30
0.0
 10
116.895183
 20
8.668822
 30
0.0
 10
117.412440
 20
9.421057
 30
0.0
 10
117.825726
 20
10.234845
 30
0.0
 10
118.128725
 20
11.099602
 30
0.0
 10
118.315147
 20
12.004717
 30
0.0
 10
118.378689
 20
12.939578
 30
0.0
 10
118.238479
 20
14.325967
 30
0.0
 10
117.836470
 20
15.618135
 30
0.0
 10
117.200587
 20
16.788113
 30
0.0
 10
116.358763
 20
17.807988
 30
0.0
 10
115.338922
 20
18.649834
 30
0.0
 10
114.168992
 20
19.285726
 30
0.0
 10
112.876908
 20
19.687740
 30
0.0
 10
111.490593
 20
19.827951
 30
0.0
 10
110.104095
 20
19.687740
 30
0.0
 10
108.811870
 20
19.285726
 30
0.0
 10
107.641847
 20
18.649834
 30
0.0
 10
106.621935
 20
17.807988
 30
0.0
 10
105.780069
 20
16.788113
 30
0.0
 10
105.144166
 20
15.618135
 30
0.0
 10
104.742149
 20
14.325967
 30
0.0
 10
104.601938
 20
12.939578
 30
0.0
 10
104.665495
 20
12.004604
 30
0.0
 10
104.851945
 20
11.099433
 30
0.0
 10
105.154995
 20
10.234619
 30
0.0
 10
105.568329
 20
9.420803
 30
0.0
 10
106.085640
 20
8.668540
 30
0.0
 10
106.700625
 20
7.988469
 30
0.0
 10
107.406967
 20
7.391174
 30
0.0
 10
108.198369
 20
6.887266
 30
0.0
 10
108.462222
 20
6.706870
 30
0.0
 10
108.678266
 20
6.484366
 30
0.0
 10
108.843970
 20
6.228305
 30
0.0
 10
108.956785
 20
5.947353
 30
0.0
 10
109.014184
 20
5.650117
 30
0.0
 10
109.013619
 20
5.345176
 30
0.0
 10
108.952563
 20
5.041166
 30
0.0
 10
108.828476
 20
4.746723
 30
0.0
 10
108.709304
 20
4.560598
 30
0.0
 10
108.569068
 20
4.396655
 30
0.0
 10
108.410550
 20
4.255713
 30
0.0
 10
108.236529
 20
4.138563
 30
0.0
 10
108.049782
 20
4.046050
 30
0.0
 10
107.853104
 20
3.978938
 30
0.0
 10
107.649267
 20
3.938100
 30
0.0
 10
107.441066
 20
3.923989
 30
0.0
  0
LWPOLYLINE
  5
104
100
AcDbEntity
  8
Camada_1
 62
7
100
AcDbPolyline
 90
89
 70
0
 10
167.049594
 20
21.798443
 30
0.0
 10
167.206089
 20
21.998900
 30
0.0
 10
167.390445
 20
22.167401
 30
0.0
 10
167.597686
 20
22.302475
 30
0.0
 10
167.822829
 20
22.402639
 30
0.0
 10
168.060886
 20
22.466415
 30
0.0
 10
168.306874
 20
22.492323
 30
0.0
 10
168.555814
 20
22.478890
 30
0.0
 10
168.802716
 20
22.424644
 30
0.0
 10
169.037228
 20
22.330181
 30
0.0
 10
169.249953
 20
22.200229
 30
0.0
 10
169.437970
 20
22.039196
 30
0.0
 10
169.598348
 20
21.851484
 30
0.0
 10
169.728182
 20
21.641502
 30
0.0
 10
169.824530
 20
21.413659
 30
0.0
 10
169.884488
 20
21.172356
 30
0.0
 10
169.905118
 20
20.922005
 30
0.0
 10
169.905118
 20
18.924445
 30
0.0
 10
169.905118
 20
16.926884
 30
0.0
 10
169.905118
 20
14.929324
 30
0.0
 10
169.905118
 20
12.931761
 30
0.0
 10
169.905118
 20
10.934192
 30
0.0
 10
169.905118
 20
8.936623
 30
0.0
 10
169.905118
 20
6.939082
 30
0.0
 10
169.905118
 20
4.941513
 30
0.0
 10
169.873320
 20
4.622094
 30
0.0
 10
169.782227
 20
4.325196
 30
0.0
 10
169.638297
 20
4.057057
 30
0.0
 10
169.447991
 20
3.823829
 30
0.0
 10
169.217760
 20
3.631692
 30
0.0
 10
168.954066
 20
3.486799
 30
0.0
 10
168.663369
 20
3.395331
 30
0.0
 10
168.352120
 20
3.363468
 30
0.0
 10
168.032684
 20
3.395331
 30
0.0
 10
167.735809
 20
3.486799
 30
0.0
 10
167.467664
 20
3.631692
 30
0.0
 10
167.234429
 20
3.823829
 30
0.0
 10
167.042278
 20
4.057057
 30
0.0
 10
166.897380
 20
4.325196
 30
0.0
 10
166.805915
 20
4.622094
 30
0.0
 10
166.774054
 20
4.941513
 30
0.0
 10
166.774054
 20
6.300413
 30
0.0
 10
166.774054
 20
7.659285
 30
0.0
 10
166.774054
 20
9.018185
 30
0.0
 10
166.774054
 20
10.377085
 30
0.0
 10
166.774054
 20
11.735957
 30
0.0
 10
166.774054
 20
13.094857
 30
0.0
 10
166.774054
 20
14.453757
 30
0.0
 10
166.774054
 20
15.812640
 30
0.0
 10
165.775278
 20
14.344198
 30
0.0
 10
164.776497
 20
12.875768
 30
0.0
 10
163.777718
 20
11.407309
 30
0.0
 10
162.778936
 20
9.938879
 30
0.0
 10
161.780160
 20
8.470420
 30
0.0
 10
160.781382
 20
7.001989
 30
0.0
 10
159.782600
 20
5.533531
 30
0.0
 10
158.783821
 20
4.065100
 30
0.0
 10
158.583427
 20
3.818805
 30
0.0
 10
158.344841
 20
3.625342
 30
0.0
 10
158.076880
 20
3.485867
 30
0.0
 10
157.788344
 20
3.401568
 30
0.0
 10
157.488040
 20
3.373628
 30
0.0
 10
157.184776
 20
3.403176
 30
0.0
 10
156.887358
 20
3.491427
 30
0.0
 10
156.604589
 20
3.639566
 30
0.0
 10
156.358392
 20
3.848269
 30
0.0
 10
156.164985
 20
4.092786
 30
0.0
 10
156.025545
 20
4.364312
 30
0.0
 10
155.941251
 20
4.654013
 30
0.0
 10
155.913283
 20
4.953084
 30
0.0
 10
155.942806
 20
5.252748
 30
0.0
 10
156.031003
 20
5.544142
 30
0.0
 10
156.179051
 20
5.818519
 30
0.0
 10
157.537869
 20
7.816003
 30
0.0
 10
158.896690
 20
9.813515
 30
0.0
 10
160.255511
 20
11.811000
 30
0.0
 10
161.614329
 20
13.808484
 30
0.0
 10
162.973148
 20
15.805977
 30
0.0
 10
164.331966
 20
17.803466
 30
0.0
 10
165.690787
 20
19.800954
 30
0.0
 10
167.049605
 20
21.798443
 30
0.0
 10
167.049605
 20
21.798446
 30
0.0
 10
167.049605
 20
21.798446
 30
0.0
 10
167.049605
 20
21.798449
 30
0.0
 10
167.049605
 20
21.798452
 30
0.0
 10
167.049605
 20
21.798452
 30
0.0
 10
167.049605
 20
21.798455
 30
0.0
 10
167.049605
 20
21.798455
 30
0.0
 10
167.049599
 20
21.798443
 30
0.0
  0
LWPOLYLINE
  5
105
100
AcDbEntity
  8
Camada_1
 62
7
100
AcDbPolyline
 90
121
 70
0
 10
153.999525
 20
3.388529
 30
0.0
 10
153.944464
 20
3.371878
 30
0.0
 10
153.891395
 20
3.359460
 30
0.0
 10
153.840044
 20
3.350429
 30
0.0
 10
153.790128
 20
3.344502
 30
0.0
 10
153.741374
 20
3.340833
 30
0.0
 10
153.693509
 20
3.338011
 30
0.0
 10
153.646242
 20
3.338011
 30
0.0
 10
153.599309
 20
3.337927
 30
0.0
 10
153.394209
 20
3.350627
 30
0.0
 10
153.193798
 20
3.388698
 30
0.0
 10
153.000427
 20
3.451408
 30
0.0
 10
152.816467
 20
3.538191
 30
0.0
 10
152.644272
 20
3.648484
 30
0.0
 10
152.486207
 20
3.781636
 30
0.0
 10
152.344631
 20
3.937113
 30
0.0
 10
152.221909
 20
4.114320
 30
0.0
 10
151.432878
 20
5.476240
 30
0.0
 10
150.643844
 20
6.838159
 30
0.0
 10
149.854812
 20
8.200079
 30
0.0
 10
149.065778
 20
9.561971
 30
0.0
 10
148.276747
 20
10.923891
 30
0.0
 10
147.487719
 20
12.285810
 30
0.0
 10
146.698685
 20
13.647730
 30
0.0
 10
145.909651
 20
15.009641
 30
0.0
 10
145.909651
 20
13.744786
 30
0.0
 10
145.909651
 20
12.479923
 30
0.0
 10
145.909651
 20
11.215087
 30
0.0
 10
145.909651
 20
9.950224
 30
0.0
 10
145.909651
 20
8.685389
 30
0.0
 10
145.909651
 20
7.420525
 30
0.0
 10
145.909651
 20
6.155690
 30
0.0
 10
145.909651
 20
4.890826
 30
0.0
 10
145.877791
 20
4.579507
 30
0.0
 10
145.786328
 20
4.288761
 30
0.0
 10
145.641429
 20
4.025053
 30
0.0
 10
145.449278
 20
3.794844
 30
0.0
 10
145.216044
 20
3.604570
 30
0.0
 10
144.947899
 20
3.460665
 30
0.0
 10
144.651024
 20
3.369592
 30
0.0
 10
144.331585
 20
3.337814
 30
0.0
 10
144.020176
 20
3.369620
 30
0.0
 10
143.729402
 20
3.460750
 30
0.0
 10
143.465696
 20
3.604711
 30
0.0
 10
143.235499
 20
3.795042
 30
0.0
 10
143.045250
 20
4.025307
 30
0.0
 10
142.901387
 20
4.288987
 30
0.0
 10
142.810348
 20
4.579648
 30
0.0
 10
142.778570
 20
4.890826
 30
0.0
 10
142.778570
 20
6.888339
 30
0.0
 10
142.778570
 20
8.885879
 30
0.0
 10
142.778570
 20
10.883392
 30
0.0
 10
142.778570
 20
12.880932
 30
0.0
 10
142.778570
 20
14.878450
 30
0.0
 10
142.778570
 20
16.875974
 30
0.0
 10
142.778570
 20
18.873501
 30
0.0
 10
142.778570
 20
20.871024
 30
0.0
 10
142.800358
 20
21.129918
 30
0.0
 10
142.863550
 20
21.377633
 30
0.0
 10
142.964916
 20
21.610057
 30
0.0
 10
143.101218
 20
21.823081
 30
0.0
 10
143.269225
 20
22.012596
 30
0.0
 10
143.465694
 20
22.174490
 30
0.0
 10
143.687393
 20
22.304660
 30
0.0
 10
143.931092
 20
22.398990
 30
0.0
 10
144.186342
 20
22.442776
 30
0.0
 10
144.441536
 20
22.443905
 30
0.0
 10
144.691994
 20
22.404620
 30
0.0
 10
144.933038
 20
22.326882
 30
0.0
 10
145.159992
 20
22.212746
 30
0.0
 10
145.368185
 20
22.064263
 30
0.0
 10
145.552925
 20
21.883494
 30
0.0
 10
145.709547
 20
21.672488
 30
0.0
 10
146.498581
 20
20.307407
 30
0.0
 10
147.287612
 20
18.942326
 30
0.0
 10
148.076643
 20
17.577246
 30
0.0
 10
148.865674
 20
16.212162
 30
0.0
 10
149.654708
 20
14.847081
 30
0.0
 10
150.443740
 20
13.482009
 30
0.0
 10
151.232774
 20
12.116929
 30
0.0
 10
152.021805
 20
10.751848
 30
0.0
 10
152.021805
 20
12.016711
 30
0.0
 10
152.021805
 20
13.281603
 30
0.0
 10
152.021805
 20
14.546495
 30
0.0
 10
152.021805
 20
15.811387
 30
0.0
 10
152.021805
 20
17.076273
 30
0.0
 10
152.021805
 20
18.341159
 30
0.0
 10
152.021805
 20
19.606045
 30
0.0
 10
152.021805
 20
20.870931
 30
0.0
 10
152.053654
 20
21.190367
 30
0.0
 10
152.145091
 20
21.487245
 30
0.0
 10
152.289956
 20
21.755388
 30
0.0
 10
152.482073
 20
21.988622
 30
0.0
 10
152.715290
 20
22.180773
 30
0.0
 10
152.983435
 20
22.325668
 30
0.0
 10
153.280350
 20
22.417134
 30
0.0
 10
153.599865
 20
22.448994
 30
0.0
 10
153.911034
 20
22.417134
 30
0.0
 10
154.201698
 20
22.325668
 30
0.0
 10
154.465389
 20
22.180773
 30
0.0
 10
154.695640
 20
21.988622
 30
0.0
 10
154.885985
 20
21.755388
 30
0.0
 10
155.029950
 20
21.487245
 30
0.0
 10
155.121073
 20
21.190367
 30
0.0
 10
155.152886
 20
20.870931
 30
0.0
 10
155.152886
 20
18.873408
 30
0.0
 10
155.152886
 20
16.875881
 30
0.0
 10
155.152886
 20
14.878357
 30
0.0
 10
155.152886
 20
12.880819
 30
0.0
 10
155.152886
 20
10.883307
 30
0.0
 10
155.152886
 20
8.885795
 30
0.0
 10
155.152886
 20
6.888254
 30
0.0
 10
155.152886
 20
4.890741
 30
0.0
 10
155.131070
 20
4.632085
 30
0.0
 10
155.067781
 20
4.384858
 30
0.0
 10
154.966280
 20
4.153436
 30
0.0
 10
154.829826
 20
3.942249
 30
0.0
 10
154.661667
 20
3.755672
 30
0.0
 10
154.465065
 20
3.598164
 30
0.0
 10
154.243264
 20
3.474071
 30
0.0
 10
153.999522
 20
3.388529
 30
0.0
  0
LWPOLYLINE
  5
106
100
AcDbEntity
  8
Camada_1
 62
7
100
AcDbPolyline
 90
49
 70
0
 10
139.697592
 20
3.363411
 30
0.0
 10
139.378156
 20
3.395274
 30
0.0
 10
139.081278
 20
3.486742
 30
0.0
 10
138.813133
 20
3.631635
 30
0.0
 10
138.579899
 20
3.823800
 30
0.0
 10
138.387745
 20
4.057029
 30
0.0
 10
138.242850
 20
4.325168
 30
0.0
 10
138.151384
 20
4.622038
 30
0.0
 10
138.119524
 20
4.941485
 30
0.0
 10
138.119524
 20
6.935865
 30
0.0
 10
138.119524
 20
8.930273
 30
0.0
 10
138.119524
 20
10.924653
 30
0.0
 10
138.119524
 20
12.919061
 30
0.0
 10
138.119524
 20
14.913446
 30
0.0
 10
138.119524
 20
16.907840
 30
0.0
 10
138.119524
 20
18.902231
 30
0.0
 10
138.119524
 20
20.896625
 30
0.0
 10
138.151384
 20
21.216140
 30
0.0
 10
138.242850
 20
21.513055
 30
0.0
 10
138.387745
 20
21.781202
 30
0.0
 10
138.579899
 20
22.014420
 30
0.0
 10
138.813133
 20
22.206540
 30
0.0
 10
139.081278
 20
22.351401
 30
0.0
 10
139.378156
 20
22.442839
 30
0.0
 10
139.697592
 20
22.474687
 30
0.0
 10
140.009897
 20
22.442839
 30
0.0
 10
140.303368
 20
22.351401
 30
0.0
 10
140.570985
 20
22.206540
 30
0.0
 10
140.805715
 20
22.014420
 30
0.0
 10
141.000525
 20
21.781202
 30
0.0
 10
141.148375
 20
21.513055
 30
0.0
 10
141.242243
 20
21.216140
 30
0.0
 10
141.275096
 20
20.896625
 30
0.0
 10
141.275096
 20
18.902231
 30
0.0
 10
141.275096
 20
16.907840
 30
0.0
 10
141.275096
 20
14.913446
 30
0.0
 10
141.275096
 20
12.919061
 30
0.0
 10
141.275096
 20
10.924653
 30
0.0
 10
141.275096
 20
8.930273
 30
0.0
 10
141.275096
 20
6.935865
 30
0.0
 10
141.275096
 20
4.941485
 30
0.0
 10
141.242243
 20
4.621981
 30
0.0
 10
141.148375
 20
4.325055
 30
0.0
 10
141.000525
 20
4.056916
 30
0.0
 10
140.805715
 20
3.823687
 30
0.0
 10
140.570985
 20
3.631551
 30
0.0
 10
140.303368
 20
3.486686
 30
0.0
 10
140.009897
 20
3.395274
 30
0.0
 10
139.697592
 20
3.363411
 30
0.0
  0
LWPOLYLINE
  5
107
100
AcDbEntity
  8
Camada_1
 62
7
100
AcDbPolyline
 90
97
 70
0
 10
129.627757
 20
2.887500
 30
0.0
 10
128.210694
 20
3.030699
 30
0.0
 10
126.890181
 20
3.441305
 30
0.0
 10
125.694697
 20
4.090839
 30
0.0
 10
124.652715
 20
4.950855
 30
0.0
 10
123.792716
 20
5.992819
 30
0.0
 10
123.143173
 20
7.188313
 30
0.0
 10
122.732565
 20
8.508802
 30
0.0
 10
122.589369
 20
9.925868
 30
0.0
 10
122.589369
 20
11.300375
 30
0.0
 10
122.589369
 20
12.674882
 30
0.0
 10
122.589369
 20
14.049389
 30
0.0
 10
122.589369
 20
15.423910
 30
0.0
 10
122.589369
 20
16.798420
 30
0.0
 10
122.589369
 20
18.172926
 30
0.0
 10
122.589369
 20
19.547436
 30
0.0
 10
122.589369
 20
20.921946
 30
0.0
 10
122.621232
 20
21.241371
 30
0.0
 10
122.712694
 20
21.538218
 30
0.0
 10
122.857593
 20
21.806317
 30
0.0
 10
123.049741
 20
22.039501
 30
0.0
 10
123.282981
 20
22.231601
 30
0.0
 10
123.551120
 20
22.376451
 30
0.0
 10
123.847998
 20
22.467886
 30
0.0
 10
124.167434
 20
22.499735
 30
0.0
 10
124.486955
 20
22.467886
 30
0.0
 10
124.783867
 20
22.376451
 30
0.0
 10
125.052012
 20
22.231601
 30
0.0
 10
125.285229
 20
22.039501
 30
0.0
 10
125.477352
 20
21.806317
 30
0.0
 10
125.622213
 20
21.538218
 30
0.0
 10
125.713651
 20
21.241371
 30
0.0
 10
125.745499
 20
20.921946
 30
0.0
 10
125.745499
 20
19.547436
 30
0.0
 10
125.745499
 20
18.172926
 30
0.0
 10
125.745499
 20
16.798420
 30
0.0
 10
125.745499
 20
15.423910
 30
0.0
 10
125.745499
 20
14.049389
 30
0.0
 10
125.745499
 20
12.674882
 30
0.0
 10
125.745499
 20
11.300375
 30
0.0
 10
125.745499
 20
9.925868
 30
0.0
 10
125.823983
 20
9.140669
 30
0.0
 10
126.049249
 20
8.410589
 30
0.0
 10
126.406021
 20
7.750979
 30
0.0
 10
126.879020
 20
7.177024
 30
0.0
 10
127.452969
 20
6.704076
 30
0.0
 10
128.112593
 20
6.347319
 30
0.0
 10
128.842614
 20
6.122105
 30
0.0
 10
129.627757
 20
6.043619
 30
0.0
 10
130.405787
 20
6.122105
 30
0.0
 10
131.132472
 20
6.347319
 30
0.0
 10
131.791662
 20
6.704076
 30
0.0
 10
132.367212
 20
7.177024
 30
0.0
 10
132.842965
 20
7.750979
 30
0.0
 10
133.202784
 20
8.410589
 30
0.0
 10
133.430518
 20
9.140669
 30
0.0
 10
133.510017
 20
9.925868
 30
0.0
 10
133.510017
 20
11.300375
 30
0.0
 10
133.510017
 20
12.674882
 30
0.0
 10
133.510017
 20
14.049389
 30
0.0
 10
133.510017
 20
15.423910
 30
0.0
 10
133.510017
 20
16.798420
 30
0.0
 10
133.510017
 20
18.172926
 30
0.0
 10
133.510017
 20
19.547436
 30
0.0
 10
133.510017
 20
20.921946
 30
0.0
 10
133.541880
 20
21.241371
 30
0.0
 10
133.633342
 20
21.538218
 30
0.0
 10
133.778238
 20
21.806317
 30
0.0
 10
133.970392
 20
22.039501
 30
0.0
 10
134.203626
 20
22.231601
 30
0.0
 10
134.471768
 20
22.376451
 30
0.0
 10
134.768646
 20
22.467886
 30
0.0
 10
135.088082
 20
22.499735
 30
0.0
 10
135.407524
 20
22.467886
 30
0.0
 10
135.704396
 20
22.376451
 30
0.0
 10
135.972541
 20
22.231601
 30
0.0
 10
136.205775
 20
22.039501
 30
0.0
 10
136.397926
 20
21.806317
 30
0.0
 10
136.542822
 20
21.538218
 30
0.0
 10
136.634287
 20
21.241371
 30
0.0
 10
136.666148
 20
20.921946
 30
0.0
 10
136.666148
 20
19.547436
 30
0.0
 10
136.666148
 20
18.172926
 30
0.0
 10
136.666148
 20
16.798420
 30
0.0
 10
136.666148
 20
15.423910
 30
0.0
 10
136.666148
 20
14.049389
 30
0.0
 10
136.666148
 20
12.674882
 30
0.0
 10
136.666148
 20
11.300375
 30
0.0
 10
136.666148
 20
9.925868
 30
0.0
 10
136.522962
 20
8.508802
 30
0.0
 10
136.112380
 20
7.188313
 30
0.0
 10
135.462873
 20
5.992819
 30
0.0
 10
134.602903
 20
4.950855
 30
0.0
 10
133.560941
 20
4.090839
 30
0.0
 10
132.365451
 20
3.441305
 30
0.0
 10
131.044899
 20
3.030699
 30
0.0
 10
129.627757
 20
2.887500
 30
0.0
  0
LWPOLYLINE
  5
108
100
AcDbEntity
  8
Camada_1
 62
7
100
AcDbPolyline
 90
145
 70
0
 10
60.970552
 20
5.842959
 30
0.0
 10
62.326274
 20
7.837395
 30
0.0
 10
63.681999
 20
9.831803
 30
0.0
 10
65.037721
 20
11.826240
 30
0.0
 10
66.393444
 20
13.820676
 30
0.0
 10
67.749166
 20
15.815092
 30
0.0
 10
69.104891
 20
17.809520
 30
0.0
 10
70.460613
 20
19.803945
 30
0.0
 10
71.816335
 20
21.798373
 30
0.0
 10
71.972932
 20
21.998830
 30
0.0
 10
72.157398
 20
22.167333
 30
0.0
 10
72.364732
 20
22.302405
 30
0.0
 10
72.589957
 20
22.402568
 30
0.0
 10
72.828088
 20
22.466345
 30
0.0
 10
73.074132
 20
22.492253
 30
0.0
 10
73.323105
 20
22.478819
 30
0.0
 10
73.570022
 20
22.424576
 30
0.0
 10
73.804351
 20
22.330113
 30
0.0
 10
74.016937
 20
22.200161
 30
0.0
 10
74.204855
 20
22.039125
 30
0.0
 10
74.365174
 20
21.851417
 30
0.0
 10
74.494963
 20
21.641435
 30
0.0
 10
74.591296
 20
21.413588
 30
0.0
 10
74.651246
 20
21.172285
 30
0.0
 10
74.671876
 20
20.921935
 30
0.0
 10
74.671876
 20
19.563083
 30
0.0
 10
74.671876
 20
18.204228
 30
0.0
 10
74.671876
 20
16.845376
 30
0.0
 10
74.671876
 20
15.486521
 30
0.0
 10
74.671876
 20
14.127677
 30
0.0
 10
74.671876
 20
12.768805
 30
0.0
 10
74.671876
 20
11.409962
 30
0.0
 10
74.671876
 20
10.051118
 30
0.0
 10
75.670621
 20
11.519521
 30
0.0
 10
76.669366
 20
12.987923
 30
0.0
 10
77.668111
 20
14.456325
 30
0.0
 10
78.666856
 20
15.924736
 30
0.0
 10
79.665604
 20
17.393141
 30
0.0
 10
80.664349
 20
18.861549
 30
0.0
 10
81.663094
 20
20.329954
 30
0.0
 10
82.661839
 20
21.798362
 30
0.0
 10
82.818354
 20
21.998818
 30
0.0
 10
83.002774
 20
22.167322
 30
0.0
 10
83.210112
 20
22.302394
 30
0.0
 10
83.435353
 20
22.402557
 30
0.0
 10
83.673515
 20
22.466334
 30
0.0
 10
83.919593
 20
22.492242
 30
0.0
 10
84.168598
 20
22.478808
 30
0.0
 10
84.415522
 20
22.424565
 30
0.0
 10
84.658121
 20
22.330102
 30
0.0
 10
84.876919
 20
22.200150
 30
0.0
 10
85.069290
 20
22.039114
 30
0.0
 10
85.232592
 20
21.851405
 30
0.0
 10
85.364196
 20
21.641423
 30
0.0
 10
85.461458
 20
21.413577
 30
0.0
 10
85.521749
 20
21.172274
 30
0.0
 10
85.542436
 20
20.921923
 30
0.0
 10
85.542436
 20
18.924366
 30
0.0
 10
85.542436
 20
16.926808
 30
0.0
 10
85.542436
 20
14.929250
 30
0.0
 10
85.542436
 20
12.931704
 30
0.0
 10
85.542436
 20
10.934135
 30
0.0
 10
85.542436
 20
8.936566
 30
0.0
 10
85.542436
 20
6.939026
 30
0.0
 10
85.542436
 20
4.941457
 30
0.0
 10
85.510584
 20
4.622009
 30
0.0
 10
85.419150
 20
4.325140
 30
0.0
 10
85.274285
 20
4.057001
 30
0.0
 10
85.082162
 20
3.823772
 30
0.0
 10
84.848948
 20
3.631607
 30
0.0
 10
84.580797
 20
3.486714
 30
0.0
 10
84.283883
 20
3.395246
 30
0.0
 10
83.964365
 20
3.363383
 30
0.0
 10
83.645090
 20
3.395246
 30
0.0
 10
83.348288
 20
3.486714
 30
0.0
 10
83.080160
 20
3.631607
 30
0.0
 10
82.846886
 20
3.823772
 30
0.0
 10
82.654673
 20
4.057001
 30
0.0
 10
82.509710
 20
4.325140
 30
0.0
 10
82.418188
 20
4.622009
 30
0.0
 10
82.386305
 20
4.941457
 30
0.0
 10
82.386305
 20
6.300357
 30
0.0
 10
82.386305
 20
7.659229
 30
0.0
 10
82.386305
 20
9.018129
 30
0.0
 10
82.386305
 20
10.377000
 30
0.0
 10
82.386305
 20
11.735900
 30
0.0
 10
82.386305
 20
13.094772
 30
0.0
 10
82.386305
 20
14.453672
 30
0.0
 10
82.386305
 20
15.812561
 30
0.0
 10
81.390690
 20
14.344113
 30
0.0
 10
80.395078
 20
12.875683
 30
0.0
 10
79.399463
 20
11.407253
 30
0.0
 10
78.403848
 20
9.938794
 30
0.0
 10
77.408233
 20
8.470363
 30
0.0
 10
76.412617
 20
7.001933
 30
0.0
 10
75.417005
 20
5.533474
 30
0.0
 10
74.421393
 20
4.065044
 30
0.0
 10
74.257727
 20
3.864581
 30
0.0
 10
74.069654
 20
3.696067
 30
0.0
 10
73.861007
 20
3.560995
 30
0.0
 10
73.635596
 20
3.460834
 30
0.0
 10
73.397262
 20
3.397052
 30
0.0
 10
73.149824
 20
3.371088
 30
0.0
 10
72.897108
 20
3.384634
 30
0.0
 10
72.642941
 20
3.438877
 30
0.0
 10
72.408598
 20
3.533337
 30
0.0
 10
72.195978
 20
3.663301
 30
0.0
 10
72.008015
 20
3.824337
 30
0.0
 10
71.847645
 20
4.012043
 30
0.0
 10
71.717803
 20
4.222016
 30
0.0
 10
71.621424
 20
4.449854
 30
0.0
 10
71.561443
 20
4.691154
 30
0.0
 10
71.540813
 20
4.941513
 30
0.0
 10
71.540813
 20
6.300413
 30
0.0
 10
71.540813
 20
7.659285
 30
0.0
 10
71.540813
 20
9.018185
 30
0.0
 10
71.540813
 20
10.377057
 30
0.0
 10
71.540813
 20
11.735957
 30
0.0
 10
71.540813
 20
13.094829
 30
0.0
 10
71.540813
 20
14.453729
 30
0.0
 10
71.540813
 20
15.812617
 30
0.0
 10
70.542037
 20
14.344170
 30
0.0
 10
69.543255
 20
12.875739
 30
0.0
 10
68.544474
 20
11.407309
 30
0.0
 10
67.545695
 20
9.938850
 30
0.0
 10
66.546919
 20
8.470420
 30
0.0
 10
65.548137
 20
7.001989
 30
0.0
 10
64.549356
 20
5.533531
 30
0.0
 10
63.550577
 20
4.065100
 30
0.0
 10
63.350089
 20
3.818805
 30
0.0
 10
63.111447
 20
3.625342
 30
0.0
 10
62.843455
 20
3.485839
 30
0.0
 10
62.554928
 20
3.401539
 30
0.0
 10
62.254672
 20
3.373599
 30
0.0
 10
61.951494
 20
3.403148
 30
0.0
 10
61.654210
 20
3.491427
 30
0.0
 10
61.371624
 20
3.639566
 30
0.0
 10
61.132395
 20
3.848128
 30
0.0
 10
60.942505
 20
4.092843
 30
0.0
 10
60.804295
 20
4.365187
 30
0.0
 10
60.720114
 20
4.656638
 30
0.0
 10
60.692315
 20
4.958672
 30
0.0
 10
60.723224
 20
5.262767
 30
0.0
 10
60.815194
 20
5.560370
 30
0.0
 10
60.970549
 20
5.842959
 30
0.0
  0
LWPOLYLINE
  5
109
100
AcDbEntity
  8
Camada_1
 62
7
100
AcDbPolyline
 90
81
 70
0
 10
57.062965
 20
21.798373
 30
0.0
 10
57.219539
 20
21.998830
 30
0.0
 10
57.403940
 20
22.167333
 30
0.0
 10
57.611202
 20
22.302405
 30
0.0
 10
57.836344
 20
22.402568
 30
0.0
 10
58.074404
 20
22.466345
 30
0.0
 10
58.320409
 20
22.492253
 30
0.0
 10
58.569388
 20
22.478819
 30
0.0
 10
58.816370
 20
22.424576
 30
0.0
 10
59.050724
 20
22.330113
 30
0.0
 10
59.263376
 20
22.200161
 30
0.0
 10
59.451384
 20
22.039125
 30
0.0
 10
59.611804
 20
21.851417
 30
0.0
 10
59.741694
 20
21.641435
 30
0.0
 10
59.838118
 20
21.413588
 30
0.0
 10
59.898127
 20
21.172285
 30
0.0
 10
59.918786
 20
20.921935
 30
0.0
 10
59.918786
 20
18.924377
 30
0.0
 10
59.918786
 20
16.926819
 30
0.0
 10
59.918786
 20
14.929262
 30
0.0
 10
59.918786
 20
12.931704
 30
0.0
 10
59.918786
 20
10.934135
 30
0.0
 10
59.918786
 20
8.936566
 30
0.0
 10
59.918786
 20
6.939026
 30
0.0
 10
59.918786
 20
4.941457
 30
0.0
 10
59.886971
 20
4.622009
 30
0.0
 10
59.795853
 20
4.325140
 30
0.0
 10
59.651886
 20
4.057001
 30
0.0
 10
59.461544
 20
3.823772
 30
0.0
 10
59.231295
 20
3.631607
 30
0.0
 10
58.967604
 20
3.486714
 30
0.0
 10
58.676943
 20
3.395246
 30
0.0
 10
58.365774
 20
3.363383
 30
0.0
 10
58.046256
 20
3.395246
 30
0.0
 10
57.749341
 20
3.486714
 30
0.0
 10
57.481190
 20
3.631607
 30
0.0
 10
57.247973
 20
3.823772
 30
0.0
 10
57.055853
 20
4.057001
 30
0.0
 10
56.910991
 20
4.325140
 30
0.0
 10
56.819554
 20
4.622009
 30
0.0
 10
56.787705
 20
4.941457
 30
0.0
 10
56.787705
 20
6.300357
 30
0.0
 10
56.787705
 20
7.659229
 30
0.0
 10
56.787705
 20
9.018129
 30
0.0
 10
56.787705
 20
10.377029
 30
0.0
 10
56.787705
 20
11.735900
 30
0.0
 10
56.787705
 20
13.094800
 30
0.0
 10
56.787705
 20
14.453672
 30
0.0
 10
56.787705
 20
15.812572
 30
0.0
 10
55.788890
 20
14.344142
 30
0.0
 10
54.790077
 20
12.875683
 30
0.0
 10
53.791262
 20
11.407253
 30
0.0
 10
52.792449
 20
9.938822
 30
0.0
 10
51.793634
 20
8.470363
 30
0.0
 10
50.794818
 20
7.001933
 30
0.0
 10
49.796005
 20
5.533474
 30
0.0
 10
48.797190
 20
4.065044
 30
0.0
 10
48.596702
 20
3.818749
 30
0.0
 10
48.358058
 20
3.625285
 30
0.0
 10
48.090057
 20
3.485783
 30
0.0
 10
47.801507
 20
3.401483
 30
0.0
 10
47.501220
 20
3.373543
 30
0.0
 10
47.197995
 20
3.403092
 30
0.0
 10
46.900640
 20
3.491371
 30
0.0
 10
46.617960
 20
3.639509
 30
0.0
 10
46.371769
 20
3.848213
 30
0.0
 10
46.178365
 20
4.092730
 30
0.0
 10
46.038936
 20
4.364228
 30
0.0
 10
45.954659
 20
4.653929
 30
0.0
 10
45.926719
 20
4.953028
 30
0.0
 10
45.956290
 20
5.252663
 30
0.0
 10
46.044555
 20
5.544086
 30
0.0
 10
46.192697
 20
5.818462
 30
0.0
 10
47.551481
 20
7.815947
 30
0.0
 10
48.910265
 20
9.813459
 30
0.0
 10
50.269049
 20
11.810943
 30
0.0
 10
51.627834
 20
13.808427
 30
0.0
 10
52.986615
 20
15.805923
 30
0.0
 10
54.345399
 20
17.803413
 30
0.0
 10
55.704184
 20
19.800900
 30
0.0
 10
57.062965
 20
21.798373
 30
0.0
  0
LWPOLYLINE
  5
10a
100
AcDbEntity
  8
Camada_1
 62
7
100
AcDbPolyline
 90
97
 70
0
 10
49.548096
 20
20.871572
 30
0.0
 10
49.515231
 20
20.560255
 30
0.0
 10
49.421330
 20
20.269547
 30
0.0
 10
49.273431
 20
20.005892
 30
0.0
 10
49.078574
 20
19.775729
 30
0.0
 10
48.843793
 20
19.585499
 30
0.0
 10
48.576131
 20
19.441648
 30
0.0
 10
48.282623
 20
19.350612
 30
0.0
 10
47.970310
 20
19.318836
 30
0.0
 10
47.600841
 20
19.318836
 30
0.0
 10
47.231376
 20
19.318836
 30
0.0
 10
46.861908
 20
19.318836
 30
0.0
 10
46.492439
 20
19.318836
 30
0.0
 10
46.122974
 20
19.318836
 30
0.0
 10
45.753505
 20
19.318836
 30
0.0
 10
45.384040
 20
19.318836
 30
0.0
 10
45.014571
 20
19.318836
 30
0.0
 10
45.014571
 20
17.518535
 30
0.0
 10
45.014571
 20
15.718234
 30
0.0
 10
45.014571
 20
13.917930
 30
0.0
 10
45.014571
 20
12.117634
 30
0.0
 10
45.014571
 20
10.317339
 30
0.0
 10
45.014571
 20
8.517015
 30
0.0
 10
45.014571
 20
6.716719
 30
0.0
 10
45.014571
 20
4.916424
 30
0.0
 10
44.982711
 20
4.596920
 30
0.0
 10
44.891246
 20
4.299994
 30
0.0
 10
44.746350
 20
4.031855
 30
0.0
 10
44.554199
 20
3.798654
 30
0.0
 10
44.320965
 20
3.606517
 30
0.0
 10
44.052820
 20
3.461653
 30
0.0
 10
43.755942
 20
3.370213
 30
0.0
 10
43.436506
 20
3.338378
 30
0.0
 10
43.117152
 20
3.370213
 30
0.0
 10
42.820310
 20
3.461653
 30
0.0
 10
42.552174
 20
3.606517
 30
0.0
 10
42.318923
 20
3.798654
 30
0.0
 10
42.126741
 20
4.031855
 30
0.0
 10
41.981811
 20
4.299994
 30
0.0
 10
41.890318
 20
4.596920
 30
0.0
 10
41.858446
 20
4.916424
 30
0.0
 10
41.858446
 20
6.716719
 30
0.0
 10
41.858446
 20
8.517015
 30
0.0
 10
41.858446
 20
10.317339
 30
0.0
 10
41.858446
 20
12.117634
 30
0.0
 10
41.858446
 20
13.917930
 30
0.0
 10
41.858446
 20
15.718234
 30
0.0
 10
41.858446
 20
17.518535
 30
0.0
 10
41.858446
 20
19.318836
 30
0.0
 10
41.489014
 20
19.318836
 30
0.0
 10
41.119580
 20
19.318836
 30
0.0
 10
40.750148
 20
19.318836
 30
0.0
 10
40.380717
 20
19.318836
 30
0.0
 10
40.011282
 20
19.318836
 30
0.0
 10
39.641850
 20
19.318836
 30
0.0
 10
39.272416
 20
19.318836
 30
0.0
 10
38.902984
 20
19.318836
 30
0.0
 10
38.590578
 20
19.350637
 30
0.0
 10
38.297002
 20
19.441727
 30
0.0
 10
38.029289
 20
19.585649
 30
0.0
 10
37.794474
 20
19.775940
 30
0.0
 10
37.599597
 20
20.006138
 30
0.0
 10
37.451687
 20
20.269784
 30
0.0
 10
37.357783
 20
20.560416
 30
0.0
 10
37.324919
 20
20.871572
 30
0.0
 10
37.357783
 20
21.191008
 30
0.0
 10
37.451687
 20
21.487886
 30
0.0
 10
37.599597
 20
21.756028
 30
0.0
 10
37.794474
 20
21.989265
 30
0.0
 10
38.029289
 20
22.181416
 30
0.0
 10
38.297002
 20
22.326312
 30
0.0
 10
38.590578
 20
22.417777
 30
0.0
 10
38.902984
 20
22.449637
 30
0.0
 10
40.036400
 20
22.449637
 30
0.0
 10
41.169815
 20
22.449637
 30
0.0
 10
42.303231
 20
22.449637
 30
0.0
 10
43.436647
 20
22.449637
 30
0.0
 10
44.570063
 20
22.449637
 30
0.0
 10
45.703478
 20
22.449637
 30
0.0
 10
46.836894
 20
22.449637
 30
0.0
 10
47.970310
 20
22.449637
 30
0.0
 10
48.282465
 20
22.417789
 30
0.0
 10
48.575897
 20
22.326351
 30
0.0
 10
48.843548
 20
22.181490
 30
0.0
 10
49.078365
 20
21.989370
 30
0.0
 10
49.273282
 20
21.756152
 30
0.0
 10
49.421251
 20
21.488005
 30
0.0
 10
49.515206
 20
21.191090
 30
0.0
 10
49.548093
 20
20.871572
 30
0.0
 10
49.548093
 20
20.871572
 30
0.0
 10
49.548093
 20
20.871572
 30
0.0
 10
49.548093
 20
20.871572
 30
0.0
 10
49.548093
 20
20.871572
 30
0.0
 10
49.548093
 20
20.871572
 30
0.0
 10
49.548096
 20
20.871572
 30
0.0
 10
49.548096
 20
20.871572
 30
0.0
 10
49.548096
 20
20.871572
 30
0.0
  0
LWPOLYLINE
  5
10b
100
AcDbEntity
  8
Camada_1
 62
7
100
AcDbPolyline
 90
145
 70
0
 10
0.278258
 20
5.842959
 30
0.0
 10
1.633945
 20
7.837395
 30
0.0
 10
2.989633
 20
9.831803
 30
0.0
 10
4.345322
 20
11.826240
 30
0.0
 10
5.701011
 20
13.820676
 30
0.0
 10
7.056699
 20
15.815092
 30
0.0
 10
8.412387
 20
17.809520
 30
0.0
 10
9.768075
 20
19.803945
 30
0.0
 10
11.123763
 20
21.798373
 30
0.0
 10
11.280360
 20
21.998830
 30
0.0
 10
11.464820
 20
22.167333
 30
0.0
 10
11.672157
 20
22.302405
 30
0.0
 10
11.897385
 20
22.402568
 30
0.0
 10
12.135514
 20
22.466345
 30
0.0
 10
12.381559
 20
22.492253
 30
0.0
 10
12.630532
 20
22.478819
 30
0.0
 10
12.877448
 20
22.424576
 30
0.0
 10
13.111778
 20
22.330113
 30
0.0
 10
13.324368
 20
22.200161
 30
0.0
 10
13.512286
 20
22.039125
 30
0.0
 10
13.672604
 20
21.851417
 30
0.0
 10
13.802396
 20
21.641435
 30
0.0
 10
13.898729
 20
21.413588
 30
0.0
 10
13.958678
 20
21.172285
 30
0.0
 10
13.979311
 20
20.921935
 30
0.0
 10
13.979311
 20
19.563083
 30
0.0
 10
13.979311
 20
18.204228
 30
0.0
 10
13.979311
 20
16.845376
 30
0.0
 10
13.979311
 20
15.486521
 30
0.0
 10
13.979311
 20
14.127677
 30
0.0
 10
13.979311
 20
12.768805
 30
0.0
 10
13.979311
 20
11.409962
 30
0.0
 10
13.979311
 20
10.051118
 30
0.0
 10
14.978090
 20
11.519521
 30
0.0
 10
15.976869
 20
12.987923
 30
0.0
 10
16.975649
 20
14.456325
 30
0.0
 10
17.974428
 20
15.924736
 30
0.0
 10
18.973207
 20
17.393141
 30
0.0
 10
19.971986
 20
18.861549
 30
0.0
 10
20.970765
 20
20.329954
 30
0.0
 10
21.969544
 20
21.798362
 30
0.0
 10
22.126049
 20
21.998818
 30
0.0
 10
22.310441
 20
22.167322
 30
0.0
 10
22.517729
 20
22.302394
 30
0.0
 10
22.742924
 20
22.402557
 30
0.0
 10
22.981033
 20
22.466334
 30
0.0
 10
23.227067
 20
22.492242
 30
0.0
 10
23.476036
 20
22.478808
 30
0.0
 10
23.722949
 20
22.424565
 30
0.0
 10
23.965719
 20
22.330102
 30
0.0
 10
24.184627
 20
22.200150
 30
0.0
 10
24.377052
 20
22.039114
 30
0.0
 10
24.540372
 20
21.851405
 30
0.0
 10
24.671962
 20
21.641423
 30
0.0
 10
24.769203
 20
21.413577
 30
0.0
 10
24.829470
 20
21.172274
 30
0.0
 10
24.850140
 20
20.921923
 30
0.0
 10
24.850140
 20
18.924366
 30
0.0
 10
24.850140
 20
16.926808
 30
0.0
 10
24.850140
 20
14.929250
 30
0.0
 10
24.850140
 20
12.931704
 30
0.0
 10
24.850140
 20
10.934135
 30
0.0
 10
24.850140
 20
8.936566
 30
0.0
 10
24.850140
 20
6.939026
 30
0.0
 10
24.850140
 20
4.941457
 30
0.0
 10
24.818291
 20
4.622009
 30
0.0
 10
24.726854
 20
4.325140
 30
0.0
 10
24.581993
 20
4.057001
 30
0.0
 10
24.389872
 20
3.823772
 30
0.0
 10
24.156656
 20
3.631607
 30
0.0
 10
23.888508
 20
3.486714
 30
0.0
 10
23.591594
 20
3.395246
 30
0.0
 10
23.272077
 20
3.363383
 30
0.0
 10
22.952720
 20
3.395246
 30
0.0
 10
22.655882
 20
3.486714
 30
0.0
 10
22.387743
 20
3.631607
 30
0.0
 10
22.154492
 20
3.823772
 30
0.0
 10
21.962309
 20
4.057001
 30
0.0
 10
21.817380
 20
4.325140
 30
0.0
 10
21.725887
 20
4.622009
 30
0.0
 10
21.694015
 20
4.941457
 30
0.0
 10
21.694015
 20
6.300357
 30
0.0
 10
21.694015
 20
7.659229
 30
0.0
 10
21.694015
 20
9.018129
 30
0.0
 10
21.694015
 20
10.377000
 30
0.0
 10
21.694015
 20
11.735900
 30
0.0
 10
21.694015
 20
13.094772
 30
0.0
 10
21.694015
 20
14.453672
 30
0.0
 10
21.694015
 20
15.812561
 30
0.0
 10
20.698400
 20
14.344113
 30
0.0
 10
19.702786
 20
12.875683
 30
0.0
 10
18.707173
 20
11.407253
 30
0.0
 10
17.711559
 20
9.938794
 30
0.0
 10
16.715945
 20
8.470363
 30
0.0
 10
15.720331
 20
7.001933
 30
0.0
 10
14.724717
 20
5.533474
 30
0.0
 10
13.729102
 20
4.065044
 30
0.0
 10
13.565437
 20
3.864581
 30
0.0
 10
13.377364
 20
3.696067
 30
0.0
 10
13.168712
 20
3.560995
 30
0.0
 10
12.943305
 20
3.460834
 30
0.0
 10
12.704970
 20
3.397052
 30
0.0
 10
12.457532
 20
3.371088
 30
0.0
 10
12.204817
 20
3.384634
 30
0.0
 10
11.950651
 20
3.438877
 30
0.0
 10
11.716309
 20
3.533337
 30
0.0
 10
11.503688
 20
3.663301
 30
0.0
 10
11.315725
 20
3.824337
 30
0.0
 10
11.155355
 20
4.012043
 30
0.0
 10
11.025513
 20
4.222016
 30
0.0
 10
10.929133
 20
4.449854
 30
0.0
 10
10.869154
 20
4.691154
 30
0.0
 10
10.848509
 20
4.941513
 30
0.0
 10
10.848509
 20
6.300413
 30
0.0
 10
10.848509
 20
7.659285
 30
0.0
 10
10.848509
 20
9.018185
 30
0.0
 10
10.848509
 20
10.377057
 30
0.0
 10
10.848509
 20
11.735957
 30
0.0
 10
10.848509
 20
13.094829
 30
0.0
 10
10.848509
 20
14.453729
 30
0.0
 10
10.848509
 20
15.812617
 30
0.0
 10
9.849729
 20
14.344170
 30
0.0
 10
8.850949
 20
12.875739
 30
0.0
 10
7.852169
 20
11.407309
 30
0.0
 10
6.853389
 20
9.938850
 30
0.0
 10
5.854610
 20
8.470420
 30
0.0
 10
4.855830
 20
7.001989
 30
0.0
 10
3.857050
 20
5.533531
 30
0.0
 10
2.858270
 20
4.065100
 30
0.0
 10
2.657782
 20
3.818805
 30
0.0
 10
2.419138
 20
3.625342
 30
0.0
 10
2.151147
 20
3.485839
 30
0.0
 10
1.862619
 20
3.401539
 30
0.0
 10
1.562362
 20
3.373599
 30
0.0
 10
1.259187
 20
3.403148
 30
0.0
 10
0.961902
 20
3.491427
 30
0.0
 10
0.679317
 20
3.639566
 30
0.0
 10
0.440088
 20
3.848128
 30
0.0
 10
0.250197
 20
4.092843
 30
0.0
 10
0.111988
 20
4.365187
 30
0.0
 10
0.027808
 20
4.656638
 30
0.0
 10
0.000000
 20
4.958672
 30
0.0
 10
0.030909
 20
5.262767
 30
0.0
 10
0.122880
 20
5.560370
 30
0.0
 10
0.278256
 20
5.842959
 30
0.0
  0
LWPOLYLINE
  5
10c
100
AcDbEntity
  8
Camada_1
 62
7
100
AcDbPolyline
 90
137
 70
0
 10
26.353613
 20
4.916424
 30
0.0
 10
26.353613
 20
6.913936
 30
0.0
 10
26.353613
 20
8.911477
 30
0.0
 10
26.353613
 20
10.908989
 30
0.0
 10
26.353613
 20
12.906530
 30
0.0
 10
26.353613
 20
14.904048
 30
0.0
 10
26.353613
 20
16.901575
 30
0.0
 10
26.353613
 20
18.899098
 30
0.0
 10
26.353613
 20
20.896625
 30
0.0
 10
26.385472
 20
21.216140
 30
0.0
 10
26.476939
 20
21.513055
 30
0.0
 10
26.621835
 20
21.781202
 30
0.0
 10
26.813988
 20
22.014420
 30
0.0
 10
27.047221
 20
22.206540
 30
0.0
 10
27.315364
 20
22.351401
 30
0.0
 10
27.612242
 20
22.442839
 30
0.0
 10
27.931678
 20
22.474687
 30
0.0
 10
28.827131
 20
22.474687
 30
0.0
 10
29.722586
 20
22.474687
 30
0.0
 10
30.618040
 20
22.474687
 30
0.0
 10
31.513495
 20
22.474687
 30
0.0
 10
32.408946
 20
22.474687
 30
0.0
 10
33.304401
 20
22.474687
 30
0.0
 10
34.199855
 20
22.474687
 30
0.0
 10
35.095310
 20
22.474687
 30
0.0
 10
35.414667
 20
22.442839
 30
0.0
 10
35.711505
 20
22.351401
 30
0.0
 10
35.979644
 20
22.206540
 30
0.0
 10
36.212895
 20
22.014420
 30
0.0
 10
36.405077
 20
21.781202
 30
0.0
 10
36.550007
 20
21.513055
 30
0.0
 10
36.641501
 20
21.216140
 30
0.0
 10
36.673372
 20
20.896625
 30
0.0
 10
36.641512
 20
20.577200
 30
0.0
 10
36.550047
 20
20.280353
 30
0.0
 10
36.405154
 20
20.012256
 30
0.0
 10
36.213003
 20
19.779070
 30
0.0
 10
35.979766
 20
19.586970
 30
0.0
 10
35.711624
 20
19.442119
 30
0.0
 10
35.414748
 20
19.350685
 30
0.0
 10
35.095310
 20
19.318836
 30
0.0
 10
34.397114
 20
19.318836
 30
0.0
 10
33.698916
 20
19.318836
 30
0.0
 10
33.000724
 20
19.318836
 30
0.0
 10
32.302526
 20
19.318836
 30
0.0
 10
31.604331
 20
19.318836
 30
0.0
 10
30.906136
 20
19.318836
 30
0.0
 10
30.207937
 20
19.318836
 30
0.0
 10
29.509742
 20
19.318836
 30
0.0
 10
29.509742
 20
18.820959
 30
0.0
 10
29.509742
 20
18.323083
 30
0.0
 10
29.509742
 20
17.825206
 30
0.0
 10
29.509742
 20
17.327329
 30
0.0
 10
29.509742
 20
16.829453
 30
0.0
 10
29.509742
 20
16.331576
 30
0.0
 10
29.509742
 20
15.833699
 30
0.0
 10
29.509742
 20
15.335823
 30
0.0
 10
30.095255
 20
15.335823
 30
0.0
 10
30.680767
 20
15.335823
 30
0.0
 10
31.266279
 20
15.335823
 30
0.0
 10
31.851792
 20
15.335823
 30
0.0
 10
32.437304
 20
15.335823
 30
0.0
 10
33.022816
 20
15.335823
 30
0.0
 10
33.608329
 20
15.335823
 30
0.0
 10
34.193841
 20
15.335823
 30
0.0
 10
34.513277
 20
15.304011
 30
0.0
 10
34.810155
 20
15.212892
 30
0.0
 10
35.078297
 20
15.068936
 30
0.0
 10
35.311531
 20
14.878617
 30
0.0
 10
35.503682
 20
14.648405
 30
0.0
 10
35.648578
 20
14.384753
 30
0.0
 10
35.740043
 20
14.094149
 30
0.0
 10
35.771903
 20
13.783084
 30
0.0
 10
35.740043
 20
13.463637
 30
0.0
 10
35.648578
 20
13.166739
 30
0.0
 10
35.503682
 20
12.898543
 30
0.0
 10
35.311531
 20
12.665258
 30
0.0
 10
35.078297
 20
12.473065
 30
0.0
 10
34.810155
 20
12.328115
 30
0.0
 10
34.513277
 20
12.236619
 30
0.0
 10
34.193841
 20
12.204756
 30
0.0
 10
33.608329
 20
12.204756
 30
0.0
 10
33.022816
 20
12.204756
 30
0.0
 10
32.437304
 20
12.204756
 30
0.0
 10
31.851792
 20
12.204756
 30
0.0
 10
31.266279
 20
12.204756
 30
0.0
 10
30.680767
 20
12.204756
 30
0.0
 10
30.095255
 20
12.204756
 30
0.0
 10
29.509742
 20
12.204756
 30
0.0
 10
29.509742
 20
11.490903
 30
0.0
 10
29.509742
 20
10.777050
 30
0.0
 10
29.509742
 20
10.063197
 30
0.0
 10
29.509742
 20
9.349345
 30
0.0
 10
29.509742
 20
8.635492
 30
0.0
 10
29.509742
 20
7.921639
 30
0.0
 10
29.509742
 20
7.207786
 30
0.0
 10
29.509742
 20
6.493933
 30
0.0
 10
30.270560
 20
6.493933
 30
0.0
 10
31.031377
 20
6.493933
 30
0.0
 10
31.792195
 20
6.493933
 30
0.0
 10
32.553012
 20
6.493933
 30
0.0
 10
33.313830
 20
6.493933
 30
0.0
 10
34.074647
 20
6.493933
 30
0.0
 10
34.835465
 20
6.493933
 30
0.0
 10
35.596282
 20
6.493933
 30
0.0
 10
35.915800
 20
6.462070
 30
0.0
 10
36.212715
 20
6.370602
 30
0.0
 10
36.480863
 20
6.225709
 30
0.0
 10
36.714077
 20
6.033572
 30
0.0
 10
36.906200
 20
5.800344
 30
0.0
 10
37.051062
 20
5.532204
 30
0.0
 10
37.142499
 20
5.235307
 30
0.0
 10
37.174348
 20
4.915887
 30
0.0
 10
37.142499
 20
4.604568
 30
0.0
 10
37.051062
 20
4.313823
 30
0.0
 10
36.906200
 20
4.050114
 30
0.0
 10
36.714077
 20
3.819877
 30
0.0
 10
36.480863
 20
3.629603
 30
0.0
 10
36.212715
 20
3.485698
 30
0.0
 10
35.915800
 20
3.394625
 30
0.0
 10
35.596282
 20
3.362847
 30
0.0
 10
34.638205
 20
3.362847
 30
0.0
 10
33.680132
 20
3.362847
 30
0.0
 10
32.722055
 20
3.362847
 30
0.0
 10
31.763978
 20
3.362847
 30
0.0
 10
30.805904
 20
3.362847
 30
0.0
 10
29.847828
 20
3.362847
 30
0.0
 10
28.889754
 20
3.362847
 30
0.0
 10
27.931678
 20
3.362847
 30
0.0
 10
27.612162
 20
3.394766
 30
0.0
 10
27.315248
 20
3.485952
 30
0.0
 10
27.047101
 20
3.629970
 30
0.0
 10
26.813883
 20
3.820385
 30
0.0
 10
26.621761
 20
4.050679
 30
0.0
 10
26.476899
 20
4.314444
 30
0.0
 10
26.385461
 20
4.605161
 30
0.0
 10
26.353613
 20
4.916424
 30
0.0
  0
ENDSEC
  0
SECTION
  2
OBJECTS
  0
DICTIONARY
  5
C
330
0
100
AcDbDictionary
  3
ACAD_GROUP
350
D
  3
ACAD_MLINESTYLE
350
17
  0
DICTIONARY
  5
D
330
C
100
AcDbDictionary
  0
DICTIONARY
  5
1A
330
C
100
AcDbDictionary
  0
DICTIONARY
  5
17
330
C
100
AcDbDictionary
  3
STANDARD
350
18
  0
DICTIONARY
  5
19
330
C
100
AcDbDictionary
  0
ENDSEC
  0
EOF
