  0
SECTION
  2
HEADER
  9
$ACADVER
  1
AC1014
  9
$HANDSEED
  5
FFFF
  9
$MEASUREMENT
 70
     1
  0
ENDSEC
  0
SECTION
  2
TABLES
  0
TABLE
  2
VPORT
  5
8
330
0
100
AcDbSymbolTable
 70
     4
  0
VPORT
  5
2E
330
8
100
AcDbSymbolTableRecord
100
AcDbViewportTableRecord
  2
*ACTIVE
 70
     0
 10
0.0
 20
0.0
 11
1.0
 21
1.0
 12
210.0
 22
148.5
 13
0.0
 23
0.0
 14
10.0
 24
10.0
 15
10.0
 25
10.0
 16
0.0
 26
0.0
 36
1.0
 17
0.0
 27
0.0
 37
0.0
 40
341.0
 41
1.24
 42
50.0
 43
0.0
 44
0.0
 50
0.0
 51
0.0
 71
     0
 72
   100
 73
     1
 74
     3
 75
     0
 76
     0
 77
     0
 78
     0
  0
ENDTAB
  0
TABLE
  2
LTYPE
  5
5
330
0
100
AcDbSymbolTable
 70
     1
  0
LTYPE
  5
14
330
5
100
AcDbSymbolTableRecord
100
AcDbLinetypeTableRecord
  2
BYBLOCK
 70
     0
  3

 72
    65
 73
     0
 40
0.0
  0
LTYPE
  5
15
330
5
100
AcDbSymbolTableRecord
100
AcDbLinetypeTableRecord
  2
BYLAYER
 70
     0
  3

 72
    65
 73
     0
 40
0.0
  0
LTYPE
  5
16
330
5
100
AcDbSymbolTableRecord
100
AcDbLinetypeTableRecord
  2
CONTINUOUS
 70
     0
  3
Solid line
 72
    65
 73
     0
 40
0.0
  0
ENDTAB
  0
TABLE
  2
LAYER
  5
2
100
AcDbSymbolTable
 70
3
  0
LAYER
  5
50
100
AcDbSymbolTableRecord
100
AcDbLayerTableRecord
  2
0
 70
0
  6
CONTINUOUS
  0
LAYER
  5
51
100
AcDbSymbolTableRecord
100
AcDbLayerTableRecord
  2
eme2
 70
0
  6
CONTINUOUS
  0
LAYER
  5
52
100
AcDbSymbolTableRecord
100
AcDbLayerTableRecord
  2
eme
 70
0
  6
CONTINUOUS
  0
ENDTAB
  0
TABLE
  2
STYLE
  5
3
330
0
100
AcDbSymbolTable
 70
     1
  0
STYLE
  5
11
330
3
100
AcDbSymbolTableRecord
100
AcDbTextStyleTableRecord
  2
STANDARD
 70
     0
 40
0.0
 41
1.0
 50
0.0
 71
     0
 42
2.5
  3
txt
  4

  0
ENDTAB
  0
TABLE
  2
VIEW
  5
6
330
0
100
AcDbSymbolTable
 70
     0
  0
ENDTAB
  0
TABLE
  2
UCS
  5
7
330
0
100
AcDbSymbolTable
 70
     0
  0
ENDTAB
  0
TABLE
  2
APPID
  5
9
330
0
100
AcDbSymbolTable
 70
     2
  0
APPID
  5
12
330
9
100
AcDbSymbolTableRecord
100
AcDbRegAppTableRecord
  2
ACAD
 70
     0
  0
ENDTAB
  0
TABLE
  2
DIMSTYLE
  5
A
330
0
100
AcDbSymbolTable
 70
     1
  0
DIMSTYLE
105
27
330
A
100
AcDbSymbolTableRecord
100
AcDbDimStyleTableRecord
  2
ISO-25
 70
     0
  3

  4

  5

  6

  7

 40
1.0
 41
2.5
 42
0.625
 43
3.75
 44
1.25
 45
0.0
 46
0.0
 47
0.0
 48
0.0
140
2.5
141
2.5
142
0.0
143
0.03937007874016
144
1.0
145
0.0
146
1.0
147
0.625
 71
     0
 72
     0
 73
     0
 74
     0
 75
     0
 76
     0
 77
     1
 78
     8
170
     0
171
     3
172
     1
173
     0
174
     0
175
     0
176
     0
177
     0
178
     0
270
     2
271
     2
272
     2
273
     2
274
     3
340
11
275
     0
280
     0
281
     0
282
     0
283
     0
284
     8
285
     0
286
     0
287
     3
288
     0
  0
ENDTAB
  0
TABLE
  2
BLOCK_RECORD
  5
1
330
0
100
AcDbSymbolTable
 70
     1
  0
BLOCK_RECORD
  5
1F
330
1
100
AcDbSymbolTableRecord
100
AcDbBlockTableRecord
  2
*MODEL_SPACE
  0
BLOCK_RECORD
  5
1B
330
1
100
AcDbSymbolTableRecord
100
AcDbBlockTableRecord
  2
*PAPER_SPACE
  0
ENDTAB
  0
ENDSEC
  0
SECTION
  2
BLOCKS
  0
BLOCK
  5
20
330
1F
100
AcDbEntity
  8
0
100
AcDbBlockBegin
  2
*MODEL_SPACE
 70
     0
 10
0.0
 20
0.0
 30
0.0
  3
*MODEL_SPACE
  1

  0
ENDBLK
  5
21
330
1F
100
AcDbEntity
  8
0
100
AcDbBlockEnd
  0
BLOCK
  5
1C
330
1B
100
AcDbEntity
 67
     1
  8
0
100
AcDbBlockBegin
  2
*PAPER_SPACE
  1

  0
ENDBLK
  5
1D
330
1B
100
AcDbEntity
 67
     1
  8
0
100
AcDbBlockEnd
  0
ENDSEC
  0
SECTION
  2
ENTITIES
  0
LWPOLYLINE
  5
100
100
AcDbEntity
  8
eme2
 62
7
100
AcDbPolyline
 90
429
 70
0
 10
16.642292
 20
14.446250
 30
0.0
 10
16.554097
 20
14.437431
 30
0.0
 10
16.527639
 20
14.428611
 30
0.0
 10
16.492361
 20
14.419792
 30
0.0
 10
16.404167
 20
14.402153
 30
0.0
 10
16.386528
 20
14.393333
 30
0.0
 10
16.360069
 20
14.384514
 30
0.0
 10
16.174861
 20
14.322778
 30
0.0
 10
16.130764
 20
14.305139
 30
0.0
 10
16.077847
 20
14.278681
 30
0.0
 10
15.989653
 20
14.216944
 30
0.0
 10
15.972014
 20
14.208125
 30
0.0
 10
15.954375
 20
14.190486
 30
0.0
 10
15.813264
 20
14.084653
 30
0.0
 10
15.769167
 20
14.049375
 30
0.0
 10
15.733889
 20
14.014097
 30
0.0
 10
15.672153
 20
13.934722
 30
0.0
 10
15.654514
 20
13.917083
 30
0.0
 10
15.645694
 20
13.899444
 30
0.0
 10
15.592778
 20
13.828889
 30
0.0
 10
15.583958
 20
13.820069
 30
0.0
 10
14.455069
 20
12.179653
 30
0.0
 10
13.335000
 20
10.539236
 30
0.0
 10
13.140972
 20
10.248194
 30
0.0
 10
13.140972
 20
11.421181
 30
0.0
 10
13.140972
 20
13.026319
 30
0.0
 10
13.140972
 20
13.052778
 30
0.0
 10
13.140972
 20
13.079236
 30
0.0
 10
13.132153
 20
13.176250
 30
0.0
 10
13.123333
 20
13.202708
 30
0.0
 10
13.123333
 20
13.229167
 30
0.0
 10
13.096875
 20
13.326181
 30
0.0
 10
13.096875
 20
13.352639
 30
0.0
 10
13.088056
 20
13.370278
 30
0.0
 10
13.035139
 20
13.546667
 30
0.0
 10
13.026319
 20
13.581944
 30
0.0
 10
13.008681
 20
13.617222
 30
0.0
 10
12.964583
 20
13.705417
 30
0.0
 10
12.946944
 20
13.740694
 30
0.0
 10
12.920486
 20
13.775972
 30
0.0
 10
12.814653
 20
13.925903
 30
0.0
 10
12.797014
 20
13.943542
 30
0.0
 10
12.788194
 20
13.961181
 30
0.0
 10
12.717639
 20
14.031736
 30
0.0
 10
12.682361
 20
14.075833
 30
0.0
 10
12.638264
 20
14.111111
 30
0.0
 10
12.470694
 20
14.234583
 30
0.0
 10
12.435417
 20
14.261042
 30
0.0
 10
12.400139
 20
14.278681
 30
0.0
 10
12.311944
 20
14.322778
 30
0.0
 10
12.276667
 20
14.340417
 30
0.0
 10
12.241389
 20
14.349236
 30
0.0
 10
12.144375
 20
14.375694
 30
0.0
 10
12.117917
 20
14.384514
 30
0.0
 10
12.109097
 20
14.393333
 30
0.0
 10
12.012083
 20
14.437431
 30
0.0
 10
11.897431
 20
14.437431
 30
0.0
 10
11.773958
 20
14.437431
 30
0.0
 10
11.703403
 20
14.437431
 30
0.0
 10
11.685764
 20
14.437431
 30
0.0
 10
11.676944
 20
14.437431
 30
0.0
 10
11.668125
 20
14.437431
 30
0.0
 10
11.632847
 20
14.437431
 30
0.0
 10
11.597569
 20
14.437431
 30
0.0
 10
11.562292
 20
14.428611
 30
0.0
 10
11.491736
 20
14.419792
 30
0.0
 10
11.465278
 20
14.419792
 30
0.0
 10
11.438819
 20
14.410972
 30
0.0
 10
11.306528
 20
14.375694
 30
0.0
 10
11.253611
 20
14.366875
 30
0.0
 10
11.200694
 20
14.340417
 30
0.0
 10
11.156597
 20
14.313958
 30
0.0
 10
11.147778
 20
14.313958
 30
0.0
 10
11.138958
 20
14.305139
 30
0.0
 10
11.015486
 20
14.252222
 30
0.0
 10
10.953750
 20
14.225764
 30
0.0
 10
10.909653
 20
14.190486
 30
0.0
 10
10.856736
 20
14.146389
 30
0.0
 10
10.847917
 20
14.137569
 30
0.0
 10
10.733264
 20
14.040556
 30
0.0
 10
10.689167
 20
14.005278
 30
0.0
 10
10.653889
 20
13.970000
 30
0.0
 10
10.618611
 20
13.917083
 30
0.0
 10
10.600972
 20
13.899444
 30
0.0
 10
10.592153
 20
13.881806
 30
0.0
 10
10.548056
 20
13.820069
 30
0.0
 10
10.548056
 20
13.811250
 30
0.0
 10
9.313333
 20
12.003264
 30
0.0
 10
8.069792
 20
10.177639
 30
0.0
 10
6.843889
 20
8.369653
 30
0.0
 10
5.944306
 20
7.037917
 30
0.0
 10
5.397500
 20
7.037917
 30
0.0
 10
4.815417
 20
7.037917
 30
0.0
 10
4.250972
 20
7.037917
 30
0.0
 10
4.180417
 20
7.037917
 30
0.0
 10
4.136319
 20
7.037917
 30
0.0
 10
4.101042
 20
7.029097
 30
0.0
 10
4.030486
 20
7.020278
 30
0.0
 10
4.021667
 20
7.020278
 30
0.0
 10
4.012847
 20
7.011458
 30
0.0
 10
3.854097
 20
6.985000
 30
0.0
 10
3.827639
 20
6.976181
 30
0.0
 10
3.801181
 20
6.967361
 30
0.0
 10
3.739444
 20
6.949722
 30
0.0
 10
3.686528
 20
6.932083
 30
0.0
 10
3.642431
 20
6.905625
 30
0.0
 10
3.518958
 20
6.826250
 30
0.0
 10
3.501319
 20
6.817431
 30
0.0
 10
3.492500
 20
6.808611
 30
0.0
 10
3.421944
 20
6.764514
 30
0.0
 10
3.395486
 20
6.746875
 30
0.0
 10
3.369028
 20
6.720417
 30
0.0
 10
3.254375
 20
6.623403
 30
0.0
 10
3.227917
 20
6.596944
 30
0.0
 10
3.201458
 20
6.570486
 30
0.0
 10
3.157361
 20
6.508750
 30
0.0
 10
3.113264
 20
6.455833
 30
0.0
 10
3.104444
 20
6.447014
 30
0.0
 10
3.095625
 20
6.429375
 30
0.0
 10
2.372431
 20
5.371042
 30
0.0
 10
1.658056
 20
4.321528
 30
0.0
 10
0.952500
 20
3.280833
 30
0.0
 10
0.238125
 20
2.231319
 30
0.0
 10
0.229306
 20
2.213681
 30
0.0
 10
0.220486
 20
2.196042
 30
0.0
 10
0.176389
 20
2.116667
 30
0.0
 10
0.167569
 20
2.107847
 30
0.0
 10
0.158750
 20
2.090208
 30
0.0
 10
0.132292
 20
2.028472
 30
0.0
 10
0.114653
 20
1.993194
 30
0.0
 10
0.105833
 20
1.966736
 30
0.0
 10
0.044097
 20
1.799167
 30
0.0
 10
0.044097
 20
1.781528
 30
0.0
 10
0.035278
 20
1.763889
 30
0.0
 10
0.017639
 20
1.675694
 30
0.0
 10
0.000000
 20
1.613958
 30
0.0
 10
0.000000
 20
1.552222
 30
0.0
 10
0.000000
 20
1.393472
 30
0.0
 10
0.000000
 20
1.305278
 30
0.0
 10
0.000000
 20
1.234722
 30
0.0
 10
0.017639
 20
1.164167
 30
0.0
 10
0.061736
 20
1.014236
 30
0.0
 10
0.088194
 20
0.943681
 30
0.0
 10
0.097014
 20
0.881944
 30
0.0
 10
0.132292
 20
0.829028
 30
0.0
 10
0.220486
 20
0.679097
 30
0.0
 10
0.229306
 20
0.661458
 30
0.0
 10
0.238125
 20
0.643819
 30
0.0
 10
0.282222
 20
0.582083
 30
0.0
 10
0.299861
 20
0.546806
 30
0.0
 10
0.326319
 20
0.520347
 30
0.0
 10
0.449792
 20
0.388056
 30
0.0
 10
0.485069
 20
0.343958
 30
0.0
 10
0.537986
 20
0.317500
 30
0.0
 10
0.599722
 20
0.273403
 30
0.0
 10
0.617361
 20
0.264583
 30
0.0
 10
0.635000
 20
0.255764
 30
0.0
 10
0.784931
 20
0.167569
 30
0.0
 10
0.811389
 20
0.149931
 30
0.0
 10
0.837847
 20
0.141111
 30
0.0
 10
0.908403
 20
0.105833
 30
0.0
 10
0.952500
 20
0.088194
 30
0.0
 10
1.005417
 20
0.079375
 30
0.0
 10
1.155347
 20
0.044097
 30
0.0
 10
1.172986
 20
0.044097
 30
0.0
 10
1.190625
 20
0.044097
 30
0.0
 10
1.261181
 20
0.026458
 30
0.0
 10
1.340556
 20
0.017639
 30
0.0
 10
1.375833
 20
0.008819
 30
0.0
 10
1.411111
 20
0.008819
 30
0.0
 10
2.407708
 20
0.008819
 30
0.0
 10
3.404306
 20
0.008819
 30
0.0
 10
4.392083
 20
0.008819
 30
0.0
 10
5.397500
 20
0.008819
 30
0.0
 10
5.432778
 20
0.008819
 30
0.0
 10
5.476875
 20
0.017639
 30
0.0
 10
5.538611
 20
0.026458
 30
0.0
 10
5.591528
 20
0.026458
 30
0.0
 10
5.644444
 20
0.035278
 30
0.0
 10
5.785556
 20
0.070556
 30
0.0
 10
5.847292
 20
0.079375
 30
0.0
 10
5.900208
 20
0.105833
 30
0.0
 10
5.961944
 20
0.141111
 30
0.0
 10
6.094236
 20
0.202847
 30
0.0
 10
6.164792
 20
0.238125
 30
0.0
 10
6.226528
 20
0.273403
 30
0.0
 10
6.270625
 20
0.317500
 30
0.0
 10
6.394097
 20
0.423333
 30
0.0
 10
6.402917
 20
0.432153
 30
0.0
 10
6.411736
 20
0.440972
 30
0.0
 10
6.464653
 20
0.493889
 30
0.0
 10
6.482292
 20
0.511528
 30
0.0
 10
6.491111
 20
0.529167
 30
0.0
 10
6.552847
 20
0.590903
 30
0.0
 10
6.561667
 20
0.617361
 30
0.0
 10
6.579306
 20
0.635000
 30
0.0
 10
7.699375
 20
2.284236
 30
0.0
 10
8.810625
 20
3.933472
 30
0.0
 10
9.004653
 20
4.215694
 30
0.0
 10
9.004653
 20
3.033889
 30
0.0
 10
9.004653
 20
1.437569
 30
0.0
 10
9.004653
 20
1.411111
 30
0.0
 10
9.013472
 20
1.384653
 30
0.0
 10
9.022292
 20
1.278819
 30
0.0
 10
9.022292
 20
1.252361
 30
0.0
 10
9.031111
 20
1.225903
 30
0.0
 10
9.048750
 20
1.128889
 30
0.0
 10
9.057569
 20
1.120069
 30
0.0
 10
9.057569
 20
1.102431
 30
0.0
 10
9.110486
 20
0.908403
 30
0.0
 10
9.128125
 20
0.846667
 30
0.0
 10
9.163403
 20
0.793750
 30
0.0
 10
9.207500
 20
0.723194
 30
0.0
 10
9.216319
 20
0.696736
 30
0.0
 10
9.233958
 20
0.670278
 30
0.0
 10
9.357431
 20
0.511528
 30
0.0
 10
9.383889
 20
0.467431
 30
0.0
 10
9.427986
 20
0.423333
 30
0.0
 10
9.507361
 20
0.361597
 30
0.0
 10
9.525000
 20
0.343958
 30
0.0
 10
9.542639
 20
0.335139
 30
0.0
 10
9.692569
 20
0.229306
 30
0.0
 10
9.727847
 20
0.202847
 30
0.0
 10
9.763125
 20
0.185208
 30
0.0
 10
9.851319
 20
0.141111
 30
0.0
 10
9.886597
 20
0.123472
 30
0.0
 10
9.930694
 20
0.105833
 30
0.0
 10
9.974792
 20
0.097014
 30
0.0
 10
9.983611
 20
0.088194
 30
0.0
 10
10.010069
 20
0.079375
 30
0.0
 10
10.045347
 20
0.070556
 30
0.0
 10
10.080625
 20
0.061736
 30
0.0
 10
10.151181
 20
0.035278
 30
0.0
 10
10.177639
 20
0.035278
 30
0.0
 10
10.239375
 20
0.026458
 30
0.0
 10
10.257014
 20
0.026458
 30
0.0
 10
10.309931
 20
0.000000
 30
0.0
 10
10.451042
 20
0.017639
 30
0.0
 10
10.495139
 20
0.026458
 30
0.0
 10
10.548056
 20
0.026458
 30
0.0
 10
10.574514
 20
0.026458
 30
0.0
 10
10.636250
 20
0.026458
 30
0.0
 10
10.689167
 20
0.035278
 30
0.0
 10
10.821458
 20
0.070556
 30
0.0
 10
10.839097
 20
0.079375
 30
0.0
 10
10.856736
 20
0.079375
 30
0.0
 10
10.927292
 20
0.105833
 30
0.0
 10
10.953750
 20
0.114653
 30
0.0
 10
10.980208
 20
0.123472
 30
0.0
 10
11.121319
 20
0.185208
 30
0.0
 10
11.174236
 20
0.211667
 30
0.0
 10
11.218333
 20
0.255764
 30
0.0
 10
11.271250
 20
0.299861
 30
0.0
 10
11.280069
 20
0.299861
 30
0.0
 10
11.412361
 20
0.414514
 30
0.0
 10
11.447639
 20
0.440972
 30
0.0
 10
11.482917
 20
0.485069
 30
0.0
 10
11.518194
 20
0.529167
 30
0.0
 10
11.527014
 20
0.537986
 30
0.0
 10
11.571111
 20
0.590903
 30
0.0
 10
11.588750
 20
0.617361
 30
0.0
 10
11.606389
 20
0.635000
 30
0.0
 10
12.717639
 20
2.284236
 30
0.0
 10
13.837708
 20
3.933472
 30
0.0
 10
14.031736
 20
4.215694
 30
0.0
 10
14.031736
 20
3.033889
 30
0.0
 10
14.031736
 20
1.437569
 30
0.0
 10
14.031736
 20
1.358194
 30
0.0
 10
14.031736
 20
1.314097
 30
0.0
 10
14.040556
 20
1.278819
 30
0.0
 10
14.049375
 20
1.208264
 30
0.0
 10
14.049375
 20
1.199444
 30
0.0
 10
14.058194
 20
1.181806
 30
0.0
 10
14.084653
 20
1.040694
 30
0.0
 10
14.093472
 20
1.005417
 30
0.0
 10
14.111111
 20
0.970139
 30
0.0
 10
14.137569
 20
0.917222
 30
0.0
 10
14.137569
 20
0.890764
 30
0.0
 10
14.146389
 20
0.873125
 30
0.0
 10
14.208125
 20
0.767292
 30
0.0
 10
14.225764
 20
0.723194
 30
0.0
 10
14.252222
 20
0.687917
 30
0.0
 10
14.261042
 20
0.679097
 30
0.0
 10
14.287500
 20
0.643819
 30
0.0
 10
14.313958
 20
0.599722
 30
0.0
 10
14.340417
 20
0.546806
 30
0.0
 10
14.384514
 20
0.502708
 30
0.0
 10
14.428611
 20
0.467431
 30
0.0
 10
14.507986
 20
0.388056
 30
0.0
 10
14.552083
 20
0.343958
 30
0.0
 10
14.587361
 20
0.299861
 30
0.0
 10
14.640278
 20
0.264583
 30
0.0
 10
14.754931
 20
0.202847
 30
0.0
 10
14.790208
 20
0.185208
 30
0.0
 10
14.825486
 20
0.167569
 30
0.0
 10
14.878403
 20
0.149931
 30
0.0
 10
14.984236
 20
0.105833
 30
0.0
 10
15.001875
 20
0.097014
 30
0.0
 10
15.010694
 20
0.097014
 30
0.0
 10
15.081250
 20
0.070556
 30
0.0
 10
15.107708
 20
0.061736
 30
0.0
 10
15.142986
 20
0.052917
 30
0.0
 10
15.248819
 20
0.035278
 30
0.0
 10
15.292917
 20
0.026458
 30
0.0
 10
15.345833
 20
0.026458
 30
0.0
 10
15.354653
 20
0.026458
 30
0.0
 10
15.407569
 20
0.008819
 30
0.0
 10
15.451667
 20
0.008819
 30
0.0
 10
16.060208
 20
0.008819
 30
0.0
 10
16.668750
 20
0.008819
 30
0.0
 10
17.277292
 20
0.008819
 30
0.0
 10
17.885833
 20
0.008819
 30
0.0
 10
17.929931
 20
0.008819
 30
0.0
 10
17.965208
 20
0.017639
 30
0.0
 10
18.026944
 20
0.026458
 30
0.0
 10
18.035764
 20
0.026458
 30
0.0
 10
18.088681
 20
0.026458
 30
0.0
 10
18.150417
 20
0.035278
 30
0.0
 10
18.282708
 20
0.070556
 30
0.0
 10
18.317986
 20
0.079375
 30
0.0
 10
18.353264
 20
0.097014
 30
0.0
 10
18.432639
 20
0.132292
 30
0.0
 10
18.441458
 20
0.132292
 30
0.0
 10
18.459097
 20
0.141111
 30
0.0
 10
18.582569
 20
0.202847
 30
0.0
 10
18.653125
 20
0.238125
 30
0.0
 10
18.714861
 20
0.273403
 30
0.0
 10
18.767778
 20
0.317500
 30
0.0
 10
18.882431
 20
0.423333
 30
0.0
 10
18.891250
 20
0.432153
 30
0.0
 10
18.900069
 20
0.440972
 30
0.0
 10
18.952986
 20
0.493889
 30
0.0
 10
18.988264
 20
0.529167
 30
0.0
 10
19.014722
 20
0.573264
 30
0.0
 10
19.058819
 20
0.635000
 30
0.0
 10
19.773194
 20
1.684514
 30
0.0
 10
20.487569
 20
2.725208
 30
0.0
 10
20.496389
 20
2.734028
 30
0.0
 10
21.193125
 20
3.774722
 30
0.0
 10
21.201944
 20
3.783542
 30
0.0
 10
21.907500
 20
4.824236
 30
0.0
 10
21.925139
 20
4.841875
 30
0.0
 10
21.933958
 20
4.859514
 30
0.0
 10
21.978056
 20
4.930069
 30
0.0
 10
21.995694
 20
4.956528
 30
0.0
 10
22.004514
 20
4.982986
 30
0.0
 10
22.030972
 20
5.062361
 30
0.0
 10
22.039792
 20
5.080000
 30
0.0
 10
22.048611
 20
5.097639
 30
0.0
 10
22.101528
 20
5.256389
 30
0.0
 10
22.110347
 20
5.274028
 30
0.0
 10
22.110347
 20
5.282847
 30
0.0
 10
22.136806
 20
5.353403
 30
0.0
 10
22.154444
 20
5.423958
 30
0.0
 10
22.154444
 20
5.494514
 30
0.0
 10
22.154444
 20
5.670903
 30
0.0
 10
22.154444
 20
5.741458
 30
0.0
 10
22.154444
 20
5.812014
 30
0.0
 10
22.136806
 20
5.873750
 30
0.0
 10
22.092708
 20
6.032500
 30
0.0
 10
22.092708
 20
6.041319
 30
0.0
 10
22.066250
 20
6.120694
 30
0.0
 10
22.048611
 20
6.182431
 30
0.0
 10
22.022153
 20
6.235347
 30
0.0
 10
21.933958
 20
6.385278
 30
0.0
 10
21.925139
 20
6.394097
 30
0.0
 10
21.916319
 20
6.411736
 30
0.0
 10
21.872222
 20
6.473472
 30
0.0
 10
21.845764
 20
6.517569
 30
0.0
 10
21.810486
 20
6.552847
 30
0.0
 10
21.687014
 20
6.676319
 30
0.0
 10
21.678194
 20
6.685139
 30
0.0
 10
21.660556
 20
6.702778
 30
0.0
 10
21.590000
 20
6.755694
 30
0.0
 10
21.545903
 20
6.790972
 30
0.0
 10
21.492986
 20
6.817431
 30
0.0
 10
21.343056
 20
6.896806
 30
0.0
 10
21.334236
 20
6.905625
 30
0.0
 10
21.316597
 20
6.905625
 30
0.0
 10
21.237222
 20
6.940903
 30
0.0
 10
21.210764
 20
6.958542
 30
0.0
 10
21.184306
 20
6.958542
 30
0.0
 10
21.025556
 20
7.002639
 30
0.0
 10
20.999097
 20
7.011458
 30
0.0
 10
20.963819
 20
7.020278
 30
0.0
 10
20.884444
 20
7.029097
 30
0.0
 10
20.849167
 20
7.037917
 30
0.0
 10
20.813889
 20
7.037917
 30
0.0
 10
20.743333
 20
7.037917
 30
0.0
 10
19.817292
 20
7.037917
 30
0.0
 10
18.891250
 20
7.037917
 30
0.0
 10
18.168056
 20
7.037917
 30
0.0
 10
18.168056
 20
7.699375
 30
0.0
 10
18.168056
 20
9.480903
 30
0.0
 10
18.168056
 20
11.244792
 30
0.0
 10
18.168056
 20
13.026319
 30
0.0
 10
18.168056
 20
13.123333
 30
0.0
 10
18.168056
 20
13.176250
 30
0.0
 10
18.159236
 20
13.229167
 30
0.0
 10
18.132778
 20
13.326181
 30
0.0
 10
18.132778
 20
13.352639
 30
0.0
 10
18.123958
 20
13.370278
 30
0.0
 10
18.071042
 20
13.546667
 30
0.0
 10
18.062222
 20
13.581944
 30
0.0
 10
18.035764
 20
13.617222
 30
0.0
 10
18.000486
 20
13.705417
 30
0.0
 10
17.982847
 20
13.740694
 30
0.0
 10
17.956389
 20
13.775972
 30
0.0
 10
17.850556
 20
13.925903
 30
0.0
 10
17.832917
 20
13.943542
 30
0.0
 10
17.824097
 20
13.961181
 30
0.0
 10
17.753542
 20
14.031736
 30
0.0
 10
17.718264
 20
14.075833
 30
0.0
 10
17.674167
 20
14.111111
 30
0.0
 10
17.506597
 20
14.234583
 30
0.0
 10
17.471319
 20
14.261042
 30
0.0
 10
17.436042
 20
14.278681
 30
0.0
 10
17.347847
 20
14.322778
 30
0.0
 10
17.312569
 20
14.340417
 30
0.0
 10
17.277292
 20
14.349236
 30
0.0
 10
17.074444
 20
14.410972
 30
0.0
 10
17.021528
 20
14.428611
 30
0.0
 10
16.977431
 20
14.437431
 30
0.0
 10
16.880417
 20
14.446250
 30
0.0
 10
16.853958
 20
14.446250
 30
0.0
 10
16.818681
 20
14.446250
 30
0.0
 10
16.704028
 20
14.446250
 30
0.0
 10
16.668750
 20
14.446250
 30
0.0
 10
16.642292
 20
14.446250
 30
0.0
  0
LWPOLYLINE
  5
101
100
AcDbEntity
  8
eme
 62
7
100
AcDbPolyline
 90
129
 70
0
 10
11.710254
 20
13.322918
 30
0.0
 10
11.639613
 20
13.313679
 30
0.0
 10
11.574056
 20
13.289126
 30
0.0
 10
11.516004
 20
13.249397
 30
0.0
 10
11.467871
 20
13.194602
 30
0.0
 10
10.234576
 20
11.376738
 30
0.0
 10
9.001277
 20
9.558871
 30
0.0
 10
7.767979
 20
7.741004
 30
0.0
 10
6.534684
 20
5.923140
 30
0.0
 10
5.964375
 20
5.923140
 30
0.0
 10
5.394062
 20
5.923140
 30
0.0
 10
4.823752
 20
5.923140
 30
0.0
 10
4.253440
 20
5.923140
 30
0.0
 10
4.180965
 20
5.914806
 30
0.0
 10
4.115672
 20
5.890287
 30
0.0
 10
4.058669
 20
5.850113
 30
0.0
 10
4.011060
 20
5.794843
 30
0.0
 10
3.298173
 20
4.746897
 30
0.0
 10
2.585286
 20
3.698951
 30
0.0
 10
1.872396
 20
2.651004
 30
0.0
 10
1.159509
 20
1.603058
 30
0.0
 10
1.123051
 20
1.528677
 30
0.0
 10
1.108743
 20
1.448628
 30
0.0
 10
1.116278
 20
1.367374
 30
0.0
 10
1.145311
 20
1.289388
 30
0.0
 10
1.194049
 20
1.222744
 30
0.0
 10
1.258210
 20
1.173520
 30
0.0
 10
1.333646
 20
1.143029
 30
0.0
 10
1.416210
 20
1.132575
 30
0.0
 10
2.410688
 20
1.132575
 30
0.0
 10
3.405167
 20
1.132575
 30
0.0
 10
4.399645
 20
1.132575
 30
0.0
 10
5.394123
 20
1.132575
 30
0.0
 10
5.468855
 20
1.140873
 30
0.0
 10
5.539034
 20
1.165392
 30
0.0
 10
5.600917
 20
1.205576
 30
0.0
 10
5.650759
 20
1.260881
 30
0.0
 10
6.769995
 20
2.907652
 30
0.0
 10
7.889229
 20
4.554427
 30
0.0
 10
9.008465
 20
6.201197
 30
0.0
 10
10.127701
 20
7.847968
 30
0.0
 10
10.127701
 20
6.243969
 30
0.0
 10
10.127701
 20
4.639973
 30
0.0
 10
10.127701
 20
3.035973
 30
0.0
 10
10.127701
 20
1.431974
 30
0.0
 10
10.143122
 20
1.336464
 30
0.0
 10
10.186637
 20
1.253949
 30
0.0
 10
10.254156
 20
1.189160
 30
0.0
 10
10.341574
 20
1.146837
 30
0.0
 10
10.363246
 20
1.140865
 30
0.0
 10
10.384257
 20
1.136352
 30
0.0
 10
10.405339
 20
1.133586
 30
0.0
 10
10.427149
 20
1.132542
 30
0.0
 10
10.500930
 20
1.140633
 30
0.0
 10
10.570945
 20
1.164806
 30
0.0
 10
10.633224
 20
1.204928
 30
0.0
 10
10.683788
 20
1.260899
 30
0.0
 10
11.799458
 20
2.907674
 30
0.0
 10
12.915128
 20
4.554445
 30
0.0
 10
14.030798
 20
6.201219
 30
0.0
 10
15.146468
 20
7.847990
 30
0.0
 10
15.146468
 20
6.243991
 30
0.0
 10
15.146468
 20
4.639991
 30
0.0
 10
15.146468
 20
3.035991
 30
0.0
 10
15.146468
 20
1.431992
 30
0.0
 10
15.154003
 20
1.372485
 30
0.0
 10
15.174910
 20
1.316166
 30
0.0
 10
15.206548
 20
1.264296
 30
0.0
 10
15.246267
 20
1.218131
 30
0.0
 10
15.292442
 20
1.180652
 30
0.0
 10
15.344322
 20
1.153912
 30
0.0
 10
15.400645
 20
1.137901
 30
0.0
 10
15.460134
 20
1.132553
 30
0.0
 10
16.066089
 20
1.132553
 30
0.0
 10
16.672044
 20
1.132553
 30
0.0
 10
17.277998
 20
1.132553
 30
0.0
 10
17.883953
 20
1.132553
 30
0.0
 10
17.958653
 20
1.140887
 30
0.0
 10
18.028836
 20
1.165404
 30
0.0
 10
18.090739
 20
1.205578
 30
0.0
 10
18.140592
 20
1.260848
 30
0.0
 10
18.853479
 20
2.308794
 30
0.0
 10
19.566369
 20
3.356740
 30
0.0
 10
20.279256
 20
4.404683
 30
0.0
 10
20.992146
 20
5.452629
 30
0.0
 10
21.028604
 20
5.527024
 30
0.0
 10
21.042913
 20
5.607066
 30
0.0
 10
21.035377
 20
5.688306
 30
0.0
 10
21.006344
 20
5.766299
 30
0.0
 10
20.957607
 20
5.832936
 30
0.0
 10
20.893446
 20
5.882167
 30
0.0
 10
20.818009
 20
5.912693
 30
0.0
 10
20.735449
 20
5.923147
 30
0.0
 10
19.815824
 20
5.923147
 30
0.0
 10
18.896196
 20
5.923147
 30
0.0
 10
17.976571
 20
5.923147
 30
0.0
 10
17.056946
 20
5.923147
 30
0.0
 10
17.056946
 20
7.698239
 30
0.0
 10
17.056946
 20
9.473331
 30
0.0
 10
17.056946
 20
11.248420
 30
0.0
 10
17.056946
 20
13.023513
 30
0.0
 10
17.041526
 20
13.121249
 30
0.0
 10
16.998011
 20
13.208667
 30
0.0
 10
16.930496
 20
13.278360
 30
0.0
 10
16.843078
 20
13.322927
 30
0.0
 10
16.746199
 20
13.335013
 30
0.0
 10
16.652224
 20
13.315009
 30
0.0
 10
16.568130
 20
13.266893
 30
0.0
 10
16.500888
 20
13.194619
 30
0.0
 10
15.381655
 20
11.551412
 30
0.0
 10
14.262419
 20
9.908207
 30
0.0
 10
13.143186
 20
8.264999
 30
0.0
 10
12.023953
 20
6.621792
 30
0.0
 10
12.023953
 20
8.222224
 30
0.0
 10
12.023953
 20
9.822661
 30
0.0
 10
12.023953
 20
11.423094
 30
0.0
 10
12.023953
 20
13.023527
 30
0.0
 10
12.008532
 20
13.121280
 30
0.0
 10
11.965007
 20
13.208695
 30
0.0
 10
11.897488
 20
13.278381
 30
0.0
 10
11.810088
 20
13.322941
 30
0.0
 10
11.785534
 20
13.327178
 30
0.0
 10
11.760253
 20
13.326879
 30
0.0
 10
11.734935
 20
13.324446
 30
0.0
 10
11.710280
 20
13.322702
 30
0.0
 10
11.710280
 20
13.322716
 30
0.0
 10
11.710276
 20
13.322729
 30
0.0
 10
11.710276
 20
13.322743
 30
0.0
 10
11.710254
 20
13.322918
 30
0.0
  0
ENDSEC
  0
SECTION
  2
OBJECTS
  0
DICTIONARY
  5
C
330
0
100
AcDbDictionary
  3
ACAD_GROUP
350
D
  3
ACAD_MLINESTYLE
350
17
  0
DICTIONARY
  5
D
330
C
100
AcDbDictionary
  0
DICTIONARY
  5
1A
330
C
100
AcDbDictionary
  0
DICTIONARY
  5
17
330
C
100
AcDbDictionary
  3
STANDARD
350
18
  0
DICTIONARY
  5
19
330
C
100
AcDbDictionary
  0
ENDSEC
  0
EOF
