<?xml version="1.0" encoding="UTF-8" standalone="no"?>
<!-- Created with Inkscape (http://www.inkscape.org/) -->

<svg
   xmlns:dc="http://purl.org/dc/elements/1.1/"
   xmlns:cc="http://creativecommons.org/ns#"
   xmlns:rdf="http://www.w3.org/1999/02/22-rdf-syntax-ns#"
   xmlns:svg="http://www.w3.org/2000/svg"
   xmlns="http://www.w3.org/2000/svg"
   xmlns:sodipodi="http://sodipodi.sourceforge.net/DTD/sodipodi-0.dtd"
   xmlns:inkscape="http://www.inkscape.org/namespaces/inkscape"
   width="70.866142"
   height="43.325916"
   id="svg3086"
   version="1.1"
   inkscape:version="0.48+devel r11513 custom"
   sodipodi:docname="Novo documento 9">
  <defs
     id="defs3088" />
  <sodipodi:namedview
     id="base"
     pagecolor="#ffffff"
     bordercolor="#666666"
     borderopacity="1.0"
     inkscape:pageopacity="0.0"
     inkscape:pageshadow="2"
     inkscape:zoom="5.7611867"
     inkscape:cx="34.521955"
     inkscape:cy="23.510974"
     inkscape:document-units="px"
     inkscape:current-layer="layer1"
     showgrid="false"
     width="0px"
     height="0px"
     fit-margin-top="0"
     fit-margin-left="0"
     fit-margin-right="0"
     fit-margin-bottom="0"
     units="mm"
     inkscape:window-width="1024"
     inkscape:window-height="531"
     inkscape:window-x="0"
     inkscape:window-y="0"
     inkscape:window-maximized="1" />
  <metadata
     id="metadata3091">
    <rdf:RDF>
      <cc:Work
         rdf:about="">
        <dc:format>image/svg+xml</dc:format>
        <dc:type
           rdf:resource="http://purl.org/dc/dcmitype/StillImage" />
        <dc:title></dc:title>
      </cc:Work>
    </rdf:RDF>
  </metadata>
  <g
     inkscape:label="Camada 1"
     inkscape:groupmode="layer"
     id="layer1"
     transform="translate(-787.92569,-321.26316)">
    <path
       id="path3665"
       style="fill:#808080;fill-opacity:1;stroke:none"
       d="M 791.05862,362.42261 793.9433,362.42261 796.82798,362.42261 799.71267,362.42261 802.59735,362.42261 806.98675,355.97086 811.37615,349.51911 815.76555,343.06736 820.15495,336.61561 820.39392,336.36344 820.69267,336.20257 821.02646,336.14162 821.37053,336.18916 821.68222,336.34305 821.9241,336.58091 822.08061,336.88171 822.13624,337.2244 822.13624,342.91455 822.13624,348.60469 822.13624,354.29484 822.13624,359.98499 826.11157,354.14265 830.0869,348.3003 834.06222,342.45795 838.03755,336.61561 838.2764,336.36359 838.57506,336.20275 838.90886,336.14172 839.25315,336.18916 839.56481,336.34305 839.80663,336.58091 839.96309,336.88171 840.01869,337.2244 840.01869,343.52376 840.01869,349.82312 840.01869,356.12249 840.01869,362.42185 841.76713,362.42082 843.51557,362.41979 845.26401,362.41876 847.01245,362.41773 849.17415,359.24117 851.33585,356.06461 853.49755,352.88804 855.65925,349.71148 852.63103,349.71148 849.60282,349.71148 846.57461,349.71148 843.54639,349.71148 843.3338,349.69047 843.13131,349.629 842.94463,349.52944 842.77945,349.39416 842.64406,349.2292 842.54445,349.04279 842.48297,348.84058 842.46196,348.62824 842.46203,342.93798 842.46211,337.24771 842.46218,331.55745 842.46225,325.86719 838.48704,331.70969 834.51183,337.55219 830.53662,343.39469 826.56141,349.23719 826.32252,349.48943 826.02377,349.65028 825.68991,349.71121 825.34567,349.66364 825.03409,349.50975 824.79232,349.27191 824.63587,348.97116 824.58027,348.62855 824.58027,342.93825 824.58027,337.24795 824.58027,331.55764 824.58027,325.86734 820.60532,331.7098 816.63037,337.55227 812.65543,343.39473 808.68048,349.23719 808.50591,349.43639 808.29143,349.58555 808.04745,349.67913 807.7844,349.71163 805.76458,349.71289 803.74477,349.71415 801.72495,349.71542 799.70513,349.71668 797.5435,352.89317 795.38188,356.06965 793.22025,359.24614 791.05862,362.42263 791.05862,362.42263 791.05862,362.42262 791.05862,362.42261 z M 821.05179,364.58908 820.97197,364.58612 820.892,364.5772 820.81221,364.56226 820.7329,364.54124 820.42132,364.38735 820.17954,364.14951 820.0231,363.84876 819.9675,363.50615 819.9675,357.816 819.9675,352.12585 819.9675,346.43571 819.9675,340.74556 815.9927,346.58783 812.01791,352.4301 808.04311,358.27237 804.06832,364.11464 803.89352,364.31393 803.67883,364.46312 803.43467,364.55667 803.17148,364.58908 799.63115,364.58908 796.09082,364.58908 792.55048,364.58908 789.01015,364.58908 788.71737,364.54889 788.45078,364.43386 788.22425,364.25235 788.05163,364.01269 787.95025,363.73554 787.92734,363.44637 787.98196,363.16141 788.11315,362.8969 790.64332,359.17891 793.1735,355.46092 795.70367,351.74294 798.23385,348.02495 798.40851,347.82583 798.62301,347.6767 798.86696,347.58309 799.12993,347.5505 801.14967,347.54924 803.16941,347.54797 805.18915,347.54671 807.20889,347.54545 811.59856,341.09347 815.98823,334.64148 820.37789,328.1895 824.76756,321.73752 825.00658,321.48533 825.30542,321.32443 825.63927,321.26347 825.9833,321.31108 826.29491,321.46497 826.53674,321.70283 826.69324,322.00362 826.74886,322.34632 826.74886,328.03662 826.74886,333.72692 826.74886,339.41722 826.74886,345.10752 830.72408,339.26502 834.69929,333.42252 838.6745,327.58002 842.64972,321.73752 842.88865,321.48548 843.18735,321.32461 843.52117,321.26358 843.86546,321.31108 844.17706,321.46499 844.41888,321.70288 844.57538,322.00369 844.631,322.34632 844.63093,328.64595 844.63085,334.94558 844.63078,341.24521 844.63071,347.54484 847.89989,347.54484 851.16908,347.54484 854.43826,347.54484 857.70744,347.54484 858.00019,347.58503 858.26671,347.70006 858.49319,347.88157 858.66579,348.12123 858.76725,348.39851 858.79018,348.68767 858.73554,348.97255 858.60426,349.23702 856.07405,352.95508 853.54384,356.67315 851.01364,360.39121 848.48343,364.10928 848.30879,364.3084 848.09433,364.45752 847.85043,364.55113 847.58747,364.58372 845.42436,364.58505 843.26124,364.58639 841.09812,364.58773 838.93501,364.58906 838.93482,364.58906 838.93475,364.58906 838.93481,364.58906 838.93501,364.58906 838.72252,364.56807 838.52013,364.50667 838.33353,364.40721 838.1684,364.27205 838.03293,364.10704 837.9332,363.92052 837.87161,363.71821 837.85055,363.50582 837.85055,357.81567 837.85055,352.12553 837.85055,346.43538 837.85055,340.74523 833.87522,346.58758 829.8999,352.42993 825.92457,358.27227 821.94925,364.11462 821.77198,364.3163 821.55593,364.46521 821.31236,364.55744 821.05255,364.58906 821.05236,364.58906 821.05217,364.58907 821.05198,364.58908 z"
       inkscape:connector-curvature="0"
       sodipodi:nodetypes="cccccccccccccccccccccccccccccccccccccccccccccccccccccccccccccccccccccccccccccccccccccccccccccccccccccccccccccccccccccccccccccccccccccccccccccccccccccccccccccccccccccccccccccccccccccccccccccccccccccccccccccccccccccccccccccccccc" />
  </g>
</svg>
