  0
SECTION
  2
HEADER
  9
$ACADVER
  1
AC1014
  9
$HANDSEED
  5
FFFF
  9
$MEASUREMENT
 70
     1
  0
ENDSEC
  0
SECTION
  2
TABLES
  0
TABLE
  2
VPORT
  5
8
330
0
100
AcDbSymbolTable
 70
     4
  0
VPORT
  5
2E
330
8
100
AcDbSymbolTableRecord
100
AcDbViewportTableRecord
  2
*ACTIVE
 70
     0
 10
0.0
 20
0.0
 11
1.0
 21
1.0
 12
210.0
 22
148.5
 13
0.0
 23
0.0
 14
10.0
 24
10.0
 15
10.0
 25
10.0
 16
0.0
 26
0.0
 36
1.0
 17
0.0
 27
0.0
 37
0.0
 40
341.0
 41
1.24
 42
50.0
 43
0.0
 44
0.0
 50
0.0
 51
0.0
 71
     0
 72
   100
 73
     1
 74
     3
 75
     0
 76
     0
 77
     0
 78
     0
  0
ENDTAB
  0
TABLE
  2
LTYPE
  5
5
330
0
100
AcDbSymbolTable
 70
     1
  0
LTYPE
  5
14
330
5
100
AcDbSymbolTableRecord
100
AcDbLinetypeTableRecord
  2
BYBLOCK
 70
     0
  3

 72
    65
 73
     0
 40
0.0
  0
LTYPE
  5
15
330
5
100
AcDbSymbolTableRecord
100
AcDbLinetypeTableRecord
  2
BYLAYER
 70
     0
  3

 72
    65
 73
     0
 40
0.0
  0
LTYPE
  5
16
330
5
100
AcDbSymbolTableRecord
100
AcDbLinetypeTableRecord
  2
CONTINUOUS
 70
     0
  3
Solid line
 72
    65
 73
     0
 40
0.0
  0
ENDTAB
  0
TABLE
  2
LAYER
  5
2
100
AcDbSymbolTable
 70
2
  0
LAYER
  5
50
100
AcDbSymbolTableRecord
100
AcDbLayerTableRecord
  2
0
 70
0
  6
CONTINUOUS
  0
LAYER
  5
51
100
AcDbSymbolTableRecord
100
AcDbLayerTableRecord
  2
Camada_1
 70
0
  6
CONTINUOUS
  0
ENDTAB
  0
TABLE
  2
STYLE
  5
3
330
0
100
AcDbSymbolTable
 70
     1
  0
STYLE
  5
11
330
3
100
AcDbSymbolTableRecord
100
AcDbTextStyleTableRecord
  2
STANDARD
 70
     0
 40
0.0
 41
1.0
 50
0.0
 71
     0
 42
2.5
  3
txt
  4

  0
ENDTAB
  0
TABLE
  2
VIEW
  5
6
330
0
100
AcDbSymbolTable
 70
     0
  0
ENDTAB
  0
TABLE
  2
UCS
  5
7
330
0
100
AcDbSymbolTable
 70
     0
  0
ENDTAB
  0
TABLE
  2
APPID
  5
9
330
0
100
AcDbSymbolTable
 70
     2
  0
APPID
  5
12
330
9
100
AcDbSymbolTableRecord
100
AcDbRegAppTableRecord
  2
ACAD
 70
     0
  0
ENDTAB
  0
TABLE
  2
DIMSTYLE
  5
A
330
0
100
AcDbSymbolTable
 70
     1
  0
DIMSTYLE
105
27
330
A
100
AcDbSymbolTableRecord
100
AcDbDimStyleTableRecord
  2
ISO-25
 70
     0
  3

  4

  5

  6

  7

 40
1.0
 41
2.5
 42
0.625
 43
3.75
 44
1.25
 45
0.0
 46
0.0
 47
0.0
 48
0.0
140
2.5
141
2.5
142
0.0
143
0.03937007874016
144
1.0
145
0.0
146
1.0
147
0.625
 71
     0
 72
     0
 73
     0
 74
     0
 75
     0
 76
     0
 77
     1
 78
     8
170
     0
171
     3
172
     1
173
     0
174
     0
175
     0
176
     0
177
     0
178
     0
270
     2
271
     2
272
     2
273
     2
274
     3
340
11
275
     0
280
     0
281
     0
282
     0
283
     0
284
     8
285
     0
286
     0
287
     3
288
     0
  0
ENDTAB
  0
TABLE
  2
BLOCK_RECORD
  5
1
330
0
100
AcDbSymbolTable
 70
     1
  0
BLOCK_RECORD
  5
1F
330
1
100
AcDbSymbolTableRecord
100
AcDbBlockTableRecord
  2
*MODEL_SPACE
  0
BLOCK_RECORD
  5
1B
330
1
100
AcDbSymbolTableRecord
100
AcDbBlockTableRecord
  2
*PAPER_SPACE
  0
ENDTAB
  0
ENDSEC
  0
SECTION
  2
BLOCKS
  0
BLOCK
  5
20
330
1F
100
AcDbEntity
  8
0
100
AcDbBlockBegin
  2
*MODEL_SPACE
 70
     0
 10
0.0
 20
0.0
 30
0.0
  3
*MODEL_SPACE
  1

  0
ENDBLK
  5
21
330
1F
100
AcDbEntity
  8
0
100
AcDbBlockEnd
  0
BLOCK
  5
1C
330
1B
100
AcDbEntity
 67
     1
  8
0
100
AcDbBlockBegin
  2
*PAPER_SPACE
  1

  0
ENDBLK
  5
1D
330
1B
100
AcDbEntity
 67
     1
  8
0
100
AcDbBlockEnd
  0
ENDSEC
  0
SECTION
  2
ENTITIES
  0
LWPOLYLINE
  5
100
100
AcDbEntity
  8
Camada_1
 62
7
100
AcDbPolyline
 90
97
 70
0
 10
0.884182
 20
0.611425
 30
0.0
 10
1.698303
 20
0.611425
 30
0.0
 10
2.512424
 20
0.611425
 30
0.0
 10
3.326548
 20
0.611425
 30
0.0
 10
4.140668
 20
0.611425
 30
0.0
 10
5.379455
 20
2.432252
 30
0.0
 10
6.618241
 20
4.253079
 30
0.0
 10
7.857027
 20
6.073907
 30
0.0
 10
9.095813
 20
7.894734
 30
0.0
 10
9.163256
 20
7.965902
 30
0.0
 10
9.247570
 20
8.011303
 30
0.0
 10
9.341773
 20
8.028504
 30
0.0
 10
9.438877
 20
8.015087
 30
0.0
 10
9.526843
 20
7.971656
 30
0.0
 10
9.595107
 20
7.904527
 30
0.0
 10
9.639277
 20
7.819634
 30
0.0
 10
9.654977
 20
7.722920
 30
0.0
 10
9.654977
 20
6.117033
 30
0.0
 10
9.654977
 20
4.511149
 30
0.0
 10
9.654977
 20
2.905262
 30
0.0
 10
9.654977
 20
1.299375
 30
0.0
 10
10.776904
 20
2.948214
 30
0.0
 10
11.898830
 20
4.597055
 30
0.0
 10
13.020754
 20
6.245896
 30
0.0
 10
14.142680
 20
7.894734
 30
0.0
 10
14.210089
 20
7.965859
 30
0.0
 10
14.294378
 20
8.011252
 30
0.0
 10
14.388584
 20
8.028476
 30
0.0
 10
14.485750
 20
8.015087
 30
0.0
 10
14.573707
 20
7.971656
 30
0.0
 10
14.641954
 20
7.904527
 30
0.0
 10
14.686111
 20
7.819634
 30
0.0
 10
14.701802
 20
7.722920
 30
0.0
 10
14.701802
 20
5.945100
 30
0.0
 10
14.701802
 20
4.167281
 30
0.0
 10
14.701802
 20
2.389459
 30
0.0
 10
14.701802
 20
0.611639
 30
0.0
 10
15.195251
 20
0.611930
 30
0.0
 10
15.688699
 20
0.612221
 30
0.0
 10
16.182148
 20
0.612511
 30
0.0
 10
16.675597
 20
0.612802
 30
0.0
 10
17.285676
 20
1.509298
 30
0.0
 10
17.895756
 20
2.405794
 30
0.0
 10
18.505836
 20
3.302292
 30
0.0
 10
19.115916
 20
4.198788
 30
0.0
 10
18.261285
 20
4.198788
 30
0.0
 10
17.406657
 20
4.198788
 30
0.0
 10
16.552029
 20
4.198788
 30
0.0
 10
15.697398
 20
4.198788
 30
0.0
 10
15.637400
 20
4.204718
 30
0.0
 10
15.580253
 20
4.222066
 30
0.0
 10
15.527568
 20
4.250164
 30
0.0
 10
15.480950
 20
4.288343
 30
0.0
 10
15.442740
 20
4.334898
 30
0.0
 10
15.414628
 20
4.387507
 30
0.0
 10
15.397277
 20
4.444576
 30
0.0
 10
15.391347
 20
4.504503
 30
0.0
 10
15.391367
 20
6.110420
 30
0.0
 10
15.391390
 20
7.716341
 30
0.0
 10
15.391409
 20
9.322259
 30
0.0
 10
15.391429
 20
10.928177
 30
0.0
 10
14.269537
 20
9.279293
 30
0.0
 10
13.147644
 20
7.630410
 30
0.0
 10
12.025751
 20
5.981527
 30
0.0
 10
10.903859
 20
4.332643
 30
0.0
 10
10.836439
 20
4.261456
 30
0.0
 10
10.752125
 20
4.216060
 30
0.0
 10
10.657902
 20
4.198864
 30
0.0
 10
10.560750
 20
4.212290
 30
0.0
 10
10.472815
 20
4.255721
 30
0.0
 10
10.404582
 20
4.322845
 30
0.0
 10
10.360429
 20
4.407723
 30
0.0
 10
10.344737
 20
4.504415
 30
0.0
 10
10.344737
 20
6.110344
 30
0.0
 10
10.344737
 20
7.716273
 30
0.0
 10
10.344737
 20
9.322205
 30
0.0
 10
10.344737
 20
10.928134
 30
0.0
 10
9.222918
 20
9.279262
 30
0.0
 10
8.101099
 20
7.630387
 30
0.0
 10
6.979282
 20
5.981515
 30
0.0
 10
5.857463
 20
4.332643
 30
0.0
 10
5.808195
 20
4.276425
 30
0.0
 10
5.747664
 20
4.234328
 30
0.0
 10
5.678808
 20
4.207918
 30
0.0
 10
5.604569
 20
4.198746
 30
0.0
 10
5.034531
 20
4.198390
 30
0.0
 10
4.464496
 20
4.198035
 30
0.0
 10
3.894458
 20
4.197676
 30
0.0
 10
3.324420
 20
4.197321
 30
0.0
 10
2.714360
 20
3.300845
 30
0.0
 10
2.104303
 20
2.404371
 30
0.0
 10
1.494242
 20
1.507895
 30
0.0
 10
0.884182
 20
0.611419
 30
0.0
 10
0.884182
 20
0.611419
 30
0.0
 10
0.884182
 20
0.611422
 30
0.0
 10
0.884182
 20
0.611425
 30
0.0
 10
0.884182
 20
0.611425
 30
0.0
  0
LWPOLYLINE
  5
101
100
AcDbEntity
  8
Camada_1
 62
7
100
AcDbPolyline
 90
129
 70
0
 10
9.348922
 20
-0.000001
 30
0.0
 10
9.326395
 20
0.000834
 30
0.0
 10
9.303825
 20
0.003352
 30
0.0
 10
9.281307
 20
0.007568
 30
0.0
 10
9.258924
 20
0.013500
 30
0.0
 10
9.170989
 20
0.056932
 30
0.0
 10
9.102753
 20
0.124055
 30
0.0
 10
9.058602
 20
0.208934
 30
0.0
 10
9.042911
 20
0.305626
 30
0.0
 10
9.042911
 20
1.911513
 30
0.0
 10
9.042911
 20
3.517399
 30
0.0
 10
9.042911
 20
5.123283
 30
0.0
 10
9.042911
 20
6.729170
 30
0.0
 10
7.921134
 20
5.080352
 30
0.0
 10
6.799360
 20
3.431533
 30
0.0
 10
5.677583
 20
1.782715
 30
0.0
 10
4.555809
 20
0.133896
 30
0.0
 10
4.506476
 20
0.077652
 30
0.0
 10
4.445886
 20
0.035548
 30
0.0
 10
4.376979
 20
0.009146
 30
0.0
 10
4.302701
 20
-0.000001
 30
0.0
 10
3.303541
 20
-0.000001
 30
0.0
 10
2.304381
 20
-0.000001
 30
0.0
 10
1.305219
 20
-0.000001
 30
0.0
 10
0.306059
 20
-0.000001
 30
0.0
 10
0.223430
 20
0.011341
 30
0.0
 10
0.148192
 20
0.043805
 30
0.0
 10
0.084260
 20
0.095032
 30
0.0
 10
0.035543
 20
0.162669
 30
0.0
 10
0.006931
 20
0.240887
 30
0.0
 10
0.000466
 20
0.322497
 30
0.0
 10
0.015881
 20
0.402919
 30
0.0
 10
0.052905
 20
0.477570
 30
0.0
 10
0.766976
 20
1.526869
 30
0.0
 10
1.481049
 20
2.576168
 30
0.0
 10
2.195119
 20
3.625465
 30
0.0
 10
2.909192
 20
4.674764
 30
0.0
 10
2.958485
 20
4.730961
 30
0.0
 10
3.019021
 20
4.773048
 30
0.0
 10
3.087870
 20
4.799467
 30
0.0
 10
3.162086
 20
4.808665
 30
0.0
 10
3.732101
 20
4.809020
 30
0.0
 10
4.302117
 20
4.809379
 30
0.0
 10
4.872132
 20
4.809734
 30
0.0
 10
5.442148
 20
4.810090
 30
0.0
 10
6.681010
 20
6.630982
 30
0.0
 10
7.919872
 20
8.451877
 30
0.0
 10
9.158732
 20
10.272769
 30
0.0
 10
10.397594
 20
12.093661
 30
0.0
 10
10.465051
 20
12.164835
 30
0.0
 10
10.549390
 20
12.210245
 30
0.0
 10
10.643610
 20
12.227449
 30
0.0
 10
10.740703
 20
12.214012
 30
0.0
 10
10.828647
 20
12.170581
 30
0.0
 10
10.896896
 20
12.103452
 30
0.0
 10
10.941064
 20
12.018562
 30
0.0
 10
10.956761
 20
11.921844
 30
0.0
 10
10.956761
 20
10.315915
 30
0.0
 10
10.956761
 20
8.709986
 30
0.0
 10
10.956761
 20
7.104057
 30
0.0
 10
10.956761
 20
5.498128
 30
0.0
 10
12.078657
 20
7.147011
 30
0.0
 10
13.200549
 20
8.795895
 30
0.0
 10
14.322442
 20
10.444778
 30
0.0
 10
15.444337
 20
12.093661
 30
0.0
 10
15.511769
 20
12.164793
 30
0.0
 10
15.596068
 20
12.210194
 30
0.0
 10
15.690280
 20
12.227418
 30
0.0
 10
15.787446
 20
12.214012
 30
0.0
 10
15.875387
 20
12.170575
 30
0.0
 10
15.943634
 20
12.103438
 30
0.0
 10
15.987801
 20
12.018542
 30
0.0
 10
16.003499
 20
11.921844
 30
0.0
 10
16.003479
 20
10.143949
 30
0.0
 10
16.003456
 20
8.366053
 30
0.0
 10
16.003437
 20
6.588158
 30
0.0
 10
16.003417
 20
4.810262
 30
0.0
 10
16.926052
 20
4.810262
 30
0.0
 10
17.848690
 20
4.810262
 30
0.0
 10
18.771325
 20
4.810262
 30
0.0
 10
19.693961
 20
4.810262
 30
0.0
 10
19.776581
 20
4.798920
 30
0.0
 10
19.851799
 20
4.766456
 30
0.0
 10
19.915717
 20
4.715229
 30
0.0
 10
19.964428
 20
4.647592
 30
0.0
 10
19.993062
 20
4.569338
 30
0.0
 10
19.999534
 20
4.487730
 30
0.0
 10
19.984113
 20
4.407331
 30
0.0
 10
19.947063
 20
4.332691
 30
0.0
 10
19.232982
 20
3.283372
 30
0.0
 10
18.518900
 20
2.234050
 30
0.0
 10
17.804821
 20
1.184731
 30
0.0
 10
17.090740
 20
0.135409
 30
0.0
 10
17.041453
 20
0.079213
 30
0.0
 10
16.980927
 20
0.037128
 30
0.0
 10
16.912093
 20
0.010709
 30
0.0
 10
16.837880
 20
0.001512
 30
0.0
 10
16.227402
 20
0.001136
 30
0.0
 10
15.616922
 20
0.000758
 30
0.0
 10
15.006441
 20
0.000380
 30
0.0
 10
14.395964
 20
0.000005
 30
0.0
 10
14.395910
 20
0.000005
 30
0.0
 10
14.395890
 20
0.000005
 30
0.0
 10
14.395907
 20
0.000005
 30
0.0
 10
14.395964
 20
0.000005
 30
0.0
 10
14.335994
 20
0.005928
 30
0.0
 10
14.278875
 20
0.023257
 30
0.0
 10
14.226213
 20
0.051327
 30
0.0
 10
14.179609
 20
0.089472
 30
0.0
 10
14.141377
 20
0.136041
 30
0.0
 10
14.113231
 20
0.188681
 30
0.0
 10
14.095849
 20
0.245778
 30
0.0
 10
14.089905
 20
0.305719
 30
0.0
 10
14.089905
 20
1.911606
 30
0.0
 10
14.089905
 20
3.517490
 30
0.0
 10
14.089905
 20
5.123376
 30
0.0
 10
14.089905
 20
6.729263
 30
0.0
 10
12.967978
 20
5.080422
 30
0.0
 10
11.846055
 20
3.431581
 30
0.0
 10
10.724128
 20
1.782743
 30
0.0
 10
9.602205
 20
0.133902
 30
0.0
 10
9.552175
 20
0.076983
 30
0.0
 10
9.491201
 20
0.034958
 30
0.0
 10
9.422460
 20
0.008928
 30
0.0
 10
9.349136
 20
0.000005
 30
0.0
 10
9.349082
 20
0.000005
 30
0.0
 10
9.349029
 20
0.000002
 30
0.0
 10
9.348975
 20
-0.000001
 30
0.0
 10
9.348922
 20
-0.000001
 30
0.0
  0
ENDSEC
  0
SECTION
  2
OBJECTS
  0
DICTIONARY
  5
C
330
0
100
AcDbDictionary
  3
ACAD_GROUP
350
D
  3
ACAD_MLINESTYLE
350
17
  0
DICTIONARY
  5
D
330
C
100
AcDbDictionary
  0
DICTIONARY
  5
1A
330
C
100
AcDbDictionary
  0
DICTIONARY
  5
17
330
C
100
AcDbDictionary
  3
STANDARD
350
18
  0
DICTIONARY
  5
19
330
C
100
AcDbDictionary
  0
ENDSEC
  0
EOF
