999
DXF created by Inkscape
  0
SECTION
  2
HEADER
  9
$ACADVER
  1
AC1014
  9
$HANDSEED
  5
FFFF
  9
$MEASUREMENT
 70
     1
  0
ENDSEC
  0
SECTION
  2
TABLES
  0
TABLE
  2
VPORT
  5
8
330
0
100
AcDbSymbolTable
 70
     4
  0
VPORT
  5
2E
330
8
100
AcDbSymbolTableRecord
100
AcDbViewportTableRecord
  2
*ACTIVE
 70
     0
 10
0.0
 20
0.0
 11
1.0
 21
1.0
 12
210.0
 22
148.5
 13
0.0
 23
0.0
 14
10.0
 24
10.0
 15
10.0
 25
10.0
 16
0.0
 26
0.0
 36
1.0
 17
0.0
 27
0.0
 37
0.0
 40
341.0
 41
1.24
 42
50.0
 43
0.0
 44
0.0
 50
0.0
 51
0.0
 71
     0
 72
   100
 73
     1
 74
     3
 75
     0
 76
     0
 77
     0
 78
     0
  0
ENDTAB
  0
TABLE
  2
LTYPE
  5
5
330
0
100
AcDbSymbolTable
 70
     1
  0
LTYPE
  5
14
330
5
100
AcDbSymbolTableRecord
100
AcDbLinetypeTableRecord
  2
BYBLOCK
 70
     0
  3

 72
    65
 73
     0
 40
0.0
  0
LTYPE
  5
15
330
5
100
AcDbSymbolTableRecord
100
AcDbLinetypeTableRecord
  2
BYLAYER
 70
     0
  3

 72
    65
 73
     0
 40
0.0
  0
LTYPE
  5
16
330
5
100
AcDbSymbolTableRecord
100
AcDbLinetypeTableRecord
  2
CONTINUOUS
 70
     0
  3
Solid line
 72
    65
 73
     0
 40
0.0
  0
ENDTAB
  0
TABLE
  2
LAYER
  5
2
100
AcDbSymbolTable
 70
2
  0
LAYER
  5
50
100
AcDbSymbolTableRecord
100
AcDbLayerTableRecord
  2
0
 70
0
  6
CONTINUOUS
  0
LAYER
  5
51
100
AcDbSymbolTableRecord
100
AcDbLayerTableRecord
  2
Layer_1
 70
0
  6
CONTINUOUS
  0
ENDTAB
  0
TABLE
  2
STYLE
  5
3
330
0
100
AcDbSymbolTable
 70
     1
  0
STYLE
  5
11
330
3
100
AcDbSymbolTableRecord
100
AcDbTextStyleTableRecord
  2
STANDARD
 70
     0
 40
0.0
 41
1.0
 50
0.0
 71
     0
 42
2.5
  3
txt
  4

  0
ENDTAB
  0
TABLE
  2
VIEW
  5
6
330
0
100
AcDbSymbolTable
 70
     0
  0
ENDTAB
  0
TABLE
  2
UCS
  5
7
330
0
100
AcDbSymbolTable
 70
     0
  0
ENDTAB
  0
TABLE
  2
APPID
  5
9
330
0
100
AcDbSymbolTable
 70
     2
  0
APPID
  5
12
330
9
100
AcDbSymbolTableRecord
100
AcDbRegAppTableRecord
  2
ACAD
 70
     0
  0
ENDTAB
  0
TABLE
  2
DIMSTYLE
  5
A
330
0
100
AcDbSymbolTable
 70
     1
  0
DIMSTYLE
105
27
330
A
100
AcDbSymbolTableRecord
100
AcDbDimStyleTableRecord
  2
ISO-25
 70
     0
  3

  4

  5

  6

  7

 40
1.0
 41
2.5
 42
0.625
 43
3.75
 44
1.25
 45
0.0
 46
0.0
 47
0.0
 48
0.0
140
2.5
141
2.5
142
0.0
143
0.03937007874016
144
1.0
145
0.0
146
1.0
147
0.625
 71
     0
 72
     0
 73
     0
 74
     0
 75
     0
 76
     0
 77
     1
 78
     8
170
     0
171
     3
172
     1
173
     0
174
     0
175
     0
176
     0
177
     0
178
     0
270
     2
271
     2
272
     2
273
     2
274
     3
340
11
275
     0
280
     0
281
     0
282
     0
283
     0
284
     8
285
     0
286
     0
287
     3
288
     0
  0
ENDTAB
  0
TABLE
  2
BLOCK_RECORD
  5
1
330
0
100
AcDbSymbolTable
 70
     1
  0
BLOCK_RECORD
  5
1F
330
1
100
AcDbSymbolTableRecord
100
AcDbBlockTableRecord
  2
*MODEL_SPACE
  0
BLOCK_RECORD
  5
1B
330
1
100
AcDbSymbolTableRecord
100
AcDbBlockTableRecord
  2
*PAPER_SPACE
  0
ENDTAB
  0
ENDSEC
  0
SECTION
  2
BLOCKS
  0
BLOCK
  5
20
330
1F
100
AcDbEntity
  8
0
100
AcDbBlockBegin
  2
*MODEL_SPACE
 70
     0
 10
0.0
 20
0.0
 30
0.0
  3
*MODEL_SPACE
  1

  0
ENDBLK
  5
21
330
1F
100
AcDbEntity
  8
0
100
AcDbBlockEnd
  0
BLOCK
  5
1C
330
1B
100
AcDbEntity
 67
     1
  8
0
100
AcDbBlockBegin
  2
*PAPER_SPACE
  1

  0
ENDBLK
  5
1D
330
1B
100
AcDbEntity
 67
     1
  8
0
100
AcDbBlockEnd
  0
ENDSEC
  0
SECTION
  2
ENTITIES
  0
LWPOLYLINE
  5
100
100
AcDbEntity
  8
Layer_1
 62
7
100
AcDbPolyline
 90
161
 70
0
 10
12.987508
 20
4.565561
 30
0.0
 10
12.979860
 20
4.566408
 30
0.0
 10
12.968740
 20
4.568948
 30
0.0
 10
12.954178
 20
4.573266
 30
0.0
 10
12.936172
 20
4.579306
 30
0.0
 10
12.914695
 20
4.587095
 30
0.0
 10
12.889775
 20
4.596606
 30
0.0
 10
12.861389
 20
4.607838
 30
0.0
 10
12.829548
 20
4.620792
 30
0.0
 10
12.796472
 20
4.633746
 30
0.0
 10
12.760432
 20
4.644979
 30
0.0
 10
12.721429
 20
4.654490
 30
0.0
 10
12.679468
 20
4.662251
 30
0.0
 10
12.634541
 20
4.668290
 30
0.0
 10
12.586657
 20
4.672608
 30
0.0
 10
12.535806
 20
4.675148
 30
0.0
 10
12.481997
 20
4.675995
 30
0.0
 10
12.402761
 20
4.673737
 30
0.0
 10
12.323030
 20
4.666710
 30
0.0
 10
12.242806
 20
4.654969
 30
0.0
 10
12.162087
 20
4.638544
 30
0.0
 10
12.080878
 20
4.617434
 30
0.0
 10
11.999174
 20
4.591639
 30
0.0
 10
11.916977
 20
4.561156
 30
0.0
 10
11.834286
 20
4.525983
 30
0.0
 10
11.751841
 20
4.488461
 30
0.0
 10
11.670383
 20
4.446991
 30
0.0
 10
11.589913
 20
4.401571
 30
0.0
 10
11.510431
 20
4.352204
 30
0.0
 10
11.431936
 20
4.298887
 30
0.0
 10
11.354429
 20
4.241618
 30
0.0
 10
11.277908
 20
4.180404
 30
0.0
 10
11.202376
 20
4.115239
 30
0.0
 10
11.128942
 20
4.045135
 30
0.0
 10
11.058714
 20
3.969107
 30
0.0
 10
10.991698
 20
3.887156
 30
0.0
 10
10.927890
 20
3.799280
 30
0.0
 10
10.867288
 20
3.705481
 30
0.0
 10
10.809899
 20
3.605757
 30
0.0
 10
10.755717
 20
3.500113
 30
0.0
 10
10.704745
 20
3.388542
 30
0.0
 10
10.660312
 20
3.272402
 30
0.0
 10
10.621806
 20
3.153056
 30
0.0
 10
10.589223
 20
3.030498
 30
0.0
 10
10.562553
 20
2.904732
 30
0.0
 10
10.541810
 20
2.775759
 30
0.0
 10
10.526993
 20
2.643574
 30
0.0
 10
10.518103
 20
2.508184
 30
0.0
 10
10.515140
 20
2.369585
 30
0.0
 10
10.515388
 20
2.355643
 30
0.0
 10
10.516235
 20
2.333545
 30
0.0
 10
10.517364
 20
2.303308
 30
0.0
 10
10.519057
 20
2.264923
 30
0.0
 10
10.521315
 20
2.218393
 30
0.0
 10
10.524137
 20
2.163718
 30
0.0
 10
10.527355
 20
2.100898
 30
0.0
 10
10.531052
 20
2.029933
 30
0.0
 10
10.656940
 20
2.255790
 30
0.0
 10
10.793688
 20
2.451533
 30
0.0
 10
10.941298
 20
2.617164
 30
0.0
 10
11.099772
 20
2.752679
 30
0.0
 10
11.269102
 20
2.858080
 30
0.0
 10
11.449296
 20
2.933366
 30
0.0
 10
11.640352
 20
2.978538
 30
0.0
 10
11.842267
 20
2.993609
 30
0.0
 10
11.974203
 20
2.986807
 30
0.0
 10
12.101449
 20
2.966431
 30
0.0
 10
12.224004
 20
2.932491
 30
0.0
 10
12.341871
 20
2.884973
 30
0.0
 10
12.455048
 20
2.823881
 30
0.0
 10
12.563534
 20
2.749213
 30
0.0
 10
12.667330
 20
2.660968
 30
0.0
 10
12.766438
 20
2.559148
 30
0.0
 10
12.859001
 20
2.447944
 30
0.0
 10
12.939226
 20
2.331558
 30
0.0
 10
13.007106
 20
2.209988
 30
0.0
 10
13.062644
 20
2.083236
 30
0.0
 10
13.105841
 20
1.951300
 30
0.0
 10
13.136697
 20
1.814180
 30
0.0
 10
13.155210
 20
1.671878
 30
0.0
 10
13.161391
 20
1.524391
 30
0.0
 10
13.155210
 20
1.367524
 30
0.0
 10
13.136697
 20
1.216828
 30
0.0
 10
13.105841
 20
1.072302
 30
0.0
 10
13.062644
 20
0.933948
 30
0.0
 10
13.007106
 20
0.801767
 30
0.0
 10
12.939226
 20
0.675755
 30
0.0
 10
12.859001
 20
0.555915
 30
0.0
 10
12.766438
 20
0.442244
 30
0.0
 10
12.664863
 20
0.338570
 30
0.0
 10
12.557610
 20
0.248718
 30
0.0
 10
12.444682
 20
0.172693
 30
0.0
 10
12.326072
 20
0.110489
 30
0.0
 10
12.201790
 20
0.062108
 30
0.0
 10
12.071827
 20
0.027552
 30
0.0
 10
11.936191
 20
0.006809
 30
0.0
 10
11.794874
 20
-0.000106
 30
0.0
 10
11.623195
 20
0.010139
 30
0.0
 10
11.459664
 20
0.040870
 30
0.0
 10
11.304278
 20
0.092088
 30
0.0
 10
11.157037
 20
0.163798
 30
0.0
 10
11.017941
 20
0.255991
 30
0.0
 10
10.886993
 20
0.368674
 30
0.0
 10
10.764193
 20
0.501844
 30
0.0
 10
10.649534
 20
0.655502
 30
0.0
 10
10.545863
 20
0.825327
 30
0.0
 10
10.456012
 20
1.007002
 30
0.0
 10
10.379987
 20
1.200524
 30
0.0
 10
10.317782
 20
1.405895
 30
0.0
 10
10.269401
 20
1.623115
 30
0.0
 10
10.234843
 20
1.852181
 30
0.0
 10
10.214099
 20
2.093100
 30
0.0
 10
10.207185
 20
2.345864
 30
0.0
 10
10.217542
 20
2.633186
 30
0.0
 10
10.248646
 20
2.906685
 30
0.0
 10
10.300482
 20
3.166360
 30
0.0
 10
10.373052
 20
3.412212
 30
0.0
 10
10.466358
 20
3.644244
 30
0.0
 10
10.580398
 20
3.862450
 30
0.0
 10
10.715173
 20
4.066835
 30
0.0
 10
10.870684
 20
4.257397
 30
0.0
 10
11.043223
 20
4.431418
 30
0.0
 10
11.225146
 20
4.582235
 30
0.0
 10
11.416448
 20
4.709853
 30
0.0
 10
11.617127
 20
4.814264
 30
0.0
 10
11.827188
 20
4.895476
 30
0.0
 10
12.046630
 20
4.953484
 30
0.0
 10
12.275453
 20
4.988291
 30
0.0
 10
12.513654
 20
4.999890
 30
0.0
 10
12.575735
 20
4.998479
 30
0.0
 10
12.635591
 20
4.994415
 30
0.0
 10
12.693229
 20
4.987613
 30
0.0
 10
12.748644
 20
4.978103
 30
0.0
 10
12.801837
 20
4.965882
 30
0.0
 10
12.852812
 20
4.950953
 30
0.0
 10
12.901563
 20
4.933314
 30
0.0
 10
12.948093
 20
4.912937
 30
0.0
 10
12.992523
 20
4.892702
 30
0.0
 10
13.031030
 20
4.871479
 30
0.0
 10
13.063612
 20
4.849268
 30
0.0
 10
13.090282
 20
4.826069
 30
0.0
 10
13.111026
 20
4.801883
 30
0.0
 10
13.125842
 20
4.776709
 30
0.0
 10
13.134732
 20
4.750547
 30
0.0
 10
13.137696
 20
4.723397
 30
0.0
 10
13.136849
 20
4.707847
 30
0.0
 10
13.134591
 20
4.692776
 30
0.0
 10
13.130894
 20
4.678213
 30
0.0
 10
13.125701
 20
4.664130
 30
0.0
 10
13.119041
 20
4.650555
 30
0.0
 10
13.110885
 20
4.637460
 30
0.0
 10
13.101261
 20
4.624873
 30
0.0
 10
13.090141
 20
4.612794
 30
0.0
 10
13.079897
 20
4.601675
 30
0.0
 10
13.068918
 20
4.592051
 30
0.0
 10
13.057206
 20
4.583895
 30
0.0
 10
13.044732
 20
4.577234
 30
0.0
 10
13.031524
 20
4.572041
 30
0.0
 10
13.017582
 20
4.568344
 30
0.0
 10
13.002906
 20
4.566086
 30
0.0
 10
12.987469
 20
4.565240
 30
0.0
  0
LWPOLYLINE
  5
101
100
AcDbEntity
  8
Layer_1
 62
7
100
AcDbPolyline
 90
89
 70
0
 10
10.578307
 20
1.603154
 30
0.0
 10
10.621749
 20
1.448138
 30
0.0
 10
10.669143
 20
1.302996
 30
0.0
 10
10.720485
 20
1.167727
 30
0.0
 10
10.775778
 20
1.042333
 30
0.0
 10
10.835019
 20
0.926811
 30
0.0
 10
10.898211
 20
0.821164
 30
0.0
 10
10.965352
 20
0.725389
 30
0.0
 10
11.036444
 20
0.639489
 30
0.0
 10
11.112345
 20
0.565437
 30
0.0
 10
11.193927
 20
0.501259
 30
0.0
 10
11.281184
 20
0.446954
 30
0.0
 10
11.374120
 20
0.402521
 30
0.0
 10
11.472731
 20
0.367963
 30
0.0
 10
11.577021
 20
0.343269
 30
0.0
 10
11.686989
 20
0.328452
 30
0.0
 10
11.802635
 20
0.323513
 30
0.0
 10
11.910873
 20
0.328932
 30
0.0
 10
12.014423
 20
0.345216
 30
0.0
 10
12.113283
 20
0.372366
 30
0.0
 10
12.207452
 20
0.410378
 30
0.0
 10
12.296930
 20
0.459253
 30
0.0
 10
12.381721
 20
0.518989
 30
0.0
 10
12.461824
 20
0.589584
 30
0.0
 10
12.537234
 20
0.671041
 30
0.0
 10
12.607581
 20
0.760399
 30
0.0
 10
12.668549
 20
0.854692
 30
0.0
 10
12.720139
 20
0.953921
 30
0.0
 10
12.762349
 20
1.058087
 30
0.0
 10
12.795179
 20
1.167191
 30
0.0
 10
12.818632
 20
1.281231
 30
0.0
 10
12.832715
 20
1.400208
 30
0.0
 10
12.837400
 20
1.524123
 30
0.0
 10
12.832715
 20
1.638657
 30
0.0
 10
12.818632
 20
1.749240
 30
0.0
 10
12.795179
 20
1.855875
 30
0.0
 10
12.762349
 20
1.958562
 30
0.0
 10
12.720139
 20
2.057297
 30
0.0
 10
12.668549
 20
2.152084
 30
0.0
 10
12.607581
 20
2.242923
 30
0.0
 10
12.537234
 20
2.329811
 30
0.0
 10
12.462315
 20
2.409417
 30
0.0
 10
12.383697
 20
2.478407
 30
0.0
 10
12.301375
 20
2.536784
 30
0.0
 10
12.215351
 20
2.584548
 30
0.0
 10
12.125624
 20
2.621697
 30
0.0
 10
12.032194
 20
2.648225
 30
0.0
 10
11.935062
 20
2.664143
 30
0.0
 10
11.834230
 20
2.669449
 30
0.0
 10
11.784861
 20
2.668037
 30
0.0
 10
11.735494
 20
2.663578
 30
0.0
 10
11.686125
 20
2.656184
 30
0.0
 10
11.636759
 20
2.645827
 30
0.0
 10
11.587390
 20
2.632506
 30
0.0
 10
11.538021
 20
2.616221
 30
0.0
 10
11.488654
 20
2.596974
 30
0.0
 10
11.439285
 20
2.574763
 30
0.0
 10
11.393003
 20
2.550943
 30
0.0
 10
11.348943
 20
2.526870
 30
0.0
 10
11.307101
 20
2.502542
 30
0.0
 10
11.267485
 20
2.477989
 30
0.0
 10
11.230088
 20
2.453182
 30
0.0
 10
11.194912
 20
2.428120
 30
0.0
 10
11.161959
 20
2.402805
 30
0.0
 10
11.131228
 20
2.377264
 30
0.0
 10
11.101237
 20
2.351949
 30
0.0
 10
11.070505
 20
2.323436
 30
0.0
 10
11.039035
 20
2.291717
 30
0.0
 10
11.006822
 20
2.256789
 30
0.0
 10
10.973867
 20
2.218652
 30
0.0
 10
10.940175
 20
2.177307
 30
0.0
 10
10.905741
 20
2.132752
 30
0.0
 10
10.870565
 20
2.084989
 30
0.0
 10
10.838476
 20
2.039568
 30
0.0
 10
10.809348
 20
1.998101
 30
0.0
 10
10.783186
 20
1.960580
 30
0.0
 10
10.759988
 20
1.927009
 30
0.0
 10
10.739752
 20
1.897387
 30
0.0
 10
10.722480
 20
1.871705
 30
0.0
 10
10.708172
 20
1.849974
 30
0.0
 10
10.696826
 20
1.832194
 30
0.0
 10
10.688077
 20
1.814781
 30
0.0
 10
10.677579
 20
1.794179
 30
0.0
 10
10.665358
 20
1.770359
 30
0.0
 10
10.651417
 20
1.743322
 30
0.0
 10
10.635753
 20
1.713082
 30
0.0
 10
10.618340
 20
1.679636
 30
0.0
 10
10.599206
 20
1.642981
 30
0.0
 10
10.578349
 20
1.603117
 30
0.0
  0
LWPOLYLINE
  5
102
100
AcDbEntity
  8
Layer_1
 62
7
100
AcDbPolyline
 90
185
 70
0
 10
7.777322
 20
1.603117
 30
0.0
 10
7.514683
 20
1.603117
 30
0.0
 10
7.252047
 20
1.603117
 30
0.0
 10
6.989408
 20
1.603117
 30
0.0
 10
6.726769
 20
1.603117
 30
0.0
 10
6.464131
 20
1.603117
 30
0.0
 10
6.201495
 20
1.603117
 30
0.0
 10
5.938856
 20
1.603117
 30
0.0
 10
5.676217
 20
1.603117
 30
0.0
 10
5.622900
 20
1.457976
 30
0.0
 10
5.569582
 20
1.312832
 30
0.0
 10
5.516265
 20
1.167690
 30
0.0
 10
5.462947
 20
1.022549
 30
0.0
 10
5.409627
 20
0.877408
 30
0.0
 10
5.356310
 20
0.732264
 30
0.0
 10
5.302992
 20
0.587123
 30
0.0
 10
5.249675
 20
0.441981
 30
0.0
 10
5.327675
 20
0.441981
 30
0.0
 10
5.405679
 20
0.441981
 30
0.0
 10
5.483679
 20
0.441981
 30
0.0
 10
5.561683
 20
0.441981
 30
0.0
 10
5.639683
 20
0.441981
 30
0.0
 10
5.717684
 20
0.441981
 30
0.0
 10
5.795687
 20
0.441981
 30
0.0
 10
5.873688
 20
0.441981
 30
0.0
 10
5.923672
 20
0.439441
 30
0.0
 10
5.966993
 20
0.432047
 30
0.0
 10
6.003648
 20
0.419714
 30
0.0
 10
6.033640
 20
0.402442
 30
0.0
 10
6.056952
 20
0.380231
 30
0.0
 10
6.073603
 20
0.353081
 30
0.0
 10
6.083594
 20
0.320993
 30
0.0
 10
6.086924
 20
0.283965
 30
0.0
 10
6.083594
 20
0.245089
 30
0.0
 10
6.073603
 20
0.211395
 30
0.0
 10
6.056952
 20
0.182885
 30
0.0
 10
6.033640
 20
0.159545
 30
0.0
 10
6.003648
 20
0.141398
 30
0.0
 10
5.966993
 20
0.128444
 30
0.0
 10
5.923672
 20
0.120683
 30
0.0
 10
5.873688
 20
0.118143
 30
0.0
 10
5.724596
 20
0.118143
 30
0.0
 10
5.575506
 20
0.118143
 30
0.0
 10
5.426414
 20
0.118143
 30
0.0
 10
5.277321
 20
0.118143
 30
0.0
 10
5.128229
 20
0.118143
 30
0.0
 10
4.979139
 20
0.118143
 30
0.0
 10
4.830047
 20
0.118143
 30
0.0
 10
4.680955
 20
0.118143
 30
0.0
 10
4.630970
 20
0.120683
 30
0.0
 10
4.587649
 20
0.128444
 30
0.0
 10
4.550994
 20
0.141398
 30
0.0
 10
4.521002
 20
0.159545
 30
0.0
 10
4.497663
 20
0.182885
 30
0.0
 10
4.481012
 20
0.211395
 30
0.0
 10
4.471021
 20
0.245089
 30
0.0
 10
4.467691
 20
0.283965
 30
0.0
 10
4.471021
 20
0.320993
 30
0.0
 10
4.481012
 20
0.353081
 30
0.0
 10
4.497663
 20
0.380231
 30
0.0
 10
4.521002
 20
0.402442
 30
0.0
 10
4.550994
 20
0.419714
 30
0.0
 10
4.587649
 20
0.432047
 30
0.0
 10
4.630970
 20
0.439441
 30
0.0
 10
4.680955
 20
0.441981
 30
0.0
 10
4.711565
 20
0.441981
 30
0.0
 10
4.742172
 20
0.441981
 30
0.0
 10
4.772781
 20
0.441981
 30
0.0
 10
4.803388
 20
0.441981
 30
0.0
 10
4.833998
 20
0.441981
 30
0.0
 10
4.864605
 20
0.441981
 30
0.0
 10
4.895215
 20
0.441981
 30
0.0
 10
4.925822
 20
0.441981
 30
0.0
 10
5.102561
 20
0.916902
 30
0.0
 10
5.279297
 20
1.391823
 30
0.0
 10
5.456036
 20
1.866744
 30
0.0
 10
5.632772
 20
2.341664
 30
0.0
 10
5.809511
 20
2.816585
 30
0.0
 10
5.986247
 20
3.291506
 30
0.0
 10
6.162985
 20
3.766427
 30
0.0
 10
6.339721
 20
4.241347
 30
0.0
 10
6.221239
 20
4.241347
 30
0.0
 10
6.102756
 20
4.241347
 30
0.0
 10
5.984271
 20
4.241347
 30
0.0
 10
5.865789
 20
4.241347
 30
0.0
 10
5.747306
 20
4.241347
 30
0.0
 10
5.628823
 20
4.241347
 30
0.0
 10
5.510338
 20
4.241347
 30
0.0
 10
5.391856
 20
4.241347
 30
0.0
 10
5.341871
 20
4.243887
 30
0.0
 10
5.298550
 20
4.251677
 30
0.0
 10
5.261895
 20
4.264631
 30
0.0
 10
5.231903
 20
4.282778
 30
0.0
 10
5.208564
 20
4.306117
 30
0.0
 10
5.191912
 20
4.334627
 30
0.0
 10
5.181922
 20
4.368322
 30
0.0
 10
5.178592
 20
4.407201
 30
0.0
 10
5.181922
 20
4.444226
 30
0.0
 10
5.191912
 20
4.476314
 30
0.0
 10
5.208564
 20
4.503464
 30
0.0
 10
5.231903
 20
4.525675
 30
0.0
 10
5.261895
 20
4.542947
 30
0.0
 10
5.298550
 20
4.555280
 30
0.0
 10
5.341871
 20
4.562702
 30
0.0
 10
5.391856
 20
4.565242
 30
0.0
 10
5.593278
 20
4.565242
 30
0.0
 10
5.794700
 20
4.565242
 30
0.0
 10
5.996122
 20
4.565242
 30
0.0
 10
6.197544
 20
4.565242
 30
0.0
 10
6.398963
 20
4.565242
 30
0.0
 10
6.600385
 20
4.565242
 30
0.0
 10
6.801807
 20
4.565242
 30
0.0
 10
7.003229
 20
4.565242
 30
0.0
 10
7.197739
 20
4.049840
 30
0.0
 10
7.392249
 20
3.534437
 30
0.0
 10
7.586760
 20
3.019034
 30
0.0
 10
7.781270
 20
2.503632
 30
0.0
 10
7.975781
 20
1.988229
 30
0.0
 10
8.170291
 20
1.472826
 30
0.0
 10
8.364801
 20
0.957424
 30
0.0
 10
8.559312
 20
0.442021
 30
0.0
 10
8.595845
 20
0.442021
 30
0.0
 10
8.632376
 20
0.442021
 30
0.0
 10
8.668910
 20
0.442021
 30
0.0
 10
8.705441
 20
0.442021
 30
0.0
 10
8.741974
 20
0.442021
 30
0.0
 10
8.778505
 20
0.442021
 30
0.0
 10
8.815039
 20
0.442021
 30
0.0
 10
8.851570
 20
0.442021
 30
0.0
 10
8.901554
 20
0.439481
 30
0.0
 10
8.944875
 20
0.432087
 30
0.0
 10
8.981530
 20
0.419754
 30
0.0
 10
9.011522
 20
0.402482
 30
0.0
 10
9.034862
 20
0.380271
 30
0.0
 10
9.051513
 20
0.353121
 30
0.0
 10
9.061504
 20
0.321032
 30
0.0
 10
9.064834
 20
0.284005
 30
0.0
 10
9.061504
 20
0.245129
 30
0.0
 10
9.051513
 20
0.211434
 30
0.0
 10
9.034862
 20
0.182924
 30
0.0
 10
9.011522
 20
0.159584
 30
0.0
 10
8.981530
 20
0.141437
 30
0.0
 10
8.944875
 20
0.128483
 30
0.0
 10
8.901554
 20
0.120722
 30
0.0
 10
8.851570
 20
0.118182
 30
0.0
 10
8.697541
 20
0.118182
 30
0.0
 10
8.543513
 20
0.118182
 30
0.0
 10
8.389485
 20
0.118182
 30
0.0
 10
8.235456
 20
0.118182
 30
0.0
 10
8.081428
 20
0.118182
 30
0.0
 10
7.927399
 20
0.118182
 30
0.0
 10
7.773371
 20
0.118182
 30
0.0
 10
7.619342
 20
0.118182
 30
0.0
 10
7.569358
 20
0.120722
 30
0.0
 10
7.526037
 20
0.128483
 30
0.0
 10
7.489379
 20
0.141437
 30
0.0
 10
7.459390
 20
0.159584
 30
0.0
 10
7.436050
 20
0.182924
 30
0.0
 10
7.419399
 20
0.211434
 30
0.0
 10
7.409409
 20
0.245129
 30
0.0
 10
7.406078
 20
0.284005
 30
0.0
 10
7.409409
 20
0.321032
 30
0.0
 10
7.419399
 20
0.353121
 30
0.0
 10
7.436050
 20
0.380271
 30
0.0
 10
7.459390
 20
0.402482
 30
0.0
 10
7.489379
 20
0.419754
 30
0.0
 10
7.526037
 20
0.432087
 30
0.0
 10
7.569358
 20
0.439481
 30
0.0
 10
7.619342
 20
0.442021
 30
0.0
 10
7.694382
 20
0.442021
 30
0.0
 10
7.769423
 20
0.442021
 30
0.0
 10
7.844463
 20
0.442021
 30
0.0
 10
7.919503
 20
0.442021
 30
0.0
 10
7.994540
 20
0.442021
 30
0.0
 10
8.069580
 20
0.442021
 30
0.0
 10
8.144620
 20
0.442021
 30
0.0
 10
8.219660
 20
0.442021
 30
0.0
 10
8.164367
 20
0.587162
 30
0.0
 10
8.109077
 20
0.732303
 30
0.0
 10
8.053784
 20
0.877448
 30
0.0
 10
7.998491
 20
1.022589
 30
0.0
 10
7.943198
 20
1.167730
 30
0.0
 10
7.887908
 20
1.312871
 30
0.0
 10
7.832615
 20
1.458015
 30
0.0
 10
7.777322
 20
1.603157
 30
0.0
  0
LWPOLYLINE
  5
103
100
AcDbEntity
  8
Layer_1
 62
7
100
AcDbPolyline
 90
33
 70
0
 10
7.658839
 20
1.927012
 30
0.0
 10
7.548256
 20
2.216310
 30
0.0
 10
7.437670
 20
2.505604
 30
0.0
 10
7.327087
 20
2.794902
 30
0.0
 10
7.216501
 20
3.084200
 30
0.0
 10
7.105918
 20
3.373497
 30
0.0
 10
6.995332
 20
3.662792
 30
0.0
 10
6.884749
 20
3.952089
 30
0.0
 10
6.774163
 20
4.241387
 30
0.0
 10
6.759346
 20
4.241387
 30
0.0
 10
6.744530
 20
4.241387
 30
0.0
 10
6.729713
 20
4.241387
 30
0.0
 10
6.714896
 20
4.241387
 30
0.0
 10
6.700080
 20
4.241387
 30
0.0
 10
6.685263
 20
4.241387
 30
0.0
 10
6.670446
 20
4.241387
 30
0.0
 10
6.655630
 20
4.241387
 30
0.0
 10
6.548995
 20
3.952089
 30
0.0
 10
6.442360
 20
3.662792
 30
0.0
 10
6.335725
 20
3.373497
 30
0.0
 10
6.229090
 20
3.084200
 30
0.0
 10
6.122456
 20
2.794902
 30
0.0
 10
6.015821
 20
2.505604
 30
0.0
 10
5.909186
 20
2.216310
 30
0.0
 10
5.802551
 20
1.927012
 30
0.0
 10
6.034580
 20
1.927012
 30
0.0
 10
6.266612
 20
1.927012
 30
0.0
 10
6.498641
 20
1.927012
 30
0.0
 10
6.730673
 20
1.927012
 30
0.0
 10
6.962702
 20
1.927012
 30
0.0
 10
7.194731
 20
1.927012
 30
0.0
 10
7.426762
 20
1.927012
 30
0.0
 10
7.658791
 20
1.927012
 30
0.0
  0
LWPOLYLINE
  5
104
100
AcDbEntity
  8
Layer_1
 62
7
100
AcDbPolyline
 90
201
 70
0
 10
0.963614
 20
2.100788
 30
0.0
 10
0.963614
 20
1.893442
 30
0.0
 10
0.963614
 20
1.686096
 30
0.0
 10
0.963614
 20
1.478750
 30
0.0
 10
0.963614
 20
1.271404
 30
0.0
 10
0.963614
 20
1.064058
 30
0.0
 10
0.963614
 20
0.856713
 30
0.0
 10
0.963614
 20
0.649367
 30
0.0
 10
0.963614
 20
0.442021
 30
0.0
 10
1.037666
 20
0.442021
 30
0.0
 10
1.111718
 20
0.442021
 30
0.0
 10
1.185771
 20
0.442021
 30
0.0
 10
1.259823
 20
0.442021
 30
0.0
 10
1.333873
 20
0.442021
 30
0.0
 10
1.407925
 20
0.442021
 30
0.0
 10
1.481977
 20
0.442021
 30
0.0
 10
1.556029
 20
0.442021
 30
0.0
 10
1.606014
 20
0.439481
 30
0.0
 10
1.649335
 20
0.432087
 30
0.0
 10
1.685990
 20
0.419754
 30
0.0
 10
1.715982
 20
0.402482
 30
0.0
 10
1.739321
 20
0.380271
 30
0.0
 10
1.755973
 20
0.353121
 30
0.0
 10
1.765963
 20
0.321032
 30
0.0
 10
1.769293
 20
0.284005
 30
0.0
 10
1.765963
 20
0.245129
 30
0.0
 10
1.755973
 20
0.211434
 30
0.0
 10
1.739321
 20
0.182924
 30
0.0
 10
1.715982
 20
0.159584
 30
0.0
 10
1.685990
 20
0.141437
 30
0.0
 10
1.649335
 20
0.128483
 30
0.0
 10
1.606014
 20
0.120722
 30
0.0
 10
1.556029
 20
0.118182
 30
0.0
 10
1.388178
 20
0.118182
 30
0.0
 10
1.220326
 20
0.118182
 30
0.0
 10
1.052474
 20
0.118182
 30
0.0
 10
0.884626
 20
0.118182
 30
0.0
 10
0.716774
 20
0.118182
 30
0.0
 10
0.548922
 20
0.118182
 30
0.0
 10
0.381071
 20
0.118182
 30
0.0
 10
0.213219
 20
0.118182
 30
0.0
 10
0.163235
 20
0.120722
 30
0.0
 10
0.119913
 20
0.128483
 30
0.0
 10
0.083258
 20
0.141437
 30
0.0
 10
0.053267
 20
0.159584
 30
0.0
 10
0.029927
 20
0.182924
 30
0.0
 10
0.013276
 20
0.211434
 30
0.0
 10
0.003285
 20
0.245129
 30
0.0
 10
-0.000045
 20
0.284005
 30
0.0
 10
0.003285
 20
0.321032
 30
0.0
 10
0.013276
 20
0.353121
 30
0.0
 10
0.029927
 20
0.380271
 30
0.0
 10
0.053267
 20
0.402482
 30
0.0
 10
0.083258
 20
0.419754
 30
0.0
 10
0.119913
 20
0.432087
 30
0.0
 10
0.163235
 20
0.439481
 30
0.0
 10
0.213219
 20
0.442021
 30
0.0
 10
0.266536
 20
0.442021
 30
0.0
 10
0.319854
 20
0.442021
 30
0.0
 10
0.373171
 20
0.442021
 30
0.0
 10
0.426489
 20
0.442021
 30
0.0
 10
0.479806
 20
0.442021
 30
0.0
 10
0.533123
 20
0.442021
 30
0.0
 10
0.586441
 20
0.442021
 30
0.0
 10
0.639758
 20
0.442021
 30
0.0
 10
0.639758
 20
0.916942
 30
0.0
 10
0.639758
 20
1.391862
 30
0.0
 10
0.639758
 20
1.866783
 30
0.0
 10
0.639758
 20
2.341704
 30
0.0
 10
0.639758
 20
2.816625
 30
0.0
 10
0.639758
 20
3.291545
 30
0.0
 10
0.639758
 20
3.766466
 30
0.0
 10
0.639758
 20
4.241387
 30
0.0
 10
0.586441
 20
4.241387
 30
0.0
 10
0.533123
 20
4.241387
 30
0.0
 10
0.479806
 20
4.241387
 30
0.0
 10
0.426489
 20
4.241387
 30
0.0
 10
0.373171
 20
4.241387
 30
0.0
 10
0.319854
 20
4.241387
 30
0.0
 10
0.266536
 20
4.241387
 30
0.0
 10
0.213219
 20
4.241387
 30
0.0
 10
0.163235
 20
4.243927
 30
0.0
 10
0.119913
 20
4.251716
 30
0.0
 10
0.083258
 20
4.264670
 30
0.0
 10
0.053267
 20
4.282817
 30
0.0
 10
0.029927
 20
4.306157
 30
0.0
 10
0.013276
 20
4.334667
 30
0.0
 10
0.003285
 20
4.368361
 30
0.0
 10
-0.000045
 20
4.407240
 30
0.0
 10
0.003285
 20
4.444265
 30
0.0
 10
0.013276
 20
4.476354
 30
0.0
 10
0.029927
 20
4.503504
 30
0.0
 10
0.053267
 20
4.525714
 30
0.0
 10
0.083258
 20
4.542986
 30
0.0
 10
0.119913
 20
4.555320
 30
0.0
 10
0.163235
 20
4.562742
 30
0.0
 10
0.213219
 20
4.565282
 30
0.0
 10
0.458083
 20
4.565282
 30
0.0
 10
0.702951
 20
4.565282
 30
0.0
 10
0.947815
 20
4.565282
 30
0.0
 10
1.192682
 20
4.565282
 30
0.0
 10
1.437547
 20
4.565282
 30
0.0
 10
1.682411
 20
4.565282
 30
0.0
 10
1.927279
 20
4.565282
 30
0.0
 10
2.172143
 20
4.565282
 30
0.0
 10
2.313830
 20
4.559468
 30
0.0
 10
2.450578
 20
4.542055
 30
0.0
 10
2.582390
 20
4.513051
 30
0.0
 10
2.709268
 20
4.472445
 30
0.0
 10
2.831205
 20
4.420240
 30
0.0
 10
2.948209
 20
4.356432
 30
0.0
 10
3.060277
 20
4.281022
 30
0.0
 10
3.167405
 20
4.194013
 30
0.0
 10
3.267374
 20
4.101077
 30
0.0
 10
3.354014
 20
4.003945
 30
0.0
 10
3.427326
 20
3.902616
 30
0.0
 10
3.487307
 20
3.797093
 30
0.0
 10
3.533961
 20
3.687370
 30
0.0
 10
3.567283
 20
3.573454
 30
0.0
 10
3.587293
 20
3.455344
 30
0.0
 10
3.593953
 20
3.333035
 30
0.0
 10
3.576794
 20
3.147533
 30
0.0
 10
3.525328
 20
2.974127
 30
0.0
 10
3.439549
 20
2.812817
 30
0.0
 10
3.319461
 20
2.663601
 30
0.0
 10
3.165063
 20
2.526480
 30
0.0
 10
2.976355
 20
2.401456
 30
0.0
 10
2.753335
 20
2.288528
 30
0.0
 10
2.496004
 20
2.187695
 30
0.0
 10
2.586965
 20
2.123394
 30
0.0
 10
2.674222
 20
2.056868
 30
0.0
 10
2.757777
 20
1.988125
 30
0.0
 10
2.837629
 20
1.917157
 30
0.0
 10
2.913781
 20
1.843968
 30
0.0
 10
2.986227
 20
1.768559
 30
0.0
 10
3.054974
 20
1.690928
 30
0.0
 10
3.120017
 20
1.611076
 30
0.0
 10
3.186786
 20
1.521967
 30
0.0
 10
3.260714
 20
1.416565
 30
0.0
 10
3.341802
 20
1.294871
 30
0.0
 10
3.430047
 20
1.156887
 30
0.0
 10
3.525449
 20
1.002613
 30
0.0
 10
3.628012
 20
0.832046
 30
0.0
 10
3.737734
 20
0.645190
 30
0.0
 10
3.854614
 20
0.442041
 30
0.0
 10
3.885224
 20
0.442041
 30
0.0
 10
3.915831
 20
0.442041
 30
0.0
 10
3.946440
 20
0.442041
 30
0.0
 10
3.977047
 20
0.442041
 30
0.0
 10
4.007657
 20
0.442041
 30
0.0
 10
4.038264
 20
0.442041
 30
0.0
 10
4.068874
 20
0.442041
 30
0.0
 10
4.099481
 20
0.442041
 30
0.0
 10
4.149465
 20
0.439501
 30
0.0
 10
4.192784
 20
0.432106
 30
0.0
 10
4.229439
 20
0.419773
 30
0.0
 10
4.259430
 20
0.402501
 30
0.0
 10
4.282770
 20
0.380290
 30
0.0
 10
4.299421
 20
0.353141
 30
0.0
 10
4.309412
 20
0.321052
 30
0.0
 10
4.312742
 20
0.284024
 30
0.0
 10
4.309412
 20
0.245148
 30
0.0
 10
4.299421
 20
0.211454
 30
0.0
 10
4.282770
 20
0.182944
 30
0.0
 10
4.259430
 20
0.159604
 30
0.0
 10
4.229439
 20
0.141457
 30
0.0
 10
4.192784
 20
0.128503
 30
0.0
 10
4.149465
 20
0.120742
 30
0.0
 10
4.099481
 20
0.118202
 30
0.0
 10
4.043200
 20
0.118202
 30
0.0
 10
3.986922
 20
0.118202
 30
0.0
 10
3.930642
 20
0.118202
 30
0.0
 10
3.874364
 20
0.118202
 30
0.0
 10
3.818083
 20
0.118202
 30
0.0
 10
3.761802
 20
0.118202
 30
0.0
 10
3.705524
 20
0.118202
 30
0.0
 10
3.649243
 20
0.118202
 30
0.0
 10
3.521750
 20
0.350355
 30
0.0
 10
3.399931
 20
0.564982
 30
0.0
 10
3.283794
 20
0.762084
 30
0.0
 10
3.173332
 20
0.941662
 30
0.0
 10
3.068549
 20
1.103711
 30
0.0
 10
2.969441
 20
1.248237
 30
0.0
 10
2.876014
 20
1.375237
 30
0.0
 10
2.788262
 20
1.484711
 30
0.0
 10
2.703472
 20
1.584186
 30
0.0
 10
2.614978
 20
1.677246
 30
0.0
 10
2.522784
 20
1.763885
 30
0.0
 10
2.426885
 20
1.844109
 30
0.0
 10
2.327286
 20
1.917913
 30
0.0
 10
2.223984
 20
1.985302
 30
0.0
 10
2.116980
 20
2.046271
 30
0.0
 10
2.006273
 20
2.100824
 30
0.0
 10
1.875942
 20
2.100824
 30
0.0
 10
1.745609
 20
2.100824
 30
0.0
 10
1.615279
 20
2.100824
 30
0.0
 10
1.484946
 20
2.100824
 30
0.0
 10
1.354616
 20
2.100824
 30
0.0
 10
1.224283
 20
2.100824
 30
0.0
 10
1.093953
 20
2.100824
 30
0.0
 10
0.963620
 20
2.100824
 30
0.0
  0
LWPOLYLINE
  5
105
100
AcDbEntity
  8
Layer_1
 62
7
100
AcDbPolyline
 90
57
 70
0
 10
0.963620
 20
2.424680
 30
0.0
 10
1.076178
 20
2.424680
 30
0.0
 10
1.188737
 20
2.424680
 30
0.0
 10
1.301296
 20
2.424680
 30
0.0
 10
1.413857
 20
2.424680
 30
0.0
 10
1.526416
 20
2.424680
 30
0.0
 10
1.638975
 20
2.424680
 30
0.0
 10
1.751533
 20
2.424680
 30
0.0
 10
1.864092
 20
2.424680
 30
0.0
 10
2.007506
 20
2.428885
 30
0.0
 10
2.145490
 20
2.441472
 30
0.0
 10
2.278041
 20
2.462441
 30
0.0
 10
2.405166
 20
2.491815
 30
0.0
 10
2.526857
 20
2.529582
 30
0.0
 10
2.643121
 20
2.575742
 30
0.0
 10
2.753953
 20
2.630293
 30
0.0
 10
2.859354
 20
2.693237
 30
0.0
 10
2.955620
 20
2.762105
 30
0.0
 10
3.039051
 20
2.834427
 30
0.0
 10
3.109649
 20
2.910207
 30
0.0
 10
3.167408
 20
2.989443
 30
0.0
 10
3.212332
 20
3.072135
 30
0.0
 10
3.244421
 20
3.158283
 30
0.0
 10
3.263669
 20
3.247888
 30
0.0
 10
3.270075
 20
3.340948
 30
0.0
 10
3.264769
 20
3.428451
 30
0.0
 10
3.248852
 20
3.513239
 30
0.0
 10
3.222323
 20
3.595315
 30
0.0
 10
3.185174
 20
3.674673
 30
0.0
 10
3.137411
 20
3.751316
 30
0.0
 10
3.079033
 20
3.825247
 30
0.0
 10
3.010044
 20
3.896460
 30
0.0
 10
2.930438
 20
3.964961
 30
0.0
 10
2.846016
 20
4.029754
 30
0.0
 10
2.758635
 20
4.085911
 30
0.0
 10
2.668290
 20
4.133426
 30
0.0
 10
2.574984
 20
4.172304
 30
0.0
 10
2.478718
 20
4.202542
 30
0.0
 10
2.379489
 20
4.224132
 30
0.0
 10
2.277296
 20
4.237086
 30
0.0
 10
2.172143
 20
4.241404
 30
0.0
 10
2.021078
 20
4.241404
 30
0.0
 10
1.870010
 20
4.241404
 30
0.0
 10
1.718945
 20
4.241404
 30
0.0
 10
1.567880
 20
4.241404
 30
0.0
 10
1.416812
 20
4.241404
 30
0.0
 10
1.265747
 20
4.241404
 30
0.0
 10
1.114679
 20
4.241404
 30
0.0
 10
0.963614
 20
4.241404
 30
0.0
 10
0.963614
 20
4.014311
 30
0.0
 10
0.963614
 20
3.787218
 30
0.0
 10
0.963614
 20
3.560125
 30
0.0
 10
0.963614
 20
3.333032
 30
0.0
 10
0.963614
 20
3.105939
 30
0.0
 10
0.963614
 20
2.878846
 30
0.0
 10
0.963614
 20
2.651753
 30
0.0
 10
0.963614
 20
2.424660
 30
0.0
  0
ENDSEC
  0
SECTION
  2
OBJECTS
  0
DICTIONARY
  5
C
330
0
100
AcDbDictionary
  3
ACAD_GROUP
350
D
  3
ACAD_MLINESTYLE
350
17
  0
DICTIONARY
  5
D
330
C
100
AcDbDictionary
  0
DICTIONARY
  5
1A
330
C
100
AcDbDictionary
  0
DICTIONARY
  5
17
330
C
100
AcDbDictionary
  3
STANDARD
350
18
  0
DICTIONARY
  5
19
330
C
100
AcDbDictionary
  0
ENDSEC
  0
EOF
