<?xml version="1.0" encoding="UTF-8" standalone="no"?>
<!-- Created with Inkscape (http://www.inkscape.org/) -->

<svg
   xmlns:dc="http://purl.org/dc/elements/1.1/"
   xmlns:cc="http://creativecommons.org/ns#"
   xmlns:rdf="http://www.w3.org/1999/02/22-rdf-syntax-ns#"
   xmlns:svg="http://www.w3.org/2000/svg"
   xmlns="http://www.w3.org/2000/svg"
   version="1.1"
   width="744.09448"
   height="1052.3622"
   id="svg2">
  <desc
     id="desc4">/home/felipe/devel/github_metamaquina/Metamaquina2/dxf/prototypes/2013mar12/lasercutter_panel4.dxf - scale = 1.000000</desc>
  <metadata
     id="metadata422">
    <rdf:RDF>
      <cc:Work
         rdf:about="">
        <dc:format>image/svg+xml</dc:format>
        <dc:type
           rdf:resource="http://purl.org/dc/dcmitype/StillImage" />
        <dc:title></dc:title>
      </cc:Work>
    </rdf:RDF>
  </metadata>
  <defs
     id="defs6">
    <marker
       refX="0"
       refY="0"
       orient="auto"
       id="DistanceX"
       style="overflow:visible">
      <path
         d="M 3,-3 -3,3 M 0,-5 0,5"
         id="path9"
         style="stroke:#000000;stroke-width:0.5" />
    </marker>
    <pattern
       id="Hatch"
       x="0"
       y="0"
       patternUnits="userSpaceOnUse"
       width="8"
       height="8">
      <path
         id="path12"
         d="M8 4 l-4,4"
         stroke-width="0.25"
         stroke="#000000"
         linecap="square" />
      <path
         id="path14"
         d="M6 2 l-4,4"
         stroke-width="0.25"
         stroke="#000000"
         linecap="square" />
      <path
         id="path16"
         d="M4 0 l-4,4"
         stroke-width="0.25"
         stroke="#000000"
         linecap="square" />
    </pattern>
  </defs>
  <g
     id="g18">
    <path
       d="m 379.13386,1052.3622 0,-368.50393"
       id="path220"
       style="fill:none;stroke:#000000" />
    <path
       d="m 379.13386,683.85827 2.03031,-6.24685"
       id="path222"
       style="fill:none;stroke:#000000" />
    <path
       d="m 381.16417,677.61142 5.31496,-3.86221"
       id="path224"
       style="fill:none;stroke:#000000" />
    <path
       d="m 386.47913,673.74921 3.28465,0"
       id="path226"
       style="fill:none;stroke:#000000" />
    <path
       d="m 389.76378,673.74921 0,-0.52086"
       id="path228"
       style="fill:none;stroke:#000000" />
    <path
       d="m 389.76378,673.22835 364.96063,0"
       id="path230"
       style="fill:none;stroke:#000000" />
    <path
       d="m 754.72441,673.22835 0,0.52086"
       id="path232"
       style="fill:none;stroke:#000000" />
    <path
       d="m 754.72441,673.74921 3.28464,0"
       id="path234"
       style="fill:none;stroke:#000000" />
    <path
       d="m 758.00905,673.74921 5.31497,3.86221"
       id="path236"
       style="fill:none;stroke:#000000" />
    <path
       d="m 763.32402,677.61142 2.03031,6.24685"
       id="path238"
       style="fill:none;stroke:#000000" />
    <path
       d="m 765.35433,683.85827 0,368.50393"
       id="path240"
       style="fill:none;stroke:#000000" />
    <path
       d="m 765.35433,1052.3622 -2.03031,6.2469"
       id="path242"
       style="fill:none;stroke:#000000" />
    <path
       d="m 763.32402,1058.6091 -5.31497,3.8622"
       id="path244"
       style="fill:none;stroke:#000000" />
    <path
       d="m 758.00905,1062.4713 -3.28464,0"
       id="path246"
       style="fill:none;stroke:#000000" />
    <path
       d="m 754.72441,1062.4713 0,0.5208"
       id="path248"
       style="fill:none;stroke:#000000" />
    <path
       d="m 754.72441,1062.9921 -364.96063,0"
       id="path250"
       style="fill:none;stroke:#000000" />
    <path
       d="m 389.76378,1062.9921 0,-0.5208"
       id="path252"
       style="fill:none;stroke:#000000" />
    <path
       d="m 389.76378,1062.4713 -3.28465,0"
       id="path254"
       style="fill:none;stroke:#000000" />
    <path
       d="m 386.47913,1062.4713 -5.31496,-3.8622"
       id="path256"
       style="fill:none;stroke:#000000" />
    <path
       d="m 381.16417,1058.6091 -2.03031,-6.2469"
       id="path258"
       style="fill:none;stroke:#000000" />
    <path
       d="m 395.7874,1039.252 0.34725,-2.1898"
       id="path260"
       style="fill:none;stroke:#000000" />
    <path
       d="m 396.13465,1037.0622 1.00629,-1.9772"
       id="path262"
       style="fill:none;stroke:#000000" />
    <path
       d="m 397.14094,1035.085 1.56615,-1.5661"
       id="path264"
       style="fill:none;stroke:#000000" />
    <path
       d="m 398.70709,1033.5189 1.97716,-1.0063"
       id="path266"
       style="fill:none;stroke:#000000" />
    <path
       d="m 400.68425,1032.5126 2.18977,-0.3472"
       id="path268"
       style="fill:none;stroke:#000000" />
    <path
       d="m 402.87402,1032.1654 2.18976,0.3472"
       id="path270"
       style="fill:none;stroke:#000000" />
    <path
       d="m 405.06378,1032.5126 1.97717,1.0063"
       id="path272"
       style="fill:none;stroke:#000000" />
    <path
       d="m 407.04095,1033.5189 1.56614,1.5661"
       id="path274"
       style="fill:none;stroke:#000000" />
    <path
       d="m 408.60709,1035.085 1.0063,1.9772"
       id="path276"
       style="fill:none;stroke:#000000" />
    <path
       d="m 409.61339,1037.0622 0.34724,2.1898"
       id="path278"
       style="fill:none;stroke:#000000" />
    <path
       d="m 409.96063,1039.252 -0.34724,2.1897"
       id="path280"
       style="fill:none;stroke:#000000" />
    <path
       d="m 409.61339,1041.4417 -1.0063,1.9772"
       id="path282"
       style="fill:none;stroke:#000000" />
    <path
       d="m 408.60709,1043.4189 -1.56614,1.5661"
       id="path284"
       style="fill:none;stroke:#000000" />
    <path
       d="m 407.04095,1044.985 -1.97717,1.0063"
       id="path286"
       style="fill:none;stroke:#000000" />
    <path
       d="m 405.06378,1045.9913 -2.18976,0.3473"
       id="path288"
       style="fill:none;stroke:#000000" />
    <path
       d="m 402.87402,1046.3386 -2.18977,-0.3473"
       id="path290"
       style="fill:none;stroke:#000000" />
    <path
       d="m 400.68425,1045.9913 -1.97716,-1.0063"
       id="path292"
       style="fill:none;stroke:#000000" />
    <path
       d="m 398.70709,1044.985 -1.56615,-1.5661"
       id="path294"
       style="fill:none;stroke:#000000" />
    <path
       d="m 397.14094,1043.4189 -1.00629,-1.9772"
       id="path296"
       style="fill:none;stroke:#000000" />
    <path
       d="m 396.13465,1041.4417 -0.34725,-2.1897"
       id="path298"
       style="fill:none;stroke:#000000" />
    <path
       d="m 395.7874,696.9685 0.34725,-2.18976"
       id="path300"
       style="fill:none;stroke:#000000" />
    <path
       d="m 396.13465,694.77874 1.00629,-1.97717"
       id="path302"
       style="fill:none;stroke:#000000" />
    <path
       d="m 397.14094,692.80157 1.56615,-1.56614"
       id="path304"
       style="fill:none;stroke:#000000" />
    <path
       d="m 398.70709,691.23543 1.97716,-1.0063"
       id="path306"
       style="fill:none;stroke:#000000" />
    <path
       d="m 400.68425,690.22913 2.18977,-0.34724"
       id="path308"
       style="fill:none;stroke:#000000" />
    <path
       d="m 402.87402,689.88189 2.18976,0.34724"
       id="path310"
       style="fill:none;stroke:#000000" />
    <path
       d="m 405.06378,690.22913 1.97717,1.0063"
       id="path312"
       style="fill:none;stroke:#000000" />
    <path
       d="m 407.04095,691.23543 1.56614,1.56614"
       id="path314"
       style="fill:none;stroke:#000000" />
    <path
       d="m 408.60709,692.80157 1.0063,1.97717"
       id="path316"
       style="fill:none;stroke:#000000" />
    <path
       d="m 409.61339,694.77874 0.34724,2.18976"
       id="path318"
       style="fill:none;stroke:#000000" />
    <path
       d="m 409.96063,696.9685 -0.34724,2.18977"
       id="path320"
       style="fill:none;stroke:#000000" />
    <path
       d="m 409.61339,699.15827 -1.0063,1.97716"
       id="path322"
       style="fill:none;stroke:#000000" />
    <path
       d="m 408.60709,701.13543 -1.56614,1.56615"
       id="path324"
       style="fill:none;stroke:#000000" />
    <path
       d="m 407.04095,702.70158 -1.97717,1.00629"
       id="path326"
       style="fill:none;stroke:#000000" />
    <path
       d="m 405.06378,703.70787 -2.18976,0.34725"
       id="path328"
       style="fill:none;stroke:#000000" />
    <path
       d="m 402.87402,704.05512 -2.18977,-0.34725"
       id="path330"
       style="fill:none;stroke:#000000" />
    <path
       d="m 400.68425,703.70787 -1.97716,-1.00629"
       id="path332"
       style="fill:none;stroke:#000000" />
    <path
       d="m 398.70709,702.70158 -1.56615,-1.56615"
       id="path334"
       style="fill:none;stroke:#000000" />
    <path
       d="m 397.14094,701.13543 -1.00629,-1.97716"
       id="path336"
       style="fill:none;stroke:#000000" />
    <path
       d="M 396.13465,699.15827 395.7874,696.9685"
       id="path338"
       style="fill:none;stroke:#000000" />
    <path
       d="m 734.52756,1039.252 0.34724,-2.1898"
       id="path340"
       style="fill:none;stroke:#000000" />
    <path
       d="m 734.8748,1037.0622 1.0063,-1.9772"
       id="path342"
       style="fill:none;stroke:#000000" />
    <path
       d="m 735.8811,1035.085 1.56614,-1.5661"
       id="path344"
       style="fill:none;stroke:#000000" />
    <path
       d="m 737.44724,1033.5189 1.97717,-1.0063"
       id="path346"
       style="fill:none;stroke:#000000" />
    <path
       d="m 739.42441,1032.5126 2.18976,-0.3472"
       id="path348"
       style="fill:none;stroke:#000000" />
    <path
       d="m 741.61417,1032.1654 2.18977,0.3472"
       id="path350"
       style="fill:none;stroke:#000000" />
    <path
       d="m 743.80394,1032.5126 1.97716,1.0063"
       id="path352"
       style="fill:none;stroke:#000000" />
    <path
       d="m 745.7811,1033.5189 1.56614,1.5661"
       id="path354"
       style="fill:none;stroke:#000000" />
    <path
       d="m 747.34724,1035.085 1.0063,1.9772"
       id="path356"
       style="fill:none;stroke:#000000" />
    <path
       d="m 748.35354,1037.0622 0.34725,2.1898"
       id="path358"
       style="fill:none;stroke:#000000" />
    <path
       d="m 748.70079,1039.252 -0.34725,2.1897"
       id="path360"
       style="fill:none;stroke:#000000" />
    <path
       d="m 748.35354,1041.4417 -1.0063,1.9772"
       id="path362"
       style="fill:none;stroke:#000000" />
    <path
       d="m 747.34724,1043.4189 -1.56614,1.5661"
       id="path364"
       style="fill:none;stroke:#000000" />
    <path
       d="m 745.7811,1044.985 -1.97716,1.0063"
       id="path366"
       style="fill:none;stroke:#000000" />
    <path
       d="m 743.80394,1045.9913 -2.18977,0.3473"
       id="path368"
       style="fill:none;stroke:#000000" />
    <path
       d="m 741.61417,1046.3386 -2.18976,-0.3473"
       id="path370"
       style="fill:none;stroke:#000000" />
    <path
       d="m 739.42441,1045.9913 -1.97717,-1.0063"
       id="path372"
       style="fill:none;stroke:#000000" />
    <path
       d="m 737.44724,1044.985 -1.56614,-1.5661"
       id="path374"
       style="fill:none;stroke:#000000" />
    <path
       d="m 735.8811,1043.4189 -1.0063,-1.9772"
       id="path376"
       style="fill:none;stroke:#000000" />
    <path
       d="m 734.8748,1041.4417 -0.34724,-2.1897"
       id="path378"
       style="fill:none;stroke:#000000" />
    <path
       d="m 734.52756,696.9685 0.34724,-2.18976"
       id="path380"
       style="fill:none;stroke:#000000" />
    <path
       d="m 734.8748,694.77874 1.0063,-1.97717"
       id="path382"
       style="fill:none;stroke:#000000" />
    <path
       d="m 735.8811,692.80157 1.56614,-1.56614"
       id="path384"
       style="fill:none;stroke:#000000" />
    <path
       d="m 737.44724,691.23543 1.97717,-1.0063"
       id="path386"
       style="fill:none;stroke:#000000" />
    <path
       d="m 739.42441,690.22913 2.18976,-0.34724"
       id="path388"
       style="fill:none;stroke:#000000" />
    <path
       d="m 741.61417,689.88189 2.18977,0.34724"
       id="path390"
       style="fill:none;stroke:#000000" />
    <path
       d="m 743.80394,690.22913 1.97716,1.0063"
       id="path392"
       style="fill:none;stroke:#000000" />
    <path
       d="m 745.7811,691.23543 1.56614,1.56614"
       id="path394"
       style="fill:none;stroke:#000000" />
    <path
       d="m 747.34724,692.80157 1.0063,1.97717"
       id="path396"
       style="fill:none;stroke:#000000" />
    <path
       d="m 748.35354,694.77874 0.34725,2.18976"
       id="path398"
       style="fill:none;stroke:#000000" />
    <path
       d="m 748.70079,696.9685 -0.34725,2.18977"
       id="path400"
       style="fill:none;stroke:#000000" />
    <path
       d="m 748.35354,699.15827 -1.0063,1.97716"
       id="path402"
       style="fill:none;stroke:#000000" />
    <path
       d="m 747.34724,701.13543 -1.56614,1.56615"
       id="path404"
       style="fill:none;stroke:#000000" />
    <path
       d="m 745.7811,702.70158 -1.97716,1.00629"
       id="path406"
       style="fill:none;stroke:#000000" />
    <path
       d="m 743.80394,703.70787 -2.18977,0.34725"
       id="path408"
       style="fill:none;stroke:#000000" />
    <path
       d="m 741.61417,704.05512 -2.18976,-0.34725"
       id="path410"
       style="fill:none;stroke:#000000" />
    <path
       d="m 739.42441,703.70787 -1.97717,-1.00629"
       id="path412"
       style="fill:none;stroke:#000000" />
    <path
       d="m 737.44724,702.70158 -1.56614,-1.56615"
       id="path414"
       style="fill:none;stroke:#000000" />
    <path
       d="m 735.8811,701.13543 -1.0063,-1.97716"
       id="path416"
       style="fill:none;stroke:#000000" />
    <path
       d="m 734.8748,699.15827 -0.34724,-2.18977"
       id="path418"
       style="fill:none;stroke:#000000" />
    <g
       id="g4534">
      <path
         d="m 345.11102,699.15827 -0.34724,-2.18977 m 1.35354,4.16693 -1.0063,-1.97716 m 2.57244,3.54331 -1.56614,-1.56615 m 3.54331,2.57244 -1.97717,-1.00629 m 4.16693,1.35354 -2.18976,-0.34725 m 4.37953,0 -2.18977,0.34725 m 4.16693,-1.35354 -1.97716,1.00629 m 3.5433,-2.57244 -1.56614,1.56615 m 2.57244,-3.54331 -1.0063,1.97716 m 1.35355,-4.16693 -0.34725,2.18977 m 0,-4.37953 0.34725,2.18976 m -1.35355,-4.16693 1.0063,1.97717 m -2.57244,-3.54331 1.56614,1.56614 m -3.5433,-2.57244 1.97716,1.0063 m -4.16693,-1.35354 2.18977,0.34724 m -4.37953,0 2.18976,-0.34724 m -4.16693,1.35354 1.97717,-1.0063 m -3.54331,2.57244 1.56614,-1.56614 m -2.57244,3.54331 1.0063,-1.97717 m -1.35354,4.16693 0.34724,-2.18976 m 0,346.66296 -0.34724,-2.1897 m 1.35354,4.1669 -1.0063,-1.9772 m 2.57244,3.5433 -1.56614,-1.5661 m 3.54331,2.5724 -1.97717,-1.0063 m 4.16693,1.3536 -2.18976,-0.3473 m 4.37953,0 -2.18977,0.3473 m 4.16693,-1.3536 -1.97716,1.0063 m 3.5433,-2.5724 -1.56614,1.5661 m 2.57244,-3.5433 -1.0063,1.9772 m 1.35355,-4.1669 -0.34725,2.1897 m 0,-4.3795 0.34725,2.1898 m -1.35355,-4.167 1.0063,1.9772 m -2.57244,-3.5433 1.56614,1.5661 m -3.5433,-2.5724 1.97716,1.0063 m -4.16693,-1.3535 2.18977,0.3472 m -4.37953,0 2.18976,-0.3472 m -4.16693,1.3535 1.97717,-1.0063 m -3.54331,2.5724 1.56614,-1.5661 m -2.57244,3.5433 1.0063,-1.9772 m -1.35354,4.167 0.34724,-2.1898 M 6.370866,699.15827 6.023622,696.9685 m 1.353543,4.16693 -1.006299,-1.97716 m 2.572441,3.54331 -1.566142,-1.56615 m 3.543307,2.57244 -1.977165,-1.00629 m 4.166929,1.35354 -2.189764,-0.34725 m 4.379528,0 -2.189764,0.34725 M 17.277165,702.70158 15.3,703.70787 m 3.543307,-2.57244 -1.566142,1.56615 m 2.572441,-3.54331 -1.006299,1.97716 m 1.353543,-4.16693 -0.347244,2.18977 m 0,-4.37953 0.347244,2.18976 m -1.353543,-4.16693 1.006299,1.97717 m -2.572441,-3.54331 1.566142,1.56614 M 15.3,690.22913 l 1.977165,1.0063 M 13.110236,689.88189 15.3,690.22913 m -4.379528,0 2.189764,-0.34724 m -4.166929,1.35354 1.977165,-1.0063 m -3.543307,2.57244 1.566142,-1.56614 m -2.572441,3.54331 1.006299,-1.97717 m -1.353543,4.16693 0.347244,-2.18976 m 0,346.66296 -0.347244,-2.1897 m 1.353543,4.1669 -1.006299,-1.9772 m 2.572441,3.5433 -1.566142,-1.5661 m 3.543307,2.5724 -1.977165,-1.0063 m 4.166929,1.3536 -2.189764,-0.3473 m 4.379528,0 -2.189764,0.3473 m 4.166929,-1.3536 -1.977165,1.0063 m 3.543307,-2.5724 -1.566142,1.5661 m 2.572441,-3.5433 -1.006299,1.9772 m 1.353543,-4.1669 -0.347244,2.1897 m 0,-4.3795 0.347244,2.1898 m -1.353543,-4.167 1.006299,1.9772 m -2.572441,-3.5433 1.566142,1.5661 M 15.3,1032.5126 l 1.977165,1.0063 m -4.166929,-1.3535 2.189764,0.3472 m -4.379528,0 2.189764,-0.3472 m -4.166929,1.3535 1.977165,-1.0063 m -3.543307,2.5724 1.566142,-1.5661 m -2.572441,3.5433 1.006299,-1.9772 m -1.353543,4.167 0.347244,-2.1898 M 2.030315,1047.9791 0,1041.7323 m 7.345276,10.109 -5.314961,-3.8622 m 8.599606,3.8622 -3.284645,0 m 3.284645,0.5209 0,-0.5209 m 343.700789,0.5209 -343.700789,0 m 343.700789,-0.5209 0,0.5209 m 3.28464,-0.5209 -3.28464,0 m 8.5996,-3.8622 -5.31496,3.8622 m 7.34528,-10.109 -2.03032,6.2468 m 2.03032,-353.49091 0,347.24411 m -2.03032,-353.49096 2.03032,6.24685 m -7.34528,-10.10906 5.31496,3.86221 m -8.5996,-3.86221 3.28464,0 m -3.28464,-0.52086 0,0.52086 m -343.700789,-0.52086 343.700789,0 m -343.700789,0.52086 0,-0.52086 m -3.284645,0.52086 3.284645,0 m -8.599606,3.86221 5.314961,-3.86221 M 0,694.48819 2.030315,688.24134 M 0,1041.7323 0,694.48819"
         id="path218"
         style="fill:none;stroke:#ffff00" />
      <text
         x="122.86411"
         y="1045.4727"
         id="text4185"
         xml:space="preserve"
         style="font-size:40px;font-style:normal;font-variant:normal;font-weight:bold;font-stretch:normal;line-height:125%;letter-spacing:0px;word-spacing:0px;fill:#00ff00;fill-opacity:1;stroke:none;font-family:Garoa Hacker Clube;-inkscape-font-specification:Garoa Hacker Clube Bold"><tspan
           x="122.86411"
           y="1045.4727"
           id="tspan4187">USB</tspan></text>
      <text
         x="-1002.9514"
         y="356.5838"
         transform="matrix(0,-1,1,0,0,0)"
         id="text4189"
         xml:space="preserve"
         style="font-size:21.78337669px;font-style:normal;font-variant:normal;font-weight:bold;font-stretch:normal;line-height:125%;letter-spacing:0px;word-spacing:0px;fill:#00ff00;fill-opacity:1;stroke:none;font-family:Garoa Hacker Clube;-inkscape-font-specification:Garoa Hacker Clube Bold"><tspan
           x="-1002.9514"
           y="356.5838"
           id="tspan4191">x</tspan></text>
      <text
         x="-934.31982"
         y="329.20929"
         transform="matrix(0,-1,1,0,0,0)"
         id="text4193"
         xml:space="preserve"
         style="font-size:27.63957214px;font-style:normal;font-variant:normal;font-weight:bold;font-stretch:normal;line-height:125%;letter-spacing:0px;word-spacing:0px;fill:#00ff00;fill-opacity:1;stroke:none;font-family:Garoa Hacker Clube;-inkscape-font-specification:Garoa Hacker Clube Bold"><tspan
           x="-934.31982"
           y="329.20929"
           id="tspan4195">motores</tspan></text>
      <text
         x="-253.77867"
         y="-744.33014"
         transform="scale(-1,-1)"
         id="text4197"
         xml:space="preserve"
         style="font-size:18.79752541px;font-style:normal;font-variant:normal;font-weight:bold;font-stretch:normal;line-height:125%;letter-spacing:0px;word-spacing:0px;fill:#00ff00;fill-opacity:1;stroke:none;font-family:Garoa Hacker Clube;-inkscape-font-specification:Garoa Hacker Clube Bold"><tspan
           x="-253.77867"
           y="-744.33014"
           id="tspan4199">termistores</tspan></text>
      <text
         x="-166.31049"
         y="-711.83875"
         transform="scale(-1,-1)"
         id="text4201"
         xml:space="preserve"
         style="font-size:20.81359482px;font-style:normal;font-variant:normal;font-weight:bold;font-stretch:normal;line-height:125%;letter-spacing:0px;word-spacing:0px;fill:#00ff00;fill-opacity:1;stroke:none;font-family:Garoa Hacker Clube;-inkscape-font-specification:Garoa Hacker Clube Bold"><tspan
           x="-166.31049"
           y="-711.83875"
           id="tspan4203">alimentação</tspan></text>
      <text
         x="838.74872"
         y="-29.831844"
         transform="matrix(0,1,-1,0,0,0)"
         id="text4205"
         xml:space="preserve"
         style="font-size:25.13718224px;font-style:normal;font-variant:normal;font-weight:bold;font-stretch:normal;line-height:125%;letter-spacing:0px;word-spacing:0px;fill:#00ff00;fill-opacity:1;stroke:none;font-family:Garoa Hacker Clube;-inkscape-font-specification:Garoa Hacker Clube Bold"><tspan
           x="838.74872"
           y="-29.831844"
           id="tspan4207">aquecimento</tspan></text>
      <g
         id="g4464">
        <path
           d="m 8.8591252,823.54498 c 1.0388327,0 1.9898798,-0.42432 2.6921888,-1.12663 0.380418,0.13169 0.775468,0.20484 1.185148,0.20484 1.931351,0 3.49692,-1.59483 3.49692,-3.55544 0,0 0,-1.33146 0,-1.33146 0,-0.76084 -0.614523,-1.37536 -1.360726,-1.37536 l -8.4277219,0 c -0.7608352,0 -1.3753574,0.61452 -1.3753574,1.37536 l 0,2.01914 c 0,2.0923 1.6972516,3.78955 3.7895485,3.78955 m -1.0534652,-3.78955 0,-0.64379 5.691638,0 c -0.01463,0.40968 -0.365787,0.77547 -0.760836,0.77547 -0.292629,0 -0.482838,-0.16094 -0.570627,-0.26336 -0.321891,-0.36579 -0.819362,-0.52674 -1.3022,-0.43895 -0.482837,0.10242 -0.863256,0.43895 -1.0242019,0.90715 -0.1463145,0.42431 -0.5413645,0.71694 -0.9803079,0.71694 -0.5852579,0 -1.0534652,-0.4682 -1.0534652,-1.05346"
           id="path4416"
           style="font-size:14.63146114px;font-style:normal;font-variant:normal;font-weight:bold;font-stretch:normal;line-height:125%;letter-spacing:0px;word-spacing:0px;fill:#00ff00;fill-opacity:1;stroke:none;font-family:Garoa Hacker Clube;-inkscape-font-specification:Garoa Hacker Clube Bold" />
        <path
           d="m 16.482116,827.96665 c 0,-2.10693 -1.726514,-3.83344 -3.833442,-3.83344 l -6.2183714,0 c -0.7608352,0 -1.3753573,0.61452 -1.3753573,1.37535 0,0.74621 0.6145221,1.36073 1.3753573,1.36073 l 2.063036,0 0,2.19472 -2.063036,0 c -0.7608352,0 -1.3753573,0.61452 -1.3753573,1.37536 0,0.7462 0.6145221,1.36072 1.3753573,1.36072 l 6.2183714,0 c 2.106928,0 3.833442,-1.71188 3.833442,-3.83344 m -5.252694,-1.09736 1.419252,0 c 0.599889,0 1.097359,0.49747 1.097359,1.09736 0,0.61452 -0.49747,1.09736 -1.097359,1.09736 l -1.419252,0 0,-2.19472"
           id="path4418"
           style="font-size:14.63146114px;font-style:normal;font-variant:normal;font-weight:bold;font-stretch:normal;line-height:125%;letter-spacing:0px;word-spacing:0px;fill:#00ff00;fill-opacity:1;stroke:none;font-family:Garoa Hacker Clube;-inkscape-font-specification:Garoa Hacker Clube Bold" />
        <path
           d="m 9.0493342,832.50355 c -0.1755774,-0.0293 -0.3657867,-0.0293 -0.5413641,-0.0293 -2.1215597,0.0732 -3.7749169,1.8582 -3.7017597,3.97976 0.029263,1.0242 0.4682075,1.97525 1.2144113,2.66293 0.7462038,0.70231 1.7265135,1.06809 2.7507147,1.03883 2.1215596,-0.0732 3.7749166,-1.8582 3.7017596,-3.97976 0,-0.33652 0.263367,-0.62915 0.614521,-0.64378 0.336524,-0.0146 0.629153,0.26336 0.643785,0.59989 0.01463,0.30726 -0.19021,0.57063 -0.468207,0.64378 l 0,0 c -0.731572,0.17558 -1.185148,0.92179 -0.994939,1.65336 0.175577,0.73157 0.921782,1.18515 1.653355,0.99494 l 0,0 c 1.536302,-0.38042 2.6044,-1.79967 2.545874,-3.37987 -0.05853,-1.85819 -1.624094,-3.30671 -3.482288,-3.24819 -1.843562,0.0585 -3.3067099,1.6241 -3.2481842,3.48229 0.029263,0.59989 -0.4535759,1.11199 -1.0534652,1.14126 -0.2926289,0 -0.5706272,-0.10242 -0.7900989,-0.29263 -0.2194717,-0.20484 -0.3365236,-0.48284 -0.351155,-0.77547 -0.029263,-0.59989 0.4535759,-1.11199 1.0680966,-1.14125 0.043894,0 0.1024203,0 0.1463146,0.0146 l 0,0 c 0.7608353,0.0731 1.4338831,-0.46821 1.5070401,-1.22905 0.07316,-0.7462 -0.4682071,-1.41925 -1.2144108,-1.4924"
           id="path4420"
           style="font-size:14.63146114px;font-style:normal;font-variant:normal;font-weight:bold;font-stretch:normal;line-height:125%;letter-spacing:0px;word-spacing:0px;fill:#00ff00;fill-opacity:1;stroke:none;font-family:Garoa Hacker Clube;-inkscape-font-specification:Garoa Hacker Clube Bold" />
        <path
           d="m 7.80566,846.07697 0,-2.13619 c 0,-0.29263 0.2341036,-0.51211 0.5121011,-0.51211 l 1.4192517,0 0,1.93136 c 0,0.76083 0.6145222,1.37536 1.3753572,1.37536 0.746204,0 1.360726,-0.61453 1.360726,-1.37536 l 0,-1.93136 0.512101,0 c 0.277998,0 0.512101,0.21948 0.512101,0.51211 l 0,1.90209 c 0,0.7462 0.614522,1.36072 1.375358,1.36072 0.746203,0 1.360726,-0.61452 1.360726,-1.36072 l 0,-1.90209 c 0,-1.79967 -1.448517,-3.24819 -3.248185,-3.24819 l -4.6674359,0 c -1.7850365,0 -3.2481844,1.44852 -3.2481844,3.24819 l 0,2.13619 c 0,0.7462 0.6145222,1.36073 1.3753574,1.36073 0.7462038,0 1.3607259,-0.61453 1.3607259,-1.36073"
           id="path4422"
           style="font-size:14.63146114px;font-style:normal;font-variant:normal;font-weight:bold;font-stretch:normal;line-height:125%;letter-spacing:0px;word-spacing:0px;fill:#00ff00;fill-opacity:1;stroke:none;font-family:Garoa Hacker Clube;-inkscape-font-specification:Garoa Hacker Clube Bold" />
      </g>
      <g
         transform="translate(0,-16.075677)"
         id="g4470">
        <path
           d="m 13.482667,885.06267 c 0,0.7462 0.614522,1.36073 1.375357,1.36073 0.746204,0 1.360726,-0.61453 1.360726,-1.36073 l 0,-3.78955 c 0,-0.76083 -0.614522,-1.37536 -1.360726,-1.37536 l -8.4277214,0 c -0.7608352,0 -1.3753573,0.61453 -1.3753573,1.37536 0,0.76084 0.6145221,1.37536 1.3753573,1.37536 l 3.2920788,0 0,1.93135 c 0,0.76084 0.6145226,1.37536 1.3753576,1.37536 0.760835,0 1.360726,-0.61452 1.360726,-1.37536 l 0,-1.93135 1.024202,0 0,2.41419"
           id="path4424"
           style="font-size:14.63146114px;font-style:normal;font-variant:normal;font-weight:bold;font-stretch:normal;line-height:125%;letter-spacing:0px;word-spacing:0px;fill:#00ff00;fill-opacity:1;stroke:none;font-family:Garoa Hacker Clube;-inkscape-font-specification:Garoa Hacker Clube Bold" />
        <path
           d="m 16.482116,890.47471 c 0,-2.10693 -1.726514,-3.83344 -3.833442,-3.83344 l -6.2183714,0 c -0.7608352,0 -1.3753573,0.61452 -1.3753573,1.37535 0,0.74621 0.6145221,1.36073 1.3753573,1.36073 l 2.063036,0 0,2.19472 -2.063036,0 c -0.7608352,0 -1.3753573,0.61452 -1.3753573,1.37536 0,0.7462 0.6145221,1.36072 1.3753573,1.36072 l 6.2183714,0 c 2.106928,0 3.833442,-1.71188 3.833442,-3.83344 m -5.252694,-1.09736 1.419252,0 c 0.599889,0 1.097359,0.49747 1.097359,1.09736 0,0.61452 -0.49747,1.09736 -1.097359,1.09736 l -1.419252,0 0,-2.19472"
           id="path4426"
           style="font-size:14.63146114px;font-style:normal;font-variant:normal;font-weight:bold;font-stretch:normal;line-height:125%;letter-spacing:0px;word-spacing:0px;fill:#00ff00;fill-opacity:1;stroke:none;font-family:Garoa Hacker Clube;-inkscape-font-specification:Garoa Hacker Clube Bold" />
        <path
           d="m 16.233382,901.40556 c 0,-0.76084 -0.614523,-1.37536 -1.375358,-1.37536 l -3.335973,0 4.023652,-2.3264 c 0.526732,-0.30726 0.790099,-0.93642 0.629153,-1.53631 -0.160946,-0.59989 -0.702311,-1.00957 -1.316832,-1.00957 l -8.4277214,0 c -0.7462037,0 -1.3607259,0.61452 -1.3607259,1.36073 0,0.76083 0.6145222,1.37536 1.3607259,1.37536 l 3.3359732,0 -4.0236518,2.3264 c -0.5267321,0.30726 -0.7900988,0.93641 -0.6291529,1.5363 0.1609459,0.59989 0.7023108,1.00957 1.3168315,1.00957 l 8.4277214,0 c 0.760835,0 1.375358,-0.61452 1.375358,-1.36072"
           id="path4428"
           style="font-size:14.63146114px;font-style:normal;font-variant:normal;font-weight:bold;font-stretch:normal;line-height:125%;letter-spacing:0px;word-spacing:0px;fill:#00ff00;fill-opacity:1;stroke:none;font-family:Garoa Hacker Clube;-inkscape-font-specification:Garoa Hacker Clube Bold" />
        <path
           d="m 16.204119,907.1276 c 0.219471,-0.5121 0.10242,-1.11199 -0.29263,-1.49241 l -2.019141,-2.01914 c -0.526732,-0.54137 -1.404621,-0.54137 -1.931353,0 -0.438943,0.43894 -0.526732,1.09736 -0.234103,1.60946 l -5.3697467,0 c -0.7608352,0 -1.3753573,0.61452 -1.3753573,1.37536 0,0.7462 0.6145221,1.36072 1.3753573,1.36072 l 8.5886677,0 c 0.555995,0 1.053465,-0.33652 1.258306,-0.83399"
           id="path4430"
           style="font-size:14.63146114px;font-style:normal;font-variant:normal;font-weight:bold;font-stretch:normal;line-height:125%;letter-spacing:0px;word-spacing:0px;fill:#00ff00;fill-opacity:1;stroke:none;font-family:Garoa Hacker Clube;-inkscape-font-specification:Garoa Hacker Clube Bold" />
      </g>
      <g
         transform="translate(0,-1.7223939)"
         id="g4476">
        <path
           d="m 7.80566,918.67548 0,-2.67756 1.9313528,0 0,1.93136 c 0,0.76083 0.6145222,1.37535 1.3753572,1.37535 0.760835,0 1.360726,-0.61452 1.360726,-1.37535 l 0,-1.93136 1.024202,0 0,2.4142 c 0,0.7462 0.614522,1.36072 1.375358,1.36072 0.746203,0 1.360726,-0.61452 1.360726,-1.36072 l 0,-3.78955 c 0,-0.76084 -0.614523,-1.37536 -1.360726,-1.37536 l -8.4277219,0 c -0.7608352,0 -1.3753574,0.61452 -1.3753574,1.37536 l 0,4.05291 c 0,0.74621 0.6145222,1.36073 1.3753574,1.36073 0.7608352,0 1.3607259,-0.61452 1.3607259,-1.36073"
           id="path4432"
           style="font-size:14.63146114px;font-style:normal;font-variant:normal;font-weight:bold;font-stretch:normal;line-height:125%;letter-spacing:0px;word-spacing:0px;fill:#00ff00;fill-opacity:1;stroke:none;font-family:Garoa Hacker Clube;-inkscape-font-specification:Garoa Hacker Clube Bold" />
        <path
           d="m 16.204119,923.75946 c 0.219471,-0.5121 0.10242,-1.11199 -0.29263,-1.49241 l -2.019141,-2.01914 c -0.526732,-0.54137 -1.404621,-0.54137 -1.931353,0 -0.438943,0.43894 -0.526732,1.09736 -0.234103,1.60946 l -5.3697467,0 c -0.7608352,0 -1.3753573,0.61452 -1.3753573,1.37536 0,0.7462 0.6145221,1.36072 1.3753573,1.36072 l 8.5886677,0 c 0.555995,0 1.053465,-0.33652 1.258306,-0.83399"
           id="path4434"
           style="font-size:14.63146114px;font-style:normal;font-variant:normal;font-weight:bold;font-stretch:normal;line-height:125%;letter-spacing:0px;word-spacing:0px;fill:#00ff00;fill-opacity:1;stroke:none;font-family:Garoa Hacker Clube;-inkscape-font-specification:Garoa Hacker Clube Bold" />
      </g>
      <g
         transform="translate(0,12.056758)"
         id="g4480">
        <path
           d="m 13.482667,935.04397 c 0,0.74621 0.614522,1.36073 1.375357,1.36073 0.746204,0 1.360726,-0.61452 1.360726,-1.36073 l 0,-3.78954 c 0,-0.76084 -0.614522,-1.37536 -1.360726,-1.37536 l -8.4277214,0 c -0.7608352,0 -1.3753573,0.61452 -1.3753573,1.37536 0,0.76083 0.6145221,1.37535 1.3753573,1.37535 l 3.2920788,0 0,1.93136 c 0,0.76083 0.6145226,1.37535 1.3753576,1.37535 0.760835,0 1.360726,-0.61452 1.360726,-1.37535 l 0,-1.93136 1.024202,0 0,2.41419"
           id="path4436"
           style="font-size:14.63146114px;font-style:normal;font-variant:normal;font-weight:bold;font-stretch:normal;line-height:125%;letter-spacing:0px;word-spacing:0px;fill:#00ff00;fill-opacity:1;stroke:none;font-family:Garoa Hacker Clube;-inkscape-font-specification:Garoa Hacker Clube Bold" />
        <path
           d="m 16.482116,940.45601 c 0,-2.10692 -1.726514,-3.83344 -3.833442,-3.83344 l -6.2183714,0 c -0.7608352,0 -1.3753573,0.61452 -1.3753573,1.37536 0,0.7462 0.6145221,1.36072 1.3753573,1.36072 l 2.063036,0 0,2.19472 -2.063036,0 c -0.7608352,0 -1.3753573,0.61453 -1.3753573,1.37536 0,0.74621 0.6145221,1.36073 1.3753573,1.36073 l 6.2183714,0 c 2.106928,0 3.833442,-1.71189 3.833442,-3.83345 m -5.252694,-1.09736 1.419252,0 c 0.599889,0 1.097359,0.49748 1.097359,1.09736 0,0.61453 -0.49747,1.09736 -1.097359,1.09736 l -1.419252,0 0,-2.19472"
           id="path4438"
           style="font-size:14.63146114px;font-style:normal;font-variant:normal;font-weight:bold;font-stretch:normal;line-height:125%;letter-spacing:0px;word-spacing:0px;fill:#00ff00;fill-opacity:1;stroke:none;font-family:Garoa Hacker Clube;-inkscape-font-specification:Garoa Hacker Clube Bold" />
        <path
           d="m 16.233382,951.38686 c 0,-0.76084 -0.614523,-1.37536 -1.375358,-1.37536 l -3.335973,0 4.023652,-2.3264 c 0.526732,-0.30726 0.790099,-0.93642 0.629153,-1.53631 -0.160946,-0.59989 -0.702311,-1.00957 -1.316832,-1.00957 l -8.4277214,0 c -0.7462037,0 -1.3607259,0.61453 -1.3607259,1.36073 0,0.76083 0.6145222,1.37536 1.3607259,1.37536 l 3.3359732,0 -4.0236518,2.3264 c -0.5267321,0.30726 -0.7900988,0.93641 -0.6291529,1.5363 0.1609459,0.59989 0.7023108,1.00957 1.3168315,1.00957 l 8.4277214,0 c 0.760835,0 1.375358,-0.61452 1.375358,-1.36072"
           id="path4440"
           style="font-size:14.63146114px;font-style:normal;font-variant:normal;font-weight:bold;font-stretch:normal;line-height:125%;letter-spacing:0px;word-spacing:0px;fill:#00ff00;fill-opacity:1;stroke:none;font-family:Garoa Hacker Clube;-inkscape-font-specification:Garoa Hacker Clube Bold" />
        <path
           d="m 8.6396533,958.46963 c -0.5998893,0 -1.0973596,-0.48284 -1.0973596,-1.09736 0,-0.59989 0.4974703,-1.09736 1.0973596,-1.09736 l 4.0090207,0 c 0.61452,0 1.097359,0.49747 1.097359,1.09736 0,0.61452 -0.482839,1.09736 -1.097359,1.09736 l -4.0090207,0 m 4.0090207,2.73608 c 2.121559,0 3.833442,-1.71188 3.833442,-3.83344 0,-2.10693 -1.711883,-3.83345 -3.833442,-3.83345 l -4.0090207,0 c -2.1069283,0 -3.8334429,1.72652 -3.8334429,3.83345 0,2.12156 1.7265146,3.83344 3.8334429,3.83344 l 4.0090207,0"
           id="path4442"
           style="font-size:14.63146114px;font-style:normal;font-variant:normal;font-weight:bold;font-stretch:normal;line-height:125%;letter-spacing:0px;word-spacing:0px;fill:#00ff00;fill-opacity:1;stroke:none;font-family:Garoa Hacker Clube;-inkscape-font-specification:Garoa Hacker Clube Bold" />
      </g>
      <g
         transform="translate(0,27.558303)"
         id="g4486">
        <path
           d="m 7.80566,971.71178 0,-2.13619 c 0,-0.29263 0.2341036,-0.5121 0.5121011,-0.5121 l 1.4192517,0 0,1.93135 c 0,0.76083 0.6145222,1.37536 1.3753572,1.37536 0.746204,0 1.360726,-0.61453 1.360726,-1.37536 l 0,-1.93135 0.512101,0 c 0.277998,0 0.512101,0.21947 0.512101,0.5121 l 0,1.90209 c 0,0.7462 0.614522,1.36072 1.375358,1.36072 0.746203,0 1.360726,-0.61452 1.360726,-1.36072 l 0,-1.90209 c 0,-1.79967 -1.448517,-3.24819 -3.248185,-3.24819 l -4.6674359,0 c -1.7850365,0 -3.2481844,1.44852 -3.2481844,3.24819 l 0,2.13619 c 0,0.7462 0.6145222,1.36073 1.3753574,1.36073 0.7462038,0 1.3607259,-0.61453 1.3607259,-1.36073"
           id="path4444"
           style="font-size:14.63146114px;font-style:normal;font-variant:normal;font-weight:bold;font-stretch:normal;line-height:125%;letter-spacing:0px;word-spacing:0px;fill:#00ff00;fill-opacity:1;stroke:none;font-family:Garoa Hacker Clube;-inkscape-font-specification:Garoa Hacker Clube Bold" />
        <path
           d="m 8.6396533,978.18781 c -0.5998893,0 -1.0973596,-0.48284 -1.0973596,-1.09736 0,-0.59989 0.4974703,-1.09736 1.0973596,-1.09736 l 4.0090207,0 c 0.61452,0 1.097359,0.49747 1.097359,1.09736 0,0.61452 -0.482839,1.09736 -1.097359,1.09736 l -4.0090207,0 m 4.0090207,2.73608 c 2.121559,0 3.833442,-1.71188 3.833442,-3.83344 0,-2.10693 -1.711883,-3.83344 -3.833442,-3.83344 l -4.0090207,0 c -2.1069283,0 -3.8334429,1.72651 -3.8334429,3.83344 0,2.12156 1.7265146,3.83344 3.8334429,3.83344 l 4.0090207,0"
           id="path4446"
           style="font-size:14.63146114px;font-style:normal;font-variant:normal;font-weight:bold;font-stretch:normal;line-height:125%;letter-spacing:0px;word-spacing:0px;fill:#00ff00;fill-opacity:1;stroke:none;font-family:Garoa Hacker Clube;-inkscape-font-specification:Garoa Hacker Clube Bold" />
      </g>
      <text
         x="-162.61885"
         y="-688.66309"
         transform="scale(-1,-1)"
         id="text4213"
         xml:space="preserve"
         style="font-size:9.31066608px;font-style:normal;font-variant:normal;font-weight:bold;font-stretch:normal;line-height:125%;letter-spacing:0px;word-spacing:0px;fill:#00ff00;fill-opacity:1;stroke:none;font-family:Garoa Hacker Clube;-inkscape-font-specification:Garoa Hacker Clube Bold"><tspan
           x="-162.61885"
           y="-688.66309"
           id="tspan4215">+12v gnd +12v gnd +12v gnd</tspan></text>
      <text
         x="-162.61885"
         y="-699.57159"
         transform="scale(-1,-1)"
         id="text4217"
         xml:space="preserve"
         style="font-size:9.31066608px;font-style:normal;font-variant:normal;font-weight:bold;font-stretch:normal;line-height:125%;letter-spacing:0px;word-spacing:0px;fill:#00ff00;fill-opacity:1;stroke:none;font-family:Garoa Hacker Clube;-inkscape-font-specification:Garoa Hacker Clube Bold"><tspan
           x="-162.61885"
           y="-699.57159"
           id="tspan4219">motores</tspan></text>
      <text
         x="-114.96595"
         y="-699.57159"
         transform="scale(-1,-1)"
         id="text4221"
         xml:space="preserve"
         style="font-size:9.31066608px;font-style:normal;font-variant:normal;font-weight:bold;font-stretch:normal;line-height:125%;letter-spacing:0px;word-spacing:0px;fill:#00ff00;fill-opacity:1;stroke:none;font-family:Garoa Hacker Clube;-inkscape-font-specification:Garoa Hacker Clube Bold"><tspan
           x="-114.96595"
           y="-699.57159"
           id="tspan4223">bicos</tspan></text>
      <text
         x="-74.776756"
         y="-699.57159"
         transform="scale(-1,-1)"
         id="text4225"
         xml:space="preserve"
         style="font-size:9.31066608px;font-style:normal;font-variant:normal;font-weight:bold;font-stretch:normal;line-height:125%;letter-spacing:0px;word-spacing:0px;fill:#00ff00;fill-opacity:1;stroke:none;font-family:Garoa Hacker Clube;-inkscape-font-specification:Garoa Hacker Clube Bold"><tspan
           x="-74.776756"
           y="-699.57159"
           id="tspan4227">base</tspan></text>
      <text
         x="-950.70544"
         y="356.5838"
         transform="matrix(0,-1,1,0,0,0)"
         id="text4229"
         xml:space="preserve"
         style="font-size:21.78337669px;font-style:normal;font-variant:normal;font-weight:bold;font-stretch:normal;line-height:125%;letter-spacing:0px;word-spacing:0px;fill:#00ff00;fill-opacity:1;stroke:none;font-family:Garoa Hacker Clube;-inkscape-font-specification:Garoa Hacker Clube Bold"><tspan
           x="-950.70544"
           y="356.5838"
           id="tspan4231">y</tspan></text>
      <text
         x="-895.58887"
         y="356.5838"
         transform="matrix(0,-1,1,0,0,0)"
         id="text4233"
         xml:space="preserve"
         style="font-size:21.78337669px;font-style:normal;font-variant:normal;font-weight:bold;font-stretch:normal;line-height:125%;letter-spacing:0px;word-spacing:0px;fill:#00ff00;fill-opacity:1;stroke:none;font-family:Garoa Hacker Clube;-inkscape-font-specification:Garoa Hacker Clube Bold"><tspan
           x="-895.58887"
           y="356.5838"
           id="tspan4235">z</tspan></text>
      <text
         x="-804.30194"
         y="356.5838"
         transform="matrix(0,-1,1,0,0,0)"
         id="text4241"
         xml:space="preserve"
         style="font-size:21.78337669px;font-style:normal;font-variant:normal;font-weight:bold;font-stretch:normal;line-height:125%;letter-spacing:0px;word-spacing:0px;fill:#00ff00;fill-opacity:1;stroke:none;font-family:Garoa Hacker Clube;-inkscape-font-specification:Garoa Hacker Clube Bold"><tspan
           x="-804.30194"
           y="356.5838"
           id="tspan4243">e0</tspan></text>
      <text
         x="-744.59229"
         y="356.5838"
         transform="matrix(0,-1,1,0,0,0)"
         id="text4245"
         xml:space="preserve"
         style="font-size:21.78337669px;font-style:normal;font-variant:normal;font-weight:bold;font-stretch:normal;line-height:125%;letter-spacing:0px;word-spacing:0px;fill:#00ff00;fill-opacity:1;stroke:none;font-family:Garoa Hacker Clube;-inkscape-font-specification:Garoa Hacker Clube Bold"><tspan
           x="-744.59229"
           y="356.5838"
           id="tspan4247">e1</tspan></text>
      <text
         x="-851.9549"
         y="356.5838"
         transform="matrix(0,-1,1,0,0,0)"
         id="text4249"
         xml:space="preserve"
         style="font-size:21.78337669px;font-style:normal;font-variant:normal;font-weight:bold;font-stretch:normal;line-height:125%;letter-spacing:0px;word-spacing:0px;fill:#00ff00;fill-opacity:1;stroke:none;font-family:Garoa Hacker Clube;-inkscape-font-specification:Garoa Hacker Clube Bold"><tspan
           x="-851.9549"
           y="356.5838"
           id="tspan4251">z</tspan></text>
      <text
         x="-1047.6338"
         y="230.12433"
         transform="matrix(0,-1,1,0,0,0)"
         id="text4253"
         xml:space="preserve"
         style="font-size:16.30873871px;font-style:normal;font-variant:normal;font-weight:bold;font-stretch:normal;line-height:125%;letter-spacing:0px;word-spacing:0px;fill:#00ff00;fill-opacity:1;stroke:none;font-family:Garoa Hacker Clube;-inkscape-font-specification:Garoa Hacker Clube Bold"><tspan
           x="-1047.6338"
           y="230.12433"
           id="tspan4255">fim-de-curso</tspan></text>
      <g
         transform="translate(0,1.7223939)"
         id="g4286">
        <text
           x="-1039.7642"
           y="244.68251"
           transform="matrix(0,-1,1,0,0,0)"
           id="text4217-4"
           xml:space="preserve"
           style="font-size:9.31066608px;font-style:normal;font-variant:normal;font-weight:bold;font-stretch:normal;line-height:125%;letter-spacing:0px;word-spacing:0px;fill:#00ff00;fill-opacity:1;stroke:none;font-family:Garoa Hacker Clube;-inkscape-font-specification:Garoa Hacker Clube Bold"><tspan
             x="-1039.7642"
             y="244.68251"
             id="tspan4219-0">xmax</tspan></text>
        <text
           x="-1006.4645"
           y="244.68251"
           transform="matrix(0,-1,1,0,0,0)"
           id="text4278"
           xml:space="preserve"
           style="font-size:9.31066608px;font-style:normal;font-variant:normal;font-weight:bold;font-stretch:normal;line-height:125%;letter-spacing:0px;word-spacing:0px;fill:#00ff00;fill-opacity:1;stroke:none;font-family:Garoa Hacker Clube;-inkscape-font-specification:Garoa Hacker Clube Bold"><tspan
             x="-1006.4645"
             y="244.68251"
             id="tspan4280">ymax</tspan></text>
        <text
           x="-972.59076"
           y="244.68251"
           transform="matrix(0,-1,1,0,0,0)"
           id="text4282"
           xml:space="preserve"
           style="font-size:9.31066608px;font-style:normal;font-variant:normal;font-weight:bold;font-stretch:normal;line-height:125%;letter-spacing:0px;word-spacing:0px;fill:#00ff00;fill-opacity:1;stroke:none;font-family:Garoa Hacker Clube;-inkscape-font-specification:Garoa Hacker Clube Bold"><tspan
             x="-972.59076"
             y="244.68251"
             id="tspan4284">zmax</tspan></text>
      </g>
      <g
         transform="translate(-33.873747,0)"
         id="g4294">
        <text
           x="-1039.7642"
           y="244.68251"
           transform="matrix(0,-1,1,0,0,0)"
           id="text4296"
           xml:space="preserve"
           style="font-size:9.31066608px;font-style:normal;font-variant:normal;font-weight:bold;font-stretch:normal;line-height:125%;letter-spacing:0px;word-spacing:0px;fill:#00ff00;fill-opacity:1;stroke:none;font-family:Garoa Hacker Clube;-inkscape-font-specification:Garoa Hacker Clube Bold"><tspan
             x="-1039.7642"
             y="244.68251"
             id="tspan4298">xmin</tspan></text>
        <text
           x="-1006.4645"
           y="244.68251"
           transform="matrix(0,-1,1,0,0,0)"
           id="text4300"
           xml:space="preserve"
           style="font-size:9.31066608px;font-style:normal;font-variant:normal;font-weight:bold;font-stretch:normal;line-height:125%;letter-spacing:0px;word-spacing:0px;fill:#00ff00;fill-opacity:1;stroke:none;font-family:Garoa Hacker Clube;-inkscape-font-specification:Garoa Hacker Clube Bold"><tspan
             x="-1006.4645"
             y="244.68251"
             id="tspan4302">ymin</tspan></text>
        <text
           x="-972.59076"
           y="244.68251"
           transform="matrix(0,-1,1,0,0,0)"
           id="text4304"
           xml:space="preserve"
           style="font-size:9.31066608px;font-style:normal;font-variant:normal;font-weight:bold;font-stretch:normal;line-height:125%;letter-spacing:0px;word-spacing:0px;fill:#00ff00;fill-opacity:1;stroke:none;font-family:Garoa Hacker Clube;-inkscape-font-specification:Garoa Hacker Clube Bold"><tspan
             x="-972.59076"
             y="244.68251"
             id="tspan4306">zmin</tspan></text>
      </g>
      <text
         x="63.500534"
         y="1047.781"
         id="text4217-5"
         xml:space="preserve"
         style="font-size:14.34690571px;font-style:normal;font-variant:normal;font-weight:bold;font-stretch:normal;line-height:125%;letter-spacing:0px;word-spacing:0px;fill:#00ff00;fill-opacity:1;stroke:none;font-family:Garoa Hacker Clube;-inkscape-font-specification:Garoa Hacker Clube Bold"><tspan
           x="63.500534"
           y="1047.781"
           id="tspan4219-6">reset</tspan></text>
      <g
         transform="matrix(1.299586,0,0,1.299586,2.5714429,-275.56242)"
         id="g4398">
        <path
           d="m 85.55686,852.08934 -2.92053,0 0,-2.10661 2.10661,0 c 0.82988,0 1.50017,-0.67028 1.50017,-1.50016 0,-0.82988 -0.67029,-1.4842 -1.50017,-1.4842 l -2.10661,0 0,-1.11715 2.63327,0 c 0.81391,0 1.4842,-0.67028 1.4842,-1.50016 0,-0.81391 -0.67029,-1.4842 -1.4842,-1.4842 l -4.13343,0 c -0.82987,0 -1.50016,0.67029 -1.50016,1.4842 l 0,9.19248 c 0,0.82988 0.67029,1.50017 1.50016,1.50017 l 4.42069,0 c 0.81392,0 1.4842,-0.67029 1.4842,-1.50017 0,-0.82987 -0.67028,-1.4842 -1.4842,-1.4842"
           id="path4353"
           style="font-size:35.10170746px;font-style:normal;font-variant:normal;font-weight:bold;font-stretch:normal;line-height:125%;letter-spacing:0px;word-spacing:0px;fill:#00ff00;fill-opacity:1;stroke:none;font-family:Garoa Hacker Clube;-inkscape-font-specification:Garoa Hacker Clube Bold" />
        <path
           d="m 93.52048,852.08934 -2.92052,0 0,-7.70828 c 0,-0.81391 -0.67029,-1.4842 -1.50017,-1.4842 -0.81391,0 -1.4842,0.67029 -1.4842,1.4842 l 0,9.19248 c 0,0.82988 0.67029,1.50017 1.4842,1.50017 l 4.42069,0 c 0.82988,0 1.50017,-0.67029 1.50017,-1.50017 0,-0.82987 -0.67029,-1.4842 -1.50017,-1.4842"
           id="path4355"
           style="font-size:35.10170746px;font-style:normal;font-variant:normal;font-weight:bold;font-stretch:normal;line-height:125%;letter-spacing:0px;word-spacing:0px;fill:#00ff00;fill-opacity:1;stroke:none;font-family:Garoa Hacker Clube;-inkscape-font-specification:Garoa Hacker Clube Bold" />
        <path
           d="m 100.98314,852.08934 -2.33004,0 c -0.31918,0 -0.55857,-0.25535 -0.55857,-0.55857 l 0,-1.54804 2.10661,0 c 0.82988,0 1.50016,-0.67028 1.50016,-1.50016 0,-0.81392 -0.67028,-1.4842 -1.50016,-1.4842 l -2.10661,0 0,-0.55858 c 0,-0.30322 0.23939,-0.55857 0.55857,-0.55857 l 2.07469,0 c 0.81392,0 1.4842,-0.67028 1.4842,-1.50016 0,-0.81391 -0.67028,-1.4842 -1.4842,-1.4842 l -2.07469,0 c -1.96297,0 -3.54294,1.57996 -3.54294,3.54293 l 0,5.09098 c 0,1.94701 1.57997,3.54294 3.54294,3.54294 l 2.33004,0 c 0.81392,0 1.4842,-0.67029 1.4842,-1.50017 0,-0.81391 -0.67028,-1.4842 -1.4842,-1.4842"
           id="path4357"
           style="font-size:35.10170746px;font-style:normal;font-variant:normal;font-weight:bold;font-stretch:normal;line-height:125%;letter-spacing:0px;word-spacing:0px;fill:#00ff00;fill-opacity:1;stroke:none;font-family:Garoa Hacker Clube;-inkscape-font-specification:Garoa Hacker Clube Bold" />
        <path
           d="m 109.55695,842.89686 -5.52187,0 c -0.82987,0 -1.50016,0.67029 -1.50016,1.50016 0,0.81392 0.67029,1.4842 1.50016,1.4842 l 1.27673,0 0,7.72424 c 0,0.82988 0.67029,1.4842 1.48421,1.4842 0.82987,0 1.50016,-0.65432 1.50016,-1.4842 l 0,-7.72424 1.26077,0 c 0.82988,0 1.50016,-0.67028 1.50016,-1.4842 0,-0.82987 -0.67028,-1.50016 -1.50016,-1.50016"
           id="path4359"
           style="font-size:35.10170746px;font-style:normal;font-variant:normal;font-weight:bold;font-stretch:normal;line-height:125%;letter-spacing:0px;word-spacing:0px;fill:#00ff00;fill-opacity:1;stroke:none;font-family:Garoa Hacker Clube;-inkscape-font-specification:Garoa Hacker Clube Bold" />
        <path
           d="m 119.42296,846.98241 c 0,-2.25024 -1.83531,-4.08555 -4.10151,-4.08555 l -2.29812,0 c -0.82987,0 -1.50016,0.67029 -1.50016,1.50016 l 0,9.19248 c 0,0.81392 0.67029,1.48421 1.50016,1.48421 0.82988,0 1.48421,-0.67029 1.48421,-1.48421 l 0,-7.70828 0.81391,0 c 0.62241,0 1.11714,0.49474 1.11714,1.10119 0,0.51069 -0.31918,0.92563 -0.79795,1.06926 -0.65433,0.19151 -1.08523,0.79796 -1.06927,1.4842 0.016,0.67029 0.49474,1.26078 1.16502,1.40441 0.62241,0.14363 1.00542,0.57453 1.00542,1.1331 l 0,1.51612 c 0,0.81392 0.67029,1.48421 1.48421,1.48421 0.82987,0 1.50016,-0.67029 1.50016,-1.48421 l 0,-1.51612 c 0,-1.05331 -0.38302,-1.9949 -1.03735,-2.72902 0.46282,-0.67028 0.73413,-1.4842 0.73413,-2.36195"
           id="path4361"
           style="font-size:35.10170746px;font-style:normal;font-variant:normal;font-weight:bold;font-stretch:normal;line-height:125%;letter-spacing:0px;word-spacing:0px;fill:#00ff00;fill-opacity:1;stroke:none;font-family:Garoa Hacker Clube;-inkscape-font-specification:Garoa Hacker Clube Bold" />
        <path
           d="m 125.72034,851.17967 c 0,0.65432 -0.54261,1.19694 -1.19694,1.19694 -0.65432,0 -1.19694,-0.54262 -1.19694,-1.19694 l 0,-4.37281 c 0,-0.65433 0.54262,-1.19694 1.19694,-1.19694 0.65433,0 1.19694,0.54261 1.19694,1.19694 l 0,4.37281 m 2.98436,-4.37281 c 0,-2.29812 -1.86722,-4.18131 -4.1813,-4.18131 -2.29811,0 -4.1813,1.88319 -4.1813,4.18131 l 0,4.37281 c 0,2.31407 1.88319,4.1813 4.1813,4.1813 2.31408,0 4.1813,-1.86723 4.1813,-4.1813 l 0,-4.37281 m -2.13852,-6.04853 -1.37249,-0.98946 c -0.38302,-0.27131 -0.89371,-0.27131 -1.27673,0 l -1.37249,0.98946 c -0.49474,0.3511 -0.59049,1.02139 -0.25535,1.51613 0.3511,0.47877 1.03735,0.59048 1.51612,0.23938 l 0.75008,-0.52665 0.73412,0.52665 c 0.49474,0.3511 1.16502,0.23939 1.51613,-0.23938 0.35109,-0.49474 0.23938,-1.16503 -0.23939,-1.51613"
           id="path4363"
           style="font-size:35.10170746px;font-style:normal;font-variant:normal;font-weight:bold;font-stretch:normal;line-height:125%;letter-spacing:0px;word-spacing:0px;fill:#00ff00;fill-opacity:1;stroke:none;font-family:Garoa Hacker Clube;-inkscape-font-specification:Garoa Hacker Clube Bold" />
        <path
           d="m 136.3853,842.89686 c -0.82987,0 -1.50016,0.67029 -1.50016,1.50016 l 0,3.63869 -2.53751,-4.38877 c -0.33514,-0.57453 -1.02139,-0.86179 -1.67571,-0.68624 -0.65432,0.17555 -1.10118,0.76604 -1.10118,1.43632 l 0,9.19248 c 0,0.81392 0.67028,1.48421 1.4842,1.48421 0.82988,0 1.50016,-0.67029 1.50016,-1.48421 l 0,-3.63869 2.53751,4.38877 c 0.33514,0.57453 1.02139,0.8618 1.67571,0.68625 0.65433,-0.17556 1.10119,-0.76604 1.10119,-1.43633 l 0,-9.19248 c 0,-0.82987 -0.67029,-1.50016 -1.48421,-1.50016"
           id="path4365"
           style="font-size:35.10170746px;font-style:normal;font-variant:normal;font-weight:bold;font-stretch:normal;line-height:125%;letter-spacing:0px;word-spacing:0px;fill:#00ff00;fill-opacity:1;stroke:none;font-family:Garoa Hacker Clube;-inkscape-font-specification:Garoa Hacker Clube Bold" />
        <path
           d="m 138.8283,844.38106 0,9.19248 0,0 c 0,0.82988 0.65433,1.50017 1.4842,1.50017 0.82988,0 1.50017,-0.67029 1.50017,-1.50017 l 0,0 0,-9.19248 0,0 c 0,-0.81391 -0.67029,-1.4842 -1.50017,-1.4842 -0.82987,0 -1.4842,0.67029 -1.4842,1.4842"
           id="path4367"
           style="font-size:35.10170746px;font-style:normal;font-variant:normal;font-weight:bold;font-stretch:normal;line-height:125%;letter-spacing:0px;word-spacing:0px;fill:#00ff00;fill-opacity:1;stroke:none;font-family:Garoa Hacker Clube;-inkscape-font-specification:Garoa Hacker Clube Bold" />
        <path
           d="m 146.84129,842.62555 c -2.29811,0 -4.18129,1.86723 -4.18129,4.18131 l 0,4.37281 c 0,2.29811 1.88318,4.1813 4.18129,4.1813 2.31408,0 4.18131,-1.88319 4.18131,-4.1813 l 0,-0.1596 c 0,-0.82987 -0.67029,-1.50016 -1.48421,-1.50016 -0.82987,0 -1.50016,0.67029 -1.50016,1.50016 l 0,0.1596 c 0,0.65432 -0.54261,1.19694 -1.19694,1.19694 -0.65432,0 -1.19693,-0.54262 -1.19693,-1.19694 l 0,-4.37281 c 0,-0.67029 0.54261,-1.19694 1.19693,-1.19694 0.65433,0 1.19694,0.52665 1.19694,1.19694 l 0,0.14363 c 0,0.82987 0.67029,1.50016 1.50016,1.50016 0.81392,0 1.48421,-0.67029 1.48421,-1.50016 l 0,-0.14363 c 0,-2.31408 -1.86723,-4.18131 -4.18131,-4.18131"
           id="path4369"
           style="font-size:35.10170746px;font-style:normal;font-variant:normal;font-weight:bold;font-stretch:normal;line-height:125%;letter-spacing:0px;word-spacing:0px;fill:#00ff00;fill-opacity:1;stroke:none;font-family:Garoa Hacker Clube;-inkscape-font-specification:Garoa Hacker Clube Bold" />
        <path
           d="m 155.97568,842.62555 c -2.29812,0 -4.1813,1.88319 -4.1813,4.18131 l 0,6.78264 c 0,0.82988 0.67028,1.50016 1.50016,1.50016 0.81391,0 1.4842,-0.67028 1.4842,-1.50016 l 0,-2.25024 2.39387,0 0,2.25024 c 0,0.82988 0.67029,1.50016 1.50017,1.50016 0.81391,0 1.4842,-0.67028 1.4842,-1.50016 l 0,-6.78264 c 0,-2.29812 -1.86722,-4.18131 -4.1813,-4.18131 m -1.19694,5.72935 0,-1.54804 c 0,-0.65433 0.54261,-1.19694 1.19694,-1.19694 0.67028,0 1.19693,0.54261 1.19693,1.19694 l 0,1.54804 -2.39387,0"
           id="path4371"
           style="font-size:35.10170746px;font-style:normal;font-variant:normal;font-weight:bold;font-stretch:normal;line-height:125%;letter-spacing:0px;word-spacing:0px;fill:#00ff00;fill-opacity:1;stroke:none;font-family:Garoa Hacker Clube;-inkscape-font-specification:Garoa Hacker Clube Bold" />
        <path
           d="m 96.947134,870.47534 c 0,-4.94933 -4.036701,-8.98603 -9.021139,-8.98603 l -5.054645,0 c -1.825287,0 -3.299561,1.47427 -3.299561,3.29956 l 0,20.21858 c 0,1.79019 1.474274,3.26446 3.299561,3.26446 1.825286,0 3.264458,-1.47427 3.264458,-3.26446 l 0,-16.95412 1.790187,0 c 1.368966,0 2.45712,1.08815 2.45712,2.42201 0,1.12326 -0.702035,2.0359 -1.755085,2.35182 -1.439169,0.42122 -2.386917,1.75509 -2.351815,3.26446 0.0351,1.47427 1.088155,2.77303 2.562425,3.08895 1.368965,0.31591 2.211407,1.26366 2.211407,2.49222 l 0,3.33466 c 0,1.79019 1.474274,3.26446 3.264459,3.26446 1.825287,0 3.299561,-1.47427 3.299561,-3.26446 l 0,-3.33466 c 0,-2.31671 -0.842443,-4.38772 -2.281611,-6.00239 1.017948,-1.47427 1.614678,-3.26446 1.614678,-5.19506"
           id="path4373"
           style="font-size:35.10170746px;font-style:normal;font-variant:normal;font-weight:bold;font-stretch:normal;line-height:125%;letter-spacing:0px;word-spacing:0px;fill:#00ff00;fill-opacity:1;stroke:none;font-family:Garoa Hacker Clube;-inkscape-font-specification:Garoa Hacker Clube Bold" />
        <path
           d="m 108.30583,860.89258 c -5.05464,0 -9.196651,4.142 -9.196651,9.19665 l 0,14.91822 c 0,1.82529 1.474271,3.29956 3.299561,3.29956 1.79018,0 3.26446,-1.47427 3.26446,-3.29956 l 0,-4.94934 5.26525,0 0,4.94934 c 0,1.82529 1.47428,3.29956 3.29957,3.29956 1.79018,0 3.26445,-1.47427 3.26445,-3.29956 l 0,-14.91822 c 0,-5.05465 -4.1069,-9.19665 -9.19664,-9.19665 m -2.63263,12.60151 0,-3.40486 c 0,-1.43917 1.19346,-2.63263 2.63263,-2.63263 1.47427,0 2.63262,1.19346 2.63262,2.63263 l 0,3.40486 -5.26525,0"
           id="path4375"
           style="font-size:35.10170746px;font-style:normal;font-variant:normal;font-weight:bold;font-stretch:normal;line-height:125%;letter-spacing:0px;word-spacing:0px;fill:#00ff00;fill-opacity:1;stroke:none;font-family:Garoa Hacker Clube;-inkscape-font-specification:Garoa Hacker Clube Bold" />
        <path
           d="m 140.49683,860.89258 c -2.2465,0 -4.31751,0.80734 -5.93218,2.1763 -1.57958,-1.36896 -3.65058,-2.1763 -5.89709,-2.1763 -5.08974,0 -9.19665,4.142 -9.19665,9.19665 l 0,14.91822 c 0,1.82529 1.47428,3.29956 3.26446,3.29956 1.82529,0 3.29956,-1.47427 3.29956,-3.29956 l 0,-14.91822 c 0,-1.43917 1.15836,-2.63263 2.63263,-2.63263 1.43917,0 2.63263,1.19346 2.63263,2.63263 l 0,14.91822 c 0,1.82529 1.47427,3.29956 3.26446,3.29956 1.82528,0 3.29956,-1.47427 3.29956,-3.29956 l 0,-14.91822 c 0,-1.43917 1.19346,-2.63263 2.63262,-2.63263 1.43917,0 2.63263,1.19346 2.63263,2.63263 l 0,14.91822 c 0,1.82529 1.47428,3.29956 3.29956,3.29956 1.79019,0 3.26446,-1.47427 3.26446,-3.29956 l 0,-14.91822 c 0,-5.05465 -4.1069,-9.19665 -9.19665,-9.19665"
           id="path4377"
           style="font-size:35.10170746px;font-style:normal;font-variant:normal;font-weight:bold;font-stretch:normal;line-height:125%;letter-spacing:0px;word-spacing:0px;fill:#00ff00;fill-opacity:1;stroke:none;font-family:Garoa Hacker Clube;-inkscape-font-specification:Garoa Hacker Clube Bold" />
        <path
           d="m 166.08488,872.47614 c 0.17551,-0.73713 0.24571,-1.43917 0.24571,-2.21141 0,-4.84403 -3.93139,-8.77542 -8.77542,-8.77542 0,0 -2.49222,0 -2.49222,0 -0.87755,0 -1.71999,0.35101 -2.35182,0.94774 -0.59673,0.63183 -0.94774,1.43917 -0.94774,2.31672 l 0,20.21858 c 0,1.82529 1.47427,3.29956 3.26445,3.29956 l 5.12485,0 c 4.94934,0 9.02114,-4.0367 9.02114,-8.98604 0,-2.70283 -1.19346,-5.15995 -3.08895,-6.80973 m -5.93219,9.23175 -1.82528,0 0,-13.51416 c 0.84244,0.31592 1.43917,1.12326 1.43917,2.071 0,0.52653 -0.14041,0.98285 -0.49143,1.36897 -0.73713,0.84244 -0.98285,2.0008 -0.66693,3.08895 0.31591,1.05305 1.15836,1.89549 2.24651,2.21141 1.05305,0.31591 1.75508,1.22856 1.75508,2.35181 0,1.33387 -1.12325,2.42202 -2.45712,2.42202"
           id="path4379"
           style="font-size:35.10170746px;font-style:normal;font-variant:normal;font-weight:bold;font-stretch:normal;line-height:125%;letter-spacing:0px;word-spacing:0px;fill:#00ff00;fill-opacity:1;stroke:none;font-family:Garoa Hacker Clube;-inkscape-font-specification:Garoa Hacker Clube Bold" />
        <path
           d="m 178.5431,882.57775 c 0,0.98994 -0.82093,1.81087 -1.81088,1.81087 -0.98994,0 -1.81087,-0.82093 -1.81087,-1.81087 l 0,-6.61573 c 0,-0.98995 0.82093,-1.81088 1.81087,-1.81088 0.98995,0 1.81088,0.82093 1.81088,1.81088 l 0,6.61573 m 4.51512,-6.61573 c 0,-3.47688 -2.82498,-6.32599 -6.326,-6.32599 -3.47687,0 -6.32599,2.84911 -6.32599,6.32599 l 0,6.61573 c 0,3.50102 2.84912,6.32599 6.32599,6.32599 3.50102,0 6.326,-2.82497 6.326,-6.32599 l 0,-6.61573"
           id="path4381"
           style="font-size:35.10170746px;font-style:normal;font-variant:normal;font-weight:bold;font-stretch:normal;line-height:125%;letter-spacing:0px;word-spacing:0px;fill:#00ff00;fill-opacity:1;stroke:none;font-family:Garoa Hacker Clube;-inkscape-font-specification:Garoa Hacker Clube Bold" />
      </g>
      <g
         transform="translate(0,0.86119697)"
         id="g4524">
        <text
           x="-164.78833"
           y="-730.38367"
           transform="scale(-1,-1)"
           id="text4490"
           xml:space="preserve"
           style="font-size:10.79185581px;font-style:normal;font-variant:normal;font-weight:bold;font-stretch:normal;line-height:125%;letter-spacing:0px;word-spacing:0px;fill:#00ff00;fill-opacity:1;stroke:none;font-family:Garoa Hacker Clube;-inkscape-font-specification:Garoa Hacker Clube Bold"><tspan
             x="-164.78833"
             y="-730.38367"
             id="tspan4492">t0</tspan></text>
        <text
           x="-190.10451"
           y="-730.41064"
           transform="scale(-1,-1)"
           id="text4494"
           xml:space="preserve"
           style="font-size:10.79185581px;font-style:normal;font-variant:normal;font-weight:bold;font-stretch:normal;line-height:125%;letter-spacing:0px;word-spacing:0px;fill:#00ff00;fill-opacity:1;stroke:none;font-family:Garoa Hacker Clube;-inkscape-font-specification:Garoa Hacker Clube Bold"><tspan
             x="-190.10451"
             y="-730.41064"
             id="tspan4496">t1</tspan></text>
        <text
           x="-217.39473"
           y="-730.38367"
           transform="scale(-1,-1)"
           id="text4498"
           xml:space="preserve"
           style="font-size:10.79185581px;font-style:normal;font-variant:normal;font-weight:bold;font-stretch:normal;line-height:125%;letter-spacing:0px;word-spacing:0px;fill:#00ff00;fill-opacity:1;stroke:none;font-family:Garoa Hacker Clube;-inkscape-font-specification:Garoa Hacker Clube Bold"><tspan
             x="-217.39473"
             y="-730.38367"
             id="tspan4500">t2</tspan></text>
        <text
           x="-244.0141"
           y="-730.3783"
           transform="scale(-1,-1)"
           id="text4502"
           xml:space="preserve"
           style="font-size:10.79185581px;font-style:normal;font-variant:normal;font-weight:bold;font-stretch:normal;line-height:125%;letter-spacing:0px;word-spacing:0px;fill:#00ff00;fill-opacity:1;stroke:none;font-family:Garoa Hacker Clube;-inkscape-font-specification:Garoa Hacker Clube Bold"><tspan
             x="-244.0141"
             y="-730.3783"
             id="tspan4504">t3</tspan></text>
      </g>
    </g>
  </g>
</svg>
