  0
SECTION
  2
HEADER
  9
$ACADVER
  1
AC1014
  9
$HANDSEED
  5
FFFF
  9
$MEASUREMENT
 70
     1
  0
ENDSEC
  0
SECTION
  2
TABLES
  0
TABLE
  2
VPORT
  5
8
330
0
100
AcDbSymbolTable
 70
     4
  0
VPORT
  5
2E
330
8
100
AcDbSymbolTableRecord
100
AcDbViewportTableRecord
  2
*ACTIVE
 70
     0
 10
0.0
 20
0.0
 11
1.0
 21
1.0
 12
210.0
 22
148.5
 13
0.0
 23
0.0
 14
10.0
 24
10.0
 15
10.0
 25
10.0
 16
0.0
 26
0.0
 36
1.0
 17
0.0
 27
0.0
 37
0.0
 40
341.0
 41
1.24
 42
50.0
 43
0.0
 44
0.0
 50
0.0
 51
0.0
 71
     0
 72
   100
 73
     1
 74
     3
 75
     0
 76
     0
 77
     0
 78
     0
  0
ENDTAB
  0
TABLE
  2
LTYPE
  5
5
330
0
100
AcDbSymbolTable
 70
     1
  0
LTYPE
  5
14
330
5
100
AcDbSymbolTableRecord
100
AcDbLinetypeTableRecord
  2
BYBLOCK
 70
     0
  3

 72
    65
 73
     0
 40
0.0
  0
LTYPE
  5
15
330
5
100
AcDbSymbolTableRecord
100
AcDbLinetypeTableRecord
  2
BYLAYER
 70
     0
  3

 72
    65
 73
     0
 40
0.0
  0
LTYPE
  5
16
330
5
100
AcDbSymbolTableRecord
100
AcDbLinetypeTableRecord
  2
CONTINUOUS
 70
     0
  3
Solid line
 72
    65
 73
     0
 40
0.0
  0
ENDTAB
  0
TABLE
  2
LAYER
  5
2
100
AcDbSymbolTable
 70
2
  0
LAYER
  5
50
100
AcDbSymbolTableRecord
100
AcDbLayerTableRecord
  2
0
 70
0
  6
CONTINUOUS
  0
LAYER
  5
51
100
AcDbSymbolTableRecord
100
AcDbLayerTableRecord
  2
Layer_1
 70
0
  6
CONTINUOUS
  0
ENDTAB
  0
TABLE
  2
STYLE
  5
3
330
0
100
AcDbSymbolTable
 70
     1
  0
STYLE
  5
11
330
3
100
AcDbSymbolTableRecord
100
AcDbTextStyleTableRecord
  2
STANDARD
 70
     0
 40
0.0
 41
1.0
 50
0.0
 71
     0
 42
2.5
  3
txt
  4

  0
ENDTAB
  0
TABLE
  2
VIEW
  5
6
330
0
100
AcDbSymbolTable
 70
     0
  0
ENDTAB
  0
TABLE
  2
UCS
  5
7
330
0
100
AcDbSymbolTable
 70
     0
  0
ENDTAB
  0
TABLE
  2
APPID
  5
9
330
0
100
AcDbSymbolTable
 70
     2
  0
APPID
  5
12
330
9
100
AcDbSymbolTableRecord
100
AcDbRegAppTableRecord
  2
ACAD
 70
     0
  0
ENDTAB
  0
TABLE
  2
DIMSTYLE
  5
A
330
0
100
AcDbSymbolTable
 70
     1
  0
DIMSTYLE
105
27
330
A
100
AcDbSymbolTableRecord
100
AcDbDimStyleTableRecord
  2
ISO-25
 70
     0
  3

  4

  5

  6

  7

 40
1.0
 41
2.5
 42
0.625
 43
3.75
 44
1.25
 45
0.0
 46
0.0
 47
0.0
 48
0.0
140
2.5
141
2.5
142
0.0
143
0.03937007874016
144
1.0
145
0.0
146
1.0
147
0.625
 71
     0
 72
     0
 73
     0
 74
     0
 75
     0
 76
     0
 77
     1
 78
     8
170
     0
171
     3
172
     1
173
     0
174
     0
175
     0
176
     0
177
     0
178
     0
270
     2
271
     2
272
     2
273
     2
274
     3
340
11
275
     0
280
     0
281
     0
282
     0
283
     0
284
     8
285
     0
286
     0
287
     3
288
     0
  0
ENDTAB
  0
TABLE
  2
BLOCK_RECORD
  5
1
330
0
100
AcDbSymbolTable
 70
     1
  0
BLOCK_RECORD
  5
1F
330
1
100
AcDbSymbolTableRecord
100
AcDbBlockTableRecord
  2
*MODEL_SPACE
  0
BLOCK_RECORD
  5
1B
330
1
100
AcDbSymbolTableRecord
100
AcDbBlockTableRecord
  2
*PAPER_SPACE
  0
ENDTAB
  0
ENDSEC
  0
SECTION
  2
BLOCKS
  0
BLOCK
  5
20
330
1F
100
AcDbEntity
  8
0
100
AcDbBlockBegin
  2
*MODEL_SPACE
 70
     0
 10
0.0
 20
0.0
 30
0.0
  3
*MODEL_SPACE
  1

  0
ENDBLK
  5
21
330
1F
100
AcDbEntity
  8
0
100
AcDbBlockEnd
  0
BLOCK
  5
1C
330
1B
100
AcDbEntity
 67
     1
  8
0
100
AcDbBlockBegin
  2
*PAPER_SPACE
  1

  0
ENDBLK
  5
1D
330
1B
100
AcDbEntity
 67
     1
  8
0
100
AcDbBlockEnd
  0
ENDSEC
  0
SECTION
  2
ENTITIES
  0
LWPOLYLINE
  5
100
100
AcDbEntity
  8
Layer_1
 62
7
100
AcDbPolyline
 90
169
 70
0
 10
16.397041
 20
0.201500
 30
0.0
 10
16.428133
 20
0.638749
 30
0.0
 10
16.459228
 20
1.075999
 30
0.0
 10
16.490321
 20
1.513249
 30
0.0
 10
16.521413
 20
1.950498
 30
0.0
 10
16.344570
 20
1.950498
 30
0.0
 10
16.167727
 20
1.950498
 30
0.0
 10
15.990883
 20
1.950498
 30
0.0
 10
15.814040
 20
1.950498
 30
0.0
 10
15.784889
 20
1.513249
 30
0.0
 10
15.755741
 20
1.075999
 30
0.0
 10
15.726591
 20
0.638749
 30
0.0
 10
15.697440
 20
0.201500
 30
0.0
 10
15.678503
 20
0.113077
 30
0.0
 10
15.644980
 20
0.049918
 30
0.0
 10
15.596884
 20
0.012024
 30
0.0
 10
15.534211
 20
-0.000619
 30
0.0
 10
15.504089
 20
0.002287
 30
0.0
 10
15.475895
 20
0.011036
 30
0.0
 10
15.449677
 20
0.025599
 30
0.0
 10
15.425378
 20
0.046004
 30
0.0
 10
15.404973
 20
0.070783
 30
0.0
 10
15.390410
 20
0.098469
 30
0.0
 10
15.381661
 20
0.129076
 30
0.0
 10
15.378755
 20
0.162598
 30
0.0
 10
15.378752
 20
0.181055
 30
0.0
 10
15.378752
 20
0.197565
 30
0.0
 10
15.378752
 20
0.212156
 30
0.0
 10
15.378755
 20
0.224800
 30
0.0
 10
15.409847
 20
0.656219
 30
0.0
 10
15.440942
 20
1.087638
 30
0.0
 10
15.472035
 20
1.519060
 30
0.0
 10
15.503127
 20
1.950479
 30
0.0
 10
15.334056
 20
1.950479
 30
0.0
 10
15.164988
 20
1.950479
 30
0.0
 10
14.995917
 20
1.950479
 30
0.0
 10
14.826846
 20
1.950479
 30
0.0
 10
14.735023
 20
1.960695
 30
0.0
 10
14.669437
 20
1.991302
 30
0.0
 10
14.630084
 20
2.042314
 30
0.0
 10
14.616961
 20
2.113733
 30
0.0
 10
14.630084
 20
2.181749
 30
0.0
 10
14.669437
 20
2.230333
 30
0.0
 10
14.735023
 20
2.259484
 30
0.0
 10
14.826846
 20
2.269192
 30
0.0
 10
14.999803
 20
2.269192
 30
0.0
 10
15.172761
 20
2.269192
 30
0.0
 10
15.345718
 20
2.269192
 30
0.0
 10
15.518675
 20
2.269192
 30
0.0
 10
15.536172
 20
2.514054
 30
0.0
 10
15.553670
 20
2.758913
 30
0.0
 10
15.571168
 20
3.003774
 30
0.0
 10
15.588666
 20
3.248633
 30
0.0
 10
15.437087
 20
3.248633
 30
0.0
 10
15.285508
 20
3.248633
 30
0.0
 10
15.133927
 20
3.248633
 30
0.0
 10
14.982348
 20
3.248633
 30
0.0
 10
14.890524
 20
3.258821
 30
0.0
 10
14.824936
 20
3.289428
 30
0.0
 10
14.785583
 20
3.340443
 30
0.0
 10
14.772459
 20
3.411862
 30
0.0
 10
14.785583
 20
3.479878
 30
0.0
 10
14.824936
 20
3.528459
 30
0.0
 10
14.890524
 20
3.557610
 30
0.0
 10
14.982348
 20
3.567319
 30
0.0
 10
15.139757
 20
3.567319
 30
0.0
 10
15.297167
 20
3.567319
 30
0.0
 10
15.454576
 20
3.567319
 30
0.0
 10
15.611986
 20
3.567319
 30
0.0
 10
15.643081
 20
4.004568
 30
0.0
 10
15.674173
 20
4.441818
 30
0.0
 10
15.705269
 20
4.879068
 30
0.0
 10
15.736361
 20
5.316317
 30
0.0
 10
15.752391
 20
5.401337
 30
0.0
 10
15.784940
 20
5.462065
 30
0.0
 10
15.834013
 20
5.498503
 30
0.0
 10
15.899601
 20
5.510639
 30
0.0
 10
15.964216
 20
5.498503
 30
0.0
 10
16.010368
 20
5.462065
 30
0.0
 10
16.038054
 20
5.401337
 30
0.0
 10
16.047283
 20
5.316317
 30
0.0
 10
16.047280
 20
5.311943
 30
0.0
 10
16.047280
 20
5.306609
 30
0.0
 10
16.047280
 20
5.300287
 30
0.0
 10
16.047283
 20
5.293006
 30
0.0
 10
16.018132
 20
4.861587
 30
0.0
 10
15.988984
 20
4.430165
 30
0.0
 10
15.959833
 20
3.998746
 30
0.0
 10
15.930682
 20
3.567327
 30
0.0
 10
16.107526
 20
3.567327
 30
0.0
 10
16.284369
 20
3.567327
 30
0.0
 10
16.461212
 20
3.567327
 30
0.0
 10
16.638056
 20
3.567327
 30
0.0
 10
16.669151
 20
4.004577
 30
0.0
 10
16.700243
 20
4.441826
 30
0.0
 10
16.731338
 20
4.879076
 30
0.0
 10
16.762431
 20
5.316326
 30
0.0
 10
16.775046
 20
5.401345
 30
0.0
 10
16.805168
 20
5.462074
 30
0.0
 10
16.852781
 20
5.498512
 30
0.0
 10
16.917887
 20
5.510647
 30
0.0
 10
16.985903
 20
5.498512
 30
0.0
 10
17.034487
 20
5.462074
 30
0.0
 10
17.063638
 20
5.401345
 30
0.0
 10
17.073347
 20
5.316326
 30
0.0
 10
17.073344
 20
5.309044
 30
0.0
 10
17.073344
 20
5.302723
 30
0.0
 10
17.073344
 20
5.297389
 30
0.0
 10
17.073347
 20
5.293014
 30
0.0
 10
17.042254
 20
4.861595
 30
0.0
 10
17.011162
 20
4.430176
 30
0.0
 10
16.980067
 20
3.998754
 30
0.0
 10
16.948974
 20
3.567335
 30
0.0
 10
17.121931
 20
3.567335
 30
0.0
 10
17.294888
 20
3.567335
 30
0.0
 10
17.467842
 20
3.567335
 30
0.0
 10
17.640800
 20
3.567335
 30
0.0
 10
17.732621
 20
3.557627
 30
0.0
 10
17.798209
 20
3.528476
 30
0.0
 10
17.837562
 20
3.479895
 30
0.0
 10
17.850685
 20
3.411879
 30
0.0
 10
17.837562
 20
3.340460
 30
0.0
 10
17.798209
 20
3.289445
 30
0.0
 10
17.732621
 20
3.258838
 30
0.0
 10
17.640800
 20
3.248650
 30
0.0
 10
17.463956
 20
3.248650
 30
0.0
 10
17.287113
 20
3.248650
 30
0.0
 10
17.110270
 20
3.248650
 30
0.0
 10
16.933426
 20
3.248650
 30
0.0
 10
16.915929
 20
3.003791
 30
0.0
 10
16.898431
 20
2.758930
 30
0.0
 10
16.880933
 20
2.514071
 30
0.0
 10
16.863435
 20
2.269209
 30
0.0
 10
17.018903
 20
2.269209
 30
0.0
 10
17.174371
 20
2.269209
 30
0.0
 10
17.329836
 20
2.269209
 30
0.0
 10
17.485304
 20
2.269209
 30
0.0
 10
17.577122
 20
2.259501
 30
0.0
 10
17.642710
 20
2.230350
 30
0.0
 10
17.682063
 20
2.181765
 30
0.0
 10
17.695187
 20
2.113750
 30
0.0
 10
17.682063
 20
2.042331
 30
0.0
 10
17.642710
 20
1.991319
 30
0.0
 10
17.577122
 20
1.960712
 30
0.0
 10
17.485304
 20
1.950496
 30
0.0
 10
17.324008
 20
1.950496
 30
0.0
 10
17.162709
 20
1.950496
 30
0.0
 10
17.001414
 20
1.950496
 30
0.0
 10
16.840115
 20
1.950496
 30
0.0
 10
16.809023
 20
1.513246
 30
0.0
 10
16.777930
 20
1.075996
 30
0.0
 10
16.746835
 20
0.638747
 30
0.0
 10
16.715743
 20
0.201497
 30
0.0
 10
16.702619
 20
0.113074
 30
0.0
 10
16.671042
 20
0.049915
 30
0.0
 10
16.621001
 20
0.012021
 30
0.0
 10
16.552503
 20
-0.000622
 30
0.0
 10
16.525296
 20
0.002285
 30
0.0
 10
16.498090
 20
0.011033
 30
0.0
 10
16.470884
 20
0.025596
 30
0.0
 10
16.443678
 20
0.046001
 30
0.0
 10
16.423273
 20
0.069312
 30
0.0
 10
16.408710
 20
0.092624
 30
0.0
 10
16.399962
 20
0.115935
 30
0.0
 10
16.397055
 20
0.139247
 30
0.0
 10
16.397052
 20
0.154797
 30
0.0
 10
16.397052
 20
0.170348
 30
0.0
 10
16.397052
 20
0.185898
 30
0.0
 10
16.397055
 20
0.201449
 30
0.0
  0
LWPOLYLINE
  5
101
100
AcDbEntity
  8
Layer_1
 62
7
100
AcDbPolyline
 90
17
 70
0
 10
16.614707
 20
3.248597
 30
0.0
 10
16.437864
 20
3.248597
 30
0.0
 10
16.261021
 20
3.248597
 30
0.0
 10
16.084177
 20
3.248597
 30
0.0
 10
15.907334
 20
3.248597
 30
0.0
 10
15.889836
 20
3.003738
 30
0.0
 10
15.872339
 20
2.758876
 30
0.0
 10
15.854841
 20
2.514017
 30
0.0
 10
15.837343
 20
2.269156
 30
0.0
 10
16.014186
 20
2.269156
 30
0.0
 10
16.191030
 20
2.269156
 30
0.0
 10
16.367873
 20
2.269156
 30
0.0
 10
16.544716
 20
2.269156
 30
0.0
 10
16.562214
 20
2.514017
 30
0.0
 10
16.579712
 20
2.758876
 30
0.0
 10
16.597209
 20
3.003738
 30
0.0
 10
16.614707
 20
3.248597
 30
0.0
  0
LWPOLYLINE
  5
102
100
AcDbEntity
  8
Layer_1
 62
7
100
AcDbPolyline
 90
73
 70
0
 10
1.683461
 20
4.538953
 30
0.0
 10
1.683461
 20
3.604211
 30
0.0
 10
1.683461
 20
2.669465
 30
0.0
 10
1.683461
 20
1.734723
 30
0.0
 10
1.683461
 20
0.799977
 30
0.0
 10
2.213991
 20
0.799977
 30
0.0
 10
2.744524
 20
0.799977
 30
0.0
 10
3.275053
 20
0.799977
 30
0.0
 10
3.805583
 20
0.799977
 30
0.0
 10
3.805583
 20
1.110910
 30
0.0
 10
3.805583
 20
1.421845
 30
0.0
 10
3.805583
 20
1.732778
 30
0.0
 10
3.805583
 20
2.043711
 30
0.0
 10
3.815771
 20
2.135535
 30
0.0
 10
3.846378
 20
2.201120
 30
0.0
 10
3.897393
 20
2.240473
 30
0.0
 10
3.968812
 20
2.253597
 30
0.0
 10
4.036828
 20
2.240473
 30
0.0
 10
4.085409
 20
2.201120
 30
0.0
 10
4.114560
 20
2.135535
 30
0.0
 10
4.124269
 20
2.043711
 30
0.0
 10
4.124269
 20
1.653101
 30
0.0
 10
4.124269
 20
1.262491
 30
0.0
 10
4.124269
 20
0.871882
 30
0.0
 10
4.124269
 20
0.481272
 30
0.0
 10
3.247825
 20
0.481272
 30
0.0
 10
2.371384
 20
0.481272
 30
0.0
 10
1.494940
 20
0.481272
 30
0.0
 10
0.618496
 20
0.481272
 30
0.0
 10
0.526672
 20
0.491489
 30
0.0
 10
0.461083
 20
0.522096
 30
0.0
 10
0.421730
 20
0.573107
 30
0.0
 10
0.408607
 20
0.644526
 30
0.0
 10
0.421730
 20
0.712542
 30
0.0
 10
0.461083
 20
0.761127
 30
0.0
 10
0.526672
 20
0.790274
 30
0.0
 10
0.618496
 20
0.799983
 30
0.0
 10
0.805056
 20
0.799983
 30
0.0
 10
0.991616
 20
0.799983
 30
0.0
 10
1.178173
 20
0.799983
 30
0.0
 10
1.364734
 20
0.799983
 30
0.0
 10
1.364734
 20
1.734728
 30
0.0
 10
1.364734
 20
2.669471
 30
0.0
 10
1.364734
 20
3.604213
 30
0.0
 10
1.364734
 20
4.538959
 30
0.0
 10
1.178173
 20
4.538959
 30
0.0
 10
0.991616
 20
4.538959
 30
0.0
 10
0.805056
 20
4.538959
 30
0.0
 10
0.618496
 20
4.538959
 30
0.0
 10
0.526672
 20
4.549147
 30
0.0
 10
0.461083
 20
4.579754
 30
0.0
 10
0.421730
 20
4.630769
 30
0.0
 10
0.408607
 20
4.702188
 30
0.0
 10
0.421730
 20
4.770203
 30
0.0
 10
0.461083
 20
4.818785
 30
0.0
 10
0.526672
 20
4.847936
 30
0.0
 10
0.618496
 20
4.857644
 30
0.0
 10
1.071293
 20
4.857644
 30
0.0
 10
1.524090
 20
4.857644
 30
0.0
 10
1.976885
 20
4.857644
 30
0.0
 10
2.429682
 20
4.857644
 30
0.0
 10
2.521503
 20
4.847936
 30
0.0
 10
2.587092
 20
4.818785
 30
0.0
 10
2.626445
 20
4.770203
 30
0.0
 10
2.639568
 20
4.702188
 30
0.0
 10
2.626445
 20
4.630769
 30
0.0
 10
2.587092
 20
4.579754
 30
0.0
 10
2.521503
 20
4.549147
 30
0.0
 10
2.429682
 20
4.538959
 30
0.0
 10
2.243122
 20
4.538959
 30
0.0
 10
2.056562
 20
4.538959
 30
0.0
 10
1.870002
 20
4.538959
 30
0.0
 10
1.683441
 20
4.538959
 30
0.0
  0
LWPOLYLINE
  5
103
100
AcDbEntity
  8
Layer_1
 62
7
100
AcDbPolyline
 90
121
 70
0
 10
28.374413
 20
12.724284
 30
0.0
 10
28.376953
 20
12.802016
 30
0.0
 10
28.384235
 20
12.887521
 30
0.0
 10
28.396370
 20
12.980801
 30
0.0
 10
28.413388
 20
13.081857
 30
0.0
 10
28.442051
 20
13.195056
 30
0.0
 10
28.481404
 20
13.316998
 30
0.0
 10
28.531445
 20
13.447690
 30
0.0
 10
28.592173
 20
13.587125
 30
0.0
 10
28.662133
 20
13.727527
 30
0.0
 10
28.739866
 20
13.861131
 30
0.0
 10
28.825373
 20
13.987934
 30
0.0
 10
28.918654
 20
14.107938
 30
0.0
 10
29.025537
 20
14.220163
 30
0.0
 10
29.151854
 20
14.323646
 30
0.0
 10
29.297605
 20
14.418382
 30
0.0
 10
29.462789
 20
14.504378
 30
0.0
 10
29.643519
 20
14.579195
 30
0.0
 10
29.835907
 20
14.632637
 30
0.0
 10
30.039959
 20
14.664703
 30
0.0
 10
30.255670
 20
14.675399
 30
0.0
 10
30.634133
 20
14.641874
 30
0.0
 10
30.984419
 20
14.541304
 30
0.0
 10
31.306524
 20
14.373692
 30
0.0
 10
31.600456
 20
14.139038
 30
0.0
 10
31.600456
 20
14.195395
 30
0.0
 10
31.600456
 20
14.251752
 30
0.0
 10
31.600456
 20
14.308106
 30
0.0
 10
31.600456
 20
14.364463
 30
0.0
 10
31.610644
 20
14.456284
 30
0.0
 10
31.641251
 20
14.521870
 30
0.0
 10
31.692266
 20
14.561223
 30
0.0
 10
31.763685
 20
14.574346
 30
0.0
 10
31.831701
 20
14.561223
 30
0.0
 10
31.880282
 20
14.521870
 30
0.0
 10
31.909433
 20
14.456284
 30
0.0
 10
31.919141
 20
14.364463
 30
0.0
 10
31.919141
 20
14.146811
 30
0.0
 10
31.919141
 20
13.929158
 30
0.0
 10
31.919141
 20
13.711503
 30
0.0
 10
31.919141
 20
13.493850
 30
0.0
 10
31.908925
 20
13.402026
 30
0.0
 10
31.878315
 20
13.336438
 30
0.0
 10
31.827303
 20
13.297085
 30
0.0
 10
31.755890
 20
13.283962
 30
0.0
 10
31.693699
 20
13.295617
 30
0.0
 10
31.647059
 20
13.330596
 30
0.0
 10
31.615967
 20
13.388897
 30
0.0
 10
31.600417
 20
13.470519
 30
0.0
 10
31.564950
 20
13.643473
 30
0.0
 10
31.481872
 20
13.804772
 30
0.0
 10
31.351183
 20
13.954409
 30
0.0
 10
31.172884
 20
14.092387
 30
0.0
 10
30.966887
 20
14.208014
 30
0.0
 10
30.745348
 20
14.290603
 30
0.0
 10
30.508262
 20
14.340158
 30
0.0
 10
30.255631
 20
14.356668
 30
0.0
 10
29.944695
 20
14.325573
 30
0.0
 10
29.657080
 20
14.232290
 30
0.0
 10
29.392787
 20
14.076825
 30
0.0
 10
29.151814
 20
13.859176
 30
0.0
 10
28.951166
 20
13.601682
 30
0.0
 10
28.807845
 20
13.318926
 30
0.0
 10
28.721852
 20
13.010909
 30
0.0
 10
28.693189
 20
12.677627
 30
0.0
 10
28.693189
 20
12.539651
 30
0.0
 10
28.693189
 20
12.401676
 30
0.0
 10
28.693189
 20
12.263697
 30
0.0
 10
28.693189
 20
12.125722
 30
0.0
 10
28.724767
 20
11.787094
 30
0.0
 10
28.819503
 20
11.470816
 30
0.0
 10
28.977401
 20
11.176888
 30
0.0
 10
29.198454
 20
10.905305
 30
0.0
 10
29.462262
 20
10.680851
 30
0.0
 10
29.748418
 20
10.520526
 30
0.0
 10
30.056921
 20
10.424331
 30
0.0
 10
30.387775
 20
10.392265
 30
0.0
 10
30.584538
 20
10.402453
 30
0.0
 10
30.770610
 20
10.433063
 30
0.0
 10
30.945997
 20
10.484074
 30
0.0
 10
31.110696
 20
10.555491
 30
0.0
 10
31.269562
 20
10.650230
 30
0.0
 10
31.427457
 20
10.771202
 30
0.0
 10
31.584384
 20
10.918409
 30
0.0
 10
31.740337
 20
11.091851
 30
0.0
 10
31.775315
 20
11.125859
 30
0.0
 10
31.810294
 20
11.150158
 30
0.0
 10
31.845275
 20
11.164721
 30
0.0
 10
31.880257
 20
11.169575
 30
0.0
 10
31.948272
 20
11.160347
 30
0.0
 10
31.996854
 20
11.132661
 30
0.0
 10
32.026005
 20
11.086506
 30
0.0
 10
32.035713
 20
11.021891
 30
0.0
 10
32.027924
 20
10.982053
 30
0.0
 10
32.004612
 20
10.932497
 30
0.0
 10
31.965748
 20
10.873228
 30
0.0
 10
31.911335
 20
10.804239
 30
0.0
 10
31.844288
 20
10.728933
 30
0.0
 10
31.767526
 20
10.650715
 30
0.0
 10
31.681047
 20
10.569579
 30
0.0
 10
31.584855
 20
10.485531
 30
0.0
 10
31.476027
 20
10.406342
 30
0.0
 10
31.351652
 20
10.332010
 30
0.0
 10
31.211734
 20
10.262536
 30
0.0
 10
31.056270
 20
10.197918
 30
0.0
 10
30.892056
 20
10.143506
 30
0.0
 10
30.725900
 20
10.104638
 30
0.0
 10
30.557803
 20
10.081326
 30
0.0
 10
30.387761
 20
10.073565
 30
0.0
 10
30.002494
 20
10.111459
 30
0.0
 10
29.639576
 20
10.225144
 30
0.0
 10
29.299007
 20
10.414619
 30
0.0
 10
28.980788
 20
10.679886
 30
0.0
 10
28.715521
 20
10.997620
 30
0.0
 10
28.526046
 20
11.336733
 30
0.0
 10
28.412361
 20
11.697221
 30
0.0
 10
28.374467
 20
12.079087
 30
0.0
 10
28.374467
 20
12.240383
 30
0.0
 10
28.374467
 20
12.401681
 30
0.0
 10
28.374467
 20
12.562977
 30
0.0
 10
28.374467
 20
12.724273
 30
0.0
  0
LWPOLYLINE
  5
104
100
AcDbEntity
  8
Layer_1
 62
7
100
AcDbPolyline
 90
81
 70
0
 10
25.835621
 20
10.197938
 30
0.0
 10
25.699587
 20
10.197938
 30
0.0
 10
25.563556
 20
10.197938
 30
0.0
 10
25.427522
 20
10.197938
 30
0.0
 10
25.291488
 20
10.197938
 30
0.0
 10
24.965008
 20
10.928631
 30
0.0
 10
24.638528
 20
11.659324
 30
0.0
 10
24.312047
 20
12.390020
 30
0.0
 10
23.985567
 20
13.120713
 30
0.0
 10
23.905890
 20
13.120713
 30
0.0
 10
23.826213
 20
13.120713
 30
0.0
 10
23.746536
 20
13.120713
 30
0.0
 10
23.666859
 20
13.120713
 30
0.0
 10
23.575035
 20
13.130901
 30
0.0
 10
23.509450
 20
13.161508
 30
0.0
 10
23.470097
 20
13.212523
 30
0.0
 10
23.456973
 20
13.283942
 30
0.0
 10
23.470097
 20
13.351957
 30
0.0
 10
23.509450
 20
13.400539
 30
0.0
 10
23.575035
 20
13.429690
 30
0.0
 10
23.666859
 20
13.439398
 30
0.0
 10
23.960303
 20
13.439398
 30
0.0
 10
24.253749
 20
13.439398
 30
0.0
 10
24.547192
 20
13.439398
 30
0.0
 10
24.840636
 20
13.439398
 30
0.0
 10
24.935857
 20
13.429690
 30
0.0
 10
25.003873
 20
13.400539
 30
0.0
 10
25.044682
 20
13.351957
 30
0.0
 10
25.058285
 20
13.283942
 30
0.0
 10
25.044682
 20
13.212523
 30
0.0
 10
25.003873
 20
13.161508
 30
0.0
 10
24.935857
 20
13.130901
 30
0.0
 10
24.840636
 20
13.120713
 30
0.0
 10
24.714319
 20
13.120713
 30
0.0
 10
24.588002
 20
13.120713
 30
0.0
 10
24.461684
 20
13.120713
 30
0.0
 10
24.335367
 20
13.120713
 30
0.0
 10
24.626869
 20
12.469697
 30
0.0
 10
24.918368
 20
11.818678
 30
0.0
 10
25.209870
 20
11.167662
 30
0.0
 10
25.501369
 20
10.516646
 30
0.0
 10
25.538292
 20
10.516646
 30
0.0
 10
25.575215
 20
10.516646
 30
0.0
 10
25.612138
 20
10.516646
 30
0.0
 10
25.649061
 20
10.516646
 30
0.0
 10
25.934732
 20
11.167662
 30
0.0
 10
26.220403
 20
11.818678
 30
0.0
 10
26.506071
 20
12.469697
 30
0.0
 10
26.791742
 20
13.120713
 30
0.0
 10
26.659597
 20
13.120713
 30
0.0
 10
26.527450
 20
13.120713
 30
0.0
 10
26.395305
 20
13.120713
 30
0.0
 10
26.263157
 20
13.120713
 30
0.0
 10
26.171330
 20
13.130901
 30
0.0
 10
26.105745
 20
13.161508
 30
0.0
 10
26.066392
 20
13.212523
 30
0.0
 10
26.053268
 20
13.283942
 30
0.0
 10
26.066392
 20
13.351957
 30
0.0
 10
26.105745
 20
13.400539
 30
0.0
 10
26.171330
 20
13.429690
 30
0.0
 10
26.263157
 20
13.439398
 30
0.0
 10
26.558545
 20
13.439398
 30
0.0
 10
26.853930
 20
13.439398
 30
0.0
 10
27.149318
 20
13.439398
 30
0.0
 10
27.444703
 20
13.439398
 30
0.0
 10
27.536521
 20
13.429690
 30
0.0
 10
27.602109
 20
13.400539
 30
0.0
 10
27.641463
 20
13.351957
 30
0.0
 10
27.654586
 20
13.283942
 30
0.0
 10
27.641463
 20
13.212523
 30
0.0
 10
27.602109
 20
13.161508
 30
0.0
 10
27.536521
 20
13.130901
 30
0.0
 10
27.444703
 20
13.120713
 30
0.0
 10
27.365026
 20
13.120713
 30
0.0
 10
27.285349
 20
13.120713
 30
0.0
 10
27.205672
 20
13.120713
 30
0.0
 10
27.125995
 20
13.120713
 30
0.0
 10
26.803401
 20
12.390020
 30
0.0
 10
26.480810
 20
11.659324
 30
0.0
 10
26.158215
 20
10.928631
 30
0.0
 10
25.835621
 20
10.197938
 30
0.0
  0
LWPOLYLINE
  5
105
100
AcDbEntity
  8
Layer_1
 62
7
100
AcDbPolyline
 90
65
 70
0
 10
22.604950
 20
11.744832
 30
0.0
 10
21.796525
 20
11.744832
 30
0.0
 10
20.988096
 20
11.744832
 30
0.0
 10
20.179671
 20
11.744832
 30
0.0
 10
19.371242
 20
11.744832
 30
0.0
 10
19.435372
 20
11.452844
 30
0.0
 10
19.542255
 20
11.190982
 30
0.0
 10
19.691889
 20
10.959238
 30
0.0
 10
19.884280
 20
10.757618
 30
0.0
 10
20.110679
 20
10.597779
 30
0.0
 10
20.362339
 20
10.483609
 30
0.0
 10
20.639267
 20
10.415105
 30
0.0
 10
20.941456
 20
10.392273
 30
0.0
 10
21.125098
 20
10.399554
 30
0.0
 10
21.310687
 20
10.421427
 30
0.0
 10
21.498219
 20
10.457864
 30
0.0
 10
21.687697
 20
10.508876
 30
0.0
 10
21.868909
 20
10.571549
 30
0.0
 10
22.031664
 20
10.642968
 30
0.0
 10
22.175955
 20
10.723131
 30
0.0
 10
22.301790
 20
10.812036
 30
0.0
 10
22.338710
 20
10.835856
 30
0.0
 10
22.371747
 20
10.852846
 30
0.0
 10
22.400898
 20
10.863062
 30
0.0
 10
22.426157
 20
10.866449
 30
0.0
 10
22.455790
 20
10.863542
 30
0.0
 10
22.482516
 20
10.854793
 30
0.0
 10
22.506308
 20
10.840230
 30
0.0
 10
22.527192
 20
10.819826
 30
0.0
 10
22.547597
 20
10.795526
 30
0.0
 10
22.562160
 20
10.769280
 30
0.0
 10
22.570908
 20
10.741114
 30
0.0
 10
22.573815
 20
10.710992
 30
0.0
 10
22.538834
 20
10.608966
 30
0.0
 10
22.433892
 20
10.504998
 30
0.0
 10
22.258994
 20
10.399086
 30
0.0
 10
22.014138
 20
10.291232
 30
0.0
 10
21.739640
 20
10.196010
 30
0.0
 10
21.468057
 20
10.127992
 30
0.0
 10
21.199390
 20
10.087182
 30
0.0
 10
20.933641
 20
10.073579
 30
0.0
 10
20.555661
 20
10.106616
 30
0.0
 10
20.206835
 20
10.205724
 30
0.0
 10
19.887156
 20
10.370909
 30
0.0
 10
19.596628
 20
10.602165
 30
0.0
 10
19.358568
 20
10.880546
 30
0.0
 10
19.188529
 20
11.187107
 30
0.0
 10
19.086503
 20
11.521848
 30
0.0
 10
19.052495
 20
11.884766
 30
0.0
 10
19.084561
 20
12.223878
 30
0.0
 10
19.180754
 20
12.533837
 30
0.0
 10
19.341078
 20
12.814651
 30
0.0
 10
19.565535
 20
13.066315
 30
0.0
 10
19.836630
 20
13.277163
 30
0.0
 10
20.136874
 20
13.427771
 30
0.0
 10
20.466270
 20
13.518135
 30
0.0
 10
20.824817
 20
13.548260
 30
0.0
 10
21.199393
 20
13.517165
 30
0.0
 10
21.538017
 20
13.423884
 30
0.0
 10
21.840692
 20
13.268420
 30
0.0
 10
22.107418
 20
13.050767
 30
0.0
 10
22.325068
 20
12.785501
 30
0.0
 10
22.480532
 20
12.479425
 30
0.0
 10
22.573815
 20
12.132540
 30
0.0
 10
22.604911
 20
11.744846
 30
0.0
  0
LWPOLYLINE
  5
106
100
AcDbEntity
  8
Layer_1
 62
7
100
AcDbPolyline
 90
21
 70
0
 10
19.371203
 20
12.063554
 30
0.0
 10
20.098010
 20
12.063554
 30
0.0
 10
20.824817
 20
12.063554
 30
0.0
 10
21.551623
 20
12.063554
 30
0.0
 10
22.278430
 20
12.063554
 30
0.0
 10
22.212842
 20
12.314729
 30
0.0
 10
22.109357
 20
12.539668
 30
0.0
 10
21.967980
 20
12.738375
 30
0.0
 10
21.788710
 20
12.910847
 30
0.0
 10
21.579800
 20
13.050279
 30
0.0
 10
21.349516
 20
13.149875
 30
0.0
 10
21.097852
 20
13.209633
 30
0.0
 10
20.824817
 20
13.229558
 30
0.0
 10
20.552263
 20
13.209633
 30
0.0
 10
20.302056
 20
13.149875
 30
0.0
 10
20.074201
 20
13.050279
 30
0.0
 10
19.868696
 20
12.910847
 30
0.0
 10
19.691850
 20
12.741288
 30
0.0
 10
19.549988
 20
12.543554
 30
0.0
 10
19.443105
 20
12.317641
 30
0.0
 10
19.371203
 20
12.063554
 30
0.0
  0
LWPOLYLINE
  5
107
100
AcDbEntity
  8
Layer_1
 62
7
100
AcDbPolyline
 90
97
 70
0
 10
17.943943
 20
12.871979
 30
0.0
 10
17.914307
 20
12.882196
 30
0.0
 10
17.864266
 20
12.912803
 30
0.0
 10
17.793820
 20
12.963814
 30
0.0
 10
17.702970
 20
13.035233
 30
0.0
 10
17.602400
 20
13.106650
 30
0.0
 10
17.502804
 20
13.157661
 30
0.0
 10
17.404179
 20
13.188268
 30
0.0
 10
17.306530
 20
13.198485
 30
0.0
 10
17.172923
 20
13.186829
 30
0.0
 10
17.036404
 20
13.151848
 30
0.0
 10
16.896969
 20
13.093549
 30
0.0
 10
16.754622
 20
13.011930
 30
0.0
 10
16.591867
 20
12.893386
 30
0.0
 10
16.383443
 20
12.724315
 30
0.0
 10
16.129353
 20
12.504721
 30
0.0
 10
15.829596
 20
12.234597
 30
0.0
 10
15.829596
 20
11.805120
 30
0.0
 10
15.829596
 20
11.375643
 30
0.0
 10
15.829596
 20
10.946168
 30
0.0
 10
15.829596
 20
10.516691
 30
0.0
 10
16.177452
 20
10.516691
 30
0.0
 10
16.525311
 20
10.516691
 30
0.0
 10
16.873166
 20
10.516691
 30
0.0
 10
17.221022
 20
10.516691
 30
0.0
 10
17.312843
 20
10.506474
 30
0.0
 10
17.378432
 20
10.475865
 30
0.0
 10
17.417785
 20
10.424853
 30
0.0
 10
17.430908
 20
10.353437
 30
0.0
 10
17.417785
 20
10.285418
 30
0.0
 10
17.378432
 20
10.236836
 30
0.0
 10
17.312843
 20
10.207686
 30
0.0
 10
17.221022
 20
10.197977
 30
0.0
 10
16.606929
 20
10.197977
 30
0.0
 10
15.992836
 20
10.197977
 30
0.0
 10
15.378740
 20
10.197977
 30
0.0
 10
14.764647
 20
10.197977
 30
0.0
 10
14.672824
 20
10.208165
 30
0.0
 10
14.607238
 20
10.238772
 30
0.0
 10
14.567885
 20
10.289784
 30
0.0
 10
14.554762
 20
10.361203
 30
0.0
 10
14.567885
 20
10.429219
 30
0.0
 10
14.607238
 20
10.477803
 30
0.0
 10
14.672824
 20
10.506954
 30
0.0
 10
14.764647
 20
10.516663
 30
0.0
 10
14.951208
 20
10.516663
 30
0.0
 10
15.137768
 20
10.516663
 30
0.0
 10
15.324328
 20
10.516663
 30
0.0
 10
15.510888
 20
10.516663
 30
0.0
 10
15.510888
 20
11.167679
 30
0.0
 10
15.510888
 20
11.818695
 30
0.0
 10
15.510888
 20
12.469714
 30
0.0
 10
15.510888
 20
13.120730
 30
0.0
 10
15.365137
 20
13.120730
 30
0.0
 10
15.219389
 20
13.120730
 30
0.0
 10
15.073638
 20
13.120730
 30
0.0
 10
14.927888
 20
13.120730
 30
0.0
 10
14.836064
 20
13.130918
 30
0.0
 10
14.770478
 20
13.161525
 30
0.0
 10
14.731125
 20
13.212540
 30
0.0
 10
14.718002
 20
13.283959
 30
0.0
 10
14.731125
 20
13.351974
 30
0.0
 10
14.770478
 20
13.400556
 30
0.0
 10
14.836064
 20
13.429707
 30
0.0
 10
14.927888
 20
13.439415
 30
0.0
 10
15.153315
 20
13.439415
 30
0.0
 10
15.378743
 20
13.439415
 30
0.0
 10
15.604168
 20
13.439415
 30
0.0
 10
15.829596
 20
13.439415
 30
0.0
 10
15.829596
 20
13.241194
 30
0.0
 10
15.829596
 20
13.042975
 30
0.0
 10
15.829596
 20
12.844753
 30
0.0
 10
15.829596
 20
12.646534
 30
0.0
 10
16.085143
 20
12.872445
 30
0.0
 10
16.315428
 20
13.060461
 30
0.0
 10
16.520451
 20
13.210584
 30
0.0
 10
16.700209
 20
13.322815
 30
0.0
 10
16.864906
 20
13.407834
 30
0.0
 10
17.024742
 20
13.468563
 30
0.0
 10
17.179725
 20
13.505001
 30
0.0
 10
17.329850
 20
13.517136
 30
0.0
 10
17.480458
 20
13.505481
 30
0.0
 10
17.621349
 20
13.470499
 30
0.0
 10
17.752523
 20
13.412200
 30
0.0
 10
17.873983
 20
13.330582
 30
0.0
 10
17.976006
 20
13.242159
 30
0.0
 10
18.048882
 20
13.163453
 30
0.0
 10
18.092606
 20
13.094463
 30
0.0
 10
18.107169
 20
13.035194
 30
0.0
 10
18.104262
 20
13.001669
 30
0.0
 10
18.095513
 20
12.971062
 30
0.0
 10
18.080950
 20
12.943376
 30
0.0
 10
18.060546
 20
12.918597
 30
0.0
 10
18.035767
 20
12.898192
 30
0.0
 10
18.008081
 20
12.883629
 30
0.0
 10
17.977474
 20
12.874880
 30
0.0
 10
17.943954
 20
12.871974
 30
0.0
  0
LWPOLYLINE
  5
108
100
AcDbEntity
  8
Layer_1
 62
7
100
AcDbPolyline
 90
101
 70
0
 10
10.049279
 20
13.851414
 30
0.0
 10
10.075525
 20
14.029229
 30
0.0
 10
10.154231
 20
14.212871
 30
0.0
 10
10.285405
 20
14.402349
 30
0.0
 10
10.469050
 20
14.597655
 30
0.0
 10
10.693504
 20
14.774496
 30
0.0
 10
10.939337
 20
14.900813
 30
0.0
 10
11.206545
 20
14.976603
 30
0.0
 10
11.495131
 20
15.001862
 30
0.0
 10
11.770112
 20
14.976603
 30
0.0
 10
12.027603
 20
14.900813
 30
0.0
 10
12.267605
 20
14.774496
 30
0.0
 10
12.490120
 20
14.597655
 30
0.0
 10
12.680563
 20
14.387772
 30
0.0
 10
12.816597
 20
14.162344
 30
0.0
 10
12.898216
 20
13.921372
 30
0.0
 10
12.925422
 20
13.664854
 30
0.0
 10
12.912299
 20
13.492383
 30
0.0
 10
12.872946
 20
13.324768
 30
0.0
 10
12.807357
 20
13.162016
 30
0.0
 10
12.715536
 20
13.004121
 30
0.0
 10
12.582903
 20
12.830193
 30
0.0
 10
12.387112
 20
12.611567
 30
0.0
 10
12.128161
 20
12.348245
 30
0.0
 10
11.806055
 20
12.040228
 30
0.0
 10
11.403787
 20
11.665163
 30
0.0
 10
11.001516
 20
11.290101
 30
0.0
 10
10.599248
 20
10.915036
 30
0.0
 10
10.196977
 20
10.539974
 30
0.0
 10
10.196977
 20
10.534132
 30
0.0
 10
10.196977
 20
10.528318
 30
0.0
 10
10.196977
 20
10.522476
 30
0.0
 10
10.196977
 20
10.516634
 30
0.0
 10
10.807184
 20
10.516634
 30
0.0
 10
11.417390
 20
10.516634
 30
0.0
 10
12.027597
 20
10.516634
 30
0.0
 10
12.637804
 20
10.516634
 30
0.0
 10
12.637804
 20
10.586594
 30
0.0
 10
12.637804
 20
10.656554
 30
0.0
 10
12.637804
 20
10.726515
 30
0.0
 10
12.637804
 20
10.796475
 30
0.0
 10
12.647992
 20
10.888296
 30
0.0
 10
12.678599
 20
10.953881
 30
0.0
 10
12.729614
 20
10.993234
 30
0.0
 10
12.801033
 20
11.006358
 30
0.0
 10
12.869048
 20
10.993234
 30
0.0
 10
12.917630
 20
10.953881
 30
0.0
 10
12.946781
 20
10.888296
 30
0.0
 10
12.956489
 20
10.796475
 30
0.0
 10
12.956489
 20
10.646838
 30
0.0
 10
12.956489
 20
10.497201
 30
0.0
 10
12.956489
 20
10.347563
 30
0.0
 10
12.956489
 20
10.197926
 30
0.0
 10
12.190815
 20
10.197926
 30
0.0
 10
11.425143
 20
10.197926
 30
0.0
 10
10.659468
 20
10.197926
 30
0.0
 10
9.893794
 20
10.197926
 30
0.0
 10
9.893794
 20
10.314527
 30
0.0
 10
9.893794
 20
10.431127
 30
0.0
 10
9.893794
 20
10.547727
 30
0.0
 10
9.893794
 20
10.664327
 30
0.0
 10
10.352422
 20
11.095746
 30
0.0
 10
10.811047
 20
11.527168
 30
0.0
 10
11.269675
 20
11.958587
 30
0.0
 10
11.728300
 20
12.390009
 30
0.0
 10
11.976560
 20
12.639724
 30
0.0
 10
12.177209
 20
12.852520
 30
0.0
 10
12.330247
 20
13.028392
 30
0.0
 10
12.435673
 20
13.167342
 30
0.0
 10
12.510491
 20
13.289284
 30
0.0
 10
12.563932
 20
13.414142
 30
0.0
 10
12.595998
 20
13.541918
 30
0.0
 10
12.606695
 20
13.672610
 30
0.0
 10
12.585810
 20
13.868399
 30
0.0
 10
12.523137
 20
14.051555
 30
0.0
 10
12.418684
 20
14.222085
 30
0.0
 10
12.272447
 20
14.379983
 30
0.0
 10
12.098520
 20
14.512613
 30
0.0
 10
11.910986
 20
14.607349
 30
0.0
 10
11.709852
 20
14.664192
 30
0.0
 10
11.495114
 20
14.683129
 30
0.0
 10
11.301264
 20
14.668566
 30
0.0
 10
11.116163
 20
14.624839
 30
0.0
 10
10.939805
 20
14.551966
 30
0.0
 10
10.772194
 20
14.449943
 30
0.0
 10
10.626928
 20
14.326053
 30
0.0
 10
10.509843
 20
14.187589
 30
0.0
 10
10.420937
 20
14.034554
 30
0.0
 10
10.360208
 20
13.866942
 30
0.0
 10
10.332522
 20
13.798924
 30
0.0
 10
10.296085
 20
13.750339
 30
0.0
 10
10.250904
 20
13.721189
 30
0.0
 10
10.196977
 20
13.711480
 30
0.0
 10
10.170250
 20
13.714020
 30
0.0
 10
10.144512
 20
13.721302
 30
0.0
 10
10.119733
 20
13.733437
 30
0.0
 10
10.095913
 20
13.750455
 30
0.0
 10
10.075508
 20
13.774246
 30
0.0
 10
10.060946
 20
13.799026
 30
0.0
 10
10.052197
 20
13.824764
 30
0.0
 10
10.049290
 20
13.851491
 30
0.0
  0
LWPOLYLINE
  5
109
100
AcDbEntity
  8
Layer_1
 62
7
100
AcDbPolyline
 90
133
 70
0
 10
7.114007
 20
11.511708
 30
0.0
 10
7.024613
 20
11.511708
 30
0.0
 10
6.935219
 20
11.511708
 30
0.0
 10
6.845825
 20
11.511708
 30
0.0
 10
6.756431
 20
11.511708
 30
0.0
 10
6.447440
 20
12.197705
 30
0.0
 10
6.138452
 20
12.883703
 30
0.0
 10
5.829461
 20
13.569700
 30
0.0
 10
5.520470
 20
14.255698
 30
0.0
 10
5.504919
 20
14.255698
 30
0.0
 10
5.489369
 20
14.255698
 30
0.0
 10
5.473819
 20
14.255698
 30
0.0
 10
5.458268
 20
14.255698
 30
0.0
 10
5.458268
 20
13.320952
 30
0.0
 10
5.458268
 20
12.386210
 30
0.0
 10
5.458268
 20
11.451464
 30
0.0
 10
5.458268
 20
10.516722
 30
0.0
 10
5.602074
 20
10.516722
 30
0.0
 10
5.745881
 20
10.516722
 30
0.0
 10
5.889687
 20
10.516722
 30
0.0
 10
6.033493
 20
10.516722
 30
0.0
 10
6.128715
 20
10.507013
 30
0.0
 10
6.196734
 20
10.477863
 30
0.0
 10
6.237543
 20
10.429278
 30
0.0
 10
6.251146
 20
10.361263
 30
0.0
 10
6.237543
 20
10.289843
 30
0.0
 10
6.196734
 20
10.238832
 30
0.0
 10
6.128715
 20
10.208225
 30
0.0
 10
6.033493
 20
10.198036
 30
0.0
 10
5.743936
 20
10.198036
 30
0.0
 10
5.454382
 20
10.198036
 30
0.0
 10
5.164825
 20
10.198036
 30
0.0
 10
4.875268
 20
10.198036
 30
0.0
 10
4.783444
 20
10.208225
 30
0.0
 10
4.717858
 20
10.238832
 30
0.0
 10
4.678505
 20
10.289843
 30
0.0
 10
4.665382
 20
10.361263
 30
0.0
 10
4.678505
 20
10.429278
 30
0.0
 10
4.717858
 20
10.477863
 30
0.0
 10
4.783444
 20
10.507013
 30
0.0
 10
4.875268
 20
10.516722
 30
0.0
 10
4.941341
 20
10.516722
 30
0.0
 10
5.007415
 20
10.516722
 30
0.0
 10
5.073486
 20
10.516722
 30
0.0
 10
5.139560
 20
10.516722
 30
0.0
 10
5.139560
 20
11.451464
 30
0.0
 10
5.139560
 20
12.386210
 30
0.0
 10
5.139560
 20
13.320952
 30
0.0
 10
5.139560
 20
14.255698
 30
0.0
 10
5.090978
 20
14.255698
 30
0.0
 10
5.042394
 20
14.255698
 30
0.0
 10
4.993812
 20
14.255698
 30
0.0
 10
4.945228
 20
14.255698
 30
0.0
 10
4.853404
 20
14.265886
 30
0.0
 10
4.787818
 20
14.296493
 30
0.0
 10
4.748465
 20
14.347505
 30
0.0
 10
4.735342
 20
14.418927
 30
0.0
 10
4.748465
 20
14.486939
 30
0.0
 10
4.787818
 20
14.535521
 30
0.0
 10
4.853404
 20
14.564672
 30
0.0
 10
4.945228
 20
14.574380
 30
0.0
 10
5.137618
 20
14.574380
 30
0.0
 10
5.330009
 20
14.574380
 30
0.0
 10
5.522397
 20
14.574380
 30
0.0
 10
5.714788
 20
14.574380
 30
0.0
 10
6.019893
 20
13.898100
 30
0.0
 10
6.324995
 20
13.221819
 30
0.0
 10
6.630100
 20
12.545541
 30
0.0
 10
6.935202
 20
11.869261
 30
0.0
 10
7.234476
 20
12.545541
 30
0.0
 10
7.533750
 20
13.221819
 30
0.0
 10
7.833021
 20
13.898100
 30
0.0
 10
8.132295
 20
14.574380
 30
0.0
 10
8.326628
 20
14.574380
 30
0.0
 10
8.520963
 20
14.574380
 30
0.0
 10
8.715296
 20
14.574380
 30
0.0
 10
8.909629
 20
14.574380
 30
0.0
 10
9.001450
 20
14.564672
 30
0.0
 10
9.067038
 20
14.535521
 30
0.0
 10
9.106391
 20
14.486939
 30
0.0
 10
9.119514
 20
14.418927
 30
0.0
 10
9.106391
 20
14.347505
 30
0.0
 10
9.067038
 20
14.296493
 30
0.0
 10
9.001450
 20
14.265886
 30
0.0
 10
8.909629
 20
14.255698
 30
0.0
 10
8.861047
 20
14.255698
 30
0.0
 10
8.812462
 20
14.255698
 30
0.0
 10
8.763881
 20
14.255698
 30
0.0
 10
8.715296
 20
14.255698
 30
0.0
 10
8.715296
 20
13.320952
 30
0.0
 10
8.715296
 20
12.386210
 30
0.0
 10
8.715296
 20
11.451464
 30
0.0
 10
8.715296
 20
10.516722
 30
0.0
 10
8.781370
 20
10.516722
 30
0.0
 10
8.847444
 20
10.516722
 30
0.0
 10
8.913515
 20
10.516722
 30
0.0
 10
8.979589
 20
10.516722
 30
0.0
 10
9.071410
 20
10.507013
 30
0.0
 10
9.136998
 20
10.477863
 30
0.0
 10
9.176351
 20
10.429278
 30
0.0
 10
9.189474
 20
10.361263
 30
0.0
 10
9.176351
 20
10.289843
 30
0.0
 10
9.136998
 20
10.238832
 30
0.0
 10
9.071410
 20
10.208225
 30
0.0
 10
8.979589
 20
10.198036
 30
0.0
 10
8.690031
 20
10.198036
 30
0.0
 10
8.400477
 20
10.198036
 30
0.0
 10
8.110920
 20
10.198036
 30
0.0
 10
7.821363
 20
10.198036
 30
0.0
 10
7.729539
 20
10.208225
 30
0.0
 10
7.663950
 20
10.238832
 30
0.0
 10
7.624597
 20
10.289843
 30
0.0
 10
7.611474
 20
10.361263
 30
0.0
 10
7.624597
 20
10.429278
 30
0.0
 10
7.663950
 20
10.477863
 30
0.0
 10
7.729539
 20
10.507013
 30
0.0
 10
7.821363
 20
10.516722
 30
0.0
 10
7.965169
 20
10.516722
 30
0.0
 10
8.108975
 20
10.516722
 30
0.0
 10
8.252782
 20
10.516722
 30
0.0
 10
8.396588
 20
10.516722
 30
0.0
 10
8.396588
 20
11.451464
 30
0.0
 10
8.396588
 20
12.386210
 30
0.0
 10
8.396588
 20
13.320952
 30
0.0
 10
8.396588
 20
14.255698
 30
0.0
 10
8.381038
 20
14.255698
 30
0.0
 10
8.365487
 20
14.255698
 30
0.0
 10
8.349937
 20
14.255698
 30
0.0
 10
8.334386
 20
14.255698
 30
0.0
 10
8.029284
 20
13.569700
 30
0.0
 10
7.724180
 20
12.883703
 30
0.0
 10
7.419078
 20
12.197705
 30
0.0
 10
7.113973
 20
11.511708
 30
0.0
  0
LWPOLYLINE
  5
10a
100
AcDbEntity
  8
Layer_1
 62
7
100
AcDbPolyline
 90
133
 70
0
 10
2.453005
 20
11.511708
 30
0.0
 10
2.363611
 20
11.511708
 30
0.0
 10
2.274220
 20
11.511708
 30
0.0
 10
2.184826
 20
11.511708
 30
0.0
 10
2.095432
 20
11.511708
 30
0.0
 10
1.786441
 20
12.197705
 30
0.0
 10
1.477453
 20
12.883703
 30
0.0
 10
1.168462
 20
13.569700
 30
0.0
 10
0.859471
 20
14.255698
 30
0.0
 10
0.843921
 20
14.255698
 30
0.0
 10
0.828370
 20
14.255698
 30
0.0
 10
0.812820
 20
14.255698
 30
0.0
 10
0.797269
 20
14.255698
 30
0.0
 10
0.797269
 20
13.320952
 30
0.0
 10
0.797269
 20
12.386210
 30
0.0
 10
0.797269
 20
11.451464
 30
0.0
 10
0.797269
 20
10.516722
 30
0.0
 10
0.941076
 20
10.516722
 30
0.0
 10
1.084885
 20
10.516722
 30
0.0
 10
1.228691
 20
10.516722
 30
0.0
 10
1.372497
 20
10.516722
 30
0.0
 10
1.467719
 20
10.507013
 30
0.0
 10
1.535735
 20
10.477863
 30
0.0
 10
1.576544
 20
10.429278
 30
0.0
 10
1.590147
 20
10.361263
 30
0.0
 10
1.576544
 20
10.289843
 30
0.0
 10
1.535735
 20
10.238832
 30
0.0
 10
1.467719
 20
10.208225
 30
0.0
 10
1.372497
 20
10.198036
 30
0.0
 10
1.082940
 20
10.198036
 30
0.0
 10
0.793383
 20
10.198036
 30
0.0
 10
0.503826
 20
10.198036
 30
0.0
 10
0.214269
 20
10.198036
 30
0.0
 10
0.122445
 20
10.208225
 30
0.0
 10
0.056859
 20
10.238832
 30
0.0
 10
0.017506
 20
10.289843
 30
0.0
 10
0.004383
 20
10.361263
 30
0.0
 10
0.017506
 20
10.429278
 30
0.0
 10
0.056859
 20
10.477863
 30
0.0
 10
0.122445
 20
10.507013
 30
0.0
 10
0.214269
 20
10.516722
 30
0.0
 10
0.280343
 20
10.516722
 30
0.0
 10
0.346416
 20
10.516722
 30
0.0
 10
0.412490
 20
10.516722
 30
0.0
 10
0.478564
 20
10.516722
 30
0.0
 10
0.478564
 20
11.451464
 30
0.0
 10
0.478564
 20
12.386210
 30
0.0
 10
0.478564
 20
13.320952
 30
0.0
 10
0.478564
 20
14.255698
 30
0.0
 10
0.429980
 20
14.255698
 30
0.0
 10
0.381398
 20
14.255698
 30
0.0
 10
0.332813
 20
14.255698
 30
0.0
 10
0.284229
 20
14.255698
 30
0.0
 10
0.192405
 20
14.265886
 30
0.0
 10
0.126819
 20
14.296493
 30
0.0
 10
0.087466
 20
14.347505
 30
0.0
 10
0.074343
 20
14.418927
 30
0.0
 10
0.087466
 20
14.486939
 30
0.0
 10
0.126819
 20
14.535521
 30
0.0
 10
0.192405
 20
14.564672
 30
0.0
 10
0.284229
 20
14.574380
 30
0.0
 10
0.476620
 20
14.574380
 30
0.0
 10
0.669011
 20
14.574380
 30
0.0
 10
0.861399
 20
14.574380
 30
0.0
 10
1.053790
 20
14.574380
 30
0.0
 10
1.358894
 20
13.898100
 30
0.0
 10
1.663996
 20
13.221819
 30
0.0
 10
1.969101
 20
12.545541
 30
0.0
 10
2.274203
 20
11.869261
 30
0.0
 10
2.573477
 20
12.545541
 30
0.0
 10
2.872751
 20
13.221819
 30
0.0
 10
3.172023
 20
13.898100
 30
0.0
 10
3.471297
 20
14.574380
 30
0.0
 10
3.665632
 20
14.574380
 30
0.0
 10
3.859965
 20
14.574380
 30
0.0
 10
4.054300
 20
14.574380
 30
0.0
 10
4.248633
 20
14.574380
 30
0.0
 10
4.340451
 20
14.564672
 30
0.0
 10
4.406039
 20
14.535521
 30
0.0
 10
4.445392
 20
14.486939
 30
0.0
 10
4.458516
 20
14.418927
 30
0.0
 10
4.445392
 20
14.347505
 30
0.0
 10
4.406039
 20
14.296493
 30
0.0
 10
4.340451
 20
14.265886
 30
0.0
 10
4.248633
 20
14.255698
 30
0.0
 10
4.200048
 20
14.255698
 30
0.0
 10
4.151466
 20
14.255698
 30
0.0
 10
4.102882
 20
14.255698
 30
0.0
 10
4.054297
 20
14.255698
 30
0.0
 10
4.054297
 20
13.320952
 30
0.0
 10
4.054297
 20
12.386210
 30
0.0
 10
4.054297
 20
11.451464
 30
0.0
 10
4.054297
 20
10.516722
 30
0.0
 10
4.120371
 20
10.516722
 30
0.0
 10
4.186445
 20
10.516722
 30
0.0
 10
4.252519
 20
10.516722
 30
0.0
 10
4.318593
 20
10.516722
 30
0.0
 10
4.410411
 20
10.507013
 30
0.0
 10
4.475999
 20
10.477863
 30
0.0
 10
4.515352
 20
10.429278
 30
0.0
 10
4.528476
 20
10.361263
 30
0.0
 10
4.515352
 20
10.289843
 30
0.0
 10
4.475999
 20
10.238832
 30
0.0
 10
4.410411
 20
10.208225
 30
0.0
 10
4.318593
 20
10.198036
 30
0.0
 10
4.029035
 20
10.198036
 30
0.0
 10
3.739478
 20
10.198036
 30
0.0
 10
3.449921
 20
10.198036
 30
0.0
 10
3.160364
 20
10.198036
 30
0.0
 10
3.068540
 20
10.208225
 30
0.0
 10
3.002952
 20
10.238832
 30
0.0
 10
2.963599
 20
10.289843
 30
0.0
 10
2.950475
 20
10.361263
 30
0.0
 10
2.963599
 20
10.429278
 30
0.0
 10
3.002952
 20
10.477863
 30
0.0
 10
3.068540
 20
10.507013
 30
0.0
 10
3.160364
 20
10.516722
 30
0.0
 10
3.304170
 20
10.516722
 30
0.0
 10
3.447979
 20
10.516722
 30
0.0
 10
3.591786
 20
10.516722
 30
0.0
 10
3.735592
 20
10.516722
 30
0.0
 10
3.735592
 20
11.451464
 30
0.0
 10
3.735592
 20
12.386210
 30
0.0
 10
3.735592
 20
13.320952
 30
0.0
 10
3.735592
 20
14.255698
 30
0.0
 10
3.720042
 20
14.255698
 30
0.0
 10
3.704491
 20
14.255698
 30
0.0
 10
3.688941
 20
14.255698
 30
0.0
 10
3.673390
 20
14.255698
 30
0.0
 10
3.368288
 20
13.569700
 30
0.0
 10
3.063184
 20
12.883703
 30
0.0
 10
2.758082
 20
12.197705
 30
0.0
 10
2.452977
 20
11.511708
 30
0.0
  0
ENDSEC
  0
SECTION
  2
OBJECTS
  0
DICTIONARY
  5
C
330
0
100
AcDbDictionary
  3
ACAD_GROUP
350
D
  3
ACAD_MLINESTYLE
350
17
  0
DICTIONARY
  5
D
330
C
100
AcDbDictionary
  0
DICTIONARY
  5
1A
330
C
100
AcDbDictionary
  0
DICTIONARY
  5
17
330
C
100
AcDbDictionary
  3
STANDARD
350
18
  0
DICTIONARY
  5
19
330
C
100
AcDbDictionary
  0
ENDSEC
  0
EOF
