999
DXF created by Inkscape
  0
SECTION
  2
HEADER
  9
$ACADVER
  1
AC1014
  9
$HANDSEED
  5
FFFF
  9
$MEASUREMENT
 70
     1
  0
ENDSEC
  0
SECTION
  2
TABLES
  0
TABLE
  2
VPORT
  5
8
330
0
100
AcDbSymbolTable
 70
     4
  0
VPORT
  5
2E
330
8
100
AcDbSymbolTableRecord
100
AcDbViewportTableRecord
  2
*ACTIVE
 70
     0
 10
0.0
 20
0.0
 11
1.0
 21
1.0
 12
210.0
 22
148.5
 13
0.0
 23
0.0
 14
10.0
 24
10.0
 15
10.0
 25
10.0
 16
0.0
 26
0.0
 36
1.0
 17
0.0
 27
0.0
 37
0.0
 40
341.0
 41
1.24
 42
50.0
 43
0.0
 44
0.0
 50
0.0
 51
0.0
 71
     0
 72
   100
 73
     1
 74
     3
 75
     0
 76
     0
 77
     0
 78
     0
  0
ENDTAB
  0
TABLE
  2
LTYPE
  5
5
330
0
100
AcDbSymbolTable
 70
     1
  0
LTYPE
  5
14
330
5
100
AcDbSymbolTableRecord
100
AcDbLinetypeTableRecord
  2
BYBLOCK
 70
     0
  3

 72
    65
 73
     0
 40
0.0
  0
LTYPE
  5
15
330
5
100
AcDbSymbolTableRecord
100
AcDbLinetypeTableRecord
  2
BYLAYER
 70
     0
  3

 72
    65
 73
     0
 40
0.0
  0
LTYPE
  5
16
330
5
100
AcDbSymbolTableRecord
100
AcDbLinetypeTableRecord
  2
CONTINUOUS
 70
     0
  3
Solid line
 72
    65
 73
     0
 40
0.0
  0
ENDTAB
  0
TABLE
  2
LAYER
  5
2
100
AcDbSymbolTable
 70
2
  0
LAYER
  5
50
100
AcDbSymbolTableRecord
100
AcDbLayerTableRecord
  2
0
 70
0
  6
CONTINUOUS
  0
LAYER
  5
51
100
AcDbSymbolTableRecord
100
AcDbLayerTableRecord
  2
Layer_1
 70
0
  6
CONTINUOUS
  0
ENDTAB
  0
TABLE
  2
STYLE
  5
3
330
0
100
AcDbSymbolTable
 70
     1
  0
STYLE
  5
11
330
3
100
AcDbSymbolTableRecord
100
AcDbTextStyleTableRecord
  2
STANDARD
 70
     0
 40
0.0
 41
1.0
 50
0.0
 71
     0
 42
2.5
  3
txt
  4

  0
ENDTAB
  0
TABLE
  2
VIEW
  5
6
330
0
100
AcDbSymbolTable
 70
     0
  0
ENDTAB
  0
TABLE
  2
UCS
  5
7
330
0
100
AcDbSymbolTable
 70
     0
  0
ENDTAB
  0
TABLE
  2
APPID
  5
9
330
0
100
AcDbSymbolTable
 70
     2
  0
APPID
  5
12
330
9
100
AcDbSymbolTableRecord
100
AcDbRegAppTableRecord
  2
ACAD
 70
     0
  0
ENDTAB
  0
TABLE
  2
DIMSTYLE
  5
A
330
0
100
AcDbSymbolTable
 70
     1
  0
DIMSTYLE
105
27
330
A
100
AcDbSymbolTableRecord
100
AcDbDimStyleTableRecord
  2
ISO-25
 70
     0
  3

  4

  5

  6

  7

 40
1.0
 41
2.5
 42
0.625
 43
3.75
 44
1.25
 45
0.0
 46
0.0
 47
0.0
 48
0.0
140
2.5
141
2.5
142
0.0
143
0.03937007874016
144
1.0
145
0.0
146
1.0
147
0.625
 71
     0
 72
     0
 73
     0
 74
     0
 75
     0
 76
     0
 77
     1
 78
     8
170
     0
171
     3
172
     1
173
     0
174
     0
175
     0
176
     0
177
     0
178
     0
270
     2
271
     2
272
     2
273
     2
274
     3
340
11
275
     0
280
     0
281
     0
282
     0
283
     0
284
     8
285
     0
286
     0
287
     3
288
     0
  0
ENDTAB
  0
TABLE
  2
BLOCK_RECORD
  5
1
330
0
100
AcDbSymbolTable
 70
     1
  0
BLOCK_RECORD
  5
1F
330
1
100
AcDbSymbolTableRecord
100
AcDbBlockTableRecord
  2
*MODEL_SPACE
  0
BLOCK_RECORD
  5
1B
330
1
100
AcDbSymbolTableRecord
100
AcDbBlockTableRecord
  2
*PAPER_SPACE
  0
ENDTAB
  0
ENDSEC
  0
SECTION
  2
BLOCKS
  0
BLOCK
  5
20
330
1F
100
AcDbEntity
  8
0
100
AcDbBlockBegin
  2
*MODEL_SPACE
 70
     0
 10
0.0
 20
0.0
 30
0.0
  3
*MODEL_SPACE
  1

  0
ENDBLK
  5
21
330
1F
100
AcDbEntity
  8
0
100
AcDbBlockEnd
  0
BLOCK
  5
1C
330
1B
100
AcDbEntity
 67
     1
  8
0
100
AcDbBlockBegin
  2
*PAPER_SPACE
  1

  0
ENDBLK
  5
1D
330
1B
100
AcDbEntity
 67
     1
  8
0
100
AcDbBlockEnd
  0
ENDSEC
  0
SECTION
  2
ENTITIES
  0
LWPOLYLINE
  5
100
100
AcDbEntity
  8
Layer_1
 62
7
100
AcDbPolyline
 90
85
 70
0
 10
16.389855
 20
0.202073
 30
0.0
 10
16.452032
 20
1.076425
 30
0.0
 10
16.514208
 20
1.950778
 30
0.0
 10
16.160581
 20
1.950778
 30
0.0
 10
15.806953
 20
1.950778
 30
0.0
 10
15.748663
 20
1.076425
 30
0.0
 10
15.690373
 20
0.202073
 30
0.0
 10
15.637908
 20
0.050519
 30
0.0
 10
15.527161
 20
0.000001
 30
0.0
 10
15.468871
 20
0.011657
 30
0.0
 10
15.418353
 20
0.046627
 30
0.0
 10
15.383377
 20
0.099087
 30
0.0
 10
15.371722
 20
0.163208
 30
0.0
 10
15.371722
 20
0.198181
 30
0.0
 10
15.371722
 20
0.225387
 30
0.0
 10
15.433898
 20
1.088081
 30
0.0
 10
15.496074
 20
1.950775
 30
0.0
 10
15.157992
 20
1.950775
 30
0.0
 10
14.819909
 20
1.950775
 30
0.0
 10
14.662525
 20
1.991576
 30
0.0
 10
14.610066
 20
2.113987
 30
0.0
 10
14.662525
 20
2.230567
 30
0.0
 10
14.819909
 20
2.269427
 30
0.0
 10
15.165764
 20
2.269427
 30
0.0
 10
15.511619
 20
2.269427
 30
0.0
 10
15.546592
 20
2.759065
 30
0.0
 10
15.581568
 20
3.248704
 30
0.0
 10
15.278458
 20
3.248704
 30
0.0
 10
14.975349
 20
3.248704
 30
0.0
 10
14.817965
 20
3.289505
 30
0.0
 10
14.765505
 20
3.411916
 30
0.0
 10
14.817965
 20
3.528493
 30
0.0
 10
14.975349
 20
3.567355
 30
0.0
 10
15.290114
 20
3.567355
 30
0.0
 10
15.604882
 20
3.567355
 30
0.0
 10
15.667059
 20
4.441708
 30
0.0
 10
15.729235
 20
5.316061
 30
0.0
 10
15.777808
 20
5.461783
 30
0.0
 10
15.892447
 20
5.510359
 30
0.0
 10
16.003197
 20
5.461783
 30
0.0
 10
16.040117
 20
5.316061
 30
0.0
 10
16.040114
 20
5.306352
 30
0.0
 10
16.040117
 20
5.292749
 30
0.0
 10
15.981827
 20
4.430055
 30
0.0
 10
15.923537
 20
3.567361
 30
0.0
 10
16.277164
 20
3.567361
 30
0.0
 10
16.630791
 20
3.567361
 30
0.0
 10
16.692967
 20
4.441714
 30
0.0
 10
16.755144
 20
5.316066
 30
0.0
 10
16.797884
 20
5.461789
 30
0.0
 10
16.910583
 20
5.510365
 30
0.0
 10
17.027161
 20
5.461789
 30
0.0
 10
17.066023
 20
5.316066
 30
0.0
 10
17.066020
 20
5.302463
 30
0.0
 10
17.066023
 20
5.292755
 30
0.0
 10
17.003847
 20
4.430061
 30
0.0
 10
16.941670
 20
3.567367
 30
0.0
 10
17.287525
 20
3.567367
 30
0.0
 10
17.633380
 20
3.567367
 30
0.0
 10
17.790761
 20
3.528505
 30
0.0
 10
17.843226
 20
3.411927
 30
0.0
 10
17.790761
 20
3.289516
 30
0.0
 10
17.633380
 20
3.248715
 30
0.0
 10
17.279753
 20
3.248715
 30
0.0
 10
16.926128
 20
3.248715
 30
0.0
 10
16.891152
 20
2.759076
 30
0.0
 10
16.856179
 20
2.269438
 30
0.0
 10
17.167058
 20
2.269438
 30
0.0
 10
17.477940
 20
2.269438
 30
0.0
 10
17.635322
 20
2.230579
 30
0.0
 10
17.687784
 20
2.113998
 30
0.0
 10
17.635322
 20
1.991587
 30
0.0
 10
17.477940
 20
1.950786
 30
0.0
 10
17.155400
 20
1.950786
 30
0.0
 10
16.832862
 20
1.950786
 30
0.0
 10
16.770686
 20
1.076434
 30
0.0
 10
16.708509
 20
0.202081
 30
0.0
 10
16.663814
 20
0.050528
 30
0.0
 10
16.545298
 20
0.000010
 30
0.0
 10
16.490894
 20
0.011666
 30
0.0
 10
16.436490
 20
0.046636
 30
0.0
 10
16.401514
 20
0.093267
 30
0.0
 10
16.389858
 20
0.139899
 30
0.0
 10
16.389855
 20
0.170983
 30
0.0
 10
16.389858
 20
0.202075
 30
0.0
  0
LWPOLYLINE
  5
101
100
AcDbEntity
  8
Layer_1
 62
7
100
AcDbPolyline
 90
9
 70
0
 10
16.607474
 20
3.248709
 30
0.0
 10
16.253847
 20
3.248709
 30
0.0
 10
15.900219
 20
3.248709
 30
0.0
 10
15.865246
 20
2.759071
 30
0.0
 10
15.830273
 20
2.269432
 30
0.0
 10
16.183898
 20
2.269432
 30
0.0
 10
16.537525
 20
2.269432
 30
0.0
 10
16.572498
 20
2.759071
 30
0.0
 10
16.607474
 20
3.248709
 30
0.0
  0
LWPOLYLINE
  5
102
100
AcDbEntity
  8
Layer_1
 62
7
100
AcDbPolyline
 90
37
 70
0
 10
1.678759
 20
4.538852
 30
0.0
 10
1.678759
 20
2.669683
 30
0.0
 10
1.678759
 20
0.800511
 30
0.0
 10
2.739638
 20
0.800511
 30
0.0
 10
3.800520
 20
0.800511
 30
0.0
 10
3.800520
 20
1.422272
 30
0.0
 10
3.800520
 20
2.044033
 30
0.0
 10
3.841321
 20
2.201417
 30
0.0
 10
3.963732
 20
2.253879
 30
0.0
 10
4.080310
 20
2.201417
 30
0.0
 10
4.119174
 20
2.044033
 30
0.0
 10
4.119174
 20
1.262946
 30
0.0
 10
4.119174
 20
0.481856
 30
0.0
 10
2.366583
 20
0.481856
 30
0.0
 10
0.613991
 20
0.481856
 30
0.0
 10
0.456607
 20
0.522660
 30
0.0
 10
0.404148
 20
0.645071
 30
0.0
 10
0.456607
 20
0.761651
 30
0.0
 10
0.613991
 20
0.800511
 30
0.0
 10
0.987047
 20
0.800511
 30
0.0
 10
1.360105
 20
0.800511
 30
0.0
 10
1.360105
 20
2.669683
 30
0.0
 10
1.360105
 20
4.538852
 30
0.0
 10
0.987047
 20
4.538852
 30
0.0
 10
0.613991
 20
4.538852
 30
0.0
 10
0.456607
 20
4.579652
 30
0.0
 10
0.404148
 20
4.702064
 30
0.0
 10
0.456607
 20
4.818641
 30
0.0
 10
0.613991
 20
4.857506
 30
0.0
 10
1.519431
 20
4.857506
 30
0.0
 10
2.424873
 20
4.857506
 30
0.0
 10
2.582254
 20
4.818641
 30
0.0
 10
2.634717
 20
4.702064
 30
0.0
 10
2.582254
 20
4.579652
 30
0.0
 10
2.424873
 20
4.538852
 30
0.0
 10
2.051815
 20
4.538852
 30
0.0
 10
1.678759
 20
4.538852
 30
0.0
  0
LWPOLYLINE
  5
103
100
AcDbEntity
  8
Layer_1
 62
7
100
AcDbPolyline
 90
44
 70
0
 10
28.839298
 20
10.515537
 30
0.0
 10
28.839298
 20
12.384706
 30
0.0
 10
28.839298
 20
14.253877
 30
0.0
 10
28.629452
 20
14.253877
 30
0.0
 10
28.419608
 20
14.253877
 30
0.0
 10
28.262227
 20
14.294678
 30
0.0
 10
28.209765
 20
14.417089
 30
0.0
 10
28.262227
 20
14.533667
 30
0.0
 10
28.419608
 20
14.572532
 30
0.0
 10
29.422200
 20
14.572532
 30
0.0
 10
30.424792
 20
14.572532
 30
0.0
 10
30.696812
 20
14.552127
 30
0.0
 10
30.945514
 20
14.490922
 30
0.0
 10
31.170903
 20
14.388915
 30
0.0
 10
31.372977
 20
14.246105
 30
0.0
 10
31.539586
 20
14.076577
 30
0.0
 10
31.658597
 20
13.886647
 30
0.0
 10
31.730002
 20
13.676315
 30
0.0
 10
31.753793
 20
13.445587
 30
0.0
 10
31.712501
 20
13.171623
 30
0.0
 10
31.588634
 20
12.924859
 30
0.0
 10
31.382191
 20
12.705299
 30
0.0
 10
31.093170
 20
12.512945
 30
0.0
 10
31.524998
 20
12.311356
 30
0.0
 10
31.833453
 20
12.056337
 30
0.0
 10
32.018523
 20
11.747888
 30
0.0
 10
32.080217
 20
11.386003
 30
0.0
 10
32.056426
 20
11.149927
 30
0.0
 10
31.985021
 20
10.931337
 30
0.0
 10
31.866013
 20
10.730237
 30
0.0
 10
31.699403
 20
10.546623
 30
0.0
 10
31.503157
 20
10.393611
 30
0.0
 10
31.287483
 20
10.284317
 30
0.0
 10
31.052378
 20
10.218740
 30
0.0
 10
30.797847
 20
10.196896
 30
0.0
 10
30.203287
 20
10.196896
 30
0.0
 10
29.608726
 20
10.196896
 30
0.0
 10
28.419608
 20
10.196896
 30
0.0
 10
28.262227
 20
10.237700
 30
0.0
 10
28.209765
 20
10.360111
 30
0.0
 10
28.262227
 20
10.476691
 30
0.0
 10
28.419608
 20
10.515551
 30
0.0
 10
28.629452
 20
10.515551
 30
0.0
 10
28.839298
 20
10.515551
 30
0.0
  0
LWPOLYLINE
  5
104
100
AcDbEntity
  8
Layer_1
 62
7
100
AcDbPolyline
 90
25
 70
0
 10
29.157953
 20
12.629539
 30
0.0
 10
29.729196
 20
12.629539
 30
0.0
 10
30.014819
 20
12.629539
 30
0.0
 10
30.300439
 20
12.629539
 30
0.0
 10
30.537968
 20
12.644102
 30
0.0
 10
30.753157
 20
12.687821
 30
0.0
 10
30.946000
 20
12.760688
 30
0.0
 10
31.116501
 20
12.862694
 30
0.0
 10
31.255911
 20
12.987044
 30
0.0
 10
31.355487
 20
13.126942
 30
0.0
 10
31.415234
 20
13.282381
 30
0.0
 10
31.435159
 20
13.453368
 30
0.0
 10
31.417181
 20
13.617063
 30
0.0
 10
31.363260
 20
13.766189
 30
0.0
 10
31.273394
 20
13.900741
 30
0.0
 10
31.147588
 20
14.020725
 30
0.0
 10
30.995061
 20
14.122732
 30
0.0
 10
30.825048
 20
14.195593
 30
0.0
 10
30.637548
 20
14.239312
 30
0.0
 10
30.432564
 20
14.253875
 30
0.0
 10
30.113913
 20
14.253875
 30
0.0
 10
29.795258
 20
14.253875
 30
0.0
 10
29.157953
 20
14.253875
 30
0.0
 10
29.157953
 20
13.441698
 30
0.0
 10
29.157953
 20
12.629522
 30
0.0
  0
LWPOLYLINE
  5
105
100
AcDbEntity
  8
Layer_1
 62
7
100
AcDbPolyline
 90
33
 70
0
 10
31.761580
 20
11.386000
 30
0.0
 10
31.757205
 20
11.466631
 30
0.0
 10
31.744082
 20
11.545326
 30
0.0
 10
31.722238
 20
11.622073
 30
0.0
 10
31.691634
 20
11.696879
 30
0.0
 10
31.655204
 20
11.770226
 30
0.0
 10
31.608079
 20
11.842605
 30
0.0
 10
31.550274
 20
11.914010
 30
0.0
 10
31.481787
 20
11.984444
 30
0.0
 10
31.398235
 20
12.054393
 30
0.0
 10
31.295258
 20
12.116569
 30
0.0
 10
31.172850
 20
12.170973
 30
0.0
 10
31.031011
 20
12.217605
 30
0.0
 10
30.875568
 20
12.258408
 30
0.0
 10
30.704584
 20
12.287553
 30
0.0
 10
30.518058
 20
12.305051
 30
0.0
 10
30.315987
 20
12.310865
 30
0.0
 10
30.026480
 20
12.310865
 30
0.0
 10
29.736971
 20
12.310865
 30
0.0
 10
29.157955
 20
12.310865
 30
0.0
 10
29.157955
 20
11.413195
 30
0.0
 10
29.157955
 20
10.515528
 30
0.0
 10
29.966245
 20
10.515528
 30
0.0
 10
30.370391
 20
10.515528
 30
0.0
 10
30.774536
 20
10.515528
 30
0.0
 10
30.972720
 20
10.531078
 30
0.0
 10
31.155361
 20
10.577716
 30
0.0
 10
31.322459
 20
10.655440
 30
0.0
 10
31.474018
 20
10.764245
 30
0.0
 10
31.599824
 20
10.899283
 30
0.0
 10
31.689686
 20
11.047920
 30
0.0
 10
31.743608
 20
11.210164
 30
0.0
 10
31.761585
 20
11.386006
 30
0.0
  0
LWPOLYLINE
  5
106
100
AcDbEntity
  8
Layer_1
 62
7
100
AcDbPolyline
 90
41
 70
0
 10
25.826796
 20
10.196885
 30
0.0
 10
25.554773
 20
10.196885
 30
0.0
 10
25.282754
 20
10.196885
 30
0.0
 10
24.629903
 20
11.658026
 30
0.0
 10
23.977055
 20
13.119166
 30
0.0
 10
23.817730
 20
13.119166
 30
0.0
 10
23.658404
 20
13.119166
 30
0.0
 10
23.501020
 20
13.159967
 30
0.0
 10
23.448558
 20
13.282378
 30
0.0
 10
23.501020
 20
13.398956
 30
0.0
 10
23.658404
 20
13.437818
 30
0.0
 10
24.245189
 20
13.437818
 30
0.0
 10
24.831977
 20
13.437818
 30
0.0
 10
24.995189
 20
13.398956
 30
0.0
 10
25.049593
 20
13.282378
 30
0.0
 10
24.995189
 20
13.159967
 30
0.0
 10
24.831977
 20
13.119166
 30
0.0
 10
24.579385
 20
13.119166
 30
0.0
 10
24.326796
 20
13.119166
 30
0.0
 10
24.909698
 20
11.817351
 30
0.0
 10
25.492600
 20
10.515539
 30
0.0
 10
25.566432
 20
10.515539
 30
0.0
 10
25.640267
 20
10.515539
 30
0.0
 10
26.211510
 20
11.817351
 30
0.0
 10
26.782753
 20
13.119166
 30
0.0
 10
26.518506
 20
13.119166
 30
0.0
 10
26.254258
 20
13.119166
 30
0.0
 10
26.096872
 20
13.159967
 30
0.0
 10
26.044412
 20
13.282378
 30
0.0
 10
26.096872
 20
13.398956
 30
0.0
 10
26.254258
 20
13.437818
 30
0.0
 10
26.844930
 20
13.437818
 30
0.0
 10
27.435604
 20
13.437818
 30
0.0
 10
27.592985
 20
13.398956
 30
0.0
 10
27.645450
 20
13.282378
 30
0.0
 10
27.592985
 20
13.159967
 30
0.0
 10
27.435604
 20
13.119166
 30
0.0
 10
27.276278
 20
13.119166
 30
0.0
 10
27.116953
 20
13.119166
 30
0.0
 10
26.471874
 20
11.658026
 30
0.0
 10
25.826796
 20
10.196885
 30
0.0
  0
LWPOLYLINE
  5
107
100
AcDbEntity
  8
Layer_1
 62
7
100
AcDbPolyline
 90
65
 70
0
 10
22.596673
 20
11.743519
 30
0.0
 10
21.788382
 20
11.743519
 30
0.0
 10
20.980092
 20
11.743519
 30
0.0
 10
20.171802
 20
11.743519
 30
0.0
 10
19.363512
 20
11.743519
 30
0.0
 10
19.427630
 20
11.451580
 30
0.0
 10
19.534494
 20
11.189760
 30
0.0
 10
19.684105
 20
10.958055
 30
0.0
 10
19.876465
 20
10.756472
 30
0.0
 10
20.102824
 20
10.596658
 30
0.0
 10
20.354442
 20
10.482508
 30
0.0
 10
20.631319
 20
10.414016
 30
0.0
 10
20.933458
 20
10.391184
 30
0.0
 10
21.117069
 20
10.398465
 30
0.0
 10
21.302627
 20
10.420337
 30
0.0
 10
21.490127
 20
10.456769
 30
0.0
 10
21.679575
 20
10.507773
 30
0.0
 10
21.860756
 20
10.570434
 30
0.0
 10
22.023482
 20
10.641839
 30
0.0
 10
22.167751
 20
10.721988
 30
0.0
 10
22.293563
 20
10.810882
 30
0.0
 10
22.330481
 20
10.834673
 30
0.0
 10
22.363509
 20
10.851663
 30
0.0
 10
22.392648
 20
10.861851
 30
0.0
 10
22.417907
 20
10.865266
 30
0.0
 10
22.447532
 20
10.862359
 30
0.0
 10
22.474259
 20
10.853610
 30
0.0
 10
22.498050
 20
10.839048
 30
0.0
 10
22.518934
 20
10.818643
 30
0.0
 10
22.539339
 20
10.794344
 30
0.0
 10
22.553902
 20
10.768125
 30
0.0
 10
22.562651
 20
10.739960
 30
0.0
 10
22.565558
 20
10.709846
 30
0.0
 10
22.530582
 20
10.607837
 30
0.0
 10
22.425660
 20
10.503886
 30
0.0
 10
22.250789
 20
10.397991
 30
0.0
 10
22.005973
 20
10.290157
 30
0.0
 10
21.731520
 20
10.194949
 30
0.0
 10
21.459986
 20
10.126945
 30
0.0
 10
21.191367
 20
10.086141
 30
0.0
 10
20.925663
 20
10.072538
 30
0.0
 10
20.547748
 20
10.105569
 30
0.0
 10
20.198977
 20
10.204660
 30
0.0
 10
19.879352
 20
10.369814
 30
0.0
 10
19.588875
 20
10.601033
 30
0.0
 10
19.350857
 20
10.879369
 30
0.0
 10
19.180844
 20
11.185876
 30
0.0
 10
19.078835
 20
11.520561
 30
0.0
 10
19.044833
 20
11.883417
 30
0.0
 10
19.076893
 20
12.222467
 30
0.0
 10
19.173071
 20
12.532378
 30
0.0
 10
19.333368
 20
12.813144
 30
0.0
 10
19.557786
 20
13.064765
 30
0.0
 10
19.828835
 20
13.275577
 30
0.0
 10
20.129029
 20
13.426159
 30
0.0
 10
20.458368
 20
13.516510
 30
0.0
 10
20.816852
 20
13.546629
 30
0.0
 10
21.191364
 20
13.515539
 30
0.0
 10
21.529935
 20
13.422273
 30
0.0
 10
21.832556
 20
13.266833
 30
0.0
 10
22.099236
 20
13.049220
 30
0.0
 10
22.316849
 20
12.783996
 30
0.0
 10
22.472292
 20
12.477974
 30
0.0
 10
22.565558
 20
12.131149
 30
0.0
 10
22.596647
 20
11.743522
 30
0.0
  0
LWPOLYLINE
  5
108
100
AcDbEntity
  8
Layer_1
 62
7
100
AcDbPolyline
 90
21
 70
0
 10
19.363487
 20
12.062174
 30
0.0
 10
20.090170
 20
12.062174
 30
0.0
 10
20.816852
 20
12.062174
 30
0.0
 10
21.543538
 20
12.062174
 30
0.0
 10
22.270220
 20
12.062174
 30
0.0
 10
22.204643
 20
12.313303
 30
0.0
 10
22.101178
 20
12.538206
 30
0.0
 10
21.959824
 20
12.736879
 30
0.0
 10
21.780585
 20
12.909323
 30
0.0
 10
21.571709
 20
13.048732
 30
0.0
 10
21.341461
 20
13.148311
 30
0.0
 10
21.089843
 20
13.208058
 30
0.0
 10
20.816852
 20
13.227983
 30
0.0
 10
20.544344
 20
13.208058
 30
0.0
 10
20.294182
 20
13.148311
 30
0.0
 10
20.066367
 20
13.048732
 30
0.0
 10
19.860895
 20
12.909323
 30
0.0
 10
19.684080
 20
12.739795
 30
0.0
 10
19.542241
 20
12.542092
 30
0.0
 10
19.435377
 20
12.316219
 30
0.0
 10
19.363487
 20
12.062174
 30
0.0
  0
LWPOLYLINE
  5
109
100
AcDbEntity
  8
Layer_1
 62
7
100
AcDbPolyline
 90
49
 70
0
 10
17.936470
 20
12.870464
 30
0.0
 10
17.856804
 20
12.911264
 30
0.0
 10
17.695537
 20
13.033676
 30
0.0
 10
17.495404
 20
13.156084
 30
0.0
 10
17.299164
 20
13.196890
 30
0.0
 10
17.029083
 20
13.150256
 30
0.0
 10
16.747352
 20
13.010361
 30
0.0
 10
16.376235
 20
12.722794
 30
0.0
 10
15.822481
 20
12.233158
 30
0.0
 10
15.822481
 20
11.374350
 30
0.0
 10
15.822481
 20
10.515542
 30
0.0
 10
16.518077
 20
10.515542
 30
0.0
 10
17.213673
 20
10.515542
 30
0.0
 10
17.371054
 20
10.474738
 30
0.0
 10
17.423517
 20
10.352330
 30
0.0
 10
17.371054
 20
10.235747
 30
0.0
 10
17.213673
 20
10.196888
 30
0.0
 10
15.985693
 20
10.196888
 30
0.0
 10
14.757713
 20
10.196888
 30
0.0
 10
14.600329
 20
10.237692
 30
0.0
 10
14.547870
 20
10.360103
 30
0.0
 10
14.600329
 20
10.476683
 30
0.0
 10
14.757713
 20
10.515542
 30
0.0
 10
15.130769
 20
10.515542
 30
0.0
 10
15.503827
 20
10.515542
 30
0.0
 10
15.503827
 20
11.817354
 30
0.0
 10
15.503827
 20
13.119169
 30
0.0
 10
15.212376
 20
13.119169
 30
0.0
 10
14.920925
 20
13.119169
 30
0.0
 10
14.763541
 20
13.159970
 30
0.0
 10
14.711082
 20
13.282381
 30
0.0
 10
14.763541
 20
13.398959
 30
0.0
 10
14.920925
 20
13.437821
 30
0.0
 10
15.371702
 20
13.437821
 30
0.0
 10
15.822481
 20
13.437821
 30
0.0
 10
15.822481
 20
13.041448
 30
0.0
 10
15.822481
 20
12.645075
 30
0.0
 10
16.308231
 20
13.058932
 30
0.0
 10
16.692948
 20
13.321240
 30
0.0
 10
17.017427
 20
13.466963
 30
0.0
 10
17.322481
 20
13.515542
 30
0.0
 10
17.613929
 20
13.468907
 30
0.0
 10
17.866521
 20
13.329013
 30
0.0
 10
18.041389
 20
13.161912
 30
0.0
 10
18.099682
 20
13.033676
 30
0.0
 10
18.088026
 20
12.969555
 30
0.0
 10
18.053056
 20
12.917095
 30
0.0
 10
18.000591
 20
12.882119
 30
0.0
 10
17.936475
 20
12.870464
 30
0.0
  0
LWPOLYLINE
  5
10a
100
AcDbEntity
  8
Layer_1
 62
7
100
AcDbPolyline
 90
81
 70
0
 10
10.043137
 20
13.849738
 30
0.0
 10
10.069356
 20
14.027521
 30
0.0
 10
10.148048
 20
14.211135
 30
0.0
 10
10.279199
 20
14.400577
 30
0.0
 10
10.462816
 20
14.595852
 30
0.0
 10
10.687233
 20
14.772664
 30
0.0
 10
10.933024
 20
14.898958
 30
0.0
 10
11.200186
 20
14.974735
 30
0.0
 10
11.488722
 20
14.999994
 30
0.0
 10
11.763654
 20
14.974735
 30
0.0
 10
12.021103
 20
14.898958
 30
0.0
 10
12.261065
 20
14.772664
 30
0.0
 10
12.483541
 20
14.595852
 30
0.0
 10
12.673954
 20
14.386005
 30
0.0
 10
12.809962
 20
14.160617
 30
0.0
 10
12.891570
 20
13.919684
 30
0.0
 10
12.918776
 20
13.663209
 30
0.0
 10
12.905653
 20
13.490765
 30
0.0
 10
12.866308
 20
13.323182
 30
0.0
 10
12.800734
 20
13.160455
 30
0.0
 10
12.708927
 20
13.002589
 30
0.0
 10
12.576313
 20
12.828686
 30
0.0
 10
12.380555
 20
12.610100
 30
0.0
 10
12.121650
 20
12.346823
 30
0.0
 10
11.799601
 20
12.038859
 30
0.0
 10
10.995197
 20
11.288856
 30
0.0
 10
10.190793
 20
10.538857
 30
0.0
 10
10.190793
 20
10.527201
 30
0.0
 10
10.190793
 20
10.515545
 30
0.0
 10
11.411001
 20
10.515545
 30
0.0
 10
12.631208
 20
10.515545
 30
0.0
 10
12.631208
 20
10.655440
 30
0.0
 10
12.631208
 20
10.795337
 30
0.0
 10
12.672009
 20
10.952718
 30
0.0
 10
12.794420
 20
11.005181
 30
0.0
 10
12.910998
 20
10.952718
 30
0.0
 10
12.949860
 20
10.795337
 30
0.0
 10
12.949860
 20
10.496114
 30
0.0
 10
12.949860
 20
10.196891
 30
0.0
 10
11.418770
 20
10.196891
 30
0.0
 10
9.887684
 20
10.196891
 30
0.0
 10
9.887684
 20
10.430051
 30
0.0
 10
9.887684
 20
10.663212
 30
0.0
 10
10.804782
 20
11.525906
 30
0.0
 10
11.721880
 20
12.388600
 30
0.0
 10
11.970097
 20
12.638274
 30
0.0
 10
12.170712
 20
12.851035
 30
0.0
 10
12.323724
 20
13.026877
 30
0.0
 10
12.429134
 20
13.165804
 30
0.0
 10
12.503937
 20
13.287726
 30
0.0
 10
12.557371
 20
13.412562
 30
0.0
 10
12.589431
 20
13.540315
 30
0.0
 10
12.600127
 20
13.670984
 30
0.0
 10
12.579243
 20
13.866739
 30
0.0
 10
12.516581
 20
14.049867
 30
0.0
 10
12.412145
 20
14.220366
 30
0.0
 10
12.265937
 20
14.378239
 30
0.0
 10
12.092034
 20
14.510846
 30
0.0
 10
11.904534
 20
14.605566
 30
0.0
 10
11.703434
 20
14.662400
 30
0.0
 10
11.488733
 20
14.681337
 30
0.0
 10
11.294917
 20
14.666746
 30
0.0
 10
11.109847
 20
14.623033
 30
0.0
 10
10.933517
 20
14.550174
 30
0.0
 10
10.765937
 20
14.448165
 30
0.0
 10
10.620697
 20
14.324295
 30
0.0
 10
10.503631
 20
14.185856
 30
0.0
 10
10.414739
 20
14.032844
 30
0.0
 10
10.354019
 20
13.865263
 30
0.0
 10
10.326333
 20
13.797256
 30
0.0
 10
10.289904
 20
13.748680
 30
0.0
 10
10.244729
 20
13.719535
 30
0.0
 10
10.190813
 20
13.709826
 30
0.0
 10
10.164087
 20
13.712366
 30
0.0
 10
10.138348
 20
13.719648
 30
0.0
 10
10.113569
 20
13.731783
 30
0.0
 10
10.089777
 20
13.748773
 30
0.0
 10
10.069373
 20
13.772564
 30
0.0
 10
10.054810
 20
13.797343
 30
0.0
 10
10.046061
 20
13.823082
 30
0.0
 10
10.043154
 20
13.849809
 30
0.0
  0
LWPOLYLINE
  5
10b
100
AcDbEntity
  8
Layer_1
 62
7
100
AcDbPolyline
 90
67
 70
0
 10
7.108368
 20
11.510429
 30
0.0
 10
6.929611
 20
11.510429
 30
0.0
 10
6.750854
 20
11.510429
 30
0.0
 10
6.132980
 20
12.882190
 30
0.0
 10
5.515105
 20
14.253951
 30
0.0
 10
5.484015
 20
14.253951
 30
0.0
 10
5.452928
 20
14.253951
 30
0.0
 10
5.452928
 20
12.384779
 30
0.0
 10
5.452928
 20
10.515610
 30
0.0
 10
5.740493
 20
10.515610
 30
0.0
 10
6.028058
 20
10.515610
 30
0.0
 10
6.191267
 20
10.476751
 30
0.0
 10
6.245674
 20
10.360170
 30
0.0
 10
6.191267
 20
10.237759
 30
0.0
 10
6.028058
 20
10.196956
 30
0.0
 10
5.449042
 20
10.196956
 30
0.0
 10
4.870027
 20
10.196956
 30
0.0
 10
4.712643
 20
10.237759
 30
0.0
 10
4.660180
 20
10.360170
 30
0.0
 10
4.712643
 20
10.476751
 30
0.0
 10
4.870027
 20
10.515610
 30
0.0
 10
5.002149
 20
10.515610
 30
0.0
 10
5.134274
 20
10.515610
 30
0.0
 10
5.134274
 20
12.384782
 30
0.0
 10
5.134274
 20
14.253951
 30
0.0
 10
5.037122
 20
14.253951
 30
0.0
 10
4.939973
 20
14.253951
 30
0.0
 10
4.782591
 20
14.294752
 30
0.0
 10
4.730129
 20
14.417163
 30
0.0
 10
4.782591
 20
14.533740
 30
0.0
 10
4.939973
 20
14.572605
 30
0.0
 10
5.324687
 20
14.572605
 30
0.0
 10
5.709404
 20
14.572605
 30
0.0
 10
6.319506
 20
13.220272
 30
0.0
 10
6.929611
 20
11.867940
 30
0.0
 10
7.528055
 20
13.220272
 30
0.0
 10
8.126501
 20
14.572605
 30
0.0
 10
8.515102
 20
14.572605
 30
0.0
 10
8.903705
 20
14.572605
 30
0.0
 10
9.061086
 20
14.533740
 30
0.0
 10
9.113548
 20
14.417163
 30
0.0
 10
9.061086
 20
14.294752
 30
0.0
 10
8.903705
 20
14.253951
 30
0.0
 10
8.806553
 20
14.253951
 30
0.0
 10
8.709403
 20
14.253951
 30
0.0
 10
8.709403
 20
12.384782
 30
0.0
 10
8.709403
 20
10.515610
 30
0.0
 10
8.841528
 20
10.515610
 30
0.0
 10
8.973653
 20
10.515610
 30
0.0
 10
9.131032
 20
10.476751
 30
0.0
 10
9.183497
 20
10.360170
 30
0.0
 10
9.131032
 20
10.237759
 30
0.0
 10
8.973653
 20
10.196956
 30
0.0
 10
8.394638
 20
10.196956
 30
0.0
 10
7.815622
 20
10.196956
 30
0.0
 10
7.658235
 20
10.237759
 30
0.0
 10
7.605776
 20
10.360170
 30
0.0
 10
7.658235
 20
10.476751
 30
0.0
 10
7.815622
 20
10.515610
 30
0.0
 10
8.103187
 20
10.515610
 30
0.0
 10
8.390752
 20
10.515610
 30
0.0
 10
8.390752
 20
12.384782
 30
0.0
 10
8.390752
 20
14.253951
 30
0.0
 10
8.359662
 20
14.253951
 30
0.0
 10
8.328575
 20
14.253951
 30
0.0
 10
7.718470
 20
12.882190
 30
0.0
 10
7.108368
 20
11.510429
 30
0.0
  0
LWPOLYLINE
  5
10c
100
AcDbEntity
  8
Layer_1
 62
7
100
AcDbPolyline
 90
67
 70
0
 10
2.448190
 20
11.510429
 30
0.0
 10
2.269434
 20
11.510429
 30
0.0
 10
2.090680
 20
11.510429
 30
0.0
 10
1.472802
 20
12.882190
 30
0.0
 10
0.854927
 20
14.253951
 30
0.0
 10
0.823838
 20
14.253951
 30
0.0
 10
0.792751
 20
14.253951
 30
0.0
 10
0.792751
 20
12.384782
 30
0.0
 10
0.792751
 20
10.515610
 30
0.0
 10
1.080316
 20
10.515610
 30
0.0
 10
1.367880
 20
10.515610
 30
0.0
 10
1.531092
 20
10.476751
 30
0.0
 10
1.585496
 20
10.360170
 30
0.0
 10
1.531092
 20
10.237759
 30
0.0
 10
1.367880
 20
10.196956
 30
0.0
 10
0.788865
 20
10.196956
 30
0.0
 10
0.209849
 20
10.196956
 30
0.0
 10
0.052465
 20
10.237759
 30
0.0
 10
0.000006
 20
10.360170
 30
0.0
 10
0.052465
 20
10.476751
 30
0.0
 10
0.209849
 20
10.515610
 30
0.0
 10
0.341974
 20
10.515610
 30
0.0
 10
0.474099
 20
10.515610
 30
0.0
 10
0.474099
 20
12.384782
 30
0.0
 10
0.474099
 20
14.253951
 30
0.0
 10
0.376947
 20
14.253951
 30
0.0
 10
0.279798
 20
14.253951
 30
0.0
 10
0.122414
 20
14.294752
 30
0.0
 10
0.069954
 20
14.417163
 30
0.0
 10
0.122414
 20
14.533740
 30
0.0
 10
0.279798
 20
14.572605
 30
0.0
 10
0.664512
 20
14.572605
 30
0.0
 10
1.049229
 20
14.572605
 30
0.0
 10
1.659331
 20
13.220272
 30
0.0
 10
2.269434
 20
11.867940
 30
0.0
 10
2.867880
 20
13.220272
 30
0.0
 10
3.466327
 20
14.572605
 30
0.0
 10
3.854927
 20
14.572605
 30
0.0
 10
4.243527
 20
14.572605
 30
0.0
 10
4.400908
 20
14.533740
 30
0.0
 10
4.453374
 20
14.417163
 30
0.0
 10
4.400908
 20
14.294752
 30
0.0
 10
4.243527
 20
14.253951
 30
0.0
 10
4.146378
 20
14.253951
 30
0.0
 10
4.049228
 20
14.253951
 30
0.0
 10
4.049228
 20
12.384782
 30
0.0
 10
4.049228
 20
10.515610
 30
0.0
 10
4.181351
 20
10.515610
 30
0.0
 10
4.313476
 20
10.515610
 30
0.0
 10
4.470857
 20
10.476751
 30
0.0
 10
4.523322
 20
10.360170
 30
0.0
 10
4.470857
 20
10.237759
 30
0.0
 10
4.313476
 20
10.196956
 30
0.0
 10
3.734460
 20
10.196956
 30
0.0
 10
3.155445
 20
10.196956
 30
0.0
 10
2.998058
 20
10.237759
 30
0.0
 10
2.945601
 20
10.360170
 30
0.0
 10
2.998058
 20
10.476751
 30
0.0
 10
3.155445
 20
10.515610
 30
0.0
 10
3.443010
 20
10.515610
 30
0.0
 10
3.730574
 20
10.515610
 30
0.0
 10
3.730574
 20
12.384782
 30
0.0
 10
3.730574
 20
14.253951
 30
0.0
 10
3.699485
 20
14.253951
 30
0.0
 10
3.668398
 20
14.253951
 30
0.0
 10
3.058293
 20
12.882190
 30
0.0
 10
2.448190
 20
11.510429
 30
0.0
  0
ENDSEC
  0
SECTION
  2
OBJECTS
  0
DICTIONARY
  5
C
330
0
100
AcDbDictionary
  3
ACAD_GROUP
350
D
  3
ACAD_MLINESTYLE
350
17
  0
DICTIONARY
  5
D
330
C
100
AcDbDictionary
  0
DICTIONARY
  5
1A
330
C
100
AcDbDictionary
  0
DICTIONARY
  5
17
330
C
100
AcDbDictionary
  3
STANDARD
350
18
  0
DICTIONARY
  5
19
330
C
100
AcDbDictionary
  0
ENDSEC
  0
EOF
