999
DXF created by Inkscape
  0
SECTION
  2
HEADER
  9
$ACADVER
  1
AC1014
  9
$HANDSEED
  5
FFFF
  9
$MEASUREMENT
 70
     1
  0
ENDSEC
  0
SECTION
  2
TABLES
  0
TABLE
  2
VPORT
  5
8
330
0
100
AcDbSymbolTable
 70
     4
  0
VPORT
  5
2E
330
8
100
AcDbSymbolTableRecord
100
AcDbViewportTableRecord
  2
*ACTIVE
 70
     0
 10
0.0
 20
0.0
 11
1.0
 21
1.0
 12
210.0
 22
148.5
 13
0.0
 23
0.0
 14
10.0
 24
10.0
 15
10.0
 25
10.0
 16
0.0
 26
0.0
 36
1.0
 17
0.0
 27
0.0
 37
0.0
 40
341.0
 41
1.24
 42
50.0
 43
0.0
 44
0.0
 50
0.0
 51
0.0
 71
     0
 72
   100
 73
     1
 74
     3
 75
     0
 76
     0
 77
     0
 78
     0
  0
ENDTAB
  0
TABLE
  2
LTYPE
  5
5
330
0
100
AcDbSymbolTable
 70
     1
  0
LTYPE
  5
14
330
5
100
AcDbSymbolTableRecord
100
AcDbLinetypeTableRecord
  2
BYBLOCK
 70
     0
  3

 72
    65
 73
     0
 40
0.0
  0
LTYPE
  5
15
330
5
100
AcDbSymbolTableRecord
100
AcDbLinetypeTableRecord
  2
BYLAYER
 70
     0
  3

 72
    65
 73
     0
 40
0.0
  0
LTYPE
  5
16
330
5
100
AcDbSymbolTableRecord
100
AcDbLinetypeTableRecord
  2
CONTINUOUS
 70
     0
  3
Solid line
 72
    65
 73
     0
 40
0.0
  0
ENDTAB
  0
TABLE
  2
LAYER
  5
2
100
AcDbSymbolTable
 70
2
  0
LAYER
  5
50
100
AcDbSymbolTableRecord
100
AcDbLayerTableRecord
  2
0
 70
0
  6
CONTINUOUS
  0
LAYER
  5
51
100
AcDbSymbolTableRecord
100
AcDbLayerTableRecord
  2
Layer_1
 70
0
  6
CONTINUOUS
  0
ENDTAB
  0
TABLE
  2
STYLE
  5
3
330
0
100
AcDbSymbolTable
 70
     1
  0
STYLE
  5
11
330
3
100
AcDbSymbolTableRecord
100
AcDbTextStyleTableRecord
  2
STANDARD
 70
     0
 40
0.0
 41
1.0
 50
0.0
 71
     0
 42
2.5
  3
txt
  4

  0
ENDTAB
  0
TABLE
  2
VIEW
  5
6
330
0
100
AcDbSymbolTable
 70
     0
  0
ENDTAB
  0
TABLE
  2
UCS
  5
7
330
0
100
AcDbSymbolTable
 70
     0
  0
ENDTAB
  0
TABLE
  2
APPID
  5
9
330
0
100
AcDbSymbolTable
 70
     2
  0
APPID
  5
12
330
9
100
AcDbSymbolTableRecord
100
AcDbRegAppTableRecord
  2
ACAD
 70
     0
  0
ENDTAB
  0
TABLE
  2
DIMSTYLE
  5
A
330
0
100
AcDbSymbolTable
 70
     1
  0
DIMSTYLE
105
27
330
A
100
AcDbSymbolTableRecord
100
AcDbDimStyleTableRecord
  2
ISO-25
 70
     0
  3

  4

  5

  6

  7

 40
1.0
 41
2.5
 42
0.625
 43
3.75
 44
1.25
 45
0.0
 46
0.0
 47
0.0
 48
0.0
140
2.5
141
2.5
142
0.0
143
0.03937007874016
144
1.0
145
0.0
146
1.0
147
0.625
 71
     0
 72
     0
 73
     0
 74
     0
 75
     0
 76
     0
 77
     1
 78
     8
170
     0
171
     3
172
     1
173
     0
174
     0
175
     0
176
     0
177
     0
178
     0
270
     2
271
     2
272
     2
273
     2
274
     3
340
11
275
     0
280
     0
281
     0
282
     0
283
     0
284
     8
285
     0
286
     0
287
     3
288
     0
  0
ENDTAB
  0
TABLE
  2
BLOCK_RECORD
  5
1
330
0
100
AcDbSymbolTable
 70
     1
  0
BLOCK_RECORD
  5
1F
330
1
100
AcDbSymbolTableRecord
100
AcDbBlockTableRecord
  2
*MODEL_SPACE
  0
BLOCK_RECORD
  5
1B
330
1
100
AcDbSymbolTableRecord
100
AcDbBlockTableRecord
  2
*PAPER_SPACE
  0
ENDTAB
  0
ENDSEC
  0
SECTION
  2
BLOCKS
  0
BLOCK
  5
20
330
1F
100
AcDbEntity
  8
0
100
AcDbBlockBegin
  2
*MODEL_SPACE
 70
     0
 10
0.0
 20
0.0
 30
0.0
  3
*MODEL_SPACE
  1

  0
ENDBLK
  5
21
330
1F
100
AcDbEntity
  8
0
100
AcDbBlockEnd
  0
BLOCK
  5
1C
330
1B
100
AcDbEntity
 67
     1
  8
0
100
AcDbBlockBegin
  2
*PAPER_SPACE
  1

  0
ENDBLK
  5
1D
330
1B
100
AcDbEntity
 67
     1
  8
0
100
AcDbBlockEnd
  0
ENDSEC
  0
SECTION
  2
ENTITIES
  0
LINE
  5
100
100
AcDbEntity
  8
Layer_1
 62
7
100
AcDbLine
 10
16.397041
 20
0.201500
 30
0.0
 11
16.428133
 21
0.638749
 31
0.0
  0
LINE
  5
101
100
AcDbEntity
  8
Layer_1
 62
7
100
AcDbLine
 10
16.428133
 20
0.638749
 30
0.0
 11
16.459228
 21
1.075999
 31
0.0
  0
LINE
  5
102
100
AcDbEntity
  8
Layer_1
 62
7
100
AcDbLine
 10
16.459228
 20
1.075999
 30
0.0
 11
16.490321
 21
1.513249
 31
0.0
  0
LINE
  5
103
100
AcDbEntity
  8
Layer_1
 62
7
100
AcDbLine
 10
16.490321
 20
1.513249
 30
0.0
 11
16.521413
 21
1.950498
 31
0.0
  0
LINE
  5
104
100
AcDbEntity
  8
Layer_1
 62
7
100
AcDbLine
 10
16.521413
 20
1.950498
 30
0.0
 11
16.344570
 21
1.950498
 31
0.0
  0
LINE
  5
105
100
AcDbEntity
  8
Layer_1
 62
7
100
AcDbLine
 10
16.344570
 20
1.950498
 30
0.0
 11
16.167727
 21
1.950498
 31
0.0
  0
LINE
  5
106
100
AcDbEntity
  8
Layer_1
 62
7
100
AcDbLine
 10
16.167727
 20
1.950498
 30
0.0
 11
15.990883
 21
1.950498
 31
0.0
  0
LINE
  5
107
100
AcDbEntity
  8
Layer_1
 62
7
100
AcDbLine
 10
15.990883
 20
1.950498
 30
0.0
 11
15.814040
 21
1.950498
 31
0.0
  0
LINE
  5
108
100
AcDbEntity
  8
Layer_1
 62
7
100
AcDbLine
 10
15.814040
 20
1.950498
 30
0.0
 11
15.784889
 21
1.513249
 31
0.0
  0
LINE
  5
109
100
AcDbEntity
  8
Layer_1
 62
7
100
AcDbLine
 10
15.784889
 20
1.513249
 30
0.0
 11
15.755741
 21
1.075999
 31
0.0
  0
LINE
  5
10a
100
AcDbEntity
  8
Layer_1
 62
7
100
AcDbLine
 10
15.755741
 20
1.075999
 30
0.0
 11
15.726591
 21
0.638749
 31
0.0
  0
LINE
  5
10b
100
AcDbEntity
  8
Layer_1
 62
7
100
AcDbLine
 10
15.726591
 20
0.638749
 30
0.0
 11
15.697440
 21
0.201500
 31
0.0
  0
LINE
  5
10c
100
AcDbEntity
  8
Layer_1
 62
7
100
AcDbLine
 10
15.697440
 20
0.201500
 30
0.0
 11
15.678503
 21
0.113077
 31
0.0
  0
LINE
  5
10d
100
AcDbEntity
  8
Layer_1
 62
7
100
AcDbLine
 10
15.678503
 20
0.113077
 30
0.0
 11
15.644980
 21
0.049918
 31
0.0
  0
LINE
  5
10e
100
AcDbEntity
  8
Layer_1
 62
7
100
AcDbLine
 10
15.644980
 20
0.049918
 30
0.0
 11
15.596884
 21
0.012024
 31
0.0
  0
LINE
  5
10f
100
AcDbEntity
  8
Layer_1
 62
7
100
AcDbLine
 10
15.596884
 20
0.012024
 30
0.0
 11
15.534211
 21
-0.000619
 31
0.0
  0
LINE
  5
110
100
AcDbEntity
  8
Layer_1
 62
7
100
AcDbLine
 10
15.534211
 20
-0.000619
 30
0.0
 11
15.504089
 21
0.002287
 31
0.0
  0
LINE
  5
111
100
AcDbEntity
  8
Layer_1
 62
7
100
AcDbLine
 10
15.504089
 20
0.002287
 30
0.0
 11
15.475895
 21
0.011036
 31
0.0
  0
LINE
  5
112
100
AcDbEntity
  8
Layer_1
 62
7
100
AcDbLine
 10
15.475895
 20
0.011036
 30
0.0
 11
15.449677
 21
0.025599
 31
0.0
  0
LINE
  5
113
100
AcDbEntity
  8
Layer_1
 62
7
100
AcDbLine
 10
15.449677
 20
0.025599
 30
0.0
 11
15.425378
 21
0.046004
 31
0.0
  0
LINE
  5
114
100
AcDbEntity
  8
Layer_1
 62
7
100
AcDbLine
 10
15.425378
 20
0.046004
 30
0.0
 11
15.404973
 21
0.070783
 31
0.0
  0
LINE
  5
115
100
AcDbEntity
  8
Layer_1
 62
7
100
AcDbLine
 10
15.404973
 20
0.070783
 30
0.0
 11
15.390410
 21
0.098469
 31
0.0
  0
LINE
  5
116
100
AcDbEntity
  8
Layer_1
 62
7
100
AcDbLine
 10
15.390410
 20
0.098469
 30
0.0
 11
15.381661
 21
0.129076
 31
0.0
  0
LINE
  5
117
100
AcDbEntity
  8
Layer_1
 62
7
100
AcDbLine
 10
15.381661
 20
0.129076
 30
0.0
 11
15.378755
 21
0.162598
 31
0.0
  0
LINE
  5
118
100
AcDbEntity
  8
Layer_1
 62
7
100
AcDbLine
 10
15.378755
 20
0.162598
 30
0.0
 11
15.378752
 21
0.181055
 31
0.0
  0
LINE
  5
119
100
AcDbEntity
  8
Layer_1
 62
7
100
AcDbLine
 10
15.378752
 20
0.181055
 30
0.0
 11
15.378752
 21
0.197565
 31
0.0
  0
LINE
  5
11a
100
AcDbEntity
  8
Layer_1
 62
7
100
AcDbLine
 10
15.378752
 20
0.197565
 30
0.0
 11
15.378752
 21
0.212156
 31
0.0
  0
LINE
  5
11b
100
AcDbEntity
  8
Layer_1
 62
7
100
AcDbLine
 10
15.378752
 20
0.212156
 30
0.0
 11
15.378755
 21
0.224800
 31
0.0
  0
LINE
  5
11c
100
AcDbEntity
  8
Layer_1
 62
7
100
AcDbLine
 10
15.378755
 20
0.224800
 30
0.0
 11
15.409847
 21
0.656219
 31
0.0
  0
LINE
  5
11d
100
AcDbEntity
  8
Layer_1
 62
7
100
AcDbLine
 10
15.409847
 20
0.656219
 30
0.0
 11
15.440942
 21
1.087638
 31
0.0
  0
LINE
  5
11e
100
AcDbEntity
  8
Layer_1
 62
7
100
AcDbLine
 10
15.440942
 20
1.087638
 30
0.0
 11
15.472035
 21
1.519060
 31
0.0
  0
LINE
  5
11f
100
AcDbEntity
  8
Layer_1
 62
7
100
AcDbLine
 10
15.472035
 20
1.519060
 30
0.0
 11
15.503127
 21
1.950479
 31
0.0
  0
LINE
  5
120
100
AcDbEntity
  8
Layer_1
 62
7
100
AcDbLine
 10
15.503127
 20
1.950479
 30
0.0
 11
15.334056
 21
1.950479
 31
0.0
  0
LINE
  5
121
100
AcDbEntity
  8
Layer_1
 62
7
100
AcDbLine
 10
15.334056
 20
1.950479
 30
0.0
 11
15.164988
 21
1.950479
 31
0.0
  0
LINE
  5
122
100
AcDbEntity
  8
Layer_1
 62
7
100
AcDbLine
 10
15.164988
 20
1.950479
 30
0.0
 11
14.995917
 21
1.950479
 31
0.0
  0
LINE
  5
123
100
AcDbEntity
  8
Layer_1
 62
7
100
AcDbLine
 10
14.995917
 20
1.950479
 30
0.0
 11
14.826846
 21
1.950479
 31
0.0
  0
LINE
  5
124
100
AcDbEntity
  8
Layer_1
 62
7
100
AcDbLine
 10
14.826846
 20
1.950479
 30
0.0
 11
14.735023
 21
1.960695
 31
0.0
  0
LINE
  5
125
100
AcDbEntity
  8
Layer_1
 62
7
100
AcDbLine
 10
14.735023
 20
1.960695
 30
0.0
 11
14.669437
 21
1.991302
 31
0.0
  0
LINE
  5
126
100
AcDbEntity
  8
Layer_1
 62
7
100
AcDbLine
 10
14.669437
 20
1.991302
 30
0.0
 11
14.630084
 21
2.042314
 31
0.0
  0
LINE
  5
127
100
AcDbEntity
  8
Layer_1
 62
7
100
AcDbLine
 10
14.630084
 20
2.042314
 30
0.0
 11
14.616961
 21
2.113733
 31
0.0
  0
LINE
  5
128
100
AcDbEntity
  8
Layer_1
 62
7
100
AcDbLine
 10
14.616961
 20
2.113733
 30
0.0
 11
14.630084
 21
2.181749
 31
0.0
  0
LINE
  5
129
100
AcDbEntity
  8
Layer_1
 62
7
100
AcDbLine
 10
14.630084
 20
2.181749
 30
0.0
 11
14.669437
 21
2.230333
 31
0.0
  0
LINE
  5
12a
100
AcDbEntity
  8
Layer_1
 62
7
100
AcDbLine
 10
14.669437
 20
2.230333
 30
0.0
 11
14.735023
 21
2.259484
 31
0.0
  0
LINE
  5
12b
100
AcDbEntity
  8
Layer_1
 62
7
100
AcDbLine
 10
14.735023
 20
2.259484
 30
0.0
 11
14.826846
 21
2.269192
 31
0.0
  0
LINE
  5
12c
100
AcDbEntity
  8
Layer_1
 62
7
100
AcDbLine
 10
14.826846
 20
2.269192
 30
0.0
 11
14.999803
 21
2.269192
 31
0.0
  0
LINE
  5
12d
100
AcDbEntity
  8
Layer_1
 62
7
100
AcDbLine
 10
14.999803
 20
2.269192
 30
0.0
 11
15.172761
 21
2.269192
 31
0.0
  0
LINE
  5
12e
100
AcDbEntity
  8
Layer_1
 62
7
100
AcDbLine
 10
15.172761
 20
2.269192
 30
0.0
 11
15.345718
 21
2.269192
 31
0.0
  0
LINE
  5
12f
100
AcDbEntity
  8
Layer_1
 62
7
100
AcDbLine
 10
15.345718
 20
2.269192
 30
0.0
 11
15.518675
 21
2.269192
 31
0.0
  0
LINE
  5
130
100
AcDbEntity
  8
Layer_1
 62
7
100
AcDbLine
 10
15.518675
 20
2.269192
 30
0.0
 11
15.536172
 21
2.514054
 31
0.0
  0
LINE
  5
131
100
AcDbEntity
  8
Layer_1
 62
7
100
AcDbLine
 10
15.536172
 20
2.514054
 30
0.0
 11
15.553670
 21
2.758913
 31
0.0
  0
LINE
  5
132
100
AcDbEntity
  8
Layer_1
 62
7
100
AcDbLine
 10
15.553670
 20
2.758913
 30
0.0
 11
15.571168
 21
3.003774
 31
0.0
  0
LINE
  5
133
100
AcDbEntity
  8
Layer_1
 62
7
100
AcDbLine
 10
15.571168
 20
3.003774
 30
0.0
 11
15.588666
 21
3.248633
 31
0.0
  0
LINE
  5
134
100
AcDbEntity
  8
Layer_1
 62
7
100
AcDbLine
 10
15.588666
 20
3.248633
 30
0.0
 11
15.437087
 21
3.248633
 31
0.0
  0
LINE
  5
135
100
AcDbEntity
  8
Layer_1
 62
7
100
AcDbLine
 10
15.437087
 20
3.248633
 30
0.0
 11
15.285508
 21
3.248633
 31
0.0
  0
LINE
  5
136
100
AcDbEntity
  8
Layer_1
 62
7
100
AcDbLine
 10
15.285508
 20
3.248633
 30
0.0
 11
15.133927
 21
3.248633
 31
0.0
  0
LINE
  5
137
100
AcDbEntity
  8
Layer_1
 62
7
100
AcDbLine
 10
15.133927
 20
3.248633
 30
0.0
 11
14.982348
 21
3.248633
 31
0.0
  0
LINE
  5
138
100
AcDbEntity
  8
Layer_1
 62
7
100
AcDbLine
 10
14.982348
 20
3.248633
 30
0.0
 11
14.890524
 21
3.258821
 31
0.0
  0
LINE
  5
139
100
AcDbEntity
  8
Layer_1
 62
7
100
AcDbLine
 10
14.890524
 20
3.258821
 30
0.0
 11
14.824936
 21
3.289428
 31
0.0
  0
LINE
  5
13a
100
AcDbEntity
  8
Layer_1
 62
7
100
AcDbLine
 10
14.824936
 20
3.289428
 30
0.0
 11
14.785583
 21
3.340443
 31
0.0
  0
LINE
  5
13b
100
AcDbEntity
  8
Layer_1
 62
7
100
AcDbLine
 10
14.785583
 20
3.340443
 30
0.0
 11
14.772459
 21
3.411862
 31
0.0
  0
LINE
  5
13c
100
AcDbEntity
  8
Layer_1
 62
7
100
AcDbLine
 10
14.772459
 20
3.411862
 30
0.0
 11
14.785583
 21
3.479878
 31
0.0
  0
LINE
  5
13d
100
AcDbEntity
  8
Layer_1
 62
7
100
AcDbLine
 10
14.785583
 20
3.479878
 30
0.0
 11
14.824936
 21
3.528459
 31
0.0
  0
LINE
  5
13e
100
AcDbEntity
  8
Layer_1
 62
7
100
AcDbLine
 10
14.824936
 20
3.528459
 30
0.0
 11
14.890524
 21
3.557610
 31
0.0
  0
LINE
  5
13f
100
AcDbEntity
  8
Layer_1
 62
7
100
AcDbLine
 10
14.890524
 20
3.557610
 30
0.0
 11
14.982348
 21
3.567319
 31
0.0
  0
LINE
  5
140
100
AcDbEntity
  8
Layer_1
 62
7
100
AcDbLine
 10
14.982348
 20
3.567319
 30
0.0
 11
15.139757
 21
3.567319
 31
0.0
  0
LINE
  5
141
100
AcDbEntity
  8
Layer_1
 62
7
100
AcDbLine
 10
15.139757
 20
3.567319
 30
0.0
 11
15.297167
 21
3.567319
 31
0.0
  0
LINE
  5
142
100
AcDbEntity
  8
Layer_1
 62
7
100
AcDbLine
 10
15.297167
 20
3.567319
 30
0.0
 11
15.454576
 21
3.567319
 31
0.0
  0
LINE
  5
143
100
AcDbEntity
  8
Layer_1
 62
7
100
AcDbLine
 10
15.454576
 20
3.567319
 30
0.0
 11
15.611986
 21
3.567319
 31
0.0
  0
LINE
  5
144
100
AcDbEntity
  8
Layer_1
 62
7
100
AcDbLine
 10
15.611986
 20
3.567319
 30
0.0
 11
15.643081
 21
4.004568
 31
0.0
  0
LINE
  5
145
100
AcDbEntity
  8
Layer_1
 62
7
100
AcDbLine
 10
15.643081
 20
4.004568
 30
0.0
 11
15.674173
 21
4.441818
 31
0.0
  0
LINE
  5
146
100
AcDbEntity
  8
Layer_1
 62
7
100
AcDbLine
 10
15.674173
 20
4.441818
 30
0.0
 11
15.705269
 21
4.879068
 31
0.0
  0
LINE
  5
147
100
AcDbEntity
  8
Layer_1
 62
7
100
AcDbLine
 10
15.705269
 20
4.879068
 30
0.0
 11
15.736361
 21
5.316317
 31
0.0
  0
LINE
  5
148
100
AcDbEntity
  8
Layer_1
 62
7
100
AcDbLine
 10
15.736361
 20
5.316317
 30
0.0
 11
15.752391
 21
5.401337
 31
0.0
  0
LINE
  5
149
100
AcDbEntity
  8
Layer_1
 62
7
100
AcDbLine
 10
15.752391
 20
5.401337
 30
0.0
 11
15.784940
 21
5.462065
 31
0.0
  0
LINE
  5
14a
100
AcDbEntity
  8
Layer_1
 62
7
100
AcDbLine
 10
15.784940
 20
5.462065
 30
0.0
 11
15.834013
 21
5.498503
 31
0.0
  0
LINE
  5
14b
100
AcDbEntity
  8
Layer_1
 62
7
100
AcDbLine
 10
15.834013
 20
5.498503
 30
0.0
 11
15.899601
 21
5.510639
 31
0.0
  0
LINE
  5
14c
100
AcDbEntity
  8
Layer_1
 62
7
100
AcDbLine
 10
15.899601
 20
5.510639
 30
0.0
 11
15.964216
 21
5.498503
 31
0.0
  0
LINE
  5
14d
100
AcDbEntity
  8
Layer_1
 62
7
100
AcDbLine
 10
15.964216
 20
5.498503
 30
0.0
 11
16.010368
 21
5.462065
 31
0.0
  0
LINE
  5
14e
100
AcDbEntity
  8
Layer_1
 62
7
100
AcDbLine
 10
16.010368
 20
5.462065
 30
0.0
 11
16.038054
 21
5.401337
 31
0.0
  0
LINE
  5
14f
100
AcDbEntity
  8
Layer_1
 62
7
100
AcDbLine
 10
16.038054
 20
5.401337
 30
0.0
 11
16.047283
 21
5.316317
 31
0.0
  0
LINE
  5
150
100
AcDbEntity
  8
Layer_1
 62
7
100
AcDbLine
 10
16.047283
 20
5.316317
 30
0.0
 11
16.047280
 21
5.311943
 31
0.0
  0
LINE
  5
151
100
AcDbEntity
  8
Layer_1
 62
7
100
AcDbLine
 10
16.047280
 20
5.311943
 30
0.0
 11
16.047280
 21
5.306609
 31
0.0
  0
LINE
  5
152
100
AcDbEntity
  8
Layer_1
 62
7
100
AcDbLine
 10
16.047280
 20
5.306609
 30
0.0
 11
16.047280
 21
5.300287
 31
0.0
  0
LINE
  5
153
100
AcDbEntity
  8
Layer_1
 62
7
100
AcDbLine
 10
16.047280
 20
5.300287
 30
0.0
 11
16.047283
 21
5.293006
 31
0.0
  0
LINE
  5
154
100
AcDbEntity
  8
Layer_1
 62
7
100
AcDbLine
 10
16.047283
 20
5.293006
 30
0.0
 11
16.018132
 21
4.861587
 31
0.0
  0
LINE
  5
155
100
AcDbEntity
  8
Layer_1
 62
7
100
AcDbLine
 10
16.018132
 20
4.861587
 30
0.0
 11
15.988984
 21
4.430165
 31
0.0
  0
LINE
  5
156
100
AcDbEntity
  8
Layer_1
 62
7
100
AcDbLine
 10
15.988984
 20
4.430165
 30
0.0
 11
15.959833
 21
3.998746
 31
0.0
  0
LINE
  5
157
100
AcDbEntity
  8
Layer_1
 62
7
100
AcDbLine
 10
15.959833
 20
3.998746
 30
0.0
 11
15.930682
 21
3.567327
 31
0.0
  0
LINE
  5
158
100
AcDbEntity
  8
Layer_1
 62
7
100
AcDbLine
 10
15.930682
 20
3.567327
 30
0.0
 11
16.107526
 21
3.567327
 31
0.0
  0
LINE
  5
159
100
AcDbEntity
  8
Layer_1
 62
7
100
AcDbLine
 10
16.107526
 20
3.567327
 30
0.0
 11
16.284369
 21
3.567327
 31
0.0
  0
LINE
  5
15a
100
AcDbEntity
  8
Layer_1
 62
7
100
AcDbLine
 10
16.284369
 20
3.567327
 30
0.0
 11
16.461212
 21
3.567327
 31
0.0
  0
LINE
  5
15b
100
AcDbEntity
  8
Layer_1
 62
7
100
AcDbLine
 10
16.461212
 20
3.567327
 30
0.0
 11
16.638056
 21
3.567327
 31
0.0
  0
LINE
  5
15c
100
AcDbEntity
  8
Layer_1
 62
7
100
AcDbLine
 10
16.638056
 20
3.567327
 30
0.0
 11
16.669151
 21
4.004577
 31
0.0
  0
LINE
  5
15d
100
AcDbEntity
  8
Layer_1
 62
7
100
AcDbLine
 10
16.669151
 20
4.004577
 30
0.0
 11
16.700243
 21
4.441826
 31
0.0
  0
LINE
  5
15e
100
AcDbEntity
  8
Layer_1
 62
7
100
AcDbLine
 10
16.700243
 20
4.441826
 30
0.0
 11
16.731338
 21
4.879076
 31
0.0
  0
LINE
  5
15f
100
AcDbEntity
  8
Layer_1
 62
7
100
AcDbLine
 10
16.731338
 20
4.879076
 30
0.0
 11
16.762431
 21
5.316326
 31
0.0
  0
LINE
  5
160
100
AcDbEntity
  8
Layer_1
 62
7
100
AcDbLine
 10
16.762431
 20
5.316326
 30
0.0
 11
16.775046
 21
5.401345
 31
0.0
  0
LINE
  5
161
100
AcDbEntity
  8
Layer_1
 62
7
100
AcDbLine
 10
16.775046
 20
5.401345
 30
0.0
 11
16.805168
 21
5.462074
 31
0.0
  0
LINE
  5
162
100
AcDbEntity
  8
Layer_1
 62
7
100
AcDbLine
 10
16.805168
 20
5.462074
 30
0.0
 11
16.852781
 21
5.498512
 31
0.0
  0
LINE
  5
163
100
AcDbEntity
  8
Layer_1
 62
7
100
AcDbLine
 10
16.852781
 20
5.498512
 30
0.0
 11
16.917887
 21
5.510647
 31
0.0
  0
LINE
  5
164
100
AcDbEntity
  8
Layer_1
 62
7
100
AcDbLine
 10
16.917887
 20
5.510647
 30
0.0
 11
16.985903
 21
5.498512
 31
0.0
  0
LINE
  5
165
100
AcDbEntity
  8
Layer_1
 62
7
100
AcDbLine
 10
16.985903
 20
5.498512
 30
0.0
 11
17.034487
 21
5.462074
 31
0.0
  0
LINE
  5
166
100
AcDbEntity
  8
Layer_1
 62
7
100
AcDbLine
 10
17.034487
 20
5.462074
 30
0.0
 11
17.063638
 21
5.401345
 31
0.0
  0
LINE
  5
167
100
AcDbEntity
  8
Layer_1
 62
7
100
AcDbLine
 10
17.063638
 20
5.401345
 30
0.0
 11
17.073347
 21
5.316326
 31
0.0
  0
LINE
  5
168
100
AcDbEntity
  8
Layer_1
 62
7
100
AcDbLine
 10
17.073347
 20
5.316326
 30
0.0
 11
17.073344
 21
5.309044
 31
0.0
  0
LINE
  5
169
100
AcDbEntity
  8
Layer_1
 62
7
100
AcDbLine
 10
17.073344
 20
5.309044
 30
0.0
 11
17.073344
 21
5.302723
 31
0.0
  0
LINE
  5
16a
100
AcDbEntity
  8
Layer_1
 62
7
100
AcDbLine
 10
17.073344
 20
5.302723
 30
0.0
 11
17.073344
 21
5.297389
 31
0.0
  0
LINE
  5
16b
100
AcDbEntity
  8
Layer_1
 62
7
100
AcDbLine
 10
17.073344
 20
5.297389
 30
0.0
 11
17.073347
 21
5.293014
 31
0.0
  0
LINE
  5
16c
100
AcDbEntity
  8
Layer_1
 62
7
100
AcDbLine
 10
17.073347
 20
5.293014
 30
0.0
 11
17.042254
 21
4.861595
 31
0.0
  0
LINE
  5
16d
100
AcDbEntity
  8
Layer_1
 62
7
100
AcDbLine
 10
17.042254
 20
4.861595
 30
0.0
 11
17.011162
 21
4.430176
 31
0.0
  0
LINE
  5
16e
100
AcDbEntity
  8
Layer_1
 62
7
100
AcDbLine
 10
17.011162
 20
4.430176
 30
0.0
 11
16.980067
 21
3.998754
 31
0.0
  0
LINE
  5
16f
100
AcDbEntity
  8
Layer_1
 62
7
100
AcDbLine
 10
16.980067
 20
3.998754
 30
0.0
 11
16.948974
 21
3.567335
 31
0.0
  0
LINE
  5
170
100
AcDbEntity
  8
Layer_1
 62
7
100
AcDbLine
 10
16.948974
 20
3.567335
 30
0.0
 11
17.121931
 21
3.567335
 31
0.0
  0
LINE
  5
171
100
AcDbEntity
  8
Layer_1
 62
7
100
AcDbLine
 10
17.121931
 20
3.567335
 30
0.0
 11
17.294888
 21
3.567335
 31
0.0
  0
LINE
  5
172
100
AcDbEntity
  8
Layer_1
 62
7
100
AcDbLine
 10
17.294888
 20
3.567335
 30
0.0
 11
17.467842
 21
3.567335
 31
0.0
  0
LINE
  5
173
100
AcDbEntity
  8
Layer_1
 62
7
100
AcDbLine
 10
17.467842
 20
3.567335
 30
0.0
 11
17.640800
 21
3.567335
 31
0.0
  0
LINE
  5
174
100
AcDbEntity
  8
Layer_1
 62
7
100
AcDbLine
 10
17.640800
 20
3.567335
 30
0.0
 11
17.732621
 21
3.557627
 31
0.0
  0
LINE
  5
175
100
AcDbEntity
  8
Layer_1
 62
7
100
AcDbLine
 10
17.732621
 20
3.557627
 30
0.0
 11
17.798209
 21
3.528476
 31
0.0
  0
LINE
  5
176
100
AcDbEntity
  8
Layer_1
 62
7
100
AcDbLine
 10
17.798209
 20
3.528476
 30
0.0
 11
17.837562
 21
3.479895
 31
0.0
  0
LINE
  5
177
100
AcDbEntity
  8
Layer_1
 62
7
100
AcDbLine
 10
17.837562
 20
3.479895
 30
0.0
 11
17.850685
 21
3.411879
 31
0.0
  0
LINE
  5
178
100
AcDbEntity
  8
Layer_1
 62
7
100
AcDbLine
 10
17.850685
 20
3.411879
 30
0.0
 11
17.837562
 21
3.340460
 31
0.0
  0
LINE
  5
179
100
AcDbEntity
  8
Layer_1
 62
7
100
AcDbLine
 10
17.837562
 20
3.340460
 30
0.0
 11
17.798209
 21
3.289445
 31
0.0
  0
LINE
  5
17a
100
AcDbEntity
  8
Layer_1
 62
7
100
AcDbLine
 10
17.798209
 20
3.289445
 30
0.0
 11
17.732621
 21
3.258838
 31
0.0
  0
LINE
  5
17b
100
AcDbEntity
  8
Layer_1
 62
7
100
AcDbLine
 10
17.732621
 20
3.258838
 30
0.0
 11
17.640800
 21
3.248650
 31
0.0
  0
LINE
  5
17c
100
AcDbEntity
  8
Layer_1
 62
7
100
AcDbLine
 10
17.640800
 20
3.248650
 30
0.0
 11
17.463956
 21
3.248650
 31
0.0
  0
LINE
  5
17d
100
AcDbEntity
  8
Layer_1
 62
7
100
AcDbLine
 10
17.463956
 20
3.248650
 30
0.0
 11
17.287113
 21
3.248650
 31
0.0
  0
LINE
  5
17e
100
AcDbEntity
  8
Layer_1
 62
7
100
AcDbLine
 10
17.287113
 20
3.248650
 30
0.0
 11
17.110270
 21
3.248650
 31
0.0
  0
LINE
  5
17f
100
AcDbEntity
  8
Layer_1
 62
7
100
AcDbLine
 10
17.110270
 20
3.248650
 30
0.0
 11
16.933426
 21
3.248650
 31
0.0
  0
LINE
  5
180
100
AcDbEntity
  8
Layer_1
 62
7
100
AcDbLine
 10
16.933426
 20
3.248650
 30
0.0
 11
16.915929
 21
3.003791
 31
0.0
  0
LINE
  5
181
100
AcDbEntity
  8
Layer_1
 62
7
100
AcDbLine
 10
16.915929
 20
3.003791
 30
0.0
 11
16.898431
 21
2.758930
 31
0.0
  0
LINE
  5
182
100
AcDbEntity
  8
Layer_1
 62
7
100
AcDbLine
 10
16.898431
 20
2.758930
 30
0.0
 11
16.880933
 21
2.514071
 31
0.0
  0
LINE
  5
183
100
AcDbEntity
  8
Layer_1
 62
7
100
AcDbLine
 10
16.880933
 20
2.514071
 30
0.0
 11
16.863435
 21
2.269209
 31
0.0
  0
LINE
  5
184
100
AcDbEntity
  8
Layer_1
 62
7
100
AcDbLine
 10
16.863435
 20
2.269209
 30
0.0
 11
17.018903
 21
2.269209
 31
0.0
  0
LINE
  5
185
100
AcDbEntity
  8
Layer_1
 62
7
100
AcDbLine
 10
17.018903
 20
2.269209
 30
0.0
 11
17.174371
 21
2.269209
 31
0.0
  0
LINE
  5
186
100
AcDbEntity
  8
Layer_1
 62
7
100
AcDbLine
 10
17.174371
 20
2.269209
 30
0.0
 11
17.329836
 21
2.269209
 31
0.0
  0
LINE
  5
187
100
AcDbEntity
  8
Layer_1
 62
7
100
AcDbLine
 10
17.329836
 20
2.269209
 30
0.0
 11
17.485304
 21
2.269209
 31
0.0
  0
LINE
  5
188
100
AcDbEntity
  8
Layer_1
 62
7
100
AcDbLine
 10
17.485304
 20
2.269209
 30
0.0
 11
17.577122
 21
2.259501
 31
0.0
  0
LINE
  5
189
100
AcDbEntity
  8
Layer_1
 62
7
100
AcDbLine
 10
17.577122
 20
2.259501
 30
0.0
 11
17.642710
 21
2.230350
 31
0.0
  0
LINE
  5
18a
100
AcDbEntity
  8
Layer_1
 62
7
100
AcDbLine
 10
17.642710
 20
2.230350
 30
0.0
 11
17.682063
 21
2.181765
 31
0.0
  0
LINE
  5
18b
100
AcDbEntity
  8
Layer_1
 62
7
100
AcDbLine
 10
17.682063
 20
2.181765
 30
0.0
 11
17.695187
 21
2.113750
 31
0.0
  0
LINE
  5
18c
100
AcDbEntity
  8
Layer_1
 62
7
100
AcDbLine
 10
17.695187
 20
2.113750
 30
0.0
 11
17.682063
 21
2.042331
 31
0.0
  0
LINE
  5
18d
100
AcDbEntity
  8
Layer_1
 62
7
100
AcDbLine
 10
17.682063
 20
2.042331
 30
0.0
 11
17.642710
 21
1.991319
 31
0.0
  0
LINE
  5
18e
100
AcDbEntity
  8
Layer_1
 62
7
100
AcDbLine
 10
17.642710
 20
1.991319
 30
0.0
 11
17.577122
 21
1.960712
 31
0.0
  0
LINE
  5
18f
100
AcDbEntity
  8
Layer_1
 62
7
100
AcDbLine
 10
17.577122
 20
1.960712
 30
0.0
 11
17.485304
 21
1.950496
 31
0.0
  0
LINE
  5
190
100
AcDbEntity
  8
Layer_1
 62
7
100
AcDbLine
 10
17.485304
 20
1.950496
 30
0.0
 11
17.324008
 21
1.950496
 31
0.0
  0
LINE
  5
191
100
AcDbEntity
  8
Layer_1
 62
7
100
AcDbLine
 10
17.324008
 20
1.950496
 30
0.0
 11
17.162709
 21
1.950496
 31
0.0
  0
LINE
  5
192
100
AcDbEntity
  8
Layer_1
 62
7
100
AcDbLine
 10
17.162709
 20
1.950496
 30
0.0
 11
17.001414
 21
1.950496
 31
0.0
  0
LINE
  5
193
100
AcDbEntity
  8
Layer_1
 62
7
100
AcDbLine
 10
17.001414
 20
1.950496
 30
0.0
 11
16.840115
 21
1.950496
 31
0.0
  0
LINE
  5
194
100
AcDbEntity
  8
Layer_1
 62
7
100
AcDbLine
 10
16.840115
 20
1.950496
 30
0.0
 11
16.809023
 21
1.513246
 31
0.0
  0
LINE
  5
195
100
AcDbEntity
  8
Layer_1
 62
7
100
AcDbLine
 10
16.809023
 20
1.513246
 30
0.0
 11
16.777930
 21
1.075996
 31
0.0
  0
LINE
  5
196
100
AcDbEntity
  8
Layer_1
 62
7
100
AcDbLine
 10
16.777930
 20
1.075996
 30
0.0
 11
16.746835
 21
0.638747
 31
0.0
  0
LINE
  5
197
100
AcDbEntity
  8
Layer_1
 62
7
100
AcDbLine
 10
16.746835
 20
0.638747
 30
0.0
 11
16.715743
 21
0.201497
 31
0.0
  0
LINE
  5
198
100
AcDbEntity
  8
Layer_1
 62
7
100
AcDbLine
 10
16.715743
 20
0.201497
 30
0.0
 11
16.702619
 21
0.113074
 31
0.0
  0
LINE
  5
199
100
AcDbEntity
  8
Layer_1
 62
7
100
AcDbLine
 10
16.702619
 20
0.113074
 30
0.0
 11
16.671042
 21
0.049915
 31
0.0
  0
LINE
  5
19a
100
AcDbEntity
  8
Layer_1
 62
7
100
AcDbLine
 10
16.671042
 20
0.049915
 30
0.0
 11
16.621001
 21
0.012021
 31
0.0
  0
LINE
  5
19b
100
AcDbEntity
  8
Layer_1
 62
7
100
AcDbLine
 10
16.621001
 20
0.012021
 30
0.0
 11
16.552503
 21
-0.000622
 31
0.0
  0
LINE
  5
19c
100
AcDbEntity
  8
Layer_1
 62
7
100
AcDbLine
 10
16.552503
 20
-0.000622
 30
0.0
 11
16.525296
 21
0.002285
 31
0.0
  0
LINE
  5
19d
100
AcDbEntity
  8
Layer_1
 62
7
100
AcDbLine
 10
16.525296
 20
0.002285
 30
0.0
 11
16.498090
 21
0.011033
 31
0.0
  0
LINE
  5
19e
100
AcDbEntity
  8
Layer_1
 62
7
100
AcDbLine
 10
16.498090
 20
0.011033
 30
0.0
 11
16.470884
 21
0.025596
 31
0.0
  0
LINE
  5
19f
100
AcDbEntity
  8
Layer_1
 62
7
100
AcDbLine
 10
16.470884
 20
0.025596
 30
0.0
 11
16.443678
 21
0.046001
 31
0.0
  0
LINE
  5
1a0
100
AcDbEntity
  8
Layer_1
 62
7
100
AcDbLine
 10
16.443678
 20
0.046001
 30
0.0
 11
16.423273
 21
0.069312
 31
0.0
  0
LINE
  5
1a1
100
AcDbEntity
  8
Layer_1
 62
7
100
AcDbLine
 10
16.423273
 20
0.069312
 30
0.0
 11
16.408710
 21
0.092624
 31
0.0
  0
LINE
  5
1a2
100
AcDbEntity
  8
Layer_1
 62
7
100
AcDbLine
 10
16.408710
 20
0.092624
 30
0.0
 11
16.399962
 21
0.115935
 31
0.0
  0
LINE
  5
1a3
100
AcDbEntity
  8
Layer_1
 62
7
100
AcDbLine
 10
16.399962
 20
0.115935
 30
0.0
 11
16.397055
 21
0.139247
 31
0.0
  0
LINE
  5
1a4
100
AcDbEntity
  8
Layer_1
 62
7
100
AcDbLine
 10
16.397055
 20
0.139247
 30
0.0
 11
16.397052
 21
0.154797
 31
0.0
  0
LINE
  5
1a5
100
AcDbEntity
  8
Layer_1
 62
7
100
AcDbLine
 10
16.397052
 20
0.154797
 30
0.0
 11
16.397052
 21
0.170348
 31
0.0
  0
LINE
  5
1a6
100
AcDbEntity
  8
Layer_1
 62
7
100
AcDbLine
 10
16.397052
 20
0.170348
 30
0.0
 11
16.397052
 21
0.185898
 31
0.0
  0
LINE
  5
1a7
100
AcDbEntity
  8
Layer_1
 62
7
100
AcDbLine
 10
16.397052
 20
0.185898
 30
0.0
 11
16.397055
 21
0.201449
 31
0.0
  0
LINE
  5
1a8
100
AcDbEntity
  8
Layer_1
 62
7
100
AcDbLine
 10
16.614707
 20
3.248597
 30
0.0
 11
16.437864
 21
3.248597
 31
0.0
  0
LINE
  5
1a9
100
AcDbEntity
  8
Layer_1
 62
7
100
AcDbLine
 10
16.437864
 20
3.248597
 30
0.0
 11
16.261021
 21
3.248597
 31
0.0
  0
LINE
  5
1aa
100
AcDbEntity
  8
Layer_1
 62
7
100
AcDbLine
 10
16.261021
 20
3.248597
 30
0.0
 11
16.084177
 21
3.248597
 31
0.0
  0
LINE
  5
1ab
100
AcDbEntity
  8
Layer_1
 62
7
100
AcDbLine
 10
16.084177
 20
3.248597
 30
0.0
 11
15.907334
 21
3.248597
 31
0.0
  0
LINE
  5
1ac
100
AcDbEntity
  8
Layer_1
 62
7
100
AcDbLine
 10
15.907334
 20
3.248597
 30
0.0
 11
15.889836
 21
3.003738
 31
0.0
  0
LINE
  5
1ad
100
AcDbEntity
  8
Layer_1
 62
7
100
AcDbLine
 10
15.889836
 20
3.003738
 30
0.0
 11
15.872339
 21
2.758876
 31
0.0
  0
LINE
  5
1ae
100
AcDbEntity
  8
Layer_1
 62
7
100
AcDbLine
 10
15.872339
 20
2.758876
 30
0.0
 11
15.854841
 21
2.514017
 31
0.0
  0
LINE
  5
1af
100
AcDbEntity
  8
Layer_1
 62
7
100
AcDbLine
 10
15.854841
 20
2.514017
 30
0.0
 11
15.837343
 21
2.269156
 31
0.0
  0
LINE
  5
1b0
100
AcDbEntity
  8
Layer_1
 62
7
100
AcDbLine
 10
15.837343
 20
2.269156
 30
0.0
 11
16.014186
 21
2.269156
 31
0.0
  0
LINE
  5
1b1
100
AcDbEntity
  8
Layer_1
 62
7
100
AcDbLine
 10
16.014186
 20
2.269156
 30
0.0
 11
16.191030
 21
2.269156
 31
0.0
  0
LINE
  5
1b2
100
AcDbEntity
  8
Layer_1
 62
7
100
AcDbLine
 10
16.191030
 20
2.269156
 30
0.0
 11
16.367873
 21
2.269156
 31
0.0
  0
LINE
  5
1b3
100
AcDbEntity
  8
Layer_1
 62
7
100
AcDbLine
 10
16.367873
 20
2.269156
 30
0.0
 11
16.544716
 21
2.269156
 31
0.0
  0
LINE
  5
1b4
100
AcDbEntity
  8
Layer_1
 62
7
100
AcDbLine
 10
16.544716
 20
2.269156
 30
0.0
 11
16.562214
 21
2.514017
 31
0.0
  0
LINE
  5
1b5
100
AcDbEntity
  8
Layer_1
 62
7
100
AcDbLine
 10
16.562214
 20
2.514017
 30
0.0
 11
16.579712
 21
2.758876
 31
0.0
  0
LINE
  5
1b6
100
AcDbEntity
  8
Layer_1
 62
7
100
AcDbLine
 10
16.579712
 20
2.758876
 30
0.0
 11
16.597209
 21
3.003738
 31
0.0
  0
LINE
  5
1b7
100
AcDbEntity
  8
Layer_1
 62
7
100
AcDbLine
 10
16.597209
 20
3.003738
 30
0.0
 11
16.614707
 21
3.248597
 31
0.0
  0
LINE
  5
1b8
100
AcDbEntity
  8
Layer_1
 62
7
100
AcDbLine
 10
1.683461
 20
4.538953
 30
0.0
 11
1.683461
 21
3.604211
 31
0.0
  0
LINE
  5
1b9
100
AcDbEntity
  8
Layer_1
 62
7
100
AcDbLine
 10
1.683461
 20
3.604211
 30
0.0
 11
1.683461
 21
2.669465
 31
0.0
  0
LINE
  5
1ba
100
AcDbEntity
  8
Layer_1
 62
7
100
AcDbLine
 10
1.683461
 20
2.669465
 30
0.0
 11
1.683461
 21
1.734723
 31
0.0
  0
LINE
  5
1bb
100
AcDbEntity
  8
Layer_1
 62
7
100
AcDbLine
 10
1.683461
 20
1.734723
 30
0.0
 11
1.683461
 21
0.799977
 31
0.0
  0
LINE
  5
1bc
100
AcDbEntity
  8
Layer_1
 62
7
100
AcDbLine
 10
1.683461
 20
0.799977
 30
0.0
 11
2.213991
 21
0.799977
 31
0.0
  0
LINE
  5
1bd
100
AcDbEntity
  8
Layer_1
 62
7
100
AcDbLine
 10
2.213991
 20
0.799977
 30
0.0
 11
2.744524
 21
0.799977
 31
0.0
  0
LINE
  5
1be
100
AcDbEntity
  8
Layer_1
 62
7
100
AcDbLine
 10
2.744524
 20
0.799977
 30
0.0
 11
3.275053
 21
0.799977
 31
0.0
  0
LINE
  5
1bf
100
AcDbEntity
  8
Layer_1
 62
7
100
AcDbLine
 10
3.275053
 20
0.799977
 30
0.0
 11
3.805583
 21
0.799977
 31
0.0
  0
LINE
  5
1c0
100
AcDbEntity
  8
Layer_1
 62
7
100
AcDbLine
 10
3.805583
 20
0.799977
 30
0.0
 11
3.805583
 21
1.110910
 31
0.0
  0
LINE
  5
1c1
100
AcDbEntity
  8
Layer_1
 62
7
100
AcDbLine
 10
3.805583
 20
1.110910
 30
0.0
 11
3.805583
 21
1.421845
 31
0.0
  0
LINE
  5
1c2
100
AcDbEntity
  8
Layer_1
 62
7
100
AcDbLine
 10
3.805583
 20
1.421845
 30
0.0
 11
3.805583
 21
1.732778
 31
0.0
  0
LINE
  5
1c3
100
AcDbEntity
  8
Layer_1
 62
7
100
AcDbLine
 10
3.805583
 20
1.732778
 30
0.0
 11
3.805583
 21
2.043711
 31
0.0
  0
LINE
  5
1c4
100
AcDbEntity
  8
Layer_1
 62
7
100
AcDbLine
 10
3.805583
 20
2.043711
 30
0.0
 11
3.815771
 21
2.135535
 31
0.0
  0
LINE
  5
1c5
100
AcDbEntity
  8
Layer_1
 62
7
100
AcDbLine
 10
3.815771
 20
2.135535
 30
0.0
 11
3.846378
 21
2.201120
 31
0.0
  0
LINE
  5
1c6
100
AcDbEntity
  8
Layer_1
 62
7
100
AcDbLine
 10
3.846378
 20
2.201120
 30
0.0
 11
3.897393
 21
2.240473
 31
0.0
  0
LINE
  5
1c7
100
AcDbEntity
  8
Layer_1
 62
7
100
AcDbLine
 10
3.897393
 20
2.240473
 30
0.0
 11
3.968812
 21
2.253597
 31
0.0
  0
LINE
  5
1c8
100
AcDbEntity
  8
Layer_1
 62
7
100
AcDbLine
 10
3.968812
 20
2.253597
 30
0.0
 11
4.036828
 21
2.240473
 31
0.0
  0
LINE
  5
1c9
100
AcDbEntity
  8
Layer_1
 62
7
100
AcDbLine
 10
4.036828
 20
2.240473
 30
0.0
 11
4.085409
 21
2.201120
 31
0.0
  0
LINE
  5
1ca
100
AcDbEntity
  8
Layer_1
 62
7
100
AcDbLine
 10
4.085409
 20
2.201120
 30
0.0
 11
4.114560
 21
2.135535
 31
0.0
  0
LINE
  5
1cb
100
AcDbEntity
  8
Layer_1
 62
7
100
AcDbLine
 10
4.114560
 20
2.135535
 30
0.0
 11
4.124269
 21
2.043711
 31
0.0
  0
LINE
  5
1cc
100
AcDbEntity
  8
Layer_1
 62
7
100
AcDbLine
 10
4.124269
 20
2.043711
 30
0.0
 11
4.124269
 21
1.653101
 31
0.0
  0
LINE
  5
1cd
100
AcDbEntity
  8
Layer_1
 62
7
100
AcDbLine
 10
4.124269
 20
1.653101
 30
0.0
 11
4.124269
 21
1.262491
 31
0.0
  0
LINE
  5
1ce
100
AcDbEntity
  8
Layer_1
 62
7
100
AcDbLine
 10
4.124269
 20
1.262491
 30
0.0
 11
4.124269
 21
0.871882
 31
0.0
  0
LINE
  5
1cf
100
AcDbEntity
  8
Layer_1
 62
7
100
AcDbLine
 10
4.124269
 20
0.871882
 30
0.0
 11
4.124269
 21
0.481272
 31
0.0
  0
LINE
  5
1d0
100
AcDbEntity
  8
Layer_1
 62
7
100
AcDbLine
 10
4.124269
 20
0.481272
 30
0.0
 11
3.247825
 21
0.481272
 31
0.0
  0
LINE
  5
1d1
100
AcDbEntity
  8
Layer_1
 62
7
100
AcDbLine
 10
3.247825
 20
0.481272
 30
0.0
 11
2.371384
 21
0.481272
 31
0.0
  0
LINE
  5
1d2
100
AcDbEntity
  8
Layer_1
 62
7
100
AcDbLine
 10
2.371384
 20
0.481272
 30
0.0
 11
1.494940
 21
0.481272
 31
0.0
  0
LINE
  5
1d3
100
AcDbEntity
  8
Layer_1
 62
7
100
AcDbLine
 10
1.494940
 20
0.481272
 30
0.0
 11
0.618496
 21
0.481272
 31
0.0
  0
LINE
  5
1d4
100
AcDbEntity
  8
Layer_1
 62
7
100
AcDbLine
 10
0.618496
 20
0.481272
 30
0.0
 11
0.526672
 21
0.491489
 31
0.0
  0
LINE
  5
1d5
100
AcDbEntity
  8
Layer_1
 62
7
100
AcDbLine
 10
0.526672
 20
0.491489
 30
0.0
 11
0.461083
 21
0.522096
 31
0.0
  0
LINE
  5
1d6
100
AcDbEntity
  8
Layer_1
 62
7
100
AcDbLine
 10
0.461083
 20
0.522096
 30
0.0
 11
0.421730
 21
0.573107
 31
0.0
  0
LINE
  5
1d7
100
AcDbEntity
  8
Layer_1
 62
7
100
AcDbLine
 10
0.421730
 20
0.573107
 30
0.0
 11
0.408607
 21
0.644526
 31
0.0
  0
LINE
  5
1d8
100
AcDbEntity
  8
Layer_1
 62
7
100
AcDbLine
 10
0.408607
 20
0.644526
 30
0.0
 11
0.421730
 21
0.712542
 31
0.0
  0
LINE
  5
1d9
100
AcDbEntity
  8
Layer_1
 62
7
100
AcDbLine
 10
0.421730
 20
0.712542
 30
0.0
 11
0.461083
 21
0.761127
 31
0.0
  0
LINE
  5
1da
100
AcDbEntity
  8
Layer_1
 62
7
100
AcDbLine
 10
0.461083
 20
0.761127
 30
0.0
 11
0.526672
 21
0.790274
 31
0.0
  0
LINE
  5
1db
100
AcDbEntity
  8
Layer_1
 62
7
100
AcDbLine
 10
0.526672
 20
0.790274
 30
0.0
 11
0.618496
 21
0.799983
 31
0.0
  0
LINE
  5
1dc
100
AcDbEntity
  8
Layer_1
 62
7
100
AcDbLine
 10
0.618496
 20
0.799983
 30
0.0
 11
0.805056
 21
0.799983
 31
0.0
  0
LINE
  5
1dd
100
AcDbEntity
  8
Layer_1
 62
7
100
AcDbLine
 10
0.805056
 20
0.799983
 30
0.0
 11
0.991616
 21
0.799983
 31
0.0
  0
LINE
  5
1de
100
AcDbEntity
  8
Layer_1
 62
7
100
AcDbLine
 10
0.991616
 20
0.799983
 30
0.0
 11
1.178173
 21
0.799983
 31
0.0
  0
LINE
  5
1df
100
AcDbEntity
  8
Layer_1
 62
7
100
AcDbLine
 10
1.178173
 20
0.799983
 30
0.0
 11
1.364734
 21
0.799983
 31
0.0
  0
LINE
  5
1e0
100
AcDbEntity
  8
Layer_1
 62
7
100
AcDbLine
 10
1.364734
 20
0.799983
 30
0.0
 11
1.364734
 21
1.734728
 31
0.0
  0
LINE
  5
1e1
100
AcDbEntity
  8
Layer_1
 62
7
100
AcDbLine
 10
1.364734
 20
1.734728
 30
0.0
 11
1.364734
 21
2.669471
 31
0.0
  0
LINE
  5
1e2
100
AcDbEntity
  8
Layer_1
 62
7
100
AcDbLine
 10
1.364734
 20
2.669471
 30
0.0
 11
1.364734
 21
3.604213
 31
0.0
  0
LINE
  5
1e3
100
AcDbEntity
  8
Layer_1
 62
7
100
AcDbLine
 10
1.364734
 20
3.604213
 30
0.0
 11
1.364734
 21
4.538959
 31
0.0
  0
LINE
  5
1e4
100
AcDbEntity
  8
Layer_1
 62
7
100
AcDbLine
 10
1.364734
 20
4.538959
 30
0.0
 11
1.178173
 21
4.538959
 31
0.0
  0
LINE
  5
1e5
100
AcDbEntity
  8
Layer_1
 62
7
100
AcDbLine
 10
1.178173
 20
4.538959
 30
0.0
 11
0.991616
 21
4.538959
 31
0.0
  0
LINE
  5
1e6
100
AcDbEntity
  8
Layer_1
 62
7
100
AcDbLine
 10
0.991616
 20
4.538959
 30
0.0
 11
0.805056
 21
4.538959
 31
0.0
  0
LINE
  5
1e7
100
AcDbEntity
  8
Layer_1
 62
7
100
AcDbLine
 10
0.805056
 20
4.538959
 30
0.0
 11
0.618496
 21
4.538959
 31
0.0
  0
LINE
  5
1e8
100
AcDbEntity
  8
Layer_1
 62
7
100
AcDbLine
 10
0.618496
 20
4.538959
 30
0.0
 11
0.526672
 21
4.549147
 31
0.0
  0
LINE
  5
1e9
100
AcDbEntity
  8
Layer_1
 62
7
100
AcDbLine
 10
0.526672
 20
4.549147
 30
0.0
 11
0.461083
 21
4.579754
 31
0.0
  0
LINE
  5
1ea
100
AcDbEntity
  8
Layer_1
 62
7
100
AcDbLine
 10
0.461083
 20
4.579754
 30
0.0
 11
0.421730
 21
4.630769
 31
0.0
  0
LINE
  5
1eb
100
AcDbEntity
  8
Layer_1
 62
7
100
AcDbLine
 10
0.421730
 20
4.630769
 30
0.0
 11
0.408607
 21
4.702188
 31
0.0
  0
LINE
  5
1ec
100
AcDbEntity
  8
Layer_1
 62
7
100
AcDbLine
 10
0.408607
 20
4.702188
 30
0.0
 11
0.421730
 21
4.770203
 31
0.0
  0
LINE
  5
1ed
100
AcDbEntity
  8
Layer_1
 62
7
100
AcDbLine
 10
0.421730
 20
4.770203
 30
0.0
 11
0.461083
 21
4.818785
 31
0.0
  0
LINE
  5
1ee
100
AcDbEntity
  8
Layer_1
 62
7
100
AcDbLine
 10
0.461083
 20
4.818785
 30
0.0
 11
0.526672
 21
4.847936
 31
0.0
  0
LINE
  5
1ef
100
AcDbEntity
  8
Layer_1
 62
7
100
AcDbLine
 10
0.526672
 20
4.847936
 30
0.0
 11
0.618496
 21
4.857644
 31
0.0
  0
LINE
  5
1f0
100
AcDbEntity
  8
Layer_1
 62
7
100
AcDbLine
 10
0.618496
 20
4.857644
 30
0.0
 11
1.071293
 21
4.857644
 31
0.0
  0
LINE
  5
1f1
100
AcDbEntity
  8
Layer_1
 62
7
100
AcDbLine
 10
1.071293
 20
4.857644
 30
0.0
 11
1.524090
 21
4.857644
 31
0.0
  0
LINE
  5
1f2
100
AcDbEntity
  8
Layer_1
 62
7
100
AcDbLine
 10
1.524090
 20
4.857644
 30
0.0
 11
1.976885
 21
4.857644
 31
0.0
  0
LINE
  5
1f3
100
AcDbEntity
  8
Layer_1
 62
7
100
AcDbLine
 10
1.976885
 20
4.857644
 30
0.0
 11
2.429682
 21
4.857644
 31
0.0
  0
LINE
  5
1f4
100
AcDbEntity
  8
Layer_1
 62
7
100
AcDbLine
 10
2.429682
 20
4.857644
 30
0.0
 11
2.521503
 21
4.847936
 31
0.0
  0
LINE
  5
1f5
100
AcDbEntity
  8
Layer_1
 62
7
100
AcDbLine
 10
2.521503
 20
4.847936
 30
0.0
 11
2.587092
 21
4.818785
 31
0.0
  0
LINE
  5
1f6
100
AcDbEntity
  8
Layer_1
 62
7
100
AcDbLine
 10
2.587092
 20
4.818785
 30
0.0
 11
2.626445
 21
4.770203
 31
0.0
  0
LINE
  5
1f7
100
AcDbEntity
  8
Layer_1
 62
7
100
AcDbLine
 10
2.626445
 20
4.770203
 30
0.0
 11
2.639568
 21
4.702188
 31
0.0
  0
LINE
  5
1f8
100
AcDbEntity
  8
Layer_1
 62
7
100
AcDbLine
 10
2.639568
 20
4.702188
 30
0.0
 11
2.626445
 21
4.630769
 31
0.0
  0
LINE
  5
1f9
100
AcDbEntity
  8
Layer_1
 62
7
100
AcDbLine
 10
2.626445
 20
4.630769
 30
0.0
 11
2.587092
 21
4.579754
 31
0.0
  0
LINE
  5
1fa
100
AcDbEntity
  8
Layer_1
 62
7
100
AcDbLine
 10
2.587092
 20
4.579754
 30
0.0
 11
2.521503
 21
4.549147
 31
0.0
  0
LINE
  5
1fb
100
AcDbEntity
  8
Layer_1
 62
7
100
AcDbLine
 10
2.521503
 20
4.549147
 30
0.0
 11
2.429682
 21
4.538959
 31
0.0
  0
LINE
  5
1fc
100
AcDbEntity
  8
Layer_1
 62
7
100
AcDbLine
 10
2.429682
 20
4.538959
 30
0.0
 11
2.243122
 21
4.538959
 31
0.0
  0
LINE
  5
1fd
100
AcDbEntity
  8
Layer_1
 62
7
100
AcDbLine
 10
2.243122
 20
4.538959
 30
0.0
 11
2.056562
 21
4.538959
 31
0.0
  0
LINE
  5
1fe
100
AcDbEntity
  8
Layer_1
 62
7
100
AcDbLine
 10
2.056562
 20
4.538959
 30
0.0
 11
1.870002
 21
4.538959
 31
0.0
  0
LINE
  5
1ff
100
AcDbEntity
  8
Layer_1
 62
7
100
AcDbLine
 10
1.870002
 20
4.538959
 30
0.0
 11
1.683441
 21
4.538959
 31
0.0
  0
LINE
  5
200
100
AcDbEntity
  8
Layer_1
 62
7
100
AcDbLine
 10
28.665215
 20
10.288098
 30
0.0
 11
28.665215
 21
11.331290
 31
0.0
  0
LINE
  5
201
100
AcDbEntity
  8
Layer_1
 62
7
100
AcDbLine
 10
28.665215
 20
11.331290
 30
0.0
 11
28.665215
 21
12.374483
 31
0.0
  0
LINE
  5
202
100
AcDbEntity
  8
Layer_1
 62
7
100
AcDbLine
 10
28.665215
 20
12.374483
 30
0.0
 11
28.665215
 21
13.417676
 31
0.0
  0
LINE
  5
203
100
AcDbEntity
  8
Layer_1
 62
7
100
AcDbLine
 10
28.665215
 20
13.417676
 30
0.0
 11
28.665215
 21
14.460869
 31
0.0
  0
LINE
  5
204
100
AcDbEntity
  8
Layer_1
 62
7
100
AcDbLine
 10
28.665215
 20
14.460869
 30
0.0
 11
28.591476
 21
14.460869
 31
0.0
  0
LINE
  5
205
100
AcDbEntity
  8
Layer_1
 62
7
100
AcDbLine
 10
28.591476
 20
14.460869
 30
0.0
 11
28.517737
 21
14.460869
 31
0.0
  0
LINE
  5
206
100
AcDbEntity
  8
Layer_1
 62
7
100
AcDbLine
 10
28.517737
 20
14.460869
 30
0.0
 11
28.443997
 21
14.460869
 31
0.0
  0
LINE
  5
207
100
AcDbEntity
  8
Layer_1
 62
7
100
AcDbLine
 10
28.443997
 20
14.460869
 30
0.0
 11
28.370258
 21
14.460869
 31
0.0
  0
LINE
  5
208
100
AcDbEntity
  8
Layer_1
 62
7
100
AcDbLine
 10
28.370258
 20
14.460869
 30
0.0
 11
28.267782
 21
14.472255
 31
0.0
  0
LINE
  5
209
100
AcDbEntity
  8
Layer_1
 62
7
100
AcDbLine
 10
28.267782
 20
14.472255
 30
0.0
 11
28.194585
 21
14.506413
 31
0.0
  0
LINE
  5
20a
100
AcDbEntity
  8
Layer_1
 62
7
100
AcDbLine
 10
28.194585
 20
14.506413
 30
0.0
 11
28.150667
 21
14.563345
 31
0.0
  0
LINE
  5
20b
100
AcDbEntity
  8
Layer_1
 62
7
100
AcDbLine
 10
28.150667
 20
14.563345
 30
0.0
 11
28.136028
 21
14.643051
 31
0.0
  0
LINE
  5
20c
100
AcDbEntity
  8
Layer_1
 62
7
100
AcDbLine
 10
28.136028
 20
14.643051
 30
0.0
 11
28.150667
 21
14.718956
 31
0.0
  0
LINE
  5
20d
100
AcDbEntity
  8
Layer_1
 62
7
100
AcDbLine
 10
28.150667
 20
14.718956
 30
0.0
 11
28.194585
 21
14.773175
 31
0.0
  0
LINE
  5
20e
100
AcDbEntity
  8
Layer_1
 62
7
100
AcDbLine
 10
28.194585
 20
14.773175
 30
0.0
 11
28.267782
 21
14.805708
 31
0.0
  0
LINE
  5
20f
100
AcDbEntity
  8
Layer_1
 62
7
100
AcDbLine
 10
28.267782
 20
14.805708
 30
0.0
 11
28.370258
 21
14.816552
 31
0.0
  0
LINE
  5
210
100
AcDbEntity
  8
Layer_1
 62
7
100
AcDbLine
 10
28.370258
 20
14.816552
 30
0.0
 11
28.847394
 21
14.816552
 31
0.0
  0
LINE
  5
211
100
AcDbEntity
  8
Layer_1
 62
7
100
AcDbLine
 10
28.847394
 20
14.816552
 30
0.0
 11
29.324530
 21
14.816552
 31
0.0
  0
LINE
  5
212
100
AcDbEntity
  8
Layer_1
 62
7
100
AcDbLine
 10
29.324530
 20
14.816552
 30
0.0
 11
29.801666
 21
14.816552
 31
0.0
  0
LINE
  5
213
100
AcDbEntity
  8
Layer_1
 62
7
100
AcDbLine
 10
29.801666
 20
14.816552
 30
0.0
 11
30.278802
 21
14.816552
 31
0.0
  0
LINE
  5
214
100
AcDbEntity
  8
Layer_1
 62
7
100
AcDbLine
 10
30.278802
 20
14.816552
 30
0.0
 11
30.682739
 21
14.776427
 31
0.0
  0
LINE
  5
215
100
AcDbEntity
  8
Layer_1
 62
7
100
AcDbLine
 10
30.682739
 20
14.776427
 30
0.0
 11
31.053061
 21
14.656057
 31
0.0
  0
LINE
  5
216
100
AcDbEntity
  8
Layer_1
 62
7
100
AcDbLine
 10
31.053061
 20
14.656057
 30
0.0
 11
31.389768
 21
14.455445
 31
0.0
  0
LINE
  5
217
100
AcDbEntity
  8
Layer_1
 62
7
100
AcDbLine
 10
31.389768
 20
14.455445
 30
0.0
 11
31.692860
 21
14.174587
 31
0.0
  0
LINE
  5
218
100
AcDbEntity
  8
Layer_1
 62
7
100
AcDbLine
 10
31.692860
 20
14.174587
 30
0.0
 11
31.947149
 21
13.840048
 31
0.0
  0
LINE
  5
219
100
AcDbEntity
  8
Layer_1
 62
7
100
AcDbLine
 10
31.947149
 20
13.840048
 30
0.0
 11
32.128785
 21
13.469725
 31
0.0
  0
LINE
  5
21a
100
AcDbEntity
  8
Layer_1
 62
7
100
AcDbLine
 10
32.128785
 20
13.469725
 30
0.0
 11
32.237770
 21
13.063617
 31
0.0
  0
LINE
  5
21b
100
AcDbEntity
  8
Layer_1
 62
7
100
AcDbLine
 10
32.237770
 20
13.063617
 30
0.0
 11
32.274098
 21
12.621726
 31
0.0
  0
LINE
  5
21c
100
AcDbEntity
  8
Layer_1
 62
7
100
AcDbLine
 10
32.274098
 20
12.621726
 30
0.0
 11
32.274098
 21
12.500274
 31
0.0
  0
LINE
  5
21d
100
AcDbEntity
  8
Layer_1
 62
7
100
AcDbLine
 10
32.274098
 20
12.500274
 30
0.0
 11
32.274098
 21
12.378821
 31
0.0
  0
LINE
  5
21e
100
AcDbEntity
  8
Layer_1
 62
7
100
AcDbLine
 10
32.274098
 20
12.378821
 30
0.0
 11
32.274098
 21
12.257368
 31
0.0
  0
LINE
  5
21f
100
AcDbEntity
  8
Layer_1
 62
7
100
AcDbLine
 10
32.274098
 20
12.257368
 30
0.0
 11
32.274098
 21
12.135915
 31
0.0
  0
LINE
  5
220
100
AcDbEntity
  8
Layer_1
 62
7
100
AcDbLine
 10
32.274098
 20
12.135915
 30
0.0
 11
32.237770
 21
11.689683
 31
0.0
  0
LINE
  5
221
100
AcDbEntity
  8
Layer_1
 62
7
100
AcDbLine
 10
32.237770
 20
11.689683
 30
0.0
 11
32.128785
 21
11.279238
 31
0.0
  0
LINE
  5
222
100
AcDbEntity
  8
Layer_1
 62
7
100
AcDbLine
 10
32.128785
 20
11.279238
 30
0.0
 11
31.947149
 21
10.904578
 31
0.0
  0
LINE
  5
223
100
AcDbEntity
  8
Layer_1
 62
7
100
AcDbLine
 10
31.947149
 20
10.904578
 30
0.0
 11
31.692860
 21
10.565704
 31
0.0
  0
LINE
  5
224
100
AcDbEntity
  8
Layer_1
 62
7
100
AcDbLine
 10
31.692860
 20
10.565704
 30
0.0
 11
31.389768
 21
10.288640
 31
0.0
  0
LINE
  5
225
100
AcDbEntity
  8
Layer_1
 62
7
100
AcDbLine
 10
31.389768
 20
10.288640
 30
0.0
 11
31.053061
 21
10.090737
 31
0.0
  0
LINE
  5
226
100
AcDbEntity
  8
Layer_1
 62
7
100
AcDbLine
 10
31.053061
 20
10.090737
 30
0.0
 11
30.682739
 21
9.971995
 31
0.0
  0
LINE
  5
227
100
AcDbEntity
  8
Layer_1
 62
7
100
AcDbLine
 10
30.682739
 20
9.971995
 30
0.0
 11
30.278802
 21
9.932414
 31
0.0
  0
LINE
  5
228
100
AcDbEntity
  8
Layer_1
 62
7
100
AcDbLine
 10
30.278802
 20
9.932414
 30
0.0
 11
29.801666
 21
9.932414
 31
0.0
  0
LINE
  5
229
100
AcDbEntity
  8
Layer_1
 62
7
100
AcDbLine
 10
29.801666
 20
9.932414
 30
0.0
 11
29.324530
 21
9.932414
 31
0.0
  0
LINE
  5
22a
100
AcDbEntity
  8
Layer_1
 62
7
100
AcDbLine
 10
29.324530
 20
9.932414
 30
0.0
 11
28.847394
 21
9.932414
 31
0.0
  0
LINE
  5
22b
100
AcDbEntity
  8
Layer_1
 62
7
100
AcDbLine
 10
28.847394
 20
9.932414
 30
0.0
 11
28.370258
 21
9.932414
 31
0.0
  0
LINE
  5
22c
100
AcDbEntity
  8
Layer_1
 62
7
100
AcDbLine
 10
28.370258
 20
9.932414
 30
0.0
 11
28.267782
 21
9.943801
 31
0.0
  0
LINE
  5
22d
100
AcDbEntity
  8
Layer_1
 62
7
100
AcDbLine
 10
28.267782
 20
9.943801
 30
0.0
 11
28.194585
 21
9.977959
 31
0.0
  0
LINE
  5
22e
100
AcDbEntity
  8
Layer_1
 62
7
100
AcDbLine
 10
28.194585
 20
9.977959
 30
0.0
 11
28.150667
 21
10.034890
 31
0.0
  0
LINE
  5
22f
100
AcDbEntity
  8
Layer_1
 62
7
100
AcDbLine
 10
28.150667
 20
10.034890
 30
0.0
 11
28.136028
 21
10.114594
 31
0.0
  0
LINE
  5
230
100
AcDbEntity
  8
Layer_1
 62
7
100
AcDbLine
 10
28.136028
 20
10.114594
 30
0.0
 11
28.150667
 21
10.190502
 31
0.0
  0
LINE
  5
231
100
AcDbEntity
  8
Layer_1
 62
7
100
AcDbLine
 10
28.150667
 20
10.190502
 30
0.0
 11
28.194585
 21
10.244722
 31
0.0
  0
LINE
  5
232
100
AcDbEntity
  8
Layer_1
 62
7
100
AcDbLine
 10
28.194585
 20
10.244722
 30
0.0
 11
28.267782
 21
10.277254
 31
0.0
  0
LINE
  5
233
100
AcDbEntity
  8
Layer_1
 62
7
100
AcDbLine
 10
28.267782
 20
10.277254
 30
0.0
 11
28.370258
 21
10.288098
 31
0.0
  0
LINE
  5
234
100
AcDbEntity
  8
Layer_1
 62
7
100
AcDbLine
 10
28.370258
 20
10.288098
 30
0.0
 11
28.443997
 21
10.288098
 31
0.0
  0
LINE
  5
235
100
AcDbEntity
  8
Layer_1
 62
7
100
AcDbLine
 10
28.443997
 20
10.288098
 30
0.0
 11
28.517737
 21
10.288098
 31
0.0
  0
LINE
  5
236
100
AcDbEntity
  8
Layer_1
 62
7
100
AcDbLine
 10
28.517737
 20
10.288098
 30
0.0
 11
28.591476
 21
10.288098
 31
0.0
  0
LINE
  5
237
100
AcDbEntity
  8
Layer_1
 62
7
100
AcDbLine
 10
28.591476
 20
10.288098
 30
0.0
 11
28.665215
 21
10.288098
 31
0.0
  0
LINE
  5
238
100
AcDbEntity
  8
Layer_1
 62
7
100
AcDbLine
 10
31.918415
 20
12.691128
 30
0.0
 11
31.913535
 21
12.783301
 31
0.0
  0
LINE
  5
239
100
AcDbEntity
  8
Layer_1
 62
7
100
AcDbLine
 10
31.913535
 20
12.783301
 30
0.0
 11
31.898896
 21
12.886318
 31
0.0
  0
LINE
  5
23a
100
AcDbEntity
  8
Layer_1
 62
7
100
AcDbLine
 10
31.898896
 20
12.886318
 30
0.0
 11
31.874497
 21
13.000181
 31
0.0
  0
LINE
  5
23b
100
AcDbEntity
  8
Layer_1
 62
7
100
AcDbLine
 10
31.874497
 20
13.000181
 30
0.0
 11
31.840341
 21
13.124888
 31
0.0
  0
LINE
  5
23c
100
AcDbEntity
  8
Layer_1
 62
7
100
AcDbLine
 10
31.840341
 20
13.124888
 30
0.0
 11
31.795336
 21
13.258267
 31
0.0
  0
LINE
  5
23d
100
AcDbEntity
  8
Layer_1
 62
7
100
AcDbLine
 10
31.795336
 20
13.258267
 30
0.0
 11
31.738405
 21
13.398155
 31
0.0
  0
LINE
  5
23e
100
AcDbEntity
  8
Layer_1
 62
7
100
AcDbLine
 10
31.738405
 20
13.398155
 30
0.0
 11
31.669545
 21
13.544549
 31
0.0
  0
LINE
  5
23f
100
AcDbEntity
  8
Layer_1
 62
7
100
AcDbLine
 10
31.669545
 20
13.544549
 30
0.0
 11
31.588760
 21
13.697451
 31
0.0
  0
LINE
  5
240
100
AcDbEntity
  8
Layer_1
 62
7
100
AcDbLine
 10
31.588760
 20
13.697451
 30
0.0
 11
31.494415
 21
13.851434
 31
0.0
  0
LINE
  5
241
100
AcDbEntity
  8
Layer_1
 62
7
100
AcDbLine
 10
31.494415
 20
13.851434
 30
0.0
 11
31.376215
 21
13.992406
 31
0.0
  0
LINE
  5
242
100
AcDbEntity
  8
Layer_1
 62
7
100
AcDbLine
 10
31.376215
 20
13.992406
 30
0.0
 11
31.234159
 21
14.120365
 31
0.0
  0
LINE
  5
243
100
AcDbEntity
  8
Layer_1
 62
7
100
AcDbLine
 10
31.234159
 20
14.120365
 30
0.0
 11
31.068248
 21
14.235314
 31
0.0
  0
LINE
  5
244
100
AcDbEntity
  8
Layer_1
 62
7
100
AcDbLine
 10
31.068248
 20
14.235314
 30
0.0
 11
30.887693
 21
14.333992
 31
0.0
  0
LINE
  5
245
100
AcDbEntity
  8
Layer_1
 62
7
100
AcDbLine
 10
30.887693
 20
14.333992
 30
0.0
 11
30.693043
 21
14.404477
 31
0.0
  0
LINE
  5
246
100
AcDbEntity
  8
Layer_1
 62
7
100
AcDbLine
 10
30.693043
 20
14.404477
 30
0.0
 11
30.484297
 21
14.446769
 31
0.0
  0
LINE
  5
247
100
AcDbEntity
  8
Layer_1
 62
7
100
AcDbLine
 10
30.484297
 20
14.446769
 30
0.0
 11
30.261454
 21
14.460869
 31
0.0
  0
LINE
  5
248
100
AcDbEntity
  8
Layer_1
 62
7
100
AcDbLine
 10
30.261454
 20
14.460869
 30
0.0
 11
29.951316
 21
14.460869
 31
0.0
  0
LINE
  5
249
100
AcDbEntity
  8
Layer_1
 62
7
100
AcDbLine
 10
29.951316
 20
14.460869
 30
0.0
 11
29.641177
 21
14.460869
 31
0.0
  0
LINE
  5
24a
100
AcDbEntity
  8
Layer_1
 62
7
100
AcDbLine
 10
29.641177
 20
14.460869
 30
0.0
 11
29.331039
 21
14.460869
 31
0.0
  0
LINE
  5
24b
100
AcDbEntity
  8
Layer_1
 62
7
100
AcDbLine
 10
29.331039
 20
14.460869
 30
0.0
 11
29.020901
 21
14.460869
 31
0.0
  0
LINE
  5
24c
100
AcDbEntity
  8
Layer_1
 62
7
100
AcDbLine
 10
29.020901
 20
14.460869
 30
0.0
 11
29.020901
 21
13.417676
 31
0.0
  0
LINE
  5
24d
100
AcDbEntity
  8
Layer_1
 62
7
100
AcDbLine
 10
29.020901
 20
13.417676
 30
0.0
 11
29.020901
 21
12.374483
 31
0.0
  0
LINE
  5
24e
100
AcDbEntity
  8
Layer_1
 62
7
100
AcDbLine
 10
29.020901
 20
12.374483
 30
0.0
 11
29.020901
 21
11.331290
 31
0.0
  0
LINE
  5
24f
100
AcDbEntity
  8
Layer_1
 62
7
100
AcDbLine
 10
29.020901
 20
11.331290
 30
0.0
 11
29.020901
 21
10.288098
 31
0.0
  0
LINE
  5
250
100
AcDbEntity
  8
Layer_1
 62
7
100
AcDbLine
 10
29.020901
 20
10.288098
 30
0.0
 11
29.346221
 21
10.288098
 31
0.0
  0
LINE
  5
251
100
AcDbEntity
  8
Layer_1
 62
7
100
AcDbLine
 10
29.346221
 20
10.288098
 30
0.0
 11
29.671541
 21
10.288098
 31
0.0
  0
LINE
  5
252
100
AcDbEntity
  8
Layer_1
 62
7
100
AcDbLine
 10
29.671541
 20
10.288098
 30
0.0
 11
29.996861
 21
10.288098
 31
0.0
  0
LINE
  5
253
100
AcDbEntity
  8
Layer_1
 62
7
100
AcDbLine
 10
29.996861
 20
10.288098
 30
0.0
 11
30.322181
 21
10.288098
 31
0.0
  0
LINE
  5
254
100
AcDbEntity
  8
Layer_1
 62
7
100
AcDbLine
 10
30.322181
 20
10.288098
 30
0.0
 11
30.625811
 21
10.321714
 31
0.0
  0
LINE
  5
255
100
AcDbEntity
  8
Layer_1
 62
7
100
AcDbLine
 10
30.625811
 20
10.321714
 30
0.0
 11
30.912092
 21
10.422563
 31
0.0
  0
LINE
  5
256
100
AcDbEntity
  8
Layer_1
 62
7
100
AcDbLine
 10
30.912092
 20
10.422563
 30
0.0
 11
31.181023
 21
10.590645
 31
0.0
  0
LINE
  5
257
100
AcDbEntity
  8
Layer_1
 62
7
100
AcDbLine
 10
31.181023
 20
10.590645
 30
0.0
 11
31.432606
 21
10.825960
 31
0.0
  0
LINE
  5
258
100
AcDbEntity
  8
Layer_1
 62
7
100
AcDbLine
 10
31.432606
 20
10.825960
 30
0.0
 11
31.645148
 21
11.104648
 31
0.0
  0
LINE
  5
259
100
AcDbEntity
  8
Layer_1
 62
7
100
AcDbLine
 10
31.645148
 20
11.104648
 30
0.0
 11
31.796964
 21
11.402858
 31
0.0
  0
LINE
  5
25a
100
AcDbEntity
  8
Layer_1
 62
7
100
AcDbLine
 10
31.796964
 20
11.402858
 30
0.0
 11
31.888053
 21
11.720589
 31
0.0
  0
LINE
  5
25b
100
AcDbEntity
  8
Layer_1
 62
7
100
AcDbLine
 10
31.888053
 20
11.720589
 30
0.0
 11
31.918418
 21
12.057838
 31
0.0
  0
LINE
  5
25c
100
AcDbEntity
  8
Layer_1
 62
7
100
AcDbLine
 10
31.918418
 20
12.057838
 30
0.0
 11
31.918418
 21
12.216161
 31
0.0
  0
LINE
  5
25d
100
AcDbEntity
  8
Layer_1
 62
7
100
AcDbLine
 10
31.918418
 20
12.216161
 30
0.0
 11
31.918418
 21
12.374483
 31
0.0
  0
LINE
  5
25e
100
AcDbEntity
  8
Layer_1
 62
7
100
AcDbLine
 10
31.918418
 20
12.374483
 30
0.0
 11
31.918418
 21
12.532806
 31
0.0
  0
LINE
  5
25f
100
AcDbEntity
  8
Layer_1
 62
7
100
AcDbLine
 10
31.918418
 20
12.532806
 30
0.0
 11
31.918418
 21
12.691128
 31
0.0
  0
LINE
  5
260
100
AcDbEntity
  8
Layer_1
 62
7
100
AcDbLine
 10
25.835621
 20
10.197938
 30
0.0
 11
25.699587
 21
10.197938
 31
0.0
  0
LINE
  5
261
100
AcDbEntity
  8
Layer_1
 62
7
100
AcDbLine
 10
25.699587
 20
10.197938
 30
0.0
 11
25.563556
 21
10.197938
 31
0.0
  0
LINE
  5
262
100
AcDbEntity
  8
Layer_1
 62
7
100
AcDbLine
 10
25.563556
 20
10.197938
 30
0.0
 11
25.427522
 21
10.197938
 31
0.0
  0
LINE
  5
263
100
AcDbEntity
  8
Layer_1
 62
7
100
AcDbLine
 10
25.427522
 20
10.197938
 30
0.0
 11
25.291488
 21
10.197938
 31
0.0
  0
LINE
  5
264
100
AcDbEntity
  8
Layer_1
 62
7
100
AcDbLine
 10
25.291488
 20
10.197938
 30
0.0
 11
24.965008
 21
10.928631
 31
0.0
  0
LINE
  5
265
100
AcDbEntity
  8
Layer_1
 62
7
100
AcDbLine
 10
24.965008
 20
10.928631
 30
0.0
 11
24.638528
 21
11.659324
 31
0.0
  0
LINE
  5
266
100
AcDbEntity
  8
Layer_1
 62
7
100
AcDbLine
 10
24.638528
 20
11.659324
 30
0.0
 11
24.312047
 21
12.390020
 31
0.0
  0
LINE
  5
267
100
AcDbEntity
  8
Layer_1
 62
7
100
AcDbLine
 10
24.312047
 20
12.390020
 30
0.0
 11
23.985567
 21
13.120713
 31
0.0
  0
LINE
  5
268
100
AcDbEntity
  8
Layer_1
 62
7
100
AcDbLine
 10
23.985567
 20
13.120713
 30
0.0
 11
23.905890
 21
13.120713
 31
0.0
  0
LINE
  5
269
100
AcDbEntity
  8
Layer_1
 62
7
100
AcDbLine
 10
23.905890
 20
13.120713
 30
0.0
 11
23.826213
 21
13.120713
 31
0.0
  0
LINE
  5
26a
100
AcDbEntity
  8
Layer_1
 62
7
100
AcDbLine
 10
23.826213
 20
13.120713
 30
0.0
 11
23.746536
 21
13.120713
 31
0.0
  0
LINE
  5
26b
100
AcDbEntity
  8
Layer_1
 62
7
100
AcDbLine
 10
23.746536
 20
13.120713
 30
0.0
 11
23.666859
 21
13.120713
 31
0.0
  0
LINE
  5
26c
100
AcDbEntity
  8
Layer_1
 62
7
100
AcDbLine
 10
23.666859
 20
13.120713
 30
0.0
 11
23.575035
 21
13.130901
 31
0.0
  0
LINE
  5
26d
100
AcDbEntity
  8
Layer_1
 62
7
100
AcDbLine
 10
23.575035
 20
13.130901
 30
0.0
 11
23.509450
 21
13.161508
 31
0.0
  0
LINE
  5
26e
100
AcDbEntity
  8
Layer_1
 62
7
100
AcDbLine
 10
23.509450
 20
13.161508
 30
0.0
 11
23.470097
 21
13.212523
 31
0.0
  0
LINE
  5
26f
100
AcDbEntity
  8
Layer_1
 62
7
100
AcDbLine
 10
23.470097
 20
13.212523
 30
0.0
 11
23.456973
 21
13.283942
 31
0.0
  0
LINE
  5
270
100
AcDbEntity
  8
Layer_1
 62
7
100
AcDbLine
 10
23.456973
 20
13.283942
 30
0.0
 11
23.470097
 21
13.351957
 31
0.0
  0
LINE
  5
271
100
AcDbEntity
  8
Layer_1
 62
7
100
AcDbLine
 10
23.470097
 20
13.351957
 30
0.0
 11
23.509450
 21
13.400539
 31
0.0
  0
LINE
  5
272
100
AcDbEntity
  8
Layer_1
 62
7
100
AcDbLine
 10
23.509450
 20
13.400539
 30
0.0
 11
23.575035
 21
13.429690
 31
0.0
  0
LINE
  5
273
100
AcDbEntity
  8
Layer_1
 62
7
100
AcDbLine
 10
23.575035
 20
13.429690
 30
0.0
 11
23.666859
 21
13.439398
 31
0.0
  0
LINE
  5
274
100
AcDbEntity
  8
Layer_1
 62
7
100
AcDbLine
 10
23.666859
 20
13.439398
 30
0.0
 11
23.960303
 21
13.439398
 31
0.0
  0
LINE
  5
275
100
AcDbEntity
  8
Layer_1
 62
7
100
AcDbLine
 10
23.960303
 20
13.439398
 30
0.0
 11
24.253749
 21
13.439398
 31
0.0
  0
LINE
  5
276
100
AcDbEntity
  8
Layer_1
 62
7
100
AcDbLine
 10
24.253749
 20
13.439398
 30
0.0
 11
24.547192
 21
13.439398
 31
0.0
  0
LINE
  5
277
100
AcDbEntity
  8
Layer_1
 62
7
100
AcDbLine
 10
24.547192
 20
13.439398
 30
0.0
 11
24.840636
 21
13.439398
 31
0.0
  0
LINE
  5
278
100
AcDbEntity
  8
Layer_1
 62
7
100
AcDbLine
 10
24.840636
 20
13.439398
 30
0.0
 11
24.935857
 21
13.429690
 31
0.0
  0
LINE
  5
279
100
AcDbEntity
  8
Layer_1
 62
7
100
AcDbLine
 10
24.935857
 20
13.429690
 30
0.0
 11
25.003873
 21
13.400539
 31
0.0
  0
LINE
  5
27a
100
AcDbEntity
  8
Layer_1
 62
7
100
AcDbLine
 10
25.003873
 20
13.400539
 30
0.0
 11
25.044682
 21
13.351957
 31
0.0
  0
LINE
  5
27b
100
AcDbEntity
  8
Layer_1
 62
7
100
AcDbLine
 10
25.044682
 20
13.351957
 30
0.0
 11
25.058285
 21
13.283942
 31
0.0
  0
LINE
  5
27c
100
AcDbEntity
  8
Layer_1
 62
7
100
AcDbLine
 10
25.058285
 20
13.283942
 30
0.0
 11
25.044682
 21
13.212523
 31
0.0
  0
LINE
  5
27d
100
AcDbEntity
  8
Layer_1
 62
7
100
AcDbLine
 10
25.044682
 20
13.212523
 30
0.0
 11
25.003873
 21
13.161508
 31
0.0
  0
LINE
  5
27e
100
AcDbEntity
  8
Layer_1
 62
7
100
AcDbLine
 10
25.003873
 20
13.161508
 30
0.0
 11
24.935857
 21
13.130901
 31
0.0
  0
LINE
  5
27f
100
AcDbEntity
  8
Layer_1
 62
7
100
AcDbLine
 10
24.935857
 20
13.130901
 30
0.0
 11
24.840636
 21
13.120713
 31
0.0
  0
LINE
  5
280
100
AcDbEntity
  8
Layer_1
 62
7
100
AcDbLine
 10
24.840636
 20
13.120713
 30
0.0
 11
24.714319
 21
13.120713
 31
0.0
  0
LINE
  5
281
100
AcDbEntity
  8
Layer_1
 62
7
100
AcDbLine
 10
24.714319
 20
13.120713
 30
0.0
 11
24.588002
 21
13.120713
 31
0.0
  0
LINE
  5
282
100
AcDbEntity
  8
Layer_1
 62
7
100
AcDbLine
 10
24.588002
 20
13.120713
 30
0.0
 11
24.461684
 21
13.120713
 31
0.0
  0
LINE
  5
283
100
AcDbEntity
  8
Layer_1
 62
7
100
AcDbLine
 10
24.461684
 20
13.120713
 30
0.0
 11
24.335367
 21
13.120713
 31
0.0
  0
LINE
  5
284
100
AcDbEntity
  8
Layer_1
 62
7
100
AcDbLine
 10
24.335367
 20
13.120713
 30
0.0
 11
24.626869
 21
12.469697
 31
0.0
  0
LINE
  5
285
100
AcDbEntity
  8
Layer_1
 62
7
100
AcDbLine
 10
24.626869
 20
12.469697
 30
0.0
 11
24.918368
 21
11.818678
 31
0.0
  0
LINE
  5
286
100
AcDbEntity
  8
Layer_1
 62
7
100
AcDbLine
 10
24.918368
 20
11.818678
 30
0.0
 11
25.209870
 21
11.167662
 31
0.0
  0
LINE
  5
287
100
AcDbEntity
  8
Layer_1
 62
7
100
AcDbLine
 10
25.209870
 20
11.167662
 30
0.0
 11
25.501369
 21
10.516646
 31
0.0
  0
LINE
  5
288
100
AcDbEntity
  8
Layer_1
 62
7
100
AcDbLine
 10
25.501369
 20
10.516646
 30
0.0
 11
25.538292
 21
10.516646
 31
0.0
  0
LINE
  5
289
100
AcDbEntity
  8
Layer_1
 62
7
100
AcDbLine
 10
25.538292
 20
10.516646
 30
0.0
 11
25.575215
 21
10.516646
 31
0.0
  0
LINE
  5
28a
100
AcDbEntity
  8
Layer_1
 62
7
100
AcDbLine
 10
25.575215
 20
10.516646
 30
0.0
 11
25.612138
 21
10.516646
 31
0.0
  0
LINE
  5
28b
100
AcDbEntity
  8
Layer_1
 62
7
100
AcDbLine
 10
25.612138
 20
10.516646
 30
0.0
 11
25.649061
 21
10.516646
 31
0.0
  0
LINE
  5
28c
100
AcDbEntity
  8
Layer_1
 62
7
100
AcDbLine
 10
25.649061
 20
10.516646
 30
0.0
 11
25.934732
 21
11.167662
 31
0.0
  0
LINE
  5
28d
100
AcDbEntity
  8
Layer_1
 62
7
100
AcDbLine
 10
25.934732
 20
11.167662
 30
0.0
 11
26.220403
 21
11.818678
 31
0.0
  0
LINE
  5
28e
100
AcDbEntity
  8
Layer_1
 62
7
100
AcDbLine
 10
26.220403
 20
11.818678
 30
0.0
 11
26.506071
 21
12.469697
 31
0.0
  0
LINE
  5
28f
100
AcDbEntity
  8
Layer_1
 62
7
100
AcDbLine
 10
26.506071
 20
12.469697
 30
0.0
 11
26.791742
 21
13.120713
 31
0.0
  0
LINE
  5
290
100
AcDbEntity
  8
Layer_1
 62
7
100
AcDbLine
 10
26.791742
 20
13.120713
 30
0.0
 11
26.659597
 21
13.120713
 31
0.0
  0
LINE
  5
291
100
AcDbEntity
  8
Layer_1
 62
7
100
AcDbLine
 10
26.659597
 20
13.120713
 30
0.0
 11
26.527450
 21
13.120713
 31
0.0
  0
LINE
  5
292
100
AcDbEntity
  8
Layer_1
 62
7
100
AcDbLine
 10
26.527450
 20
13.120713
 30
0.0
 11
26.395305
 21
13.120713
 31
0.0
  0
LINE
  5
293
100
AcDbEntity
  8
Layer_1
 62
7
100
AcDbLine
 10
26.395305
 20
13.120713
 30
0.0
 11
26.263157
 21
13.120713
 31
0.0
  0
LINE
  5
294
100
AcDbEntity
  8
Layer_1
 62
7
100
AcDbLine
 10
26.263157
 20
13.120713
 30
0.0
 11
26.171330
 21
13.130901
 31
0.0
  0
LINE
  5
295
100
AcDbEntity
  8
Layer_1
 62
7
100
AcDbLine
 10
26.171330
 20
13.130901
 30
0.0
 11
26.105745
 21
13.161508
 31
0.0
  0
LINE
  5
296
100
AcDbEntity
  8
Layer_1
 62
7
100
AcDbLine
 10
26.105745
 20
13.161508
 30
0.0
 11
26.066392
 21
13.212523
 31
0.0
  0
LINE
  5
297
100
AcDbEntity
  8
Layer_1
 62
7
100
AcDbLine
 10
26.066392
 20
13.212523
 30
0.0
 11
26.053268
 21
13.283942
 31
0.0
  0
LINE
  5
298
100
AcDbEntity
  8
Layer_1
 62
7
100
AcDbLine
 10
26.053268
 20
13.283942
 30
0.0
 11
26.066392
 21
13.351957
 31
0.0
  0
LINE
  5
299
100
AcDbEntity
  8
Layer_1
 62
7
100
AcDbLine
 10
26.066392
 20
13.351957
 30
0.0
 11
26.105745
 21
13.400539
 31
0.0
  0
LINE
  5
29a
100
AcDbEntity
  8
Layer_1
 62
7
100
AcDbLine
 10
26.105745
 20
13.400539
 30
0.0
 11
26.171330
 21
13.429690
 31
0.0
  0
LINE
  5
29b
100
AcDbEntity
  8
Layer_1
 62
7
100
AcDbLine
 10
26.171330
 20
13.429690
 30
0.0
 11
26.263157
 21
13.439398
 31
0.0
  0
LINE
  5
29c
100
AcDbEntity
  8
Layer_1
 62
7
100
AcDbLine
 10
26.263157
 20
13.439398
 30
0.0
 11
26.558545
 21
13.439398
 31
0.0
  0
LINE
  5
29d
100
AcDbEntity
  8
Layer_1
 62
7
100
AcDbLine
 10
26.558545
 20
13.439398
 30
0.0
 11
26.853930
 21
13.439398
 31
0.0
  0
LINE
  5
29e
100
AcDbEntity
  8
Layer_1
 62
7
100
AcDbLine
 10
26.853930
 20
13.439398
 30
0.0
 11
27.149318
 21
13.439398
 31
0.0
  0
LINE
  5
29f
100
AcDbEntity
  8
Layer_1
 62
7
100
AcDbLine
 10
27.149318
 20
13.439398
 30
0.0
 11
27.444703
 21
13.439398
 31
0.0
  0
LINE
  5
2a0
100
AcDbEntity
  8
Layer_1
 62
7
100
AcDbLine
 10
27.444703
 20
13.439398
 30
0.0
 11
27.536521
 21
13.429690
 31
0.0
  0
LINE
  5
2a1
100
AcDbEntity
  8
Layer_1
 62
7
100
AcDbLine
 10
27.536521
 20
13.429690
 30
0.0
 11
27.602109
 21
13.400539
 31
0.0
  0
LINE
  5
2a2
100
AcDbEntity
  8
Layer_1
 62
7
100
AcDbLine
 10
27.602109
 20
13.400539
 30
0.0
 11
27.641463
 21
13.351957
 31
0.0
  0
LINE
  5
2a3
100
AcDbEntity
  8
Layer_1
 62
7
100
AcDbLine
 10
27.641463
 20
13.351957
 30
0.0
 11
27.654586
 21
13.283942
 31
0.0
  0
LINE
  5
2a4
100
AcDbEntity
  8
Layer_1
 62
7
100
AcDbLine
 10
27.654586
 20
13.283942
 30
0.0
 11
27.641463
 21
13.212523
 31
0.0
  0
LINE
  5
2a5
100
AcDbEntity
  8
Layer_1
 62
7
100
AcDbLine
 10
27.641463
 20
13.212523
 30
0.0
 11
27.602109
 21
13.161508
 31
0.0
  0
LINE
  5
2a6
100
AcDbEntity
  8
Layer_1
 62
7
100
AcDbLine
 10
27.602109
 20
13.161508
 30
0.0
 11
27.536521
 21
13.130901
 31
0.0
  0
LINE
  5
2a7
100
AcDbEntity
  8
Layer_1
 62
7
100
AcDbLine
 10
27.536521
 20
13.130901
 30
0.0
 11
27.444703
 21
13.120713
 31
0.0
  0
LINE
  5
2a8
100
AcDbEntity
  8
Layer_1
 62
7
100
AcDbLine
 10
27.444703
 20
13.120713
 30
0.0
 11
27.365026
 21
13.120713
 31
0.0
  0
LINE
  5
2a9
100
AcDbEntity
  8
Layer_1
 62
7
100
AcDbLine
 10
27.365026
 20
13.120713
 30
0.0
 11
27.285349
 21
13.120713
 31
0.0
  0
LINE
  5
2aa
100
AcDbEntity
  8
Layer_1
 62
7
100
AcDbLine
 10
27.285349
 20
13.120713
 30
0.0
 11
27.205672
 21
13.120713
 31
0.0
  0
LINE
  5
2ab
100
AcDbEntity
  8
Layer_1
 62
7
100
AcDbLine
 10
27.205672
 20
13.120713
 30
0.0
 11
27.125995
 21
13.120713
 31
0.0
  0
LINE
  5
2ac
100
AcDbEntity
  8
Layer_1
 62
7
100
AcDbLine
 10
27.125995
 20
13.120713
 30
0.0
 11
26.803401
 21
12.390020
 31
0.0
  0
LINE
  5
2ad
100
AcDbEntity
  8
Layer_1
 62
7
100
AcDbLine
 10
26.803401
 20
12.390020
 30
0.0
 11
26.480810
 21
11.659324
 31
0.0
  0
LINE
  5
2ae
100
AcDbEntity
  8
Layer_1
 62
7
100
AcDbLine
 10
26.480810
 20
11.659324
 30
0.0
 11
26.158215
 21
10.928631
 31
0.0
  0
LINE
  5
2af
100
AcDbEntity
  8
Layer_1
 62
7
100
AcDbLine
 10
26.158215
 20
10.928631
 30
0.0
 11
25.835621
 21
10.197938
 31
0.0
  0
LINE
  5
2b0
100
AcDbEntity
  8
Layer_1
 62
7
100
AcDbLine
 10
22.604950
 20
11.744832
 30
0.0
 11
21.796525
 21
11.744832
 31
0.0
  0
LINE
  5
2b1
100
AcDbEntity
  8
Layer_1
 62
7
100
AcDbLine
 10
21.796525
 20
11.744832
 30
0.0
 11
20.988096
 21
11.744832
 31
0.0
  0
LINE
  5
2b2
100
AcDbEntity
  8
Layer_1
 62
7
100
AcDbLine
 10
20.988096
 20
11.744832
 30
0.0
 11
20.179671
 21
11.744832
 31
0.0
  0
LINE
  5
2b3
100
AcDbEntity
  8
Layer_1
 62
7
100
AcDbLine
 10
20.179671
 20
11.744832
 30
0.0
 11
19.371242
 21
11.744832
 31
0.0
  0
LINE
  5
2b4
100
AcDbEntity
  8
Layer_1
 62
7
100
AcDbLine
 10
19.371242
 20
11.744832
 30
0.0
 11
19.435372
 21
11.452844
 31
0.0
  0
LINE
  5
2b5
100
AcDbEntity
  8
Layer_1
 62
7
100
AcDbLine
 10
19.435372
 20
11.452844
 30
0.0
 11
19.542255
 21
11.190982
 31
0.0
  0
LINE
  5
2b6
100
AcDbEntity
  8
Layer_1
 62
7
100
AcDbLine
 10
19.542255
 20
11.190982
 30
0.0
 11
19.691889
 21
10.959238
 31
0.0
  0
LINE
  5
2b7
100
AcDbEntity
  8
Layer_1
 62
7
100
AcDbLine
 10
19.691889
 20
10.959238
 30
0.0
 11
19.884280
 21
10.757618
 31
0.0
  0
LINE
  5
2b8
100
AcDbEntity
  8
Layer_1
 62
7
100
AcDbLine
 10
19.884280
 20
10.757618
 30
0.0
 11
20.110679
 21
10.597779
 31
0.0
  0
LINE
  5
2b9
100
AcDbEntity
  8
Layer_1
 62
7
100
AcDbLine
 10
20.110679
 20
10.597779
 30
0.0
 11
20.362339
 21
10.483609
 31
0.0
  0
LINE
  5
2ba
100
AcDbEntity
  8
Layer_1
 62
7
100
AcDbLine
 10
20.362339
 20
10.483609
 30
0.0
 11
20.639267
 21
10.415105
 31
0.0
  0
LINE
  5
2bb
100
AcDbEntity
  8
Layer_1
 62
7
100
AcDbLine
 10
20.639267
 20
10.415105
 30
0.0
 11
20.941456
 21
10.392273
 31
0.0
  0
LINE
  5
2bc
100
AcDbEntity
  8
Layer_1
 62
7
100
AcDbLine
 10
20.941456
 20
10.392273
 30
0.0
 11
21.125098
 21
10.399554
 31
0.0
  0
LINE
  5
2bd
100
AcDbEntity
  8
Layer_1
 62
7
100
AcDbLine
 10
21.125098
 20
10.399554
 30
0.0
 11
21.310687
 21
10.421427
 31
0.0
  0
LINE
  5
2be
100
AcDbEntity
  8
Layer_1
 62
7
100
AcDbLine
 10
21.310687
 20
10.421427
 30
0.0
 11
21.498219
 21
10.457864
 31
0.0
  0
LINE
  5
2bf
100
AcDbEntity
  8
Layer_1
 62
7
100
AcDbLine
 10
21.498219
 20
10.457864
 30
0.0
 11
21.687697
 21
10.508876
 31
0.0
  0
LINE
  5
2c0
100
AcDbEntity
  8
Layer_1
 62
7
100
AcDbLine
 10
21.687697
 20
10.508876
 30
0.0
 11
21.868909
 21
10.571549
 31
0.0
  0
LINE
  5
2c1
100
AcDbEntity
  8
Layer_1
 62
7
100
AcDbLine
 10
21.868909
 20
10.571549
 30
0.0
 11
22.031664
 21
10.642968
 31
0.0
  0
LINE
  5
2c2
100
AcDbEntity
  8
Layer_1
 62
7
100
AcDbLine
 10
22.031664
 20
10.642968
 30
0.0
 11
22.175955
 21
10.723131
 31
0.0
  0
LINE
  5
2c3
100
AcDbEntity
  8
Layer_1
 62
7
100
AcDbLine
 10
22.175955
 20
10.723131
 30
0.0
 11
22.301790
 21
10.812036
 31
0.0
  0
LINE
  5
2c4
100
AcDbEntity
  8
Layer_1
 62
7
100
AcDbLine
 10
22.301790
 20
10.812036
 30
0.0
 11
22.338710
 21
10.835856
 31
0.0
  0
LINE
  5
2c5
100
AcDbEntity
  8
Layer_1
 62
7
100
AcDbLine
 10
22.338710
 20
10.835856
 30
0.0
 11
22.371747
 21
10.852846
 31
0.0
  0
LINE
  5
2c6
100
AcDbEntity
  8
Layer_1
 62
7
100
AcDbLine
 10
22.371747
 20
10.852846
 30
0.0
 11
22.400898
 21
10.863062
 31
0.0
  0
LINE
  5
2c7
100
AcDbEntity
  8
Layer_1
 62
7
100
AcDbLine
 10
22.400898
 20
10.863062
 30
0.0
 11
22.426157
 21
10.866449
 31
0.0
  0
LINE
  5
2c8
100
AcDbEntity
  8
Layer_1
 62
7
100
AcDbLine
 10
22.426157
 20
10.866449
 30
0.0
 11
22.455790
 21
10.863542
 31
0.0
  0
LINE
  5
2c9
100
AcDbEntity
  8
Layer_1
 62
7
100
AcDbLine
 10
22.455790
 20
10.863542
 30
0.0
 11
22.482516
 21
10.854793
 31
0.0
  0
LINE
  5
2ca
100
AcDbEntity
  8
Layer_1
 62
7
100
AcDbLine
 10
22.482516
 20
10.854793
 30
0.0
 11
22.506308
 21
10.840230
 31
0.0
  0
LINE
  5
2cb
100
AcDbEntity
  8
Layer_1
 62
7
100
AcDbLine
 10
22.506308
 20
10.840230
 30
0.0
 11
22.527192
 21
10.819826
 31
0.0
  0
LINE
  5
2cc
100
AcDbEntity
  8
Layer_1
 62
7
100
AcDbLine
 10
22.527192
 20
10.819826
 30
0.0
 11
22.547597
 21
10.795526
 31
0.0
  0
LINE
  5
2cd
100
AcDbEntity
  8
Layer_1
 62
7
100
AcDbLine
 10
22.547597
 20
10.795526
 30
0.0
 11
22.562160
 21
10.769280
 31
0.0
  0
LINE
  5
2ce
100
AcDbEntity
  8
Layer_1
 62
7
100
AcDbLine
 10
22.562160
 20
10.769280
 30
0.0
 11
22.570908
 21
10.741114
 31
0.0
  0
LINE
  5
2cf
100
AcDbEntity
  8
Layer_1
 62
7
100
AcDbLine
 10
22.570908
 20
10.741114
 30
0.0
 11
22.573815
 21
10.710992
 31
0.0
  0
LINE
  5
2d0
100
AcDbEntity
  8
Layer_1
 62
7
100
AcDbLine
 10
22.573815
 20
10.710992
 30
0.0
 11
22.538834
 21
10.608966
 31
0.0
  0
LINE
  5
2d1
100
AcDbEntity
  8
Layer_1
 62
7
100
AcDbLine
 10
22.538834
 20
10.608966
 30
0.0
 11
22.433892
 21
10.504998
 31
0.0
  0
LINE
  5
2d2
100
AcDbEntity
  8
Layer_1
 62
7
100
AcDbLine
 10
22.433892
 20
10.504998
 30
0.0
 11
22.258994
 21
10.399086
 31
0.0
  0
LINE
  5
2d3
100
AcDbEntity
  8
Layer_1
 62
7
100
AcDbLine
 10
22.258994
 20
10.399086
 30
0.0
 11
22.014138
 21
10.291232
 31
0.0
  0
LINE
  5
2d4
100
AcDbEntity
  8
Layer_1
 62
7
100
AcDbLine
 10
22.014138
 20
10.291232
 30
0.0
 11
21.739640
 21
10.196010
 31
0.0
  0
LINE
  5
2d5
100
AcDbEntity
  8
Layer_1
 62
7
100
AcDbLine
 10
21.739640
 20
10.196010
 30
0.0
 11
21.468057
 21
10.127992
 31
0.0
  0
LINE
  5
2d6
100
AcDbEntity
  8
Layer_1
 62
7
100
AcDbLine
 10
21.468057
 20
10.127992
 30
0.0
 11
21.199390
 21
10.087182
 31
0.0
  0
LINE
  5
2d7
100
AcDbEntity
  8
Layer_1
 62
7
100
AcDbLine
 10
21.199390
 20
10.087182
 30
0.0
 11
20.933641
 21
10.073579
 31
0.0
  0
LINE
  5
2d8
100
AcDbEntity
  8
Layer_1
 62
7
100
AcDbLine
 10
20.933641
 20
10.073579
 30
0.0
 11
20.555661
 21
10.106616
 31
0.0
  0
LINE
  5
2d9
100
AcDbEntity
  8
Layer_1
 62
7
100
AcDbLine
 10
20.555661
 20
10.106616
 30
0.0
 11
20.206835
 21
10.205724
 31
0.0
  0
LINE
  5
2da
100
AcDbEntity
  8
Layer_1
 62
7
100
AcDbLine
 10
20.206835
 20
10.205724
 30
0.0
 11
19.887156
 21
10.370909
 31
0.0
  0
LINE
  5
2db
100
AcDbEntity
  8
Layer_1
 62
7
100
AcDbLine
 10
19.887156
 20
10.370909
 30
0.0
 11
19.596628
 21
10.602165
 31
0.0
  0
LINE
  5
2dc
100
AcDbEntity
  8
Layer_1
 62
7
100
AcDbLine
 10
19.596628
 20
10.602165
 30
0.0
 11
19.358568
 21
10.880546
 31
0.0
  0
LINE
  5
2dd
100
AcDbEntity
  8
Layer_1
 62
7
100
AcDbLine
 10
19.358568
 20
10.880546
 30
0.0
 11
19.188529
 21
11.187107
 31
0.0
  0
LINE
  5
2de
100
AcDbEntity
  8
Layer_1
 62
7
100
AcDbLine
 10
19.188529
 20
11.187107
 30
0.0
 11
19.086503
 21
11.521848
 31
0.0
  0
LINE
  5
2df
100
AcDbEntity
  8
Layer_1
 62
7
100
AcDbLine
 10
19.086503
 20
11.521848
 30
0.0
 11
19.052495
 21
11.884766
 31
0.0
  0
LINE
  5
2e0
100
AcDbEntity
  8
Layer_1
 62
7
100
AcDbLine
 10
19.052495
 20
11.884766
 30
0.0
 11
19.084561
 21
12.223878
 31
0.0
  0
LINE
  5
2e1
100
AcDbEntity
  8
Layer_1
 62
7
100
AcDbLine
 10
19.084561
 20
12.223878
 30
0.0
 11
19.180754
 21
12.533837
 31
0.0
  0
LINE
  5
2e2
100
AcDbEntity
  8
Layer_1
 62
7
100
AcDbLine
 10
19.180754
 20
12.533837
 30
0.0
 11
19.341078
 21
12.814651
 31
0.0
  0
LINE
  5
2e3
100
AcDbEntity
  8
Layer_1
 62
7
100
AcDbLine
 10
19.341078
 20
12.814651
 30
0.0
 11
19.565535
 21
13.066315
 31
0.0
  0
LINE
  5
2e4
100
AcDbEntity
  8
Layer_1
 62
7
100
AcDbLine
 10
19.565535
 20
13.066315
 30
0.0
 11
19.836630
 21
13.277163
 31
0.0
  0
LINE
  5
2e5
100
AcDbEntity
  8
Layer_1
 62
7
100
AcDbLine
 10
19.836630
 20
13.277163
 30
0.0
 11
20.136874
 21
13.427771
 31
0.0
  0
LINE
  5
2e6
100
AcDbEntity
  8
Layer_1
 62
7
100
AcDbLine
 10
20.136874
 20
13.427771
 30
0.0
 11
20.466270
 21
13.518135
 31
0.0
  0
LINE
  5
2e7
100
AcDbEntity
  8
Layer_1
 62
7
100
AcDbLine
 10
20.466270
 20
13.518135
 30
0.0
 11
20.824817
 21
13.548260
 31
0.0
  0
LINE
  5
2e8
100
AcDbEntity
  8
Layer_1
 62
7
100
AcDbLine
 10
20.824817
 20
13.548260
 30
0.0
 11
21.199393
 21
13.517165
 31
0.0
  0
LINE
  5
2e9
100
AcDbEntity
  8
Layer_1
 62
7
100
AcDbLine
 10
21.199393
 20
13.517165
 30
0.0
 11
21.538017
 21
13.423884
 31
0.0
  0
LINE
  5
2ea
100
AcDbEntity
  8
Layer_1
 62
7
100
AcDbLine
 10
21.538017
 20
13.423884
 30
0.0
 11
21.840692
 21
13.268420
 31
0.0
  0
LINE
  5
2eb
100
AcDbEntity
  8
Layer_1
 62
7
100
AcDbLine
 10
21.840692
 20
13.268420
 30
0.0
 11
22.107418
 21
13.050767
 31
0.0
  0
LINE
  5
2ec
100
AcDbEntity
  8
Layer_1
 62
7
100
AcDbLine
 10
22.107418
 20
13.050767
 30
0.0
 11
22.325068
 21
12.785501
 31
0.0
  0
LINE
  5
2ed
100
AcDbEntity
  8
Layer_1
 62
7
100
AcDbLine
 10
22.325068
 20
12.785501
 30
0.0
 11
22.480532
 21
12.479425
 31
0.0
  0
LINE
  5
2ee
100
AcDbEntity
  8
Layer_1
 62
7
100
AcDbLine
 10
22.480532
 20
12.479425
 30
0.0
 11
22.573815
 21
12.132540
 31
0.0
  0
LINE
  5
2ef
100
AcDbEntity
  8
Layer_1
 62
7
100
AcDbLine
 10
22.573815
 20
12.132540
 30
0.0
 11
22.604911
 21
11.744846
 31
0.0
  0
LINE
  5
2f0
100
AcDbEntity
  8
Layer_1
 62
7
100
AcDbLine
 10
19.371203
 20
12.063554
 30
0.0
 11
20.098010
 21
12.063554
 31
0.0
  0
LINE
  5
2f1
100
AcDbEntity
  8
Layer_1
 62
7
100
AcDbLine
 10
20.098010
 20
12.063554
 30
0.0
 11
20.824817
 21
12.063554
 31
0.0
  0
LINE
  5
2f2
100
AcDbEntity
  8
Layer_1
 62
7
100
AcDbLine
 10
20.824817
 20
12.063554
 30
0.0
 11
21.551623
 21
12.063554
 31
0.0
  0
LINE
  5
2f3
100
AcDbEntity
  8
Layer_1
 62
7
100
AcDbLine
 10
21.551623
 20
12.063554
 30
0.0
 11
22.278430
 21
12.063554
 31
0.0
  0
LINE
  5
2f4
100
AcDbEntity
  8
Layer_1
 62
7
100
AcDbLine
 10
22.278430
 20
12.063554
 30
0.0
 11
22.212842
 21
12.314729
 31
0.0
  0
LINE
  5
2f5
100
AcDbEntity
  8
Layer_1
 62
7
100
AcDbLine
 10
22.212842
 20
12.314729
 30
0.0
 11
22.109357
 21
12.539668
 31
0.0
  0
LINE
  5
2f6
100
AcDbEntity
  8
Layer_1
 62
7
100
AcDbLine
 10
22.109357
 20
12.539668
 30
0.0
 11
21.967980
 21
12.738375
 31
0.0
  0
LINE
  5
2f7
100
AcDbEntity
  8
Layer_1
 62
7
100
AcDbLine
 10
21.967980
 20
12.738375
 30
0.0
 11
21.788710
 21
12.910847
 31
0.0
  0
LINE
  5
2f8
100
AcDbEntity
  8
Layer_1
 62
7
100
AcDbLine
 10
21.788710
 20
12.910847
 30
0.0
 11
21.579800
 21
13.050279
 31
0.0
  0
LINE
  5
2f9
100
AcDbEntity
  8
Layer_1
 62
7
100
AcDbLine
 10
21.579800
 20
13.050279
 30
0.0
 11
21.349516
 21
13.149875
 31
0.0
  0
LINE
  5
2fa
100
AcDbEntity
  8
Layer_1
 62
7
100
AcDbLine
 10
21.349516
 20
13.149875
 30
0.0
 11
21.097852
 21
13.209633
 31
0.0
  0
LINE
  5
2fb
100
AcDbEntity
  8
Layer_1
 62
7
100
AcDbLine
 10
21.097852
 20
13.209633
 30
0.0
 11
20.824817
 21
13.229558
 31
0.0
  0
LINE
  5
2fc
100
AcDbEntity
  8
Layer_1
 62
7
100
AcDbLine
 10
20.824817
 20
13.229558
 30
0.0
 11
20.552263
 21
13.209633
 31
0.0
  0
LINE
  5
2fd
100
AcDbEntity
  8
Layer_1
 62
7
100
AcDbLine
 10
20.552263
 20
13.209633
 30
0.0
 11
20.302056
 21
13.149875
 31
0.0
  0
LINE
  5
2fe
100
AcDbEntity
  8
Layer_1
 62
7
100
AcDbLine
 10
20.302056
 20
13.149875
 30
0.0
 11
20.074201
 21
13.050279
 31
0.0
  0
LINE
  5
2ff
100
AcDbEntity
  8
Layer_1
 62
7
100
AcDbLine
 10
20.074201
 20
13.050279
 30
0.0
 11
19.868696
 21
12.910847
 31
0.0
  0
LINE
  5
300
100
AcDbEntity
  8
Layer_1
 62
7
100
AcDbLine
 10
19.868696
 20
12.910847
 30
0.0
 11
19.691850
 21
12.741288
 31
0.0
  0
LINE
  5
301
100
AcDbEntity
  8
Layer_1
 62
7
100
AcDbLine
 10
19.691850
 20
12.741288
 30
0.0
 11
19.549988
 21
12.543554
 31
0.0
  0
LINE
  5
302
100
AcDbEntity
  8
Layer_1
 62
7
100
AcDbLine
 10
19.549988
 20
12.543554
 30
0.0
 11
19.443105
 21
12.317641
 31
0.0
  0
LINE
  5
303
100
AcDbEntity
  8
Layer_1
 62
7
100
AcDbLine
 10
19.443105
 20
12.317641
 30
0.0
 11
19.371203
 21
12.063554
 31
0.0
  0
LINE
  5
304
100
AcDbEntity
  8
Layer_1
 62
7
100
AcDbLine
 10
17.943943
 20
12.871979
 30
0.0
 11
17.914307
 21
12.882196
 31
0.0
  0
LINE
  5
305
100
AcDbEntity
  8
Layer_1
 62
7
100
AcDbLine
 10
17.914307
 20
12.882196
 30
0.0
 11
17.864266
 21
12.912803
 31
0.0
  0
LINE
  5
306
100
AcDbEntity
  8
Layer_1
 62
7
100
AcDbLine
 10
17.864266
 20
12.912803
 30
0.0
 11
17.793820
 21
12.963814
 31
0.0
  0
LINE
  5
307
100
AcDbEntity
  8
Layer_1
 62
7
100
AcDbLine
 10
17.793820
 20
12.963814
 30
0.0
 11
17.702970
 21
13.035233
 31
0.0
  0
LINE
  5
308
100
AcDbEntity
  8
Layer_1
 62
7
100
AcDbLine
 10
17.702970
 20
13.035233
 30
0.0
 11
17.602400
 21
13.106650
 31
0.0
  0
LINE
  5
309
100
AcDbEntity
  8
Layer_1
 62
7
100
AcDbLine
 10
17.602400
 20
13.106650
 30
0.0
 11
17.502804
 21
13.157661
 31
0.0
  0
LINE
  5
30a
100
AcDbEntity
  8
Layer_1
 62
7
100
AcDbLine
 10
17.502804
 20
13.157661
 30
0.0
 11
17.404179
 21
13.188268
 31
0.0
  0
LINE
  5
30b
100
AcDbEntity
  8
Layer_1
 62
7
100
AcDbLine
 10
17.404179
 20
13.188268
 30
0.0
 11
17.306530
 21
13.198485
 31
0.0
  0
LINE
  5
30c
100
AcDbEntity
  8
Layer_1
 62
7
100
AcDbLine
 10
17.306530
 20
13.198485
 30
0.0
 11
17.172923
 21
13.186829
 31
0.0
  0
LINE
  5
30d
100
AcDbEntity
  8
Layer_1
 62
7
100
AcDbLine
 10
17.172923
 20
13.186829
 30
0.0
 11
17.036404
 21
13.151848
 31
0.0
  0
LINE
  5
30e
100
AcDbEntity
  8
Layer_1
 62
7
100
AcDbLine
 10
17.036404
 20
13.151848
 30
0.0
 11
16.896969
 21
13.093549
 31
0.0
  0
LINE
  5
30f
100
AcDbEntity
  8
Layer_1
 62
7
100
AcDbLine
 10
16.896969
 20
13.093549
 30
0.0
 11
16.754622
 21
13.011930
 31
0.0
  0
LINE
  5
310
100
AcDbEntity
  8
Layer_1
 62
7
100
AcDbLine
 10
16.754622
 20
13.011930
 30
0.0
 11
16.591867
 21
12.893386
 31
0.0
  0
LINE
  5
311
100
AcDbEntity
  8
Layer_1
 62
7
100
AcDbLine
 10
16.591867
 20
12.893386
 30
0.0
 11
16.383443
 21
12.724315
 31
0.0
  0
LINE
  5
312
100
AcDbEntity
  8
Layer_1
 62
7
100
AcDbLine
 10
16.383443
 20
12.724315
 30
0.0
 11
16.129353
 21
12.504721
 31
0.0
  0
LINE
  5
313
100
AcDbEntity
  8
Layer_1
 62
7
100
AcDbLine
 10
16.129353
 20
12.504721
 30
0.0
 11
15.829596
 21
12.234597
 31
0.0
  0
LINE
  5
314
100
AcDbEntity
  8
Layer_1
 62
7
100
AcDbLine
 10
15.829596
 20
12.234597
 30
0.0
 11
15.829596
 21
11.805120
 31
0.0
  0
LINE
  5
315
100
AcDbEntity
  8
Layer_1
 62
7
100
AcDbLine
 10
15.829596
 20
11.805120
 30
0.0
 11
15.829596
 21
11.375643
 31
0.0
  0
LINE
  5
316
100
AcDbEntity
  8
Layer_1
 62
7
100
AcDbLine
 10
15.829596
 20
11.375643
 30
0.0
 11
15.829596
 21
10.946168
 31
0.0
  0
LINE
  5
317
100
AcDbEntity
  8
Layer_1
 62
7
100
AcDbLine
 10
15.829596
 20
10.946168
 30
0.0
 11
15.829596
 21
10.516691
 31
0.0
  0
LINE
  5
318
100
AcDbEntity
  8
Layer_1
 62
7
100
AcDbLine
 10
15.829596
 20
10.516691
 30
0.0
 11
16.177452
 21
10.516691
 31
0.0
  0
LINE
  5
319
100
AcDbEntity
  8
Layer_1
 62
7
100
AcDbLine
 10
16.177452
 20
10.516691
 30
0.0
 11
16.525311
 21
10.516691
 31
0.0
  0
LINE
  5
31a
100
AcDbEntity
  8
Layer_1
 62
7
100
AcDbLine
 10
16.525311
 20
10.516691
 30
0.0
 11
16.873166
 21
10.516691
 31
0.0
  0
LINE
  5
31b
100
AcDbEntity
  8
Layer_1
 62
7
100
AcDbLine
 10
16.873166
 20
10.516691
 30
0.0
 11
17.221022
 21
10.516691
 31
0.0
  0
LINE
  5
31c
100
AcDbEntity
  8
Layer_1
 62
7
100
AcDbLine
 10
17.221022
 20
10.516691
 30
0.0
 11
17.312843
 21
10.506474
 31
0.0
  0
LINE
  5
31d
100
AcDbEntity
  8
Layer_1
 62
7
100
AcDbLine
 10
17.312843
 20
10.506474
 30
0.0
 11
17.378432
 21
10.475865
 31
0.0
  0
LINE
  5
31e
100
AcDbEntity
  8
Layer_1
 62
7
100
AcDbLine
 10
17.378432
 20
10.475865
 30
0.0
 11
17.417785
 21
10.424853
 31
0.0
  0
LINE
  5
31f
100
AcDbEntity
  8
Layer_1
 62
7
100
AcDbLine
 10
17.417785
 20
10.424853
 30
0.0
 11
17.430908
 21
10.353437
 31
0.0
  0
LINE
  5
320
100
AcDbEntity
  8
Layer_1
 62
7
100
AcDbLine
 10
17.430908
 20
10.353437
 30
0.0
 11
17.417785
 21
10.285418
 31
0.0
  0
LINE
  5
321
100
AcDbEntity
  8
Layer_1
 62
7
100
AcDbLine
 10
17.417785
 20
10.285418
 30
0.0
 11
17.378432
 21
10.236836
 31
0.0
  0
LINE
  5
322
100
AcDbEntity
  8
Layer_1
 62
7
100
AcDbLine
 10
17.378432
 20
10.236836
 30
0.0
 11
17.312843
 21
10.207686
 31
0.0
  0
LINE
  5
323
100
AcDbEntity
  8
Layer_1
 62
7
100
AcDbLine
 10
17.312843
 20
10.207686
 30
0.0
 11
17.221022
 21
10.197977
 31
0.0
  0
LINE
  5
324
100
AcDbEntity
  8
Layer_1
 62
7
100
AcDbLine
 10
17.221022
 20
10.197977
 30
0.0
 11
16.606929
 21
10.197977
 31
0.0
  0
LINE
  5
325
100
AcDbEntity
  8
Layer_1
 62
7
100
AcDbLine
 10
16.606929
 20
10.197977
 30
0.0
 11
15.992836
 21
10.197977
 31
0.0
  0
LINE
  5
326
100
AcDbEntity
  8
Layer_1
 62
7
100
AcDbLine
 10
15.992836
 20
10.197977
 30
0.0
 11
15.378740
 21
10.197977
 31
0.0
  0
LINE
  5
327
100
AcDbEntity
  8
Layer_1
 62
7
100
AcDbLine
 10
15.378740
 20
10.197977
 30
0.0
 11
14.764647
 21
10.197977
 31
0.0
  0
LINE
  5
328
100
AcDbEntity
  8
Layer_1
 62
7
100
AcDbLine
 10
14.764647
 20
10.197977
 30
0.0
 11
14.672824
 21
10.208165
 31
0.0
  0
LINE
  5
329
100
AcDbEntity
  8
Layer_1
 62
7
100
AcDbLine
 10
14.672824
 20
10.208165
 30
0.0
 11
14.607238
 21
10.238772
 31
0.0
  0
LINE
  5
32a
100
AcDbEntity
  8
Layer_1
 62
7
100
AcDbLine
 10
14.607238
 20
10.238772
 30
0.0
 11
14.567885
 21
10.289784
 31
0.0
  0
LINE
  5
32b
100
AcDbEntity
  8
Layer_1
 62
7
100
AcDbLine
 10
14.567885
 20
10.289784
 30
0.0
 11
14.554762
 21
10.361203
 31
0.0
  0
LINE
  5
32c
100
AcDbEntity
  8
Layer_1
 62
7
100
AcDbLine
 10
14.554762
 20
10.361203
 30
0.0
 11
14.567885
 21
10.429219
 31
0.0
  0
LINE
  5
32d
100
AcDbEntity
  8
Layer_1
 62
7
100
AcDbLine
 10
14.567885
 20
10.429219
 30
0.0
 11
14.607238
 21
10.477803
 31
0.0
  0
LINE
  5
32e
100
AcDbEntity
  8
Layer_1
 62
7
100
AcDbLine
 10
14.607238
 20
10.477803
 30
0.0
 11
14.672824
 21
10.506954
 31
0.0
  0
LINE
  5
32f
100
AcDbEntity
  8
Layer_1
 62
7
100
AcDbLine
 10
14.672824
 20
10.506954
 30
0.0
 11
14.764647
 21
10.516663
 31
0.0
  0
LINE
  5
330
100
AcDbEntity
  8
Layer_1
 62
7
100
AcDbLine
 10
14.764647
 20
10.516663
 30
0.0
 11
14.951208
 21
10.516663
 31
0.0
  0
LINE
  5
331
100
AcDbEntity
  8
Layer_1
 62
7
100
AcDbLine
 10
14.951208
 20
10.516663
 30
0.0
 11
15.137768
 21
10.516663
 31
0.0
  0
LINE
  5
332
100
AcDbEntity
  8
Layer_1
 62
7
100
AcDbLine
 10
15.137768
 20
10.516663
 30
0.0
 11
15.324328
 21
10.516663
 31
0.0
  0
LINE
  5
333
100
AcDbEntity
  8
Layer_1
 62
7
100
AcDbLine
 10
15.324328
 20
10.516663
 30
0.0
 11
15.510888
 21
10.516663
 31
0.0
  0
LINE
  5
334
100
AcDbEntity
  8
Layer_1
 62
7
100
AcDbLine
 10
15.510888
 20
10.516663
 30
0.0
 11
15.510888
 21
11.167679
 31
0.0
  0
LINE
  5
335
100
AcDbEntity
  8
Layer_1
 62
7
100
AcDbLine
 10
15.510888
 20
11.167679
 30
0.0
 11
15.510888
 21
11.818695
 31
0.0
  0
LINE
  5
336
100
AcDbEntity
  8
Layer_1
 62
7
100
AcDbLine
 10
15.510888
 20
11.818695
 30
0.0
 11
15.510888
 21
12.469714
 31
0.0
  0
LINE
  5
337
100
AcDbEntity
  8
Layer_1
 62
7
100
AcDbLine
 10
15.510888
 20
12.469714
 30
0.0
 11
15.510888
 21
13.120730
 31
0.0
  0
LINE
  5
338
100
AcDbEntity
  8
Layer_1
 62
7
100
AcDbLine
 10
15.510888
 20
13.120730
 30
0.0
 11
15.365137
 21
13.120730
 31
0.0
  0
LINE
  5
339
100
AcDbEntity
  8
Layer_1
 62
7
100
AcDbLine
 10
15.365137
 20
13.120730
 30
0.0
 11
15.219389
 21
13.120730
 31
0.0
  0
LINE
  5
33a
100
AcDbEntity
  8
Layer_1
 62
7
100
AcDbLine
 10
15.219389
 20
13.120730
 30
0.0
 11
15.073638
 21
13.120730
 31
0.0
  0
LINE
  5
33b
100
AcDbEntity
  8
Layer_1
 62
7
100
AcDbLine
 10
15.073638
 20
13.120730
 30
0.0
 11
14.927888
 21
13.120730
 31
0.0
  0
LINE
  5
33c
100
AcDbEntity
  8
Layer_1
 62
7
100
AcDbLine
 10
14.927888
 20
13.120730
 30
0.0
 11
14.836064
 21
13.130918
 31
0.0
  0
LINE
  5
33d
100
AcDbEntity
  8
Layer_1
 62
7
100
AcDbLine
 10
14.836064
 20
13.130918
 30
0.0
 11
14.770478
 21
13.161525
 31
0.0
  0
LINE
  5
33e
100
AcDbEntity
  8
Layer_1
 62
7
100
AcDbLine
 10
14.770478
 20
13.161525
 30
0.0
 11
14.731125
 21
13.212540
 31
0.0
  0
LINE
  5
33f
100
AcDbEntity
  8
Layer_1
 62
7
100
AcDbLine
 10
14.731125
 20
13.212540
 30
0.0
 11
14.718002
 21
13.283959
 31
0.0
  0
LINE
  5
340
100
AcDbEntity
  8
Layer_1
 62
7
100
AcDbLine
 10
14.718002
 20
13.283959
 30
0.0
 11
14.731125
 21
13.351974
 31
0.0
  0
LINE
  5
341
100
AcDbEntity
  8
Layer_1
 62
7
100
AcDbLine
 10
14.731125
 20
13.351974
 30
0.0
 11
14.770478
 21
13.400556
 31
0.0
  0
LINE
  5
342
100
AcDbEntity
  8
Layer_1
 62
7
100
AcDbLine
 10
14.770478
 20
13.400556
 30
0.0
 11
14.836064
 21
13.429707
 31
0.0
  0
LINE
  5
343
100
AcDbEntity
  8
Layer_1
 62
7
100
AcDbLine
 10
14.836064
 20
13.429707
 30
0.0
 11
14.927888
 21
13.439415
 31
0.0
  0
LINE
  5
344
100
AcDbEntity
  8
Layer_1
 62
7
100
AcDbLine
 10
14.927888
 20
13.439415
 30
0.0
 11
15.153315
 21
13.439415
 31
0.0
  0
LINE
  5
345
100
AcDbEntity
  8
Layer_1
 62
7
100
AcDbLine
 10
15.153315
 20
13.439415
 30
0.0
 11
15.378743
 21
13.439415
 31
0.0
  0
LINE
  5
346
100
AcDbEntity
  8
Layer_1
 62
7
100
AcDbLine
 10
15.378743
 20
13.439415
 30
0.0
 11
15.604168
 21
13.439415
 31
0.0
  0
LINE
  5
347
100
AcDbEntity
  8
Layer_1
 62
7
100
AcDbLine
 10
15.604168
 20
13.439415
 30
0.0
 11
15.829596
 21
13.439415
 31
0.0
  0
LINE
  5
348
100
AcDbEntity
  8
Layer_1
 62
7
100
AcDbLine
 10
15.829596
 20
13.439415
 30
0.0
 11
15.829596
 21
13.241194
 31
0.0
  0
LINE
  5
349
100
AcDbEntity
  8
Layer_1
 62
7
100
AcDbLine
 10
15.829596
 20
13.241194
 30
0.0
 11
15.829596
 21
13.042975
 31
0.0
  0
LINE
  5
34a
100
AcDbEntity
  8
Layer_1
 62
7
100
AcDbLine
 10
15.829596
 20
13.042975
 30
0.0
 11
15.829596
 21
12.844753
 31
0.0
  0
LINE
  5
34b
100
AcDbEntity
  8
Layer_1
 62
7
100
AcDbLine
 10
15.829596
 20
12.844753
 30
0.0
 11
15.829596
 21
12.646534
 31
0.0
  0
LINE
  5
34c
100
AcDbEntity
  8
Layer_1
 62
7
100
AcDbLine
 10
15.829596
 20
12.646534
 30
0.0
 11
16.085143
 21
12.872445
 31
0.0
  0
LINE
  5
34d
100
AcDbEntity
  8
Layer_1
 62
7
100
AcDbLine
 10
16.085143
 20
12.872445
 30
0.0
 11
16.315428
 21
13.060461
 31
0.0
  0
LINE
  5
34e
100
AcDbEntity
  8
Layer_1
 62
7
100
AcDbLine
 10
16.315428
 20
13.060461
 30
0.0
 11
16.520451
 21
13.210584
 31
0.0
  0
LINE
  5
34f
100
AcDbEntity
  8
Layer_1
 62
7
100
AcDbLine
 10
16.520451
 20
13.210584
 30
0.0
 11
16.700209
 21
13.322815
 31
0.0
  0
LINE
  5
350
100
AcDbEntity
  8
Layer_1
 62
7
100
AcDbLine
 10
16.700209
 20
13.322815
 30
0.0
 11
16.864906
 21
13.407834
 31
0.0
  0
LINE
  5
351
100
AcDbEntity
  8
Layer_1
 62
7
100
AcDbLine
 10
16.864906
 20
13.407834
 30
0.0
 11
17.024742
 21
13.468563
 31
0.0
  0
LINE
  5
352
100
AcDbEntity
  8
Layer_1
 62
7
100
AcDbLine
 10
17.024742
 20
13.468563
 30
0.0
 11
17.179725
 21
13.505001
 31
0.0
  0
LINE
  5
353
100
AcDbEntity
  8
Layer_1
 62
7
100
AcDbLine
 10
17.179725
 20
13.505001
 30
0.0
 11
17.329850
 21
13.517136
 31
0.0
  0
LINE
  5
354
100
AcDbEntity
  8
Layer_1
 62
7
100
AcDbLine
 10
17.329850
 20
13.517136
 30
0.0
 11
17.480458
 21
13.505481
 31
0.0
  0
LINE
  5
355
100
AcDbEntity
  8
Layer_1
 62
7
100
AcDbLine
 10
17.480458
 20
13.505481
 30
0.0
 11
17.621349
 21
13.470499
 31
0.0
  0
LINE
  5
356
100
AcDbEntity
  8
Layer_1
 62
7
100
AcDbLine
 10
17.621349
 20
13.470499
 30
0.0
 11
17.752523
 21
13.412200
 31
0.0
  0
LINE
  5
357
100
AcDbEntity
  8
Layer_1
 62
7
100
AcDbLine
 10
17.752523
 20
13.412200
 30
0.0
 11
17.873983
 21
13.330582
 31
0.0
  0
LINE
  5
358
100
AcDbEntity
  8
Layer_1
 62
7
100
AcDbLine
 10
17.873983
 20
13.330582
 30
0.0
 11
17.976006
 21
13.242159
 31
0.0
  0
LINE
  5
359
100
AcDbEntity
  8
Layer_1
 62
7
100
AcDbLine
 10
17.976006
 20
13.242159
 30
0.0
 11
18.048882
 21
13.163453
 31
0.0
  0
LINE
  5
35a
100
AcDbEntity
  8
Layer_1
 62
7
100
AcDbLine
 10
18.048882
 20
13.163453
 30
0.0
 11
18.092606
 21
13.094463
 31
0.0
  0
LINE
  5
35b
100
AcDbEntity
  8
Layer_1
 62
7
100
AcDbLine
 10
18.092606
 20
13.094463
 30
0.0
 11
18.107169
 21
13.035194
 31
0.0
  0
LINE
  5
35c
100
AcDbEntity
  8
Layer_1
 62
7
100
AcDbLine
 10
18.107169
 20
13.035194
 30
0.0
 11
18.104262
 21
13.001669
 31
0.0
  0
LINE
  5
35d
100
AcDbEntity
  8
Layer_1
 62
7
100
AcDbLine
 10
18.104262
 20
13.001669
 30
0.0
 11
18.095513
 21
12.971062
 31
0.0
  0
LINE
  5
35e
100
AcDbEntity
  8
Layer_1
 62
7
100
AcDbLine
 10
18.095513
 20
12.971062
 30
0.0
 11
18.080950
 21
12.943376
 31
0.0
  0
LINE
  5
35f
100
AcDbEntity
  8
Layer_1
 62
7
100
AcDbLine
 10
18.080950
 20
12.943376
 30
0.0
 11
18.060546
 21
12.918597
 31
0.0
  0
LINE
  5
360
100
AcDbEntity
  8
Layer_1
 62
7
100
AcDbLine
 10
18.060546
 20
12.918597
 30
0.0
 11
18.035767
 21
12.898192
 31
0.0
  0
LINE
  5
361
100
AcDbEntity
  8
Layer_1
 62
7
100
AcDbLine
 10
18.035767
 20
12.898192
 30
0.0
 11
18.008081
 21
12.883629
 31
0.0
  0
LINE
  5
362
100
AcDbEntity
  8
Layer_1
 62
7
100
AcDbLine
 10
18.008081
 20
12.883629
 30
0.0
 11
17.977474
 21
12.874880
 31
0.0
  0
LINE
  5
363
100
AcDbEntity
  8
Layer_1
 62
7
100
AcDbLine
 10
17.977474
 20
12.874880
 30
0.0
 11
17.943954
 21
12.871974
 31
0.0
  0
LINE
  5
364
100
AcDbEntity
  8
Layer_1
 62
7
100
AcDbLine
 10
10.049279
 20
13.851414
 30
0.0
 11
10.075525
 21
14.029229
 31
0.0
  0
LINE
  5
365
100
AcDbEntity
  8
Layer_1
 62
7
100
AcDbLine
 10
10.075525
 20
14.029229
 30
0.0
 11
10.154231
 21
14.212871
 31
0.0
  0
LINE
  5
366
100
AcDbEntity
  8
Layer_1
 62
7
100
AcDbLine
 10
10.154231
 20
14.212871
 30
0.0
 11
10.285405
 21
14.402349
 31
0.0
  0
LINE
  5
367
100
AcDbEntity
  8
Layer_1
 62
7
100
AcDbLine
 10
10.285405
 20
14.402349
 30
0.0
 11
10.469050
 21
14.597655
 31
0.0
  0
LINE
  5
368
100
AcDbEntity
  8
Layer_1
 62
7
100
AcDbLine
 10
10.469050
 20
14.597655
 30
0.0
 11
10.693504
 21
14.774496
 31
0.0
  0
LINE
  5
369
100
AcDbEntity
  8
Layer_1
 62
7
100
AcDbLine
 10
10.693504
 20
14.774496
 30
0.0
 11
10.939337
 21
14.900813
 31
0.0
  0
LINE
  5
36a
100
AcDbEntity
  8
Layer_1
 62
7
100
AcDbLine
 10
10.939337
 20
14.900813
 30
0.0
 11
11.206545
 21
14.976603
 31
0.0
  0
LINE
  5
36b
100
AcDbEntity
  8
Layer_1
 62
7
100
AcDbLine
 10
11.206545
 20
14.976603
 30
0.0
 11
11.495131
 21
15.001862
 31
0.0
  0
LINE
  5
36c
100
AcDbEntity
  8
Layer_1
 62
7
100
AcDbLine
 10
11.495131
 20
15.001862
 30
0.0
 11
11.770112
 21
14.976603
 31
0.0
  0
LINE
  5
36d
100
AcDbEntity
  8
Layer_1
 62
7
100
AcDbLine
 10
11.770112
 20
14.976603
 30
0.0
 11
12.027603
 21
14.900813
 31
0.0
  0
LINE
  5
36e
100
AcDbEntity
  8
Layer_1
 62
7
100
AcDbLine
 10
12.027603
 20
14.900813
 30
0.0
 11
12.267605
 21
14.774496
 31
0.0
  0
LINE
  5
36f
100
AcDbEntity
  8
Layer_1
 62
7
100
AcDbLine
 10
12.267605
 20
14.774496
 30
0.0
 11
12.490120
 21
14.597655
 31
0.0
  0
LINE
  5
370
100
AcDbEntity
  8
Layer_1
 62
7
100
AcDbLine
 10
12.490120
 20
14.597655
 30
0.0
 11
12.680563
 21
14.387772
 31
0.0
  0
LINE
  5
371
100
AcDbEntity
  8
Layer_1
 62
7
100
AcDbLine
 10
12.680563
 20
14.387772
 30
0.0
 11
12.816597
 21
14.162344
 31
0.0
  0
LINE
  5
372
100
AcDbEntity
  8
Layer_1
 62
7
100
AcDbLine
 10
12.816597
 20
14.162344
 30
0.0
 11
12.898216
 21
13.921372
 31
0.0
  0
LINE
  5
373
100
AcDbEntity
  8
Layer_1
 62
7
100
AcDbLine
 10
12.898216
 20
13.921372
 30
0.0
 11
12.925422
 21
13.664854
 31
0.0
  0
LINE
  5
374
100
AcDbEntity
  8
Layer_1
 62
7
100
AcDbLine
 10
12.925422
 20
13.664854
 30
0.0
 11
12.912299
 21
13.492383
 31
0.0
  0
LINE
  5
375
100
AcDbEntity
  8
Layer_1
 62
7
100
AcDbLine
 10
12.912299
 20
13.492383
 30
0.0
 11
12.872946
 21
13.324768
 31
0.0
  0
LINE
  5
376
100
AcDbEntity
  8
Layer_1
 62
7
100
AcDbLine
 10
12.872946
 20
13.324768
 30
0.0
 11
12.807357
 21
13.162016
 31
0.0
  0
LINE
  5
377
100
AcDbEntity
  8
Layer_1
 62
7
100
AcDbLine
 10
12.807357
 20
13.162016
 30
0.0
 11
12.715536
 21
13.004121
 31
0.0
  0
LINE
  5
378
100
AcDbEntity
  8
Layer_1
 62
7
100
AcDbLine
 10
12.715536
 20
13.004121
 30
0.0
 11
12.582903
 21
12.830193
 31
0.0
  0
LINE
  5
379
100
AcDbEntity
  8
Layer_1
 62
7
100
AcDbLine
 10
12.582903
 20
12.830193
 30
0.0
 11
12.387112
 21
12.611567
 31
0.0
  0
LINE
  5
37a
100
AcDbEntity
  8
Layer_1
 62
7
100
AcDbLine
 10
12.387112
 20
12.611567
 30
0.0
 11
12.128161
 21
12.348245
 31
0.0
  0
LINE
  5
37b
100
AcDbEntity
  8
Layer_1
 62
7
100
AcDbLine
 10
12.128161
 20
12.348245
 30
0.0
 11
11.806055
 21
12.040228
 31
0.0
  0
LINE
  5
37c
100
AcDbEntity
  8
Layer_1
 62
7
100
AcDbLine
 10
11.806055
 20
12.040228
 30
0.0
 11
11.403787
 21
11.665163
 31
0.0
  0
LINE
  5
37d
100
AcDbEntity
  8
Layer_1
 62
7
100
AcDbLine
 10
11.403787
 20
11.665163
 30
0.0
 11
11.001516
 21
11.290101
 31
0.0
  0
LINE
  5
37e
100
AcDbEntity
  8
Layer_1
 62
7
100
AcDbLine
 10
11.001516
 20
11.290101
 30
0.0
 11
10.599248
 21
10.915036
 31
0.0
  0
LINE
  5
37f
100
AcDbEntity
  8
Layer_1
 62
7
100
AcDbLine
 10
10.599248
 20
10.915036
 30
0.0
 11
10.196977
 21
10.539974
 31
0.0
  0
LINE
  5
380
100
AcDbEntity
  8
Layer_1
 62
7
100
AcDbLine
 10
10.196977
 20
10.539974
 30
0.0
 11
10.196977
 21
10.534132
 31
0.0
  0
LINE
  5
381
100
AcDbEntity
  8
Layer_1
 62
7
100
AcDbLine
 10
10.196977
 20
10.534132
 30
0.0
 11
10.196977
 21
10.528318
 31
0.0
  0
LINE
  5
382
100
AcDbEntity
  8
Layer_1
 62
7
100
AcDbLine
 10
10.196977
 20
10.528318
 30
0.0
 11
10.196977
 21
10.522476
 31
0.0
  0
LINE
  5
383
100
AcDbEntity
  8
Layer_1
 62
7
100
AcDbLine
 10
10.196977
 20
10.522476
 30
0.0
 11
10.196977
 21
10.516634
 31
0.0
  0
LINE
  5
384
100
AcDbEntity
  8
Layer_1
 62
7
100
AcDbLine
 10
10.196977
 20
10.516634
 30
0.0
 11
10.807184
 21
10.516634
 31
0.0
  0
LINE
  5
385
100
AcDbEntity
  8
Layer_1
 62
7
100
AcDbLine
 10
10.807184
 20
10.516634
 30
0.0
 11
11.417390
 21
10.516634
 31
0.0
  0
LINE
  5
386
100
AcDbEntity
  8
Layer_1
 62
7
100
AcDbLine
 10
11.417390
 20
10.516634
 30
0.0
 11
12.027597
 21
10.516634
 31
0.0
  0
LINE
  5
387
100
AcDbEntity
  8
Layer_1
 62
7
100
AcDbLine
 10
12.027597
 20
10.516634
 30
0.0
 11
12.637804
 21
10.516634
 31
0.0
  0
LINE
  5
388
100
AcDbEntity
  8
Layer_1
 62
7
100
AcDbLine
 10
12.637804
 20
10.516634
 30
0.0
 11
12.637804
 21
10.586594
 31
0.0
  0
LINE
  5
389
100
AcDbEntity
  8
Layer_1
 62
7
100
AcDbLine
 10
12.637804
 20
10.586594
 30
0.0
 11
12.637804
 21
10.656554
 31
0.0
  0
LINE
  5
38a
100
AcDbEntity
  8
Layer_1
 62
7
100
AcDbLine
 10
12.637804
 20
10.656554
 30
0.0
 11
12.637804
 21
10.726515
 31
0.0
  0
LINE
  5
38b
100
AcDbEntity
  8
Layer_1
 62
7
100
AcDbLine
 10
12.637804
 20
10.726515
 30
0.0
 11
12.637804
 21
10.796475
 31
0.0
  0
LINE
  5
38c
100
AcDbEntity
  8
Layer_1
 62
7
100
AcDbLine
 10
12.637804
 20
10.796475
 30
0.0
 11
12.647992
 21
10.888296
 31
0.0
  0
LINE
  5
38d
100
AcDbEntity
  8
Layer_1
 62
7
100
AcDbLine
 10
12.647992
 20
10.888296
 30
0.0
 11
12.678599
 21
10.953881
 31
0.0
  0
LINE
  5
38e
100
AcDbEntity
  8
Layer_1
 62
7
100
AcDbLine
 10
12.678599
 20
10.953881
 30
0.0
 11
12.729614
 21
10.993234
 31
0.0
  0
LINE
  5
38f
100
AcDbEntity
  8
Layer_1
 62
7
100
AcDbLine
 10
12.729614
 20
10.993234
 30
0.0
 11
12.801033
 21
11.006358
 31
0.0
  0
LINE
  5
390
100
AcDbEntity
  8
Layer_1
 62
7
100
AcDbLine
 10
12.801033
 20
11.006358
 30
0.0
 11
12.869048
 21
10.993234
 31
0.0
  0
LINE
  5
391
100
AcDbEntity
  8
Layer_1
 62
7
100
AcDbLine
 10
12.869048
 20
10.993234
 30
0.0
 11
12.917630
 21
10.953881
 31
0.0
  0
LINE
  5
392
100
AcDbEntity
  8
Layer_1
 62
7
100
AcDbLine
 10
12.917630
 20
10.953881
 30
0.0
 11
12.946781
 21
10.888296
 31
0.0
  0
LINE
  5
393
100
AcDbEntity
  8
Layer_1
 62
7
100
AcDbLine
 10
12.946781
 20
10.888296
 30
0.0
 11
12.956489
 21
10.796475
 31
0.0
  0
LINE
  5
394
100
AcDbEntity
  8
Layer_1
 62
7
100
AcDbLine
 10
12.956489
 20
10.796475
 30
0.0
 11
12.956489
 21
10.646838
 31
0.0
  0
LINE
  5
395
100
AcDbEntity
  8
Layer_1
 62
7
100
AcDbLine
 10
12.956489
 20
10.646838
 30
0.0
 11
12.956489
 21
10.497201
 31
0.0
  0
LINE
  5
396
100
AcDbEntity
  8
Layer_1
 62
7
100
AcDbLine
 10
12.956489
 20
10.497201
 30
0.0
 11
12.956489
 21
10.347563
 31
0.0
  0
LINE
  5
397
100
AcDbEntity
  8
Layer_1
 62
7
100
AcDbLine
 10
12.956489
 20
10.347563
 30
0.0
 11
12.956489
 21
10.197926
 31
0.0
  0
LINE
  5
398
100
AcDbEntity
  8
Layer_1
 62
7
100
AcDbLine
 10
12.956489
 20
10.197926
 30
0.0
 11
12.190815
 21
10.197926
 31
0.0
  0
LINE
  5
399
100
AcDbEntity
  8
Layer_1
 62
7
100
AcDbLine
 10
12.190815
 20
10.197926
 30
0.0
 11
11.425143
 21
10.197926
 31
0.0
  0
LINE
  5
39a
100
AcDbEntity
  8
Layer_1
 62
7
100
AcDbLine
 10
11.425143
 20
10.197926
 30
0.0
 11
10.659468
 21
10.197926
 31
0.0
  0
LINE
  5
39b
100
AcDbEntity
  8
Layer_1
 62
7
100
AcDbLine
 10
10.659468
 20
10.197926
 30
0.0
 11
9.893794
 21
10.197926
 31
0.0
  0
LINE
  5
39c
100
AcDbEntity
  8
Layer_1
 62
7
100
AcDbLine
 10
9.893794
 20
10.197926
 30
0.0
 11
9.893794
 21
10.314527
 31
0.0
  0
LINE
  5
39d
100
AcDbEntity
  8
Layer_1
 62
7
100
AcDbLine
 10
9.893794
 20
10.314527
 30
0.0
 11
9.893794
 21
10.431127
 31
0.0
  0
LINE
  5
39e
100
AcDbEntity
  8
Layer_1
 62
7
100
AcDbLine
 10
9.893794
 20
10.431127
 30
0.0
 11
9.893794
 21
10.547727
 31
0.0
  0
LINE
  5
39f
100
AcDbEntity
  8
Layer_1
 62
7
100
AcDbLine
 10
9.893794
 20
10.547727
 30
0.0
 11
9.893794
 21
10.664327
 31
0.0
  0
LINE
  5
3a0
100
AcDbEntity
  8
Layer_1
 62
7
100
AcDbLine
 10
9.893794
 20
10.664327
 30
0.0
 11
10.352422
 21
11.095746
 31
0.0
  0
LINE
  5
3a1
100
AcDbEntity
  8
Layer_1
 62
7
100
AcDbLine
 10
10.352422
 20
11.095746
 30
0.0
 11
10.811047
 21
11.527168
 31
0.0
  0
LINE
  5
3a2
100
AcDbEntity
  8
Layer_1
 62
7
100
AcDbLine
 10
10.811047
 20
11.527168
 30
0.0
 11
11.269675
 21
11.958587
 31
0.0
  0
LINE
  5
3a3
100
AcDbEntity
  8
Layer_1
 62
7
100
AcDbLine
 10
11.269675
 20
11.958587
 30
0.0
 11
11.728300
 21
12.390009
 31
0.0
  0
LINE
  5
3a4
100
AcDbEntity
  8
Layer_1
 62
7
100
AcDbLine
 10
11.728300
 20
12.390009
 30
0.0
 11
11.976560
 21
12.639724
 31
0.0
  0
LINE
  5
3a5
100
AcDbEntity
  8
Layer_1
 62
7
100
AcDbLine
 10
11.976560
 20
12.639724
 30
0.0
 11
12.177209
 21
12.852520
 31
0.0
  0
LINE
  5
3a6
100
AcDbEntity
  8
Layer_1
 62
7
100
AcDbLine
 10
12.177209
 20
12.852520
 30
0.0
 11
12.330247
 21
13.028392
 31
0.0
  0
LINE
  5
3a7
100
AcDbEntity
  8
Layer_1
 62
7
100
AcDbLine
 10
12.330247
 20
13.028392
 30
0.0
 11
12.435673
 21
13.167342
 31
0.0
  0
LINE
  5
3a8
100
AcDbEntity
  8
Layer_1
 62
7
100
AcDbLine
 10
12.435673
 20
13.167342
 30
0.0
 11
12.510491
 21
13.289284
 31
0.0
  0
LINE
  5
3a9
100
AcDbEntity
  8
Layer_1
 62
7
100
AcDbLine
 10
12.510491
 20
13.289284
 30
0.0
 11
12.563932
 21
13.414142
 31
0.0
  0
LINE
  5
3aa
100
AcDbEntity
  8
Layer_1
 62
7
100
AcDbLine
 10
12.563932
 20
13.414142
 30
0.0
 11
12.595998
 21
13.541918
 31
0.0
  0
LINE
  5
3ab
100
AcDbEntity
  8
Layer_1
 62
7
100
AcDbLine
 10
12.595998
 20
13.541918
 30
0.0
 11
12.606695
 21
13.672610
 31
0.0
  0
LINE
  5
3ac
100
AcDbEntity
  8
Layer_1
 62
7
100
AcDbLine
 10
12.606695
 20
13.672610
 30
0.0
 11
12.585810
 21
13.868399
 31
0.0
  0
LINE
  5
3ad
100
AcDbEntity
  8
Layer_1
 62
7
100
AcDbLine
 10
12.585810
 20
13.868399
 30
0.0
 11
12.523137
 21
14.051555
 31
0.0
  0
LINE
  5
3ae
100
AcDbEntity
  8
Layer_1
 62
7
100
AcDbLine
 10
12.523137
 20
14.051555
 30
0.0
 11
12.418684
 21
14.222085
 31
0.0
  0
LINE
  5
3af
100
AcDbEntity
  8
Layer_1
 62
7
100
AcDbLine
 10
12.418684
 20
14.222085
 30
0.0
 11
12.272447
 21
14.379983
 31
0.0
  0
LINE
  5
3b0
100
AcDbEntity
  8
Layer_1
 62
7
100
AcDbLine
 10
12.272447
 20
14.379983
 30
0.0
 11
12.098520
 21
14.512613
 31
0.0
  0
LINE
  5
3b1
100
AcDbEntity
  8
Layer_1
 62
7
100
AcDbLine
 10
12.098520
 20
14.512613
 30
0.0
 11
11.910986
 21
14.607349
 31
0.0
  0
LINE
  5
3b2
100
AcDbEntity
  8
Layer_1
 62
7
100
AcDbLine
 10
11.910986
 20
14.607349
 30
0.0
 11
11.709852
 21
14.664192
 31
0.0
  0
LINE
  5
3b3
100
AcDbEntity
  8
Layer_1
 62
7
100
AcDbLine
 10
11.709852
 20
14.664192
 30
0.0
 11
11.495114
 21
14.683129
 31
0.0
  0
LINE
  5
3b4
100
AcDbEntity
  8
Layer_1
 62
7
100
AcDbLine
 10
11.495114
 20
14.683129
 30
0.0
 11
11.301264
 21
14.668566
 31
0.0
  0
LINE
  5
3b5
100
AcDbEntity
  8
Layer_1
 62
7
100
AcDbLine
 10
11.301264
 20
14.668566
 30
0.0
 11
11.116163
 21
14.624839
 31
0.0
  0
LINE
  5
3b6
100
AcDbEntity
  8
Layer_1
 62
7
100
AcDbLine
 10
11.116163
 20
14.624839
 30
0.0
 11
10.939805
 21
14.551966
 31
0.0
  0
LINE
  5
3b7
100
AcDbEntity
  8
Layer_1
 62
7
100
AcDbLine
 10
10.939805
 20
14.551966
 30
0.0
 11
10.772194
 21
14.449943
 31
0.0
  0
LINE
  5
3b8
100
AcDbEntity
  8
Layer_1
 62
7
100
AcDbLine
 10
10.772194
 20
14.449943
 30
0.0
 11
10.626928
 21
14.326053
 31
0.0
  0
LINE
  5
3b9
100
AcDbEntity
  8
Layer_1
 62
7
100
AcDbLine
 10
10.626928
 20
14.326053
 30
0.0
 11
10.509843
 21
14.187589
 31
0.0
  0
LINE
  5
3ba
100
AcDbEntity
  8
Layer_1
 62
7
100
AcDbLine
 10
10.509843
 20
14.187589
 30
0.0
 11
10.420937
 21
14.034554
 31
0.0
  0
LINE
  5
3bb
100
AcDbEntity
  8
Layer_1
 62
7
100
AcDbLine
 10
10.420937
 20
14.034554
 30
0.0
 11
10.360208
 21
13.866942
 31
0.0
  0
LINE
  5
3bc
100
AcDbEntity
  8
Layer_1
 62
7
100
AcDbLine
 10
10.360208
 20
13.866942
 30
0.0
 11
10.332522
 21
13.798924
 31
0.0
  0
LINE
  5
3bd
100
AcDbEntity
  8
Layer_1
 62
7
100
AcDbLine
 10
10.332522
 20
13.798924
 30
0.0
 11
10.296085
 21
13.750339
 31
0.0
  0
LINE
  5
3be
100
AcDbEntity
  8
Layer_1
 62
7
100
AcDbLine
 10
10.296085
 20
13.750339
 30
0.0
 11
10.250904
 21
13.721189
 31
0.0
  0
LINE
  5
3bf
100
AcDbEntity
  8
Layer_1
 62
7
100
AcDbLine
 10
10.250904
 20
13.721189
 30
0.0
 11
10.196977
 21
13.711480
 31
0.0
  0
LINE
  5
3c0
100
AcDbEntity
  8
Layer_1
 62
7
100
AcDbLine
 10
10.196977
 20
13.711480
 30
0.0
 11
10.170250
 21
13.714020
 31
0.0
  0
LINE
  5
3c1
100
AcDbEntity
  8
Layer_1
 62
7
100
AcDbLine
 10
10.170250
 20
13.714020
 30
0.0
 11
10.144512
 21
13.721302
 31
0.0
  0
LINE
  5
3c2
100
AcDbEntity
  8
Layer_1
 62
7
100
AcDbLine
 10
10.144512
 20
13.721302
 30
0.0
 11
10.119733
 21
13.733437
 31
0.0
  0
LINE
  5
3c3
100
AcDbEntity
  8
Layer_1
 62
7
100
AcDbLine
 10
10.119733
 20
13.733437
 30
0.0
 11
10.095913
 21
13.750455
 31
0.0
  0
LINE
  5
3c4
100
AcDbEntity
  8
Layer_1
 62
7
100
AcDbLine
 10
10.095913
 20
13.750455
 30
0.0
 11
10.075508
 21
13.774246
 31
0.0
  0
LINE
  5
3c5
100
AcDbEntity
  8
Layer_1
 62
7
100
AcDbLine
 10
10.075508
 20
13.774246
 30
0.0
 11
10.060946
 21
13.799026
 31
0.0
  0
LINE
  5
3c6
100
AcDbEntity
  8
Layer_1
 62
7
100
AcDbLine
 10
10.060946
 20
13.799026
 30
0.0
 11
10.052197
 21
13.824764
 31
0.0
  0
LINE
  5
3c7
100
AcDbEntity
  8
Layer_1
 62
7
100
AcDbLine
 10
10.052197
 20
13.824764
 30
0.0
 11
10.049290
 21
13.851491
 31
0.0
  0
LINE
  5
3c8
100
AcDbEntity
  8
Layer_1
 62
7
100
AcDbLine
 10
7.114007
 20
11.511708
 30
0.0
 11
7.024613
 21
11.511708
 31
0.0
  0
LINE
  5
3c9
100
AcDbEntity
  8
Layer_1
 62
7
100
AcDbLine
 10
7.024613
 20
11.511708
 30
0.0
 11
6.935219
 21
11.511708
 31
0.0
  0
LINE
  5
3ca
100
AcDbEntity
  8
Layer_1
 62
7
100
AcDbLine
 10
6.935219
 20
11.511708
 30
0.0
 11
6.845825
 21
11.511708
 31
0.0
  0
LINE
  5
3cb
100
AcDbEntity
  8
Layer_1
 62
7
100
AcDbLine
 10
6.845825
 20
11.511708
 30
0.0
 11
6.756431
 21
11.511708
 31
0.0
  0
LINE
  5
3cc
100
AcDbEntity
  8
Layer_1
 62
7
100
AcDbLine
 10
6.756431
 20
11.511708
 30
0.0
 11
6.447440
 21
12.197705
 31
0.0
  0
LINE
  5
3cd
100
AcDbEntity
  8
Layer_1
 62
7
100
AcDbLine
 10
6.447440
 20
12.197705
 30
0.0
 11
6.138452
 21
12.883703
 31
0.0
  0
LINE
  5
3ce
100
AcDbEntity
  8
Layer_1
 62
7
100
AcDbLine
 10
6.138452
 20
12.883703
 30
0.0
 11
5.829461
 21
13.569700
 31
0.0
  0
LINE
  5
3cf
100
AcDbEntity
  8
Layer_1
 62
7
100
AcDbLine
 10
5.829461
 20
13.569700
 30
0.0
 11
5.520470
 21
14.255698
 31
0.0
  0
LINE
  5
3d0
100
AcDbEntity
  8
Layer_1
 62
7
100
AcDbLine
 10
5.520470
 20
14.255698
 30
0.0
 11
5.504919
 21
14.255698
 31
0.0
  0
LINE
  5
3d1
100
AcDbEntity
  8
Layer_1
 62
7
100
AcDbLine
 10
5.504919
 20
14.255698
 30
0.0
 11
5.489369
 21
14.255698
 31
0.0
  0
LINE
  5
3d2
100
AcDbEntity
  8
Layer_1
 62
7
100
AcDbLine
 10
5.489369
 20
14.255698
 30
0.0
 11
5.473819
 21
14.255698
 31
0.0
  0
LINE
  5
3d3
100
AcDbEntity
  8
Layer_1
 62
7
100
AcDbLine
 10
5.473819
 20
14.255698
 30
0.0
 11
5.458268
 21
14.255698
 31
0.0
  0
LINE
  5
3d4
100
AcDbEntity
  8
Layer_1
 62
7
100
AcDbLine
 10
5.458268
 20
14.255698
 30
0.0
 11
5.458268
 21
13.320952
 31
0.0
  0
LINE
  5
3d5
100
AcDbEntity
  8
Layer_1
 62
7
100
AcDbLine
 10
5.458268
 20
13.320952
 30
0.0
 11
5.458268
 21
12.386210
 31
0.0
  0
LINE
  5
3d6
100
AcDbEntity
  8
Layer_1
 62
7
100
AcDbLine
 10
5.458268
 20
12.386210
 30
0.0
 11
5.458268
 21
11.451464
 31
0.0
  0
LINE
  5
3d7
100
AcDbEntity
  8
Layer_1
 62
7
100
AcDbLine
 10
5.458268
 20
11.451464
 30
0.0
 11
5.458268
 21
10.516722
 31
0.0
  0
LINE
  5
3d8
100
AcDbEntity
  8
Layer_1
 62
7
100
AcDbLine
 10
5.458268
 20
10.516722
 30
0.0
 11
5.602074
 21
10.516722
 31
0.0
  0
LINE
  5
3d9
100
AcDbEntity
  8
Layer_1
 62
7
100
AcDbLine
 10
5.602074
 20
10.516722
 30
0.0
 11
5.745881
 21
10.516722
 31
0.0
  0
LINE
  5
3da
100
AcDbEntity
  8
Layer_1
 62
7
100
AcDbLine
 10
5.745881
 20
10.516722
 30
0.0
 11
5.889687
 21
10.516722
 31
0.0
  0
LINE
  5
3db
100
AcDbEntity
  8
Layer_1
 62
7
100
AcDbLine
 10
5.889687
 20
10.516722
 30
0.0
 11
6.033493
 21
10.516722
 31
0.0
  0
LINE
  5
3dc
100
AcDbEntity
  8
Layer_1
 62
7
100
AcDbLine
 10
6.033493
 20
10.516722
 30
0.0
 11
6.128715
 21
10.507013
 31
0.0
  0
LINE
  5
3dd
100
AcDbEntity
  8
Layer_1
 62
7
100
AcDbLine
 10
6.128715
 20
10.507013
 30
0.0
 11
6.196734
 21
10.477863
 31
0.0
  0
LINE
  5
3de
100
AcDbEntity
  8
Layer_1
 62
7
100
AcDbLine
 10
6.196734
 20
10.477863
 30
0.0
 11
6.237543
 21
10.429278
 31
0.0
  0
LINE
  5
3df
100
AcDbEntity
  8
Layer_1
 62
7
100
AcDbLine
 10
6.237543
 20
10.429278
 30
0.0
 11
6.251146
 21
10.361263
 31
0.0
  0
LINE
  5
3e0
100
AcDbEntity
  8
Layer_1
 62
7
100
AcDbLine
 10
6.251146
 20
10.361263
 30
0.0
 11
6.237543
 21
10.289843
 31
0.0
  0
LINE
  5
3e1
100
AcDbEntity
  8
Layer_1
 62
7
100
AcDbLine
 10
6.237543
 20
10.289843
 30
0.0
 11
6.196734
 21
10.238832
 31
0.0
  0
LINE
  5
3e2
100
AcDbEntity
  8
Layer_1
 62
7
100
AcDbLine
 10
6.196734
 20
10.238832
 30
0.0
 11
6.128715
 21
10.208225
 31
0.0
  0
LINE
  5
3e3
100
AcDbEntity
  8
Layer_1
 62
7
100
AcDbLine
 10
6.128715
 20
10.208225
 30
0.0
 11
6.033493
 21
10.198036
 31
0.0
  0
LINE
  5
3e4
100
AcDbEntity
  8
Layer_1
 62
7
100
AcDbLine
 10
6.033493
 20
10.198036
 30
0.0
 11
5.743936
 21
10.198036
 31
0.0
  0
LINE
  5
3e5
100
AcDbEntity
  8
Layer_1
 62
7
100
AcDbLine
 10
5.743936
 20
10.198036
 30
0.0
 11
5.454382
 21
10.198036
 31
0.0
  0
LINE
  5
3e6
100
AcDbEntity
  8
Layer_1
 62
7
100
AcDbLine
 10
5.454382
 20
10.198036
 30
0.0
 11
5.164825
 21
10.198036
 31
0.0
  0
LINE
  5
3e7
100
AcDbEntity
  8
Layer_1
 62
7
100
AcDbLine
 10
5.164825
 20
10.198036
 30
0.0
 11
4.875268
 21
10.198036
 31
0.0
  0
LINE
  5
3e8
100
AcDbEntity
  8
Layer_1
 62
7
100
AcDbLine
 10
4.875268
 20
10.198036
 30
0.0
 11
4.783444
 21
10.208225
 31
0.0
  0
LINE
  5
3e9
100
AcDbEntity
  8
Layer_1
 62
7
100
AcDbLine
 10
4.783444
 20
10.208225
 30
0.0
 11
4.717858
 21
10.238832
 31
0.0
  0
LINE
  5
3ea
100
AcDbEntity
  8
Layer_1
 62
7
100
AcDbLine
 10
4.717858
 20
10.238832
 30
0.0
 11
4.678505
 21
10.289843
 31
0.0
  0
LINE
  5
3eb
100
AcDbEntity
  8
Layer_1
 62
7
100
AcDbLine
 10
4.678505
 20
10.289843
 30
0.0
 11
4.665382
 21
10.361263
 31
0.0
  0
LINE
  5
3ec
100
AcDbEntity
  8
Layer_1
 62
7
100
AcDbLine
 10
4.665382
 20
10.361263
 30
0.0
 11
4.678505
 21
10.429278
 31
0.0
  0
LINE
  5
3ed
100
AcDbEntity
  8
Layer_1
 62
7
100
AcDbLine
 10
4.678505
 20
10.429278
 30
0.0
 11
4.717858
 21
10.477863
 31
0.0
  0
LINE
  5
3ee
100
AcDbEntity
  8
Layer_1
 62
7
100
AcDbLine
 10
4.717858
 20
10.477863
 30
0.0
 11
4.783444
 21
10.507013
 31
0.0
  0
LINE
  5
3ef
100
AcDbEntity
  8
Layer_1
 62
7
100
AcDbLine
 10
4.783444
 20
10.507013
 30
0.0
 11
4.875268
 21
10.516722
 31
0.0
  0
LINE
  5
3f0
100
AcDbEntity
  8
Layer_1
 62
7
100
AcDbLine
 10
4.875268
 20
10.516722
 30
0.0
 11
4.941341
 21
10.516722
 31
0.0
  0
LINE
  5
3f1
100
AcDbEntity
  8
Layer_1
 62
7
100
AcDbLine
 10
4.941341
 20
10.516722
 30
0.0
 11
5.007415
 21
10.516722
 31
0.0
  0
LINE
  5
3f2
100
AcDbEntity
  8
Layer_1
 62
7
100
AcDbLine
 10
5.007415
 20
10.516722
 30
0.0
 11
5.073486
 21
10.516722
 31
0.0
  0
LINE
  5
3f3
100
AcDbEntity
  8
Layer_1
 62
7
100
AcDbLine
 10
5.073486
 20
10.516722
 30
0.0
 11
5.139560
 21
10.516722
 31
0.0
  0
LINE
  5
3f4
100
AcDbEntity
  8
Layer_1
 62
7
100
AcDbLine
 10
5.139560
 20
10.516722
 30
0.0
 11
5.139560
 21
11.451464
 31
0.0
  0
LINE
  5
3f5
100
AcDbEntity
  8
Layer_1
 62
7
100
AcDbLine
 10
5.139560
 20
11.451464
 30
0.0
 11
5.139560
 21
12.386210
 31
0.0
  0
LINE
  5
3f6
100
AcDbEntity
  8
Layer_1
 62
7
100
AcDbLine
 10
5.139560
 20
12.386210
 30
0.0
 11
5.139560
 21
13.320952
 31
0.0
  0
LINE
  5
3f7
100
AcDbEntity
  8
Layer_1
 62
7
100
AcDbLine
 10
5.139560
 20
13.320952
 30
0.0
 11
5.139560
 21
14.255698
 31
0.0
  0
LINE
  5
3f8
100
AcDbEntity
  8
Layer_1
 62
7
100
AcDbLine
 10
5.139560
 20
14.255698
 30
0.0
 11
5.090978
 21
14.255698
 31
0.0
  0
LINE
  5
3f9
100
AcDbEntity
  8
Layer_1
 62
7
100
AcDbLine
 10
5.090978
 20
14.255698
 30
0.0
 11
5.042394
 21
14.255698
 31
0.0
  0
LINE
  5
3fa
100
AcDbEntity
  8
Layer_1
 62
7
100
AcDbLine
 10
5.042394
 20
14.255698
 30
0.0
 11
4.993812
 21
14.255698
 31
0.0
  0
LINE
  5
3fb
100
AcDbEntity
  8
Layer_1
 62
7
100
AcDbLine
 10
4.993812
 20
14.255698
 30
0.0
 11
4.945228
 21
14.255698
 31
0.0
  0
LINE
  5
3fc
100
AcDbEntity
  8
Layer_1
 62
7
100
AcDbLine
 10
4.945228
 20
14.255698
 30
0.0
 11
4.853404
 21
14.265886
 31
0.0
  0
LINE
  5
3fd
100
AcDbEntity
  8
Layer_1
 62
7
100
AcDbLine
 10
4.853404
 20
14.265886
 30
0.0
 11
4.787818
 21
14.296493
 31
0.0
  0
LINE
  5
3fe
100
AcDbEntity
  8
Layer_1
 62
7
100
AcDbLine
 10
4.787818
 20
14.296493
 30
0.0
 11
4.748465
 21
14.347505
 31
0.0
  0
LINE
  5
3ff
100
AcDbEntity
  8
Layer_1
 62
7
100
AcDbLine
 10
4.748465
 20
14.347505
 30
0.0
 11
4.735342
 21
14.418927
 31
0.0
  0
LINE
  5
400
100
AcDbEntity
  8
Layer_1
 62
7
100
AcDbLine
 10
4.735342
 20
14.418927
 30
0.0
 11
4.748465
 21
14.486939
 31
0.0
  0
LINE
  5
401
100
AcDbEntity
  8
Layer_1
 62
7
100
AcDbLine
 10
4.748465
 20
14.486939
 30
0.0
 11
4.787818
 21
14.535521
 31
0.0
  0
LINE
  5
402
100
AcDbEntity
  8
Layer_1
 62
7
100
AcDbLine
 10
4.787818
 20
14.535521
 30
0.0
 11
4.853404
 21
14.564672
 31
0.0
  0
LINE
  5
403
100
AcDbEntity
  8
Layer_1
 62
7
100
AcDbLine
 10
4.853404
 20
14.564672
 30
0.0
 11
4.945228
 21
14.574380
 31
0.0
  0
LINE
  5
404
100
AcDbEntity
  8
Layer_1
 62
7
100
AcDbLine
 10
4.945228
 20
14.574380
 30
0.0
 11
5.137618
 21
14.574380
 31
0.0
  0
LINE
  5
405
100
AcDbEntity
  8
Layer_1
 62
7
100
AcDbLine
 10
5.137618
 20
14.574380
 30
0.0
 11
5.330009
 21
14.574380
 31
0.0
  0
LINE
  5
406
100
AcDbEntity
  8
Layer_1
 62
7
100
AcDbLine
 10
5.330009
 20
14.574380
 30
0.0
 11
5.522397
 21
14.574380
 31
0.0
  0
LINE
  5
407
100
AcDbEntity
  8
Layer_1
 62
7
100
AcDbLine
 10
5.522397
 20
14.574380
 30
0.0
 11
5.714788
 21
14.574380
 31
0.0
  0
LINE
  5
408
100
AcDbEntity
  8
Layer_1
 62
7
100
AcDbLine
 10
5.714788
 20
14.574380
 30
0.0
 11
6.019893
 21
13.898100
 31
0.0
  0
LINE
  5
409
100
AcDbEntity
  8
Layer_1
 62
7
100
AcDbLine
 10
6.019893
 20
13.898100
 30
0.0
 11
6.324995
 21
13.221819
 31
0.0
  0
LINE
  5
40a
100
AcDbEntity
  8
Layer_1
 62
7
100
AcDbLine
 10
6.324995
 20
13.221819
 30
0.0
 11
6.630100
 21
12.545541
 31
0.0
  0
LINE
  5
40b
100
AcDbEntity
  8
Layer_1
 62
7
100
AcDbLine
 10
6.630100
 20
12.545541
 30
0.0
 11
6.935202
 21
11.869261
 31
0.0
  0
LINE
  5
40c
100
AcDbEntity
  8
Layer_1
 62
7
100
AcDbLine
 10
6.935202
 20
11.869261
 30
0.0
 11
7.234476
 21
12.545541
 31
0.0
  0
LINE
  5
40d
100
AcDbEntity
  8
Layer_1
 62
7
100
AcDbLine
 10
7.234476
 20
12.545541
 30
0.0
 11
7.533750
 21
13.221819
 31
0.0
  0
LINE
  5
40e
100
AcDbEntity
  8
Layer_1
 62
7
100
AcDbLine
 10
7.533750
 20
13.221819
 30
0.0
 11
7.833021
 21
13.898100
 31
0.0
  0
LINE
  5
40f
100
AcDbEntity
  8
Layer_1
 62
7
100
AcDbLine
 10
7.833021
 20
13.898100
 30
0.0
 11
8.132295
 21
14.574380
 31
0.0
  0
LINE
  5
410
100
AcDbEntity
  8
Layer_1
 62
7
100
AcDbLine
 10
8.132295
 20
14.574380
 30
0.0
 11
8.326628
 21
14.574380
 31
0.0
  0
LINE
  5
411
100
AcDbEntity
  8
Layer_1
 62
7
100
AcDbLine
 10
8.326628
 20
14.574380
 30
0.0
 11
8.520963
 21
14.574380
 31
0.0
  0
LINE
  5
412
100
AcDbEntity
  8
Layer_1
 62
7
100
AcDbLine
 10
8.520963
 20
14.574380
 30
0.0
 11
8.715296
 21
14.574380
 31
0.0
  0
LINE
  5
413
100
AcDbEntity
  8
Layer_1
 62
7
100
AcDbLine
 10
8.715296
 20
14.574380
 30
0.0
 11
8.909629
 21
14.574380
 31
0.0
  0
LINE
  5
414
100
AcDbEntity
  8
Layer_1
 62
7
100
AcDbLine
 10
8.909629
 20
14.574380
 30
0.0
 11
9.001450
 21
14.564672
 31
0.0
  0
LINE
  5
415
100
AcDbEntity
  8
Layer_1
 62
7
100
AcDbLine
 10
9.001450
 20
14.564672
 30
0.0
 11
9.067038
 21
14.535521
 31
0.0
  0
LINE
  5
416
100
AcDbEntity
  8
Layer_1
 62
7
100
AcDbLine
 10
9.067038
 20
14.535521
 30
0.0
 11
9.106391
 21
14.486939
 31
0.0
  0
LINE
  5
417
100
AcDbEntity
  8
Layer_1
 62
7
100
AcDbLine
 10
9.106391
 20
14.486939
 30
0.0
 11
9.119514
 21
14.418927
 31
0.0
  0
LINE
  5
418
100
AcDbEntity
  8
Layer_1
 62
7
100
AcDbLine
 10
9.119514
 20
14.418927
 30
0.0
 11
9.106391
 21
14.347505
 31
0.0
  0
LINE
  5
419
100
AcDbEntity
  8
Layer_1
 62
7
100
AcDbLine
 10
9.106391
 20
14.347505
 30
0.0
 11
9.067038
 21
14.296493
 31
0.0
  0
LINE
  5
41a
100
AcDbEntity
  8
Layer_1
 62
7
100
AcDbLine
 10
9.067038
 20
14.296493
 30
0.0
 11
9.001450
 21
14.265886
 31
0.0
  0
LINE
  5
41b
100
AcDbEntity
  8
Layer_1
 62
7
100
AcDbLine
 10
9.001450
 20
14.265886
 30
0.0
 11
8.909629
 21
14.255698
 31
0.0
  0
LINE
  5
41c
100
AcDbEntity
  8
Layer_1
 62
7
100
AcDbLine
 10
8.909629
 20
14.255698
 30
0.0
 11
8.861047
 21
14.255698
 31
0.0
  0
LINE
  5
41d
100
AcDbEntity
  8
Layer_1
 62
7
100
AcDbLine
 10
8.861047
 20
14.255698
 30
0.0
 11
8.812462
 21
14.255698
 31
0.0
  0
LINE
  5
41e
100
AcDbEntity
  8
Layer_1
 62
7
100
AcDbLine
 10
8.812462
 20
14.255698
 30
0.0
 11
8.763881
 21
14.255698
 31
0.0
  0
LINE
  5
41f
100
AcDbEntity
  8
Layer_1
 62
7
100
AcDbLine
 10
8.763881
 20
14.255698
 30
0.0
 11
8.715296
 21
14.255698
 31
0.0
  0
LINE
  5
420
100
AcDbEntity
  8
Layer_1
 62
7
100
AcDbLine
 10
8.715296
 20
14.255698
 30
0.0
 11
8.715296
 21
13.320952
 31
0.0
  0
LINE
  5
421
100
AcDbEntity
  8
Layer_1
 62
7
100
AcDbLine
 10
8.715296
 20
13.320952
 30
0.0
 11
8.715296
 21
12.386210
 31
0.0
  0
LINE
  5
422
100
AcDbEntity
  8
Layer_1
 62
7
100
AcDbLine
 10
8.715296
 20
12.386210
 30
0.0
 11
8.715296
 21
11.451464
 31
0.0
  0
LINE
  5
423
100
AcDbEntity
  8
Layer_1
 62
7
100
AcDbLine
 10
8.715296
 20
11.451464
 30
0.0
 11
8.715296
 21
10.516722
 31
0.0
  0
LINE
  5
424
100
AcDbEntity
  8
Layer_1
 62
7
100
AcDbLine
 10
8.715296
 20
10.516722
 30
0.0
 11
8.781370
 21
10.516722
 31
0.0
  0
LINE
  5
425
100
AcDbEntity
  8
Layer_1
 62
7
100
AcDbLine
 10
8.781370
 20
10.516722
 30
0.0
 11
8.847444
 21
10.516722
 31
0.0
  0
LINE
  5
426
100
AcDbEntity
  8
Layer_1
 62
7
100
AcDbLine
 10
8.847444
 20
10.516722
 30
0.0
 11
8.913515
 21
10.516722
 31
0.0
  0
LINE
  5
427
100
AcDbEntity
  8
Layer_1
 62
7
100
AcDbLine
 10
8.913515
 20
10.516722
 30
0.0
 11
8.979589
 21
10.516722
 31
0.0
  0
LINE
  5
428
100
AcDbEntity
  8
Layer_1
 62
7
100
AcDbLine
 10
8.979589
 20
10.516722
 30
0.0
 11
9.071410
 21
10.507013
 31
0.0
  0
LINE
  5
429
100
AcDbEntity
  8
Layer_1
 62
7
100
AcDbLine
 10
9.071410
 20
10.507013
 30
0.0
 11
9.136998
 21
10.477863
 31
0.0
  0
LINE
  5
42a
100
AcDbEntity
  8
Layer_1
 62
7
100
AcDbLine
 10
9.136998
 20
10.477863
 30
0.0
 11
9.176351
 21
10.429278
 31
0.0
  0
LINE
  5
42b
100
AcDbEntity
  8
Layer_1
 62
7
100
AcDbLine
 10
9.176351
 20
10.429278
 30
0.0
 11
9.189474
 21
10.361263
 31
0.0
  0
LINE
  5
42c
100
AcDbEntity
  8
Layer_1
 62
7
100
AcDbLine
 10
9.189474
 20
10.361263
 30
0.0
 11
9.176351
 21
10.289843
 31
0.0
  0
LINE
  5
42d
100
AcDbEntity
  8
Layer_1
 62
7
100
AcDbLine
 10
9.176351
 20
10.289843
 30
0.0
 11
9.136998
 21
10.238832
 31
0.0
  0
LINE
  5
42e
100
AcDbEntity
  8
Layer_1
 62
7
100
AcDbLine
 10
9.136998
 20
10.238832
 30
0.0
 11
9.071410
 21
10.208225
 31
0.0
  0
LINE
  5
42f
100
AcDbEntity
  8
Layer_1
 62
7
100
AcDbLine
 10
9.071410
 20
10.208225
 30
0.0
 11
8.979589
 21
10.198036
 31
0.0
  0
LINE
  5
430
100
AcDbEntity
  8
Layer_1
 62
7
100
AcDbLine
 10
8.979589
 20
10.198036
 30
0.0
 11
8.690031
 21
10.198036
 31
0.0
  0
LINE
  5
431
100
AcDbEntity
  8
Layer_1
 62
7
100
AcDbLine
 10
8.690031
 20
10.198036
 30
0.0
 11
8.400477
 21
10.198036
 31
0.0
  0
LINE
  5
432
100
AcDbEntity
  8
Layer_1
 62
7
100
AcDbLine
 10
8.400477
 20
10.198036
 30
0.0
 11
8.110920
 21
10.198036
 31
0.0
  0
LINE
  5
433
100
AcDbEntity
  8
Layer_1
 62
7
100
AcDbLine
 10
8.110920
 20
10.198036
 30
0.0
 11
7.821363
 21
10.198036
 31
0.0
  0
LINE
  5
434
100
AcDbEntity
  8
Layer_1
 62
7
100
AcDbLine
 10
7.821363
 20
10.198036
 30
0.0
 11
7.729539
 21
10.208225
 31
0.0
  0
LINE
  5
435
100
AcDbEntity
  8
Layer_1
 62
7
100
AcDbLine
 10
7.729539
 20
10.208225
 30
0.0
 11
7.663950
 21
10.238832
 31
0.0
  0
LINE
  5
436
100
AcDbEntity
  8
Layer_1
 62
7
100
AcDbLine
 10
7.663950
 20
10.238832
 30
0.0
 11
7.624597
 21
10.289843
 31
0.0
  0
LINE
  5
437
100
AcDbEntity
  8
Layer_1
 62
7
100
AcDbLine
 10
7.624597
 20
10.289843
 30
0.0
 11
7.611474
 21
10.361263
 31
0.0
  0
LINE
  5
438
100
AcDbEntity
  8
Layer_1
 62
7
100
AcDbLine
 10
7.611474
 20
10.361263
 30
0.0
 11
7.624597
 21
10.429278
 31
0.0
  0
LINE
  5
439
100
AcDbEntity
  8
Layer_1
 62
7
100
AcDbLine
 10
7.624597
 20
10.429278
 30
0.0
 11
7.663950
 21
10.477863
 31
0.0
  0
LINE
  5
43a
100
AcDbEntity
  8
Layer_1
 62
7
100
AcDbLine
 10
7.663950
 20
10.477863
 30
0.0
 11
7.729539
 21
10.507013
 31
0.0
  0
LINE
  5
43b
100
AcDbEntity
  8
Layer_1
 62
7
100
AcDbLine
 10
7.729539
 20
10.507013
 30
0.0
 11
7.821363
 21
10.516722
 31
0.0
  0
LINE
  5
43c
100
AcDbEntity
  8
Layer_1
 62
7
100
AcDbLine
 10
7.821363
 20
10.516722
 30
0.0
 11
7.965169
 21
10.516722
 31
0.0
  0
LINE
  5
43d
100
AcDbEntity
  8
Layer_1
 62
7
100
AcDbLine
 10
7.965169
 20
10.516722
 30
0.0
 11
8.108975
 21
10.516722
 31
0.0
  0
LINE
  5
43e
100
AcDbEntity
  8
Layer_1
 62
7
100
AcDbLine
 10
8.108975
 20
10.516722
 30
0.0
 11
8.252782
 21
10.516722
 31
0.0
  0
LINE
  5
43f
100
AcDbEntity
  8
Layer_1
 62
7
100
AcDbLine
 10
8.252782
 20
10.516722
 30
0.0
 11
8.396588
 21
10.516722
 31
0.0
  0
LINE
  5
440
100
AcDbEntity
  8
Layer_1
 62
7
100
AcDbLine
 10
8.396588
 20
10.516722
 30
0.0
 11
8.396588
 21
11.451464
 31
0.0
  0
LINE
  5
441
100
AcDbEntity
  8
Layer_1
 62
7
100
AcDbLine
 10
8.396588
 20
11.451464
 30
0.0
 11
8.396588
 21
12.386210
 31
0.0
  0
LINE
  5
442
100
AcDbEntity
  8
Layer_1
 62
7
100
AcDbLine
 10
8.396588
 20
12.386210
 30
0.0
 11
8.396588
 21
13.320952
 31
0.0
  0
LINE
  5
443
100
AcDbEntity
  8
Layer_1
 62
7
100
AcDbLine
 10
8.396588
 20
13.320952
 30
0.0
 11
8.396588
 21
14.255698
 31
0.0
  0
LINE
  5
444
100
AcDbEntity
  8
Layer_1
 62
7
100
AcDbLine
 10
8.396588
 20
14.255698
 30
0.0
 11
8.381038
 21
14.255698
 31
0.0
  0
LINE
  5
445
100
AcDbEntity
  8
Layer_1
 62
7
100
AcDbLine
 10
8.381038
 20
14.255698
 30
0.0
 11
8.365487
 21
14.255698
 31
0.0
  0
LINE
  5
446
100
AcDbEntity
  8
Layer_1
 62
7
100
AcDbLine
 10
8.365487
 20
14.255698
 30
0.0
 11
8.349937
 21
14.255698
 31
0.0
  0
LINE
  5
447
100
AcDbEntity
  8
Layer_1
 62
7
100
AcDbLine
 10
8.349937
 20
14.255698
 30
0.0
 11
8.334386
 21
14.255698
 31
0.0
  0
LINE
  5
448
100
AcDbEntity
  8
Layer_1
 62
7
100
AcDbLine
 10
8.334386
 20
14.255698
 30
0.0
 11
8.029284
 21
13.569700
 31
0.0
  0
LINE
  5
449
100
AcDbEntity
  8
Layer_1
 62
7
100
AcDbLine
 10
8.029284
 20
13.569700
 30
0.0
 11
7.724180
 21
12.883703
 31
0.0
  0
LINE
  5
44a
100
AcDbEntity
  8
Layer_1
 62
7
100
AcDbLine
 10
7.724180
 20
12.883703
 30
0.0
 11
7.419078
 21
12.197705
 31
0.0
  0
LINE
  5
44b
100
AcDbEntity
  8
Layer_1
 62
7
100
AcDbLine
 10
7.419078
 20
12.197705
 30
0.0
 11
7.113973
 21
11.511708
 31
0.0
  0
LINE
  5
44c
100
AcDbEntity
  8
Layer_1
 62
7
100
AcDbLine
 10
2.453005
 20
11.511708
 30
0.0
 11
2.363611
 21
11.511708
 31
0.0
  0
LINE
  5
44d
100
AcDbEntity
  8
Layer_1
 62
7
100
AcDbLine
 10
2.363611
 20
11.511708
 30
0.0
 11
2.274220
 21
11.511708
 31
0.0
  0
LINE
  5
44e
100
AcDbEntity
  8
Layer_1
 62
7
100
AcDbLine
 10
2.274220
 20
11.511708
 30
0.0
 11
2.184826
 21
11.511708
 31
0.0
  0
LINE
  5
44f
100
AcDbEntity
  8
Layer_1
 62
7
100
AcDbLine
 10
2.184826
 20
11.511708
 30
0.0
 11
2.095432
 21
11.511708
 31
0.0
  0
LINE
  5
450
100
AcDbEntity
  8
Layer_1
 62
7
100
AcDbLine
 10
2.095432
 20
11.511708
 30
0.0
 11
1.786441
 21
12.197705
 31
0.0
  0
LINE
  5
451
100
AcDbEntity
  8
Layer_1
 62
7
100
AcDbLine
 10
1.786441
 20
12.197705
 30
0.0
 11
1.477453
 21
12.883703
 31
0.0
  0
LINE
  5
452
100
AcDbEntity
  8
Layer_1
 62
7
100
AcDbLine
 10
1.477453
 20
12.883703
 30
0.0
 11
1.168462
 21
13.569700
 31
0.0
  0
LINE
  5
453
100
AcDbEntity
  8
Layer_1
 62
7
100
AcDbLine
 10
1.168462
 20
13.569700
 30
0.0
 11
0.859471
 21
14.255698
 31
0.0
  0
LINE
  5
454
100
AcDbEntity
  8
Layer_1
 62
7
100
AcDbLine
 10
0.859471
 20
14.255698
 30
0.0
 11
0.843921
 21
14.255698
 31
0.0
  0
LINE
  5
455
100
AcDbEntity
  8
Layer_1
 62
7
100
AcDbLine
 10
0.843921
 20
14.255698
 30
0.0
 11
0.828370
 21
14.255698
 31
0.0
  0
LINE
  5
456
100
AcDbEntity
  8
Layer_1
 62
7
100
AcDbLine
 10
0.828370
 20
14.255698
 30
0.0
 11
0.812820
 21
14.255698
 31
0.0
  0
LINE
  5
457
100
AcDbEntity
  8
Layer_1
 62
7
100
AcDbLine
 10
0.812820
 20
14.255698
 30
0.0
 11
0.797269
 21
14.255698
 31
0.0
  0
LINE
  5
458
100
AcDbEntity
  8
Layer_1
 62
7
100
AcDbLine
 10
0.797269
 20
14.255698
 30
0.0
 11
0.797269
 21
13.320952
 31
0.0
  0
LINE
  5
459
100
AcDbEntity
  8
Layer_1
 62
7
100
AcDbLine
 10
0.797269
 20
13.320952
 30
0.0
 11
0.797269
 21
12.386210
 31
0.0
  0
LINE
  5
45a
100
AcDbEntity
  8
Layer_1
 62
7
100
AcDbLine
 10
0.797269
 20
12.386210
 30
0.0
 11
0.797269
 21
11.451464
 31
0.0
  0
LINE
  5
45b
100
AcDbEntity
  8
Layer_1
 62
7
100
AcDbLine
 10
0.797269
 20
11.451464
 30
0.0
 11
0.797269
 21
10.516722
 31
0.0
  0
LINE
  5
45c
100
AcDbEntity
  8
Layer_1
 62
7
100
AcDbLine
 10
0.797269
 20
10.516722
 30
0.0
 11
0.941076
 21
10.516722
 31
0.0
  0
LINE
  5
45d
100
AcDbEntity
  8
Layer_1
 62
7
100
AcDbLine
 10
0.941076
 20
10.516722
 30
0.0
 11
1.084885
 21
10.516722
 31
0.0
  0
LINE
  5
45e
100
AcDbEntity
  8
Layer_1
 62
7
100
AcDbLine
 10
1.084885
 20
10.516722
 30
0.0
 11
1.228691
 21
10.516722
 31
0.0
  0
LINE
  5
45f
100
AcDbEntity
  8
Layer_1
 62
7
100
AcDbLine
 10
1.228691
 20
10.516722
 30
0.0
 11
1.372497
 21
10.516722
 31
0.0
  0
LINE
  5
460
100
AcDbEntity
  8
Layer_1
 62
7
100
AcDbLine
 10
1.372497
 20
10.516722
 30
0.0
 11
1.467719
 21
10.507013
 31
0.0
  0
LINE
  5
461
100
AcDbEntity
  8
Layer_1
 62
7
100
AcDbLine
 10
1.467719
 20
10.507013
 30
0.0
 11
1.535735
 21
10.477863
 31
0.0
  0
LINE
  5
462
100
AcDbEntity
  8
Layer_1
 62
7
100
AcDbLine
 10
1.535735
 20
10.477863
 30
0.0
 11
1.576544
 21
10.429278
 31
0.0
  0
LINE
  5
463
100
AcDbEntity
  8
Layer_1
 62
7
100
AcDbLine
 10
1.576544
 20
10.429278
 30
0.0
 11
1.590147
 21
10.361263
 31
0.0
  0
LINE
  5
464
100
AcDbEntity
  8
Layer_1
 62
7
100
AcDbLine
 10
1.590147
 20
10.361263
 30
0.0
 11
1.576544
 21
10.289843
 31
0.0
  0
LINE
  5
465
100
AcDbEntity
  8
Layer_1
 62
7
100
AcDbLine
 10
1.576544
 20
10.289843
 30
0.0
 11
1.535735
 21
10.238832
 31
0.0
  0
LINE
  5
466
100
AcDbEntity
  8
Layer_1
 62
7
100
AcDbLine
 10
1.535735
 20
10.238832
 30
0.0
 11
1.467719
 21
10.208225
 31
0.0
  0
LINE
  5
467
100
AcDbEntity
  8
Layer_1
 62
7
100
AcDbLine
 10
1.467719
 20
10.208225
 30
0.0
 11
1.372497
 21
10.198036
 31
0.0
  0
LINE
  5
468
100
AcDbEntity
  8
Layer_1
 62
7
100
AcDbLine
 10
1.372497
 20
10.198036
 30
0.0
 11
1.082940
 21
10.198036
 31
0.0
  0
LINE
  5
469
100
AcDbEntity
  8
Layer_1
 62
7
100
AcDbLine
 10
1.082940
 20
10.198036
 30
0.0
 11
0.793383
 21
10.198036
 31
0.0
  0
LINE
  5
46a
100
AcDbEntity
  8
Layer_1
 62
7
100
AcDbLine
 10
0.793383
 20
10.198036
 30
0.0
 11
0.503826
 21
10.198036
 31
0.0
  0
LINE
  5
46b
100
AcDbEntity
  8
Layer_1
 62
7
100
AcDbLine
 10
0.503826
 20
10.198036
 30
0.0
 11
0.214269
 21
10.198036
 31
0.0
  0
LINE
  5
46c
100
AcDbEntity
  8
Layer_1
 62
7
100
AcDbLine
 10
0.214269
 20
10.198036
 30
0.0
 11
0.122445
 21
10.208225
 31
0.0
  0
LINE
  5
46d
100
AcDbEntity
  8
Layer_1
 62
7
100
AcDbLine
 10
0.122445
 20
10.208225
 30
0.0
 11
0.056859
 21
10.238832
 31
0.0
  0
LINE
  5
46e
100
AcDbEntity
  8
Layer_1
 62
7
100
AcDbLine
 10
0.056859
 20
10.238832
 30
0.0
 11
0.017506
 21
10.289843
 31
0.0
  0
LINE
  5
46f
100
AcDbEntity
  8
Layer_1
 62
7
100
AcDbLine
 10
0.017506
 20
10.289843
 30
0.0
 11
0.004383
 21
10.361263
 31
0.0
  0
LINE
  5
470
100
AcDbEntity
  8
Layer_1
 62
7
100
AcDbLine
 10
0.004383
 20
10.361263
 30
0.0
 11
0.017506
 21
10.429278
 31
0.0
  0
LINE
  5
471
100
AcDbEntity
  8
Layer_1
 62
7
100
AcDbLine
 10
0.017506
 20
10.429278
 30
0.0
 11
0.056859
 21
10.477863
 31
0.0
  0
LINE
  5
472
100
AcDbEntity
  8
Layer_1
 62
7
100
AcDbLine
 10
0.056859
 20
10.477863
 30
0.0
 11
0.122445
 21
10.507013
 31
0.0
  0
LINE
  5
473
100
AcDbEntity
  8
Layer_1
 62
7
100
AcDbLine
 10
0.122445
 20
10.507013
 30
0.0
 11
0.214269
 21
10.516722
 31
0.0
  0
LINE
  5
474
100
AcDbEntity
  8
Layer_1
 62
7
100
AcDbLine
 10
0.214269
 20
10.516722
 30
0.0
 11
0.280343
 21
10.516722
 31
0.0
  0
LINE
  5
475
100
AcDbEntity
  8
Layer_1
 62
7
100
AcDbLine
 10
0.280343
 20
10.516722
 30
0.0
 11
0.346416
 21
10.516722
 31
0.0
  0
LINE
  5
476
100
AcDbEntity
  8
Layer_1
 62
7
100
AcDbLine
 10
0.346416
 20
10.516722
 30
0.0
 11
0.412490
 21
10.516722
 31
0.0
  0
LINE
  5
477
100
AcDbEntity
  8
Layer_1
 62
7
100
AcDbLine
 10
0.412490
 20
10.516722
 30
0.0
 11
0.478564
 21
10.516722
 31
0.0
  0
LINE
  5
478
100
AcDbEntity
  8
Layer_1
 62
7
100
AcDbLine
 10
0.478564
 20
10.516722
 30
0.0
 11
0.478564
 21
11.451464
 31
0.0
  0
LINE
  5
479
100
AcDbEntity
  8
Layer_1
 62
7
100
AcDbLine
 10
0.478564
 20
11.451464
 30
0.0
 11
0.478564
 21
12.386210
 31
0.0
  0
LINE
  5
47a
100
AcDbEntity
  8
Layer_1
 62
7
100
AcDbLine
 10
0.478564
 20
12.386210
 30
0.0
 11
0.478564
 21
13.320952
 31
0.0
  0
LINE
  5
47b
100
AcDbEntity
  8
Layer_1
 62
7
100
AcDbLine
 10
0.478564
 20
13.320952
 30
0.0
 11
0.478564
 21
14.255698
 31
0.0
  0
LINE
  5
47c
100
AcDbEntity
  8
Layer_1
 62
7
100
AcDbLine
 10
0.478564
 20
14.255698
 30
0.0
 11
0.429980
 21
14.255698
 31
0.0
  0
LINE
  5
47d
100
AcDbEntity
  8
Layer_1
 62
7
100
AcDbLine
 10
0.429980
 20
14.255698
 30
0.0
 11
0.381398
 21
14.255698
 31
0.0
  0
LINE
  5
47e
100
AcDbEntity
  8
Layer_1
 62
7
100
AcDbLine
 10
0.381398
 20
14.255698
 30
0.0
 11
0.332813
 21
14.255698
 31
0.0
  0
LINE
  5
47f
100
AcDbEntity
  8
Layer_1
 62
7
100
AcDbLine
 10
0.332813
 20
14.255698
 30
0.0
 11
0.284229
 21
14.255698
 31
0.0
  0
LINE
  5
480
100
AcDbEntity
  8
Layer_1
 62
7
100
AcDbLine
 10
0.284229
 20
14.255698
 30
0.0
 11
0.192405
 21
14.265886
 31
0.0
  0
LINE
  5
481
100
AcDbEntity
  8
Layer_1
 62
7
100
AcDbLine
 10
0.192405
 20
14.265886
 30
0.0
 11
0.126819
 21
14.296493
 31
0.0
  0
LINE
  5
482
100
AcDbEntity
  8
Layer_1
 62
7
100
AcDbLine
 10
0.126819
 20
14.296493
 30
0.0
 11
0.087466
 21
14.347505
 31
0.0
  0
LINE
  5
483
100
AcDbEntity
  8
Layer_1
 62
7
100
AcDbLine
 10
0.087466
 20
14.347505
 30
0.0
 11
0.074343
 21
14.418927
 31
0.0
  0
LINE
  5
484
100
AcDbEntity
  8
Layer_1
 62
7
100
AcDbLine
 10
0.074343
 20
14.418927
 30
0.0
 11
0.087466
 21
14.486939
 31
0.0
  0
LINE
  5
485
100
AcDbEntity
  8
Layer_1
 62
7
100
AcDbLine
 10
0.087466
 20
14.486939
 30
0.0
 11
0.126819
 21
14.535521
 31
0.0
  0
LINE
  5
486
100
AcDbEntity
  8
Layer_1
 62
7
100
AcDbLine
 10
0.126819
 20
14.535521
 30
0.0
 11
0.192405
 21
14.564672
 31
0.0
  0
LINE
  5
487
100
AcDbEntity
  8
Layer_1
 62
7
100
AcDbLine
 10
0.192405
 20
14.564672
 30
0.0
 11
0.284229
 21
14.574380
 31
0.0
  0
LINE
  5
488
100
AcDbEntity
  8
Layer_1
 62
7
100
AcDbLine
 10
0.284229
 20
14.574380
 30
0.0
 11
0.476620
 21
14.574380
 31
0.0
  0
LINE
  5
489
100
AcDbEntity
  8
Layer_1
 62
7
100
AcDbLine
 10
0.476620
 20
14.574380
 30
0.0
 11
0.669011
 21
14.574380
 31
0.0
  0
LINE
  5
48a
100
AcDbEntity
  8
Layer_1
 62
7
100
AcDbLine
 10
0.669011
 20
14.574380
 30
0.0
 11
0.861399
 21
14.574380
 31
0.0
  0
LINE
  5
48b
100
AcDbEntity
  8
Layer_1
 62
7
100
AcDbLine
 10
0.861399
 20
14.574380
 30
0.0
 11
1.053790
 21
14.574380
 31
0.0
  0
LINE
  5
48c
100
AcDbEntity
  8
Layer_1
 62
7
100
AcDbLine
 10
1.053790
 20
14.574380
 30
0.0
 11
1.358894
 21
13.898100
 31
0.0
  0
LINE
  5
48d
100
AcDbEntity
  8
Layer_1
 62
7
100
AcDbLine
 10
1.358894
 20
13.898100
 30
0.0
 11
1.663996
 21
13.221819
 31
0.0
  0
LINE
  5
48e
100
AcDbEntity
  8
Layer_1
 62
7
100
AcDbLine
 10
1.663996
 20
13.221819
 30
0.0
 11
1.969101
 21
12.545541
 31
0.0
  0
LINE
  5
48f
100
AcDbEntity
  8
Layer_1
 62
7
100
AcDbLine
 10
1.969101
 20
12.545541
 30
0.0
 11
2.274203
 21
11.869261
 31
0.0
  0
LINE
  5
490
100
AcDbEntity
  8
Layer_1
 62
7
100
AcDbLine
 10
2.274203
 20
11.869261
 30
0.0
 11
2.573477
 21
12.545541
 31
0.0
  0
LINE
  5
491
100
AcDbEntity
  8
Layer_1
 62
7
100
AcDbLine
 10
2.573477
 20
12.545541
 30
0.0
 11
2.872751
 21
13.221819
 31
0.0
  0
LINE
  5
492
100
AcDbEntity
  8
Layer_1
 62
7
100
AcDbLine
 10
2.872751
 20
13.221819
 30
0.0
 11
3.172023
 21
13.898100
 31
0.0
  0
LINE
  5
493
100
AcDbEntity
  8
Layer_1
 62
7
100
AcDbLine
 10
3.172023
 20
13.898100
 30
0.0
 11
3.471297
 21
14.574380
 31
0.0
  0
LINE
  5
494
100
AcDbEntity
  8
Layer_1
 62
7
100
AcDbLine
 10
3.471297
 20
14.574380
 30
0.0
 11
3.665632
 21
14.574380
 31
0.0
  0
LINE
  5
495
100
AcDbEntity
  8
Layer_1
 62
7
100
AcDbLine
 10
3.665632
 20
14.574380
 30
0.0
 11
3.859965
 21
14.574380
 31
0.0
  0
LINE
  5
496
100
AcDbEntity
  8
Layer_1
 62
7
100
AcDbLine
 10
3.859965
 20
14.574380
 30
0.0
 11
4.054300
 21
14.574380
 31
0.0
  0
LINE
  5
497
100
AcDbEntity
  8
Layer_1
 62
7
100
AcDbLine
 10
4.054300
 20
14.574380
 30
0.0
 11
4.248633
 21
14.574380
 31
0.0
  0
LINE
  5
498
100
AcDbEntity
  8
Layer_1
 62
7
100
AcDbLine
 10
4.248633
 20
14.574380
 30
0.0
 11
4.340451
 21
14.564672
 31
0.0
  0
LINE
  5
499
100
AcDbEntity
  8
Layer_1
 62
7
100
AcDbLine
 10
4.340451
 20
14.564672
 30
0.0
 11
4.406039
 21
14.535521
 31
0.0
  0
LINE
  5
49a
100
AcDbEntity
  8
Layer_1
 62
7
100
AcDbLine
 10
4.406039
 20
14.535521
 30
0.0
 11
4.445392
 21
14.486939
 31
0.0
  0
LINE
  5
49b
100
AcDbEntity
  8
Layer_1
 62
7
100
AcDbLine
 10
4.445392
 20
14.486939
 30
0.0
 11
4.458516
 21
14.418927
 31
0.0
  0
LINE
  5
49c
100
AcDbEntity
  8
Layer_1
 62
7
100
AcDbLine
 10
4.458516
 20
14.418927
 30
0.0
 11
4.445392
 21
14.347505
 31
0.0
  0
LINE
  5
49d
100
AcDbEntity
  8
Layer_1
 62
7
100
AcDbLine
 10
4.445392
 20
14.347505
 30
0.0
 11
4.406039
 21
14.296493
 31
0.0
  0
LINE
  5
49e
100
AcDbEntity
  8
Layer_1
 62
7
100
AcDbLine
 10
4.406039
 20
14.296493
 30
0.0
 11
4.340451
 21
14.265886
 31
0.0
  0
LINE
  5
49f
100
AcDbEntity
  8
Layer_1
 62
7
100
AcDbLine
 10
4.340451
 20
14.265886
 30
0.0
 11
4.248633
 21
14.255698
 31
0.0
  0
LINE
  5
4a0
100
AcDbEntity
  8
Layer_1
 62
7
100
AcDbLine
 10
4.248633
 20
14.255698
 30
0.0
 11
4.200048
 21
14.255698
 31
0.0
  0
LINE
  5
4a1
100
AcDbEntity
  8
Layer_1
 62
7
100
AcDbLine
 10
4.200048
 20
14.255698
 30
0.0
 11
4.151466
 21
14.255698
 31
0.0
  0
LINE
  5
4a2
100
AcDbEntity
  8
Layer_1
 62
7
100
AcDbLine
 10
4.151466
 20
14.255698
 30
0.0
 11
4.102882
 21
14.255698
 31
0.0
  0
LINE
  5
4a3
100
AcDbEntity
  8
Layer_1
 62
7
100
AcDbLine
 10
4.102882
 20
14.255698
 30
0.0
 11
4.054297
 21
14.255698
 31
0.0
  0
LINE
  5
4a4
100
AcDbEntity
  8
Layer_1
 62
7
100
AcDbLine
 10
4.054297
 20
14.255698
 30
0.0
 11
4.054297
 21
13.320952
 31
0.0
  0
LINE
  5
4a5
100
AcDbEntity
  8
Layer_1
 62
7
100
AcDbLine
 10
4.054297
 20
13.320952
 30
0.0
 11
4.054297
 21
12.386210
 31
0.0
  0
LINE
  5
4a6
100
AcDbEntity
  8
Layer_1
 62
7
100
AcDbLine
 10
4.054297
 20
12.386210
 30
0.0
 11
4.054297
 21
11.451464
 31
0.0
  0
LINE
  5
4a7
100
AcDbEntity
  8
Layer_1
 62
7
100
AcDbLine
 10
4.054297
 20
11.451464
 30
0.0
 11
4.054297
 21
10.516722
 31
0.0
  0
LINE
  5
4a8
100
AcDbEntity
  8
Layer_1
 62
7
100
AcDbLine
 10
4.054297
 20
10.516722
 30
0.0
 11
4.120371
 21
10.516722
 31
0.0
  0
LINE
  5
4a9
100
AcDbEntity
  8
Layer_1
 62
7
100
AcDbLine
 10
4.120371
 20
10.516722
 30
0.0
 11
4.186445
 21
10.516722
 31
0.0
  0
LINE
  5
4aa
100
AcDbEntity
  8
Layer_1
 62
7
100
AcDbLine
 10
4.186445
 20
10.516722
 30
0.0
 11
4.252519
 21
10.516722
 31
0.0
  0
LINE
  5
4ab
100
AcDbEntity
  8
Layer_1
 62
7
100
AcDbLine
 10
4.252519
 20
10.516722
 30
0.0
 11
4.318593
 21
10.516722
 31
0.0
  0
LINE
  5
4ac
100
AcDbEntity
  8
Layer_1
 62
7
100
AcDbLine
 10
4.318593
 20
10.516722
 30
0.0
 11
4.410411
 21
10.507013
 31
0.0
  0
LINE
  5
4ad
100
AcDbEntity
  8
Layer_1
 62
7
100
AcDbLine
 10
4.410411
 20
10.507013
 30
0.0
 11
4.475999
 21
10.477863
 31
0.0
  0
LINE
  5
4ae
100
AcDbEntity
  8
Layer_1
 62
7
100
AcDbLine
 10
4.475999
 20
10.477863
 30
0.0
 11
4.515352
 21
10.429278
 31
0.0
  0
LINE
  5
4af
100
AcDbEntity
  8
Layer_1
 62
7
100
AcDbLine
 10
4.515352
 20
10.429278
 30
0.0
 11
4.528476
 21
10.361263
 31
0.0
  0
LINE
  5
4b0
100
AcDbEntity
  8
Layer_1
 62
7
100
AcDbLine
 10
4.528476
 20
10.361263
 30
0.0
 11
4.515352
 21
10.289843
 31
0.0
  0
LINE
  5
4b1
100
AcDbEntity
  8
Layer_1
 62
7
100
AcDbLine
 10
4.515352
 20
10.289843
 30
0.0
 11
4.475999
 21
10.238832
 31
0.0
  0
LINE
  5
4b2
100
AcDbEntity
  8
Layer_1
 62
7
100
AcDbLine
 10
4.475999
 20
10.238832
 30
0.0
 11
4.410411
 21
10.208225
 31
0.0
  0
LINE
  5
4b3
100
AcDbEntity
  8
Layer_1
 62
7
100
AcDbLine
 10
4.410411
 20
10.208225
 30
0.0
 11
4.318593
 21
10.198036
 31
0.0
  0
LINE
  5
4b4
100
AcDbEntity
  8
Layer_1
 62
7
100
AcDbLine
 10
4.318593
 20
10.198036
 30
0.0
 11
4.029035
 21
10.198036
 31
0.0
  0
LINE
  5
4b5
100
AcDbEntity
  8
Layer_1
 62
7
100
AcDbLine
 10
4.029035
 20
10.198036
 30
0.0
 11
3.739478
 21
10.198036
 31
0.0
  0
LINE
  5
4b6
100
AcDbEntity
  8
Layer_1
 62
7
100
AcDbLine
 10
3.739478
 20
10.198036
 30
0.0
 11
3.449921
 21
10.198036
 31
0.0
  0
LINE
  5
4b7
100
AcDbEntity
  8
Layer_1
 62
7
100
AcDbLine
 10
3.449921
 20
10.198036
 30
0.0
 11
3.160364
 21
10.198036
 31
0.0
  0
LINE
  5
4b8
100
AcDbEntity
  8
Layer_1
 62
7
100
AcDbLine
 10
3.160364
 20
10.198036
 30
0.0
 11
3.068540
 21
10.208225
 31
0.0
  0
LINE
  5
4b9
100
AcDbEntity
  8
Layer_1
 62
7
100
AcDbLine
 10
3.068540
 20
10.208225
 30
0.0
 11
3.002952
 21
10.238832
 31
0.0
  0
LINE
  5
4ba
100
AcDbEntity
  8
Layer_1
 62
7
100
AcDbLine
 10
3.002952
 20
10.238832
 30
0.0
 11
2.963599
 21
10.289843
 31
0.0
  0
LINE
  5
4bb
100
AcDbEntity
  8
Layer_1
 62
7
100
AcDbLine
 10
2.963599
 20
10.289843
 30
0.0
 11
2.950475
 21
10.361263
 31
0.0
  0
LINE
  5
4bc
100
AcDbEntity
  8
Layer_1
 62
7
100
AcDbLine
 10
2.950475
 20
10.361263
 30
0.0
 11
2.963599
 21
10.429278
 31
0.0
  0
LINE
  5
4bd
100
AcDbEntity
  8
Layer_1
 62
7
100
AcDbLine
 10
2.963599
 20
10.429278
 30
0.0
 11
3.002952
 21
10.477863
 31
0.0
  0
LINE
  5
4be
100
AcDbEntity
  8
Layer_1
 62
7
100
AcDbLine
 10
3.002952
 20
10.477863
 30
0.0
 11
3.068540
 21
10.507013
 31
0.0
  0
LINE
  5
4bf
100
AcDbEntity
  8
Layer_1
 62
7
100
AcDbLine
 10
3.068540
 20
10.507013
 30
0.0
 11
3.160364
 21
10.516722
 31
0.0
  0
LINE
  5
4c0
100
AcDbEntity
  8
Layer_1
 62
7
100
AcDbLine
 10
3.160364
 20
10.516722
 30
0.0
 11
3.304170
 21
10.516722
 31
0.0
  0
LINE
  5
4c1
100
AcDbEntity
  8
Layer_1
 62
7
100
AcDbLine
 10
3.304170
 20
10.516722
 30
0.0
 11
3.447979
 21
10.516722
 31
0.0
  0
LINE
  5
4c2
100
AcDbEntity
  8
Layer_1
 62
7
100
AcDbLine
 10
3.447979
 20
10.516722
 30
0.0
 11
3.591786
 21
10.516722
 31
0.0
  0
LINE
  5
4c3
100
AcDbEntity
  8
Layer_1
 62
7
100
AcDbLine
 10
3.591786
 20
10.516722
 30
0.0
 11
3.735592
 21
10.516722
 31
0.0
  0
LINE
  5
4c4
100
AcDbEntity
  8
Layer_1
 62
7
100
AcDbLine
 10
3.735592
 20
10.516722
 30
0.0
 11
3.735592
 21
11.451464
 31
0.0
  0
LINE
  5
4c5
100
AcDbEntity
  8
Layer_1
 62
7
100
AcDbLine
 10
3.735592
 20
11.451464
 30
0.0
 11
3.735592
 21
12.386210
 31
0.0
  0
LINE
  5
4c6
100
AcDbEntity
  8
Layer_1
 62
7
100
AcDbLine
 10
3.735592
 20
12.386210
 30
0.0
 11
3.735592
 21
13.320952
 31
0.0
  0
LINE
  5
4c7
100
AcDbEntity
  8
Layer_1
 62
7
100
AcDbLine
 10
3.735592
 20
13.320952
 30
0.0
 11
3.735592
 21
14.255698
 31
0.0
  0
LINE
  5
4c8
100
AcDbEntity
  8
Layer_1
 62
7
100
AcDbLine
 10
3.735592
 20
14.255698
 30
0.0
 11
3.720042
 21
14.255698
 31
0.0
  0
LINE
  5
4c9
100
AcDbEntity
  8
Layer_1
 62
7
100
AcDbLine
 10
3.720042
 20
14.255698
 30
0.0
 11
3.704491
 21
14.255698
 31
0.0
  0
LINE
  5
4ca
100
AcDbEntity
  8
Layer_1
 62
7
100
AcDbLine
 10
3.704491
 20
14.255698
 30
0.0
 11
3.688941
 21
14.255698
 31
0.0
  0
LINE
  5
4cb
100
AcDbEntity
  8
Layer_1
 62
7
100
AcDbLine
 10
3.688941
 20
14.255698
 30
0.0
 11
3.673390
 21
14.255698
 31
0.0
  0
LINE
  5
4cc
100
AcDbEntity
  8
Layer_1
 62
7
100
AcDbLine
 10
3.673390
 20
14.255698
 30
0.0
 11
3.368288
 21
13.569700
 31
0.0
  0
LINE
  5
4cd
100
AcDbEntity
  8
Layer_1
 62
7
100
AcDbLine
 10
3.368288
 20
13.569700
 30
0.0
 11
3.063184
 21
12.883703
 31
0.0
  0
LINE
  5
4ce
100
AcDbEntity
  8
Layer_1
 62
7
100
AcDbLine
 10
3.063184
 20
12.883703
 30
0.0
 11
2.758082
 21
12.197705
 31
0.0
  0
LINE
  5
4cf
100
AcDbEntity
  8
Layer_1
 62
7
100
AcDbLine
 10
2.758082
 20
12.197705
 30
0.0
 11
2.452977
 21
11.511708
 31
0.0
  0
ENDSEC
  0
SECTION
  2
OBJECTS
  0
DICTIONARY
  5
C
330
0
100
AcDbDictionary
  3
ACAD_GROUP
350
D
  3
ACAD_MLINESTYLE
350
17
  0
DICTIONARY
  5
D
330
C
100
AcDbDictionary
  0
DICTIONARY
  5
1A
330
C
100
AcDbDictionary
  0
DICTIONARY
  5
17
330
C
100
AcDbDictionary
  3
STANDARD
350
18
  0
DICTIONARY
  5
19
330
C
100
AcDbDictionary
  0
ENDSEC
  0
EOF
