<?xml version="1.0" encoding="UTF-8" standalone="no"?>
<svg
   xmlns:dc="http://purl.org/dc/elements/1.1/"
   xmlns:cc="http://creativecommons.org/ns#"
   xmlns:rdf="http://www.w3.org/1999/02/22-rdf-syntax-ns#"
   xmlns:svg="http://www.w3.org/2000/svg"
   xmlns="http://www.w3.org/2000/svg"
   xmlns:sodipodi="http://sodipodi.sourceforge.net/DTD/sodipodi-0.dtd"
   xmlns:inkscape="http://www.inkscape.org/namespaces/inkscape"
   width="744.094488189"
   height="1052.36220472"
   id="svg2"
   version="1.1"
   inkscape:version="0.48.2 r9819"
   sodipodi:docname="serial_number_template.dxf">
  <metadata
     id="metadata48">
    <rdf:RDF>
      <cc:Work
         rdf:about="">
        <dc:format>image/svg+xml</dc:format>
        <dc:type
           rdf:resource="http://purl.org/dc/dcmitype/StillImage" />
        <dc:title></dc:title>
      </cc:Work>
    </rdf:RDF>
  </metadata>
  <sodipodi:namedview
     pagecolor="#ffffff"
     bordercolor="#666666"
     borderopacity="1"
     objecttolerance="10"
     gridtolerance="10"
     guidetolerance="10"
     inkscape:pageopacity="0"
     inkscape:pageshadow="2"
     inkscape:window-width="1280"
     inkscape:window-height="750"
     id="namedview46"
     showgrid="false"
     inkscape:zoom="2.3287635"
     inkscape:cx="172.57063"
     inkscape:cy="110.13146"
     inkscape:window-x="0"
     inkscape:window-y="25"
     inkscape:window-maximized="1"
     inkscape:current-layer="g22" />
  <desc
     id="desc4">/disk/rodrigo/devel/mm/Metamaquina2/serial_number_template.dxf - scale = 1.000000</desc>
  <defs
     id="defs6">
    <marker
       refY="0.0"
       refX="0.0"
       style="overflow:visible"
       id="DistanceX"
       orient="auto">
      <path
         style="stroke:#000000; stroke-width:0.5"
         d="M 3,-3 L -3,3 M 0,-5 L  0,5"
         id="path9" />
    </marker>
    <pattern
       height="8"
       width="8"
       patternUnits="userSpaceOnUse"
       y="0"
       x="0"
       id="Hatch">
      <path
         linecap="square"
         stroke="#000000"
         stroke-width="0.25"
         d="M8 4 l-4,4"
         id="path12" />
      <path
         linecap="square"
         stroke="#000000"
         stroke-width="0.25"
         d="M6 2 l-4,4"
         id="path14" />
      <path
         linecap="square"
         stroke="#000000"
         stroke-width="0.25"
         d="M4 0 l-4,4"
         id="path16" />
    </pattern>
    <symbol
       id="*MODEL_SPACE" />
    <symbol
       id="*PAPER_SPACE" />
  </defs>
  <g
     inkscape:label="0"
     inkscape:groupmode="layer"
     id="g20" />
  <g
     inkscape:label="Layer_1"
     inkscape:groupmode="layer"
     id="g22">
    <path
       style="stroke:#000000;fill:none"
       d="M 58.099752,1051.648228 L 58.209920,1050.098921 L 58.320099,1048.549610 L 58.430271,1047.000299 L 58.540440,1045.450991 L 57.913831,1045.450991 L 57.287222,1045.450991 L 56.660609,1045.450991 L 56.034000,1045.450991 L 55.930709,1047.000299 L 55.827429,1048.549610 L 55.724141,1050.098921 L 55.620850,1051.648228 L 55.553751,1051.961538 L 55.434969,1052.185330 L 55.264550,1052.319600 L 55.042480,1052.364398 L 54.935748,1052.354101 L 54.835848,1052.323101 L 54.742950,1052.271500 L 54.656851,1052.199198 L 54.584550,1052.111399 L 54.532949,1052.013299 L 54.501948,1051.904849 L 54.491652,1051.786070 L 54.491641,1051.720671 L 54.491641,1051.662171 L 54.491641,1051.610471 L 54.491652,1051.565669 L 54.601820,1050.037019 L 54.711999,1048.508369 L 54.822171,1046.979709 L 54.932340,1045.451059 L 54.333269,1045.451059 L 53.734209,1045.451059 L 53.135139,1045.451059 L 52.536069,1045.451059 L 52.210711,1045.414860 L 51.978320,1045.306410 L 51.838880,1045.125659 L 51.792381,1044.872600 L 51.838880,1044.631598 L 51.978320,1044.459450 L 52.210711,1044.356159 L 52.536069,1044.321761 L 53.148908,1044.321761 L 53.761752,1044.321761 L 54.374591,1044.321761 L 54.987431,1044.321761 L 55.049428,1043.454139 L 55.111429,1042.586529 L 55.173430,1041.718911 L 55.235431,1040.851300 L 54.698340,1040.851300 L 54.161249,1040.851300 L 53.624151,1040.851300 L 53.087060,1040.851300 L 52.761699,1040.815201 L 52.529301,1040.706751 L 52.389861,1040.525989 L 52.343359,1040.272930 L 52.389861,1040.031928 L 52.529301,1039.859791 L 52.761699,1039.756500 L 53.087060,1039.722098 L 53.644808,1039.722098 L 54.202560,1039.722098 L 54.760309,1039.722098 L 55.318061,1039.722098 L 55.428240,1038.172791 L 55.538408,1036.623480 L 55.648591,1035.074169 L 55.758759,1033.524861 L 55.815559,1033.223609 L 55.930890,1033.008431 L 56.104770,1032.879320 L 56.337169,1032.836319 L 56.566120,1032.879320 L 56.729650,1033.008431 L 56.827750,1033.223609 L 56.860452,1033.524861 L 56.860441,1033.540359 L 56.860441,1033.559259 L 56.860441,1033.581660 L 56.860452,1033.607459 L 56.757161,1035.136109 L 56.653880,1036.664770 L 56.550589,1038.193420 L 56.447298,1039.722070 L 57.073911,1039.722070 L 57.700520,1039.722070 L 58.327129,1039.722070 L 58.953742,1039.722070 L 59.063921,1038.172759 L 59.174089,1036.623451 L 59.284269,1035.074140 L 59.394441,1033.524829 L 59.439139,1033.223581 L 59.545871,1033.008399 L 59.714578,1032.879288 L 59.945269,1032.836290 L 60.186270,1032.879288 L 60.358419,1033.008399 L 60.461709,1033.223581 L 60.496111,1033.524829 L 60.496101,1033.550631 L 60.496101,1033.573029 L 60.496101,1033.591929 L 60.496111,1033.607431 L 60.385939,1035.136081 L 60.275771,1036.664731 L 60.165592,1038.193391 L 60.055420,1039.722041 L 60.668259,1039.722041 L 61.281099,1039.722041 L 61.893928,1039.722041 L 62.506772,1039.722041 L 62.832122,1039.756440 L 63.064520,1039.859731 L 63.203960,1040.031868 L 63.250459,1040.272870 L 63.203960,1040.525929 L 63.064520,1040.706691 L 62.832122,1040.815141 L 62.506772,1040.851240 L 61.880159,1040.851240 L 61.253550,1040.851240 L 60.626941,1040.851240 L 60.000328,1040.851240 L 59.938331,1041.718851 L 59.876330,1042.586469 L 59.814330,1043.454079 L 59.752329,1044.321700 L 60.303200,1044.321700 L 60.854070,1044.321700 L 61.404931,1044.321700 L 61.955802,1044.321700 L 62.281141,1044.356099 L 62.513539,1044.459390 L 62.652979,1044.631541 L 62.699481,1044.872539 L 62.652979,1045.125599 L 62.513539,1045.306350 L 62.281141,1045.414800 L 61.955802,1045.450998 L 61.384280,1045.450998 L 60.812748,1045.450998 L 60.241231,1045.450998 L 59.669699,1045.450998 L 59.559530,1047.000309 L 59.449358,1048.549620 L 59.339179,1050.098928 L 59.229011,1051.648239 L 59.182508,1051.961549 L 59.070621,1052.185341 L 58.893311,1052.319611 L 58.650601,1052.364409 L 58.554198,1052.354108 L 58.457799,1052.323111 L 58.361400,1052.271510 L 58.265001,1052.199209 L 58.192700,1052.116611 L 58.141098,1052.034009 L 58.110102,1051.951411 L 58.099801,1051.868810 L 58.099791,1051.813711 L 58.099791,1051.758609 L 58.099791,1051.703511 L 58.099801,1051.648409"
       id="path24" />
    <path
       style="stroke:#000000;fill:none"
       d="M 58.871009,1040.851428 L 58.244400,1040.851428 L 57.617791,1040.851428 L 56.991178,1040.851428 L 56.364569,1040.851428 L 56.302569,1041.719039 L 56.240571,1042.586660 L 56.178570,1043.454270 L 56.116570,1044.321888 L 56.743179,1044.321888 L 57.369791,1044.321888 L 57.996400,1044.321888 L 58.623009,1044.321888 L 58.685010,1043.454270 L 58.747011,1042.586660 L 58.809008,1041.719039 L 58.871009,1040.851428"
       id="path26" />
    <path
       style="stroke:#000000;fill:none"
       d="M 5.965019,1036.279300 L 5.965019,1039.591378 L 5.965019,1042.903470 L 5.965019,1046.215548 L 5.965019,1049.527641 L 7.844850,1049.527641 L 9.724691,1049.527641 L 11.604519,1049.527641 L 13.484349,1049.527641 L 13.484349,1048.425909 L 13.484349,1047.324171 L 13.484349,1046.222440 L 13.484349,1045.120709 L 13.520448,1044.795348 L 13.628898,1044.562961 L 13.809660,1044.423521 L 14.062720,1044.377019 L 14.303721,1044.423521 L 14.475859,1044.562961 L 14.579150,1044.795348 L 14.613552,1045.120709 L 14.613552,1046.504760 L 14.613552,1047.888811 L 14.613552,1049.272859 L 14.613552,1050.656910 L 11.508041,1050.656910 L 8.402542,1050.656910 L 5.297031,1050.656910 L 2.191521,1050.656910 L 1.866161,1050.620708 L 1.633759,1050.512258 L 1.494319,1050.331511 L 1.447820,1050.078451 L 1.494319,1049.837450 L 1.633759,1049.665298 L 1.866161,1049.562021 L 2.191521,1049.527619 L 2.852561,1049.527619 L 3.513600,1049.527619 L 4.174629,1049.527619 L 4.835672,1049.527619 L 4.835672,1046.215531 L 4.835672,1042.903449 L 4.835672,1039.591371 L 4.835672,1036.279279 L 4.174629,1036.279279 L 3.513600,1036.279279 L 2.852561,1036.279279 L 2.191521,1036.279279 L 1.866161,1036.243180 L 1.633759,1036.134730 L 1.494319,1035.953968 L 1.447820,1035.700909 L 1.494319,1035.459911 L 1.633759,1035.287770 L 1.866161,1035.184479 L 2.191521,1035.150080 L 3.795920,1035.150080 L 5.400319,1035.150080 L 7.004711,1035.150080 L 8.609109,1035.150080 L 8.934459,1035.184479 L 9.166861,1035.287770 L 9.306301,1035.459911 L 9.352800,1035.700909 L 9.306301,1035.953968 L 9.166861,1036.134730 L 8.934459,1036.243180 L 8.609109,1036.279279 L 7.948070,1036.279279 L 7.287031,1036.279279 L 6.625991,1036.279279 L 5.964948,1036.279279"
       id="path28" />
    <g
       style="font-size:72px;font-style:normal;font-variant:normal;font-weight:normal;font-stretch:normal;line-height:125%;letter-spacing:0px;word-spacing:0px;fill:none;stroke:#000000;stroke-width:2.342309;stroke-miterlimit:4;stroke-dasharray:none;font-family:FreeMono;-inkscape-font-specification:FreeMono"
       id="text3025"
       transform="matrix(0.42692915,0,0,0.42692915,2.459496,606.24985)">
      <path
         d="m 232.14663,959.54672 0,-8.658 0,-8.658 0,-8.658 0,-8.658 -0.612,0 -0.612,0 -0.612,0 -0.612,0 -0.8505,-0.0945 -0.6075,-0.28349 -0.3645,-0.47251 -0.1215,-0.66152 0.1215,-0.62998 0.3645,-0.44999 0.6075,-0.27001 0.8505,-0.09 3.96,0 3.96,0 3.96,0 3.96,0 3.35248,0.33302 3.0735,0.99901 2.7945,1.66499 2.51552,2.33098 2.11048,2.77652 1.50749,3.0735 0.90452,3.3705 0.30151,3.66748 0,1.008 0,1.008 0,1.008 0,1.008 -0.30151,3.70351 -0.90452,3.4065 -1.50749,3.1095 -2.11048,2.81249 -2.51552,2.2995 -2.7945,1.6425 -3.0735,0.9855 -3.35248,0.3285 -3.96,0 -3.96,0 -3.96,0 -3.96,0 -0.8505,-0.0945 -0.6075,-0.2835 -0.3645,-0.4725 -0.1215,-0.6615 0.1215,-0.63 0.3645,-0.45 0.6075,-0.27 0.8505,-0.09 0.612,0 0.612,0 0.612,0 0.612,0 m 27,-19.944 -0.0405,-0.76499 -0.1215,-0.85499 -0.2025,-0.94501 -0.28348,-1.03501 -0.37352,-1.10698 -0.4725,-1.161 -0.5715,-1.215 -0.67048,-1.26902 -0.78302,-1.27798 -0.981,-1.17 -1.179,-1.062 -1.37698,-0.95402 -1.49852,-0.81898 -1.6155,-0.58499 -1.73249,-0.35101 -1.84949,-0.11702 -2.574,0 -2.574,0 -2.574,0 -2.574,0 0,8.658 0,8.658 0,8.658 0,8.658 2.7,0 2.7,0 2.7,0 2.7,0 2.51999,-0.279 2.37599,-0.837 2.232,-1.395 2.08802,-1.953 1.76399,-2.31298 1.26,-2.475 0.756,-2.63701 0.25201,-2.79901 0,-1.314 0,-1.314 0,-1.314 0,-1.314"
         id="path3030"
         inkscape:connector-curvature="0"
         sodipodi:nodetypes="cccccccccccccccccccccccccccccccccccccccccccccccccccccccccccccccccccccccccccccccccccccccccccccccccc"
         style="fill:none;stroke:#000000;stroke-width:2.342309;stroke-miterlimit:4;stroke-dasharray:none" />
    </g>
    <path
       style="stroke:#000000;fill:none"
       d="M 91.543539,1016.227779 L 91.061529,1016.227779 L 90.579529,1016.227779 L 90.097519,1016.227779 L 89.615509,1016.227779 L 88.458690,1013.638709 L 87.301871,1011.049639 L 86.145048,1008.460559 L 84.988230,1005.871489 L 84.705909,1005.871489 L 84.423589,1005.871489 L 84.141269,1005.871489 L 83.858949,1005.871489 L 83.533589,1005.835390 L 83.301201,1005.726940 L 83.161761,1005.546178 L 83.115259,1005.293119 L 83.161761,1005.052121 L 83.301201,1004.879980 L 83.533589,1004.776689 L 83.858949,1004.742291 L 84.898711,1004.742291 L 85.938481,1004.742291 L 86.978239,1004.742291 L 88.018002,1004.742291 L 88.355399,1004.776689 L 88.596400,1004.879980 L 88.740999,1005.052121 L 88.789199,1005.293119 L 88.740999,1005.546178 L 88.596400,1005.726940 L 88.355399,1005.835390 L 88.018002,1005.871489 L 87.570422,1005.871489 L 87.122842,1005.871489 L 86.675258,1005.871489 L 86.227678,1005.871489 L 87.260559,1008.178239 L 88.293430,1010.484999 L 89.326311,1012.791749 L 90.359181,1015.098498 L 90.490011,1015.098498 L 90.620841,1015.098498 L 90.751670,1015.098498 L 90.882500,1015.098498 L 91.894720,1012.791749 L 92.906940,1010.484999 L 93.919149,1008.178239 L 94.931369,1005.871489 L 94.463139,1005.871489 L 93.994902,1005.871489 L 93.526671,1005.871489 L 93.058430,1005.871489 L 92.733059,1005.835390 L 92.500671,1005.726940 L 92.361231,1005.546178 L 92.314729,1005.293119 L 92.361231,1005.052121 L 92.500671,1004.879980 L 92.733059,1004.776689 L 93.058430,1004.742291 L 94.105081,1004.742291 L 95.151720,1004.742291 L 96.198371,1004.742291 L 97.245011,1004.742291 L 97.570350,1004.776689 L 97.802748,1004.879980 L 97.942192,1005.052121 L 97.988691,1005.293119 L 97.942192,1005.546178 L 97.802748,1005.726940 L 97.570350,1005.835390 L 97.245011,1005.871489 L 96.962691,1005.871489 L 96.680370,1005.871489 L 96.398050,1005.871489 L 96.115730,1005.871489 L 94.972681,1008.460559 L 93.829642,1011.049639 L 92.686589,1013.638709 L 91.543539,1016.227779"
       id="path32" />
    <path
       style="stroke:#000000;fill:none"
       d="M 80.096280,1010.746658 L 77.231781,1010.746658 L 74.367269,1010.746658 L 71.502771,1010.746658 L 68.638259,1010.746658 L 68.865491,1011.781261 L 69.244211,1012.709119 L 69.774410,1013.530259 L 70.456110,1014.244661 L 71.258311,1014.811019 L 72.150020,1015.215559 L 73.131261,1015.458289 L 74.202009,1015.539190 L 74.852709,1015.513391 L 75.510308,1015.435889 L 76.174792,1015.306781 L 76.846170,1015.126030 L 77.488260,1014.903960 L 78.064951,1014.650901 L 78.576219,1014.366859 L 79.022091,1014.051841 L 79.152909,1013.967439 L 79.269970,1013.907239 L 79.373261,1013.871040 L 79.462761,1013.859039 L 79.567760,1013.869339 L 79.662458,1013.900340 L 79.746761,1013.951941 L 79.820759,1014.024239 L 79.893060,1014.110341 L 79.944661,1014.203339 L 79.975658,1014.303139 L 79.985959,1014.409871 L 79.862010,1014.771380 L 79.490169,1015.139771 L 78.870451,1015.515050 L 78.002851,1015.897209 L 77.030220,1016.234610 L 76.067919,1016.475619 L 75.115949,1016.620221 L 74.174319,1016.668421 L 72.835019,1016.551361 L 71.599022,1016.200191 L 70.466301,1015.614889 L 69.436871,1014.795478 L 68.593351,1013.809089 L 67.990851,1012.722849 L 67.629341,1011.536759 L 67.508841,1010.250829 L 67.622460,1009.049251 L 67.963302,1007.950971 L 68.531379,1006.955961 L 69.326699,1006.064238 L 70.287272,1005.317139 L 71.351128,1004.783489 L 72.518280,1004.463301 L 73.788722,1004.356559 L 75.115959,1004.466738 L 76.315808,1004.797261 L 77.388279,1005.348118 L 78.333371,1006.119330 L 79.104572,1007.059248 L 79.655428,1008.143770 L 79.985959,1009.372890 L 80.096141,1010.746609"
       id="path34" />
    <path
       style="stroke:#000000;fill:none"
       d="M 68.638121,1009.617328 L 71.213421,1009.617328 L 73.788722,1009.617328 L 76.364019,1009.617328 L 78.939319,1009.617328 L 78.706920,1008.727338 L 78.340241,1007.930310 L 77.839299,1007.226230 L 77.204091,1006.615109 L 76.463858,1006.121059 L 75.647891,1005.768159 L 74.756169,1005.556419 L 73.788722,1005.485818 L 72.822979,1005.556419 L 71.936419,1005.768159 L 71.129059,1006.121059 L 70.400891,1006.615109 L 69.774272,1007.215909 L 69.271611,1007.916541 L 68.892892,1008.717020 L 68.638121,1009.617328"
       id="path36" />
    <path
       style="stroke:#000000;fill:none"
       d="M 63.580900,1006.752830 L 63.475891,1006.716628 L 63.298580,1006.608178 L 63.048969,1006.427431 L 62.727059,1006.174371 L 62.370709,1005.921319 L 62.017809,1005.740571 L 61.668351,1005.632121 L 61.322350,1005.595919 L 60.848940,1005.637220 L 60.365211,1005.761169 L 59.871150,1005.967740 L 59.366771,1006.256941 L 58.790080,1006.676979 L 58.051570,1007.276049 L 57.151251,1008.054138 L 56.089120,1009.011270 L 56.089120,1010.533039 L 56.089120,1012.054808 L 56.089120,1013.576570 L 56.089120,1015.098339 L 57.321680,1015.098339 L 58.554252,1015.098339 L 59.786809,1015.098339 L 61.019369,1015.098339 L 61.344719,1015.134541 L 61.577121,1015.242998 L 61.716561,1015.423749 L 61.763060,1015.676798 L 61.716561,1015.917810 L 61.577121,1016.089951 L 61.344719,1016.193239 L 61.019369,1016.227641 L 58.843449,1016.227641 L 56.667529,1016.227641 L 54.491598,1016.227641 L 52.315678,1016.227641 L 51.990321,1016.191541 L 51.757930,1016.083091 L 51.618490,1015.902340 L 51.571991,1015.649281 L 51.618490,1015.408279 L 51.757930,1015.236131 L 51.990321,1015.132840 L 52.315678,1015.098438 L 52.976721,1015.098438 L 53.637761,1015.098438 L 54.298800,1015.098438 L 54.959839,1015.098438 L 54.959839,1012.791689 L 54.959839,1010.484939 L 54.959839,1008.178179 L 54.959839,1005.871429 L 54.443399,1005.871429 L 53.926969,1005.871429 L 53.410528,1005.871429 L 52.894091,1005.871429 L 52.568731,1005.835330 L 52.336339,1005.726880 L 52.196900,1005.546118 L 52.150401,1005.293059 L 52.196900,1005.052061 L 52.336339,1004.879920 L 52.568731,1004.776629 L 52.894091,1004.742230 L 53.692848,1004.742230 L 54.491609,1004.742230 L 55.290359,1004.742230 L 56.089120,1004.742230 L 56.089120,1005.444588 L 56.089120,1006.146939 L 56.089120,1006.849300 L 56.089120,1007.551651 L 56.994601,1006.751179 L 57.810572,1006.084981 L 58.537031,1005.553049 L 59.173969,1005.155380 L 59.757541,1004.854131 L 60.323889,1004.638950 L 60.873041,1004.509839 L 61.404980,1004.466841 L 61.938631,1004.508138 L 62.437851,1004.632090 L 62.902641,1004.838661 L 63.333011,1005.127859 L 63.694509,1005.441169 L 63.952731,1005.720048 L 64.107659,1005.964501 L 64.159260,1006.174509 L 64.148960,1006.293299 L 64.117959,1006.401749 L 64.066358,1006.499849 L 63.994061,1006.587648 L 63.906261,1006.659950 L 63.808161,1006.711551 L 63.699711,1006.742551 L 63.580939,1006.752848"
       id="path38" />
    <path
       style="stroke:#000000;fill:none"
       d="M 35.607681,1003.282391 L 35.700679,1002.652338 L 35.979559,1002.001638 L 36.444348,1001.330259 L 37.095059,1000.638230 L 37.890369,1000.011628 L 38.761430,999.564048 L 39.708230,999.295501 L 40.730779,999.206001 L 41.705121,999.295501 L 42.617491,999.564048 L 43.467892,1000.011628 L 44.256331,1000.638230 L 44.931129,1001.381910 L 45.413139,1002.180671 L 45.702340,1003.034509 L 45.798739,1003.943431 L 45.752241,1004.554548 L 45.612801,1005.148460 L 45.380399,1005.725140 L 45.055049,1006.284611 L 44.585089,1006.900891 L 43.891342,1007.675550 L 42.973799,1008.608581 L 41.832478,1009.699980 L 40.407119,1011.028950 L 38.981750,1012.357910 L 37.556391,1013.686880 L 36.131021,1015.015840 L 36.131021,1015.036540 L 36.131021,1015.057141 L 36.131021,1015.077841 L 36.131021,1015.098541 L 38.293172,1015.098541 L 40.455319,1015.098541 L 42.617470,1015.098541 L 44.779620,1015.098541 L 44.779620,1014.850651 L 44.779620,1014.602761 L 44.779620,1014.354868 L 44.779620,1014.106978 L 44.815720,1013.781628 L 44.924170,1013.549241 L 45.104931,1013.409801 L 45.357991,1013.363298 L 45.598989,1013.409801 L 45.771130,1013.549241 L 45.874421,1013.781628 L 45.908819,1014.106978 L 45.908819,1014.637188 L 45.908819,1015.167398 L 45.908819,1015.697611 L 45.908819,1016.227821 L 43.195801,1016.227821 L 40.482790,1016.227821 L 37.769769,1016.227821 L 35.056750,1016.227821 L 35.056750,1015.814668 L 35.056750,1015.401519 L 35.056750,1014.988369 L 35.056750,1014.575219 L 36.681810,1013.046569 L 38.306859,1011.517909 L 39.931919,1009.989259 L 41.556969,1008.460598 L 42.436630,1007.575781 L 43.147591,1006.821780 L 43.689852,1006.198611 L 44.063408,1005.706269 L 44.328511,1005.274191 L 44.517869,1004.831780 L 44.631489,1004.379031 L 44.669392,1003.915949 L 44.595390,1003.222208 L 44.373320,1002.573230 L 44.003211,1001.968990 L 43.485048,1001.409509 L 42.868772,1000.939560 L 42.204281,1000.603881 L 41.491602,1000.402469 L 40.730719,1000.335370 L 40.043849,1000.386971 L 39.387979,1000.541909 L 38.763089,1000.800120 L 38.169191,1001.161619 L 37.654469,1001.600600 L 37.239601,1002.091220 L 36.924580,1002.633470 L 36.709398,1003.227371 L 36.611298,1003.468380 L 36.482191,1003.640531 L 36.322101,1003.743819 L 36.131021,1003.778220 L 36.036319,1003.769220 L 35.945121,1003.743418 L 35.857322,1003.700420 L 35.772920,1003.640120 L 35.700619,1003.555821 L 35.649021,1003.468018 L 35.618021,1003.376820 L 35.607720,1003.282119"
       id="path40" />
    <path
       style="stroke:#000000;fill:none"
       d="M 25.207111,1011.572688 L 24.890361,1011.572688 L 24.573611,1011.572688 L 24.256860,1011.572688 L 23.940110,1011.572688 L 22.845260,1009.141990 L 21.750420,1006.711289 L 20.655570,1004.280591 L 19.560720,1001.849889 L 19.505619,1001.849889 L 19.450520,1001.849889 L 19.395422,1001.849889 L 19.340320,1001.849889 L 19.340320,1005.161981 L 19.340320,1008.474059 L 19.340320,1011.786151 L 19.340320,1015.098229 L 19.849869,1015.098229 L 20.359421,1015.098229 L 20.868970,1015.098229 L 21.378519,1015.098229 L 21.715919,1015.132631 L 21.956931,1015.235919 L 22.101530,1015.408070 L 22.149730,1015.649068 L 22.101530,1015.902131 L 21.956931,1016.082879 L 21.715919,1016.191329 L 21.378519,1016.227431 L 20.352529,1016.227431 L 19.326550,1016.227431 L 18.300561,1016.227431 L 17.274572,1016.227431 L 16.949211,1016.191329 L 16.716820,1016.082879 L 16.577380,1015.902131 L 16.530881,1015.649068 L 16.577380,1015.408070 L 16.716820,1015.235919 L 16.949211,1015.132631 L 17.274572,1015.098229 L 17.508689,1015.098229 L 17.742809,1015.098229 L 17.976919,1015.098229 L 18.211039,1015.098229 L 18.211039,1011.786151 L 18.211039,1008.474059 L 18.211039,1005.161981 L 18.211039,1001.849889 L 18.038898,1001.849889 L 17.866750,1001.849889 L 17.694609,1001.849889 L 17.522461,1001.849889 L 17.197101,1001.813790 L 16.964709,1001.705340 L 16.825270,1001.524589 L 16.778771,1001.271519 L 16.825270,1001.030531 L 16.964709,1000.858390 L 17.197101,1000.755099 L 17.522461,1000.720701 L 18.204158,1000.720701 L 18.885859,1000.720701 L 19.567548,1000.720701 L 20.249249,1000.720701 L 21.330330,1003.116969 L 22.411400,1005.513240 L 23.492480,1007.909500 L 24.573550,1010.305768 L 25.633970,1007.909500 L 26.694390,1005.513240 L 27.754799,1003.116969 L 28.815219,1000.720701 L 29.503800,1000.720701 L 30.192389,1000.720701 L 30.880970,1000.720701 L 31.569552,1000.720701 L 31.894902,1000.755099 L 32.127300,1000.858390 L 32.266740,1001.030531 L 32.313239,1001.271519 L 32.266740,1001.524589 L 32.127300,1001.705340 L 31.894902,1001.813790 L 31.569552,1001.849889 L 31.397411,1001.849889 L 31.225259,1001.849889 L 31.053122,1001.849889 L 30.880970,1001.849889 L 30.880970,1005.161981 L 30.880970,1008.474059 L 30.880970,1011.786151 L 30.880970,1015.098229 L 31.115091,1015.098229 L 31.349211,1015.098229 L 31.583321,1015.098229 L 31.817441,1015.098229 L 32.142791,1015.132631 L 32.375190,1015.235919 L 32.514630,1015.408070 L 32.561128,1015.649068 L 32.514630,1015.902131 L 32.375190,1016.082879 L 32.142791,1016.191329 L 31.817441,1016.227431 L 30.791448,1016.227431 L 29.765470,1016.227431 L 28.739480,1016.227431 L 27.713491,1016.227431 L 27.388130,1016.191329 L 27.155728,1016.082879 L 27.016289,1015.902131 L 26.969790,1015.649068 L 27.016289,1015.408070 L 27.155728,1015.235919 L 27.388130,1015.132631 L 27.713491,1015.098229 L 28.223040,1015.098229 L 28.732589,1015.098229 L 29.242141,1015.098229 L 29.751690,1015.098229 L 29.751690,1011.786151 L 29.751690,1008.474059 L 29.751690,1005.161981 L 29.751690,1001.849889 L 29.696591,1001.849889 L 29.641489,1001.849889 L 29.586391,1001.849889 L 29.531289,1001.849889 L 28.450219,1004.280591 L 27.369142,1006.711289 L 26.288072,1009.141990 L 25.206991,1011.572688"
       id="path42" />
    <path
       style="stroke:#000000;fill:none"
       d="M 8.691750,1011.572688 L 8.375000,1011.572688 L 8.058260,1011.572688 L 7.741509,1011.572688 L 7.424759,1011.572688 L 6.329909,1009.141990 L 5.235070,1006.711289 L 4.140220,1004.280591 L 3.045370,1001.849889 L 2.990271,1001.849889 L 2.935169,1001.849889 L 2.880071,1001.849889 L 2.824969,1001.849889 L 2.824969,1005.161981 L 2.824969,1008.474059 L 2.824969,1011.786151 L 2.824969,1015.098229 L 3.334521,1015.098229 L 3.844081,1015.098229 L 4.353630,1015.098229 L 4.863178,1015.098229 L 5.200579,1015.132631 L 5.441581,1015.235919 L 5.586180,1015.408070 L 5.634379,1015.649068 L 5.586180,1015.902131 L 5.441581,1016.082879 L 5.200579,1016.191329 L 4.863178,1016.227431 L 3.837189,1016.227431 L 2.811200,1016.227431 L 1.785210,1016.227431 L 0.759221,1016.227431 L 0.433860,1016.191329 L 0.201469,1016.082879 L 0.062029,1015.902131 L 0.015530,1015.649068 L 0.062029,1015.408070 L 0.201469,1015.235919 L 0.433860,1015.132631 L 0.759221,1015.098229 L 0.993341,1015.098229 L 1.227458,1015.098229 L 1.461579,1015.098229 L 1.695699,1015.098229 L 1.695699,1011.786151 L 1.695699,1008.474059 L 1.695699,1005.161981 L 1.695699,1001.849889 L 1.523551,1001.849889 L 1.351410,1001.849889 L 1.179259,1001.849889 L 1.007111,1001.849889 L 0.681750,1001.813790 L 0.449359,1001.705340 L 0.309919,1001.524589 L 0.263420,1001.271519 L 0.309919,1001.030531 L 0.449359,1000.858390 L 0.681750,1000.755099 L 1.007111,1000.720701 L 1.688811,1000.720701 L 2.370511,1000.720701 L 3.052201,1000.720701 L 3.733902,1000.720701 L 4.814979,1003.116969 L 5.896049,1005.513240 L 6.977130,1007.909500 L 8.058200,1010.305768 L 9.118619,1007.909500 L 10.179039,1005.513240 L 11.239452,1003.116969 L 12.299871,1000.720701 L 12.988460,1000.720701 L 13.677041,1000.720701 L 14.365630,1000.720701 L 15.054211,1000.720701 L 15.379551,1000.755099 L 15.611949,1000.858390 L 15.751389,1001.030531 L 15.797891,1001.271519 L 15.751389,1001.524589 L 15.611949,1001.705340 L 15.379551,1001.813790 L 15.054211,1001.849889 L 14.882060,1001.849889 L 14.709919,1001.849889 L 14.537771,1001.849889 L 14.365619,1001.849889 L 14.365619,1005.161981 L 14.365619,1008.474059 L 14.365619,1011.786151 L 14.365619,1015.098229 L 14.599740,1015.098229 L 14.833860,1015.098229 L 15.067981,1015.098229 L 15.302101,1015.098229 L 15.627441,1015.132631 L 15.859839,1015.235919 L 15.999279,1015.408070 L 16.045781,1015.649068 L 15.999279,1015.902131 L 15.859839,1016.082879 L 15.627441,1016.191329 L 15.302101,1016.227431 L 14.276108,1016.227431 L 13.250119,1016.227431 L 12.224130,1016.227431 L 11.198140,1016.227431 L 10.872780,1016.191329 L 10.640381,1016.082879 L 10.500941,1015.902131 L 10.454439,1015.649068 L 10.500941,1015.408070 L 10.640381,1015.235919 L 10.872780,1015.132631 L 11.198140,1015.098229 L 11.707689,1015.098229 L 12.217248,1015.098229 L 12.726801,1015.098229 L 13.236350,1015.098229 L 13.236350,1011.786151 L 13.236350,1008.474059 L 13.236350,1005.161981 L 13.236350,1001.849889 L 13.181251,1001.849889 L 13.126149,1001.849889 L 13.071051,1001.849889 L 13.015949,1001.849889 L 11.934879,1004.280591 L 10.853802,1006.711289 L 9.772731,1009.141990 L 8.691651,1011.572688"
       id="path44" />
  </g>
</svg>
