  0
SECTION
  2
BLOCKS
  0
ENDSEC
  0
SECTION
  2
ENTITIES
  0
LINE
  8
0
 10
10
 11
10
 20
67
 21
73
  0
LINE
  8
0
 10
10
 11
23
 20
73
 21
73
  0
LINE
  8
0
 10
23
 11
23
 20
73
 21
73.088
  0
LINE
  8
0
 10
23
 11
23.482
 20
73.088
 21
73.029
  0
LINE
  8
0
 10
23.482
 11
25.272
 20
73.029
 21
73.708
  0
LINE
  8
0
 10
25.272
 11
26.542
 20
73.708
 21
75.141
  0
LINE
  8
0
 10
26.542
 11
27
 20
75.141
 21
77
  0
LINE
  8
0
 10
27
 11
26.542
 20
77
 21
78.859
  0
LINE
  8
0
 10
26.542
 11
25.272
 20
78.859
 21
80.292
  0
LINE
  8
0
 10
25.272
 11
23.482
 20
80.292
 21
80.971
  0
LINE
  8
0
 10
23.482
 11
23
 20
80.971
 21
80.912
  0
LINE
  8
0
 10
23
 11
23
 20
80.912
 21
81
  0
LINE
  8
0
 10
23
 11
10
 20
81
 21
81
  0
LINE
  8
0
 10
10
 11
10
 20
81
 21
252
  0
LINE
  8
0
 10
10
 11
10.185
 20
252
 21
256.708
  0
LINE
  8
0
 10
10.185
 11
10.739
 20
256.708
 21
261.386
  0
LINE
  8
0
 10
10.739
 11
11.658
 20
261.386
 21
266.007
  0
LINE
  8
0
 10
11.658
 11
12.937
 20
266.007
 21
270.541
  0
LINE
  8
0
 10
12.937
 11
14.567
 20
270.541
 21
274.961
  0
LINE
  8
0
 10
14.567
 11
16.54
 20
274.961
 21
279.239
  0
LINE
  8
0
 10
16.54
 11
18.842
 20
279.239
 21
283.35
  0
LINE
  8
0
 10
18.842
 11
21.459
 20
283.35
 21
287.267
  0
LINE
  8
0
 10
21.459
 11
24.376
 20
287.267
 21
290.967
  0
LINE
  8
0
 10
24.376
 11
92.929
 20
290.967
 21
367.171
  0
LINE
  8
0
 10
92.929
 11
92.941
 20
367.171
 21
367.181
  0
LINE
  8
0
 10
92.941
 11
92.955
 20
367.181
 21
367.189
  0
LINE
  8
0
 10
92.955
 11
92.969
 20
367.189
 21
367.195
  0
LINE
  8
0
 10
92.969
 11
92.984
 20
367.195
 21
367.199
  0
LINE
  8
0
 10
92.984
 11
92.992
 20
367.199
 21
367.2
  0
LINE
  8
0
 10
92.992
 11
102
 20
367.2
 21
367.2
  0
LINE
  8
0
 10
102
 11
102
 20
367.2
 21
373.2
  0
LINE
  8
0
 10
102
 11
107
 20
373.2
 21
373.2
  0
LINE
  8
0
 10
107
 11
107
 20
373.2
 21
367.2
  0
LINE
  8
0
 10
107
 11
115.5
 20
367.2
 21
367.2
  0
LINE
  8
0
 10
115.5
 11
115.5
 20
367.2
 21
361.7
  0
LINE
  8
0
 10
115.5
 11
114
 20
361.7
 21
361.7
  0
LINE
  8
0
 10
114
 11
114
 20
361.7
 21
358.7
  0
LINE
  8
0
 10
114
 11
115.5
 20
358.7
 21
358.7
  0
LINE
  8
0
 10
115.5
 11
115.5
 20
358.7
 21
357.2
  0
LINE
  8
0
 10
115.5
 11
118.5
 20
357.2
 21
357.2
  0
LINE
  8
0
 10
118.5
 11
118.5
 20
357.2
 21
358.7
  0
LINE
  8
0
 10
118.5
 11
120
 20
358.7
 21
358.7
  0
LINE
  8
0
 10
120
 11
120
 20
358.7
 21
361.7
  0
LINE
  8
0
 10
120
 11
118.5
 20
361.7
 21
361.7
  0
LINE
  8
0
 10
118.5
 11
118.5
 20
361.7
 21
367.2
  0
LINE
  8
0
 10
118.5
 11
127
 20
367.2
 21
367.2
  0
LINE
  8
0
 10
127
 11
127
 20
367.2
 21
373.2
  0
LINE
  8
0
 10
127
 11
132
 20
373.2
 21
373.2
  0
LINE
  8
0
 10
132
 11
132
 20
373.2
 21
367.2
  0
LINE
  8
0
 10
132
 11
240
 20
367.2
 21
367.2
  0
LINE
  8
0
 10
240
 11
240
 20
367.2
 21
373.2
  0
LINE
  8
0
 10
240
 11
245
 20
373.2
 21
373.2
  0
LINE
  8
0
 10
245
 11
245
 20
373.2
 21
367.2
  0
LINE
  8
0
 10
245
 11
253.5
 20
367.2
 21
367.2
  0
LINE
  8
0
 10
253.5
 11
253.5
 20
367.2
 21
361.7
  0
LINE
  8
0
 10
253.5
 11
252
 20
361.7
 21
361.7
  0
LINE
  8
0
 10
252
 11
252
 20
361.7
 21
358.7
  0
LINE
  8
0
 10
252
 11
253.5
 20
358.7
 21
358.7
  0
LINE
  8
0
 10
253.5
 11
253.5
 20
358.7
 21
357.2
  0
LINE
  8
0
 10
253.5
 11
256.5
 20
357.2
 21
357.2
  0
LINE
  8
0
 10
256.5
 11
256.5
 20
357.2
 21
358.7
  0
LINE
  8
0
 10
256.5
 11
258
 20
358.7
 21
358.7
  0
LINE
  8
0
 10
258
 11
258
 20
358.7
 21
361.7
  0
LINE
  8
0
 10
258
 11
256.5
 20
361.7
 21
361.7
  0
LINE
  8
0
 10
256.5
 11
256.5
 20
361.7
 21
367.2
  0
LINE
  8
0
 10
256.5
 11
265
 20
367.2
 21
367.2
  0
LINE
  8
0
 10
265
 11
265
 20
367.2
 21
373.2
  0
LINE
  8
0
 10
265
 11
270
 20
373.2
 21
373.2
  0
LINE
  8
0
 10
270
 11
270
 20
373.2
 21
367.2
  0
LINE
  8
0
 10
270
 11
280
 20
367.2
 21
367.2
  0
LINE
  8
0
 10
280
 11
280
 20
367.2
 21
347.2
  0
LINE
  8
0
 10
280
 11
279.672
 20
347.2
 21
344.081
  0
LINE
  8
0
 10
279.672
 11
278.703
 20
344.081
 21
341.099
  0
LINE
  8
0
 10
278.703
 11
277.135
 20
341.099
 21
338.383
  0
LINE
  8
0
 10
277.135
 11
275.037
 20
338.383
 21
336.053
  0
LINE
  8
0
 10
275.037
 11
272.5
 20
336.053
 21
334.21
  0
LINE
  8
0
 10
272.5
 11
269.635
 20
334.21
 21
332.934
  0
LINE
  8
0
 10
269.635
 11
266.568
 20
332.934
 21
332.282
  0
LINE
  8
0
 10
266.568
 11
265
 20
332.282
 21
332.282
  0
LINE
  8
0
 10
265
 11
265
 20
332.282
 21
332.2
  0
LINE
  8
0
 10
265
 11
167
 20
332.2
 21
332.2
  0
LINE
  8
0
 10
167
 11
167
 20
332.2
 21
102
  0
LINE
  8
0
 10
167
 11
435
 20
102
 21
102
  0
LINE
  8
0
 10
435
 11
435
 20
102
 21
101.918
  0
LINE
  8
0
 10
435
 11
436.568
 20
101.918
 21
101.918
  0
LINE
  8
0
 10
436.568
 11
439.635
 20
101.918
 21
101.266
  0
LINE
  8
0
 10
439.635
 11
442.5
 20
101.266
 21
99.99
  0
LINE
  8
0
 10
442.5
 11
445.037
 20
99.99
 21
98.147
  0
LINE
  8
0
 10
445.037
 11
447.135
 20
98.147
 21
95.817
  0
LINE
  8
0
 10
447.135
 11
448.703
 20
95.817
 21
93.101
  0
LINE
  8
0
 10
448.703
 11
449.672
 20
93.101
 21
90.119
  0
LINE
  8
0
 10
449.672
 11
450
 20
90.119
 21
87
  0
LINE
  8
0
 10
450
 11
450
 20
87
 21
81
  0
LINE
  8
0
 10
450
 11
437
 20
81
 21
81
  0
LINE
  8
0
 10
437
 11
437
 20
81
 21
80.912
  0
LINE
  8
0
 10
437
 11
435.582
 20
80.912
 21
80.74
  0
LINE
  8
0
 10
435.582
 11
434.006
 20
80.74
 21
79.652
  0
LINE
  8
0
 10
434.006
 11
433.116
 20
79.652
 21
77.957
  0
LINE
  8
0
 10
433.116
 11
433.116
 20
77.957
 21
76.043
  0
LINE
  8
0
 10
433.116
 11
434.006
 20
76.043
 21
74.348
  0
LINE
  8
0
 10
434.006
 11
435.582
 20
74.348
 21
73.26
  0
LINE
  8
0
 10
435.582
 11
437
 20
73.26
 21
73.088
  0
LINE
  8
0
 10
437
 11
437
 20
73.088
 21
73
  0
LINE
  8
0
 10
437
 11
450
 20
73
 21
73
  0
LINE
  8
0
 10
450
 11
450
 20
73
 21
67
  0
LINE
  8
0
 10
450
 11
426
 20
67
 21
31
  0
LINE
  8
0
 10
426
 11
407
 20
31
 21
31
  0
LINE
  8
0
 10
407
 11
407
 20
31
 21
30.912
  0
LINE
  8
0
 10
407
 11
405.582
 20
30.912
 21
30.74
  0
LINE
  8
0
 10
405.582
 11
404.006
 20
30.74
 21
29.652
  0
LINE
  8
0
 10
404.006
 11
403.116
 20
29.652
 21
27.957
  0
LINE
  8
0
 10
403.116
 11
403.116
 20
27.957
 21
26.043
  0
LINE
  8
0
 10
403.116
 11
404.006
 20
26.043
 21
24.348
  0
LINE
  8
0
 10
404.006
 11
405.582
 20
24.348
 21
23.26
  0
LINE
  8
0
 10
405.582
 11
407
 20
23.26
 21
23.088
  0
LINE
  8
0
 10
407
 11
407
 20
23.088
 21
23
  0
LINE
  8
0
 10
407
 11
420.667
 20
23
 21
23
  0
LINE
  8
0
 10
420.667
 11
420
 20
23
 21
22
  0
LINE
  8
0
 10
420
 11
420
 20
22
 21
15
  0
LINE
  8
0
 10
420
 11
419.619
 20
15
 21
13.087
  0
LINE
  8
0
 10
419.619
 11
418.536
 20
13.087
 21
11.464
  0
LINE
  8
0
 10
418.536
 11
416.913
 20
11.464
 21
10.381
  0
LINE
  8
0
 10
416.913
 11
415
 20
10.381
 21
10
  0
LINE
  8
0
 10
415
 11
375
 20
10
 21
10
  0
LINE
  8
0
 10
375
 11
373.087
 20
10
 21
10.381
  0
LINE
  8
0
 10
373.087
 11
371.464
 20
10.381
 21
11.464
  0
LINE
  8
0
 10
371.464
 11
370.381
 20
11.464
 21
13.087
  0
LINE
  8
0
 10
370.381
 11
370
 20
13.087
 21
15
  0
LINE
  8
0
 10
370
 11
370
 20
15
 21
22
  0
LINE
  8
0
 10
370
 11
262
 20
22
 21
22
  0
LINE
  8
0
 10
262
 11
262
 20
22
 21
41
  0
LINE
  8
0
 10
262
 11
261.619
 20
41
 21
42.913
  0
LINE
  8
0
 10
261.619
 11
260.536
 20
42.913
 21
44.536
  0
LINE
  8
0
 10
260.536
 11
258.913
 20
44.536
 21
45.619
  0
LINE
  8
0
 10
258.913
 11
257
 20
45.619
 21
46
  0
LINE
  8
0
 10
257
 11
243
 20
46
 21
46
  0
LINE
  8
0
 10
243
 11
241.087
 20
46
 21
45.619
  0
LINE
  8
0
 10
241.087
 11
239.464
 20
45.619
 21
44.536
  0
LINE
  8
0
 10
239.464
 11
238.381
 20
44.536
 21
42.913
  0
LINE
  8
0
 10
238.381
 11
238
 20
42.913
 21
41
  0
LINE
  8
0
 10
238
 11
238
 20
41
 21
22
  0
LINE
  8
0
 10
238
 11
90
 20
22
 21
22
  0
LINE
  8
0
 10
90
 11
90
 20
22
 21
15
  0
LINE
  8
0
 10
90
 11
89.619
 20
15
 21
13.087
  0
LINE
  8
0
 10
89.619
 11
88.536
 20
13.087
 21
11.464
  0
LINE
  8
0
 10
88.536
 11
86.913
 20
11.464
 21
10.381
  0
LINE
  8
0
 10
86.913
 11
85
 20
10.381
 21
10
  0
LINE
  8
0
 10
85
 11
45
 20
10
 21
10
  0
LINE
  8
0
 10
45
 11
43.087
 20
10
 21
10.381
  0
LINE
  8
0
 10
43.087
 11
41.464
 20
10.381
 21
11.464
  0
LINE
  8
0
 10
41.464
 11
40.381
 20
11.464
 21
13.087
  0
LINE
  8
0
 10
40.381
 11
40
 20
13.087
 21
15
  0
LINE
  8
0
 10
40
 11
40
 20
15
 21
22
  0
LINE
  8
0
 10
40
 11
39.333
 20
22
 21
23
  0
LINE
  8
0
 10
39.333
 11
53
 20
23
 21
23
  0
LINE
  8
0
 10
53
 11
53
 20
23
 21
23.088
  0
LINE
  8
0
 10
53
 11
53.482
 20
23.088
 21
23.029
  0
LINE
  8
0
 10
53.482
 11
55.272
 20
23.029
 21
23.708
  0
LINE
  8
0
 10
55.272
 11
56.542
 20
23.708
 21
25.141
  0
LINE
  8
0
 10
56.542
 11
57
 20
25.141
 21
27
  0
LINE
  8
0
 10
57
 11
56.542
 20
27
 21
28.859
  0
LINE
  8
0
 10
56.542
 11
55.272
 20
28.859
 21
30.292
  0
LINE
  8
0
 10
55.272
 11
53.482
 20
30.292
 21
30.971
  0
LINE
  8
0
 10
53.482
 11
53
 20
30.971
 21
30.912
  0
LINE
  8
0
 10
53
 11
53
 20
30.912
 21
31
  0
LINE
  8
0
 10
53
 11
34
 20
31
 21
31
  0
LINE
  8
0
 10
34
 11
10
 20
31
 21
67
  0
LINE
  8
0
 10
12.7
 11
12.798
 20
146.7
 21
147.318
  0
LINE
  8
0
 10
12.798
 11
13.082
 20
147.318
 21
147.876
  0
LINE
  8
0
 10
13.082
 11
13.524
 20
147.876
 21
148.318
  0
LINE
  8
0
 10
13.524
 11
14.082
 20
148.318
 21
148.602
  0
LINE
  8
0
 10
14.082
 11
14.7
 20
148.602
 21
148.7
  0
LINE
  8
0
 10
14.7
 11
15.318
 20
148.7
 21
148.602
  0
LINE
  8
0
 10
15.318
 11
15.876
 20
148.602
 21
148.318
  0
LINE
  8
0
 10
15.876
 11
16.318
 20
148.318
 21
147.876
  0
LINE
  8
0
 10
16.318
 11
16.602
 20
147.876
 21
147.318
  0
LINE
  8
0
 10
16.602
 11
16.7
 20
147.318
 21
146.7
  0
LINE
  8
0
 10
16.7
 11
16.602
 20
146.7
 21
146.082
  0
LINE
  8
0
 10
16.602
 11
16.318
 20
146.082
 21
145.524
  0
LINE
  8
0
 10
16.318
 11
15.876
 20
145.524
 21
145.082
  0
LINE
  8
0
 10
15.876
 11
15.318
 20
145.082
 21
144.798
  0
LINE
  8
0
 10
15.318
 11
14.7
 20
144.798
 21
144.7
  0
LINE
  8
0
 10
14.7
 11
14.082
 20
144.7
 21
144.798
  0
LINE
  8
0
 10
14.082
 11
13.524
 20
144.798
 21
145.082
  0
LINE
  8
0
 10
13.524
 11
13.082
 20
145.082
 21
145.524
  0
LINE
  8
0
 10
13.082
 11
12.798
 20
145.524
 21
146.082
  0
LINE
  8
0
 10
12.798
 11
12.7
 20
146.082
 21
146.7
  0
LINE
  8
0
 10
12.7
 11
12.798
 20
243.3
 21
243.918
  0
LINE
  8
0
 10
12.798
 11
13.082
 20
243.918
 21
244.476
  0
LINE
  8
0
 10
13.082
 11
13.524
 20
244.476
 21
244.918
  0
LINE
  8
0
 10
13.524
 11
14.082
 20
244.918
 21
245.202
  0
LINE
  8
0
 10
14.082
 11
14.7
 20
245.202
 21
245.3
  0
LINE
  8
0
 10
14.7
 11
15.318
 20
245.3
 21
245.202
  0
LINE
  8
0
 10
15.318
 11
15.876
 20
245.202
 21
244.918
  0
LINE
  8
0
 10
15.876
 11
16.318
 20
244.918
 21
244.476
  0
LINE
  8
0
 10
16.318
 11
16.602
 20
244.476
 21
243.918
  0
LINE
  8
0
 10
16.602
 11
16.7
 20
243.918
 21
243.3
  0
LINE
  8
0
 10
16.7
 11
16.602
 20
243.3
 21
242.682
  0
LINE
  8
0
 10
16.602
 11
16.318
 20
242.682
 21
242.124
  0
LINE
  8
0
 10
16.318
 11
15.876
 20
242.124
 21
241.682
  0
LINE
  8
0
 10
15.876
 11
15.318
 20
241.682
 21
241.398
  0
LINE
  8
0
 10
15.318
 11
14.7
 20
241.398
 21
241.3
  0
LINE
  8
0
 10
14.7
 11
14.082
 20
241.3
 21
241.398
  0
LINE
  8
0
 10
14.082
 11
13.524
 20
241.398
 21
241.682
  0
LINE
  8
0
 10
13.524
 11
13.082
 20
241.682
 21
242.124
  0
LINE
  8
0
 10
13.082
 11
12.798
 20
242.124
 21
242.682
  0
LINE
  8
0
 10
12.798
 11
12.7
 20
242.682
 21
243.3
  0
LINE
  8
0
 10
58.5
 11
58.533
 20
37.5
 21
37.812
  0
LINE
  8
0
 10
58.533
 11
58.63
 20
37.812
 21
38.11
  0
LINE
  8
0
 10
58.63
 11
58.786
 20
38.11
 21
38.382
  0
LINE
  8
0
 10
58.786
 11
58.996
 20
38.382
 21
38.615
  0
LINE
  8
0
 10
58.996
 11
59.25
 20
38.615
 21
38.799
  0
LINE
  8
0
 10
59.25
 11
59.536
 20
38.799
 21
38.927
  0
LINE
  8
0
 10
59.536
 11
59.843
 20
38.927
 21
38.992
  0
LINE
  8
0
 10
59.843
 11
60.157
 20
38.992
 21
38.992
  0
LINE
  8
0
 10
60.157
 11
60.464
 20
38.992
 21
38.927
  0
LINE
  8
0
 10
60.464
 11
60.75
 20
38.927
 21
38.799
  0
LINE
  8
0
 10
60.75
 11
61.004
 20
38.799
 21
38.615
  0
LINE
  8
0
 10
61.004
 11
61.214
 20
38.615
 21
38.382
  0
LINE
  8
0
 10
61.214
 11
61.37
 20
38.382
 21
38.11
  0
LINE
  8
0
 10
61.37
 11
61.467
 20
38.11
 21
37.812
  0
LINE
  8
0
 10
61.467
 11
61.5
 20
37.812
 21
37.5
  0
LINE
  8
0
 10
61.5
 11
61.467
 20
37.5
 21
37.188
  0
LINE
  8
0
 10
61.467
 11
61.37
 20
37.188
 21
36.89
  0
LINE
  8
0
 10
61.37
 11
61.214
 20
36.89
 21
36.618
  0
LINE
  8
0
 10
61.214
 11
61.004
 20
36.618
 21
36.385
  0
LINE
  8
0
 10
61.004
 11
60.75
 20
36.385
 21
36.201
  0
LINE
  8
0
 10
60.75
 11
60.464
 20
36.201
 21
36.073
  0
LINE
  8
0
 10
60.464
 11
60.157
 20
36.073
 21
36.008
  0
LINE
  8
0
 10
60.157
 11
59.843
 20
36.008
 21
36.008
  0
LINE
  8
0
 10
59.843
 11
59.536
 20
36.008
 21
36.073
  0
LINE
  8
0
 10
59.536
 11
59.25
 20
36.073
 21
36.201
  0
LINE
  8
0
 10
59.25
 11
58.996
 20
36.201
 21
36.385
  0
LINE
  8
0
 10
58.996
 11
58.786
 20
36.385
 21
36.618
  0
LINE
  8
0
 10
58.786
 11
58.63
 20
36.618
 21
36.89
  0
LINE
  8
0
 10
58.63
 11
58.533
 20
36.89
 21
37.188
  0
LINE
  8
0
 10
58.533
 11
58.5
 20
37.188
 21
37.5
  0
LINE
  8
0
 10
58.5
 11
58.533
 20
42.5
 21
42.812
  0
LINE
  8
0
 10
58.533
 11
58.63
 20
42.812
 21
43.11
  0
LINE
  8
0
 10
58.63
 11
58.786
 20
43.11
 21
43.382
  0
LINE
  8
0
 10
58.786
 11
58.996
 20
43.382
 21
43.615
  0
LINE
  8
0
 10
58.996
 11
59.25
 20
43.615
 21
43.799
  0
LINE
  8
0
 10
59.25
 11
59.536
 20
43.799
 21
43.927
  0
LINE
  8
0
 10
59.536
 11
59.843
 20
43.927
 21
43.992
  0
LINE
  8
0
 10
59.843
 11
60.157
 20
43.992
 21
43.992
  0
LINE
  8
0
 10
60.157
 11
60.464
 20
43.992
 21
43.927
  0
LINE
  8
0
 10
60.464
 11
60.75
 20
43.927
 21
43.799
  0
LINE
  8
0
 10
60.75
 11
61.004
 20
43.799
 21
43.615
  0
LINE
  8
0
 10
61.004
 11
61.214
 20
43.615
 21
43.382
  0
LINE
  8
0
 10
61.214
 11
61.37
 20
43.382
 21
43.11
  0
LINE
  8
0
 10
61.37
 11
61.467
 20
43.11
 21
42.812
  0
LINE
  8
0
 10
61.467
 11
61.5
 20
42.812
 21
42.5
  0
LINE
  8
0
 10
61.5
 11
61.467
 20
42.5
 21
42.188
  0
LINE
  8
0
 10
61.467
 11
61.37
 20
42.188
 21
41.89
  0
LINE
  8
0
 10
61.37
 11
61.214
 20
41.89
 21
41.618
  0
LINE
  8
0
 10
61.214
 11
61.004
 20
41.618
 21
41.385
  0
LINE
  8
0
 10
61.004
 11
60.75
 20
41.385
 21
41.201
  0
LINE
  8
0
 10
60.75
 11
60.464
 20
41.201
 21
41.073
  0
LINE
  8
0
 10
60.464
 11
60.157
 20
41.073
 21
41.008
  0
LINE
  8
0
 10
60.157
 11
59.843
 20
41.008
 21
41.008
  0
LINE
  8
0
 10
59.843
 11
59.536
 20
41.008
 21
41.073
  0
LINE
  8
0
 10
59.536
 11
59.25
 20
41.073
 21
41.201
  0
LINE
  8
0
 10
59.25
 11
58.996
 20
41.201
 21
41.385
  0
LINE
  8
0
 10
58.996
 11
58.786
 20
41.385
 21
41.618
  0
LINE
  8
0
 10
58.786
 11
58.63
 20
41.618
 21
41.89
  0
LINE
  8
0
 10
58.63
 11
58.533
 20
41.89
 21
42.188
  0
LINE
  8
0
 10
58.533
 11
58.5
 20
42.188
 21
42.5
  0
LINE
  8
0
 10
70
 11
70
 20
393
 21
399
  0
LINE
  8
0
 10
70
 11
83
 20
399
 21
399
  0
LINE
  8
0
 10
83
 11
83
 20
399
 21
399.088
  0
LINE
  8
0
 10
83
 11
84.418
 20
399.088
 21
399.26
  0
LINE
  8
0
 10
84.418
 11
85.994
 20
399.26
 21
400.348
  0
LINE
  8
0
 10
85.994
 11
86.884
 20
400.348
 21
402.043
  0
LINE
  8
0
 10
86.884
 11
86.884
 20
402.043
 21
403.957
  0
LINE
  8
0
 10
86.884
 11
85.994
 20
403.957
 21
405.652
  0
LINE
  8
0
 10
85.994
 11
84.418
 20
405.652
 21
406.74
  0
LINE
  8
0
 10
84.418
 11
83
 20
406.74
 21
406.912
  0
LINE
  8
0
 10
83
 11
83
 20
406.912
 21
407
  0
LINE
  8
0
 10
83
 11
70
 20
407
 21
407
  0
LINE
  8
0
 10
70
 11
70
 20
407
 21
413
  0
LINE
  8
0
 10
70
 11
94
 20
413
 21
449
  0
LINE
  8
0
 10
94
 11
113
 20
449
 21
449
  0
LINE
  8
0
 10
113
 11
113
 20
449
 21
449.088
  0
LINE
  8
0
 10
113
 11
114.418
 20
449.088
 21
449.26
  0
LINE
  8
0
 10
114.418
 11
115.994
 20
449.26
 21
450.348
  0
LINE
  8
0
 10
115.994
 11
116.884
 20
450.348
 21
452.043
  0
LINE
  8
0
 10
116.884
 11
116.884
 20
452.043
 21
453.957
  0
LINE
  8
0
 10
116.884
 11
115.994
 20
453.957
 21
455.652
  0
LINE
  8
0
 10
115.994
 11
114.418
 20
455.652
 21
456.74
  0
LINE
  8
0
 10
114.418
 11
113
 20
456.74
 21
456.912
  0
LINE
  8
0
 10
113
 11
113
 20
456.912
 21
457
  0
LINE
  8
0
 10
113
 11
99.333
 20
457
 21
457
  0
LINE
  8
0
 10
99.333
 11
100
 20
457
 21
458
  0
LINE
  8
0
 10
100
 11
100
 20
458
 21
465
  0
LINE
  8
0
 10
100
 11
100.381
 20
465
 21
466.913
  0
LINE
  8
0
 10
100.381
 11
101.464
 20
466.913
 21
468.536
  0
LINE
  8
0
 10
101.464
 11
103.087
 20
468.536
 21
469.619
  0
LINE
  8
0
 10
103.087
 11
105
 20
469.619
 21
470
  0
LINE
  8
0
 10
105
 11
145
 20
470
 21
470
  0
LINE
  8
0
 10
145
 11
146.913
 20
470
 21
469.619
  0
LINE
  8
0
 10
146.913
 11
148.536
 20
469.619
 21
468.536
  0
LINE
  8
0
 10
148.536
 11
149.619
 20
468.536
 21
466.913
  0
LINE
  8
0
 10
149.619
 11
150
 20
466.913
 21
465
  0
LINE
  8
0
 10
150
 11
150
 20
465
 21
458
  0
LINE
  8
0
 10
150
 11
258
 20
458
 21
458
  0
LINE
  8
0
 10
258
 11
258
 20
458
 21
439
  0
LINE
  8
0
 10
258
 11
258.381
 20
439
 21
437.087
  0
LINE
  8
0
 10
258.381
 11
259.464
 20
437.087
 21
435.464
  0
LINE
  8
0
 10
259.464
 11
261.087
 20
435.464
 21
434.381
  0
LINE
  8
0
 10
261.087
 11
263
 20
434.381
 21
434
  0
LINE
  8
0
 10
263
 11
277
 20
434
 21
434
  0
LINE
  8
0
 10
277
 11
278.913
 20
434
 21
434.381
  0
LINE
  8
0
 10
278.913
 11
280.536
 20
434.381
 21
435.464
  0
LINE
  8
0
 10
280.536
 11
281.619
 20
435.464
 21
437.087
  0
LINE
  8
0
 10
281.619
 11
282
 20
437.087
 21
439
  0
LINE
  8
0
 10
282
 11
282
 20
439
 21
458
  0
LINE
  8
0
 10
282
 11
405
 20
458
 21
458
  0
LINE
  8
0
 10
405
 11
405
 20
458
 21
451
  0
LINE
  8
0
 10
405
 11
405.381
 20
451
 21
449.087
  0
LINE
  8
0
 10
405.381
 11
406.464
 20
449.087
 21
447.464
  0
LINE
  8
0
 10
406.464
 11
408.087
 20
447.464
 21
446.381
  0
LINE
  8
0
 10
408.087
 11
410
 20
446.381
 21
446
  0
LINE
  8
0
 10
410
 11
425
 20
446
 21
446
  0
LINE
  8
0
 10
425
 11
426.913
 20
446
 21
446.381
  0
LINE
  8
0
 10
426.913
 11
428.536
 20
446.381
 21
447.464
  0
LINE
  8
0
 10
428.536
 11
429.619
 20
447.464
 21
449.087
  0
LINE
  8
0
 10
429.619
 11
430
 20
449.087
 21
451
  0
LINE
  8
0
 10
430
 11
430
 20
451
 21
465
  0
LINE
  8
0
 10
430
 11
430.381
 20
465
 21
466.913
  0
LINE
  8
0
 10
430.381
 11
431.464
 20
466.913
 21
468.536
  0
LINE
  8
0
 10
431.464
 11
433.087
 20
468.536
 21
469.619
  0
LINE
  8
0
 10
433.087
 11
435
 20
469.619
 21
470
  0
LINE
  8
0
 10
435
 11
475
 20
470
 21
470
  0
LINE
  8
0
 10
475
 11
476.913
 20
470
 21
469.619
  0
LINE
  8
0
 10
476.913
 11
478.536
 20
469.619
 21
468.536
  0
LINE
  8
0
 10
478.536
 11
479.619
 20
468.536
 21
466.913
  0
LINE
  8
0
 10
479.619
 11
480
 20
466.913
 21
465
  0
LINE
  8
0
 10
480
 11
480
 20
465
 21
458
  0
LINE
  8
0
 10
480
 11
480.667
 20
458
 21
457
  0
LINE
  8
0
 10
480.667
 11
467
 20
457
 21
457
  0
LINE
  8
0
 10
467
 11
467
 20
457
 21
456.912
  0
LINE
  8
0
 10
467
 11
466.518
 20
456.912
 21
456.971
  0
LINE
  8
0
 10
466.518
 11
464.728
 20
456.971
 21
456.292
  0
LINE
  8
0
 10
464.728
 11
463.458
 20
456.292
 21
454.859
  0
LINE
  8
0
 10
463.458
 11
463
 20
454.859
 21
453
  0
LINE
  8
0
 10
463
 11
463.458
 20
453
 21
451.141
  0
LINE
  8
0
 10
463.458
 11
464.728
 20
451.141
 21
449.708
  0
LINE
  8
0
 10
464.728
 11
466.518
 20
449.708
 21
449.029
  0
LINE
  8
0
 10
466.518
 11
467
 20
449.029
 21
449.088
  0
LINE
  8
0
 10
467
 11
467
 20
449.088
 21
449
  0
LINE
  8
0
 10
467
 11
486
 20
449
 21
449
  0
LINE
  8
0
 10
486
 11
510
 20
449
 21
413
  0
LINE
  8
0
 10
510
 11
510
 20
413
 21
407
  0
LINE
  8
0
 10
510
 11
497
 20
407
 21
407
  0
LINE
  8
0
 10
497
 11
497
 20
407
 21
406.912
  0
LINE
  8
0
 10
497
 11
496.518
 20
406.912
 21
406.971
  0
LINE
  8
0
 10
496.518
 11
494.728
 20
406.971
 21
406.292
  0
LINE
  8
0
 10
494.728
 11
493.458
 20
406.292
 21
404.859
  0
LINE
  8
0
 10
493.458
 11
493
 20
404.859
 21
403
  0
LINE
  8
0
 10
493
 11
493.458
 20
403
 21
401.141
  0
LINE
  8
0
 10
493.458
 11
494.728
 20
401.141
 21
399.708
  0
LINE
  8
0
 10
494.728
 11
496.518
 20
399.708
 21
399.029
  0
LINE
  8
0
 10
496.518
 11
497
 20
399.029
 21
399.088
  0
LINE
  8
0
 10
497
 11
497
 20
399.088
 21
399
  0
LINE
  8
0
 10
497
 11
510
 20
399
 21
399
  0
LINE
  8
0
 10
510
 11
510
 20
399
 21
228
  0
LINE
  8
0
 10
510
 11
509.815
 20
228
 21
223.292
  0
LINE
  8
0
 10
509.815
 11
509.261
 20
223.292
 21
218.614
  0
LINE
  8
0
 10
509.261
 11
508.342
 20
218.614
 21
213.993
  0
LINE
  8
0
 10
508.342
 11
507.063
 20
213.993
 21
209.459
  0
LINE
  8
0
 10
507.063
 11
505.433
 20
209.459
 21
205.039
  0
LINE
  8
0
 10
505.433
 11
503.46
 20
205.039
 21
200.761
  0
LINE
  8
0
 10
503.46
 11
501.158
 20
200.761
 21
196.65
  0
LINE
  8
0
 10
501.158
 11
498.541
 20
196.65
 21
192.733
  0
LINE
  8
0
 10
498.541
 11
495.624
 20
192.733
 21
189.033
  0
LINE
  8
0
 10
495.624
 11
427.071
 20
189.033
 21
112.829
  0
LINE
  8
0
 10
427.071
 11
427.059
 20
112.829
 21
112.819
  0
LINE
  8
0
 10
427.059
 11
427.045
 20
112.819
 21
112.811
  0
LINE
  8
0
 10
427.045
 11
427.031
 20
112.811
 21
112.805
  0
LINE
  8
0
 10
427.031
 11
427.016
 20
112.805
 21
112.801
  0
LINE
  8
0
 10
427.016
 11
427.008
 20
112.801
 21
112.8
  0
LINE
  8
0
 10
427.008
 11
418
 20
112.8
 21
112.8
  0
LINE
  8
0
 10
418
 11
418
 20
112.8
 21
106.8
  0
LINE
  8
0
 10
418
 11
413
 20
106.8
 21
106.8
  0
LINE
  8
0
 10
413
 11
413
 20
106.8
 21
112.8
  0
LINE
  8
0
 10
413
 11
404.5
 20
112.8
 21
112.8
  0
LINE
  8
0
 10
404.5
 11
404.5
 20
112.8
 21
118.3
  0
LINE
  8
0
 10
404.5
 11
406
 20
118.3
 21
118.3
  0
LINE
  8
0
 10
406
 11
406
 20
118.3
 21
121.3
  0
LINE
  8
0
 10
406
 11
404.5
 20
121.3
 21
121.3
  0
LINE
  8
0
 10
404.5
 11
404.5
 20
121.3
 21
122.8
  0
LINE
  8
0
 10
404.5
 11
401.5
 20
122.8
 21
122.8
  0
LINE
  8
0
 10
401.5
 11
401.5
 20
122.8
 21
121.3
  0
LINE
  8
0
 10
401.5
 11
400
 20
121.3
 21
121.3
  0
LINE
  8
0
 10
400
 11
400
 20
121.3
 21
118.3
  0
LINE
  8
0
 10
400
 11
401.5
 20
118.3
 21
118.3
  0
LINE
  8
0
 10
401.5
 11
401.5
 20
118.3
 21
112.8
  0
LINE
  8
0
 10
401.5
 11
393
 20
112.8
 21
112.8
  0
LINE
  8
0
 10
393
 11
393
 20
112.8
 21
106.8
  0
LINE
  8
0
 10
393
 11
388
 20
106.8
 21
106.8
  0
LINE
  8
0
 10
388
 11
388
 20
106.8
 21
112.8
  0
LINE
  8
0
 10
388
 11
280
 20
112.8
 21
112.8
  0
LINE
  8
0
 10
280
 11
280
 20
112.8
 21
106.8
  0
LINE
  8
0
 10
280
 11
275
 20
106.8
 21
106.8
  0
LINE
  8
0
 10
275
 11
275
 20
106.8
 21
112.8
  0
LINE
  8
0
 10
275
 11
266.5
 20
112.8
 21
112.8
  0
LINE
  8
0
 10
266.5
 11
266.5
 20
112.8
 21
118.3
  0
LINE
  8
0
 10
266.5
 11
268
 20
118.3
 21
118.3
  0
LINE
  8
0
 10
268
 11
268
 20
118.3
 21
121.3
  0
LINE
  8
0
 10
268
 11
266.5
 20
121.3
 21
121.3
  0
LINE
  8
0
 10
266.5
 11
266.5
 20
121.3
 21
122.8
  0
LINE
  8
0
 10
266.5
 11
263.5
 20
122.8
 21
122.8
  0
LINE
  8
0
 10
263.5
 11
263.5
 20
122.8
 21
121.3
  0
LINE
  8
0
 10
263.5
 11
262
 20
121.3
 21
121.3
  0
LINE
  8
0
 10
262
 11
262
 20
121.3
 21
118.3
  0
LINE
  8
0
 10
262
 11
263.5
 20
118.3
 21
118.3
  0
LINE
  8
0
 10
263.5
 11
263.5
 20
118.3
 21
112.8
  0
LINE
  8
0
 10
263.5
 11
255
 20
112.8
 21
112.8
  0
LINE
  8
0
 10
255
 11
255
 20
112.8
 21
106.8
  0
LINE
  8
0
 10
255
 11
250
 20
106.8
 21
106.8
  0
LINE
  8
0
 10
250
 11
250
 20
106.8
 21
112.8
  0
LINE
  8
0
 10
250
 11
240
 20
112.8
 21
112.8
  0
LINE
  8
0
 10
240
 11
240
 20
112.8
 21
132.8
  0
LINE
  8
0
 10
240
 11
240.328
 20
132.8
 21
135.919
  0
LINE
  8
0
 10
240.328
 11
241.297
 20
135.919
 21
138.901
  0
LINE
  8
0
 10
241.297
 11
242.865
 20
138.901
 21
141.617
  0
LINE
  8
0
 10
242.865
 11
244.963
 20
141.617
 21
143.947
  0
LINE
  8
0
 10
244.963
 11
247.5
 20
143.947
 21
145.79
  0
LINE
  8
0
 10
247.5
 11
250.365
 20
145.79
 21
147.066
  0
LINE
  8
0
 10
250.365
 11
253.432
 20
147.066
 21
147.718
  0
LINE
  8
0
 10
253.432
 11
255
 20
147.718
 21
147.718
  0
LINE
  8
0
 10
255
 11
255
 20
147.718
 21
147.8
  0
LINE
  8
0
 10
255
 11
353
 20
147.8
 21
147.8
  0
LINE
  8
0
 10
353
 11
353
 20
147.8
 21
378
  0
LINE
  8
0
 10
353
 11
85
 20
378
 21
378
  0
LINE
  8
0
 10
85
 11
85
 20
378
 21
378.082
  0
LINE
  8
0
 10
85
 11
83.432
 20
378.082
 21
378.082
  0
LINE
  8
0
 10
83.432
 11
80.365
 20
378.082
 21
378.734
  0
LINE
  8
0
 10
80.365
 11
77.5
 20
378.734
 21
380.01
  0
LINE
  8
0
 10
77.5
 11
74.963
 20
380.01
 21
381.853
  0
LINE
  8
0
 10
74.963
 11
72.865
 20
381.853
 21
384.183
  0
LINE
  8
0
 10
72.865
 11
71.297
 20
384.183
 21
386.899
  0
LINE
  8
0
 10
71.297
 11
70.328
 20
386.899
 21
389.881
  0
LINE
  8
0
 10
70.328
 11
70
 20
389.881
 21
393
  0
LINE
  8
0
 10
108.3
 11
108.398
 20
146.7
 21
147.318
  0
LINE
  8
0
 10
108.398
 11
108.682
 20
147.318
 21
147.876
  0
LINE
  8
0
 10
108.682
 11
109.124
 20
147.876
 21
148.318
  0
LINE
  8
0
 10
109.124
 11
109.682
 20
148.318
 21
148.602
  0
LINE
  8
0
 10
109.682
 11
110.3
 20
148.602
 21
148.7
  0
LINE
  8
0
 10
110.3
 11
110.918
 20
148.7
 21
148.602
  0
LINE
  8
0
 10
110.918
 11
111.476
 20
148.602
 21
148.318
  0
LINE
  8
0
 10
111.476
 11
111.918
 20
148.318
 21
147.876
  0
LINE
  8
0
 10
111.918
 11
112.202
 20
147.876
 21
147.318
  0
LINE
  8
0
 10
112.202
 11
112.3
 20
147.318
 21
146.7
  0
LINE
  8
0
 10
112.3
 11
112.202
 20
146.7
 21
146.082
  0
LINE
  8
0
 10
112.202
 11
111.918
 20
146.082
 21
145.524
  0
LINE
  8
0
 10
111.918
 11
111.476
 20
145.524
 21
145.082
  0
LINE
  8
0
 10
111.476
 11
110.918
 20
145.082
 21
144.798
  0
LINE
  8
0
 10
110.918
 11
110.3
 20
144.798
 21
144.7
  0
LINE
  8
0
 10
110.3
 11
109.682
 20
144.7
 21
144.798
  0
LINE
  8
0
 10
109.682
 11
109.124
 20
144.798
 21
145.082
  0
LINE
  8
0
 10
109.124
 11
108.682
 20
145.082
 21
145.524
  0
LINE
  8
0
 10
108.682
 11
108.398
 20
145.524
 21
146.082
  0
LINE
  8
0
 10
108.398
 11
108.3
 20
146.082
 21
146.7
  0
LINE
  8
0
 10
108.3
 11
108.398
 20
243.3
 21
243.918
  0
LINE
  8
0
 10
108.398
 11
108.682
 20
243.918
 21
244.476
  0
LINE
  8
0
 10
108.682
 11
109.124
 20
244.476
 21
244.918
  0
LINE
  8
0
 10
109.124
 11
109.682
 20
244.918
 21
245.202
  0
LINE
  8
0
 10
109.682
 11
110.3
 20
245.202
 21
245.3
  0
LINE
  8
0
 10
110.3
 11
110.918
 20
245.3
 21
245.202
  0
LINE
  8
0
 10
110.918
 11
111.476
 20
245.202
 21
244.918
  0
LINE
  8
0
 10
111.476
 11
111.918
 20
244.918
 21
244.476
  0
LINE
  8
0
 10
111.918
 11
112.202
 20
244.476
 21
243.918
  0
LINE
  8
0
 10
112.202
 11
112.3
 20
243.918
 21
243.3
  0
LINE
  8
0
 10
112.3
 11
112.202
 20
243.3
 21
242.682
  0
LINE
  8
0
 10
112.202
 11
111.918
 20
242.682
 21
242.124
  0
LINE
  8
0
 10
111.918
 11
111.476
 20
242.124
 21
241.682
  0
LINE
  8
0
 10
111.476
 11
110.918
 20
241.682
 21
241.398
  0
LINE
  8
0
 10
110.918
 11
110.3
 20
241.398
 21
241.3
  0
LINE
  8
0
 10
110.3
 11
109.682
 20
241.3
 21
241.398
  0
LINE
  8
0
 10
109.682
 11
109.124
 20
241.398
 21
241.682
  0
LINE
  8
0
 10
109.124
 11
108.682
 20
241.682
 21
242.124
  0
LINE
  8
0
 10
108.682
 11
108.398
 20
242.124
 21
242.682
  0
LINE
  8
0
 10
108.398
 11
108.3
 20
242.682
 21
243.3
  0
LINE
  8
0
 10
118.508
 11
118.508
 20
69.843
 21
70.157
  0
LINE
  8
0
 10
118.508
 11
118.573
 20
70.157
 21
70.464
  0
LINE
  8
0
 10
118.573
 11
118.701
 20
70.464
 21
70.75
  0
LINE
  8
0
 10
118.701
 11
118.885
 20
70.75
 21
71.004
  0
LINE
  8
0
 10
118.885
 11
119.118
 20
71.004
 21
71.214
  0
LINE
  8
0
 10
119.118
 11
119.39
 20
71.214
 21
71.37
  0
LINE
  8
0
 10
119.39
 11
119.688
 20
71.37
 21
71.467
  0
LINE
  8
0
 10
119.688
 11
120
 20
71.467
 21
71.5
  0
LINE
  8
0
 10
120
 11
120.312
 20
71.5
 21
71.467
  0
LINE
  8
0
 10
120.312
 11
120.61
 20
71.467
 21
71.37
  0
LINE
  8
0
 10
120.61
 11
120.882
 20
71.37
 21
71.214
  0
LINE
  8
0
 10
120.882
 11
121.115
 20
71.214
 21
71.004
  0
LINE
  8
0
 10
121.115
 11
121.299
 20
71.004
 21
70.75
  0
LINE
  8
0
 10
121.299
 11
121.427
 20
70.75
 21
70.464
  0
LINE
  8
0
 10
121.427
 11
121.492
 20
70.464
 21
70.157
  0
LINE
  8
0
 10
121.492
 11
121.492
 20
70.157
 21
69.843
  0
LINE
  8
0
 10
121.492
 11
121.427
 20
69.843
 21
69.536
  0
LINE
  8
0
 10
121.427
 11
121.299
 20
69.536
 21
69.25
  0
LINE
  8
0
 10
121.299
 11
121.115
 20
69.25
 21
68.996
  0
LINE
  8
0
 10
121.115
 11
120.882
 20
68.996
 21
68.786
  0
LINE
  8
0
 10
120.882
 11
120.61
 20
68.786
 21
68.63
  0
LINE
  8
0
 10
120.61
 11
120.312
 20
68.63
 21
68.533
  0
LINE
  8
0
 10
120.312
 11
120
 20
68.533
 21
68.5
  0
LINE
  8
0
 10
120
 11
119.688
 20
68.5
 21
68.533
  0
LINE
  8
0
 10
119.688
 11
119.39
 20
68.533
 21
68.63
  0
LINE
  8
0
 10
119.39
 11
119.118
 20
68.63
 21
68.786
  0
LINE
  8
0
 10
119.118
 11
118.885
 20
68.786
 21
68.996
  0
LINE
  8
0
 10
118.885
 11
118.701
 20
68.996
 21
69.25
  0
LINE
  8
0
 10
118.701
 11
118.573
 20
69.25
 21
69.536
  0
LINE
  8
0
 10
118.573
 11
118.508
 20
69.536
 21
69.843
  0
LINE
  8
0
 10
118.508
 11
118.508
 20
129.843
 21
130.157
  0
LINE
  8
0
 10
118.508
 11
118.573
 20
130.157
 21
130.464
  0
LINE
  8
0
 10
118.573
 11
118.701
 20
130.464
 21
130.75
  0
LINE
  8
0
 10
118.701
 11
118.885
 20
130.75
 21
131.004
  0
LINE
  8
0
 10
118.885
 11
119.118
 20
131.004
 21
131.214
  0
LINE
  8
0
 10
119.118
 11
119.39
 20
131.214
 21
131.37
  0
LINE
  8
0
 10
119.39
 11
119.688
 20
131.37
 21
131.467
  0
LINE
  8
0
 10
119.688
 11
120
 20
131.467
 21
131.5
  0
LINE
  8
0
 10
120
 11
120.312
 20
131.5
 21
131.467
  0
LINE
  8
0
 10
120.312
 11
120.61
 20
131.467
 21
131.37
  0
LINE
  8
0
 10
120.61
 11
120.882
 20
131.37
 21
131.214
  0
LINE
  8
0
 10
120.882
 11
121.115
 20
131.214
 21
131.004
  0
LINE
  8
0
 10
121.115
 11
121.299
 20
131.004
 21
130.75
  0
LINE
  8
0
 10
121.299
 11
121.427
 20
130.75
 21
130.464
  0
LINE
  8
0
 10
121.427
 11
121.492
 20
130.464
 21
130.157
  0
LINE
  8
0
 10
121.492
 11
121.492
 20
130.157
 21
129.843
  0
LINE
  8
0
 10
121.492
 11
121.427
 20
129.843
 21
129.536
  0
LINE
  8
0
 10
121.427
 11
121.299
 20
129.536
 21
129.25
  0
LINE
  8
0
 10
121.299
 11
121.115
 20
129.25
 21
128.996
  0
LINE
  8
0
 10
121.115
 11
120.882
 20
128.996
 21
128.786
  0
LINE
  8
0
 10
120.882
 11
120.61
 20
128.786
 21
128.63
  0
LINE
  8
0
 10
120.61
 11
120.312
 20
128.63
 21
128.533
  0
LINE
  8
0
 10
120.312
 11
120
 20
128.533
 21
128.5
  0
LINE
  8
0
 10
120
 11
119.688
 20
128.5
 21
128.533
  0
LINE
  8
0
 10
119.688
 11
119.39
 20
128.533
 21
128.63
  0
LINE
  8
0
 10
119.39
 11
119.118
 20
128.63
 21
128.786
  0
LINE
  8
0
 10
119.118
 11
118.885
 20
128.786
 21
128.996
  0
LINE
  8
0
 10
118.885
 11
118.701
 20
128.996
 21
129.25
  0
LINE
  8
0
 10
118.701
 11
118.573
 20
129.25
 21
129.536
  0
LINE
  8
0
 10
118.573
 11
118.508
 20
129.536
 21
129.843
  0
LINE
  8
0
 10
118.508
 11
118.508
 20
189.843
 21
190.157
  0
LINE
  8
0
 10
118.508
 11
118.573
 20
190.157
 21
190.464
  0
LINE
  8
0
 10
118.573
 11
118.701
 20
190.464
 21
190.75
  0
LINE
  8
0
 10
118.701
 11
118.885
 20
190.75
 21
191.004
  0
LINE
  8
0
 10
118.885
 11
119.118
 20
191.004
 21
191.214
  0
LINE
  8
0
 10
119.118
 11
119.39
 20
191.214
 21
191.37
  0
LINE
  8
0
 10
119.39
 11
119.688
 20
191.37
 21
191.467
  0
LINE
  8
0
 10
119.688
 11
120
 20
191.467
 21
191.5
  0
LINE
  8
0
 10
120
 11
120.312
 20
191.5
 21
191.467
  0
LINE
  8
0
 10
120.312
 11
120.61
 20
191.467
 21
191.37
  0
LINE
  8
0
 10
120.61
 11
120.882
 20
191.37
 21
191.214
  0
LINE
  8
0
 10
120.882
 11
121.115
 20
191.214
 21
191.004
  0
LINE
  8
0
 10
121.115
 11
121.299
 20
191.004
 21
190.75
  0
LINE
  8
0
 10
121.299
 11
121.427
 20
190.75
 21
190.464
  0
LINE
  8
0
 10
121.427
 11
121.492
 20
190.464
 21
190.157
  0
LINE
  8
0
 10
121.492
 11
121.492
 20
190.157
 21
189.843
  0
LINE
  8
0
 10
121.492
 11
121.427
 20
189.843
 21
189.536
  0
LINE
  8
0
 10
121.427
 11
121.299
 20
189.536
 21
189.25
  0
LINE
  8
0
 10
121.299
 11
121.115
 20
189.25
 21
188.996
  0
LINE
  8
0
 10
121.115
 11
120.882
 20
188.996
 21
188.786
  0
LINE
  8
0
 10
120.882
 11
120.61
 20
188.786
 21
188.63
  0
LINE
  8
0
 10
120.61
 11
120.312
 20
188.63
 21
188.533
  0
LINE
  8
0
 10
120.312
 11
120
 20
188.533
 21
188.5
  0
LINE
  8
0
 10
120
 11
119.688
 20
188.5
 21
188.533
  0
LINE
  8
0
 10
119.688
 11
119.39
 20
188.533
 21
188.63
  0
LINE
  8
0
 10
119.39
 11
119.118
 20
188.63
 21
188.786
  0
LINE
  8
0
 10
119.118
 11
118.885
 20
188.786
 21
188.996
  0
LINE
  8
0
 10
118.885
 11
118.701
 20
188.996
 21
189.25
  0
LINE
  8
0
 10
118.701
 11
118.573
 20
189.25
 21
189.536
  0
LINE
  8
0
 10
118.573
 11
118.508
 20
189.536
 21
189.843
  0
LINE
  8
0
 10
126.027
 11
126.076
 20
42.553
 21
42.863
  0
LINE
  8
0
 10
126.076
 11
126.188
 20
42.863
 21
43.156
  0
LINE
  8
0
 10
126.188
 11
126.359
 20
43.156
 21
43.419
  0
LINE
  8
0
 10
126.359
 11
126.581
 20
43.419
 21
43.641
  0
LINE
  8
0
 10
126.581
 11
126.844
 20
43.641
 21
43.812
  0
LINE
  8
0
 10
126.844
 11
127.137
 20
43.812
 21
43.924
  0
LINE
  8
0
 10
127.137
 11
127.447
 20
43.924
 21
43.973
  0
LINE
  8
0
 10
127.447
 11
127.76
 20
43.973
 21
43.957
  0
LINE
  8
0
 10
127.76
 11
128.063
 20
43.957
 21
43.875
  0
LINE
  8
0
 10
128.063
 11
128.342
 20
43.875
 21
43.733
  0
LINE
  8
0
 10
128.342
 11
128.586
 20
43.733
 21
43.536
  0
LINE
  8
0
 10
128.586
 11
128.783
 20
43.536
 21
43.292
  0
LINE
  8
0
 10
128.783
 11
128.925
 20
43.292
 21
43.012
  0
LINE
  8
0
 10
128.925
 11
129.007
 20
43.012
 21
42.71
  0
LINE
  8
0
 10
129.007
 11
129.023
 20
42.71
 21
42.396
  0
LINE
  8
0
 10
129.023
 11
128.974
 20
42.396
 21
42.087
  0
LINE
  8
0
 10
128.974
 11
128.862
 20
42.087
 21
41.794
  0
LINE
  8
0
 10
128.862
 11
128.691
 20
41.794
 21
41.531
  0
LINE
  8
0
 10
128.691
 11
128.469
 20
41.531
 21
41.309
  0
LINE
  8
0
 10
128.469
 11
128.206
 20
41.309
 21
41.138
  0
LINE
  8
0
 10
128.206
 11
127.913
 20
41.138
 21
41.026
  0
LINE
  8
0
 10
127.913
 11
127.604
 20
41.026
 21
40.977
  0
LINE
  8
0
 10
127.604
 11
127.29
 20
40.977
 21
40.993
  0
LINE
  8
0
 10
127.29
 11
126.988
 20
40.993
 21
41.075
  0
LINE
  8
0
 10
126.988
 11
126.708
 20
41.075
 21
41.217
  0
LINE
  8
0
 10
126.708
 11
126.464
 20
41.217
 21
41.414
  0
LINE
  8
0
 10
126.464
 11
126.267
 20
41.414
 21
41.658
  0
LINE
  8
0
 10
126.267
 11
126.125
 20
41.658
 21
41.937
  0
LINE
  8
0
 10
126.125
 11
126.043
 20
41.937
 21
42.24
  0
LINE
  8
0
 10
126.043
 11
126.027
 20
42.24
 21
42.553
  0
LINE
  8
0
 10
130.977
 11
131.026
 20
37.604
 21
37.913
  0
LINE
  8
0
 10
131.026
 11
131.138
 20
37.913
 21
38.206
  0
LINE
  8
0
 10
131.138
 11
131.309
 20
38.206
 21
38.469
  0
LINE
  8
0
 10
131.309
 11
131.531
 20
38.469
 21
38.691
  0
LINE
  8
0
 10
131.531
 11
131.794
 20
38.691
 21
38.862
  0
LINE
  8
0
 10
131.794
 11
132.087
 20
38.862
 21
38.974
  0
LINE
  8
0
 10
132.087
 11
132.396
 20
38.974
 21
39.023
  0
LINE
  8
0
 10
132.396
 11
132.71
 20
39.023
 21
39.007
  0
LINE
  8
0
 10
132.71
 11
133.012
 20
39.007
 21
38.925
  0
LINE
  8
0
 10
133.012
 11
133.292
 20
38.925
 21
38.783
  0
LINE
  8
0
 10
133.292
 11
133.536
 20
38.783
 21
38.586
  0
LINE
  8
0
 10
133.536
 11
133.733
 20
38.586
 21
38.342
  0
LINE
  8
0
 10
133.733
 11
133.875
 20
38.342
 21
38.063
  0
LINE
  8
0
 10
133.875
 11
133.957
 20
38.063
 21
37.76
  0
LINE
  8
0
 10
133.957
 11
133.973
 20
37.76
 21
37.447
  0
LINE
  8
0
 10
133.973
 11
133.924
 20
37.447
 21
37.137
  0
LINE
  8
0
 10
133.924
 11
133.812
 20
37.137
 21
36.844
  0
LINE
  8
0
 10
133.812
 11
133.641
 20
36.844
 21
36.581
  0
LINE
  8
0
 10
133.641
 11
133.419
 20
36.581
 21
36.359
  0
LINE
  8
0
 10
133.419
 11
133.156
 20
36.359
 21
36.188
  0
LINE
  8
0
 10
133.156
 11
132.863
 20
36.188
 21
36.076
  0
LINE
  8
0
 10
132.863
 11
132.553
 20
36.076
 21
36.027
  0
LINE
  8
0
 10
132.553
 11
132.24
 20
36.027
 21
36.043
  0
LINE
  8
0
 10
132.24
 11
131.937
 20
36.043
 21
36.125
  0
LINE
  8
0
 10
131.937
 11
131.658
 20
36.125
 21
36.267
  0
LINE
  8
0
 10
131.658
 11
131.414
 20
36.267
 21
36.464
  0
LINE
  8
0
 10
131.414
 11
131.217
 20
36.464
 21
36.708
  0
LINE
  8
0
 10
131.217
 11
131.075
 20
36.708
 21
36.988
  0
LINE
  8
0
 10
131.075
 11
130.993
 20
36.988
 21
37.29
  0
LINE
  8
0
 10
130.993
 11
130.977
 20
37.29
 21
37.604
  0
LINE
  8
0
 10
138.508
 11
138.508
 20
69.843
 21
70.157
  0
LINE
  8
0
 10
138.508
 11
138.573
 20
70.157
 21
70.464
  0
LINE
  8
0
 10
138.573
 11
138.701
 20
70.464
 21
70.75
  0
LINE
  8
0
 10
138.701
 11
138.885
 20
70.75
 21
71.004
  0
LINE
  8
0
 10
138.885
 11
139.118
 20
71.004
 21
71.214
  0
LINE
  8
0
 10
139.118
 11
139.39
 20
71.214
 21
71.37
  0
LINE
  8
0
 10
139.39
 11
139.688
 20
71.37
 21
71.467
  0
LINE
  8
0
 10
139.688
 11
140
 20
71.467
 21
71.5
  0
LINE
  8
0
 10
140
 11
140.312
 20
71.5
 21
71.467
  0
LINE
  8
0
 10
140.312
 11
140.61
 20
71.467
 21
71.37
  0
LINE
  8
0
 10
140.61
 11
140.882
 20
71.37
 21
71.214
  0
LINE
  8
0
 10
140.882
 11
141.115
 20
71.214
 21
71.004
  0
LINE
  8
0
 10
141.115
 11
141.299
 20
71.004
 21
70.75
  0
LINE
  8
0
 10
141.299
 11
141.427
 20
70.75
 21
70.464
  0
LINE
  8
0
 10
141.427
 11
141.492
 20
70.464
 21
70.157
  0
LINE
  8
0
 10
141.492
 11
141.492
 20
70.157
 21
69.843
  0
LINE
  8
0
 10
141.492
 11
141.427
 20
69.843
 21
69.536
  0
LINE
  8
0
 10
141.427
 11
141.299
 20
69.536
 21
69.25
  0
LINE
  8
0
 10
141.299
 11
141.115
 20
69.25
 21
68.996
  0
LINE
  8
0
 10
141.115
 11
140.882
 20
68.996
 21
68.786
  0
LINE
  8
0
 10
140.882
 11
140.61
 20
68.786
 21
68.63
  0
LINE
  8
0
 10
140.61
 11
140.312
 20
68.63
 21
68.533
  0
LINE
  8
0
 10
140.312
 11
140
 20
68.533
 21
68.5
  0
LINE
  8
0
 10
140
 11
139.688
 20
68.5
 21
68.533
  0
LINE
  8
0
 10
139.688
 11
139.39
 20
68.533
 21
68.63
  0
LINE
  8
0
 10
139.39
 11
139.118
 20
68.63
 21
68.786
  0
LINE
  8
0
 10
139.118
 11
138.885
 20
68.786
 21
68.996
  0
LINE
  8
0
 10
138.885
 11
138.701
 20
68.996
 21
69.25
  0
LINE
  8
0
 10
138.701
 11
138.573
 20
69.25
 21
69.536
  0
LINE
  8
0
 10
138.573
 11
138.508
 20
69.536
 21
69.843
  0
LINE
  8
0
 10
138.508
 11
138.508
 20
129.843
 21
130.157
  0
LINE
  8
0
 10
138.508
 11
138.573
 20
130.157
 21
130.464
  0
LINE
  8
0
 10
138.573
 11
138.701
 20
130.464
 21
130.75
  0
LINE
  8
0
 10
138.701
 11
138.885
 20
130.75
 21
131.004
  0
LINE
  8
0
 10
138.885
 11
139.118
 20
131.004
 21
131.214
  0
LINE
  8
0
 10
139.118
 11
139.39
 20
131.214
 21
131.37
  0
LINE
  8
0
 10
139.39
 11
139.688
 20
131.37
 21
131.467
  0
LINE
  8
0
 10
139.688
 11
140
 20
131.467
 21
131.5
  0
LINE
  8
0
 10
140
 11
140.312
 20
131.5
 21
131.467
  0
LINE
  8
0
 10
140.312
 11
140.61
 20
131.467
 21
131.37
  0
LINE
  8
0
 10
140.61
 11
140.882
 20
131.37
 21
131.214
  0
LINE
  8
0
 10
140.882
 11
141.115
 20
131.214
 21
131.004
  0
LINE
  8
0
 10
141.115
 11
141.299
 20
131.004
 21
130.75
  0
LINE
  8
0
 10
141.299
 11
141.427
 20
130.75
 21
130.464
  0
LINE
  8
0
 10
141.427
 11
141.492
 20
130.464
 21
130.157
  0
LINE
  8
0
 10
141.492
 11
141.492
 20
130.157
 21
129.843
  0
LINE
  8
0
 10
141.492
 11
141.427
 20
129.843
 21
129.536
  0
LINE
  8
0
 10
141.427
 11
141.299
 20
129.536
 21
129.25
  0
LINE
  8
0
 10
141.299
 11
141.115
 20
129.25
 21
128.996
  0
LINE
  8
0
 10
141.115
 11
140.882
 20
128.996
 21
128.786
  0
LINE
  8
0
 10
140.882
 11
140.61
 20
128.786
 21
128.63
  0
LINE
  8
0
 10
140.61
 11
140.312
 20
128.63
 21
128.533
  0
LINE
  8
0
 10
140.312
 11
140
 20
128.533
 21
128.5
  0
LINE
  8
0
 10
140
 11
139.688
 20
128.5
 21
128.533
  0
LINE
  8
0
 10
139.688
 11
139.39
 20
128.533
 21
128.63
  0
LINE
  8
0
 10
139.39
 11
139.118
 20
128.63
 21
128.786
  0
LINE
  8
0
 10
139.118
 11
138.885
 20
128.786
 21
128.996
  0
LINE
  8
0
 10
138.885
 11
138.701
 20
128.996
 21
129.25
  0
LINE
  8
0
 10
138.701
 11
138.573
 20
129.25
 21
129.536
  0
LINE
  8
0
 10
138.573
 11
138.508
 20
129.536
 21
129.843
  0
LINE
  8
0
 10
138.508
 11
138.508
 20
189.843
 21
190.157
  0
LINE
  8
0
 10
138.508
 11
138.573
 20
190.157
 21
190.464
  0
LINE
  8
0
 10
138.573
 11
138.701
 20
190.464
 21
190.75
  0
LINE
  8
0
 10
138.701
 11
138.885
 20
190.75
 21
191.004
  0
LINE
  8
0
 10
138.885
 11
139.118
 20
191.004
 21
191.214
  0
LINE
  8
0
 10
139.118
 11
139.39
 20
191.214
 21
191.37
  0
LINE
  8
0
 10
139.39
 11
139.688
 20
191.37
 21
191.467
  0
LINE
  8
0
 10
139.688
 11
140
 20
191.467
 21
191.5
  0
LINE
  8
0
 10
140
 11
140.312
 20
191.5
 21
191.467
  0
LINE
  8
0
 10
140.312
 11
140.61
 20
191.467
 21
191.37
  0
LINE
  8
0
 10
140.61
 11
140.882
 20
191.37
 21
191.214
  0
LINE
  8
0
 10
140.882
 11
141.115
 20
191.214
 21
191.004
  0
LINE
  8
0
 10
141.115
 11
141.299
 20
191.004
 21
190.75
  0
LINE
  8
0
 10
141.299
 11
141.427
 20
190.75
 21
190.464
  0
LINE
  8
0
 10
141.427
 11
141.492
 20
190.464
 21
190.157
  0
LINE
  8
0
 10
141.492
 11
141.492
 20
190.157
 21
189.843
  0
LINE
  8
0
 10
141.492
 11
141.427
 20
189.843
 21
189.536
  0
LINE
  8
0
 10
141.427
 11
141.299
 20
189.536
 21
189.25
  0
LINE
  8
0
 10
141.299
 11
141.115
 20
189.25
 21
188.996
  0
LINE
  8
0
 10
141.115
 11
140.882
 20
188.996
 21
188.786
  0
LINE
  8
0
 10
140.882
 11
140.61
 20
188.786
 21
188.63
  0
LINE
  8
0
 10
140.61
 11
140.312
 20
188.63
 21
188.533
  0
LINE
  8
0
 10
140.312
 11
140
 20
188.533
 21
188.5
  0
LINE
  8
0
 10
140
 11
139.688
 20
188.5
 21
188.533
  0
LINE
  8
0
 10
139.688
 11
139.39
 20
188.533
 21
188.63
  0
LINE
  8
0
 10
139.39
 11
139.118
 20
188.63
 21
188.786
  0
LINE
  8
0
 10
139.118
 11
138.885
 20
188.786
 21
188.996
  0
LINE
  8
0
 10
138.885
 11
138.701
 20
188.996
 21
189.25
  0
LINE
  8
0
 10
138.701
 11
138.573
 20
189.25
 21
189.536
  0
LINE
  8
0
 10
138.573
 11
138.508
 20
189.536
 21
189.843
  0
LINE
  8
0
 10
144.75
 11
144.75
 20
237.2
 21
242.2
  0
LINE
  8
0
 10
144.75
 11
151.25
 20
242.2
 21
242.2
  0
LINE
  8
0
 10
151.25
 11
151.25
 20
242.2
 21
237.2
  0
LINE
  8
0
 10
151.25
 11
144.75
 20
237.2
 21
237.2
  0
LINE
  8
0
 10
144.75
 11
144.75
 20
262.2
 21
267.2
  0
LINE
  8
0
 10
144.75
 11
151.25
 20
267.2
 21
267.2
  0
LINE
  8
0
 10
151.25
 11
151.25
 20
267.2
 21
262.2
  0
LINE
  8
0
 10
151.25
 11
144.75
 20
262.2
 21
262.2
  0
LINE
  8
0
 10
144.75
 11
144.75
 20
327.2
 21
332.2
  0
LINE
  8
0
 10
144.75
 11
151.25
 20
332.2
 21
332.2
  0
LINE
  8
0
 10
151.25
 11
151.25
 20
332.2
 21
327.2
  0
LINE
  8
0
 10
151.25
 11
144.75
 20
327.2
 21
327.2
  0
LINE
  8
0
 10
144.75
 11
144.75
 20
352.2
 21
357.2
  0
LINE
  8
0
 10
144.75
 11
151.25
 20
357.2
 21
357.2
  0
LINE
  8
0
 10
151.25
 11
151.25
 20
357.2
 21
352.2
  0
LINE
  8
0
 10
151.25
 11
144.75
 20
352.2
 21
352.2
  0
LINE
  8
0
 10
146.5
 11
146.573
 20
252.2
 21
252.664
  0
LINE
  8
0
 10
146.573
 11
146.786
 20
252.664
 21
253.082
  0
LINE
  8
0
 10
146.786
 11
147.118
 20
253.082
 21
253.414
  0
LINE
  8
0
 10
147.118
 11
147.536
 20
253.414
 21
253.627
  0
LINE
  8
0
 10
147.536
 11
148
 20
253.627
 21
253.7
  0
LINE
  8
0
 10
148
 11
148.464
 20
253.7
 21
253.627
  0
LINE
  8
0
 10
148.464
 11
148.882
 20
253.627
 21
253.414
  0
LINE
  8
0
 10
148.882
 11
149.214
 20
253.414
 21
253.082
  0
LINE
  8
0
 10
149.214
 11
149.427
 20
253.082
 21
252.664
  0
LINE
  8
0
 10
149.427
 11
149.5
 20
252.664
 21
252.2
  0
LINE
  8
0
 10
149.5
 11
149.427
 20
252.2
 21
251.736
  0
LINE
  8
0
 10
149.427
 11
149.214
 20
251.736
 21
251.318
  0
LINE
  8
0
 10
149.214
 11
148.882
 20
251.318
 21
250.986
  0
LINE
  8
0
 10
148.882
 11
148.464
 20
250.986
 21
250.773
  0
LINE
  8
0
 10
148.464
 11
148
 20
250.773
 21
250.7
  0
LINE
  8
0
 10
148
 11
147.536
 20
250.7
 21
250.773
  0
LINE
  8
0
 10
147.536
 11
147.118
 20
250.773
 21
250.986
  0
LINE
  8
0
 10
147.118
 11
146.786
 20
250.986
 21
251.318
  0
LINE
  8
0
 10
146.786
 11
146.573
 20
251.318
 21
251.736
  0
LINE
  8
0
 10
146.573
 11
146.5
 20
251.736
 21
252.2
  0
LINE
  8
0
 10
146.5
 11
146.573
 20
342.2
 21
342.664
  0
LINE
  8
0
 10
146.573
 11
146.786
 20
342.664
 21
343.082
  0
LINE
  8
0
 10
146.786
 11
147.118
 20
343.082
 21
343.414
  0
LINE
  8
0
 10
147.118
 11
147.536
 20
343.414
 21
343.627
  0
LINE
  8
0
 10
147.536
 11
148
 20
343.627
 21
343.7
  0
LINE
  8
0
 10
148
 11
148.464
 20
343.7
 21
343.627
  0
LINE
  8
0
 10
148.464
 11
148.882
 20
343.627
 21
343.414
  0
LINE
  8
0
 10
148.882
 11
149.214
 20
343.414
 21
343.082
  0
LINE
  8
0
 10
149.214
 11
149.427
 20
343.082
 21
342.664
  0
LINE
  8
0
 10
149.427
 11
149.5
 20
342.664
 21
342.2
  0
LINE
  8
0
 10
149.5
 11
149.427
 20
342.2
 21
341.736
  0
LINE
  8
0
 10
149.427
 11
149.214
 20
341.736
 21
341.318
  0
LINE
  8
0
 10
149.214
 11
148.882
 20
341.318
 21
340.986
  0
LINE
  8
0
 10
148.882
 11
148.464
 20
340.986
 21
340.773
  0
LINE
  8
0
 10
148.464
 11
148
 20
340.773
 21
340.7
  0
LINE
  8
0
 10
148
 11
147.536
 20
340.7
 21
340.773
  0
LINE
  8
0
 10
147.536
 11
147.118
 20
340.773
 21
340.986
  0
LINE
  8
0
 10
147.118
 11
146.786
 20
340.986
 21
341.318
  0
LINE
  8
0
 10
146.786
 11
146.573
 20
341.318
 21
341.736
  0
LINE
  8
0
 10
146.573
 11
146.5
 20
341.736
 21
342.2
  0
LINE
  8
0
 10
148.5
 11
148.533
 20
44
 21
44.312
  0
LINE
  8
0
 10
148.533
 11
148.63
 20
44.312
 21
44.61
  0
LINE
  8
0
 10
148.63
 11
148.786
 20
44.61
 21
44.882
  0
LINE
  8
0
 10
148.786
 11
148.996
 20
44.882
 21
45.115
  0
LINE
  8
0
 10
148.996
 11
149.25
 20
45.115
 21
45.299
  0
LINE
  8
0
 10
149.25
 11
149.536
 20
45.299
 21
45.427
  0
LINE
  8
0
 10
149.536
 11
149.843
 20
45.427
 21
45.492
  0
LINE
  8
0
 10
149.843
 11
150.157
 20
45.492
 21
45.492
  0
LINE
  8
0
 10
150.157
 11
150.464
 20
45.492
 21
45.427
  0
LINE
  8
0
 10
150.464
 11
150.75
 20
45.427
 21
45.299
  0
LINE
  8
0
 10
150.75
 11
151.004
 20
45.299
 21
45.115
  0
LINE
  8
0
 10
151.004
 11
151.214
 20
45.115
 21
44.882
  0
LINE
  8
0
 10
151.214
 11
151.37
 20
44.882
 21
44.61
  0
LINE
  8
0
 10
151.37
 11
151.467
 20
44.61
 21
44.312
  0
LINE
  8
0
 10
151.467
 11
151.5
 20
44.312
 21
44
  0
LINE
  8
0
 10
151.5
 11
151.467
 20
44
 21
43.688
  0
LINE
  8
0
 10
151.467
 11
151.37
 20
43.688
 21
43.39
  0
LINE
  8
0
 10
151.37
 11
151.214
 20
43.39
 21
43.118
  0
LINE
  8
0
 10
151.214
 11
151.004
 20
43.118
 21
42.885
  0
LINE
  8
0
 10
151.004
 11
150.75
 20
42.885
 21
42.701
  0
LINE
  8
0
 10
150.75
 11
150.464
 20
42.701
 21
42.573
  0
LINE
  8
0
 10
150.464
 11
150.157
 20
42.573
 21
42.508
  0
LINE
  8
0
 10
150.157
 11
149.843
 20
42.508
 21
42.508
  0
LINE
  8
0
 10
149.843
 11
149.536
 20
42.508
 21
42.573
  0
LINE
  8
0
 10
149.536
 11
149.25
 20
42.573
 21
42.701
  0
LINE
  8
0
 10
149.25
 11
148.996
 20
42.701
 21
42.885
  0
LINE
  8
0
 10
148.996
 11
148.786
 20
42.885
 21
43.118
  0
LINE
  8
0
 10
148.786
 11
148.63
 20
43.118
 21
43.39
  0
LINE
  8
0
 10
148.63
 11
148.533
 20
43.39
 21
43.688
  0
LINE
  8
0
 10
148.533
 11
148.5
 20
43.688
 21
44
  0
LINE
  8
0
 10
148.5
 11
148.533
 20
56
 21
56.312
  0
LINE
  8
0
 10
148.533
 11
148.63
 20
56.312
 21
56.61
  0
LINE
  8
0
 10
148.63
 11
148.786
 20
56.61
 21
56.882
  0
LINE
  8
0
 10
148.786
 11
148.996
 20
56.882
 21
57.115
  0
LINE
  8
0
 10
148.996
 11
149.25
 20
57.115
 21
57.299
  0
LINE
  8
0
 10
149.25
 11
149.536
 20
57.299
 21
57.427
  0
LINE
  8
0
 10
149.536
 11
149.843
 20
57.427
 21
57.492
  0
LINE
  8
0
 10
149.843
 11
150.157
 20
57.492
 21
57.492
  0
LINE
  8
0
 10
150.157
 11
150.464
 20
57.492
 21
57.427
  0
LINE
  8
0
 10
150.464
 11
150.75
 20
57.427
 21
57.299
  0
LINE
  8
0
 10
150.75
 11
151.004
 20
57.299
 21
57.115
  0
LINE
  8
0
 10
151.004
 11
151.214
 20
57.115
 21
56.882
  0
LINE
  8
0
 10
151.214
 11
151.37
 20
56.882
 21
56.61
  0
LINE
  8
0
 10
151.37
 11
151.467
 20
56.61
 21
56.312
  0
LINE
  8
0
 10
151.467
 11
151.5
 20
56.312
 21
56
  0
LINE
  8
0
 10
151.5
 11
151.467
 20
56
 21
55.688
  0
LINE
  8
0
 10
151.467
 11
151.37
 20
55.688
 21
55.39
  0
LINE
  8
0
 10
151.37
 11
151.214
 20
55.39
 21
55.118
  0
LINE
  8
0
 10
151.214
 11
151.004
 20
55.118
 21
54.885
  0
LINE
  8
0
 10
151.004
 11
150.75
 20
54.885
 21
54.701
  0
LINE
  8
0
 10
150.75
 11
150.464
 20
54.701
 21
54.573
  0
LINE
  8
0
 10
150.464
 11
150.157
 20
54.573
 21
54.508
  0
LINE
  8
0
 10
150.157
 11
149.843
 20
54.508
 21
54.508
  0
LINE
  8
0
 10
149.843
 11
149.536
 20
54.508
 21
54.573
  0
LINE
  8
0
 10
149.536
 11
149.25
 20
54.573
 21
54.701
  0
LINE
  8
0
 10
149.25
 11
148.996
 20
54.701
 21
54.885
  0
LINE
  8
0
 10
148.996
 11
148.786
 20
54.885
 21
55.118
  0
LINE
  8
0
 10
148.786
 11
148.63
 20
55.118
 21
55.39
  0
LINE
  8
0
 10
148.63
 11
148.533
 20
55.39
 21
55.688
  0
LINE
  8
0
 10
148.533
 11
148.5
 20
55.688
 21
56
  0
LINE
  8
0
 10
172
 11
172
 20
205
 21
252.026
  0
LINE
  8
0
 10
172
 11
179.25
 20
252.026
 21
252.026
  0
LINE
  8
0
 10
179.25
 11
179.25
 20
252.026
 21
258.026
  0
LINE
  8
0
 10
179.25
 11
184.25
 20
258.026
 21
258.026
  0
LINE
  8
0
 10
184.25
 11
184.25
 20
258.026
 21
252.026
  0
LINE
  8
0
 10
184.25
 11
190
 20
252.026
 21
252.026
  0
LINE
  8
0
 10
190
 11
190
 20
252.026
 21
246.526
  0
LINE
  8
0
 10
190
 11
188.5
 20
246.526
 21
246.526
  0
LINE
  8
0
 10
188.5
 11
188.5
 20
246.526
 21
243.526
  0
LINE
  8
0
 10
188.5
 11
190
 20
243.526
 21
243.526
  0
LINE
  8
0
 10
190
 11
190
 20
243.526
 21
242.026
  0
LINE
  8
0
 10
190
 11
193
 20
242.026
 21
242.026
  0
LINE
  8
0
 10
193
 11
193
 20
242.026
 21
243.526
  0
LINE
  8
0
 10
193
 11
194.5
 20
243.526
 21
243.526
  0
LINE
  8
0
 10
194.5
 11
194.5
 20
243.526
 21
246.526
  0
LINE
  8
0
 10
194.5
 11
193
 20
246.526
 21
246.526
  0
LINE
  8
0
 10
193
 11
193
 20
246.526
 21
252.026
  0
LINE
  8
0
 10
193
 11
198.75
 20
252.026
 21
252.026
  0
LINE
  8
0
 10
198.75
 11
198.75
 20
252.026
 21
258.026
  0
LINE
  8
0
 10
198.75
 11
203.75
 20
258.026
 21
258.026
  0
LINE
  8
0
 10
203.75
 11
203.75
 20
258.026
 21
252.026
  0
LINE
  8
0
 10
203.75
 11
211
 20
252.026
 21
252.026
  0
LINE
  8
0
 10
211
 11
211
 20
252.026
 21
242.77
  0
LINE
  8
0
 10
211
 11
217
 20
242.77
 21
242.77
  0
LINE
  8
0
 10
217
 11
217
 20
242.77
 21
237.77
  0
LINE
  8
0
 10
217
 11
211
 20
237.77
 21
237.77
  0
LINE
  8
0
 10
211
 11
211
 20
237.77
 21
230.013
  0
LINE
  8
0
 10
211
 11
205.5
 20
230.013
 21
230.013
  0
LINE
  8
0
 10
205.5
 11
205.5
 20
230.013
 21
231.513
  0
LINE
  8
0
 10
205.5
 11
202.5
 20
231.513
 21
231.513
  0
LINE
  8
0
 10
202.5
 11
202.5
 20
231.513
 21
230.013
  0
LINE
  8
0
 10
202.5
 11
201
 20
230.013
 21
230.013
  0
LINE
  8
0
 10
201
 11
201
 20
230.013
 21
227.013
  0
LINE
  8
0
 10
201
 11
202.5
 20
227.013
 21
227.013
  0
LINE
  8
0
 10
202.5
 11
202.5
 20
227.013
 21
225.513
  0
LINE
  8
0
 10
202.5
 11
205.5
 20
225.513
 21
225.513
  0
LINE
  8
0
 10
205.5
 11
205.5
 20
225.513
 21
227.013
  0
LINE
  8
0
 10
205.5
 11
211
 20
227.013
 21
227.013
  0
LINE
  8
0
 10
211
 11
211
 20
227.013
 21
219.257
  0
LINE
  8
0
 10
211
 11
217
 20
219.257
 21
219.257
  0
LINE
  8
0
 10
217
 11
217
 20
219.257
 21
214.257
  0
LINE
  8
0
 10
217
 11
211
 20
214.257
 21
214.257
  0
LINE
  8
0
 10
211
 11
211
 20
214.257
 21
205
  0
LINE
  8
0
 10
211
 11
203.75
 20
205
 21
205
  0
LINE
  8
0
 10
203.75
 11
203.75
 20
205
 21
199
  0
LINE
  8
0
 10
203.75
 11
198.75
 20
199
 21
199
  0
LINE
  8
0
 10
198.75
 11
198.75
 20
199
 21
205
  0
LINE
  8
0
 10
198.75
 11
193
 20
205
 21
205
  0
LINE
  8
0
 10
193
 11
193
 20
205
 21
210.5
  0
LINE
  8
0
 10
193
 11
194.5
 20
210.5
 21
210.5
  0
LINE
  8
0
 10
194.5
 11
194.5
 20
210.5
 21
213.5
  0
LINE
  8
0
 10
194.5
 11
193
 20
213.5
 21
213.5
  0
LINE
  8
0
 10
193
 11
193
 20
213.5
 21
215
  0
LINE
  8
0
 10
193
 11
190
 20
215
 21
215
  0
LINE
  8
0
 10
190
 11
190
 20
215
 21
213.5
  0
LINE
  8
0
 10
190
 11
188.5
 20
213.5
 21
213.5
  0
LINE
  8
0
 10
188.5
 11
188.5
 20
213.5
 21
210.5
  0
LINE
  8
0
 10
188.5
 11
190
 20
210.5
 21
210.5
  0
LINE
  8
0
 10
190
 11
190
 20
210.5
 21
205
  0
LINE
  8
0
 10
190
 11
184.25
 20
205
 21
205
  0
LINE
  8
0
 10
184.25
 11
184.25
 20
205
 21
199
  0
LINE
  8
0
 10
184.25
 11
179.25
 20
199
 21
199
  0
LINE
  8
0
 10
179.25
 11
179.25
 20
199
 21
205
  0
LINE
  8
0
 10
179.25
 11
172
 20
205
 21
205
  0
LINE
  8
0
 10
173
 11
173
 20
117.25
 21
122.25
  0
LINE
  8
0
 10
173
 11
179
 20
122.25
 21
122.25
  0
LINE
  8
0
 10
179
 11
179
 20
122.25
 21
128
  0
LINE
  8
0
 10
179
 11
184.5
 20
128
 21
128
  0
LINE
  8
0
 10
184.5
 11
184.5
 20
128
 21
126.5
  0
LINE
  8
0
 10
184.5
 11
187.5
 20
126.5
 21
126.5
  0
LINE
  8
0
 10
187.5
 11
187.5
 20
126.5
 21
128
  0
LINE
  8
0
 10
187.5
 11
189
 20
128
 21
128
  0
LINE
  8
0
 10
189
 11
189
 20
128
 21
131
  0
LINE
  8
0
 10
189
 11
187.5
 20
131
 21
131
  0
LINE
  8
0
 10
187.5
 11
187.5
 20
131
 21
132.5
  0
LINE
  8
0
 10
187.5
 11
184.5
 20
132.5
 21
132.5
  0
LINE
  8
0
 10
184.5
 11
184.5
 20
132.5
 21
131
  0
LINE
  8
0
 10
184.5
 11
179
 20
131
 21
131
  0
LINE
  8
0
 10
179
 11
179
 20
131
 21
136.75
  0
LINE
  8
0
 10
179
 11
173
 20
136.75
 21
136.75
  0
LINE
  8
0
 10
173
 11
173
 20
136.75
 21
141.75
  0
LINE
  8
0
 10
173
 11
179
 20
141.75
 21
141.75
  0
LINE
  8
0
 10
179
 11
179
 20
141.75
 21
149
  0
LINE
  8
0
 10
179
 11
173
 20
149
 21
149
  0
LINE
  8
0
 10
173
 11
173.393
 20
149
 21
152.742
  0
LINE
  8
0
 10
173.393
 11
174.556
 20
152.742
 21
156.321
  0
LINE
  8
0
 10
174.556
 11
176.438
 20
156.321
 21
159.58
  0
LINE
  8
0
 10
176.438
 11
178.956
 20
159.58
 21
162.377
  0
LINE
  8
0
 10
178.956
 11
182
 20
162.377
 21
164.588
  0
LINE
  8
0
 10
182
 11
185.438
 20
164.588
 21
166.119
  0
LINE
  8
0
 10
185.438
 11
189.118
 20
166.119
 21
166.901
  0
LINE
  8
0
 10
189.118
 11
191
 20
166.901
 21
166.901
  0
LINE
  8
0
 10
191
 11
191
 20
166.901
 21
167
  0
LINE
  8
0
 10
191
 11
214.026
 20
167
 21
167
  0
LINE
  8
0
 10
214.026
 11
214.026
 20
167
 21
166.901
  0
LINE
  8
0
 10
214.026
 11
215.908
 20
166.901
 21
166.901
  0
LINE
  8
0
 10
215.908
 11
219.588
 20
166.901
 21
166.119
  0
LINE
  8
0
 10
219.588
 11
223.026
 20
166.119
 21
164.588
  0
LINE
  8
0
 10
223.026
 11
226.07
 20
164.588
 21
162.377
  0
LINE
  8
0
 10
226.07
 11
228.588
 20
162.377
 21
159.58
  0
LINE
  8
0
 10
228.588
 11
230.47
 20
159.58
 21
156.321
  0
LINE
  8
0
 10
230.47
 11
231.633
 20
156.321
 21
152.742
  0
LINE
  8
0
 10
231.633
 11
232.026
 20
152.742
 21
149
  0
LINE
  8
0
 10
232.026
 11
226.026
 20
149
 21
149
  0
LINE
  8
0
 10
226.026
 11
226.026
 20
149
 21
141.75
  0
LINE
  8
0
 10
226.026
 11
232.026
 20
141.75
 21
141.75
  0
LINE
  8
0
 10
232.026
 11
232.026
 20
141.75
 21
136.75
  0
LINE
  8
0
 10
232.026
 11
226.026
 20
136.75
 21
136.75
  0
LINE
  8
0
 10
226.026
 11
226.026
 20
136.75
 21
131
  0
LINE
  8
0
 10
226.026
 11
220.526
 20
131
 21
131
  0
LINE
  8
0
 10
220.526
 11
220.526
 20
131
 21
132.5
  0
LINE
  8
0
 10
220.526
 11
217.526
 20
132.5
 21
132.5
  0
LINE
  8
0
 10
217.526
 11
217.526
 20
132.5
 21
131
  0
LINE
  8
0
 10
217.526
 11
216.026
 20
131
 21
131
  0
LINE
  8
0
 10
216.026
 11
216.026
 20
131
 21
128
  0
LINE
  8
0
 10
216.026
 11
217.526
 20
128
 21
128
  0
LINE
  8
0
 10
217.526
 11
217.526
 20
128
 21
126.5
  0
LINE
  8
0
 10
217.526
 11
220.526
 20
126.5
 21
126.5
  0
LINE
  8
0
 10
220.526
 11
220.526
 20
126.5
 21
128
  0
LINE
  8
0
 10
220.526
 11
226.026
 20
128
 21
128
  0
LINE
  8
0
 10
226.026
 11
226.026
 20
128
 21
122.25
  0
LINE
  8
0
 10
226.026
 11
232.026
 20
122.25
 21
122.25
  0
LINE
  8
0
 10
232.026
 11
232.026
 20
122.25
 21
117.25
  0
LINE
  8
0
 10
232.026
 11
226.026
 20
117.25
 21
117.25
  0
LINE
  8
0
 10
226.026
 11
226.026
 20
117.25
 21
110
  0
LINE
  8
0
 10
226.026
 11
216.77
 20
110
 21
110
  0
LINE
  8
0
 10
216.77
 11
216.77
 20
110
 21
104
  0
LINE
  8
0
 10
216.77
 11
211.77
 20
104
 21
104
  0
LINE
  8
0
 10
211.77
 11
211.77
 20
104
 21
110
  0
LINE
  8
0
 10
211.77
 11
204.013
 20
110
 21
110
  0
LINE
  8
0
 10
204.013
 11
204.013
 20
110
 21
115.5
  0
LINE
  8
0
 10
204.013
 11
205.513
 20
115.5
 21
115.5
  0
LINE
  8
0
 10
205.513
 11
205.513
 20
115.5
 21
118.5
  0
LINE
  8
0
 10
205.513
 11
204.013
 20
118.5
 21
118.5
  0
LINE
  8
0
 10
204.013
 11
204.013
 20
118.5
 21
120
  0
LINE
  8
0
 10
204.013
 11
201.013
 20
120
 21
120
  0
LINE
  8
0
 10
201.013
 11
201.013
 20
120
 21
118.5
  0
LINE
  8
0
 10
201.013
 11
199.513
 20
118.5
 21
118.5
  0
LINE
  8
0
 10
199.513
 11
199.513
 20
118.5
 21
115.5
  0
LINE
  8
0
 10
199.513
 11
201.013
 20
115.5
 21
115.5
  0
LINE
  8
0
 10
201.013
 11
201.013
 20
115.5
 21
110
  0
LINE
  8
0
 10
201.013
 11
193.257
 20
110
 21
110
  0
LINE
  8
0
 10
193.257
 11
193.257
 20
110
 21
104
  0
LINE
  8
0
 10
193.257
 11
188.257
 20
104
 21
104
  0
LINE
  8
0
 10
188.257
 11
188.257
 20
104
 21
110
  0
LINE
  8
0
 10
188.257
 11
179
 20
110
 21
110
  0
LINE
  8
0
 10
179
 11
179
 20
110
 21
117.25
  0
LINE
  8
0
 10
179
 11
173
 20
117.25
 21
117.25
  0
LINE
  8
0
 10
174.1
 11
174.198
 20
174.6
 21
175.536
  0
LINE
  8
0
 10
174.198
 11
174.489
 20
175.536
 21
176.43
  0
LINE
  8
0
 10
174.489
 11
174.959
 20
176.43
 21
177.245
  0
LINE
  8
0
 10
174.959
 11
175.589
 20
177.245
 21
177.944
  0
LINE
  8
0
 10
175.589
 11
176.35
 20
177.944
 21
178.497
  0
LINE
  8
0
 10
176.35
 11
177.209
 20
178.497
 21
178.88
  0
LINE
  8
0
 10
177.209
 11
178.13
 20
178.88
 21
179.075
  0
LINE
  8
0
 10
178.13
 11
179.07
 20
179.075
 21
179.075
  0
LINE
  8
0
 10
179.07
 11
179.991
 20
179.075
 21
178.88
  0
LINE
  8
0
 10
179.991
 11
180.85
 20
178.88
 21
178.497
  0
LINE
  8
0
 10
180.85
 11
181.611
 20
178.497
 21
177.944
  0
LINE
  8
0
 10
181.611
 11
182.241
 20
177.944
 21
177.245
  0
LINE
  8
0
 10
182.241
 11
182.711
 20
177.245
 21
176.43
  0
LINE
  8
0
 10
182.711
 11
183.002
 20
176.43
 21
175.536
  0
LINE
  8
0
 10
183.002
 11
183.1
 20
175.536
 21
174.6
  0
LINE
  8
0
 10
183.1
 11
183.002
 20
174.6
 21
173.664
  0
LINE
  8
0
 10
183.002
 11
182.711
 20
173.664
 21
172.77
  0
LINE
  8
0
 10
182.711
 11
182.241
 20
172.77
 21
171.955
  0
LINE
  8
0
 10
182.241
 11
181.611
 20
171.955
 21
171.256
  0
LINE
  8
0
 10
181.611
 11
180.85
 20
171.256
 21
170.703
  0
LINE
  8
0
 10
180.85
 11
179.991
 20
170.703
 21
170.32
  0
LINE
  8
0
 10
179.991
 11
179.07
 20
170.32
 21
170.125
  0
LINE
  8
0
 10
179.07
 11
178.13
 20
170.125
 21
170.125
  0
LINE
  8
0
 10
178.13
 11
177.209
 20
170.125
 21
170.32
  0
LINE
  8
0
 10
177.209
 11
176.35
 20
170.32
 21
170.703
  0
LINE
  8
0
 10
176.35
 11
175.589
 20
170.703
 21
171.256
  0
LINE
  8
0
 10
175.589
 11
174.959
 20
171.256
 21
171.955
  0
LINE
  8
0
 10
174.959
 11
174.489
 20
171.955
 21
172.77
  0
LINE
  8
0
 10
174.489
 11
174.198
 20
172.77
 21
173.664
  0
LINE
  8
0
 10
174.198
 11
174.1
 20
173.664
 21
174.6
  0
LINE
  8
0
 10
174.1
 11
174.198
 20
184.2
 21
185.136
  0
LINE
  8
0
 10
174.198
 11
174.489
 20
185.136
 21
186.03
  0
LINE
  8
0
 10
174.489
 11
174.959
 20
186.03
 21
186.845
  0
LINE
  8
0
 10
174.959
 11
175.589
 20
186.845
 21
187.544
  0
LINE
  8
0
 10
175.589
 11
176.35
 20
187.544
 21
188.097
  0
LINE
  8
0
 10
176.35
 11
177.209
 20
188.097
 21
188.48
  0
LINE
  8
0
 10
177.209
 11
178.13
 20
188.48
 21
188.675
  0
LINE
  8
0
 10
178.13
 11
179.07
 20
188.675
 21
188.675
  0
LINE
  8
0
 10
179.07
 11
179.991
 20
188.675
 21
188.48
  0
LINE
  8
0
 10
179.991
 11
180.85
 20
188.48
 21
188.097
  0
LINE
  8
0
 10
180.85
 11
181.611
 20
188.097
 21
187.544
  0
LINE
  8
0
 10
181.611
 11
182.241
 20
187.544
 21
186.845
  0
LINE
  8
0
 10
182.241
 11
182.711
 20
186.845
 21
186.03
  0
LINE
  8
0
 10
182.711
 11
183.002
 20
186.03
 21
185.136
  0
LINE
  8
0
 10
183.002
 11
183.1
 20
185.136
 21
184.2
  0
LINE
  8
0
 10
183.1
 11
183.002
 20
184.2
 21
183.264
  0
LINE
  8
0
 10
183.002
 11
182.711
 20
183.264
 21
182.37
  0
LINE
  8
0
 10
182.711
 11
182.241
 20
182.37
 21
181.555
  0
LINE
  8
0
 10
182.241
 11
181.611
 20
181.555
 21
180.856
  0
LINE
  8
0
 10
181.611
 11
180.85
 20
180.856
 21
180.303
  0
LINE
  8
0
 10
180.85
 11
179.991
 20
180.303
 21
179.92
  0
LINE
  8
0
 10
179.991
 11
179.07
 20
179.92
 21
179.725
  0
LINE
  8
0
 10
179.07
 11
178.13
 20
179.725
 21
179.725
  0
LINE
  8
0
 10
178.13
 11
177.209
 20
179.725
 21
179.92
  0
LINE
  8
0
 10
177.209
 11
176.35
 20
179.92
 21
180.303
  0
LINE
  8
0
 10
176.35
 11
175.589
 20
180.303
 21
180.856
  0
LINE
  8
0
 10
175.589
 11
174.959
 20
180.856
 21
181.555
  0
LINE
  8
0
 10
174.959
 11
174.489
 20
181.555
 21
182.37
  0
LINE
  8
0
 10
174.489
 11
174.198
 20
182.37
 21
183.264
  0
LINE
  8
0
 10
174.198
 11
174.1
 20
183.264
 21
184.2
  0
LINE
  8
0
 10
177.1
 11
177.133
 20
174.6
 21
174.912
  0
LINE
  8
0
 10
177.133
 11
177.23
 20
174.912
 21
175.21
  0
LINE
  8
0
 10
177.23
 11
177.386
 20
175.21
 21
175.482
  0
LINE
  8
0
 10
177.386
 11
177.596
 20
175.482
 21
175.715
  0
LINE
  8
0
 10
177.596
 11
177.85
 20
175.715
 21
175.899
  0
LINE
  8
0
 10
177.85
 11
178.136
 20
175.899
 21
176.027
  0
LINE
  8
0
 10
178.136
 11
178.443
 20
176.027
 21
176.092
  0
LINE
  8
0
 10
178.443
 11
178.757
 20
176.092
 21
176.092
  0
LINE
  8
0
 10
178.757
 11
179.064
 20
176.092
 21
176.027
  0
LINE
  8
0
 10
179.064
 11
179.35
 20
176.027
 21
175.899
  0
LINE
  8
0
 10
179.35
 11
179.604
 20
175.899
 21
175.715
  0
LINE
  8
0
 10
179.604
 11
179.814
 20
175.715
 21
175.482
  0
LINE
  8
0
 10
179.814
 11
179.97
 20
175.482
 21
175.21
  0
LINE
  8
0
 10
179.97
 11
180.067
 20
175.21
 21
174.912
  0
LINE
  8
0
 10
180.067
 11
180.1
 20
174.912
 21
174.6
  0
LINE
  8
0
 10
180.1
 11
180.067
 20
174.6
 21
174.288
  0
LINE
  8
0
 10
180.067
 11
179.97
 20
174.288
 21
173.99
  0
LINE
  8
0
 10
179.97
 11
179.814
 20
173.99
 21
173.718
  0
LINE
  8
0
 10
179.814
 11
179.604
 20
173.718
 21
173.485
  0
LINE
  8
0
 10
179.604
 11
179.35
 20
173.485
 21
173.301
  0
LINE
  8
0
 10
179.35
 11
179.064
 20
173.301
 21
173.173
  0
LINE
  8
0
 10
179.064
 11
178.757
 20
173.173
 21
173.108
  0
LINE
  8
0
 10
178.757
 11
178.443
 20
173.108
 21
173.108
  0
LINE
  8
0
 10
178.443
 11
178.136
 20
173.108
 21
173.173
  0
LINE
  8
0
 10
178.136
 11
177.85
 20
173.173
 21
173.301
  0
LINE
  8
0
 10
177.85
 11
177.596
 20
173.301
 21
173.485
  0
LINE
  8
0
 10
177.596
 11
177.386
 20
173.485
 21
173.718
  0
LINE
  8
0
 10
177.386
 11
177.23
 20
173.718
 21
173.99
  0
LINE
  8
0
 10
177.23
 11
177.133
 20
173.99
 21
174.288
  0
LINE
  8
0
 10
177.133
 11
177.1
 20
174.288
 21
174.6
  0
LINE
  8
0
 10
177.1
 11
177.133
 20
184.2
 21
184.512
  0
LINE
  8
0
 10
177.133
 11
177.23
 20
184.512
 21
184.81
  0
LINE
  8
0
 10
177.23
 11
177.386
 20
184.81
 21
185.082
  0
LINE
  8
0
 10
177.386
 11
177.596
 20
185.082
 21
185.315
  0
LINE
  8
0
 10
177.596
 11
177.85
 20
185.315
 21
185.499
  0
LINE
  8
0
 10
177.85
 11
178.136
 20
185.499
 21
185.627
  0
LINE
  8
0
 10
178.136
 11
178.443
 20
185.627
 21
185.692
  0
LINE
  8
0
 10
178.443
 11
178.757
 20
185.692
 21
185.692
  0
LINE
  8
0
 10
178.757
 11
179.064
 20
185.692
 21
185.627
  0
LINE
  8
0
 10
179.064
 11
179.35
 20
185.627
 21
185.499
  0
LINE
  8
0
 10
179.35
 11
179.604
 20
185.499
 21
185.315
  0
LINE
  8
0
 10
179.604
 11
179.814
 20
185.315
 21
185.082
  0
LINE
  8
0
 10
179.814
 11
179.97
 20
185.082
 21
184.81
  0
LINE
  8
0
 10
179.97
 11
180.067
 20
184.81
 21
184.512
  0
LINE
  8
0
 10
180.067
 11
180.1
 20
184.512
 21
184.2
  0
LINE
  8
0
 10
180.1
 11
180.067
 20
184.2
 21
183.888
  0
LINE
  8
0
 10
180.067
 11
179.97
 20
183.888
 21
183.59
  0
LINE
  8
0
 10
179.97
 11
179.814
 20
183.59
 21
183.318
  0
LINE
  8
0
 10
179.814
 11
179.604
 20
183.318
 21
183.085
  0
LINE
  8
0
 10
179.604
 11
179.35
 20
183.085
 21
182.901
  0
LINE
  8
0
 10
179.35
 11
179.064
 20
182.901
 21
182.773
  0
LINE
  8
0
 10
179.064
 11
178.757
 20
182.773
 21
182.708
  0
LINE
  8
0
 10
178.757
 11
178.443
 20
182.708
 21
182.708
  0
LINE
  8
0
 10
178.443
 11
178.136
 20
182.708
 21
182.773
  0
LINE
  8
0
 10
178.136
 11
177.85
 20
182.773
 21
182.901
  0
LINE
  8
0
 10
177.85
 11
177.596
 20
182.901
 21
183.085
  0
LINE
  8
0
 10
177.596
 11
177.386
 20
183.085
 21
183.318
  0
LINE
  8
0
 10
177.386
 11
177.23
 20
183.318
 21
183.59
  0
LINE
  8
0
 10
177.23
 11
177.133
 20
183.59
 21
183.888
  0
LINE
  8
0
 10
177.133
 11
177.1
 20
183.888
 21
184.2
  0
LINE
  8
0
 10
180
 11
180
 20
270
 21
317.026
  0
LINE
  8
0
 10
180
 11
187.25
 20
317.026
 21
317.026
  0
LINE
  8
0
 10
187.25
 11
187.25
 20
317.026
 21
323.026
  0
LINE
  8
0
 10
187.25
 11
192.25
 20
323.026
 21
323.026
  0
LINE
  8
0
 10
192.25
 11
192.25
 20
323.026
 21
317.026
  0
LINE
  8
0
 10
192.25
 11
198
 20
317.026
 21
317.026
  0
LINE
  8
0
 10
198
 11
198
 20
317.026
 21
311.526
  0
LINE
  8
0
 10
198
 11
196.5
 20
311.526
 21
311.526
  0
LINE
  8
0
 10
196.5
 11
196.5
 20
311.526
 21
308.526
  0
LINE
  8
0
 10
196.5
 11
198
 20
308.526
 21
308.526
  0
LINE
  8
0
 10
198
 11
198
 20
308.526
 21
307.026
  0
LINE
  8
0
 10
198
 11
201
 20
307.026
 21
307.026
  0
LINE
  8
0
 10
201
 11
201
 20
307.026
 21
308.526
  0
LINE
  8
0
 10
201
 11
202.5
 20
308.526
 21
308.526
  0
LINE
  8
0
 10
202.5
 11
202.5
 20
308.526
 21
311.526
  0
LINE
  8
0
 10
202.5
 11
201
 20
311.526
 21
311.526
  0
LINE
  8
0
 10
201
 11
201
 20
311.526
 21
317.026
  0
LINE
  8
0
 10
201
 11
206.75
 20
317.026
 21
317.026
  0
LINE
  8
0
 10
206.75
 11
206.75
 20
317.026
 21
323.026
  0
LINE
  8
0
 10
206.75
 11
211.75
 20
323.026
 21
323.026
  0
LINE
  8
0
 10
211.75
 11
211.75
 20
323.026
 21
317.026
  0
LINE
  8
0
 10
211.75
 11
219
 20
317.026
 21
317.026
  0
LINE
  8
0
 10
219
 11
219
 20
317.026
 21
307.77
  0
LINE
  8
0
 10
219
 11
225
 20
307.77
 21
307.77
  0
LINE
  8
0
 10
225
 11
225
 20
307.77
 21
302.77
  0
LINE
  8
0
 10
225
 11
219
 20
302.77
 21
302.77
  0
LINE
  8
0
 10
219
 11
219
 20
302.77
 21
295.013
  0
LINE
  8
0
 10
219
 11
213.5
 20
295.013
 21
295.013
  0
LINE
  8
0
 10
213.5
 11
213.5
 20
295.013
 21
296.513
  0
LINE
  8
0
 10
213.5
 11
210.5
 20
296.513
 21
296.513
  0
LINE
  8
0
 10
210.5
 11
210.5
 20
296.513
 21
295.013
  0
LINE
  8
0
 10
210.5
 11
209
 20
295.013
 21
295.013
  0
LINE
  8
0
 10
209
 11
209
 20
295.013
 21
292.013
  0
LINE
  8
0
 10
209
 11
210.5
 20
292.013
 21
292.013
  0
LINE
  8
0
 10
210.5
 11
210.5
 20
292.013
 21
290.513
  0
LINE
  8
0
 10
210.5
 11
213.5
 20
290.513
 21
290.513
  0
LINE
  8
0
 10
213.5
 11
213.5
 20
290.513
 21
292.013
  0
LINE
  8
0
 10
213.5
 11
219
 20
292.013
 21
292.013
  0
LINE
  8
0
 10
219
 11
219
 20
292.013
 21
284.257
  0
LINE
  8
0
 10
219
 11
225
 20
284.257
 21
284.257
  0
LINE
  8
0
 10
225
 11
225
 20
284.257
 21
279.257
  0
LINE
  8
0
 10
225
 11
219
 20
279.257
 21
279.257
  0
LINE
  8
0
 10
219
 11
219
 20
279.257
 21
270
  0
LINE
  8
0
 10
219
 11
211.75
 20
270
 21
270
  0
LINE
  8
0
 10
211.75
 11
211.75
 20
270
 21
264
  0
LINE
  8
0
 10
211.75
 11
206.75
 20
264
 21
264
  0
LINE
  8
0
 10
206.75
 11
206.75
 20
264
 21
270
  0
LINE
  8
0
 10
206.75
 11
201
 20
270
 21
270
  0
LINE
  8
0
 10
201
 11
201
 20
270
 21
275.5
  0
LINE
  8
0
 10
201
 11
202.5
 20
275.5
 21
275.5
  0
LINE
  8
0
 10
202.5
 11
202.5
 20
275.5
 21
278.5
  0
LINE
  8
0
 10
202.5
 11
201
 20
278.5
 21
278.5
  0
LINE
  8
0
 10
201
 11
201
 20
278.5
 21
280
  0
LINE
  8
0
 10
201
 11
198
 20
280
 21
280
  0
LINE
  8
0
 10
198
 11
198
 20
280
 21
278.5
  0
LINE
  8
0
 10
198
 11
196.5
 20
278.5
 21
278.5
  0
LINE
  8
0
 10
196.5
 11
196.5
 20
278.5
 21
275.5
  0
LINE
  8
0
 10
196.5
 11
198
 20
275.5
 21
275.5
  0
LINE
  8
0
 10
198
 11
198
 20
275.5
 21
270
  0
LINE
  8
0
 10
198
 11
192.25
 20
270
 21
270
  0
LINE
  8
0
 10
192.25
 11
192.25
 20
270
 21
264
  0
LINE
  8
0
 10
192.25
 11
187.25
 20
264
 21
264
  0
LINE
  8
0
 10
187.25
 11
187.25
 20
264
 21
270
  0
LINE
  8
0
 10
187.25
 11
180
 20
270
 21
270
  0
LINE
  8
0
 10
183.7
 11
183.798
 20
174.6
 21
175.536
  0
LINE
  8
0
 10
183.798
 11
184.089
 20
175.536
 21
176.43
  0
LINE
  8
0
 10
184.089
 11
184.559
 20
176.43
 21
177.245
  0
LINE
  8
0
 10
184.559
 11
185.189
 20
177.245
 21
177.944
  0
LINE
  8
0
 10
185.189
 11
185.95
 20
177.944
 21
178.497
  0
LINE
  8
0
 10
185.95
 11
186.809
 20
178.497
 21
178.88
  0
LINE
  8
0
 10
186.809
 11
187.73
 20
178.88
 21
179.075
  0
LINE
  8
0
 10
187.73
 11
188.67
 20
179.075
 21
179.075
  0
LINE
  8
0
 10
188.67
 11
189.591
 20
179.075
 21
178.88
  0
LINE
  8
0
 10
189.591
 11
190.45
 20
178.88
 21
178.497
  0
LINE
  8
0
 10
190.45
 11
191.211
 20
178.497
 21
177.944
  0
LINE
  8
0
 10
191.211
 11
191.841
 20
177.944
 21
177.245
  0
LINE
  8
0
 10
191.841
 11
192.311
 20
177.245
 21
176.43
  0
LINE
  8
0
 10
192.311
 11
192.602
 20
176.43
 21
175.536
  0
LINE
  8
0
 10
192.602
 11
192.7
 20
175.536
 21
174.6
  0
LINE
  8
0
 10
192.7
 11
192.602
 20
174.6
 21
173.664
  0
LINE
  8
0
 10
192.602
 11
192.311
 20
173.664
 21
172.77
  0
LINE
  8
0
 10
192.311
 11
191.841
 20
172.77
 21
171.955
  0
LINE
  8
0
 10
191.841
 11
191.211
 20
171.955
 21
171.256
  0
LINE
  8
0
 10
191.211
 11
190.45
 20
171.256
 21
170.703
  0
LINE
  8
0
 10
190.45
 11
189.591
 20
170.703
 21
170.32
  0
LINE
  8
0
 10
189.591
 11
188.67
 20
170.32
 21
170.125
  0
LINE
  8
0
 10
188.67
 11
187.73
 20
170.125
 21
170.125
  0
LINE
  8
0
 10
187.73
 11
186.809
 20
170.125
 21
170.32
  0
LINE
  8
0
 10
186.809
 11
185.95
 20
170.32
 21
170.703
  0
LINE
  8
0
 10
185.95
 11
185.189
 20
170.703
 21
171.256
  0
LINE
  8
0
 10
185.189
 11
184.559
 20
171.256
 21
171.955
  0
LINE
  8
0
 10
184.559
 11
184.089
 20
171.955
 21
172.77
  0
LINE
  8
0
 10
184.089
 11
183.798
 20
172.77
 21
173.664
  0
LINE
  8
0
 10
183.798
 11
183.7
 20
173.664
 21
174.6
  0
LINE
  8
0
 10
183.7
 11
183.798
 20
184.2
 21
185.136
  0
LINE
  8
0
 10
183.798
 11
184.089
 20
185.136
 21
186.03
  0
LINE
  8
0
 10
184.089
 11
184.559
 20
186.03
 21
186.845
  0
LINE
  8
0
 10
184.559
 11
185.189
 20
186.845
 21
187.544
  0
LINE
  8
0
 10
185.189
 11
185.95
 20
187.544
 21
188.097
  0
LINE
  8
0
 10
185.95
 11
186.809
 20
188.097
 21
188.48
  0
LINE
  8
0
 10
186.809
 11
187.73
 20
188.48
 21
188.675
  0
LINE
  8
0
 10
187.73
 11
188.67
 20
188.675
 21
188.675
  0
LINE
  8
0
 10
188.67
 11
189.591
 20
188.675
 21
188.48
  0
LINE
  8
0
 10
189.591
 11
190.45
 20
188.48
 21
188.097
  0
LINE
  8
0
 10
190.45
 11
191.211
 20
188.097
 21
187.544
  0
LINE
  8
0
 10
191.211
 11
191.841
 20
187.544
 21
186.845
  0
LINE
  8
0
 10
191.841
 11
192.311
 20
186.845
 21
186.03
  0
LINE
  8
0
 10
192.311
 11
192.602
 20
186.03
 21
185.136
  0
LINE
  8
0
 10
192.602
 11
192.7
 20
185.136
 21
184.2
  0
LINE
  8
0
 10
192.7
 11
192.602
 20
184.2
 21
183.264
  0
LINE
  8
0
 10
192.602
 11
192.311
 20
183.264
 21
182.37
  0
LINE
  8
0
 10
192.311
 11
191.841
 20
182.37
 21
181.555
  0
LINE
  8
0
 10
191.841
 11
191.211
 20
181.555
 21
180.856
  0
LINE
  8
0
 10
191.211
 11
190.45
 20
180.856
 21
180.303
  0
LINE
  8
0
 10
190.45
 11
189.591
 20
180.303
 21
179.92
  0
LINE
  8
0
 10
189.591
 11
188.67
 20
179.92
 21
179.725
  0
LINE
  8
0
 10
188.67
 11
187.73
 20
179.725
 21
179.725
  0
LINE
  8
0
 10
187.73
 11
186.809
 20
179.725
 21
179.92
  0
LINE
  8
0
 10
186.809
 11
185.95
 20
179.92
 21
180.303
  0
LINE
  8
0
 10
185.95
 11
185.189
 20
180.303
 21
180.856
  0
LINE
  8
0
 10
185.189
 11
184.559
 20
180.856
 21
181.555
  0
LINE
  8
0
 10
184.559
 11
184.089
 20
181.555
 21
182.37
  0
LINE
  8
0
 10
184.089
 11
183.798
 20
182.37
 21
183.264
  0
LINE
  8
0
 10
183.798
 11
183.7
 20
183.264
 21
184.2
  0
LINE
  8
0
 10
185.513
 11
185.586
 20
119.5
 21
119.964
  0
LINE
  8
0
 10
185.586
 11
185.799
 20
119.964
 21
120.382
  0
LINE
  8
0
 10
185.799
 11
186.131
 20
120.382
 21
120.714
  0
LINE
  8
0
 10
186.131
 11
186.549
 20
120.714
 21
120.927
  0
LINE
  8
0
 10
186.549
 11
187.013
 20
120.927
 21
121
  0
LINE
  8
0
 10
187.013
 11
187.477
 20
121
 21
120.927
  0
LINE
  8
0
 10
187.477
 11
187.895
 20
120.927
 21
120.714
  0
LINE
  8
0
 10
187.895
 11
188.227
 20
120.714
 21
120.382
  0
LINE
  8
0
 10
188.227
 11
188.44
 20
120.382
 21
119.964
  0
LINE
  8
0
 10
188.44
 11
188.513
 20
119.964
 21
119.5
  0
LINE
  8
0
 10
188.513
 11
188.44
 20
119.5
 21
119.036
  0
LINE
  8
0
 10
188.44
 11
188.227
 20
119.036
 21
118.618
  0
LINE
  8
0
 10
188.227
 11
187.895
 20
118.618
 21
118.286
  0
LINE
  8
0
 10
187.895
 11
187.477
 20
118.286
 21
118.073
  0
LINE
  8
0
 10
187.477
 11
187.013
 20
118.073
 21
118
  0
LINE
  8
0
 10
187.013
 11
186.549
 20
118
 21
118.073
  0
LINE
  8
0
 10
186.549
 11
186.131
 20
118.073
 21
118.286
  0
LINE
  8
0
 10
186.131
 11
185.799
 20
118.286
 21
118.618
  0
LINE
  8
0
 10
185.799
 11
185.586
 20
118.618
 21
119.036
  0
LINE
  8
0
 10
185.586
 11
185.513
 20
119.036
 21
119.5
  0
LINE
  8
0
 10
185.513
 11
185.586
 20
150.5
 21
150.964
  0
LINE
  8
0
 10
185.586
 11
185.799
 20
150.964
 21
151.382
  0
LINE
  8
0
 10
185.799
 11
186.131
 20
151.382
 21
151.714
  0
LINE
  8
0
 10
186.131
 11
186.549
 20
151.714
 21
151.927
  0
LINE
  8
0
 10
186.549
 11
187.013
 20
151.927
 21
152
  0
LINE
  8
0
 10
187.013
 11
187.477
 20
152
 21
151.927
  0
LINE
  8
0
 10
187.477
 11
187.895
 20
151.927
 21
151.714
  0
LINE
  8
0
 10
187.895
 11
188.227
 20
151.714
 21
151.382
  0
LINE
  8
0
 10
188.227
 11
188.44
 20
151.382
 21
150.964
  0
LINE
  8
0
 10
188.44
 11
188.513
 20
150.964
 21
150.5
  0
LINE
  8
0
 10
188.513
 11
188.44
 20
150.5
 21
150.036
  0
LINE
  8
0
 10
188.44
 11
188.227
 20
150.036
 21
149.618
  0
LINE
  8
0
 10
188.227
 11
187.895
 20
149.618
 21
149.286
  0
LINE
  8
0
 10
187.895
 11
187.477
 20
149.286
 21
149.073
  0
LINE
  8
0
 10
187.477
 11
187.013
 20
149.073
 21
149
  0
LINE
  8
0
 10
187.013
 11
186.549
 20
149
 21
149.073
  0
LINE
  8
0
 10
186.549
 11
186.131
 20
149.073
 21
149.286
  0
LINE
  8
0
 10
186.131
 11
185.799
 20
149.286
 21
149.618
  0
LINE
  8
0
 10
185.799
 11
185.586
 20
149.618
 21
150.036
  0
LINE
  8
0
 10
185.586
 11
185.513
 20
150.036
 21
150.5
  0
LINE
  8
0
 10
186.7
 11
186.733
 20
174.6
 21
174.912
  0
LINE
  8
0
 10
186.733
 11
186.83
 20
174.912
 21
175.21
  0
LINE
  8
0
 10
186.83
 11
186.986
 20
175.21
 21
175.482
  0
LINE
  8
0
 10
186.986
 11
187.196
 20
175.482
 21
175.715
  0
LINE
  8
0
 10
187.196
 11
187.45
 20
175.715
 21
175.899
  0
LINE
  8
0
 10
187.45
 11
187.736
 20
175.899
 21
176.027
  0
LINE
  8
0
 10
187.736
 11
188.043
 20
176.027
 21
176.092
  0
LINE
  8
0
 10
188.043
 11
188.357
 20
176.092
 21
176.092
  0
LINE
  8
0
 10
188.357
 11
188.664
 20
176.092
 21
176.027
  0
LINE
  8
0
 10
188.664
 11
188.95
 20
176.027
 21
175.899
  0
LINE
  8
0
 10
188.95
 11
189.204
 20
175.899
 21
175.715
  0
LINE
  8
0
 10
189.204
 11
189.414
 20
175.715
 21
175.482
  0
LINE
  8
0
 10
189.414
 11
189.57
 20
175.482
 21
175.21
  0
LINE
  8
0
 10
189.57
 11
189.667
 20
175.21
 21
174.912
  0
LINE
  8
0
 10
189.667
 11
189.7
 20
174.912
 21
174.6
  0
LINE
  8
0
 10
189.7
 11
189.667
 20
174.6
 21
174.288
  0
LINE
  8
0
 10
189.667
 11
189.57
 20
174.288
 21
173.99
  0
LINE
  8
0
 10
189.57
 11
189.414
 20
173.99
 21
173.718
  0
LINE
  8
0
 10
189.414
 11
189.204
 20
173.718
 21
173.485
  0
LINE
  8
0
 10
189.204
 11
188.95
 20
173.485
 21
173.301
  0
LINE
  8
0
 10
188.95
 11
188.664
 20
173.301
 21
173.173
  0
LINE
  8
0
 10
188.664
 11
188.357
 20
173.173
 21
173.108
  0
LINE
  8
0
 10
188.357
 11
188.043
 20
173.108
 21
173.108
  0
LINE
  8
0
 10
188.043
 11
187.736
 20
173.108
 21
173.173
  0
LINE
  8
0
 10
187.736
 11
187.45
 20
173.173
 21
173.301
  0
LINE
  8
0
 10
187.45
 11
187.196
 20
173.301
 21
173.485
  0
LINE
  8
0
 10
187.196
 11
186.986
 20
173.485
 21
173.718
  0
LINE
  8
0
 10
186.986
 11
186.83
 20
173.718
 21
173.99
  0
LINE
  8
0
 10
186.83
 11
186.733
 20
173.99
 21
174.288
  0
LINE
  8
0
 10
186.733
 11
186.7
 20
174.288
 21
174.6
  0
LINE
  8
0
 10
186.7
 11
186.733
 20
184.2
 21
184.512
  0
LINE
  8
0
 10
186.733
 11
186.83
 20
184.512
 21
184.81
  0
LINE
  8
0
 10
186.83
 11
186.986
 20
184.81
 21
185.082
  0
LINE
  8
0
 10
186.986
 11
187.196
 20
185.082
 21
185.315
  0
LINE
  8
0
 10
187.196
 11
187.45
 20
185.315
 21
185.499
  0
LINE
  8
0
 10
187.45
 11
187.736
 20
185.499
 21
185.627
  0
LINE
  8
0
 10
187.736
 11
188.043
 20
185.627
 21
185.692
  0
LINE
  8
0
 10
188.043
 11
188.357
 20
185.692
 21
185.692
  0
LINE
  8
0
 10
188.357
 11
188.664
 20
185.692
 21
185.627
  0
LINE
  8
0
 10
188.664
 11
188.95
 20
185.627
 21
185.499
  0
LINE
  8
0
 10
188.95
 11
189.204
 20
185.499
 21
185.315
  0
LINE
  8
0
 10
189.204
 11
189.414
 20
185.315
 21
185.082
  0
LINE
  8
0
 10
189.414
 11
189.57
 20
185.082
 21
184.81
  0
LINE
  8
0
 10
189.57
 11
189.667
 20
184.81
 21
184.512
  0
LINE
  8
0
 10
189.667
 11
189.7
 20
184.512
 21
184.2
  0
LINE
  8
0
 10
189.7
 11
189.667
 20
184.2
 21
183.888
  0
LINE
  8
0
 10
189.667
 11
189.57
 20
183.888
 21
183.59
  0
LINE
  8
0
 10
189.57
 11
189.414
 20
183.59
 21
183.318
  0
LINE
  8
0
 10
189.414
 11
189.204
 20
183.318
 21
183.085
  0
LINE
  8
0
 10
189.204
 11
188.95
 20
183.085
 21
182.901
  0
LINE
  8
0
 10
188.95
 11
188.664
 20
182.901
 21
182.773
  0
LINE
  8
0
 10
188.664
 11
188.357
 20
182.773
 21
182.708
  0
LINE
  8
0
 10
188.357
 11
188.043
 20
182.708
 21
182.708
  0
LINE
  8
0
 10
188.043
 11
187.736
 20
182.708
 21
182.773
  0
LINE
  8
0
 10
187.736
 11
187.45
 20
182.773
 21
182.901
  0
LINE
  8
0
 10
187.45
 11
187.196
 20
182.901
 21
183.085
  0
LINE
  8
0
 10
187.196
 11
186.986
 20
183.085
 21
183.318
  0
LINE
  8
0
 10
186.986
 11
186.83
 20
183.318
 21
183.59
  0
LINE
  8
0
 10
186.83
 11
186.733
 20
183.59
 21
183.888
  0
LINE
  8
0
 10
186.733
 11
186.7
 20
183.888
 21
184.2
  0
LINE
  8
0
 10
187.029
 11
187.708
 20
228.995
 21
230.785
  0
LINE
  8
0
 10
187.708
 11
189.141
 20
230.785
 21
232.055
  0
LINE
  8
0
 10
189.141
 11
191
 20
232.055
 21
232.513
  0
LINE
  8
0
 10
191
 11
192.859
 20
232.513
 21
232.055
  0
LINE
  8
0
 10
192.859
 11
194.292
 20
232.055
 21
230.785
  0
LINE
  8
0
 10
194.292
 11
194.971
 20
230.785
 21
228.995
  0
LINE
  8
0
 10
194.971
 11
194.74
 20
228.995
 21
227.095
  0
LINE
  8
0
 10
194.74
 11
193.652
 20
227.095
 21
225.519
  0
LINE
  8
0
 10
193.652
 11
191.957
 20
225.519
 21
224.629
  0
LINE
  8
0
 10
191.957
 11
190.043
 20
224.629
 21
224.629
  0
LINE
  8
0
 10
190.043
 11
188.348
 20
224.629
 21
225.519
  0
LINE
  8
0
 10
188.348
 11
187.26
 20
225.519
 21
227.095
  0
LINE
  8
0
 10
187.26
 11
187.029
 20
227.095
 21
228.995
  0
LINE
  8
0
 10
190.513
 11
190.775
 20
135
 21
137.495
  0
LINE
  8
0
 10
190.775
 11
191.55
 20
137.495
 21
139.881
  0
LINE
  8
0
 10
191.55
 11
192.805
 20
139.881
 21
142.053
  0
LINE
  8
0
 10
192.805
 11
194.483
 20
142.053
 21
143.918
  0
LINE
  8
0
 10
194.483
 11
196.513
 20
143.918
 21
145.392
  0
LINE
  8
0
 10
196.513
 11
198.805
 20
145.392
 21
146.413
  0
LINE
  8
0
 10
198.805
 11
201.259
 20
146.413
 21
146.934
  0
LINE
  8
0
 10
201.259
 11
203.767
 20
146.934
 21
146.934
  0
LINE
  8
0
 10
203.767
 11
206.221
 20
146.934
 21
146.413
  0
LINE
  8
0
 10
206.221
 11
208.513
 20
146.413
 21
145.392
  0
LINE
  8
0
 10
208.513
 11
210.543
 20
145.392
 21
143.918
  0
LINE
  8
0
 10
210.543
 11
212.221
 20
143.918
 21
142.053
  0
LINE
  8
0
 10
212.221
 11
213.476
 20
142.053
 21
139.881
  0
LINE
  8
0
 10
213.476
 11
214.251
 20
139.881
 21
137.495
  0
LINE
  8
0
 10
214.251
 11
214.513
 20
137.495
 21
135
  0
LINE
  8
0
 10
214.513
 11
214.251
 20
135
 21
132.505
  0
LINE
  8
0
 10
214.251
 11
213.476
 20
132.505
 21
130.119
  0
LINE
  8
0
 10
213.476
 11
212.221
 20
130.119
 21
127.947
  0
LINE
  8
0
 10
212.221
 11
210.543
 20
127.947
 21
126.082
  0
LINE
  8
0
 10
210.543
 11
208.513
 20
126.082
 21
124.608
  0
LINE
  8
0
 10
208.513
 11
206.221
 20
124.608
 21
123.587
  0
LINE
  8
0
 10
206.221
 11
203.767
 20
123.587
 21
123.066
  0
LINE
  8
0
 10
203.767
 11
201.259
 20
123.066
 21
123.066
  0
LINE
  8
0
 10
201.259
 11
198.805
 20
123.066
 21
123.587
  0
LINE
  8
0
 10
198.805
 11
196.513
 20
123.587
 21
124.608
  0
LINE
  8
0
 10
196.513
 11
194.483
 20
124.608
 21
126.082
  0
LINE
  8
0
 10
194.483
 11
192.805
 20
126.082
 21
127.947
  0
LINE
  8
0
 10
192.805
 11
191.55
 20
127.947
 21
130.119
  0
LINE
  8
0
 10
191.55
 11
190.775
 20
130.119
 21
132.505
  0
LINE
  8
0
 10
190.775
 11
190.513
 20
132.505
 21
135
  0
LINE
  8
0
 10
193.3
 11
193.398
 20
174.6
 21
175.536
  0
LINE
  8
0
 10
193.398
 11
193.689
 20
175.536
 21
176.43
  0
LINE
  8
0
 10
193.689
 11
194.159
 20
176.43
 21
177.245
  0
LINE
  8
0
 10
194.159
 11
194.789
 20
177.245
 21
177.944
  0
LINE
  8
0
 10
194.789
 11
195.55
 20
177.944
 21
178.497
  0
LINE
  8
0
 10
195.55
 11
196.409
 20
178.497
 21
178.88
  0
LINE
  8
0
 10
196.409
 11
197.33
 20
178.88
 21
179.075
  0
LINE
  8
0
 10
197.33
 11
198.27
 20
179.075
 21
179.075
  0
LINE
  8
0
 10
198.27
 11
199.191
 20
179.075
 21
178.88
  0
LINE
  8
0
 10
199.191
 11
200.05
 20
178.88
 21
178.497
  0
LINE
  8
0
 10
200.05
 11
200.811
 20
178.497
 21
177.944
  0
LINE
  8
0
 10
200.811
 11
201.441
 20
177.944
 21
177.245
  0
LINE
  8
0
 10
201.441
 11
201.911
 20
177.245
 21
176.43
  0
LINE
  8
0
 10
201.911
 11
202.202
 20
176.43
 21
175.536
  0
LINE
  8
0
 10
202.202
 11
202.3
 20
175.536
 21
174.6
  0
LINE
  8
0
 10
202.3
 11
202.202
 20
174.6
 21
173.664
  0
LINE
  8
0
 10
202.202
 11
201.911
 20
173.664
 21
172.77
  0
LINE
  8
0
 10
201.911
 11
201.441
 20
172.77
 21
171.955
  0
LINE
  8
0
 10
201.441
 11
200.811
 20
171.955
 21
171.256
  0
LINE
  8
0
 10
200.811
 11
200.05
 20
171.256
 21
170.703
  0
LINE
  8
0
 10
200.05
 11
199.191
 20
170.703
 21
170.32
  0
LINE
  8
0
 10
199.191
 11
198.27
 20
170.32
 21
170.125
  0
LINE
  8
0
 10
198.27
 11
197.33
 20
170.125
 21
170.125
  0
LINE
  8
0
 10
197.33
 11
196.409
 20
170.125
 21
170.32
  0
LINE
  8
0
 10
196.409
 11
195.55
 20
170.32
 21
170.703
  0
LINE
  8
0
 10
195.55
 11
194.789
 20
170.703
 21
171.256
  0
LINE
  8
0
 10
194.789
 11
194.159
 20
171.256
 21
171.955
  0
LINE
  8
0
 10
194.159
 11
193.689
 20
171.955
 21
172.77
  0
LINE
  8
0
 10
193.689
 11
193.398
 20
172.77
 21
173.664
  0
LINE
  8
0
 10
193.398
 11
193.3
 20
173.664
 21
174.6
  0
LINE
  8
0
 10
193.3
 11
193.398
 20
184.2
 21
185.136
  0
LINE
  8
0
 10
193.398
 11
193.689
 20
185.136
 21
186.03
  0
LINE
  8
0
 10
193.689
 11
194.159
 20
186.03
 21
186.845
  0
LINE
  8
0
 10
194.159
 11
194.789
 20
186.845
 21
187.544
  0
LINE
  8
0
 10
194.789
 11
195.55
 20
187.544
 21
188.097
  0
LINE
  8
0
 10
195.55
 11
196.409
 20
188.097
 21
188.48
  0
LINE
  8
0
 10
196.409
 11
197.33
 20
188.48
 21
188.675
  0
LINE
  8
0
 10
197.33
 11
198.27
 20
188.675
 21
188.675
  0
LINE
  8
0
 10
198.27
 11
199.191
 20
188.675
 21
188.48
  0
LINE
  8
0
 10
199.191
 11
200.05
 20
188.48
 21
188.097
  0
LINE
  8
0
 10
200.05
 11
200.811
 20
188.097
 21
187.544
  0
LINE
  8
0
 10
200.811
 11
201.441
 20
187.544
 21
186.845
  0
LINE
  8
0
 10
201.441
 11
201.911
 20
186.845
 21
186.03
  0
LINE
  8
0
 10
201.911
 11
202.202
 20
186.03
 21
185.136
  0
LINE
  8
0
 10
202.202
 11
202.3
 20
185.136
 21
184.2
  0
LINE
  8
0
 10
202.3
 11
202.202
 20
184.2
 21
183.264
  0
LINE
  8
0
 10
202.202
 11
201.911
 20
183.264
 21
182.37
  0
LINE
  8
0
 10
201.911
 11
201.441
 20
182.37
 21
181.555
  0
LINE
  8
0
 10
201.441
 11
200.811
 20
181.555
 21
180.856
  0
LINE
  8
0
 10
200.811
 11
200.05
 20
180.856
 21
180.303
  0
LINE
  8
0
 10
200.05
 11
199.191
 20
180.303
 21
179.92
  0
LINE
  8
0
 10
199.191
 11
198.27
 20
179.92
 21
179.725
  0
LINE
  8
0
 10
198.27
 11
197.33
 20
179.725
 21
179.725
  0
LINE
  8
0
 10
197.33
 11
196.409
 20
179.725
 21
179.92
  0
LINE
  8
0
 10
196.409
 11
195.55
 20
179.92
 21
180.303
  0
LINE
  8
0
 10
195.55
 11
194.789
 20
180.303
 21
180.856
  0
LINE
  8
0
 10
194.789
 11
194.159
 20
180.856
 21
181.555
  0
LINE
  8
0
 10
194.159
 11
193.689
 20
181.555
 21
182.37
  0
LINE
  8
0
 10
193.689
 11
193.398
 20
182.37
 21
183.264
  0
LINE
  8
0
 10
193.398
 11
193.3
 20
183.264
 21
184.2
  0
LINE
  8
0
 10
196.3
 11
196.333
 20
174.6
 21
174.912
  0
LINE
  8
0
 10
196.333
 11
196.43
 20
174.912
 21
175.21
  0
LINE
  8
0
 10
196.43
 11
196.586
 20
175.21
 21
175.482
  0
LINE
  8
0
 10
196.586
 11
196.796
 20
175.482
 21
175.715
  0
LINE
  8
0
 10
196.796
 11
197.05
 20
175.715
 21
175.899
  0
LINE
  8
0
 10
197.05
 11
197.336
 20
175.899
 21
176.027
  0
LINE
  8
0
 10
197.336
 11
197.643
 20
176.027
 21
176.092
  0
LINE
  8
0
 10
197.643
 11
197.957
 20
176.092
 21
176.092
  0
LINE
  8
0
 10
197.957
 11
198.264
 20
176.092
 21
176.027
  0
LINE
  8
0
 10
198.264
 11
198.55
 20
176.027
 21
175.899
  0
LINE
  8
0
 10
198.55
 11
198.804
 20
175.899
 21
175.715
  0
LINE
  8
0
 10
198.804
 11
199.014
 20
175.715
 21
175.482
  0
LINE
  8
0
 10
199.014
 11
199.17
 20
175.482
 21
175.21
  0
LINE
  8
0
 10
199.17
 11
199.267
 20
175.21
 21
174.912
  0
LINE
  8
0
 10
199.267
 11
199.3
 20
174.912
 21
174.6
  0
LINE
  8
0
 10
199.3
 11
199.267
 20
174.6
 21
174.288
  0
LINE
  8
0
 10
199.267
 11
199.17
 20
174.288
 21
173.99
  0
LINE
  8
0
 10
199.17
 11
199.014
 20
173.99
 21
173.718
  0
LINE
  8
0
 10
199.014
 11
198.804
 20
173.718
 21
173.485
  0
LINE
  8
0
 10
198.804
 11
198.55
 20
173.485
 21
173.301
  0
LINE
  8
0
 10
198.55
 11
198.264
 20
173.301
 21
173.173
  0
LINE
  8
0
 10
198.264
 11
197.957
 20
173.173
 21
173.108
  0
LINE
  8
0
 10
197.957
 11
197.643
 20
173.108
 21
173.108
  0
LINE
  8
0
 10
197.643
 11
197.336
 20
173.108
 21
173.173
  0
LINE
  8
0
 10
197.336
 11
197.05
 20
173.173
 21
173.301
  0
LINE
  8
0
 10
197.05
 11
196.796
 20
173.301
 21
173.485
  0
LINE
  8
0
 10
196.796
 11
196.586
 20
173.485
 21
173.718
  0
LINE
  8
0
 10
196.586
 11
196.43
 20
173.718
 21
173.99
  0
LINE
  8
0
 10
196.43
 11
196.333
 20
173.99
 21
174.288
  0
LINE
  8
0
 10
196.333
 11
196.3
 20
174.288
 21
174.6
  0
LINE
  8
0
 10
196.3
 11
196.333
 20
184.2
 21
184.512
  0
LINE
  8
0
 10
196.333
 11
196.43
 20
184.512
 21
184.81
  0
LINE
  8
0
 10
196.43
 11
196.586
 20
184.81
 21
185.082
  0
LINE
  8
0
 10
196.586
 11
196.796
 20
185.082
 21
185.315
  0
LINE
  8
0
 10
196.796
 11
197.05
 20
185.315
 21
185.499
  0
LINE
  8
0
 10
197.05
 11
197.336
 20
185.499
 21
185.627
  0
LINE
  8
0
 10
197.336
 11
197.643
 20
185.627
 21
185.692
  0
LINE
  8
0
 10
197.643
 11
197.957
 20
185.692
 21
185.692
  0
LINE
  8
0
 10
197.957
 11
198.264
 20
185.692
 21
185.627
  0
LINE
  8
0
 10
198.264
 11
198.55
 20
185.627
 21
185.499
  0
LINE
  8
0
 10
198.55
 11
198.804
 20
185.499
 21
185.315
  0
LINE
  8
0
 10
198.804
 11
199.014
 20
185.315
 21
185.082
  0
LINE
  8
0
 10
199.014
 11
199.17
 20
185.082
 21
184.81
  0
LINE
  8
0
 10
199.17
 11
199.267
 20
184.81
 21
184.512
  0
LINE
  8
0
 10
199.267
 11
199.3
 20
184.512
 21
184.2
  0
LINE
  8
0
 10
199.3
 11
199.267
 20
184.2
 21
183.888
  0
LINE
  8
0
 10
199.267
 11
199.17
 20
183.888
 21
183.59
  0
LINE
  8
0
 10
199.17
 11
199.014
 20
183.59
 21
183.318
  0
LINE
  8
0
 10
199.014
 11
198.804
 20
183.318
 21
183.085
  0
LINE
  8
0
 10
198.804
 11
198.55
 20
183.085
 21
182.901
  0
LINE
  8
0
 10
198.55
 11
198.264
 20
182.901
 21
182.773
  0
LINE
  8
0
 10
198.264
 11
197.957
 20
182.773
 21
182.708
  0
LINE
  8
0
 10
197.957
 11
197.643
 20
182.708
 21
182.708
  0
LINE
  8
0
 10
197.643
 11
197.336
 20
182.708
 21
182.773
  0
LINE
  8
0
 10
197.336
 11
197.05
 20
182.773
 21
182.901
  0
LINE
  8
0
 10
197.05
 11
196.796
 20
182.901
 21
183.085
  0
LINE
  8
0
 10
196.796
 11
196.586
 20
183.085
 21
183.318
  0
LINE
  8
0
 10
196.586
 11
196.43
 20
183.318
 21
183.59
  0
LINE
  8
0
 10
196.43
 11
196.333
 20
183.59
 21
183.888
  0
LINE
  8
0
 10
196.333
 11
196.3
 20
183.888
 21
184.2
  0
LINE
  8
0
 10
202.9
 11
202.998
 20
174.6
 21
175.536
  0
LINE
  8
0
 10
202.998
 11
203.289
 20
175.536
 21
176.43
  0
LINE
  8
0
 10
203.289
 11
203.759
 20
176.43
 21
177.245
  0
LINE
  8
0
 10
203.759
 11
204.389
 20
177.245
 21
177.944
  0
LINE
  8
0
 10
204.389
 11
205.15
 20
177.944
 21
178.497
  0
LINE
  8
0
 10
205.15
 11
206.009
 20
178.497
 21
178.88
  0
LINE
  8
0
 10
206.009
 11
206.93
 20
178.88
 21
179.075
  0
LINE
  8
0
 10
206.93
 11
207.87
 20
179.075
 21
179.075
  0
LINE
  8
0
 10
207.87
 11
208.791
 20
179.075
 21
178.88
  0
LINE
  8
0
 10
208.791
 11
209.65
 20
178.88
 21
178.497
  0
LINE
  8
0
 10
209.65
 11
210.411
 20
178.497
 21
177.944
  0
LINE
  8
0
 10
210.411
 11
211.041
 20
177.944
 21
177.245
  0
LINE
  8
0
 10
211.041
 11
211.511
 20
177.245
 21
176.43
  0
LINE
  8
0
 10
211.511
 11
211.802
 20
176.43
 21
175.536
  0
LINE
  8
0
 10
211.802
 11
211.9
 20
175.536
 21
174.6
  0
LINE
  8
0
 10
211.9
 11
211.802
 20
174.6
 21
173.664
  0
LINE
  8
0
 10
211.802
 11
211.511
 20
173.664
 21
172.77
  0
LINE
  8
0
 10
211.511
 11
211.041
 20
172.77
 21
171.955
  0
LINE
  8
0
 10
211.041
 11
210.411
 20
171.955
 21
171.256
  0
LINE
  8
0
 10
210.411
 11
209.65
 20
171.256
 21
170.703
  0
LINE
  8
0
 10
209.65
 11
208.791
 20
170.703
 21
170.32
  0
LINE
  8
0
 10
208.791
 11
207.87
 20
170.32
 21
170.125
  0
LINE
  8
0
 10
207.87
 11
206.93
 20
170.125
 21
170.125
  0
LINE
  8
0
 10
206.93
 11
206.009
 20
170.125
 21
170.32
  0
LINE
  8
0
 10
206.009
 11
205.15
 20
170.32
 21
170.703
  0
LINE
  8
0
 10
205.15
 11
204.389
 20
170.703
 21
171.256
  0
LINE
  8
0
 10
204.389
 11
203.759
 20
171.256
 21
171.955
  0
LINE
  8
0
 10
203.759
 11
203.289
 20
171.955
 21
172.77
  0
LINE
  8
0
 10
203.289
 11
202.998
 20
172.77
 21
173.664
  0
LINE
  8
0
 10
202.998
 11
202.9
 20
173.664
 21
174.6
  0
LINE
  8
0
 10
202.9
 11
202.998
 20
184.2
 21
185.136
  0
LINE
  8
0
 10
202.998
 11
203.289
 20
185.136
 21
186.03
  0
LINE
  8
0
 10
203.289
 11
203.759
 20
186.03
 21
186.845
  0
LINE
  8
0
 10
203.759
 11
204.389
 20
186.845
 21
187.544
  0
LINE
  8
0
 10
204.389
 11
205.15
 20
187.544
 21
188.097
  0
LINE
  8
0
 10
205.15
 11
206.009
 20
188.097
 21
188.48
  0
LINE
  8
0
 10
206.009
 11
206.93
 20
188.48
 21
188.675
  0
LINE
  8
0
 10
206.93
 11
207.87
 20
188.675
 21
188.675
  0
LINE
  8
0
 10
207.87
 11
208.791
 20
188.675
 21
188.48
  0
LINE
  8
0
 10
208.791
 11
209.65
 20
188.48
 21
188.097
  0
LINE
  8
0
 10
209.65
 11
210.411
 20
188.097
 21
187.544
  0
LINE
  8
0
 10
210.411
 11
211.041
 20
187.544
 21
186.845
  0
LINE
  8
0
 10
211.041
 11
211.511
 20
186.845
 21
186.03
  0
LINE
  8
0
 10
211.511
 11
211.802
 20
186.03
 21
185.136
  0
LINE
  8
0
 10
211.802
 11
211.9
 20
185.136
 21
184.2
  0
LINE
  8
0
 10
211.9
 11
211.802
 20
184.2
 21
183.264
  0
LINE
  8
0
 10
211.802
 11
211.511
 20
183.264
 21
182.37
  0
LINE
  8
0
 10
211.511
 11
211.041
 20
182.37
 21
181.555
  0
LINE
  8
0
 10
211.041
 11
210.411
 20
181.555
 21
180.856
  0
LINE
  8
0
 10
210.411
 11
209.65
 20
180.856
 21
180.303
  0
LINE
  8
0
 10
209.65
 11
208.791
 20
180.303
 21
179.92
  0
LINE
  8
0
 10
208.791
 11
207.87
 20
179.92
 21
179.725
  0
LINE
  8
0
 10
207.87
 11
206.93
 20
179.725
 21
179.725
  0
LINE
  8
0
 10
206.93
 11
206.009
 20
179.725
 21
179.92
  0
LINE
  8
0
 10
206.009
 11
205.15
 20
179.92
 21
180.303
  0
LINE
  8
0
 10
205.15
 11
204.389
 20
180.303
 21
180.856
  0
LINE
  8
0
 10
204.389
 11
203.759
 20
180.856
 21
181.555
  0
LINE
  8
0
 10
203.759
 11
203.289
 20
181.555
 21
182.37
  0
LINE
  8
0
 10
203.289
 11
202.998
 20
182.37
 21
183.264
  0
LINE
  8
0
 10
202.998
 11
202.9
 20
183.264
 21
184.2
  0
LINE
  8
0
 10
203.5
 11
203.573
 20
65
 21
65.464
  0
LINE
  8
0
 10
203.573
 11
203.786
 20
65.464
 21
65.882
  0
LINE
  8
0
 10
203.786
 11
204.118
 20
65.882
 21
66.214
  0
LINE
  8
0
 10
204.118
 11
204.536
 20
66.214
 21
66.427
  0
LINE
  8
0
 10
204.536
 11
205
 20
66.427
 21
66.5
  0
LINE
  8
0
 10
205
 11
205.464
 20
66.5
 21
66.427
  0
LINE
  8
0
 10
205.464
 11
205.882
 20
66.427
 21
66.214
  0
LINE
  8
0
 10
205.882
 11
206.214
 20
66.214
 21
65.882
  0
LINE
  8
0
 10
206.214
 11
206.427
 20
65.882
 21
65.464
  0
LINE
  8
0
 10
206.427
 11
206.5
 20
65.464
 21
65
  0
LINE
  8
0
 10
206.5
 11
206.427
 20
65
 21
64.536
  0
LINE
  8
0
 10
206.427
 11
206.214
 20
64.536
 21
64.118
  0
LINE
  8
0
 10
206.214
 11
205.882
 20
64.118
 21
63.786
  0
LINE
  8
0
 10
205.882
 11
205.464
 20
63.786
 21
63.573
  0
LINE
  8
0
 10
205.464
 11
205
 20
63.573
 21
63.5
  0
LINE
  8
0
 10
205
 11
204.536
 20
63.5
 21
63.573
  0
LINE
  8
0
 10
204.536
 11
204.118
 20
63.573
 21
63.786
  0
LINE
  8
0
 10
204.118
 11
203.786
 20
63.786
 21
64.118
  0
LINE
  8
0
 10
203.786
 11
203.573
 20
64.118
 21
64.536
  0
LINE
  8
0
 10
203.573
 11
203.5
 20
64.536
 21
65
  0
LINE
  8
0
 10
205.9
 11
205.933
 20
174.6
 21
174.912
  0
LINE
  8
0
 10
205.933
 11
206.03
 20
174.912
 21
175.21
  0
LINE
  8
0
 10
206.03
 11
206.186
 20
175.21
 21
175.482
  0
LINE
  8
0
 10
206.186
 11
206.396
 20
175.482
 21
175.715
  0
LINE
  8
0
 10
206.396
 11
206.65
 20
175.715
 21
175.899
  0
LINE
  8
0
 10
206.65
 11
206.936
 20
175.899
 21
176.027
  0
LINE
  8
0
 10
206.936
 11
207.243
 20
176.027
 21
176.092
  0
LINE
  8
0
 10
207.243
 11
207.557
 20
176.092
 21
176.092
  0
LINE
  8
0
 10
207.557
 11
207.864
 20
176.092
 21
176.027
  0
LINE
  8
0
 10
207.864
 11
208.15
 20
176.027
 21
175.899
  0
LINE
  8
0
 10
208.15
 11
208.404
 20
175.899
 21
175.715
  0
LINE
  8
0
 10
208.404
 11
208.614
 20
175.715
 21
175.482
  0
LINE
  8
0
 10
208.614
 11
208.77
 20
175.482
 21
175.21
  0
LINE
  8
0
 10
208.77
 11
208.867
 20
175.21
 21
174.912
  0
LINE
  8
0
 10
208.867
 11
208.9
 20
174.912
 21
174.6
  0
LINE
  8
0
 10
208.9
 11
208.867
 20
174.6
 21
174.288
  0
LINE
  8
0
 10
208.867
 11
208.77
 20
174.288
 21
173.99
  0
LINE
  8
0
 10
208.77
 11
208.614
 20
173.99
 21
173.718
  0
LINE
  8
0
 10
208.614
 11
208.404
 20
173.718
 21
173.485
  0
LINE
  8
0
 10
208.404
 11
208.15
 20
173.485
 21
173.301
  0
LINE
  8
0
 10
208.15
 11
207.864
 20
173.301
 21
173.173
  0
LINE
  8
0
 10
207.864
 11
207.557
 20
173.173
 21
173.108
  0
LINE
  8
0
 10
207.557
 11
207.243
 20
173.108
 21
173.108
  0
LINE
  8
0
 10
207.243
 11
206.936
 20
173.108
 21
173.173
  0
LINE
  8
0
 10
206.936
 11
206.65
 20
173.173
 21
173.301
  0
LINE
  8
0
 10
206.65
 11
206.396
 20
173.301
 21
173.485
  0
LINE
  8
0
 10
206.396
 11
206.186
 20
173.485
 21
173.718
  0
LINE
  8
0
 10
206.186
 11
206.03
 20
173.718
 21
173.99
  0
LINE
  8
0
 10
206.03
 11
205.933
 20
173.99
 21
174.288
  0
LINE
  8
0
 10
205.933
 11
205.9
 20
174.288
 21
174.6
  0
LINE
  8
0
 10
205.9
 11
205.933
 20
184.2
 21
184.512
  0
LINE
  8
0
 10
205.933
 11
206.03
 20
184.512
 21
184.81
  0
LINE
  8
0
 10
206.03
 11
206.186
 20
184.81
 21
185.082
  0
LINE
  8
0
 10
206.186
 11
206.396
 20
185.082
 21
185.315
  0
LINE
  8
0
 10
206.396
 11
206.65
 20
185.315
 21
185.499
  0
LINE
  8
0
 10
206.65
 11
206.936
 20
185.499
 21
185.627
  0
LINE
  8
0
 10
206.936
 11
207.243
 20
185.627
 21
185.692
  0
LINE
  8
0
 10
207.243
 11
207.557
 20
185.692
 21
185.692
  0
LINE
  8
0
 10
207.557
 11
207.864
 20
185.692
 21
185.627
  0
LINE
  8
0
 10
207.864
 11
208.15
 20
185.627
 21
185.499
  0
LINE
  8
0
 10
208.15
 11
208.404
 20
185.499
 21
185.315
  0
LINE
  8
0
 10
208.404
 11
208.614
 20
185.315
 21
185.082
  0
LINE
  8
0
 10
208.614
 11
208.77
 20
185.082
 21
184.81
  0
LINE
  8
0
 10
208.77
 11
208.867
 20
184.81
 21
184.512
  0
LINE
  8
0
 10
208.867
 11
208.9
 20
184.512
 21
184.2
  0
LINE
  8
0
 10
208.9
 11
208.867
 20
184.2
 21
183.888
  0
LINE
  8
0
 10
208.867
 11
208.77
 20
183.888
 21
183.59
  0
LINE
  8
0
 10
208.77
 11
208.614
 20
183.59
 21
183.318
  0
LINE
  8
0
 10
208.614
 11
208.404
 20
183.318
 21
183.085
  0
LINE
  8
0
 10
208.404
 11
208.15
 20
183.085
 21
182.901
  0
LINE
  8
0
 10
208.15
 11
207.864
 20
182.901
 21
182.773
  0
LINE
  8
0
 10
207.864
 11
207.557
 20
182.773
 21
182.708
  0
LINE
  8
0
 10
207.557
 11
207.243
 20
182.708
 21
182.708
  0
LINE
  8
0
 10
207.243
 11
206.936
 20
182.708
 21
182.773
  0
LINE
  8
0
 10
206.936
 11
206.65
 20
182.773
 21
182.901
  0
LINE
  8
0
 10
206.65
 11
206.396
 20
182.901
 21
183.085
  0
LINE
  8
0
 10
206.396
 11
206.186
 20
183.085
 21
183.318
  0
LINE
  8
0
 10
206.186
 11
206.03
 20
183.318
 21
183.59
  0
LINE
  8
0
 10
206.03
 11
205.933
 20
183.59
 21
183.888
  0
LINE
  8
0
 10
205.933
 11
205.9
 20
183.888
 21
184.2
  0
LINE
  8
0
 10
212.5
 11
212.598
 20
174.6
 21
175.536
  0
LINE
  8
0
 10
212.598
 11
212.889
 20
175.536
 21
176.43
  0
LINE
  8
0
 10
212.889
 11
213.359
 20
176.43
 21
177.245
  0
LINE
  8
0
 10
213.359
 11
213.989
 20
177.245
 21
177.944
  0
LINE
  8
0
 10
213.989
 11
214.75
 20
177.944
 21
178.497
  0
LINE
  8
0
 10
214.75
 11
215.609
 20
178.497
 21
178.88
  0
LINE
  8
0
 10
215.609
 11
216.53
 20
178.88
 21
179.075
  0
LINE
  8
0
 10
216.53
 11
217.47
 20
179.075
 21
179.075
  0
LINE
  8
0
 10
217.47
 11
218.391
 20
179.075
 21
178.88
  0
LINE
  8
0
 10
218.391
 11
219.25
 20
178.88
 21
178.497
  0
LINE
  8
0
 10
219.25
 11
220.011
 20
178.497
 21
177.944
  0
LINE
  8
0
 10
220.011
 11
220.641
 20
177.944
 21
177.245
  0
LINE
  8
0
 10
220.641
 11
221.111
 20
177.245
 21
176.43
  0
LINE
  8
0
 10
221.111
 11
221.402
 20
176.43
 21
175.536
  0
LINE
  8
0
 10
221.402
 11
221.5
 20
175.536
 21
174.6
  0
LINE
  8
0
 10
221.5
 11
221.402
 20
174.6
 21
173.664
  0
LINE
  8
0
 10
221.402
 11
221.111
 20
173.664
 21
172.77
  0
LINE
  8
0
 10
221.111
 11
220.641
 20
172.77
 21
171.955
  0
LINE
  8
0
 10
220.641
 11
220.011
 20
171.955
 21
171.256
  0
LINE
  8
0
 10
220.011
 11
219.25
 20
171.256
 21
170.703
  0
LINE
  8
0
 10
219.25
 11
218.391
 20
170.703
 21
170.32
  0
LINE
  8
0
 10
218.391
 11
217.47
 20
170.32
 21
170.125
  0
LINE
  8
0
 10
217.47
 11
216.53
 20
170.125
 21
170.125
  0
LINE
  8
0
 10
216.53
 11
215.609
 20
170.125
 21
170.32
  0
LINE
  8
0
 10
215.609
 11
214.75
 20
170.32
 21
170.703
  0
LINE
  8
0
 10
214.75
 11
213.989
 20
170.703
 21
171.256
  0
LINE
  8
0
 10
213.989
 11
213.359
 20
171.256
 21
171.955
  0
LINE
  8
0
 10
213.359
 11
212.889
 20
171.955
 21
172.77
  0
LINE
  8
0
 10
212.889
 11
212.598
 20
172.77
 21
173.664
  0
LINE
  8
0
 10
212.598
 11
212.5
 20
173.664
 21
174.6
  0
LINE
  8
0
 10
212.5
 11
212.598
 20
184.2
 21
185.136
  0
LINE
  8
0
 10
212.598
 11
212.889
 20
185.136
 21
186.03
  0
LINE
  8
0
 10
212.889
 11
213.359
 20
186.03
 21
186.845
  0
LINE
  8
0
 10
213.359
 11
213.989
 20
186.845
 21
187.544
  0
LINE
  8
0
 10
213.989
 11
214.75
 20
187.544
 21
188.097
  0
LINE
  8
0
 10
214.75
 11
215.609
 20
188.097
 21
188.48
  0
LINE
  8
0
 10
215.609
 11
216.53
 20
188.48
 21
188.675
  0
LINE
  8
0
 10
216.53
 11
217.47
 20
188.675
 21
188.675
  0
LINE
  8
0
 10
217.47
 11
218.391
 20
188.675
 21
188.48
  0
LINE
  8
0
 10
218.391
 11
219.25
 20
188.48
 21
188.097
  0
LINE
  8
0
 10
219.25
 11
220.011
 20
188.097
 21
187.544
  0
LINE
  8
0
 10
220.011
 11
220.641
 20
187.544
 21
186.845
  0
LINE
  8
0
 10
220.641
 11
221.111
 20
186.845
 21
186.03
  0
LINE
  8
0
 10
221.111
 11
221.402
 20
186.03
 21
185.136
  0
LINE
  8
0
 10
221.402
 11
221.5
 20
185.136
 21
184.2
  0
LINE
  8
0
 10
221.5
 11
221.402
 20
184.2
 21
183.264
  0
LINE
  8
0
 10
221.402
 11
221.111
 20
183.264
 21
182.37
  0
LINE
  8
0
 10
221.111
 11
220.641
 20
182.37
 21
181.555
  0
LINE
  8
0
 10
220.641
 11
220.011
 20
181.555
 21
180.856
  0
LINE
  8
0
 10
220.011
 11
219.25
 20
180.856
 21
180.303
  0
LINE
  8
0
 10
219.25
 11
218.391
 20
180.303
 21
179.92
  0
LINE
  8
0
 10
218.391
 11
217.47
 20
179.92
 21
179.725
  0
LINE
  8
0
 10
217.47
 11
216.53
 20
179.725
 21
179.725
  0
LINE
  8
0
 10
216.53
 11
215.609
 20
179.725
 21
179.92
  0
LINE
  8
0
 10
215.609
 11
214.75
 20
179.92
 21
180.303
  0
LINE
  8
0
 10
214.75
 11
213.989
 20
180.303
 21
180.856
  0
LINE
  8
0
 10
213.989
 11
213.359
 20
180.856
 21
181.555
  0
LINE
  8
0
 10
213.359
 11
212.889
 20
181.555
 21
182.37
  0
LINE
  8
0
 10
212.889
 11
212.598
 20
182.37
 21
183.264
  0
LINE
  8
0
 10
212.598
 11
212.5
 20
183.264
 21
184.2
  0
LINE
  8
0
 10
215.5
 11
215.533
 20
174.6
 21
174.912
  0
LINE
  8
0
 10
215.533
 11
215.63
 20
174.912
 21
175.21
  0
LINE
  8
0
 10
215.63
 11
215.786
 20
175.21
 21
175.482
  0
LINE
  8
0
 10
215.786
 11
215.996
 20
175.482
 21
175.715
  0
LINE
  8
0
 10
215.996
 11
216.25
 20
175.715
 21
175.899
  0
LINE
  8
0
 10
216.25
 11
216.536
 20
175.899
 21
176.027
  0
LINE
  8
0
 10
216.536
 11
216.843
 20
176.027
 21
176.092
  0
LINE
  8
0
 10
216.843
 11
217.157
 20
176.092
 21
176.092
  0
LINE
  8
0
 10
217.157
 11
217.464
 20
176.092
 21
176.027
  0
LINE
  8
0
 10
217.464
 11
217.75
 20
176.027
 21
175.899
  0
LINE
  8
0
 10
217.75
 11
218.004
 20
175.899
 21
175.715
  0
LINE
  8
0
 10
218.004
 11
218.214
 20
175.715
 21
175.482
  0
LINE
  8
0
 10
218.214
 11
218.37
 20
175.482
 21
175.21
  0
LINE
  8
0
 10
218.37
 11
218.467
 20
175.21
 21
174.912
  0
LINE
  8
0
 10
218.467
 11
218.5
 20
174.912
 21
174.6
  0
LINE
  8
0
 10
218.5
 11
218.467
 20
174.6
 21
174.288
  0
LINE
  8
0
 10
218.467
 11
218.37
 20
174.288
 21
173.99
  0
LINE
  8
0
 10
218.37
 11
218.214
 20
173.99
 21
173.718
  0
LINE
  8
0
 10
218.214
 11
218.004
 20
173.718
 21
173.485
  0
LINE
  8
0
 10
218.004
 11
217.75
 20
173.485
 21
173.301
  0
LINE
  8
0
 10
217.75
 11
217.464
 20
173.301
 21
173.173
  0
LINE
  8
0
 10
217.464
 11
217.157
 20
173.173
 21
173.108
  0
LINE
  8
0
 10
217.157
 11
216.843
 20
173.108
 21
173.108
  0
LINE
  8
0
 10
216.843
 11
216.536
 20
173.108
 21
173.173
  0
LINE
  8
0
 10
216.536
 11
216.25
 20
173.173
 21
173.301
  0
LINE
  8
0
 10
216.25
 11
215.996
 20
173.301
 21
173.485
  0
LINE
  8
0
 10
215.996
 11
215.786
 20
173.485
 21
173.718
  0
LINE
  8
0
 10
215.786
 11
215.63
 20
173.718
 21
173.99
  0
LINE
  8
0
 10
215.63
 11
215.533
 20
173.99
 21
174.288
  0
LINE
  8
0
 10
215.533
 11
215.5
 20
174.288
 21
174.6
  0
LINE
  8
0
 10
215.5
 11
215.533
 20
184.2
 21
184.512
  0
LINE
  8
0
 10
215.533
 11
215.63
 20
184.512
 21
184.81
  0
LINE
  8
0
 10
215.63
 11
215.786
 20
184.81
 21
185.082
  0
LINE
  8
0
 10
215.786
 11
215.996
 20
185.082
 21
185.315
  0
LINE
  8
0
 10
215.996
 11
216.25
 20
185.315
 21
185.499
  0
LINE
  8
0
 10
216.25
 11
216.536
 20
185.499
 21
185.627
  0
LINE
  8
0
 10
216.536
 11
216.843
 20
185.627
 21
185.692
  0
LINE
  8
0
 10
216.843
 11
217.157
 20
185.692
 21
185.692
  0
LINE
  8
0
 10
217.157
 11
217.464
 20
185.692
 21
185.627
  0
LINE
  8
0
 10
217.464
 11
217.75
 20
185.627
 21
185.499
  0
LINE
  8
0
 10
217.75
 11
218.004
 20
185.499
 21
185.315
  0
LINE
  8
0
 10
218.004
 11
218.214
 20
185.315
 21
185.082
  0
LINE
  8
0
 10
218.214
 11
218.37
 20
185.082
 21
184.81
  0
LINE
  8
0
 10
218.37
 11
218.467
 20
184.81
 21
184.512
  0
LINE
  8
0
 10
218.467
 11
218.5
 20
184.512
 21
184.2
  0
LINE
  8
0
 10
218.5
 11
218.467
 20
184.2
 21
183.888
  0
LINE
  8
0
 10
218.467
 11
218.37
 20
183.888
 21
183.59
  0
LINE
  8
0
 10
218.37
 11
218.214
 20
183.59
 21
183.318
  0
LINE
  8
0
 10
218.214
 11
218.004
 20
183.318
 21
183.085
  0
LINE
  8
0
 10
218.004
 11
217.75
 20
183.085
 21
182.901
  0
LINE
  8
0
 10
217.75
 11
217.464
 20
182.901
 21
182.773
  0
LINE
  8
0
 10
217.464
 11
217.157
 20
182.773
 21
182.708
  0
LINE
  8
0
 10
217.157
 11
216.843
 20
182.708
 21
182.708
  0
LINE
  8
0
 10
216.843
 11
216.536
 20
182.708
 21
182.773
  0
LINE
  8
0
 10
216.536
 11
216.25
 20
182.773
 21
182.901
  0
LINE
  8
0
 10
216.25
 11
215.996
 20
182.901
 21
183.085
  0
LINE
  8
0
 10
215.996
 11
215.786
 20
183.085
 21
183.318
  0
LINE
  8
0
 10
215.786
 11
215.63
 20
183.318
 21
183.59
  0
LINE
  8
0
 10
215.63
 11
215.533
 20
183.59
 21
183.888
  0
LINE
  8
0
 10
215.533
 11
215.5
 20
183.888
 21
184.2
  0
LINE
  8
0
 10
216.513
 11
216.586
 20
119.5
 21
119.964
  0
LINE
  8
0
 10
216.586
 11
216.799
 20
119.964
 21
120.382
  0
LINE
  8
0
 10
216.799
 11
217.131
 20
120.382
 21
120.714
  0
LINE
  8
0
 10
217.131
 11
217.549
 20
120.714
 21
120.927
  0
LINE
  8
0
 10
217.549
 11
218.013
 20
120.927
 21
121
  0
LINE
  8
0
 10
218.013
 11
218.477
 20
121
 21
120.927
  0
LINE
  8
0
 10
218.477
 11
218.895
 20
120.927
 21
120.714
  0
LINE
  8
0
 10
218.895
 11
219.227
 20
120.714
 21
120.382
  0
LINE
  8
0
 10
219.227
 11
219.44
 20
120.382
 21
119.964
  0
LINE
  8
0
 10
219.44
 11
219.513
 20
119.964
 21
119.5
  0
LINE
  8
0
 10
219.513
 11
219.44
 20
119.5
 21
119.036
  0
LINE
  8
0
 10
219.44
 11
219.227
 20
119.036
 21
118.618
  0
LINE
  8
0
 10
219.227
 11
218.895
 20
118.618
 21
118.286
  0
LINE
  8
0
 10
218.895
 11
218.477
 20
118.286
 21
118.073
  0
LINE
  8
0
 10
218.477
 11
218.013
 20
118.073
 21
118
  0
LINE
  8
0
 10
218.013
 11
217.549
 20
118
 21
118.073
  0
LINE
  8
0
 10
217.549
 11
217.131
 20
118.073
 21
118.286
  0
LINE
  8
0
 10
217.131
 11
216.799
 20
118.286
 21
118.618
  0
LINE
  8
0
 10
216.799
 11
216.586
 20
118.618
 21
119.036
  0
LINE
  8
0
 10
216.586
 11
216.513
 20
119.036
 21
119.5
  0
LINE
  8
0
 10
216.513
 11
216.586
 20
150.5
 21
150.964
  0
LINE
  8
0
 10
216.586
 11
216.799
 20
150.964
 21
151.382
  0
LINE
  8
0
 10
216.799
 11
217.131
 20
151.382
 21
151.714
  0
LINE
  8
0
 10
217.131
 11
217.549
 20
151.714
 21
151.927
  0
LINE
  8
0
 10
217.549
 11
218.013
 20
151.927
 21
152
  0
LINE
  8
0
 10
218.013
 11
218.477
 20
152
 21
151.927
  0
LINE
  8
0
 10
218.477
 11
218.895
 20
151.927
 21
151.714
  0
LINE
  8
0
 10
218.895
 11
219.227
 20
151.714
 21
151.382
  0
LINE
  8
0
 10
219.227
 11
219.44
 20
151.382
 21
150.964
  0
LINE
  8
0
 10
219.44
 11
219.513
 20
150.964
 21
150.5
  0
LINE
  8
0
 10
219.513
 11
219.44
 20
150.5
 21
150.036
  0
LINE
  8
0
 10
219.44
 11
219.227
 20
150.036
 21
149.618
  0
LINE
  8
0
 10
219.227
 11
218.895
 20
149.618
 21
149.286
  0
LINE
  8
0
 10
218.895
 11
218.477
 20
149.286
 21
149.073
  0
LINE
  8
0
 10
218.477
 11
218.013
 20
149.073
 21
149
  0
LINE
  8
0
 10
218.013
 11
217.549
 20
149
 21
149.073
  0
LINE
  8
0
 10
217.549
 11
217.131
 20
149.073
 21
149.286
  0
LINE
  8
0
 10
217.131
 11
216.799
 20
149.286
 21
149.618
  0
LINE
  8
0
 10
216.799
 11
216.586
 20
149.618
 21
150.036
  0
LINE
  8
0
 10
216.586
 11
216.513
 20
150.036
 21
150.5
  0
LINE
  8
0
 10
218.5
 11
218.533
 20
44
 21
44.312
  0
LINE
  8
0
 10
218.533
 11
218.63
 20
44.312
 21
44.61
  0
LINE
  8
0
 10
218.63
 11
218.786
 20
44.61
 21
44.882
  0
LINE
  8
0
 10
218.786
 11
218.996
 20
44.882
 21
45.115
  0
LINE
  8
0
 10
218.996
 11
219.25
 20
45.115
 21
45.299
  0
LINE
  8
0
 10
219.25
 11
219.536
 20
45.299
 21
45.427
  0
LINE
  8
0
 10
219.536
 11
219.843
 20
45.427
 21
45.492
  0
LINE
  8
0
 10
219.843
 11
220.157
 20
45.492
 21
45.492
  0
LINE
  8
0
 10
220.157
 11
220.464
 20
45.492
 21
45.427
  0
LINE
  8
0
 10
220.464
 11
220.75
 20
45.427
 21
45.299
  0
LINE
  8
0
 10
220.75
 11
221.004
 20
45.299
 21
45.115
  0
LINE
  8
0
 10
221.004
 11
221.214
 20
45.115
 21
44.882
  0
LINE
  8
0
 10
221.214
 11
221.37
 20
44.882
 21
44.61
  0
LINE
  8
0
 10
221.37
 11
221.467
 20
44.61
 21
44.312
  0
LINE
  8
0
 10
221.467
 11
221.5
 20
44.312
 21
44
  0
LINE
  8
0
 10
221.5
 11
221.467
 20
44
 21
43.688
  0
LINE
  8
0
 10
221.467
 11
221.37
 20
43.688
 21
43.39
  0
LINE
  8
0
 10
221.37
 11
221.214
 20
43.39
 21
43.118
  0
LINE
  8
0
 10
221.214
 11
221.004
 20
43.118
 21
42.885
  0
LINE
  8
0
 10
221.004
 11
220.75
 20
42.885
 21
42.701
  0
LINE
  8
0
 10
220.75
 11
220.464
 20
42.701
 21
42.573
  0
LINE
  8
0
 10
220.464
 11
220.157
 20
42.573
 21
42.508
  0
LINE
  8
0
 10
220.157
 11
219.843
 20
42.508
 21
42.508
  0
LINE
  8
0
 10
219.843
 11
219.536
 20
42.508
 21
42.573
  0
LINE
  8
0
 10
219.536
 11
219.25
 20
42.573
 21
42.701
  0
LINE
  8
0
 10
219.25
 11
218.996
 20
42.701
 21
42.885
  0
LINE
  8
0
 10
218.996
 11
218.786
 20
42.885
 21
43.118
  0
LINE
  8
0
 10
218.786
 11
218.63
 20
43.118
 21
43.39
  0
LINE
  8
0
 10
218.63
 11
218.533
 20
43.39
 21
43.688
  0
LINE
  8
0
 10
218.533
 11
218.5
 20
43.688
 21
44
  0
LINE
  8
0
 10
218.5
 11
218.533
 20
56
 21
56.312
  0
LINE
  8
0
 10
218.533
 11
218.63
 20
56.312
 21
56.61
  0
LINE
  8
0
 10
218.63
 11
218.786
 20
56.61
 21
56.882
  0
LINE
  8
0
 10
218.786
 11
218.996
 20
56.882
 21
57.115
  0
LINE
  8
0
 10
218.996
 11
219.25
 20
57.115
 21
57.299
  0
LINE
  8
0
 10
219.25
 11
219.536
 20
57.299
 21
57.427
  0
LINE
  8
0
 10
219.536
 11
219.843
 20
57.427
 21
57.492
  0
LINE
  8
0
 10
219.843
 11
220.157
 20
57.492
 21
57.492
  0
LINE
  8
0
 10
220.157
 11
220.464
 20
57.492
 21
57.427
  0
LINE
  8
0
 10
220.464
 11
220.75
 20
57.427
 21
57.299
  0
LINE
  8
0
 10
220.75
 11
221.004
 20
57.299
 21
57.115
  0
LINE
  8
0
 10
221.004
 11
221.214
 20
57.115
 21
56.882
  0
LINE
  8
0
 10
221.214
 11
221.37
 20
56.882
 21
56.61
  0
LINE
  8
0
 10
221.37
 11
221.467
 20
56.61
 21
56.312
  0
LINE
  8
0
 10
221.467
 11
221.5
 20
56.312
 21
56
  0
LINE
  8
0
 10
221.5
 11
221.467
 20
56
 21
55.688
  0
LINE
  8
0
 10
221.467
 11
221.37
 20
55.688
 21
55.39
  0
LINE
  8
0
 10
221.37
 11
221.214
 20
55.39
 21
55.118
  0
LINE
  8
0
 10
221.214
 11
221.004
 20
55.118
 21
54.885
  0
LINE
  8
0
 10
221.004
 11
220.75
 20
54.885
 21
54.701
  0
LINE
  8
0
 10
220.75
 11
220.464
 20
54.701
 21
54.573
  0
LINE
  8
0
 10
220.464
 11
220.157
 20
54.573
 21
54.508
  0
LINE
  8
0
 10
220.157
 11
219.843
 20
54.508
 21
54.508
  0
LINE
  8
0
 10
219.843
 11
219.536
 20
54.508
 21
54.573
  0
LINE
  8
0
 10
219.536
 11
219.25
 20
54.573
 21
54.701
  0
LINE
  8
0
 10
219.25
 11
218.996
 20
54.701
 21
54.885
  0
LINE
  8
0
 10
218.996
 11
218.786
 20
54.885
 21
55.118
  0
LINE
  8
0
 10
218.786
 11
218.63
 20
55.118
 21
55.39
  0
LINE
  8
0
 10
218.63
 11
218.533
 20
55.39
 21
55.688
  0
LINE
  8
0
 10
218.533
 11
218.5
 20
55.688
 21
56
  0
LINE
  8
0
 10
220
 11
220
 20
62
 21
68
  0
LINE
  8
0
 10
220
 11
280
 20
68
 21
68
  0
LINE
  8
0
 10
280
 11
280
 20
68
 21
62
  0
LINE
  8
0
 10
280
 11
220
 20
62
 21
62
  0
LINE
  8
0
 10
221
 11
221
 20
200
 21
242
  0
LINE
  8
0
 10
221
 11
221.009
 20
242
 21
242.235
  0
LINE
  8
0
 10
221.009
 11
221.037
 20
242.235
 21
242.469
  0
LINE
  8
0
 10
221.037
 11
221.083
 20
242.469
 21
242.7
  0
LINE
  8
0
 10
221.083
 11
221.147
 20
242.7
 21
242.927
  0
LINE
  8
0
 10
221.147
 11
221.228
 20
242.927
 21
243.148
  0
LINE
  8
0
 10
221.228
 11
221.327
 20
243.148
 21
243.362
  0
LINE
  8
0
 10
221.327
 11
221.442
 20
243.362
 21
243.567
  0
LINE
  8
0
 10
221.442
 11
221.573
 20
243.567
 21
243.763
  0
LINE
  8
0
 10
221.573
 11
221.719
 20
243.763
 21
243.948
  0
LINE
  8
0
 10
221.719
 11
221.879
 20
243.948
 21
244.121
  0
LINE
  8
0
 10
221.879
 11
222.052
 20
244.121
 21
244.281
  0
LINE
  8
0
 10
222.052
 11
222.237
 20
244.281
 21
244.427
  0
LINE
  8
0
 10
222.237
 11
222.433
 20
244.427
 21
244.558
  0
LINE
  8
0
 10
222.433
 11
222.638
 20
244.558
 21
244.673
  0
LINE
  8
0
 10
222.638
 11
222.852
 20
244.673
 21
244.772
  0
LINE
  8
0
 10
222.852
 11
223.073
 20
244.772
 21
244.853
  0
LINE
  8
0
 10
223.073
 11
223.3
 20
244.853
 21
244.917
  0
LINE
  8
0
 10
223.3
 11
223.531
 20
244.917
 21
244.963
  0
LINE
  8
0
 10
223.531
 11
223.765
 20
244.963
 21
244.991
  0
LINE
  8
0
 10
223.765
 11
224
 20
244.991
 21
245
  0
LINE
  8
0
 10
224
 11
244
 20
245
 21
245
  0
LINE
  8
0
 10
244
 11
244.437
 20
245
 21
249.158
  0
LINE
  8
0
 10
244.437
 11
245.729
 20
249.158
 21
253.135
  0
LINE
  8
0
 10
245.729
 11
247.82
 20
253.135
 21
256.756
  0
LINE
  8
0
 10
247.82
 11
250.617
 20
256.756
 21
259.863
  0
LINE
  8
0
 10
250.617
 11
254
 20
259.863
 21
262.321
  0
LINE
  8
0
 10
254
 11
257.82
 20
262.321
 21
264.021
  0
LINE
  8
0
 10
257.82
 11
261.909
 20
264.021
 21
264.89
  0
LINE
  8
0
 10
261.909
 11
266.091
 20
264.89
 21
264.89
  0
LINE
  8
0
 10
266.091
 11
270.18
 20
264.89
 21
264.021
  0
LINE
  8
0
 10
270.18
 11
274
 20
264.021
 21
262.321
  0
LINE
  8
0
 10
274
 11
277.383
 20
262.321
 21
259.863
  0
LINE
  8
0
 10
277.383
 11
280.18
 20
259.863
 21
256.756
  0
LINE
  8
0
 10
280.18
 11
282.271
 20
256.756
 21
253.135
  0
LINE
  8
0
 10
282.271
 11
283.563
 20
253.135
 21
249.158
  0
LINE
  8
0
 10
283.563
 11
284
 20
249.158
 21
245
  0
LINE
  8
0
 10
284
 11
334
 20
245
 21
245
  0
LINE
  8
0
 10
334
 11
334.235
 20
245
 21
244.991
  0
LINE
  8
0
 10
334.235
 11
334.469
 20
244.991
 21
244.963
  0
LINE
  8
0
 10
334.469
 11
334.7
 20
244.963
 21
244.917
  0
LINE
  8
0
 10
334.7
 11
334.927
 20
244.917
 21
244.853
  0
LINE
  8
0
 10
334.927
 11
335.148
 20
244.853
 21
244.772
  0
LINE
  8
0
 10
335.148
 11
335.362
 20
244.772
 21
244.673
  0
LINE
  8
0
 10
335.362
 11
335.567
 20
244.673
 21
244.558
  0
LINE
  8
0
 10
335.567
 11
335.763
 20
244.558
 21
244.427
  0
LINE
  8
0
 10
335.763
 11
335.948
 20
244.427
 21
244.281
  0
LINE
  8
0
 10
335.948
 11
336.121
 20
244.281
 21
244.121
  0
LINE
  8
0
 10
336.121
 11
336.281
 20
244.121
 21
243.948
  0
LINE
  8
0
 10
336.281
 11
336.427
 20
243.948
 21
243.763
  0
LINE
  8
0
 10
336.427
 11
336.558
 20
243.763
 21
243.567
  0
LINE
  8
0
 10
336.558
 11
336.673
 20
243.567
 21
243.362
  0
LINE
  8
0
 10
336.673
 11
336.772
 20
243.362
 21
243.148
  0
LINE
  8
0
 10
336.772
 11
336.853
 20
243.148
 21
242.927
  0
LINE
  8
0
 10
336.853
 11
336.917
 20
242.927
 21
242.7
  0
LINE
  8
0
 10
336.917
 11
336.963
 20
242.7
 21
242.469
  0
LINE
  8
0
 10
336.963
 11
336.991
 20
242.469
 21
242.235
  0
LINE
  8
0
 10
336.991
 11
337
 20
242.235
 21
242
  0
LINE
  8
0
 10
337
 11
337
 20
242
 21
200
  0
LINE
  8
0
 10
337
 11
284
 20
200
 21
200
  0
LINE
  8
0
 10
284
 11
283.563
 20
200
 21
195.842
  0
LINE
  8
0
 10
283.563
 11
282.271
 20
195.842
 21
191.865
  0
LINE
  8
0
 10
282.271
 11
280.18
 20
191.865
 21
188.244
  0
LINE
  8
0
 10
280.18
 11
277.383
 20
188.244
 21
185.137
  0
LINE
  8
0
 10
277.383
 11
274
 20
185.137
 21
182.679
  0
LINE
  8
0
 10
274
 11
270.18
 20
182.679
 21
180.979
  0
LINE
  8
0
 10
270.18
 11
266.091
 20
180.979
 21
180.11
  0
LINE
  8
0
 10
266.091
 11
261.909
 20
180.11
 21
180.11
  0
LINE
  8
0
 10
261.909
 11
257.82
 20
180.11
 21
180.979
  0
LINE
  8
0
 10
257.82
 11
254
 20
180.979
 21
182.679
  0
LINE
  8
0
 10
254
 11
250.617
 20
182.679
 21
185.137
  0
LINE
  8
0
 10
250.617
 11
247.82
 20
185.137
 21
188.244
  0
LINE
  8
0
 10
247.82
 11
245.729
 20
188.244
 21
191.865
  0
LINE
  8
0
 10
245.729
 11
244.437
 20
191.865
 21
195.842
  0
LINE
  8
0
 10
244.437
 11
244
 20
195.842
 21
200
  0
LINE
  8
0
 10
244
 11
221
 20
200
 21
200
  0
LINE
  8
0
 10
222.1
 11
222.198
 20
174.6
 21
175.536
  0
LINE
  8
0
 10
222.198
 11
222.489
 20
175.536
 21
176.43
  0
LINE
  8
0
 10
222.489
 11
222.959
 20
176.43
 21
177.245
  0
LINE
  8
0
 10
222.959
 11
223.589
 20
177.245
 21
177.944
  0
LINE
  8
0
 10
223.589
 11
224.35
 20
177.944
 21
178.497
  0
LINE
  8
0
 10
224.35
 11
225.209
 20
178.497
 21
178.88
  0
LINE
  8
0
 10
225.209
 11
226.13
 20
178.88
 21
179.075
  0
LINE
  8
0
 10
226.13
 11
227.07
 20
179.075
 21
179.075
  0
LINE
  8
0
 10
227.07
 11
227.991
 20
179.075
 21
178.88
  0
LINE
  8
0
 10
227.991
 11
228.85
 20
178.88
 21
178.497
  0
LINE
  8
0
 10
228.85
 11
229.611
 20
178.497
 21
177.944
  0
LINE
  8
0
 10
229.611
 11
230.241
 20
177.944
 21
177.245
  0
LINE
  8
0
 10
230.241
 11
230.711
 20
177.245
 21
176.43
  0
LINE
  8
0
 10
230.711
 11
231.002
 20
176.43
 21
175.536
  0
LINE
  8
0
 10
231.002
 11
231.1
 20
175.536
 21
174.6
  0
LINE
  8
0
 10
231.1
 11
231.002
 20
174.6
 21
173.664
  0
LINE
  8
0
 10
231.002
 11
230.711
 20
173.664
 21
172.77
  0
LINE
  8
0
 10
230.711
 11
230.241
 20
172.77
 21
171.955
  0
LINE
  8
0
 10
230.241
 11
229.611
 20
171.955
 21
171.256
  0
LINE
  8
0
 10
229.611
 11
228.85
 20
171.256
 21
170.703
  0
LINE
  8
0
 10
228.85
 11
227.991
 20
170.703
 21
170.32
  0
LINE
  8
0
 10
227.991
 11
227.07
 20
170.32
 21
170.125
  0
LINE
  8
0
 10
227.07
 11
226.13
 20
170.125
 21
170.125
  0
LINE
  8
0
 10
226.13
 11
225.209
 20
170.125
 21
170.32
  0
LINE
  8
0
 10
225.209
 11
224.35
 20
170.32
 21
170.703
  0
LINE
  8
0
 10
224.35
 11
223.589
 20
170.703
 21
171.256
  0
LINE
  8
0
 10
223.589
 11
222.959
 20
171.256
 21
171.955
  0
LINE
  8
0
 10
222.959
 11
222.489
 20
171.955
 21
172.77
  0
LINE
  8
0
 10
222.489
 11
222.198
 20
172.77
 21
173.664
  0
LINE
  8
0
 10
222.198
 11
222.1
 20
173.664
 21
174.6
  0
LINE
  8
0
 10
222.1
 11
222.198
 20
184.2
 21
185.136
  0
LINE
  8
0
 10
222.198
 11
222.489
 20
185.136
 21
186.03
  0
LINE
  8
0
 10
222.489
 11
222.959
 20
186.03
 21
186.845
  0
LINE
  8
0
 10
222.959
 11
223.589
 20
186.845
 21
187.544
  0
LINE
  8
0
 10
223.589
 11
224.35
 20
187.544
 21
188.097
  0
LINE
  8
0
 10
224.35
 11
225.209
 20
188.097
 21
188.48
  0
LINE
  8
0
 10
225.209
 11
226.13
 20
188.48
 21
188.675
  0
LINE
  8
0
 10
226.13
 11
227.07
 20
188.675
 21
188.675
  0
LINE
  8
0
 10
227.07
 11
227.991
 20
188.675
 21
188.48
  0
LINE
  8
0
 10
227.991
 11
228.85
 20
188.48
 21
188.097
  0
LINE
  8
0
 10
228.85
 11
229.611
 20
188.097
 21
187.544
  0
LINE
  8
0
 10
229.611
 11
230.241
 20
187.544
 21
186.845
  0
LINE
  8
0
 10
230.241
 11
230.711
 20
186.845
 21
186.03
  0
LINE
  8
0
 10
230.711
 11
231.002
 20
186.03
 21
185.136
  0
LINE
  8
0
 10
231.002
 11
231.1
 20
185.136
 21
184.2
  0
LINE
  8
0
 10
231.1
 11
231.002
 20
184.2
 21
183.264
  0
LINE
  8
0
 10
231.002
 11
230.711
 20
183.264
 21
182.37
  0
LINE
  8
0
 10
230.711
 11
230.241
 20
182.37
 21
181.555
  0
LINE
  8
0
 10
230.241
 11
229.611
 20
181.555
 21
180.856
  0
LINE
  8
0
 10
229.611
 11
228.85
 20
180.856
 21
180.303
  0
LINE
  8
0
 10
228.85
 11
227.991
 20
180.303
 21
179.92
  0
LINE
  8
0
 10
227.991
 11
227.07
 20
179.92
 21
179.725
  0
LINE
  8
0
 10
227.07
 11
226.13
 20
179.725
 21
179.725
  0
LINE
  8
0
 10
226.13
 11
225.209
 20
179.725
 21
179.92
  0
LINE
  8
0
 10
225.209
 11
224.35
 20
179.92
 21
180.303
  0
LINE
  8
0
 10
224.35
 11
223.589
 20
180.303
 21
180.856
  0
LINE
  8
0
 10
223.589
 11
222.959
 20
180.856
 21
181.555
  0
LINE
  8
0
 10
222.959
 11
222.489
 20
181.555
 21
182.37
  0
LINE
  8
0
 10
222.489
 11
222.198
 20
182.37
 21
183.264
  0
LINE
  8
0
 10
222.198
 11
222.1
 20
183.264
 21
184.2
  0
LINE
  8
0
 10
223.5
 11
223.573
 20
415
 21
415.464
  0
LINE
  8
0
 10
223.573
 11
223.786
 20
415.464
 21
415.882
  0
LINE
  8
0
 10
223.786
 11
224.118
 20
415.882
 21
416.214
  0
LINE
  8
0
 10
224.118
 11
224.536
 20
416.214
 21
416.427
  0
LINE
  8
0
 10
224.536
 11
225
 20
416.427
 21
416.5
  0
LINE
  8
0
 10
225
 11
225.464
 20
416.5
 21
416.427
  0
LINE
  8
0
 10
225.464
 11
225.882
 20
416.427
 21
416.214
  0
LINE
  8
0
 10
225.882
 11
226.214
 20
416.214
 21
415.882
  0
LINE
  8
0
 10
226.214
 11
226.427
 20
415.882
 21
415.464
  0
LINE
  8
0
 10
226.427
 11
226.5
 20
415.464
 21
415
  0
LINE
  8
0
 10
226.5
 11
226.427
 20
415
 21
414.536
  0
LINE
  8
0
 10
226.427
 11
226.214
 20
414.536
 21
414.118
  0
LINE
  8
0
 10
226.214
 11
225.882
 20
414.118
 21
413.786
  0
LINE
  8
0
 10
225.882
 11
225.464
 20
413.786
 21
413.573
  0
LINE
  8
0
 10
225.464
 11
225
 20
413.573
 21
413.5
  0
LINE
  8
0
 10
225
 11
224.536
 20
413.5
 21
413.573
  0
LINE
  8
0
 10
224.536
 11
224.118
 20
413.573
 21
413.786
  0
LINE
  8
0
 10
224.118
 11
223.786
 20
413.786
 21
414.118
  0
LINE
  8
0
 10
223.786
 11
223.573
 20
414.118
 21
414.536
  0
LINE
  8
0
 10
223.573
 11
223.5
 20
414.536
 21
415
  0
LINE
  8
0
 10
223.75
 11
223.75
 20
213.25
 21
218.25
  0
LINE
  8
0
 10
223.75
 11
230.25
 20
218.25
 21
218.25
  0
LINE
  8
0
 10
230.25
 11
230.25
 20
218.25
 21
213.25
  0
LINE
  8
0
 10
230.25
 11
223.75
 20
213.25
 21
213.25
  0
LINE
  8
0
 10
223.75
 11
223.75
 20
232.75
 21
237.75
  0
LINE
  8
0
 10
223.75
 11
230.25
 20
237.75
 21
237.75
  0
LINE
  8
0
 10
230.25
 11
230.25
 20
237.75
 21
232.75
  0
LINE
  8
0
 10
230.25
 11
223.75
 20
232.75
 21
232.75
  0
LINE
  8
0
 10
225.1
 11
225.133
 20
174.6
 21
174.912
  0
LINE
  8
0
 10
225.133
 11
225.23
 20
174.912
 21
175.21
  0
LINE
  8
0
 10
225.23
 11
225.386
 20
175.21
 21
175.482
  0
LINE
  8
0
 10
225.386
 11
225.596
 20
175.482
 21
175.715
  0
LINE
  8
0
 10
225.596
 11
225.85
 20
175.715
 21
175.899
  0
LINE
  8
0
 10
225.85
 11
226.136
 20
175.899
 21
176.027
  0
LINE
  8
0
 10
226.136
 11
226.443
 20
176.027
 21
176.092
  0
LINE
  8
0
 10
226.443
 11
226.757
 20
176.092
 21
176.092
  0
LINE
  8
0
 10
226.757
 11
227.064
 20
176.092
 21
176.027
  0
LINE
  8
0
 10
227.064
 11
227.35
 20
176.027
 21
175.899
  0
LINE
  8
0
 10
227.35
 11
227.604
 20
175.899
 21
175.715
  0
LINE
  8
0
 10
227.604
 11
227.814
 20
175.715
 21
175.482
  0
LINE
  8
0
 10
227.814
 11
227.97
 20
175.482
 21
175.21
  0
LINE
  8
0
 10
227.97
 11
228.067
 20
175.21
 21
174.912
  0
LINE
  8
0
 10
228.067
 11
228.1
 20
174.912
 21
174.6
  0
LINE
  8
0
 10
228.1
 11
228.067
 20
174.6
 21
174.288
  0
LINE
  8
0
 10
228.067
 11
227.97
 20
174.288
 21
173.99
  0
LINE
  8
0
 10
227.97
 11
227.814
 20
173.99
 21
173.718
  0
LINE
  8
0
 10
227.814
 11
227.604
 20
173.718
 21
173.485
  0
LINE
  8
0
 10
227.604
 11
227.35
 20
173.485
 21
173.301
  0
LINE
  8
0
 10
227.35
 11
227.064
 20
173.301
 21
173.173
  0
LINE
  8
0
 10
227.064
 11
226.757
 20
173.173
 21
173.108
  0
LINE
  8
0
 10
226.757
 11
226.443
 20
173.108
 21
173.108
  0
LINE
  8
0
 10
226.443
 11
226.136
 20
173.108
 21
173.173
  0
LINE
  8
0
 10
226.136
 11
225.85
 20
173.173
 21
173.301
  0
LINE
  8
0
 10
225.85
 11
225.596
 20
173.301
 21
173.485
  0
LINE
  8
0
 10
225.596
 11
225.386
 20
173.485
 21
173.718
  0
LINE
  8
0
 10
225.386
 11
225.23
 20
173.718
 21
173.99
  0
LINE
  8
0
 10
225.23
 11
225.133
 20
173.99
 21
174.288
  0
LINE
  8
0
 10
225.133
 11
225.1
 20
174.288
 21
174.6
  0
LINE
  8
0
 10
225.1
 11
225.133
 20
184.2
 21
184.512
  0
LINE
  8
0
 10
225.133
 11
225.23
 20
184.512
 21
184.81
  0
LINE
  8
0
 10
225.23
 11
225.386
 20
184.81
 21
185.082
  0
LINE
  8
0
 10
225.386
 11
225.596
 20
185.082
 21
185.315
  0
LINE
  8
0
 10
225.596
 11
225.85
 20
185.315
 21
185.499
  0
LINE
  8
0
 10
225.85
 11
226.136
 20
185.499
 21
185.627
  0
LINE
  8
0
 10
226.136
 11
226.443
 20
185.627
 21
185.692
  0
LINE
  8
0
 10
226.443
 11
226.757
 20
185.692
 21
185.692
  0
LINE
  8
0
 10
226.757
 11
227.064
 20
185.692
 21
185.627
  0
LINE
  8
0
 10
227.064
 11
227.35
 20
185.627
 21
185.499
  0
LINE
  8
0
 10
227.35
 11
227.604
 20
185.499
 21
185.315
  0
LINE
  8
0
 10
227.604
 11
227.814
 20
185.315
 21
185.082
  0
LINE
  8
0
 10
227.814
 11
227.97
 20
185.082
 21
184.81
  0
LINE
  8
0
 10
227.97
 11
228.067
 20
184.81
 21
184.512
  0
LINE
  8
0
 10
228.067
 11
228.1
 20
184.512
 21
184.2
  0
LINE
  8
0
 10
228.1
 11
228.067
 20
184.2
 21
183.888
  0
LINE
  8
0
 10
228.067
 11
227.97
 20
183.888
 21
183.59
  0
LINE
  8
0
 10
227.97
 11
227.814
 20
183.59
 21
183.318
  0
LINE
  8
0
 10
227.814
 11
227.604
 20
183.318
 21
183.085
  0
LINE
  8
0
 10
227.604
 11
227.35
 20
183.085
 21
182.901
  0
LINE
  8
0
 10
227.35
 11
227.064
 20
182.901
 21
182.773
  0
LINE
  8
0
 10
227.064
 11
226.757
 20
182.773
 21
182.708
  0
LINE
  8
0
 10
226.757
 11
226.443
 20
182.708
 21
182.708
  0
LINE
  8
0
 10
226.443
 11
226.136
 20
182.708
 21
182.773
  0
LINE
  8
0
 10
226.136
 11
225.85
 20
182.773
 21
182.901
  0
LINE
  8
0
 10
225.85
 11
225.596
 20
182.901
 21
183.085
  0
LINE
  8
0
 10
225.596
 11
225.386
 20
183.085
 21
183.318
  0
LINE
  8
0
 10
225.386
 11
225.23
 20
183.318
 21
183.59
  0
LINE
  8
0
 10
225.23
 11
225.133
 20
183.59
 21
183.888
  0
LINE
  8
0
 10
225.133
 11
225.1
 20
183.888
 21
184.2
  0
LINE
  8
0
 10
225.5
 11
225.573
 20
225.5
 21
225.964
  0
LINE
  8
0
 10
225.573
 11
225.786
 20
225.964
 21
226.382
  0
LINE
  8
0
 10
225.786
 11
226.118
 20
226.382
 21
226.714
  0
LINE
  8
0
 10
226.118
 11
226.536
 20
226.714
 21
226.927
  0
LINE
  8
0
 10
226.536
 11
227
 20
226.927
 21
227
  0
LINE
  8
0
 10
227
 11
227.464
 20
227
 21
226.927
  0
LINE
  8
0
 10
227.464
 11
227.882
 20
226.927
 21
226.714
  0
LINE
  8
0
 10
227.882
 11
228.214
 20
226.714
 21
226.382
  0
LINE
  8
0
 10
228.214
 11
228.427
 20
226.382
 21
225.964
  0
LINE
  8
0
 10
228.427
 11
228.5
 20
225.964
 21
225.5
  0
LINE
  8
0
 10
228.5
 11
228.427
 20
225.5
 21
225.036
  0
LINE
  8
0
 10
228.427
 11
228.214
 20
225.036
 21
224.618
  0
LINE
  8
0
 10
228.214
 11
227.882
 20
224.618
 21
224.286
  0
LINE
  8
0
 10
227.882
 11
227.464
 20
224.286
 21
224.073
  0
LINE
  8
0
 10
227.464
 11
227
 20
224.073
 21
224
  0
LINE
  8
0
 10
227
 11
226.536
 20
224
 21
224.073
  0
LINE
  8
0
 10
226.536
 11
226.118
 20
224.073
 21
224.286
  0
LINE
  8
0
 10
226.118
 11
225.786
 20
224.286
 21
224.618
  0
LINE
  8
0
 10
225.786
 11
225.573
 20
224.618
 21
225.036
  0
LINE
  8
0
 10
225.573
 11
225.5
 20
225.036
 21
225.5
  0
LINE
  8
0
 10
231
 11
231
 20
270
 21
312
  0
LINE
  8
0
 10
231
 11
231.009
 20
312
 21
312.235
  0
LINE
  8
0
 10
231.009
 11
231.037
 20
312.235
 21
312.469
  0
LINE
  8
0
 10
231.037
 11
231.083
 20
312.469
 21
312.7
  0
LINE
  8
0
 10
231.083
 11
231.147
 20
312.7
 21
312.927
  0
LINE
  8
0
 10
231.147
 11
231.228
 20
312.927
 21
313.148
  0
LINE
  8
0
 10
231.228
 11
231.327
 20
313.148
 21
313.362
  0
LINE
  8
0
 10
231.327
 11
231.442
 20
313.362
 21
313.567
  0
LINE
  8
0
 10
231.442
 11
231.573
 20
313.567
 21
313.763
  0
LINE
  8
0
 10
231.573
 11
231.719
 20
313.763
 21
313.948
  0
LINE
  8
0
 10
231.719
 11
231.879
 20
313.948
 21
314.121
  0
LINE
  8
0
 10
231.879
 11
232.052
 20
314.121
 21
314.281
  0
LINE
  8
0
 10
232.052
 11
232.237
 20
314.281
 21
314.427
  0
LINE
  8
0
 10
232.237
 11
232.433
 20
314.427
 21
314.558
  0
LINE
  8
0
 10
232.433
 11
232.638
 20
314.558
 21
314.673
  0
LINE
  8
0
 10
232.638
 11
232.852
 20
314.673
 21
314.772
  0
LINE
  8
0
 10
232.852
 11
233.073
 20
314.772
 21
314.853
  0
LINE
  8
0
 10
233.073
 11
233.3
 20
314.853
 21
314.917
  0
LINE
  8
0
 10
233.3
 11
233.531
 20
314.917
 21
314.963
  0
LINE
  8
0
 10
233.531
 11
233.765
 20
314.963
 21
314.991
  0
LINE
  8
0
 10
233.765
 11
234
 20
314.991
 21
315
  0
LINE
  8
0
 10
234
 11
284
 20
315
 21
315
  0
LINE
  8
0
 10
284
 11
284.437
 20
315
 21
319.158
  0
LINE
  8
0
 10
284.437
 11
285.729
 20
319.158
 21
323.135
  0
LINE
  8
0
 10
285.729
 11
287.82
 20
323.135
 21
326.756
  0
LINE
  8
0
 10
287.82
 11
290.617
 20
326.756
 21
329.863
  0
LINE
  8
0
 10
290.617
 11
294
 20
329.863
 21
332.321
  0
LINE
  8
0
 10
294
 11
297.82
 20
332.321
 21
334.021
  0
LINE
  8
0
 10
297.82
 11
301.909
 20
334.021
 21
334.89
  0
LINE
  8
0
 10
301.909
 11
306.091
 20
334.89
 21
334.89
  0
LINE
  8
0
 10
306.091
 11
310.18
 20
334.89
 21
334.021
  0
LINE
  8
0
 10
310.18
 11
314
 20
334.021
 21
332.321
  0
LINE
  8
0
 10
314
 11
317.383
 20
332.321
 21
329.863
  0
LINE
  8
0
 10
317.383
 11
320.18
 20
329.863
 21
326.756
  0
LINE
  8
0
 10
320.18
 11
322.271
 20
326.756
 21
323.135
  0
LINE
  8
0
 10
322.271
 11
323.563
 20
323.135
 21
319.158
  0
LINE
  8
0
 10
323.563
 11
324
 20
319.158
 21
315
  0
LINE
  8
0
 10
324
 11
344
 20
315
 21
315
  0
LINE
  8
0
 10
344
 11
344.235
 20
315
 21
314.991
  0
LINE
  8
0
 10
344.235
 11
344.469
 20
314.991
 21
314.963
  0
LINE
  8
0
 10
344.469
 11
344.7
 20
314.963
 21
314.917
  0
LINE
  8
0
 10
344.7
 11
344.927
 20
314.917
 21
314.853
  0
LINE
  8
0
 10
344.927
 11
345.148
 20
314.853
 21
314.772
  0
LINE
  8
0
 10
345.148
 11
345.362
 20
314.772
 21
314.673
  0
LINE
  8
0
 10
345.362
 11
345.567
 20
314.673
 21
314.558
  0
LINE
  8
0
 10
345.567
 11
345.763
 20
314.558
 21
314.427
  0
LINE
  8
0
 10
345.763
 11
345.948
 20
314.427
 21
314.281
  0
LINE
  8
0
 10
345.948
 11
346.121
 20
314.281
 21
314.121
  0
LINE
  8
0
 10
346.121
 11
346.281
 20
314.121
 21
313.948
  0
LINE
  8
0
 10
346.281
 11
346.427
 20
313.948
 21
313.763
  0
LINE
  8
0
 10
346.427
 11
346.558
 20
313.763
 21
313.567
  0
LINE
  8
0
 10
346.558
 11
346.673
 20
313.567
 21
313.362
  0
LINE
  8
0
 10
346.673
 11
346.772
 20
313.362
 21
313.148
  0
LINE
  8
0
 10
346.772
 11
346.853
 20
313.148
 21
312.927
  0
LINE
  8
0
 10
346.853
 11
346.917
 20
312.927
 21
312.7
  0
LINE
  8
0
 10
346.917
 11
346.963
 20
312.7
 21
312.469
  0
LINE
  8
0
 10
346.963
 11
346.991
 20
312.469
 21
312.235
  0
LINE
  8
0
 10
346.991
 11
347
 20
312.235
 21
312
  0
LINE
  8
0
 10
347
 11
347
 20
312
 21
270
  0
LINE
  8
0
 10
347
 11
324
 20
270
 21
270
  0
LINE
  8
0
 10
324
 11
323.563
 20
270
 21
265.842
  0
LINE
  8
0
 10
323.563
 11
322.271
 20
265.842
 21
261.865
  0
LINE
  8
0
 10
322.271
 11
320.18
 20
261.865
 21
258.244
  0
LINE
  8
0
 10
320.18
 11
317.383
 20
258.244
 21
255.137
  0
LINE
  8
0
 10
317.383
 11
314
 20
255.137
 21
252.679
  0
LINE
  8
0
 10
314
 11
310.18
 20
252.679
 21
250.979
  0
LINE
  8
0
 10
310.18
 11
306.091
 20
250.979
 21
250.11
  0
LINE
  8
0
 10
306.091
 11
301.909
 20
250.11
 21
250.11
  0
LINE
  8
0
 10
301.909
 11
297.82
 20
250.11
 21
250.979
  0
LINE
  8
0
 10
297.82
 11
294
 20
250.979
 21
252.679
  0
LINE
  8
0
 10
294
 11
290.617
 20
252.679
 21
255.137
  0
LINE
  8
0
 10
290.617
 11
287.82
 20
255.137
 21
258.244
  0
LINE
  8
0
 10
287.82
 11
285.729
 20
258.244
 21
261.865
  0
LINE
  8
0
 10
285.729
 11
284.437
 20
261.865
 21
265.842
  0
LINE
  8
0
 10
284.437
 11
284
 20
265.842
 21
270
  0
LINE
  8
0
 10
284
 11
231
 20
270
 21
270
  0
LINE
  8
0
 10
233.75
 11
233.75
 20
283.25
 21
288.25
  0
LINE
  8
0
 10
233.75
 11
240.25
 20
288.25
 21
288.25
  0
LINE
  8
0
 10
240.25
 11
240.25
 20
288.25
 21
283.25
  0
LINE
  8
0
 10
240.25
 11
233.75
 20
283.25
 21
283.25
  0
LINE
  8
0
 10
233.75
 11
233.75
 20
302.75
 21
307.75
  0
LINE
  8
0
 10
233.75
 11
240.25
 20
307.75
 21
307.75
  0
LINE
  8
0
 10
240.25
 11
240.25
 20
307.75
 21
302.75
  0
LINE
  8
0
 10
240.25
 11
233.75
 20
302.75
 21
302.75
  0
LINE
  8
0
 10
235.5
 11
235.573
 20
295.5
 21
295.964
  0
LINE
  8
0
 10
235.573
 11
235.786
 20
295.964
 21
296.382
  0
LINE
  8
0
 10
235.786
 11
236.118
 20
296.382
 21
296.714
  0
LINE
  8
0
 10
236.118
 11
236.536
 20
296.714
 21
296.927
  0
LINE
  8
0
 10
236.536
 11
237
 20
296.927
 21
297
  0
LINE
  8
0
 10
237
 11
237.464
 20
297
 21
296.927
  0
LINE
  8
0
 10
237.464
 11
237.882
 20
296.927
 21
296.714
  0
LINE
  8
0
 10
237.882
 11
238.214
 20
296.714
 21
296.382
  0
LINE
  8
0
 10
238.214
 11
238.427
 20
296.382
 21
295.964
  0
LINE
  8
0
 10
238.427
 11
238.5
 20
295.964
 21
295.5
  0
LINE
  8
0
 10
238.5
 11
238.427
 20
295.5
 21
295.036
  0
LINE
  8
0
 10
238.427
 11
238.214
 20
295.036
 21
294.618
  0
LINE
  8
0
 10
238.214
 11
237.882
 20
294.618
 21
294.286
  0
LINE
  8
0
 10
237.882
 11
237.464
 20
294.286
 21
294.073
  0
LINE
  8
0
 10
237.464
 11
237
 20
294.073
 21
294
  0
LINE
  8
0
 10
237
 11
236.536
 20
294
 21
294.073
  0
LINE
  8
0
 10
236.536
 11
236.118
 20
294.073
 21
294.286
  0
LINE
  8
0
 10
236.118
 11
235.786
 20
294.286
 21
294.618
  0
LINE
  8
0
 10
235.786
 11
235.573
 20
294.618
 21
295.036
  0
LINE
  8
0
 10
235.573
 11
235.5
 20
295.036
 21
295.5
  0
LINE
  8
0
 10
240
 11
240
 20
412
 21
418
  0
LINE
  8
0
 10
240
 11
300
 20
418
 21
418
  0
LINE
  8
0
 10
300
 11
300
 20
418
 21
412
  0
LINE
  8
0
 10
300
 11
240
 20
412
 21
412
  0
LINE
  8
0
 10
244
 11
244.032
 20
211.644
 21
211.806
  0
LINE
  8
0
 10
244.032
 11
244.106
 20
211.806
 21
211.956
  0
LINE
  8
0
 10
244.106
 11
246.962
 20
211.956
 21
216.152
  0
LINE
  8
0
 10
246.962
 11
248.39
 20
216.152
 21
218.25
  0
LINE
  8
0
 10
248.39
 11
249.818
 20
218.25
 21
220.35
  0
LINE
  8
0
 10
249.818
 11
249.916
 20
220.35
 21
220.462
  0
LINE
  8
0
 10
249.916
 11
250.038
 20
220.462
 21
220.546
  0
LINE
  8
0
 10
250.038
 11
250.176
 20
220.546
 21
220.598
  0
LINE
  8
0
 10
250.176
 11
250.324
 20
220.598
 21
220.618
  0
LINE
  8
0
 10
250.324
 11
252.604
 20
220.618
 21
220.618
  0
LINE
  8
0
 10
252.604
 11
253.744
 20
220.618
 21
220.62
  0
LINE
  8
0
 10
253.744
 11
254.884
 20
220.62
 21
220.62
  0
LINE
  8
0
 10
254.884
 11
259.84
 20
220.62
 21
227.904
  0
LINE
  8
0
 10
259.84
 11
262.318
 20
227.904
 21
231.546
  0
LINE
  8
0
 10
262.318
 11
264.796
 20
231.546
 21
235.188
  0
LINE
  8
0
 10
264.796
 11
264.93
 20
235.188
 21
235.33
  0
LINE
  8
0
 10
264.93
 11
265.098
 20
235.33
 21
235.42
  0
LINE
  8
0
 10
265.098
 11
265.288
 20
235.42
 21
235.454
  0
LINE
  8
0
 10
265.288
 11
265.482
 20
235.454
 21
235.428
  0
LINE
  8
0
 10
265.482
 11
265.658
 20
235.428
 21
235.342
  0
LINE
  8
0
 10
265.658
 11
265.794
 20
235.342
 21
235.206
  0
LINE
  8
0
 10
265.794
 11
265.882
 20
235.206
 21
235.038
  0
LINE
  8
0
 10
265.882
 11
265.914
 20
235.038
 21
234.844
  0
LINE
  8
0
 10
265.914
 11
265.914
 20
234.844
 21
221.996
  0
LINE
  8
0
 10
265.914
 11
270.402
 20
221.996
 21
228.592
  0
LINE
  8
0
 10
270.402
 11
272.644
 20
228.592
 21
231.89
  0
LINE
  8
0
 10
272.644
 11
274.888
 20
231.89
 21
235.188
  0
LINE
  8
0
 10
274.888
 11
275.024
 20
235.188
 21
235.33
  0
LINE
  8
0
 10
275.024
 11
275.192
 20
235.33
 21
235.42
  0
LINE
  8
0
 10
275.192
 11
275.38
 20
235.42
 21
235.454
  0
LINE
  8
0
 10
275.38
 11
275.574
 20
235.454
 21
235.428
  0
LINE
  8
0
 10
275.574
 11
275.75
 20
235.428
 21
235.342
  0
LINE
  8
0
 10
275.75
 11
275.888
 20
235.342
 21
235.206
  0
LINE
  8
0
 10
275.888
 11
275.976
 20
235.206
 21
235.038
  0
LINE
  8
0
 10
275.976
 11
276.006
 20
235.038
 21
234.844
  0
LINE
  8
0
 10
276.006
 11
276.006
 20
234.844
 21
220.62
  0
LINE
  8
0
 10
276.006
 11
283.388
 20
220.62
 21
220.62
  0
LINE
  8
0
 10
283.388
 11
283.554
 20
220.62
 21
220.598
  0
LINE
  8
0
 10
283.554
 11
283.704
 20
220.598
 21
220.532
  0
LINE
  8
0
 10
283.704
 11
283.832
 20
220.532
 21
220.43
  0
LINE
  8
0
 10
283.832
 11
283.928
 20
220.43
 21
220.296
  0
LINE
  8
0
 10
283.928
 11
283.986
 20
220.296
 21
220.138
  0
LINE
  8
0
 10
283.986
 11
284
 20
220.138
 21
219.976
  0
LINE
  8
0
 10
284
 11
283.968
 20
219.976
 21
219.814
  0
LINE
  8
0
 10
283.968
 11
283.894
 20
219.814
 21
219.666
  0
LINE
  8
0
 10
283.894
 11
282.466
 20
219.666
 21
217.566
  0
LINE
  8
0
 10
282.466
 11
281.038
 20
217.566
 21
215.468
  0
LINE
  8
0
 10
281.038
 11
279.61
 20
215.468
 21
213.37
  0
LINE
  8
0
 10
279.61
 11
278.182
 20
213.37
 21
211.27
  0
LINE
  8
0
 10
278.182
 11
278.082
 20
211.27
 21
211.158
  0
LINE
  8
0
 10
278.082
 11
277.962
 20
211.158
 21
211.074
  0
LINE
  8
0
 10
277.962
 11
277.824
 20
211.074
 21
211.022
  0
LINE
  8
0
 10
277.824
 11
277.676
 20
211.022
 21
211.004
  0
LINE
  8
0
 10
277.676
 11
276.454
 20
211.004
 21
211.002
  0
LINE
  8
0
 10
276.454
 11
275.234
 20
211.002
 21
211.002
  0
LINE
  8
0
 10
275.234
 11
274.012
 20
211.002
 21
211
  0
LINE
  8
0
 10
274.012
 11
272.792
 20
211
 21
211
  0
LINE
  8
0
 10
272.792
 11
272.672
 20
211
 21
211.012
  0
LINE
  8
0
 10
272.672
 11
272.558
 20
211.012
 21
211.046
  0
LINE
  8
0
 10
272.558
 11
272.452
 20
211.046
 21
211.102
  0
LINE
  8
0
 10
272.452
 11
272.36
 20
211.102
 21
211.178
  0
LINE
  8
0
 10
272.36
 11
272.282
 20
211.178
 21
211.272
  0
LINE
  8
0
 10
272.282
 11
272.226
 20
211.272
 21
211.378
  0
LINE
  8
0
 10
272.226
 11
272.192
 20
211.378
 21
211.492
  0
LINE
  8
0
 10
272.192
 11
272.18
 20
211.492
 21
211.612
  0
LINE
  8
0
 10
272.18
 11
272.18
 20
211.612
 21
224.458
  0
LINE
  8
0
 10
272.18
 11
269.936
 20
224.458
 21
221.16
  0
LINE
  8
0
 10
269.936
 11
267.692
 20
221.16
 21
217.864
  0
LINE
  8
0
 10
267.692
 11
263.204
 20
217.864
 21
211.268
  0
LINE
  8
0
 10
263.204
 11
263.104
 20
211.268
 21
211.154
  0
LINE
  8
0
 10
263.104
 11
262.982
 20
211.154
 21
211.07
  0
LINE
  8
0
 10
262.982
 11
262.844
 20
211.07
 21
211.018
  0
LINE
  8
0
 10
262.844
 11
262.698
 20
211.018
 21
211
  0
LINE
  8
0
 10
262.698
 11
262.652
 20
211
 21
211.002
  0
LINE
  8
0
 10
262.652
 11
262.608
 20
211.002
 21
211.006
  0
LINE
  8
0
 10
262.608
 11
262.562
 20
211.006
 21
211.016
  0
LINE
  8
0
 10
262.562
 11
262.518
 20
211.016
 21
211.028
  0
LINE
  8
0
 10
262.518
 11
262.342
 20
211.028
 21
211.114
  0
LINE
  8
0
 10
262.342
 11
262.206
 20
211.114
 21
211.248
  0
LINE
  8
0
 10
262.206
 11
262.118
 20
211.248
 21
211.418
  0
LINE
  8
0
 10
262.118
 11
262.086
 20
211.418
 21
211.612
  0
LINE
  8
0
 10
262.086
 11
262.086
 20
211.612
 21
224.458
  0
LINE
  8
0
 10
262.086
 11
259.842
 20
224.458
 21
221.16
  0
LINE
  8
0
 10
259.842
 11
257.598
 20
221.16
 21
217.864
  0
LINE
  8
0
 10
257.598
 11
255.356
 20
217.864
 21
214.566
  0
LINE
  8
0
 10
255.356
 11
253.112
 20
214.566
 21
211.268
  0
LINE
  8
0
 10
253.112
 11
253.012
 20
211.268
 21
211.156
  0
LINE
  8
0
 10
253.012
 11
252.892
 20
211.156
 21
211.072
  0
LINE
  8
0
 10
252.892
 11
252.754
 20
211.072
 21
211.018
  0
LINE
  8
0
 10
252.754
 11
252.606
 20
211.018
 21
211
  0
LINE
  8
0
 10
252.606
 11
244.612
 20
211
 21
211
  0
LINE
  8
0
 10
244.612
 11
244.446
 20
211
 21
211.022
  0
LINE
  8
0
 10
244.446
 11
244.296
 20
211.022
 21
211.088
  0
LINE
  8
0
 10
244.296
 11
244.168
 20
211.088
 21
211.19
  0
LINE
  8
0
 10
244.168
 11
244.072
 20
211.19
 21
211.326
  0
LINE
  8
0
 10
244.072
 11
244.014
 20
211.326
 21
211.482
  0
LINE
  8
0
 10
244.014
 11
244
 20
211.482
 21
211.644
  0
LINE
  8
0
 10
245.768
 11
246.988
 20
212.222
 21
214.016
  0
LINE
  8
0
 10
246.988
 11
248.208
 20
214.016
 21
215.808
  0
LINE
  8
0
 10
248.208
 11
249.428
 20
215.808
 21
217.602
  0
LINE
  8
0
 10
249.428
 11
250.648
 20
217.602
 21
219.394
  0
LINE
  8
0
 10
250.648
 11
251.788
 20
219.394
 21
219.396
  0
LINE
  8
0
 10
251.788
 11
254.07
 20
219.396
 21
219.396
  0
LINE
  8
0
 10
254.07
 11
255.21
 20
219.396
 21
219.398
  0
LINE
  8
0
 10
255.21
 11
255.358
 20
219.398
 21
219.416
  0
LINE
  8
0
 10
255.358
 11
255.496
 20
219.416
 21
219.468
  0
LINE
  8
0
 10
255.496
 11
255.616
 20
219.468
 21
219.552
  0
LINE
  8
0
 10
255.616
 11
255.714
 20
219.552
 21
219.666
  0
LINE
  8
0
 10
255.714
 11
257.958
 20
219.666
 21
222.964
  0
LINE
  8
0
 10
257.958
 11
260.202
 20
222.964
 21
226.26
  0
LINE
  8
0
 10
260.202
 11
264.69
 20
226.26
 21
232.856
  0
LINE
  8
0
 10
264.69
 11
264.69
 20
232.856
 21
220.008
  0
LINE
  8
0
 10
264.69
 11
264.72
 20
220.008
 21
219.816
  0
LINE
  8
0
 10
264.72
 11
264.81
 20
219.816
 21
219.646
  0
LINE
  8
0
 10
264.81
 11
264.946
 20
219.646
 21
219.512
  0
LINE
  8
0
 10
264.946
 11
265.122
 20
219.512
 21
219.424
  0
LINE
  8
0
 10
265.122
 11
265.316
 20
219.424
 21
219.398
  0
LINE
  8
0
 10
265.316
 11
265.504
 20
219.398
 21
219.432
  0
LINE
  8
0
 10
265.504
 11
265.672
 20
219.432
 21
219.522
  0
LINE
  8
0
 10
265.672
 11
265.808
 20
219.522
 21
219.666
  0
LINE
  8
0
 10
265.808
 11
268.052
 20
219.666
 21
222.964
  0
LINE
  8
0
 10
268.052
 11
270.296
 20
222.964
 21
226.26
  0
LINE
  8
0
 10
270.296
 11
272.54
 20
226.26
 21
229.558
  0
LINE
  8
0
 10
272.54
 11
274.782
 20
229.558
 21
232.856
  0
LINE
  8
0
 10
274.782
 11
274.782
 20
232.856
 21
220.01
  0
LINE
  8
0
 10
274.782
 11
274.794
 20
220.01
 21
219.89
  0
LINE
  8
0
 10
274.794
 11
274.83
 20
219.89
 21
219.776
  0
LINE
  8
0
 10
274.83
 11
274.886
 20
219.776
 21
219.67
  0
LINE
  8
0
 10
274.886
 11
274.962
 20
219.67
 21
219.576
  0
LINE
  8
0
 10
274.962
 11
275.056
 20
219.576
 21
219.5
  0
LINE
  8
0
 10
275.056
 11
275.16
 20
219.5
 21
219.444
  0
LINE
  8
0
 10
275.16
 11
275.274
 20
219.444
 21
219.41
  0
LINE
  8
0
 10
275.274
 11
275.394
 20
219.41
 21
219.398
  0
LINE
  8
0
 10
275.394
 11
282.232
 20
219.398
 21
219.398
  0
LINE
  8
0
 10
282.232
 11
281.012
 20
219.398
 21
217.604
  0
LINE
  8
0
 10
281.012
 11
279.792
 20
217.604
 21
215.812
  0
LINE
  8
0
 10
279.792
 11
278.572
 20
215.812
 21
214.018
  0
LINE
  8
0
 10
278.572
 11
277.352
 20
214.018
 21
212.226
  0
LINE
  8
0
 10
277.352
 11
276.364
 20
212.226
 21
212.226
  0
LINE
  8
0
 10
276.364
 11
275.378
 20
212.226
 21
212.224
  0
LINE
  8
0
 10
275.378
 11
273.404
 20
212.224
 21
212.224
  0
LINE
  8
0
 10
273.404
 11
273.404
 20
212.224
 21
226.446
  0
LINE
  8
0
 10
273.404
 11
273.372
 20
226.446
 21
226.64
  0
LINE
  8
0
 10
273.372
 11
273.284
 20
226.64
 21
226.81
  0
LINE
  8
0
 10
273.284
 11
273.148
 20
226.81
 21
226.944
  0
LINE
  8
0
 10
273.148
 11
272.972
 20
226.944
 21
227.03
  0
LINE
  8
0
 10
272.972
 11
272.778
 20
227.03
 21
227.056
  0
LINE
  8
0
 10
272.778
 11
272.588
 20
227.056
 21
227.022
  0
LINE
  8
0
 10
272.588
 11
272.42
 20
227.022
 21
226.932
  0
LINE
  8
0
 10
272.42
 11
272.286
 20
226.932
 21
226.79
  0
LINE
  8
0
 10
272.286
 11
267.798
 20
226.79
 21
220.194
  0
LINE
  8
0
 10
267.798
 11
263.31
 20
220.194
 21
213.598
  0
LINE
  8
0
 10
263.31
 11
263.31
 20
213.598
 21
226.446
  0
LINE
  8
0
 10
263.31
 11
263.278
 20
226.446
 21
226.64
  0
LINE
  8
0
 10
263.278
 11
263.19
 20
226.64
 21
226.81
  0
LINE
  8
0
 10
263.19
 11
263.054
 20
226.81
 21
226.944
  0
LINE
  8
0
 10
263.054
 11
262.878
 20
226.944
 21
227.03
  0
LINE
  8
0
 10
262.878
 11
262.684
 20
227.03
 21
227.058
  0
LINE
  8
0
 10
262.684
 11
262.496
 20
227.058
 21
227.022
  0
LINE
  8
0
 10
262.496
 11
262.326
 20
227.022
 21
226.932
  0
LINE
  8
0
 10
262.326
 11
262.192
 20
226.932
 21
226.79
  0
LINE
  8
0
 10
262.192
 11
257.236
 20
226.79
 21
219.506
  0
LINE
  8
0
 10
257.236
 11
254.758
 20
219.506
 21
215.864
  0
LINE
  8
0
 10
254.758
 11
252.282
 20
215.864
 21
212.222
  0
LINE
  8
0
 10
252.282
 11
245.768
 20
212.222
 21
212.222
  0
LINE
  8
0
 10
248.5
 11
248.573
 20
200
 21
200.464
  0
LINE
  8
0
 10
248.573
 11
248.786
 20
200.464
 21
200.882
  0
LINE
  8
0
 10
248.786
 11
249.118
 20
200.882
 21
201.214
  0
LINE
  8
0
 10
249.118
 11
249.536
 20
201.214
 21
201.427
  0
LINE
  8
0
 10
249.536
 11
250
 20
201.427
 21
201.5
  0
LINE
  8
0
 10
250
 11
250.464
 20
201.5
 21
201.427
  0
LINE
  8
0
 10
250.464
 11
250.882
 20
201.427
 21
201.214
  0
LINE
  8
0
 10
250.882
 11
251.214
 20
201.214
 21
200.882
  0
LINE
  8
0
 10
251.214
 11
251.427
 20
200.882
 21
200.464
  0
LINE
  8
0
 10
251.427
 11
251.5
 20
200.464
 21
200
  0
LINE
  8
0
 10
251.5
 11
251.427
 20
200
 21
199.536
  0
LINE
  8
0
 10
251.427
 11
251.214
 20
199.536
 21
199.118
  0
LINE
  8
0
 10
251.214
 11
250.882
 20
199.118
 21
198.786
  0
LINE
  8
0
 10
250.882
 11
250.464
 20
198.786
 21
198.573
  0
LINE
  8
0
 10
250.464
 11
250
 20
198.573
 21
198.5
  0
LINE
  8
0
 10
250
 11
249.536
 20
198.5
 21
198.573
  0
LINE
  8
0
 10
249.536
 11
249.118
 20
198.573
 21
198.786
  0
LINE
  8
0
 10
249.118
 11
248.786
 20
198.786
 21
199.118
  0
LINE
  8
0
 10
248.786
 11
248.573
 20
199.118
 21
199.536
  0
LINE
  8
0
 10
248.573
 11
248.5
 20
199.536
 21
200
  0
LINE
  8
0
 10
248.5
 11
248.573
 20
245
 21
245.464
  0
LINE
  8
0
 10
248.573
 11
248.786
 20
245.464
 21
245.882
  0
LINE
  8
0
 10
248.786
 11
249.118
 20
245.882
 21
246.214
  0
LINE
  8
0
 10
249.118
 11
249.536
 20
246.214
 21
246.427
  0
LINE
  8
0
 10
249.536
 11
250
 20
246.427
 21
246.5
  0
LINE
  8
0
 10
250
 11
250.464
 20
246.5
 21
246.427
  0
LINE
  8
0
 10
250.464
 11
250.882
 20
246.427
 21
246.214
  0
LINE
  8
0
 10
250.882
 11
251.214
 20
246.214
 21
245.882
  0
LINE
  8
0
 10
251.214
 11
251.427
 20
245.882
 21
245.464
  0
LINE
  8
0
 10
251.427
 11
251.5
 20
245.464
 21
245
  0
LINE
  8
0
 10
251.5
 11
251.427
 20
245
 21
244.536
  0
LINE
  8
0
 10
251.427
 11
251.214
 20
244.536
 21
244.118
  0
LINE
  8
0
 10
251.214
 11
250.882
 20
244.118
 21
243.786
  0
LINE
  8
0
 10
250.882
 11
250.464
 20
243.786
 21
243.573
  0
LINE
  8
0
 10
250.464
 11
250
 20
243.573
 21
243.5
  0
LINE
  8
0
 10
250
 11
249.536
 20
243.5
 21
243.573
  0
LINE
  8
0
 10
249.536
 11
249.118
 20
243.573
 21
243.786
  0
LINE
  8
0
 10
249.118
 11
248.786
 20
243.786
 21
244.118
  0
LINE
  8
0
 10
248.786
 11
248.573
 20
244.118
 21
244.536
  0
LINE
  8
0
 10
248.573
 11
248.5
 20
244.536
 21
245
  0
LINE
  8
0
 10
276.5
 11
276.573
 20
200
 21
200.464
  0
LINE
  8
0
 10
276.573
 11
276.786
 20
200.464
 21
200.882
  0
LINE
  8
0
 10
276.786
 11
277.118
 20
200.882
 21
201.214
  0
LINE
  8
0
 10
277.118
 11
277.536
 20
201.214
 21
201.427
  0
LINE
  8
0
 10
277.536
 11
278
 20
201.427
 21
201.5
  0
LINE
  8
0
 10
278
 11
278.464
 20
201.5
 21
201.427
  0
LINE
  8
0
 10
278.464
 11
278.882
 20
201.427
 21
201.214
  0
LINE
  8
0
 10
278.882
 11
279.214
 20
201.214
 21
200.882
  0
LINE
  8
0
 10
279.214
 11
279.427
 20
200.882
 21
200.464
  0
LINE
  8
0
 10
279.427
 11
279.5
 20
200.464
 21
200
  0
LINE
  8
0
 10
279.5
 11
279.427
 20
200
 21
199.536
  0
LINE
  8
0
 10
279.427
 11
279.214
 20
199.536
 21
199.118
  0
LINE
  8
0
 10
279.214
 11
278.882
 20
199.118
 21
198.786
  0
LINE
  8
0
 10
278.882
 11
278.464
 20
198.786
 21
198.573
  0
LINE
  8
0
 10
278.464
 11
278
 20
198.573
 21
198.5
  0
LINE
  8
0
 10
278
 11
277.536
 20
198.5
 21
198.573
  0
LINE
  8
0
 10
277.536
 11
277.118
 20
198.573
 21
198.786
  0
LINE
  8
0
 10
277.118
 11
276.786
 20
198.786
 21
199.118
  0
LINE
  8
0
 10
276.786
 11
276.573
 20
199.118
 21
199.536
  0
LINE
  8
0
 10
276.573
 11
276.5
 20
199.536
 21
200
  0
LINE
  8
0
 10
276.5
 11
276.573
 20
245
 21
245.464
  0
LINE
  8
0
 10
276.573
 11
276.786
 20
245.464
 21
245.882
  0
LINE
  8
0
 10
276.786
 11
277.118
 20
245.882
 21
246.214
  0
LINE
  8
0
 10
277.118
 11
277.536
 20
246.214
 21
246.427
  0
LINE
  8
0
 10
277.536
 11
278
 20
246.427
 21
246.5
  0
LINE
  8
0
 10
278
 11
278.464
 20
246.5
 21
246.427
  0
LINE
  8
0
 10
278.464
 11
278.882
 20
246.427
 21
246.214
  0
LINE
  8
0
 10
278.882
 11
279.214
 20
246.214
 21
245.882
  0
LINE
  8
0
 10
279.214
 11
279.427
 20
245.882
 21
245.464
  0
LINE
  8
0
 10
279.427
 11
279.5
 20
245.464
 21
245
  0
LINE
  8
0
 10
279.5
 11
279.427
 20
245
 21
244.536
  0
LINE
  8
0
 10
279.427
 11
279.214
 20
244.536
 21
244.118
  0
LINE
  8
0
 10
279.214
 11
278.882
 20
244.118
 21
243.786
  0
LINE
  8
0
 10
278.882
 11
278.464
 20
243.786
 21
243.573
  0
LINE
  8
0
 10
278.464
 11
278
 20
243.573
 21
243.5
  0
LINE
  8
0
 10
278
 11
277.536
 20
243.5
 21
243.573
  0
LINE
  8
0
 10
277.536
 11
277.118
 20
243.573
 21
243.786
  0
LINE
  8
0
 10
277.118
 11
276.786
 20
243.786
 21
244.118
  0
LINE
  8
0
 10
276.786
 11
276.573
 20
244.118
 21
244.536
  0
LINE
  8
0
 10
276.573
 11
276.5
 20
244.536
 21
245
  0
LINE
  8
0
 10
284
 11
284.032
 20
281.644
 21
281.806
  0
LINE
  8
0
 10
284.032
 11
284.106
 20
281.806
 21
281.956
  0
LINE
  8
0
 10
284.106
 11
286.962
 20
281.956
 21
286.152
  0
LINE
  8
0
 10
286.962
 11
288.39
 20
286.152
 21
288.25
  0
LINE
  8
0
 10
288.39
 11
289.818
 20
288.25
 21
290.35
  0
LINE
  8
0
 10
289.818
 11
289.916
 20
290.35
 21
290.462
  0
LINE
  8
0
 10
289.916
 11
290.038
 20
290.462
 21
290.546
  0
LINE
  8
0
 10
290.038
 11
290.176
 20
290.546
 21
290.598
  0
LINE
  8
0
 10
290.176
 11
290.324
 20
290.598
 21
290.618
  0
LINE
  8
0
 10
290.324
 11
292.604
 20
290.618
 21
290.618
  0
LINE
  8
0
 10
292.604
 11
293.744
 20
290.618
 21
290.62
  0
LINE
  8
0
 10
293.744
 11
294.884
 20
290.62
 21
290.62
  0
LINE
  8
0
 10
294.884
 11
299.84
 20
290.62
 21
297.904
  0
LINE
  8
0
 10
299.84
 11
302.318
 20
297.904
 21
301.546
  0
LINE
  8
0
 10
302.318
 11
304.796
 20
301.546
 21
305.188
  0
LINE
  8
0
 10
304.796
 11
304.93
 20
305.188
 21
305.33
  0
LINE
  8
0
 10
304.93
 11
305.098
 20
305.33
 21
305.42
  0
LINE
  8
0
 10
305.098
 11
305.288
 20
305.42
 21
305.454
  0
LINE
  8
0
 10
305.288
 11
305.482
 20
305.454
 21
305.428
  0
LINE
  8
0
 10
305.482
 11
305.658
 20
305.428
 21
305.342
  0
LINE
  8
0
 10
305.658
 11
305.794
 20
305.342
 21
305.206
  0
LINE
  8
0
 10
305.794
 11
305.882
 20
305.206
 21
305.038
  0
LINE
  8
0
 10
305.882
 11
305.914
 20
305.038
 21
304.844
  0
LINE
  8
0
 10
305.914
 11
305.914
 20
304.844
 21
291.996
  0
LINE
  8
0
 10
305.914
 11
308.158
 20
291.996
 21
295.294
  0
LINE
  8
0
 10
308.158
 11
310.402
 20
295.294
 21
298.592
  0
LINE
  8
0
 10
310.402
 11
312.644
 20
298.592
 21
301.89
  0
LINE
  8
0
 10
312.644
 11
314.888
 20
301.89
 21
305.188
  0
LINE
  8
0
 10
314.888
 11
315.024
 20
305.188
 21
305.33
  0
LINE
  8
0
 10
315.024
 11
315.192
 20
305.33
 21
305.42
  0
LINE
  8
0
 10
315.192
 11
315.38
 20
305.42
 21
305.454
  0
LINE
  8
0
 10
315.38
 11
315.574
 20
305.454
 21
305.428
  0
LINE
  8
0
 10
315.574
 11
315.75
 20
305.428
 21
305.342
  0
LINE
  8
0
 10
315.75
 11
315.888
 20
305.342
 21
305.206
  0
LINE
  8
0
 10
315.888
 11
315.976
 20
305.206
 21
305.038
  0
LINE
  8
0
 10
315.976
 11
316.006
 20
305.038
 21
304.844
  0
LINE
  8
0
 10
316.006
 11
316.006
 20
304.844
 21
290.62
  0
LINE
  8
0
 10
316.006
 11
323.388
 20
290.62
 21
290.62
  0
LINE
  8
0
 10
323.388
 11
323.554
 20
290.62
 21
290.598
  0
LINE
  8
0
 10
323.554
 11
323.704
 20
290.598
 21
290.532
  0
LINE
  8
0
 10
323.704
 11
323.832
 20
290.532
 21
290.43
  0
LINE
  8
0
 10
323.832
 11
323.928
 20
290.43
 21
290.296
  0
LINE
  8
0
 10
323.928
 11
323.986
 20
290.296
 21
290.138
  0
LINE
  8
0
 10
323.986
 11
324
 20
290.138
 21
289.976
  0
LINE
  8
0
 10
324
 11
323.968
 20
289.976
 21
289.814
  0
LINE
  8
0
 10
323.968
 11
323.894
 20
289.814
 21
289.666
  0
LINE
  8
0
 10
323.894
 11
322.466
 20
289.666
 21
287.566
  0
LINE
  8
0
 10
322.466
 11
319.61
 20
287.566
 21
283.37
  0
LINE
  8
0
 10
319.61
 11
318.182
 20
283.37
 21
281.27
  0
LINE
  8
0
 10
318.182
 11
318.082
 20
281.27
 21
281.158
  0
LINE
  8
0
 10
318.082
 11
317.962
 20
281.158
 21
281.074
  0
LINE
  8
0
 10
317.962
 11
317.824
 20
281.074
 21
281.022
  0
LINE
  8
0
 10
317.824
 11
317.676
 20
281.022
 21
281.004
  0
LINE
  8
0
 10
317.676
 11
316.454
 20
281.004
 21
281.002
  0
LINE
  8
0
 10
316.454
 11
315.234
 20
281.002
 21
281.002
  0
LINE
  8
0
 10
315.234
 11
314.012
 20
281.002
 21
281
  0
LINE
  8
0
 10
314.012
 11
312.792
 20
281
 21
281
  0
LINE
  8
0
 10
312.792
 11
312.672
 20
281
 21
281.012
  0
LINE
  8
0
 10
312.672
 11
312.558
 20
281.012
 21
281.046
  0
LINE
  8
0
 10
312.558
 11
312.452
 20
281.046
 21
281.102
  0
LINE
  8
0
 10
312.452
 11
312.36
 20
281.102
 21
281.178
  0
LINE
  8
0
 10
312.36
 11
312.282
 20
281.178
 21
281.272
  0
LINE
  8
0
 10
312.282
 11
312.226
 20
281.272
 21
281.378
  0
LINE
  8
0
 10
312.226
 11
312.192
 20
281.378
 21
281.492
  0
LINE
  8
0
 10
312.192
 11
312.18
 20
281.492
 21
281.612
  0
LINE
  8
0
 10
312.18
 11
312.18
 20
281.612
 21
294.458
  0
LINE
  8
0
 10
312.18
 11
309.936
 20
294.458
 21
291.16
  0
LINE
  8
0
 10
309.936
 11
307.692
 20
291.16
 21
287.864
  0
LINE
  8
0
 10
307.692
 11
305.448
 20
287.864
 21
284.566
  0
LINE
  8
0
 10
305.448
 11
303.204
 20
284.566
 21
281.268
  0
LINE
  8
0
 10
303.204
 11
303.104
 20
281.268
 21
281.154
  0
LINE
  8
0
 10
303.104
 11
302.982
 20
281.154
 21
281.07
  0
LINE
  8
0
 10
302.982
 11
302.844
 20
281.07
 21
281.018
  0
LINE
  8
0
 10
302.844
 11
302.698
 20
281.018
 21
281
  0
LINE
  8
0
 10
302.698
 11
302.652
 20
281
 21
281.002
  0
LINE
  8
0
 10
302.652
 11
302.608
 20
281.002
 21
281.006
  0
LINE
  8
0
 10
302.608
 11
302.562
 20
281.006
 21
281.016
  0
LINE
  8
0
 10
302.562
 11
302.518
 20
281.016
 21
281.028
  0
LINE
  8
0
 10
302.518
 11
302.342
 20
281.028
 21
281.114
  0
LINE
  8
0
 10
302.342
 11
302.206
 20
281.114
 21
281.248
  0
LINE
  8
0
 10
302.206
 11
302.118
 20
281.248
 21
281.418
  0
LINE
  8
0
 10
302.118
 11
302.086
 20
281.418
 21
281.612
  0
LINE
  8
0
 10
302.086
 11
302.086
 20
281.612
 21
294.458
  0
LINE
  8
0
 10
302.086
 11
299.842
 20
294.458
 21
291.16
  0
LINE
  8
0
 10
299.842
 11
297.598
 20
291.16
 21
287.864
  0
LINE
  8
0
 10
297.598
 11
295.356
 20
287.864
 21
284.566
  0
LINE
  8
0
 10
295.356
 11
293.112
 20
284.566
 21
281.268
  0
LINE
  8
0
 10
293.112
 11
293.012
 20
281.268
 21
281.156
  0
LINE
  8
0
 10
293.012
 11
292.892
 20
281.156
 21
281.072
  0
LINE
  8
0
 10
292.892
 11
292.754
 20
281.072
 21
281.018
  0
LINE
  8
0
 10
292.754
 11
292.606
 20
281.018
 21
281
  0
LINE
  8
0
 10
292.606
 11
284.612
 20
281
 21
281
  0
LINE
  8
0
 10
284.612
 11
284.446
 20
281
 21
281.022
  0
LINE
  8
0
 10
284.446
 11
284.296
 20
281.022
 21
281.088
  0
LINE
  8
0
 10
284.296
 11
284.168
 20
281.088
 21
281.19
  0
LINE
  8
0
 10
284.168
 11
284.072
 20
281.19
 21
281.326
  0
LINE
  8
0
 10
284.072
 11
284.014
 20
281.326
 21
281.482
  0
LINE
  8
0
 10
284.014
 11
284
 20
281.482
 21
281.644
  0
LINE
  8
0
 10
285.768
 11
286.988
 20
282.222
 21
284.016
  0
LINE
  8
0
 10
286.988
 11
288.208
 20
284.016
 21
285.808
  0
LINE
  8
0
 10
288.208
 11
289.428
 20
285.808
 21
287.602
  0
LINE
  8
0
 10
289.428
 11
290.648
 20
287.602
 21
289.394
  0
LINE
  8
0
 10
290.648
 11
291.788
 20
289.394
 21
289.396
  0
LINE
  8
0
 10
291.788
 11
294.07
 20
289.396
 21
289.396
  0
LINE
  8
0
 10
294.07
 11
295.21
 20
289.396
 21
289.398
  0
LINE
  8
0
 10
295.21
 11
295.358
 20
289.398
 21
289.416
  0
LINE
  8
0
 10
295.358
 11
295.496
 20
289.416
 21
289.468
  0
LINE
  8
0
 10
295.496
 11
295.616
 20
289.468
 21
289.552
  0
LINE
  8
0
 10
295.616
 11
295.714
 20
289.552
 21
289.666
  0
LINE
  8
0
 10
295.714
 11
297.958
 20
289.666
 21
292.964
  0
LINE
  8
0
 10
297.958
 11
300.202
 20
292.964
 21
296.26
  0
LINE
  8
0
 10
300.202
 11
302.446
 20
296.26
 21
299.558
  0
LINE
  8
0
 10
302.446
 11
304.69
 20
299.558
 21
302.856
  0
LINE
  8
0
 10
304.69
 11
304.69
 20
302.856
 21
290.008
  0
LINE
  8
0
 10
304.69
 11
304.72
 20
290.008
 21
289.816
  0
LINE
  8
0
 10
304.72
 11
304.81
 20
289.816
 21
289.646
  0
LINE
  8
0
 10
304.81
 11
304.946
 20
289.646
 21
289.512
  0
LINE
  8
0
 10
304.946
 11
305.122
 20
289.512
 21
289.424
  0
LINE
  8
0
 10
305.122
 11
305.316
 20
289.424
 21
289.398
  0
LINE
  8
0
 10
305.316
 11
305.504
 20
289.398
 21
289.432
  0
LINE
  8
0
 10
305.504
 11
305.672
 20
289.432
 21
289.522
  0
LINE
  8
0
 10
305.672
 11
305.808
 20
289.522
 21
289.666
  0
LINE
  8
0
 10
305.808
 11
308.052
 20
289.666
 21
292.964
  0
LINE
  8
0
 10
308.052
 11
310.296
 20
292.964
 21
296.26
  0
LINE
  8
0
 10
310.296
 11
312.54
 20
296.26
 21
299.558
  0
LINE
  8
0
 10
312.54
 11
314.782
 20
299.558
 21
302.856
  0
LINE
  8
0
 10
314.782
 11
314.782
 20
302.856
 21
290.01
  0
LINE
  8
0
 10
314.782
 11
314.794
 20
290.01
 21
289.89
  0
LINE
  8
0
 10
314.794
 11
314.83
 20
289.89
 21
289.776
  0
LINE
  8
0
 10
314.83
 11
314.886
 20
289.776
 21
289.67
  0
LINE
  8
0
 10
314.886
 11
314.962
 20
289.67
 21
289.576
  0
LINE
  8
0
 10
314.962
 11
315.056
 20
289.576
 21
289.5
  0
LINE
  8
0
 10
315.056
 11
315.16
 20
289.5
 21
289.444
  0
LINE
  8
0
 10
315.16
 11
315.274
 20
289.444
 21
289.41
  0
LINE
  8
0
 10
315.274
 11
315.394
 20
289.41
 21
289.398
  0
LINE
  8
0
 10
315.394
 11
322.232
 20
289.398
 21
289.398
  0
LINE
  8
0
 10
322.232
 11
321.012
 20
289.398
 21
287.604
  0
LINE
  8
0
 10
321.012
 11
319.792
 20
287.604
 21
285.812
  0
LINE
  8
0
 10
319.792
 11
318.572
 20
285.812
 21
284.018
  0
LINE
  8
0
 10
318.572
 11
317.352
 20
284.018
 21
282.226
  0
LINE
  8
0
 10
317.352
 11
316.364
 20
282.226
 21
282.226
  0
LINE
  8
0
 10
316.364
 11
315.378
 20
282.226
 21
282.224
  0
LINE
  8
0
 10
315.378
 11
313.404
 20
282.224
 21
282.224
  0
LINE
  8
0
 10
313.404
 11
313.404
 20
282.224
 21
296.446
  0
LINE
  8
0
 10
313.404
 11
313.372
 20
296.446
 21
296.64
  0
LINE
  8
0
 10
313.372
 11
313.284
 20
296.64
 21
296.81
  0
LINE
  8
0
 10
313.284
 11
313.148
 20
296.81
 21
296.944
  0
LINE
  8
0
 10
313.148
 11
312.972
 20
296.944
 21
297.03
  0
LINE
  8
0
 10
312.972
 11
312.778
 20
297.03
 21
297.056
  0
LINE
  8
0
 10
312.778
 11
312.588
 20
297.056
 21
297.022
  0
LINE
  8
0
 10
312.588
 11
312.42
 20
297.022
 21
296.932
  0
LINE
  8
0
 10
312.42
 11
312.286
 20
296.932
 21
296.79
  0
LINE
  8
0
 10
312.286
 11
307.798
 20
296.79
 21
290.194
  0
LINE
  8
0
 10
307.798
 11
305.554
 20
290.194
 21
286.896
  0
LINE
  8
0
 10
305.554
 11
303.31
 20
286.896
 21
283.598
  0
LINE
  8
0
 10
303.31
 11
303.31
 20
283.598
 21
296.446
  0
LINE
  8
0
 10
303.31
 11
303.278
 20
296.446
 21
296.64
  0
LINE
  8
0
 10
303.278
 11
303.19
 20
296.64
 21
296.81
  0
LINE
  8
0
 10
303.19
 11
303.054
 20
296.81
 21
296.944
  0
LINE
  8
0
 10
303.054
 11
302.878
 20
296.944
 21
297.03
  0
LINE
  8
0
 10
302.878
 11
302.684
 20
297.03
 21
297.058
  0
LINE
  8
0
 10
302.684
 11
302.496
 20
297.058
 21
297.022
  0
LINE
  8
0
 10
302.496
 11
302.326
 20
297.022
 21
296.932
  0
LINE
  8
0
 10
302.326
 11
302.192
 20
296.932
 21
296.79
  0
LINE
  8
0
 10
302.192
 11
294.758
 20
296.79
 21
285.864
  0
LINE
  8
0
 10
294.758
 11
292.282
 20
285.864
 21
282.222
  0
LINE
  8
0
 10
292.282
 11
285.768
 20
282.222
 21
282.222
  0
LINE
  8
0
 10
288
 11
288
 20
164.25
 21
169.25
  0
LINE
  8
0
 10
288
 11
294
 20
169.25
 21
169.25
  0
LINE
  8
0
 10
294
 11
294
 20
169.25
 21
175
  0
LINE
  8
0
 10
294
 11
299.5
 20
175
 21
175
  0
LINE
  8
0
 10
299.5
 11
299.5
 20
175
 21
173.5
  0
LINE
  8
0
 10
299.5
 11
302.5
 20
173.5
 21
173.5
  0
LINE
  8
0
 10
302.5
 11
302.5
 20
173.5
 21
175
  0
LINE
  8
0
 10
302.5
 11
304
 20
175
 21
175
  0
LINE
  8
0
 10
304
 11
304
 20
175
 21
178
  0
LINE
  8
0
 10
304
 11
302.5
 20
178
 21
178
  0
LINE
  8
0
 10
302.5
 11
302.5
 20
178
 21
179.5
  0
LINE
  8
0
 10
302.5
 11
299.5
 20
179.5
 21
179.5
  0
LINE
  8
0
 10
299.5
 11
299.5
 20
179.5
 21
178
  0
LINE
  8
0
 10
299.5
 11
294
 20
178
 21
178
  0
LINE
  8
0
 10
294
 11
294
 20
178
 21
183.75
  0
LINE
  8
0
 10
294
 11
288
 20
183.75
 21
183.75
  0
LINE
  8
0
 10
288
 11
288
 20
183.75
 21
188.75
  0
LINE
  8
0
 10
288
 11
294
 20
188.75
 21
188.75
  0
LINE
  8
0
 10
294
 11
294
 20
188.75
 21
196
  0
LINE
  8
0
 10
294
 11
341.026
 20
196
 21
196
  0
LINE
  8
0
 10
341.026
 11
341.026
 20
196
 21
188.75
  0
LINE
  8
0
 10
341.026
 11
347.026
 20
188.75
 21
188.75
  0
LINE
  8
0
 10
347.026
 11
347.026
 20
188.75
 21
183.75
  0
LINE
  8
0
 10
347.026
 11
341.026
 20
183.75
 21
183.75
  0
LINE
  8
0
 10
341.026
 11
341.026
 20
183.75
 21
178
  0
LINE
  8
0
 10
341.026
 11
335.526
 20
178
 21
178
  0
LINE
  8
0
 10
335.526
 11
335.526
 20
178
 21
179.5
  0
LINE
  8
0
 10
335.526
 11
332.526
 20
179.5
 21
179.5
  0
LINE
  8
0
 10
332.526
 11
332.526
 20
179.5
 21
178
  0
LINE
  8
0
 10
332.526
 11
331.026
 20
178
 21
178
  0
LINE
  8
0
 10
331.026
 11
331.026
 20
178
 21
175
  0
LINE
  8
0
 10
331.026
 11
332.526
 20
175
 21
175
  0
LINE
  8
0
 10
332.526
 11
332.526
 20
175
 21
173.5
  0
LINE
  8
0
 10
332.526
 11
335.526
 20
173.5
 21
173.5
  0
LINE
  8
0
 10
335.526
 11
335.526
 20
173.5
 21
175
  0
LINE
  8
0
 10
335.526
 11
341.026
 20
175
 21
175
  0
LINE
  8
0
 10
341.026
 11
341.026
 20
175
 21
169.25
  0
LINE
  8
0
 10
341.026
 11
347.026
 20
169.25
 21
169.25
  0
LINE
  8
0
 10
347.026
 11
347.026
 20
169.25
 21
164.25
  0
LINE
  8
0
 10
347.026
 11
341.026
 20
164.25
 21
164.25
  0
LINE
  8
0
 10
341.026
 11
341.026
 20
164.25
 21
157
  0
LINE
  8
0
 10
341.026
 11
331.77
 20
157
 21
157
  0
LINE
  8
0
 10
331.77
 11
331.77
 20
157
 21
151
  0
LINE
  8
0
 10
331.77
 11
326.77
 20
151
 21
151
  0
LINE
  8
0
 10
326.77
 11
326.77
 20
151
 21
157
  0
LINE
  8
0
 10
326.77
 11
319.013
 20
157
 21
157
  0
LINE
  8
0
 10
319.013
 11
319.013
 20
157
 21
162.5
  0
LINE
  8
0
 10
319.013
 11
320.513
 20
162.5
 21
162.5
  0
LINE
  8
0
 10
320.513
 11
320.513
 20
162.5
 21
165.5
  0
LINE
  8
0
 10
320.513
 11
319.013
 20
165.5
 21
165.5
  0
LINE
  8
0
 10
319.013
 11
319.013
 20
165.5
 21
167
  0
LINE
  8
0
 10
319.013
 11
316.013
 20
167
 21
167
  0
LINE
  8
0
 10
316.013
 11
316.013
 20
167
 21
165.5
  0
LINE
  8
0
 10
316.013
 11
314.513
 20
165.5
 21
165.5
  0
LINE
  8
0
 10
314.513
 11
314.513
 20
165.5
 21
162.5
  0
LINE
  8
0
 10
314.513
 11
316.013
 20
162.5
 21
162.5
  0
LINE
  8
0
 10
316.013
 11
316.013
 20
162.5
 21
157
  0
LINE
  8
0
 10
316.013
 11
308.257
 20
157
 21
157
  0
LINE
  8
0
 10
308.257
 11
308.257
 20
157
 21
151
  0
LINE
  8
0
 10
308.257
 11
303.257
 20
151
 21
151
  0
LINE
  8
0
 10
303.257
 11
303.257
 20
151
 21
157
  0
LINE
  8
0
 10
303.257
 11
294
 20
157
 21
157
  0
LINE
  8
0
 10
294
 11
294
 20
157
 21
164.25
  0
LINE
  8
0
 10
294
 11
288
 20
164.25
 21
164.25
  0
LINE
  8
0
 10
288.5
 11
288.573
 20
270
 21
270.464
  0
LINE
  8
0
 10
288.573
 11
288.786
 20
270.464
 21
270.882
  0
LINE
  8
0
 10
288.786
 11
289.118
 20
270.882
 21
271.214
  0
LINE
  8
0
 10
289.118
 11
289.536
 20
271.214
 21
271.427
  0
LINE
  8
0
 10
289.536
 11
290
 20
271.427
 21
271.5
  0
LINE
  8
0
 10
290
 11
290.464
 20
271.5
 21
271.427
  0
LINE
  8
0
 10
290.464
 11
290.882
 20
271.427
 21
271.214
  0
LINE
  8
0
 10
290.882
 11
291.214
 20
271.214
 21
270.882
  0
LINE
  8
0
 10
291.214
 11
291.427
 20
270.882
 21
270.464
  0
LINE
  8
0
 10
291.427
 11
291.5
 20
270.464
 21
270
  0
LINE
  8
0
 10
291.5
 11
291.427
 20
270
 21
269.536
  0
LINE
  8
0
 10
291.427
 11
291.214
 20
269.536
 21
269.118
  0
LINE
  8
0
 10
291.214
 11
290.882
 20
269.118
 21
268.786
  0
LINE
  8
0
 10
290.882
 11
290.464
 20
268.786
 21
268.573
  0
LINE
  8
0
 10
290.464
 11
290
 20
268.573
 21
268.5
  0
LINE
  8
0
 10
290
 11
289.536
 20
268.5
 21
268.573
  0
LINE
  8
0
 10
289.536
 11
289.118
 20
268.573
 21
268.786
  0
LINE
  8
0
 10
289.118
 11
288.786
 20
268.786
 21
269.118
  0
LINE
  8
0
 10
288.786
 11
288.573
 20
269.118
 21
269.536
  0
LINE
  8
0
 10
288.573
 11
288.5
 20
269.536
 21
270
  0
LINE
  8
0
 10
288.5
 11
288.573
 20
315
 21
315.464
  0
LINE
  8
0
 10
288.573
 11
288.786
 20
315.464
 21
315.882
  0
LINE
  8
0
 10
288.786
 11
289.118
 20
315.882
 21
316.214
  0
LINE
  8
0
 10
289.118
 11
289.536
 20
316.214
 21
316.427
  0
LINE
  8
0
 10
289.536
 11
290
 20
316.427
 21
316.5
  0
LINE
  8
0
 10
290
 11
290.464
 20
316.5
 21
316.427
  0
LINE
  8
0
 10
290.464
 11
290.882
 20
316.427
 21
316.214
  0
LINE
  8
0
 10
290.882
 11
291.214
 20
316.214
 21
315.882
  0
LINE
  8
0
 10
291.214
 11
291.427
 20
315.882
 21
315.464
  0
LINE
  8
0
 10
291.427
 11
291.5
 20
315.464
 21
315
  0
LINE
  8
0
 10
291.5
 11
291.427
 20
315
 21
314.536
  0
LINE
  8
0
 10
291.427
 11
291.214
 20
314.536
 21
314.118
  0
LINE
  8
0
 10
291.214
 11
290.882
 20
314.118
 21
313.786
  0
LINE
  8
0
 10
290.882
 11
290.464
 20
313.786
 21
313.573
  0
LINE
  8
0
 10
290.464
 11
290
 20
313.573
 21
313.5
  0
LINE
  8
0
 10
290
 11
289.536
 20
313.5
 21
313.573
  0
LINE
  8
0
 10
289.536
 11
289.118
 20
313.573
 21
313.786
  0
LINE
  8
0
 10
289.118
 11
288.786
 20
313.786
 21
314.118
  0
LINE
  8
0
 10
288.786
 11
288.573
 20
314.118
 21
314.536
  0
LINE
  8
0
 10
288.573
 11
288.5
 20
314.536
 21
315
  0
LINE
  8
0
 10
293.5
 11
293.573
 20
65
 21
65.464
  0
LINE
  8
0
 10
293.573
 11
293.786
 20
65.464
 21
65.882
  0
LINE
  8
0
 10
293.786
 11
294.118
 20
65.882
 21
66.214
  0
LINE
  8
0
 10
294.118
 11
294.536
 20
66.214
 21
66.427
  0
LINE
  8
0
 10
294.536
 11
295
 20
66.427
 21
66.5
  0
LINE
  8
0
 10
295
 11
295.464
 20
66.5
 21
66.427
  0
LINE
  8
0
 10
295.464
 11
295.882
 20
66.427
 21
66.214
  0
LINE
  8
0
 10
295.882
 11
296.214
 20
66.214
 21
65.882
  0
LINE
  8
0
 10
296.214
 11
296.427
 20
65.882
 21
65.464
  0
LINE
  8
0
 10
296.427
 11
296.5
 20
65.464
 21
65
  0
LINE
  8
0
 10
296.5
 11
296.427
 20
65
 21
64.536
  0
LINE
  8
0
 10
296.427
 11
296.214
 20
64.536
 21
64.118
  0
LINE
  8
0
 10
296.214
 11
295.882
 20
64.118
 21
63.786
  0
LINE
  8
0
 10
295.882
 11
295.464
 20
63.786
 21
63.573
  0
LINE
  8
0
 10
295.464
 11
295
 20
63.573
 21
63.5
  0
LINE
  8
0
 10
295
 11
294.536
 20
63.5
 21
63.573
  0
LINE
  8
0
 10
294.536
 11
294.118
 20
63.573
 21
63.786
  0
LINE
  8
0
 10
294.118
 11
293.786
 20
63.786
 21
64.118
  0
LINE
  8
0
 10
293.786
 11
293.573
 20
64.118
 21
64.536
  0
LINE
  8
0
 10
293.573
 11
293.5
 20
64.536
 21
65
  0
LINE
  8
0
 10
308.5
 11
308.533
 20
424
 21
424.312
  0
LINE
  8
0
 10
308.533
 11
308.63
 20
424.312
 21
424.61
  0
LINE
  8
0
 10
308.63
 11
308.786
 20
424.61
 21
424.882
  0
LINE
  8
0
 10
308.786
 11
308.996
 20
424.882
 21
425.115
  0
LINE
  8
0
 10
308.996
 11
309.25
 20
425.115
 21
425.299
  0
LINE
  8
0
 10
309.25
 11
309.536
 20
425.299
 21
425.427
  0
LINE
  8
0
 10
309.536
 11
309.843
 20
425.427
 21
425.492
  0
LINE
  8
0
 10
309.843
 11
310.157
 20
425.492
 21
425.492
  0
LINE
  8
0
 10
310.157
 11
310.464
 20
425.492
 21
425.427
  0
LINE
  8
0
 10
310.464
 11
310.75
 20
425.427
 21
425.299
  0
LINE
  8
0
 10
310.75
 11
311.004
 20
425.299
 21
425.115
  0
LINE
  8
0
 10
311.004
 11
311.214
 20
425.115
 21
424.882
  0
LINE
  8
0
 10
311.214
 11
311.37
 20
424.882
 21
424.61
  0
LINE
  8
0
 10
311.37
 11
311.467
 20
424.61
 21
424.312
  0
LINE
  8
0
 10
311.467
 11
311.5
 20
424.312
 21
424
  0
LINE
  8
0
 10
311.5
 11
311.467
 20
424
 21
423.688
  0
LINE
  8
0
 10
311.467
 11
311.37
 20
423.688
 21
423.39
  0
LINE
  8
0
 10
311.37
 11
311.214
 20
423.39
 21
423.118
  0
LINE
  8
0
 10
311.214
 11
311.004
 20
423.118
 21
422.885
  0
LINE
  8
0
 10
311.004
 11
310.75
 20
422.885
 21
422.701
  0
LINE
  8
0
 10
310.75
 11
310.464
 20
422.701
 21
422.573
  0
LINE
  8
0
 10
310.464
 11
310.157
 20
422.573
 21
422.508
  0
LINE
  8
0
 10
310.157
 11
309.843
 20
422.508
 21
422.508
  0
LINE
  8
0
 10
309.843
 11
309.536
 20
422.508
 21
422.573
  0
LINE
  8
0
 10
309.536
 11
309.25
 20
422.573
 21
422.701
  0
LINE
  8
0
 10
309.25
 11
308.996
 20
422.701
 21
422.885
  0
LINE
  8
0
 10
308.996
 11
308.786
 20
422.885
 21
423.118
  0
LINE
  8
0
 10
308.786
 11
308.63
 20
423.118
 21
423.39
  0
LINE
  8
0
 10
308.63
 11
308.533
 20
423.39
 21
423.688
  0
LINE
  8
0
 10
308.533
 11
308.5
 20
423.688
 21
424
  0
LINE
  8
0
 10
308.5
 11
308.533
 20
436
 21
436.312
  0
LINE
  8
0
 10
308.533
 11
308.63
 20
436.312
 21
436.61
  0
LINE
  8
0
 10
308.63
 11
308.786
 20
436.61
 21
436.882
  0
LINE
  8
0
 10
308.786
 11
308.996
 20
436.882
 21
437.115
  0
LINE
  8
0
 10
308.996
 11
309.25
 20
437.115
 21
437.299
  0
LINE
  8
0
 10
309.25
 11
309.536
 20
437.299
 21
437.427
  0
LINE
  8
0
 10
309.536
 11
309.843
 20
437.427
 21
437.492
  0
LINE
  8
0
 10
309.843
 11
310.157
 20
437.492
 21
437.492
  0
LINE
  8
0
 10
310.157
 11
310.464
 20
437.492
 21
437.427
  0
LINE
  8
0
 10
310.464
 11
310.75
 20
437.427
 21
437.299
  0
LINE
  8
0
 10
310.75
 11
311.004
 20
437.299
 21
437.115
  0
LINE
  8
0
 10
311.004
 11
311.214
 20
437.115
 21
436.882
  0
LINE
  8
0
 10
311.214
 11
311.37
 20
436.882
 21
436.61
  0
LINE
  8
0
 10
311.37
 11
311.467
 20
436.61
 21
436.312
  0
LINE
  8
0
 10
311.467
 11
311.5
 20
436.312
 21
436
  0
LINE
  8
0
 10
311.5
 11
311.467
 20
436
 21
435.688
  0
LINE
  8
0
 10
311.467
 11
311.37
 20
435.688
 21
435.39
  0
LINE
  8
0
 10
311.37
 11
311.214
 20
435.39
 21
435.118
  0
LINE
  8
0
 10
311.214
 11
311.004
 20
435.118
 21
434.885
  0
LINE
  8
0
 10
311.004
 11
310.75
 20
434.885
 21
434.701
  0
LINE
  8
0
 10
310.75
 11
310.464
 20
434.701
 21
434.573
  0
LINE
  8
0
 10
310.464
 11
310.157
 20
434.573
 21
434.508
  0
LINE
  8
0
 10
310.157
 11
309.843
 20
434.508
 21
434.508
  0
LINE
  8
0
 10
309.843
 11
309.536
 20
434.508
 21
434.573
  0
LINE
  8
0
 10
309.536
 11
309.25
 20
434.573
 21
434.701
  0
LINE
  8
0
 10
309.25
 11
308.996
 20
434.701
 21
434.885
  0
LINE
  8
0
 10
308.996
 11
308.786
 20
434.885
 21
435.118
  0
LINE
  8
0
 10
308.786
 11
308.63
 20
435.118
 21
435.39
  0
LINE
  8
0
 10
308.63
 11
308.533
 20
435.39
 21
435.688
  0
LINE
  8
0
 10
308.533
 11
308.5
 20
435.688
 21
436
  0
LINE
  8
0
 10
313.5
 11
313.573
 20
415
 21
415.464
  0
LINE
  8
0
 10
313.573
 11
313.786
 20
415.464
 21
415.882
  0
LINE
  8
0
 10
313.786
 11
314.118
 20
415.882
 21
416.214
  0
LINE
  8
0
 10
314.118
 11
314.536
 20
416.214
 21
416.427
  0
LINE
  8
0
 10
314.536
 11
315
 20
416.427
 21
416.5
  0
LINE
  8
0
 10
315
 11
315.464
 20
416.5
 21
416.427
  0
LINE
  8
0
 10
315.464
 11
315.882
 20
416.427
 21
416.214
  0
LINE
  8
0
 10
315.882
 11
316.214
 20
416.214
 21
415.882
  0
LINE
  8
0
 10
316.214
 11
316.427
 20
415.882
 21
415.464
  0
LINE
  8
0
 10
316.427
 11
316.5
 20
415.464
 21
415
  0
LINE
  8
0
 10
316.5
 11
316.427
 20
415
 21
414.536
  0
LINE
  8
0
 10
316.427
 11
316.214
 20
414.536
 21
414.118
  0
LINE
  8
0
 10
316.214
 11
315.882
 20
414.118
 21
413.786
  0
LINE
  8
0
 10
315.882
 11
315.464
 20
413.786
 21
413.573
  0
LINE
  8
0
 10
315.464
 11
315
 20
413.573
 21
413.5
  0
LINE
  8
0
 10
315
 11
314.536
 20
413.5
 21
413.573
  0
LINE
  8
0
 10
314.536
 11
314.118
 20
413.573
 21
413.786
  0
LINE
  8
0
 10
314.118
 11
313.786
 20
413.786
 21
414.118
  0
LINE
  8
0
 10
313.786
 11
313.573
 20
414.118
 21
414.536
  0
LINE
  8
0
 10
313.573
 11
313.5
 20
414.536
 21
415
  0
LINE
  8
0
 10
316.5
 11
316.573
 20
270
 21
270.464
  0
LINE
  8
0
 10
316.573
 11
316.786
 20
270.464
 21
270.882
  0
LINE
  8
0
 10
316.786
 11
317.118
 20
270.882
 21
271.214
  0
LINE
  8
0
 10
317.118
 11
317.536
 20
271.214
 21
271.427
  0
LINE
  8
0
 10
317.536
 11
318
 20
271.427
 21
271.5
  0
LINE
  8
0
 10
318
 11
318.464
 20
271.5
 21
271.427
  0
LINE
  8
0
 10
318.464
 11
318.882
 20
271.427
 21
271.214
  0
LINE
  8
0
 10
318.882
 11
319.214
 20
271.214
 21
270.882
  0
LINE
  8
0
 10
319.214
 11
319.427
 20
270.882
 21
270.464
  0
LINE
  8
0
 10
319.427
 11
319.5
 20
270.464
 21
270
  0
LINE
  8
0
 10
319.5
 11
319.427
 20
270
 21
269.536
  0
LINE
  8
0
 10
319.427
 11
319.214
 20
269.536
 21
269.118
  0
LINE
  8
0
 10
319.214
 11
318.882
 20
269.118
 21
268.786
  0
LINE
  8
0
 10
318.882
 11
318.464
 20
268.786
 21
268.573
  0
LINE
  8
0
 10
318.464
 11
318
 20
268.573
 21
268.5
  0
LINE
  8
0
 10
318
 11
317.536
 20
268.5
 21
268.573
  0
LINE
  8
0
 10
317.536
 11
317.118
 20
268.573
 21
268.786
  0
LINE
  8
0
 10
317.118
 11
316.786
 20
268.786
 21
269.118
  0
LINE
  8
0
 10
316.786
 11
316.573
 20
269.118
 21
269.536
  0
LINE
  8
0
 10
316.573
 11
316.5
 20
269.536
 21
270
  0
LINE
  8
0
 10
316.5
 11
316.573
 20
315
 21
315.464
  0
LINE
  8
0
 10
316.573
 11
316.786
 20
315.464
 21
315.882
  0
LINE
  8
0
 10
316.786
 11
317.118
 20
315.882
 21
316.214
  0
LINE
  8
0
 10
317.118
 11
317.536
 20
316.214
 21
316.427
  0
LINE
  8
0
 10
317.536
 11
318
 20
316.427
 21
316.5
  0
LINE
  8
0
 10
318
 11
318.464
 20
316.5
 21
316.427
  0
LINE
  8
0
 10
318.464
 11
318.882
 20
316.427
 21
316.214
  0
LINE
  8
0
 10
318.882
 11
319.214
 20
316.214
 21
315.882
  0
LINE
  8
0
 10
319.214
 11
319.427
 20
315.882
 21
315.464
  0
LINE
  8
0
 10
319.427
 11
319.5
 20
315.464
 21
315
  0
LINE
  8
0
 10
319.5
 11
319.427
 20
315
 21
314.536
  0
LINE
  8
0
 10
319.427
 11
319.214
 20
314.536
 21
314.118
  0
LINE
  8
0
 10
319.214
 11
318.882
 20
314.118
 21
313.786
  0
LINE
  8
0
 10
318.882
 11
318.464
 20
313.786
 21
313.573
  0
LINE
  8
0
 10
318.464
 11
318
 20
313.573
 21
313.5
  0
LINE
  8
0
 10
318
 11
317.536
 20
313.5
 21
313.573
  0
LINE
  8
0
 10
317.536
 11
317.118
 20
313.573
 21
313.786
  0
LINE
  8
0
 10
317.118
 11
316.786
 20
313.786
 21
314.118
  0
LINE
  8
0
 10
316.786
 11
316.573
 20
314.118
 21
314.536
  0
LINE
  8
0
 10
316.573
 11
316.5
 20
314.536
 21
315
  0
LINE
  8
0
 10
327.75
 11
327.75
 20
213.25
 21
218.25
  0
LINE
  8
0
 10
327.75
 11
334.25
 20
218.25
 21
218.25
  0
LINE
  8
0
 10
334.25
 11
334.25
 20
218.25
 21
213.25
  0
LINE
  8
0
 10
334.25
 11
327.75
 20
213.25
 21
213.25
  0
LINE
  8
0
 10
327.75
 11
327.75
 20
232.75
 21
237.75
  0
LINE
  8
0
 10
327.75
 11
334.25
 20
237.75
 21
237.75
  0
LINE
  8
0
 10
334.25
 11
334.25
 20
237.75
 21
232.75
  0
LINE
  8
0
 10
334.25
 11
327.75
 20
232.75
 21
232.75
  0
LINE
  8
0
 10
329.5
 11
329.573
 20
225.5
 21
225.964
  0
LINE
  8
0
 10
329.573
 11
329.786
 20
225.964
 21
226.382
  0
LINE
  8
0
 10
329.786
 11
330.118
 20
226.382
 21
226.714
  0
LINE
  8
0
 10
330.118
 11
330.536
 20
226.714
 21
226.927
  0
LINE
  8
0
 10
330.536
 11
331
 20
226.927
 21
227
  0
LINE
  8
0
 10
331
 11
331.464
 20
227
 21
226.927
  0
LINE
  8
0
 10
331.464
 11
331.882
 20
226.927
 21
226.714
  0
LINE
  8
0
 10
331.882
 11
332.214
 20
226.714
 21
226.382
  0
LINE
  8
0
 10
332.214
 11
332.427
 20
226.382
 21
225.964
  0
LINE
  8
0
 10
332.427
 11
332.5
 20
225.964
 21
225.5
  0
LINE
  8
0
 10
332.5
 11
332.427
 20
225.5
 21
225.036
  0
LINE
  8
0
 10
332.427
 11
332.214
 20
225.036
 21
224.618
  0
LINE
  8
0
 10
332.214
 11
331.882
 20
224.618
 21
224.286
  0
LINE
  8
0
 10
331.882
 11
331.464
 20
224.286
 21
224.073
  0
LINE
  8
0
 10
331.464
 11
331
 20
224.073
 21
224
  0
LINE
  8
0
 10
331
 11
330.536
 20
224
 21
224.073
  0
LINE
  8
0
 10
330.536
 11
330.118
 20
224.073
 21
224.286
  0
LINE
  8
0
 10
330.118
 11
329.786
 20
224.286
 21
224.618
  0
LINE
  8
0
 10
329.786
 11
329.573
 20
224.618
 21
225.036
  0
LINE
  8
0
 10
329.573
 11
329.5
 20
225.036
 21
225.5
  0
LINE
  8
0
 10
337.75
 11
337.75
 20
283.25
 21
288.25
  0
LINE
  8
0
 10
337.75
 11
344.25
 20
288.25
 21
288.25
  0
LINE
  8
0
 10
344.25
 11
344.25
 20
288.25
 21
283.25
  0
LINE
  8
0
 10
344.25
 11
337.75
 20
283.25
 21
283.25
  0
LINE
  8
0
 10
337.75
 11
337.75
 20
302.75
 21
307.75
  0
LINE
  8
0
 10
337.75
 11
344.25
 20
307.75
 21
307.75
  0
LINE
  8
0
 10
344.25
 11
344.25
 20
307.75
 21
302.75
  0
LINE
  8
0
 10
344.25
 11
337.75
 20
302.75
 21
302.75
  0
LINE
  8
0
 10
339.5
 11
339.573
 20
295.5
 21
295.964
  0
LINE
  8
0
 10
339.573
 11
339.786
 20
295.964
 21
296.382
  0
LINE
  8
0
 10
339.786
 11
340.118
 20
296.382
 21
296.714
  0
LINE
  8
0
 10
340.118
 11
340.536
 20
296.714
 21
296.927
  0
LINE
  8
0
 10
340.536
 11
341
 20
296.927
 21
297
  0
LINE
  8
0
 10
341
 11
341.464
 20
297
 21
296.927
  0
LINE
  8
0
 10
341.464
 11
341.882
 20
296.927
 21
296.714
  0
LINE
  8
0
 10
341.882
 11
342.214
 20
296.714
 21
296.382
  0
LINE
  8
0
 10
342.214
 11
342.427
 20
296.382
 21
295.964
  0
LINE
  8
0
 10
342.427
 11
342.5
 20
295.964
 21
295.5
  0
LINE
  8
0
 10
342.5
 11
342.427
 20
295.5
 21
295.036
  0
LINE
  8
0
 10
342.427
 11
342.214
 20
295.036
 21
294.618
  0
LINE
  8
0
 10
342.214
 11
341.882
 20
294.618
 21
294.286
  0
LINE
  8
0
 10
341.882
 11
341.464
 20
294.286
 21
294.073
  0
LINE
  8
0
 10
341.464
 11
341
 20
294.073
 21
294
  0
LINE
  8
0
 10
341
 11
340.536
 20
294
 21
294.073
  0
LINE
  8
0
 10
340.536
 11
340.118
 20
294.073
 21
294.286
  0
LINE
  8
0
 10
340.118
 11
339.786
 20
294.286
 21
294.618
  0
LINE
  8
0
 10
339.786
 11
339.573
 20
294.618
 21
295.036
  0
LINE
  8
0
 10
339.573
 11
339.5
 20
295.036
 21
295.5
  0
LINE
  8
0
 10
368.75
 11
368.75
 20
122.8
 21
127.8
  0
LINE
  8
0
 10
368.75
 11
375.25
 20
127.8
 21
127.8
  0
LINE
  8
0
 10
375.25
 11
375.25
 20
127.8
 21
122.8
  0
LINE
  8
0
 10
375.25
 11
368.75
 20
122.8
 21
122.8
  0
LINE
  8
0
 10
368.75
 11
368.75
 20
147.8
 21
152.8
  0
LINE
  8
0
 10
368.75
 11
375.25
 20
152.8
 21
152.8
  0
LINE
  8
0
 10
375.25
 11
375.25
 20
152.8
 21
147.8
  0
LINE
  8
0
 10
375.25
 11
368.75
 20
147.8
 21
147.8
  0
LINE
  8
0
 10
368.75
 11
368.75
 20
212.8
 21
217.8
  0
LINE
  8
0
 10
368.75
 11
375.25
 20
217.8
 21
217.8
  0
LINE
  8
0
 10
375.25
 11
375.25
 20
217.8
 21
212.8
  0
LINE
  8
0
 10
375.25
 11
368.75
 20
212.8
 21
212.8
  0
LINE
  8
0
 10
368.75
 11
368.75
 20
237.8
 21
242.8
  0
LINE
  8
0
 10
368.75
 11
375.25
 20
242.8
 21
242.8
  0
LINE
  8
0
 10
375.25
 11
375.25
 20
242.8
 21
237.8
  0
LINE
  8
0
 10
375.25
 11
368.75
 20
237.8
 21
237.8
  0
LINE
  8
0
 10
370.5
 11
370.573
 20
137.8
 21
138.264
  0
LINE
  8
0
 10
370.573
 11
370.786
 20
138.264
 21
138.682
  0
LINE
  8
0
 10
370.786
 11
371.118
 20
138.682
 21
139.014
  0
LINE
  8
0
 10
371.118
 11
371.536
 20
139.014
 21
139.227
  0
LINE
  8
0
 10
371.536
 11
372
 20
139.227
 21
139.3
  0
LINE
  8
0
 10
372
 11
372.464
 20
139.3
 21
139.227
  0
LINE
  8
0
 10
372.464
 11
372.882
 20
139.227
 21
139.014
  0
LINE
  8
0
 10
372.882
 11
373.214
 20
139.014
 21
138.682
  0
LINE
  8
0
 10
373.214
 11
373.427
 20
138.682
 21
138.264
  0
LINE
  8
0
 10
373.427
 11
373.5
 20
138.264
 21
137.8
  0
LINE
  8
0
 10
373.5
 11
373.427
 20
137.8
 21
137.336
  0
LINE
  8
0
 10
373.427
 11
373.214
 20
137.336
 21
136.918
  0
LINE
  8
0
 10
373.214
 11
372.882
 20
136.918
 21
136.586
  0
LINE
  8
0
 10
372.882
 11
372.464
 20
136.586
 21
136.373
  0
LINE
  8
0
 10
372.464
 11
372
 20
136.373
 21
136.3
  0
LINE
  8
0
 10
372
 11
371.536
 20
136.3
 21
136.373
  0
LINE
  8
0
 10
371.536
 11
371.118
 20
136.373
 21
136.586
  0
LINE
  8
0
 10
371.118
 11
370.786
 20
136.586
 21
136.918
  0
LINE
  8
0
 10
370.786
 11
370.573
 20
136.918
 21
137.336
  0
LINE
  8
0
 10
370.573
 11
370.5
 20
137.336
 21
137.8
  0
LINE
  8
0
 10
370.5
 11
370.573
 20
227.8
 21
228.264
  0
LINE
  8
0
 10
370.573
 11
370.786
 20
228.264
 21
228.682
  0
LINE
  8
0
 10
370.786
 11
371.118
 20
228.682
 21
229.014
  0
LINE
  8
0
 10
371.118
 11
371.536
 20
229.014
 21
229.227
  0
LINE
  8
0
 10
371.536
 11
372
 20
229.227
 21
229.3
  0
LINE
  8
0
 10
372
 11
372.464
 20
229.3
 21
229.227
  0
LINE
  8
0
 10
372.464
 11
372.882
 20
229.227
 21
229.014
  0
LINE
  8
0
 10
372.882
 11
373.214
 20
229.014
 21
228.682
  0
LINE
  8
0
 10
373.214
 11
373.427
 20
228.682
 21
228.264
  0
LINE
  8
0
 10
373.427
 11
373.5
 20
228.264
 21
227.8
  0
LINE
  8
0
 10
373.5
 11
373.427
 20
227.8
 21
227.336
  0
LINE
  8
0
 10
373.427
 11
373.214
 20
227.336
 21
226.918
  0
LINE
  8
0
 10
373.214
 11
372.882
 20
226.918
 21
226.586
  0
LINE
  8
0
 10
372.882
 11
372.464
 20
226.586
 21
226.373
  0
LINE
  8
0
 10
372.464
 11
372
 20
226.373
 21
226.3
  0
LINE
  8
0
 10
372
 11
371.536
 20
226.3
 21
226.373
  0
LINE
  8
0
 10
371.536
 11
371.118
 20
226.373
 21
226.586
  0
LINE
  8
0
 10
371.118
 11
370.786
 20
226.586
 21
226.918
  0
LINE
  8
0
 10
370.786
 11
370.573
 20
226.918
 21
227.336
  0
LINE
  8
0
 10
370.573
 11
370.5
 20
227.336
 21
227.8
  0
LINE
  8
0
 10
375.5
 11
375.622
 20
426
 21
426.773
  0
LINE
  8
0
 10
375.622
 11
375.977
 20
426.773
 21
427.469
  0
LINE
  8
0
 10
375.977
 11
376.531
 20
427.469
 21
428.023
  0
LINE
  8
0
 10
376.531
 11
377.227
 20
428.023
 21
428.378
  0
LINE
  8
0
 10
377.227
 11
378
 20
428.378
 21
428.5
  0
LINE
  8
0
 10
378
 11
378.773
 20
428.5
 21
428.378
  0
LINE
  8
0
 10
378.773
 11
379.469
 20
428.378
 21
428.023
  0
LINE
  8
0
 10
379.469
 11
380.023
 20
428.023
 21
427.469
  0
LINE
  8
0
 10
380.023
 11
380.378
 20
427.469
 21
426.773
  0
LINE
  8
0
 10
380.378
 11
380.5
 20
426.773
 21
426
  0
LINE
  8
0
 10
380.5
 11
380.378
 20
426
 21
425.227
  0
LINE
  8
0
 10
380.378
 11
380.023
 20
425.227
 21
424.531
  0
LINE
  8
0
 10
380.023
 11
379.469
 20
424.531
 21
423.977
  0
LINE
  8
0
 10
379.469
 11
378.773
 20
423.977
 21
423.622
  0
LINE
  8
0
 10
378.773
 11
378
 20
423.622
 21
423.5
  0
LINE
  8
0
 10
378
 11
377.227
 20
423.5
 21
423.622
  0
LINE
  8
0
 10
377.227
 11
376.531
 20
423.622
 21
423.977
  0
LINE
  8
0
 10
376.531
 11
375.977
 20
423.977
 21
424.531
  0
LINE
  8
0
 10
375.977
 11
375.622
 20
424.531
 21
425.227
  0
LINE
  8
0
 10
375.622
 11
375.5
 20
425.227
 21
426
  0
LINE
  8
0
 10
382.5
 11
382.622
 20
254
 21
254.773
  0
LINE
  8
0
 10
382.622
 11
382.977
 20
254.773
 21
255.469
  0
LINE
  8
0
 10
382.977
 11
383.531
 20
255.469
 21
256.023
  0
LINE
  8
0
 10
383.531
 11
384.227
 20
256.023
 21
256.378
  0
LINE
  8
0
 10
384.227
 11
385
 20
256.378
 21
256.5
  0
LINE
  8
0
 10
385
 11
385.773
 20
256.5
 21
256.378
  0
LINE
  8
0
 10
385.773
 11
386.469
 20
256.378
 21
256.023
  0
LINE
  8
0
 10
386.469
 11
387.023
 20
256.023
 21
255.469
  0
LINE
  8
0
 10
387.023
 11
387.378
 20
255.469
 21
254.773
  0
LINE
  8
0
 10
387.378
 11
387.5
 20
254.773
 21
254
  0
LINE
  8
0
 10
387.5
 11
387.378
 20
254
 21
253.227
  0
LINE
  8
0
 10
387.378
 11
387.023
 20
253.227
 21
252.531
  0
LINE
  8
0
 10
387.023
 11
386.469
 20
252.531
 21
251.977
  0
LINE
  8
0
 10
386.469
 11
385.773
 20
251.977
 21
251.622
  0
LINE
  8
0
 10
385.773
 11
385
 20
251.622
 21
251.5
  0
LINE
  8
0
 10
385
 11
384.227
 20
251.5
 21
251.622
  0
LINE
  8
0
 10
384.227
 11
383.531
 20
251.622
 21
251.977
  0
LINE
  8
0
 10
383.531
 11
382.977
 20
251.977
 21
252.531
  0
LINE
  8
0
 10
382.977
 11
382.622
 20
252.531
 21
253.227
  0
LINE
  8
0
 10
382.622
 11
382.5
 20
253.227
 21
254
  0
LINE
  8
0
 10
408.5
 11
408.533
 20
433
 21
433.312
  0
LINE
  8
0
 10
408.533
 11
408.63
 20
433.312
 21
433.61
  0
LINE
  8
0
 10
408.63
 11
408.786
 20
433.61
 21
433.882
  0
LINE
  8
0
 10
408.786
 11
408.996
 20
433.882
 21
434.115
  0
LINE
  8
0
 10
408.996
 11
409.25
 20
434.115
 21
434.299
  0
LINE
  8
0
 10
409.25
 11
409.536
 20
434.299
 21
434.427
  0
LINE
  8
0
 10
409.536
 11
409.843
 20
434.427
 21
434.492
  0
LINE
  8
0
 10
409.843
 11
410.157
 20
434.492
 21
434.492
  0
LINE
  8
0
 10
410.157
 11
410.464
 20
434.492
 21
434.427
  0
LINE
  8
0
 10
410.464
 11
410.75
 20
434.427
 21
434.299
  0
LINE
  8
0
 10
410.75
 11
411.004
 20
434.299
 21
434.115
  0
LINE
  8
0
 10
411.004
 11
411.214
 20
434.115
 21
433.882
  0
LINE
  8
0
 10
411.214
 11
411.37
 20
433.882
 21
433.61
  0
LINE
  8
0
 10
411.37
 11
411.467
 20
433.61
 21
433.312
  0
LINE
  8
0
 10
411.467
 11
411.5
 20
433.312
 21
433
  0
LINE
  8
0
 10
411.5
 11
411.467
 20
433
 21
432.688
  0
LINE
  8
0
 10
411.467
 11
411.37
 20
432.688
 21
432.39
  0
LINE
  8
0
 10
411.37
 11
411.214
 20
432.39
 21
432.118
  0
LINE
  8
0
 10
411.214
 11
411.004
 20
432.118
 21
431.885
  0
LINE
  8
0
 10
411.004
 11
410.75
 20
431.885
 21
431.701
  0
LINE
  8
0
 10
410.75
 11
410.464
 20
431.701
 21
431.573
  0
LINE
  8
0
 10
410.464
 11
410.157
 20
431.573
 21
431.508
  0
LINE
  8
0
 10
410.157
 11
409.843
 20
431.508
 21
431.508
  0
LINE
  8
0
 10
409.843
 11
409.536
 20
431.508
 21
431.573
  0
LINE
  8
0
 10
409.536
 11
409.25
 20
431.573
 21
431.701
  0
LINE
  8
0
 10
409.25
 11
408.996
 20
431.701
 21
431.885
  0
LINE
  8
0
 10
408.996
 11
408.786
 20
431.885
 21
432.118
  0
LINE
  8
0
 10
408.786
 11
408.63
 20
432.118
 21
432.39
  0
LINE
  8
0
 10
408.63
 11
408.533
 20
432.39
 21
432.688
  0
LINE
  8
0
 10
408.533
 11
408.5
 20
432.688
 21
433
  0
LINE
  8
0
 10
408.5
 11
408.533
 20
443
 21
443.312
  0
LINE
  8
0
 10
408.533
 11
408.63
 20
443.312
 21
443.61
  0
LINE
  8
0
 10
408.63
 11
408.786
 20
443.61
 21
443.882
  0
LINE
  8
0
 10
408.786
 11
408.996
 20
443.882
 21
444.115
  0
LINE
  8
0
 10
408.996
 11
409.25
 20
444.115
 21
444.299
  0
LINE
  8
0
 10
409.25
 11
409.536
 20
444.299
 21
444.427
  0
LINE
  8
0
 10
409.536
 11
409.843
 20
444.427
 21
444.492
  0
LINE
  8
0
 10
409.843
 11
410.157
 20
444.492
 21
444.492
  0
LINE
  8
0
 10
410.157
 11
410.464
 20
444.492
 21
444.427
  0
LINE
  8
0
 10
410.464
 11
410.75
 20
444.427
 21
444.299
  0
LINE
  8
0
 10
410.75
 11
411.004
 20
444.299
 21
444.115
  0
LINE
  8
0
 10
411.004
 11
411.214
 20
444.115
 21
443.882
  0
LINE
  8
0
 10
411.214
 11
411.37
 20
443.882
 21
443.61
  0
LINE
  8
0
 10
411.37
 11
411.467
 20
443.61
 21
443.312
  0
LINE
  8
0
 10
411.467
 11
411.5
 20
443.312
 21
443
  0
LINE
  8
0
 10
411.5
 11
411.467
 20
443
 21
442.688
  0
LINE
  8
0
 10
411.467
 11
411.37
 20
442.688
 21
442.39
  0
LINE
  8
0
 10
411.37
 11
411.214
 20
442.39
 21
442.118
  0
LINE
  8
0
 10
411.214
 11
411.004
 20
442.118
 21
441.885
  0
LINE
  8
0
 10
411.004
 11
410.75
 20
441.885
 21
441.701
  0
LINE
  8
0
 10
410.75
 11
410.464
 20
441.701
 21
441.573
  0
LINE
  8
0
 10
410.464
 11
410.157
 20
441.573
 21
441.508
  0
LINE
  8
0
 10
410.157
 11
409.843
 20
441.508
 21
441.508
  0
LINE
  8
0
 10
409.843
 11
409.536
 20
441.508
 21
441.573
  0
LINE
  8
0
 10
409.536
 11
409.25
 20
441.573
 21
441.701
  0
LINE
  8
0
 10
409.25
 11
408.996
 20
441.701
 21
441.885
  0
LINE
  8
0
 10
408.996
 11
408.786
 20
441.885
 21
442.118
  0
LINE
  8
0
 10
408.786
 11
408.63
 20
442.118
 21
442.39
  0
LINE
  8
0
 10
408.63
 11
408.533
 20
442.39
 21
442.688
  0
LINE
  8
0
 10
408.533
 11
408.5
 20
442.688
 21
443
  0
LINE
  8
0
 10
412.508
 11
412.508
 20
442.843
 21
443.157
  0
LINE
  8
0
 10
412.508
 11
412.573
 20
443.157
 21
443.464
  0
LINE
  8
0
 10
412.573
 11
412.701
 20
443.464
 21
443.75
  0
LINE
  8
0
 10
412.701
 11
412.885
 20
443.75
 21
444.004
  0
LINE
  8
0
 10
412.885
 11
413.118
 20
444.004
 21
444.214
  0
LINE
  8
0
 10
413.118
 11
413.39
 20
444.214
 21
444.37
  0
LINE
  8
0
 10
413.39
 11
413.688
 20
444.37
 21
444.467
  0
LINE
  8
0
 10
413.688
 11
414
 20
444.467
 21
444.5
  0
LINE
  8
0
 10
414
 11
414.312
 20
444.5
 21
444.467
  0
LINE
  8
0
 10
414.312
 11
414.61
 20
444.467
 21
444.37
  0
LINE
  8
0
 10
414.61
 11
414.882
 20
444.37
 21
444.214
  0
LINE
  8
0
 10
414.882
 11
415.115
 20
444.214
 21
444.004
  0
LINE
  8
0
 10
415.115
 11
415.299
 20
444.004
 21
443.75
  0
LINE
  8
0
 10
415.299
 11
415.427
 20
443.75
 21
443.464
  0
LINE
  8
0
 10
415.427
 11
415.492
 20
443.464
 21
443.157
  0
LINE
  8
0
 10
415.492
 11
415.492
 20
443.157
 21
442.843
  0
LINE
  8
0
 10
415.492
 11
415.427
 20
442.843
 21
442.536
  0
LINE
  8
0
 10
415.427
 11
415.299
 20
442.536
 21
442.25
  0
LINE
  8
0
 10
415.299
 11
415.115
 20
442.25
 21
441.996
  0
LINE
  8
0
 10
415.115
 11
414.882
 20
441.996
 21
441.786
  0
LINE
  8
0
 10
414.882
 11
414.61
 20
441.786
 21
441.63
  0
LINE
  8
0
 10
414.61
 11
414.312
 20
441.63
 21
441.533
  0
LINE
  8
0
 10
414.312
 11
414
 20
441.533
 21
441.5
  0
LINE
  8
0
 10
414
 11
413.688
 20
441.5
 21
441.533
  0
LINE
  8
0
 10
413.688
 11
413.39
 20
441.533
 21
441.63
  0
LINE
  8
0
 10
413.39
 11
413.118
 20
441.63
 21
441.786
  0
LINE
  8
0
 10
413.118
 11
412.885
 20
441.786
 21
441.996
  0
LINE
  8
0
 10
412.885
 11
412.701
 20
441.996
 21
442.25
  0
LINE
  8
0
 10
412.701
 11
412.573
 20
442.25
 21
442.536
  0
LINE
  8
0
 10
412.573
 11
412.508
 20
442.536
 21
442.843
  0
LINE
  8
0
 10
424.508
 11
424.508
 20
442.843
 21
443.157
  0
LINE
  8
0
 10
424.508
 11
424.573
 20
443.157
 21
443.464
  0
LINE
  8
0
 10
424.573
 11
424.701
 20
443.464
 21
443.75
  0
LINE
  8
0
 10
424.701
 11
424.885
 20
443.75
 21
444.004
  0
LINE
  8
0
 10
424.885
 11
425.118
 20
444.004
 21
444.214
  0
LINE
  8
0
 10
425.118
 11
425.39
 20
444.214
 21
444.37
  0
LINE
  8
0
 10
425.39
 11
425.688
 20
444.37
 21
444.467
  0
LINE
  8
0
 10
425.688
 11
426
 20
444.467
 21
444.5
  0
LINE
  8
0
 10
426
 11
426.312
 20
444.5
 21
444.467
  0
LINE
  8
0
 10
426.312
 11
426.61
 20
444.467
 21
444.37
  0
LINE
  8
0
 10
426.61
 11
426.882
 20
444.37
 21
444.214
  0
LINE
  8
0
 10
426.882
 11
427.115
 20
444.214
 21
444.004
  0
LINE
  8
0
 10
427.115
 11
427.299
 20
444.004
 21
443.75
  0
LINE
  8
0
 10
427.299
 11
427.427
 20
443.75
 21
443.464
  0
LINE
  8
0
 10
427.427
 11
427.492
 20
443.464
 21
443.157
  0
LINE
  8
0
 10
427.492
 11
427.492
 20
443.157
 21
442.843
  0
LINE
  8
0
 10
427.492
 11
427.427
 20
442.843
 21
442.536
  0
LINE
  8
0
 10
427.427
 11
427.299
 20
442.536
 21
442.25
  0
LINE
  8
0
 10
427.299
 11
427.115
 20
442.25
 21
441.996
  0
LINE
  8
0
 10
427.115
 11
426.882
 20
441.996
 21
441.786
  0
LINE
  8
0
 10
426.882
 11
426.61
 20
441.786
 21
441.63
  0
LINE
  8
0
 10
426.61
 11
426.312
 20
441.63
 21
441.533
  0
LINE
  8
0
 10
426.312
 11
426
 20
441.533
 21
441.5
  0
LINE
  8
0
 10
426
 11
425.688
 20
441.5
 21
441.533
  0
LINE
  8
0
 10
425.688
 11
425.39
 20
441.533
 21
441.63
  0
LINE
  8
0
 10
425.39
 11
425.118
 20
441.63
 21
441.786
  0
LINE
  8
0
 10
425.118
 11
424.885
 20
441.786
 21
441.996
  0
LINE
  8
0
 10
424.885
 11
424.701
 20
441.996
 21
442.25
  0
LINE
  8
0
 10
424.701
 11
424.573
 20
442.25
 21
442.536
  0
LINE
  8
0
 10
424.573
 11
424.508
 20
442.536
 21
442.843
  0
LINE
  8
0
 10
443.5
 11
443.533
 20
440
 21
440.312
  0
LINE
  8
0
 10
443.533
 11
443.63
 20
440.312
 21
440.61
  0
LINE
  8
0
 10
443.63
 11
443.786
 20
440.61
 21
440.882
  0
LINE
  8
0
 10
443.786
 11
443.996
 20
440.882
 21
441.115
  0
LINE
  8
0
 10
443.996
 11
444.25
 20
441.115
 21
441.299
  0
LINE
  8
0
 10
444.25
 11
444.536
 20
441.299
 21
441.427
  0
LINE
  8
0
 10
444.536
 11
444.843
 20
441.427
 21
441.492
  0
LINE
  8
0
 10
444.843
 11
445.157
 20
441.492
 21
441.492
  0
LINE
  8
0
 10
445.157
 11
445.464
 20
441.492
 21
441.427
  0
LINE
  8
0
 10
445.464
 11
445.75
 20
441.427
 21
441.299
  0
LINE
  8
0
 10
445.75
 11
446.004
 20
441.299
 21
441.115
  0
LINE
  8
0
 10
446.004
 11
446.214
 20
441.115
 21
440.882
  0
LINE
  8
0
 10
446.214
 11
446.37
 20
440.882
 21
440.61
  0
LINE
  8
0
 10
446.37
 11
446.467
 20
440.61
 21
440.312
  0
LINE
  8
0
 10
446.467
 11
446.5
 20
440.312
 21
440
  0
LINE
  8
0
 10
446.5
 11
446.467
 20
440
 21
439.688
  0
LINE
  8
0
 10
446.467
 11
446.37
 20
439.688
 21
439.39
  0
LINE
  8
0
 10
446.37
 11
446.214
 20
439.39
 21
439.118
  0
LINE
  8
0
 10
446.214
 11
446.004
 20
439.118
 21
438.885
  0
LINE
  8
0
 10
446.004
 11
445.75
 20
438.885
 21
438.701
  0
LINE
  8
0
 10
445.75
 11
445.464
 20
438.701
 21
438.573
  0
LINE
  8
0
 10
445.464
 11
445.157
 20
438.573
 21
438.508
  0
LINE
  8
0
 10
445.157
 11
444.843
 20
438.508
 21
438.508
  0
LINE
  8
0
 10
444.843
 11
444.536
 20
438.508
 21
438.573
  0
LINE
  8
0
 10
444.536
 11
444.25
 20
438.573
 21
438.701
  0
LINE
  8
0
 10
444.25
 11
443.996
 20
438.701
 21
438.885
  0
LINE
  8
0
 10
443.996
 11
443.786
 20
438.885
 21
439.118
  0
LINE
  8
0
 10
443.786
 11
443.63
 20
439.118
 21
439.39
  0
LINE
  8
0
 10
443.63
 11
443.533
 20
439.39
 21
439.688
  0
LINE
  8
0
 10
443.533
 11
443.5
 20
439.688
 21
440
  0
LINE
  8
0
 10
443.5
 11
443.533
 20
452
 21
452.312
  0
LINE
  8
0
 10
443.533
 11
443.63
 20
452.312
 21
452.61
  0
LINE
  8
0
 10
443.63
 11
443.786
 20
452.61
 21
452.882
  0
LINE
  8
0
 10
443.786
 11
443.996
 20
452.882
 21
453.115
  0
LINE
  8
0
 10
443.996
 11
444.25
 20
453.115
 21
453.299
  0
LINE
  8
0
 10
444.25
 11
444.536
 20
453.299
 21
453.427
  0
LINE
  8
0
 10
444.536
 11
444.843
 20
453.427
 21
453.492
  0
LINE
  8
0
 10
444.843
 11
445.157
 20
453.492
 21
453.492
  0
LINE
  8
0
 10
445.157
 11
445.464
 20
453.492
 21
453.427
  0
LINE
  8
0
 10
445.464
 11
445.75
 20
453.427
 21
453.299
  0
LINE
  8
0
 10
445.75
 11
446.004
 20
453.299
 21
453.115
  0
LINE
  8
0
 10
446.004
 11
446.214
 20
453.115
 21
452.882
  0
LINE
  8
0
 10
446.214
 11
446.37
 20
452.882
 21
452.61
  0
LINE
  8
0
 10
446.37
 11
446.467
 20
452.61
 21
452.312
  0
LINE
  8
0
 10
446.467
 11
446.5
 20
452.312
 21
452
  0
LINE
  8
0
 10
446.5
 11
446.467
 20
452
 21
451.688
  0
LINE
  8
0
 10
446.467
 11
446.37
 20
451.688
 21
451.39
  0
LINE
  8
0
 10
446.37
 11
446.214
 20
451.39
 21
451.118
  0
LINE
  8
0
 10
446.214
 11
446.004
 20
451.118
 21
450.885
  0
LINE
  8
0
 10
446.004
 11
445.75
 20
450.885
 21
450.701
  0
LINE
  8
0
 10
445.75
 11
445.464
 20
450.701
 21
450.573
  0
LINE
  8
0
 10
445.464
 11
445.157
 20
450.573
 21
450.508
  0
LINE
  8
0
 10
445.157
 11
444.843
 20
450.508
 21
450.508
  0
LINE
  8
0
 10
444.843
 11
444.536
 20
450.508
 21
450.573
  0
LINE
  8
0
 10
444.536
 11
444.25
 20
450.573
 21
450.701
  0
LINE
  8
0
 10
444.25
 11
443.996
 20
450.701
 21
450.885
  0
LINE
  8
0
 10
443.996
 11
443.786
 20
450.885
 21
451.118
  0
LINE
  8
0
 10
443.786
 11
443.63
 20
451.118
 21
451.39
  0
LINE
  8
0
 10
443.63
 11
443.533
 20
451.39
 21
451.688
  0
LINE
  8
0
 10
443.533
 11
443.5
 20
451.688
 21
452
  0
LINE
  8
0
 10
453.5
 11
453.533
 20
440
 21
440.312
  0
LINE
  8
0
 10
453.533
 11
453.63
 20
440.312
 21
440.61
  0
LINE
  8
0
 10
453.63
 11
453.786
 20
440.61
 21
440.882
  0
LINE
  8
0
 10
453.786
 11
453.996
 20
440.882
 21
441.115
  0
LINE
  8
0
 10
453.996
 11
454.25
 20
441.115
 21
441.299
  0
LINE
  8
0
 10
454.25
 11
454.536
 20
441.299
 21
441.427
  0
LINE
  8
0
 10
454.536
 11
454.843
 20
441.427
 21
441.492
  0
LINE
  8
0
 10
454.843
 11
455.157
 20
441.492
 21
441.492
  0
LINE
  8
0
 10
455.157
 11
455.464
 20
441.492
 21
441.427
  0
LINE
  8
0
 10
455.464
 11
455.75
 20
441.427
 21
441.299
  0
LINE
  8
0
 10
455.75
 11
456.004
 20
441.299
 21
441.115
  0
LINE
  8
0
 10
456.004
 11
456.214
 20
441.115
 21
440.882
  0
LINE
  8
0
 10
456.214
 11
456.37
 20
440.882
 21
440.61
  0
LINE
  8
0
 10
456.37
 11
456.467
 20
440.61
 21
440.312
  0
LINE
  8
0
 10
456.467
 11
456.5
 20
440.312
 21
440
  0
LINE
  8
0
 10
456.5
 11
456.467
 20
440
 21
439.688
  0
LINE
  8
0
 10
456.467
 11
456.37
 20
439.688
 21
439.39
  0
LINE
  8
0
 10
456.37
 11
456.214
 20
439.39
 21
439.118
  0
LINE
  8
0
 10
456.214
 11
456.004
 20
439.118
 21
438.885
  0
LINE
  8
0
 10
456.004
 11
455.75
 20
438.885
 21
438.701
  0
LINE
  8
0
 10
455.75
 11
455.464
 20
438.701
 21
438.573
  0
LINE
  8
0
 10
455.464
 11
455.157
 20
438.573
 21
438.508
  0
LINE
  8
0
 10
455.157
 11
454.843
 20
438.508
 21
438.508
  0
LINE
  8
0
 10
454.843
 11
454.536
 20
438.508
 21
438.573
  0
LINE
  8
0
 10
454.536
 11
454.25
 20
438.573
 21
438.701
  0
LINE
  8
0
 10
454.25
 11
453.996
 20
438.701
 21
438.885
  0
LINE
  8
0
 10
453.996
 11
453.786
 20
438.885
 21
439.118
  0
LINE
  8
0
 10
453.786
 11
453.63
 20
439.118
 21
439.39
  0
LINE
  8
0
 10
453.63
 11
453.533
 20
439.39
 21
439.688
  0
LINE
  8
0
 10
453.533
 11
453.5
 20
439.688
 21
440
  0
LINE
  8
0
 10
453.5
 11
453.533
 20
452
 21
452.312
  0
LINE
  8
0
 10
453.533
 11
453.63
 20
452.312
 21
452.61
  0
LINE
  8
0
 10
453.63
 11
453.786
 20
452.61
 21
452.882
  0
LINE
  8
0
 10
453.786
 11
453.996
 20
452.882
 21
453.115
  0
LINE
  8
0
 10
453.996
 11
454.25
 20
453.115
 21
453.299
  0
LINE
  8
0
 10
454.25
 11
454.536
 20
453.299
 21
453.427
  0
LINE
  8
0
 10
454.536
 11
454.843
 20
453.427
 21
453.492
  0
LINE
  8
0
 10
454.843
 11
455.157
 20
453.492
 21
453.492
  0
LINE
  8
0
 10
455.157
 11
455.464
 20
453.492
 21
453.427
  0
LINE
  8
0
 10
455.464
 11
455.75
 20
453.427
 21
453.299
  0
LINE
  8
0
 10
455.75
 11
456.004
 20
453.299
 21
453.115
  0
LINE
  8
0
 10
456.004
 11
456.214
 20
453.115
 21
452.882
  0
LINE
  8
0
 10
456.214
 11
456.37
 20
452.882
 21
452.61
  0
LINE
  8
0
 10
456.37
 11
456.467
 20
452.61
 21
452.312
  0
LINE
  8
0
 10
456.467
 11
456.5
 20
452.312
 21
452
  0
LINE
  8
0
 10
456.5
 11
456.467
 20
452
 21
451.688
  0
LINE
  8
0
 10
456.467
 11
456.37
 20
451.688
 21
451.39
  0
LINE
  8
0
 10
456.37
 11
456.214
 20
451.39
 21
451.118
  0
LINE
  8
0
 10
456.214
 11
456.004
 20
451.118
 21
450.885
  0
LINE
  8
0
 10
456.004
 11
455.75
 20
450.885
 21
450.701
  0
LINE
  8
0
 10
455.75
 11
455.464
 20
450.701
 21
450.573
  0
LINE
  8
0
 10
455.464
 11
455.157
 20
450.573
 21
450.508
  0
LINE
  8
0
 10
455.157
 11
454.843
 20
450.508
 21
450.508
  0
LINE
  8
0
 10
454.843
 11
454.536
 20
450.508
 21
450.573
  0
LINE
  8
0
 10
454.536
 11
454.25
 20
450.573
 21
450.701
  0
LINE
  8
0
 10
454.25
 11
453.996
 20
450.701
 21
450.885
  0
LINE
  8
0
 10
453.996
 11
453.786
 20
450.885
 21
451.118
  0
LINE
  8
0
 10
453.786
 11
453.63
 20
451.118
 21
451.39
  0
LINE
  8
0
 10
453.63
 11
453.533
 20
451.39
 21
451.688
  0
LINE
  8
0
 10
453.533
 11
453.5
 20
451.688
 21
452
  0
LINE
  8
0
 10
474.5
 11
474.622
 20
255
 21
255.773
  0
LINE
  8
0
 10
474.622
 11
474.977
 20
255.773
 21
256.469
  0
LINE
  8
0
 10
474.977
 11
475.531
 20
256.469
 21
257.023
  0
LINE
  8
0
 10
475.531
 11
476.227
 20
257.023
 21
257.378
  0
LINE
  8
0
 10
476.227
 11
477
 20
257.378
 21
257.5
  0
LINE
  8
0
 10
477
 11
477.773
 20
257.5
 21
257.378
  0
LINE
  8
0
 10
477.773
 11
478.469
 20
257.378
 21
257.023
  0
LINE
  8
0
 10
478.469
 11
479.023
 20
257.023
 21
256.469
  0
LINE
  8
0
 10
479.023
 11
479.378
 20
256.469
 21
255.773
  0
LINE
  8
0
 10
479.378
 11
479.5
 20
255.773
 21
255
  0
LINE
  8
0
 10
479.5
 11
479.378
 20
255
 21
254.227
  0
LINE
  8
0
 10
479.378
 11
479.023
 20
254.227
 21
253.531
  0
LINE
  8
0
 10
479.023
 11
478.469
 20
253.531
 21
252.977
  0
LINE
  8
0
 10
478.469
 11
477.773
 20
252.977
 21
252.622
  0
LINE
  8
0
 10
477.773
 11
477
 20
252.622
 21
252.5
  0
LINE
  8
0
 10
477
 11
476.227
 20
252.5
 21
252.622
  0
LINE
  8
0
 10
476.227
 11
475.531
 20
252.622
 21
252.977
  0
LINE
  8
0
 10
475.531
 11
474.977
 20
252.977
 21
253.531
  0
LINE
  8
0
 10
474.977
 11
474.622
 20
253.531
 21
254.227
  0
LINE
  8
0
 10
474.622
 11
474.5
 20
254.227
 21
255
  0
LINE
  8
0
 10
475.5
 11
475.622
 20
425
 21
425.773
  0
LINE
  8
0
 10
475.622
 11
475.977
 20
425.773
 21
426.469
  0
LINE
  8
0
 10
475.977
 11
476.531
 20
426.469
 21
427.023
  0
LINE
  8
0
 10
476.531
 11
477.227
 20
427.023
 21
427.378
  0
LINE
  8
0
 10
477.227
 11
478
 20
427.378
 21
427.5
  0
LINE
  8
0
 10
478
 11
478.773
 20
427.5
 21
427.378
  0
LINE
  8
0
 10
478.773
 11
479.469
 20
427.378
 21
427.023
  0
LINE
  8
0
 10
479.469
 11
480.023
 20
427.023
 21
426.469
  0
LINE
  8
0
 10
480.023
 11
480.378
 20
426.469
 21
425.773
  0
LINE
  8
0
 10
480.378
 11
480.5
 20
425.773
 21
425
  0
LINE
  8
0
 10
480.5
 11
480.378
 20
425
 21
424.227
  0
LINE
  8
0
 10
480.378
 11
480.023
 20
424.227
 21
423.531
  0
LINE
  8
0
 10
480.023
 11
479.469
 20
423.531
 21
422.977
  0
LINE
  8
0
 10
479.469
 11
478.773
 20
422.977
 21
422.622
  0
LINE
  8
0
 10
478.773
 11
478
 20
422.622
 21
422.5
  0
LINE
  8
0
 10
478
 11
477.227
 20
422.5
 21
422.622
  0
LINE
  8
0
 10
477.227
 11
476.531
 20
422.622
 21
422.977
  0
LINE
  8
0
 10
476.531
 11
475.977
 20
422.977
 21
423.531
  0
LINE
  8
0
 10
475.977
 11
475.622
 20
423.531
 21
424.227
  0
LINE
  8
0
 10
475.622
 11
475.5
 20
424.227
 21
425
  0
ENDSEC
  0
SECTION
  2
OBJECTS
  0
DICTIONARY
  0
ENDSEC
  0
EOF
