  0
SECTION
  2
BLOCKS
  0
ENDSEC
  0
SECTION
  2
ENTITIES
  0
LINE
  8
0
 10
20
 11
20
 20
45
 21
255
  0
LINE
  8
0
 10
20
 11
20.381
 20
255
 21
256.913
  0
LINE
  8
0
 10
20.381
 11
21.464
 20
256.913
 21
258.536
  0
LINE
  8
0
 10
21.464
 11
23.087
 20
258.536
 21
259.619
  0
LINE
  8
0
 10
23.087
 11
25
 20
259.619
 21
260
  0
LINE
  8
0
 10
25
 11
235
 20
260
 21
260
  0
LINE
  8
0
 10
235
 11
236.913
 20
260
 21
259.619
  0
LINE
  8
0
 10
236.913
 11
238.536
 20
259.619
 21
258.536
  0
LINE
  8
0
 10
238.536
 11
239.619
 20
258.536
 21
256.913
  0
LINE
  8
0
 10
239.619
 11
240
 20
256.913
 21
255
  0
LINE
  8
0
 10
240
 11
240
 20
255
 21
45
  0
LINE
  8
0
 10
240
 11
239.619
 20
45
 21
43.087
  0
LINE
  8
0
 10
239.619
 11
238.536
 20
43.087
 21
41.464
  0
LINE
  8
0
 10
238.536
 11
236.913
 20
41.464
 21
40.381
  0
LINE
  8
0
 10
236.913
 11
235
 20
40.381
 21
40
  0
LINE
  8
0
 10
235
 11
25
 20
40
 21
40
  0
LINE
  8
0
 10
25
 11
23.087
 20
40
 21
40.381
  0
LINE
  8
0
 10
23.087
 11
21.464
 20
40.381
 21
41.464
  0
LINE
  8
0
 10
21.464
 11
20.381
 20
41.464
 21
43.087
  0
LINE
  8
0
 10
20.381
 11
20
 20
43.087
 21
45
  0
LINE
  8
0
 10
23.5
 11
23.573
 20
45
 21
45.464
  0
LINE
  8
0
 10
23.573
 11
23.786
 20
45.464
 21
45.882
  0
LINE
  8
0
 10
23.786
 11
24.118
 20
45.882
 21
46.214
  0
LINE
  8
0
 10
24.118
 11
24.536
 20
46.214
 21
46.427
  0
LINE
  8
0
 10
24.536
 11
25
 20
46.427
 21
46.5
  0
LINE
  8
0
 10
25
 11
25.464
 20
46.5
 21
46.427
  0
LINE
  8
0
 10
25.464
 11
25.882
 20
46.427
 21
46.214
  0
LINE
  8
0
 10
25.882
 11
26.214
 20
46.214
 21
45.882
  0
LINE
  8
0
 10
26.214
 11
26.427
 20
45.882
 21
45.464
  0
LINE
  8
0
 10
26.427
 11
26.5
 20
45.464
 21
45
  0
LINE
  8
0
 10
26.5
 11
26.427
 20
45
 21
44.536
  0
LINE
  8
0
 10
26.427
 11
26.214
 20
44.536
 21
44.118
  0
LINE
  8
0
 10
26.214
 11
25.882
 20
44.118
 21
43.786
  0
LINE
  8
0
 10
25.882
 11
25.464
 20
43.786
 21
43.573
  0
LINE
  8
0
 10
25.464
 11
25
 20
43.573
 21
43.5
  0
LINE
  8
0
 10
25
 11
24.536
 20
43.5
 21
43.573
  0
LINE
  8
0
 10
24.536
 11
24.118
 20
43.573
 21
43.786
  0
LINE
  8
0
 10
24.118
 11
23.786
 20
43.786
 21
44.118
  0
LINE
  8
0
 10
23.786
 11
23.573
 20
44.118
 21
44.536
  0
LINE
  8
0
 10
23.573
 11
23.5
 20
44.536
 21
45
  0
LINE
  8
0
 10
23.5
 11
23.573
 20
255
 21
255.464
  0
LINE
  8
0
 10
23.573
 11
23.786
 20
255.464
 21
255.882
  0
LINE
  8
0
 10
23.786
 11
24.118
 20
255.882
 21
256.214
  0
LINE
  8
0
 10
24.118
 11
24.536
 20
256.214
 21
256.427
  0
LINE
  8
0
 10
24.536
 11
25
 20
256.427
 21
256.5
  0
LINE
  8
0
 10
25
 11
25.464
 20
256.5
 21
256.427
  0
LINE
  8
0
 10
25.464
 11
25.882
 20
256.427
 21
256.214
  0
LINE
  8
0
 10
25.882
 11
26.214
 20
256.214
 21
255.882
  0
LINE
  8
0
 10
26.214
 11
26.427
 20
255.882
 21
255.464
  0
LINE
  8
0
 10
26.427
 11
26.5
 20
255.464
 21
255
  0
LINE
  8
0
 10
26.5
 11
26.427
 20
255
 21
254.536
  0
LINE
  8
0
 10
26.427
 11
26.214
 20
254.536
 21
254.118
  0
LINE
  8
0
 10
26.214
 11
25.882
 20
254.118
 21
253.786
  0
LINE
  8
0
 10
25.882
 11
25.464
 20
253.786
 21
253.573
  0
LINE
  8
0
 10
25.464
 11
25
 20
253.573
 21
253.5
  0
LINE
  8
0
 10
25
 11
24.536
 20
253.5
 21
253.573
  0
LINE
  8
0
 10
24.536
 11
24.118
 20
253.573
 21
253.786
  0
LINE
  8
0
 10
24.118
 11
23.786
 20
253.786
 21
254.118
  0
LINE
  8
0
 10
23.786
 11
23.573
 20
254.118
 21
254.536
  0
LINE
  8
0
 10
23.573
 11
23.5
 20
254.536
 21
255
  0
LINE
  8
0
 10
28.5
 11
28.573
 20
145
 21
145.464
  0
LINE
  8
0
 10
28.573
 11
28.786
 20
145.464
 21
145.882
  0
LINE
  8
0
 10
28.786
 11
29.118
 20
145.882
 21
146.214
  0
LINE
  8
0
 10
29.118
 11
29.536
 20
146.214
 21
146.427
  0
LINE
  8
0
 10
29.536
 11
30
 20
146.427
 21
146.5
  0
LINE
  8
0
 10
30
 11
30.464
 20
146.5
 21
146.427
  0
LINE
  8
0
 10
30.464
 11
30.882
 20
146.427
 21
146.214
  0
LINE
  8
0
 10
30.882
 11
31.214
 20
146.214
 21
145.882
  0
LINE
  8
0
 10
31.214
 11
31.427
 20
145.882
 21
145.464
  0
LINE
  8
0
 10
31.427
 11
31.5
 20
145.464
 21
145
  0
LINE
  8
0
 10
31.5
 11
31.427
 20
145
 21
144.536
  0
LINE
  8
0
 10
31.427
 11
31.214
 20
144.536
 21
144.118
  0
LINE
  8
0
 10
31.214
 11
30.882
 20
144.118
 21
143.786
  0
LINE
  8
0
 10
30.882
 11
30.464
 20
143.786
 21
143.573
  0
LINE
  8
0
 10
30.464
 11
30
 20
143.573
 21
143.5
  0
LINE
  8
0
 10
30
 11
29.536
 20
143.5
 21
143.573
  0
LINE
  8
0
 10
29.536
 11
29.118
 20
143.573
 21
143.786
  0
LINE
  8
0
 10
29.118
 11
28.786
 20
143.786
 21
144.118
  0
LINE
  8
0
 10
28.786
 11
28.573
 20
144.118
 21
144.536
  0
LINE
  8
0
 10
28.573
 11
28.5
 20
144.536
 21
145
  0
LINE
  8
0
 10
28.5
 11
28.573
 20
155
 21
155.464
  0
LINE
  8
0
 10
28.573
 11
28.786
 20
155.464
 21
155.882
  0
LINE
  8
0
 10
28.786
 11
29.118
 20
155.882
 21
156.214
  0
LINE
  8
0
 10
29.118
 11
29.536
 20
156.214
 21
156.427
  0
LINE
  8
0
 10
29.536
 11
30
 20
156.427
 21
156.5
  0
LINE
  8
0
 10
30
 11
30.464
 20
156.5
 21
156.427
  0
LINE
  8
0
 10
30.464
 11
30.882
 20
156.427
 21
156.214
  0
LINE
  8
0
 10
30.882
 11
31.214
 20
156.214
 21
155.882
  0
LINE
  8
0
 10
31.214
 11
31.427
 20
155.882
 21
155.464
  0
LINE
  8
0
 10
31.427
 11
31.5
 20
155.464
 21
155
  0
LINE
  8
0
 10
31.5
 11
31.427
 20
155
 21
154.536
  0
LINE
  8
0
 10
31.427
 11
31.214
 20
154.536
 21
154.118
  0
LINE
  8
0
 10
31.214
 11
30.882
 20
154.118
 21
153.786
  0
LINE
  8
0
 10
30.882
 11
30.464
 20
153.786
 21
153.573
  0
LINE
  8
0
 10
30.464
 11
30
 20
153.573
 21
153.5
  0
LINE
  8
0
 10
30
 11
29.536
 20
153.5
 21
153.573
  0
LINE
  8
0
 10
29.536
 11
29.118
 20
153.573
 21
153.786
  0
LINE
  8
0
 10
29.118
 11
28.786
 20
153.786
 21
154.118
  0
LINE
  8
0
 10
28.786
 11
28.573
 20
154.118
 21
154.536
  0
LINE
  8
0
 10
28.573
 11
28.5
 20
154.536
 21
155
  0
LINE
  8
0
 10
38.5
 11
38.573
 20
145
 21
145.464
  0
LINE
  8
0
 10
38.573
 11
38.786
 20
145.464
 21
145.882
  0
LINE
  8
0
 10
38.786
 11
39.118
 20
145.882
 21
146.214
  0
LINE
  8
0
 10
39.118
 11
39.536
 20
146.214
 21
146.427
  0
LINE
  8
0
 10
39.536
 11
40
 20
146.427
 21
146.5
  0
LINE
  8
0
 10
40
 11
40.464
 20
146.5
 21
146.427
  0
LINE
  8
0
 10
40.464
 11
40.882
 20
146.427
 21
146.214
  0
LINE
  8
0
 10
40.882
 11
41.214
 20
146.214
 21
145.882
  0
LINE
  8
0
 10
41.214
 11
41.427
 20
145.882
 21
145.464
  0
LINE
  8
0
 10
41.427
 11
41.5
 20
145.464
 21
145
  0
LINE
  8
0
 10
41.5
 11
41.427
 20
145
 21
144.536
  0
LINE
  8
0
 10
41.427
 11
41.214
 20
144.536
 21
144.118
  0
LINE
  8
0
 10
41.214
 11
40.882
 20
144.118
 21
143.786
  0
LINE
  8
0
 10
40.882
 11
40.464
 20
143.786
 21
143.573
  0
LINE
  8
0
 10
40.464
 11
40
 20
143.573
 21
143.5
  0
LINE
  8
0
 10
40
 11
39.536
 20
143.5
 21
143.573
  0
LINE
  8
0
 10
39.536
 11
39.118
 20
143.573
 21
143.786
  0
LINE
  8
0
 10
39.118
 11
38.786
 20
143.786
 21
144.118
  0
LINE
  8
0
 10
38.786
 11
38.573
 20
144.118
 21
144.536
  0
LINE
  8
0
 10
38.573
 11
38.5
 20
144.536
 21
145
  0
LINE
  8
0
 10
38.5
 11
38.573
 20
155
 21
155.464
  0
LINE
  8
0
 10
38.573
 11
38.786
 20
155.464
 21
155.882
  0
LINE
  8
0
 10
38.786
 11
39.118
 20
155.882
 21
156.214
  0
LINE
  8
0
 10
39.118
 11
39.536
 20
156.214
 21
156.427
  0
LINE
  8
0
 10
39.536
 11
40
 20
156.427
 21
156.5
  0
LINE
  8
0
 10
40
 11
40.464
 20
156.5
 21
156.427
  0
LINE
  8
0
 10
40.464
 11
40.882
 20
156.427
 21
156.214
  0
LINE
  8
0
 10
40.882
 11
41.214
 20
156.214
 21
155.882
  0
LINE
  8
0
 10
41.214
 11
41.427
 20
155.882
 21
155.464
  0
LINE
  8
0
 10
41.427
 11
41.5
 20
155.464
 21
155
  0
LINE
  8
0
 10
41.5
 11
41.427
 20
155
 21
154.536
  0
LINE
  8
0
 10
41.427
 11
41.214
 20
154.536
 21
154.118
  0
LINE
  8
0
 10
41.214
 11
40.882
 20
154.118
 21
153.786
  0
LINE
  8
0
 10
40.882
 11
40.464
 20
153.786
 21
153.573
  0
LINE
  8
0
 10
40.464
 11
40
 20
153.573
 21
153.5
  0
LINE
  8
0
 10
40
 11
39.536
 20
153.5
 21
153.573
  0
LINE
  8
0
 10
39.536
 11
39.118
 20
153.573
 21
153.786
  0
LINE
  8
0
 10
39.118
 11
38.786
 20
153.786
 21
154.118
  0
LINE
  8
0
 10
38.786
 11
38.573
 20
154.118
 21
154.536
  0
LINE
  8
0
 10
38.573
 11
38.5
 20
154.536
 21
155
  0
LINE
  8
0
 10
44.5
 11
44.573
 20
130
 21
130.464
  0
LINE
  8
0
 10
44.573
 11
44.786
 20
130.464
 21
130.882
  0
LINE
  8
0
 10
44.786
 11
45.118
 20
130.882
 21
131.214
  0
LINE
  8
0
 10
45.118
 11
45.536
 20
131.214
 21
131.427
  0
LINE
  8
0
 10
45.536
 11
46
 20
131.427
 21
131.5
  0
LINE
  8
0
 10
46
 11
46.464
 20
131.5
 21
131.427
  0
LINE
  8
0
 10
46.464
 11
46.882
 20
131.427
 21
131.214
  0
LINE
  8
0
 10
46.882
 11
47.214
 20
131.214
 21
130.882
  0
LINE
  8
0
 10
47.214
 11
47.427
 20
130.882
 21
130.464
  0
LINE
  8
0
 10
47.427
 11
47.5
 20
130.464
 21
130
  0
LINE
  8
0
 10
47.5
 11
47.427
 20
130
 21
129.536
  0
LINE
  8
0
 10
47.427
 11
47.214
 20
129.536
 21
129.118
  0
LINE
  8
0
 10
47.214
 11
46.882
 20
129.118
 21
128.786
  0
LINE
  8
0
 10
46.882
 11
46.464
 20
128.786
 21
128.573
  0
LINE
  8
0
 10
46.464
 11
46
 20
128.573
 21
128.5
  0
LINE
  8
0
 10
46
 11
45.536
 20
128.5
 21
128.573
  0
LINE
  8
0
 10
45.536
 11
45.118
 20
128.573
 21
128.786
  0
LINE
  8
0
 10
45.118
 11
44.786
 20
128.786
 21
129.118
  0
LINE
  8
0
 10
44.786
 11
44.573
 20
129.118
 21
129.536
  0
LINE
  8
0
 10
44.573
 11
44.5
 20
129.536
 21
130
  0
LINE
  8
0
 10
44.5
 11
44.573
 20
170
 21
170.464
  0
LINE
  8
0
 10
44.573
 11
44.786
 20
170.464
 21
170.882
  0
LINE
  8
0
 10
44.786
 11
45.118
 20
170.882
 21
171.214
  0
LINE
  8
0
 10
45.118
 11
45.536
 20
171.214
 21
171.427
  0
LINE
  8
0
 10
45.536
 11
46
 20
171.427
 21
171.5
  0
LINE
  8
0
 10
46
 11
46.464
 20
171.5
 21
171.427
  0
LINE
  8
0
 10
46.464
 11
46.882
 20
171.427
 21
171.214
  0
LINE
  8
0
 10
46.882
 11
47.214
 20
171.214
 21
170.882
  0
LINE
  8
0
 10
47.214
 11
47.427
 20
170.882
 21
170.464
  0
LINE
  8
0
 10
47.427
 11
47.5
 20
170.464
 21
170
  0
LINE
  8
0
 10
47.5
 11
47.427
 20
170
 21
169.536
  0
LINE
  8
0
 10
47.427
 11
47.214
 20
169.536
 21
169.118
  0
LINE
  8
0
 10
47.214
 11
46.882
 20
169.118
 21
168.786
  0
LINE
  8
0
 10
46.882
 11
46.464
 20
168.786
 21
168.573
  0
LINE
  8
0
 10
46.464
 11
46
 20
168.573
 21
168.5
  0
LINE
  8
0
 10
46
 11
45.536
 20
168.5
 21
168.573
  0
LINE
  8
0
 10
45.536
 11
45.118
 20
168.573
 21
168.786
  0
LINE
  8
0
 10
45.118
 11
44.786
 20
168.786
 21
169.118
  0
LINE
  8
0
 10
44.786
 11
44.573
 20
169.118
 21
169.536
  0
LINE
  8
0
 10
44.573
 11
44.5
 20
169.536
 21
170
  0
LINE
  8
0
 10
72.5
 11
72.573
 20
150
 21
150.464
  0
LINE
  8
0
 10
72.573
 11
72.786
 20
150.464
 21
150.882
  0
LINE
  8
0
 10
72.786
 11
73.118
 20
150.882
 21
151.214
  0
LINE
  8
0
 10
73.118
 11
73.536
 20
151.214
 21
151.427
  0
LINE
  8
0
 10
73.536
 11
74
 20
151.427
 21
151.5
  0
LINE
  8
0
 10
74
 11
74.464
 20
151.5
 21
151.427
  0
LINE
  8
0
 10
74.464
 11
74.882
 20
151.427
 21
151.214
  0
LINE
  8
0
 10
74.882
 11
75.214
 20
151.214
 21
150.882
  0
LINE
  8
0
 10
75.214
 11
75.427
 20
150.882
 21
150.464
  0
LINE
  8
0
 10
75.427
 11
75.5
 20
150.464
 21
150
  0
LINE
  8
0
 10
75.5
 11
75.427
 20
150
 21
149.536
  0
LINE
  8
0
 10
75.427
 11
75.214
 20
149.536
 21
149.118
  0
LINE
  8
0
 10
75.214
 11
74.882
 20
149.118
 21
148.786
  0
LINE
  8
0
 10
74.882
 11
74.464
 20
148.786
 21
148.573
  0
LINE
  8
0
 10
74.464
 11
74
 20
148.573
 21
148.5
  0
LINE
  8
0
 10
74
 11
73.536
 20
148.5
 21
148.573
  0
LINE
  8
0
 10
73.536
 11
73.118
 20
148.573
 21
148.786
  0
LINE
  8
0
 10
73.118
 11
72.786
 20
148.786
 21
149.118
  0
LINE
  8
0
 10
72.786
 11
72.573
 20
149.118
 21
149.536
  0
LINE
  8
0
 10
72.573
 11
72.5
 20
149.536
 21
150
  0
LINE
  8
0
 10
91.25
 11
91.25
 20
69.75
 21
76.25
  0
LINE
  8
0
 10
91.25
 11
96.25
 20
76.25
 21
76.25
  0
LINE
  8
0
 10
96.25
 11
96.25
 20
76.25
 21
69.75
  0
LINE
  8
0
 10
96.25
 11
91.25
 20
69.75
 21
69.75
  0
LINE
  8
0
 10
98.5
 11
98.573
 20
73
 21
73.464
  0
LINE
  8
0
 10
98.573
 11
98.786
 20
73.464
 21
73.882
  0
LINE
  8
0
 10
98.786
 11
99.118
 20
73.882
 21
74.214
  0
LINE
  8
0
 10
99.118
 11
99.536
 20
74.214
 21
74.427
  0
LINE
  8
0
 10
99.536
 11
100
 20
74.427
 21
74.5
  0
LINE
  8
0
 10
100
 11
100.464
 20
74.5
 21
74.427
  0
LINE
  8
0
 10
100.464
 11
100.882
 20
74.427
 21
74.214
  0
LINE
  8
0
 10
100.882
 11
101.214
 20
74.214
 21
73.882
  0
LINE
  8
0
 10
101.214
 11
101.427
 20
73.882
 21
73.464
  0
LINE
  8
0
 10
101.427
 11
101.5
 20
73.464
 21
73
  0
LINE
  8
0
 10
101.5
 11
101.427
 20
73
 21
72.536
  0
LINE
  8
0
 10
101.427
 11
101.214
 20
72.536
 21
72.118
  0
LINE
  8
0
 10
101.214
 11
100.882
 20
72.118
 21
71.786
  0
LINE
  8
0
 10
100.882
 11
100.464
 20
71.786
 21
71.573
  0
LINE
  8
0
 10
100.464
 11
100
 20
71.573
 21
71.5
  0
LINE
  8
0
 10
100
 11
99.536
 20
71.5
 21
71.573
  0
LINE
  8
0
 10
99.536
 11
99.118
 20
71.573
 21
71.786
  0
LINE
  8
0
 10
99.118
 11
98.786
 20
71.786
 21
72.118
  0
LINE
  8
0
 10
98.786
 11
98.573
 20
72.118
 21
72.536
  0
LINE
  8
0
 10
98.573
 11
98.5
 20
72.536
 21
73
  0
LINE
  8
0
 10
103.75
 11
103.75
 20
69.75
 21
76.25
  0
LINE
  8
0
 10
103.75
 11
108.75
 20
76.25
 21
76.25
  0
LINE
  8
0
 10
108.75
 11
108.75
 20
76.25
 21
69.75
  0
LINE
  8
0
 10
108.75
 11
103.75
 20
69.75
 21
69.75
  0
LINE
  8
0
 10
119.5
 11
119.573
 20
130
 21
130.464
  0
LINE
  8
0
 10
119.573
 11
119.786
 20
130.464
 21
130.882
  0
LINE
  8
0
 10
119.786
 11
120.118
 20
130.882
 21
131.214
  0
LINE
  8
0
 10
120.118
 11
120.536
 20
131.214
 21
131.427
  0
LINE
  8
0
 10
120.536
 11
121
 20
131.427
 21
131.5
  0
LINE
  8
0
 10
121
 11
121.464
 20
131.5
 21
131.427
  0
LINE
  8
0
 10
121.464
 11
121.882
 20
131.427
 21
131.214
  0
LINE
  8
0
 10
121.882
 11
122.214
 20
131.214
 21
130.882
  0
LINE
  8
0
 10
122.214
 11
122.427
 20
130.882
 21
130.464
  0
LINE
  8
0
 10
122.427
 11
122.5
 20
130.464
 21
130
  0
LINE
  8
0
 10
122.5
 11
122.427
 20
130
 21
129.536
  0
LINE
  8
0
 10
122.427
 11
122.214
 20
129.536
 21
129.118
  0
LINE
  8
0
 10
122.214
 11
121.882
 20
129.118
 21
128.786
  0
LINE
  8
0
 10
121.882
 11
121.464
 20
128.786
 21
128.573
  0
LINE
  8
0
 10
121.464
 11
121
 20
128.573
 21
128.5
  0
LINE
  8
0
 10
121
 11
120.536
 20
128.5
 21
128.573
  0
LINE
  8
0
 10
120.536
 11
120.118
 20
128.573
 21
128.786
  0
LINE
  8
0
 10
120.118
 11
119.786
 20
128.786
 21
129.118
  0
LINE
  8
0
 10
119.786
 11
119.573
 20
129.118
 21
129.536
  0
LINE
  8
0
 10
119.573
 11
119.5
 20
129.536
 21
130
  0
LINE
  8
0
 10
119.5
 11
119.573
 20
170
 21
170.464
  0
LINE
  8
0
 10
119.573
 11
119.786
 20
170.464
 21
170.882
  0
LINE
  8
0
 10
119.786
 11
120.118
 20
170.882
 21
171.214
  0
LINE
  8
0
 10
120.118
 11
120.536
 20
171.214
 21
171.427
  0
LINE
  8
0
 10
120.536
 11
121
 20
171.427
 21
171.5
  0
LINE
  8
0
 10
121
 11
121.464
 20
171.5
 21
171.427
  0
LINE
  8
0
 10
121.464
 11
121.882
 20
171.427
 21
171.214
  0
LINE
  8
0
 10
121.882
 11
122.214
 20
171.214
 21
170.882
  0
LINE
  8
0
 10
122.214
 11
122.427
 20
170.882
 21
170.464
  0
LINE
  8
0
 10
122.427
 11
122.5
 20
170.464
 21
170
  0
LINE
  8
0
 10
122.5
 11
122.427
 20
170
 21
169.536
  0
LINE
  8
0
 10
122.427
 11
122.214
 20
169.536
 21
169.118
  0
LINE
  8
0
 10
122.214
 11
121.882
 20
169.118
 21
168.786
  0
LINE
  8
0
 10
121.882
 11
121.464
 20
168.786
 21
168.573
  0
LINE
  8
0
 10
121.464
 11
121
 20
168.573
 21
168.5
  0
LINE
  8
0
 10
121
 11
120.536
 20
168.5
 21
168.573
  0
LINE
  8
0
 10
120.536
 11
120.118
 20
168.573
 21
168.786
  0
LINE
  8
0
 10
120.118
 11
119.786
 20
168.786
 21
169.118
  0
LINE
  8
0
 10
119.786
 11
119.573
 20
169.118
 21
169.536
  0
LINE
  8
0
 10
119.573
 11
119.5
 20
169.536
 21
170
  0
LINE
  8
0
 10
137.5
 11
137.573
 20
130
 21
130.464
  0
LINE
  8
0
 10
137.573
 11
137.786
 20
130.464
 21
130.882
  0
LINE
  8
0
 10
137.786
 11
138.118
 20
130.882
 21
131.214
  0
LINE
  8
0
 10
138.118
 11
138.536
 20
131.214
 21
131.427
  0
LINE
  8
0
 10
138.536
 11
139
 20
131.427
 21
131.5
  0
LINE
  8
0
 10
139
 11
139.464
 20
131.5
 21
131.427
  0
LINE
  8
0
 10
139.464
 11
139.882
 20
131.427
 21
131.214
  0
LINE
  8
0
 10
139.882
 11
140.214
 20
131.214
 21
130.882
  0
LINE
  8
0
 10
140.214
 11
140.427
 20
130.882
 21
130.464
  0
LINE
  8
0
 10
140.427
 11
140.5
 20
130.464
 21
130
  0
LINE
  8
0
 10
140.5
 11
140.427
 20
130
 21
129.536
  0
LINE
  8
0
 10
140.427
 11
140.214
 20
129.536
 21
129.118
  0
LINE
  8
0
 10
140.214
 11
139.882
 20
129.118
 21
128.786
  0
LINE
  8
0
 10
139.882
 11
139.464
 20
128.786
 21
128.573
  0
LINE
  8
0
 10
139.464
 11
139
 20
128.573
 21
128.5
  0
LINE
  8
0
 10
139
 11
138.536
 20
128.5
 21
128.573
  0
LINE
  8
0
 10
138.536
 11
138.118
 20
128.573
 21
128.786
  0
LINE
  8
0
 10
138.118
 11
137.786
 20
128.786
 21
129.118
  0
LINE
  8
0
 10
137.786
 11
137.573
 20
129.118
 21
129.536
  0
LINE
  8
0
 10
137.573
 11
137.5
 20
129.536
 21
130
  0
LINE
  8
0
 10
137.5
 11
137.573
 20
170
 21
170.464
  0
LINE
  8
0
 10
137.573
 11
137.786
 20
170.464
 21
170.882
  0
LINE
  8
0
 10
137.786
 11
138.118
 20
170.882
 21
171.214
  0
LINE
  8
0
 10
138.118
 11
138.536
 20
171.214
 21
171.427
  0
LINE
  8
0
 10
138.536
 11
139
 20
171.427
 21
171.5
  0
LINE
  8
0
 10
139
 11
139.464
 20
171.5
 21
171.427
  0
LINE
  8
0
 10
139.464
 11
139.882
 20
171.427
 21
171.214
  0
LINE
  8
0
 10
139.882
 11
140.214
 20
171.214
 21
170.882
  0
LINE
  8
0
 10
140.214
 11
140.427
 20
170.882
 21
170.464
  0
LINE
  8
0
 10
140.427
 11
140.5
 20
170.464
 21
170
  0
LINE
  8
0
 10
140.5
 11
140.427
 20
170
 21
169.536
  0
LINE
  8
0
 10
140.427
 11
140.214
 20
169.536
 21
169.118
  0
LINE
  8
0
 10
140.214
 11
139.882
 20
169.118
 21
168.786
  0
LINE
  8
0
 10
139.882
 11
139.464
 20
168.786
 21
168.573
  0
LINE
  8
0
 10
139.464
 11
139
 20
168.573
 21
168.5
  0
LINE
  8
0
 10
139
 11
138.536
 20
168.5
 21
168.573
  0
LINE
  8
0
 10
138.536
 11
138.118
 20
168.573
 21
168.786
  0
LINE
  8
0
 10
138.118
 11
137.786
 20
168.786
 21
169.118
  0
LINE
  8
0
 10
137.786
 11
137.573
 20
169.118
 21
169.536
  0
LINE
  8
0
 10
137.573
 11
137.5
 20
169.536
 21
170
  0
LINE
  8
0
 10
151.25
 11
151.25
 20
229.75
 21
236.25
  0
LINE
  8
0
 10
151.25
 11
156.25
 20
236.25
 21
236.25
  0
LINE
  8
0
 10
156.25
 11
156.25
 20
236.25
 21
229.75
  0
LINE
  8
0
 10
156.25
 11
151.25
 20
229.75
 21
229.75
  0
LINE
  8
0
 10
158.5
 11
158.573
 20
233
 21
233.464
  0
LINE
  8
0
 10
158.573
 11
158.786
 20
233.464
 21
233.882
  0
LINE
  8
0
 10
158.786
 11
159.118
 20
233.882
 21
234.214
  0
LINE
  8
0
 10
159.118
 11
159.536
 20
234.214
 21
234.427
  0
LINE
  8
0
 10
159.536
 11
160
 20
234.427
 21
234.5
  0
LINE
  8
0
 10
160
 11
160.464
 20
234.5
 21
234.427
  0
LINE
  8
0
 10
160.464
 11
160.882
 20
234.427
 21
234.214
  0
LINE
  8
0
 10
160.882
 11
161.214
 20
234.214
 21
233.882
  0
LINE
  8
0
 10
161.214
 11
161.427
 20
233.882
 21
233.464
  0
LINE
  8
0
 10
161.427
 11
161.5
 20
233.464
 21
233
  0
LINE
  8
0
 10
161.5
 11
161.427
 20
233
 21
232.536
  0
LINE
  8
0
 10
161.427
 11
161.214
 20
232.536
 21
232.118
  0
LINE
  8
0
 10
161.214
 11
160.882
 20
232.118
 21
231.786
  0
LINE
  8
0
 10
160.882
 11
160.464
 20
231.786
 21
231.573
  0
LINE
  8
0
 10
160.464
 11
160
 20
231.573
 21
231.5
  0
LINE
  8
0
 10
160
 11
159.536
 20
231.5
 21
231.573
  0
LINE
  8
0
 10
159.536
 11
159.118
 20
231.573
 21
231.786
  0
LINE
  8
0
 10
159.118
 11
158.786
 20
231.786
 21
232.118
  0
LINE
  8
0
 10
158.786
 11
158.573
 20
232.118
 21
232.536
  0
LINE
  8
0
 10
158.573
 11
158.5
 20
232.536
 21
233
  0
LINE
  8
0
 10
163.75
 11
163.75
 20
229.75
 21
236.25
  0
LINE
  8
0
 10
163.75
 11
168.75
 20
236.25
 21
236.25
  0
LINE
  8
0
 10
168.75
 11
168.75
 20
236.25
 21
229.75
  0
LINE
  8
0
 10
168.75
 11
163.75
 20
229.75
 21
229.75
  0
LINE
  8
0
 10
184.5
 11
184.573
 20
100
 21
100.464
  0
LINE
  8
0
 10
184.573
 11
184.786
 20
100.464
 21
100.882
  0
LINE
  8
0
 10
184.786
 11
185.118
 20
100.882
 21
101.214
  0
LINE
  8
0
 10
185.118
 11
185.536
 20
101.214
 21
101.427
  0
LINE
  8
0
 10
185.536
 11
186
 20
101.427
 21
101.5
  0
LINE
  8
0
 10
186
 11
186.464
 20
101.5
 21
101.427
  0
LINE
  8
0
 10
186.464
 11
186.882
 20
101.427
 21
101.214
  0
LINE
  8
0
 10
186.882
 11
187.214
 20
101.214
 21
100.882
  0
LINE
  8
0
 10
187.214
 11
187.427
 20
100.882
 21
100.464
  0
LINE
  8
0
 10
187.427
 11
187.5
 20
100.464
 21
100
  0
LINE
  8
0
 10
187.5
 11
187.427
 20
100
 21
99.536
  0
LINE
  8
0
 10
187.427
 11
187.214
 20
99.536
 21
99.118
  0
LINE
  8
0
 10
187.214
 11
186.882
 20
99.118
 21
98.786
  0
LINE
  8
0
 10
186.882
 11
186.464
 20
98.786
 21
98.573
  0
LINE
  8
0
 10
186.464
 11
186
 20
98.573
 21
98.5
  0
LINE
  8
0
 10
186
 11
185.536
 20
98.5
 21
98.573
  0
LINE
  8
0
 10
185.536
 11
185.118
 20
98.573
 21
98.786
  0
LINE
  8
0
 10
185.118
 11
184.786
 20
98.786
 21
99.118
  0
LINE
  8
0
 10
184.786
 11
184.573
 20
99.118
 21
99.536
  0
LINE
  8
0
 10
184.573
 11
184.5
 20
99.536
 21
100
  0
LINE
  8
0
 10
184.5
 11
184.573
 20
200
 21
200.464
  0
LINE
  8
0
 10
184.573
 11
184.786
 20
200.464
 21
200.882
  0
LINE
  8
0
 10
184.786
 11
185.118
 20
200.882
 21
201.214
  0
LINE
  8
0
 10
185.118
 11
185.536
 20
201.214
 21
201.427
  0
LINE
  8
0
 10
185.536
 11
186
 20
201.427
 21
201.5
  0
LINE
  8
0
 10
186
 11
186.464
 20
201.5
 21
201.427
  0
LINE
  8
0
 10
186.464
 11
186.882
 20
201.427
 21
201.214
  0
LINE
  8
0
 10
186.882
 11
187.214
 20
201.214
 21
200.882
  0
LINE
  8
0
 10
187.214
 11
187.427
 20
200.882
 21
200.464
  0
LINE
  8
0
 10
187.427
 11
187.5
 20
200.464
 21
200
  0
LINE
  8
0
 10
187.5
 11
187.427
 20
200
 21
199.536
  0
LINE
  8
0
 10
187.427
 11
187.214
 20
199.536
 21
199.118
  0
LINE
  8
0
 10
187.214
 11
186.882
 20
199.118
 21
198.786
  0
LINE
  8
0
 10
186.882
 11
186.464
 20
198.786
 21
198.573
  0
LINE
  8
0
 10
186.464
 11
186
 20
198.573
 21
198.5
  0
LINE
  8
0
 10
186
 11
185.536
 20
198.5
 21
198.573
  0
LINE
  8
0
 10
185.536
 11
185.118
 20
198.573
 21
198.786
  0
LINE
  8
0
 10
185.118
 11
184.786
 20
198.786
 21
199.118
  0
LINE
  8
0
 10
184.786
 11
184.573
 20
199.118
 21
199.536
  0
LINE
  8
0
 10
184.573
 11
184.5
 20
199.536
 21
200
  0
LINE
  8
0
 10
212.5
 11
212.573
 20
100
 21
100.464
  0
LINE
  8
0
 10
212.573
 11
212.786
 20
100.464
 21
100.882
  0
LINE
  8
0
 10
212.786
 11
213.118
 20
100.882
 21
101.214
  0
LINE
  8
0
 10
213.118
 11
213.536
 20
101.214
 21
101.427
  0
LINE
  8
0
 10
213.536
 11
214
 20
101.427
 21
101.5
  0
LINE
  8
0
 10
214
 11
214.464
 20
101.5
 21
101.427
  0
LINE
  8
0
 10
214.464
 11
214.882
 20
101.427
 21
101.214
  0
LINE
  8
0
 10
214.882
 11
215.214
 20
101.214
 21
100.882
  0
LINE
  8
0
 10
215.214
 11
215.427
 20
100.882
 21
100.464
  0
LINE
  8
0
 10
215.427
 11
215.5
 20
100.464
 21
100
  0
LINE
  8
0
 10
215.5
 11
215.427
 20
100
 21
99.536
  0
LINE
  8
0
 10
215.427
 11
215.214
 20
99.536
 21
99.118
  0
LINE
  8
0
 10
215.214
 11
214.882
 20
99.118
 21
98.786
  0
LINE
  8
0
 10
214.882
 11
214.464
 20
98.786
 21
98.573
  0
LINE
  8
0
 10
214.464
 11
214
 20
98.573
 21
98.5
  0
LINE
  8
0
 10
214
 11
213.536
 20
98.5
 21
98.573
  0
LINE
  8
0
 10
213.536
 11
213.118
 20
98.573
 21
98.786
  0
LINE
  8
0
 10
213.118
 11
212.786
 20
98.786
 21
99.118
  0
LINE
  8
0
 10
212.786
 11
212.573
 20
99.118
 21
99.536
  0
LINE
  8
0
 10
212.573
 11
212.5
 20
99.536
 21
100
  0
LINE
  8
0
 10
212.5
 11
212.573
 20
200
 21
200.464
  0
LINE
  8
0
 10
212.573
 11
212.786
 20
200.464
 21
200.882
  0
LINE
  8
0
 10
212.786
 11
213.118
 20
200.882
 21
201.214
  0
LINE
  8
0
 10
213.118
 11
213.536
 20
201.214
 21
201.427
  0
LINE
  8
0
 10
213.536
 11
214
 20
201.427
 21
201.5
  0
LINE
  8
0
 10
214
 11
214.464
 20
201.5
 21
201.427
  0
LINE
  8
0
 10
214.464
 11
214.882
 20
201.427
 21
201.214
  0
LINE
  8
0
 10
214.882
 11
215.214
 20
201.214
 21
200.882
  0
LINE
  8
0
 10
215.214
 11
215.427
 20
200.882
 21
200.464
  0
LINE
  8
0
 10
215.427
 11
215.5
 20
200.464
 21
200
  0
LINE
  8
0
 10
215.5
 11
215.427
 20
200
 21
199.536
  0
LINE
  8
0
 10
215.427
 11
215.214
 20
199.536
 21
199.118
  0
LINE
  8
0
 10
215.214
 11
214.882
 20
199.118
 21
198.786
  0
LINE
  8
0
 10
214.882
 11
214.464
 20
198.786
 21
198.573
  0
LINE
  8
0
 10
214.464
 11
214
 20
198.573
 21
198.5
  0
LINE
  8
0
 10
214
 11
213.536
 20
198.5
 21
198.573
  0
LINE
  8
0
 10
213.536
 11
213.118
 20
198.573
 21
198.786
  0
LINE
  8
0
 10
213.118
 11
212.786
 20
198.786
 21
199.118
  0
LINE
  8
0
 10
212.786
 11
212.573
 20
199.118
 21
199.536
  0
LINE
  8
0
 10
212.573
 11
212.5
 20
199.536
 21
200
  0
LINE
  8
0
 10
233.5
 11
233.573
 20
45
 21
45.464
  0
LINE
  8
0
 10
233.573
 11
233.786
 20
45.464
 21
45.882
  0
LINE
  8
0
 10
233.786
 11
234.118
 20
45.882
 21
46.214
  0
LINE
  8
0
 10
234.118
 11
234.536
 20
46.214
 21
46.427
  0
LINE
  8
0
 10
234.536
 11
235
 20
46.427
 21
46.5
  0
LINE
  8
0
 10
235
 11
235.464
 20
46.5
 21
46.427
  0
LINE
  8
0
 10
235.464
 11
235.882
 20
46.427
 21
46.214
  0
LINE
  8
0
 10
235.882
 11
236.214
 20
46.214
 21
45.882
  0
LINE
  8
0
 10
236.214
 11
236.427
 20
45.882
 21
45.464
  0
LINE
  8
0
 10
236.427
 11
236.5
 20
45.464
 21
45
  0
LINE
  8
0
 10
236.5
 11
236.427
 20
45
 21
44.536
  0
LINE
  8
0
 10
236.427
 11
236.214
 20
44.536
 21
44.118
  0
LINE
  8
0
 10
236.214
 11
235.882
 20
44.118
 21
43.786
  0
LINE
  8
0
 10
235.882
 11
235.464
 20
43.786
 21
43.573
  0
LINE
  8
0
 10
235.464
 11
235
 20
43.573
 21
43.5
  0
LINE
  8
0
 10
235
 11
234.536
 20
43.5
 21
43.573
  0
LINE
  8
0
 10
234.536
 11
234.118
 20
43.573
 21
43.786
  0
LINE
  8
0
 10
234.118
 11
233.786
 20
43.786
 21
44.118
  0
LINE
  8
0
 10
233.786
 11
233.573
 20
44.118
 21
44.536
  0
LINE
  8
0
 10
233.573
 11
233.5
 20
44.536
 21
45
  0
LINE
  8
0
 10
233.5
 11
233.573
 20
255
 21
255.464
  0
LINE
  8
0
 10
233.573
 11
233.786
 20
255.464
 21
255.882
  0
LINE
  8
0
 10
233.786
 11
234.118
 20
255.882
 21
256.214
  0
LINE
  8
0
 10
234.118
 11
234.536
 20
256.214
 21
256.427
  0
LINE
  8
0
 10
234.536
 11
235
 20
256.427
 21
256.5
  0
LINE
  8
0
 10
235
 11
235.464
 20
256.5
 21
256.427
  0
LINE
  8
0
 10
235.464
 11
235.882
 20
256.427
 21
256.214
  0
LINE
  8
0
 10
235.882
 11
236.214
 20
256.214
 21
255.882
  0
LINE
  8
0
 10
236.214
 11
236.427
 20
255.882
 21
255.464
  0
LINE
  8
0
 10
236.427
 11
236.5
 20
255.464
 21
255
  0
LINE
  8
0
 10
236.5
 11
236.427
 20
255
 21
254.536
  0
LINE
  8
0
 10
236.427
 11
236.214
 20
254.536
 21
254.118
  0
LINE
  8
0
 10
236.214
 11
235.882
 20
254.118
 21
253.786
  0
LINE
  8
0
 10
235.882
 11
235.464
 20
253.786
 21
253.573
  0
LINE
  8
0
 10
235.464
 11
235
 20
253.573
 21
253.5
  0
LINE
  8
0
 10
235
 11
234.536
 20
253.5
 21
253.573
  0
LINE
  8
0
 10
234.536
 11
234.118
 20
253.573
 21
253.786
  0
LINE
  8
0
 10
234.118
 11
233.786
 20
253.786
 21
254.118
  0
LINE
  8
0
 10
233.786
 11
233.573
 20
254.118
 21
254.536
  0
LINE
  8
0
 10
233.573
 11
233.5
 20
254.536
 21
255
  0
LINE
  8
0
 10
249
 11
249
 20
112
 21
178
  0
LINE
  8
0
 10
249
 11
249.219
 20
178
 21
180.079
  0
LINE
  8
0
 10
249.219
 11
249.865
 20
180.079
 21
182.067
  0
LINE
  8
0
 10
249.865
 11
250.91
 20
182.067
 21
183.878
  0
LINE
  8
0
 10
250.91
 11
252.309
 20
183.878
 21
185.431
  0
LINE
  8
0
 10
252.309
 11
254
 20
185.431
 21
186.66
  0
LINE
  8
0
 10
254
 11
255.91
 20
186.66
 21
187.511
  0
LINE
  8
0
 10
255.91
 11
257.955
 20
187.511
 21
187.945
  0
LINE
  8
0
 10
257.955
 11
259
 20
187.945
 21
187.945
  0
LINE
  8
0
 10
259
 11
259
 20
187.945
 21
188
  0
LINE
  8
0
 10
259
 11
321
 20
188
 21
188
  0
LINE
  8
0
 10
321
 11
321
 20
188
 21
187.945
  0
LINE
  8
0
 10
321
 11
322.045
 20
187.945
 21
187.945
  0
LINE
  8
0
 10
322.045
 11
324.09
 20
187.945
 21
187.511
  0
LINE
  8
0
 10
324.09
 11
326
 20
187.511
 21
186.66
  0
LINE
  8
0
 10
326
 11
327.691
 20
186.66
 21
185.431
  0
LINE
  8
0
 10
327.691
 11
329.09
 20
185.431
 21
183.878
  0
LINE
  8
0
 10
329.09
 11
330.135
 20
183.878
 21
182.067
  0
LINE
  8
0
 10
330.135
 11
330.781
 20
182.067
 21
180.079
  0
LINE
  8
0
 10
330.781
 11
331
 20
180.079
 21
178
  0
LINE
  8
0
 10
331
 11
331
 20
178
 21
112
  0
LINE
  8
0
 10
331
 11
330.781
 20
112
 21
109.921
  0
LINE
  8
0
 10
330.781
 11
330.135
 20
109.921
 21
107.933
  0
LINE
  8
0
 10
330.135
 11
329.09
 20
107.933
 21
106.122
  0
LINE
  8
0
 10
329.09
 11
327.691
 20
106.122
 21
104.569
  0
LINE
  8
0
 10
327.691
 11
326
 20
104.569
 21
103.34
  0
LINE
  8
0
 10
326
 11
324.09
 20
103.34
 21
102.489
  0
LINE
  8
0
 10
324.09
 11
322.045
 20
102.489
 21
102.055
  0
LINE
  8
0
 10
322.045
 11
321
 20
102.055
 21
102.055
  0
LINE
  8
0
 10
321
 11
321
 20
102.055
 21
102
  0
LINE
  8
0
 10
321
 11
259
 20
102
 21
102
  0
LINE
  8
0
 10
259
 11
259
 20
102
 21
102.055
  0
LINE
  8
0
 10
259
 11
257.955
 20
102.055
 21
102.055
  0
LINE
  8
0
 10
257.955
 11
255.91
 20
102.055
 21
102.489
  0
LINE
  8
0
 10
255.91
 11
254
 20
102.489
 21
103.34
  0
LINE
  8
0
 10
254
 11
252.309
 20
103.34
 21
104.569
  0
LINE
  8
0
 10
252.309
 11
250.91
 20
104.569
 21
106.122
  0
LINE
  8
0
 10
250.91
 11
249.865
 20
106.122
 21
107.933
  0
LINE
  8
0
 10
249.865
 11
249.219
 20
107.933
 21
109.921
  0
LINE
  8
0
 10
249.219
 11
249
 20
109.921
 21
112
  0
LINE
  8
0
 10
250
 11
250
 20
30
 21
75
  0
LINE
  8
0
 10
250
 11
250.027
 20
75
 21
76.047
  0
LINE
  8
0
 10
250.027
 11
250.11
 20
76.047
 21
77.091
  0
LINE
  8
0
 10
250.11
 11
250.246
 20
77.091
 21
78.129
  0
LINE
  8
0
 10
250.246
 11
250.437
 20
78.129
 21
79.158
  0
LINE
  8
0
 10
250.437
 11
250.681
 20
79.158
 21
80.176
  0
LINE
  8
0
 10
250.681
 11
250.979
 20
80.176
 21
81.18
  0
LINE
  8
0
 10
250.979
 11
251.328
 20
81.18
 21
82.167
  0
LINE
  8
0
 10
251.328
 11
251.729
 20
82.167
 21
83.135
  0
LINE
  8
0
 10
251.729
 11
252.18
 20
83.135
 21
84.08
  0
LINE
  8
0
 10
252.18
 11
252.679
 20
84.08
 21
85
  0
LINE
  8
0
 10
252.679
 11
253.227
 20
85
 21
85.893
  0
LINE
  8
0
 10
253.227
 11
253.82
 20
85.893
 21
86.756
  0
LINE
  8
0
 10
253.82
 11
254.457
 20
86.756
 21
87.586
  0
LINE
  8
0
 10
254.457
 11
255.137
 20
87.586
 21
88.383
  0
LINE
  8
0
 10
255.137
 11
255.858
 20
88.383
 21
89.142
  0
LINE
  8
0
 10
255.858
 11
256.617
 20
89.142
 21
89.863
  0
LINE
  8
0
 10
256.617
 11
257.414
 20
89.863
 21
90.543
  0
LINE
  8
0
 10
257.414
 11
258.244
 20
90.543
 21
91.18
  0
LINE
  8
0
 10
258.244
 11
259.107
 20
91.18
 21
91.773
  0
LINE
  8
0
 10
259.107
 11
260
 20
91.773
 21
92.321
  0
LINE
  8
0
 10
260
 11
260.92
 20
92.321
 21
92.82
  0
LINE
  8
0
 10
260.92
 11
261.865
 20
92.82
 21
93.271
  0
LINE
  8
0
 10
261.865
 11
262.833
 20
93.271
 21
93.672
  0
LINE
  8
0
 10
262.833
 11
263.82
 20
93.672
 21
94.021
  0
LINE
  8
0
 10
263.82
 11
264.824
 20
94.021
 21
94.319
  0
LINE
  8
0
 10
264.824
 11
265.842
 20
94.319
 21
94.563
  0
LINE
  8
0
 10
265.842
 11
266.871
 20
94.563
 21
94.754
  0
LINE
  8
0
 10
266.871
 11
267.909
 20
94.754
 21
94.89
  0
LINE
  8
0
 10
267.909
 11
268.953
 20
94.89
 21
94.973
  0
LINE
  8
0
 10
268.953
 11
270
 20
94.973
 21
95
  0
LINE
  8
0
 10
270
 11
271.047
 20
95
 21
94.973
  0
LINE
  8
0
 10
271.047
 11
272.091
 20
94.973
 21
94.89
  0
LINE
  8
0
 10
272.091
 11
273.129
 20
94.89
 21
94.754
  0
LINE
  8
0
 10
273.129
 11
274.158
 20
94.754
 21
94.563
  0
LINE
  8
0
 10
274.158
 11
275.176
 20
94.563
 21
94.319
  0
LINE
  8
0
 10
275.176
 11
276.18
 20
94.319
 21
94.021
  0
LINE
  8
0
 10
276.18
 11
277.167
 20
94.021
 21
93.672
  0
LINE
  8
0
 10
277.167
 11
278.135
 20
93.672
 21
93.271
  0
LINE
  8
0
 10
278.135
 11
279.08
 20
93.271
 21
92.82
  0
LINE
  8
0
 10
279.08
 11
280
 20
92.82
 21
92.321
  0
LINE
  8
0
 10
280
 11
280.893
 20
92.321
 21
91.773
  0
LINE
  8
0
 10
280.893
 11
281.756
 20
91.773
 21
91.18
  0
LINE
  8
0
 10
281.756
 11
282.586
 20
91.18
 21
90.543
  0
LINE
  8
0
 10
282.586
 11
283.383
 20
90.543
 21
89.863
  0
LINE
  8
0
 10
283.383
 11
284.142
 20
89.863
 21
89.142
  0
LINE
  8
0
 10
284.142
 11
284.863
 20
89.142
 21
88.383
  0
LINE
  8
0
 10
284.863
 11
285.543
 20
88.383
 21
87.586
  0
LINE
  8
0
 10
285.543
 11
286.18
 20
87.586
 21
86.756
  0
LINE
  8
0
 10
286.18
 11
286.773
 20
86.756
 21
85.893
  0
LINE
  8
0
 10
286.773
 11
287.321
 20
85.893
 21
85
  0
LINE
  8
0
 10
287.321
 11
287.82
 20
85
 21
84.08
  0
LINE
  8
0
 10
287.82
 11
288.271
 20
84.08
 21
83.135
  0
LINE
  8
0
 10
288.271
 11
288.672
 20
83.135
 21
82.167
  0
LINE
  8
0
 10
288.672
 11
289.021
 20
82.167
 21
81.18
  0
LINE
  8
0
 10
289.021
 11
289.319
 20
81.18
 21
80.176
  0
LINE
  8
0
 10
289.319
 11
289.563
 20
80.176
 21
79.158
  0
LINE
  8
0
 10
289.563
 11
289.754
 20
79.158
 21
78.129
  0
LINE
  8
0
 10
289.754
 11
289.89
 20
78.129
 21
77.091
  0
LINE
  8
0
 10
289.89
 11
289.973
 20
77.091
 21
76.047
  0
LINE
  8
0
 10
289.973
 11
290
 20
76.047
 21
75
  0
LINE
  8
0
 10
290
 11
290
 20
75
 21
30
  0
LINE
  8
0
 10
290
 11
289.973
 20
30
 21
28.953
  0
LINE
  8
0
 10
289.973
 11
289.89
 20
28.953
 21
27.909
  0
LINE
  8
0
 10
289.89
 11
289.754
 20
27.909
 21
26.871
  0
LINE
  8
0
 10
289.754
 11
289.563
 20
26.871
 21
25.842
  0
LINE
  8
0
 10
289.563
 11
289.319
 20
25.842
 21
24.824
  0
LINE
  8
0
 10
289.319
 11
289.021
 20
24.824
 21
23.82
  0
LINE
  8
0
 10
289.021
 11
288.672
 20
23.82
 21
22.833
  0
LINE
  8
0
 10
288.672
 11
288.271
 20
22.833
 21
21.865
  0
LINE
  8
0
 10
288.271
 11
287.82
 20
21.865
 21
20.92
  0
LINE
  8
0
 10
287.82
 11
287.321
 20
20.92
 21
20
  0
LINE
  8
0
 10
287.321
 11
286.773
 20
20
 21
19.107
  0
LINE
  8
0
 10
286.773
 11
286.18
 20
19.107
 21
18.244
  0
LINE
  8
0
 10
286.18
 11
285.543
 20
18.244
 21
17.414
  0
LINE
  8
0
 10
285.543
 11
284.863
 20
17.414
 21
16.617
  0
LINE
  8
0
 10
284.863
 11
284.142
 20
16.617
 21
15.858
  0
LINE
  8
0
 10
284.142
 11
283.383
 20
15.858
 21
15.137
  0
LINE
  8
0
 10
283.383
 11
282.586
 20
15.137
 21
14.457
  0
LINE
  8
0
 10
282.586
 11
281.756
 20
14.457
 21
13.82
  0
LINE
  8
0
 10
281.756
 11
280.893
 20
13.82
 21
13.227
  0
LINE
  8
0
 10
280.893
 11
280
 20
13.227
 21
12.679
  0
LINE
  8
0
 10
280
 11
279.08
 20
12.679
 21
12.18
  0
LINE
  8
0
 10
279.08
 11
278.135
 20
12.18
 21
11.729
  0
LINE
  8
0
 10
278.135
 11
277.167
 20
11.729
 21
11.328
  0
LINE
  8
0
 10
277.167
 11
276.18
 20
11.328
 21
10.979
  0
LINE
  8
0
 10
276.18
 11
275.176
 20
10.979
 21
10.681
  0
LINE
  8
0
 10
275.176
 11
274.158
 20
10.681
 21
10.437
  0
LINE
  8
0
 10
274.158
 11
273.129
 20
10.437
 21
10.246
  0
LINE
  8
0
 10
273.129
 11
272.091
 20
10.246
 21
10.11
  0
LINE
  8
0
 10
272.091
 11
271.047
 20
10.11
 21
10.027
  0
LINE
  8
0
 10
271.047
 11
270
 20
10.027
 21
10
  0
LINE
  8
0
 10
270
 11
268.953
 20
10
 21
10.027
  0
LINE
  8
0
 10
268.953
 11
267.909
 20
10.027
 21
10.11
  0
LINE
  8
0
 10
267.909
 11
266.871
 20
10.11
 21
10.246
  0
LINE
  8
0
 10
266.871
 11
265.842
 20
10.246
 21
10.437
  0
LINE
  8
0
 10
265.842
 11
264.824
 20
10.437
 21
10.681
  0
LINE
  8
0
 10
264.824
 11
263.82
 20
10.681
 21
10.979
  0
LINE
  8
0
 10
263.82
 11
262.833
 20
10.979
 21
11.328
  0
LINE
  8
0
 10
262.833
 11
261.865
 20
11.328
 21
11.729
  0
LINE
  8
0
 10
261.865
 11
260.92
 20
11.729
 21
12.18
  0
LINE
  8
0
 10
260.92
 11
260
 20
12.18
 21
12.679
  0
LINE
  8
0
 10
260
 11
259.107
 20
12.679
 21
13.227
  0
LINE
  8
0
 10
259.107
 11
258.244
 20
13.227
 21
13.82
  0
LINE
  8
0
 10
258.244
 11
257.414
 20
13.82
 21
14.457
  0
LINE
  8
0
 10
257.414
 11
256.617
 20
14.457
 21
15.137
  0
LINE
  8
0
 10
256.617
 11
255.858
 20
15.137
 21
15.858
  0
LINE
  8
0
 10
255.858
 11
255.137
 20
15.858
 21
16.617
  0
LINE
  8
0
 10
255.137
 11
254.457
 20
16.617
 21
17.414
  0
LINE
  8
0
 10
254.457
 11
253.82
 20
17.414
 21
18.244
  0
LINE
  8
0
 10
253.82
 11
253.227
 20
18.244
 21
19.107
  0
LINE
  8
0
 10
253.227
 11
252.679
 20
19.107
 21
20
  0
LINE
  8
0
 10
252.679
 11
252.18
 20
20
 21
20.92
  0
LINE
  8
0
 10
252.18
 11
251.729
 20
20.92
 21
21.865
  0
LINE
  8
0
 10
251.729
 11
251.328
 20
21.865
 21
22.833
  0
LINE
  8
0
 10
251.328
 11
250.979
 20
22.833
 21
23.82
  0
LINE
  8
0
 10
250.979
 11
250.681
 20
23.82
 21
24.824
  0
LINE
  8
0
 10
250.681
 11
250.437
 20
24.824
 21
25.842
  0
LINE
  8
0
 10
250.437
 11
250.246
 20
25.842
 21
26.871
  0
LINE
  8
0
 10
250.246
 11
250.11
 20
26.871
 21
27.909
  0
LINE
  8
0
 10
250.11
 11
250.027
 20
27.909
 21
28.953
  0
LINE
  8
0
 10
250.027
 11
250
 20
28.953
 21
30
  0
LINE
  8
0
 10
250
 11
250
 20
200
 21
240
  0
LINE
  8
0
 10
250
 11
250.381
 20
240
 21
241.913
  0
LINE
  8
0
 10
250.381
 11
251.464
 20
241.913
 21
243.536
  0
LINE
  8
0
 10
251.464
 11
253.087
 20
243.536
 21
244.619
  0
LINE
  8
0
 10
253.087
 11
255
 20
244.619
 21
245
  0
LINE
  8
0
 10
255
 11
265
 20
245
 21
245
  0
LINE
  8
0
 10
265
 11
265
 20
245
 21
244.863
  0
LINE
  8
0
 10
265
 11
267.613
 20
244.863
 21
244.863
  0
LINE
  8
0
 10
267.613
 11
272.725
 20
244.863
 21
243.776
  0
LINE
  8
0
 10
272.725
 11
277.5
 20
243.776
 21
241.651
  0
LINE
  8
0
 10
277.5
 11
281.728
 20
241.651
 21
238.579
  0
LINE
  8
0
 10
281.728
 11
285.225
 20
238.579
 21
234.695
  0
LINE
  8
0
 10
285.225
 11
287.839
 20
234.695
 21
230.168
  0
LINE
  8
0
 10
287.839
 11
289.454
 20
230.168
 21
225.198
  0
LINE
  8
0
 10
289.454
 11
290
 20
225.198
 21
220
  0
LINE
  8
0
 10
290
 11
289.454
 20
220
 21
214.802
  0
LINE
  8
0
 10
289.454
 11
287.839
 20
214.802
 21
209.832
  0
LINE
  8
0
 10
287.839
 11
285.225
 20
209.832
 21
205.305
  0
LINE
  8
0
 10
285.225
 11
281.728
 20
205.305
 21
201.421
  0
LINE
  8
0
 10
281.728
 11
277.5
 20
201.421
 21
198.349
  0
LINE
  8
0
 10
277.5
 11
272.725
 20
198.349
 21
196.224
  0
LINE
  8
0
 10
272.725
 11
267.613
 20
196.224
 21
195.137
  0
LINE
  8
0
 10
267.613
 11
265
 20
195.137
 21
195.137
  0
LINE
  8
0
 10
265
 11
265
 20
195.137
 21
195
  0
LINE
  8
0
 10
265
 11
255
 20
195
 21
195
  0
LINE
  8
0
 10
255
 11
253.087
 20
195
 21
195.381
  0
LINE
  8
0
 10
253.087
 11
251.464
 20
195.381
 21
196.464
  0
LINE
  8
0
 10
251.464
 11
250.381
 20
196.464
 21
198.087
  0
LINE
  8
0
 10
250.381
 11
250
 20
198.087
 21
200
  0
LINE
  8
0
 10
252
 11
252
 20
114.08
 21
125.92
  0
LINE
  8
0
 10
252
 11
276
 20
125.92
 21
125.92
  0
LINE
  8
0
 10
276
 11
276
 20
125.92
 21
114.08
  0
LINE
  8
0
 10
276
 11
252
 20
114.08
 21
114.08
  0
LINE
  8
0
 10
252
 11
252
 20
164.08
 21
175.92
  0
LINE
  8
0
 10
252
 11
276
 20
175.92
 21
175.92
  0
LINE
  8
0
 10
276
 11
276
 20
175.92
 21
164.08
  0
LINE
  8
0
 10
276
 11
252
 20
164.08
 21
164.08
  0
LINE
  8
0
 10
253.5
 11
253.573
 20
145
 21
145.464
  0
LINE
  8
0
 10
253.573
 11
253.786
 20
145.464
 21
145.882
  0
LINE
  8
0
 10
253.786
 11
254.118
 20
145.882
 21
146.214
  0
LINE
  8
0
 10
254.118
 11
254.536
 20
146.214
 21
146.427
  0
LINE
  8
0
 10
254.536
 11
255
 20
146.427
 21
146.5
  0
LINE
  8
0
 10
255
 11
255.464
 20
146.5
 21
146.427
  0
LINE
  8
0
 10
255.464
 11
255.882
 20
146.427
 21
146.214
  0
LINE
  8
0
 10
255.882
 11
256.214
 20
146.214
 21
145.882
  0
LINE
  8
0
 10
256.214
 11
256.427
 20
145.882
 21
145.464
  0
LINE
  8
0
 10
256.427
 11
256.5
 20
145.464
 21
145
  0
LINE
  8
0
 10
256.5
 11
256.427
 20
145
 21
144.536
  0
LINE
  8
0
 10
256.427
 11
256.214
 20
144.536
 21
144.118
  0
LINE
  8
0
 10
256.214
 11
255.882
 20
144.118
 21
143.786
  0
LINE
  8
0
 10
255.882
 11
255.464
 20
143.786
 21
143.573
  0
LINE
  8
0
 10
255.464
 11
255
 20
143.573
 21
143.5
  0
LINE
  8
0
 10
255
 11
254.536
 20
143.5
 21
143.573
  0
LINE
  8
0
 10
254.536
 11
254.118
 20
143.573
 21
143.786
  0
LINE
  8
0
 10
254.118
 11
253.786
 20
143.786
 21
144.118
  0
LINE
  8
0
 10
253.786
 11
253.573
 20
144.118
 21
144.536
  0
LINE
  8
0
 10
253.573
 11
253.5
 20
144.536
 21
145
  0
LINE
  8
0
 10
254.5
 11
254.573
 20
30
 21
30.464
  0
LINE
  8
0
 10
254.573
 11
254.786
 20
30.464
 21
30.882
  0
LINE
  8
0
 10
254.786
 11
255.118
 20
30.882
 21
31.214
  0
LINE
  8
0
 10
255.118
 11
255.536
 20
31.214
 21
31.427
  0
LINE
  8
0
 10
255.536
 11
256
 20
31.427
 21
31.5
  0
LINE
  8
0
 10
256
 11
256.464
 20
31.5
 21
31.427
  0
LINE
  8
0
 10
256.464
 11
256.882
 20
31.427
 21
31.214
  0
LINE
  8
0
 10
256.882
 11
257.214
 20
31.214
 21
30.882
  0
LINE
  8
0
 10
257.214
 11
257.427
 20
30.882
 21
30.464
  0
LINE
  8
0
 10
257.427
 11
257.5
 20
30.464
 21
30
  0
LINE
  8
0
 10
257.5
 11
257.427
 20
30
 21
29.536
  0
LINE
  8
0
 10
257.427
 11
257.214
 20
29.536
 21
29.118
  0
LINE
  8
0
 10
257.214
 11
256.882
 20
29.118
 21
28.786
  0
LINE
  8
0
 10
256.882
 11
256.464
 20
28.786
 21
28.573
  0
LINE
  8
0
 10
256.464
 11
256
 20
28.573
 21
28.5
  0
LINE
  8
0
 10
256
 11
255.536
 20
28.5
 21
28.573
  0
LINE
  8
0
 10
255.536
 11
255.118
 20
28.573
 21
28.786
  0
LINE
  8
0
 10
255.118
 11
254.786
 20
28.786
 21
29.118
  0
LINE
  8
0
 10
254.786
 11
254.573
 20
29.118
 21
29.536
  0
LINE
  8
0
 10
254.573
 11
254.5
 20
29.536
 21
30
  0
LINE
  8
0
 10
254.5
 11
254.573
 20
75
 21
75.464
  0
LINE
  8
0
 10
254.573
 11
254.786
 20
75.464
 21
75.882
  0
LINE
  8
0
 10
254.786
 11
255.118
 20
75.882
 21
76.214
  0
LINE
  8
0
 10
255.118
 11
255.536
 20
76.214
 21
76.427
  0
LINE
  8
0
 10
255.536
 11
256
 20
76.427
 21
76.5
  0
LINE
  8
0
 10
256
 11
256.464
 20
76.5
 21
76.427
  0
LINE
  8
0
 10
256.464
 11
256.882
 20
76.427
 21
76.214
  0
LINE
  8
0
 10
256.882
 11
257.214
 20
76.214
 21
75.882
  0
LINE
  8
0
 10
257.214
 11
257.427
 20
75.882
 21
75.464
  0
LINE
  8
0
 10
257.427
 11
257.5
 20
75.464
 21
75
  0
LINE
  8
0
 10
257.5
 11
257.427
 20
75
 21
74.536
  0
LINE
  8
0
 10
257.427
 11
257.214
 20
74.536
 21
74.118
  0
LINE
  8
0
 10
257.214
 11
256.882
 20
74.118
 21
73.786
  0
LINE
  8
0
 10
256.882
 11
256.464
 20
73.786
 21
73.573
  0
LINE
  8
0
 10
256.464
 11
256
 20
73.573
 21
73.5
  0
LINE
  8
0
 10
256
 11
255.536
 20
73.5
 21
73.573
  0
LINE
  8
0
 10
255.536
 11
255.118
 20
73.573
 21
73.786
  0
LINE
  8
0
 10
255.118
 11
254.786
 20
73.786
 21
74.118
  0
LINE
  8
0
 10
254.786
 11
254.573
 20
74.118
 21
74.536
  0
LINE
  8
0
 10
254.573
 11
254.5
 20
74.536
 21
75
  0
LINE
  8
0
 10
254.5
 11
254.573
 20
200
 21
200.464
  0
LINE
  8
0
 10
254.573
 11
254.786
 20
200.464
 21
200.882
  0
LINE
  8
0
 10
254.786
 11
255.118
 20
200.882
 21
201.214
  0
LINE
  8
0
 10
255.118
 11
255.536
 20
201.214
 21
201.427
  0
LINE
  8
0
 10
255.536
 11
256
 20
201.427
 21
201.5
  0
LINE
  8
0
 10
256
 11
256.464
 20
201.5
 21
201.427
  0
LINE
  8
0
 10
256.464
 11
256.882
 20
201.427
 21
201.214
  0
LINE
  8
0
 10
256.882
 11
257.214
 20
201.214
 21
200.882
  0
LINE
  8
0
 10
257.214
 11
257.427
 20
200.882
 21
200.464
  0
LINE
  8
0
 10
257.427
 11
257.5
 20
200.464
 21
200
  0
LINE
  8
0
 10
257.5
 11
257.427
 20
200
 21
199.536
  0
LINE
  8
0
 10
257.427
 11
257.214
 20
199.536
 21
199.118
  0
LINE
  8
0
 10
257.214
 11
256.882
 20
199.118
 21
198.786
  0
LINE
  8
0
 10
256.882
 11
256.464
 20
198.786
 21
198.573
  0
LINE
  8
0
 10
256.464
 11
256
 20
198.573
 21
198.5
  0
LINE
  8
0
 10
256
 11
255.536
 20
198.5
 21
198.573
  0
LINE
  8
0
 10
255.536
 11
255.118
 20
198.573
 21
198.786
  0
LINE
  8
0
 10
255.118
 11
254.786
 20
198.786
 21
199.118
  0
LINE
  8
0
 10
254.786
 11
254.573
 20
199.118
 21
199.536
  0
LINE
  8
0
 10
254.573
 11
254.5
 20
199.536
 21
200
  0
LINE
  8
0
 10
254.5
 11
254.573
 20
240
 21
240.464
  0
LINE
  8
0
 10
254.573
 11
254.786
 20
240.464
 21
240.882
  0
LINE
  8
0
 10
254.786
 11
255.118
 20
240.882
 21
241.214
  0
LINE
  8
0
 10
255.118
 11
255.536
 20
241.214
 21
241.427
  0
LINE
  8
0
 10
255.536
 11
256
 20
241.427
 21
241.5
  0
LINE
  8
0
 10
256
 11
256.464
 20
241.5
 21
241.427
  0
LINE
  8
0
 10
256.464
 11
256.882
 20
241.427
 21
241.214
  0
LINE
  8
0
 10
256.882
 11
257.214
 20
241.214
 21
240.882
  0
LINE
  8
0
 10
257.214
 11
257.427
 20
240.882
 21
240.464
  0
LINE
  8
0
 10
257.427
 11
257.5
 20
240.464
 21
240
  0
LINE
  8
0
 10
257.5
 11
257.427
 20
240
 21
239.536
  0
LINE
  8
0
 10
257.427
 11
257.214
 20
239.536
 21
239.118
  0
LINE
  8
0
 10
257.214
 11
256.882
 20
239.118
 21
238.786
  0
LINE
  8
0
 10
256.882
 11
256.464
 20
238.786
 21
238.573
  0
LINE
  8
0
 10
256.464
 11
256
 20
238.573
 21
238.5
  0
LINE
  8
0
 10
256
 11
255.536
 20
238.5
 21
238.573
  0
LINE
  8
0
 10
255.536
 11
255.118
 20
238.573
 21
238.786
  0
LINE
  8
0
 10
255.118
 11
254.786
 20
238.786
 21
239.118
  0
LINE
  8
0
 10
254.786
 11
254.573
 20
239.118
 21
239.536
  0
LINE
  8
0
 10
254.573
 11
254.5
 20
239.536
 21
240
  0
LINE
  8
0
 10
262.5
 11
262.573
 20
108
 21
108.464
  0
LINE
  8
0
 10
262.573
 11
262.786
 20
108.464
 21
108.882
  0
LINE
  8
0
 10
262.786
 11
263.118
 20
108.882
 21
109.214
  0
LINE
  8
0
 10
263.118
 11
263.536
 20
109.214
 21
109.427
  0
LINE
  8
0
 10
263.536
 11
264
 20
109.427
 21
109.5
  0
LINE
  8
0
 10
264
 11
264.464
 20
109.5
 21
109.427
  0
LINE
  8
0
 10
264.464
 11
264.882
 20
109.427
 21
109.214
  0
LINE
  8
0
 10
264.882
 11
265.214
 20
109.214
 21
108.882
  0
LINE
  8
0
 10
265.214
 11
265.427
 20
108.882
 21
108.464
  0
LINE
  8
0
 10
265.427
 11
265.5
 20
108.464
 21
108
  0
LINE
  8
0
 10
265.5
 11
265.427
 20
108
 21
107.536
  0
LINE
  8
0
 10
265.427
 11
265.214
 20
107.536
 21
107.118
  0
LINE
  8
0
 10
265.214
 11
264.882
 20
107.118
 21
106.786
  0
LINE
  8
0
 10
264.882
 11
264.464
 20
106.786
 21
106.573
  0
LINE
  8
0
 10
264.464
 11
264
 20
106.573
 21
106.5
  0
LINE
  8
0
 10
264
 11
263.536
 20
106.5
 21
106.573
  0
LINE
  8
0
 10
263.536
 11
263.118
 20
106.573
 21
106.786
  0
LINE
  8
0
 10
263.118
 11
262.786
 20
106.786
 21
107.118
  0
LINE
  8
0
 10
262.786
 11
262.573
 20
107.118
 21
107.536
  0
LINE
  8
0
 10
262.573
 11
262.5
 20
107.536
 21
108
  0
LINE
  8
0
 10
262.5
 11
262.573
 20
182
 21
182.464
  0
LINE
  8
0
 10
262.573
 11
262.786
 20
182.464
 21
182.882
  0
LINE
  8
0
 10
262.786
 11
263.118
 20
182.882
 21
183.214
  0
LINE
  8
0
 10
263.118
 11
263.536
 20
183.214
 21
183.427
  0
LINE
  8
0
 10
263.536
 11
264
 20
183.427
 21
183.5
  0
LINE
  8
0
 10
264
 11
264.464
 20
183.5
 21
183.427
  0
LINE
  8
0
 10
264.464
 11
264.882
 20
183.427
 21
183.214
  0
LINE
  8
0
 10
264.882
 11
265.214
 20
183.214
 21
182.882
  0
LINE
  8
0
 10
265.214
 11
265.427
 20
182.882
 21
182.464
  0
LINE
  8
0
 10
265.427
 11
265.5
 20
182.464
 21
182
  0
LINE
  8
0
 10
265.5
 11
265.427
 20
182
 21
181.536
  0
LINE
  8
0
 10
265.427
 11
265.214
 20
181.536
 21
181.118
  0
LINE
  8
0
 10
265.214
 11
264.882
 20
181.118
 21
180.786
  0
LINE
  8
0
 10
264.882
 11
264.464
 20
180.786
 21
180.573
  0
LINE
  8
0
 10
264.464
 11
264
 20
180.573
 21
180.5
  0
LINE
  8
0
 10
264
 11
263.536
 20
180.5
 21
180.573
  0
LINE
  8
0
 10
263.536
 11
263.118
 20
180.573
 21
180.786
  0
LINE
  8
0
 10
263.118
 11
262.786
 20
180.786
 21
181.118
  0
LINE
  8
0
 10
262.786
 11
262.573
 20
181.118
 21
181.536
  0
LINE
  8
0
 10
262.573
 11
262.5
 20
181.536
 21
182
  0
LINE
  8
0
 10
264.953
 11
264.953
 20
18
 21
42
  0
LINE
  8
0
 10
264.953
 11
275.047
 20
42
 21
42
  0
LINE
  8
0
 10
275.047
 11
275.047
 20
42
 21
18
  0
LINE
  8
0
 10
275.047
 11
264.953
 20
18
 21
18
  0
LINE
  8
0
 10
264.953
 11
264.953
 20
63
 21
87
  0
LINE
  8
0
 10
264.953
 11
275.047
 20
87
 21
87
  0
LINE
  8
0
 10
275.047
 11
275.047
 20
87
 21
63
  0
LINE
  8
0
 10
275.047
 11
264.953
 20
63
 21
63
  0
LINE
  8
0
 10
264.953
 11
264.953
 20
208
 21
232
  0
LINE
  8
0
 10
264.953
 11
275.047
 20
232
 21
232
  0
LINE
  8
0
 10
275.047
 11
275.047
 20
232
 21
208
  0
LINE
  8
0
 10
275.047
 11
264.953
 20
208
 21
208
  0
LINE
  8
0
 10
270
 11
270.437
 20
145
 21
149.158
  0
LINE
  8
0
 10
270.437
 11
271.729
 20
149.158
 21
153.135
  0
LINE
  8
0
 10
271.729
 11
273.82
 20
153.135
 21
156.756
  0
LINE
  8
0
 10
273.82
 11
276.617
 20
156.756
 21
159.863
  0
LINE
  8
0
 10
276.617
 11
280
 20
159.863
 21
162.321
  0
LINE
  8
0
 10
280
 11
283.82
 20
162.321
 21
164.021
  0
LINE
  8
0
 10
283.82
 11
287.909
 20
164.021
 21
164.89
  0
LINE
  8
0
 10
287.909
 11
292.091
 20
164.89
 21
164.89
  0
LINE
  8
0
 10
292.091
 11
296.18
 20
164.89
 21
164.021
  0
LINE
  8
0
 10
296.18
 11
300
 20
164.021
 21
162.321
  0
LINE
  8
0
 10
300
 11
303.383
 20
162.321
 21
159.863
  0
LINE
  8
0
 10
303.383
 11
306.18
 20
159.863
 21
156.756
  0
LINE
  8
0
 10
306.18
 11
308.271
 20
156.756
 21
153.135
  0
LINE
  8
0
 10
308.271
 11
309.563
 20
153.135
 21
149.158
  0
LINE
  8
0
 10
309.563
 11
310
 20
149.158
 21
145
  0
LINE
  8
0
 10
310
 11
309.563
 20
145
 21
140.842
  0
LINE
  8
0
 10
309.563
 11
308.271
 20
140.842
 21
136.865
  0
LINE
  8
0
 10
308.271
 11
306.18
 20
136.865
 21
133.244
  0
LINE
  8
0
 10
306.18
 11
303.383
 20
133.244
 21
130.137
  0
LINE
  8
0
 10
303.383
 11
300
 20
130.137
 21
127.679
  0
LINE
  8
0
 10
300
 11
296.18
 20
127.679
 21
125.979
  0
LINE
  8
0
 10
296.18
 11
292.091
 20
125.979
 21
125.11
  0
LINE
  8
0
 10
292.091
 11
287.909
 20
125.11
 21
125.11
  0
LINE
  8
0
 10
287.909
 11
283.82
 20
125.11
 21
125.979
  0
LINE
  8
0
 10
283.82
 11
280
 20
125.979
 21
127.679
  0
LINE
  8
0
 10
280
 11
276.617
 20
127.679
 21
130.137
  0
LINE
  8
0
 10
276.617
 11
273.82
 20
130.137
 21
133.244
  0
LINE
  8
0
 10
273.82
 11
271.729
 20
133.244
 21
136.865
  0
LINE
  8
0
 10
271.729
 11
270.437
 20
136.865
 21
140.842
  0
LINE
  8
0
 10
270.437
 11
270
 20
140.842
 21
145
  0
LINE
  8
0
 10
282.5
 11
282.573
 20
30
 21
30.464
  0
LINE
  8
0
 10
282.573
 11
282.786
 20
30.464
 21
30.882
  0
LINE
  8
0
 10
282.786
 11
283.118
 20
30.882
 21
31.214
  0
LINE
  8
0
 10
283.118
 11
283.536
 20
31.214
 21
31.427
  0
LINE
  8
0
 10
283.536
 11
284
 20
31.427
 21
31.5
  0
LINE
  8
0
 10
284
 11
284.464
 20
31.5
 21
31.427
  0
LINE
  8
0
 10
284.464
 11
284.882
 20
31.427
 21
31.214
  0
LINE
  8
0
 10
284.882
 11
285.214
 20
31.214
 21
30.882
  0
LINE
  8
0
 10
285.214
 11
285.427
 20
30.882
 21
30.464
  0
LINE
  8
0
 10
285.427
 11
285.5
 20
30.464
 21
30
  0
LINE
  8
0
 10
285.5
 11
285.427
 20
30
 21
29.536
  0
LINE
  8
0
 10
285.427
 11
285.214
 20
29.536
 21
29.118
  0
LINE
  8
0
 10
285.214
 11
284.882
 20
29.118
 21
28.786
  0
LINE
  8
0
 10
284.882
 11
284.464
 20
28.786
 21
28.573
  0
LINE
  8
0
 10
284.464
 11
284
 20
28.573
 21
28.5
  0
LINE
  8
0
 10
284
 11
283.536
 20
28.5
 21
28.573
  0
LINE
  8
0
 10
283.536
 11
283.118
 20
28.573
 21
28.786
  0
LINE
  8
0
 10
283.118
 11
282.786
 20
28.786
 21
29.118
  0
LINE
  8
0
 10
282.786
 11
282.573
 20
29.118
 21
29.536
  0
LINE
  8
0
 10
282.573
 11
282.5
 20
29.536
 21
30
  0
LINE
  8
0
 10
282.5
 11
282.573
 20
75
 21
75.464
  0
LINE
  8
0
 10
282.573
 11
282.786
 20
75.464
 21
75.882
  0
LINE
  8
0
 10
282.786
 11
283.118
 20
75.882
 21
76.214
  0
LINE
  8
0
 10
283.118
 11
283.536
 20
76.214
 21
76.427
  0
LINE
  8
0
 10
283.536
 11
284
 20
76.427
 21
76.5
  0
LINE
  8
0
 10
284
 11
284.464
 20
76.5
 21
76.427
  0
LINE
  8
0
 10
284.464
 11
284.882
 20
76.427
 21
76.214
  0
LINE
  8
0
 10
284.882
 11
285.214
 20
76.214
 21
75.882
  0
LINE
  8
0
 10
285.214
 11
285.427
 20
75.882
 21
75.464
  0
LINE
  8
0
 10
285.427
 11
285.5
 20
75.464
 21
75
  0
LINE
  8
0
 10
285.5
 11
285.427
 20
75
 21
74.536
  0
LINE
  8
0
 10
285.427
 11
285.214
 20
74.536
 21
74.118
  0
LINE
  8
0
 10
285.214
 11
284.882
 20
74.118
 21
73.786
  0
LINE
  8
0
 10
284.882
 11
284.464
 20
73.786
 21
73.573
  0
LINE
  8
0
 10
284.464
 11
284
 20
73.573
 21
73.5
  0
LINE
  8
0
 10
284
 11
283.536
 20
73.5
 21
73.573
  0
LINE
  8
0
 10
283.536
 11
283.118
 20
73.573
 21
73.786
  0
LINE
  8
0
 10
283.118
 11
282.786
 20
73.786
 21
74.118
  0
LINE
  8
0
 10
282.786
 11
282.573
 20
74.118
 21
74.536
  0
LINE
  8
0
 10
282.573
 11
282.5
 20
74.536
 21
75
  0
LINE
  8
0
 10
282.5
 11
282.573
 20
220
 21
220.464
  0
LINE
  8
0
 10
282.573
 11
282.786
 20
220.464
 21
220.882
  0
LINE
  8
0
 10
282.786
 11
283.118
 20
220.882
 21
221.214
  0
LINE
  8
0
 10
283.118
 11
283.536
 20
221.214
 21
221.427
  0
LINE
  8
0
 10
283.536
 11
284
 20
221.427
 21
221.5
  0
LINE
  8
0
 10
284
 11
284.464
 20
221.5
 21
221.427
  0
LINE
  8
0
 10
284.464
 11
284.882
 20
221.427
 21
221.214
  0
LINE
  8
0
 10
284.882
 11
285.214
 20
221.214
 21
220.882
  0
LINE
  8
0
 10
285.214
 11
285.427
 20
220.882
 21
220.464
  0
LINE
  8
0
 10
285.427
 11
285.5
 20
220.464
 21
220
  0
LINE
  8
0
 10
285.5
 11
285.427
 20
220
 21
219.536
  0
LINE
  8
0
 10
285.427
 11
285.214
 20
219.536
 21
219.118
  0
LINE
  8
0
 10
285.214
 11
284.882
 20
219.118
 21
218.786
  0
LINE
  8
0
 10
284.882
 11
284.464
 20
218.786
 21
218.573
  0
LINE
  8
0
 10
284.464
 11
284
 20
218.573
 21
218.5
  0
LINE
  8
0
 10
284
 11
283.536
 20
218.5
 21
218.573
  0
LINE
  8
0
 10
283.536
 11
283.118
 20
218.573
 21
218.786
  0
LINE
  8
0
 10
283.118
 11
282.786
 20
218.786
 21
219.118
  0
LINE
  8
0
 10
282.786
 11
282.573
 20
219.118
 21
219.536
  0
LINE
  8
0
 10
282.573
 11
282.5
 20
219.536
 21
220
  0
LINE
  8
0
 10
288
 11
288.098
 20
113
 21
113.618
  0
LINE
  8
0
 10
288.098
 11
288.382
 20
113.618
 21
114.176
  0
LINE
  8
0
 10
288.382
 11
288.824
 20
114.176
 21
114.618
  0
LINE
  8
0
 10
288.824
 11
289.382
 20
114.618
 21
114.902
  0
LINE
  8
0
 10
289.382
 11
290
 20
114.902
 21
115
  0
LINE
  8
0
 10
290
 11
290.618
 20
115
 21
114.902
  0
LINE
  8
0
 10
290.618
 11
291.176
 20
114.902
 21
114.618
  0
LINE
  8
0
 10
291.176
 11
291.618
 20
114.618
 21
114.176
  0
LINE
  8
0
 10
291.618
 11
291.902
 20
114.176
 21
113.618
  0
LINE
  8
0
 10
291.902
 11
292
 20
113.618
 21
113
  0
LINE
  8
0
 10
292
 11
291.902
 20
113
 21
112.382
  0
LINE
  8
0
 10
291.902
 11
291.618
 20
112.382
 21
111.824
  0
LINE
  8
0
 10
291.618
 11
291.176
 20
111.824
 21
111.382
  0
LINE
  8
0
 10
291.176
 11
290.618
 20
111.382
 21
111.098
  0
LINE
  8
0
 10
290.618
 11
290
 20
111.098
 21
111
  0
LINE
  8
0
 10
290
 11
289.382
 20
111
 21
111.098
  0
LINE
  8
0
 10
289.382
 11
288.824
 20
111.098
 21
111.382
  0
LINE
  8
0
 10
288.824
 11
288.382
 20
111.382
 21
111.824
  0
LINE
  8
0
 10
288.382
 11
288.098
 20
111.824
 21
112.382
  0
LINE
  8
0
 10
288.098
 11
288
 20
112.382
 21
113
  0
LINE
  8
0
 10
288
 11
288.098
 20
177
 21
177.618
  0
LINE
  8
0
 10
288.098
 11
288.382
 20
177.618
 21
178.176
  0
LINE
  8
0
 10
288.382
 11
288.824
 20
178.176
 21
178.618
  0
LINE
  8
0
 10
288.824
 11
289.382
 20
178.618
 21
178.902
  0
LINE
  8
0
 10
289.382
 11
290
 20
178.902
 21
179
  0
LINE
  8
0
 10
290
 11
290.618
 20
179
 21
178.902
  0
LINE
  8
0
 10
290.618
 11
291.176
 20
178.902
 21
178.618
  0
LINE
  8
0
 10
291.176
 11
291.618
 20
178.618
 21
178.176
  0
LINE
  8
0
 10
291.618
 11
291.902
 20
178.176
 21
177.618
  0
LINE
  8
0
 10
291.902
 11
292
 20
177.618
 21
177
  0
LINE
  8
0
 10
292
 11
291.902
 20
177
 21
176.382
  0
LINE
  8
0
 10
291.902
 11
291.618
 20
176.382
 21
175.824
  0
LINE
  8
0
 10
291.618
 11
291.176
 20
175.824
 21
175.382
  0
LINE
  8
0
 10
291.176
 11
290.618
 20
175.382
 21
175.098
  0
LINE
  8
0
 10
290.618
 11
290
 20
175.098
 21
175
  0
LINE
  8
0
 10
290
 11
289.382
 20
175
 21
175.098
  0
LINE
  8
0
 10
289.382
 11
288.824
 20
175.098
 21
175.382
  0
LINE
  8
0
 10
288.824
 11
288.382
 20
175.382
 21
175.824
  0
LINE
  8
0
 10
288.382
 11
288.098
 20
175.824
 21
176.382
  0
LINE
  8
0
 10
288.098
 11
288
 20
176.382
 21
177
  0
LINE
  8
0
 10
300
 11
300
 20
30
 21
75
  0
LINE
  8
0
 10
300
 11
300.027
 20
75
 21
76.047
  0
LINE
  8
0
 10
300.027
 11
300.11
 20
76.047
 21
77.091
  0
LINE
  8
0
 10
300.11
 11
300.246
 20
77.091
 21
78.129
  0
LINE
  8
0
 10
300.246
 11
300.437
 20
78.129
 21
79.158
  0
LINE
  8
0
 10
300.437
 11
300.681
 20
79.158
 21
80.176
  0
LINE
  8
0
 10
300.681
 11
300.979
 20
80.176
 21
81.18
  0
LINE
  8
0
 10
300.979
 11
301.328
 20
81.18
 21
82.167
  0
LINE
  8
0
 10
301.328
 11
301.729
 20
82.167
 21
83.135
  0
LINE
  8
0
 10
301.729
 11
302.18
 20
83.135
 21
84.08
  0
LINE
  8
0
 10
302.18
 11
302.679
 20
84.08
 21
85
  0
LINE
  8
0
 10
302.679
 11
303.227
 20
85
 21
85.893
  0
LINE
  8
0
 10
303.227
 11
303.82
 20
85.893
 21
86.756
  0
LINE
  8
0
 10
303.82
 11
304.457
 20
86.756
 21
87.586
  0
LINE
  8
0
 10
304.457
 11
305.137
 20
87.586
 21
88.383
  0
LINE
  8
0
 10
305.137
 11
305.858
 20
88.383
 21
89.142
  0
LINE
  8
0
 10
305.858
 11
306.617
 20
89.142
 21
89.863
  0
LINE
  8
0
 10
306.617
 11
307.414
 20
89.863
 21
90.543
  0
LINE
  8
0
 10
307.414
 11
308.244
 20
90.543
 21
91.18
  0
LINE
  8
0
 10
308.244
 11
309.107
 20
91.18
 21
91.773
  0
LINE
  8
0
 10
309.107
 11
310
 20
91.773
 21
92.321
  0
LINE
  8
0
 10
310
 11
310.92
 20
92.321
 21
92.82
  0
LINE
  8
0
 10
310.92
 11
311.865
 20
92.82
 21
93.271
  0
LINE
  8
0
 10
311.865
 11
312.833
 20
93.271
 21
93.672
  0
LINE
  8
0
 10
312.833
 11
313.82
 20
93.672
 21
94.021
  0
LINE
  8
0
 10
313.82
 11
314.824
 20
94.021
 21
94.319
  0
LINE
  8
0
 10
314.824
 11
315.842
 20
94.319
 21
94.563
  0
LINE
  8
0
 10
315.842
 11
316.871
 20
94.563
 21
94.754
  0
LINE
  8
0
 10
316.871
 11
317.909
 20
94.754
 21
94.89
  0
LINE
  8
0
 10
317.909
 11
318.953
 20
94.89
 21
94.973
  0
LINE
  8
0
 10
318.953
 11
320
 20
94.973
 21
95
  0
LINE
  8
0
 10
320
 11
321.047
 20
95
 21
94.973
  0
LINE
  8
0
 10
321.047
 11
322.091
 20
94.973
 21
94.89
  0
LINE
  8
0
 10
322.091
 11
323.129
 20
94.89
 21
94.754
  0
LINE
  8
0
 10
323.129
 11
324.158
 20
94.754
 21
94.563
  0
LINE
  8
0
 10
324.158
 11
325.176
 20
94.563
 21
94.319
  0
LINE
  8
0
 10
325.176
 11
326.18
 20
94.319
 21
94.021
  0
LINE
  8
0
 10
326.18
 11
327.167
 20
94.021
 21
93.672
  0
LINE
  8
0
 10
327.167
 11
328.135
 20
93.672
 21
93.271
  0
LINE
  8
0
 10
328.135
 11
329.08
 20
93.271
 21
92.82
  0
LINE
  8
0
 10
329.08
 11
330
 20
92.82
 21
92.321
  0
LINE
  8
0
 10
330
 11
330.893
 20
92.321
 21
91.773
  0
LINE
  8
0
 10
330.893
 11
331.756
 20
91.773
 21
91.18
  0
LINE
  8
0
 10
331.756
 11
332.586
 20
91.18
 21
90.543
  0
LINE
  8
0
 10
332.586
 11
333.383
 20
90.543
 21
89.863
  0
LINE
  8
0
 10
333.383
 11
334.142
 20
89.863
 21
89.142
  0
LINE
  8
0
 10
334.142
 11
334.863
 20
89.142
 21
88.383
  0
LINE
  8
0
 10
334.863
 11
335.543
 20
88.383
 21
87.586
  0
LINE
  8
0
 10
335.543
 11
336.18
 20
87.586
 21
86.756
  0
LINE
  8
0
 10
336.18
 11
336.773
 20
86.756
 21
85.893
  0
LINE
  8
0
 10
336.773
 11
337.321
 20
85.893
 21
85
  0
LINE
  8
0
 10
337.321
 11
337.82
 20
85
 21
84.08
  0
LINE
  8
0
 10
337.82
 11
338.271
 20
84.08
 21
83.135
  0
LINE
  8
0
 10
338.271
 11
338.672
 20
83.135
 21
82.167
  0
LINE
  8
0
 10
338.672
 11
339.021
 20
82.167
 21
81.18
  0
LINE
  8
0
 10
339.021
 11
339.319
 20
81.18
 21
80.176
  0
LINE
  8
0
 10
339.319
 11
339.563
 20
80.176
 21
79.158
  0
LINE
  8
0
 10
339.563
 11
339.754
 20
79.158
 21
78.129
  0
LINE
  8
0
 10
339.754
 11
339.89
 20
78.129
 21
77.091
  0
LINE
  8
0
 10
339.89
 11
339.973
 20
77.091
 21
76.047
  0
LINE
  8
0
 10
339.973
 11
340
 20
76.047
 21
75
  0
LINE
  8
0
 10
340
 11
340
 20
75
 21
30
  0
LINE
  8
0
 10
340
 11
339.973
 20
30
 21
28.953
  0
LINE
  8
0
 10
339.973
 11
339.89
 20
28.953
 21
27.909
  0
LINE
  8
0
 10
339.89
 11
339.754
 20
27.909
 21
26.871
  0
LINE
  8
0
 10
339.754
 11
339.563
 20
26.871
 21
25.842
  0
LINE
  8
0
 10
339.563
 11
339.319
 20
25.842
 21
24.824
  0
LINE
  8
0
 10
339.319
 11
339.021
 20
24.824
 21
23.82
  0
LINE
  8
0
 10
339.021
 11
338.672
 20
23.82
 21
22.833
  0
LINE
  8
0
 10
338.672
 11
338.271
 20
22.833
 21
21.865
  0
LINE
  8
0
 10
338.271
 11
337.82
 20
21.865
 21
20.92
  0
LINE
  8
0
 10
337.82
 11
337.321
 20
20.92
 21
20
  0
LINE
  8
0
 10
337.321
 11
336.773
 20
20
 21
19.107
  0
LINE
  8
0
 10
336.773
 11
336.18
 20
19.107
 21
18.244
  0
LINE
  8
0
 10
336.18
 11
335.543
 20
18.244
 21
17.414
  0
LINE
  8
0
 10
335.543
 11
334.863
 20
17.414
 21
16.617
  0
LINE
  8
0
 10
334.863
 11
334.142
 20
16.617
 21
15.858
  0
LINE
  8
0
 10
334.142
 11
333.383
 20
15.858
 21
15.137
  0
LINE
  8
0
 10
333.383
 11
332.586
 20
15.137
 21
14.457
  0
LINE
  8
0
 10
332.586
 11
331.756
 20
14.457
 21
13.82
  0
LINE
  8
0
 10
331.756
 11
330.893
 20
13.82
 21
13.227
  0
LINE
  8
0
 10
330.893
 11
330
 20
13.227
 21
12.679
  0
LINE
  8
0
 10
330
 11
329.08
 20
12.679
 21
12.18
  0
LINE
  8
0
 10
329.08
 11
328.135
 20
12.18
 21
11.729
  0
LINE
  8
0
 10
328.135
 11
327.167
 20
11.729
 21
11.328
  0
LINE
  8
0
 10
327.167
 11
326.18
 20
11.328
 21
10.979
  0
LINE
  8
0
 10
326.18
 11
325.176
 20
10.979
 21
10.681
  0
LINE
  8
0
 10
325.176
 11
324.158
 20
10.681
 21
10.437
  0
LINE
  8
0
 10
324.158
 11
323.129
 20
10.437
 21
10.246
  0
LINE
  8
0
 10
323.129
 11
322.091
 20
10.246
 21
10.11
  0
LINE
  8
0
 10
322.091
 11
321.047
 20
10.11
 21
10.027
  0
LINE
  8
0
 10
321.047
 11
320
 20
10.027
 21
10
  0
LINE
  8
0
 10
320
 11
318.953
 20
10
 21
10.027
  0
LINE
  8
0
 10
318.953
 11
317.909
 20
10.027
 21
10.11
  0
LINE
  8
0
 10
317.909
 11
316.871
 20
10.11
 21
10.246
  0
LINE
  8
0
 10
316.871
 11
315.842
 20
10.246
 21
10.437
  0
LINE
  8
0
 10
315.842
 11
314.824
 20
10.437
 21
10.681
  0
LINE
  8
0
 10
314.824
 11
313.82
 20
10.681
 21
10.979
  0
LINE
  8
0
 10
313.82
 11
312.833
 20
10.979
 21
11.328
  0
LINE
  8
0
 10
312.833
 11
311.865
 20
11.328
 21
11.729
  0
LINE
  8
0
 10
311.865
 11
310.92
 20
11.729
 21
12.18
  0
LINE
  8
0
 10
310.92
 11
310
 20
12.18
 21
12.679
  0
LINE
  8
0
 10
310
 11
309.107
 20
12.679
 21
13.227
  0
LINE
  8
0
 10
309.107
 11
308.244
 20
13.227
 21
13.82
  0
LINE
  8
0
 10
308.244
 11
307.414
 20
13.82
 21
14.457
  0
LINE
  8
0
 10
307.414
 11
306.617
 20
14.457
 21
15.137
  0
LINE
  8
0
 10
306.617
 11
305.858
 20
15.137
 21
15.858
  0
LINE
  8
0
 10
305.858
 11
305.137
 20
15.858
 21
16.617
  0
LINE
  8
0
 10
305.137
 11
304.457
 20
16.617
 21
17.414
  0
LINE
  8
0
 10
304.457
 11
303.82
 20
17.414
 21
18.244
  0
LINE
  8
0
 10
303.82
 11
303.227
 20
18.244
 21
19.107
  0
LINE
  8
0
 10
303.227
 11
302.679
 20
19.107
 21
20
  0
LINE
  8
0
 10
302.679
 11
302.18
 20
20
 21
20.92
  0
LINE
  8
0
 10
302.18
 11
301.729
 20
20.92
 21
21.865
  0
LINE
  8
0
 10
301.729
 11
301.328
 20
21.865
 21
22.833
  0
LINE
  8
0
 10
301.328
 11
300.979
 20
22.833
 21
23.82
  0
LINE
  8
0
 10
300.979
 11
300.681
 20
23.82
 21
24.824
  0
LINE
  8
0
 10
300.681
 11
300.437
 20
24.824
 21
25.842
  0
LINE
  8
0
 10
300.437
 11
300.246
 20
25.842
 21
26.871
  0
LINE
  8
0
 10
300.246
 11
300.11
 20
26.871
 21
27.909
  0
LINE
  8
0
 10
300.11
 11
300.027
 20
27.909
 21
28.953
  0
LINE
  8
0
 10
300.027
 11
300
 20
28.953
 21
30
  0
LINE
  8
0
 10
304
 11
304
 20
114.08
 21
125.92
  0
LINE
  8
0
 10
304
 11
328
 20
125.92
 21
125.92
  0
LINE
  8
0
 10
328
 11
328
 20
125.92
 21
114.08
  0
LINE
  8
0
 10
328
 11
304
 20
114.08
 21
114.08
  0
LINE
  8
0
 10
304
 11
304
 20
164.08
 21
175.92
  0
LINE
  8
0
 10
304
 11
328
 20
175.92
 21
175.92
  0
LINE
  8
0
 10
328
 11
328
 20
175.92
 21
164.08
  0
LINE
  8
0
 10
328
 11
304
 20
164.08
 21
164.08
  0
LINE
  8
0
 10
304.5
 11
304.573
 20
30
 21
30.464
  0
LINE
  8
0
 10
304.573
 11
304.786
 20
30.464
 21
30.882
  0
LINE
  8
0
 10
304.786
 11
305.118
 20
30.882
 21
31.214
  0
LINE
  8
0
 10
305.118
 11
305.536
 20
31.214
 21
31.427
  0
LINE
  8
0
 10
305.536
 11
306
 20
31.427
 21
31.5
  0
LINE
  8
0
 10
306
 11
306.464
 20
31.5
 21
31.427
  0
LINE
  8
0
 10
306.464
 11
306.882
 20
31.427
 21
31.214
  0
LINE
  8
0
 10
306.882
 11
307.214
 20
31.214
 21
30.882
  0
LINE
  8
0
 10
307.214
 11
307.427
 20
30.882
 21
30.464
  0
LINE
  8
0
 10
307.427
 11
307.5
 20
30.464
 21
30
  0
LINE
  8
0
 10
307.5
 11
307.427
 20
30
 21
29.536
  0
LINE
  8
0
 10
307.427
 11
307.214
 20
29.536
 21
29.118
  0
LINE
  8
0
 10
307.214
 11
306.882
 20
29.118
 21
28.786
  0
LINE
  8
0
 10
306.882
 11
306.464
 20
28.786
 21
28.573
  0
LINE
  8
0
 10
306.464
 11
306
 20
28.573
 21
28.5
  0
LINE
  8
0
 10
306
 11
305.536
 20
28.5
 21
28.573
  0
LINE
  8
0
 10
305.536
 11
305.118
 20
28.573
 21
28.786
  0
LINE
  8
0
 10
305.118
 11
304.786
 20
28.786
 21
29.118
  0
LINE
  8
0
 10
304.786
 11
304.573
 20
29.118
 21
29.536
  0
LINE
  8
0
 10
304.573
 11
304.5
 20
29.536
 21
30
  0
LINE
  8
0
 10
304.5
 11
304.573
 20
75
 21
75.464
  0
LINE
  8
0
 10
304.573
 11
304.786
 20
75.464
 21
75.882
  0
LINE
  8
0
 10
304.786
 11
305.118
 20
75.882
 21
76.214
  0
LINE
  8
0
 10
305.118
 11
305.536
 20
76.214
 21
76.427
  0
LINE
  8
0
 10
305.536
 11
306
 20
76.427
 21
76.5
  0
LINE
  8
0
 10
306
 11
306.464
 20
76.5
 21
76.427
  0
LINE
  8
0
 10
306.464
 11
306.882
 20
76.427
 21
76.214
  0
LINE
  8
0
 10
306.882
 11
307.214
 20
76.214
 21
75.882
  0
LINE
  8
0
 10
307.214
 11
307.427
 20
75.882
 21
75.464
  0
LINE
  8
0
 10
307.427
 11
307.5
 20
75.464
 21
75
  0
LINE
  8
0
 10
307.5
 11
307.427
 20
75
 21
74.536
  0
LINE
  8
0
 10
307.427
 11
307.214
 20
74.536
 21
74.118
  0
LINE
  8
0
 10
307.214
 11
306.882
 20
74.118
 21
73.786
  0
LINE
  8
0
 10
306.882
 11
306.464
 20
73.786
 21
73.573
  0
LINE
  8
0
 10
306.464
 11
306
 20
73.573
 21
73.5
  0
LINE
  8
0
 10
306
 11
305.536
 20
73.5
 21
73.573
  0
LINE
  8
0
 10
305.536
 11
305.118
 20
73.573
 21
73.786
  0
LINE
  8
0
 10
305.118
 11
304.786
 20
73.786
 21
74.118
  0
LINE
  8
0
 10
304.786
 11
304.573
 20
74.118
 21
74.536
  0
LINE
  8
0
 10
304.573
 11
304.5
 20
74.536
 21
75
  0
LINE
  8
0
 10
314.5
 11
314.573
 20
108
 21
108.464
  0
LINE
  8
0
 10
314.573
 11
314.786
 20
108.464
 21
108.882
  0
LINE
  8
0
 10
314.786
 11
315.118
 20
108.882
 21
109.214
  0
LINE
  8
0
 10
315.118
 11
315.536
 20
109.214
 21
109.427
  0
LINE
  8
0
 10
315.536
 11
316
 20
109.427
 21
109.5
  0
LINE
  8
0
 10
316
 11
316.464
 20
109.5
 21
109.427
  0
LINE
  8
0
 10
316.464
 11
316.882
 20
109.427
 21
109.214
  0
LINE
  8
0
 10
316.882
 11
317.214
 20
109.214
 21
108.882
  0
LINE
  8
0
 10
317.214
 11
317.427
 20
108.882
 21
108.464
  0
LINE
  8
0
 10
317.427
 11
317.5
 20
108.464
 21
108
  0
LINE
  8
0
 10
317.5
 11
317.427
 20
108
 21
107.536
  0
LINE
  8
0
 10
317.427
 11
317.214
 20
107.536
 21
107.118
  0
LINE
  8
0
 10
317.214
 11
316.882
 20
107.118
 21
106.786
  0
LINE
  8
0
 10
316.882
 11
316.464
 20
106.786
 21
106.573
  0
LINE
  8
0
 10
316.464
 11
316
 20
106.573
 21
106.5
  0
LINE
  8
0
 10
316
 11
315.536
 20
106.5
 21
106.573
  0
LINE
  8
0
 10
315.536
 11
315.118
 20
106.573
 21
106.786
  0
LINE
  8
0
 10
315.118
 11
314.786
 20
106.786
 21
107.118
  0
LINE
  8
0
 10
314.786
 11
314.573
 20
107.118
 21
107.536
  0
LINE
  8
0
 10
314.573
 11
314.5
 20
107.536
 21
108
  0
LINE
  8
0
 10
314.5
 11
314.573
 20
182
 21
182.464
  0
LINE
  8
0
 10
314.573
 11
314.786
 20
182.464
 21
182.882
  0
LINE
  8
0
 10
314.786
 11
315.118
 20
182.882
 21
183.214
  0
LINE
  8
0
 10
315.118
 11
315.536
 20
183.214
 21
183.427
  0
LINE
  8
0
 10
315.536
 11
316
 20
183.427
 21
183.5
  0
LINE
  8
0
 10
316
 11
316.464
 20
183.5
 21
183.427
  0
LINE
  8
0
 10
316.464
 11
316.882
 20
183.427
 21
183.214
  0
LINE
  8
0
 10
316.882
 11
317.214
 20
183.214
 21
182.882
  0
LINE
  8
0
 10
317.214
 11
317.427
 20
182.882
 21
182.464
  0
LINE
  8
0
 10
317.427
 11
317.5
 20
182.464
 21
182
  0
LINE
  8
0
 10
317.5
 11
317.427
 20
182
 21
181.536
  0
LINE
  8
0
 10
317.427
 11
317.214
 20
181.536
 21
181.118
  0
LINE
  8
0
 10
317.214
 11
316.882
 20
181.118
 21
180.786
  0
LINE
  8
0
 10
316.882
 11
316.464
 20
180.786
 21
180.573
  0
LINE
  8
0
 10
316.464
 11
316
 20
180.573
 21
180.5
  0
LINE
  8
0
 10
316
 11
315.536
 20
180.5
 21
180.573
  0
LINE
  8
0
 10
315.536
 11
315.118
 20
180.573
 21
180.786
  0
LINE
  8
0
 10
315.118
 11
314.786
 20
180.786
 21
181.118
  0
LINE
  8
0
 10
314.786
 11
314.573
 20
181.118
 21
181.536
  0
LINE
  8
0
 10
314.573
 11
314.5
 20
181.536
 21
182
  0
LINE
  8
0
 10
314.953
 11
314.953
 20
18
 21
42
  0
LINE
  8
0
 10
314.953
 11
325.047
 20
42
 21
42
  0
LINE
  8
0
 10
325.047
 11
325.047
 20
42
 21
18
  0
LINE
  8
0
 10
325.047
 11
314.953
 20
18
 21
18
  0
LINE
  8
0
 10
314.953
 11
314.953
 20
63
 21
87
  0
LINE
  8
0
 10
314.953
 11
325.047
 20
87
 21
87
  0
LINE
  8
0
 10
325.047
 11
325.047
 20
87
 21
63
  0
LINE
  8
0
 10
325.047
 11
314.953
 20
63
 21
63
  0
LINE
  8
0
 10
323.5
 11
323.573
 20
145
 21
145.464
  0
LINE
  8
0
 10
323.573
 11
323.786
 20
145.464
 21
145.882
  0
LINE
  8
0
 10
323.786
 11
324.118
 20
145.882
 21
146.214
  0
LINE
  8
0
 10
324.118
 11
324.536
 20
146.214
 21
146.427
  0
LINE
  8
0
 10
324.536
 11
325
 20
146.427
 21
146.5
  0
LINE
  8
0
 10
325
 11
325.464
 20
146.5
 21
146.427
  0
LINE
  8
0
 10
325.464
 11
325.882
 20
146.427
 21
146.214
  0
LINE
  8
0
 10
325.882
 11
326.214
 20
146.214
 21
145.882
  0
LINE
  8
0
 10
326.214
 11
326.427
 20
145.882
 21
145.464
  0
LINE
  8
0
 10
326.427
 11
326.5
 20
145.464
 21
145
  0
LINE
  8
0
 10
326.5
 11
326.427
 20
145
 21
144.536
  0
LINE
  8
0
 10
326.427
 11
326.214
 20
144.536
 21
144.118
  0
LINE
  8
0
 10
326.214
 11
325.882
 20
144.118
 21
143.786
  0
LINE
  8
0
 10
325.882
 11
325.464
 20
143.786
 21
143.573
  0
LINE
  8
0
 10
325.464
 11
325
 20
143.573
 21
143.5
  0
LINE
  8
0
 10
325
 11
324.536
 20
143.5
 21
143.573
  0
LINE
  8
0
 10
324.536
 11
324.118
 20
143.573
 21
143.786
  0
LINE
  8
0
 10
324.118
 11
323.786
 20
143.786
 21
144.118
  0
LINE
  8
0
 10
323.786
 11
323.573
 20
144.118
 21
144.536
  0
LINE
  8
0
 10
323.573
 11
323.5
 20
144.536
 21
145
  0
LINE
  8
0
 10
332.5
 11
332.573
 20
30
 21
30.464
  0
LINE
  8
0
 10
332.573
 11
332.786
 20
30.464
 21
30.882
  0
LINE
  8
0
 10
332.786
 11
333.118
 20
30.882
 21
31.214
  0
LINE
  8
0
 10
333.118
 11
333.536
 20
31.214
 21
31.427
  0
LINE
  8
0
 10
333.536
 11
334
 20
31.427
 21
31.5
  0
LINE
  8
0
 10
334
 11
334.464
 20
31.5
 21
31.427
  0
LINE
  8
0
 10
334.464
 11
334.882
 20
31.427
 21
31.214
  0
LINE
  8
0
 10
334.882
 11
335.214
 20
31.214
 21
30.882
  0
LINE
  8
0
 10
335.214
 11
335.427
 20
30.882
 21
30.464
  0
LINE
  8
0
 10
335.427
 11
335.5
 20
30.464
 21
30
  0
LINE
  8
0
 10
335.5
 11
335.427
 20
30
 21
29.536
  0
LINE
  8
0
 10
335.427
 11
335.214
 20
29.536
 21
29.118
  0
LINE
  8
0
 10
335.214
 11
334.882
 20
29.118
 21
28.786
  0
LINE
  8
0
 10
334.882
 11
334.464
 20
28.786
 21
28.573
  0
LINE
  8
0
 10
334.464
 11
334
 20
28.573
 21
28.5
  0
LINE
  8
0
 10
334
 11
333.536
 20
28.5
 21
28.573
  0
LINE
  8
0
 10
333.536
 11
333.118
 20
28.573
 21
28.786
  0
LINE
  8
0
 10
333.118
 11
332.786
 20
28.786
 21
29.118
  0
LINE
  8
0
 10
332.786
 11
332.573
 20
29.118
 21
29.536
  0
LINE
  8
0
 10
332.573
 11
332.5
 20
29.536
 21
30
  0
LINE
  8
0
 10
332.5
 11
332.573
 20
75
 21
75.464
  0
LINE
  8
0
 10
332.573
 11
332.786
 20
75.464
 21
75.882
  0
LINE
  8
0
 10
332.786
 11
333.118
 20
75.882
 21
76.214
  0
LINE
  8
0
 10
333.118
 11
333.536
 20
76.214
 21
76.427
  0
LINE
  8
0
 10
333.536
 11
334
 20
76.427
 21
76.5
  0
LINE
  8
0
 10
334
 11
334.464
 20
76.5
 21
76.427
  0
LINE
  8
0
 10
334.464
 11
334.882
 20
76.427
 21
76.214
  0
LINE
  8
0
 10
334.882
 11
335.214
 20
76.214
 21
75.882
  0
LINE
  8
0
 10
335.214
 11
335.427
 20
75.882
 21
75.464
  0
LINE
  8
0
 10
335.427
 11
335.5
 20
75.464
 21
75
  0
LINE
  8
0
 10
335.5
 11
335.427
 20
75
 21
74.536
  0
LINE
  8
0
 10
335.427
 11
335.214
 20
74.536
 21
74.118
  0
LINE
  8
0
 10
335.214
 11
334.882
 20
74.118
 21
73.786
  0
LINE
  8
0
 10
334.882
 11
334.464
 20
73.786
 21
73.573
  0
LINE
  8
0
 10
334.464
 11
334
 20
73.573
 21
73.5
  0
LINE
  8
0
 10
334
 11
333.536
 20
73.5
 21
73.573
  0
LINE
  8
0
 10
333.536
 11
333.118
 20
73.573
 21
73.786
  0
LINE
  8
0
 10
333.118
 11
332.786
 20
73.786
 21
74.118
  0
LINE
  8
0
 10
332.786
 11
332.573
 20
74.118
 21
74.536
  0
LINE
  8
0
 10
332.573
 11
332.5
 20
74.536
 21
75
  0
LINE
  8
0
 10
350
 11
350
 20
30
 21
130
  0
LINE
  8
0
 10
350
 11
350.027
 20
130
 21
131.047
  0
LINE
  8
0
 10
350.027
 11
350.11
 20
131.047
 21
132.091
  0
LINE
  8
0
 10
350.11
 11
350.246
 20
132.091
 21
133.129
  0
LINE
  8
0
 10
350.246
 11
350.437
 20
133.129
 21
134.158
  0
LINE
  8
0
 10
350.437
 11
350.681
 20
134.158
 21
135.176
  0
LINE
  8
0
 10
350.681
 11
350.979
 20
135.176
 21
136.18
  0
LINE
  8
0
 10
350.979
 11
351.328
 20
136.18
 21
137.167
  0
LINE
  8
0
 10
351.328
 11
351.729
 20
137.167
 21
138.135
  0
LINE
  8
0
 10
351.729
 11
352.18
 20
138.135
 21
139.08
  0
LINE
  8
0
 10
352.18
 11
352.679
 20
139.08
 21
140
  0
LINE
  8
0
 10
352.679
 11
353.227
 20
140
 21
140.893
  0
LINE
  8
0
 10
353.227
 11
353.82
 20
140.893
 21
141.756
  0
LINE
  8
0
 10
353.82
 11
354.457
 20
141.756
 21
142.586
  0
LINE
  8
0
 10
354.457
 11
355.137
 20
142.586
 21
143.383
  0
LINE
  8
0
 10
355.137
 11
355.858
 20
143.383
 21
144.142
  0
LINE
  8
0
 10
355.858
 11
356.617
 20
144.142
 21
144.863
  0
LINE
  8
0
 10
356.617
 11
357.414
 20
144.863
 21
145.543
  0
LINE
  8
0
 10
357.414
 11
358.244
 20
145.543
 21
146.18
  0
LINE
  8
0
 10
358.244
 11
359.107
 20
146.18
 21
146.773
  0
LINE
  8
0
 10
359.107
 11
360
 20
146.773
 21
147.321
  0
LINE
  8
0
 10
360
 11
360.92
 20
147.321
 21
147.82
  0
LINE
  8
0
 10
360.92
 11
361.865
 20
147.82
 21
148.271
  0
LINE
  8
0
 10
361.865
 11
362.833
 20
148.271
 21
148.672
  0
LINE
  8
0
 10
362.833
 11
363.82
 20
148.672
 21
149.021
  0
LINE
  8
0
 10
363.82
 11
364.824
 20
149.021
 21
149.319
  0
LINE
  8
0
 10
364.824
 11
365.842
 20
149.319
 21
149.563
  0
LINE
  8
0
 10
365.842
 11
366.871
 20
149.563
 21
149.754
  0
LINE
  8
0
 10
366.871
 11
367.909
 20
149.754
 21
149.89
  0
LINE
  8
0
 10
367.909
 11
368.953
 20
149.89
 21
149.973
  0
LINE
  8
0
 10
368.953
 11
370
 20
149.973
 21
150
  0
LINE
  8
0
 10
370
 11
371.047
 20
150
 21
149.973
  0
LINE
  8
0
 10
371.047
 11
372.091
 20
149.973
 21
149.89
  0
LINE
  8
0
 10
372.091
 11
373.129
 20
149.89
 21
149.754
  0
LINE
  8
0
 10
373.129
 11
374.158
 20
149.754
 21
149.563
  0
LINE
  8
0
 10
374.158
 11
375.176
 20
149.563
 21
149.319
  0
LINE
  8
0
 10
375.176
 11
376.18
 20
149.319
 21
149.021
  0
LINE
  8
0
 10
376.18
 11
377.167
 20
149.021
 21
148.672
  0
LINE
  8
0
 10
377.167
 11
378.135
 20
148.672
 21
148.271
  0
LINE
  8
0
 10
378.135
 11
379.08
 20
148.271
 21
147.82
  0
LINE
  8
0
 10
379.08
 11
380
 20
147.82
 21
147.321
  0
LINE
  8
0
 10
380
 11
380.893
 20
147.321
 21
146.773
  0
LINE
  8
0
 10
380.893
 11
381.756
 20
146.773
 21
146.18
  0
LINE
  8
0
 10
381.756
 11
382.586
 20
146.18
 21
145.543
  0
LINE
  8
0
 10
382.586
 11
383.383
 20
145.543
 21
144.863
  0
LINE
  8
0
 10
383.383
 11
384.142
 20
144.863
 21
144.142
  0
LINE
  8
0
 10
384.142
 11
384.863
 20
144.142
 21
143.383
  0
LINE
  8
0
 10
384.863
 11
385.543
 20
143.383
 21
142.586
  0
LINE
  8
0
 10
385.543
 11
386.18
 20
142.586
 21
141.756
  0
LINE
  8
0
 10
386.18
 11
386.773
 20
141.756
 21
140.893
  0
LINE
  8
0
 10
386.773
 11
387.321
 20
140.893
 21
140
  0
LINE
  8
0
 10
387.321
 11
387.82
 20
140
 21
139.08
  0
LINE
  8
0
 10
387.82
 11
388.271
 20
139.08
 21
138.135
  0
LINE
  8
0
 10
388.271
 11
388.672
 20
138.135
 21
137.167
  0
LINE
  8
0
 10
388.672
 11
389.021
 20
137.167
 21
136.18
  0
LINE
  8
0
 10
389.021
 11
389.319
 20
136.18
 21
135.176
  0
LINE
  8
0
 10
389.319
 11
389.563
 20
135.176
 21
134.158
  0
LINE
  8
0
 10
389.563
 11
389.754
 20
134.158
 21
133.129
  0
LINE
  8
0
 10
389.754
 11
389.89
 20
133.129
 21
132.091
  0
LINE
  8
0
 10
389.89
 11
389.973
 20
132.091
 21
131.047
  0
LINE
  8
0
 10
389.973
 11
390
 20
131.047
 21
130
  0
LINE
  8
0
 10
390
 11
390
 20
130
 21
30
  0
LINE
  8
0
 10
390
 11
389.973
 20
30
 21
28.953
  0
LINE
  8
0
 10
389.973
 11
389.89
 20
28.953
 21
27.909
  0
LINE
  8
0
 10
389.89
 11
389.754
 20
27.909
 21
26.871
  0
LINE
  8
0
 10
389.754
 11
389.563
 20
26.871
 21
25.842
  0
LINE
  8
0
 10
389.563
 11
389.319
 20
25.842
 21
24.824
  0
LINE
  8
0
 10
389.319
 11
389.021
 20
24.824
 21
23.82
  0
LINE
  8
0
 10
389.021
 11
388.672
 20
23.82
 21
22.833
  0
LINE
  8
0
 10
388.672
 11
388.271
 20
22.833
 21
21.865
  0
LINE
  8
0
 10
388.271
 11
387.82
 20
21.865
 21
20.92
  0
LINE
  8
0
 10
387.82
 11
387.321
 20
20.92
 21
20
  0
LINE
  8
0
 10
387.321
 11
386.773
 20
20
 21
19.107
  0
LINE
  8
0
 10
386.773
 11
386.18
 20
19.107
 21
18.244
  0
LINE
  8
0
 10
386.18
 11
385.543
 20
18.244
 21
17.414
  0
LINE
  8
0
 10
385.543
 11
384.863
 20
17.414
 21
16.617
  0
LINE
  8
0
 10
384.863
 11
384.142
 20
16.617
 21
15.858
  0
LINE
  8
0
 10
384.142
 11
383.383
 20
15.858
 21
15.137
  0
LINE
  8
0
 10
383.383
 11
382.586
 20
15.137
 21
14.457
  0
LINE
  8
0
 10
382.586
 11
381.756
 20
14.457
 21
13.82
  0
LINE
  8
0
 10
381.756
 11
380.893
 20
13.82
 21
13.227
  0
LINE
  8
0
 10
380.893
 11
380
 20
13.227
 21
12.679
  0
LINE
  8
0
 10
380
 11
379.08
 20
12.679
 21
12.18
  0
LINE
  8
0
 10
379.08
 11
378.135
 20
12.18
 21
11.729
  0
LINE
  8
0
 10
378.135
 11
377.167
 20
11.729
 21
11.328
  0
LINE
  8
0
 10
377.167
 11
376.18
 20
11.328
 21
10.979
  0
LINE
  8
0
 10
376.18
 11
375.176
 20
10.979
 21
10.681
  0
LINE
  8
0
 10
375.176
 11
374.158
 20
10.681
 21
10.437
  0
LINE
  8
0
 10
374.158
 11
373.129
 20
10.437
 21
10.246
  0
LINE
  8
0
 10
373.129
 11
372.091
 20
10.246
 21
10.11
  0
LINE
  8
0
 10
372.091
 11
371.047
 20
10.11
 21
10.027
  0
LINE
  8
0
 10
371.047
 11
370
 20
10.027
 21
10
  0
LINE
  8
0
 10
370
 11
368.953
 20
10
 21
10.027
  0
LINE
  8
0
 10
368.953
 11
367.909
 20
10.027
 21
10.11
  0
LINE
  8
0
 10
367.909
 11
366.871
 20
10.11
 21
10.246
  0
LINE
  8
0
 10
366.871
 11
365.842
 20
10.246
 21
10.437
  0
LINE
  8
0
 10
365.842
 11
364.824
 20
10.437
 21
10.681
  0
LINE
  8
0
 10
364.824
 11
363.82
 20
10.681
 21
10.979
  0
LINE
  8
0
 10
363.82
 11
362.833
 20
10.979
 21
11.328
  0
LINE
  8
0
 10
362.833
 11
361.865
 20
11.328
 21
11.729
  0
LINE
  8
0
 10
361.865
 11
360.92
 20
11.729
 21
12.18
  0
LINE
  8
0
 10
360.92
 11
360
 20
12.18
 21
12.679
  0
LINE
  8
0
 10
360
 11
359.107
 20
12.679
 21
13.227
  0
LINE
  8
0
 10
359.107
 11
358.244
 20
13.227
 21
13.82
  0
LINE
  8
0
 10
358.244
 11
357.414
 20
13.82
 21
14.457
  0
LINE
  8
0
 10
357.414
 11
356.617
 20
14.457
 21
15.137
  0
LINE
  8
0
 10
356.617
 11
355.858
 20
15.137
 21
15.858
  0
LINE
  8
0
 10
355.858
 11
355.137
 20
15.858
 21
16.617
  0
LINE
  8
0
 10
355.137
 11
354.457
 20
16.617
 21
17.414
  0
LINE
  8
0
 10
354.457
 11
353.82
 20
17.414
 21
18.244
  0
LINE
  8
0
 10
353.82
 11
353.227
 20
18.244
 21
19.107
  0
LINE
  8
0
 10
353.227
 11
352.679
 20
19.107
 21
20
  0
LINE
  8
0
 10
352.679
 11
352.18
 20
20
 21
20.92
  0
LINE
  8
0
 10
352.18
 11
351.729
 20
20.92
 21
21.865
  0
LINE
  8
0
 10
351.729
 11
351.328
 20
21.865
 21
22.833
  0
LINE
  8
0
 10
351.328
 11
350.979
 20
22.833
 21
23.82
  0
LINE
  8
0
 10
350.979
 11
350.681
 20
23.82
 21
24.824
  0
LINE
  8
0
 10
350.681
 11
350.437
 20
24.824
 21
25.842
  0
LINE
  8
0
 10
350.437
 11
350.246
 20
25.842
 21
26.871
  0
LINE
  8
0
 10
350.246
 11
350.11
 20
26.871
 21
27.909
  0
LINE
  8
0
 10
350.11
 11
350.027
 20
27.909
 21
28.953
  0
LINE
  8
0
 10
350.027
 11
350
 20
28.953
 21
30
  0
LINE
  8
0
 10
354.5
 11
354.573
 20
30
 21
30.464
  0
LINE
  8
0
 10
354.573
 11
354.786
 20
30.464
 21
30.882
  0
LINE
  8
0
 10
354.786
 11
355.118
 20
30.882
 21
31.214
  0
LINE
  8
0
 10
355.118
 11
355.536
 20
31.214
 21
31.427
  0
LINE
  8
0
 10
355.536
 11
356
 20
31.427
 21
31.5
  0
LINE
  8
0
 10
356
 11
356.464
 20
31.5
 21
31.427
  0
LINE
  8
0
 10
356.464
 11
356.882
 20
31.427
 21
31.214
  0
LINE
  8
0
 10
356.882
 11
357.214
 20
31.214
 21
30.882
  0
LINE
  8
0
 10
357.214
 11
357.427
 20
30.882
 21
30.464
  0
LINE
  8
0
 10
357.427
 11
357.5
 20
30.464
 21
30
  0
LINE
  8
0
 10
357.5
 11
357.427
 20
30
 21
29.536
  0
LINE
  8
0
 10
357.427
 11
357.214
 20
29.536
 21
29.118
  0
LINE
  8
0
 10
357.214
 11
356.882
 20
29.118
 21
28.786
  0
LINE
  8
0
 10
356.882
 11
356.464
 20
28.786
 21
28.573
  0
LINE
  8
0
 10
356.464
 11
356
 20
28.573
 21
28.5
  0
LINE
  8
0
 10
356
 11
355.536
 20
28.5
 21
28.573
  0
LINE
  8
0
 10
355.536
 11
355.118
 20
28.573
 21
28.786
  0
LINE
  8
0
 10
355.118
 11
354.786
 20
28.786
 21
29.118
  0
LINE
  8
0
 10
354.786
 11
354.573
 20
29.118
 21
29.536
  0
LINE
  8
0
 10
354.573
 11
354.5
 20
29.536
 21
30
  0
LINE
  8
0
 10
354.5
 11
354.573
 20
130
 21
130.464
  0
LINE
  8
0
 10
354.573
 11
354.786
 20
130.464
 21
130.882
  0
LINE
  8
0
 10
354.786
 11
355.118
 20
130.882
 21
131.214
  0
LINE
  8
0
 10
355.118
 11
355.536
 20
131.214
 21
131.427
  0
LINE
  8
0
 10
355.536
 11
356
 20
131.427
 21
131.5
  0
LINE
  8
0
 10
356
 11
356.464
 20
131.5
 21
131.427
  0
LINE
  8
0
 10
356.464
 11
356.882
 20
131.427
 21
131.214
  0
LINE
  8
0
 10
356.882
 11
357.214
 20
131.214
 21
130.882
  0
LINE
  8
0
 10
357.214
 11
357.427
 20
130.882
 21
130.464
  0
LINE
  8
0
 10
357.427
 11
357.5
 20
130.464
 21
130
  0
LINE
  8
0
 10
357.5
 11
357.427
 20
130
 21
129.536
  0
LINE
  8
0
 10
357.427
 11
357.214
 20
129.536
 21
129.118
  0
LINE
  8
0
 10
357.214
 11
356.882
 20
129.118
 21
128.786
  0
LINE
  8
0
 10
356.882
 11
356.464
 20
128.786
 21
128.573
  0
LINE
  8
0
 10
356.464
 11
356
 20
128.573
 21
128.5
  0
LINE
  8
0
 10
356
 11
355.536
 20
128.5
 21
128.573
  0
LINE
  8
0
 10
355.536
 11
355.118
 20
128.573
 21
128.786
  0
LINE
  8
0
 10
355.118
 11
354.786
 20
128.786
 21
129.118
  0
LINE
  8
0
 10
354.786
 11
354.573
 20
129.118
 21
129.536
  0
LINE
  8
0
 10
354.573
 11
354.5
 20
129.536
 21
130
  0
LINE
  8
0
 10
364.953
 11
364.953
 20
18
 21
42
  0
LINE
  8
0
 10
364.953
 11
375.047
 20
42
 21
42
  0
LINE
  8
0
 10
375.047
 11
375.047
 20
42
 21
18
  0
LINE
  8
0
 10
375.047
 11
364.953
 20
18
 21
18
  0
LINE
  8
0
 10
364.953
 11
364.953
 20
118
 21
142
  0
LINE
  8
0
 10
364.953
 11
375.047
 20
142
 21
142
  0
LINE
  8
0
 10
375.047
 11
375.047
 20
142
 21
118
  0
LINE
  8
0
 10
375.047
 11
364.953
 20
118
 21
118
  0
LINE
  8
0
 10
382.5
 11
382.573
 20
30
 21
30.464
  0
LINE
  8
0
 10
382.573
 11
382.786
 20
30.464
 21
30.882
  0
LINE
  8
0
 10
382.786
 11
383.118
 20
30.882
 21
31.214
  0
LINE
  8
0
 10
383.118
 11
383.536
 20
31.214
 21
31.427
  0
LINE
  8
0
 10
383.536
 11
384
 20
31.427
 21
31.5
  0
LINE
  8
0
 10
384
 11
384.464
 20
31.5
 21
31.427
  0
LINE
  8
0
 10
384.464
 11
384.882
 20
31.427
 21
31.214
  0
LINE
  8
0
 10
384.882
 11
385.214
 20
31.214
 21
30.882
  0
LINE
  8
0
 10
385.214
 11
385.427
 20
30.882
 21
30.464
  0
LINE
  8
0
 10
385.427
 11
385.5
 20
30.464
 21
30
  0
LINE
  8
0
 10
385.5
 11
385.427
 20
30
 21
29.536
  0
LINE
  8
0
 10
385.427
 11
385.214
 20
29.536
 21
29.118
  0
LINE
  8
0
 10
385.214
 11
384.882
 20
29.118
 21
28.786
  0
LINE
  8
0
 10
384.882
 11
384.464
 20
28.786
 21
28.573
  0
LINE
  8
0
 10
384.464
 11
384
 20
28.573
 21
28.5
  0
LINE
  8
0
 10
384
 11
383.536
 20
28.5
 21
28.573
  0
LINE
  8
0
 10
383.536
 11
383.118
 20
28.573
 21
28.786
  0
LINE
  8
0
 10
383.118
 11
382.786
 20
28.786
 21
29.118
  0
LINE
  8
0
 10
382.786
 11
382.573
 20
29.118
 21
29.536
  0
LINE
  8
0
 10
382.573
 11
382.5
 20
29.536
 21
30
  0
LINE
  8
0
 10
382.5
 11
382.573
 20
130
 21
130.464
  0
LINE
  8
0
 10
382.573
 11
382.786
 20
130.464
 21
130.882
  0
LINE
  8
0
 10
382.786
 11
383.118
 20
130.882
 21
131.214
  0
LINE
  8
0
 10
383.118
 11
383.536
 20
131.214
 21
131.427
  0
LINE
  8
0
 10
383.536
 11
384
 20
131.427
 21
131.5
  0
LINE
  8
0
 10
384
 11
384.464
 20
131.5
 21
131.427
  0
LINE
  8
0
 10
384.464
 11
384.882
 20
131.427
 21
131.214
  0
LINE
  8
0
 10
384.882
 11
385.214
 20
131.214
 21
130.882
  0
LINE
  8
0
 10
385.214
 11
385.427
 20
130.882
 21
130.464
  0
LINE
  8
0
 10
385.427
 11
385.5
 20
130.464
 21
130
  0
LINE
  8
0
 10
385.5
 11
385.427
 20
130
 21
129.536
  0
LINE
  8
0
 10
385.427
 11
385.214
 20
129.536
 21
129.118
  0
LINE
  8
0
 10
385.214
 11
384.882
 20
129.118
 21
128.786
  0
LINE
  8
0
 10
384.882
 11
384.464
 20
128.786
 21
128.573
  0
LINE
  8
0
 10
384.464
 11
384
 20
128.573
 21
128.5
  0
LINE
  8
0
 10
384
 11
383.536
 20
128.5
 21
128.573
  0
LINE
  8
0
 10
383.536
 11
383.118
 20
128.573
 21
128.786
  0
LINE
  8
0
 10
383.118
 11
382.786
 20
128.786
 21
129.118
  0
LINE
  8
0
 10
382.786
 11
382.573
 20
129.118
 21
129.536
  0
LINE
  8
0
 10
382.573
 11
382.5
 20
129.536
 21
130
  0
ENDSEC
  0
SECTION
  2
OBJECTS
  0
DICTIONARY
  0
ENDSEC
  0
EOF
