  0
SECTION
  2
BLOCKS
  0
ENDSEC
  0
SECTION
  2
ENTITIES
  0
LINE
  8
0
 10
4.02
 11
4.505
 20
100.495
 21
102.41
  0
LINE
  8
0
 10
4.505
 11
5.586
 20
102.41
 21
104.064
  0
LINE
  8
0
 10
5.586
 11
7.144
 20
104.064
 21
105.277
  0
LINE
  8
0
 10
7.144
 11
9.012
 20
105.277
 21
105.918
  0
LINE
  8
0
 10
9.012
 11
10.988
 20
105.918
 21
105.918
  0
LINE
  8
0
 10
10.988
 11
12.856
 20
105.918
 21
105.277
  0
LINE
  8
0
 10
12.856
 11
14.414
 20
105.277
 21
104.064
  0
LINE
  8
0
 10
14.414
 11
27.092
 20
104.064
 21
92.39
  0
LINE
  8
0
 10
27.092
 11
29.919
 20
92.39
 21
88.5
  0
LINE
  8
0
 10
29.919
 11
31.874
 20
88.5
 21
84.107
  0
LINE
  8
0
 10
31.874
 11
32.874
 20
84.107
 21
79.404
  0
LINE
  8
0
 10
32.874
 11
33
 20
79.404
 21
77
  0
LINE
  8
0
 10
33
 11
27
 20
77
 21
77
  0
LINE
  8
0
 10
27
 11
27
 20
77
 21
73.75
  0
LINE
  8
0
 10
27
 11
33
 20
73.75
 21
73.75
  0
LINE
  8
0
 10
33
 11
33
 20
73.75
 21
68.75
  0
LINE
  8
0
 10
33
 11
27
 20
68.75
 21
68.75
  0
LINE
  8
0
 10
27
 11
27
 20
68.75
 21
67
  0
LINE
  8
0
 10
27
 11
25.5
 20
67
 21
67
  0
LINE
  8
0
 10
25.5
 11
25.5
 20
67
 21
68.5
  0
LINE
  8
0
 10
25.5
 11
22.5
 20
68.5
 21
68.5
  0
LINE
  8
0
 10
22.5
 11
22.5
 20
68.5
 21
67
  0
LINE
  8
0
 10
22.5
 11
21
 20
67
 21
67
  0
LINE
  8
0
 10
21
 11
21
 20
67
 21
64
  0
LINE
  8
0
 10
21
 11
22.5
 20
64
 21
64
  0
LINE
  8
0
 10
22.5
 11
22.5
 20
64
 21
62.5
  0
LINE
  8
0
 10
22.5
 11
25.5
 20
62.5
 21
62.5
  0
LINE
  8
0
 10
25.5
 11
25.5
 20
62.5
 21
64
  0
LINE
  8
0
 10
25.5
 11
27
 20
64
 21
64
  0
LINE
  8
0
 10
27
 11
27
 20
64
 21
62.25
  0
LINE
  8
0
 10
27
 11
33
 20
62.25
 21
62.25
  0
LINE
  8
0
 10
33
 11
33
 20
62.25
 21
57.25
  0
LINE
  8
0
 10
33
 11
27
 20
57.25
 21
57.25
  0
LINE
  8
0
 10
27
 11
27
 20
57.25
 21
54.899
  0
LINE
  8
0
 10
27
 11
23.645
 20
54.899
 21
55.988
  0
LINE
  8
0
 10
23.645
 11
19.481
 20
55.988
 21
58.393
  0
LINE
  8
0
 10
19.481
 11
15.908
 20
58.393
 21
61.61
  0
LINE
  8
0
 10
15.908
 11
13.081
 20
61.61
 21
65.5
  0
LINE
  8
0
 10
13.081
 11
11.126
 20
65.5
 21
69.893
  0
LINE
  8
0
 10
11.126
 11
8.417
 20
69.893
 21
81.067
  0
LINE
  8
0
 10
8.417
 11
9.6
 20
81.067
 21
80.75
  0
LINE
  8
0
 10
9.6
 11
11.425
 20
80.75
 21
81.239
  0
LINE
  8
0
 10
11.425
 11
12.761
 20
81.239
 21
82.575
  0
LINE
  8
0
 10
12.761
 11
13.25
 20
82.575
 21
84.4
  0
LINE
  8
0
 10
13.25
 11
12.761
 20
84.4
 21
86.225
  0
LINE
  8
0
 10
12.761
 11
11.425
 20
86.225
 21
87.561
  0
LINE
  8
0
 10
11.425
 11
9.6
 20
87.561
 21
88.05
  0
LINE
  8
0
 10
9.6
 11
7.775
 20
88.05
 21
87.561
  0
LINE
  8
0
 10
7.775
 11
7.025
 20
87.561
 21
86.811
  0
LINE
  8
0
 10
7.025
 11
4.184
 20
86.811
 21
98.527
  0
LINE
  8
0
 10
4.184
 11
4.02
 20
98.527
 21
100.495
  0
LINE
  8
0
 10
6.5
 11
6.5
 20
20
 21
23.25
  0
LINE
  8
0
 10
6.5
 11
12.75
 20
23.25
 21
23.25
  0
LINE
  8
0
 10
12.75
 11
12.75
 20
23.25
 21
28.25
  0
LINE
  8
0
 10
12.75
 11
6.5
 20
28.25
 21
28.25
  0
LINE
  8
0
 10
6.5
 11
6.5
 20
28.25
 21
34.75
  0
LINE
  8
0
 10
6.5
 11
12.75
 20
34.75
 21
34.75
  0
LINE
  8
0
 10
12.75
 11
12.75
 20
34.75
 21
39.75
  0
LINE
  8
0
 10
12.75
 11
6.5
 20
39.75
 21
39.75
  0
LINE
  8
0
 10
6.5
 11
6.5
 20
39.75
 21
43
  0
LINE
  8
0
 10
6.5
 11
6.881
 20
43
 21
44.913
  0
LINE
  8
0
 10
6.881
 11
7.964
 20
44.913
 21
46.536
  0
LINE
  8
0
 10
7.964
 11
9.587
 20
46.536
 21
47.619
  0
LINE
  8
0
 10
9.587
 11
11.5
 20
47.619
 21
48
  0
LINE
  8
0
 10
11.5
 11
32.5
 20
48
 21
48
  0
LINE
  8
0
 10
32.5
 11
34.413
 20
48
 21
47.619
  0
LINE
  8
0
 10
34.413
 11
36.036
 20
47.619
 21
46.536
  0
LINE
  8
0
 10
36.036
 11
37.119
 20
46.536
 21
44.913
  0
LINE
  8
0
 10
37.119
 11
37.5
 20
44.913
 21
43
  0
LINE
  8
0
 10
37.5
 11
37.5
 20
43
 21
39.75
  0
LINE
  8
0
 10
37.5
 11
31.25
 20
39.75
 21
39.75
  0
LINE
  8
0
 10
31.25
 11
31.25
 20
39.75
 21
34.75
  0
LINE
  8
0
 10
31.25
 11
37.5
 20
34.75
 21
34.75
  0
LINE
  8
0
 10
37.5
 11
37.5
 20
34.75
 21
28.25
  0
LINE
  8
0
 10
37.5
 11
31.25
 20
28.25
 21
28.25
  0
LINE
  8
0
 10
31.25
 11
31.25
 20
28.25
 21
23.25
  0
LINE
  8
0
 10
31.25
 11
37.5
 20
23.25
 21
23.25
  0
LINE
  8
0
 10
37.5
 11
37.5
 20
23.25
 21
20
  0
LINE
  8
0
 10
37.5
 11
6.5
 20
20
 21
20
  0
LINE
  8
0
 10
7
 11
7.062
 20
10
 21
10.782
  0
LINE
  8
0
 10
7.062
 11
7.245
 20
10.782
 21
11.545
  0
LINE
  8
0
 10
7.245
 11
7.545
 20
11.545
 21
12.27
  0
LINE
  8
0
 10
7.545
 11
7.955
 20
12.27
 21
12.939
  0
LINE
  8
0
 10
7.955
 11
8.464
 20
12.939
 21
13.536
  0
LINE
  8
0
 10
8.464
 11
9.061
 20
13.536
 21
14.045
  0
LINE
  8
0
 10
9.061
 11
9.73
 20
14.045
 21
14.455
  0
LINE
  8
0
 10
9.73
 11
10.455
 20
14.455
 21
14.755
  0
LINE
  8
0
 10
10.455
 11
11.218
 20
14.755
 21
14.938
  0
LINE
  8
0
 10
11.218
 11
12
 20
14.938
 21
15
  0
LINE
  8
0
 10
12
 11
45.5
 20
15
 21
15
  0
LINE
  8
0
 10
45.5
 11
45.5
 20
15
 21
32.064
  0
LINE
  8
0
 10
45.5
 11
45.76
 20
32.064
 21
32.196
  0
LINE
  8
0
 10
45.76
 11
46.349
 20
32.196
 21
32.786
  0
LINE
  8
0
 10
46.349
 11
46.534
 20
32.786
 21
32.601
  0
LINE
  8
0
 10
46.534
 11
49.601
 20
32.601
 21
31.038
  0
LINE
  8
0
 10
49.601
 11
53
 20
31.038
 21
30.5
  0
LINE
  8
0
 10
53
 11
56.399
 20
30.5
 21
31.038
  0
LINE
  8
0
 10
56.399
 11
59.466
 20
31.038
 21
32.601
  0
LINE
  8
0
 10
59.466
 11
61.899
 20
32.601
 21
35.034
  0
LINE
  8
0
 10
61.899
 11
63.462
 20
35.034
 21
38.101
  0
LINE
  8
0
 10
63.462
 11
64
 20
38.101
 21
41.5
  0
LINE
  8
0
 10
64
 11
63.462
 20
41.5
 21
44.899
  0
LINE
  8
0
 10
63.462
 11
61.899
 20
44.899
 21
47.966
  0
LINE
  8
0
 10
61.899
 11
59.466
 20
47.966
 21
50.399
  0
LINE
  8
0
 10
59.466
 11
56.399
 20
50.399
 21
51.962
  0
LINE
  8
0
 10
56.399
 11
53
 20
51.962
 21
52.5
  0
LINE
  8
0
 10
53
 11
49.601
 20
52.5
 21
51.962
  0
LINE
  8
0
 10
49.601
 11
46.534
 20
51.962
 21
50.399
  0
LINE
  8
0
 10
46.534
 11
46.35
 20
50.399
 21
50.215
  0
LINE
  8
0
 10
46.35
 11
45.76
 20
50.215
 21
50.804
  0
LINE
  8
0
 10
45.76
 11
44.708
 20
50.804
 21
51.34
  0
LINE
  8
0
 10
44.708
 11
40.073
 20
51.34
 21
58.237
  0
LINE
  8
0
 10
40.073
 11
39.759
 20
58.237
 21
58.78
  0
LINE
  8
0
 10
39.759
 11
39.566
 20
58.78
 21
59.376
  0
LINE
  8
0
 10
39.566
 11
39.5
 20
59.376
 21
60
  0
LINE
  8
0
 10
39.5
 11
39.5
 20
60
 21
69
  0
LINE
  8
0
 10
39.5
 11
39.566
 20
69
 21
69.624
  0
LINE
  8
0
 10
39.566
 11
39.759
 20
69.624
 21
70.22
  0
LINE
  8
0
 10
39.759
 11
40.073
 20
70.22
 21
70.763
  0
LINE
  8
0
 10
40.073
 11
40.493
 20
70.763
 21
71.229
  0
LINE
  8
0
 10
40.493
 11
41
 20
71.229
 21
71.598
  0
LINE
  8
0
 10
41
 11
41.573
 20
71.598
 21
71.853
  0
LINE
  8
0
 10
41.573
 11
42.186
 20
71.853
 21
71.984
  0
LINE
  8
0
 10
42.186
 11
42.5
 20
71.984
 21
72
  0
LINE
  8
0
 10
42.5
 11
47.5
 20
72
 21
72
  0
LINE
  8
0
 10
47.5
 11
47.814
 20
72
 21
71.984
  0
LINE
  8
0
 10
47.814
 11
48.427
 20
71.984
 21
71.853
  0
LINE
  8
0
 10
48.427
 11
49
 20
71.853
 21
71.598
  0
LINE
  8
0
 10
49
 11
49.507
 20
71.598
 21
71.229
  0
LINE
  8
0
 10
49.507
 11
49.927
 20
71.229
 21
70.763
  0
LINE
  8
0
 10
49.927
 11
50.241
 20
70.763
 21
70.22
  0
LINE
  8
0
 10
50.241
 11
50.434
 20
70.22
 21
69.624
  0
LINE
  8
0
 10
50.434
 11
50.5
 20
69.624
 21
69
  0
LINE
  8
0
 10
50.5
 11
50.5
 20
69
 21
63
  0
LINE
  8
0
 10
50.5
 11
65
 20
63
 21
63
  0
LINE
  8
0
 10
65
 11
65
 20
63
 21
51.953
  0
LINE
  8
0
 10
65
 11
65.944
 20
51.953
 21
50.905
  0
LINE
  8
0
 10
65.944
 11
67.617
 20
50.905
 21
48.008
  0
LINE
  8
0
 10
67.617
 11
68.65
 20
48.008
 21
44.827
  0
LINE
  8
0
 10
68.65
 11
69
 20
44.827
 21
41.5
  0
LINE
  8
0
 10
69
 11
68.65
 20
41.5
 21
38.173
  0
LINE
  8
0
 10
68.65
 11
67.617
 20
38.173
 21
34.992
  0
LINE
  8
0
 10
67.617
 11
65.944
 20
34.992
 21
32.095
  0
LINE
  8
0
 10
65.944
 11
65
 20
32.095
 21
31.047
  0
LINE
  8
0
 10
65
 11
65
 20
31.047
 21
15
  0
LINE
  8
0
 10
65
 11
88
 20
15
 21
15
  0
LINE
  8
0
 10
88
 11
88.782
 20
15
 21
14.938
  0
LINE
  8
0
 10
88.782
 11
89.545
 20
14.938
 21
14.755
  0
LINE
  8
0
 10
89.545
 11
90.27
 20
14.755
 21
14.455
  0
LINE
  8
0
 10
90.27
 11
90.939
 20
14.455
 21
14.045
  0
LINE
  8
0
 10
90.939
 11
91.536
 20
14.045
 21
13.536
  0
LINE
  8
0
 10
91.536
 11
92.045
 20
13.536
 21
12.939
  0
LINE
  8
0
 10
92.045
 11
92.455
 20
12.939
 21
12.27
  0
LINE
  8
0
 10
92.455
 11
92.755
 20
12.27
 21
11.545
  0
LINE
  8
0
 10
92.755
 11
92.938
 20
11.545
 21
10.782
  0
LINE
  8
0
 10
92.938
 11
93
 20
10.782
 21
10
  0
LINE
  8
0
 10
93
 11
92.938
 20
10
 21
9.218
  0
LINE
  8
0
 10
92.938
 11
92.755
 20
9.218
 21
8.455
  0
LINE
  8
0
 10
92.755
 11
92.455
 20
8.455
 21
7.73
  0
LINE
  8
0
 10
92.455
 11
92.045
 20
7.73
 21
7.061
  0
LINE
  8
0
 10
92.045
 11
91.536
 20
7.061
 21
6.464
  0
LINE
  8
0
 10
91.536
 11
90.939
 20
6.464
 21
5.955
  0
LINE
  8
0
 10
90.939
 11
90.27
 20
5.955
 21
5.545
  0
LINE
  8
0
 10
90.27
 11
89.545
 20
5.545
 21
5.245
  0
LINE
  8
0
 10
89.545
 11
88.782
 20
5.245
 21
5.062
  0
LINE
  8
0
 10
88.782
 11
88
 20
5.062
 21
5
  0
LINE
  8
0
 10
88
 11
12
 20
5
 21
5
  0
LINE
  8
0
 10
12
 11
11.218
 20
5
 21
5.062
  0
LINE
  8
0
 10
11.218
 11
10.455
 20
5.062
 21
5.245
  0
LINE
  8
0
 10
10.455
 11
9.73
 20
5.245
 21
5.545
  0
LINE
  8
0
 10
9.73
 11
9.061
 20
5.545
 21
5.955
  0
LINE
  8
0
 10
9.061
 11
8.464
 20
5.955
 21
6.464
  0
LINE
  8
0
 10
8.464
 11
7.955
 20
6.464
 21
7.061
  0
LINE
  8
0
 10
7.955
 11
7.545
 20
7.061
 21
7.73
  0
LINE
  8
0
 10
7.545
 11
7.245
 20
7.73
 21
8.455
  0
LINE
  8
0
 10
7.245
 11
7.062
 20
8.455
 21
9.218
  0
LINE
  8
0
 10
7.062
 11
7
 20
9.218
 21
10
  0
LINE
  8
0
 10
8
 11
8.073
 20
31.5
 21
31.964
  0
LINE
  8
0
 10
8.073
 11
8.286
 20
31.964
 21
32.382
  0
LINE
  8
0
 10
8.286
 11
8.618
 20
32.382
 21
32.714
  0
LINE
  8
0
 10
8.618
 11
9.036
 20
32.714
 21
32.927
  0
LINE
  8
0
 10
9.036
 11
9.5
 20
32.927
 21
33
  0
LINE
  8
0
 10
9.5
 11
9.964
 20
33
 21
32.927
  0
LINE
  8
0
 10
9.964
 11
10.382
 20
32.927
 21
32.714
  0
LINE
  8
0
 10
10.382
 11
10.714
 20
32.714
 21
32.382
  0
LINE
  8
0
 10
10.714
 11
10.927
 20
32.382
 21
31.964
  0
LINE
  8
0
 10
10.927
 11
11
 20
31.964
 21
31.5
  0
LINE
  8
0
 10
11
 11
10.927
 20
31.5
 21
31.036
  0
LINE
  8
0
 10
10.927
 11
10.714
 20
31.036
 21
30.618
  0
LINE
  8
0
 10
10.714
 11
10.382
 20
30.618
 21
30.286
  0
LINE
  8
0
 10
10.382
 11
9.964
 20
30.286
 21
30.073
  0
LINE
  8
0
 10
9.964
 11
9.5
 20
30.073
 21
30
  0
LINE
  8
0
 10
9.5
 11
9.036
 20
30
 21
30.073
  0
LINE
  8
0
 10
9.036
 11
8.618
 20
30.073
 21
30.286
  0
LINE
  8
0
 10
8.618
 11
8.286
 20
30.286
 21
30.618
  0
LINE
  8
0
 10
8.286
 11
8.073
 20
30.618
 21
31.036
  0
LINE
  8
0
 10
8.073
 11
8
 20
31.036
 21
31.5
  0
LINE
  8
0
 10
8.5
 11
8.573
 20
100
 21
100.464
  0
LINE
  8
0
 10
8.573
 11
8.786
 20
100.464
 21
100.882
  0
LINE
  8
0
 10
8.786
 11
9.118
 20
100.882
 21
101.214
  0
LINE
  8
0
 10
9.118
 11
9.536
 20
101.214
 21
101.427
  0
LINE
  8
0
 10
9.536
 11
10
 20
101.427
 21
101.5
  0
LINE
  8
0
 10
10
 11
10.464
 20
101.5
 21
101.427
  0
LINE
  8
0
 10
10.464
 11
10.882
 20
101.427
 21
101.214
  0
LINE
  8
0
 10
10.882
 11
11.214
 20
101.214
 21
100.882
  0
LINE
  8
0
 10
11.214
 11
11.427
 20
100.882
 21
100.464
  0
LINE
  8
0
 10
11.427
 11
11.5
 20
100.464
 21
100
  0
LINE
  8
0
 10
11.5
 11
11.427
 20
100
 21
99.536
  0
LINE
  8
0
 10
11.427
 11
11.214
 20
99.536
 21
99.118
  0
LINE
  8
0
 10
11.214
 11
10.882
 20
99.118
 21
98.786
  0
LINE
  8
0
 10
10.882
 11
10.464
 20
98.786
 21
98.573
  0
LINE
  8
0
 10
10.464
 11
10
 20
98.573
 21
98.5
  0
LINE
  8
0
 10
10
 11
9.536
 20
98.5
 21
98.573
  0
LINE
  8
0
 10
9.536
 11
9.118
 20
98.573
 21
98.786
  0
LINE
  8
0
 10
9.118
 11
8.786
 20
98.786
 21
99.118
  0
LINE
  8
0
 10
8.786
 11
8.573
 20
99.118
 21
99.536
  0
LINE
  8
0
 10
8.573
 11
8.5
 20
99.536
 21
100
  0
LINE
  8
0
 10
10.5
 11
10.573
 20
10
 21
10.464
  0
LINE
  8
0
 10
10.573
 11
10.786
 20
10.464
 21
10.882
  0
LINE
  8
0
 10
10.786
 11
11.118
 20
10.882
 21
11.214
  0
LINE
  8
0
 10
11.118
 11
11.536
 20
11.214
 21
11.427
  0
LINE
  8
0
 10
11.536
 11
12
 20
11.427
 21
11.5
  0
LINE
  8
0
 10
12
 11
12.464
 20
11.5
 21
11.427
  0
LINE
  8
0
 10
12.464
 11
12.882
 20
11.427
 21
11.214
  0
LINE
  8
0
 10
12.882
 11
13.214
 20
11.214
 21
10.882
  0
LINE
  8
0
 10
13.214
 11
13.427
 20
10.882
 21
10.464
  0
LINE
  8
0
 10
13.427
 11
13.5
 20
10.464
 21
10
  0
LINE
  8
0
 10
13.5
 11
13.427
 20
10
 21
9.536
  0
LINE
  8
0
 10
13.427
 11
13.214
 20
9.536
 21
9.118
  0
LINE
  8
0
 10
13.214
 11
12.882
 20
9.118
 21
8.786
  0
LINE
  8
0
 10
12.882
 11
12.464
 20
8.786
 21
8.573
  0
LINE
  8
0
 10
12.464
 11
12
 20
8.573
 21
8.5
  0
LINE
  8
0
 10
12
 11
11.536
 20
8.5
 21
8.573
  0
LINE
  8
0
 10
11.536
 11
11.118
 20
8.573
 21
8.786
  0
LINE
  8
0
 10
11.118
 11
10.786
 20
8.786
 21
9.118
  0
LINE
  8
0
 10
10.786
 11
10.573
 20
9.118
 21
9.536
  0
LINE
  8
0
 10
10.573
 11
10.5
 20
9.536
 21
10
  0
LINE
  8
0
 10
15
 11
15
 20
38
 21
43
  0
LINE
  8
0
 10
15
 11
15.098
 20
43
 21
43.618
  0
LINE
  8
0
 10
15.098
 11
15.382
 20
43.618
 21
44.176
  0
LINE
  8
0
 10
15.382
 11
15.824
 20
44.176
 21
44.618
  0
LINE
  8
0
 10
15.824
 11
16.382
 20
44.618
 21
44.902
  0
LINE
  8
0
 10
16.382
 11
17
 20
44.902
 21
45
  0
LINE
  8
0
 10
17
 11
17.618
 20
45
 21
44.902
  0
LINE
  8
0
 10
17.618
 11
18.176
 20
44.902
 21
44.618
  0
LINE
  8
0
 10
18.176
 11
18.618
 20
44.618
 21
44.176
  0
LINE
  8
0
 10
18.618
 11
18.902
 20
44.176
 21
43.618
  0
LINE
  8
0
 10
18.902
 11
19
 20
43.618
 21
43
  0
LINE
  8
0
 10
19
 11
19
 20
43
 21
38
  0
LINE
  8
0
 10
19
 11
18.902
 20
38
 21
37.382
  0
LINE
  8
0
 10
18.902
 11
18.618
 20
37.382
 21
36.824
  0
LINE
  8
0
 10
18.618
 11
18.176
 20
36.824
 21
36.382
  0
LINE
  8
0
 10
18.176
 11
17.618
 20
36.382
 21
36.098
  0
LINE
  8
0
 10
17.618
 11
17
 20
36.098
 21
36
  0
LINE
  8
0
 10
17
 11
16.382
 20
36
 21
36.098
  0
LINE
  8
0
 10
16.382
 11
15.824
 20
36.098
 21
36.382
  0
LINE
  8
0
 10
15.824
 11
15.382
 20
36.382
 21
36.824
  0
LINE
  8
0
 10
15.382
 11
15.098
 20
36.824
 21
37.382
  0
LINE
  8
0
 10
15.098
 11
15
 20
37.382
 21
38
  0
LINE
  8
0
 10
23.5
 11
23.573
 20
10
 21
10.464
  0
LINE
  8
0
 10
23.573
 11
23.786
 20
10.464
 21
10.882
  0
LINE
  8
0
 10
23.786
 11
24.118
 20
10.882
 21
11.214
  0
LINE
  8
0
 10
24.118
 11
24.536
 20
11.214
 21
11.427
  0
LINE
  8
0
 10
24.536
 11
25
 20
11.427
 21
11.5
  0
LINE
  8
0
 10
25
 11
25.464
 20
11.5
 21
11.427
  0
LINE
  8
0
 10
25.464
 11
25.882
 20
11.427
 21
11.214
  0
LINE
  8
0
 10
25.882
 11
26.214
 20
11.214
 21
10.882
  0
LINE
  8
0
 10
26.214
 11
26.427
 20
10.882
 21
10.464
  0
LINE
  8
0
 10
26.427
 11
26.5
 20
10.464
 21
10
  0
LINE
  8
0
 10
26.5
 11
26.427
 20
10
 21
9.536
  0
LINE
  8
0
 10
26.427
 11
26.214
 20
9.536
 21
9.118
  0
LINE
  8
0
 10
26.214
 11
25.882
 20
9.118
 21
8.786
  0
LINE
  8
0
 10
25.882
 11
25.464
 20
8.786
 21
8.573
  0
LINE
  8
0
 10
25.464
 11
25
 20
8.573
 21
8.5
  0
LINE
  8
0
 10
25
 11
24.536
 20
8.5
 21
8.573
  0
LINE
  8
0
 10
24.536
 11
24.118
 20
8.573
 21
8.786
  0
LINE
  8
0
 10
24.118
 11
23.786
 20
8.786
 21
9.118
  0
LINE
  8
0
 10
23.786
 11
23.573
 20
9.118
 21
9.536
  0
LINE
  8
0
 10
23.573
 11
23.5
 20
9.536
 21
10
  0
LINE
  8
0
 10
25
 11
25
 20
38
 21
43
  0
LINE
  8
0
 10
25
 11
25.098
 20
43
 21
43.618
  0
LINE
  8
0
 10
25.098
 11
25.382
 20
43.618
 21
44.176
  0
LINE
  8
0
 10
25.382
 11
25.824
 20
44.176
 21
44.618
  0
LINE
  8
0
 10
25.824
 11
26.382
 20
44.618
 21
44.902
  0
LINE
  8
0
 10
26.382
 11
27
 20
44.902
 21
45
  0
LINE
  8
0
 10
27
 11
27.618
 20
45
 21
44.902
  0
LINE
  8
0
 10
27.618
 11
28.176
 20
44.902
 21
44.618
  0
LINE
  8
0
 10
28.176
 11
28.618
 20
44.618
 21
44.176
  0
LINE
  8
0
 10
28.618
 11
28.902
 20
44.176
 21
43.618
  0
LINE
  8
0
 10
28.902
 11
29
 20
43.618
 21
43
  0
LINE
  8
0
 10
29
 11
29
 20
43
 21
38
  0
LINE
  8
0
 10
29
 11
28.902
 20
38
 21
37.382
  0
LINE
  8
0
 10
28.902
 11
28.618
 20
37.382
 21
36.824
  0
LINE
  8
0
 10
28.618
 11
28.176
 20
36.824
 21
36.382
  0
LINE
  8
0
 10
28.176
 11
27.618
 20
36.382
 21
36.098
  0
LINE
  8
0
 10
27.618
 11
27
 20
36.098
 21
36
  0
LINE
  8
0
 10
27
 11
26.382
 20
36
 21
36.098
  0
LINE
  8
0
 10
26.382
 11
25.824
 20
36.098
 21
36.382
  0
LINE
  8
0
 10
25.824
 11
25.382
 20
36.382
 21
36.824
  0
LINE
  8
0
 10
25.382
 11
25.098
 20
36.824
 21
37.382
  0
LINE
  8
0
 10
25.098
 11
25
 20
37.382
 21
38
  0
LINE
  8
0
 10
33
 11
33.073
 20
31.5
 21
31.964
  0
LINE
  8
0
 10
33.073
 11
33.286
 20
31.964
 21
32.382
  0
LINE
  8
0
 10
33.286
 11
33.618
 20
32.382
 21
32.714
  0
LINE
  8
0
 10
33.618
 11
34.036
 20
32.714
 21
32.927
  0
LINE
  8
0
 10
34.036
 11
34.5
 20
32.927
 21
33
  0
LINE
  8
0
 10
34.5
 11
34.964
 20
33
 21
32.927
  0
LINE
  8
0
 10
34.964
 11
35.382
 20
32.927
 21
32.714
  0
LINE
  8
0
 10
35.382
 11
35.714
 20
32.714
 21
32.382
  0
LINE
  8
0
 10
35.714
 11
35.927
 20
32.382
 21
31.964
  0
LINE
  8
0
 10
35.927
 11
36
 20
31.964
 21
31.5
  0
LINE
  8
0
 10
36
 11
35.927
 20
31.5
 21
31.036
  0
LINE
  8
0
 10
35.927
 11
35.714
 20
31.036
 21
30.618
  0
LINE
  8
0
 10
35.714
 11
35.382
 20
30.618
 21
30.286
  0
LINE
  8
0
 10
35.382
 11
34.964
 20
30.286
 21
30.073
  0
LINE
  8
0
 10
34.964
 11
34.5
 20
30.073
 21
30
  0
LINE
  8
0
 10
34.5
 11
34.036
 20
30
 21
30.073
  0
LINE
  8
0
 10
34.036
 11
33.618
 20
30.073
 21
30.286
  0
LINE
  8
0
 10
33.618
 11
33.286
 20
30.286
 21
30.618
  0
LINE
  8
0
 10
33.286
 11
33.073
 20
30.618
 21
31.036
  0
LINE
  8
0
 10
33.073
 11
33
 20
31.036
 21
31.5
  0
LINE
  8
0
 10
40
 11
40
 20
74
 21
88.415
  0
LINE
  8
0
 10
40
 11
41.282
 20
88.415
 21
88.977
  0
LINE
  8
0
 10
41.282
 11
42.735
 20
88.977
 21
90.315
  0
LINE
  8
0
 10
42.735
 11
43.675
 20
90.315
 21
92.052
  0
LINE
  8
0
 10
43.675
 11
44
 20
92.052
 21
94
  0
LINE
  8
0
 10
44
 11
43.675
 20
94
 21
95.948
  0
LINE
  8
0
 10
43.675
 11
42.735
 20
95.948
 21
97.685
  0
LINE
  8
0
 10
42.735
 11
41.282
 20
97.685
 21
99.023
  0
LINE
  8
0
 10
41.282
 11
40.107
 20
99.023
 21
99.538
  0
LINE
  8
0
 10
40.107
 11
40.381
 20
99.538
 21
100.913
  0
LINE
  8
0
 10
40.381
 11
41.464
 20
100.913
 21
102.536
  0
LINE
  8
0
 10
41.464
 11
43.087
 20
102.536
 21
103.619
  0
LINE
  8
0
 10
43.087
 11
45
 20
103.619
 21
104
  0
LINE
  8
0
 10
45
 11
65
 20
104
 21
104
  0
LINE
  8
0
 10
65
 11
66.913
 20
104
 21
103.619
  0
LINE
  8
0
 10
66.913
 11
68.536
 20
103.619
 21
102.536
  0
LINE
  8
0
 10
68.536
 11
69.619
 20
102.536
 21
100.913
  0
LINE
  8
0
 10
69.619
 11
69.886
 20
100.913
 21
99.57
  0
LINE
  8
0
 10
69.886
 11
69.59
 20
99.57
 21
99.495
  0
LINE
  8
0
 10
69.59
 11
67.936
 20
99.495
 21
98.414
  0
LINE
  8
0
 10
67.936
 11
66.723
 20
98.414
 21
96.856
  0
LINE
  8
0
 10
66.723
 11
66.082
 20
96.856
 21
94.988
  0
LINE
  8
0
 10
66.082
 11
66.082
 20
94.988
 21
93.012
  0
LINE
  8
0
 10
66.082
 11
66.723
 20
93.012
 21
91.144
  0
LINE
  8
0
 10
66.723
 11
67.936
 20
91.144
 21
89.586
  0
LINE
  8
0
 10
67.936
 11
69.59
 20
89.586
 21
88.505
  0
LINE
  8
0
 10
69.59
 11
70
 20
88.505
 21
88.401
  0
LINE
  8
0
 10
70
 11
70
 20
88.401
 21
74
  0
LINE
  8
0
 10
70
 11
40
 20
74
 21
74
  0
LINE
  8
0
 10
41.2
 11
41.273
 20
10
 21
10.464
  0
LINE
  8
0
 10
41.273
 11
41.486
 20
10.464
 21
10.882
  0
LINE
  8
0
 10
41.486
 11
41.818
 20
10.882
 21
11.214
  0
LINE
  8
0
 10
41.818
 11
42.236
 20
11.214
 21
11.427
  0
LINE
  8
0
 10
42.236
 11
42.7
 20
11.427
 21
11.5
  0
LINE
  8
0
 10
42.7
 11
43.164
 20
11.5
 21
11.427
  0
LINE
  8
0
 10
43.164
 11
43.582
 20
11.427
 21
11.214
  0
LINE
  8
0
 10
43.582
 11
43.914
 20
11.214
 21
10.882
  0
LINE
  8
0
 10
43.914
 11
44.127
 20
10.882
 21
10.464
  0
LINE
  8
0
 10
44.127
 11
44.2
 20
10.464
 21
10
  0
LINE
  8
0
 10
44.2
 11
44.127
 20
10
 21
9.536
  0
LINE
  8
0
 10
44.127
 11
43.914
 20
9.536
 21
9.118
  0
LINE
  8
0
 10
43.914
 11
43.582
 20
9.118
 21
8.786
  0
LINE
  8
0
 10
43.582
 11
43.164
 20
8.786
 21
8.573
  0
LINE
  8
0
 10
43.164
 11
42.7
 20
8.573
 21
8.5
  0
LINE
  8
0
 10
42.7
 11
42.236
 20
8.5
 21
8.573
  0
LINE
  8
0
 10
42.236
 11
41.818
 20
8.573
 21
8.786
  0
LINE
  8
0
 10
41.818
 11
41.486
 20
8.786
 21
9.118
  0
LINE
  8
0
 10
41.486
 11
41.273
 20
9.118
 21
9.536
  0
LINE
  8
0
 10
41.273
 11
41.2
 20
9.536
 21
10
  0
LINE
  8
0
 10
47
 11
47.062
 20
110
 21
110.782
  0
LINE
  8
0
 10
47.062
 11
47.245
 20
110.782
 21
111.545
  0
LINE
  8
0
 10
47.245
 11
47.545
 20
111.545
 21
112.27
  0
LINE
  8
0
 10
47.545
 11
47.955
 20
112.27
 21
112.939
  0
LINE
  8
0
 10
47.955
 11
48.464
 20
112.939
 21
113.536
  0
LINE
  8
0
 10
48.464
 11
49.061
 20
113.536
 21
114.045
  0
LINE
  8
0
 10
49.061
 11
49.73
 20
114.045
 21
114.455
  0
LINE
  8
0
 10
49.73
 11
50.455
 20
114.455
 21
114.755
  0
LINE
  8
0
 10
50.455
 11
51.218
 20
114.755
 21
114.938
  0
LINE
  8
0
 10
51.218
 11
52
 20
114.938
 21
115
  0
LINE
  8
0
 10
52
 11
128
 20
115
 21
115
  0
LINE
  8
0
 10
128
 11
128.782
 20
115
 21
114.938
  0
LINE
  8
0
 10
128.782
 11
129.545
 20
114.938
 21
114.755
  0
LINE
  8
0
 10
129.545
 11
130.27
 20
114.755
 21
114.455
  0
LINE
  8
0
 10
130.27
 11
130.939
 20
114.455
 21
114.045
  0
LINE
  8
0
 10
130.939
 11
131.536
 20
114.045
 21
113.536
  0
LINE
  8
0
 10
131.536
 11
132.045
 20
113.536
 21
112.939
  0
LINE
  8
0
 10
132.045
 11
132.455
 20
112.939
 21
112.27
  0
LINE
  8
0
 10
132.455
 11
132.755
 20
112.27
 21
111.545
  0
LINE
  8
0
 10
132.755
 11
132.938
 20
111.545
 21
110.782
  0
LINE
  8
0
 10
132.938
 11
133
 20
110.782
 21
110
  0
LINE
  8
0
 10
133
 11
132.938
 20
110
 21
109.218
  0
LINE
  8
0
 10
132.938
 11
132.755
 20
109.218
 21
108.455
  0
LINE
  8
0
 10
132.755
 11
132.455
 20
108.455
 21
107.73
  0
LINE
  8
0
 10
132.455
 11
132.045
 20
107.73
 21
107.061
  0
LINE
  8
0
 10
132.045
 11
131.536
 20
107.061
 21
106.464
  0
LINE
  8
0
 10
131.536
 11
130.939
 20
106.464
 21
105.955
  0
LINE
  8
0
 10
130.939
 11
130.27
 20
105.955
 21
105.545
  0
LINE
  8
0
 10
130.27
 11
129.545
 20
105.545
 21
105.245
  0
LINE
  8
0
 10
129.545
 11
128.782
 20
105.245
 21
105.062
  0
LINE
  8
0
 10
128.782
 11
128
 20
105.062
 21
105
  0
LINE
  8
0
 10
128
 11
94.5
 20
105
 21
105
  0
LINE
  8
0
 10
94.5
 11
94.5
 20
105
 21
87.936
  0
LINE
  8
0
 10
94.5
 11
94.24
 20
87.936
 21
87.804
  0
LINE
  8
0
 10
94.24
 11
93.651
 20
87.804
 21
87.214
  0
LINE
  8
0
 10
93.651
 11
93.466
 20
87.214
 21
87.399
  0
LINE
  8
0
 10
93.466
 11
90.399
 20
87.399
 21
88.962
  0
LINE
  8
0
 10
90.399
 11
87
 20
88.962
 21
89.5
  0
LINE
  8
0
 10
87
 11
83.601
 20
89.5
 21
88.962
  0
LINE
  8
0
 10
83.601
 11
80.534
 20
88.962
 21
87.399
  0
LINE
  8
0
 10
80.534
 11
78.101
 20
87.399
 21
84.966
  0
LINE
  8
0
 10
78.101
 11
76.538
 20
84.966
 21
81.899
  0
LINE
  8
0
 10
76.538
 11
76
 20
81.899
 21
78.5
  0
LINE
  8
0
 10
76
 11
76.538
 20
78.5
 21
75.101
  0
LINE
  8
0
 10
76.538
 11
78.101
 20
75.101
 21
72.034
  0
LINE
  8
0
 10
78.101
 11
80.534
 20
72.034
 21
69.601
  0
LINE
  8
0
 10
80.534
 11
83.601
 20
69.601
 21
68.038
  0
LINE
  8
0
 10
83.601
 11
87
 20
68.038
 21
67.5
  0
LINE
  8
0
 10
87
 11
90.399
 20
67.5
 21
68.038
  0
LINE
  8
0
 10
90.399
 11
93.466
 20
68.038
 21
69.601
  0
LINE
  8
0
 10
93.466
 11
93.65
 20
69.601
 21
69.785
  0
LINE
  8
0
 10
93.65
 11
94.24
 20
69.785
 21
69.196
  0
LINE
  8
0
 10
94.24
 11
95.292
 20
69.196
 21
68.66
  0
LINE
  8
0
 10
95.292
 11
99.927
 20
68.66
 21
61.763
  0
LINE
  8
0
 10
99.927
 11
100.241
 20
61.763
 21
61.22
  0
LINE
  8
0
 10
100.241
 11
100.434
 20
61.22
 21
60.624
  0
LINE
  8
0
 10
100.434
 11
100.5
 20
60.624
 21
60
  0
LINE
  8
0
 10
100.5
 11
100.5
 20
60
 21
51
  0
LINE
  8
0
 10
100.5
 11
100.434
 20
51
 21
50.376
  0
LINE
  8
0
 10
100.434
 11
100.241
 20
50.376
 21
49.78
  0
LINE
  8
0
 10
100.241
 11
99.927
 20
49.78
 21
49.237
  0
LINE
  8
0
 10
99.927
 11
99.507
 20
49.237
 21
48.771
  0
LINE
  8
0
 10
99.507
 11
99
 20
48.771
 21
48.402
  0
LINE
  8
0
 10
99
 11
98.427
 20
48.402
 21
48.147
  0
LINE
  8
0
 10
98.427
 11
97.814
 20
48.147
 21
48.016
  0
LINE
  8
0
 10
97.814
 11
97.5
 20
48.016
 21
48
  0
LINE
  8
0
 10
97.5
 11
92.5
 20
48
 21
48
  0
LINE
  8
0
 10
92.5
 11
92.186
 20
48
 21
48.016
  0
LINE
  8
0
 10
92.186
 11
91.573
 20
48.016
 21
48.147
  0
LINE
  8
0
 10
91.573
 11
91
 20
48.147
 21
48.402
  0
LINE
  8
0
 10
91
 11
90.493
 20
48.402
 21
48.771
  0
LINE
  8
0
 10
90.493
 11
90.073
 20
48.771
 21
49.237
  0
LINE
  8
0
 10
90.073
 11
89.759
 20
49.237
 21
49.78
  0
LINE
  8
0
 10
89.759
 11
89.566
 20
49.78
 21
50.376
  0
LINE
  8
0
 10
89.566
 11
89.5
 20
50.376
 21
51
  0
LINE
  8
0
 10
89.5
 11
89.5
 20
51
 21
57
  0
LINE
  8
0
 10
89.5
 11
75
 20
57
 21
57
  0
LINE
  8
0
 10
75
 11
75
 20
57
 21
68.047
  0
LINE
  8
0
 10
75
 11
74.056
 20
68.047
 21
69.095
  0
LINE
  8
0
 10
74.056
 11
72.383
 20
69.095
 21
71.992
  0
LINE
  8
0
 10
72.383
 11
71.35
 20
71.992
 21
75.173
  0
LINE
  8
0
 10
71.35
 11
71
 20
75.173
 21
78.5
  0
LINE
  8
0
 10
71
 11
71.35
 20
78.5
 21
81.827
  0
LINE
  8
0
 10
71.35
 11
72.383
 20
81.827
 21
85.008
  0
LINE
  8
0
 10
72.383
 11
74.056
 20
85.008
 21
87.905
  0
LINE
  8
0
 10
74.056
 11
75
 20
87.905
 21
88.953
  0
LINE
  8
0
 10
75
 11
75
 20
88.953
 21
105
  0
LINE
  8
0
 10
75
 11
52
 20
105
 21
105
  0
LINE
  8
0
 10
52
 11
51.218
 20
105
 21
105.062
  0
LINE
  8
0
 10
51.218
 11
50.455
 20
105.062
 21
105.245
  0
LINE
  8
0
 10
50.455
 11
49.73
 20
105.245
 21
105.545
  0
LINE
  8
0
 10
49.73
 11
49.061
 20
105.545
 21
105.955
  0
LINE
  8
0
 10
49.061
 11
48.464
 20
105.955
 21
106.464
  0
LINE
  8
0
 10
48.464
 11
47.955
 20
106.464
 21
107.061
  0
LINE
  8
0
 10
47.955
 11
47.545
 20
107.061
 21
107.73
  0
LINE
  8
0
 10
47.545
 11
47.245
 20
107.73
 21
108.455
  0
LINE
  8
0
 10
47.245
 11
47.062
 20
108.455
 21
109.218
  0
LINE
  8
0
 10
47.062
 11
47
 20
109.218
 21
110
  0
LINE
  8
0
 10
48
 11
48
 20
78
 21
84
  0
LINE
  8
0
 10
48
 11
48.098
 20
84
 21
84.618
  0
LINE
  8
0
 10
48.098
 11
48.382
 20
84.618
 21
85.176
  0
LINE
  8
0
 10
48.382
 11
48.824
 20
85.176
 21
85.618
  0
LINE
  8
0
 10
48.824
 11
49.382
 20
85.618
 21
85.902
  0
LINE
  8
0
 10
49.382
 11
50
 20
85.902
 21
86
  0
LINE
  8
0
 10
50
 11
50.618
 20
86
 21
85.902
  0
LINE
  8
0
 10
50.618
 11
51.176
 20
85.902
 21
85.618
  0
LINE
  8
0
 10
51.176
 11
51.618
 20
85.618
 21
85.176
  0
LINE
  8
0
 10
51.618
 11
51.902
 20
85.176
 21
84.618
  0
LINE
  8
0
 10
51.902
 11
52
 20
84.618
 21
84
  0
LINE
  8
0
 10
52
 11
52
 20
84
 21
78
  0
LINE
  8
0
 10
52
 11
51.902
 20
78
 21
77.382
  0
LINE
  8
0
 10
51.902
 11
51.618
 20
77.382
 21
76.824
  0
LINE
  8
0
 10
51.618
 11
51.176
 20
76.824
 21
76.382
  0
LINE
  8
0
 10
51.176
 11
50.618
 20
76.382
 21
76.098
  0
LINE
  8
0
 10
50.618
 11
50
 20
76.098
 21
76
  0
LINE
  8
0
 10
50
 11
49.382
 20
76
 21
76.098
  0
LINE
  8
0
 10
49.382
 11
48.824
 20
76.098
 21
76.382
  0
LINE
  8
0
 10
48.824
 11
48.382
 20
76.382
 21
76.824
  0
LINE
  8
0
 10
48.382
 11
48.098
 20
76.824
 21
77.382
  0
LINE
  8
0
 10
48.098
 11
48
 20
77.382
 21
78
  0
LINE
  8
0
 10
50.5
 11
50.573
 20
110
 21
110.464
  0
LINE
  8
0
 10
50.573
 11
50.786
 20
110.464
 21
110.882
  0
LINE
  8
0
 10
50.786
 11
51.118
 20
110.882
 21
111.214
  0
LINE
  8
0
 10
51.118
 11
51.536
 20
111.214
 21
111.427
  0
LINE
  8
0
 10
51.536
 11
52
 20
111.427
 21
111.5
  0
LINE
  8
0
 10
52
 11
52.464
 20
111.5
 21
111.427
  0
LINE
  8
0
 10
52.464
 11
52.882
 20
111.427
 21
111.214
  0
LINE
  8
0
 10
52.882
 11
53.214
 20
111.214
 21
110.882
  0
LINE
  8
0
 10
53.214
 11
53.427
 20
110.882
 21
110.464
  0
LINE
  8
0
 10
53.427
 11
53.5
 20
110.464
 21
110
  0
LINE
  8
0
 10
53.5
 11
53.427
 20
110
 21
109.536
  0
LINE
  8
0
 10
53.427
 11
53.214
 20
109.536
 21
109.118
  0
LINE
  8
0
 10
53.214
 11
52.882
 20
109.118
 21
108.786
  0
LINE
  8
0
 10
52.882
 11
52.464
 20
108.786
 21
108.573
  0
LINE
  8
0
 10
52.464
 11
52
 20
108.573
 21
108.5
  0
LINE
  8
0
 10
52
 11
51.536
 20
108.5
 21
108.573
  0
LINE
  8
0
 10
51.536
 11
51.118
 20
108.573
 21
108.786
  0
LINE
  8
0
 10
51.118
 11
50.786
 20
108.786
 21
109.118
  0
LINE
  8
0
 10
50.786
 11
50.573
 20
109.118
 21
109.536
  0
LINE
  8
0
 10
50.573
 11
50.5
 20
109.536
 21
110
  0
LINE
  8
0
 10
55.2
 11
55.273
 20
10
 21
10.464
  0
LINE
  8
0
 10
55.273
 11
55.486
 20
10.464
 21
10.882
  0
LINE
  8
0
 10
55.486
 11
55.818
 20
10.882
 21
11.214
  0
LINE
  8
0
 10
55.818
 11
56.236
 20
11.214
 21
11.427
  0
LINE
  8
0
 10
56.236
 11
56.7
 20
11.427
 21
11.5
  0
LINE
  8
0
 10
56.7
 11
57.164
 20
11.5
 21
11.427
  0
LINE
  8
0
 10
57.164
 11
57.582
 20
11.427
 21
11.214
  0
LINE
  8
0
 10
57.582
 11
57.914
 20
11.214
 21
10.882
  0
LINE
  8
0
 10
57.914
 11
58.127
 20
10.882
 21
10.464
  0
LINE
  8
0
 10
58.127
 11
58.2
 20
10.464
 21
10
  0
LINE
  8
0
 10
58.2
 11
58.127
 20
10
 21
9.536
  0
LINE
  8
0
 10
58.127
 11
57.914
 20
9.536
 21
9.118
  0
LINE
  8
0
 10
57.914
 11
57.582
 20
9.118
 21
8.786
  0
LINE
  8
0
 10
57.582
 11
57.164
 20
8.786
 21
8.573
  0
LINE
  8
0
 10
57.164
 11
56.7
 20
8.573
 21
8.5
  0
LINE
  8
0
 10
56.7
 11
56.236
 20
8.5
 21
8.573
  0
LINE
  8
0
 10
56.236
 11
55.818
 20
8.573
 21
8.786
  0
LINE
  8
0
 10
55.818
 11
55.486
 20
8.786
 21
9.118
  0
LINE
  8
0
 10
55.486
 11
55.273
 20
9.118
 21
9.536
  0
LINE
  8
0
 10
55.273
 11
55.2
 20
9.536
 21
10
  0
LINE
  8
0
 10
58
 11
58
 20
78
 21
84
  0
LINE
  8
0
 10
58
 11
58.098
 20
84
 21
84.618
  0
LINE
  8
0
 10
58.098
 11
58.382
 20
84.618
 21
85.176
  0
LINE
  8
0
 10
58.382
 11
58.824
 20
85.176
 21
85.618
  0
LINE
  8
0
 10
58.824
 11
59.382
 20
85.618
 21
85.902
  0
LINE
  8
0
 10
59.382
 11
60
 20
85.902
 21
86
  0
LINE
  8
0
 10
60
 11
60.618
 20
86
 21
85.902
  0
LINE
  8
0
 10
60.618
 11
61.176
 20
85.902
 21
85.618
  0
LINE
  8
0
 10
61.176
 11
61.618
 20
85.618
 21
85.176
  0
LINE
  8
0
 10
61.618
 11
61.902
 20
85.176
 21
84.618
  0
LINE
  8
0
 10
61.902
 11
62
 20
84.618
 21
84
  0
LINE
  8
0
 10
62
 11
62
 20
84
 21
78
  0
LINE
  8
0
 10
62
 11
61.902
 20
78
 21
77.382
  0
LINE
  8
0
 10
61.902
 11
61.618
 20
77.382
 21
76.824
  0
LINE
  8
0
 10
61.618
 11
61.176
 20
76.824
 21
76.382
  0
LINE
  8
0
 10
61.176
 11
60.618
 20
76.382
 21
76.098
  0
LINE
  8
0
 10
60.618
 11
60
 20
76.098
 21
76
  0
LINE
  8
0
 10
60
 11
59.382
 20
76
 21
76.098
  0
LINE
  8
0
 10
59.382
 11
58.824
 20
76.098
 21
76.382
  0
LINE
  8
0
 10
58.824
 11
58.382
 20
76.382
 21
76.824
  0
LINE
  8
0
 10
58.382
 11
58.098
 20
76.824
 21
77.382
  0
LINE
  8
0
 10
58.098
 11
58
 20
77.382
 21
78
  0
LINE
  8
0
 10
59.5
 11
59.573
 20
25
 21
25.464
  0
LINE
  8
0
 10
59.573
 11
59.786
 20
25.464
 21
25.882
  0
LINE
  8
0
 10
59.786
 11
60.118
 20
25.882
 21
26.214
  0
LINE
  8
0
 10
60.118
 11
60.536
 20
26.214
 21
26.427
  0
LINE
  8
0
 10
60.536
 11
61
 20
26.427
 21
26.5
  0
LINE
  8
0
 10
61
 11
61.464
 20
26.5
 21
26.427
  0
LINE
  8
0
 10
61.464
 11
61.882
 20
26.427
 21
26.214
  0
LINE
  8
0
 10
61.882
 11
62.214
 20
26.214
 21
25.882
  0
LINE
  8
0
 10
62.214
 11
62.427
 20
25.882
 21
25.464
  0
LINE
  8
0
 10
62.427
 11
62.5
 20
25.464
 21
25
  0
LINE
  8
0
 10
62.5
 11
62.427
 20
25
 21
24.536
  0
LINE
  8
0
 10
62.427
 11
62.214
 20
24.536
 21
24.118
  0
LINE
  8
0
 10
62.214
 11
61.882
 20
24.118
 21
23.786
  0
LINE
  8
0
 10
61.882
 11
61.464
 20
23.786
 21
23.573
  0
LINE
  8
0
 10
61.464
 11
61
 20
23.573
 21
23.5
  0
LINE
  8
0
 10
61
 11
60.536
 20
23.5
 21
23.573
  0
LINE
  8
0
 10
60.536
 11
60.118
 20
23.573
 21
23.786
  0
LINE
  8
0
 10
60.118
 11
59.786
 20
23.786
 21
24.118
  0
LINE
  8
0
 10
59.786
 11
59.573
 20
24.118
 21
24.536
  0
LINE
  8
0
 10
59.573
 11
59.5
 20
24.536
 21
25
  0
LINE
  8
0
 10
59.5
 11
59.573
 20
59
 21
59.464
  0
LINE
  8
0
 10
59.573
 11
59.786
 20
59.464
 21
59.882
  0
LINE
  8
0
 10
59.786
 11
60.118
 20
59.882
 21
60.214
  0
LINE
  8
0
 10
60.118
 11
60.536
 20
60.214
 21
60.427
  0
LINE
  8
0
 10
60.536
 11
61
 20
60.427
 21
60.5
  0
LINE
  8
0
 10
61
 11
61.464
 20
60.5
 21
60.427
  0
LINE
  8
0
 10
61.464
 11
61.882
 20
60.427
 21
60.214
  0
LINE
  8
0
 10
61.882
 11
62.214
 20
60.214
 21
59.882
  0
LINE
  8
0
 10
62.214
 11
62.427
 20
59.882
 21
59.464
  0
LINE
  8
0
 10
62.427
 11
62.5
 20
59.464
 21
59
  0
LINE
  8
0
 10
62.5
 11
62.427
 20
59
 21
58.536
  0
LINE
  8
0
 10
62.427
 11
62.214
 20
58.536
 21
58.118
  0
LINE
  8
0
 10
62.214
 11
61.882
 20
58.118
 21
57.786
  0
LINE
  8
0
 10
61.882
 11
61.464
 20
57.786
 21
57.573
  0
LINE
  8
0
 10
61.464
 11
61
 20
57.573
 21
57.5
  0
LINE
  8
0
 10
61
 11
60.536
 20
57.5
 21
57.573
  0
LINE
  8
0
 10
60.536
 11
60.118
 20
57.573
 21
57.786
  0
LINE
  8
0
 10
60.118
 11
59.786
 20
57.786
 21
58.118
  0
LINE
  8
0
 10
59.786
 11
59.573
 20
58.118
 21
58.536
  0
LINE
  8
0
 10
59.573
 11
59.5
 20
58.536
 21
59
  0
LINE
  8
0
 10
66
 11
66.062
 20
25
 21
25.782
  0
LINE
  8
0
 10
66.062
 11
66.245
 20
25.782
 21
26.545
  0
LINE
  8
0
 10
66.245
 11
66.545
 20
26.545
 21
27.27
  0
LINE
  8
0
 10
66.545
 11
66.955
 20
27.27
 21
27.939
  0
LINE
  8
0
 10
66.955
 11
67.464
 20
27.939
 21
28.536
  0
LINE
  8
0
 10
67.464
 11
68.061
 20
28.536
 21
29.045
  0
LINE
  8
0
 10
68.061
 11
68.73
 20
29.045
 21
29.455
  0
LINE
  8
0
 10
68.73
 11
69.455
 20
29.455
 21
29.755
  0
LINE
  8
0
 10
69.455
 11
70.218
 20
29.755
 21
29.938
  0
LINE
  8
0
 10
70.218
 11
71
 20
29.938
 21
30
  0
LINE
  8
0
 10
71
 11
90
 20
30
 21
30
  0
LINE
  8
0
 10
90
 11
90
 20
30
 21
40
  0
LINE
  8
0
 10
90
 11
90.381
 20
40
 21
41.913
  0
LINE
  8
0
 10
90.381
 11
91.464
 20
41.913
 21
43.536
  0
LINE
  8
0
 10
91.464
 11
93.087
 20
43.536
 21
44.619
  0
LINE
  8
0
 10
93.087
 11
95
 20
44.619
 21
45
  0
LINE
  8
0
 10
95
 11
97.5
 20
45
 21
45
  0
LINE
  8
0
 10
97.5
 11
97.5
 20
45
 21
45.079
  0
LINE
  8
0
 10
97.5
 11
98
 20
45.079
 21
45
  0
LINE
  8
0
 10
98
 11
101.554
 20
45
 21
45.563
  0
LINE
  8
0
 10
101.554
 11
104.76
 20
45.563
 21
47.196
  0
LINE
  8
0
 10
104.76
 11
107.304
 20
47.196
 21
49.74
  0
LINE
  8
0
 10
107.304
 11
108.937
 20
49.74
 21
52.946
  0
LINE
  8
0
 10
108.937
 11
109.078
 20
52.946
 21
53.835
  0
LINE
  8
0
 10
109.078
 11
109.649
 20
53.835
 21
53.264
  0
LINE
  8
0
 10
109.649
 11
110.764
 20
53.264
 21
52.696
  0
LINE
  8
0
 10
110.764
 11
112
 20
52.696
 21
52.5
  0
LINE
  8
0
 10
112
 11
113.236
 20
52.5
 21
52.696
  0
LINE
  8
0
 10
113.236
 11
114.351
 20
52.696
 21
53.264
  0
LINE
  8
0
 10
114.351
 11
115.236
 20
53.264
 21
54.149
  0
LINE
  8
0
 10
115.236
 11
115.804
 20
54.149
 21
55.264
  0
LINE
  8
0
 10
115.804
 11
116
 20
55.264
 21
56.5
  0
LINE
  8
0
 10
116
 11
115.804
 20
56.5
 21
57.736
  0
LINE
  8
0
 10
115.804
 11
115.236
 20
57.736
 21
58.851
  0
LINE
  8
0
 10
115.236
 11
114.351
 20
58.851
 21
59.736
  0
LINE
  8
0
 10
114.351
 11
113.236
 20
59.736
 21
60.304
  0
LINE
  8
0
 10
113.236
 11
112
 20
60.304
 21
60.5
  0
LINE
  8
0
 10
112
 11
110.764
 20
60.5
 21
60.304
  0
LINE
  8
0
 10
110.764
 11
109.649
 20
60.304
 21
59.736
  0
LINE
  8
0
 10
109.649
 11
109.078
 20
59.736
 21
59.165
  0
LINE
  8
0
 10
109.078
 11
108.937
 20
59.165
 21
60.054
  0
LINE
  8
0
 10
108.937
 11
107.304
 20
60.054
 21
63.26
  0
LINE
  8
0
 10
107.304
 11
105
 20
63.26
 21
65.564
  0
LINE
  8
0
 10
105
 11
105
 20
65.564
 21
78
  0
LINE
  8
0
 10
105
 11
124
 20
78
 21
78
  0
LINE
  8
0
 10
124
 11
124
 20
78
 21
30
  0
LINE
  8
0
 10
124
 11
147
 20
30
 21
30
  0
LINE
  8
0
 10
147
 11
147.782
 20
30
 21
29.938
  0
LINE
  8
0
 10
147.782
 11
148.545
 20
29.938
 21
29.755
  0
LINE
  8
0
 10
148.545
 11
149.27
 20
29.755
 21
29.455
  0
LINE
  8
0
 10
149.27
 11
149.939
 20
29.455
 21
29.045
  0
LINE
  8
0
 10
149.939
 11
150.536
 20
29.045
 21
28.536
  0
LINE
  8
0
 10
150.536
 11
151.045
 20
28.536
 21
27.939
  0
LINE
  8
0
 10
151.045
 11
151.455
 20
27.939
 21
27.27
  0
LINE
  8
0
 10
151.455
 11
151.755
 20
27.27
 21
26.545
  0
LINE
  8
0
 10
151.755
 11
151.938
 20
26.545
 21
25.782
  0
LINE
  8
0
 10
151.938
 11
152
 20
25.782
 21
25
  0
LINE
  8
0
 10
152
 11
151.938
 20
25
 21
24.218
  0
LINE
  8
0
 10
151.938
 11
151.755
 20
24.218
 21
23.455
  0
LINE
  8
0
 10
151.755
 11
151.455
 20
23.455
 21
22.73
  0
LINE
  8
0
 10
151.455
 11
151.045
 20
22.73
 21
22.061
  0
LINE
  8
0
 10
151.045
 11
150.536
 20
22.061
 21
21.464
  0
LINE
  8
0
 10
150.536
 11
149.939
 20
21.464
 21
20.955
  0
LINE
  8
0
 10
149.939
 11
149.27
 20
20.955
 21
20.545
  0
LINE
  8
0
 10
149.27
 11
148.545
 20
20.545
 21
20.245
  0
LINE
  8
0
 10
148.545
 11
147.782
 20
20.245
 21
20.062
  0
LINE
  8
0
 10
147.782
 11
147
 20
20.062
 21
20
  0
LINE
  8
0
 10
147
 11
115.7
 20
20
 21
20
  0
LINE
  8
0
 10
115.7
 11
115.7
 20
20
 21
23.5
  0
LINE
  8
0
 10
115.7
 11
116.164
 20
23.5
 21
23.573
  0
LINE
  8
0
 10
116.164
 11
116.582
 20
23.573
 21
23.786
  0
LINE
  8
0
 10
116.582
 11
116.914
 20
23.786
 21
24.118
  0
LINE
  8
0
 10
116.914
 11
117.127
 20
24.118
 21
24.536
  0
LINE
  8
0
 10
117.127
 11
117.2
 20
24.536
 21
25
  0
LINE
  8
0
 10
117.2
 11
117.127
 20
25
 21
25.464
  0
LINE
  8
0
 10
117.127
 11
116.914
 20
25.464
 21
25.882
  0
LINE
  8
0
 10
116.914
 11
116.582
 20
25.882
 21
26.214
  0
LINE
  8
0
 10
116.582
 11
116.164
 20
26.214
 21
26.427
  0
LINE
  8
0
 10
116.164
 11
115.7
 20
26.427
 21
26.5
  0
LINE
  8
0
 10
115.7
 11
115.7
 20
26.5
 21
30
  0
LINE
  8
0
 10
115.7
 11
101.7
 20
30
 21
30
  0
LINE
  8
0
 10
101.7
 11
101.7
 20
30
 21
26.5
  0
LINE
  8
0
 10
101.7
 11
101.236
 20
26.5
 21
26.427
  0
LINE
  8
0
 10
101.236
 11
100.818
 20
26.427
 21
26.214
  0
LINE
  8
0
 10
100.818
 11
100.486
 20
26.214
 21
25.882
  0
LINE
  8
0
 10
100.486
 11
100.273
 20
25.882
 21
25.464
  0
LINE
  8
0
 10
100.273
 11
100.2
 20
25.464
 21
25
  0
LINE
  8
0
 10
100.2
 11
100.273
 20
25
 21
24.536
  0
LINE
  8
0
 10
100.273
 11
100.486
 20
24.536
 21
24.118
  0
LINE
  8
0
 10
100.486
 11
100.818
 20
24.118
 21
23.786
  0
LINE
  8
0
 10
100.818
 11
101.236
 20
23.786
 21
23.573
  0
LINE
  8
0
 10
101.236
 11
101.7
 20
23.573
 21
23.5
  0
LINE
  8
0
 10
101.7
 11
101.7
 20
23.5
 21
20
  0
LINE
  8
0
 10
101.7
 11
71
 20
20
 21
20
  0
LINE
  8
0
 10
71
 11
70.218
 20
20
 21
20.062
  0
LINE
  8
0
 10
70.218
 11
69.455
 20
20.062
 21
20.245
  0
LINE
  8
0
 10
69.455
 11
68.73
 20
20.245
 21
20.545
  0
LINE
  8
0
 10
68.73
 11
68.061
 20
20.545
 21
20.955
  0
LINE
  8
0
 10
68.061
 11
67.464
 20
20.955
 21
21.464
  0
LINE
  8
0
 10
67.464
 11
66.955
 20
21.464
 21
22.061
  0
LINE
  8
0
 10
66.955
 11
66.545
 20
22.061
 21
22.73
  0
LINE
  8
0
 10
66.545
 11
66.245
 20
22.73
 21
23.455
  0
LINE
  8
0
 10
66.245
 11
66.062
 20
23.455
 21
24.218
  0
LINE
  8
0
 10
66.062
 11
66
 20
24.218
 21
25
  0
LINE
  8
0
 10
69.5
 11
69.573
 20
25
 21
25.464
  0
LINE
  8
0
 10
69.573
 11
69.786
 20
25.464
 21
25.882
  0
LINE
  8
0
 10
69.786
 11
70.118
 20
25.882
 21
26.214
  0
LINE
  8
0
 10
70.118
 11
70.536
 20
26.214
 21
26.427
  0
LINE
  8
0
 10
70.536
 11
71
 20
26.427
 21
26.5
  0
LINE
  8
0
 10
71
 11
71.464
 20
26.5
 21
26.427
  0
LINE
  8
0
 10
71.464
 11
71.882
 20
26.427
 21
26.214
  0
LINE
  8
0
 10
71.882
 11
72.214
 20
26.214
 21
25.882
  0
LINE
  8
0
 10
72.214
 11
72.427
 20
25.882
 21
25.464
  0
LINE
  8
0
 10
72.427
 11
72.5
 20
25.464
 21
25
  0
LINE
  8
0
 10
72.5
 11
72.427
 20
25
 21
24.536
  0
LINE
  8
0
 10
72.427
 11
72.214
 20
24.536
 21
24.118
  0
LINE
  8
0
 10
72.214
 11
71.882
 20
24.118
 21
23.786
  0
LINE
  8
0
 10
71.882
 11
71.464
 20
23.786
 21
23.573
  0
LINE
  8
0
 10
71.464
 11
71
 20
23.573
 21
23.5
  0
LINE
  8
0
 10
71
 11
70.536
 20
23.5
 21
23.573
  0
LINE
  8
0
 10
70.536
 11
70.118
 20
23.573
 21
23.786
  0
LINE
  8
0
 10
70.118
 11
69.786
 20
23.786
 21
24.118
  0
LINE
  8
0
 10
69.786
 11
69.573
 20
24.118
 21
24.536
  0
LINE
  8
0
 10
69.573
 11
69.5
 20
24.536
 21
25
  0
LINE
  8
0
 10
77.5
 11
77.573
 20
61
 21
61.464
  0
LINE
  8
0
 10
77.573
 11
77.786
 20
61.464
 21
61.882
  0
LINE
  8
0
 10
77.786
 11
78.118
 20
61.882
 21
62.214
  0
LINE
  8
0
 10
78.118
 11
78.536
 20
62.214
 21
62.427
  0
LINE
  8
0
 10
78.536
 11
79
 20
62.427
 21
62.5
  0
LINE
  8
0
 10
79
 11
79.464
 20
62.5
 21
62.427
  0
LINE
  8
0
 10
79.464
 11
79.882
 20
62.427
 21
62.214
  0
LINE
  8
0
 10
79.882
 11
80.214
 20
62.214
 21
61.882
  0
LINE
  8
0
 10
80.214
 11
80.427
 20
61.882
 21
61.464
  0
LINE
  8
0
 10
80.427
 11
80.5
 20
61.464
 21
61
  0
LINE
  8
0
 10
80.5
 11
80.427
 20
61
 21
60.536
  0
LINE
  8
0
 10
80.427
 11
80.214
 20
60.536
 21
60.118
  0
LINE
  8
0
 10
80.214
 11
79.882
 20
60.118
 21
59.786
  0
LINE
  8
0
 10
79.882
 11
79.464
 20
59.786
 21
59.573
  0
LINE
  8
0
 10
79.464
 11
79
 20
59.573
 21
59.5
  0
LINE
  8
0
 10
79
 11
78.536
 20
59.5
 21
59.573
  0
LINE
  8
0
 10
78.536
 11
78.118
 20
59.573
 21
59.786
  0
LINE
  8
0
 10
78.118
 11
77.786
 20
59.786
 21
60.118
  0
LINE
  8
0
 10
77.786
 11
77.573
 20
60.118
 21
60.536
  0
LINE
  8
0
 10
77.573
 11
77.5
 20
60.536
 21
61
  0
LINE
  8
0
 10
77.5
 11
77.573
 20
95
 21
95.464
  0
LINE
  8
0
 10
77.573
 11
77.786
 20
95.464
 21
95.882
  0
LINE
  8
0
 10
77.786
 11
78.118
 20
95.882
 21
96.214
  0
LINE
  8
0
 10
78.118
 11
78.536
 20
96.214
 21
96.427
  0
LINE
  8
0
 10
78.536
 11
79
 20
96.427
 21
96.5
  0
LINE
  8
0
 10
79
 11
79.464
 20
96.5
 21
96.427
  0
LINE
  8
0
 10
79.464
 11
79.882
 20
96.427
 21
96.214
  0
LINE
  8
0
 10
79.882
 11
80.214
 20
96.214
 21
95.882
  0
LINE
  8
0
 10
80.214
 11
80.427
 20
95.882
 21
95.464
  0
LINE
  8
0
 10
80.427
 11
80.5
 20
95.464
 21
95
  0
LINE
  8
0
 10
80.5
 11
80.427
 20
95
 21
94.536
  0
LINE
  8
0
 10
80.427
 11
80.214
 20
94.536
 21
94.118
  0
LINE
  8
0
 10
80.214
 11
79.882
 20
94.118
 21
93.786
  0
LINE
  8
0
 10
79.882
 11
79.464
 20
93.786
 21
93.573
  0
LINE
  8
0
 10
79.464
 11
79
 20
93.573
 21
93.5
  0
LINE
  8
0
 10
79
 11
78.536
 20
93.5
 21
93.573
  0
LINE
  8
0
 10
78.536
 11
78.118
 20
93.573
 21
93.786
  0
LINE
  8
0
 10
78.118
 11
77.786
 20
93.786
 21
94.118
  0
LINE
  8
0
 10
77.786
 11
77.573
 20
94.118
 21
94.536
  0
LINE
  8
0
 10
77.573
 11
77.5
 20
94.536
 21
95
  0
LINE
  8
0
 10
81.8
 11
81.873
 20
110
 21
110.464
  0
LINE
  8
0
 10
81.873
 11
82.086
 20
110.464
 21
110.882
  0
LINE
  8
0
 10
82.086
 11
82.418
 20
110.882
 21
111.214
  0
LINE
  8
0
 10
82.418
 11
82.836
 20
111.214
 21
111.427
  0
LINE
  8
0
 10
82.836
 11
83.3
 20
111.427
 21
111.5
  0
LINE
  8
0
 10
83.3
 11
83.764
 20
111.5
 21
111.427
  0
LINE
  8
0
 10
83.764
 11
84.182
 20
111.427
 21
111.214
  0
LINE
  8
0
 10
84.182
 11
84.514
 20
111.214
 21
110.882
  0
LINE
  8
0
 10
84.514
 11
84.727
 20
110.882
 21
110.464
  0
LINE
  8
0
 10
84.727
 11
84.8
 20
110.464
 21
110
  0
LINE
  8
0
 10
84.8
 11
84.727
 20
110
 21
109.536
  0
LINE
  8
0
 10
84.727
 11
84.514
 20
109.536
 21
109.118
  0
LINE
  8
0
 10
84.514
 11
84.182
 20
109.118
 21
108.786
  0
LINE
  8
0
 10
84.182
 11
83.764
 20
108.786
 21
108.573
  0
LINE
  8
0
 10
83.764
 11
83.3
 20
108.573
 21
108.5
  0
LINE
  8
0
 10
83.3
 11
82.836
 20
108.5
 21
108.573
  0
LINE
  8
0
 10
82.836
 11
82.418
 20
108.573
 21
108.786
  0
LINE
  8
0
 10
82.418
 11
82.086
 20
108.786
 21
109.118
  0
LINE
  8
0
 10
82.086
 11
81.873
 20
109.118
 21
109.536
  0
LINE
  8
0
 10
81.873
 11
81.8
 20
109.536
 21
110
  0
LINE
  8
0
 10
82.5
 11
82.573
 20
25
 21
25.464
  0
LINE
  8
0
 10
82.573
 11
82.786
 20
25.464
 21
25.882
  0
LINE
  8
0
 10
82.786
 11
83.118
 20
25.882
 21
26.214
  0
LINE
  8
0
 10
83.118
 11
83.536
 20
26.214
 21
26.427
  0
LINE
  8
0
 10
83.536
 11
84
 20
26.427
 21
26.5
  0
LINE
  8
0
 10
84
 11
84.464
 20
26.5
 21
26.427
  0
LINE
  8
0
 10
84.464
 11
84.882
 20
26.427
 21
26.214
  0
LINE
  8
0
 10
84.882
 11
85.214
 20
26.214
 21
25.882
  0
LINE
  8
0
 10
85.214
 11
85.427
 20
25.882
 21
25.464
  0
LINE
  8
0
 10
85.427
 11
85.5
 20
25.464
 21
25
  0
LINE
  8
0
 10
85.5
 11
85.427
 20
25
 21
24.536
  0
LINE
  8
0
 10
85.427
 11
85.214
 20
24.536
 21
24.118
  0
LINE
  8
0
 10
85.214
 11
84.882
 20
24.118
 21
23.786
  0
LINE
  8
0
 10
84.882
 11
84.464
 20
23.786
 21
23.573
  0
LINE
  8
0
 10
84.464
 11
84
 20
23.573
 21
23.5
  0
LINE
  8
0
 10
84
 11
83.536
 20
23.5
 21
23.573
  0
LINE
  8
0
 10
83.536
 11
83.118
 20
23.573
 21
23.786
  0
LINE
  8
0
 10
83.118
 11
82.786
 20
23.786
 21
24.118
  0
LINE
  8
0
 10
82.786
 11
82.573
 20
24.118
 21
24.536
  0
LINE
  8
0
 10
82.573
 11
82.5
 20
24.536
 21
25
  0
LINE
  8
0
 10
86.5
 11
86.573
 20
10
 21
10.464
  0
LINE
  8
0
 10
86.573
 11
86.786
 20
10.464
 21
10.882
  0
LINE
  8
0
 10
86.786
 11
87.118
 20
10.882
 21
11.214
  0
LINE
  8
0
 10
87.118
 11
87.536
 20
11.214
 21
11.427
  0
LINE
  8
0
 10
87.536
 11
88
 20
11.427
 21
11.5
  0
LINE
  8
0
 10
88
 11
88.464
 20
11.5
 21
11.427
  0
LINE
  8
0
 10
88.464
 11
88.882
 20
11.427
 21
11.214
  0
LINE
  8
0
 10
88.882
 11
89.214
 20
11.214
 21
10.882
  0
LINE
  8
0
 10
89.214
 11
89.427
 20
10.882
 21
10.464
  0
LINE
  8
0
 10
89.427
 11
89.5
 20
10.464
 21
10
  0
LINE
  8
0
 10
89.5
 11
89.427
 20
10
 21
9.536
  0
LINE
  8
0
 10
89.427
 11
89.214
 20
9.536
 21
9.118
  0
LINE
  8
0
 10
89.214
 11
88.882
 20
9.118
 21
8.786
  0
LINE
  8
0
 10
88.882
 11
88.464
 20
8.786
 21
8.573
  0
LINE
  8
0
 10
88.464
 11
88
 20
8.573
 21
8.5
  0
LINE
  8
0
 10
88
 11
87.536
 20
8.5
 21
8.573
  0
LINE
  8
0
 10
87.536
 11
87.118
 20
8.573
 21
8.786
  0
LINE
  8
0
 10
87.118
 11
86.786
 20
8.786
 21
9.118
  0
LINE
  8
0
 10
86.786
 11
86.573
 20
9.118
 21
9.536
  0
LINE
  8
0
 10
86.573
 11
86.5
 20
9.536
 21
10
  0
LINE
  8
0
 10
94
 11
94.147
 20
41
 21
41.927
  0
LINE
  8
0
 10
94.147
 11
94.573
 20
41.927
 21
42.763
  0
LINE
  8
0
 10
94.573
 11
95.237
 20
42.763
 21
43.427
  0
LINE
  8
0
 10
95.237
 11
96.073
 20
43.427
 21
43.853
  0
LINE
  8
0
 10
96.073
 11
97
 20
43.853
 21
44
  0
LINE
  8
0
 10
97
 11
97.927
 20
44
 21
43.853
  0
LINE
  8
0
 10
97.927
 11
98.763
 20
43.853
 21
43.427
  0
LINE
  8
0
 10
98.763
 11
99.427
 20
43.427
 21
42.763
  0
LINE
  8
0
 10
99.427
 11
99.853
 20
42.763
 21
41.927
  0
LINE
  8
0
 10
99.853
 11
100
 20
41.927
 21
41
  0
LINE
  8
0
 10
100
 11
99.853
 20
41
 21
40.073
  0
LINE
  8
0
 10
99.853
 11
99.427
 20
40.073
 21
39.237
  0
LINE
  8
0
 10
99.427
 11
98.763
 20
39.237
 21
38.573
  0
LINE
  8
0
 10
98.763
 11
97.927
 20
38.573
 21
38.147
  0
LINE
  8
0
 10
97.927
 11
97
 20
38.147
 21
38
  0
LINE
  8
0
 10
97
 11
96.073
 20
38
 21
38.147
  0
LINE
  8
0
 10
96.073
 11
95.237
 20
38.147
 21
38.573
  0
LINE
  8
0
 10
95.237
 11
94.573
 20
38.573
 21
39.237
  0
LINE
  8
0
 10
94.573
 11
94.147
 20
39.237
 21
40.073
  0
LINE
  8
0
 10
94.147
 11
94
 20
40.073
 21
41
  0
LINE
  8
0
 10
95.8
 11
95.873
 20
110
 21
110.464
  0
LINE
  8
0
 10
95.873
 11
96.086
 20
110.464
 21
110.882
  0
LINE
  8
0
 10
96.086
 11
96.418
 20
110.882
 21
111.214
  0
LINE
  8
0
 10
96.418
 11
96.836
 20
111.214
 21
111.427
  0
LINE
  8
0
 10
96.836
 11
97.3
 20
111.427
 21
111.5
  0
LINE
  8
0
 10
97.3
 11
97.764
 20
111.5
 21
111.427
  0
LINE
  8
0
 10
97.764
 11
98.182
 20
111.427
 21
111.214
  0
LINE
  8
0
 10
98.182
 11
98.514
 20
111.214
 21
110.882
  0
LINE
  8
0
 10
98.514
 11
98.727
 20
110.882
 21
110.464
  0
LINE
  8
0
 10
98.727
 11
98.8
 20
110.464
 21
110
  0
LINE
  8
0
 10
98.8
 11
98.727
 20
110
 21
109.536
  0
LINE
  8
0
 10
98.727
 11
98.514
 20
109.536
 21
109.118
  0
LINE
  8
0
 10
98.514
 11
98.182
 20
109.118
 21
108.786
  0
LINE
  8
0
 10
98.182
 11
97.764
 20
108.786
 21
108.573
  0
LINE
  8
0
 10
97.764
 11
97.3
 20
108.573
 21
108.5
  0
LINE
  8
0
 10
97.3
 11
96.836
 20
108.5
 21
108.573
  0
LINE
  8
0
 10
96.836
 11
96.418
 20
108.573
 21
108.786
  0
LINE
  8
0
 10
96.418
 11
96.086
 20
108.786
 21
109.118
  0
LINE
  8
0
 10
96.086
 11
95.873
 20
109.118
 21
109.536
  0
LINE
  8
0
 10
95.873
 11
95.8
 20
109.536
 21
110
  0
LINE
  8
0
 10
97
 11
97.098
 20
10
 21
11.251
  0
LINE
  8
0
 10
97.098
 11
97.392
 20
11.251
 21
12.472
  0
LINE
  8
0
 10
97.392
 11
97.872
 20
12.472
 21
13.632
  0
LINE
  8
0
 10
97.872
 11
98.528
 20
13.632
 21
14.702
  0
LINE
  8
0
 10
98.528
 11
99.343
 20
14.702
 21
15.657
  0
LINE
  8
0
 10
99.343
 11
100.298
 20
15.657
 21
16.472
  0
LINE
  8
0
 10
100.298
 11
101.368
 20
16.472
 21
17.128
  0
LINE
  8
0
 10
101.368
 11
102.528
 20
17.128
 21
17.608
  0
LINE
  8
0
 10
102.528
 11
103.749
 20
17.608
 21
17.902
  0
LINE
  8
0
 10
103.749
 11
105
 20
17.902
 21
18
  0
LINE
  8
0
 10
105
 11
106.251
 20
18
 21
17.902
  0
LINE
  8
0
 10
106.251
 11
107.472
 20
17.902
 21
17.608
  0
LINE
  8
0
 10
107.472
 11
108.632
 20
17.608
 21
17.128
  0
LINE
  8
0
 10
108.632
 11
109.702
 20
17.128
 21
16.472
  0
LINE
  8
0
 10
109.702
 11
110.657
 20
16.472
 21
15.657
  0
LINE
  8
0
 10
110.657
 11
111.472
 20
15.657
 21
14.702
  0
LINE
  8
0
 10
111.472
 11
112.128
 20
14.702
 21
13.632
  0
LINE
  8
0
 10
112.128
 11
112.608
 20
13.632
 21
12.472
  0
LINE
  8
0
 10
112.608
 11
112.902
 20
12.472
 21
11.251
  0
LINE
  8
0
 10
112.902
 11
113
 20
11.251
 21
10
  0
LINE
  8
0
 10
113
 11
112.902
 20
10
 21
8.749
  0
LINE
  8
0
 10
112.902
 11
112.608
 20
8.749
 21
7.528
  0
LINE
  8
0
 10
112.608
 11
112.128
 20
7.528
 21
6.368
  0
LINE
  8
0
 10
112.128
 11
111.472
 20
6.368
 21
5.298
  0
LINE
  8
0
 10
111.472
 11
110.657
 20
5.298
 21
4.343
  0
LINE
  8
0
 10
110.657
 11
109.702
 20
4.343
 21
3.528
  0
LINE
  8
0
 10
109.702
 11
108.632
 20
3.528
 21
2.872
  0
LINE
  8
0
 10
108.632
 11
107.472
 20
2.872
 21
2.392
  0
LINE
  8
0
 10
107.472
 11
106.251
 20
2.392
 21
2.098
  0
LINE
  8
0
 10
106.251
 11
105
 20
2.098
 21
2
  0
LINE
  8
0
 10
105
 11
103.749
 20
2
 21
2.098
  0
LINE
  8
0
 10
103.749
 11
102.528
 20
2.098
 21
2.392
  0
LINE
  8
0
 10
102.528
 11
101.368
 20
2.392
 21
2.872
  0
LINE
  8
0
 10
101.368
 11
100.298
 20
2.872
 21
3.528
  0
LINE
  8
0
 10
100.298
 11
99.343
 20
3.528
 21
4.343
  0
LINE
  8
0
 10
99.343
 11
98.528
 20
4.343
 21
5.298
  0
LINE
  8
0
 10
98.528
 11
97.872
 20
5.298
 21
6.368
  0
LINE
  8
0
 10
97.872
 11
97.392
 20
6.368
 21
7.528
  0
LINE
  8
0
 10
97.392
 11
97.098
 20
7.528
 21
8.749
  0
LINE
  8
0
 10
97.098
 11
97
 20
8.749
 21
10
  0
LINE
  8
0
 10
100.85
 11
100.901
 20
10
 21
10.649
  0
LINE
  8
0
 10
100.901
 11
101.053
 20
10.649
 21
11.282
  0
LINE
  8
0
 10
101.053
 11
101.302
 20
11.282
 21
11.884
  0
LINE
  8
0
 10
101.302
 11
101.643
 20
11.884
 21
12.439
  0
LINE
  8
0
 10
101.643
 11
102.066
 20
12.439
 21
12.934
  0
LINE
  8
0
 10
102.066
 11
102.561
 20
12.934
 21
13.357
  0
LINE
  8
0
 10
102.561
 11
103.116
 20
13.357
 21
13.698
  0
LINE
  8
0
 10
103.116
 11
103.718
 20
13.698
 21
13.947
  0
LINE
  8
0
 10
103.718
 11
104.351
 20
13.947
 21
14.099
  0
LINE
  8
0
 10
104.351
 11
105
 20
14.099
 21
14.15
  0
LINE
  8
0
 10
105
 11
105.649
 20
14.15
 21
14.099
  0
LINE
  8
0
 10
105.649
 11
106.282
 20
14.099
 21
13.947
  0
LINE
  8
0
 10
106.282
 11
106.884
 20
13.947
 21
13.698
  0
LINE
  8
0
 10
106.884
 11
107.439
 20
13.698
 21
13.357
  0
LINE
  8
0
 10
107.439
 11
107.934
 20
13.357
 21
12.934
  0
LINE
  8
0
 10
107.934
 11
108.357
 20
12.934
 21
12.439
  0
LINE
  8
0
 10
108.357
 11
108.698
 20
12.439
 21
11.884
  0
LINE
  8
0
 10
108.698
 11
108.947
 20
11.884
 21
11.282
  0
LINE
  8
0
 10
108.947
 11
109.099
 20
11.282
 21
10.649
  0
LINE
  8
0
 10
109.099
 11
109.15
 20
10.649
 21
10
  0
LINE
  8
0
 10
109.15
 11
109.099
 20
10
 21
9.351
  0
LINE
  8
0
 10
109.099
 11
108.947
 20
9.351
 21
8.718
  0
LINE
  8
0
 10
108.947
 11
108.698
 20
8.718
 21
8.116
  0
LINE
  8
0
 10
108.698
 11
108.357
 20
8.116
 21
7.561
  0
LINE
  8
0
 10
108.357
 11
107.934
 20
7.561
 21
7.066
  0
LINE
  8
0
 10
107.934
 11
107.439
 20
7.066
 21
6.643
  0
LINE
  8
0
 10
107.439
 11
106.884
 20
6.643
 21
6.302
  0
LINE
  8
0
 10
106.884
 11
106.282
 20
6.302
 21
6.053
  0
LINE
  8
0
 10
106.282
 11
105.649
 20
6.053
 21
5.901
  0
LINE
  8
0
 10
105.649
 11
105
 20
5.901
 21
5.85
  0
LINE
  8
0
 10
105
 11
104.351
 20
5.85
 21
5.901
  0
LINE
  8
0
 10
104.351
 11
103.718
 20
5.901
 21
6.053
  0
LINE
  8
0
 10
103.718
 11
103.116
 20
6.053
 21
6.302
  0
LINE
  8
0
 10
103.116
 11
102.561
 20
6.302
 21
6.643
  0
LINE
  8
0
 10
102.561
 11
102.066
 20
6.643
 21
7.066
  0
LINE
  8
0
 10
102.066
 11
101.643
 20
7.066
 21
7.561
  0
LINE
  8
0
 10
101.643
 11
101.302
 20
7.561
 21
8.116
  0
LINE
  8
0
 10
101.302
 11
101.053
 20
8.116
 21
8.718
  0
LINE
  8
0
 10
101.053
 11
100.901
 20
8.718
 21
9.351
  0
LINE
  8
0
 10
100.901
 11
100.85
 20
9.351
 21
10
  0
LINE
  8
0
 10
113.5
 11
113.573
 20
110
 21
110.464
  0
LINE
  8
0
 10
113.573
 11
113.786
 20
110.464
 21
110.882
  0
LINE
  8
0
 10
113.786
 11
114.118
 20
110.882
 21
111.214
  0
LINE
  8
0
 10
114.118
 11
114.536
 20
111.214
 21
111.427
  0
LINE
  8
0
 10
114.536
 11
115
 20
111.427
 21
111.5
  0
LINE
  8
0
 10
115
 11
115.464
 20
111.5
 21
111.427
  0
LINE
  8
0
 10
115.464
 11
115.882
 20
111.427
 21
111.214
  0
LINE
  8
0
 10
115.882
 11
116.214
 20
111.214
 21
110.882
  0
LINE
  8
0
 10
116.214
 11
116.427
 20
110.882
 21
110.464
  0
LINE
  8
0
 10
116.427
 11
116.5
 20
110.464
 21
110
  0
LINE
  8
0
 10
116.5
 11
116.427
 20
110
 21
109.536
  0
LINE
  8
0
 10
116.427
 11
116.214
 20
109.536
 21
109.118
  0
LINE
  8
0
 10
116.214
 11
115.882
 20
109.118
 21
108.786
  0
LINE
  8
0
 10
115.882
 11
115.464
 20
108.786
 21
108.573
  0
LINE
  8
0
 10
115.464
 11
115
 20
108.573
 21
108.5
  0
LINE
  8
0
 10
115
 11
114.536
 20
108.5
 21
108.573
  0
LINE
  8
0
 10
114.536
 11
114.118
 20
108.573
 21
108.786
  0
LINE
  8
0
 10
114.118
 11
113.786
 20
108.786
 21
109.118
  0
LINE
  8
0
 10
113.786
 11
113.573
 20
109.118
 21
109.536
  0
LINE
  8
0
 10
113.573
 11
113.5
 20
109.536
 21
110
  0
LINE
  8
0
 10
114
 11
114.098
 20
10
 21
11.251
  0
LINE
  8
0
 10
114.098
 11
114.392
 20
11.251
 21
12.472
  0
LINE
  8
0
 10
114.392
 11
114.872
 20
12.472
 21
13.632
  0
LINE
  8
0
 10
114.872
 11
115.528
 20
13.632
 21
14.702
  0
LINE
  8
0
 10
115.528
 11
116.343
 20
14.702
 21
15.657
  0
LINE
  8
0
 10
116.343
 11
117.298
 20
15.657
 21
16.472
  0
LINE
  8
0
 10
117.298
 11
118.368
 20
16.472
 21
17.128
  0
LINE
  8
0
 10
118.368
 11
119.528
 20
17.128
 21
17.608
  0
LINE
  8
0
 10
119.528
 11
120.749
 20
17.608
 21
17.902
  0
LINE
  8
0
 10
120.749
 11
122
 20
17.902
 21
18
  0
LINE
  8
0
 10
122
 11
123.251
 20
18
 21
17.902
  0
LINE
  8
0
 10
123.251
 11
124.472
 20
17.902
 21
17.608
  0
LINE
  8
0
 10
124.472
 11
125.632
 20
17.608
 21
17.128
  0
LINE
  8
0
 10
125.632
 11
126.702
 20
17.128
 21
16.472
  0
LINE
  8
0
 10
126.702
 11
127.657
 20
16.472
 21
15.657
  0
LINE
  8
0
 10
127.657
 11
128.472
 20
15.657
 21
14.702
  0
LINE
  8
0
 10
128.472
 11
129.128
 20
14.702
 21
13.632
  0
LINE
  8
0
 10
129.128
 11
129.608
 20
13.632
 21
12.472
  0
LINE
  8
0
 10
129.608
 11
129.902
 20
12.472
 21
11.251
  0
LINE
  8
0
 10
129.902
 11
130
 20
11.251
 21
10
  0
LINE
  8
0
 10
130
 11
129.902
 20
10
 21
8.749
  0
LINE
  8
0
 10
129.902
 11
129.608
 20
8.749
 21
7.528
  0
LINE
  8
0
 10
129.608
 11
129.128
 20
7.528
 21
6.368
  0
LINE
  8
0
 10
129.128
 11
128.472
 20
6.368
 21
5.298
  0
LINE
  8
0
 10
128.472
 11
127.657
 20
5.298
 21
4.343
  0
LINE
  8
0
 10
127.657
 11
126.702
 20
4.343
 21
3.528
  0
LINE
  8
0
 10
126.702
 11
125.632
 20
3.528
 21
2.872
  0
LINE
  8
0
 10
125.632
 11
124.472
 20
2.872
 21
2.392
  0
LINE
  8
0
 10
124.472
 11
123.251
 20
2.392
 21
2.098
  0
LINE
  8
0
 10
123.251
 11
122
 20
2.098
 21
2
  0
LINE
  8
0
 10
122
 11
120.749
 20
2
 21
2.098
  0
LINE
  8
0
 10
120.749
 11
119.528
 20
2.098
 21
2.392
  0
LINE
  8
0
 10
119.528
 11
118.368
 20
2.392
 21
2.872
  0
LINE
  8
0
 10
118.368
 11
117.298
 20
2.872
 21
3.528
  0
LINE
  8
0
 10
117.298
 11
116.343
 20
3.528
 21
4.343
  0
LINE
  8
0
 10
116.343
 11
115.528
 20
4.343
 21
5.298
  0
LINE
  8
0
 10
115.528
 11
114.872
 20
5.298
 21
6.368
  0
LINE
  8
0
 10
114.872
 11
114.392
 20
6.368
 21
7.528
  0
LINE
  8
0
 10
114.392
 11
114.098
 20
7.528
 21
8.749
  0
LINE
  8
0
 10
114.098
 11
114
 20
8.749
 21
10
  0
LINE
  8
0
 10
117.85
 11
117.901
 20
10
 21
10.649
  0
LINE
  8
0
 10
117.901
 11
118.053
 20
10.649
 21
11.282
  0
LINE
  8
0
 10
118.053
 11
118.302
 20
11.282
 21
11.884
  0
LINE
  8
0
 10
118.302
 11
118.643
 20
11.884
 21
12.439
  0
LINE
  8
0
 10
118.643
 11
119.066
 20
12.439
 21
12.934
  0
LINE
  8
0
 10
119.066
 11
119.561
 20
12.934
 21
13.357
  0
LINE
  8
0
 10
119.561
 11
120.116
 20
13.357
 21
13.698
  0
LINE
  8
0
 10
120.116
 11
120.718
 20
13.698
 21
13.947
  0
LINE
  8
0
 10
120.718
 11
121.351
 20
13.947
 21
14.099
  0
LINE
  8
0
 10
121.351
 11
122
 20
14.099
 21
14.15
  0
LINE
  8
0
 10
122
 11
122.649
 20
14.15
 21
14.099
  0
LINE
  8
0
 10
122.649
 11
123.282
 20
14.099
 21
13.947
  0
LINE
  8
0
 10
123.282
 11
123.884
 20
13.947
 21
13.698
  0
LINE
  8
0
 10
123.884
 11
124.439
 20
13.698
 21
13.357
  0
LINE
  8
0
 10
124.439
 11
124.934
 20
13.357
 21
12.934
  0
LINE
  8
0
 10
124.934
 11
125.357
 20
12.934
 21
12.439
  0
LINE
  8
0
 10
125.357
 11
125.698
 20
12.439
 21
11.884
  0
LINE
  8
0
 10
125.698
 11
125.947
 20
11.884
 21
11.282
  0
LINE
  8
0
 10
125.947
 11
126.099
 20
11.282
 21
10.649
  0
LINE
  8
0
 10
126.099
 11
126.15
 20
10.649
 21
10
  0
LINE
  8
0
 10
126.15
 11
126.099
 20
10
 21
9.351
  0
LINE
  8
0
 10
126.099
 11
125.947
 20
9.351
 21
8.718
  0
LINE
  8
0
 10
125.947
 11
125.698
 20
8.718
 21
8.116
  0
LINE
  8
0
 10
125.698
 11
125.357
 20
8.116
 21
7.561
  0
LINE
  8
0
 10
125.357
 11
124.934
 20
7.561
 21
7.066
  0
LINE
  8
0
 10
124.934
 11
124.439
 20
7.066
 21
6.643
  0
LINE
  8
0
 10
124.439
 11
123.884
 20
6.643
 21
6.302
  0
LINE
  8
0
 10
123.884
 11
123.282
 20
6.302
 21
6.053
  0
LINE
  8
0
 10
123.282
 11
122.649
 20
6.053
 21
5.901
  0
LINE
  8
0
 10
122.649
 11
122
 20
5.901
 21
5.85
  0
LINE
  8
0
 10
122
 11
121.351
 20
5.85
 21
5.901
  0
LINE
  8
0
 10
121.351
 11
120.718
 20
5.901
 21
6.053
  0
LINE
  8
0
 10
120.718
 11
120.116
 20
6.053
 21
6.302
  0
LINE
  8
0
 10
120.116
 11
119.561
 20
6.302
 21
6.643
  0
LINE
  8
0
 10
119.561
 11
119.066
 20
6.643
 21
7.066
  0
LINE
  8
0
 10
119.066
 11
118.643
 20
7.066
 21
7.561
  0
LINE
  8
0
 10
118.643
 11
118.302
 20
7.561
 21
8.116
  0
LINE
  8
0
 10
118.302
 11
118.053
 20
8.116
 21
8.718
  0
LINE
  8
0
 10
118.053
 11
117.901
 20
8.718
 21
9.351
  0
LINE
  8
0
 10
117.901
 11
117.85
 20
9.351
 21
10
  0
LINE
  8
0
 10
118.5
 11
118.573
 20
40
 21
40.464
  0
LINE
  8
0
 10
118.573
 11
118.786
 20
40.464
 21
40.882
  0
LINE
  8
0
 10
118.786
 11
119.118
 20
40.882
 21
41.214
  0
LINE
  8
0
 10
119.118
 11
119.536
 20
41.214
 21
41.427
  0
LINE
  8
0
 10
119.536
 11
120
 20
41.427
 21
41.5
  0
LINE
  8
0
 10
120
 11
120.464
 20
41.5
 21
41.427
  0
LINE
  8
0
 10
120.464
 11
120.882
 20
41.427
 21
41.214
  0
LINE
  8
0
 10
120.882
 11
121.214
 20
41.214
 21
40.882
  0
LINE
  8
0
 10
121.214
 11
121.427
 20
40.882
 21
40.464
  0
LINE
  8
0
 10
121.427
 11
121.5
 20
40.464
 21
40
  0
LINE
  8
0
 10
121.5
 11
121.427
 20
40
 21
39.536
  0
LINE
  8
0
 10
121.427
 11
121.214
 20
39.536
 21
39.118
  0
LINE
  8
0
 10
121.214
 11
120.882
 20
39.118
 21
38.786
  0
LINE
  8
0
 10
120.882
 11
120.464
 20
38.786
 21
38.573
  0
LINE
  8
0
 10
120.464
 11
120
 20
38.573
 21
38.5
  0
LINE
  8
0
 10
120
 11
119.536
 20
38.5
 21
38.573
  0
LINE
  8
0
 10
119.536
 11
119.118
 20
38.573
 21
38.786
  0
LINE
  8
0
 10
119.118
 11
118.786
 20
38.786
 21
39.118
  0
LINE
  8
0
 10
118.786
 11
118.573
 20
39.118
 21
39.536
  0
LINE
  8
0
 10
118.573
 11
118.5
 20
39.536
 21
40
  0
LINE
  8
0
 10
118.5
 11
118.573
 20
74
 21
74.464
  0
LINE
  8
0
 10
118.573
 11
118.786
 20
74.464
 21
74.882
  0
LINE
  8
0
 10
118.786
 11
119.118
 20
74.882
 21
75.214
  0
LINE
  8
0
 10
119.118
 11
119.536
 20
75.214
 21
75.427
  0
LINE
  8
0
 10
119.536
 11
120
 20
75.427
 21
75.5
  0
LINE
  8
0
 10
120
 11
120.464
 20
75.5
 21
75.427
  0
LINE
  8
0
 10
120.464
 11
120.882
 20
75.427
 21
75.214
  0
LINE
  8
0
 10
120.882
 11
121.214
 20
75.214
 21
74.882
  0
LINE
  8
0
 10
121.214
 11
121.427
 20
74.882
 21
74.464
  0
LINE
  8
0
 10
121.427
 11
121.5
 20
74.464
 21
74
  0
LINE
  8
0
 10
121.5
 11
121.427
 20
74
 21
73.536
  0
LINE
  8
0
 10
121.427
 11
121.214
 20
73.536
 21
73.118
  0
LINE
  8
0
 10
121.214
 11
120.882
 20
73.118
 21
72.786
  0
LINE
  8
0
 10
120.882
 11
120.464
 20
72.786
 21
72.573
  0
LINE
  8
0
 10
120.464
 11
120
 20
72.573
 21
72.5
  0
LINE
  8
0
 10
120
 11
119.536
 20
72.5
 21
72.573
  0
LINE
  8
0
 10
119.536
 11
119.118
 20
72.573
 21
72.786
  0
LINE
  8
0
 10
119.118
 11
118.786
 20
72.786
 21
73.118
  0
LINE
  8
0
 10
118.786
 11
118.573
 20
73.118
 21
73.536
  0
LINE
  8
0
 10
118.573
 11
118.5
 20
73.536
 21
74
  0
LINE
  8
0
 10
125
 11
131
 20
60
 21
60
  0
LINE
  8
0
 10
131
 11
131
 20
60
 21
63.25
  0
LINE
  8
0
 10
131
 11
125
 20
63.25
 21
63.25
  0
LINE
  8
0
 10
125
 11
125
 20
63.25
 21
68.25
  0
LINE
  8
0
 10
125
 11
131
 20
68.25
 21
68.25
  0
LINE
  8
0
 10
131
 11
131
 20
68.25
 21
70
  0
LINE
  8
0
 10
131
 11
132.5
 20
70
 21
70
  0
LINE
  8
0
 10
132.5
 11
132.5
 20
70
 21
68.5
  0
LINE
  8
0
 10
132.5
 11
135.5
 20
68.5
 21
68.5
  0
LINE
  8
0
 10
135.5
 11
135.5
 20
68.5
 21
70
  0
LINE
  8
0
 10
135.5
 11
137
 20
70
 21
70
  0
LINE
  8
0
 10
137
 11
137
 20
70
 21
73
  0
LINE
  8
0
 10
137
 11
135.5
 20
73
 21
73
  0
LINE
  8
0
 10
135.5
 11
135.5
 20
73
 21
74.5
  0
LINE
  8
0
 10
135.5
 11
132.5
 20
74.5
 21
74.5
  0
LINE
  8
0
 10
132.5
 11
132.5
 20
74.5
 21
73
  0
LINE
  8
0
 10
132.5
 11
131
 20
73
 21
73
  0
LINE
  8
0
 10
131
 11
131
 20
73
 21
74.75
  0
LINE
  8
0
 10
131
 11
125
 20
74.75
 21
74.75
  0
LINE
  8
0
 10
125
 11
125
 20
74.75
 21
79.75
  0
LINE
  8
0
 10
125
 11
131
 20
79.75
 21
79.75
  0
LINE
  8
0
 10
131
 11
131
 20
79.75
 21
82.101
  0
LINE
  8
0
 10
131
 11
134.355
 20
82.101
 21
81.012
  0
LINE
  8
0
 10
134.355
 11
138.519
 20
81.012
 21
78.607
  0
LINE
  8
0
 10
138.519
 11
142.092
 20
78.607
 21
75.39
  0
LINE
  8
0
 10
142.092
 11
144.919
 20
75.39
 21
71.5
  0
LINE
  8
0
 10
144.919
 11
146.874
 20
71.5
 21
67.107
  0
LINE
  8
0
 10
146.874
 11
149.583
 20
67.107
 21
55.933
  0
LINE
  8
0
 10
149.583
 11
148.4
 20
55.933
 21
56.25
  0
LINE
  8
0
 10
148.4
 11
146.575
 20
56.25
 21
55.761
  0
LINE
  8
0
 10
146.575
 11
145.239
 20
55.761
 21
54.425
  0
LINE
  8
0
 10
145.239
 11
144.75
 20
54.425
 21
52.6
  0
LINE
  8
0
 10
144.75
 11
145.239
 20
52.6
 21
50.775
  0
LINE
  8
0
 10
145.239
 11
146.575
 20
50.775
 21
49.439
  0
LINE
  8
0
 10
146.575
 11
148.4
 20
49.439
 21
48.95
  0
LINE
  8
0
 10
148.4
 11
150.225
 20
48.95
 21
49.439
  0
LINE
  8
0
 10
150.225
 11
150.975
 20
49.439
 21
50.189
  0
LINE
  8
0
 10
150.975
 11
153.816
 20
50.189
 21
38.473
  0
LINE
  8
0
 10
153.816
 11
153.98
 20
38.473
 21
36.505
  0
LINE
  8
0
 10
153.98
 11
153.495
 20
36.505
 21
34.59
  0
LINE
  8
0
 10
153.495
 11
152.414
 20
34.59
 21
32.936
  0
LINE
  8
0
 10
152.414
 11
150.856
 20
32.936
 21
31.723
  0
LINE
  8
0
 10
150.856
 11
148.988
 20
31.723
 21
31.082
  0
LINE
  8
0
 10
148.988
 11
147.012
 20
31.082
 21
31.082
  0
LINE
  8
0
 10
147.012
 11
145.144
 20
31.082
 21
31.723
  0
LINE
  8
0
 10
145.144
 11
143.586
 20
31.723
 21
32.936
  0
LINE
  8
0
 10
143.586
 11
130.908
 20
32.936
 21
44.61
  0
LINE
  8
0
 10
130.908
 11
128.081
 20
44.61
 21
48.5
  0
LINE
  8
0
 10
128.081
 11
126.126
 20
48.5
 21
52.893
  0
LINE
  8
0
 10
126.126
 11
125.126
 20
52.893
 21
57.596
  0
LINE
  8
0
 10
125.126
 11
125
 20
57.596
 21
60
  0
LINE
  8
0
 10
126.5
 11
126.573
 20
110
 21
110.464
  0
LINE
  8
0
 10
126.573
 11
126.786
 20
110.464
 21
110.882
  0
LINE
  8
0
 10
126.786
 11
127.118
 20
110.882
 21
111.214
  0
LINE
  8
0
 10
127.118
 11
127.536
 20
111.214
 21
111.427
  0
LINE
  8
0
 10
127.536
 11
128
 20
111.427
 21
111.5
  0
LINE
  8
0
 10
128
 11
128.464
 20
111.5
 21
111.427
  0
LINE
  8
0
 10
128.464
 11
128.882
 20
111.427
 21
111.214
  0
LINE
  8
0
 10
128.882
 11
129.214
 20
111.214
 21
110.882
  0
LINE
  8
0
 10
129.214
 11
129.427
 20
110.882
 21
110.464
  0
LINE
  8
0
 10
129.427
 11
129.5
 20
110.464
 21
110
  0
LINE
  8
0
 10
129.5
 11
129.427
 20
110
 21
109.536
  0
LINE
  8
0
 10
129.427
 11
129.214
 20
109.536
 21
109.118
  0
LINE
  8
0
 10
129.214
 11
128.882
 20
109.118
 21
108.786
  0
LINE
  8
0
 10
128.882
 11
128.464
 20
108.786
 21
108.573
  0
LINE
  8
0
 10
128.464
 11
128
 20
108.573
 21
108.5
  0
LINE
  8
0
 10
128
 11
127.536
 20
108.5
 21
108.573
  0
LINE
  8
0
 10
127.536
 11
127.118
 20
108.573
 21
108.786
  0
LINE
  8
0
 10
127.118
 11
126.786
 20
108.786
 21
109.118
  0
LINE
  8
0
 10
126.786
 11
126.573
 20
109.118
 21
109.536
  0
LINE
  8
0
 10
126.573
 11
126.5
 20
109.536
 21
110
  0
LINE
  8
0
 10
127
 11
127.062
 20
90
 21
90.782
  0
LINE
  8
0
 10
127.062
 11
127.245
 20
90.782
 21
91.545
  0
LINE
  8
0
 10
127.245
 11
127.545
 20
91.545
 21
92.27
  0
LINE
  8
0
 10
127.545
 11
127.955
 20
92.27
 21
92.939
  0
LINE
  8
0
 10
127.955
 11
128.464
 20
92.939
 21
93.536
  0
LINE
  8
0
 10
128.464
 11
129.061
 20
93.536
 21
94.045
  0
LINE
  8
0
 10
129.061
 11
129.73
 20
94.045
 21
94.455
  0
LINE
  8
0
 10
129.73
 11
130.455
 20
94.455
 21
94.755
  0
LINE
  8
0
 10
130.455
 11
131.218
 20
94.755
 21
94.938
  0
LINE
  8
0
 10
131.218
 11
132
 20
94.938
 21
95
  0
LINE
  8
0
 10
132
 11
136
 20
95
 21
95
  0
LINE
  8
0
 10
136
 11
136
 20
95
 21
85
  0
LINE
  8
0
 10
136
 11
132
 20
85
 21
85
  0
LINE
  8
0
 10
132
 11
131.218
 20
85
 21
85.062
  0
LINE
  8
0
 10
131.218
 11
130.455
 20
85.062
 21
85.245
  0
LINE
  8
0
 10
130.455
 11
129.73
 20
85.245
 21
85.545
  0
LINE
  8
0
 10
129.73
 11
129.061
 20
85.545
 21
85.955
  0
LINE
  8
0
 10
129.061
 11
128.464
 20
85.955
 21
86.464
  0
LINE
  8
0
 10
128.464
 11
127.955
 20
86.464
 21
87.061
  0
LINE
  8
0
 10
127.955
 11
127.545
 20
87.061
 21
87.73
  0
LINE
  8
0
 10
127.545
 11
127.245
 20
87.73
 21
88.455
  0
LINE
  8
0
 10
127.245
 11
127.062
 20
88.455
 21
89.218
  0
LINE
  8
0
 10
127.062
 11
127
 20
89.218
 21
90
  0
LINE
  8
0
 10
130.5
 11
130.573
 20
90
 21
90.464
  0
LINE
  8
0
 10
130.573
 11
130.786
 20
90.464
 21
90.882
  0
LINE
  8
0
 10
130.786
 11
131.118
 20
90.882
 21
91.214
  0
LINE
  8
0
 10
131.118
 11
131.536
 20
91.214
 21
91.427
  0
LINE
  8
0
 10
131.536
 11
132
 20
91.427
 21
91.5
  0
LINE
  8
0
 10
132
 11
132.464
 20
91.5
 21
91.427
  0
LINE
  8
0
 10
132.464
 11
132.882
 20
91.427
 21
91.214
  0
LINE
  8
0
 10
132.882
 11
133.214
 20
91.214
 21
90.882
  0
LINE
  8
0
 10
133.214
 11
133.427
 20
90.882
 21
90.464
  0
LINE
  8
0
 10
133.427
 11
133.5
 20
90.464
 21
90
  0
LINE
  8
0
 10
133.5
 11
133.427
 20
90
 21
89.536
  0
LINE
  8
0
 10
133.427
 11
133.214
 20
89.536
 21
89.118
  0
LINE
  8
0
 10
133.214
 11
132.882
 20
89.118
 21
88.786
  0
LINE
  8
0
 10
132.882
 11
132.464
 20
88.786
 21
88.573
  0
LINE
  8
0
 10
132.464
 11
132
 20
88.573
 21
88.5
  0
LINE
  8
0
 10
132
 11
131.536
 20
88.5
 21
88.573
  0
LINE
  8
0
 10
131.536
 11
131.118
 20
88.573
 21
88.786
  0
LINE
  8
0
 10
131.118
 11
130.786
 20
88.786
 21
89.118
  0
LINE
  8
0
 10
130.786
 11
130.573
 20
89.118
 21
89.536
  0
LINE
  8
0
 10
130.573
 11
130.5
 20
89.536
 21
90
  0
LINE
  8
0
 10
132
 11
132.062
 20
10
 21
10.782
  0
LINE
  8
0
 10
132.062
 11
132.245
 20
10.782
 21
11.545
  0
LINE
  8
0
 10
132.245
 11
132.545
 20
11.545
 21
12.27
  0
LINE
  8
0
 10
132.545
 11
132.955
 20
12.27
 21
12.939
  0
LINE
  8
0
 10
132.955
 11
133.464
 20
12.939
 21
13.536
  0
LINE
  8
0
 10
133.464
 11
134.061
 20
13.536
 21
14.045
  0
LINE
  8
0
 10
134.061
 11
134.73
 20
14.045
 21
14.455
  0
LINE
  8
0
 10
134.73
 11
135.455
 20
14.455
 21
14.755
  0
LINE
  8
0
 10
135.455
 11
136.218
 20
14.755
 21
14.938
  0
LINE
  8
0
 10
136.218
 11
137
 20
14.938
 21
15
  0
LINE
  8
0
 10
137
 11
156
 20
15
 21
15
  0
LINE
  8
0
 10
156
 11
156
 20
15
 21
25
  0
LINE
  8
0
 10
156
 11
156.381
 20
25
 21
26.913
  0
LINE
  8
0
 10
156.381
 11
157.464
 20
26.913
 21
28.536
  0
LINE
  8
0
 10
157.464
 11
159.087
 20
28.536
 21
29.619
  0
LINE
  8
0
 10
159.087
 11
161
 20
29.619
 21
30
  0
LINE
  8
0
 10
161
 11
163.5
 20
30
 21
30
  0
LINE
  8
0
 10
163.5
 11
163.5
 20
30
 21
30.079
  0
LINE
  8
0
 10
163.5
 11
164
 20
30.079
 21
30
  0
LINE
  8
0
 10
164
 11
167.554
 20
30
 21
30.563
  0
LINE
  8
0
 10
167.554
 11
170.76
 20
30.563
 21
32.196
  0
LINE
  8
0
 10
170.76
 11
173.304
 20
32.196
 21
34.74
  0
LINE
  8
0
 10
173.304
 11
174.937
 20
34.74
 21
37.946
  0
LINE
  8
0
 10
174.937
 11
175.078
 20
37.946
 21
38.835
  0
LINE
  8
0
 10
175.078
 11
175.649
 20
38.835
 21
38.264
  0
LINE
  8
0
 10
175.649
 11
176.764
 20
38.264
 21
37.696
  0
LINE
  8
0
 10
176.764
 11
178
 20
37.696
 21
37.5
  0
LINE
  8
0
 10
178
 11
179.236
 20
37.5
 21
37.696
  0
LINE
  8
0
 10
179.236
 11
180.351
 20
37.696
 21
38.264
  0
LINE
  8
0
 10
180.351
 11
181.236
 20
38.264
 21
39.149
  0
LINE
  8
0
 10
181.236
 11
181.804
 20
39.149
 21
40.264
  0
LINE
  8
0
 10
181.804
 11
182
 20
40.264
 21
41.5
  0
LINE
  8
0
 10
182
 11
181.804
 20
41.5
 21
42.736
  0
LINE
  8
0
 10
181.804
 11
181.236
 20
42.736
 21
43.851
  0
LINE
  8
0
 10
181.236
 11
180.351
 20
43.851
 21
44.736
  0
LINE
  8
0
 10
180.351
 11
179.236
 20
44.736
 21
45.304
  0
LINE
  8
0
 10
179.236
 11
178
 20
45.304
 21
45.5
  0
LINE
  8
0
 10
178
 11
176.764
 20
45.5
 21
45.304
  0
LINE
  8
0
 10
176.764
 11
175.649
 20
45.304
 21
44.736
  0
LINE
  8
0
 10
175.649
 11
175.078
 20
44.736
 21
44.165
  0
LINE
  8
0
 10
175.078
 11
174.937
 20
44.165
 21
45.054
  0
LINE
  8
0
 10
174.937
 11
173.304
 20
45.054
 21
48.26
  0
LINE
  8
0
 10
173.304
 11
171
 20
48.26
 21
50.564
  0
LINE
  8
0
 10
171
 11
171
 20
50.564
 21
63
  0
LINE
  8
0
 10
171
 11
190
 20
63
 21
63
  0
LINE
  8
0
 10
190
 11
211.182
 20
63
 21
70.478
  0
LINE
  8
0
 10
211.182
 11
213.123
 20
70.478
 21
70.672
  0
LINE
  8
0
 10
213.123
 11
214.991
 20
70.672
 21
70.111
  0
LINE
  8
0
 10
214.991
 11
248.543
 20
70.111
 21
52.271
  0
LINE
  8
0
 10
248.543
 11
250.054
 20
52.271
 21
51.036
  0
LINE
  8
0
 10
250.054
 11
250.978
 20
51.036
 21
49.318
  0
LINE
  8
0
 10
250.978
 11
251.172
 20
49.318
 21
47.377
  0
LINE
  8
0
 10
251.172
 11
250.611
 20
47.377
 21
45.509
  0
LINE
  8
0
 10
250.611
 11
232.771
 20
45.509
 21
11.957
  0
LINE
  8
0
 10
232.771
 11
231.536
 20
11.957
 21
10.446
  0
LINE
  8
0
 10
231.536
 11
229.818
 20
10.446
 21
9.522
  0
LINE
  8
0
 10
229.818
 11
217.62
 20
9.522
 21
8.129
  0
LINE
  8
0
 10
217.62
 11
217.455
 20
8.129
 21
7.73
  0
LINE
  8
0
 10
217.455
 11
217.045
 20
7.73
 21
7.061
  0
LINE
  8
0
 10
217.045
 11
216.536
 20
7.061
 21
6.464
  0
LINE
  8
0
 10
216.536
 11
215.939
 20
6.464
 21
5.955
  0
LINE
  8
0
 10
215.939
 11
215.27
 20
5.955
 21
5.545
  0
LINE
  8
0
 10
215.27
 11
214.545
 20
5.545
 21
5.245
  0
LINE
  8
0
 10
214.545
 11
213.782
 20
5.245
 21
5.062
  0
LINE
  8
0
 10
213.782
 11
213
 20
5.062
 21
5
  0
LINE
  8
0
 10
213
 11
181.7
 20
5
 21
5
  0
LINE
  8
0
 10
181.7
 11
181.7
 20
5
 21
8.5
  0
LINE
  8
0
 10
181.7
 11
182.164
 20
8.5
 21
8.573
  0
LINE
  8
0
 10
182.164
 11
182.582
 20
8.573
 21
8.786
  0
LINE
  8
0
 10
182.582
 11
182.914
 20
8.786
 21
9.118
  0
LINE
  8
0
 10
182.914
 11
183.127
 20
9.118
 21
9.536
  0
LINE
  8
0
 10
183.127
 11
183.2
 20
9.536
 21
10
  0
LINE
  8
0
 10
183.2
 11
183.127
 20
10
 21
10.464
  0
LINE
  8
0
 10
183.127
 11
182.914
 20
10.464
 21
10.882
  0
LINE
  8
0
 10
182.914
 11
182.582
 20
10.882
 21
11.214
  0
LINE
  8
0
 10
182.582
 11
182.164
 20
11.214
 21
11.427
  0
LINE
  8
0
 10
182.164
 11
181.7
 20
11.427
 21
11.5
  0
LINE
  8
0
 10
181.7
 11
181.7
 20
11.5
 21
15
  0
LINE
  8
0
 10
181.7
 11
167.7
 20
15
 21
15
  0
LINE
  8
0
 10
167.7
 11
167.7
 20
15
 21
11.5
  0
LINE
  8
0
 10
167.7
 11
167.236
 20
11.5
 21
11.427
  0
LINE
  8
0
 10
167.236
 11
166.818
 20
11.427
 21
11.214
  0
LINE
  8
0
 10
166.818
 11
166.486
 20
11.214
 21
10.882
  0
LINE
  8
0
 10
166.486
 11
166.273
 20
10.882
 21
10.464
  0
LINE
  8
0
 10
166.273
 11
166.2
 20
10.464
 21
10
  0
LINE
  8
0
 10
166.2
 11
166.273
 20
10
 21
9.536
  0
LINE
  8
0
 10
166.273
 11
166.486
 20
9.536
 21
9.118
  0
LINE
  8
0
 10
166.486
 11
166.818
 20
9.118
 21
8.786
  0
LINE
  8
0
 10
166.818
 11
167.236
 20
8.786
 21
8.573
  0
LINE
  8
0
 10
167.236
 11
167.7
 20
8.573
 21
8.5
  0
LINE
  8
0
 10
167.7
 11
167.7
 20
8.5
 21
5
  0
LINE
  8
0
 10
167.7
 11
137
 20
5
 21
5
  0
LINE
  8
0
 10
137
 11
136.218
 20
5
 21
5.062
  0
LINE
  8
0
 10
136.218
 11
135.455
 20
5.062
 21
5.245
  0
LINE
  8
0
 10
135.455
 11
134.73
 20
5.245
 21
5.545
  0
LINE
  8
0
 10
134.73
 11
134.061
 20
5.545
 21
5.955
  0
LINE
  8
0
 10
134.061
 11
133.464
 20
5.955
 21
6.464
  0
LINE
  8
0
 10
133.464
 11
132.955
 20
6.464
 21
7.061
  0
LINE
  8
0
 10
132.955
 11
132.545
 20
7.061
 21
7.73
  0
LINE
  8
0
 10
132.545
 11
132.245
 20
7.73
 21
8.455
  0
LINE
  8
0
 10
132.245
 11
132.062
 20
8.455
 21
9.218
  0
LINE
  8
0
 10
132.062
 11
132
 20
9.218
 21
10
  0
LINE
  8
0
 10
135.5
 11
135.573
 20
10
 21
10.464
  0
LINE
  8
0
 10
135.573
 11
135.786
 20
10.464
 21
10.882
  0
LINE
  8
0
 10
135.786
 11
136.118
 20
10.882
 21
11.214
  0
LINE
  8
0
 10
136.118
 11
136.536
 20
11.214
 21
11.427
  0
LINE
  8
0
 10
136.536
 11
137
 20
11.427
 21
11.5
  0
LINE
  8
0
 10
137
 11
137.464
 20
11.5
 21
11.427
  0
LINE
  8
0
 10
137.464
 11
137.882
 20
11.427
 21
11.214
  0
LINE
  8
0
 10
137.882
 11
138.214
 20
11.214
 21
10.882
  0
LINE
  8
0
 10
138.214
 11
138.427
 20
10.882
 21
10.464
  0
LINE
  8
0
 10
138.427
 11
138.5
 20
10.464
 21
10
  0
LINE
  8
0
 10
138.5
 11
138.427
 20
10
 21
9.536
  0
LINE
  8
0
 10
138.427
 11
138.214
 20
9.536
 21
9.118
  0
LINE
  8
0
 10
138.214
 11
137.882
 20
9.118
 21
8.786
  0
LINE
  8
0
 10
137.882
 11
137.464
 20
8.786
 21
8.573
  0
LINE
  8
0
 10
137.464
 11
137
 20
8.573
 21
8.5
  0
LINE
  8
0
 10
137
 11
136.536
 20
8.5
 21
8.573
  0
LINE
  8
0
 10
136.536
 11
136.118
 20
8.573
 21
8.786
  0
LINE
  8
0
 10
136.118
 11
135.786
 20
8.786
 21
9.118
  0
LINE
  8
0
 10
135.786
 11
135.573
 20
9.118
 21
9.536
  0
LINE
  8
0
 10
135.573
 11
135.5
 20
9.536
 21
10
  0
LINE
  8
0
 10
140
 11
140
 20
85
 21
95
  0
LINE
  8
0
 10
140
 11
162.3
 20
95
 21
95
  0
LINE
  8
0
 10
162.3
 11
162.3
 20
95
 21
91.096
  0
LINE
  8
0
 10
162.3
 11
162.086
 20
91.096
 21
90.882
  0
LINE
  8
0
 10
162.086
 11
161.873
 20
90.882
 21
90.464
  0
LINE
  8
0
 10
161.873
 11
161.8
 20
90.464
 21
90
  0
LINE
  8
0
 10
161.8
 11
161.873
 20
90
 21
89.536
  0
LINE
  8
0
 10
161.873
 11
162.086
 20
89.536
 21
89.118
  0
LINE
  8
0
 10
162.086
 11
162.3
 20
89.118
 21
88.904
  0
LINE
  8
0
 10
162.3
 11
162.3
 20
88.904
 21
85
  0
LINE
  8
0
 10
162.3
 11
168.7
 20
85
 21
85
  0
LINE
  8
0
 10
168.7
 11
168.7
 20
85
 21
64.2
  0
LINE
  8
0
 10
168.7
 11
167
 20
64.2
 21
62.5
  0
LINE
  8
0
 10
167
 11
165.764
 20
62.5
 21
62.304
  0
LINE
  8
0
 10
165.764
 11
164.649
 20
62.304
 21
61.736
  0
LINE
  8
0
 10
164.649
 11
163.764
 20
61.736
 21
60.851
  0
LINE
  8
0
 10
163.764
 11
163.196
 20
60.851
 21
59.736
  0
LINE
  8
0
 10
163.196
 11
163
 20
59.736
 21
58.5
  0
LINE
  8
0
 10
163
 11
163.196
 20
58.5
 21
57.264
  0
LINE
  8
0
 10
163.196
 11
163.764
 20
57.264
 21
56.149
  0
LINE
  8
0
 10
163.764
 11
164.649
 20
56.149
 21
55.264
  0
LINE
  8
0
 10
164.649
 11
165.764
 20
55.264
 21
54.696
  0
LINE
  8
0
 10
165.764
 11
167
 20
54.696
 21
54.5
  0
LINE
  8
0
 10
167
 11
168.7
 20
54.5
 21
52.8
  0
LINE
  8
0
 10
168.7
 11
168.7
 20
52.8
 21
37
  0
LINE
  8
0
 10
168.7
 11
155
 20
37
 21
37
  0
LINE
  8
0
 10
155
 11
155
 20
37
 21
85
  0
LINE
  8
0
 10
155
 11
140
 20
85
 21
85
  0
LINE
  8
0
 10
145.5
 11
145.573
 20
25
 21
25.464
  0
LINE
  8
0
 10
145.573
 11
145.786
 20
25.464
 21
25.882
  0
LINE
  8
0
 10
145.786
 11
146.118
 20
25.882
 21
26.214
  0
LINE
  8
0
 10
146.118
 11
146.536
 20
26.214
 21
26.427
  0
LINE
  8
0
 10
146.536
 11
147
 20
26.427
 21
26.5
  0
LINE
  8
0
 10
147
 11
147.464
 20
26.5
 21
26.427
  0
LINE
  8
0
 10
147.464
 11
147.882
 20
26.427
 21
26.214
  0
LINE
  8
0
 10
147.882
 11
148.214
 20
26.214
 21
25.882
  0
LINE
  8
0
 10
148.214
 11
148.427
 20
25.882
 21
25.464
  0
LINE
  8
0
 10
148.427
 11
148.5
 20
25.464
 21
25
  0
LINE
  8
0
 10
148.5
 11
148.427
 20
25
 21
24.536
  0
LINE
  8
0
 10
148.427
 11
148.214
 20
24.536
 21
24.118
  0
LINE
  8
0
 10
148.214
 11
147.882
 20
24.118
 21
23.786
  0
LINE
  8
0
 10
147.882
 11
147.464
 20
23.786
 21
23.573
  0
LINE
  8
0
 10
147.464
 11
147
 20
23.573
 21
23.5
  0
LINE
  8
0
 10
147
 11
146.536
 20
23.5
 21
23.573
  0
LINE
  8
0
 10
146.536
 11
146.118
 20
23.573
 21
23.786
  0
LINE
  8
0
 10
146.118
 11
145.786
 20
23.786
 21
24.118
  0
LINE
  8
0
 10
145.786
 11
145.573
 20
24.118
 21
24.536
  0
LINE
  8
0
 10
145.573
 11
145.5
 20
24.536
 21
25
  0
LINE
  8
0
 10
146.5
 11
146.573
 20
37
 21
37.464
  0
LINE
  8
0
 10
146.573
 11
146.786
 20
37.464
 21
37.882
  0
LINE
  8
0
 10
146.786
 11
147.118
 20
37.882
 21
38.214
  0
LINE
  8
0
 10
147.118
 11
147.536
 20
38.214
 21
38.427
  0
LINE
  8
0
 10
147.536
 11
148
 20
38.427
 21
38.5
  0
LINE
  8
0
 10
148
 11
148.464
 20
38.5
 21
38.427
  0
LINE
  8
0
 10
148.464
 11
148.882
 20
38.427
 21
38.214
  0
LINE
  8
0
 10
148.882
 11
149.214
 20
38.214
 21
37.882
  0
LINE
  8
0
 10
149.214
 11
149.427
 20
37.882
 21
37.464
  0
LINE
  8
0
 10
149.427
 11
149.5
 20
37.464
 21
37
  0
LINE
  8
0
 10
149.5
 11
149.427
 20
37
 21
36.536
  0
LINE
  8
0
 10
149.427
 11
149.214
 20
36.536
 21
36.118
  0
LINE
  8
0
 10
149.214
 11
148.882
 20
36.118
 21
35.786
  0
LINE
  8
0
 10
148.882
 11
148.464
 20
35.786
 21
35.573
  0
LINE
  8
0
 10
148.464
 11
148
 20
35.573
 21
35.5
  0
LINE
  8
0
 10
148
 11
147.536
 20
35.5
 21
35.573
  0
LINE
  8
0
 10
147.536
 11
147.118
 20
35.573
 21
35.786
  0
LINE
  8
0
 10
147.118
 11
146.786
 20
35.786
 21
36.118
  0
LINE
  8
0
 10
146.786
 11
146.573
 20
36.118
 21
36.536
  0
LINE
  8
0
 10
146.573
 11
146.5
 20
36.536
 21
37
  0
LINE
  8
0
 10
148.5
 11
148.573
 20
10
 21
10.464
  0
LINE
  8
0
 10
148.573
 11
148.786
 20
10.464
 21
10.882
  0
LINE
  8
0
 10
148.786
 11
149.118
 20
10.882
 21
11.214
  0
LINE
  8
0
 10
149.118
 11
149.536
 20
11.214
 21
11.427
  0
LINE
  8
0
 10
149.536
 11
150
 20
11.427
 21
11.5
  0
LINE
  8
0
 10
150
 11
150.464
 20
11.5
 21
11.427
  0
LINE
  8
0
 10
150.464
 11
150.882
 20
11.427
 21
11.214
  0
LINE
  8
0
 10
150.882
 11
151.214
 20
11.214
 21
10.882
  0
LINE
  8
0
 10
151.214
 11
151.427
 20
10.882
 21
10.464
  0
LINE
  8
0
 10
151.427
 11
151.5
 20
10.464
 21
10
  0
LINE
  8
0
 10
151.5
 11
151.427
 20
10
 21
9.536
  0
LINE
  8
0
 10
151.427
 11
151.214
 20
9.536
 21
9.118
  0
LINE
  8
0
 10
151.214
 11
150.882
 20
9.118
 21
8.786
  0
LINE
  8
0
 10
150.882
 11
150.464
 20
8.786
 21
8.573
  0
LINE
  8
0
 10
150.464
 11
150
 20
8.573
 21
8.5
  0
LINE
  8
0
 10
150
 11
149.536
 20
8.5
 21
8.573
  0
LINE
  8
0
 10
149.536
 11
149.118
 20
8.573
 21
8.786
  0
LINE
  8
0
 10
149.118
 11
148.786
 20
8.786
 21
9.118
  0
LINE
  8
0
 10
148.786
 11
148.573
 20
9.118
 21
9.536
  0
LINE
  8
0
 10
148.573
 11
148.5
 20
9.536
 21
10
  0
LINE
  8
0
 10
157.5
 11
157.573
 20
41
 21
41.464
  0
LINE
  8
0
 10
157.573
 11
157.786
 20
41.464
 21
41.882
  0
LINE
  8
0
 10
157.786
 11
158.118
 20
41.882
 21
42.214
  0
LINE
  8
0
 10
158.118
 11
158.536
 20
42.214
 21
42.427
  0
LINE
  8
0
 10
158.536
 11
159
 20
42.427
 21
42.5
  0
LINE
  8
0
 10
159
 11
159.464
 20
42.5
 21
42.427
  0
LINE
  8
0
 10
159.464
 11
159.882
 20
42.427
 21
42.214
  0
LINE
  8
0
 10
159.882
 11
160.214
 20
42.214
 21
41.882
  0
LINE
  8
0
 10
160.214
 11
160.427
 20
41.882
 21
41.464
  0
LINE
  8
0
 10
160.427
 11
160.5
 20
41.464
 21
41
  0
LINE
  8
0
 10
160.5
 11
160.427
 20
41
 21
40.536
  0
LINE
  8
0
 10
160.427
 11
160.214
 20
40.536
 21
40.118
  0
LINE
  8
0
 10
160.214
 11
159.882
 20
40.118
 21
39.786
  0
LINE
  8
0
 10
159.882
 11
159.464
 20
39.786
 21
39.573
  0
LINE
  8
0
 10
159.464
 11
159
 20
39.573
 21
39.5
  0
LINE
  8
0
 10
159
 11
158.536
 20
39.5
 21
39.573
  0
LINE
  8
0
 10
158.536
 11
158.118
 20
39.573
 21
39.786
  0
LINE
  8
0
 10
158.118
 11
157.786
 20
39.786
 21
40.118
  0
LINE
  8
0
 10
157.786
 11
157.573
 20
40.118
 21
40.536
  0
LINE
  8
0
 10
157.573
 11
157.5
 20
40.536
 21
41
  0
LINE
  8
0
 10
157.5
 11
157.573
 20
75
 21
75.464
  0
LINE
  8
0
 10
157.573
 11
157.786
 20
75.464
 21
75.882
  0
LINE
  8
0
 10
157.786
 11
158.118
 20
75.882
 21
76.214
  0
LINE
  8
0
 10
158.118
 11
158.536
 20
76.214
 21
76.427
  0
LINE
  8
0
 10
158.536
 11
159
 20
76.427
 21
76.5
  0
LINE
  8
0
 10
159
 11
159.464
 20
76.5
 21
76.427
  0
LINE
  8
0
 10
159.464
 11
159.882
 20
76.427
 21
76.214
  0
LINE
  8
0
 10
159.882
 11
160.214
 20
76.214
 21
75.882
  0
LINE
  8
0
 10
160.214
 11
160.427
 20
75.882
 21
75.464
  0
LINE
  8
0
 10
160.427
 11
160.5
 20
75.464
 21
75
  0
LINE
  8
0
 10
160.5
 11
160.427
 20
75
 21
74.536
  0
LINE
  8
0
 10
160.427
 11
160.214
 20
74.536
 21
74.118
  0
LINE
  8
0
 10
160.214
 11
159.882
 20
74.118
 21
73.786
  0
LINE
  8
0
 10
159.882
 11
159.464
 20
73.786
 21
73.573
  0
LINE
  8
0
 10
159.464
 11
159
 20
73.573
 21
73.5
  0
LINE
  8
0
 10
159
 11
158.536
 20
73.5
 21
73.573
  0
LINE
  8
0
 10
158.536
 11
158.118
 20
73.573
 21
73.786
  0
LINE
  8
0
 10
158.118
 11
157.786
 20
73.786
 21
74.118
  0
LINE
  8
0
 10
157.786
 11
157.573
 20
74.118
 21
74.536
  0
LINE
  8
0
 10
157.573
 11
157.5
 20
74.536
 21
75
  0
LINE
  8
0
 10
161.5
 11
161.573
 20
26
 21
26.464
  0
LINE
  8
0
 10
161.573
 11
161.786
 20
26.464
 21
26.882
  0
LINE
  8
0
 10
161.786
 11
162.118
 20
26.882
 21
27.214
  0
LINE
  8
0
 10
162.118
 11
162.536
 20
27.214
 21
27.427
  0
LINE
  8
0
 10
162.536
 11
163
 20
27.427
 21
27.5
  0
LINE
  8
0
 10
163
 11
163.464
 20
27.5
 21
27.427
  0
LINE
  8
0
 10
163.464
 11
163.882
 20
27.427
 21
27.214
  0
LINE
  8
0
 10
163.882
 11
164.214
 20
27.214
 21
26.882
  0
LINE
  8
0
 10
164.214
 11
164.427
 20
26.882
 21
26.464
  0
LINE
  8
0
 10
164.427
 11
164.5
 20
26.464
 21
26
  0
LINE
  8
0
 10
164.5
 11
164.427
 20
26
 21
25.536
  0
LINE
  8
0
 10
164.427
 11
164.214
 20
25.536
 21
25.118
  0
LINE
  8
0
 10
164.214
 11
163.882
 20
25.118
 21
24.786
  0
LINE
  8
0
 10
163.882
 11
163.464
 20
24.786
 21
24.573
  0
LINE
  8
0
 10
163.464
 11
163
 20
24.573
 21
24.5
  0
LINE
  8
0
 10
163
 11
162.536
 20
24.5
 21
24.573
  0
LINE
  8
0
 10
162.536
 11
162.118
 20
24.573
 21
24.786
  0
LINE
  8
0
 10
162.118
 11
161.786
 20
24.786
 21
25.118
  0
LINE
  8
0
 10
161.786
 11
161.573
 20
25.118
 21
25.536
  0
LINE
  8
0
 10
161.573
 11
161.5
 20
25.536
 21
26
  0
LINE
  8
0
 10
171.9
 11
171.9
 20
67.278
 21
85
  0
LINE
  8
0
 10
171.9
 11
178.3
 20
85
 21
85
  0
LINE
  8
0
 10
178.3
 11
178.3
 20
85
 21
88.904
  0
LINE
  8
0
 10
178.3
 11
178.514
 20
88.904
 21
89.118
  0
LINE
  8
0
 10
178.514
 11
178.727
 20
89.118
 21
89.536
  0
LINE
  8
0
 10
178.727
 11
178.8
 20
89.536
 21
90
  0
LINE
  8
0
 10
178.8
 11
178.727
 20
90
 21
90.464
  0
LINE
  8
0
 10
178.727
 11
178.514
 20
90.464
 21
90.882
  0
LINE
  8
0
 10
178.514
 11
178.3
 20
90.882
 21
91.096
  0
LINE
  8
0
 10
178.3
 11
178.3
 20
91.096
 21
95
  0
LINE
  8
0
 10
178.3
 11
200
 20
95
 21
95
  0
LINE
  8
0
 10
200
 11
200
 20
95
 21
85
  0
LINE
  8
0
 10
200
 11
189
 20
85
 21
85
  0
LINE
  8
0
 10
189
 11
189
 20
85
 21
75
  0
LINE
  8
0
 10
189
 11
188.619
 20
75
 21
73.087
  0
LINE
  8
0
 10
188.619
 11
187.536
 20
73.087
 21
71.464
  0
LINE
  8
0
 10
187.536
 11
185.913
 20
71.464
 21
70.381
  0
LINE
  8
0
 10
185.913
 11
184
 20
70.381
 21
70
  0
LINE
  8
0
 10
184
 11
181.5
 20
70
 21
70
  0
LINE
  8
0
 10
181.5
 11
181.5
 20
70
 21
69.921
  0
LINE
  8
0
 10
181.5
 11
181
 20
69.921
 21
70
  0
LINE
  8
0
 10
181
 11
177.446
 20
70
 21
69.437
  0
LINE
  8
0
 10
177.446
 11
174.24
 20
69.437
 21
67.804
  0
LINE
  8
0
 10
174.24
 11
172.807
 20
67.804
 21
66.371
  0
LINE
  8
0
 10
172.807
 11
171.9
 20
66.371
 21
67.278
  0
LINE
  8
0
 10
180.5
 11
180.573
 20
74
 21
74.464
  0
LINE
  8
0
 10
180.573
 11
180.786
 20
74.464
 21
74.882
  0
LINE
  8
0
 10
180.786
 11
181.118
 20
74.882
 21
75.214
  0
LINE
  8
0
 10
181.118
 11
181.536
 20
75.214
 21
75.427
  0
LINE
  8
0
 10
181.536
 11
182
 20
75.427
 21
75.5
  0
LINE
  8
0
 10
182
 11
182.464
 20
75.5
 21
75.427
  0
LINE
  8
0
 10
182.464
 11
182.882
 20
75.427
 21
75.214
  0
LINE
  8
0
 10
182.882
 11
183.214
 20
75.214
 21
74.882
  0
LINE
  8
0
 10
183.214
 11
183.427
 20
74.882
 21
74.464
  0
LINE
  8
0
 10
183.427
 11
183.5
 20
74.464
 21
74
  0
LINE
  8
0
 10
183.5
 11
183.427
 20
74
 21
73.536
  0
LINE
  8
0
 10
183.427
 11
183.214
 20
73.536
 21
73.118
  0
LINE
  8
0
 10
183.214
 11
182.882
 20
73.118
 21
72.786
  0
LINE
  8
0
 10
182.882
 11
182.464
 20
72.786
 21
72.573
  0
LINE
  8
0
 10
182.464
 11
182
 20
72.573
 21
72.5
  0
LINE
  8
0
 10
182
 11
181.536
 20
72.5
 21
72.573
  0
LINE
  8
0
 10
181.536
 11
181.118
 20
72.573
 21
72.786
  0
LINE
  8
0
 10
181.118
 11
180.786
 20
72.786
 21
73.118
  0
LINE
  8
0
 10
180.786
 11
180.573
 20
73.118
 21
73.536
  0
LINE
  8
0
 10
180.573
 11
180.5
 20
73.536
 21
74
  0
LINE
  8
0
 10
184.5
 11
184.573
 20
25
 21
25.464
  0
LINE
  8
0
 10
184.573
 11
184.786
 20
25.464
 21
25.882
  0
LINE
  8
0
 10
184.786
 11
185.118
 20
25.882
 21
26.214
  0
LINE
  8
0
 10
185.118
 11
185.536
 20
26.214
 21
26.427
  0
LINE
  8
0
 10
185.536
 11
186
 20
26.427
 21
26.5
  0
LINE
  8
0
 10
186
 11
186.464
 20
26.5
 21
26.427
  0
LINE
  8
0
 10
186.464
 11
186.882
 20
26.427
 21
26.214
  0
LINE
  8
0
 10
186.882
 11
187.214
 20
26.214
 21
25.882
  0
LINE
  8
0
 10
187.214
 11
187.427
 20
25.882
 21
25.464
  0
LINE
  8
0
 10
187.427
 11
187.5
 20
25.464
 21
25
  0
LINE
  8
0
 10
187.5
 11
187.427
 20
25
 21
24.536
  0
LINE
  8
0
 10
187.427
 11
187.214
 20
24.536
 21
24.118
  0
LINE
  8
0
 10
187.214
 11
186.882
 20
24.118
 21
23.786
  0
LINE
  8
0
 10
186.882
 11
186.464
 20
23.786
 21
23.573
  0
LINE
  8
0
 10
186.464
 11
186
 20
23.573
 21
23.5
  0
LINE
  8
0
 10
186
 11
185.536
 20
23.5
 21
23.573
  0
LINE
  8
0
 10
185.536
 11
185.118
 20
23.573
 21
23.786
  0
LINE
  8
0
 10
185.118
 11
184.786
 20
23.786
 21
24.118
  0
LINE
  8
0
 10
184.786
 11
184.573
 20
24.118
 21
24.536
  0
LINE
  8
0
 10
184.573
 11
184.5
 20
24.536
 21
25
  0
LINE
  8
0
 10
184.5
 11
184.573
 20
59
 21
59.464
  0
LINE
  8
0
 10
184.573
 11
184.786
 20
59.464
 21
59.882
  0
LINE
  8
0
 10
184.786
 11
185.118
 20
59.882
 21
60.214
  0
LINE
  8
0
 10
185.118
 11
185.536
 20
60.214
 21
60.427
  0
LINE
  8
0
 10
185.536
 11
186
 20
60.427
 21
60.5
  0
LINE
  8
0
 10
186
 11
186.464
 20
60.5
 21
60.427
  0
LINE
  8
0
 10
186.464
 11
186.882
 20
60.427
 21
60.214
  0
LINE
  8
0
 10
186.882
 11
187.214
 20
60.214
 21
59.882
  0
LINE
  8
0
 10
187.214
 11
187.427
 20
59.882
 21
59.464
  0
LINE
  8
0
 10
187.427
 11
187.5
 20
59.464
 21
59
  0
LINE
  8
0
 10
187.5
 11
187.427
 20
59
 21
58.536
  0
LINE
  8
0
 10
187.427
 11
187.214
 20
58.536
 21
58.118
  0
LINE
  8
0
 10
187.214
 11
186.882
 20
58.118
 21
57.786
  0
LINE
  8
0
 10
186.882
 11
186.464
 20
57.786
 21
57.573
  0
LINE
  8
0
 10
186.464
 11
186
 20
57.573
 21
57.5
  0
LINE
  8
0
 10
186
 11
185.536
 20
57.5
 21
57.573
  0
LINE
  8
0
 10
185.536
 11
185.118
 20
57.573
 21
57.786
  0
LINE
  8
0
 10
185.118
 11
184.786
 20
57.786
 21
58.118
  0
LINE
  8
0
 10
184.786
 11
184.573
 20
58.118
 21
58.536
  0
LINE
  8
0
 10
184.573
 11
184.5
 20
58.536
 21
59
  0
LINE
  8
0
 10
193.5
 11
193.573
 20
90
 21
90.464
  0
LINE
  8
0
 10
193.573
 11
193.786
 20
90.464
 21
90.882
  0
LINE
  8
0
 10
193.786
 11
194.118
 20
90.882
 21
91.214
  0
LINE
  8
0
 10
194.118
 11
194.536
 20
91.214
 21
91.427
  0
LINE
  8
0
 10
194.536
 11
195
 20
91.427
 21
91.5
  0
LINE
  8
0
 10
195
 11
195.464
 20
91.5
 21
91.427
  0
LINE
  8
0
 10
195.464
 11
195.882
 20
91.427
 21
91.214
  0
LINE
  8
0
 10
195.882
 11
196.214
 20
91.214
 21
90.882
  0
LINE
  8
0
 10
196.214
 11
196.427
 20
90.882
 21
90.464
  0
LINE
  8
0
 10
196.427
 11
196.5
 20
90.464
 21
90
  0
LINE
  8
0
 10
196.5
 11
196.427
 20
90
 21
89.536
  0
LINE
  8
0
 10
196.427
 11
196.214
 20
89.536
 21
89.118
  0
LINE
  8
0
 10
196.214
 11
195.882
 20
89.118
 21
88.786
  0
LINE
  8
0
 10
195.882
 11
195.464
 20
88.786
 21
88.573
  0
LINE
  8
0
 10
195.464
 11
195
 20
88.573
 21
88.5
  0
LINE
  8
0
 10
195
 11
194.536
 20
88.5
 21
88.573
  0
LINE
  8
0
 10
194.536
 11
194.118
 20
88.573
 21
88.786
  0
LINE
  8
0
 10
194.118
 11
193.786
 20
88.786
 21
89.118
  0
LINE
  8
0
 10
193.786
 11
193.573
 20
89.118
 21
89.536
  0
LINE
  8
0
 10
193.573
 11
193.5
 20
89.536
 21
90
  0
LINE
  8
0
 10
195.038
 11
195.07
 20
33.591
 21
33.903
  0
LINE
  8
0
 10
195.07
 11
195.167
 20
33.903
 21
34.201
  0
LINE
  8
0
 10
195.167
 11
195.323
 20
34.201
 21
34.473
  0
LINE
  8
0
 10
195.323
 11
195.533
 20
34.473
 21
34.706
  0
LINE
  8
0
 10
195.533
 11
195.787
 20
34.706
 21
34.89
  0
LINE
  8
0
 10
195.787
 11
196.074
 20
34.89
 21
35.018
  0
LINE
  8
0
 10
196.074
 11
196.38
 20
35.018
 21
35.083
  0
LINE
  8
0
 10
196.38
 11
196.694
 20
35.083
 21
35.084
  0
LINE
  8
0
 10
196.694
 11
202.381
 20
35.084
 21
35.083
  0
LINE
  8
0
 10
202.381
 11
202.694
 20
35.083
 21
35.083
  0
LINE
  8
0
 10
202.694
 11
203.002
 20
35.083
 21
35.018
  0
LINE
  8
0
 10
203.002
 11
203.287
 20
35.018
 21
34.89
  0
LINE
  8
0
 10
203.287
 11
203.542
 20
34.89
 21
34.706
  0
LINE
  8
0
 10
203.542
 11
203.752
 20
34.706
 21
34.473
  0
LINE
  8
0
 10
203.752
 11
203.907
 20
34.473
 21
34.201
  0
LINE
  8
0
 10
203.907
 11
204.005
 20
34.201
 21
33.903
  0
LINE
  8
0
 10
204.005
 11
204.037
 20
33.903
 21
33.592
  0
LINE
  8
0
 10
204.037
 11
204.005
 20
33.592
 21
33.279
  0
LINE
  8
0
 10
204.005
 11
203.908
 20
33.279
 21
32.981
  0
LINE
  8
0
 10
203.908
 11
203.752
 20
32.981
 21
32.709
  0
LINE
  8
0
 10
203.752
 11
203.542
 20
32.709
 21
32.476
  0
LINE
  8
0
 10
203.542
 11
203.288
 20
32.476
 21
32.292
  0
LINE
  8
0
 10
203.288
 11
203.001
 20
32.292
 21
32.164
  0
LINE
  8
0
 10
203.001
 11
202.695
 20
32.164
 21
32.099
  0
LINE
  8
0
 10
202.695
 11
196.694
 20
32.099
 21
32.099
  0
LINE
  8
0
 10
196.694
 11
196.381
 20
32.099
 21
32.1
  0
LINE
  8
0
 10
196.381
 11
196.073
 20
32.1
 21
32.165
  0
LINE
  8
0
 10
196.073
 11
195.788
 20
32.165
 21
32.292
  0
LINE
  8
0
 10
195.788
 11
195.533
 20
32.292
 21
32.476
  0
LINE
  8
0
 10
195.533
 11
195.323
 20
32.476
 21
32.709
  0
LINE
  8
0
 10
195.323
 11
195.168
 20
32.709
 21
32.981
  0
LINE
  8
0
 10
195.168
 11
195.07
 20
32.981
 21
33.279
  0
LINE
  8
0
 10
195.07
 11
195.038
 20
33.279
 21
33.591
  0
LINE
  8
0
 10
202
 11
202
 20
15
 21
16.5
  0
LINE
  8
0
 10
202
 11
212
 20
16.5
 21
16.5
  0
LINE
  8
0
 10
212
 11
212
 20
16.5
 21
15
  0
LINE
  8
0
 10
212
 11
202
 20
15
 21
15
  0
LINE
  8
0
 10
204
 11
204
 20
85
 21
95
  0
LINE
  8
0
 10
204
 11
208
 20
95
 21
95
  0
LINE
  8
0
 10
208
 11
208.782
 20
95
 21
94.938
  0
LINE
  8
0
 10
208.782
 11
209.545
 20
94.938
 21
94.755
  0
LINE
  8
0
 10
209.545
 11
210.27
 20
94.755
 21
94.455
  0
LINE
  8
0
 10
210.27
 11
210.939
 20
94.455
 21
94.045
  0
LINE
  8
0
 10
210.939
 11
211.536
 20
94.045
 21
93.536
  0
LINE
  8
0
 10
211.536
 11
212.045
 20
93.536
 21
92.939
  0
LINE
  8
0
 10
212.045
 11
212.455
 20
92.939
 21
92.27
  0
LINE
  8
0
 10
212.455
 11
212.755
 20
92.27
 21
91.545
  0
LINE
  8
0
 10
212.755
 11
212.938
 20
91.545
 21
90.782
  0
LINE
  8
0
 10
212.938
 11
213
 20
90.782
 21
90
  0
LINE
  8
0
 10
213
 11
212.938
 20
90
 21
89.218
  0
LINE
  8
0
 10
212.938
 11
212.755
 20
89.218
 21
88.455
  0
LINE
  8
0
 10
212.755
 11
212.455
 20
88.455
 21
87.73
  0
LINE
  8
0
 10
212.455
 11
212.045
 20
87.73
 21
87.061
  0
LINE
  8
0
 10
212.045
 11
211.536
 20
87.061
 21
86.464
  0
LINE
  8
0
 10
211.536
 11
210.939
 20
86.464
 21
85.955
  0
LINE
  8
0
 10
210.939
 11
210.27
 20
85.955
 21
85.545
  0
LINE
  8
0
 10
210.27
 11
209.545
 20
85.545
 21
85.245
  0
LINE
  8
0
 10
209.545
 11
208.782
 20
85.245
 21
85.062
  0
LINE
  8
0
 10
208.782
 11
208
 20
85.062
 21
85
  0
LINE
  8
0
 10
208
 11
204
 20
85
 21
85
  0
LINE
  8
0
 10
206.5
 11
206.573
 20
90
 21
90.464
  0
LINE
  8
0
 10
206.573
 11
206.786
 20
90.464
 21
90.882
  0
LINE
  8
0
 10
206.786
 11
207.118
 20
90.882
 21
91.214
  0
LINE
  8
0
 10
207.118
 11
207.536
 20
91.214
 21
91.427
  0
LINE
  8
0
 10
207.536
 11
208
 20
91.427
 21
91.5
  0
LINE
  8
0
 10
208
 11
208.464
 20
91.5
 21
91.427
  0
LINE
  8
0
 10
208.464
 11
208.882
 20
91.427
 21
91.214
  0
LINE
  8
0
 10
208.882
 11
209.214
 20
91.214
 21
90.882
  0
LINE
  8
0
 10
209.214
 11
209.427
 20
90.882
 21
90.464
  0
LINE
  8
0
 10
209.427
 11
209.5
 20
90.464
 21
90
  0
LINE
  8
0
 10
209.5
 11
209.427
 20
90
 21
89.536
  0
LINE
  8
0
 10
209.427
 11
209.214
 20
89.536
 21
89.118
  0
LINE
  8
0
 10
209.214
 11
208.882
 20
89.118
 21
88.786
  0
LINE
  8
0
 10
208.882
 11
208.464
 20
88.786
 21
88.573
  0
LINE
  8
0
 10
208.464
 11
208
 20
88.573
 21
88.5
  0
LINE
  8
0
 10
208
 11
207.536
 20
88.5
 21
88.573
  0
LINE
  8
0
 10
207.536
 11
207.118
 20
88.573
 21
88.786
  0
LINE
  8
0
 10
207.118
 11
206.786
 20
88.786
 21
89.118
  0
LINE
  8
0
 10
206.786
 11
206.573
 20
89.118
 21
89.536
  0
LINE
  8
0
 10
206.573
 11
206.5
 20
89.536
 21
90
  0
LINE
  8
0
 10
208.529
 11
208.965
 20
40.837
 21
43.308
  0
LINE
  8
0
 10
208.965
 11
209.905
 20
43.308
 21
45.634
  0
LINE
  8
0
 10
209.905
 11
211.307
 20
45.634
 21
47.714
  0
LINE
  8
0
 10
211.307
 11
213.112
 20
47.714
 21
49.456
  0
LINE
  8
0
 10
213.112
 11
215.24
 20
49.456
 21
50.785
  0
LINE
  8
0
 10
215.24
 11
217.597
 20
50.785
 21
51.644
  0
LINE
  8
0
 10
217.597
 11
220.081
 20
51.644
 21
51.992
  0
LINE
  8
0
 10
220.081
 11
222.584
 20
51.992
 21
51.818
  0
LINE
  8
0
 10
222.584
 11
224.995
 20
51.818
 21
51.126
  0
LINE
  8
0
 10
224.995
 11
227.21
 20
51.126
 21
49.948
  0
LINE
  8
0
 10
227.21
 11
229.132
 20
49.948
 21
48.336
  0
LINE
  8
0
 10
229.132
 11
230.676
 20
48.336
 21
46.359
  0
LINE
  8
0
 10
230.676
 11
231.777
 20
46.359
 21
44.104
  0
LINE
  8
0
 10
231.777
 11
232.383
 20
44.104
 21
41.67
  0
LINE
  8
0
 10
232.383
 11
232.471
 20
41.67
 21
39.163
  0
LINE
  8
0
 10
232.471
 11
232.035
 20
39.163
 21
36.692
  0
LINE
  8
0
 10
232.035
 11
231.095
 20
36.692
 21
34.366
  0
LINE
  8
0
 10
231.095
 11
229.693
 20
34.366
 21
32.286
  0
LINE
  8
0
 10
229.693
 11
227.888
 20
32.286
 21
30.544
  0
LINE
  8
0
 10
227.888
 11
225.76
 20
30.544
 21
29.215
  0
LINE
  8
0
 10
225.76
 11
223.403
 20
29.215
 21
28.356
  0
LINE
  8
0
 10
223.403
 11
220.919
 20
28.356
 21
28.008
  0
LINE
  8
0
 10
220.919
 11
218.416
 20
28.008
 21
28.182
  0
LINE
  8
0
 10
218.416
 11
216.005
 20
28.182
 21
28.874
  0
LINE
  8
0
 10
216.005
 11
213.79
 20
28.874
 21
30.052
  0
LINE
  8
0
 10
213.79
 11
211.868
 20
30.052
 21
31.664
  0
LINE
  8
0
 10
211.868
 11
210.324
 20
31.664
 21
33.641
  0
LINE
  8
0
 10
210.324
 11
209.223
 20
33.641
 21
35.896
  0
LINE
  8
0
 10
209.223
 11
208.617
 20
35.896
 21
38.33
  0
LINE
  8
0
 10
208.617
 11
208.529
 20
38.33
 21
40.837
  0
LINE
  8
0
 10
209.591
 11
209.624
 20
60.962
 21
61.274
  0
LINE
  8
0
 10
209.624
 11
209.721
 20
61.274
 21
61.573
  0
LINE
  8
0
 10
209.721
 11
209.877
 20
61.573
 21
61.844
  0
LINE
  8
0
 10
209.877
 11
210.087
 20
61.844
 21
62.078
  0
LINE
  8
0
 10
210.087
 11
210.341
 20
62.078
 21
62.261
  0
LINE
  8
0
 10
210.341
 11
210.628
 20
62.261
 21
62.39
  0
LINE
  8
0
 10
210.628
 11
210.934
 20
62.39
 21
62.454
  0
LINE
  8
0
 10
210.934
 11
211.248
 20
62.454
 21
62.455
  0
LINE
  8
0
 10
211.248
 11
216.934
 20
62.455
 21
62.454
  0
LINE
  8
0
 10
216.934
 11
217.248
 20
62.454
 21
62.454
  0
LINE
  8
0
 10
217.248
 11
217.555
 20
62.454
 21
62.389
  0
LINE
  8
0
 10
217.555
 11
217.841
 20
62.389
 21
62.261
  0
LINE
  8
0
 10
217.841
 11
218.095
 20
62.261
 21
62.077
  0
LINE
  8
0
 10
218.095
 11
218.305
 20
62.077
 21
61.844
  0
LINE
  8
0
 10
218.305
 11
218.461
 20
61.844
 21
61.572
  0
LINE
  8
0
 10
218.461
 11
218.559
 20
61.572
 21
61.275
  0
LINE
  8
0
 10
218.559
 11
218.591
 20
61.275
 21
60.963
  0
LINE
  8
0
 10
218.591
 11
218.559
 20
60.963
 21
60.651
  0
LINE
  8
0
 10
218.559
 11
218.461
 20
60.651
 21
60.352
  0
LINE
  8
0
 10
218.461
 11
218.305
 20
60.352
 21
60.081
  0
LINE
  8
0
 10
218.305
 11
218.095
 20
60.081
 21
59.847
  0
LINE
  8
0
 10
218.095
 11
217.841
 20
59.847
 21
59.664
  0
LINE
  8
0
 10
217.841
 11
217.555
 20
59.664
 21
59.535
  0
LINE
  8
0
 10
217.555
 11
217.248
 20
59.535
 21
59.471
  0
LINE
  8
0
 10
217.248
 11
216.934
 20
59.471
 21
59.47
  0
LINE
  8
0
 10
216.934
 11
211.248
 20
59.47
 21
59.471
  0
LINE
  8
0
 10
211.248
 11
210.934
 20
59.471
 21
59.471
  0
LINE
  8
0
 10
210.934
 11
210.627
 20
59.471
 21
59.536
  0
LINE
  8
0
 10
210.627
 11
210.342
 20
59.536
 21
59.664
  0
LINE
  8
0
 10
210.342
 11
210.087
 20
59.664
 21
59.848
  0
LINE
  8
0
 10
210.087
 11
209.877
 20
59.848
 21
60.081
  0
LINE
  8
0
 10
209.877
 11
209.721
 20
60.081
 21
60.353
  0
LINE
  8
0
 10
209.721
 11
209.624
 20
60.353
 21
60.65
  0
LINE
  8
0
 10
209.624
 11
209.591
 20
60.65
 21
60.962
  0
LINE
  8
0
 10
211.5
 11
211.573
 20
10
 21
10.464
  0
LINE
  8
0
 10
211.573
 11
211.786
 20
10.464
 21
10.882
  0
LINE
  8
0
 10
211.786
 11
212.118
 20
10.882
 21
11.214
  0
LINE
  8
0
 10
212.118
 11
212.536
 20
11.214
 21
11.427
  0
LINE
  8
0
 10
212.536
 11
213
 20
11.427
 21
11.5
  0
LINE
  8
0
 10
213
 11
213.464
 20
11.5
 21
11.427
  0
LINE
  8
0
 10
213.464
 11
213.882
 20
11.427
 21
11.214
  0
LINE
  8
0
 10
213.882
 11
214.214
 20
11.214
 21
10.882
  0
LINE
  8
0
 10
214.214
 11
214.427
 20
10.882
 21
10.464
  0
LINE
  8
0
 10
214.427
 11
214.5
 20
10.464
 21
10
  0
LINE
  8
0
 10
214.5
 11
214.427
 20
10
 21
9.536
  0
LINE
  8
0
 10
214.427
 11
214.214
 20
9.536
 21
9.118
  0
LINE
  8
0
 10
214.214
 11
213.882
 20
9.118
 21
8.786
  0
LINE
  8
0
 10
213.882
 11
213.464
 20
8.786
 21
8.573
  0
LINE
  8
0
 10
213.464
 11
213
 20
8.573
 21
8.5
  0
LINE
  8
0
 10
213
 11
212.536
 20
8.5
 21
8.573
  0
LINE
  8
0
 10
212.536
 11
212.118
 20
8.573
 21
8.786
  0
LINE
  8
0
 10
212.118
 11
211.786
 20
8.786
 21
9.118
  0
LINE
  8
0
 10
211.786
 11
211.573
 20
9.118
 21
9.536
  0
LINE
  8
0
 10
211.573
 11
211.5
 20
9.536
 21
10
  0
LINE
  8
0
 10
222.409
 11
222.441
 20
19.037
 21
19.349
  0
LINE
  8
0
 10
222.441
 11
222.539
 20
19.349
 21
19.648
  0
LINE
  8
0
 10
222.539
 11
222.695
 20
19.648
 21
19.919
  0
LINE
  8
0
 10
222.695
 11
222.905
 20
19.919
 21
20.153
  0
LINE
  8
0
 10
222.905
 11
223.159
 20
20.153
 21
20.336
  0
LINE
  8
0
 10
223.159
 11
223.445
 20
20.336
 21
20.465
  0
LINE
  8
0
 10
223.445
 11
223.752
 20
20.465
 21
20.529
  0
LINE
  8
0
 10
223.752
 11
224.066
 20
20.529
 21
20.53
  0
LINE
  8
0
 10
224.066
 11
229.752
 20
20.53
 21
20.529
  0
LINE
  8
0
 10
229.752
 11
230.066
 20
20.529
 21
20.529
  0
LINE
  8
0
 10
230.066
 11
230.373
 20
20.529
 21
20.464
  0
LINE
  8
0
 10
230.373
 11
230.658
 20
20.464
 21
20.336
  0
LINE
  8
0
 10
230.658
 11
230.913
 20
20.336
 21
20.152
  0
LINE
  8
0
 10
230.913
 11
231.123
 20
20.152
 21
19.919
  0
LINE
  8
0
 10
231.123
 11
231.279
 20
19.919
 21
19.647
  0
LINE
  8
0
 10
231.279
 11
231.376
 20
19.647
 21
19.35
  0
LINE
  8
0
 10
231.376
 11
231.409
 20
19.35
 21
19.038
  0
LINE
  8
0
 10
231.409
 11
231.376
 20
19.038
 21
18.726
  0
LINE
  8
0
 10
231.376
 11
231.279
 20
18.726
 21
18.427
  0
LINE
  8
0
 10
231.279
 11
231.123
 20
18.427
 21
18.156
  0
LINE
  8
0
 10
231.123
 11
230.913
 20
18.156
 21
17.922
  0
LINE
  8
0
 10
230.913
 11
230.659
 20
17.922
 21
17.739
  0
LINE
  8
0
 10
230.659
 11
230.372
 20
17.739
 21
17.61
  0
LINE
  8
0
 10
230.372
 11
230.066
 20
17.61
 21
17.546
  0
LINE
  8
0
 10
230.066
 11
229.752
 20
17.546
 21
17.545
  0
LINE
  8
0
 10
229.752
 11
224.066
 20
17.545
 21
17.546
  0
LINE
  8
0
 10
224.066
 11
223.752
 20
17.546
 21
17.546
  0
LINE
  8
0
 10
223.752
 11
223.445
 20
17.546
 21
17.611
  0
LINE
  8
0
 10
223.445
 11
223.159
 20
17.611
 21
17.739
  0
LINE
  8
0
 10
223.159
 11
222.905
 20
17.739
 21
17.923
  0
LINE
  8
0
 10
222.905
 11
222.695
 20
17.923
 21
18.156
  0
LINE
  8
0
 10
222.695
 11
222.539
 20
18.156
 21
18.428
  0
LINE
  8
0
 10
222.539
 11
222.441
 20
18.428
 21
18.725
  0
LINE
  8
0
 10
222.441
 11
222.409
 20
18.725
 21
19.037
  0
LINE
  8
0
 10
236.963
 11
236.995
 20
46.408
 21
46.721
  0
LINE
  8
0
 10
236.995
 11
237.092
 20
46.721
 21
47.019
  0
LINE
  8
0
 10
237.092
 11
237.248
 20
47.019
 21
47.291
  0
LINE
  8
0
 10
237.248
 11
237.458
 20
47.291
 21
47.524
  0
LINE
  8
0
 10
237.458
 11
237.712
 20
47.524
 21
47.708
  0
LINE
  8
0
 10
237.712
 11
237.999
 20
47.708
 21
47.836
  0
LINE
  8
0
 10
237.999
 11
238.305
 20
47.836
 21
47.901
  0
LINE
  8
0
 10
238.305
 11
244.306
 20
47.901
 21
47.901
  0
LINE
  8
0
 10
244.306
 11
244.619
 20
47.901
 21
47.9
  0
LINE
  8
0
 10
244.619
 11
244.927
 20
47.9
 21
47.835
  0
LINE
  8
0
 10
244.927
 11
245.212
 20
47.835
 21
47.708
  0
LINE
  8
0
 10
245.212
 11
245.467
 20
47.708
 21
47.524
  0
LINE
  8
0
 10
245.467
 11
245.677
 20
47.524
 21
47.291
  0
LINE
  8
0
 10
245.677
 11
245.832
 20
47.291
 21
47.019
  0
LINE
  8
0
 10
245.832
 11
245.93
 20
47.019
 21
46.721
  0
LINE
  8
0
 10
245.93
 11
245.962
 20
46.721
 21
46.409
  0
LINE
  8
0
 10
245.962
 11
245.93
 20
46.409
 21
46.097
  0
LINE
  8
0
 10
245.93
 11
245.833
 20
46.097
 21
45.799
  0
LINE
  8
0
 10
245.833
 11
245.677
 20
45.799
 21
45.527
  0
LINE
  8
0
 10
245.677
 11
245.467
 20
45.527
 21
45.294
  0
LINE
  8
0
 10
245.467
 11
245.213
 20
45.294
 21
45.11
  0
LINE
  8
0
 10
245.213
 11
244.926
 20
45.11
 21
44.982
  0
LINE
  8
0
 10
244.926
 11
244.62
 20
44.982
 21
44.917
  0
LINE
  8
0
 10
244.62
 11
244.306
 20
44.917
 21
44.916
  0
LINE
  8
0
 10
244.306
 11
238.619
 20
44.916
 21
44.917
  0
LINE
  8
0
 10
238.619
 11
238.306
 20
44.917
 21
44.917
  0
LINE
  8
0
 10
238.306
 11
237.998
 20
44.917
 21
44.982
  0
LINE
  8
0
 10
237.998
 11
237.713
 20
44.982
 21
45.11
  0
LINE
  8
0
 10
237.713
 11
237.458
 20
45.11
 21
45.294
  0
LINE
  8
0
 10
237.458
 11
237.248
 20
45.294
 21
45.527
  0
LINE
  8
0
 10
237.248
 11
237.093
 20
45.527
 21
45.799
  0
LINE
  8
0
 10
237.093
 11
236.995
 20
45.799
 21
46.097
  0
LINE
  8
0
 10
236.995
 11
236.963
 20
46.097
 21
46.408
  0
ENDSEC
  0
SECTION
  2
OBJECTS
  0
DICTIONARY
  0
ENDSEC
  0
EOF
