  0
SECTION
  2
BLOCKS
  0
ENDSEC
  0
SECTION
  2
ENTITIES
  0
LINE
  8
0
 10
20
 11
20
 20
15
 21
255
  0
LINE
  8
0
 10
20
 11
20.381
 20
255
 21
256.913
  0
LINE
  8
0
 10
20.381
 11
21.464
 20
256.913
 21
258.536
  0
LINE
  8
0
 10
21.464
 11
23.087
 20
258.536
 21
259.619
  0
LINE
  8
0
 10
23.087
 11
25
 20
259.619
 21
260
  0
LINE
  8
0
 10
25
 11
235
 20
260
 21
260
  0
LINE
  8
0
 10
235
 11
236.913
 20
260
 21
259.619
  0
LINE
  8
0
 10
236.913
 11
238.536
 20
259.619
 21
258.536
  0
LINE
  8
0
 10
238.536
 11
239.619
 20
258.536
 21
256.913
  0
LINE
  8
0
 10
239.619
 11
240
 20
256.913
 21
255
  0
LINE
  8
0
 10
240
 11
240
 20
255
 21
15
  0
LINE
  8
0
 10
240
 11
239.619
 20
15
 21
13.087
  0
LINE
  8
0
 10
239.619
 11
238.536
 20
13.087
 21
11.464
  0
LINE
  8
0
 10
238.536
 11
236.913
 20
11.464
 21
10.381
  0
LINE
  8
0
 10
236.913
 11
235
 20
10.381
 21
10
  0
LINE
  8
0
 10
235
 11
25
 20
10
 21
10
  0
LINE
  8
0
 10
25
 11
23.087
 20
10
 21
10.381
  0
LINE
  8
0
 10
23.087
 11
21.464
 20
10.381
 21
11.464
  0
LINE
  8
0
 10
21.464
 11
20.381
 20
11.464
 21
13.087
  0
LINE
  8
0
 10
20.381
 11
20
 20
13.087
 21
15
  0
LINE
  8
0
 10
23.5
 11
23.573
 20
45
 21
45.464
  0
LINE
  8
0
 10
23.573
 11
23.786
 20
45.464
 21
45.882
  0
LINE
  8
0
 10
23.786
 11
24.118
 20
45.882
 21
46.214
  0
LINE
  8
0
 10
24.118
 11
24.536
 20
46.214
 21
46.427
  0
LINE
  8
0
 10
24.536
 11
25
 20
46.427
 21
46.5
  0
LINE
  8
0
 10
25
 11
25.464
 20
46.5
 21
46.427
  0
LINE
  8
0
 10
25.464
 11
25.882
 20
46.427
 21
46.214
  0
LINE
  8
0
 10
25.882
 11
26.214
 20
46.214
 21
45.882
  0
LINE
  8
0
 10
26.214
 11
26.427
 20
45.882
 21
45.464
  0
LINE
  8
0
 10
26.427
 11
26.5
 20
45.464
 21
45
  0
LINE
  8
0
 10
26.5
 11
26.427
 20
45
 21
44.536
  0
LINE
  8
0
 10
26.427
 11
26.214
 20
44.536
 21
44.118
  0
LINE
  8
0
 10
26.214
 11
25.882
 20
44.118
 21
43.786
  0
LINE
  8
0
 10
25.882
 11
25.464
 20
43.786
 21
43.573
  0
LINE
  8
0
 10
25.464
 11
25
 20
43.573
 21
43.5
  0
LINE
  8
0
 10
25
 11
24.536
 20
43.5
 21
43.573
  0
LINE
  8
0
 10
24.536
 11
24.118
 20
43.573
 21
43.786
  0
LINE
  8
0
 10
24.118
 11
23.786
 20
43.786
 21
44.118
  0
LINE
  8
0
 10
23.786
 11
23.573
 20
44.118
 21
44.536
  0
LINE
  8
0
 10
23.573
 11
23.5
 20
44.536
 21
45
  0
LINE
  8
0
 10
23.5
 11
23.573
 20
255
 21
255.464
  0
LINE
  8
0
 10
23.573
 11
23.786
 20
255.464
 21
255.882
  0
LINE
  8
0
 10
23.786
 11
24.118
 20
255.882
 21
256.214
  0
LINE
  8
0
 10
24.118
 11
24.536
 20
256.214
 21
256.427
  0
LINE
  8
0
 10
24.536
 11
25
 20
256.427
 21
256.5
  0
LINE
  8
0
 10
25
 11
25.464
 20
256.5
 21
256.427
  0
LINE
  8
0
 10
25.464
 11
25.882
 20
256.427
 21
256.214
  0
LINE
  8
0
 10
25.882
 11
26.214
 20
256.214
 21
255.882
  0
LINE
  8
0
 10
26.214
 11
26.427
 20
255.882
 21
255.464
  0
LINE
  8
0
 10
26.427
 11
26.5
 20
255.464
 21
255
  0
LINE
  8
0
 10
26.5
 11
26.427
 20
255
 21
254.536
  0
LINE
  8
0
 10
26.427
 11
26.214
 20
254.536
 21
254.118
  0
LINE
  8
0
 10
26.214
 11
25.882
 20
254.118
 21
253.786
  0
LINE
  8
0
 10
25.882
 11
25.464
 20
253.786
 21
253.573
  0
LINE
  8
0
 10
25.464
 11
25
 20
253.573
 21
253.5
  0
LINE
  8
0
 10
25
 11
24.536
 20
253.5
 21
253.573
  0
LINE
  8
0
 10
24.536
 11
24.118
 20
253.573
 21
253.786
  0
LINE
  8
0
 10
24.118
 11
23.786
 20
253.786
 21
254.118
  0
LINE
  8
0
 10
23.786
 11
23.573
 20
254.118
 21
254.536
  0
LINE
  8
0
 10
23.573
 11
23.5
 20
254.536
 21
255
  0
LINE
  8
0
 10
28.5
 11
28.573
 20
145
 21
145.464
  0
LINE
  8
0
 10
28.573
 11
28.786
 20
145.464
 21
145.882
  0
LINE
  8
0
 10
28.786
 11
29.118
 20
145.882
 21
146.214
  0
LINE
  8
0
 10
29.118
 11
29.536
 20
146.214
 21
146.427
  0
LINE
  8
0
 10
29.536
 11
30
 20
146.427
 21
146.5
  0
LINE
  8
0
 10
30
 11
30.464
 20
146.5
 21
146.427
  0
LINE
  8
0
 10
30.464
 11
30.882
 20
146.427
 21
146.214
  0
LINE
  8
0
 10
30.882
 11
31.214
 20
146.214
 21
145.882
  0
LINE
  8
0
 10
31.214
 11
31.427
 20
145.882
 21
145.464
  0
LINE
  8
0
 10
31.427
 11
31.5
 20
145.464
 21
145
  0
LINE
  8
0
 10
31.5
 11
31.427
 20
145
 21
144.536
  0
LINE
  8
0
 10
31.427
 11
31.214
 20
144.536
 21
144.118
  0
LINE
  8
0
 10
31.214
 11
30.882
 20
144.118
 21
143.786
  0
LINE
  8
0
 10
30.882
 11
30.464
 20
143.786
 21
143.573
  0
LINE
  8
0
 10
30.464
 11
30
 20
143.573
 21
143.5
  0
LINE
  8
0
 10
30
 11
29.536
 20
143.5
 21
143.573
  0
LINE
  8
0
 10
29.536
 11
29.118
 20
143.573
 21
143.786
  0
LINE
  8
0
 10
29.118
 11
28.786
 20
143.786
 21
144.118
  0
LINE
  8
0
 10
28.786
 11
28.573
 20
144.118
 21
144.536
  0
LINE
  8
0
 10
28.573
 11
28.5
 20
144.536
 21
145
  0
LINE
  8
0
 10
28.5
 11
28.573
 20
155
 21
155.464
  0
LINE
  8
0
 10
28.573
 11
28.786
 20
155.464
 21
155.882
  0
LINE
  8
0
 10
28.786
 11
29.118
 20
155.882
 21
156.214
  0
LINE
  8
0
 10
29.118
 11
29.536
 20
156.214
 21
156.427
  0
LINE
  8
0
 10
29.536
 11
30
 20
156.427
 21
156.5
  0
LINE
  8
0
 10
30
 11
30.464
 20
156.5
 21
156.427
  0
LINE
  8
0
 10
30.464
 11
30.882
 20
156.427
 21
156.214
  0
LINE
  8
0
 10
30.882
 11
31.214
 20
156.214
 21
155.882
  0
LINE
  8
0
 10
31.214
 11
31.427
 20
155.882
 21
155.464
  0
LINE
  8
0
 10
31.427
 11
31.5
 20
155.464
 21
155
  0
LINE
  8
0
 10
31.5
 11
31.427
 20
155
 21
154.536
  0
LINE
  8
0
 10
31.427
 11
31.214
 20
154.536
 21
154.118
  0
LINE
  8
0
 10
31.214
 11
30.882
 20
154.118
 21
153.786
  0
LINE
  8
0
 10
30.882
 11
30.464
 20
153.786
 21
153.573
  0
LINE
  8
0
 10
30.464
 11
30
 20
153.573
 21
153.5
  0
LINE
  8
0
 10
30
 11
29.536
 20
153.5
 21
153.573
  0
LINE
  8
0
 10
29.536
 11
29.118
 20
153.573
 21
153.786
  0
LINE
  8
0
 10
29.118
 11
28.786
 20
153.786
 21
154.118
  0
LINE
  8
0
 10
28.786
 11
28.573
 20
154.118
 21
154.536
  0
LINE
  8
0
 10
28.573
 11
28.5
 20
154.536
 21
155
  0
LINE
  8
0
 10
38.5
 11
38.573
 20
145
 21
145.464
  0
LINE
  8
0
 10
38.573
 11
38.786
 20
145.464
 21
145.882
  0
LINE
  8
0
 10
38.786
 11
39.118
 20
145.882
 21
146.214
  0
LINE
  8
0
 10
39.118
 11
39.536
 20
146.214
 21
146.427
  0
LINE
  8
0
 10
39.536
 11
40
 20
146.427
 21
146.5
  0
LINE
  8
0
 10
40
 11
40.464
 20
146.5
 21
146.427
  0
LINE
  8
0
 10
40.464
 11
40.882
 20
146.427
 21
146.214
  0
LINE
  8
0
 10
40.882
 11
41.214
 20
146.214
 21
145.882
  0
LINE
  8
0
 10
41.214
 11
41.427
 20
145.882
 21
145.464
  0
LINE
  8
0
 10
41.427
 11
41.5
 20
145.464
 21
145
  0
LINE
  8
0
 10
41.5
 11
41.427
 20
145
 21
144.536
  0
LINE
  8
0
 10
41.427
 11
41.214
 20
144.536
 21
144.118
  0
LINE
  8
0
 10
41.214
 11
40.882
 20
144.118
 21
143.786
  0
LINE
  8
0
 10
40.882
 11
40.464
 20
143.786
 21
143.573
  0
LINE
  8
0
 10
40.464
 11
40
 20
143.573
 21
143.5
  0
LINE
  8
0
 10
40
 11
39.536
 20
143.5
 21
143.573
  0
LINE
  8
0
 10
39.536
 11
39.118
 20
143.573
 21
143.786
  0
LINE
  8
0
 10
39.118
 11
38.786
 20
143.786
 21
144.118
  0
LINE
  8
0
 10
38.786
 11
38.573
 20
144.118
 21
144.536
  0
LINE
  8
0
 10
38.573
 11
38.5
 20
144.536
 21
145
  0
LINE
  8
0
 10
38.5
 11
38.573
 20
155
 21
155.464
  0
LINE
  8
0
 10
38.573
 11
38.786
 20
155.464
 21
155.882
  0
LINE
  8
0
 10
38.786
 11
39.118
 20
155.882
 21
156.214
  0
LINE
  8
0
 10
39.118
 11
39.536
 20
156.214
 21
156.427
  0
LINE
  8
0
 10
39.536
 11
40
 20
156.427
 21
156.5
  0
LINE
  8
0
 10
40
 11
40.464
 20
156.5
 21
156.427
  0
LINE
  8
0
 10
40.464
 11
40.882
 20
156.427
 21
156.214
  0
LINE
  8
0
 10
40.882
 11
41.214
 20
156.214
 21
155.882
  0
LINE
  8
0
 10
41.214
 11
41.427
 20
155.882
 21
155.464
  0
LINE
  8
0
 10
41.427
 11
41.5
 20
155.464
 21
155
  0
LINE
  8
0
 10
41.5
 11
41.427
 20
155
 21
154.536
  0
LINE
  8
0
 10
41.427
 11
41.214
 20
154.536
 21
154.118
  0
LINE
  8
0
 10
41.214
 11
40.882
 20
154.118
 21
153.786
  0
LINE
  8
0
 10
40.882
 11
40.464
 20
153.786
 21
153.573
  0
LINE
  8
0
 10
40.464
 11
40
 20
153.573
 21
153.5
  0
LINE
  8
0
 10
40
 11
39.536
 20
153.5
 21
153.573
  0
LINE
  8
0
 10
39.536
 11
39.118
 20
153.573
 21
153.786
  0
LINE
  8
0
 10
39.118
 11
38.786
 20
153.786
 21
154.118
  0
LINE
  8
0
 10
38.786
 11
38.573
 20
154.118
 21
154.536
  0
LINE
  8
0
 10
38.573
 11
38.5
 20
154.536
 21
155
  0
LINE
  8
0
 10
44.5
 11
44.573
 20
130
 21
130.464
  0
LINE
  8
0
 10
44.573
 11
44.786
 20
130.464
 21
130.882
  0
LINE
  8
0
 10
44.786
 11
45.118
 20
130.882
 21
131.214
  0
LINE
  8
0
 10
45.118
 11
45.536
 20
131.214
 21
131.427
  0
LINE
  8
0
 10
45.536
 11
46
 20
131.427
 21
131.5
  0
LINE
  8
0
 10
46
 11
46.464
 20
131.5
 21
131.427
  0
LINE
  8
0
 10
46.464
 11
46.882
 20
131.427
 21
131.214
  0
LINE
  8
0
 10
46.882
 11
47.214
 20
131.214
 21
130.882
  0
LINE
  8
0
 10
47.214
 11
47.427
 20
130.882
 21
130.464
  0
LINE
  8
0
 10
47.427
 11
47.5
 20
130.464
 21
130
  0
LINE
  8
0
 10
47.5
 11
47.427
 20
130
 21
129.536
  0
LINE
  8
0
 10
47.427
 11
47.214
 20
129.536
 21
129.118
  0
LINE
  8
0
 10
47.214
 11
46.882
 20
129.118
 21
128.786
  0
LINE
  8
0
 10
46.882
 11
46.464
 20
128.786
 21
128.573
  0
LINE
  8
0
 10
46.464
 11
46
 20
128.573
 21
128.5
  0
LINE
  8
0
 10
46
 11
45.536
 20
128.5
 21
128.573
  0
LINE
  8
0
 10
45.536
 11
45.118
 20
128.573
 21
128.786
  0
LINE
  8
0
 10
45.118
 11
44.786
 20
128.786
 21
129.118
  0
LINE
  8
0
 10
44.786
 11
44.573
 20
129.118
 21
129.536
  0
LINE
  8
0
 10
44.573
 11
44.5
 20
129.536
 21
130
  0
LINE
  8
0
 10
44.5
 11
44.573
 20
170
 21
170.464
  0
LINE
  8
0
 10
44.573
 11
44.786
 20
170.464
 21
170.882
  0
LINE
  8
0
 10
44.786
 11
45.118
 20
170.882
 21
171.214
  0
LINE
  8
0
 10
45.118
 11
45.536
 20
171.214
 21
171.427
  0
LINE
  8
0
 10
45.536
 11
46
 20
171.427
 21
171.5
  0
LINE
  8
0
 10
46
 11
46.464
 20
171.5
 21
171.427
  0
LINE
  8
0
 10
46.464
 11
46.882
 20
171.427
 21
171.214
  0
LINE
  8
0
 10
46.882
 11
47.214
 20
171.214
 21
170.882
  0
LINE
  8
0
 10
47.214
 11
47.427
 20
170.882
 21
170.464
  0
LINE
  8
0
 10
47.427
 11
47.5
 20
170.464
 21
170
  0
LINE
  8
0
 10
47.5
 11
47.427
 20
170
 21
169.536
  0
LINE
  8
0
 10
47.427
 11
47.214
 20
169.536
 21
169.118
  0
LINE
  8
0
 10
47.214
 11
46.882
 20
169.118
 21
168.786
  0
LINE
  8
0
 10
46.882
 11
46.464
 20
168.786
 21
168.573
  0
LINE
  8
0
 10
46.464
 11
46
 20
168.573
 21
168.5
  0
LINE
  8
0
 10
46
 11
45.536
 20
168.5
 21
168.573
  0
LINE
  8
0
 10
45.536
 11
45.118
 20
168.573
 21
168.786
  0
LINE
  8
0
 10
45.118
 11
44.786
 20
168.786
 21
169.118
  0
LINE
  8
0
 10
44.786
 11
44.573
 20
169.118
 21
169.536
  0
LINE
  8
0
 10
44.573
 11
44.5
 20
169.536
 21
170
  0
LINE
  8
0
 10
45
 11
45.031
 20
19.959
 21
20.263
  0
LINE
  8
0
 10
45.031
 11
45.123
 20
20.263
 21
20.56
  0
LINE
  8
0
 10
45.123
 11
45.278
 20
20.56
 21
20.843
  0
LINE
  8
0
 10
45.278
 11
46.634
 20
20.843
 21
22.837
  0
LINE
  8
0
 10
46.634
 11
47.99
 20
22.837
 21
24.832
  0
LINE
  8
0
 10
47.99
 11
49.345
 20
24.832
 21
26.826
  0
LINE
  8
0
 10
49.345
 11
50.701
 20
26.826
 21
28.821
  0
LINE
  8
0
 10
50.701
 11
52.057
 20
28.821
 21
30.815
  0
LINE
  8
0
 10
52.057
 11
53.412
 20
30.815
 21
32.81
  0
LINE
  8
0
 10
53.412
 11
56.124
 20
32.81
 21
36.798
  0
LINE
  8
0
 10
56.124
 11
56.28
 20
36.798
 21
36.999
  0
LINE
  8
0
 10
56.28
 11
56.465
 20
36.999
 21
37.167
  0
LINE
  8
0
 10
56.465
 11
56.672
 20
37.167
 21
37.302
  0
LINE
  8
0
 10
56.672
 11
56.897
 20
37.302
 21
37.403
  0
LINE
  8
0
 10
56.897
 11
57.136
 20
37.403
 21
37.466
  0
LINE
  8
0
 10
57.136
 11
57.382
 20
37.466
 21
37.492
  0
LINE
  8
0
 10
57.382
 11
57.631
 20
37.492
 21
37.479
  0
LINE
  8
0
 10
57.631
 11
57.877
 20
37.479
 21
37.425
  0
LINE
  8
0
 10
57.877
 11
58.112
 20
37.425
 21
37.33
  0
LINE
  8
0
 10
58.112
 11
58.324
 20
37.33
 21
37.2
  0
LINE
  8
0
 10
58.324
 11
58.512
 20
37.2
 21
37.039
  0
LINE
  8
0
 10
58.512
 11
58.673
 20
37.039
 21
36.851
  0
LINE
  8
0
 10
58.673
 11
58.802
 20
36.851
 21
36.641
  0
LINE
  8
0
 10
58.802
 11
58.899
 20
36.641
 21
36.414
  0
LINE
  8
0
 10
58.899
 11
58.959
 20
36.414
 21
36.172
  0
LINE
  8
0
 10
58.959
 11
58.979
 20
36.172
 21
35.922
  0
LINE
  8
0
 10
58.979
 11
58.979
 20
35.922
 21
25.051
  0
LINE
  8
0
 10
58.979
 11
59.978
 20
25.051
 21
26.52
  0
LINE
  8
0
 10
59.978
 11
60.977
 20
26.52
 21
27.988
  0
LINE
  8
0
 10
60.977
 11
61.976
 20
27.988
 21
29.456
  0
LINE
  8
0
 10
61.976
 11
62.974
 20
29.456
 21
30.925
  0
LINE
  8
0
 10
62.974
 11
63.973
 20
30.925
 21
32.393
  0
LINE
  8
0
 10
63.973
 11
64.972
 20
32.393
 21
33.862
  0
LINE
  8
0
 10
64.972
 11
66.97
 20
33.862
 21
36.798
  0
LINE
  8
0
 10
66.97
 11
67.126
 20
36.798
 21
36.999
  0
LINE
  8
0
 10
67.126
 11
67.31
 20
36.999
 21
37.167
  0
LINE
  8
0
 10
67.31
 11
67.518
 20
37.167
 21
37.302
  0
LINE
  8
0
 10
67.518
 11
67.743
 20
37.302
 21
37.403
  0
LINE
  8
0
 10
67.743
 11
67.981
 20
37.403
 21
37.466
  0
LINE
  8
0
 10
67.981
 11
68.227
 20
37.466
 21
37.492
  0
LINE
  8
0
 10
68.227
 11
68.476
 20
37.492
 21
37.479
  0
LINE
  8
0
 10
68.476
 11
68.723
 20
37.479
 21
37.425
  0
LINE
  8
0
 10
68.723
 11
68.966
 20
37.425
 21
37.33
  0
LINE
  8
0
 10
68.966
 11
69.185
 20
37.33
 21
37.2
  0
LINE
  8
0
 10
69.185
 11
69.377
 20
37.2
 21
37.039
  0
LINE
  8
0
 10
69.377
 11
69.54
 20
37.039
 21
36.851
  0
LINE
  8
0
 10
69.54
 11
69.672
 20
36.851
 21
36.641
  0
LINE
  8
0
 10
69.672
 11
69.769
 20
36.641
 21
36.414
  0
LINE
  8
0
 10
69.769
 11
69.829
 20
36.414
 21
36.172
  0
LINE
  8
0
 10
69.829
 11
69.85
 20
36.172
 21
35.922
  0
LINE
  8
0
 10
69.85
 11
69.85
 20
35.922
 21
19.941
  0
LINE
  8
0
 10
69.85
 11
69.818
 20
19.941
 21
19.622
  0
LINE
  8
0
 10
69.818
 11
69.727
 20
19.622
 21
19.325
  0
LINE
  8
0
 10
69.727
 11
69.582
 20
19.325
 21
19.057
  0
LINE
  8
0
 10
69.582
 11
69.39
 20
19.057
 21
18.824
  0
LINE
  8
0
 10
69.39
 11
69.157
 20
18.824
 21
18.632
  0
LINE
  8
0
 10
69.157
 11
68.889
 20
18.632
 21
18.487
  0
LINE
  8
0
 10
68.889
 11
68.592
 20
18.487
 21
18.395
  0
LINE
  8
0
 10
68.592
 11
68.272
 20
18.395
 21
18.363
  0
LINE
  8
0
 10
68.272
 11
67.953
 20
18.363
 21
18.395
  0
LINE
  8
0
 10
67.953
 11
67.656
 20
18.395
 21
18.487
  0
LINE
  8
0
 10
67.656
 11
67.388
 20
18.487
 21
18.632
  0
LINE
  8
0
 10
67.388
 11
67.155
 20
18.632
 21
18.824
  0
LINE
  8
0
 10
67.155
 11
66.962
 20
18.824
 21
19.057
  0
LINE
  8
0
 10
66.962
 11
66.817
 20
19.057
 21
19.325
  0
LINE
  8
0
 10
66.817
 11
66.726
 20
19.325
 21
19.622
  0
LINE
  8
0
 10
66.726
 11
66.694
 20
19.622
 21
19.941
  0
LINE
  8
0
 10
66.694
 11
66.694
 20
19.941
 21
30.813
  0
LINE
  8
0
 10
66.694
 11
65.698
 20
30.813
 21
29.344
  0
LINE
  8
0
 10
65.698
 11
64.703
 20
29.344
 21
27.876
  0
LINE
  8
0
 10
64.703
 11
63.707
 20
27.876
 21
26.407
  0
LINE
  8
0
 10
63.707
 11
62.712
 20
26.407
 21
24.939
  0
LINE
  8
0
 10
62.712
 11
61.716
 20
24.939
 21
23.47
  0
LINE
  8
0
 10
61.716
 11
60.72
 20
23.47
 21
22.002
  0
LINE
  8
0
 10
60.72
 11
59.725
 20
22.002
 21
20.533
  0
LINE
  8
0
 10
59.725
 11
58.729
 20
20.533
 21
19.065
  0
LINE
  8
0
 10
58.729
 11
58.565
 20
19.065
 21
18.865
  0
LINE
  8
0
 10
58.565
 11
58.377
 20
18.865
 21
18.696
  0
LINE
  8
0
 10
58.377
 11
58.169
 20
18.696
 21
18.561
  0
LINE
  8
0
 10
58.169
 11
57.943
 20
18.561
 21
18.461
  0
LINE
  8
0
 10
57.943
 11
57.705
 20
18.461
 21
18.397
  0
LINE
  8
0
 10
57.705
 11
57.458
 20
18.397
 21
18.371
  0
LINE
  8
0
 10
57.458
 11
57.205
 20
18.371
 21
18.385
  0
LINE
  8
0
 10
57.205
 11
56.951
 20
18.385
 21
18.439
  0
LINE
  8
0
 10
56.951
 11
56.716
 20
18.439
 21
18.533
  0
LINE
  8
0
 10
56.716
 11
56.504
 20
18.533
 21
18.663
  0
LINE
  8
0
 10
56.504
 11
56.316
 20
18.663
 21
18.824
  0
LINE
  8
0
 10
56.316
 11
56.155
 20
18.824
 21
19.012
  0
LINE
  8
0
 10
56.155
 11
56.026
 20
19.012
 21
19.222
  0
LINE
  8
0
 10
56.026
 11
55.929
 20
19.222
 21
19.45
  0
LINE
  8
0
 10
55.929
 11
55.869
 20
19.45
 21
19.691
  0
LINE
  8
0
 10
55.869
 11
55.849
 20
19.691
 21
19.942
  0
LINE
  8
0
 10
55.849
 11
55.849
 20
19.942
 21
30.813
  0
LINE
  8
0
 10
55.849
 11
54.85
 20
30.813
 21
29.344
  0
LINE
  8
0
 10
54.85
 11
53.851
 20
29.344
 21
27.876
  0
LINE
  8
0
 10
53.851
 11
52.852
 20
27.876
 21
26.407
  0
LINE
  8
0
 10
52.852
 11
51.853
 20
26.407
 21
24.939
  0
LINE
  8
0
 10
51.853
 11
50.855
 20
24.939
 21
23.47
  0
LINE
  8
0
 10
50.855
 11
48.857
 20
23.47
 21
20.534
  0
LINE
  8
0
 10
48.857
 11
47.858
 20
20.534
 21
19.065
  0
LINE
  8
0
 10
47.858
 11
47.658
 20
19.065
 21
18.819
  0
LINE
  8
0
 10
47.658
 11
47.419
 20
18.819
 21
18.625
  0
LINE
  8
0
 10
47.419
 11
47.151
 20
18.625
 21
18.486
  0
LINE
  8
0
 10
47.151
 11
46.863
 20
18.486
 21
18.402
  0
LINE
  8
0
 10
46.863
 11
46.562
 20
18.402
 21
18.374
  0
LINE
  8
0
 10
46.562
 11
46.259
 20
18.374
 21
18.403
  0
LINE
  8
0
 10
46.259
 11
45.962
 20
18.403
 21
18.491
  0
LINE
  8
0
 10
45.962
 11
45.679
 20
18.491
 21
18.64
  0
LINE
  8
0
 10
45.679
 11
45.44
 20
18.64
 21
18.848
  0
LINE
  8
0
 10
45.44
 11
45.25
 20
18.848
 21
19.093
  0
LINE
  8
0
 10
45.25
 11
45.112
 20
19.093
 21
19.365
  0
LINE
  8
0
 10
45.112
 11
45.028
 20
19.365
 21
19.657
  0
LINE
  8
0
 10
45.028
 11
45
 20
19.657
 21
19.959
  0
LINE
  8
0
 10
71.354
 11
71.354
 20
19.916
 21
35.897
  0
LINE
  8
0
 10
71.354
 11
71.385
 20
35.897
 21
36.216
  0
LINE
  8
0
 10
71.385
 11
71.477
 20
36.216
 21
36.513
  0
LINE
  8
0
 10
71.477
 11
71.622
 20
36.513
 21
36.781
  0
LINE
  8
0
 10
71.622
 11
71.814
 20
36.781
 21
37.014
  0
LINE
  8
0
 10
71.814
 11
72.047
 20
37.014
 21
37.207
  0
LINE
  8
0
 10
72.047
 11
72.315
 20
37.207
 21
37.351
  0
LINE
  8
0
 10
72.315
 11
72.612
 20
37.351
 21
37.443
  0
LINE
  8
0
 10
72.612
 11
72.932
 20
37.443
 21
37.475
  0
LINE
  8
0
 10
72.932
 11
80.095
 20
37.475
 21
37.475
  0
LINE
  8
0
 10
80.095
 11
80.415
 20
37.475
 21
37.443
  0
LINE
  8
0
 10
80.415
 11
80.712
 20
37.443
 21
37.351
  0
LINE
  8
0
 10
80.712
 11
80.98
 20
37.351
 21
37.207
  0
LINE
  8
0
 10
80.98
 11
81.213
 20
37.207
 21
37.014
  0
LINE
  8
0
 10
81.213
 11
81.405
 20
37.014
 21
36.781
  0
LINE
  8
0
 10
81.405
 11
81.55
 20
36.781
 21
36.513
  0
LINE
  8
0
 10
81.55
 11
81.642
 20
36.513
 21
36.216
  0
LINE
  8
0
 10
81.642
 11
81.673
 20
36.216
 21
35.897
  0
LINE
  8
0
 10
81.673
 11
81.642
 20
35.897
 21
35.577
  0
LINE
  8
0
 10
81.642
 11
81.55
 20
35.577
 21
35.28
  0
LINE
  8
0
 10
81.55
 11
81.405
 20
35.28
 21
35.012
  0
LINE
  8
0
 10
81.405
 11
81.213
 20
35.012
 21
34.779
  0
LINE
  8
0
 10
81.213
 11
80.98
 20
34.779
 21
34.587
  0
LINE
  8
0
 10
80.98
 11
80.712
 20
34.587
 21
34.442
  0
LINE
  8
0
 10
80.712
 11
80.415
 20
34.442
 21
34.351
  0
LINE
  8
0
 10
80.415
 11
80.095
 20
34.351
 21
34.319
  0
LINE
  8
0
 10
80.095
 11
74.51
 20
34.319
 21
34.319
  0
LINE
  8
0
 10
74.51
 11
74.51
 20
34.319
 21
30.336
  0
LINE
  8
0
 10
74.51
 11
79.194
 20
30.336
 21
30.336
  0
LINE
  8
0
 10
79.194
 11
79.513
 20
30.336
 21
30.304
  0
LINE
  8
0
 10
79.513
 11
79.81
 20
30.304
 21
30.213
  0
LINE
  8
0
 10
79.81
 11
80.078
 20
30.213
 21
30.069
  0
LINE
  8
0
 10
80.078
 11
80.312
 20
30.069
 21
29.879
  0
LINE
  8
0
 10
80.312
 11
80.504
 20
29.879
 21
29.648
  0
LINE
  8
0
 10
80.504
 11
80.649
 20
29.648
 21
29.385
  0
LINE
  8
0
 10
80.649
 11
80.74
 20
29.385
 21
29.094
  0
LINE
  8
0
 10
80.74
 11
80.772
 20
29.094
 21
28.783
  0
LINE
  8
0
 10
80.772
 11
80.74
 20
28.783
 21
28.464
  0
LINE
  8
0
 10
80.74
 11
80.649
 20
28.464
 21
28.167
  0
LINE
  8
0
 10
80.649
 11
80.504
 20
28.167
 21
27.899
  0
LINE
  8
0
 10
80.504
 11
80.312
 20
27.899
 21
27.665
  0
LINE
  8
0
 10
80.312
 11
80.078
 20
27.665
 21
27.473
  0
LINE
  8
0
 10
80.078
 11
79.81
 20
27.473
 21
27.328
  0
LINE
  8
0
 10
79.81
 11
79.513
 20
27.328
 21
27.237
  0
LINE
  8
0
 10
79.513
 11
79.194
 20
27.237
 21
27.205
  0
LINE
  8
0
 10
79.194
 11
74.51
 20
27.205
 21
27.205
  0
LINE
  8
0
 10
74.51
 11
74.51
 20
27.205
 21
21.494
  0
LINE
  8
0
 10
74.51
 11
80.596
 20
21.494
 21
21.494
  0
LINE
  8
0
 10
80.596
 11
80.916
 20
21.494
 21
21.462
  0
LINE
  8
0
 10
80.916
 11
81.213
 20
21.462
 21
21.371
  0
LINE
  8
0
 10
81.213
 11
81.481
 20
21.371
 21
21.226
  0
LINE
  8
0
 10
81.481
 11
81.714
 20
21.226
 21
21.034
  0
LINE
  8
0
 10
81.714
 11
81.906
 20
21.034
 21
20.8
  0
LINE
  8
0
 10
81.906
 11
82.051
 20
20.8
 21
20.532
  0
LINE
  8
0
 10
82.051
 11
82.143
 20
20.532
 21
20.235
  0
LINE
  8
0
 10
82.143
 11
82.174
 20
20.235
 21
19.916
  0
LINE
  8
0
 10
82.174
 11
82.143
 20
19.916
 21
19.605
  0
LINE
  8
0
 10
82.143
 11
82.051
 20
19.605
 21
19.314
  0
LINE
  8
0
 10
82.051
 11
81.906
 20
19.314
 21
19.05
  0
LINE
  8
0
 10
81.906
 11
81.714
 20
19.05
 21
18.82
  0
LINE
  8
0
 10
81.714
 11
81.481
 20
18.82
 21
18.63
  0
LINE
  8
0
 10
81.481
 11
81.213
 20
18.63
 21
18.486
  0
LINE
  8
0
 10
81.213
 11
80.916
 20
18.486
 21
18.395
  0
LINE
  8
0
 10
80.916
 11
80.596
 20
18.395
 21
18.363
  0
LINE
  8
0
 10
80.596
 11
72.932
 20
18.363
 21
18.363
  0
LINE
  8
0
 10
72.932
 11
72.612
 20
18.363
 21
18.395
  0
LINE
  8
0
 10
72.612
 11
72.315
 20
18.395
 21
18.486
  0
LINE
  8
0
 10
72.315
 11
72.047
 20
18.486
 21
18.63
  0
LINE
  8
0
 10
72.047
 11
71.814
 20
18.63
 21
18.82
  0
LINE
  8
0
 10
71.814
 11
71.622
 20
18.82
 21
19.051
  0
LINE
  8
0
 10
71.622
 11
71.477
 20
19.051
 21
19.314
  0
LINE
  8
0
 10
71.477
 11
71.385
 20
19.314
 21
19.605
  0
LINE
  8
0
 10
71.385
 11
71.354
 20
19.605
 21
19.916
  0
LINE
  8
0
 10
72.5
 11
72.573
 20
150
 21
150.464
  0
LINE
  8
0
 10
72.573
 11
72.786
 20
150.464
 21
150.882
  0
LINE
  8
0
 10
72.786
 11
73.118
 20
150.882
 21
151.214
  0
LINE
  8
0
 10
73.118
 11
73.536
 20
151.214
 21
151.427
  0
LINE
  8
0
 10
73.536
 11
74
 20
151.427
 21
151.5
  0
LINE
  8
0
 10
74
 11
74.464
 20
151.5
 21
151.427
  0
LINE
  8
0
 10
74.464
 11
74.882
 20
151.427
 21
151.214
  0
LINE
  8
0
 10
74.882
 11
75.214
 20
151.214
 21
150.882
  0
LINE
  8
0
 10
75.214
 11
75.427
 20
150.882
 21
150.464
  0
LINE
  8
0
 10
75.427
 11
75.5
 20
150.464
 21
150
  0
LINE
  8
0
 10
75.5
 11
75.427
 20
150
 21
149.536
  0
LINE
  8
0
 10
75.427
 11
75.214
 20
149.536
 21
149.118
  0
LINE
  8
0
 10
75.214
 11
74.882
 20
149.118
 21
148.786
  0
LINE
  8
0
 10
74.882
 11
74.464
 20
148.786
 21
148.573
  0
LINE
  8
0
 10
74.464
 11
74
 20
148.573
 21
148.5
  0
LINE
  8
0
 10
74
 11
73.536
 20
148.5
 21
148.573
  0
LINE
  8
0
 10
73.536
 11
73.118
 20
148.573
 21
148.786
  0
LINE
  8
0
 10
73.118
 11
72.786
 20
148.786
 21
149.118
  0
LINE
  8
0
 10
72.786
 11
72.573
 20
149.118
 21
149.536
  0
LINE
  8
0
 10
72.573
 11
72.5
 20
149.536
 21
150
  0
LINE
  8
0
 10
82.325
 11
82.358
 20
35.872
 21
36.191
  0
LINE
  8
0
 10
82.358
 11
82.452
 20
36.191
 21
36.488
  0
LINE
  8
0
 10
82.452
 11
82.6
 20
36.488
 21
36.756
  0
LINE
  8
0
 10
82.6
 11
82.794
 20
36.756
 21
36.989
  0
LINE
  8
0
 10
82.794
 11
83.029
 20
36.989
 21
37.181
  0
LINE
  8
0
 10
83.029
 11
83.297
 20
37.181
 21
37.326
  0
LINE
  8
0
 10
83.297
 11
83.591
 20
37.326
 21
37.418
  0
LINE
  8
0
 10
83.591
 11
83.903
 20
37.418
 21
37.45
  0
LINE
  8
0
 10
83.903
 11
92.97
 20
37.45
 21
37.45
  0
LINE
  8
0
 10
92.97
 11
93.282
 20
37.45
 21
37.418
  0
LINE
  8
0
 10
93.282
 11
93.576
 20
37.418
 21
37.326
  0
LINE
  8
0
 10
93.576
 11
93.844
 20
37.326
 21
37.181
  0
LINE
  8
0
 10
93.844
 11
94.078
 20
37.181
 21
36.989
  0
LINE
  8
0
 10
94.078
 11
94.273
 20
36.989
 21
36.756
  0
LINE
  8
0
 10
94.273
 11
94.421
 20
36.756
 21
36.488
  0
LINE
  8
0
 10
94.421
 11
94.515
 20
36.488
 21
36.191
  0
LINE
  8
0
 10
94.515
 11
94.548
 20
36.191
 21
35.872
  0
LINE
  8
0
 10
94.548
 11
94.515
 20
35.872
 21
35.56
  0
LINE
  8
0
 10
94.515
 11
94.421
 20
35.56
 21
35.27
  0
LINE
  8
0
 10
94.421
 11
94.273
 20
35.27
 21
35.006
  0
LINE
  8
0
 10
94.273
 11
94.079
 20
35.006
 21
34.776
  0
LINE
  8
0
 10
94.079
 11
93.844
 20
34.776
 21
34.586
  0
LINE
  8
0
 10
93.844
 11
93.576
 20
34.586
 21
34.442
  0
LINE
  8
0
 10
93.576
 11
93.283
 20
34.442
 21
34.351
  0
LINE
  8
0
 10
93.283
 11
92.97
 20
34.351
 21
34.319
  0
LINE
  8
0
 10
92.97
 11
90.015
 20
34.319
 21
34.319
  0
LINE
  8
0
 10
90.015
 11
90.015
 20
34.319
 21
19.916
  0
LINE
  8
0
 10
90.015
 11
89.983
 20
19.916
 21
19.597
  0
LINE
  8
0
 10
89.983
 11
89.891
 20
19.597
 21
19.3
  0
LINE
  8
0
 10
89.891
 11
89.746
 20
19.3
 21
19.032
  0
LINE
  8
0
 10
89.746
 11
89.554
 20
19.032
 21
18.799
  0
LINE
  8
0
 10
89.554
 11
89.321
 20
18.799
 21
18.607
  0
LINE
  8
0
 10
89.321
 11
89.053
 20
18.607
 21
18.462
  0
LINE
  8
0
 10
89.053
 11
88.756
 20
18.462
 21
18.37
  0
LINE
  8
0
 10
88.756
 11
88.437
 20
18.37
 21
18.338
  0
LINE
  8
0
 10
88.437
 11
88.117
 20
18.338
 21
18.37
  0
LINE
  8
0
 10
88.117
 11
87.82
 20
18.37
 21
18.462
  0
LINE
  8
0
 10
87.82
 11
87.552
 20
18.462
 21
18.607
  0
LINE
  8
0
 10
87.552
 11
87.319
 20
18.607
 21
18.799
  0
LINE
  8
0
 10
87.319
 11
87.127
 20
18.799
 21
19.032
  0
LINE
  8
0
 10
87.127
 11
86.982
 20
19.032
 21
19.3
  0
LINE
  8
0
 10
86.982
 11
86.89
 20
19.3
 21
19.597
  0
LINE
  8
0
 10
86.89
 11
86.858
 20
19.597
 21
19.916
  0
LINE
  8
0
 10
86.858
 11
86.858
 20
19.916
 21
34.319
  0
LINE
  8
0
 10
86.858
 11
83.903
 20
34.319
 21
34.319
  0
LINE
  8
0
 10
83.903
 11
83.591
 20
34.319
 21
34.351
  0
LINE
  8
0
 10
83.591
 11
83.297
 20
34.351
 21
34.442
  0
LINE
  8
0
 10
83.297
 11
83.029
 20
34.442
 21
34.586
  0
LINE
  8
0
 10
83.029
 11
82.794
 20
34.586
 21
34.776
  0
LINE
  8
0
 10
82.794
 11
82.6
 20
34.776
 21
35.006
  0
LINE
  8
0
 10
82.6
 11
82.452
 20
35.006
 21
35.27
  0
LINE
  8
0
 10
82.452
 11
82.358
 20
35.27
 21
35.56
  0
LINE
  8
0
 10
82.358
 11
82.325
 20
35.56
 21
35.872
  0
LINE
  8
0
 10
90.927
 11
90.956
 20
19.953
 21
20.253
  0
LINE
  8
0
 10
90.956
 11
91.045
 20
20.253
 21
20.544
  0
LINE
  8
0
 10
91.045
 11
91.193
 20
20.544
 21
20.818
  0
LINE
  8
0
 10
91.193
 11
92.551
 20
20.818
 21
22.816
  0
LINE
  8
0
 10
92.551
 11
93.91
 20
22.816
 21
24.813
  0
LINE
  8
0
 10
93.91
 11
95.269
 20
24.813
 21
26.811
  0
LINE
  8
0
 10
95.269
 11
96.628
 20
26.811
 21
28.808
  0
LINE
  8
0
 10
96.628
 11
97.987
 20
28.808
 21
30.806
  0
LINE
  8
0
 10
97.987
 11
99.345
 20
30.806
 21
32.803
  0
LINE
  8
0
 10
99.345
 11
100.704
 20
32.803
 21
34.801
  0
LINE
  8
0
 10
100.704
 11
102.063
 20
34.801
 21
36.798
  0
LINE
  8
0
 10
102.063
 11
102.22
 20
36.798
 21
36.999
  0
LINE
  8
0
 10
102.22
 11
102.404
 20
36.999
 21
37.167
  0
LINE
  8
0
 10
102.404
 11
102.611
 20
37.167
 21
37.302
  0
LINE
  8
0
 10
102.611
 11
102.836
 20
37.302
 21
37.403
  0
LINE
  8
0
 10
102.836
 11
103.074
 20
37.403
 21
37.466
  0
LINE
  8
0
 10
103.074
 11
103.32
 20
37.466
 21
37.492
  0
LINE
  8
0
 10
103.32
 11
103.569
 20
37.492
 21
37.479
  0
LINE
  8
0
 10
103.569
 11
103.816
 20
37.479
 21
37.425
  0
LINE
  8
0
 10
103.816
 11
104.051
 20
37.425
 21
37.33
  0
LINE
  8
0
 10
104.051
 11
104.263
 20
37.33
 21
37.2
  0
LINE
  8
0
 10
104.263
 11
104.451
 20
37.2
 21
37.039
  0
LINE
  8
0
 10
104.451
 11
104.612
 20
37.039
 21
36.851
  0
LINE
  8
0
 10
104.612
 11
104.742
 20
36.851
 21
36.641
  0
LINE
  8
0
 10
104.742
 11
104.838
 20
36.641
 21
36.414
  0
LINE
  8
0
 10
104.838
 11
104.898
 20
36.414
 21
36.172
  0
LINE
  8
0
 10
104.898
 11
104.919
 20
36.172
 21
35.922
  0
LINE
  8
0
 10
104.919
 11
104.919
 20
35.922
 21
19.941
  0
LINE
  8
0
 10
104.919
 11
104.887
 20
19.941
 21
19.622
  0
LINE
  8
0
 10
104.887
 11
104.796
 20
19.622
 21
19.325
  0
LINE
  8
0
 10
104.796
 11
104.652
 20
19.325
 21
19.057
  0
LINE
  8
0
 10
104.652
 11
104.462
 20
19.057
 21
18.824
  0
LINE
  8
0
 10
104.462
 11
104.231
 20
18.824
 21
18.632
  0
LINE
  8
0
 10
104.231
 11
103.968
 20
18.632
 21
18.487
  0
LINE
  8
0
 10
103.968
 11
103.677
 20
18.487
 21
18.395
  0
LINE
  8
0
 10
103.677
 11
103.366
 20
18.395
 21
18.363
  0
LINE
  8
0
 10
103.366
 11
103.046
 20
18.363
 21
18.395
  0
LINE
  8
0
 10
103.046
 11
102.749
 20
18.395
 21
18.487
  0
LINE
  8
0
 10
102.749
 11
102.481
 20
18.487
 21
18.632
  0
LINE
  8
0
 10
102.481
 11
102.248
 20
18.632
 21
18.824
  0
LINE
  8
0
 10
102.248
 11
102.056
 20
18.824
 21
19.057
  0
LINE
  8
0
 10
102.056
 11
101.911
 20
19.057
 21
19.325
  0
LINE
  8
0
 10
101.911
 11
101.82
 20
19.325
 21
19.622
  0
LINE
  8
0
 10
101.82
 11
101.788
 20
19.622
 21
19.941
  0
LINE
  8
0
 10
101.788
 11
101.788
 20
19.941
 21
30.813
  0
LINE
  8
0
 10
101.788
 11
100.789
 20
30.813
 21
29.344
  0
LINE
  8
0
 10
100.789
 11
99.79
 20
29.344
 21
27.876
  0
LINE
  8
0
 10
99.79
 11
98.791
 20
27.876
 21
26.407
  0
LINE
  8
0
 10
98.791
 11
97.792
 20
26.407
 21
24.939
  0
LINE
  8
0
 10
97.792
 11
96.794
 20
24.939
 21
23.47
  0
LINE
  8
0
 10
96.794
 11
95.795
 20
23.47
 21
22.002
  0
LINE
  8
0
 10
95.795
 11
94.796
 20
22.002
 21
20.533
  0
LINE
  8
0
 10
94.796
 11
93.797
 20
20.533
 21
19.065
  0
LINE
  8
0
 10
93.797
 11
93.597
 20
19.065
 21
18.819
  0
LINE
  8
0
 10
93.597
 11
93.358
 20
18.819
 21
18.625
  0
LINE
  8
0
 10
93.358
 11
93.09
 20
18.625
 21
18.486
  0
LINE
  8
0
 10
93.09
 11
92.802
 20
18.486
 21
18.401
  0
LINE
  8
0
 10
92.802
 11
92.501
 20
18.401
 21
18.374
  0
LINE
  8
0
 10
92.501
 11
92.198
 20
18.374
 21
18.403
  0
LINE
  8
0
 10
92.198
 11
91.901
 20
18.403
 21
18.491
  0
LINE
  8
0
 10
91.901
 11
91.618
 20
18.491
 21
18.64
  0
LINE
  8
0
 10
91.618
 11
91.372
 20
18.64
 21
18.848
  0
LINE
  8
0
 10
91.372
 11
91.178
 20
18.848
 21
19.093
  0
LINE
  8
0
 10
91.178
 11
91.039
 20
19.093
 21
19.364
  0
LINE
  8
0
 10
91.039
 11
90.955
 20
19.364
 21
19.654
  0
LINE
  8
0
 10
90.955
 11
90.927
 20
19.654
 21
19.953
  0
LINE
  8
0
 10
105.692
 11
105.723
 20
19.959
 21
20.263
  0
LINE
  8
0
 10
105.723
 11
105.815
 20
20.263
 21
20.56
  0
LINE
  8
0
 10
105.815
 11
105.971
 20
20.56
 21
20.843
  0
LINE
  8
0
 10
105.971
 11
107.326
 20
20.843
 21
22.837
  0
LINE
  8
0
 10
107.326
 11
108.682
 20
22.837
 21
24.832
  0
LINE
  8
0
 10
108.682
 11
110.038
 20
24.832
 21
26.826
  0
LINE
  8
0
 10
110.038
 11
111.393
 20
26.826
 21
28.821
  0
LINE
  8
0
 10
111.393
 11
112.749
 20
28.821
 21
30.815
  0
LINE
  8
0
 10
112.749
 11
114.105
 20
30.815
 21
32.81
  0
LINE
  8
0
 10
114.105
 11
115.461
 20
32.81
 21
34.804
  0
LINE
  8
0
 10
115.461
 11
116.816
 20
34.804
 21
36.798
  0
LINE
  8
0
 10
116.816
 11
116.973
 20
36.798
 21
36.999
  0
LINE
  8
0
 10
116.973
 11
117.157
 20
36.999
 21
37.167
  0
LINE
  8
0
 10
117.157
 11
117.365
 20
37.167
 21
37.302
  0
LINE
  8
0
 10
117.365
 11
117.59
 20
37.302
 21
37.403
  0
LINE
  8
0
 10
117.59
 11
117.828
 20
37.403
 21
37.466
  0
LINE
  8
0
 10
117.828
 11
118.074
 20
37.466
 21
37.492
  0
LINE
  8
0
 10
118.074
 11
118.323
 20
37.492
 21
37.479
  0
LINE
  8
0
 10
118.323
 11
118.57
 20
37.479
 21
37.425
  0
LINE
  8
0
 10
118.57
 11
118.804
 20
37.425
 21
37.33
  0
LINE
  8
0
 10
118.804
 11
119.017
 20
37.33
 21
37.2
  0
LINE
  8
0
 10
119.017
 11
119.205
 20
37.2
 21
37.039
  0
LINE
  8
0
 10
119.205
 11
119.365
 20
37.039
 21
36.851
  0
LINE
  8
0
 10
119.365
 11
119.495
 20
36.851
 21
36.641
  0
LINE
  8
0
 10
119.495
 11
119.591
 20
36.641
 21
36.414
  0
LINE
  8
0
 10
119.591
 11
119.651
 20
36.414
 21
36.172
  0
LINE
  8
0
 10
119.651
 11
119.672
 20
36.172
 21
35.922
  0
LINE
  8
0
 10
119.672
 11
119.672
 20
35.922
 21
25.051
  0
LINE
  8
0
 10
119.672
 11
120.671
 20
25.051
 21
26.52
  0
LINE
  8
0
 10
120.671
 11
121.669
 20
26.52
 21
27.988
  0
LINE
  8
0
 10
121.669
 11
122.668
 20
27.988
 21
29.456
  0
LINE
  8
0
 10
122.668
 11
123.667
 20
29.456
 21
30.925
  0
LINE
  8
0
 10
123.667
 11
124.666
 20
30.925
 21
32.393
  0
LINE
  8
0
 10
124.666
 11
125.664
 20
32.393
 21
33.862
  0
LINE
  8
0
 10
125.664
 11
127.662
 20
33.862
 21
36.798
  0
LINE
  8
0
 10
127.662
 11
127.818
 20
36.798
 21
36.999
  0
LINE
  8
0
 10
127.818
 11
128.003
 20
36.999
 21
37.167
  0
LINE
  8
0
 10
128.003
 11
128.21
 20
37.167
 21
37.302
  0
LINE
  8
0
 10
128.21
 11
128.435
 20
37.302
 21
37.403
  0
LINE
  8
0
 10
128.435
 11
128.674
 20
37.403
 21
37.466
  0
LINE
  8
0
 10
128.674
 11
128.92
 20
37.466
 21
37.492
  0
LINE
  8
0
 10
128.92
 11
129.169
 20
37.492
 21
37.479
  0
LINE
  8
0
 10
129.169
 11
129.416
 20
37.479
 21
37.425
  0
LINE
  8
0
 10
129.416
 11
129.658
 20
37.425
 21
37.33
  0
LINE
  8
0
 10
129.658
 11
129.877
 20
37.33
 21
37.2
  0
LINE
  8
0
 10
129.877
 11
130.069
 20
37.2
 21
37.039
  0
LINE
  8
0
 10
130.069
 11
130.233
 20
37.039
 21
36.851
  0
LINE
  8
0
 10
130.233
 11
130.364
 20
36.851
 21
36.641
  0
LINE
  8
0
 10
130.364
 11
130.461
 20
36.641
 21
36.414
  0
LINE
  8
0
 10
130.461
 11
130.522
 20
36.414
 21
36.172
  0
LINE
  8
0
 10
130.522
 11
130.542
 20
36.172
 21
35.922
  0
LINE
  8
0
 10
130.542
 11
130.542
 20
35.922
 21
19.941
  0
LINE
  8
0
 10
130.542
 11
130.511
 20
19.941
 21
19.622
  0
LINE
  8
0
 10
130.511
 11
130.419
 20
19.622
 21
19.325
  0
LINE
  8
0
 10
130.419
 11
130.274
 20
19.325
 21
19.057
  0
LINE
  8
0
 10
130.274
 11
130.082
 20
19.057
 21
18.824
  0
LINE
  8
0
 10
130.082
 11
129.849
 20
18.824
 21
18.632
  0
LINE
  8
0
 10
129.849
 11
129.581
 20
18.632
 21
18.487
  0
LINE
  8
0
 10
129.581
 11
129.284
 20
18.487
 21
18.395
  0
LINE
  8
0
 10
129.284
 11
128.964
 20
18.395
 21
18.363
  0
LINE
  8
0
 10
128.964
 11
128.645
 20
18.363
 21
18.395
  0
LINE
  8
0
 10
128.645
 11
128.348
 20
18.395
 21
18.487
  0
LINE
  8
0
 10
128.348
 11
128.08
 20
18.487
 21
18.632
  0
LINE
  8
0
 10
128.08
 11
127.847
 20
18.632
 21
18.824
  0
LINE
  8
0
 10
127.847
 11
127.655
 20
18.824
 21
19.057
  0
LINE
  8
0
 10
127.655
 11
127.51
 20
19.057
 21
19.325
  0
LINE
  8
0
 10
127.51
 11
127.418
 20
19.325
 21
19.622
  0
LINE
  8
0
 10
127.418
 11
127.386
 20
19.622
 21
19.941
  0
LINE
  8
0
 10
127.386
 11
127.386
 20
19.941
 21
30.813
  0
LINE
  8
0
 10
127.386
 11
126.391
 20
30.813
 21
29.344
  0
LINE
  8
0
 10
126.391
 11
125.395
 20
29.344
 21
27.876
  0
LINE
  8
0
 10
125.395
 11
124.399
 20
27.876
 21
26.407
  0
LINE
  8
0
 10
124.399
 11
123.404
 20
26.407
 21
24.939
  0
LINE
  8
0
 10
123.404
 11
122.408
 20
24.939
 21
23.47
  0
LINE
  8
0
 10
122.408
 11
121.413
 20
23.47
 21
22.002
  0
LINE
  8
0
 10
121.413
 11
120.417
 20
22.002
 21
20.533
  0
LINE
  8
0
 10
120.417
 11
119.421
 20
20.533
 21
19.065
  0
LINE
  8
0
 10
119.421
 11
119.258
 20
19.065
 21
18.865
  0
LINE
  8
0
 10
119.258
 11
119.07
 20
18.865
 21
18.696
  0
LINE
  8
0
 10
119.07
 11
118.861
 20
18.696
 21
18.561
  0
LINE
  8
0
 10
118.861
 11
118.636
 20
18.561
 21
18.461
  0
LINE
  8
0
 10
118.636
 11
118.397
 20
18.461
 21
18.397
  0
LINE
  8
0
 10
118.397
 11
118.15
 20
18.397
 21
18.371
  0
LINE
  8
0
 10
118.15
 11
117.897
 20
18.371
 21
18.385
  0
LINE
  8
0
 10
117.897
 11
117.643
 20
18.385
 21
18.439
  0
LINE
  8
0
 10
117.643
 11
117.409
 20
18.439
 21
18.533
  0
LINE
  8
0
 10
117.409
 11
117.196
 20
18.533
 21
18.663
  0
LINE
  8
0
 10
117.196
 11
117.008
 20
18.663
 21
18.824
  0
LINE
  8
0
 10
117.008
 11
116.848
 20
18.824
 21
19.012
  0
LINE
  8
0
 10
116.848
 11
116.718
 20
19.012
 21
19.222
  0
LINE
  8
0
 10
116.718
 11
116.621
 20
19.222
 21
19.45
  0
LINE
  8
0
 10
116.621
 11
116.561
 20
19.45
 21
19.691
  0
LINE
  8
0
 10
116.561
 11
116.541
 20
19.691
 21
19.942
  0
LINE
  8
0
 10
116.541
 11
116.541
 20
19.942
 21
30.813
  0
LINE
  8
0
 10
116.541
 11
115.542
 20
30.813
 21
29.344
  0
LINE
  8
0
 10
115.542
 11
114.543
 20
29.344
 21
27.876
  0
LINE
  8
0
 10
114.543
 11
113.544
 20
27.876
 21
26.407
  0
LINE
  8
0
 10
113.544
 11
112.546
 20
26.407
 21
24.939
  0
LINE
  8
0
 10
112.546
 11
111.547
 20
24.939
 21
23.47
  0
LINE
  8
0
 10
111.547
 11
109.549
 20
23.47
 21
20.534
  0
LINE
  8
0
 10
109.549
 11
108.551
 20
20.534
 21
19.065
  0
LINE
  8
0
 10
108.551
 11
108.35
 20
19.065
 21
18.819
  0
LINE
  8
0
 10
108.35
 11
108.111
 20
18.819
 21
18.625
  0
LINE
  8
0
 10
108.111
 11
107.843
 20
18.625
 21
18.486
  0
LINE
  8
0
 10
107.843
 11
107.555
 20
18.486
 21
18.402
  0
LINE
  8
0
 10
107.555
 11
107.255
 20
18.402
 21
18.374
  0
LINE
  8
0
 10
107.255
 11
106.952
 20
18.374
 21
18.403
  0
LINE
  8
0
 10
106.952
 11
106.654
 20
18.403
 21
18.491
  0
LINE
  8
0
 10
106.654
 11
106.372
 20
18.491
 21
18.64
  0
LINE
  8
0
 10
106.372
 11
106.132
 20
18.64
 21
18.848
  0
LINE
  8
0
 10
106.132
 11
105.943
 20
18.848
 21
19.093
  0
LINE
  8
0
 10
105.943
 11
105.804
 20
19.093
 21
19.365
  0
LINE
  8
0
 10
105.804
 11
105.72
 20
19.365
 21
19.657
  0
LINE
  8
0
 10
105.72
 11
105.692
 20
19.657
 21
19.959
  0
LINE
  8
0
 10
119.5
 11
119.573
 20
130
 21
130.464
  0
LINE
  8
0
 10
119.573
 11
119.786
 20
130.464
 21
130.882
  0
LINE
  8
0
 10
119.786
 11
120.118
 20
130.882
 21
131.214
  0
LINE
  8
0
 10
120.118
 11
120.536
 20
131.214
 21
131.427
  0
LINE
  8
0
 10
120.536
 11
121
 20
131.427
 21
131.5
  0
LINE
  8
0
 10
121
 11
121.464
 20
131.5
 21
131.427
  0
LINE
  8
0
 10
121.464
 11
121.882
 20
131.427
 21
131.214
  0
LINE
  8
0
 10
121.882
 11
122.214
 20
131.214
 21
130.882
  0
LINE
  8
0
 10
122.214
 11
122.427
 20
130.882
 21
130.464
  0
LINE
  8
0
 10
122.427
 11
122.5
 20
130.464
 21
130
  0
LINE
  8
0
 10
122.5
 11
122.427
 20
130
 21
129.536
  0
LINE
  8
0
 10
122.427
 11
122.214
 20
129.536
 21
129.118
  0
LINE
  8
0
 10
122.214
 11
121.882
 20
129.118
 21
128.786
  0
LINE
  8
0
 10
121.882
 11
121.464
 20
128.786
 21
128.573
  0
LINE
  8
0
 10
121.464
 11
121
 20
128.573
 21
128.5
  0
LINE
  8
0
 10
121
 11
120.536
 20
128.5
 21
128.573
  0
LINE
  8
0
 10
120.536
 11
120.118
 20
128.573
 21
128.786
  0
LINE
  8
0
 10
120.118
 11
119.786
 20
128.786
 21
129.118
  0
LINE
  8
0
 10
119.786
 11
119.573
 20
129.118
 21
129.536
  0
LINE
  8
0
 10
119.573
 11
119.5
 20
129.536
 21
130
  0
LINE
  8
0
 10
119.5
 11
119.573
 20
170
 21
170.464
  0
LINE
  8
0
 10
119.573
 11
119.786
 20
170.464
 21
170.882
  0
LINE
  8
0
 10
119.786
 11
120.118
 20
170.882
 21
171.214
  0
LINE
  8
0
 10
120.118
 11
120.536
 20
171.214
 21
171.427
  0
LINE
  8
0
 10
120.536
 11
121
 20
171.427
 21
171.5
  0
LINE
  8
0
 10
121
 11
121.464
 20
171.5
 21
171.427
  0
LINE
  8
0
 10
121.464
 11
121.882
 20
171.427
 21
171.214
  0
LINE
  8
0
 10
121.882
 11
122.214
 20
171.214
 21
170.882
  0
LINE
  8
0
 10
122.214
 11
122.427
 20
170.882
 21
170.464
  0
LINE
  8
0
 10
122.427
 11
122.5
 20
170.464
 21
170
  0
LINE
  8
0
 10
122.5
 11
122.427
 20
170
 21
169.536
  0
LINE
  8
0
 10
122.427
 11
122.214
 20
169.536
 21
169.118
  0
LINE
  8
0
 10
122.214
 11
121.882
 20
169.118
 21
168.786
  0
LINE
  8
0
 10
121.882
 11
121.464
 20
168.786
 21
168.573
  0
LINE
  8
0
 10
121.464
 11
121
 20
168.573
 21
168.5
  0
LINE
  8
0
 10
121
 11
120.536
 20
168.5
 21
168.573
  0
LINE
  8
0
 10
120.536
 11
120.118
 20
168.573
 21
168.786
  0
LINE
  8
0
 10
120.118
 11
119.786
 20
168.786
 21
169.118
  0
LINE
  8
0
 10
119.786
 11
119.573
 20
169.118
 21
169.536
  0
LINE
  8
0
 10
119.573
 11
119.5
 20
169.536
 21
170
  0
LINE
  8
0
 10
131.298
 11
131.329
 20
19.951
 21
20.255
  0
LINE
  8
0
 10
131.329
 11
131.42
 20
20.255
 21
20.551
  0
LINE
  8
0
 10
131.42
 11
131.572
 20
20.551
 21
20.832
  0
LINE
  8
0
 10
131.572
 11
136.267
 20
20.832
 21
27.72
  0
LINE
  8
0
 10
136.267
 11
137.832
 20
27.72
 21
30.015
  0
LINE
  8
0
 10
137.832
 11
142.527
 20
30.015
 21
36.903
  0
LINE
  8
0
 10
142.527
 11
144.092
 20
36.903
 21
39.199
  0
LINE
  8
0
 10
144.092
 11
144.297
 20
39.199
 21
39.443
  0
LINE
  8
0
 10
144.297
 11
144.54
 20
39.443
 21
39.636
  0
LINE
  8
0
 10
144.54
 11
144.811
 20
39.636
 21
39.776
  0
LINE
  8
0
 10
144.811
 11
145.102
 20
39.776
 21
39.86
  0
LINE
  8
0
 10
145.102
 11
145.403
 20
39.86
 21
39.888
  0
LINE
  8
0
 10
145.403
 11
145.707
 20
39.888
 21
39.857
  0
LINE
  8
0
 10
145.707
 11
146.003
 20
39.857
 21
39.766
  0
LINE
  8
0
 10
146.003
 11
146.284
 20
39.766
 21
39.613
  0
LINE
  8
0
 10
146.284
 11
146.529
 20
39.613
 21
39.408
  0
LINE
  8
0
 10
146.529
 11
146.722
 20
39.408
 21
39.165
  0
LINE
  8
0
 10
146.722
 11
146.861
 20
39.165
 21
38.894
  0
LINE
  8
0
 10
146.861
 11
146.945
 20
38.894
 21
38.603
  0
LINE
  8
0
 10
146.945
 11
146.973
 20
38.603
 21
38.302
  0
LINE
  8
0
 10
146.973
 11
146.942
 20
38.302
 21
37.998
  0
LINE
  8
0
 10
146.942
 11
146.851
 20
37.998
 21
37.702
  0
LINE
  8
0
 10
146.851
 11
146.699
 20
37.702
 21
37.421
  0
LINE
  8
0
 10
146.699
 11
146.525
 20
37.421
 21
37.166
  0
LINE
  8
0
 10
146.525
 11
146.351
 20
37.166
 21
36.912
  0
LINE
  8
0
 10
146.351
 11
146.178
 20
36.912
 21
36.657
  0
LINE
  8
0
 10
146.178
 11
146.004
 20
36.657
 21
36.402
  0
LINE
  8
0
 10
146.004
 11
145.83
 20
36.402
 21
36.147
  0
LINE
  8
0
 10
145.83
 11
145.657
 20
36.147
 21
35.893
  0
LINE
  8
0
 10
145.657
 11
145.483
 20
35.893
 21
35.638
  0
LINE
  8
0
 10
145.483
 11
145.309
 20
35.638
 21
35.383
  0
LINE
  8
0
 10
145.309
 11
145.309
 20
35.383
 21
19.958
  0
LINE
  8
0
 10
145.309
 11
145.277
 20
19.958
 21
19.64
  0
LINE
  8
0
 10
145.277
 11
145.185
 20
19.64
 21
19.343
  0
LINE
  8
0
 10
145.185
 11
145.04
 20
19.343
 21
19.075
  0
LINE
  8
0
 10
145.04
 11
144.847
 20
19.075
 21
18.842
  0
LINE
  8
0
 10
144.847
 11
144.614
 20
18.842
 21
18.649
  0
LINE
  8
0
 10
144.614
 11
144.346
 20
18.649
 21
18.504
  0
LINE
  8
0
 10
144.346
 11
144.05
 20
18.504
 21
18.412
  0
LINE
  8
0
 10
144.05
 11
143.732
 20
18.412
 21
18.38
  0
LINE
  8
0
 10
143.732
 11
143.414
 20
18.38
 21
18.412
  0
LINE
  8
0
 10
143.414
 11
143.117
 20
18.412
 21
18.504
  0
LINE
  8
0
 10
143.117
 11
142.849
 20
18.504
 21
18.649
  0
LINE
  8
0
 10
142.849
 11
142.616
 20
18.649
 21
18.842
  0
LINE
  8
0
 10
142.616
 11
142.423
 20
18.842
 21
19.075
  0
LINE
  8
0
 10
142.423
 11
142.278
 20
19.075
 21
19.343
  0
LINE
  8
0
 10
142.278
 11
142.186
 20
19.343
 21
19.64
  0
LINE
  8
0
 10
142.186
 11
142.154
 20
19.64
 21
19.958
  0
LINE
  8
0
 10
142.154
 11
142.154
 20
19.958
 21
30.753
  0
LINE
  8
0
 10
142.154
 11
140.16
 20
30.753
 21
27.829
  0
LINE
  8
0
 10
140.16
 11
139.163
 20
27.829
 21
26.366
  0
LINE
  8
0
 10
139.163
 11
138.167
 20
26.366
 21
24.904
  0
LINE
  8
0
 10
138.167
 11
137.17
 20
24.904
 21
23.442
  0
LINE
  8
0
 10
137.17
 11
136.173
 20
23.442
 21
21.979
  0
LINE
  8
0
 10
136.173
 11
135.176
 20
21.979
 21
20.517
  0
LINE
  8
0
 10
135.176
 11
134.18
 20
20.517
 21
19.055
  0
LINE
  8
0
 10
134.18
 11
134.057
 20
19.055
 21
18.897
  0
LINE
  8
0
 10
134.057
 11
133.918
 20
18.897
 21
18.758
  0
LINE
  8
0
 10
133.918
 11
133.766
 20
18.758
 21
18.64
  0
LINE
  8
0
 10
133.766
 11
133.602
 20
18.64
 21
18.542
  0
LINE
  8
0
 10
133.602
 11
133.429
 20
18.542
 21
18.465
  0
LINE
  8
0
 10
133.429
 11
133.248
 20
18.465
 21
18.41
  0
LINE
  8
0
 10
133.248
 11
133.063
 20
18.41
 21
18.376
  0
LINE
  8
0
 10
133.063
 11
132.874
 20
18.376
 21
18.365
  0
LINE
  8
0
 10
132.874
 11
132.76
 20
18.365
 21
18.369
  0
LINE
  8
0
 10
132.76
 11
132.645
 20
18.369
 21
18.382
  0
LINE
  8
0
 10
132.645
 11
132.531
 20
18.382
 21
18.403
  0
LINE
  8
0
 10
132.531
 11
132.418
 20
18.403
 21
18.433
  0
LINE
  8
0
 10
132.418
 11
132.307
 20
18.433
 21
18.471
  0
LINE
  8
0
 10
132.307
 11
132.198
 20
18.471
 21
18.519
  0
LINE
  8
0
 10
132.198
 11
132.091
 20
18.519
 21
18.575
  0
LINE
  8
0
 10
132.091
 11
131.987
 20
18.575
 21
18.64
  0
LINE
  8
0
 10
131.987
 11
131.743
 20
18.64
 21
18.845
  0
LINE
  8
0
 10
131.743
 11
131.55
 20
18.845
 21
19.088
  0
LINE
  8
0
 10
131.55
 11
131.41
 20
19.088
 21
19.359
  0
LINE
  8
0
 10
131.41
 11
131.326
 20
19.359
 21
19.65
  0
LINE
  8
0
 10
131.326
 11
131.298
 20
19.65
 21
19.951
  0
LINE
  8
0
 10
137.5
 11
137.573
 20
130
 21
130.464
  0
LINE
  8
0
 10
137.573
 11
137.786
 20
130.464
 21
130.882
  0
LINE
  8
0
 10
137.786
 11
138.118
 20
130.882
 21
131.214
  0
LINE
  8
0
 10
138.118
 11
138.536
 20
131.214
 21
131.427
  0
LINE
  8
0
 10
138.536
 11
139
 20
131.427
 21
131.5
  0
LINE
  8
0
 10
139
 11
139.464
 20
131.5
 21
131.427
  0
LINE
  8
0
 10
139.464
 11
139.882
 20
131.427
 21
131.214
  0
LINE
  8
0
 10
139.882
 11
140.214
 20
131.214
 21
130.882
  0
LINE
  8
0
 10
140.214
 11
140.427
 20
130.882
 21
130.464
  0
LINE
  8
0
 10
140.427
 11
140.5
 20
130.464
 21
130
  0
LINE
  8
0
 10
140.5
 11
140.427
 20
130
 21
129.536
  0
LINE
  8
0
 10
140.427
 11
140.214
 20
129.536
 21
129.118
  0
LINE
  8
0
 10
140.214
 11
139.882
 20
129.118
 21
128.786
  0
LINE
  8
0
 10
139.882
 11
139.464
 20
128.786
 21
128.573
  0
LINE
  8
0
 10
139.464
 11
139
 20
128.573
 21
128.5
  0
LINE
  8
0
 10
139
 11
138.536
 20
128.5
 21
128.573
  0
LINE
  8
0
 10
138.536
 11
138.118
 20
128.573
 21
128.786
  0
LINE
  8
0
 10
138.118
 11
137.786
 20
128.786
 21
129.118
  0
LINE
  8
0
 10
137.786
 11
137.573
 20
129.118
 21
129.536
  0
LINE
  8
0
 10
137.573
 11
137.5
 20
129.536
 21
130
  0
LINE
  8
0
 10
137.5
 11
137.573
 20
170
 21
170.464
  0
LINE
  8
0
 10
137.573
 11
137.786
 20
170.464
 21
170.882
  0
LINE
  8
0
 10
137.786
 11
138.118
 20
170.882
 21
171.214
  0
LINE
  8
0
 10
138.118
 11
138.536
 20
171.214
 21
171.427
  0
LINE
  8
0
 10
138.536
 11
139
 20
171.427
 21
171.5
  0
LINE
  8
0
 10
139
 11
139.464
 20
171.5
 21
171.427
  0
LINE
  8
0
 10
139.464
 11
139.882
 20
171.427
 21
171.214
  0
LINE
  8
0
 10
139.882
 11
140.214
 20
171.214
 21
170.882
  0
LINE
  8
0
 10
140.214
 11
140.427
 20
170.882
 21
170.464
  0
LINE
  8
0
 10
140.427
 11
140.5
 20
170.464
 21
170
  0
LINE
  8
0
 10
140.5
 11
140.427
 20
170
 21
169.536
  0
LINE
  8
0
 10
140.427
 11
140.214
 20
169.536
 21
169.118
  0
LINE
  8
0
 10
140.214
 11
139.882
 20
169.118
 21
168.786
  0
LINE
  8
0
 10
139.882
 11
139.464
 20
168.786
 21
168.573
  0
LINE
  8
0
 10
139.464
 11
139
 20
168.573
 21
168.5
  0
LINE
  8
0
 10
139
 11
138.536
 20
168.5
 21
168.573
  0
LINE
  8
0
 10
138.536
 11
138.118
 20
168.573
 21
168.786
  0
LINE
  8
0
 10
138.118
 11
137.786
 20
168.786
 21
169.118
  0
LINE
  8
0
 10
137.786
 11
137.573
 20
169.118
 21
169.536
  0
LINE
  8
0
 10
137.573
 11
137.5
 20
169.536
 21
170
  0
LINE
  8
0
 10
146.446
 11
146.65
 20
27.939
 21
29.961
  0
LINE
  8
0
 10
146.65
 11
147.236
 20
29.961
 21
31.845
  0
LINE
  8
0
 10
147.236
 11
148.163
 20
31.845
 21
33.551
  0
LINE
  8
0
 10
148.163
 11
149.391
 20
33.551
 21
35.038
  0
LINE
  8
0
 10
149.391
 11
150.878
 20
35.038
 21
36.265
  0
LINE
  8
0
 10
150.878
 11
152.584
 20
36.265
 21
37.192
  0
LINE
  8
0
 10
152.584
 11
154.468
 20
37.192
 21
37.779
  0
LINE
  8
0
 10
154.468
 11
156.49
 20
37.779
 21
37.983
  0
LINE
  8
0
 10
156.49
 11
158.512
 20
37.983
 21
37.779
  0
LINE
  8
0
 10
158.512
 11
160.396
 20
37.779
 21
37.192
  0
LINE
  8
0
 10
160.396
 11
162.101
 20
37.192
 21
36.265
  0
LINE
  8
0
 10
162.101
 11
163.589
 20
36.265
 21
35.038
  0
LINE
  8
0
 10
163.589
 11
164.816
 20
35.038
 21
33.551
  0
LINE
  8
0
 10
164.816
 11
165.743
 20
33.551
 21
31.845
  0
LINE
  8
0
 10
165.743
 11
166.329
 20
31.845
 21
29.961
  0
LINE
  8
0
 10
166.329
 11
166.534
 20
29.961
 21
27.939
  0
LINE
  8
0
 10
166.534
 11
166.441
 20
27.939
 21
26.576
  0
LINE
  8
0
 10
166.441
 11
166.169
 20
26.576
 21
25.256
  0
LINE
  8
0
 10
166.169
 11
165.728
 20
25.256
 21
23.996
  0
LINE
  8
0
 10
165.728
 11
165.126
 20
23.996
 21
22.809
  0
LINE
  8
0
 10
165.126
 11
164.372
 20
22.809
 21
21.713
  0
LINE
  8
0
 10
164.372
 11
163.476
 20
21.713
 21
20.721
  0
LINE
  8
0
 10
163.476
 11
162.446
 20
20.721
 21
19.851
  0
LINE
  8
0
 10
162.446
 11
161.293
 20
19.851
 21
19.116
  0
LINE
  8
0
 10
161.293
 11
160.999
 20
19.116
 21
18.992
  0
LINE
  8
0
 10
160.999
 11
160.694
 20
18.992
 21
18.931
  0
LINE
  8
0
 10
160.694
 11
160.389
 20
18.931
 21
18.931
  0
LINE
  8
0
 10
160.389
 11
160.092
 20
18.931
 21
18.989
  0
LINE
  8
0
 10
160.092
 11
159.811
 20
18.989
 21
19.101
  0
LINE
  8
0
 10
159.811
 11
159.555
 20
19.101
 21
19.267
  0
LINE
  8
0
 10
159.555
 11
159.333
 20
19.267
 21
19.483
  0
LINE
  8
0
 10
159.333
 11
159.152
 20
19.483
 21
19.747
  0
LINE
  8
0
 10
159.152
 11
159.028
 20
19.747
 21
20.041
  0
LINE
  8
0
 10
159.028
 11
158.967
 20
20.041
 21
20.345
  0
LINE
  8
0
 10
158.967
 11
158.967
 20
20.345
 21
20.65
  0
LINE
  8
0
 10
158.967
 11
159.024
 20
20.65
 21
20.947
  0
LINE
  8
0
 10
159.024
 11
159.137
 20
20.947
 21
21.228
  0
LINE
  8
0
 10
159.137
 11
159.303
 20
21.228
 21
21.485
  0
LINE
  8
0
 10
159.303
 11
159.519
 20
21.485
 21
21.707
  0
LINE
  8
0
 10
159.519
 11
159.783
 20
21.707
 21
21.888
  0
LINE
  8
0
 10
159.783
 11
160.574
 20
21.888
 21
22.391
  0
LINE
  8
0
 10
160.574
 11
161.28
 20
22.391
 21
22.989
  0
LINE
  8
0
 10
161.28
 11
161.895
 20
22.989
 21
23.669
  0
LINE
  8
0
 10
161.895
 11
162.412
 20
23.669
 21
24.421
  0
LINE
  8
0
 10
162.412
 11
162.826
 20
24.421
 21
25.235
  0
LINE
  8
0
 10
162.826
 11
163.129
 20
25.235
 21
26.1
  0
LINE
  8
0
 10
163.129
 11
163.315
 20
26.1
 21
27.005
  0
LINE
  8
0
 10
163.315
 11
163.379
 20
27.005
 21
27.94
  0
LINE
  8
0
 10
163.379
 11
163.238
 20
27.94
 21
29.326
  0
LINE
  8
0
 10
163.238
 11
162.836
 20
29.326
 21
30.618
  0
LINE
  8
0
 10
162.836
 11
162.201
 20
30.618
 21
31.788
  0
LINE
  8
0
 10
162.201
 11
161.359
 20
31.788
 21
32.808
  0
LINE
  8
0
 10
161.359
 11
160.339
 20
32.808
 21
33.65
  0
LINE
  8
0
 10
160.339
 11
159.169
 20
33.65
 21
34.286
  0
LINE
  8
0
 10
159.169
 11
157.877
 20
34.286
 21
34.688
  0
LINE
  8
0
 10
157.877
 11
156.491
 20
34.688
 21
34.828
  0
LINE
  8
0
 10
156.491
 11
155.104
 20
34.828
 21
34.688
  0
LINE
  8
0
 10
155.104
 11
153.812
 20
34.688
 21
34.286
  0
LINE
  8
0
 10
153.812
 11
152.642
 20
34.286
 21
33.65
  0
LINE
  8
0
 10
152.642
 11
151.622
 20
33.65
 21
32.808
  0
LINE
  8
0
 10
151.622
 11
150.78
 20
32.808
 21
31.788
  0
LINE
  8
0
 10
150.78
 11
150.144
 20
31.788
 21
30.618
  0
LINE
  8
0
 10
150.144
 11
149.742
 20
30.618
 21
29.326
  0
LINE
  8
0
 10
149.742
 11
149.602
 20
29.326
 21
27.94
  0
LINE
  8
0
 10
149.602
 11
149.666
 20
27.94
 21
27.005
  0
LINE
  8
0
 10
149.666
 11
149.852
 20
27.005
 21
26.099
  0
LINE
  8
0
 10
149.852
 11
150.155
 20
26.099
 21
25.235
  0
LINE
  8
0
 10
150.155
 11
150.568
 20
25.235
 21
24.421
  0
LINE
  8
0
 10
150.568
 11
151.086
 20
24.421
 21
23.669
  0
LINE
  8
0
 10
151.086
 11
151.701
 20
23.669
 21
22.988
  0
LINE
  8
0
 10
151.701
 11
152.407
 20
22.988
 21
22.391
  0
LINE
  8
0
 10
152.407
 11
153.198
 20
22.391
 21
21.887
  0
LINE
  8
0
 10
153.198
 11
153.462
 20
21.887
 21
21.707
  0
LINE
  8
0
 10
153.462
 11
153.678
 20
21.707
 21
21.484
  0
LINE
  8
0
 10
153.678
 11
153.844
 20
21.484
 21
21.228
  0
LINE
  8
0
 10
153.844
 11
153.957
 20
21.228
 21
20.947
  0
LINE
  8
0
 10
153.957
 11
154.014
 20
20.947
 21
20.65
  0
LINE
  8
0
 10
154.014
 11
154.014
 20
20.65
 21
20.345
  0
LINE
  8
0
 10
154.014
 11
153.953
 20
20.345
 21
20.041
  0
LINE
  8
0
 10
153.953
 11
153.828
 20
20.041
 21
19.747
  0
LINE
  8
0
 10
153.828
 11
153.709
 20
19.747
 21
19.561
  0
LINE
  8
0
 10
153.709
 11
153.569
 20
19.561
 21
19.397
  0
LINE
  8
0
 10
153.569
 11
153.411
 20
19.397
 21
19.256
  0
LINE
  8
0
 10
153.411
 11
153.237
 20
19.256
 21
19.139
  0
LINE
  8
0
 10
153.237
 11
153.05
 20
19.139
 21
19.046
  0
LINE
  8
0
 10
153.05
 11
152.853
 20
19.046
 21
18.979
  0
LINE
  8
0
 10
152.853
 11
152.649
 20
18.979
 21
18.938
  0
LINE
  8
0
 10
152.649
 11
152.441
 20
18.938
 21
18.924
  0
LINE
  8
0
 10
152.441
 11
152.345
 20
18.924
 21
18.927
  0
LINE
  8
0
 10
152.345
 11
152.249
 20
18.927
 21
18.936
  0
LINE
  8
0
 10
152.249
 11
152.153
 20
18.936
 21
18.95
  0
LINE
  8
0
 10
152.153
 11
152.058
 20
18.95
 21
18.971
  0
LINE
  8
0
 10
152.058
 11
151.964
 20
18.971
 21
18.998
  0
LINE
  8
0
 10
151.964
 11
151.87
 20
18.998
 21
19.031
  0
LINE
  8
0
 10
151.87
 11
151.778
 20
19.031
 21
19.07
  0
LINE
  8
0
 10
151.778
 11
151.687
 20
19.07
 21
19.116
  0
LINE
  8
0
 10
151.687
 11
150.534
 20
19.116
 21
19.85
  0
LINE
  8
0
 10
150.534
 11
149.504
 20
19.85
 21
20.721
  0
LINE
  8
0
 10
149.504
 11
148.608
 20
20.721
 21
21.712
  0
LINE
  8
0
 10
148.608
 11
147.854
 20
21.712
 21
22.809
  0
LINE
  8
0
 10
147.854
 11
147.252
 20
22.809
 21
23.995
  0
LINE
  8
0
 10
147.252
 11
146.81
 20
23.995
 21
25.256
  0
LINE
  8
0
 10
146.81
 11
146.538
 20
25.256
 21
26.576
  0
LINE
  8
0
 10
146.538
 11
146.446
 20
26.576
 21
27.939
  0
LINE
  8
0
 10
154.912
 11
154.912
 20
16.578
 21
22.469
  0
LINE
  8
0
 10
154.912
 11
154.944
 20
22.469
 21
22.787
  0
LINE
  8
0
 10
154.944
 11
155.036
 20
22.787
 21
23.083
  0
LINE
  8
0
 10
155.036
 11
155.181
 20
23.083
 21
23.351
  0
LINE
  8
0
 10
155.181
 11
155.374
 20
23.351
 21
23.585
  0
LINE
  8
0
 10
155.374
 11
155.608
 20
23.585
 21
23.778
  0
LINE
  8
0
 10
155.608
 11
155.876
 20
23.778
 21
23.923
  0
LINE
  8
0
 10
155.876
 11
156.172
 20
23.923
 21
24.015
  0
LINE
  8
0
 10
156.172
 11
156.49
 20
24.015
 21
24.047
  0
LINE
  8
0
 10
156.49
 11
156.808
 20
24.047
 21
24.015
  0
LINE
  8
0
 10
156.808
 11
157.104
 20
24.015
 21
23.923
  0
LINE
  8
0
 10
157.104
 11
157.372
 20
23.923
 21
23.778
  0
LINE
  8
0
 10
157.372
 11
157.605
 20
23.778
 21
23.585
  0
LINE
  8
0
 10
157.605
 11
157.798
 20
23.585
 21
23.351
  0
LINE
  8
0
 10
157.798
 11
157.944
 20
23.351
 21
23.083
  0
LINE
  8
0
 10
157.944
 11
158.036
 20
23.083
 21
22.787
  0
LINE
  8
0
 10
158.036
 11
158.068
 20
22.787
 21
22.469
  0
LINE
  8
0
 10
158.068
 11
158.068
 20
22.469
 21
16.578
  0
LINE
  8
0
 10
158.068
 11
158.036
 20
16.578
 21
16.26
  0
LINE
  8
0
 10
158.036
 11
157.944
 20
16.26
 21
15.964
  0
LINE
  8
0
 10
157.944
 11
157.798
 20
15.964
 21
15.696
  0
LINE
  8
0
 10
157.798
 11
157.605
 20
15.696
 21
15.462
  0
LINE
  8
0
 10
157.605
 11
157.372
 20
15.462
 21
15.269
  0
LINE
  8
0
 10
157.372
 11
157.104
 20
15.269
 21
15.124
  0
LINE
  8
0
 10
157.104
 11
156.808
 20
15.124
 21
15.032
  0
LINE
  8
0
 10
156.808
 11
156.49
 20
15.032
 21
15
  0
LINE
  8
0
 10
156.49
 11
156.172
 20
15
 21
15.032
  0
LINE
  8
0
 10
156.172
 11
155.876
 20
15.032
 21
15.124
  0
LINE
  8
0
 10
155.876
 11
155.608
 20
15.124
 21
15.269
  0
LINE
  8
0
 10
155.608
 11
155.374
 20
15.269
 21
15.462
  0
LINE
  8
0
 10
155.374
 11
155.181
 20
15.462
 21
15.696
  0
LINE
  8
0
 10
155.181
 11
155.036
 20
15.696
 21
15.964
  0
LINE
  8
0
 10
155.036
 11
154.944
 20
15.964
 21
16.26
  0
LINE
  8
0
 10
154.944
 11
154.912
 20
16.26
 21
16.578
  0
LINE
  8
0
 10
167.589
 11
167.589
 20
24.926
 21
35.922
  0
LINE
  8
0
 10
167.589
 11
167.621
 20
35.922
 21
36.241
  0
LINE
  8
0
 10
167.621
 11
167.713
 20
36.241
 21
36.538
  0
LINE
  8
0
 10
167.713
 11
167.858
 20
36.538
 21
36.806
  0
LINE
  8
0
 10
167.858
 11
168.05
 20
36.806
 21
37.04
  0
LINE
  8
0
 10
168.05
 11
168.283
 20
37.04
 21
37.232
  0
LINE
  8
0
 10
168.283
 11
168.551
 20
37.232
 21
37.376
  0
LINE
  8
0
 10
168.551
 11
168.848
 20
37.376
 21
37.468
  0
LINE
  8
0
 10
168.848
 11
169.167
 20
37.468
 21
37.5
  0
LINE
  8
0
 10
169.167
 11
169.487
 20
37.5
 21
37.468
  0
LINE
  8
0
 10
169.487
 11
169.784
 20
37.468
 21
37.376
  0
LINE
  8
0
 10
169.784
 11
170.052
 20
37.376
 21
37.232
  0
LINE
  8
0
 10
170.052
 11
170.285
 20
37.232
 21
37.04
  0
LINE
  8
0
 10
170.285
 11
170.477
 20
37.04
 21
36.806
  0
LINE
  8
0
 10
170.477
 11
170.622
 20
36.806
 21
36.538
  0
LINE
  8
0
 10
170.622
 11
170.714
 20
36.538
 21
36.241
  0
LINE
  8
0
 10
170.714
 11
170.746
 20
36.241
 21
35.922
  0
LINE
  8
0
 10
170.746
 11
170.746
 20
35.922
 21
24.926
  0
LINE
  8
0
 10
170.746
 11
170.824
 20
24.926
 21
24.141
  0
LINE
  8
0
 10
170.824
 11
171.049
 20
24.141
 21
23.411
  0
LINE
  8
0
 10
171.049
 11
171.406
 20
23.411
 21
22.751
  0
LINE
  8
0
 10
171.406
 11
171.879
 20
22.751
 21
22.177
  0
LINE
  8
0
 10
171.879
 11
172.453
 20
22.177
 21
21.704
  0
LINE
  8
0
 10
172.453
 11
173.113
 20
21.704
 21
21.347
  0
LINE
  8
0
 10
173.113
 11
173.843
 20
21.347
 21
21.122
  0
LINE
  8
0
 10
173.843
 11
174.628
 20
21.122
 21
21.044
  0
LINE
  8
0
 10
174.628
 11
175.406
 20
21.044
 21
21.122
  0
LINE
  8
0
 10
175.406
 11
176.132
 20
21.122
 21
21.347
  0
LINE
  8
0
 10
176.132
 11
176.792
 20
21.347
 21
21.704
  0
LINE
  8
0
 10
176.792
 11
177.367
 20
21.704
 21
22.177
  0
LINE
  8
0
 10
177.367
 11
177.843
 20
22.177
 21
22.751
  0
LINE
  8
0
 10
177.843
 11
178.203
 20
22.751
 21
23.411
  0
LINE
  8
0
 10
178.203
 11
178.431
 20
23.411
 21
24.141
  0
LINE
  8
0
 10
178.431
 11
178.51
 20
24.141
 21
24.926
  0
LINE
  8
0
 10
178.51
 11
178.51
 20
24.926
 21
35.922
  0
LINE
  8
0
 10
178.51
 11
178.542
 20
35.922
 21
36.241
  0
LINE
  8
0
 10
178.542
 11
178.633
 20
36.241
 21
36.538
  0
LINE
  8
0
 10
178.633
 11
178.778
 20
36.538
 21
36.806
  0
LINE
  8
0
 10
178.778
 11
178.97
 20
36.806
 21
37.04
  0
LINE
  8
0
 10
178.97
 11
179.204
 20
37.04
 21
37.232
  0
LINE
  8
0
 10
179.204
 11
179.472
 20
37.232
 21
37.376
  0
LINE
  8
0
 10
179.472
 11
179.769
 20
37.376
 21
37.468
  0
LINE
  8
0
 10
179.769
 11
180.088
 20
37.468
 21
37.5
  0
LINE
  8
0
 10
180.088
 11
180.408
 20
37.5
 21
37.468
  0
LINE
  8
0
 10
180.408
 11
180.704
 20
37.468
 21
37.376
  0
LINE
  8
0
 10
180.704
 11
180.973
 20
37.376
 21
37.232
  0
LINE
  8
0
 10
180.973
 11
181.206
 20
37.232
 21
37.04
  0
LINE
  8
0
 10
181.206
 11
181.398
 20
37.04
 21
36.806
  0
LINE
  8
0
 10
181.398
 11
181.543
 20
36.806
 21
36.538
  0
LINE
  8
0
 10
181.543
 11
181.634
 20
36.538
 21
36.241
  0
LINE
  8
0
 10
181.634
 11
181.666
 20
36.241
 21
35.922
  0
LINE
  8
0
 10
181.666
 11
181.666
 20
35.922
 21
24.926
  0
LINE
  8
0
 10
181.666
 11
181.523
 20
24.926
 21
23.509
  0
LINE
  8
0
 10
181.523
 11
181.112
 20
23.509
 21
22.188
  0
LINE
  8
0
 10
181.112
 11
180.463
 20
22.188
 21
20.993
  0
LINE
  8
0
 10
180.463
 11
179.603
 20
20.993
 21
19.951
  0
LINE
  8
0
 10
179.603
 11
178.561
 20
19.951
 21
19.091
  0
LINE
  8
0
 10
178.561
 11
177.365
 20
19.091
 21
18.441
  0
LINE
  8
0
 10
177.365
 11
176.045
 20
18.441
 21
18.031
  0
LINE
  8
0
 10
176.045
 11
174.628
 20
18.031
 21
17.887
  0
LINE
  8
0
 10
174.628
 11
173.211
 20
17.887
 21
18.031
  0
LINE
  8
0
 10
173.211
 11
171.89
 20
18.031
 21
18.441
  0
LINE
  8
0
 10
171.89
 11
170.695
 20
18.441
 21
19.091
  0
LINE
  8
0
 10
170.695
 11
169.653
 20
19.091
 21
19.951
  0
LINE
  8
0
 10
169.653
 11
168.793
 20
19.951
 21
20.993
  0
LINE
  8
0
 10
168.793
 11
168.143
 20
20.993
 21
22.188
  0
LINE
  8
0
 10
168.143
 11
167.733
 20
22.188
 21
23.509
  0
LINE
  8
0
 10
167.733
 11
167.589
 20
23.509
 21
24.926
  0
LINE
  8
0
 10
183.12
 11
183.12
 20
19.941
 21
35.897
  0
LINE
  8
0
 10
183.12
 11
183.151
 20
35.897
 21
36.216
  0
LINE
  8
0
 10
183.151
 11
183.243
 20
36.216
 21
36.513
  0
LINE
  8
0
 10
183.243
 11
183.388
 20
36.513
 21
36.781
  0
LINE
  8
0
 10
183.388
 11
183.58
 20
36.781
 21
37.014
  0
LINE
  8
0
 10
183.58
 11
183.813
 20
37.014
 21
37.207
  0
LINE
  8
0
 10
183.813
 11
184.081
 20
37.207
 21
37.351
  0
LINE
  8
0
 10
184.081
 11
184.378
 20
37.351
 21
37.443
  0
LINE
  8
0
 10
184.378
 11
184.698
 20
37.443
 21
37.475
  0
LINE
  8
0
 10
184.698
 11
185.01
 20
37.475
 21
37.443
  0
LINE
  8
0
 10
185.01
 11
185.303
 20
37.443
 21
37.351
  0
LINE
  8
0
 10
185.303
 11
185.571
 20
37.351
 21
37.207
  0
LINE
  8
0
 10
185.571
 11
185.806
 20
37.207
 21
37.014
  0
LINE
  8
0
 10
185.806
 11
186.001
 20
37.014
 21
36.781
  0
LINE
  8
0
 10
186.001
 11
186.148
 20
36.781
 21
36.513
  0
LINE
  8
0
 10
186.148
 11
186.242
 20
36.513
 21
36.216
  0
LINE
  8
0
 10
186.242
 11
186.275
 20
36.216
 21
35.897
  0
LINE
  8
0
 10
186.275
 11
186.275
 20
35.897
 21
19.941
  0
LINE
  8
0
 10
186.275
 11
186.242
 20
19.941
 21
19.622
  0
LINE
  8
0
 10
186.242
 11
186.148
 20
19.622
 21
19.325
  0
LINE
  8
0
 10
186.148
 11
186.001
 20
19.325
 21
19.057
  0
LINE
  8
0
 10
186.001
 11
185.806
 20
19.057
 21
18.824
  0
LINE
  8
0
 10
185.806
 11
185.571
 20
18.824
 21
18.632
  0
LINE
  8
0
 10
185.571
 11
185.303
 20
18.632
 21
18.487
  0
LINE
  8
0
 10
185.303
 11
185.01
 20
18.487
 21
18.395
  0
LINE
  8
0
 10
185.01
 11
184.698
 20
18.395
 21
18.363
  0
LINE
  8
0
 10
184.698
 11
184.378
 20
18.363
 21
18.395
  0
LINE
  8
0
 10
184.378
 11
184.081
 20
18.395
 21
18.487
  0
LINE
  8
0
 10
184.081
 11
183.813
 20
18.487
 21
18.632
  0
LINE
  8
0
 10
183.813
 11
183.58
 20
18.632
 21
18.824
  0
LINE
  8
0
 10
183.58
 11
183.388
 20
18.824
 21
19.057
  0
LINE
  8
0
 10
183.388
 11
183.243
 20
19.057
 21
19.325
  0
LINE
  8
0
 10
183.243
 11
183.151
 20
19.325
 21
19.622
  0
LINE
  8
0
 10
183.151
 11
183.12
 20
19.622
 21
19.941
  0
LINE
  8
0
 10
184.5
 11
184.573
 20
100
 21
100.464
  0
LINE
  8
0
 10
184.573
 11
184.786
 20
100.464
 21
100.882
  0
LINE
  8
0
 10
184.786
 11
185.118
 20
100.882
 21
101.214
  0
LINE
  8
0
 10
185.118
 11
185.536
 20
101.214
 21
101.427
  0
LINE
  8
0
 10
185.536
 11
186
 20
101.427
 21
101.5
  0
LINE
  8
0
 10
186
 11
186.464
 20
101.5
 21
101.427
  0
LINE
  8
0
 10
186.464
 11
186.882
 20
101.427
 21
101.214
  0
LINE
  8
0
 10
186.882
 11
187.214
 20
101.214
 21
100.882
  0
LINE
  8
0
 10
187.214
 11
187.427
 20
100.882
 21
100.464
  0
LINE
  8
0
 10
187.427
 11
187.5
 20
100.464
 21
100
  0
LINE
  8
0
 10
187.5
 11
187.427
 20
100
 21
99.536
  0
LINE
  8
0
 10
187.427
 11
187.214
 20
99.536
 21
99.118
  0
LINE
  8
0
 10
187.214
 11
186.882
 20
99.118
 21
98.786
  0
LINE
  8
0
 10
186.882
 11
186.464
 20
98.786
 21
98.573
  0
LINE
  8
0
 10
186.464
 11
186
 20
98.573
 21
98.5
  0
LINE
  8
0
 10
186
 11
185.536
 20
98.5
 21
98.573
  0
LINE
  8
0
 10
185.536
 11
185.118
 20
98.573
 21
98.786
  0
LINE
  8
0
 10
185.118
 11
184.786
 20
98.786
 21
99.118
  0
LINE
  8
0
 10
184.786
 11
184.573
 20
99.118
 21
99.536
  0
LINE
  8
0
 10
184.573
 11
184.5
 20
99.536
 21
100
  0
LINE
  8
0
 10
184.5
 11
184.573
 20
200
 21
200.464
  0
LINE
  8
0
 10
184.573
 11
184.786
 20
200.464
 21
200.882
  0
LINE
  8
0
 10
184.786
 11
185.118
 20
200.882
 21
201.214
  0
LINE
  8
0
 10
185.118
 11
185.536
 20
201.214
 21
201.427
  0
LINE
  8
0
 10
185.536
 11
186
 20
201.427
 21
201.5
  0
LINE
  8
0
 10
186
 11
186.464
 20
201.5
 21
201.427
  0
LINE
  8
0
 10
186.464
 11
186.882
 20
201.427
 21
201.214
  0
LINE
  8
0
 10
186.882
 11
187.214
 20
201.214
 21
200.882
  0
LINE
  8
0
 10
187.214
 11
187.427
 20
200.882
 21
200.464
  0
LINE
  8
0
 10
187.427
 11
187.5
 20
200.464
 21
200
  0
LINE
  8
0
 10
187.5
 11
187.427
 20
200
 21
199.536
  0
LINE
  8
0
 10
187.427
 11
187.214
 20
199.536
 21
199.118
  0
LINE
  8
0
 10
187.214
 11
186.882
 20
199.118
 21
198.786
  0
LINE
  8
0
 10
186.882
 11
186.464
 20
198.786
 21
198.573
  0
LINE
  8
0
 10
186.464
 11
186
 20
198.573
 21
198.5
  0
LINE
  8
0
 10
186
 11
185.536
 20
198.5
 21
198.573
  0
LINE
  8
0
 10
185.536
 11
185.118
 20
198.573
 21
198.786
  0
LINE
  8
0
 10
185.118
 11
184.786
 20
198.786
 21
199.118
  0
LINE
  8
0
 10
184.786
 11
184.573
 20
199.118
 21
199.536
  0
LINE
  8
0
 10
184.573
 11
184.5
 20
199.536
 21
200
  0
LINE
  8
0
 10
187.779
 11
187.779
 20
19.891
 21
35.871
  0
LINE
  8
0
 10
187.779
 11
187.8
 20
35.871
 21
36.13
  0
LINE
  8
0
 10
187.8
 11
187.864
 20
36.13
 21
36.378
  0
LINE
  8
0
 10
187.864
 11
187.965
 20
36.378
 21
36.61
  0
LINE
  8
0
 10
187.965
 11
188.101
 20
36.61
 21
36.823
  0
LINE
  8
0
 10
188.101
 11
188.269
 20
36.823
 21
37.013
  0
LINE
  8
0
 10
188.269
 11
188.466
 20
37.013
 21
37.174
  0
LINE
  8
0
 10
188.466
 11
188.687
 20
37.174
 21
37.305
  0
LINE
  8
0
 10
188.687
 11
188.931
 20
37.305
 21
37.399
  0
LINE
  8
0
 10
188.931
 11
189.186
 20
37.399
 21
37.443
  0
LINE
  8
0
 10
189.186
 11
189.442
 20
37.443
 21
37.444
  0
LINE
  8
0
 10
189.442
 11
189.692
 20
37.444
 21
37.405
  0
LINE
  8
0
 10
189.692
 11
189.933
 20
37.405
 21
37.327
  0
LINE
  8
0
 10
189.933
 11
190.16
 20
37.327
 21
37.213
  0
LINE
  8
0
 10
190.16
 11
190.368
 20
37.213
 21
37.064
  0
LINE
  8
0
 10
190.368
 11
190.553
 20
37.064
 21
36.883
  0
LINE
  8
0
 10
190.553
 11
190.71
 20
36.883
 21
36.672
  0
LINE
  8
0
 10
190.71
 11
191.499
 20
36.672
 21
35.307
  0
LINE
  8
0
 10
191.499
 11
192.288
 20
35.307
 21
33.942
  0
LINE
  8
0
 10
192.288
 11
193.077
 20
33.942
 21
32.577
  0
LINE
  8
0
 10
193.077
 11
193.866
 20
32.577
 21
31.212
  0
LINE
  8
0
 10
193.866
 11
194.655
 20
31.212
 21
29.847
  0
LINE
  8
0
 10
194.655
 11
195.444
 20
29.847
 21
28.482
  0
LINE
  8
0
 10
195.444
 11
197.022
 20
28.482
 21
25.752
  0
LINE
  8
0
 10
197.022
 11
197.022
 20
25.752
 21
35.871
  0
LINE
  8
0
 10
197.022
 11
197.054
 20
35.871
 21
36.19
  0
LINE
  8
0
 10
197.054
 11
197.145
 20
36.19
 21
36.487
  0
LINE
  8
0
 10
197.145
 11
197.29
 20
36.487
 21
36.755
  0
LINE
  8
0
 10
197.29
 11
197.482
 20
36.755
 21
36.989
  0
LINE
  8
0
 10
197.482
 11
197.715
 20
36.989
 21
37.181
  0
LINE
  8
0
 10
197.715
 11
197.983
 20
37.181
 21
37.326
  0
LINE
  8
0
 10
197.983
 11
198.28
 20
37.326
 21
37.417
  0
LINE
  8
0
 10
198.28
 11
198.6
 20
37.417
 21
37.449
  0
LINE
  8
0
 10
198.6
 11
198.911
 20
37.449
 21
37.417
  0
LINE
  8
0
 10
198.911
 11
199.202
 20
37.417
 21
37.326
  0
LINE
  8
0
 10
199.202
 11
199.465
 20
37.326
 21
37.181
  0
LINE
  8
0
 10
199.465
 11
199.696
 20
37.181
 21
36.989
  0
LINE
  8
0
 10
199.696
 11
199.886
 20
36.989
 21
36.755
  0
LINE
  8
0
 10
199.886
 11
200.03
 20
36.755
 21
36.487
  0
LINE
  8
0
 10
200.03
 11
200.121
 20
36.487
 21
36.19
  0
LINE
  8
0
 10
200.121
 11
200.153
 20
36.19
 21
35.871
  0
LINE
  8
0
 10
200.153
 11
200.153
 20
35.871
 21
19.891
  0
LINE
  8
0
 10
200.153
 11
200.131
 20
19.891
 21
19.632
  0
LINE
  8
0
 10
200.131
 11
200.068
 20
19.632
 21
19.385
  0
LINE
  8
0
 10
200.068
 11
199.966
 20
19.385
 21
19.153
  0
LINE
  8
0
 10
199.966
 11
199.83
 20
19.153
 21
18.942
  0
LINE
  8
0
 10
199.83
 11
199.662
 20
18.942
 21
18.756
  0
LINE
  8
0
 10
199.662
 11
199.465
 20
18.756
 21
18.598
  0
LINE
  8
0
 10
199.465
 11
199.243
 20
18.598
 21
18.474
  0
LINE
  8
0
 10
199.243
 11
199
 20
18.474
 21
18.389
  0
LINE
  8
0
 10
199
 11
198.944
 20
18.389
 21
18.372
  0
LINE
  8
0
 10
198.944
 11
198.891
 20
18.372
 21
18.359
  0
LINE
  8
0
 10
198.891
 11
198.84
 20
18.359
 21
18.35
  0
LINE
  8
0
 10
198.84
 11
198.79
 20
18.35
 21
18.345
  0
LINE
  8
0
 10
198.79
 11
198.741
 20
18.345
 21
18.341
  0
LINE
  8
0
 10
198.741
 11
198.694
 20
18.341
 21
18.338
  0
LINE
  8
0
 10
198.694
 11
198.599
 20
18.338
 21
18.338
  0
LINE
  8
0
 10
198.599
 11
198.394
 20
18.338
 21
18.351
  0
LINE
  8
0
 10
198.394
 11
198.194
 20
18.351
 21
18.389
  0
LINE
  8
0
 10
198.194
 11
198
 20
18.389
 21
18.451
  0
LINE
  8
0
 10
198
 11
197.816
 20
18.451
 21
18.538
  0
LINE
  8
0
 10
197.816
 11
197.644
 20
18.538
 21
18.648
  0
LINE
  8
0
 10
197.644
 11
197.486
 20
18.648
 21
18.782
  0
LINE
  8
0
 10
197.486
 11
197.345
 20
18.782
 21
18.937
  0
LINE
  8
0
 10
197.345
 11
197.222
 20
18.937
 21
19.114
  0
LINE
  8
0
 10
197.222
 11
195.644
 20
19.114
 21
21.838
  0
LINE
  8
0
 10
195.644
 11
194.855
 20
21.838
 21
23.2
  0
LINE
  8
0
 10
194.855
 11
193.277
 20
23.2
 21
25.924
  0
LINE
  8
0
 10
193.277
 11
192.488
 20
25.924
 21
27.286
  0
LINE
  8
0
 10
192.488
 11
191.699
 20
27.286
 21
28.648
  0
LINE
  8
0
 10
191.699
 11
190.91
 20
28.648
 21
30.01
  0
LINE
  8
0
 10
190.91
 11
190.91
 20
30.01
 21
19.891
  0
LINE
  8
0
 10
190.91
 11
190.878
 20
19.891
 21
19.58
  0
LINE
  8
0
 10
190.878
 11
190.786
 20
19.58
 21
19.289
  0
LINE
  8
0
 10
190.786
 11
190.641
 20
19.289
 21
19.025
  0
LINE
  8
0
 10
190.641
 11
190.449
 20
19.025
 21
18.795
  0
LINE
  8
0
 10
190.449
 11
190.216
 20
18.795
 21
18.605
  0
LINE
  8
0
 10
190.216
 11
189.948
 20
18.605
 21
18.461
  0
LINE
  8
0
 10
189.948
 11
189.651
 20
18.461
 21
18.37
  0
LINE
  8
0
 10
189.651
 11
189.332
 20
18.37
 21
18.338
  0
LINE
  8
0
 10
189.332
 11
189.02
 20
18.338
 21
18.37
  0
LINE
  8
0
 10
189.02
 11
188.729
 20
18.37
 21
18.461
  0
LINE
  8
0
 10
188.729
 11
188.466
 20
18.461
 21
18.605
  0
LINE
  8
0
 10
188.466
 11
188.236
 20
18.605
 21
18.795
  0
LINE
  8
0
 10
188.236
 11
188.045
 20
18.795
 21
19.025
  0
LINE
  8
0
 10
188.045
 11
187.901
 20
19.025
 21
19.289
  0
LINE
  8
0
 10
187.901
 11
187.81
 20
19.289
 21
19.58
  0
LINE
  8
0
 10
187.81
 11
187.779
 20
19.58
 21
19.891
  0
LINE
  8
0
 10
200.913
 11
200.943
 20
19.953
 21
20.253
  0
LINE
  8
0
 10
200.943
 11
201.031
 20
20.253
 21
20.544
  0
LINE
  8
0
 10
201.031
 11
201.179
 20
20.544
 21
20.819
  0
LINE
  8
0
 10
201.179
 11
202.538
 20
20.819
 21
22.816
  0
LINE
  8
0
 10
202.538
 11
203.897
 20
22.816
 21
24.814
  0
LINE
  8
0
 10
203.897
 11
205.256
 20
24.814
 21
26.811
  0
LINE
  8
0
 10
205.256
 11
206.614
 20
26.811
 21
28.808
  0
LINE
  8
0
 10
206.614
 11
207.973
 20
28.808
 21
30.806
  0
LINE
  8
0
 10
207.973
 11
209.332
 20
30.806
 21
32.803
  0
LINE
  8
0
 10
209.332
 11
210.691
 20
32.803
 21
34.801
  0
LINE
  8
0
 10
210.691
 11
212.05
 20
34.801
 21
36.798
  0
LINE
  8
0
 10
212.05
 11
212.206
 20
36.798
 21
36.999
  0
LINE
  8
0
 10
212.206
 11
212.39
 20
36.999
 21
37.167
  0
LINE
  8
0
 10
212.39
 11
212.598
 20
37.167
 21
37.302
  0
LINE
  8
0
 10
212.598
 11
212.823
 20
37.302
 21
37.403
  0
LINE
  8
0
 10
212.823
 11
213.061
 20
37.403
 21
37.466
  0
LINE
  8
0
 10
213.061
 11
213.307
 20
37.466
 21
37.492
  0
LINE
  8
0
 10
213.307
 11
213.556
 20
37.492
 21
37.479
  0
LINE
  8
0
 10
213.556
 11
213.803
 20
37.479
 21
37.425
  0
LINE
  8
0
 10
213.803
 11
214.037
 20
37.425
 21
37.33
  0
LINE
  8
0
 10
214.037
 11
214.25
 20
37.33
 21
37.2
  0
LINE
  8
0
 10
214.25
 11
214.438
 20
37.2
 21
37.039
  0
LINE
  8
0
 10
214.438
 11
214.598
 20
37.039
 21
36.851
  0
LINE
  8
0
 10
214.598
 11
214.728
 20
36.851
 21
36.642
  0
LINE
  8
0
 10
214.728
 11
214.825
 20
36.642
 21
36.414
  0
LINE
  8
0
 10
214.825
 11
214.884
 20
36.414
 21
36.172
  0
LINE
  8
0
 10
214.884
 11
214.905
 20
36.172
 21
35.922
  0
LINE
  8
0
 10
214.905
 11
214.905
 20
35.922
 21
19.942
  0
LINE
  8
0
 10
214.905
 11
214.873
 20
19.942
 21
19.622
  0
LINE
  8
0
 10
214.873
 11
214.782
 20
19.622
 21
19.325
  0
LINE
  8
0
 10
214.782
 11
214.638
 20
19.325
 21
19.057
  0
LINE
  8
0
 10
214.638
 11
214.448
 20
19.057
 21
18.824
  0
LINE
  8
0
 10
214.448
 11
214.218
 20
18.824
 21
18.632
  0
LINE
  8
0
 10
214.218
 11
213.954
 20
18.632
 21
18.487
  0
LINE
  8
0
 10
213.954
 11
213.663
 20
18.487
 21
18.395
  0
LINE
  8
0
 10
213.663
 11
213.352
 20
18.395
 21
18.363
  0
LINE
  8
0
 10
213.352
 11
213.033
 20
18.363
 21
18.395
  0
LINE
  8
0
 10
213.033
 11
212.736
 20
18.395
 21
18.487
  0
LINE
  8
0
 10
212.736
 11
212.468
 20
18.487
 21
18.632
  0
LINE
  8
0
 10
212.468
 11
212.234
 20
18.632
 21
18.824
  0
LINE
  8
0
 10
212.234
 11
212.042
 20
18.824
 21
19.057
  0
LINE
  8
0
 10
212.042
 11
211.897
 20
19.057
 21
19.325
  0
LINE
  8
0
 10
211.897
 11
211.806
 20
19.325
 21
19.622
  0
LINE
  8
0
 10
211.806
 11
211.774
 20
19.622
 21
19.942
  0
LINE
  8
0
 10
211.774
 11
211.774
 20
19.942
 21
30.813
  0
LINE
  8
0
 10
211.774
 11
210.775
 20
30.813
 21
29.344
  0
LINE
  8
0
 10
210.775
 11
209.777
 20
29.344
 21
27.876
  0
LINE
  8
0
 10
209.777
 11
208.778
 20
27.876
 21
26.407
  0
LINE
  8
0
 10
208.778
 11
207.779
 20
26.407
 21
24.939
  0
LINE
  8
0
 10
207.779
 11
206.78
 20
24.939
 21
23.47
  0
LINE
  8
0
 10
206.78
 11
205.781
 20
23.47
 21
22.002
  0
LINE
  8
0
 10
205.781
 11
204.783
 20
22.002
 21
20.534
  0
LINE
  8
0
 10
204.783
 11
203.784
 20
20.534
 21
19.065
  0
LINE
  8
0
 10
203.784
 11
203.583
 20
19.065
 21
18.819
  0
LINE
  8
0
 10
203.583
 11
203.345
 20
18.819
 21
18.625
  0
LINE
  8
0
 10
203.345
 11
203.077
 20
18.625
 21
18.486
  0
LINE
  8
0
 10
203.077
 11
202.788
 20
18.486
 21
18.402
  0
LINE
  8
0
 10
202.788
 11
202.488
 20
18.402
 21
18.374
  0
LINE
  8
0
 10
202.488
 11
202.185
 20
18.374
 21
18.403
  0
LINE
  8
0
 10
202.185
 11
201.887
 20
18.403
 21
18.491
  0
LINE
  8
0
 10
201.887
 11
201.605
 20
18.491
 21
18.64
  0
LINE
  8
0
 10
201.605
 11
201.358
 20
18.64
 21
18.848
  0
LINE
  8
0
 10
201.358
 11
201.165
 20
18.848
 21
19.093
  0
LINE
  8
0
 10
201.165
 11
201.026
 20
19.093
 21
19.364
  0
LINE
  8
0
 10
201.026
 11
200.941
 20
19.364
 21
19.654
  0
LINE
  8
0
 10
200.941
 11
200.913
 20
19.654
 21
19.953
  0
LINE
  8
0
 10
212.5
 11
212.573
 20
100
 21
100.464
  0
LINE
  8
0
 10
212.573
 11
212.786
 20
100.464
 21
100.882
  0
LINE
  8
0
 10
212.786
 11
213.118
 20
100.882
 21
101.214
  0
LINE
  8
0
 10
213.118
 11
213.536
 20
101.214
 21
101.427
  0
LINE
  8
0
 10
213.536
 11
214
 20
101.427
 21
101.5
  0
LINE
  8
0
 10
214
 11
214.464
 20
101.5
 21
101.427
  0
LINE
  8
0
 10
214.464
 11
214.882
 20
101.427
 21
101.214
  0
LINE
  8
0
 10
214.882
 11
215.214
 20
101.214
 21
100.882
  0
LINE
  8
0
 10
215.214
 11
215.427
 20
100.882
 21
100.464
  0
LINE
  8
0
 10
215.427
 11
215.5
 20
100.464
 21
100
  0
LINE
  8
0
 10
215.5
 11
215.427
 20
100
 21
99.536
  0
LINE
  8
0
 10
215.427
 11
215.214
 20
99.536
 21
99.118
  0
LINE
  8
0
 10
215.214
 11
214.882
 20
99.118
 21
98.786
  0
LINE
  8
0
 10
214.882
 11
214.464
 20
98.786
 21
98.573
  0
LINE
  8
0
 10
214.464
 11
214
 20
98.573
 21
98.5
  0
LINE
  8
0
 10
214
 11
213.536
 20
98.5
 21
98.573
  0
LINE
  8
0
 10
213.536
 11
213.118
 20
98.573
 21
98.786
  0
LINE
  8
0
 10
213.118
 11
212.786
 20
98.786
 21
99.118
  0
LINE
  8
0
 10
212.786
 11
212.573
 20
99.118
 21
99.536
  0
LINE
  8
0
 10
212.573
 11
212.5
 20
99.536
 21
100
  0
LINE
  8
0
 10
212.5
 11
212.573
 20
200
 21
200.464
  0
LINE
  8
0
 10
212.573
 11
212.786
 20
200.464
 21
200.882
  0
LINE
  8
0
 10
212.786
 11
213.118
 20
200.882
 21
201.214
  0
LINE
  8
0
 10
213.118
 11
213.536
 20
201.214
 21
201.427
  0
LINE
  8
0
 10
213.536
 11
214
 20
201.427
 21
201.5
  0
LINE
  8
0
 10
214
 11
214.464
 20
201.5
 21
201.427
  0
LINE
  8
0
 10
214.464
 11
214.882
 20
201.427
 21
201.214
  0
LINE
  8
0
 10
214.882
 11
215.214
 20
201.214
 21
200.882
  0
LINE
  8
0
 10
215.214
 11
215.427
 20
200.882
 21
200.464
  0
LINE
  8
0
 10
215.427
 11
215.5
 20
200.464
 21
200
  0
LINE
  8
0
 10
215.5
 11
215.427
 20
200
 21
199.536
  0
LINE
  8
0
 10
215.427
 11
215.214
 20
199.536
 21
199.118
  0
LINE
  8
0
 10
215.214
 11
214.882
 20
199.118
 21
198.786
  0
LINE
  8
0
 10
214.882
 11
214.464
 20
198.786
 21
198.573
  0
LINE
  8
0
 10
214.464
 11
214
 20
198.573
 21
198.5
  0
LINE
  8
0
 10
214
 11
213.536
 20
198.5
 21
198.573
  0
LINE
  8
0
 10
213.536
 11
213.118
 20
198.573
 21
198.786
  0
LINE
  8
0
 10
213.118
 11
212.786
 20
198.786
 21
199.118
  0
LINE
  8
0
 10
212.786
 11
212.573
 20
199.118
 21
199.536
  0
LINE
  8
0
 10
212.573
 11
212.5
 20
199.536
 21
200
  0
LINE
  8
0
 10
233.5
 11
233.573
 20
45
 21
45.464
  0
LINE
  8
0
 10
233.573
 11
233.786
 20
45.464
 21
45.882
  0
LINE
  8
0
 10
233.786
 11
234.118
 20
45.882
 21
46.214
  0
LINE
  8
0
 10
234.118
 11
234.536
 20
46.214
 21
46.427
  0
LINE
  8
0
 10
234.536
 11
235
 20
46.427
 21
46.5
  0
LINE
  8
0
 10
235
 11
235.464
 20
46.5
 21
46.427
  0
LINE
  8
0
 10
235.464
 11
235.882
 20
46.427
 21
46.214
  0
LINE
  8
0
 10
235.882
 11
236.214
 20
46.214
 21
45.882
  0
LINE
  8
0
 10
236.214
 11
236.427
 20
45.882
 21
45.464
  0
LINE
  8
0
 10
236.427
 11
236.5
 20
45.464
 21
45
  0
LINE
  8
0
 10
236.5
 11
236.427
 20
45
 21
44.536
  0
LINE
  8
0
 10
236.427
 11
236.214
 20
44.536
 21
44.118
  0
LINE
  8
0
 10
236.214
 11
235.882
 20
44.118
 21
43.786
  0
LINE
  8
0
 10
235.882
 11
235.464
 20
43.786
 21
43.573
  0
LINE
  8
0
 10
235.464
 11
235
 20
43.573
 21
43.5
  0
LINE
  8
0
 10
235
 11
234.536
 20
43.5
 21
43.573
  0
LINE
  8
0
 10
234.536
 11
234.118
 20
43.573
 21
43.786
  0
LINE
  8
0
 10
234.118
 11
233.786
 20
43.786
 21
44.118
  0
LINE
  8
0
 10
233.786
 11
233.573
 20
44.118
 21
44.536
  0
LINE
  8
0
 10
233.573
 11
233.5
 20
44.536
 21
45
  0
LINE
  8
0
 10
233.5
 11
233.573
 20
255
 21
255.464
  0
LINE
  8
0
 10
233.573
 11
233.786
 20
255.464
 21
255.882
  0
LINE
  8
0
 10
233.786
 11
234.118
 20
255.882
 21
256.214
  0
LINE
  8
0
 10
234.118
 11
234.536
 20
256.214
 21
256.427
  0
LINE
  8
0
 10
234.536
 11
235
 20
256.427
 21
256.5
  0
LINE
  8
0
 10
235
 11
235.464
 20
256.5
 21
256.427
  0
LINE
  8
0
 10
235.464
 11
235.882
 20
256.427
 21
256.214
  0
LINE
  8
0
 10
235.882
 11
236.214
 20
256.214
 21
255.882
  0
LINE
  8
0
 10
236.214
 11
236.427
 20
255.882
 21
255.464
  0
LINE
  8
0
 10
236.427
 11
236.5
 20
255.464
 21
255
  0
LINE
  8
0
 10
236.5
 11
236.427
 20
255
 21
254.536
  0
LINE
  8
0
 10
236.427
 11
236.214
 20
254.536
 21
254.118
  0
LINE
  8
0
 10
236.214
 11
235.882
 20
254.118
 21
253.786
  0
LINE
  8
0
 10
235.882
 11
235.464
 20
253.786
 21
253.573
  0
LINE
  8
0
 10
235.464
 11
235
 20
253.573
 21
253.5
  0
LINE
  8
0
 10
235
 11
234.536
 20
253.5
 21
253.573
  0
LINE
  8
0
 10
234.536
 11
234.118
 20
253.573
 21
253.786
  0
LINE
  8
0
 10
234.118
 11
233.786
 20
253.786
 21
254.118
  0
LINE
  8
0
 10
233.786
 11
233.573
 20
254.118
 21
254.536
  0
LINE
  8
0
 10
233.573
 11
233.5
 20
254.536
 21
255
  0
LINE
  8
0
 10
249
 11
249
 20
112
 21
178
  0
LINE
  8
0
 10
249
 11
249.219
 20
178
 21
180.079
  0
LINE
  8
0
 10
249.219
 11
249.865
 20
180.079
 21
182.067
  0
LINE
  8
0
 10
249.865
 11
250.91
 20
182.067
 21
183.878
  0
LINE
  8
0
 10
250.91
 11
252.309
 20
183.878
 21
185.431
  0
LINE
  8
0
 10
252.309
 11
254
 20
185.431
 21
186.66
  0
LINE
  8
0
 10
254
 11
255.91
 20
186.66
 21
187.511
  0
LINE
  8
0
 10
255.91
 11
257.955
 20
187.511
 21
187.945
  0
LINE
  8
0
 10
257.955
 11
259
 20
187.945
 21
187.945
  0
LINE
  8
0
 10
259
 11
259
 20
187.945
 21
188
  0
LINE
  8
0
 10
259
 11
321
 20
188
 21
188
  0
LINE
  8
0
 10
321
 11
321
 20
188
 21
187.945
  0
LINE
  8
0
 10
321
 11
322.045
 20
187.945
 21
187.945
  0
LINE
  8
0
 10
322.045
 11
324.09
 20
187.945
 21
187.511
  0
LINE
  8
0
 10
324.09
 11
326
 20
187.511
 21
186.66
  0
LINE
  8
0
 10
326
 11
327.691
 20
186.66
 21
185.431
  0
LINE
  8
0
 10
327.691
 11
329.09
 20
185.431
 21
183.878
  0
LINE
  8
0
 10
329.09
 11
330.135
 20
183.878
 21
182.067
  0
LINE
  8
0
 10
330.135
 11
330.781
 20
182.067
 21
180.079
  0
LINE
  8
0
 10
330.781
 11
331
 20
180.079
 21
178
  0
LINE
  8
0
 10
331
 11
331
 20
178
 21
112
  0
LINE
  8
0
 10
331
 11
330.781
 20
112
 21
109.921
  0
LINE
  8
0
 10
330.781
 11
330.135
 20
109.921
 21
107.933
  0
LINE
  8
0
 10
330.135
 11
329.09
 20
107.933
 21
106.122
  0
LINE
  8
0
 10
329.09
 11
327.691
 20
106.122
 21
104.569
  0
LINE
  8
0
 10
327.691
 11
326
 20
104.569
 21
103.34
  0
LINE
  8
0
 10
326
 11
324.09
 20
103.34
 21
102.489
  0
LINE
  8
0
 10
324.09
 11
322.045
 20
102.489
 21
102.055
  0
LINE
  8
0
 10
322.045
 11
321
 20
102.055
 21
102.055
  0
LINE
  8
0
 10
321
 11
321
 20
102.055
 21
102
  0
LINE
  8
0
 10
321
 11
259
 20
102
 21
102
  0
LINE
  8
0
 10
259
 11
259
 20
102
 21
102.055
  0
LINE
  8
0
 10
259
 11
257.955
 20
102.055
 21
102.055
  0
LINE
  8
0
 10
257.955
 11
255.91
 20
102.055
 21
102.489
  0
LINE
  8
0
 10
255.91
 11
254
 20
102.489
 21
103.34
  0
LINE
  8
0
 10
254
 11
252.309
 20
103.34
 21
104.569
  0
LINE
  8
0
 10
252.309
 11
250.91
 20
104.569
 21
106.122
  0
LINE
  8
0
 10
250.91
 11
249.865
 20
106.122
 21
107.933
  0
LINE
  8
0
 10
249.865
 11
249.219
 20
107.933
 21
109.921
  0
LINE
  8
0
 10
249.219
 11
249
 20
109.921
 21
112
  0
LINE
  8
0
 10
250
 11
250
 20
30
 21
75
  0
LINE
  8
0
 10
250
 11
250.027
 20
75
 21
76.047
  0
LINE
  8
0
 10
250.027
 11
250.11
 20
76.047
 21
77.091
  0
LINE
  8
0
 10
250.11
 11
250.246
 20
77.091
 21
78.129
  0
LINE
  8
0
 10
250.246
 11
250.437
 20
78.129
 21
79.158
  0
LINE
  8
0
 10
250.437
 11
250.681
 20
79.158
 21
80.176
  0
LINE
  8
0
 10
250.681
 11
250.979
 20
80.176
 21
81.18
  0
LINE
  8
0
 10
250.979
 11
251.328
 20
81.18
 21
82.167
  0
LINE
  8
0
 10
251.328
 11
251.729
 20
82.167
 21
83.135
  0
LINE
  8
0
 10
251.729
 11
252.18
 20
83.135
 21
84.08
  0
LINE
  8
0
 10
252.18
 11
252.679
 20
84.08
 21
85
  0
LINE
  8
0
 10
252.679
 11
253.227
 20
85
 21
85.893
  0
LINE
  8
0
 10
253.227
 11
253.82
 20
85.893
 21
86.756
  0
LINE
  8
0
 10
253.82
 11
254.457
 20
86.756
 21
87.586
  0
LINE
  8
0
 10
254.457
 11
255.137
 20
87.586
 21
88.383
  0
LINE
  8
0
 10
255.137
 11
255.858
 20
88.383
 21
89.142
  0
LINE
  8
0
 10
255.858
 11
256.617
 20
89.142
 21
89.863
  0
LINE
  8
0
 10
256.617
 11
257.414
 20
89.863
 21
90.543
  0
LINE
  8
0
 10
257.414
 11
258.244
 20
90.543
 21
91.18
  0
LINE
  8
0
 10
258.244
 11
259.107
 20
91.18
 21
91.773
  0
LINE
  8
0
 10
259.107
 11
260
 20
91.773
 21
92.321
  0
LINE
  8
0
 10
260
 11
260.92
 20
92.321
 21
92.82
  0
LINE
  8
0
 10
260.92
 11
261.865
 20
92.82
 21
93.271
  0
LINE
  8
0
 10
261.865
 11
262.833
 20
93.271
 21
93.672
  0
LINE
  8
0
 10
262.833
 11
263.82
 20
93.672
 21
94.021
  0
LINE
  8
0
 10
263.82
 11
264.824
 20
94.021
 21
94.319
  0
LINE
  8
0
 10
264.824
 11
265.842
 20
94.319
 21
94.563
  0
LINE
  8
0
 10
265.842
 11
266.871
 20
94.563
 21
94.754
  0
LINE
  8
0
 10
266.871
 11
267.909
 20
94.754
 21
94.89
  0
LINE
  8
0
 10
267.909
 11
268.953
 20
94.89
 21
94.973
  0
LINE
  8
0
 10
268.953
 11
270
 20
94.973
 21
95
  0
LINE
  8
0
 10
270
 11
271.047
 20
95
 21
94.973
  0
LINE
  8
0
 10
271.047
 11
272.091
 20
94.973
 21
94.89
  0
LINE
  8
0
 10
272.091
 11
273.129
 20
94.89
 21
94.754
  0
LINE
  8
0
 10
273.129
 11
274.158
 20
94.754
 21
94.563
  0
LINE
  8
0
 10
274.158
 11
275.176
 20
94.563
 21
94.319
  0
LINE
  8
0
 10
275.176
 11
276.18
 20
94.319
 21
94.021
  0
LINE
  8
0
 10
276.18
 11
277.167
 20
94.021
 21
93.672
  0
LINE
  8
0
 10
277.167
 11
278.135
 20
93.672
 21
93.271
  0
LINE
  8
0
 10
278.135
 11
279.08
 20
93.271
 21
92.82
  0
LINE
  8
0
 10
279.08
 11
280
 20
92.82
 21
92.321
  0
LINE
  8
0
 10
280
 11
280.893
 20
92.321
 21
91.773
  0
LINE
  8
0
 10
280.893
 11
281.756
 20
91.773
 21
91.18
  0
LINE
  8
0
 10
281.756
 11
282.586
 20
91.18
 21
90.543
  0
LINE
  8
0
 10
282.586
 11
283.383
 20
90.543
 21
89.863
  0
LINE
  8
0
 10
283.383
 11
284.142
 20
89.863
 21
89.142
  0
LINE
  8
0
 10
284.142
 11
284.863
 20
89.142
 21
88.383
  0
LINE
  8
0
 10
284.863
 11
285.543
 20
88.383
 21
87.586
  0
LINE
  8
0
 10
285.543
 11
286.18
 20
87.586
 21
86.756
  0
LINE
  8
0
 10
286.18
 11
286.773
 20
86.756
 21
85.893
  0
LINE
  8
0
 10
286.773
 11
287.321
 20
85.893
 21
85
  0
LINE
  8
0
 10
287.321
 11
287.82
 20
85
 21
84.08
  0
LINE
  8
0
 10
287.82
 11
288.271
 20
84.08
 21
83.135
  0
LINE
  8
0
 10
288.271
 11
288.672
 20
83.135
 21
82.167
  0
LINE
  8
0
 10
288.672
 11
289.021
 20
82.167
 21
81.18
  0
LINE
  8
0
 10
289.021
 11
289.319
 20
81.18
 21
80.176
  0
LINE
  8
0
 10
289.319
 11
289.563
 20
80.176
 21
79.158
  0
LINE
  8
0
 10
289.563
 11
289.754
 20
79.158
 21
78.129
  0
LINE
  8
0
 10
289.754
 11
289.89
 20
78.129
 21
77.091
  0
LINE
  8
0
 10
289.89
 11
289.973
 20
77.091
 21
76.047
  0
LINE
  8
0
 10
289.973
 11
290
 20
76.047
 21
75
  0
LINE
  8
0
 10
290
 11
290
 20
75
 21
30
  0
LINE
  8
0
 10
290
 11
289.973
 20
30
 21
28.953
  0
LINE
  8
0
 10
289.973
 11
289.89
 20
28.953
 21
27.909
  0
LINE
  8
0
 10
289.89
 11
289.754
 20
27.909
 21
26.871
  0
LINE
  8
0
 10
289.754
 11
289.563
 20
26.871
 21
25.842
  0
LINE
  8
0
 10
289.563
 11
289.319
 20
25.842
 21
24.824
  0
LINE
  8
0
 10
289.319
 11
289.021
 20
24.824
 21
23.82
  0
LINE
  8
0
 10
289.021
 11
288.672
 20
23.82
 21
22.833
  0
LINE
  8
0
 10
288.672
 11
288.271
 20
22.833
 21
21.865
  0
LINE
  8
0
 10
288.271
 11
287.82
 20
21.865
 21
20.92
  0
LINE
  8
0
 10
287.82
 11
287.321
 20
20.92
 21
20
  0
LINE
  8
0
 10
287.321
 11
286.773
 20
20
 21
19.107
  0
LINE
  8
0
 10
286.773
 11
286.18
 20
19.107
 21
18.244
  0
LINE
  8
0
 10
286.18
 11
285.543
 20
18.244
 21
17.414
  0
LINE
  8
0
 10
285.543
 11
284.863
 20
17.414
 21
16.617
  0
LINE
  8
0
 10
284.863
 11
284.142
 20
16.617
 21
15.858
  0
LINE
  8
0
 10
284.142
 11
283.383
 20
15.858
 21
15.137
  0
LINE
  8
0
 10
283.383
 11
282.586
 20
15.137
 21
14.457
  0
LINE
  8
0
 10
282.586
 11
281.756
 20
14.457
 21
13.82
  0
LINE
  8
0
 10
281.756
 11
280.893
 20
13.82
 21
13.227
  0
LINE
  8
0
 10
280.893
 11
280
 20
13.227
 21
12.679
  0
LINE
  8
0
 10
280
 11
279.08
 20
12.679
 21
12.18
  0
LINE
  8
0
 10
279.08
 11
278.135
 20
12.18
 21
11.729
  0
LINE
  8
0
 10
278.135
 11
277.167
 20
11.729
 21
11.328
  0
LINE
  8
0
 10
277.167
 11
276.18
 20
11.328
 21
10.979
  0
LINE
  8
0
 10
276.18
 11
275.176
 20
10.979
 21
10.681
  0
LINE
  8
0
 10
275.176
 11
274.158
 20
10.681
 21
10.437
  0
LINE
  8
0
 10
274.158
 11
273.129
 20
10.437
 21
10.246
  0
LINE
  8
0
 10
273.129
 11
272.091
 20
10.246
 21
10.11
  0
LINE
  8
0
 10
272.091
 11
271.047
 20
10.11
 21
10.027
  0
LINE
  8
0
 10
271.047
 11
270
 20
10.027
 21
10
  0
LINE
  8
0
 10
270
 11
268.953
 20
10
 21
10.027
  0
LINE
  8
0
 10
268.953
 11
267.909
 20
10.027
 21
10.11
  0
LINE
  8
0
 10
267.909
 11
266.871
 20
10.11
 21
10.246
  0
LINE
  8
0
 10
266.871
 11
265.842
 20
10.246
 21
10.437
  0
LINE
  8
0
 10
265.842
 11
264.824
 20
10.437
 21
10.681
  0
LINE
  8
0
 10
264.824
 11
263.82
 20
10.681
 21
10.979
  0
LINE
  8
0
 10
263.82
 11
262.833
 20
10.979
 21
11.328
  0
LINE
  8
0
 10
262.833
 11
261.865
 20
11.328
 21
11.729
  0
LINE
  8
0
 10
261.865
 11
260.92
 20
11.729
 21
12.18
  0
LINE
  8
0
 10
260.92
 11
260
 20
12.18
 21
12.679
  0
LINE
  8
0
 10
260
 11
259.107
 20
12.679
 21
13.227
  0
LINE
  8
0
 10
259.107
 11
258.244
 20
13.227
 21
13.82
  0
LINE
  8
0
 10
258.244
 11
257.414
 20
13.82
 21
14.457
  0
LINE
  8
0
 10
257.414
 11
256.617
 20
14.457
 21
15.137
  0
LINE
  8
0
 10
256.617
 11
255.858
 20
15.137
 21
15.858
  0
LINE
  8
0
 10
255.858
 11
255.137
 20
15.858
 21
16.617
  0
LINE
  8
0
 10
255.137
 11
254.457
 20
16.617
 21
17.414
  0
LINE
  8
0
 10
254.457
 11
253.82
 20
17.414
 21
18.244
  0
LINE
  8
0
 10
253.82
 11
253.227
 20
18.244
 21
19.107
  0
LINE
  8
0
 10
253.227
 11
252.679
 20
19.107
 21
20
  0
LINE
  8
0
 10
252.679
 11
252.18
 20
20
 21
20.92
  0
LINE
  8
0
 10
252.18
 11
251.729
 20
20.92
 21
21.865
  0
LINE
  8
0
 10
251.729
 11
251.328
 20
21.865
 21
22.833
  0
LINE
  8
0
 10
251.328
 11
250.979
 20
22.833
 21
23.82
  0
LINE
  8
0
 10
250.979
 11
250.681
 20
23.82
 21
24.824
  0
LINE
  8
0
 10
250.681
 11
250.437
 20
24.824
 21
25.842
  0
LINE
  8
0
 10
250.437
 11
250.246
 20
25.842
 21
26.871
  0
LINE
  8
0
 10
250.246
 11
250.11
 20
26.871
 21
27.909
  0
LINE
  8
0
 10
250.11
 11
250.027
 20
27.909
 21
28.953
  0
LINE
  8
0
 10
250.027
 11
250
 20
28.953
 21
30
  0
LINE
  8
0
 10
250
 11
250
 20
200
 21
240
  0
LINE
  8
0
 10
250
 11
250.381
 20
240
 21
241.913
  0
LINE
  8
0
 10
250.381
 11
251.464
 20
241.913
 21
243.536
  0
LINE
  8
0
 10
251.464
 11
253.087
 20
243.536
 21
244.619
  0
LINE
  8
0
 10
253.087
 11
255
 20
244.619
 21
245
  0
LINE
  8
0
 10
255
 11
265
 20
245
 21
245
  0
LINE
  8
0
 10
265
 11
265
 20
245
 21
244.863
  0
LINE
  8
0
 10
265
 11
267.613
 20
244.863
 21
244.863
  0
LINE
  8
0
 10
267.613
 11
272.725
 20
244.863
 21
243.776
  0
LINE
  8
0
 10
272.725
 11
277.5
 20
243.776
 21
241.651
  0
LINE
  8
0
 10
277.5
 11
281.728
 20
241.651
 21
238.579
  0
LINE
  8
0
 10
281.728
 11
285.225
 20
238.579
 21
234.695
  0
LINE
  8
0
 10
285.225
 11
287.839
 20
234.695
 21
230.168
  0
LINE
  8
0
 10
287.839
 11
289.454
 20
230.168
 21
225.198
  0
LINE
  8
0
 10
289.454
 11
290
 20
225.198
 21
220
  0
LINE
  8
0
 10
290
 11
289.454
 20
220
 21
214.802
  0
LINE
  8
0
 10
289.454
 11
287.839
 20
214.802
 21
209.832
  0
LINE
  8
0
 10
287.839
 11
285.225
 20
209.832
 21
205.305
  0
LINE
  8
0
 10
285.225
 11
281.728
 20
205.305
 21
201.421
  0
LINE
  8
0
 10
281.728
 11
277.5
 20
201.421
 21
198.349
  0
LINE
  8
0
 10
277.5
 11
272.725
 20
198.349
 21
196.224
  0
LINE
  8
0
 10
272.725
 11
267.613
 20
196.224
 21
195.137
  0
LINE
  8
0
 10
267.613
 11
265
 20
195.137
 21
195.137
  0
LINE
  8
0
 10
265
 11
265
 20
195.137
 21
195
  0
LINE
  8
0
 10
265
 11
255
 20
195
 21
195
  0
LINE
  8
0
 10
255
 11
253.087
 20
195
 21
195.381
  0
LINE
  8
0
 10
253.087
 11
251.464
 20
195.381
 21
196.464
  0
LINE
  8
0
 10
251.464
 11
250.381
 20
196.464
 21
198.087
  0
LINE
  8
0
 10
250.381
 11
250
 20
198.087
 21
200
  0
LINE
  8
0
 10
252
 11
252
 20
114.08
 21
125.92
  0
LINE
  8
0
 10
252
 11
276
 20
125.92
 21
125.92
  0
LINE
  8
0
 10
276
 11
276
 20
125.92
 21
114.08
  0
LINE
  8
0
 10
276
 11
252
 20
114.08
 21
114.08
  0
LINE
  8
0
 10
252
 11
252
 20
164.08
 21
175.92
  0
LINE
  8
0
 10
252
 11
276
 20
175.92
 21
175.92
  0
LINE
  8
0
 10
276
 11
276
 20
175.92
 21
164.08
  0
LINE
  8
0
 10
276
 11
252
 20
164.08
 21
164.08
  0
LINE
  8
0
 10
253.5
 11
253.573
 20
145
 21
145.464
  0
LINE
  8
0
 10
253.573
 11
253.786
 20
145.464
 21
145.882
  0
LINE
  8
0
 10
253.786
 11
254.118
 20
145.882
 21
146.214
  0
LINE
  8
0
 10
254.118
 11
254.536
 20
146.214
 21
146.427
  0
LINE
  8
0
 10
254.536
 11
255
 20
146.427
 21
146.5
  0
LINE
  8
0
 10
255
 11
255.464
 20
146.5
 21
146.427
  0
LINE
  8
0
 10
255.464
 11
255.882
 20
146.427
 21
146.214
  0
LINE
  8
0
 10
255.882
 11
256.214
 20
146.214
 21
145.882
  0
LINE
  8
0
 10
256.214
 11
256.427
 20
145.882
 21
145.464
  0
LINE
  8
0
 10
256.427
 11
256.5
 20
145.464
 21
145
  0
LINE
  8
0
 10
256.5
 11
256.427
 20
145
 21
144.536
  0
LINE
  8
0
 10
256.427
 11
256.214
 20
144.536
 21
144.118
  0
LINE
  8
0
 10
256.214
 11
255.882
 20
144.118
 21
143.786
  0
LINE
  8
0
 10
255.882
 11
255.464
 20
143.786
 21
143.573
  0
LINE
  8
0
 10
255.464
 11
255
 20
143.573
 21
143.5
  0
LINE
  8
0
 10
255
 11
254.536
 20
143.5
 21
143.573
  0
LINE
  8
0
 10
254.536
 11
254.118
 20
143.573
 21
143.786
  0
LINE
  8
0
 10
254.118
 11
253.786
 20
143.786
 21
144.118
  0
LINE
  8
0
 10
253.786
 11
253.573
 20
144.118
 21
144.536
  0
LINE
  8
0
 10
253.573
 11
253.5
 20
144.536
 21
145
  0
LINE
  8
0
 10
254.5
 11
254.573
 20
30
 21
30.464
  0
LINE
  8
0
 10
254.573
 11
254.786
 20
30.464
 21
30.882
  0
LINE
  8
0
 10
254.786
 11
255.118
 20
30.882
 21
31.214
  0
LINE
  8
0
 10
255.118
 11
255.536
 20
31.214
 21
31.427
  0
LINE
  8
0
 10
255.536
 11
256
 20
31.427
 21
31.5
  0
LINE
  8
0
 10
256
 11
256.464
 20
31.5
 21
31.427
  0
LINE
  8
0
 10
256.464
 11
256.882
 20
31.427
 21
31.214
  0
LINE
  8
0
 10
256.882
 11
257.214
 20
31.214
 21
30.882
  0
LINE
  8
0
 10
257.214
 11
257.427
 20
30.882
 21
30.464
  0
LINE
  8
0
 10
257.427
 11
257.5
 20
30.464
 21
30
  0
LINE
  8
0
 10
257.5
 11
257.427
 20
30
 21
29.536
  0
LINE
  8
0
 10
257.427
 11
257.214
 20
29.536
 21
29.118
  0
LINE
  8
0
 10
257.214
 11
256.882
 20
29.118
 21
28.786
  0
LINE
  8
0
 10
256.882
 11
256.464
 20
28.786
 21
28.573
  0
LINE
  8
0
 10
256.464
 11
256
 20
28.573
 21
28.5
  0
LINE
  8
0
 10
256
 11
255.536
 20
28.5
 21
28.573
  0
LINE
  8
0
 10
255.536
 11
255.118
 20
28.573
 21
28.786
  0
LINE
  8
0
 10
255.118
 11
254.786
 20
28.786
 21
29.118
  0
LINE
  8
0
 10
254.786
 11
254.573
 20
29.118
 21
29.536
  0
LINE
  8
0
 10
254.573
 11
254.5
 20
29.536
 21
30
  0
LINE
  8
0
 10
254.5
 11
254.573
 20
75
 21
75.464
  0
LINE
  8
0
 10
254.573
 11
254.786
 20
75.464
 21
75.882
  0
LINE
  8
0
 10
254.786
 11
255.118
 20
75.882
 21
76.214
  0
LINE
  8
0
 10
255.118
 11
255.536
 20
76.214
 21
76.427
  0
LINE
  8
0
 10
255.536
 11
256
 20
76.427
 21
76.5
  0
LINE
  8
0
 10
256
 11
256.464
 20
76.5
 21
76.427
  0
LINE
  8
0
 10
256.464
 11
256.882
 20
76.427
 21
76.214
  0
LINE
  8
0
 10
256.882
 11
257.214
 20
76.214
 21
75.882
  0
LINE
  8
0
 10
257.214
 11
257.427
 20
75.882
 21
75.464
  0
LINE
  8
0
 10
257.427
 11
257.5
 20
75.464
 21
75
  0
LINE
  8
0
 10
257.5
 11
257.427
 20
75
 21
74.536
  0
LINE
  8
0
 10
257.427
 11
257.214
 20
74.536
 21
74.118
  0
LINE
  8
0
 10
257.214
 11
256.882
 20
74.118
 21
73.786
  0
LINE
  8
0
 10
256.882
 11
256.464
 20
73.786
 21
73.573
  0
LINE
  8
0
 10
256.464
 11
256
 20
73.573
 21
73.5
  0
LINE
  8
0
 10
256
 11
255.536
 20
73.5
 21
73.573
  0
LINE
  8
0
 10
255.536
 11
255.118
 20
73.573
 21
73.786
  0
LINE
  8
0
 10
255.118
 11
254.786
 20
73.786
 21
74.118
  0
LINE
  8
0
 10
254.786
 11
254.573
 20
74.118
 21
74.536
  0
LINE
  8
0
 10
254.573
 11
254.5
 20
74.536
 21
75
  0
LINE
  8
0
 10
254.5
 11
254.573
 20
200
 21
200.464
  0
LINE
  8
0
 10
254.573
 11
254.786
 20
200.464
 21
200.882
  0
LINE
  8
0
 10
254.786
 11
255.118
 20
200.882
 21
201.214
  0
LINE
  8
0
 10
255.118
 11
255.536
 20
201.214
 21
201.427
  0
LINE
  8
0
 10
255.536
 11
256
 20
201.427
 21
201.5
  0
LINE
  8
0
 10
256
 11
256.464
 20
201.5
 21
201.427
  0
LINE
  8
0
 10
256.464
 11
256.882
 20
201.427
 21
201.214
  0
LINE
  8
0
 10
256.882
 11
257.214
 20
201.214
 21
200.882
  0
LINE
  8
0
 10
257.214
 11
257.427
 20
200.882
 21
200.464
  0
LINE
  8
0
 10
257.427
 11
257.5
 20
200.464
 21
200
  0
LINE
  8
0
 10
257.5
 11
257.427
 20
200
 21
199.536
  0
LINE
  8
0
 10
257.427
 11
257.214
 20
199.536
 21
199.118
  0
LINE
  8
0
 10
257.214
 11
256.882
 20
199.118
 21
198.786
  0
LINE
  8
0
 10
256.882
 11
256.464
 20
198.786
 21
198.573
  0
LINE
  8
0
 10
256.464
 11
256
 20
198.573
 21
198.5
  0
LINE
  8
0
 10
256
 11
255.536
 20
198.5
 21
198.573
  0
LINE
  8
0
 10
255.536
 11
255.118
 20
198.573
 21
198.786
  0
LINE
  8
0
 10
255.118
 11
254.786
 20
198.786
 21
199.118
  0
LINE
  8
0
 10
254.786
 11
254.573
 20
199.118
 21
199.536
  0
LINE
  8
0
 10
254.573
 11
254.5
 20
199.536
 21
200
  0
LINE
  8
0
 10
254.5
 11
254.573
 20
240
 21
240.464
  0
LINE
  8
0
 10
254.573
 11
254.786
 20
240.464
 21
240.882
  0
LINE
  8
0
 10
254.786
 11
255.118
 20
240.882
 21
241.214
  0
LINE
  8
0
 10
255.118
 11
255.536
 20
241.214
 21
241.427
  0
LINE
  8
0
 10
255.536
 11
256
 20
241.427
 21
241.5
  0
LINE
  8
0
 10
256
 11
256.464
 20
241.5
 21
241.427
  0
LINE
  8
0
 10
256.464
 11
256.882
 20
241.427
 21
241.214
  0
LINE
  8
0
 10
256.882
 11
257.214
 20
241.214
 21
240.882
  0
LINE
  8
0
 10
257.214
 11
257.427
 20
240.882
 21
240.464
  0
LINE
  8
0
 10
257.427
 11
257.5
 20
240.464
 21
240
  0
LINE
  8
0
 10
257.5
 11
257.427
 20
240
 21
239.536
  0
LINE
  8
0
 10
257.427
 11
257.214
 20
239.536
 21
239.118
  0
LINE
  8
0
 10
257.214
 11
256.882
 20
239.118
 21
238.786
  0
LINE
  8
0
 10
256.882
 11
256.464
 20
238.786
 21
238.573
  0
LINE
  8
0
 10
256.464
 11
256
 20
238.573
 21
238.5
  0
LINE
  8
0
 10
256
 11
255.536
 20
238.5
 21
238.573
  0
LINE
  8
0
 10
255.536
 11
255.118
 20
238.573
 21
238.786
  0
LINE
  8
0
 10
255.118
 11
254.786
 20
238.786
 21
239.118
  0
LINE
  8
0
 10
254.786
 11
254.573
 20
239.118
 21
239.536
  0
LINE
  8
0
 10
254.573
 11
254.5
 20
239.536
 21
240
  0
LINE
  8
0
 10
262.5
 11
262.573
 20
108
 21
108.464
  0
LINE
  8
0
 10
262.573
 11
262.786
 20
108.464
 21
108.882
  0
LINE
  8
0
 10
262.786
 11
263.118
 20
108.882
 21
109.214
  0
LINE
  8
0
 10
263.118
 11
263.536
 20
109.214
 21
109.427
  0
LINE
  8
0
 10
263.536
 11
264
 20
109.427
 21
109.5
  0
LINE
  8
0
 10
264
 11
264.464
 20
109.5
 21
109.427
  0
LINE
  8
0
 10
264.464
 11
264.882
 20
109.427
 21
109.214
  0
LINE
  8
0
 10
264.882
 11
265.214
 20
109.214
 21
108.882
  0
LINE
  8
0
 10
265.214
 11
265.427
 20
108.882
 21
108.464
  0
LINE
  8
0
 10
265.427
 11
265.5
 20
108.464
 21
108
  0
LINE
  8
0
 10
265.5
 11
265.427
 20
108
 21
107.536
  0
LINE
  8
0
 10
265.427
 11
265.214
 20
107.536
 21
107.118
  0
LINE
  8
0
 10
265.214
 11
264.882
 20
107.118
 21
106.786
  0
LINE
  8
0
 10
264.882
 11
264.464
 20
106.786
 21
106.573
  0
LINE
  8
0
 10
264.464
 11
264
 20
106.573
 21
106.5
  0
LINE
  8
0
 10
264
 11
263.536
 20
106.5
 21
106.573
  0
LINE
  8
0
 10
263.536
 11
263.118
 20
106.573
 21
106.786
  0
LINE
  8
0
 10
263.118
 11
262.786
 20
106.786
 21
107.118
  0
LINE
  8
0
 10
262.786
 11
262.573
 20
107.118
 21
107.536
  0
LINE
  8
0
 10
262.573
 11
262.5
 20
107.536
 21
108
  0
LINE
  8
0
 10
262.5
 11
262.573
 20
182
 21
182.464
  0
LINE
  8
0
 10
262.573
 11
262.786
 20
182.464
 21
182.882
  0
LINE
  8
0
 10
262.786
 11
263.118
 20
182.882
 21
183.214
  0
LINE
  8
0
 10
263.118
 11
263.536
 20
183.214
 21
183.427
  0
LINE
  8
0
 10
263.536
 11
264
 20
183.427
 21
183.5
  0
LINE
  8
0
 10
264
 11
264.464
 20
183.5
 21
183.427
  0
LINE
  8
0
 10
264.464
 11
264.882
 20
183.427
 21
183.214
  0
LINE
  8
0
 10
264.882
 11
265.214
 20
183.214
 21
182.882
  0
LINE
  8
0
 10
265.214
 11
265.427
 20
182.882
 21
182.464
  0
LINE
  8
0
 10
265.427
 11
265.5
 20
182.464
 21
182
  0
LINE
  8
0
 10
265.5
 11
265.427
 20
182
 21
181.536
  0
LINE
  8
0
 10
265.427
 11
265.214
 20
181.536
 21
181.118
  0
LINE
  8
0
 10
265.214
 11
264.882
 20
181.118
 21
180.786
  0
LINE
  8
0
 10
264.882
 11
264.464
 20
180.786
 21
180.573
  0
LINE
  8
0
 10
264.464
 11
264
 20
180.573
 21
180.5
  0
LINE
  8
0
 10
264
 11
263.536
 20
180.5
 21
180.573
  0
LINE
  8
0
 10
263.536
 11
263.118
 20
180.573
 21
180.786
  0
LINE
  8
0
 10
263.118
 11
262.786
 20
180.786
 21
181.118
  0
LINE
  8
0
 10
262.786
 11
262.573
 20
181.118
 21
181.536
  0
LINE
  8
0
 10
262.573
 11
262.5
 20
181.536
 21
182
  0
LINE
  8
0
 10
264.08
 11
264.08
 20
208
 21
232
  0
LINE
  8
0
 10
264.08
 11
275.92
 20
232
 21
232
  0
LINE
  8
0
 10
275.92
 11
275.92
 20
232
 21
208
  0
LINE
  8
0
 10
275.92
 11
264.08
 20
208
 21
208
  0
LINE
  8
0
 10
264.953
 11
264.953
 20
18
 21
42
  0
LINE
  8
0
 10
264.953
 11
275.047
 20
42
 21
42
  0
LINE
  8
0
 10
275.047
 11
275.047
 20
42
 21
18
  0
LINE
  8
0
 10
275.047
 11
264.953
 20
18
 21
18
  0
LINE
  8
0
 10
264.953
 11
264.953
 20
63
 21
87
  0
LINE
  8
0
 10
264.953
 11
275.047
 20
87
 21
87
  0
LINE
  8
0
 10
275.047
 11
275.047
 20
87
 21
63
  0
LINE
  8
0
 10
275.047
 11
264.953
 20
63
 21
63
  0
LINE
  8
0
 10
270
 11
270.437
 20
145
 21
149.158
  0
LINE
  8
0
 10
270.437
 11
271.729
 20
149.158
 21
153.135
  0
LINE
  8
0
 10
271.729
 11
273.82
 20
153.135
 21
156.756
  0
LINE
  8
0
 10
273.82
 11
276.617
 20
156.756
 21
159.863
  0
LINE
  8
0
 10
276.617
 11
280
 20
159.863
 21
162.321
  0
LINE
  8
0
 10
280
 11
283.82
 20
162.321
 21
164.021
  0
LINE
  8
0
 10
283.82
 11
287.909
 20
164.021
 21
164.89
  0
LINE
  8
0
 10
287.909
 11
292.091
 20
164.89
 21
164.89
  0
LINE
  8
0
 10
292.091
 11
296.18
 20
164.89
 21
164.021
  0
LINE
  8
0
 10
296.18
 11
300
 20
164.021
 21
162.321
  0
LINE
  8
0
 10
300
 11
303.383
 20
162.321
 21
159.863
  0
LINE
  8
0
 10
303.383
 11
306.18
 20
159.863
 21
156.756
  0
LINE
  8
0
 10
306.18
 11
308.271
 20
156.756
 21
153.135
  0
LINE
  8
0
 10
308.271
 11
309.563
 20
153.135
 21
149.158
  0
LINE
  8
0
 10
309.563
 11
310
 20
149.158
 21
145
  0
LINE
  8
0
 10
310
 11
309.563
 20
145
 21
140.842
  0
LINE
  8
0
 10
309.563
 11
308.271
 20
140.842
 21
136.865
  0
LINE
  8
0
 10
308.271
 11
306.18
 20
136.865
 21
133.244
  0
LINE
  8
0
 10
306.18
 11
303.383
 20
133.244
 21
130.137
  0
LINE
  8
0
 10
303.383
 11
300
 20
130.137
 21
127.679
  0
LINE
  8
0
 10
300
 11
296.18
 20
127.679
 21
125.979
  0
LINE
  8
0
 10
296.18
 11
292.091
 20
125.979
 21
125.11
  0
LINE
  8
0
 10
292.091
 11
287.909
 20
125.11
 21
125.11
  0
LINE
  8
0
 10
287.909
 11
283.82
 20
125.11
 21
125.979
  0
LINE
  8
0
 10
283.82
 11
280
 20
125.979
 21
127.679
  0
LINE
  8
0
 10
280
 11
276.617
 20
127.679
 21
130.137
  0
LINE
  8
0
 10
276.617
 11
273.82
 20
130.137
 21
133.244
  0
LINE
  8
0
 10
273.82
 11
271.729
 20
133.244
 21
136.865
  0
LINE
  8
0
 10
271.729
 11
270.437
 20
136.865
 21
140.842
  0
LINE
  8
0
 10
270.437
 11
270
 20
140.842
 21
145
  0
LINE
  8
0
 10
282.5
 11
282.573
 20
30
 21
30.464
  0
LINE
  8
0
 10
282.573
 11
282.786
 20
30.464
 21
30.882
  0
LINE
  8
0
 10
282.786
 11
283.118
 20
30.882
 21
31.214
  0
LINE
  8
0
 10
283.118
 11
283.536
 20
31.214
 21
31.427
  0
LINE
  8
0
 10
283.536
 11
284
 20
31.427
 21
31.5
  0
LINE
  8
0
 10
284
 11
284.464
 20
31.5
 21
31.427
  0
LINE
  8
0
 10
284.464
 11
284.882
 20
31.427
 21
31.214
  0
LINE
  8
0
 10
284.882
 11
285.214
 20
31.214
 21
30.882
  0
LINE
  8
0
 10
285.214
 11
285.427
 20
30.882
 21
30.464
  0
LINE
  8
0
 10
285.427
 11
285.5
 20
30.464
 21
30
  0
LINE
  8
0
 10
285.5
 11
285.427
 20
30
 21
29.536
  0
LINE
  8
0
 10
285.427
 11
285.214
 20
29.536
 21
29.118
  0
LINE
  8
0
 10
285.214
 11
284.882
 20
29.118
 21
28.786
  0
LINE
  8
0
 10
284.882
 11
284.464
 20
28.786
 21
28.573
  0
LINE
  8
0
 10
284.464
 11
284
 20
28.573
 21
28.5
  0
LINE
  8
0
 10
284
 11
283.536
 20
28.5
 21
28.573
  0
LINE
  8
0
 10
283.536
 11
283.118
 20
28.573
 21
28.786
  0
LINE
  8
0
 10
283.118
 11
282.786
 20
28.786
 21
29.118
  0
LINE
  8
0
 10
282.786
 11
282.573
 20
29.118
 21
29.536
  0
LINE
  8
0
 10
282.573
 11
282.5
 20
29.536
 21
30
  0
LINE
  8
0
 10
282.5
 11
282.573
 20
75
 21
75.464
  0
LINE
  8
0
 10
282.573
 11
282.786
 20
75.464
 21
75.882
  0
LINE
  8
0
 10
282.786
 11
283.118
 20
75.882
 21
76.214
  0
LINE
  8
0
 10
283.118
 11
283.536
 20
76.214
 21
76.427
  0
LINE
  8
0
 10
283.536
 11
284
 20
76.427
 21
76.5
  0
LINE
  8
0
 10
284
 11
284.464
 20
76.5
 21
76.427
  0
LINE
  8
0
 10
284.464
 11
284.882
 20
76.427
 21
76.214
  0
LINE
  8
0
 10
284.882
 11
285.214
 20
76.214
 21
75.882
  0
LINE
  8
0
 10
285.214
 11
285.427
 20
75.882
 21
75.464
  0
LINE
  8
0
 10
285.427
 11
285.5
 20
75.464
 21
75
  0
LINE
  8
0
 10
285.5
 11
285.427
 20
75
 21
74.536
  0
LINE
  8
0
 10
285.427
 11
285.214
 20
74.536
 21
74.118
  0
LINE
  8
0
 10
285.214
 11
284.882
 20
74.118
 21
73.786
  0
LINE
  8
0
 10
284.882
 11
284.464
 20
73.786
 21
73.573
  0
LINE
  8
0
 10
284.464
 11
284
 20
73.573
 21
73.5
  0
LINE
  8
0
 10
284
 11
283.536
 20
73.5
 21
73.573
  0
LINE
  8
0
 10
283.536
 11
283.118
 20
73.573
 21
73.786
  0
LINE
  8
0
 10
283.118
 11
282.786
 20
73.786
 21
74.118
  0
LINE
  8
0
 10
282.786
 11
282.573
 20
74.118
 21
74.536
  0
LINE
  8
0
 10
282.573
 11
282.5
 20
74.536
 21
75
  0
LINE
  8
0
 10
282.5
 11
282.573
 20
220
 21
220.464
  0
LINE
  8
0
 10
282.573
 11
282.786
 20
220.464
 21
220.882
  0
LINE
  8
0
 10
282.786
 11
283.118
 20
220.882
 21
221.214
  0
LINE
  8
0
 10
283.118
 11
283.536
 20
221.214
 21
221.427
  0
LINE
  8
0
 10
283.536
 11
284
 20
221.427
 21
221.5
  0
LINE
  8
0
 10
284
 11
284.464
 20
221.5
 21
221.427
  0
LINE
  8
0
 10
284.464
 11
284.882
 20
221.427
 21
221.214
  0
LINE
  8
0
 10
284.882
 11
285.214
 20
221.214
 21
220.882
  0
LINE
  8
0
 10
285.214
 11
285.427
 20
220.882
 21
220.464
  0
LINE
  8
0
 10
285.427
 11
285.5
 20
220.464
 21
220
  0
LINE
  8
0
 10
285.5
 11
285.427
 20
220
 21
219.536
  0
LINE
  8
0
 10
285.427
 11
285.214
 20
219.536
 21
219.118
  0
LINE
  8
0
 10
285.214
 11
284.882
 20
219.118
 21
218.786
  0
LINE
  8
0
 10
284.882
 11
284.464
 20
218.786
 21
218.573
  0
LINE
  8
0
 10
284.464
 11
284
 20
218.573
 21
218.5
  0
LINE
  8
0
 10
284
 11
283.536
 20
218.5
 21
218.573
  0
LINE
  8
0
 10
283.536
 11
283.118
 20
218.573
 21
218.786
  0
LINE
  8
0
 10
283.118
 11
282.786
 20
218.786
 21
219.118
  0
LINE
  8
0
 10
282.786
 11
282.573
 20
219.118
 21
219.536
  0
LINE
  8
0
 10
282.573
 11
282.5
 20
219.536
 21
220
  0
LINE
  8
0
 10
288
 11
288.098
 20
120
 21
120.618
  0
LINE
  8
0
 10
288.098
 11
288.382
 20
120.618
 21
121.176
  0
LINE
  8
0
 10
288.382
 11
288.824
 20
121.176
 21
121.618
  0
LINE
  8
0
 10
288.824
 11
289.382
 20
121.618
 21
121.902
  0
LINE
  8
0
 10
289.382
 11
290
 20
121.902
 21
122
  0
LINE
  8
0
 10
290
 11
290.618
 20
122
 21
121.902
  0
LINE
  8
0
 10
290.618
 11
291.176
 20
121.902
 21
121.618
  0
LINE
  8
0
 10
291.176
 11
291.618
 20
121.618
 21
121.176
  0
LINE
  8
0
 10
291.618
 11
291.902
 20
121.176
 21
120.618
  0
LINE
  8
0
 10
291.902
 11
292
 20
120.618
 21
120
  0
LINE
  8
0
 10
292
 11
291.902
 20
120
 21
119.382
  0
LINE
  8
0
 10
291.902
 11
291.618
 20
119.382
 21
118.824
  0
LINE
  8
0
 10
291.618
 11
291.176
 20
118.824
 21
118.382
  0
LINE
  8
0
 10
291.176
 11
290.618
 20
118.382
 21
118.098
  0
LINE
  8
0
 10
290.618
 11
290
 20
118.098
 21
118
  0
LINE
  8
0
 10
290
 11
289.382
 20
118
 21
118.098
  0
LINE
  8
0
 10
289.382
 11
288.824
 20
118.098
 21
118.382
  0
LINE
  8
0
 10
288.824
 11
288.382
 20
118.382
 21
118.824
  0
LINE
  8
0
 10
288.382
 11
288.098
 20
118.824
 21
119.382
  0
LINE
  8
0
 10
288.098
 11
288
 20
119.382
 21
120
  0
LINE
  8
0
 10
288
 11
288.098
 20
170
 21
170.618
  0
LINE
  8
0
 10
288.098
 11
288.382
 20
170.618
 21
171.176
  0
LINE
  8
0
 10
288.382
 11
288.824
 20
171.176
 21
171.618
  0
LINE
  8
0
 10
288.824
 11
289.382
 20
171.618
 21
171.902
  0
LINE
  8
0
 10
289.382
 11
290
 20
171.902
 21
172
  0
LINE
  8
0
 10
290
 11
290.618
 20
172
 21
171.902
  0
LINE
  8
0
 10
290.618
 11
291.176
 20
171.902
 21
171.618
  0
LINE
  8
0
 10
291.176
 11
291.618
 20
171.618
 21
171.176
  0
LINE
  8
0
 10
291.618
 11
291.902
 20
171.176
 21
170.618
  0
LINE
  8
0
 10
291.902
 11
292
 20
170.618
 21
170
  0
LINE
  8
0
 10
292
 11
291.902
 20
170
 21
169.382
  0
LINE
  8
0
 10
291.902
 11
291.618
 20
169.382
 21
168.824
  0
LINE
  8
0
 10
291.618
 11
291.176
 20
168.824
 21
168.382
  0
LINE
  8
0
 10
291.176
 11
290.618
 20
168.382
 21
168.098
  0
LINE
  8
0
 10
290.618
 11
290
 20
168.098
 21
168
  0
LINE
  8
0
 10
290
 11
289.382
 20
168
 21
168.098
  0
LINE
  8
0
 10
289.382
 11
288.824
 20
168.098
 21
168.382
  0
LINE
  8
0
 10
288.824
 11
288.382
 20
168.382
 21
168.824
  0
LINE
  8
0
 10
288.382
 11
288.098
 20
168.824
 21
169.382
  0
LINE
  8
0
 10
288.098
 11
288
 20
169.382
 21
170
  0
LINE
  8
0
 10
300
 11
300
 20
30
 21
75
  0
LINE
  8
0
 10
300
 11
300.027
 20
75
 21
76.047
  0
LINE
  8
0
 10
300.027
 11
300.11
 20
76.047
 21
77.091
  0
LINE
  8
0
 10
300.11
 11
300.246
 20
77.091
 21
78.129
  0
LINE
  8
0
 10
300.246
 11
300.437
 20
78.129
 21
79.158
  0
LINE
  8
0
 10
300.437
 11
300.681
 20
79.158
 21
80.176
  0
LINE
  8
0
 10
300.681
 11
300.979
 20
80.176
 21
81.18
  0
LINE
  8
0
 10
300.979
 11
301.328
 20
81.18
 21
82.167
  0
LINE
  8
0
 10
301.328
 11
301.729
 20
82.167
 21
83.135
  0
LINE
  8
0
 10
301.729
 11
302.18
 20
83.135
 21
84.08
  0
LINE
  8
0
 10
302.18
 11
302.679
 20
84.08
 21
85
  0
LINE
  8
0
 10
302.679
 11
303.227
 20
85
 21
85.893
  0
LINE
  8
0
 10
303.227
 11
303.82
 20
85.893
 21
86.756
  0
LINE
  8
0
 10
303.82
 11
304.457
 20
86.756
 21
87.586
  0
LINE
  8
0
 10
304.457
 11
305.137
 20
87.586
 21
88.383
  0
LINE
  8
0
 10
305.137
 11
305.858
 20
88.383
 21
89.142
  0
LINE
  8
0
 10
305.858
 11
306.617
 20
89.142
 21
89.863
  0
LINE
  8
0
 10
306.617
 11
307.414
 20
89.863
 21
90.543
  0
LINE
  8
0
 10
307.414
 11
308.244
 20
90.543
 21
91.18
  0
LINE
  8
0
 10
308.244
 11
309.107
 20
91.18
 21
91.773
  0
LINE
  8
0
 10
309.107
 11
310
 20
91.773
 21
92.321
  0
LINE
  8
0
 10
310
 11
310.92
 20
92.321
 21
92.82
  0
LINE
  8
0
 10
310.92
 11
311.865
 20
92.82
 21
93.271
  0
LINE
  8
0
 10
311.865
 11
312.833
 20
93.271
 21
93.672
  0
LINE
  8
0
 10
312.833
 11
313.82
 20
93.672
 21
94.021
  0
LINE
  8
0
 10
313.82
 11
314.824
 20
94.021
 21
94.319
  0
LINE
  8
0
 10
314.824
 11
315.842
 20
94.319
 21
94.563
  0
LINE
  8
0
 10
315.842
 11
316.871
 20
94.563
 21
94.754
  0
LINE
  8
0
 10
316.871
 11
317.909
 20
94.754
 21
94.89
  0
LINE
  8
0
 10
317.909
 11
318.953
 20
94.89
 21
94.973
  0
LINE
  8
0
 10
318.953
 11
320
 20
94.973
 21
95
  0
LINE
  8
0
 10
320
 11
321.047
 20
95
 21
94.973
  0
LINE
  8
0
 10
321.047
 11
322.091
 20
94.973
 21
94.89
  0
LINE
  8
0
 10
322.091
 11
323.129
 20
94.89
 21
94.754
  0
LINE
  8
0
 10
323.129
 11
324.158
 20
94.754
 21
94.563
  0
LINE
  8
0
 10
324.158
 11
325.176
 20
94.563
 21
94.319
  0
LINE
  8
0
 10
325.176
 11
326.18
 20
94.319
 21
94.021
  0
LINE
  8
0
 10
326.18
 11
327.167
 20
94.021
 21
93.672
  0
LINE
  8
0
 10
327.167
 11
328.135
 20
93.672
 21
93.271
  0
LINE
  8
0
 10
328.135
 11
329.08
 20
93.271
 21
92.82
  0
LINE
  8
0
 10
329.08
 11
330
 20
92.82
 21
92.321
  0
LINE
  8
0
 10
330
 11
330.893
 20
92.321
 21
91.773
  0
LINE
  8
0
 10
330.893
 11
331.756
 20
91.773
 21
91.18
  0
LINE
  8
0
 10
331.756
 11
332.586
 20
91.18
 21
90.543
  0
LINE
  8
0
 10
332.586
 11
333.383
 20
90.543
 21
89.863
  0
LINE
  8
0
 10
333.383
 11
334.142
 20
89.863
 21
89.142
  0
LINE
  8
0
 10
334.142
 11
334.863
 20
89.142
 21
88.383
  0
LINE
  8
0
 10
334.863
 11
335.543
 20
88.383
 21
87.586
  0
LINE
  8
0
 10
335.543
 11
336.18
 20
87.586
 21
86.756
  0
LINE
  8
0
 10
336.18
 11
336.773
 20
86.756
 21
85.893
  0
LINE
  8
0
 10
336.773
 11
337.321
 20
85.893
 21
85
  0
LINE
  8
0
 10
337.321
 11
337.82
 20
85
 21
84.08
  0
LINE
  8
0
 10
337.82
 11
338.271
 20
84.08
 21
83.135
  0
LINE
  8
0
 10
338.271
 11
338.672
 20
83.135
 21
82.167
  0
LINE
  8
0
 10
338.672
 11
339.021
 20
82.167
 21
81.18
  0
LINE
  8
0
 10
339.021
 11
339.319
 20
81.18
 21
80.176
  0
LINE
  8
0
 10
339.319
 11
339.563
 20
80.176
 21
79.158
  0
LINE
  8
0
 10
339.563
 11
339.754
 20
79.158
 21
78.129
  0
LINE
  8
0
 10
339.754
 11
339.89
 20
78.129
 21
77.091
  0
LINE
  8
0
 10
339.89
 11
339.973
 20
77.091
 21
76.047
  0
LINE
  8
0
 10
339.973
 11
340
 20
76.047
 21
75
  0
LINE
  8
0
 10
340
 11
340
 20
75
 21
30
  0
LINE
  8
0
 10
340
 11
339.973
 20
30
 21
28.953
  0
LINE
  8
0
 10
339.973
 11
339.89
 20
28.953
 21
27.909
  0
LINE
  8
0
 10
339.89
 11
339.754
 20
27.909
 21
26.871
  0
LINE
  8
0
 10
339.754
 11
339.563
 20
26.871
 21
25.842
  0
LINE
  8
0
 10
339.563
 11
339.319
 20
25.842
 21
24.824
  0
LINE
  8
0
 10
339.319
 11
339.021
 20
24.824
 21
23.82
  0
LINE
  8
0
 10
339.021
 11
338.672
 20
23.82
 21
22.833
  0
LINE
  8
0
 10
338.672
 11
338.271
 20
22.833
 21
21.865
  0
LINE
  8
0
 10
338.271
 11
337.82
 20
21.865
 21
20.92
  0
LINE
  8
0
 10
337.82
 11
337.321
 20
20.92
 21
20
  0
LINE
  8
0
 10
337.321
 11
336.773
 20
20
 21
19.107
  0
LINE
  8
0
 10
336.773
 11
336.18
 20
19.107
 21
18.244
  0
LINE
  8
0
 10
336.18
 11
335.543
 20
18.244
 21
17.414
  0
LINE
  8
0
 10
335.543
 11
334.863
 20
17.414
 21
16.617
  0
LINE
  8
0
 10
334.863
 11
334.142
 20
16.617
 21
15.858
  0
LINE
  8
0
 10
334.142
 11
333.383
 20
15.858
 21
15.137
  0
LINE
  8
0
 10
333.383
 11
332.586
 20
15.137
 21
14.457
  0
LINE
  8
0
 10
332.586
 11
331.756
 20
14.457
 21
13.82
  0
LINE
  8
0
 10
331.756
 11
330.893
 20
13.82
 21
13.227
  0
LINE
  8
0
 10
330.893
 11
330
 20
13.227
 21
12.679
  0
LINE
  8
0
 10
330
 11
329.08
 20
12.679
 21
12.18
  0
LINE
  8
0
 10
329.08
 11
328.135
 20
12.18
 21
11.729
  0
LINE
  8
0
 10
328.135
 11
327.167
 20
11.729
 21
11.328
  0
LINE
  8
0
 10
327.167
 11
326.18
 20
11.328
 21
10.979
  0
LINE
  8
0
 10
326.18
 11
325.176
 20
10.979
 21
10.681
  0
LINE
  8
0
 10
325.176
 11
324.158
 20
10.681
 21
10.437
  0
LINE
  8
0
 10
324.158
 11
323.129
 20
10.437
 21
10.246
  0
LINE
  8
0
 10
323.129
 11
322.091
 20
10.246
 21
10.11
  0
LINE
  8
0
 10
322.091
 11
321.047
 20
10.11
 21
10.027
  0
LINE
  8
0
 10
321.047
 11
320
 20
10.027
 21
10
  0
LINE
  8
0
 10
320
 11
318.953
 20
10
 21
10.027
  0
LINE
  8
0
 10
318.953
 11
317.909
 20
10.027
 21
10.11
  0
LINE
  8
0
 10
317.909
 11
316.871
 20
10.11
 21
10.246
  0
LINE
  8
0
 10
316.871
 11
315.842
 20
10.246
 21
10.437
  0
LINE
  8
0
 10
315.842
 11
314.824
 20
10.437
 21
10.681
  0
LINE
  8
0
 10
314.824
 11
313.82
 20
10.681
 21
10.979
  0
LINE
  8
0
 10
313.82
 11
312.833
 20
10.979
 21
11.328
  0
LINE
  8
0
 10
312.833
 11
311.865
 20
11.328
 21
11.729
  0
LINE
  8
0
 10
311.865
 11
310.92
 20
11.729
 21
12.18
  0
LINE
  8
0
 10
310.92
 11
310
 20
12.18
 21
12.679
  0
LINE
  8
0
 10
310
 11
309.107
 20
12.679
 21
13.227
  0
LINE
  8
0
 10
309.107
 11
308.244
 20
13.227
 21
13.82
  0
LINE
  8
0
 10
308.244
 11
307.414
 20
13.82
 21
14.457
  0
LINE
  8
0
 10
307.414
 11
306.617
 20
14.457
 21
15.137
  0
LINE
  8
0
 10
306.617
 11
305.858
 20
15.137
 21
15.858
  0
LINE
  8
0
 10
305.858
 11
305.137
 20
15.858
 21
16.617
  0
LINE
  8
0
 10
305.137
 11
304.457
 20
16.617
 21
17.414
  0
LINE
  8
0
 10
304.457
 11
303.82
 20
17.414
 21
18.244
  0
LINE
  8
0
 10
303.82
 11
303.227
 20
18.244
 21
19.107
  0
LINE
  8
0
 10
303.227
 11
302.679
 20
19.107
 21
20
  0
LINE
  8
0
 10
302.679
 11
302.18
 20
20
 21
20.92
  0
LINE
  8
0
 10
302.18
 11
301.729
 20
20.92
 21
21.865
  0
LINE
  8
0
 10
301.729
 11
301.328
 20
21.865
 21
22.833
  0
LINE
  8
0
 10
301.328
 11
300.979
 20
22.833
 21
23.82
  0
LINE
  8
0
 10
300.979
 11
300.681
 20
23.82
 21
24.824
  0
LINE
  8
0
 10
300.681
 11
300.437
 20
24.824
 21
25.842
  0
LINE
  8
0
 10
300.437
 11
300.246
 20
25.842
 21
26.871
  0
LINE
  8
0
 10
300.246
 11
300.11
 20
26.871
 21
27.909
  0
LINE
  8
0
 10
300.11
 11
300.027
 20
27.909
 21
28.953
  0
LINE
  8
0
 10
300.027
 11
300
 20
28.953
 21
30
  0
LINE
  8
0
 10
304
 11
304
 20
114.08
 21
125.92
  0
LINE
  8
0
 10
304
 11
328
 20
125.92
 21
125.92
  0
LINE
  8
0
 10
328
 11
328
 20
125.92
 21
114.08
  0
LINE
  8
0
 10
328
 11
304
 20
114.08
 21
114.08
  0
LINE
  8
0
 10
304
 11
304
 20
164.08
 21
175.92
  0
LINE
  8
0
 10
304
 11
328
 20
175.92
 21
175.92
  0
LINE
  8
0
 10
328
 11
328
 20
175.92
 21
164.08
  0
LINE
  8
0
 10
328
 11
304
 20
164.08
 21
164.08
  0
LINE
  8
0
 10
304.5
 11
304.573
 20
30
 21
30.464
  0
LINE
  8
0
 10
304.573
 11
304.786
 20
30.464
 21
30.882
  0
LINE
  8
0
 10
304.786
 11
305.118
 20
30.882
 21
31.214
  0
LINE
  8
0
 10
305.118
 11
305.536
 20
31.214
 21
31.427
  0
LINE
  8
0
 10
305.536
 11
306
 20
31.427
 21
31.5
  0
LINE
  8
0
 10
306
 11
306.464
 20
31.5
 21
31.427
  0
LINE
  8
0
 10
306.464
 11
306.882
 20
31.427
 21
31.214
  0
LINE
  8
0
 10
306.882
 11
307.214
 20
31.214
 21
30.882
  0
LINE
  8
0
 10
307.214
 11
307.427
 20
30.882
 21
30.464
  0
LINE
  8
0
 10
307.427
 11
307.5
 20
30.464
 21
30
  0
LINE
  8
0
 10
307.5
 11
307.427
 20
30
 21
29.536
  0
LINE
  8
0
 10
307.427
 11
307.214
 20
29.536
 21
29.118
  0
LINE
  8
0
 10
307.214
 11
306.882
 20
29.118
 21
28.786
  0
LINE
  8
0
 10
306.882
 11
306.464
 20
28.786
 21
28.573
  0
LINE
  8
0
 10
306.464
 11
306
 20
28.573
 21
28.5
  0
LINE
  8
0
 10
306
 11
305.536
 20
28.5
 21
28.573
  0
LINE
  8
0
 10
305.536
 11
305.118
 20
28.573
 21
28.786
  0
LINE
  8
0
 10
305.118
 11
304.786
 20
28.786
 21
29.118
  0
LINE
  8
0
 10
304.786
 11
304.573
 20
29.118
 21
29.536
  0
LINE
  8
0
 10
304.573
 11
304.5
 20
29.536
 21
30
  0
LINE
  8
0
 10
304.5
 11
304.573
 20
75
 21
75.464
  0
LINE
  8
0
 10
304.573
 11
304.786
 20
75.464
 21
75.882
  0
LINE
  8
0
 10
304.786
 11
305.118
 20
75.882
 21
76.214
  0
LINE
  8
0
 10
305.118
 11
305.536
 20
76.214
 21
76.427
  0
LINE
  8
0
 10
305.536
 11
306
 20
76.427
 21
76.5
  0
LINE
  8
0
 10
306
 11
306.464
 20
76.5
 21
76.427
  0
LINE
  8
0
 10
306.464
 11
306.882
 20
76.427
 21
76.214
  0
LINE
  8
0
 10
306.882
 11
307.214
 20
76.214
 21
75.882
  0
LINE
  8
0
 10
307.214
 11
307.427
 20
75.882
 21
75.464
  0
LINE
  8
0
 10
307.427
 11
307.5
 20
75.464
 21
75
  0
LINE
  8
0
 10
307.5
 11
307.427
 20
75
 21
74.536
  0
LINE
  8
0
 10
307.427
 11
307.214
 20
74.536
 21
74.118
  0
LINE
  8
0
 10
307.214
 11
306.882
 20
74.118
 21
73.786
  0
LINE
  8
0
 10
306.882
 11
306.464
 20
73.786
 21
73.573
  0
LINE
  8
0
 10
306.464
 11
306
 20
73.573
 21
73.5
  0
LINE
  8
0
 10
306
 11
305.536
 20
73.5
 21
73.573
  0
LINE
  8
0
 10
305.536
 11
305.118
 20
73.573
 21
73.786
  0
LINE
  8
0
 10
305.118
 11
304.786
 20
73.786
 21
74.118
  0
LINE
  8
0
 10
304.786
 11
304.573
 20
74.118
 21
74.536
  0
LINE
  8
0
 10
304.573
 11
304.5
 20
74.536
 21
75
  0
LINE
  8
0
 10
314.5
 11
314.573
 20
108
 21
108.464
  0
LINE
  8
0
 10
314.573
 11
314.786
 20
108.464
 21
108.882
  0
LINE
  8
0
 10
314.786
 11
315.118
 20
108.882
 21
109.214
  0
LINE
  8
0
 10
315.118
 11
315.536
 20
109.214
 21
109.427
  0
LINE
  8
0
 10
315.536
 11
316
 20
109.427
 21
109.5
  0
LINE
  8
0
 10
316
 11
316.464
 20
109.5
 21
109.427
  0
LINE
  8
0
 10
316.464
 11
316.882
 20
109.427
 21
109.214
  0
LINE
  8
0
 10
316.882
 11
317.214
 20
109.214
 21
108.882
  0
LINE
  8
0
 10
317.214
 11
317.427
 20
108.882
 21
108.464
  0
LINE
  8
0
 10
317.427
 11
317.5
 20
108.464
 21
108
  0
LINE
  8
0
 10
317.5
 11
317.427
 20
108
 21
107.536
  0
LINE
  8
0
 10
317.427
 11
317.214
 20
107.536
 21
107.118
  0
LINE
  8
0
 10
317.214
 11
316.882
 20
107.118
 21
106.786
  0
LINE
  8
0
 10
316.882
 11
316.464
 20
106.786
 21
106.573
  0
LINE
  8
0
 10
316.464
 11
316
 20
106.573
 21
106.5
  0
LINE
  8
0
 10
316
 11
315.536
 20
106.5
 21
106.573
  0
LINE
  8
0
 10
315.536
 11
315.118
 20
106.573
 21
106.786
  0
LINE
  8
0
 10
315.118
 11
314.786
 20
106.786
 21
107.118
  0
LINE
  8
0
 10
314.786
 11
314.573
 20
107.118
 21
107.536
  0
LINE
  8
0
 10
314.573
 11
314.5
 20
107.536
 21
108
  0
LINE
  8
0
 10
314.5
 11
314.573
 20
182
 21
182.464
  0
LINE
  8
0
 10
314.573
 11
314.786
 20
182.464
 21
182.882
  0
LINE
  8
0
 10
314.786
 11
315.118
 20
182.882
 21
183.214
  0
LINE
  8
0
 10
315.118
 11
315.536
 20
183.214
 21
183.427
  0
LINE
  8
0
 10
315.536
 11
316
 20
183.427
 21
183.5
  0
LINE
  8
0
 10
316
 11
316.464
 20
183.5
 21
183.427
  0
LINE
  8
0
 10
316.464
 11
316.882
 20
183.427
 21
183.214
  0
LINE
  8
0
 10
316.882
 11
317.214
 20
183.214
 21
182.882
  0
LINE
  8
0
 10
317.214
 11
317.427
 20
182.882
 21
182.464
  0
LINE
  8
0
 10
317.427
 11
317.5
 20
182.464
 21
182
  0
LINE
  8
0
 10
317.5
 11
317.427
 20
182
 21
181.536
  0
LINE
  8
0
 10
317.427
 11
317.214
 20
181.536
 21
181.118
  0
LINE
  8
0
 10
317.214
 11
316.882
 20
181.118
 21
180.786
  0
LINE
  8
0
 10
316.882
 11
316.464
 20
180.786
 21
180.573
  0
LINE
  8
0
 10
316.464
 11
316
 20
180.573
 21
180.5
  0
LINE
  8
0
 10
316
 11
315.536
 20
180.5
 21
180.573
  0
LINE
  8
0
 10
315.536
 11
315.118
 20
180.573
 21
180.786
  0
LINE
  8
0
 10
315.118
 11
314.786
 20
180.786
 21
181.118
  0
LINE
  8
0
 10
314.786
 11
314.573
 20
181.118
 21
181.536
  0
LINE
  8
0
 10
314.573
 11
314.5
 20
181.536
 21
182
  0
LINE
  8
0
 10
314.953
 11
314.953
 20
18
 21
42
  0
LINE
  8
0
 10
314.953
 11
325.047
 20
42
 21
42
  0
LINE
  8
0
 10
325.047
 11
325.047
 20
42
 21
18
  0
LINE
  8
0
 10
325.047
 11
314.953
 20
18
 21
18
  0
LINE
  8
0
 10
314.953
 11
314.953
 20
63
 21
87
  0
LINE
  8
0
 10
314.953
 11
325.047
 20
87
 21
87
  0
LINE
  8
0
 10
325.047
 11
325.047
 20
87
 21
63
  0
LINE
  8
0
 10
325.047
 11
314.953
 20
63
 21
63
  0
LINE
  8
0
 10
323.5
 11
323.573
 20
145
 21
145.464
  0
LINE
  8
0
 10
323.573
 11
323.786
 20
145.464
 21
145.882
  0
LINE
  8
0
 10
323.786
 11
324.118
 20
145.882
 21
146.214
  0
LINE
  8
0
 10
324.118
 11
324.536
 20
146.214
 21
146.427
  0
LINE
  8
0
 10
324.536
 11
325
 20
146.427
 21
146.5
  0
LINE
  8
0
 10
325
 11
325.464
 20
146.5
 21
146.427
  0
LINE
  8
0
 10
325.464
 11
325.882
 20
146.427
 21
146.214
  0
LINE
  8
0
 10
325.882
 11
326.214
 20
146.214
 21
145.882
  0
LINE
  8
0
 10
326.214
 11
326.427
 20
145.882
 21
145.464
  0
LINE
  8
0
 10
326.427
 11
326.5
 20
145.464
 21
145
  0
LINE
  8
0
 10
326.5
 11
326.427
 20
145
 21
144.536
  0
LINE
  8
0
 10
326.427
 11
326.214
 20
144.536
 21
144.118
  0
LINE
  8
0
 10
326.214
 11
325.882
 20
144.118
 21
143.786
  0
LINE
  8
0
 10
325.882
 11
325.464
 20
143.786
 21
143.573
  0
LINE
  8
0
 10
325.464
 11
325
 20
143.573
 21
143.5
  0
LINE
  8
0
 10
325
 11
324.536
 20
143.5
 21
143.573
  0
LINE
  8
0
 10
324.536
 11
324.118
 20
143.573
 21
143.786
  0
LINE
  8
0
 10
324.118
 11
323.786
 20
143.786
 21
144.118
  0
LINE
  8
0
 10
323.786
 11
323.573
 20
144.118
 21
144.536
  0
LINE
  8
0
 10
323.573
 11
323.5
 20
144.536
 21
145
  0
LINE
  8
0
 10
332.5
 11
332.573
 20
30
 21
30.464
  0
LINE
  8
0
 10
332.573
 11
332.786
 20
30.464
 21
30.882
  0
LINE
  8
0
 10
332.786
 11
333.118
 20
30.882
 21
31.214
  0
LINE
  8
0
 10
333.118
 11
333.536
 20
31.214
 21
31.427
  0
LINE
  8
0
 10
333.536
 11
334
 20
31.427
 21
31.5
  0
LINE
  8
0
 10
334
 11
334.464
 20
31.5
 21
31.427
  0
LINE
  8
0
 10
334.464
 11
334.882
 20
31.427
 21
31.214
  0
LINE
  8
0
 10
334.882
 11
335.214
 20
31.214
 21
30.882
  0
LINE
  8
0
 10
335.214
 11
335.427
 20
30.882
 21
30.464
  0
LINE
  8
0
 10
335.427
 11
335.5
 20
30.464
 21
30
  0
LINE
  8
0
 10
335.5
 11
335.427
 20
30
 21
29.536
  0
LINE
  8
0
 10
335.427
 11
335.214
 20
29.536
 21
29.118
  0
LINE
  8
0
 10
335.214
 11
334.882
 20
29.118
 21
28.786
  0
LINE
  8
0
 10
334.882
 11
334.464
 20
28.786
 21
28.573
  0
LINE
  8
0
 10
334.464
 11
334
 20
28.573
 21
28.5
  0
LINE
  8
0
 10
334
 11
333.536
 20
28.5
 21
28.573
  0
LINE
  8
0
 10
333.536
 11
333.118
 20
28.573
 21
28.786
  0
LINE
  8
0
 10
333.118
 11
332.786
 20
28.786
 21
29.118
  0
LINE
  8
0
 10
332.786
 11
332.573
 20
29.118
 21
29.536
  0
LINE
  8
0
 10
332.573
 11
332.5
 20
29.536
 21
30
  0
LINE
  8
0
 10
332.5
 11
332.573
 20
75
 21
75.464
  0
LINE
  8
0
 10
332.573
 11
332.786
 20
75.464
 21
75.882
  0
LINE
  8
0
 10
332.786
 11
333.118
 20
75.882
 21
76.214
  0
LINE
  8
0
 10
333.118
 11
333.536
 20
76.214
 21
76.427
  0
LINE
  8
0
 10
333.536
 11
334
 20
76.427
 21
76.5
  0
LINE
  8
0
 10
334
 11
334.464
 20
76.5
 21
76.427
  0
LINE
  8
0
 10
334.464
 11
334.882
 20
76.427
 21
76.214
  0
LINE
  8
0
 10
334.882
 11
335.214
 20
76.214
 21
75.882
  0
LINE
  8
0
 10
335.214
 11
335.427
 20
75.882
 21
75.464
  0
LINE
  8
0
 10
335.427
 11
335.5
 20
75.464
 21
75
  0
LINE
  8
0
 10
335.5
 11
335.427
 20
75
 21
74.536
  0
LINE
  8
0
 10
335.427
 11
335.214
 20
74.536
 21
74.118
  0
LINE
  8
0
 10
335.214
 11
334.882
 20
74.118
 21
73.786
  0
LINE
  8
0
 10
334.882
 11
334.464
 20
73.786
 21
73.573
  0
LINE
  8
0
 10
334.464
 11
334
 20
73.573
 21
73.5
  0
LINE
  8
0
 10
334
 11
333.536
 20
73.5
 21
73.573
  0
LINE
  8
0
 10
333.536
 11
333.118
 20
73.573
 21
73.786
  0
LINE
  8
0
 10
333.118
 11
332.786
 20
73.786
 21
74.118
  0
LINE
  8
0
 10
332.786
 11
332.573
 20
74.118
 21
74.536
  0
LINE
  8
0
 10
332.573
 11
332.5
 20
74.536
 21
75
  0
LINE
  8
0
 10
350
 11
350
 20
30
 21
130
  0
LINE
  8
0
 10
350
 11
350.027
 20
130
 21
131.047
  0
LINE
  8
0
 10
350.027
 11
350.11
 20
131.047
 21
132.091
  0
LINE
  8
0
 10
350.11
 11
350.246
 20
132.091
 21
133.129
  0
LINE
  8
0
 10
350.246
 11
350.437
 20
133.129
 21
134.158
  0
LINE
  8
0
 10
350.437
 11
350.681
 20
134.158
 21
135.176
  0
LINE
  8
0
 10
350.681
 11
350.979
 20
135.176
 21
136.18
  0
LINE
  8
0
 10
350.979
 11
351.328
 20
136.18
 21
137.167
  0
LINE
  8
0
 10
351.328
 11
351.729
 20
137.167
 21
138.135
  0
LINE
  8
0
 10
351.729
 11
352.18
 20
138.135
 21
139.08
  0
LINE
  8
0
 10
352.18
 11
352.679
 20
139.08
 21
140
  0
LINE
  8
0
 10
352.679
 11
353.227
 20
140
 21
140.893
  0
LINE
  8
0
 10
353.227
 11
353.82
 20
140.893
 21
141.756
  0
LINE
  8
0
 10
353.82
 11
354.457
 20
141.756
 21
142.586
  0
LINE
  8
0
 10
354.457
 11
355.137
 20
142.586
 21
143.383
  0
LINE
  8
0
 10
355.137
 11
355.858
 20
143.383
 21
144.142
  0
LINE
  8
0
 10
355.858
 11
356.617
 20
144.142
 21
144.863
  0
LINE
  8
0
 10
356.617
 11
357.414
 20
144.863
 21
145.543
  0
LINE
  8
0
 10
357.414
 11
358.244
 20
145.543
 21
146.18
  0
LINE
  8
0
 10
358.244
 11
359.107
 20
146.18
 21
146.773
  0
LINE
  8
0
 10
359.107
 11
360
 20
146.773
 21
147.321
  0
LINE
  8
0
 10
360
 11
360.92
 20
147.321
 21
147.82
  0
LINE
  8
0
 10
360.92
 11
361.865
 20
147.82
 21
148.271
  0
LINE
  8
0
 10
361.865
 11
362.833
 20
148.271
 21
148.672
  0
LINE
  8
0
 10
362.833
 11
363.82
 20
148.672
 21
149.021
  0
LINE
  8
0
 10
363.82
 11
364.824
 20
149.021
 21
149.319
  0
LINE
  8
0
 10
364.824
 11
365.842
 20
149.319
 21
149.563
  0
LINE
  8
0
 10
365.842
 11
366.871
 20
149.563
 21
149.754
  0
LINE
  8
0
 10
366.871
 11
367.909
 20
149.754
 21
149.89
  0
LINE
  8
0
 10
367.909
 11
368.953
 20
149.89
 21
149.973
  0
LINE
  8
0
 10
368.953
 11
370
 20
149.973
 21
150
  0
LINE
  8
0
 10
370
 11
371.047
 20
150
 21
149.973
  0
LINE
  8
0
 10
371.047
 11
372.091
 20
149.973
 21
149.89
  0
LINE
  8
0
 10
372.091
 11
373.129
 20
149.89
 21
149.754
  0
LINE
  8
0
 10
373.129
 11
374.158
 20
149.754
 21
149.563
  0
LINE
  8
0
 10
374.158
 11
375.176
 20
149.563
 21
149.319
  0
LINE
  8
0
 10
375.176
 11
376.18
 20
149.319
 21
149.021
  0
LINE
  8
0
 10
376.18
 11
377.167
 20
149.021
 21
148.672
  0
LINE
  8
0
 10
377.167
 11
378.135
 20
148.672
 21
148.271
  0
LINE
  8
0
 10
378.135
 11
379.08
 20
148.271
 21
147.82
  0
LINE
  8
0
 10
379.08
 11
380
 20
147.82
 21
147.321
  0
LINE
  8
0
 10
380
 11
380.893
 20
147.321
 21
146.773
  0
LINE
  8
0
 10
380.893
 11
381.756
 20
146.773
 21
146.18
  0
LINE
  8
0
 10
381.756
 11
382.586
 20
146.18
 21
145.543
  0
LINE
  8
0
 10
382.586
 11
383.383
 20
145.543
 21
144.863
  0
LINE
  8
0
 10
383.383
 11
384.142
 20
144.863
 21
144.142
  0
LINE
  8
0
 10
384.142
 11
384.863
 20
144.142
 21
143.383
  0
LINE
  8
0
 10
384.863
 11
385.543
 20
143.383
 21
142.586
  0
LINE
  8
0
 10
385.543
 11
386.18
 20
142.586
 21
141.756
  0
LINE
  8
0
 10
386.18
 11
386.773
 20
141.756
 21
140.893
  0
LINE
  8
0
 10
386.773
 11
387.321
 20
140.893
 21
140
  0
LINE
  8
0
 10
387.321
 11
387.82
 20
140
 21
139.08
  0
LINE
  8
0
 10
387.82
 11
388.271
 20
139.08
 21
138.135
  0
LINE
  8
0
 10
388.271
 11
388.672
 20
138.135
 21
137.167
  0
LINE
  8
0
 10
388.672
 11
389.021
 20
137.167
 21
136.18
  0
LINE
  8
0
 10
389.021
 11
389.319
 20
136.18
 21
135.176
  0
LINE
  8
0
 10
389.319
 11
389.563
 20
135.176
 21
134.158
  0
LINE
  8
0
 10
389.563
 11
389.754
 20
134.158
 21
133.129
  0
LINE
  8
0
 10
389.754
 11
389.89
 20
133.129
 21
132.091
  0
LINE
  8
0
 10
389.89
 11
389.973
 20
132.091
 21
131.047
  0
LINE
  8
0
 10
389.973
 11
390
 20
131.047
 21
130
  0
LINE
  8
0
 10
390
 11
390
 20
130
 21
30
  0
LINE
  8
0
 10
390
 11
389.973
 20
30
 21
28.953
  0
LINE
  8
0
 10
389.973
 11
389.89
 20
28.953
 21
27.909
  0
LINE
  8
0
 10
389.89
 11
389.754
 20
27.909
 21
26.871
  0
LINE
  8
0
 10
389.754
 11
389.563
 20
26.871
 21
25.842
  0
LINE
  8
0
 10
389.563
 11
389.319
 20
25.842
 21
24.824
  0
LINE
  8
0
 10
389.319
 11
389.021
 20
24.824
 21
23.82
  0
LINE
  8
0
 10
389.021
 11
388.672
 20
23.82
 21
22.833
  0
LINE
  8
0
 10
388.672
 11
388.271
 20
22.833
 21
21.865
  0
LINE
  8
0
 10
388.271
 11
387.82
 20
21.865
 21
20.92
  0
LINE
  8
0
 10
387.82
 11
387.321
 20
20.92
 21
20
  0
LINE
  8
0
 10
387.321
 11
386.773
 20
20
 21
19.107
  0
LINE
  8
0
 10
386.773
 11
386.18
 20
19.107
 21
18.244
  0
LINE
  8
0
 10
386.18
 11
385.543
 20
18.244
 21
17.414
  0
LINE
  8
0
 10
385.543
 11
384.863
 20
17.414
 21
16.617
  0
LINE
  8
0
 10
384.863
 11
384.142
 20
16.617
 21
15.858
  0
LINE
  8
0
 10
384.142
 11
383.383
 20
15.858
 21
15.137
  0
LINE
  8
0
 10
383.383
 11
382.586
 20
15.137
 21
14.457
  0
LINE
  8
0
 10
382.586
 11
381.756
 20
14.457
 21
13.82
  0
LINE
  8
0
 10
381.756
 11
380.893
 20
13.82
 21
13.227
  0
LINE
  8
0
 10
380.893
 11
380
 20
13.227
 21
12.679
  0
LINE
  8
0
 10
380
 11
379.08
 20
12.679
 21
12.18
  0
LINE
  8
0
 10
379.08
 11
378.135
 20
12.18
 21
11.729
  0
LINE
  8
0
 10
378.135
 11
377.167
 20
11.729
 21
11.328
  0
LINE
  8
0
 10
377.167
 11
376.18
 20
11.328
 21
10.979
  0
LINE
  8
0
 10
376.18
 11
375.176
 20
10.979
 21
10.681
  0
LINE
  8
0
 10
375.176
 11
374.158
 20
10.681
 21
10.437
  0
LINE
  8
0
 10
374.158
 11
373.129
 20
10.437
 21
10.246
  0
LINE
  8
0
 10
373.129
 11
372.091
 20
10.246
 21
10.11
  0
LINE
  8
0
 10
372.091
 11
371.047
 20
10.11
 21
10.027
  0
LINE
  8
0
 10
371.047
 11
370
 20
10.027
 21
10
  0
LINE
  8
0
 10
370
 11
368.953
 20
10
 21
10.027
  0
LINE
  8
0
 10
368.953
 11
367.909
 20
10.027
 21
10.11
  0
LINE
  8
0
 10
367.909
 11
366.871
 20
10.11
 21
10.246
  0
LINE
  8
0
 10
366.871
 11
365.842
 20
10.246
 21
10.437
  0
LINE
  8
0
 10
365.842
 11
364.824
 20
10.437
 21
10.681
  0
LINE
  8
0
 10
364.824
 11
363.82
 20
10.681
 21
10.979
  0
LINE
  8
0
 10
363.82
 11
362.833
 20
10.979
 21
11.328
  0
LINE
  8
0
 10
362.833
 11
361.865
 20
11.328
 21
11.729
  0
LINE
  8
0
 10
361.865
 11
360.92
 20
11.729
 21
12.18
  0
LINE
  8
0
 10
360.92
 11
360
 20
12.18
 21
12.679
  0
LINE
  8
0
 10
360
 11
359.107
 20
12.679
 21
13.227
  0
LINE
  8
0
 10
359.107
 11
358.244
 20
13.227
 21
13.82
  0
LINE
  8
0
 10
358.244
 11
357.414
 20
13.82
 21
14.457
  0
LINE
  8
0
 10
357.414
 11
356.617
 20
14.457
 21
15.137
  0
LINE
  8
0
 10
356.617
 11
355.858
 20
15.137
 21
15.858
  0
LINE
  8
0
 10
355.858
 11
355.137
 20
15.858
 21
16.617
  0
LINE
  8
0
 10
355.137
 11
354.457
 20
16.617
 21
17.414
  0
LINE
  8
0
 10
354.457
 11
353.82
 20
17.414
 21
18.244
  0
LINE
  8
0
 10
353.82
 11
353.227
 20
18.244
 21
19.107
  0
LINE
  8
0
 10
353.227
 11
352.679
 20
19.107
 21
20
  0
LINE
  8
0
 10
352.679
 11
352.18
 20
20
 21
20.92
  0
LINE
  8
0
 10
352.18
 11
351.729
 20
20.92
 21
21.865
  0
LINE
  8
0
 10
351.729
 11
351.328
 20
21.865
 21
22.833
  0
LINE
  8
0
 10
351.328
 11
350.979
 20
22.833
 21
23.82
  0
LINE
  8
0
 10
350.979
 11
350.681
 20
23.82
 21
24.824
  0
LINE
  8
0
 10
350.681
 11
350.437
 20
24.824
 21
25.842
  0
LINE
  8
0
 10
350.437
 11
350.246
 20
25.842
 21
26.871
  0
LINE
  8
0
 10
350.246
 11
350.11
 20
26.871
 21
27.909
  0
LINE
  8
0
 10
350.11
 11
350.027
 20
27.909
 21
28.953
  0
LINE
  8
0
 10
350.027
 11
350
 20
28.953
 21
30
  0
LINE
  8
0
 10
354.5
 11
354.573
 20
30
 21
30.464
  0
LINE
  8
0
 10
354.573
 11
354.786
 20
30.464
 21
30.882
  0
LINE
  8
0
 10
354.786
 11
355.118
 20
30.882
 21
31.214
  0
LINE
  8
0
 10
355.118
 11
355.536
 20
31.214
 21
31.427
  0
LINE
  8
0
 10
355.536
 11
356
 20
31.427
 21
31.5
  0
LINE
  8
0
 10
356
 11
356.464
 20
31.5
 21
31.427
  0
LINE
  8
0
 10
356.464
 11
356.882
 20
31.427
 21
31.214
  0
LINE
  8
0
 10
356.882
 11
357.214
 20
31.214
 21
30.882
  0
LINE
  8
0
 10
357.214
 11
357.427
 20
30.882
 21
30.464
  0
LINE
  8
0
 10
357.427
 11
357.5
 20
30.464
 21
30
  0
LINE
  8
0
 10
357.5
 11
357.427
 20
30
 21
29.536
  0
LINE
  8
0
 10
357.427
 11
357.214
 20
29.536
 21
29.118
  0
LINE
  8
0
 10
357.214
 11
356.882
 20
29.118
 21
28.786
  0
LINE
  8
0
 10
356.882
 11
356.464
 20
28.786
 21
28.573
  0
LINE
  8
0
 10
356.464
 11
356
 20
28.573
 21
28.5
  0
LINE
  8
0
 10
356
 11
355.536
 20
28.5
 21
28.573
  0
LINE
  8
0
 10
355.536
 11
355.118
 20
28.573
 21
28.786
  0
LINE
  8
0
 10
355.118
 11
354.786
 20
28.786
 21
29.118
  0
LINE
  8
0
 10
354.786
 11
354.573
 20
29.118
 21
29.536
  0
LINE
  8
0
 10
354.573
 11
354.5
 20
29.536
 21
30
  0
LINE
  8
0
 10
354.5
 11
354.573
 20
130
 21
130.464
  0
LINE
  8
0
 10
354.573
 11
354.786
 20
130.464
 21
130.882
  0
LINE
  8
0
 10
354.786
 11
355.118
 20
130.882
 21
131.214
  0
LINE
  8
0
 10
355.118
 11
355.536
 20
131.214
 21
131.427
  0
LINE
  8
0
 10
355.536
 11
356
 20
131.427
 21
131.5
  0
LINE
  8
0
 10
356
 11
356.464
 20
131.5
 21
131.427
  0
LINE
  8
0
 10
356.464
 11
356.882
 20
131.427
 21
131.214
  0
LINE
  8
0
 10
356.882
 11
357.214
 20
131.214
 21
130.882
  0
LINE
  8
0
 10
357.214
 11
357.427
 20
130.882
 21
130.464
  0
LINE
  8
0
 10
357.427
 11
357.5
 20
130.464
 21
130
  0
LINE
  8
0
 10
357.5
 11
357.427
 20
130
 21
129.536
  0
LINE
  8
0
 10
357.427
 11
357.214
 20
129.536
 21
129.118
  0
LINE
  8
0
 10
357.214
 11
356.882
 20
129.118
 21
128.786
  0
LINE
  8
0
 10
356.882
 11
356.464
 20
128.786
 21
128.573
  0
LINE
  8
0
 10
356.464
 11
356
 20
128.573
 21
128.5
  0
LINE
  8
0
 10
356
 11
355.536
 20
128.5
 21
128.573
  0
LINE
  8
0
 10
355.536
 11
355.118
 20
128.573
 21
128.786
  0
LINE
  8
0
 10
355.118
 11
354.786
 20
128.786
 21
129.118
  0
LINE
  8
0
 10
354.786
 11
354.573
 20
129.118
 21
129.536
  0
LINE
  8
0
 10
354.573
 11
354.5
 20
129.536
 21
130
  0
LINE
  8
0
 10
364.953
 11
364.953
 20
18
 21
42
  0
LINE
  8
0
 10
364.953
 11
375.047
 20
42
 21
42
  0
LINE
  8
0
 10
375.047
 11
375.047
 20
42
 21
18
  0
LINE
  8
0
 10
375.047
 11
364.953
 20
18
 21
18
  0
LINE
  8
0
 10
364.953
 11
364.953
 20
118
 21
142
  0
LINE
  8
0
 10
364.953
 11
375.047
 20
142
 21
142
  0
LINE
  8
0
 10
375.047
 11
375.047
 20
142
 21
118
  0
LINE
  8
0
 10
375.047
 11
364.953
 20
118
 21
118
  0
LINE
  8
0
 10
382.5
 11
382.573
 20
30
 21
30.464
  0
LINE
  8
0
 10
382.573
 11
382.786
 20
30.464
 21
30.882
  0
LINE
  8
0
 10
382.786
 11
383.118
 20
30.882
 21
31.214
  0
LINE
  8
0
 10
383.118
 11
383.536
 20
31.214
 21
31.427
  0
LINE
  8
0
 10
383.536
 11
384
 20
31.427
 21
31.5
  0
LINE
  8
0
 10
384
 11
384.464
 20
31.5
 21
31.427
  0
LINE
  8
0
 10
384.464
 11
384.882
 20
31.427
 21
31.214
  0
LINE
  8
0
 10
384.882
 11
385.214
 20
31.214
 21
30.882
  0
LINE
  8
0
 10
385.214
 11
385.427
 20
30.882
 21
30.464
  0
LINE
  8
0
 10
385.427
 11
385.5
 20
30.464
 21
30
  0
LINE
  8
0
 10
385.5
 11
385.427
 20
30
 21
29.536
  0
LINE
  8
0
 10
385.427
 11
385.214
 20
29.536
 21
29.118
  0
LINE
  8
0
 10
385.214
 11
384.882
 20
29.118
 21
28.786
  0
LINE
  8
0
 10
384.882
 11
384.464
 20
28.786
 21
28.573
  0
LINE
  8
0
 10
384.464
 11
384
 20
28.573
 21
28.5
  0
LINE
  8
0
 10
384
 11
383.536
 20
28.5
 21
28.573
  0
LINE
  8
0
 10
383.536
 11
383.118
 20
28.573
 21
28.786
  0
LINE
  8
0
 10
383.118
 11
382.786
 20
28.786
 21
29.118
  0
LINE
  8
0
 10
382.786
 11
382.573
 20
29.118
 21
29.536
  0
LINE
  8
0
 10
382.573
 11
382.5
 20
29.536
 21
30
  0
LINE
  8
0
 10
382.5
 11
382.573
 20
130
 21
130.464
  0
LINE
  8
0
 10
382.573
 11
382.786
 20
130.464
 21
130.882
  0
LINE
  8
0
 10
382.786
 11
383.118
 20
130.882
 21
131.214
  0
LINE
  8
0
 10
383.118
 11
383.536
 20
131.214
 21
131.427
  0
LINE
  8
0
 10
383.536
 11
384
 20
131.427
 21
131.5
  0
LINE
  8
0
 10
384
 11
384.464
 20
131.5
 21
131.427
  0
LINE
  8
0
 10
384.464
 11
384.882
 20
131.427
 21
131.214
  0
LINE
  8
0
 10
384.882
 11
385.214
 20
131.214
 21
130.882
  0
LINE
  8
0
 10
385.214
 11
385.427
 20
130.882
 21
130.464
  0
LINE
  8
0
 10
385.427
 11
385.5
 20
130.464
 21
130
  0
LINE
  8
0
 10
385.5
 11
385.427
 20
130
 21
129.536
  0
LINE
  8
0
 10
385.427
 11
385.214
 20
129.536
 21
129.118
  0
LINE
  8
0
 10
385.214
 11
384.882
 20
129.118
 21
128.786
  0
LINE
  8
0
 10
384.882
 11
384.464
 20
128.786
 21
128.573
  0
LINE
  8
0
 10
384.464
 11
384
 20
128.573
 21
128.5
  0
LINE
  8
0
 10
384
 11
383.536
 20
128.5
 21
128.573
  0
LINE
  8
0
 10
383.536
 11
383.118
 20
128.573
 21
128.786
  0
LINE
  8
0
 10
383.118
 11
382.786
 20
128.786
 21
129.118
  0
LINE
  8
0
 10
382.786
 11
382.573
 20
129.118
 21
129.536
  0
LINE
  8
0
 10
382.573
 11
382.5
 20
129.536
 21
130
  0
ENDSEC
  0
SECTION
  2
OBJECTS
  0
DICTIONARY
  0
ENDSEC
  0
EOF
