999
DXF created by Inkscape
  0
SECTION
  2
HEADER
  9
$ACADVER
  1
AC1014
  9
$HANDSEED
  5
FFFF
  9
$MEASUREMENT
 70
     1
  0
ENDSEC
  0
SECTION
  2
TABLES
  0
TABLE
  2
VPORT
  5
8
330
0
100
AcDbSymbolTable
 70
     4
  0
VPORT
  5
2E
330
8
100
AcDbSymbolTableRecord
100
AcDbViewportTableRecord
  2
*ACTIVE
 70
     0
 10
0.0
 20
0.0
 11
1.0
 21
1.0
 12
210.0
 22
148.5
 13
0.0
 23
0.0
 14
10.0
 24
10.0
 15
10.0
 25
10.0
 16
0.0
 26
0.0
 36
1.0
 17
0.0
 27
0.0
 37
0.0
 40
341.0
 41
1.24
 42
50.0
 43
0.0
 44
0.0
 50
0.0
 51
0.0
 71
     0
 72
   100
 73
     1
 74
     3
 75
     0
 76
     0
 77
     0
 78
     0
  0
ENDTAB
  0
TABLE
  2
LTYPE
  5
5
330
0
100
AcDbSymbolTable
 70
     1
  0
LTYPE
  5
14
330
5
100
AcDbSymbolTableRecord
100
AcDbLinetypeTableRecord
  2
BYBLOCK
 70
     0
  3

 72
    65
 73
     0
 40
0.0
  0
LTYPE
  5
15
330
5
100
AcDbSymbolTableRecord
100
AcDbLinetypeTableRecord
  2
BYLAYER
 70
     0
  3

 72
    65
 73
     0
 40
0.0
  0
LTYPE
  5
16
330
5
100
AcDbSymbolTableRecord
100
AcDbLinetypeTableRecord
  2
CONTINUOUS
 70
     0
  3
Solid line
 72
    65
 73
     0
 40
0.0
  0
ENDTAB
  0
TABLE
  2
LAYER
  5
2
100
AcDbSymbolTable
 70
1
  0
LAYER
  5
50
100
AcDbSymbolTableRecord
100
AcDbLayerTableRecord
  2
0
 70
0
  6
CONTINUOUS
  0
ENDTAB
  0
TABLE
  2
STYLE
  5
3
330
0
100
AcDbSymbolTable
 70
     1
  0
STYLE
  5
11
330
3
100
AcDbSymbolTableRecord
100
AcDbTextStyleTableRecord
  2
STANDARD
 70
     0
 40
0.0
 41
1.0
 50
0.0
 71
     0
 42
2.5
  3
txt
  4

  0
ENDTAB
  0
TABLE
  2
VIEW
  5
6
330
0
100
AcDbSymbolTable
 70
     0
  0
ENDTAB
  0
TABLE
  2
UCS
  5
7
330
0
100
AcDbSymbolTable
 70
     0
  0
ENDTAB
  0
TABLE
  2
APPID
  5
9
330
0
100
AcDbSymbolTable
 70
     2
  0
APPID
  5
12
330
9
100
AcDbSymbolTableRecord
100
AcDbRegAppTableRecord
  2
ACAD
 70
     0
  0
ENDTAB
  0
TABLE
  2
DIMSTYLE
  5
A
330
0
100
AcDbSymbolTable
 70
     1
  0
DIMSTYLE
105
27
330
A
100
AcDbSymbolTableRecord
100
AcDbDimStyleTableRecord
  2
ISO-25
 70
     0
  3

  4

  5

  6

  7

 40
1.0
 41
2.5
 42
0.625
 43
3.75
 44
1.25
 45
0.0
 46
0.0
 47
0.0
 48
0.0
140
2.5
141
2.5
142
0.0
143
0.03937007874016
144
1.0
145
0.0
146
1.0
147
0.625
 71
     0
 72
     0
 73
     0
 74
     0
 75
     0
 76
     0
 77
     1
 78
     8
170
     0
171
     3
172
     1
173
     0
174
     0
175
     0
176
     0
177
     0
178
     0
270
     2
271
     2
272
     2
273
     2
274
     3
340
11
275
     0
280
     0
281
     0
282
     0
283
     0
284
     8
285
     0
286
     0
287
     3
288
     0
  0
ENDTAB
  0
TABLE
  2
BLOCK_RECORD
  5
1
330
0
100
AcDbSymbolTable
 70
     1
  0
BLOCK_RECORD
  5
1F
330
1
100
AcDbSymbolTableRecord
100
AcDbBlockTableRecord
  2
*MODEL_SPACE
  0
BLOCK_RECORD
  5
1B
330
1
100
AcDbSymbolTableRecord
100
AcDbBlockTableRecord
  2
*PAPER_SPACE
  0
ENDTAB
  0
ENDSEC
  0
SECTION
  2
BLOCKS
  0
BLOCK
  5
20
330
1F
100
AcDbEntity
  8
0
100
AcDbBlockBegin
  2
*MODEL_SPACE
 70
     0
 10
0.0
 20
0.0
 30
0.0
  3
*MODEL_SPACE
  1

  0
ENDBLK
  5
21
330
1F
100
AcDbEntity
  8
0
100
AcDbBlockEnd
  0
BLOCK
  5
1C
330
1B
100
AcDbEntity
 67
     1
  8
0
100
AcDbBlockBegin
  2
*PAPER_SPACE
  1

  0
ENDBLK
  5
1D
330
1B
100
AcDbEntity
 67
     1
  8
0
100
AcDbBlockEnd
  0
ENDSEC
  0
SECTION
  2
ENTITIES
  0
LWPOLYLINE
  5
100
100
AcDbEntity
  8
0
 62
7
100
AcDbPolyline
 90
21
 70
0
 10
0.138611
 20
5.143472
 30
0.0
 10
0.138611
 20
245.143472
 30
0.0
 10
0.519611
 20
247.056473
 30
0.0
 10
1.602611
 20
248.679473
 30
0.0
 10
3.225611
 20
249.762473
 30
0.0
 10
5.138611
 20
250.143473
 30
0.0
 10
215.138610
 20
250.143473
 30
0.0
 10
217.051611
 20
249.762473
 30
0.0
 10
218.674611
 20
248.679473
 30
0.0
 10
219.757611
 20
247.056473
 30
0.0
 10
220.138611
 20
245.143472
 30
0.0
 10
220.138611
 20
5.143472
 30
0.0
 10
219.757611
 20
3.230485
 30
0.0
 10
218.674611
 20
1.607481
 30
0.0
 10
217.051611
 20
0.524482
 30
0.0
 10
215.138610
 20
0.143482
 30
0.0
 10
5.138611
 20
0.143482
 30
0.0
 10
3.225611
 20
0.524482
 30
0.0
 10
1.602611
 20
1.607481
 30
0.0
 10
0.519611
 20
3.230485
 30
0.0
 10
0.138611
 20
5.143472
 30
0.0
  0
LWPOLYLINE
  5
101
100
AcDbEntity
  8
0
 62
7
100
AcDbPolyline
 90
21
 70
0
 10
3.638611
 20
35.143471
 30
0.0
 10
3.711611
 20
35.607473
 30
0.0
 10
3.924611
 20
36.025472
 30
0.0
 10
4.256611
 20
36.357473
 30
0.0
 10
4.674611
 20
36.570471
 30
0.0
 10
5.138611
 20
36.643471
 30
0.0
 10
5.602611
 20
36.570471
 30
0.0
 10
6.020611
 20
36.357473
 30
0.0
 10
6.352611
 20
36.025472
 30
0.0
 10
6.565611
 20
35.607473
 30
0.0
 10
6.638611
 20
35.143471
 30
0.0
 10
6.565611
 20
34.679472
 30
0.0
 10
6.352611
 20
34.261473
 30
0.0
 10
6.020611
 20
33.929472
 30
0.0
 10
5.602611
 20
33.716471
 30
0.0
 10
5.138611
 20
33.643471
 30
0.0
 10
4.674611
 20
33.716471
 30
0.0
 10
4.256611
 20
33.929472
 30
0.0
 10
3.924611
 20
34.261473
 30
0.0
 10
3.711611
 20
34.679472
 30
0.0
 10
3.638611
 20
35.143471
 30
0.0
  0
LWPOLYLINE
  5
102
100
AcDbEntity
  8
0
 62
7
100
AcDbPolyline
 90
21
 70
0
 10
3.638611
 20
245.143472
 30
0.0
 10
3.711611
 20
245.607473
 30
0.0
 10
3.924611
 20
246.025472
 30
0.0
 10
4.256611
 20
246.357473
 30
0.0
 10
4.674611
 20
246.570472
 30
0.0
 10
5.138611
 20
246.643471
 30
0.0
 10
5.602611
 20
246.570472
 30
0.0
 10
6.020611
 20
246.357473
 30
0.0
 10
6.352611
 20
246.025472
 30
0.0
 10
6.565611
 20
245.607473
 30
0.0
 10
6.638611
 20
245.143472
 30
0.0
 10
6.565611
 20
244.679473
 30
0.0
 10
6.352611
 20
244.261473
 30
0.0
 10
6.020611
 20
243.929473
 30
0.0
 10
5.602611
 20
243.716471
 30
0.0
 10
5.138611
 20
243.643472
 30
0.0
 10
4.674611
 20
243.716471
 30
0.0
 10
4.256611
 20
243.929473
 30
0.0
 10
3.924611
 20
244.261473
 30
0.0
 10
3.711611
 20
244.679473
 30
0.0
 10
3.638611
 20
245.143472
 30
0.0
  0
LWPOLYLINE
  5
103
100
AcDbEntity
  8
0
 62
7
100
AcDbPolyline
 90
21
 70
0
 10
8.638611
 20
135.143471
 30
0.0
 10
8.711610
 20
135.607473
 30
0.0
 10
8.924612
 20
136.025472
 30
0.0
 10
9.256612
 20
136.357473
 30
0.0
 10
9.674612
 20
136.570472
 30
0.0
 10
10.138610
 20
136.643471
 30
0.0
 10
10.602612
 20
136.570472
 30
0.0
 10
11.020611
 20
136.357473
 30
0.0
 10
11.352612
 20
136.025472
 30
0.0
 10
11.565611
 20
135.607473
 30
0.0
 10
11.638610
 20
135.143471
 30
0.0
 10
11.565611
 20
134.679473
 30
0.0
 10
11.352612
 20
134.261473
 30
0.0
 10
11.020611
 20
133.929473
 30
0.0
 10
10.602612
 20
133.716471
 30
0.0
 10
10.138610
 20
133.643472
 30
0.0
 10
9.674612
 20
133.716471
 30
0.0
 10
9.256612
 20
133.929473
 30
0.0
 10
8.924612
 20
134.261473
 30
0.0
 10
8.711610
 20
134.679473
 30
0.0
 10
8.638611
 20
135.143471
 30
0.0
  0
LWPOLYLINE
  5
104
100
AcDbEntity
  8
0
 62
7
100
AcDbPolyline
 90
21
 70
0
 10
8.638611
 20
145.143471
 30
0.0
 10
8.711610
 20
145.607473
 30
0.0
 10
8.924612
 20
146.025472
 30
0.0
 10
9.256612
 20
146.357473
 30
0.0
 10
9.674612
 20
146.570471
 30
0.0
 10
10.138610
 20
146.643471
 30
0.0
 10
10.602612
 20
146.570471
 30
0.0
 10
11.020611
 20
146.357473
 30
0.0
 10
11.352612
 20
146.025472
 30
0.0
 10
11.565611
 20
145.607473
 30
0.0
 10
11.638610
 20
145.143471
 30
0.0
 10
11.565611
 20
144.679472
 30
0.0
 10
11.352612
 20
144.261473
 30
0.0
 10
11.020611
 20
143.929473
 30
0.0
 10
10.602612
 20
143.716471
 30
0.0
 10
10.138610
 20
143.643471
 30
0.0
 10
9.674612
 20
143.716471
 30
0.0
 10
9.256612
 20
143.929473
 30
0.0
 10
8.924612
 20
144.261473
 30
0.0
 10
8.711610
 20
144.679472
 30
0.0
 10
8.638611
 20
145.143471
 30
0.0
  0
LWPOLYLINE
  5
105
100
AcDbEntity
  8
0
 62
7
100
AcDbPolyline
 90
21
 70
0
 10
18.638610
 20
135.143471
 30
0.0
 10
18.711610
 20
135.607473
 30
0.0
 10
18.924611
 20
136.025472
 30
0.0
 10
19.256612
 20
136.357473
 30
0.0
 10
19.674611
 20
136.570472
 30
0.0
 10
20.138610
 20
136.643471
 30
0.0
 10
20.602612
 20
136.570472
 30
0.0
 10
21.020611
 20
136.357473
 30
0.0
 10
21.352612
 20
136.025472
 30
0.0
 10
21.565610
 20
135.607473
 30
0.0
 10
21.638610
 20
135.143471
 30
0.0
 10
21.565610
 20
134.679473
 30
0.0
 10
21.352612
 20
134.261473
 30
0.0
 10
21.020611
 20
133.929473
 30
0.0
 10
20.602612
 20
133.716471
 30
0.0
 10
20.138610
 20
133.643472
 30
0.0
 10
19.674611
 20
133.716471
 30
0.0
 10
19.256612
 20
133.929473
 30
0.0
 10
18.924611
 20
134.261473
 30
0.0
 10
18.711610
 20
134.679473
 30
0.0
 10
18.638610
 20
135.143471
 30
0.0
  0
LWPOLYLINE
  5
106
100
AcDbEntity
  8
0
 62
7
100
AcDbPolyline
 90
21
 70
0
 10
18.638610
 20
145.143471
 30
0.0
 10
18.711610
 20
145.607473
 30
0.0
 10
18.924611
 20
146.025472
 30
0.0
 10
19.256612
 20
146.357473
 30
0.0
 10
19.674611
 20
146.570471
 30
0.0
 10
20.138610
 20
146.643471
 30
0.0
 10
20.602612
 20
146.570471
 30
0.0
 10
21.020611
 20
146.357473
 30
0.0
 10
21.352612
 20
146.025472
 30
0.0
 10
21.565610
 20
145.607473
 30
0.0
 10
21.638610
 20
145.143471
 30
0.0
 10
21.565610
 20
144.679472
 30
0.0
 10
21.352612
 20
144.261473
 30
0.0
 10
21.020611
 20
143.929473
 30
0.0
 10
20.602612
 20
143.716471
 30
0.0
 10
20.138610
 20
143.643471
 30
0.0
 10
19.674611
 20
143.716471
 30
0.0
 10
19.256612
 20
143.929473
 30
0.0
 10
18.924611
 20
144.261473
 30
0.0
 10
18.711610
 20
144.679472
 30
0.0
 10
18.638610
 20
145.143471
 30
0.0
  0
LWPOLYLINE
  5
107
100
AcDbEntity
  8
0
 62
7
100
AcDbPolyline
 90
21
 70
0
 10
24.638610
 20
120.143473
 30
0.0
 10
24.711612
 20
120.607472
 30
0.0
 10
24.924611
 20
121.025471
 30
0.0
 10
25.256611
 20
121.357472
 30
0.0
 10
25.674611
 20
121.570473
 30
0.0
 10
26.138612
 20
121.643473
 30
0.0
 10
26.602611
 20
121.570473
 30
0.0
 10
27.020610
 20
121.357472
 30
0.0
 10
27.352611
 20
121.025471
 30
0.0
 10
27.565610
 20
120.607472
 30
0.0
 10
27.638612
 20
120.143473
 30
0.0
 10
27.565610
 20
119.679472
 30
0.0
 10
27.352611
 20
119.261472
 30
0.0
 10
27.020610
 20
118.929472
 30
0.0
 10
26.602611
 20
118.716473
 30
0.0
 10
26.138612
 20
118.643473
 30
0.0
 10
25.674611
 20
118.716473
 30
0.0
 10
25.256611
 20
118.929472
 30
0.0
 10
24.924611
 20
119.261472
 30
0.0
 10
24.711612
 20
119.679472
 30
0.0
 10
24.638610
 20
120.143473
 30
0.0
  0
LWPOLYLINE
  5
108
100
AcDbEntity
  8
0
 62
7
100
AcDbPolyline
 90
21
 70
0
 10
24.638610
 20
160.143472
 30
0.0
 10
24.711612
 20
160.607471
 30
0.0
 10
24.924611
 20
161.025473
 30
0.0
 10
25.256611
 20
161.357474
 30
0.0
 10
25.674611
 20
161.570472
 30
0.0
 10
26.138612
 20
161.643472
 30
0.0
 10
26.602611
 20
161.570472
 30
0.0
 10
27.020610
 20
161.357474
 30
0.0
 10
27.352611
 20
161.025473
 30
0.0
 10
27.565610
 20
160.607471
 30
0.0
 10
27.638612
 20
160.143472
 30
0.0
 10
27.565610
 20
159.679473
 30
0.0
 10
27.352611
 20
159.261471
 30
0.0
 10
27.020610
 20
158.929471
 30
0.0
 10
26.602611
 20
158.716472
 30
0.0
 10
26.138612
 20
158.643472
 30
0.0
 10
25.674611
 20
158.716472
 30
0.0
 10
25.256611
 20
158.929471
 30
0.0
 10
24.924611
 20
159.261471
 30
0.0
 10
24.711612
 20
159.679473
 30
0.0
 10
24.638610
 20
160.143472
 30
0.0
  0
LWPOLYLINE
  5
109
100
AcDbEntity
  8
0
 62
1
100
AcDbPolyline
 90
114
 70
0
 10
25.138611
 20
10.102472
 30
0.0
 10
25.169611
 20
10.406473
 30
0.0
 10
25.261612
 20
10.703473
 30
0.0
 10
25.416612
 20
10.986474
 30
0.0
 10
26.772610
 20
12.980472
 30
0.0
 10
28.128612
 20
14.975473
 30
0.0
 10
29.483612
 20
16.969472
 30
0.0
 10
30.839610
 20
18.964473
 30
0.0
 10
32.195612
 20
20.958471
 30
0.0
 10
33.550612
 20
22.953472
 30
0.0
 10
36.262612
 20
26.941472
 30
0.0
 10
36.418610
 20
27.142471
 30
0.0
 10
36.603610
 20
27.310472
 30
0.0
 10
36.810611
 20
27.445473
 30
0.0
 10
37.035610
 20
27.546472
 30
0.0
 10
37.274610
 20
27.609473
 30
0.0
 10
37.520612
 20
27.635465
 30
0.0
 10
37.769611
 20
27.622463
 30
0.0
 10
38.015610
 20
27.568471
 30
0.0
 10
38.250611
 20
27.473473
 30
0.0
 10
38.462610
 20
27.343473
 30
0.0
 10
38.650610
 20
27.182473
 30
0.0
 10
38.811612
 20
26.994474
 30
0.0
 10
38.940610
 20
26.784472
 30
0.0
 10
39.037610
 20
26.557472
 30
0.0
 10
39.097610
 20
26.315472
 30
0.0
 10
39.117620
 20
26.065472
 30
0.0
 10
39.117611
 20
15.194472
 30
0.0
 10
40.116610
 20
16.663472
 30
0.0
 10
41.115612
 20
18.131471
 30
0.0
 10
42.114611
 20
19.599473
 30
0.0
 10
43.112611
 20
21.068473
 30
0.0
 10
44.111610
 20
22.536472
 30
0.0
 10
45.110612
 20
24.005472
 30
0.0
 10
47.108612
 20
26.941472
 30
0.0
 10
47.264611
 20
27.142471
 30
0.0
 10
47.448611
 20
27.310472
 30
0.0
 10
47.656612
 20
27.445473
 30
0.0
 10
47.881611
 20
27.546472
 30
0.0
 10
48.119611
 20
27.609473
 30
0.0
 10
48.365610
 20
27.635465
 30
0.0
 10
48.614612
 20
27.622463
 30
0.0
 10
48.861610
 20
27.568471
 30
0.0
 10
49.104612
 20
27.473473
 30
0.0
 10
49.323611
 20
27.343473
 30
0.0
 10
49.515612
 20
27.182473
 30
0.0
 10
49.678610
 20
26.994474
 30
0.0
 10
49.810611
 20
26.784472
 30
0.0
 10
49.907611
 20
26.557472
 30
0.0
 10
49.967611
 20
26.315472
 30
0.0
 10
49.988608
 20
26.065472
 30
0.0
 10
49.988611
 20
10.084472
 30
0.0
 10
49.956610
 20
9.765473
 30
0.0
 10
49.865610
 20
9.468474
 30
0.0
 10
49.720610
 20
9.200473
 30
0.0
 10
49.528611
 20
8.967473
 30
0.0
 10
49.295612
 20
8.775471
 30
0.0
 10
49.027611
 20
8.630471
 30
0.0
 10
48.730611
 20
8.538472
 30
0.0
 10
48.410611
 20
8.506471
 30
0.0
 10
48.091612
 20
8.538472
 30
0.0
 10
47.794610
 20
8.630471
 30
0.0
 10
47.526612
 20
8.775471
 30
0.0
 10
47.293612
 20
8.967473
 30
0.0
 10
47.100611
 20
9.200473
 30
0.0
 10
46.955611
 20
9.468474
 30
0.0
 10
46.864611
 20
9.765473
 30
0.0
 10
46.832610
 20
10.084472
 30
0.0
 10
46.832610
 20
20.956473
 30
0.0
 10
45.836611
 20
19.487473
 30
0.0
 10
44.841612
 20
18.019471
 30
0.0
 10
43.845610
 20
16.550473
 30
0.0
 10
42.850610
 20
15.082472
 30
0.0
 10
41.854611
 20
13.613471
 30
0.0
 10
40.858612
 20
12.145473
 30
0.0
 10
39.863612
 20
10.676472
 30
0.0
 10
38.867611
 20
9.208474
 30
0.0
 10
38.703611
 20
9.008471
 30
0.0
 10
38.515612
 20
8.839474
 30
0.0
 10
38.307611
 20
8.704473
 30
0.0
 10
38.081610
 20
8.604473
 30
0.0
 10
37.843610
 20
8.540473
 30
0.0
 10
37.596612
 20
8.514481
 30
0.0
 10
37.343611
 20
8.528471
 30
0.0
 10
37.089611
 20
8.582474
 30
0.0
 10
36.854610
 20
8.676473
 30
0.0
 10
36.642610
 20
8.806471
 30
0.0
 10
36.454611
 20
8.967473
 30
0.0
 10
36.293611
 20
9.155472
 30
0.0
 10
36.164610
 20
9.365471
 30
0.0
 10
36.067611
 20
9.593473
 30
0.0
 10
36.007610
 20
9.834471
 30
0.0
 10
35.987601
 20
10.085471
 30
0.0
 10
35.987612
 20
20.956473
 30
0.0
 10
34.988610
 20
19.487473
 30
0.0
 10
33.989611
 20
18.019471
 30
0.0
 10
32.990612
 20
16.550473
 30
0.0
 10
31.991610
 20
15.082472
 30
0.0
 10
30.993611
 20
13.613471
 30
0.0
 10
28.995610
 20
10.677471
 30
0.0
 10
27.996611
 20
9.208474
 30
0.0
 10
27.796611
 20
8.962472
 30
0.0
 10
27.557611
 20
8.768472
 30
0.0
 10
27.289610
 20
8.629472
 30
0.0
 10
27.001611
 20
8.545472
 30
0.0
 10
26.700610
 20
8.517475
 30
0.0
 10
26.397610
 20
8.546473
 30
0.0
 10
26.100611
 20
8.634473
 30
0.0
 10
25.817610
 20
8.783472
 30
0.0
 10
25.578610
 20
8.991473
 30
0.0
 10
25.388612
 20
9.236473
 30
0.0
 10
25.250611
 20
9.508473
 30
0.0
 10
25.166611
 20
9.800471
 30
0.0
 10
25.138614
 20
10.102472
 30
0.0
  0
LWPOLYLINE
  5
10a
100
AcDbEntity
  8
0
 62
1
100
AcDbPolyline
 90
74
 70
0
 10
51.492610
 20
10.059472
 30
0.0
 10
51.492610
 20
26.040472
 30
0.0
 10
51.523612
 20
26.359474
 30
0.0
 10
51.615611
 20
26.656473
 30
0.0
 10
51.760611
 20
26.924471
 30
0.0
 10
51.952610
 20
27.157471
 30
0.0
 10
52.185612
 20
27.350472
 30
0.0
 10
52.453611
 20
27.494473
 30
0.0
 10
52.750610
 20
27.586472
 30
0.0
 10
53.070610
 20
27.618473
 30
0.0
 10
60.233611
 20
27.618473
 30
0.0
 10
60.553611
 20
27.586472
 30
0.0
 10
60.850611
 20
27.494473
 30
0.0
 10
61.118612
 20
27.350472
 30
0.0
 10
61.351612
 20
27.157471
 30
0.0
 10
61.543610
 20
26.924471
 30
0.0
 10
61.688610
 20
26.656473
 30
0.0
 10
61.780612
 20
26.359474
 30
0.0
 10
61.811611
 20
26.040472
 30
0.0
 10
61.780612
 20
25.720472
 30
0.0
 10
61.688610
 20
25.423472
 30
0.0
 10
61.543610
 20
25.155471
 30
0.0
 10
61.351612
 20
24.922472
 30
0.0
 10
61.118612
 20
24.730473
 30
0.0
 10
60.850611
 20
24.585473
 30
0.0
 10
60.553611
 20
24.494473
 30
0.0
 10
60.233611
 20
24.462472
 30
0.0
 10
54.648611
 20
24.462472
 30
0.0
 10
54.648611
 20
20.479472
 30
0.0
 10
59.332611
 20
20.479472
 30
0.0
 10
59.651612
 20
20.447471
 30
0.0
 10
59.948612
 20
20.356472
 30
0.0
 10
60.216610
 20
20.212473
 30
0.0
 10
60.450611
 20
20.022473
 30
0.0
 10
60.642610
 20
19.791471
 30
0.0
 10
60.787610
 20
19.528471
 30
0.0
 10
60.878610
 20
19.237472
 30
0.0
 10
60.910611
 20
18.926471
 30
0.0
 10
60.878610
 20
18.607473
 30
0.0
 10
60.787610
 20
18.310473
 30
0.0
 10
60.642610
 20
18.042472
 30
0.0
 10
60.450611
 20
17.808473
 30
0.0
 10
60.216610
 20
17.616472
 30
0.0
 10
59.948612
 20
17.471472
 30
0.0
 10
59.651612
 20
17.380472
 30
0.0
 10
59.332611
 20
17.348471
 30
0.0
 10
54.648611
 20
17.348471
 30
0.0
 10
54.648611
 20
11.637473
 30
0.0
 10
60.734612
 20
11.637473
 30
0.0
 10
61.054612
 20
11.605472
 30
0.0
 10
61.351612
 20
11.514472
 30
0.0
 10
61.619610
 20
11.369472
 30
0.0
 10
61.852612
 20
11.177473
 30
0.0
 10
62.044611
 20
10.943471
 30
0.0
 10
62.189611
 20
10.675473
 30
0.0
 10
62.281610
 20
10.378471
 30
0.0
 10
62.312612
 20
10.059472
 30
0.0
 10
62.281610
 20
9.748472
 30
0.0
 10
62.189611
 20
9.457473
 30
0.0
 10
62.044611
 20
9.193471
 30
0.0
 10
61.852612
 20
8.963474
 30
0.0
 10
61.619610
 20
8.773473
 30
0.0
 10
61.351612
 20
8.629472
 30
0.0
 10
61.054612
 20
8.538472
 30
0.0
 10
60.734612
 20
8.506471
 30
0.0
 10
53.070610
 20
8.506471
 30
0.0
 10
52.750610
 20
8.538472
 30
0.0
 10
52.453611
 20
8.629472
 30
0.0
 10
52.185612
 20
8.773473
 30
0.0
 10
51.952610
 20
8.963474
 30
0.0
 10
51.760611
 20
9.194473
 30
0.0
 10
51.615611
 20
9.457473
 30
0.0
 10
51.523612
 20
9.748472
 30
0.0
 10
51.492610
 20
10.059472
 30
0.0
  0
LWPOLYLINE
  5
10b
100
AcDbEntity
  8
0
 62
7
100
AcDbPolyline
 90
21
 70
0
 10
52.638610
 20
140.143473
 30
0.0
 10
52.711610
 20
140.607471
 30
0.0
 10
52.924611
 20
141.025474
 30
0.0
 10
53.256612
 20
141.357471
 30
0.0
 10
53.674611
 20
141.570473
 30
0.0
 10
54.138610
 20
141.643473
 30
0.0
 10
54.602611
 20
141.570473
 30
0.0
 10
55.020611
 20
141.357471
 30
0.0
 10
55.352611
 20
141.025474
 30
0.0
 10
55.565610
 20
140.607471
 30
0.0
 10
55.638610
 20
140.143473
 30
0.0
 10
55.565610
 20
139.679471
 30
0.0
 10
55.352611
 20
139.261472
 30
0.0
 10
55.020611
 20
138.929471
 30
0.0
 10
54.602611
 20
138.716472
 30
0.0
 10
54.138610
 20
138.643473
 30
0.0
 10
53.674611
 20
138.716472
 30
0.0
 10
53.256612
 20
138.929471
 30
0.0
 10
52.924611
 20
139.261472
 30
0.0
 10
52.711610
 20
139.679471
 30
0.0
 10
52.638610
 20
140.143473
 30
0.0
  0
LWPOLYLINE
  5
10c
100
AcDbEntity
  8
0
 62
1
100
AcDbPolyline
 90
54
 70
0
 10
62.463612
 20
26.015473
 30
0.0
 10
62.496610
 20
26.334472
 30
0.0
 10
62.590612
 20
26.631471
 30
0.0
 10
62.738610
 20
26.899472
 30
0.0
 10
62.932612
 20
27.132472
 30
0.0
 10
63.167610
 20
27.324473
 30
0.0
 10
63.435611
 20
27.469473
 30
0.0
 10
63.729610
 20
27.561472
 30
0.0
 10
64.041610
 20
27.593473
 30
0.0
 10
73.108611
 20
27.593473
 30
0.0
 10
73.420611
 20
27.561472
 30
0.0
 10
73.714610
 20
27.469473
 30
0.0
 10
73.982611
 20
27.324473
 30
0.0
 10
74.216610
 20
27.132472
 30
0.0
 10
74.411611
 20
26.899472
 30
0.0
 10
74.559612
 20
26.631471
 30
0.0
 10
74.653611
 20
26.334472
 30
0.0
 10
74.686612
 20
26.015473
 30
0.0
 10
74.653611
 20
25.703471
 30
0.0
 10
74.559612
 20
25.413473
 30
0.0
 10
74.411611
 20
25.149471
 30
0.0
 10
74.217612
 20
24.919472
 30
0.0
 10
73.982611
 20
24.729471
 30
0.0
 10
73.714610
 20
24.585473
 30
0.0
 10
73.421610
 20
24.494473
 30
0.0
 10
73.108611
 20
24.462472
 30
0.0
 10
70.153612
 20
24.462472
 30
0.0
 10
70.153612
 20
10.059472
 30
0.0
 10
70.121611
 20
9.740471
 30
0.0
 10
70.029612
 20
9.443472
 30
0.0
 10
69.884612
 20
9.175473
 30
0.0
 10
69.692610
 20
8.942474
 30
0.0
 10
69.459610
 20
8.750472
 30
0.0
 10
69.191612
 20
8.605472
 30
0.0
 10
68.894610
 20
8.513473
 30
0.0
 10
68.575611
 20
8.481472
 30
0.0
 10
68.255611
 20
8.513473
 30
0.0
 10
67.958612
 20
8.605472
 30
0.0
 10
67.690611
 20
8.750472
 30
0.0
 10
67.457611
 20
8.942474
 30
0.0
 10
67.265612
 20
9.175473
 30
0.0
 10
67.120612
 20
9.443472
 30
0.0
 10
67.028610
 20
9.740471
 30
0.0
 10
66.996612
 20
10.059472
 30
0.0
 10
66.996612
 20
24.462472
 30
0.0
 10
64.041610
 20
24.462472
 30
0.0
 10
63.729610
 20
24.494473
 30
0.0
 10
63.435611
 20
24.585473
 30
0.0
 10
63.167610
 20
24.729471
 30
0.0
 10
62.932612
 20
24.919472
 30
0.0
 10
62.738610
 20
25.149471
 30
0.0
 10
62.590612
 20
25.413473
 30
0.0
 10
62.496610
 20
25.703471
 30
0.0
 10
62.463612
 20
26.015473
 30
0.0
  0
LWPOLYLINE
  5
10d
100
AcDbEntity
  8
0
 62
1
100
AcDbPolyline
 90
67
 70
0
 10
71.065610
 20
10.096472
 30
0.0
 10
71.094611
 20
10.396471
 30
0.0
 10
71.183610
 20
10.687473
 30
0.0
 10
71.331610
 20
10.961472
 30
0.0
 10
72.689610
 20
12.959472
 30
0.0
 10
74.048612
 20
14.956471
 30
0.0
 10
75.407610
 20
16.954472
 30
0.0
 10
76.766612
 20
18.951473
 30
0.0
 10
78.125611
 20
20.949471
 30
0.0
 10
79.483610
 20
22.946473
 30
0.0
 10
80.842612
 20
24.944474
 30
0.0
 10
82.201611
 20
26.941472
 30
0.0
 10
82.358611
 20
27.142471
 30
0.0
 10
82.542611
 20
27.310472
 30
0.0
 10
82.749610
 20
27.445473
 30
0.0
 10
82.974612
 20
27.546472
 30
0.0
 10
83.212610
 20
27.609473
 30
0.0
 10
83.458612
 20
27.635465
 30
0.0
 10
83.707611
 20
27.622463
 30
0.0
 10
83.954612
 20
27.568471
 30
0.0
 10
84.189612
 20
27.473473
 30
0.0
 10
84.401612
 20
27.343473
 30
0.0
 10
84.589612
 20
27.182473
 30
0.0
 10
84.750611
 20
26.994474
 30
0.0
 10
84.880611
 20
26.784472
 30
0.0
 10
84.976612
 20
26.557472
 30
0.0
 10
85.036612
 20
26.315472
 30
0.0
 10
85.057609
 20
26.065472
 30
0.0
 10
85.057612
 20
10.084472
 30
0.0
 10
85.025611
 20
9.765473
 30
0.0
 10
84.934611
 20
9.468474
 30
0.0
 10
84.790610
 20
9.200473
 30
0.0
 10
84.600610
 20
8.967473
 30
0.0
 10
84.369611
 20
8.775471
 30
0.0
 10
84.106611
 20
8.630471
 30
0.0
 10
83.815611
 20
8.538472
 30
0.0
 10
83.504611
 20
8.506471
 30
0.0
 10
83.184611
 20
8.538472
 30
0.0
 10
82.887611
 20
8.630471
 30
0.0
 10
82.619610
 20
8.775471
 30
0.0
 10
82.386610
 20
8.967473
 30
0.0
 10
82.194612
 20
9.200473
 30
0.0
 10
82.049612
 20
9.468474
 30
0.0
 10
81.958612
 20
9.765473
 30
0.0
 10
81.926611
 20
10.084472
 30
0.0
 10
81.926611
 20
20.956473
 30
0.0
 10
80.927612
 20
19.487473
 30
0.0
 10
79.928610
 20
18.019471
 30
0.0
 10
78.929611
 20
16.550473
 30
0.0
 10
77.930612
 20
15.082472
 30
0.0
 10
76.932612
 20
13.613471
 30
0.0
 10
75.933610
 20
12.145473
 30
0.0
 10
74.934612
 20
10.676472
 30
0.0
 10
73.935613
 20
9.208474
 30
0.0
 10
73.735610
 20
8.962472
 30
0.0
 10
73.496610
 20
8.768472
 30
0.0
 10
73.228612
 20
8.629472
 30
0.0
 10
72.940610
 20
8.544473
 30
0.0
 10
72.639611
 20
8.517464
 30
0.0
 10
72.336612
 20
8.546473
 30
0.0
 10
72.039610
 20
8.634473
 30
0.0
 10
71.756611
 20
8.783472
 30
0.0
 10
71.510610
 20
8.991473
 30
0.0
 10
71.316610
 20
9.236473
 30
0.0
 10
71.177610
 20
9.507471
 30
0.0
 10
71.093612
 20
9.797471
 30
0.0
 10
71.065616
 20
10.096472
 30
0.0
  0
LWPOLYLINE
  5
10e
100
AcDbEntity
  8
0
 62
1
100
AcDbPolyline
 90
115
 70
0
 10
85.830610
 20
10.102472
 30
0.0
 10
85.861610
 20
10.406473
 30
0.0
 10
85.953611
 20
10.703473
 30
0.0
 10
86.109610
 20
10.986474
 30
0.0
 10
87.464612
 20
12.980472
 30
0.0
 10
88.820611
 20
14.975473
 30
0.0
 10
90.176610
 20
16.969472
 30
0.0
 10
91.531612
 20
18.964473
 30
0.0
 10
92.887611
 20
20.958471
 30
0.0
 10
94.243610
 20
22.953472
 30
0.0
 10
95.599611
 20
24.947474
 30
0.0
 10
96.954611
 20
26.941472
 30
0.0
 10
97.111611
 20
27.142471
 30
0.0
 10
97.295612
 20
27.310472
 30
0.0
 10
97.503612
 20
27.445473
 30
0.0
 10
97.728611
 20
27.546472
 30
0.0
 10
97.966612
 20
27.609473
 30
0.0
 10
98.212611
 20
27.635465
 30
0.0
 10
98.461610
 20
27.622463
 30
0.0
 10
98.708611
 20
27.568471
 30
0.0
 10
98.942610
 20
27.473473
 30
0.0
 10
99.155611
 20
27.343473
 30
0.0
 10
99.343611
 20
27.182473
 30
0.0
 10
99.503611
 20
26.994474
 30
0.0
 10
99.633611
 20
26.784472
 30
0.0
 10
99.729612
 20
26.557472
 30
0.0
 10
99.789612
 20
26.315472
 30
0.0
 10
99.810610
 20
26.065472
 30
0.0
 10
99.810612
 20
15.194472
 30
0.0
 10
100.809611
 20
16.663472
 30
0.0
 10
101.807611
 20
18.131471
 30
0.0
 10
102.806610
 20
19.599473
 30
0.0
 10
103.805612
 20
21.068473
 30
0.0
 10
104.804611
 20
22.536472
 30
0.0
 10
105.802611
 20
24.005472
 30
0.0
 10
107.800611
 20
26.941472
 30
0.0
 10
107.956610
 20
27.142471
 30
0.0
 10
108.141612
 20
27.310472
 30
0.0
 10
108.348611
 20
27.445473
 30
0.0
 10
108.573612
 20
27.546472
 30
0.0
 10
108.812612
 20
27.609473
 30
0.0
 10
109.058611
 20
27.635465
 30
0.0
 10
109.307610
 20
27.622463
 30
0.0
 10
109.554611
 20
27.568471
 30
0.0
 10
109.796611
 20
27.473473
 30
0.0
 10
110.015610
 20
27.343473
 30
0.0
 10
110.207611
 20
27.182473
 30
0.0
 10
110.371611
 20
26.994474
 30
0.0
 10
110.502613
 20
26.784472
 30
0.0
 10
110.599612
 20
26.557472
 30
0.0
 10
110.660612
 20
26.315472
 30
0.0
 10
110.680621
 20
26.065472
 30
0.0
 10
110.680610
 20
10.084472
 30
0.0
 10
110.649611
 20
9.765473
 30
0.0
 10
110.557612
 20
9.468474
 30
0.0
 10
110.412612
 20
9.200473
 30
0.0
 10
110.220610
 20
8.967473
 30
0.0
 10
109.987611
 20
8.775471
 30
0.0
 10
109.719612
 20
8.630471
 30
0.0
 10
109.422610
 20
8.538472
 30
0.0
 10
109.102610
 20
8.506471
 30
0.0
 10
108.783611
 20
8.538472
 30
0.0
 10
108.486612
 20
8.630471
 30
0.0
 10
108.218611
 20
8.775471
 30
0.0
 10
107.985611
 20
8.967473
 30
0.0
 10
107.793612
 20
9.200473
 30
0.0
 10
107.648612
 20
9.468474
 30
0.0
 10
107.556610
 20
9.765473
 30
0.0
 10
107.524612
 20
10.084472
 30
0.0
 10
107.524612
 20
20.956473
 30
0.0
 10
106.529612
 20
19.487473
 30
0.0
 10
105.533611
 20
18.019471
 30
0.0
 10
104.537612
 20
16.550473
 30
0.0
 10
103.542612
 20
15.082472
 30
0.0
 10
102.546610
 20
13.613471
 30
0.0
 10
101.551610
 20
12.145473
 30
0.0
 10
100.555611
 20
10.676472
 30
0.0
 10
99.559612
 20
9.208474
 30
0.0
 10
99.396612
 20
9.008471
 30
0.0
 10
99.208610
 20
8.839474
 30
0.0
 10
98.999610
 20
8.704473
 30
0.0
 10
98.774611
 20
8.604473
 30
0.0
 10
98.535611
 20
8.540473
 30
0.0
 10
98.288610
 20
8.514481
 30
0.0
 10
98.035612
 20
8.528471
 30
0.0
 10
97.781612
 20
8.582474
 30
0.0
 10
97.547611
 20
8.676473
 30
0.0
 10
97.334612
 20
8.806471
 30
0.0
 10
97.146612
 20
8.967473
 30
0.0
 10
96.986612
 20
9.155472
 30
0.0
 10
96.856612
 20
9.365471
 30
0.0
 10
96.759612
 20
9.593473
 30
0.0
 10
96.699612
 20
9.834471
 30
0.0
 10
96.679602
 20
10.085471
 30
0.0
 10
96.679611
 20
20.956473
 30
0.0
 10
95.680612
 20
19.487473
 30
0.0
 10
94.681610
 20
18.019471
 30
0.0
 10
93.682611
 20
16.550473
 30
0.0
 10
92.684611
 20
15.082472
 30
0.0
 10
91.685612
 20
13.613471
 30
0.0
 10
89.687612
 20
10.677471
 30
0.0
 10
88.689612
 20
9.208474
 30
0.0
 10
88.488610
 20
8.962472
 30
0.0
 10
88.249610
 20
8.768472
 30
0.0
 10
87.981612
 20
8.629472
 30
0.0
 10
87.693610
 20
8.545472
 30
0.0
 10
87.393611
 20
8.517475
 30
0.0
 10
87.090611
 20
8.546473
 30
0.0
 10
86.792610
 20
8.634473
 30
0.0
 10
86.510611
 20
8.783472
 30
0.0
 10
86.270612
 20
8.991473
 30
0.0
 10
86.081610
 20
9.236473
 30
0.0
 10
85.942610
 20
9.508473
 30
0.0
 10
85.858612
 20
9.800471
 30
0.0
 10
85.830616
 20
10.102472
 30
0.0
  0
LWPOLYLINE
  5
10f
100
AcDbEntity
  8
0
 62
7
100
AcDbPolyline
 90
21
 70
0
 10
99.638612
 20
120.143473
 30
0.0
 10
99.711612
 20
120.607472
 30
0.0
 10
99.924610
 20
121.025471
 30
0.0
 10
100.256611
 20
121.357472
 30
0.0
 10
100.674610
 20
121.570473
 30
0.0
 10
101.138612
 20
121.643473
 30
0.0
 10
101.602611
 20
121.570473
 30
0.0
 10
102.020610
 20
121.357472
 30
0.0
 10
102.352610
 20
121.025471
 30
0.0
 10
102.565612
 20
120.607472
 30
0.0
 10
102.638612
 20
120.143473
 30
0.0
 10
102.565612
 20
119.679472
 30
0.0
 10
102.352610
 20
119.261472
 30
0.0
 10
102.020610
 20
118.929472
 30
0.0
 10
101.602611
 20
118.716473
 30
0.0
 10
101.138612
 20
118.643473
 30
0.0
 10
100.674610
 20
118.716473
 30
0.0
 10
100.256611
 20
118.929472
 30
0.0
 10
99.924610
 20
119.261472
 30
0.0
 10
99.711612
 20
119.679472
 30
0.0
 10
99.638612
 20
120.143473
 30
0.0
  0
LWPOLYLINE
  5
110
100
AcDbEntity
  8
0
 62
7
100
AcDbPolyline
 90
21
 70
0
 10
99.638612
 20
160.143472
 30
0.0
 10
99.711612
 20
160.607471
 30
0.0
 10
99.924610
 20
161.025473
 30
0.0
 10
100.256611
 20
161.357474
 30
0.0
 10
100.674610
 20
161.570472
 30
0.0
 10
101.138612
 20
161.643472
 30
0.0
 10
101.602611
 20
161.570472
 30
0.0
 10
102.020610
 20
161.357474
 30
0.0
 10
102.352610
 20
161.025473
 30
0.0
 10
102.565612
 20
160.607471
 30
0.0
 10
102.638612
 20
160.143472
 30
0.0
 10
102.565612
 20
159.679473
 30
0.0
 10
102.352610
 20
159.261471
 30
0.0
 10
102.020610
 20
158.929471
 30
0.0
 10
101.602611
 20
158.716472
 30
0.0
 10
101.138612
 20
158.643472
 30
0.0
 10
100.674610
 20
158.716472
 30
0.0
 10
100.256611
 20
158.929471
 30
0.0
 10
99.924610
 20
159.261471
 30
0.0
 10
99.711612
 20
159.679473
 30
0.0
 10
99.638612
 20
160.143472
 30
0.0
  0
LWPOLYLINE
  5
111
100
AcDbEntity
  8
0
 62
1
100
AcDbPolyline
 90
78
 70
0
 10
111.436610
 20
10.094474
 30
0.0
 10
111.467612
 20
10.398472
 30
0.0
 10
111.558612
 20
10.694472
 30
0.0
 10
111.710611
 20
10.975473
 30
0.0
 10
116.405612
 20
17.863473
 30
0.0
 10
117.970610
 20
20.158473
 30
0.0
 10
122.665611
 20
27.046473
 30
0.0
 10
124.230610
 20
29.342472
 30
0.0
 10
124.435610
 20
29.586473
 30
0.0
 10
124.678612
 20
29.779474
 30
0.0
 10
124.949610
 20
29.919473
 30
0.0
 10
125.240610
 20
30.003473
 30
0.0
 10
125.541611
 20
30.031470
 30
0.0
 10
125.845612
 20
30.000473
 30
0.0
 10
126.141613
 20
29.909471
 30
0.0
 10
126.422610
 20
29.756473
 30
0.0
 10
126.667610
 20
29.551472
 30
0.0
 10
126.860610
 20
29.308473
 30
0.0
 10
126.999611
 20
29.037472
 30
0.0
 10
127.083611
 20
28.746473
 30
0.0
 10
127.111608
 20
28.445471
 30
0.0
 10
127.080611
 20
28.141473
 30
0.0
 10
126.989611
 20
27.845472
 30
0.0
 10
126.837612
 20
27.564472
 30
0.0
 10
126.663611
 20
27.309473
 30
0.0
 10
126.489612
 20
27.055473
 30
0.0
 10
126.316610
 20
26.800471
 30
0.0
 10
126.142612
 20
26.545472
 30
0.0
 10
125.968610
 20
26.290473
 30
0.0
 10
125.795611
 20
26.036473
 30
0.0
 10
125.621610
 20
25.781471
 30
0.0
 10
125.447611
 20
25.526472
 30
0.0
 10
125.447611
 20
10.101473
 30
0.0
 10
125.415610
 20
9.783473
 30
0.0
 10
125.323611
 20
9.486471
 30
0.0
 10
125.178611
 20
9.218473
 30
0.0
 10
124.985611
 20
8.985473
 30
0.0
 10
124.752611
 20
8.792472
 30
0.0
 10
124.484610
 20
8.647472
 30
0.0
 10
124.188612
 20
8.555474
 30
0.0
 10
123.870610
 20
8.523472
 30
0.0
 10
123.552610
 20
8.555474
 30
0.0
 10
123.255611
 20
8.647472
 30
0.0
 10
122.987610
 20
8.792472
 30
0.0
 10
122.754610
 20
8.985473
 30
0.0
 10
122.561610
 20
9.218473
 30
0.0
 10
122.416612
 20
9.486471
 30
0.0
 10
122.324611
 20
9.783473
 30
0.0
 10
122.292612
 20
10.101473
 30
0.0
 10
122.292612
 20
20.896473
 30
0.0
 10
120.298611
 20
17.972473
 30
0.0
 10
119.301610
 20
16.509472
 30
0.0
 10
118.305611
 20
15.047474
 30
0.0
 10
117.308610
 20
13.585472
 30
0.0
 10
116.311612
 20
12.122472
 30
0.0
 10
115.314611
 20
10.660473
 30
0.0
 10
114.318610
 20
9.198472
 30
0.0
 10
114.195612
 20
9.040472
 30
0.0
 10
114.056612
 20
8.901472
 30
0.0
 10
113.904612
 20
8.783472
 30
0.0
 10
113.740610
 20
8.685474
 30
0.0
 10
113.567611
 20
8.608472
 30
0.0
 10
113.386610
 20
8.553473
 30
0.0
 10
113.201611
 20
8.519473
 30
0.0
 10
113.012612
 20
8.508467
 30
0.0
 10
112.898611
 20
8.512480
 30
0.0
 10
112.783612
 20
8.525482
 30
0.0
 10
112.669611
 20
8.546471
 30
0.0
 10
112.556612
 20
8.576474
 30
0.0
 10
112.445611
 20
8.614472
 30
0.0
 10
112.336611
 20
8.662472
 30
0.0
 10
112.229612
 20
8.718471
 30
0.0
 10
112.125610
 20
8.783472
 30
0.0
 10
111.881612
 20
8.988473
 30
0.0
 10
111.688612
 20
9.231472
 30
0.0
 10
111.548610
 20
9.502473
 30
0.0
 10
111.464612
 20
9.793472
 30
0.0
 10
111.436616
 20
10.094474
 30
0.0
  0
LWPOLYLINE
  5
112
100
AcDbEntity
  8
0
 62
7
100
AcDbPolyline
 90
21
 70
0
 10
117.638610
 20
120.143473
 30
0.0
 10
117.711612
 20
120.607472
 30
0.0
 10
117.924611
 20
121.025471
 30
0.0
 10
118.256612
 20
121.357472
 30
0.0
 10
118.674611
 20
121.570473
 30
0.0
 10
119.138610
 20
121.643473
 30
0.0
 10
119.602611
 20
121.570473
 30
0.0
 10
120.020611
 20
121.357472
 30
0.0
 10
120.352611
 20
121.025471
 30
0.0
 10
120.565610
 20
120.607472
 30
0.0
 10
120.638612
 20
120.143473
 30
0.0
 10
120.565610
 20
119.679472
 30
0.0
 10
120.352611
 20
119.261472
 30
0.0
 10
120.020611
 20
118.929472
 30
0.0
 10
119.602611
 20
118.716473
 30
0.0
 10
119.138610
 20
118.643473
 30
0.0
 10
118.674611
 20
118.716473
 30
0.0
 10
118.256612
 20
118.929472
 30
0.0
 10
117.924611
 20
119.261472
 30
0.0
 10
117.711612
 20
119.679472
 30
0.0
 10
117.638610
 20
120.143473
 30
0.0
  0
LWPOLYLINE
  5
113
100
AcDbEntity
  8
0
 62
7
100
AcDbPolyline
 90
21
 70
0
 10
117.638610
 20
160.143472
 30
0.0
 10
117.711612
 20
160.607471
 30
0.0
 10
117.924611
 20
161.025473
 30
0.0
 10
118.256612
 20
161.357474
 30
0.0
 10
118.674611
 20
161.570472
 30
0.0
 10
119.138610
 20
161.643472
 30
0.0
 10
119.602611
 20
161.570472
 30
0.0
 10
120.020611
 20
161.357474
 30
0.0
 10
120.352611
 20
161.025473
 30
0.0
 10
120.565610
 20
160.607471
 30
0.0
 10
120.638612
 20
160.143472
 30
0.0
 10
120.565610
 20
159.679473
 30
0.0
 10
120.352611
 20
159.261471
 30
0.0
 10
120.020611
 20
158.929471
 30
0.0
 10
119.602611
 20
158.716472
 30
0.0
 10
119.138610
 20
158.643472
 30
0.0
 10
118.674611
 20
158.716472
 30
0.0
 10
118.256612
 20
158.929471
 30
0.0
 10
117.924611
 20
159.261471
 30
0.0
 10
117.711612
 20
159.679473
 30
0.0
 10
117.638610
 20
160.143472
 30
0.0
  0
LWPOLYLINE
  5
114
100
AcDbEntity
  8
0
 62
1
100
AcDbPolyline
 90
105
 70
0
 10
126.584611
 20
18.082472
 30
0.0
 10
126.788610
 20
20.104473
 30
0.0
 10
127.374610
 20
21.988472
 30
0.0
 10
128.301612
 20
23.694472
 30
0.0
 10
129.529611
 20
25.181473
 30
0.0
 10
131.016612
 20
26.408473
 30
0.0
 10
132.722612
 20
27.335472
 30
0.0
 10
134.606611
 20
27.922471
 30
0.0
 10
136.628612
 20
28.126473
 30
0.0
 10
138.650610
 20
27.922471
 30
0.0
 10
140.534610
 20
27.335472
 30
0.0
 10
142.239611
 20
26.408473
 30
0.0
 10
143.727610
 20
25.181473
 30
0.0
 10
144.954611
 20
23.694472
 30
0.0
 10
145.881612
 20
21.988472
 30
0.0
 10
146.467610
 20
20.104473
 30
0.0
 10
146.672610
 20
18.082472
 30
0.0
 10
146.579610
 20
16.719471
 30
0.0
 10
146.307610
 20
15.399472
 30
0.0
 10
145.866612
 20
14.139472
 30
0.0
 10
145.264612
 20
12.952473
 30
0.0
 10
144.510610
 20
11.856472
 30
0.0
 10
143.614611
 20
10.864472
 30
0.0
 10
142.584610
 20
9.994471
 30
0.0
 10
141.431611
 20
9.259471
 30
0.0
 10
141.137612
 20
9.135471
 30
0.0
 10
140.832611
 20
9.074472
 30
0.0
 10
140.527611
 20
9.074472
 30
0.0
 10
140.230612
 20
9.132471
 30
0.0
 10
139.949611
 20
9.244471
 30
0.0
 10
139.693610
 20
9.410471
 30
0.0
 10
139.471612
 20
9.626473
 30
0.0
 10
139.290611
 20
9.890472
 30
0.0
 10
139.166611
 20
10.184471
 30
0.0
 10
139.105612
 20
10.488473
 30
0.0
 10
139.105612
 20
10.793473
 30
0.0
 10
139.162612
 20
11.090473
 30
0.0
 10
139.275611
 20
11.371473
 30
0.0
 10
139.441611
 20
11.628473
 30
0.0
 10
139.657610
 20
11.850472
 30
0.0
 10
139.921612
 20
12.031472
 30
0.0
 10
140.712611
 20
12.534471
 30
0.0
 10
141.418612
 20
13.132472
 30
0.0
 10
142.033611
 20
13.812472
 30
0.0
 10
142.550611
 20
14.564473
 30
0.0
 10
142.964611
 20
15.378472
 30
0.0
 10
143.267611
 20
16.243472
 30
0.0
 10
143.453612
 20
17.148471
 30
0.0
 10
143.517612
 20
18.083471
 30
0.0
 10
143.376610
 20
19.469473
 30
0.0
 10
142.974610
 20
20.761472
 30
0.0
 10
142.339610
 20
21.931472
 30
0.0
 10
141.497612
 20
22.951471
 30
0.0
 10
140.477610
 20
23.793473
 30
0.0
 10
139.307612
 20
24.429472
 30
0.0
 10
138.015610
 20
24.831472
 30
0.0
 10
136.629611
 20
24.971471
 30
0.0
 10
135.242610
 20
24.831472
 30
0.0
 10
133.950611
 20
24.429472
 30
0.0
 10
132.780611
 20
23.793473
 30
0.0
 10
131.760612
 20
22.951471
 30
0.0
 10
130.918610
 20
21.931472
 30
0.0
 10
130.282611
 20
20.761472
 30
0.0
 10
129.880611
 20
19.469473
 30
0.0
 10
129.740612
 20
18.083471
 30
0.0
 10
129.804612
 20
17.148471
 30
0.0
 10
129.990610
 20
16.242473
 30
0.0
 10
130.293612
 20
15.378472
 30
0.0
 10
130.706611
 20
14.564473
 30
0.0
 10
131.224610
 20
13.812472
 30
0.0
 10
131.839612
 20
13.131473
 30
0.0
 10
132.545610
 20
12.534471
 30
0.0
 10
133.336611
 20
12.030473
 30
0.0
 10
133.600611
 20
11.850472
 30
0.0
 10
133.816612
 20
11.627474
 30
0.0
 10
133.982610
 20
11.371473
 30
0.0
 10
134.095611
 20
11.090473
 30
0.0
 10
134.152612
 20
10.793473
 30
0.0
 10
134.152612
 20
10.488473
 30
0.0
 10
134.091612
 20
10.184471
 30
0.0
 10
133.966610
 20
9.890472
 30
0.0
 10
133.847611
 20
9.704474
 30
0.0
 10
133.707612
 20
9.540471
 30
0.0
 10
133.549610
 20
9.399473
 30
0.0
 10
133.375612
 20
9.282472
 30
0.0
 10
133.188611
 20
9.189472
 30
0.0
 10
132.991612
 20
9.122472
 30
0.0
 10
132.787610
 20
9.081474
 30
0.0
 10
132.579612
 20
9.067475
 30
0.0
 10
132.483612
 20
9.070464
 30
0.0
 10
132.387611
 20
9.079476
 30
0.0
 10
132.291610
 20
9.093471
 30
0.0
 10
132.196611
 20
9.114468
 30
0.0
 10
132.102612
 20
9.141480
 30
0.0
 10
132.008612
 20
9.174472
 30
0.0
 10
131.916610
 20
9.213472
 30
0.0
 10
131.825611
 20
9.259471
 30
0.0
 10
130.672611
 20
9.993472
 30
0.0
 10
129.642610
 20
10.864472
 30
0.0
 10
128.746611
 20
11.855473
 30
0.0
 10
127.992612
 20
12.952473
 30
0.0
 10
127.390610
 20
14.138473
 30
0.0
 10
126.948610
 20
15.399472
 30
0.0
 10
126.676610
 20
16.719471
 30
0.0
 10
126.584611
 20
18.082472
 30
0.0
  0
LWPOLYLINE
  5
115
100
AcDbEntity
  8
0
 62
1
100
AcDbPolyline
 90
35
 70
0
 10
135.050612
 20
6.721472
 30
0.0
 10
135.050612
 20
12.612472
 30
0.0
 10
135.082610
 20
12.930471
 30
0.0
 10
135.174612
 20
13.226471
 30
0.0
 10
135.319612
 20
13.494472
 30
0.0
 10
135.512610
 20
13.728471
 30
0.0
 10
135.746611
 20
13.921472
 30
0.0
 10
136.014612
 20
14.066472
 30
0.0
 10
136.310610
 20
14.158474
 30
0.0
 10
136.628612
 20
14.190472
 30
0.0
 10
136.946612
 20
14.158474
 30
0.0
 10
137.242612
 20
14.066472
 30
0.0
 10
137.510610
 20
13.921472
 30
0.0
 10
137.743610
 20
13.728471
 30
0.0
 10
137.936611
 20
13.494472
 30
0.0
 10
138.082610
 20
13.226471
 30
0.0
 10
138.174611
 20
12.930471
 30
0.0
 10
138.206613
 20
12.612472
 30
0.0
 10
138.206613
 20
6.721472
 30
0.0
 10
138.174611
 20
6.403473
 30
0.0
 10
138.082610
 20
6.107472
 30
0.0
 10
137.936611
 20
5.839471
 30
0.0
 10
137.743610
 20
5.605472
 30
0.0
 10
137.510610
 20
5.412472
 30
0.0
 10
137.242612
 20
5.267472
 30
0.0
 10
136.946612
 20
5.175473
 30
0.0
 10
136.628612
 20
5.143472
 30
0.0
 10
136.310610
 20
5.175473
 30
0.0
 10
136.014612
 20
5.267472
 30
0.0
 10
135.746611
 20
5.412472
 30
0.0
 10
135.512610
 20
5.605472
 30
0.0
 10
135.319612
 20
5.839471
 30
0.0
 10
135.174612
 20
6.107472
 30
0.0
 10
135.082610
 20
6.403473
 30
0.0
 10
135.050612
 20
6.721472
 30
0.0
  0
LWPOLYLINE
  5
116
100
AcDbEntity
  8
0
 62
1
100
AcDbPolyline
 90
69
 70
0
 10
147.727611
 20
15.069473
 30
0.0
 10
147.727611
 20
26.065472
 30
0.0
 10
147.759612
 20
26.384473
 30
0.0
 10
147.851611
 20
26.681472
 30
0.0
 10
147.996611
 20
26.949473
 30
0.0
 10
148.188612
 20
27.183472
 30
0.0
 10
148.421612
 20
27.375471
 30
0.0
 10
148.689610
 20
27.519472
 30
0.0
 10
148.986610
 20
27.611471
 30
0.0
 10
149.305611
 20
27.643472
 30
0.0
 10
149.625612
 20
27.611471
 30
0.0
 10
149.922611
 20
27.519472
 30
0.0
 10
150.190612
 20
27.375471
 30
0.0
 10
150.423612
 20
27.183472
 30
0.0
 10
150.615610
 20
26.949473
 30
0.0
 10
150.760611
 20
26.681472
 30
0.0
 10
150.852612
 20
26.384473
 30
0.0
 10
150.884611
 20
26.065472
 30
0.0
 10
150.884611
 20
15.069473
 30
0.0
 10
150.962611
 20
14.284472
 30
0.0
 10
151.187610
 20
13.554473
 30
0.0
 10
151.544610
 20
12.894474
 30
0.0
 10
152.017611
 20
12.320473
 30
0.0
 10
152.591612
 20
11.847472
 30
0.0
 10
153.251611
 20
11.490472
 30
0.0
 10
153.981610
 20
11.265473
 30
0.0
 10
154.766611
 20
11.187472
 30
0.0
 10
155.544610
 20
11.265473
 30
0.0
 10
156.270610
 20
11.490472
 30
0.0
 10
156.930612
 20
11.847472
 30
0.0
 10
157.505612
 20
12.320473
 30
0.0
 10
157.981610
 20
12.894474
 30
0.0
 10
158.341610
 20
13.554473
 30
0.0
 10
158.569612
 20
14.284472
 30
0.0
 10
158.648612
 20
15.069473
 30
0.0
 10
158.648612
 20
26.065472
 30
0.0
 10
158.680610
 20
26.384473
 30
0.0
 10
158.771613
 20
26.681472
 30
0.0
 10
158.916610
 20
26.949473
 30
0.0
 10
159.108611
 20
27.183472
 30
0.0
 10
159.342610
 20
27.375471
 30
0.0
 10
159.610611
 20
27.519472
 30
0.0
 10
159.907611
 20
27.611471
 30
0.0
 10
160.226612
 20
27.643472
 30
0.0
 10
160.546610
 20
27.611471
 30
0.0
 10
160.842610
 20
27.519472
 30
0.0
 10
161.111610
 20
27.375471
 30
0.0
 10
161.344610
 20
27.183472
 30
0.0
 10
161.536611
 20
26.949473
 30
0.0
 10
161.681612
 20
26.681472
 30
0.0
 10
161.772611
 20
26.384473
 30
0.0
 10
161.804612
 20
26.065472
 30
0.0
 10
161.804612
 20
15.069473
 30
0.0
 10
161.661610
 20
13.652472
 30
0.0
 10
161.250610
 20
12.331471
 30
0.0
 10
160.601612
 20
11.136472
 30
0.0
 10
159.741610
 20
10.094474
 30
0.0
 10
158.699612
 20
9.234472
 30
0.0
 10
157.503611
 20
8.584472
 30
0.0
 10
156.183612
 20
8.174471
 30
0.0
 10
154.766611
 20
8.030472
 30
0.0
 10
153.349610
 20
8.174471
 30
0.0
 10
152.028610
 20
8.584472
 30
0.0
 10
150.833610
 20
9.234472
 30
0.0
 10
149.791612
 20
10.094474
 30
0.0
 10
148.931610
 20
11.136472
 30
0.0
 10
148.281610
 20
12.331471
 30
0.0
 10
147.871612
 20
13.652472
 30
0.0
 10
147.727611
 20
15.069473
 30
0.0
  0
LWPOLYLINE
  5
117
100
AcDbEntity
  8
0
 62
1
100
AcDbPolyline
 90
35
 70
0
 10
163.258610
 20
10.084472
 30
0.0
 10
163.258610
 20
26.040472
 30
0.0
 10
163.289612
 20
26.359474
 30
0.0
 10
163.381611
 20
26.656473
 30
0.0
 10
163.526611
 20
26.924471
 30
0.0
 10
163.718613
 20
27.157471
 30
0.0
 10
163.951612
 20
27.350472
 30
0.0
 10
164.219611
 20
27.494473
 30
0.0
 10
164.516610
 20
27.586472
 30
0.0
 10
164.836610
 20
27.618473
 30
0.0
 10
165.148610
 20
27.586472
 30
0.0
 10
165.441610
 20
27.494473
 30
0.0
 10
165.709611
 20
27.350472
 30
0.0
 10
165.944612
 20
27.157471
 30
0.0
 10
166.139611
 20
26.924471
 30
0.0
 10
166.286612
 20
26.656473
 30
0.0
 10
166.380612
 20
26.359474
 30
0.0
 10
166.413612
 20
26.040472
 30
0.0
 10
166.413612
 20
10.084472
 30
0.0
 10
166.380612
 20
9.765473
 30
0.0
 10
166.286612
 20
9.468474
 30
0.0
 10
166.139611
 20
9.200473
 30
0.0
 10
165.944612
 20
8.967473
 30
0.0
 10
165.709611
 20
8.775471
 30
0.0
 10
165.441610
 20
8.630471
 30
0.0
 10
165.148610
 20
8.538472
 30
0.0
 10
164.836610
 20
8.506471
 30
0.0
 10
164.516610
 20
8.538472
 30
0.0
 10
164.219611
 20
8.630471
 30
0.0
 10
163.951612
 20
8.775471
 30
0.0
 10
163.718613
 20
8.967473
 30
0.0
 10
163.526611
 20
9.200473
 30
0.0
 10
163.381611
 20
9.468474
 30
0.0
 10
163.289612
 20
9.765473
 30
0.0
 10
163.258610
 20
10.084472
 30
0.0
  0
LWPOLYLINE
  5
118
100
AcDbEntity
  8
0
 62
7
100
AcDbPolyline
 90
21
 70
0
 10
164.638612
 20
90.143471
 30
0.0
 10
164.711611
 20
90.607473
 30
0.0
 10
164.924610
 20
91.025472
 30
0.0
 10
165.256611
 20
91.357473
 30
0.0
 10
165.674610
 20
91.570471
 30
0.0
 10
166.138612
 20
91.643471
 30
0.0
 10
166.602610
 20
91.570471
 30
0.0
 10
167.020610
 20
91.357473
 30
0.0
 10
167.352610
 20
91.025472
 30
0.0
 10
167.565612
 20
90.607473
 30
0.0
 10
167.638611
 20
90.143471
 30
0.0
 10
167.565612
 20
89.679472
 30
0.0
 10
167.352610
 20
89.261473
 30
0.0
 10
167.020610
 20
88.929472
 30
0.0
 10
166.602610
 20
88.716471
 30
0.0
 10
166.138612
 20
88.643471
 30
0.0
 10
165.674610
 20
88.716471
 30
0.0
 10
165.256611
 20
88.929472
 30
0.0
 10
164.924610
 20
89.261473
 30
0.0
 10
164.711611
 20
89.679472
 30
0.0
 10
164.638612
 20
90.143471
 30
0.0
  0
LWPOLYLINE
  5
119
100
AcDbEntity
  8
0
 62
7
100
AcDbPolyline
 90
21
 70
0
 10
164.638612
 20
190.143471
 30
0.0
 10
164.711611
 20
190.607473
 30
0.0
 10
164.924610
 20
191.025472
 30
0.0
 10
165.256611
 20
191.357473
 30
0.0
 10
165.674610
 20
191.570472
 30
0.0
 10
166.138612
 20
191.643471
 30
0.0
 10
166.602610
 20
191.570472
 30
0.0
 10
167.020610
 20
191.357473
 30
0.0
 10
167.352610
 20
191.025472
 30
0.0
 10
167.565612
 20
190.607473
 30
0.0
 10
167.638611
 20
190.143471
 30
0.0
 10
167.565612
 20
189.679473
 30
0.0
 10
167.352610
 20
189.261473
 30
0.0
 10
167.020610
 20
188.929473
 30
0.0
 10
166.602610
 20
188.716471
 30
0.0
 10
166.138612
 20
188.643472
 30
0.0
 10
165.674610
 20
188.716471
 30
0.0
 10
165.256611
 20
188.929473
 30
0.0
 10
164.924610
 20
189.261473
 30
0.0
 10
164.711611
 20
189.679473
 30
0.0
 10
164.638612
 20
190.143471
 30
0.0
  0
LWPOLYLINE
  5
11a
100
AcDbEntity
  8
0
 62
1
100
AcDbPolyline
 90
12
 70
0
 10
167.917611
 20
10.034473
 30
0.0
 10
167.917611
 20
26.014471
 30
0.0
 10
167.938608
 20
26.273472
 30
0.0
 10
168.002610
 20
26.521472
 30
0.0
 10
168.103612
 20
26.753473
 30
0.0
 10
168.239612
 20
26.966472
 30
0.0
 10
168.407611
 20
27.156472
 30
0.0
 10
168.604610
 20
27.317471
 30
0.0
 10
168.825610
 20
27.448473
 30
0.0
 10
169.069611
 20
27.542473
 30
0.0
 10
169.324610
 20
27.586472
 30
0.0
 10
169.580611
 20
27.587600
 30
0.0
  0
LWPOLYLINE
  5
11b
100
AcDbEntity
  8
0
 62
1
100
AcDbPolyline
 90
78
 70
0
 10
169.580611
 20
27.587473
 30
0.0
 10
169.830612
 20
27.548473
 30
0.0
 10
170.071610
 20
27.470473
 30
0.0
 10
170.298612
 20
27.356472
 30
0.0
 10
170.506610
 20
27.207472
 30
0.0
 10
170.691612
 20
27.026472
 30
0.0
 10
170.848610
 20
26.815471
 30
0.0
 10
171.637610
 20
25.450473
 30
0.0
 10
172.426610
 20
24.085471
 30
0.0
 10
173.215610
 20
22.720472
 30
0.0
 10
174.004611
 20
21.355473
 30
0.0
 10
174.793611
 20
19.990472
 30
0.0
 10
175.582611
 20
18.625473
 30
0.0
 10
177.160611
 20
15.895472
 30
0.0
 10
177.160611
 20
26.014471
 30
0.0
 10
177.192613
 20
26.333473
 30
0.0
 10
177.283612
 20
26.630472
 30
0.0
 10
177.428610
 20
26.898473
 30
0.0
 10
177.620611
 20
27.132472
 30
0.0
 10
177.853611
 20
27.324473
 30
0.0
 10
178.121612
 20
27.469473
 30
0.0
 10
178.418611
 20
27.560473
 30
0.0
 10
178.738612
 20
27.592472
 30
0.0
 10
179.049612
 20
27.560473
 30
0.0
 10
179.340612
 20
27.469473
 30
0.0
 10
179.603612
 20
27.324473
 30
0.0
 10
179.834611
 20
27.132472
 30
0.0
 10
180.024611
 20
26.898473
 30
0.0
 10
180.168612
 20
26.630472
 30
0.0
 10
180.259612
 20
26.333473
 30
0.0
 10
180.291610
 20
26.014471
 30
0.0
 10
180.291610
 20
10.034473
 30
0.0
 10
180.269611
 20
9.775472
 30
0.0
 10
180.206610
 20
9.528471
 30
0.0
 10
180.104610
 20
9.296473
 30
0.0
 10
179.968610
 20
9.085473
 30
0.0
 10
179.800611
 20
8.899471
 30
0.0
 10
179.603612
 20
8.741472
 30
0.0
 10
179.381610
 20
8.617472
 30
0.0
 10
179.138611
 20
8.532472
 30
0.0
 10
179.082610
 20
8.515483
 30
0.0
 10
179.029611
 20
8.502461
 30
0.0
 10
178.978611
 20
8.493469
 30
0.0
 10
178.928612
 20
8.488477
 30
0.0
 10
178.879610
 20
8.484464
 30
0.0
 10
178.832612
 20
8.481481
 30
0.0
 10
178.737610
 20
8.481472
 30
0.0
 10
178.532612
 20
8.494482
 30
0.0
 10
178.332610
 20
8.532472
 30
0.0
 10
178.138610
 20
8.594471
 30
0.0
 10
177.954610
 20
8.681472
 30
0.0
 10
177.782612
 20
8.791473
 30
0.0
 10
177.624610
 20
8.925473
 30
0.0
 10
177.483612
 20
9.080472
 30
0.0
 10
177.360611
 20
9.257473
 30
0.0
 10
175.782611
 20
11.981471
 30
0.0
 10
174.993610
 20
13.343472
 30
0.0
 10
173.415610
 20
16.067473
 30
0.0
 10
172.626610
 20
17.429472
 30
0.0
 10
171.837610
 20
18.791473
 30
0.0
 10
171.048612
 20
20.153472
 30
0.0
 10
171.048612
 20
10.034473
 30
0.0
 10
171.016611
 20
9.723473
 30
0.0
 10
170.924612
 20
9.432473
 30
0.0
 10
170.779612
 20
9.168471
 30
0.0
 10
170.587611
 20
8.938472
 30
0.0
 10
170.354611
 20
8.748471
 30
0.0
 10
170.086610
 20
8.604473
 30
0.0
 10
169.789610
 20
8.513473
 30
0.0
 10
169.470612
 20
8.481472
 30
0.0
 10
169.158612
 20
8.513473
 30
0.0
 10
168.867610
 20
8.604473
 30
0.0
 10
168.604610
 20
8.748471
 30
0.0
 10
168.374610
 20
8.938472
 30
0.0
 10
168.183611
 20
9.168471
 30
0.0
 10
168.039610
 20
9.432473
 30
0.0
 10
167.948610
 20
9.723473
 30
0.0
 10
167.917611
 20
10.034473
 30
0.0
  0
LWPOLYLINE
  5
11c
100
AcDbEntity
  8
0
 62
1
100
AcDbPolyline
 90
67
 70
0
 10
181.051612
 20
10.096472
 30
0.0
 10
181.081612
 20
10.396471
 30
0.0
 10
181.169612
 20
10.687473
 30
0.0
 10
181.317612
 20
10.962473
 30
0.0
 10
182.676611
 20
12.959472
 30
0.0
 10
184.035613
 20
14.957473
 30
0.0
 10
185.394611
 20
16.954472
 30
0.0
 10
186.752611
 20
18.951473
 30
0.0
 10
188.111610
 20
20.949471
 30
0.0
 10
189.470611
 20
22.946473
 30
0.0
 10
190.829610
 20
24.944474
 30
0.0
 10
192.188612
 20
26.941472
 30
0.0
 10
192.344610
 20
27.142471
 30
0.0
 10
192.528611
 20
27.310472
 30
0.0
 10
192.736611
 20
27.445473
 30
0.0
 10
192.961610
 20
27.546472
 30
0.0
 10
193.199611
 20
27.609473
 30
0.0
 10
193.445610
 20
27.635465
 30
0.0
 10
193.694612
 20
27.622463
 30
0.0
 10
193.941613
 20
27.568471
 30
0.0
 10
194.175611
 20
27.473473
 30
0.0
 10
194.388610
 20
27.343473
 30
0.0
 10
194.576613
 20
27.182473
 30
0.0
 10
194.736610
 20
26.994474
 30
0.0
 10
194.866610
 20
26.785471
 30
0.0
 10
194.963613
 20
26.557472
 30
0.0
 10
195.022611
 20
26.315472
 30
0.0
 10
195.043608
 20
26.065472
 30
0.0
 10
195.043611
 20
10.085471
 30
0.0
 10
195.011610
 20
9.765473
 30
0.0
 10
194.920610
 20
9.468474
 30
0.0
 10
194.776612
 20
9.200473
 30
0.0
 10
194.586612
 20
8.967473
 30
0.0
 10
194.356612
 20
8.775471
 30
0.0
 10
194.092610
 20
8.630471
 30
0.0
 10
193.801611
 20
8.538472
 30
0.0
 10
193.490610
 20
8.506471
 30
0.0
 10
193.171612
 20
8.538472
 30
0.0
 10
192.874612
 20
8.630471
 30
0.0
 10
192.606611
 20
8.775471
 30
0.0
 10
192.372612
 20
8.967473
 30
0.0
 10
192.180611
 20
9.200473
 30
0.0
 10
192.035611
 20
9.468474
 30
0.0
 10
191.944611
 20
9.765473
 30
0.0
 10
191.912610
 20
10.085471
 30
0.0
 10
191.912610
 20
20.956473
 30
0.0
 10
190.913611
 20
19.487473
 30
0.0
 10
189.915611
 20
18.019471
 30
0.0
 10
188.916612
 20
16.550473
 30
0.0
 10
187.917610
 20
15.082472
 30
0.0
 10
186.918611
 20
13.613471
 30
0.0
 10
185.919612
 20
12.145473
 30
0.0
 10
184.921610
 20
10.677471
 30
0.0
 10
183.922611
 20
9.208474
 30
0.0
 10
183.721612
 20
8.962472
 30
0.0
 10
183.483611
 20
8.768472
 30
0.0
 10
183.215610
 20
8.629472
 30
0.0
 10
182.926612
 20
8.545472
 30
0.0
 10
182.626612
 20
8.517475
 30
0.0
 10
182.323610
 20
8.546473
 30
0.0
 10
182.025612
 20
8.634473
 30
0.0
 10
181.743612
 20
8.783472
 30
0.0
 10
181.496612
 20
8.991473
 30
0.0
 10
181.303611
 20
9.236473
 30
0.0
 10
181.164611
 20
9.507471
 30
0.0
 10
181.079611
 20
9.797471
 30
0.0
 10
181.051615
 20
10.096472
 30
0.0
  0
LWPOLYLINE
  5
11d
100
AcDbEntity
  8
0
 62
7
100
AcDbPolyline
 90
21
 70
0
 10
192.638612
 20
90.143471
 30
0.0
 10
192.711612
 20
90.607473
 30
0.0
 10
192.924611
 20
91.025472
 30
0.0
 10
193.256611
 20
91.357473
 30
0.0
 10
193.674611
 20
91.570471
 30
0.0
 10
194.138612
 20
91.643471
 30
0.0
 10
194.602611
 20
91.570471
 30
0.0
 10
195.020610
 20
91.357473
 30
0.0
 10
195.352611
 20
91.025472
 30
0.0
 10
195.565612
 20
90.607473
 30
0.0
 10
195.638612
 20
90.143471
 30
0.0
 10
195.565612
 20
89.679472
 30
0.0
 10
195.352611
 20
89.261473
 30
0.0
 10
195.020610
 20
88.929472
 30
0.0
 10
194.602611
 20
88.716471
 30
0.0
 10
194.138612
 20
88.643471
 30
0.0
 10
193.674611
 20
88.716471
 30
0.0
 10
193.256611
 20
88.929472
 30
0.0
 10
192.924611
 20
89.261473
 30
0.0
 10
192.711612
 20
89.679472
 30
0.0
 10
192.638612
 20
90.143471
 30
0.0
  0
LWPOLYLINE
  5
11e
100
AcDbEntity
  8
0
 62
7
100
AcDbPolyline
 90
21
 70
0
 10
192.638612
 20
190.143471
 30
0.0
 10
192.711612
 20
190.607473
 30
0.0
 10
192.924611
 20
191.025472
 30
0.0
 10
193.256611
 20
191.357473
 30
0.0
 10
193.674611
 20
191.570472
 30
0.0
 10
194.138612
 20
191.643471
 30
0.0
 10
194.602611
 20
191.570472
 30
0.0
 10
195.020610
 20
191.357473
 30
0.0
 10
195.352611
 20
191.025472
 30
0.0
 10
195.565612
 20
190.607473
 30
0.0
 10
195.638612
 20
190.143471
 30
0.0
 10
195.565612
 20
189.679473
 30
0.0
 10
195.352611
 20
189.261473
 30
0.0
 10
195.020610
 20
188.929473
 30
0.0
 10
194.602611
 20
188.716471
 30
0.0
 10
194.138612
 20
188.643472
 30
0.0
 10
193.674611
 20
188.716471
 30
0.0
 10
193.256611
 20
188.929473
 30
0.0
 10
192.924611
 20
189.261473
 30
0.0
 10
192.711612
 20
189.679473
 30
0.0
 10
192.638612
 20
190.143471
 30
0.0
  0
LWPOLYLINE
  5
11f
100
AcDbEntity
  8
0
 62
7
100
AcDbPolyline
 90
21
 70
0
 10
213.638613
 20
35.143471
 30
0.0
 10
213.711612
 20
35.607473
 30
0.0
 10
213.924611
 20
36.025472
 30
0.0
 10
214.256612
 20
36.357473
 30
0.0
 10
214.674611
 20
36.570471
 30
0.0
 10
215.138610
 20
36.643471
 30
0.0
 10
215.602611
 20
36.570471
 30
0.0
 10
216.020610
 20
36.357473
 30
0.0
 10
216.352611
 20
36.025472
 30
0.0
 10
216.565613
 20
35.607473
 30
0.0
 10
216.638612
 20
35.143471
 30
0.0
 10
216.565613
 20
34.679472
 30
0.0
 10
216.352611
 20
34.261473
 30
0.0
 10
216.020610
 20
33.929472
 30
0.0
 10
215.602611
 20
33.716471
 30
0.0
 10
215.138610
 20
33.643471
 30
0.0
 10
214.674611
 20
33.716471
 30
0.0
 10
214.256612
 20
33.929472
 30
0.0
 10
213.924611
 20
34.261473
 30
0.0
 10
213.711612
 20
34.679472
 30
0.0
 10
213.638613
 20
35.143471
 30
0.0
  0
LWPOLYLINE
  5
120
100
AcDbEntity
  8
0
 62
7
100
AcDbPolyline
 90
21
 70
0
 10
213.638613
 20
245.143472
 30
0.0
 10
213.711612
 20
245.607473
 30
0.0
 10
213.924611
 20
246.025472
 30
0.0
 10
214.256612
 20
246.357473
 30
0.0
 10
214.674611
 20
246.570472
 30
0.0
 10
215.138610
 20
246.643471
 30
0.0
 10
215.602611
 20
246.570472
 30
0.0
 10
216.020610
 20
246.357473
 30
0.0
 10
216.352611
 20
246.025472
 30
0.0
 10
216.565613
 20
245.607473
 30
0.0
 10
216.638612
 20
245.143472
 30
0.0
 10
216.565613
 20
244.679473
 30
0.0
 10
216.352611
 20
244.261473
 30
0.0
 10
216.020610
 20
243.929473
 30
0.0
 10
215.602611
 20
243.716471
 30
0.0
 10
215.138610
 20
243.643472
 30
0.0
 10
214.674611
 20
243.716471
 30
0.0
 10
214.256612
 20
243.929473
 30
0.0
 10
213.924611
 20
244.261473
 30
0.0
 10
213.711612
 20
244.679473
 30
0.0
 10
213.638613
 20
245.143472
 30
0.0
  0
LWPOLYLINE
  5
121
100
AcDbEntity
  8
0
 62
7
100
AcDbPolyline
 90
41
 70
0
 10
229.138610
 20
102.143473
 30
0.0
 10
229.138610
 20
168.143473
 30
0.0
 10
229.357611
 20
170.222472
 30
0.0
 10
230.003612
 20
172.210473
 30
0.0
 10
231.048611
 20
174.021473
 30
0.0
 10
232.447612
 20
175.574472
 30
0.0
 10
234.138611
 20
176.803473
 30
0.0
 10
236.048612
 20
177.654472
 30
0.0
 10
238.093611
 20
178.088473
 30
0.0
 10
239.138612
 20
178.088473
 30
0.0
 10
239.138612
 20
178.143473
 30
0.0
 10
301.138618
 20
178.143473
 30
0.0
 10
301.138618
 20
178.088473
 30
0.0
 10
302.183602
 20
178.088473
 30
0.0
 10
304.228613
 20
177.654472
 30
0.0
 10
306.138608
 20
176.803473
 30
0.0
 10
307.829599
 20
175.574472
 30
0.0
 10
309.228603
 20
174.021473
 30
0.0
 10
310.273615
 20
172.210473
 30
0.0
 10
310.919622
 20
170.222472
 30
0.0
 10
311.138598
 20
168.143473
 30
0.0
 10
311.138598
 20
102.143473
 30
0.0
 10
310.919622
 20
100.064471
 30
0.0
 10
310.273615
 20
98.076472
 30
0.0
 10
309.228603
 20
96.265472
 30
0.0
 10
307.829599
 20
94.712471
 30
0.0
 10
306.138608
 20
93.483472
 30
0.0
 10
304.228613
 20
92.632471
 30
0.0
 10
302.183602
 20
92.198472
 30
0.0
 10
301.138618
 20
92.198472
 30
0.0
 10
301.138618
 20
92.143473
 30
0.0
 10
239.138612
 20
92.143473
 30
0.0
 10
239.138612
 20
92.198472
 30
0.0
 10
238.093611
 20
92.198472
 30
0.0
 10
236.048612
 20
92.632471
 30
0.0
 10
234.138611
 20
93.483472
 30
0.0
 10
232.447612
 20
94.712471
 30
0.0
 10
231.048611
 20
96.265472
 30
0.0
 10
230.003612
 20
98.076472
 30
0.0
 10
229.357611
 20
100.064471
 30
0.0
 10
229.138610
 20
102.143473
 30
0.0
  0
LWPOLYLINE
  5
122
100
AcDbEntity
  8
0
 62
7
100
AcDbPolyline
 90
93
 70
0
 10
230.138611
 20
20.143473
 30
0.0
 10
230.138611
 20
65.143473
 30
0.0
 10
230.165619
 20
66.190472
 30
0.0
 10
230.248612
 20
67.234472
 30
0.0
 10
230.384612
 20
68.272474
 30
0.0
 10
230.575612
 20
69.301473
 30
0.0
 10
230.819610
 20
70.319471
 30
0.0
 10
231.117611
 20
71.323471
 30
0.0
 10
231.466610
 20
72.310473
 30
0.0
 10
231.867611
 20
73.278472
 30
0.0
 10
232.318611
 20
74.223471
 30
0.0
 10
232.817611
 20
75.143473
 30
0.0
 10
233.365610
 20
76.036472
 30
0.0
 10
233.958613
 20
76.899471
 30
0.0
 10
234.595611
 20
77.729472
 30
0.0
 10
235.275611
 20
78.526473
 30
0.0
 10
235.996613
 20
79.285473
 30
0.0
 10
236.755610
 20
80.006472
 30
0.0
 10
237.552611
 20
80.686473
 30
0.0
 10
238.382610
 20
81.323474
 30
0.0
 10
239.245611
 20
81.916473
 30
0.0
 10
240.138610
 20
82.464473
 30
0.0
 10
241.058610
 20
82.963472
 30
0.0
 10
242.003611
 20
83.414472
 30
0.0
 10
242.971611
 20
83.815473
 30
0.0
 10
243.958612
 20
84.164472
 30
0.0
 10
244.962612
 20
84.462473
 30
0.0
 10
245.980610
 20
84.706471
 30
0.0
 10
247.009612
 20
84.897474
 30
0.0
 10
248.047612
 20
85.033474
 30
0.0
 10
249.091611
 20
85.116472
 30
0.0
 10
250.138610
 20
85.143481
 30
0.0
 10
251.185612
 20
85.116464
 30
0.0
 10
252.229612
 20
85.033474
 30
0.0
 10
253.267611
 20
84.897474
 30
0.0
 10
254.296610
 20
84.706471
 30
0.0
 10
255.314611
 20
84.462473
 30
0.0
 10
256.318611
 20
84.164472
 30
0.0
 10
257.305612
 20
83.815473
 30
0.0
 10
258.273612
 20
83.414472
 30
0.0
 10
259.218611
 20
82.963472
 30
0.0
 10
260.138610
 20
82.464473
 30
0.0
 10
261.031612
 20
81.916473
 30
0.0
 10
261.894611
 20
81.323474
 30
0.0
 10
262.724618
 20
80.686473
 30
0.0
 10
263.521613
 20
80.006472
 30
0.0
 10
264.280622
 20
79.285473
 30
0.0
 10
265.001615
 20
78.526473
 30
0.0
 10
265.681601
 20
77.729472
 30
0.0
 10
266.318605
 20
76.899471
 30
0.0
 10
266.911610
 20
76.036472
 30
0.0
 10
267.459601
 20
75.143473
 30
0.0
 10
267.958598
 20
74.223471
 30
0.0
 10
268.409618
 20
73.278472
 30
0.0
 10
268.810599
 20
72.310473
 30
0.0
 10
269.159623
 20
71.323471
 30
0.0
 10
269.457622
 20
70.319471
 30
0.0
 10
269.701603
 20
69.301473
 30
0.0
 10
269.892611
 20
68.272474
 30
0.0
 10
270.028614
 20
67.234472
 30
0.0
 10
270.111615
 20
66.190472
 30
0.0
 10
270.138708
 20
65.143473
 30
0.0
 10
270.138624
 20
20.143473
 30
0.0
 10
270.111530
 20
19.096474
 30
0.0
 10
270.028614
 20
18.052471
 30
0.0
 10
269.892611
 20
17.014472
 30
0.0
 10
269.701603
 20
15.985473
 30
0.0
 10
269.457622
 20
14.967472
 30
0.0
 10
269.159623
 20
13.963472
 30
0.0
 10
268.810599
 20
12.976473
 30
0.0
 10
268.409618
 20
12.008474
 30
0.0
 10
267.958598
 20
11.063472
 30
0.0
 10
267.459601
 20
10.143473
 30
0.0
 10
266.911610
 20
9.250471
 30
0.0
 10
266.318605
 20
8.387472
 30
0.0
 10
265.681601
 20
7.557474
 30
0.0
 10
265.001615
 20
6.760472
 30
0.0
 10
264.280622
 20
6.001472
 30
0.0
 10
263.521613
 20
5.280471
 30
0.0
 10
262.724618
 20
4.600476
 30
0.0
 10
261.894611
 20
3.963472
 30
0.0
 10
261.031612
 20
3.370467
 30
0.0
 10
260.138610
 20
2.822476
 30
0.0
 10
259.218611
 20
2.323479
 30
0.0
 10
258.273612
 20
1.872460
 30
0.0
 10
257.305612
 20
1.471478
 30
0.0
 10
256.318611
 20
1.122482
 30
0.0
 10
255.314611
 20
0.824484
 30
0.0
 10
254.296610
 20
0.580475
 30
0.0
 10
253.267611
 20
0.389467
 30
0.0
 10
252.229612
 20
0.253464
 30
0.0
 10
251.185612
 20
0.170462
 30
0.0
 10
250.138610
 20
0.143369
 30
0.0
  0
LWPOLYLINE
  5
123
100
AcDbEntity
  8
0
 62
7
100
AcDbPolyline
 90
2
 70
0
 10
250.138610
 20
0.143482
 30
0.0
 10
249.091611
 20
0.170575
 30
0.0
  0
LWPOLYLINE
  5
124
100
AcDbEntity
  8
0
 62
7
100
AcDbPolyline
 90
30
 70
0
 10
249.091611
 20
0.170462
 30
0.0
 10
248.047612
 20
0.253464
 30
0.0
 10
247.009612
 20
0.389467
 30
0.0
 10
245.980610
 20
0.580475
 30
0.0
 10
244.962612
 20
0.824484
 30
0.0
 10
243.958612
 20
1.122482
 30
0.0
 10
242.971611
 20
1.471478
 30
0.0
 10
242.003611
 20
1.872460
 30
0.0
 10
241.058610
 20
2.323479
 30
0.0
 10
240.138610
 20
2.822476
 30
0.0
 10
239.245611
 20
3.370467
 30
0.0
 10
238.382610
 20
3.963472
 30
0.0
 10
237.552611
 20
4.600476
 30
0.0
 10
236.755610
 20
5.280471
 30
0.0
 10
235.996613
 20
6.001472
 30
0.0
 10
235.275611
 20
6.760472
 30
0.0
 10
234.595611
 20
7.557474
 30
0.0
 10
233.958613
 20
8.387472
 30
0.0
 10
233.365610
 20
9.250471
 30
0.0
 10
232.817611
 20
10.143473
 30
0.0
 10
232.318611
 20
11.063472
 30
0.0
 10
231.867611
 20
12.008474
 30
0.0
 10
231.466610
 20
12.976473
 30
0.0
 10
231.117611
 20
13.963472
 30
0.0
 10
230.819610
 20
14.967472
 30
0.0
 10
230.575612
 20
15.985473
 30
0.0
 10
230.384612
 20
17.014472
 30
0.0
 10
230.248612
 20
18.052471
 30
0.0
 10
230.165611
 20
19.096474
 30
0.0
 10
230.138602
 20
20.143473
 30
0.0
  0
LWPOLYLINE
  5
125
100
AcDbEntity
  8
0
 62
7
100
AcDbPolyline
 90
30
 70
0
 10
230.138611
 20
190.143471
 30
0.0
 10
230.138611
 20
230.143473
 30
0.0
 10
230.519611
 20
232.056472
 30
0.0
 10
231.602610
 20
233.679472
 30
0.0
 10
233.225611
 20
234.762472
 30
0.0
 10
235.138612
 20
235.143472
 30
0.0
 10
245.138612
 20
235.143472
 30
0.0
 10
245.138612
 20
235.006473
 30
0.0
 10
247.751611
 20
235.006473
 30
0.0
 10
252.863612
 20
233.919471
 30
0.0
 10
257.638612
 20
231.794473
 30
0.0
 10
261.866611
 20
228.722473
 30
0.0
 10
265.363621
 20
224.838472
 30
0.0
 10
267.977620
 20
220.311472
 30
0.0
 10
269.592608
 20
215.341474
 30
0.0
 10
270.138624
 20
210.143471
 30
0.0
 10
269.592608
 20
204.945471
 30
0.0
 10
267.977620
 20
199.975473
 30
0.0
 10
265.363621
 20
195.448473
 30
0.0
 10
261.866611
 20
191.564472
 30
0.0
 10
257.638612
 20
188.492471
 30
0.0
 10
252.863612
 20
186.367474
 30
0.0
 10
247.751611
 20
185.280472
 30
0.0
 10
245.138612
 20
185.280472
 30
0.0
 10
245.138612
 20
185.143473
 30
0.0
 10
235.138612
 20
185.143473
 30
0.0
 10
233.225611
 20
185.524473
 30
0.0
 10
231.602610
 20
186.607473
 30
0.0
 10
230.519611
 20
188.230473
 30
0.0
 10
230.138611
 20
190.143471
 30
0.0
  0
LWPOLYLINE
  5
126
100
AcDbEntity
  8
0
 62
7
100
AcDbPolyline
 90
5
 70
0
 10
232.138612
 20
104.223473
 30
0.0
 10
232.138612
 20
116.063471
 30
0.0
 10
256.138612
 20
116.063471
 30
0.0
 10
256.138612
 20
104.223473
 30
0.0
 10
232.138612
 20
104.223473
 30
0.0
  0
LWPOLYLINE
  5
127
100
AcDbEntity
  8
0
 62
7
100
AcDbPolyline
 90
5
 70
0
 10
232.138612
 20
154.223472
 30
0.0
 10
232.138612
 20
166.063473
 30
0.0
 10
256.138612
 20
166.063473
 30
0.0
 10
256.138612
 20
154.223472
 30
0.0
 10
232.138612
 20
154.223472
 30
0.0
  0
LWPOLYLINE
  5
128
100
AcDbEntity
  8
0
 62
7
100
AcDbPolyline
 90
21
 70
0
 10
233.638612
 20
135.143471
 30
0.0
 10
233.711612
 20
135.607473
 30
0.0
 10
233.924610
 20
136.025472
 30
0.0
 10
234.256611
 20
136.357473
 30
0.0
 10
234.674610
 20
136.570472
 30
0.0
 10
235.138612
 20
136.643471
 30
0.0
 10
235.602611
 20
136.570472
 30
0.0
 10
236.020610
 20
136.357473
 30
0.0
 10
236.352611
 20
136.025472
 30
0.0
 10
236.565612
 20
135.607473
 30
0.0
 10
236.638612
 20
135.143471
 30
0.0
 10
236.565612
 20
134.679473
 30
0.0
 10
236.352611
 20
134.261473
 30
0.0
 10
236.020610
 20
133.929473
 30
0.0
 10
235.602611
 20
133.716471
 30
0.0
 10
235.138612
 20
133.643472
 30
0.0
 10
234.674610
 20
133.716471
 30
0.0
 10
234.256611
 20
133.929473
 30
0.0
 10
233.924610
 20
134.261473
 30
0.0
 10
233.711612
 20
134.679473
 30
0.0
 10
233.638612
 20
135.143471
 30
0.0
  0
LWPOLYLINE
  5
129
100
AcDbEntity
  8
0
 62
7
100
AcDbPolyline
 90
21
 70
0
 10
234.638610
 20
20.143473
 30
0.0
 10
234.711610
 20
20.607472
 30
0.0
 10
234.924611
 20
21.025471
 30
0.0
 10
235.256612
 20
21.357471
 30
0.0
 10
235.674611
 20
21.570473
 30
0.0
 10
236.138610
 20
21.643473
 30
0.0
 10
236.602611
 20
21.570473
 30
0.0
 10
237.020611
 20
21.357471
 30
0.0
 10
237.352611
 20
21.025471
 30
0.0
 10
237.565610
 20
20.607472
 30
0.0
 10
237.638610
 20
20.143473
 30
0.0
 10
237.565610
 20
19.679471
 30
0.0
 10
237.352611
 20
19.261472
 30
0.0
 10
237.020611
 20
18.929471
 30
0.0
 10
236.602611
 20
18.716473
 30
0.0
 10
236.138610
 20
18.643473
 30
0.0
 10
235.674611
 20
18.716473
 30
0.0
 10
235.256612
 20
18.929471
 30
0.0
 10
234.924611
 20
19.261472
 30
0.0
 10
234.711610
 20
19.679471
 30
0.0
 10
234.638610
 20
20.143473
 30
0.0
  0
LWPOLYLINE
  5
12a
100
AcDbEntity
  8
0
 62
7
100
AcDbPolyline
 90
21
 70
0
 10
234.638610
 20
65.143473
 30
0.0
 10
234.711610
 20
65.607472
 30
0.0
 10
234.924611
 20
66.025471
 30
0.0
 10
235.256612
 20
66.357472
 30
0.0
 10
235.674611
 20
66.570473
 30
0.0
 10
236.138610
 20
66.643473
 30
0.0
 10
236.602611
 20
66.570473
 30
0.0
 10
237.020611
 20
66.357472
 30
0.0
 10
237.352611
 20
66.025471
 30
0.0
 10
237.565610
 20
65.607472
 30
0.0
 10
237.638610
 20
65.143473
 30
0.0
 10
237.565610
 20
64.679472
 30
0.0
 10
237.352611
 20
64.261472
 30
0.0
 10
237.020611
 20
63.929472
 30
0.0
 10
236.602611
 20
63.716473
 30
0.0
 10
236.138610
 20
63.643473
 30
0.0
 10
235.674611
 20
63.716473
 30
0.0
 10
235.256612
 20
63.929472
 30
0.0
 10
234.924611
 20
64.261472
 30
0.0
 10
234.711610
 20
64.679472
 30
0.0
 10
234.638610
 20
65.143473
 30
0.0
  0
LWPOLYLINE
  5
12b
100
AcDbEntity
  8
0
 62
7
100
AcDbPolyline
 90
21
 70
0
 10
234.638610
 20
190.143471
 30
0.0
 10
234.711610
 20
190.607473
 30
0.0
 10
234.924611
 20
191.025472
 30
0.0
 10
235.256612
 20
191.357473
 30
0.0
 10
235.674611
 20
191.570472
 30
0.0
 10
236.138610
 20
191.643471
 30
0.0
 10
236.602611
 20
191.570472
 30
0.0
 10
237.020611
 20
191.357473
 30
0.0
 10
237.352611
 20
191.025472
 30
0.0
 10
237.565610
 20
190.607473
 30
0.0
 10
237.638610
 20
190.143471
 30
0.0
 10
237.565610
 20
189.679473
 30
0.0
 10
237.352611
 20
189.261473
 30
0.0
 10
237.020611
 20
188.929473
 30
0.0
 10
236.602611
 20
188.716471
 30
0.0
 10
236.138610
 20
188.643472
 30
0.0
 10
235.674611
 20
188.716471
 30
0.0
 10
235.256612
 20
188.929473
 30
0.0
 10
234.924611
 20
189.261473
 30
0.0
 10
234.711610
 20
189.679473
 30
0.0
 10
234.638610
 20
190.143471
 30
0.0
  0
LWPOLYLINE
  5
12c
100
AcDbEntity
  8
0
 62
7
100
AcDbPolyline
 90
21
 70
0
 10
234.638610
 20
230.143473
 30
0.0
 10
234.711610
 20
230.607472
 30
0.0
 10
234.924611
 20
231.025471
 30
0.0
 10
235.256612
 20
231.357472
 30
0.0
 10
235.674611
 20
231.570474
 30
0.0
 10
236.138610
 20
231.643473
 30
0.0
 10
236.602611
 20
231.570474
 30
0.0
 10
237.020611
 20
231.357472
 30
0.0
 10
237.352611
 20
231.025471
 30
0.0
 10
237.565610
 20
230.607472
 30
0.0
 10
237.638610
 20
230.143473
 30
0.0
 10
237.565610
 20
229.679472
 30
0.0
 10
237.352611
 20
229.261472
 30
0.0
 10
237.020611
 20
228.929472
 30
0.0
 10
236.602611
 20
228.716473
 30
0.0
 10
236.138610
 20
228.643474
 30
0.0
 10
235.674611
 20
228.716473
 30
0.0
 10
235.256612
 20
228.929472
 30
0.0
 10
234.924611
 20
229.261472
 30
0.0
 10
234.711610
 20
229.679472
 30
0.0
 10
234.638610
 20
230.143473
 30
0.0
  0
LWPOLYLINE
  5
12d
100
AcDbEntity
  8
0
 62
7
100
AcDbPolyline
 90
21
 70
0
 10
242.638611
 20
98.143472
 30
0.0
 10
242.711611
 20
98.607474
 30
0.0
 10
242.924612
 20
99.025473
 30
0.0
 10
243.256610
 20
99.357474
 30
0.0
 10
243.674612
 20
99.570472
 30
0.0
 10
244.138611
 20
99.643472
 30
0.0
 10
244.602612
 20
99.570472
 30
0.0
 10
245.020612
 20
99.357474
 30
0.0
 10
245.352612
 20
99.025473
 30
0.0
 10
245.565611
 20
98.607474
 30
0.0
 10
245.638611
 20
98.143472
 30
0.0
 10
245.565611
 20
97.679473
 30
0.0
 10
245.352612
 20
97.261471
 30
0.0
 10
245.020612
 20
96.929473
 30
0.0
 10
244.602612
 20
96.716472
 30
0.0
 10
244.138611
 20
96.643472
 30
0.0
 10
243.674612
 20
96.716472
 30
0.0
 10
243.256610
 20
96.929473
 30
0.0
 10
242.924612
 20
97.261471
 30
0.0
 10
242.711611
 20
97.679473
 30
0.0
 10
242.638611
 20
98.143472
 30
0.0
  0
LWPOLYLINE
  5
12e
100
AcDbEntity
  8
0
 62
7
100
AcDbPolyline
 90
21
 70
0
 10
242.638611
 20
172.143471
 30
0.0
 10
242.711611
 20
172.607472
 30
0.0
 10
242.924612
 20
173.025472
 30
0.0
 10
243.256610
 20
173.357472
 30
0.0
 10
243.674612
 20
173.570471
 30
0.0
 10
244.138611
 20
173.643473
 30
0.0
 10
244.602612
 20
173.570471
 30
0.0
 10
245.020612
 20
173.357472
 30
0.0
 10
245.352612
 20
173.025472
 30
0.0
 10
245.565611
 20
172.607472
 30
0.0
 10
245.638611
 20
172.143471
 30
0.0
 10
245.565611
 20
171.679472
 30
0.0
 10
245.352612
 20
171.261473
 30
0.0
 10
245.020612
 20
170.929472
 30
0.0
 10
244.602612
 20
170.716473
 30
0.0
 10
244.138611
 20
170.643471
 30
0.0
 10
243.674612
 20
170.716473
 30
0.0
 10
243.256610
 20
170.929472
 30
0.0
 10
242.924612
 20
171.261473
 30
0.0
 10
242.711611
 20
171.679472
 30
0.0
 10
242.638611
 20
172.143471
 30
0.0
  0
LWPOLYLINE
  5
12f
100
AcDbEntity
  8
0
 62
7
100
AcDbPolyline
 90
5
 70
0
 10
244.218612
 20
198.143472
 30
0.0
 10
244.218612
 20
222.143472
 30
0.0
 10
256.058611
 20
222.143472
 30
0.0
 10
256.058611
 20
198.143472
 30
0.0
 10
244.218612
 20
198.143472
 30
0.0
  0
LWPOLYLINE
  5
130
100
AcDbEntity
  8
0
 62
7
100
AcDbPolyline
 90
5
 70
0
 10
245.091610
 20
8.143471
 30
0.0
 10
245.091610
 20
32.143471
 30
0.0
 10
255.185610
 20
32.143471
 30
0.0
 10
255.185610
 20
8.143471
 30
0.0
 10
245.091610
 20
8.143471
 30
0.0
  0
LWPOLYLINE
  5
131
100
AcDbEntity
  8
0
 62
7
100
AcDbPolyline
 90
5
 70
0
 10
245.091610
 20
53.143472
 30
0.0
 10
245.091610
 20
77.143472
 30
0.0
 10
255.185610
 20
77.143472
 30
0.0
 10
255.185610
 20
53.143472
 30
0.0
 10
245.091610
 20
53.143472
 30
0.0
  0
LWPOLYLINE
  5
132
100
AcDbEntity
  8
0
 62
7
100
AcDbPolyline
 90
31
 70
0
 10
250.138610
 20
135.143471
 30
0.0
 10
250.575612
 20
139.301471
 30
0.0
 10
251.867611
 20
143.278473
 30
0.0
 10
253.958612
 20
146.899472
 30
0.0
 10
256.755612
 20
150.006473
 30
0.0
 10
260.138610
 20
152.464474
 30
0.0
 10
263.958606
 20
154.164473
 30
0.0
 10
268.047611
 20
155.033472
 30
0.0
 10
272.229608
 20
155.033472
 30
0.0
 10
276.318613
 20
154.164473
 30
0.0
 10
280.138604
 20
152.464474
 30
0.0
 10
283.521602
 20
150.006473
 30
0.0
 10
286.318621
 20
146.899472
 30
0.0
 10
288.409606
 20
143.278473
 30
0.0
 10
289.701619
 20
139.301471
 30
0.0
 10
290.138612
 20
135.143471
 30
0.0
 10
289.701619
 20
130.985472
 30
0.0
 10
288.409606
 20
127.008472
 30
0.0
 10
286.318621
 20
123.387474
 30
0.0
 10
283.521602
 20
120.280472
 30
0.0
 10
280.138604
 20
117.822472
 30
0.0
 10
276.318613
 20
116.122473
 30
0.0
 10
272.229608
 20
115.253474
 30
0.0
 10
268.047611
 20
115.253474
 30
0.0
 10
263.958606
 20
116.122473
 30
0.0
 10
260.138610
 20
117.822472
 30
0.0
 10
256.755612
 20
120.280472
 30
0.0
 10
253.958612
 20
123.387474
 30
0.0
 10
251.867611
 20
127.008472
 30
0.0
 10
250.575612
 20
130.985472
 30
0.0
 10
250.138610
 20
135.143471
 30
0.0
  0
LWPOLYLINE
  5
133
100
AcDbEntity
  8
0
 62
7
100
AcDbPolyline
 90
21
 70
0
 10
262.638625
 20
20.143473
 30
0.0
 10
262.711607
 20
20.607472
 30
0.0
 10
262.924600
 20
21.025471
 30
0.0
 10
263.256607
 20
21.357471
 30
0.0
 10
263.674606
 20
21.570473
 30
0.0
 10
264.138608
 20
21.643473
 30
0.0
 10
264.602609
 20
21.570473
 30
0.0
 10
265.020608
 20
21.357471
 30
0.0
 10
265.352615
 20
21.025471
 30
0.0
 10
265.565608
 20
20.607472
 30
0.0
 10
265.638619
 20
20.143473
 30
0.0
 10
265.565608
 20
19.679471
 30
0.0
 10
265.352615
 20
19.261472
 30
0.0
 10
265.020608
 20
18.929471
 30
0.0
 10
264.602609
 20
18.716473
 30
0.0
 10
264.138608
 20
18.643473
 30
0.0
 10
263.674606
 20
18.716473
 30
0.0
 10
263.256607
 20
18.929471
 30
0.0
 10
262.924600
 20
19.261472
 30
0.0
 10
262.711607
 20
19.679471
 30
0.0
 10
262.638625
 20
20.143473
 30
0.0
  0
LWPOLYLINE
  5
134
100
AcDbEntity
  8
0
 62
7
100
AcDbPolyline
 90
21
 70
0
 10
262.638625
 20
65.143473
 30
0.0
 10
262.711607
 20
65.607472
 30
0.0
 10
262.924600
 20
66.025471
 30
0.0
 10
263.256607
 20
66.357472
 30
0.0
 10
263.674606
 20
66.570473
 30
0.0
 10
264.138608
 20
66.643473
 30
0.0
 10
264.602609
 20
66.570473
 30
0.0
 10
265.020608
 20
66.357472
 30
0.0
 10
265.352615
 20
66.025471
 30
0.0
 10
265.565608
 20
65.607472
 30
0.0
 10
265.638619
 20
65.143473
 30
0.0
 10
265.565608
 20
64.679472
 30
0.0
 10
265.352615
 20
64.261472
 30
0.0
 10
265.020608
 20
63.929472
 30
0.0
 10
264.602609
 20
63.716473
 30
0.0
 10
264.138608
 20
63.643473
 30
0.0
 10
263.674606
 20
63.716473
 30
0.0
 10
263.256607
 20
63.929472
 30
0.0
 10
262.924600
 20
64.261472
 30
0.0
 10
262.711607
 20
64.679472
 30
0.0
 10
262.638625
 20
65.143473
 30
0.0
  0
LWPOLYLINE
  5
135
100
AcDbEntity
  8
0
 62
7
100
AcDbPolyline
 90
21
 70
0
 10
262.638625
 20
210.143471
 30
0.0
 10
262.711607
 20
210.607473
 30
0.0
 10
262.924600
 20
211.025472
 30
0.0
 10
263.256607
 20
211.357472
 30
0.0
 10
263.674606
 20
211.570471
 30
0.0
 10
264.138608
 20
211.643474
 30
0.0
 10
264.602609
 20
211.570471
 30
0.0
 10
265.020608
 20
211.357472
 30
0.0
 10
265.352615
 20
211.025472
 30
0.0
 10
265.565608
 20
210.607473
 30
0.0
 10
265.638619
 20
210.143471
 30
0.0
 10
265.565608
 20
209.679472
 30
0.0
 10
265.352615
 20
209.261473
 30
0.0
 10
265.020608
 20
208.929472
 30
0.0
 10
264.602609
 20
208.716474
 30
0.0
 10
264.138608
 20
208.643471
 30
0.0
 10
263.674606
 20
208.716474
 30
0.0
 10
263.256607
 20
208.929472
 30
0.0
 10
262.924600
 20
209.261473
 30
0.0
 10
262.711607
 20
209.679472
 30
0.0
 10
262.638625
 20
210.143471
 30
0.0
  0
LWPOLYLINE
  5
136
100
AcDbEntity
  8
0
 62
7
100
AcDbPolyline
 90
21
 70
0
 10
268.138600
 20
110.143473
 30
0.0
 10
268.236615
 20
110.761472
 30
0.0
 10
268.520616
 20
111.319474
 30
0.0
 10
268.962604
 20
111.761473
 30
0.0
 10
269.520614
 20
112.045473
 30
0.0
 10
270.138624
 20
112.143472
 30
0.0
 10
270.756606
 20
112.045473
 30
0.0
 10
271.314616
 20
111.761473
 30
0.0
 10
271.756604
 20
111.319474
 30
0.0
 10
272.040604
 20
110.761472
 30
0.0
 10
272.138620
 20
110.143473
 30
0.0
 10
272.040604
 20
109.525472
 30
0.0
 10
271.756604
 20
108.967473
 30
0.0
 10
271.314616
 20
108.525474
 30
0.0
 10
270.756606
 20
108.241473
 30
0.0
 10
270.138624
 20
108.143472
 30
0.0
 10
269.520614
 20
108.241473
 30
0.0
 10
268.962604
 20
108.525474
 30
0.0
 10
268.520616
 20
108.967473
 30
0.0
 10
268.236615
 20
109.525472
 30
0.0
 10
268.138600
 20
110.143473
 30
0.0
  0
LWPOLYLINE
  5
137
100
AcDbEntity
  8
0
 62
7
100
AcDbPolyline
 90
21
 70
0
 10
268.138600
 20
160.143472
 30
0.0
 10
268.236615
 20
160.761471
 30
0.0
 10
268.520616
 20
161.319472
 30
0.0
 10
268.962604
 20
161.761472
 30
0.0
 10
269.520614
 20
162.045472
 30
0.0
 10
270.138624
 20
162.143471
 30
0.0
 10
270.756606
 20
162.045472
 30
0.0
 10
271.314616
 20
161.761472
 30
0.0
 10
271.756604
 20
161.319472
 30
0.0
 10
272.040604
 20
160.761471
 30
0.0
 10
272.138620
 20
160.143472
 30
0.0
 10
272.040604
 20
159.525473
 30
0.0
 10
271.756604
 20
158.967472
 30
0.0
 10
271.314616
 20
158.525472
 30
0.0
 10
270.756606
 20
158.241472
 30
0.0
 10
270.138624
 20
158.143473
 30
0.0
 10
269.520614
 20
158.241472
 30
0.0
 10
268.962604
 20
158.525472
 30
0.0
 10
268.520616
 20
158.967472
 30
0.0
 10
268.236615
 20
159.525473
 30
0.0
 10
268.138600
 20
160.143472
 30
0.0
  0
LWPOLYLINE
  5
138
100
AcDbEntity
  8
0
 62
7
100
AcDbPolyline
 90
93
 70
0
 10
280.138604
 20
20.143473
 30
0.0
 10
280.138604
 20
65.143473
 30
0.0
 10
280.165697
 20
66.190472
 30
0.0
 10
280.248614
 20
67.234472
 30
0.0
 10
280.384617
 20
68.272474
 30
0.0
 10
280.575625
 20
69.301473
 30
0.0
 10
280.819606
 20
70.319471
 30
0.0
 10
281.117604
 20
71.323471
 30
0.0
 10
281.466600
 20
72.310473
 30
0.0
 10
281.867610
 20
73.278472
 30
0.0
 10
282.318601
 20
74.223471
 30
0.0
 10
282.817598
 20
75.143473
 30
0.0
 10
283.365617
 20
76.036472
 30
0.0
 10
283.958623
 20
76.899471
 30
0.0
 10
284.595598
 20
77.729472
 30
0.0
 10
285.275613
 20
78.526473
 30
0.0
 10
285.996606
 20
79.285473
 30
0.0
 10
286.755614
 20
80.006472
 30
0.0
 10
287.552610
 20
80.686473
 30
0.0
 10
288.382625
 20
81.323474
 30
0.0
 10
289.245604
 20
81.916473
 30
0.0
 10
290.138612
 20
82.464473
 30
0.0
 10
291.058600
 20
82.963472
 30
0.0
 10
292.003621
 20
83.414472
 30
0.0
 10
292.971615
 20
83.815473
 30
0.0
 10
293.958603
 20
84.164472
 30
0.0
 10
294.962608
 20
84.462473
 30
0.0
 10
295.980612
 20
84.706471
 30
0.0
 10
297.009622
 20
84.897474
 30
0.0
 10
298.047608
 20
85.033474
 30
0.0
 10
299.091604
 20
85.116472
 30
0.0
 10
300.138620
 20
85.143481
 30
0.0
 10
301.185608
 20
85.116464
 30
0.0
 10
302.229605
 20
85.033474
 30
0.0
 10
303.267618
 20
84.897474
 30
0.0
 10
304.296600
 20
84.706471
 30
0.0
 10
305.314604
 20
84.462473
 30
0.0
 10
306.318610
 20
84.164472
 30
0.0
 10
307.305625
 20
83.815473
 30
0.0
 10
308.273619
 20
83.414472
 30
0.0
 10
309.218612
 20
82.963472
 30
0.0
 10
310.138600
 20
82.464473
 30
0.0
 10
311.031608
 20
81.916473
 30
0.0
 10
311.894615
 20
81.323474
 30
0.0
 10
312.724602
 20
80.686473
 30
0.0
 10
313.521598
 20
80.006472
 30
0.0
 10
314.280606
 20
79.285473
 30
0.0
 10
315.001600
 20
78.526473
 30
0.0
 10
315.681614
 20
77.729472
 30
0.0
 10
316.318618
 20
76.899471
 30
0.0
 10
316.911623
 20
76.036472
 30
0.0
 10
317.459614
 20
75.143473
 30
0.0
 10
317.958611
 20
74.223471
 30
0.0
 10
318.409602
 20
73.278472
 30
0.0
 10
318.810612
 20
72.310473
 30
0.0
 10
319.159608
 20
71.323471
 30
0.0
 10
319.457606
 20
70.319471
 30
0.0
 10
319.701616
 20
69.301473
 30
0.0
 10
319.892624
 20
68.272474
 30
0.0
 10
320.028598
 20
67.234472
 30
0.0
 10
320.111600
 20
66.190472
 30
0.0
 10
320.138693
 20
65.143473
 30
0.0
 10
320.138608
 20
20.143473
 30
0.0
 10
320.111515
 20
19.096474
 30
0.0
 10
320.028598
 20
18.052471
 30
0.0
 10
319.892624
 20
17.014472
 30
0.0
 10
319.701616
 20
15.985473
 30
0.0
 10
319.457606
 20
14.967472
 30
0.0
 10
319.159608
 20
13.963472
 30
0.0
 10
318.810612
 20
12.976473
 30
0.0
 10
318.409602
 20
12.008474
 30
0.0
 10
317.958611
 20
11.063472
 30
0.0
 10
317.459614
 20
10.143473
 30
0.0
 10
316.911623
 20
9.250471
 30
0.0
 10
316.318618
 20
8.387472
 30
0.0
 10
315.681614
 20
7.557474
 30
0.0
 10
315.001600
 20
6.760472
 30
0.0
 10
314.280606
 20
6.001472
 30
0.0
 10
313.521598
 20
5.280471
 30
0.0
 10
312.724602
 20
4.600476
 30
0.0
 10
311.894615
 20
3.963472
 30
0.0
 10
311.031608
 20
3.370467
 30
0.0
 10
310.138600
 20
2.822476
 30
0.0
 10
309.218612
 20
2.323479
 30
0.0
 10
308.273619
 20
1.872460
 30
0.0
 10
307.305625
 20
1.471478
 30
0.0
 10
306.318610
 20
1.122482
 30
0.0
 10
305.314604
 20
0.824484
 30
0.0
 10
304.296600
 20
0.580475
 30
0.0
 10
303.267618
 20
0.389467
 30
0.0
 10
302.229605
 20
0.253464
 30
0.0
 10
301.185608
 20
0.170462
 30
0.0
 10
300.138620
 20
0.143369
 30
0.0
  0
LWPOLYLINE
  5
139
100
AcDbEntity
  8
0
 62
7
100
AcDbPolyline
 90
2
 70
0
 10
300.138620
 20
0.143482
 30
0.0
 10
299.091604
 20
0.170575
 30
0.0
  0
LWPOLYLINE
  5
13a
100
AcDbEntity
  8
0
 62
7
100
AcDbPolyline
 90
30
 70
0
 10
299.091604
 20
0.170462
 30
0.0
 10
298.047608
 20
0.253464
 30
0.0
 10
297.009622
 20
0.389467
 30
0.0
 10
295.980612
 20
0.580475
 30
0.0
 10
294.962608
 20
0.824484
 30
0.0
 10
293.958603
 20
1.122482
 30
0.0
 10
292.971615
 20
1.471478
 30
0.0
 10
292.003621
 20
1.872460
 30
0.0
 10
291.058600
 20
2.323479
 30
0.0
 10
290.138612
 20
2.822476
 30
0.0
 10
289.245604
 20
3.370467
 30
0.0
 10
288.382625
 20
3.963472
 30
0.0
 10
287.552610
 20
4.600476
 30
0.0
 10
286.755614
 20
5.280471
 30
0.0
 10
285.996606
 20
6.001472
 30
0.0
 10
285.275613
 20
6.760472
 30
0.0
 10
284.595598
 20
7.557474
 30
0.0
 10
283.958623
 20
8.387472
 30
0.0
 10
283.365617
 20
9.250471
 30
0.0
 10
282.817598
 20
10.143473
 30
0.0
 10
282.318601
 20
11.063472
 30
0.0
 10
281.867610
 20
12.008474
 30
0.0
 10
281.466600
 20
12.976473
 30
0.0
 10
281.117604
 20
13.963472
 30
0.0
 10
280.819606
 20
14.967472
 30
0.0
 10
280.575625
 20
15.985473
 30
0.0
 10
280.384617
 20
17.014472
 30
0.0
 10
280.248614
 20
18.052471
 30
0.0
 10
280.165612
 20
19.096474
 30
0.0
 10
280.138519
 20
20.143473
 30
0.0
  0
LWPOLYLINE
  5
13b
100
AcDbEntity
  8
0
 62
7
100
AcDbPolyline
 90
5
 70
0
 10
284.138624
 20
104.223473
 30
0.0
 10
284.138624
 20
116.063471
 30
0.0
 10
308.138604
 20
116.063471
 30
0.0
 10
308.138604
 20
104.223473
 30
0.0
 10
284.138624
 20
104.223473
 30
0.0
  0
LWPOLYLINE
  5
13c
100
AcDbEntity
  8
0
 62
7
100
AcDbPolyline
 90
5
 70
0
 10
284.138624
 20
154.223472
 30
0.0
 10
284.138624
 20
166.063473
 30
0.0
 10
308.138604
 20
166.063473
 30
0.0
 10
308.138604
 20
154.223472
 30
0.0
 10
284.138624
 20
154.223472
 30
0.0
  0
LWPOLYLINE
  5
13d
100
AcDbEntity
  8
0
 62
7
100
AcDbPolyline
 90
21
 70
0
 10
284.638609
 20
20.143473
 30
0.0
 10
284.711620
 20
20.607472
 30
0.0
 10
284.924613
 20
21.025471
 30
0.0
 10
285.256619
 20
21.357471
 30
0.0
 10
285.674618
 20
21.570473
 30
0.0
 10
286.138620
 20
21.643473
 30
0.0
 10
286.602622
 20
21.570473
 30
0.0
 10
287.020621
 20
21.357471
 30
0.0
 10
287.352599
 20
21.025471
 30
0.0
 10
287.565620
 20
20.607472
 30
0.0
 10
287.638603
 20
20.143473
 30
0.0
 10
287.565620
 20
19.679471
 30
0.0
 10
287.352599
 20
19.261472
 30
0.0
 10
287.020621
 20
18.929471
 30
0.0
 10
286.602622
 20
18.716473
 30
0.0
 10
286.138620
 20
18.643473
 30
0.0
 10
285.674618
 20
18.716473
 30
0.0
 10
285.256619
 20
18.929471
 30
0.0
 10
284.924613
 20
19.261472
 30
0.0
 10
284.711620
 20
19.679471
 30
0.0
 10
284.638609
 20
20.143473
 30
0.0
  0
LWPOLYLINE
  5
13e
100
AcDbEntity
  8
0
 62
7
100
AcDbPolyline
 90
21
 70
0
 10
284.638609
 20
65.143473
 30
0.0
 10
284.711620
 20
65.607472
 30
0.0
 10
284.924613
 20
66.025471
 30
0.0
 10
285.256619
 20
66.357472
 30
0.0
 10
285.674618
 20
66.570473
 30
0.0
 10
286.138620
 20
66.643473
 30
0.0
 10
286.602622
 20
66.570473
 30
0.0
 10
287.020621
 20
66.357472
 30
0.0
 10
287.352599
 20
66.025471
 30
0.0
 10
287.565620
 20
65.607472
 30
0.0
 10
287.638603
 20
65.143473
 30
0.0
 10
287.565620
 20
64.679472
 30
0.0
 10
287.352599
 20
64.261472
 30
0.0
 10
287.020621
 20
63.929472
 30
0.0
 10
286.602622
 20
63.716473
 30
0.0
 10
286.138620
 20
63.643473
 30
0.0
 10
285.674618
 20
63.716473
 30
0.0
 10
285.256619
 20
63.929472
 30
0.0
 10
284.924613
 20
64.261472
 30
0.0
 10
284.711620
 20
64.679472
 30
0.0
 10
284.638609
 20
65.143473
 30
0.0
  0
LWPOLYLINE
  5
13f
100
AcDbEntity
  8
0
 62
7
100
AcDbPolyline
 90
21
 70
0
 10
294.638617
 20
98.143472
 30
0.0
 10
294.711600
 20
98.607474
 30
0.0
 10
294.924621
 20
99.025473
 30
0.0
 10
295.256599
 20
99.357474
 30
0.0
 10
295.674598
 20
99.570472
 30
0.0
 10
296.138600
 20
99.643472
 30
0.0
 10
296.602602
 20
99.570472
 30
0.0
 10
297.020601
 20
99.357474
 30
0.0
 10
297.352607
 20
99.025473
 30
0.0
 10
297.565600
 20
98.607474
 30
0.0
 10
297.638611
 20
98.143472
 30
0.0
 10
297.565600
 20
97.679473
 30
0.0
 10
297.352607
 20
97.261471
 30
0.0
 10
297.020601
 20
96.929473
 30
0.0
 10
296.602602
 20
96.716472
 30
0.0
 10
296.138600
 20
96.643472
 30
0.0
 10
295.674598
 20
96.716472
 30
0.0
 10
295.256599
 20
96.929473
 30
0.0
 10
294.924621
 20
97.261471
 30
0.0
 10
294.711600
 20
97.679473
 30
0.0
 10
294.638617
 20
98.143472
 30
0.0
  0
LWPOLYLINE
  5
140
100
AcDbEntity
  8
0
 62
7
100
AcDbPolyline
 90
21
 70
0
 10
294.638617
 20
172.143471
 30
0.0
 10
294.711600
 20
172.607472
 30
0.0
 10
294.924621
 20
173.025472
 30
0.0
 10
295.256599
 20
173.357472
 30
0.0
 10
295.674598
 20
173.570471
 30
0.0
 10
296.138600
 20
173.643473
 30
0.0
 10
296.602602
 20
173.570471
 30
0.0
 10
297.020601
 20
173.357472
 30
0.0
 10
297.352607
 20
173.025472
 30
0.0
 10
297.565600
 20
172.607472
 30
0.0
 10
297.638611
 20
172.143471
 30
0.0
 10
297.565600
 20
171.679472
 30
0.0
 10
297.352607
 20
171.261473
 30
0.0
 10
297.020601
 20
170.929472
 30
0.0
 10
296.602602
 20
170.716473
 30
0.0
 10
296.138600
 20
170.643471
 30
0.0
 10
295.674598
 20
170.716473
 30
0.0
 10
295.256599
 20
170.929472
 30
0.0
 10
294.924621
 20
171.261473
 30
0.0
 10
294.711600
 20
171.679472
 30
0.0
 10
294.638617
 20
172.143471
 30
0.0
  0
LWPOLYLINE
  5
141
100
AcDbEntity
  8
0
 62
7
100
AcDbPolyline
 90
5
 70
0
 10
295.091612
 20
8.143471
 30
0.0
 10
295.091612
 20
32.143471
 30
0.0
 10
305.185600
 20
32.143471
 30
0.0
 10
305.185600
 20
8.143471
 30
0.0
 10
295.091612
 20
8.143471
 30
0.0
  0
LWPOLYLINE
  5
142
100
AcDbEntity
  8
0
 62
7
100
AcDbPolyline
 90
5
 70
0
 10
295.091612
 20
53.143472
 30
0.0
 10
295.091612
 20
77.143472
 30
0.0
 10
305.185600
 20
77.143472
 30
0.0
 10
305.185600
 20
53.143472
 30
0.0
 10
295.091612
 20
53.143472
 30
0.0
  0
LWPOLYLINE
  5
143
100
AcDbEntity
  8
0
 62
7
100
AcDbPolyline
 90
21
 70
0
 10
303.638599
 20
135.143471
 30
0.0
 10
303.711610
 20
135.607473
 30
0.0
 10
303.924603
 20
136.025472
 30
0.0
 10
304.256609
 20
136.357473
 30
0.0
 10
304.674609
 20
136.570472
 30
0.0
 10
305.138610
 20
136.643471
 30
0.0
 10
305.602612
 20
136.570472
 30
0.0
 10
306.020611
 20
136.357473
 30
0.0
 10
306.352617
 20
136.025472
 30
0.0
 10
306.565610
 20
135.607473
 30
0.0
 10
306.638621
 20
135.143471
 30
0.0
 10
306.565610
 20
134.679473
 30
0.0
 10
306.352617
 20
134.261473
 30
0.0
 10
306.020611
 20
133.929473
 30
0.0
 10
305.602612
 20
133.716471
 30
0.0
 10
305.138610
 20
133.643472
 30
0.0
 10
304.674609
 20
133.716471
 30
0.0
 10
304.256609
 20
133.929473
 30
0.0
 10
303.924603
 20
134.261473
 30
0.0
 10
303.711610
 20
134.679473
 30
0.0
 10
303.638599
 20
135.143471
 30
0.0
  0
LWPOLYLINE
  5
144
100
AcDbEntity
  8
0
 62
7
100
AcDbPolyline
 90
21
 70
0
 10
312.638609
 20
20.143473
 30
0.0
 10
312.711620
 20
20.607472
 30
0.0
 10
312.924613
 20
21.025471
 30
0.0
 10
313.256620
 20
21.357471
 30
0.0
 10
313.674619
 20
21.570473
 30
0.0
 10
314.138620
 20
21.643473
 30
0.0
 10
314.602622
 20
21.570473
 30
0.0
 10
315.020621
 20
21.357471
 30
0.0
 10
315.352599
 20
21.025471
 30
0.0
 10
315.565621
 20
20.607472
 30
0.0
 10
315.638603
 20
20.143473
 30
0.0
 10
315.565621
 20
19.679471
 30
0.0
 10
315.352599
 20
19.261472
 30
0.0
 10
315.020621
 20
18.929471
 30
0.0
 10
314.602622
 20
18.716473
 30
0.0
 10
314.138620
 20
18.643473
 30
0.0
 10
313.674619
 20
18.716473
 30
0.0
 10
313.256620
 20
18.929471
 30
0.0
 10
312.924613
 20
19.261472
 30
0.0
 10
312.711620
 20
19.679471
 30
0.0
 10
312.638609
 20
20.143473
 30
0.0
  0
LWPOLYLINE
  5
145
100
AcDbEntity
  8
0
 62
7
100
AcDbPolyline
 90
21
 70
0
 10
312.638609
 20
65.143473
 30
0.0
 10
312.711620
 20
65.607472
 30
0.0
 10
312.924613
 20
66.025471
 30
0.0
 10
313.256620
 20
66.357472
 30
0.0
 10
313.674619
 20
66.570473
 30
0.0
 10
314.138620
 20
66.643473
 30
0.0
 10
314.602622
 20
66.570473
 30
0.0
 10
315.020621
 20
66.357472
 30
0.0
 10
315.352599
 20
66.025471
 30
0.0
 10
315.565621
 20
65.607472
 30
0.0
 10
315.638603
 20
65.143473
 30
0.0
 10
315.565621
 20
64.679472
 30
0.0
 10
315.352599
 20
64.261472
 30
0.0
 10
315.020621
 20
63.929472
 30
0.0
 10
314.602622
 20
63.716473
 30
0.0
 10
314.138620
 20
63.643473
 30
0.0
 10
313.674619
 20
63.716473
 30
0.0
 10
313.256620
 20
63.929472
 30
0.0
 10
312.924613
 20
64.261472
 30
0.0
 10
312.711620
 20
64.679472
 30
0.0
 10
312.638609
 20
65.143473
 30
0.0
  0
LWPOLYLINE
  5
146
100
AcDbEntity
  8
0
 62
7
100
AcDbPolyline
 90
93
 70
0
 10
330.138617
 20
20.143473
 30
0.0
 10
330.138617
 20
120.143473
 30
0.0
 10
330.165710
 20
121.190472
 30
0.0
 10
330.248599
 20
122.234472
 30
0.0
 10
330.384602
 20
123.272471
 30
0.0
 10
330.575610
 20
124.301473
 30
0.0
 10
330.819619
 20
125.319471
 30
0.0
 10
331.117617
 20
126.323471
 30
0.0
 10
331.466613
 20
127.310473
 30
0.0
 10
331.867623
 20
128.278472
 30
0.0
 10
332.318614
 20
129.223474
 30
0.0
 10
332.817611
 20
130.143473
 30
0.0
 10
333.365602
 20
131.036472
 30
0.0
 10
333.958607
 20
131.899471
 30
0.0
 10
334.595611
 20
132.729472
 30
0.0
 10
335.275597
 20
133.526474
 30
0.0
 10
335.996619
 20
134.285474
 30
0.0
 10
336.755599
 20
135.006472
 30
0.0
 10
337.552623
 20
135.686473
 30
0.0
 10
338.382610
 20
136.323474
 30
0.0
 10
339.245617
 20
136.916473
 30
0.0
 10
340.138625
 20
137.464473
 30
0.0
 10
341.058613
 20
137.963473
 30
0.0
 10
342.003606
 20
138.414472
 30
0.0
 10
342.971600
 20
138.815473
 30
0.0
 10
343.958616
 20
139.164472
 30
0.0
 10
344.962621
 20
139.462473
 30
0.0
 10
345.980625
 20
139.706471
 30
0.0
 10
347.009607
 20
139.897474
 30
0.0
 10
348.047620
 20
140.033471
 30
0.0
 10
349.091617
 20
140.116473
 30
0.0
 10
350.138605
 20
140.143481
 30
0.0
 10
351.185621
 20
140.116464
 30
0.0
 10
352.229618
 20
140.033471
 30
0.0
 10
353.267603
 20
139.897474
 30
0.0
 10
354.296613
 20
139.706471
 30
0.0
 10
355.314617
 20
139.462473
 30
0.0
 10
356.318622
 20
139.164472
 30
0.0
 10
357.305610
 20
138.815473
 30
0.0
 10
358.273604
 20
138.414472
 30
0.0
 10
359.218625
 20
137.963473
 30
0.0
 10
360.138613
 20
137.464473
 30
0.0
 10
361.031621
 20
136.916473
 30
0.0
 10
361.894600
 20
136.323474
 30
0.0
 10
362.724615
 20
135.686473
 30
0.0
 10
363.521611
 20
135.006472
 30
0.0
 10
364.280619
 20
134.285474
 30
0.0
 10
365.001612
 20
133.526474
 30
0.0
 10
365.681599
 20
132.729472
 30
0.0
 10
366.318602
 20
131.899471
 30
0.0
 10
366.911608
 20
131.036472
 30
0.0
 10
367.459599
 20
130.143473
 30
0.0
 10
367.958624
 20
129.223474
 30
0.0
 10
368.409615
 20
128.278472
 30
0.0
 10
368.810625
 20
127.310473
 30
0.0
 10
369.159621
 20
126.323471
 30
0.0
 10
369.457619
 20
125.319471
 30
0.0
 10
369.701600
 20
124.301473
 30
0.0
 10
369.892608
 20
123.272471
 30
0.0
 10
370.028611
 20
122.234472
 30
0.0
 10
370.111613
 20
121.190472
 30
0.0
 10
370.138706
 20
120.143473
 30
0.0
 10
370.138621
 20
20.143473
 30
0.0
 10
370.111528
 20
19.096474
 30
0.0
 10
370.028611
 20
18.052471
 30
0.0
 10
369.892608
 20
17.014472
 30
0.0
 10
369.701600
 20
15.985473
 30
0.0
 10
369.457619
 20
14.967472
 30
0.0
 10
369.159621
 20
13.963472
 30
0.0
 10
368.810625
 20
12.976473
 30
0.0
 10
368.409615
 20
12.008474
 30
0.0
 10
367.958624
 20
11.063472
 30
0.0
 10
367.459599
 20
10.143473
 30
0.0
 10
366.911608
 20
9.250471
 30
0.0
 10
366.318602
 20
8.387472
 30
0.0
 10
365.681599
 20
7.557474
 30
0.0
 10
365.001612
 20
6.760472
 30
0.0
 10
364.280619
 20
6.001472
 30
0.0
 10
363.521611
 20
5.280471
 30
0.0
 10
362.724615
 20
4.600476
 30
0.0
 10
361.894600
 20
3.963472
 30
0.0
 10
361.031621
 20
3.370467
 30
0.0
 10
360.138613
 20
2.822476
 30
0.0
 10
359.218625
 20
2.323479
 30
0.0
 10
358.273604
 20
1.872460
 30
0.0
 10
357.305610
 20
1.471478
 30
0.0
 10
356.318622
 20
1.122482
 30
0.0
 10
355.314617
 20
0.824484
 30
0.0
 10
354.296613
 20
0.580475
 30
0.0
 10
353.267603
 20
0.389467
 30
0.0
 10
352.229618
 20
0.253464
 30
0.0
 10
351.185621
 20
0.170462
 30
0.0
 10
350.138605
 20
0.143369
 30
0.0
  0
LWPOLYLINE
  5
147
100
AcDbEntity
  8
0
 62
7
100
AcDbPolyline
 90
2
 70
0
 10
350.138605
 20
0.143482
 30
0.0
 10
349.091617
 20
0.170575
 30
0.0
  0
LWPOLYLINE
  5
148
100
AcDbEntity
  8
0
 62
7
100
AcDbPolyline
 90
30
 70
0
 10
349.091617
 20
0.170462
 30
0.0
 10
348.047620
 20
0.253464
 30
0.0
 10
347.009607
 20
0.389467
 30
0.0
 10
345.980625
 20
0.580475
 30
0.0
 10
344.962621
 20
0.824484
 30
0.0
 10
343.958616
 20
1.122482
 30
0.0
 10
342.971600
 20
1.471478
 30
0.0
 10
342.003606
 20
1.872460
 30
0.0
 10
341.058613
 20
2.323479
 30
0.0
 10
340.138625
 20
2.822476
 30
0.0
 10
339.245617
 20
3.370467
 30
0.0
 10
338.382610
 20
3.963472
 30
0.0
 10
337.552623
 20
4.600476
 30
0.0
 10
336.755599
 20
5.280471
 30
0.0
 10
335.996619
 20
6.001472
 30
0.0
 10
335.275597
 20
6.760472
 30
0.0
 10
334.595611
 20
7.557474
 30
0.0
 10
333.958607
 20
8.387472
 30
0.0
 10
333.365602
 20
9.250471
 30
0.0
 10
332.817611
 20
10.143473
 30
0.0
 10
332.318614
 20
11.063472
 30
0.0
 10
331.867623
 20
12.008474
 30
0.0
 10
331.466613
 20
12.976473
 30
0.0
 10
331.117617
 20
13.963472
 30
0.0
 10
330.819619
 20
14.967472
 30
0.0
 10
330.575610
 20
15.985473
 30
0.0
 10
330.384602
 20
17.014472
 30
0.0
 10
330.248599
 20
18.052471
 30
0.0
 10
330.165625
 20
19.096474
 30
0.0
 10
330.138532
 20
20.143473
 30
0.0
  0
LWPOLYLINE
  5
149
100
AcDbEntity
  8
0
 62
7
100
AcDbPolyline
 90
21
 70
0
 10
334.638622
 20
20.143473
 30
0.0
 10
334.711604
 20
20.607472
 30
0.0
 10
334.924598
 20
21.025471
 30
0.0
 10
335.256604
 20
21.357471
 30
0.0
 10
335.674603
 20
21.570473
 30
0.0
 10
336.138605
 20
21.643473
 30
0.0
 10
336.602606
 20
21.570473
 30
0.0
 10
337.020606
 20
21.357471
 30
0.0
 10
337.352612
 20
21.025471
 30
0.0
 10
337.565605
 20
20.607472
 30
0.0
 10
337.638616
 20
20.143473
 30
0.0
 10
337.565605
 20
19.679471
 30
0.0
 10
337.352612
 20
19.261472
 30
0.0
 10
337.020606
 20
18.929471
 30
0.0
 10
336.602606
 20
18.716473
 30
0.0
 10
336.138605
 20
18.643473
 30
0.0
 10
335.674603
 20
18.716473
 30
0.0
 10
335.256604
 20
18.929471
 30
0.0
 10
334.924598
 20
19.261472
 30
0.0
 10
334.711604
 20
19.679471
 30
0.0
 10
334.638622
 20
20.143473
 30
0.0
  0
LWPOLYLINE
  5
14a
100
AcDbEntity
  8
0
 62
7
100
AcDbPolyline
 90
21
 70
0
 10
334.638622
 20
120.143473
 30
0.0
 10
334.711604
 20
120.607472
 30
0.0
 10
334.924598
 20
121.025471
 30
0.0
 10
335.256604
 20
121.357472
 30
0.0
 10
335.674603
 20
121.570473
 30
0.0
 10
336.138605
 20
121.643473
 30
0.0
 10
336.602606
 20
121.570473
 30
0.0
 10
337.020606
 20
121.357472
 30
0.0
 10
337.352612
 20
121.025471
 30
0.0
 10
337.565605
 20
120.607472
 30
0.0
 10
337.638616
 20
120.143473
 30
0.0
 10
337.565605
 20
119.679472
 30
0.0
 10
337.352612
 20
119.261472
 30
0.0
 10
337.020606
 20
118.929472
 30
0.0
 10
336.602606
 20
118.716473
 30
0.0
 10
336.138605
 20
118.643473
 30
0.0
 10
335.674603
 20
118.716473
 30
0.0
 10
335.256604
 20
118.929472
 30
0.0
 10
334.924598
 20
119.261472
 30
0.0
 10
334.711604
 20
119.679472
 30
0.0
 10
334.638622
 20
120.143473
 30
0.0
  0
LWPOLYLINE
  5
14b
100
AcDbEntity
  8
0
 62
7
100
AcDbPolyline
 90
5
 70
0
 10
345.091625
 20
8.143471
 30
0.0
 10
345.091625
 20
32.143471
 30
0.0
 10
355.185613
 20
32.143471
 30
0.0
 10
355.185613
 20
8.143471
 30
0.0
 10
345.091625
 20
8.143471
 30
0.0
  0
LWPOLYLINE
  5
14c
100
AcDbEntity
  8
0
 62
7
100
AcDbPolyline
 90
5
 70
0
 10
345.091625
 20
108.143472
 30
0.0
 10
345.091625
 20
132.143472
 30
0.0
 10
355.185613
 20
132.143472
 30
0.0
 10
355.185613
 20
108.143472
 30
0.0
 10
345.091625
 20
108.143472
 30
0.0
  0
LWPOLYLINE
  5
14d
100
AcDbEntity
  8
0
 62
7
100
AcDbPolyline
 90
21
 70
0
 10
362.638622
 20
20.143473
 30
0.0
 10
362.711605
 20
20.607472
 30
0.0
 10
362.924598
 20
21.025471
 30
0.0
 10
363.256604
 20
21.357471
 30
0.0
 10
363.674604
 20
21.570473
 30
0.0
 10
364.138605
 20
21.643473
 30
0.0
 10
364.602607
 20
21.570473
 30
0.0
 10
365.020606
 20
21.357471
 30
0.0
 10
365.352612
 20
21.025471
 30
0.0
 10
365.565605
 20
20.607472
 30
0.0
 10
365.638616
 20
20.143473
 30
0.0
 10
365.565605
 20
19.679471
 30
0.0
 10
365.352612
 20
19.261472
 30
0.0
 10
365.020606
 20
18.929471
 30
0.0
 10
364.602607
 20
18.716473
 30
0.0
 10
364.138605
 20
18.643473
 30
0.0
 10
363.674604
 20
18.716473
 30
0.0
 10
363.256604
 20
18.929471
 30
0.0
 10
362.924598
 20
19.261472
 30
0.0
 10
362.711605
 20
19.679471
 30
0.0
 10
362.638622
 20
20.143473
 30
0.0
  0
LWPOLYLINE
  5
14e
100
AcDbEntity
  8
0
 62
7
100
AcDbPolyline
 90
21
 70
0
 10
362.638622
 20
120.143473
 30
0.0
 10
362.711605
 20
120.607472
 30
0.0
 10
362.924598
 20
121.025471
 30
0.0
 10
363.256604
 20
121.357472
 30
0.0
 10
363.674604
 20
121.570473
 30
0.0
 10
364.138605
 20
121.643473
 30
0.0
 10
364.602607
 20
121.570473
 30
0.0
 10
365.020606
 20
121.357472
 30
0.0
 10
365.352612
 20
121.025471
 30
0.0
 10
365.565605
 20
120.607472
 30
0.0
 10
365.638616
 20
120.143473
 30
0.0
 10
365.565605
 20
119.679472
 30
0.0
 10
365.352612
 20
119.261472
 30
0.0
 10
365.020606
 20
118.929472
 30
0.0
 10
364.602607
 20
118.716473
 30
0.0
 10
364.138605
 20
118.643473
 30
0.0
 10
363.674604
 20
118.716473
 30
0.0
 10
363.256604
 20
118.929472
 30
0.0
 10
362.924598
 20
119.261472
 30
0.0
 10
362.711605
 20
119.679472
 30
0.0
 10
362.638622
 20
120.143473
 30
0.0
  0
ENDSEC
  0
SECTION
  2
OBJECTS
  0
DICTIONARY
  5
C
330
0
100
AcDbDictionary
  3
ACAD_GROUP
350
D
  3
ACAD_MLINESTYLE
350
17
  0
DICTIONARY
  5
D
330
C
100
AcDbDictionary
  0
DICTIONARY
  5
1A
330
C
100
AcDbDictionary
  0
DICTIONARY
  5
17
330
C
100
AcDbDictionary
  3
STANDARD
350
18
  0
DICTIONARY
  5
19
330
C
100
AcDbDictionary
  0
ENDSEC
  0
EOF
