999
DXF created by Inkscape
  0
SECTION
  2
HEADER
  9
$ACADVER
  1
AC1014
  9
$HANDSEED
  5
FFFF
  9
$MEASUREMENT
 70
     1
  0
ENDSEC
  0
SECTION
  2
TABLES
  0
TABLE
  2
VPORT
  5
8
330
0
100
AcDbSymbolTable
 70
     4
  0
VPORT
  5
2E
330
8
100
AcDbSymbolTableRecord
100
AcDbViewportTableRecord
  2
*ACTIVE
 70
     0
 10
0.0
 20
0.0
 11
1.0
 21
1.0
 12
210.0
 22
148.5
 13
0.0
 23
0.0
 14
10.0
 24
10.0
 15
10.0
 25
10.0
 16
0.0
 26
0.0
 36
1.0
 17
0.0
 27
0.0
 37
0.0
 40
341.0
 41
1.24
 42
50.0
 43
0.0
 44
0.0
 50
0.0
 51
0.0
 71
     0
 72
   100
 73
     1
 74
     3
 75
     0
 76
     0
 77
     0
 78
     0
  0
ENDTAB
  0
TABLE
  2
LTYPE
  5
5
330
0
100
AcDbSymbolTable
 70
     1
  0
LTYPE
  5
14
330
5
100
AcDbSymbolTableRecord
100
AcDbLinetypeTableRecord
  2
BYBLOCK
 70
     0
  3

 72
    65
 73
     0
 40
0.0
  0
LTYPE
  5
15
330
5
100
AcDbSymbolTableRecord
100
AcDbLinetypeTableRecord
  2
BYLAYER
 70
     0
  3

 72
    65
 73
     0
 40
0.0
  0
LTYPE
  5
16
330
5
100
AcDbSymbolTableRecord
100
AcDbLinetypeTableRecord
  2
CONTINUOUS
 70
     0
  3
Solid line
 72
    65
 73
     0
 40
0.0
  0
ENDTAB
  0
TABLE
  2
LAYER
  5
2
100
AcDbSymbolTable
 70
1
  0
LAYER
  5
50
100
AcDbSymbolTableRecord
100
AcDbLayerTableRecord
  2
0
 70
0
  6
CONTINUOUS
  0
ENDTAB
  0
TABLE
  2
STYLE
  5
3
330
0
100
AcDbSymbolTable
 70
     1
  0
STYLE
  5
11
330
3
100
AcDbSymbolTableRecord
100
AcDbTextStyleTableRecord
  2
STANDARD
 70
     0
 40
0.0
 41
1.0
 50
0.0
 71
     0
 42
2.5
  3
txt
  4

  0
ENDTAB
  0
TABLE
  2
VIEW
  5
6
330
0
100
AcDbSymbolTable
 70
     0
  0
ENDTAB
  0
TABLE
  2
UCS
  5
7
330
0
100
AcDbSymbolTable
 70
     0
  0
ENDTAB
  0
TABLE
  2
APPID
  5
9
330
0
100
AcDbSymbolTable
 70
     2
  0
APPID
  5
12
330
9
100
AcDbSymbolTableRecord
100
AcDbRegAppTableRecord
  2
ACAD
 70
     0
  0
ENDTAB
  0
TABLE
  2
DIMSTYLE
  5
A
330
0
100
AcDbSymbolTable
 70
     1
  0
DIMSTYLE
105
27
330
A
100
AcDbSymbolTableRecord
100
AcDbDimStyleTableRecord
  2
ISO-25
 70
     0
  3

  4

  5

  6

  7

 40
1.0
 41
2.5
 42
0.625
 43
3.75
 44
1.25
 45
0.0
 46
0.0
 47
0.0
 48
0.0
140
2.5
141
2.5
142
0.0
143
0.03937007874016
144
1.0
145
0.0
146
1.0
147
0.625
 71
     0
 72
     0
 73
     0
 74
     0
 75
     0
 76
     0
 77
     1
 78
     8
170
     0
171
     3
172
     1
173
     0
174
     0
175
     0
176
     0
177
     0
178
     0
270
     2
271
     2
272
     2
273
     2
274
     3
340
11
275
     0
280
     0
281
     0
282
     0
283
     0
284
     8
285
     0
286
     0
287
     3
288
     0
  0
ENDTAB
  0
TABLE
  2
BLOCK_RECORD
  5
1
330
0
100
AcDbSymbolTable
 70
     1
  0
BLOCK_RECORD
  5
1F
330
1
100
AcDbSymbolTableRecord
100
AcDbBlockTableRecord
  2
*MODEL_SPACE
  0
BLOCK_RECORD
  5
1B
330
1
100
AcDbSymbolTableRecord
100
AcDbBlockTableRecord
  2
*PAPER_SPACE
  0
ENDTAB
  0
ENDSEC
  0
SECTION
  2
BLOCKS
  0
BLOCK
  5
20
330
1F
100
AcDbEntity
  8
0
100
AcDbBlockBegin
  2
*MODEL_SPACE
 70
     0
 10
0.0
 20
0.0
 30
0.0
  3
*MODEL_SPACE
  1

  0
ENDBLK
  5
21
330
1F
100
AcDbEntity
  8
0
100
AcDbBlockEnd
  0
BLOCK
  5
1C
330
1B
100
AcDbEntity
 67
     1
  8
0
100
AcDbBlockBegin
  2
*PAPER_SPACE
  1

  0
ENDBLK
  5
1D
330
1B
100
AcDbEntity
 67
     1
  8
0
100
AcDbBlockEnd
  0
ENDSEC
  0
SECTION
  2
ENTITIES
  0
LWPOLYLINE
  5
100
100
AcDbEntity
  8
0
 62
7
100
AcDbPolyline
 90
25
 70
0
 10
0.138472
 20
11.639389
 30
0.0
 10
0.138472
 20
433.639389
 30
0.0
 10
53.138471
 20
433.639389
 30
0.0
 10
53.138471
 20
409.639389
 30
0.0
 10
53.290473
 20
409.639389
 30
0.0
 10
53.574473
 20
408.392390
 30
0.0
 10
55.138472
 20
407.639390
 30
0.0
 10
91.138471
 20
407.639390
 30
0.0
 10
92.702473
 20
408.392390
 30
0.0
 10
92.986473
 20
409.639389
 30
0.0
 10
93.138473
 20
409.639389
 30
0.0
 10
93.138473
 20
433.639389
 30
0.0
 10
116.138472
 20
433.639389
 30
0.0
 10
116.138472
 20
11.639389
 30
0.0
 10
93.138473
 20
11.639389
 30
0.0
 10
93.138473
 20
35.639389
 30
0.0
 10
92.986473
 20
35.639389
 30
0.0
 10
92.702473
 20
36.886388
 30
0.0
 10
91.138471
 20
37.639388
 30
0.0
 10
55.138472
 20
37.639388
 30
0.0
 10
53.574473
 20
36.886388
 30
0.0
 10
53.290473
 20
35.639389
 30
0.0
 10
53.138471
 20
35.639389
 30
0.0
 10
53.138471
 20
11.639389
 30
0.0
 10
0.138472
 20
11.639389
 30
0.0
  0
LWPOLYLINE
  5
101
100
AcDbEntity
  8
0
 62
7
100
AcDbPolyline
 90
5
 70
0
 10
2.888472
 20
20.896388
 30
0.0
 10
2.888472
 20
25.896389
 30
0.0
 10
9.388472
 20
25.896389
 30
0.0
 10
9.388472
 20
20.896388
 30
0.0
 10
2.888472
 20
20.896388
 30
0.0
  0
LWPOLYLINE
  5
102
100
AcDbEntity
  8
0
 62
7
100
AcDbPolyline
 90
5
 70
0
 10
2.888472
 20
44.409388
 30
0.0
 10
2.888472
 20
49.409390
 30
0.0
 10
9.388472
 20
49.409390
 30
0.0
 10
9.388472
 20
44.409388
 30
0.0
 10
2.888472
 20
44.409388
 30
0.0
  0
LWPOLYLINE
  5
103
100
AcDbEntity
  8
0
 62
7
100
AcDbPolyline
 90
5
 70
0
 10
2.888472
 20
395.869389
 30
0.0
 10
2.888472
 20
400.869390
 30
0.0
 10
9.388472
 20
400.869390
 30
0.0
 10
9.388472
 20
395.869389
 30
0.0
 10
2.888472
 20
395.869389
 30
0.0
  0
LWPOLYLINE
  5
104
100
AcDbEntity
  8
0
 62
7
100
AcDbPolyline
 90
5
 70
0
 10
2.888472
 20
419.382389
 30
0.0
 10
2.888472
 20
424.382390
 30
0.0
 10
9.388472
 20
424.382390
 30
0.0
 10
9.388472
 20
419.382389
 30
0.0
 10
2.888472
 20
419.382389
 30
0.0
  0
LWPOLYLINE
  5
105
100
AcDbEntity
  8
0
 62
7
100
AcDbPolyline
 90
21
 70
0
 10
4.638472
 20
35.152389
 30
0.0
 10
4.711472
 20
35.616388
 30
0.0
 10
4.924472
 20
36.034390
 30
0.0
 10
5.256472
 20
36.366388
 30
0.0
 10
5.674472
 20
36.579389
 30
0.0
 10
6.138472
 20
36.652389
 30
0.0
 10
6.602472
 20
36.579389
 30
0.0
 10
7.020472
 20
36.366388
 30
0.0
 10
7.352472
 20
36.034390
 30
0.0
 10
7.565472
 20
35.616388
 30
0.0
 10
7.638472
 20
35.152389
 30
0.0
 10
7.565472
 20
34.688391
 30
0.0
 10
7.352472
 20
34.270388
 30
0.0
 10
7.020472
 20
33.938391
 30
0.0
 10
6.602472
 20
33.725389
 30
0.0
 10
6.138472
 20
33.652389
 30
0.0
 10
5.674472
 20
33.725389
 30
0.0
 10
5.256472
 20
33.938391
 30
0.0
 10
4.924472
 20
34.270388
 30
0.0
 10
4.711472
 20
34.688391
 30
0.0
 10
4.638472
 20
35.152389
 30
0.0
  0
LWPOLYLINE
  5
106
100
AcDbEntity
  8
0
 62
7
100
AcDbPolyline
 90
21
 70
0
 10
4.638472
 20
410.126389
 30
0.0
 10
4.711472
 20
410.590388
 30
0.0
 10
4.924472
 20
411.008390
 30
0.0
 10
5.256472
 20
411.340390
 30
0.0
 10
5.674472
 20
411.553389
 30
0.0
 10
6.138472
 20
411.626389
 30
0.0
 10
6.602472
 20
411.553389
 30
0.0
 10
7.020472
 20
411.340390
 30
0.0
 10
7.352472
 20
411.008390
 30
0.0
 10
7.565472
 20
410.590388
 30
0.0
 10
7.638472
 20
410.126389
 30
0.0
 10
7.565472
 20
409.662390
 30
0.0
 10
7.352472
 20
409.244388
 30
0.0
 10
7.020472
 20
408.912390
 30
0.0
 10
6.602472
 20
408.699389
 30
0.0
 10
6.138472
 20
408.626389
 30
0.0
 10
5.674472
 20
408.699389
 30
0.0
 10
5.256472
 20
408.912390
 30
0.0
 10
4.924472
 20
409.244388
 30
0.0
 10
4.711472
 20
409.662390
 30
0.0
 10
4.638472
 20
410.126389
 30
0.0
  0
LWPOLYLINE
  5
107
100
AcDbEntity
  8
0
 62
7
100
AcDbPolyline
 90
31
 70
0
 10
6.638472
 20
70.139388
 30
0.0
 10
6.671472
 20
70.451390
 30
0.0
 10
6.768472
 20
70.749389
 30
0.0
 10
6.924472
 20
71.021389
 30
0.0
 10
7.134472
 20
71.254389
 30
0.0
 10
7.388472
 20
71.438389
 30
0.0
 10
7.674472
 20
71.566388
 30
0.0
 10
7.981472
 20
71.631389
 30
0.0
 10
8.295472
 20
71.631389
 30
0.0
 10
8.602472
 20
71.566388
 30
0.0
 10
8.888472
 20
71.438389
 30
0.0
 10
9.142472
 20
71.254389
 30
0.0
 10
9.352472
 20
71.021389
 30
0.0
 10
9.508472
 20
70.749389
 30
0.0
 10
9.605472
 20
70.451390
 30
0.0
 10
9.638472
 20
70.139388
 30
0.0
 10
9.605472
 20
69.827388
 30
0.0
 10
9.508472
 20
69.529390
 30
0.0
 10
9.352472
 20
69.257390
 30
0.0
 10
9.142472
 20
69.024390
 30
0.0
 10
8.888472
 20
68.840390
 30
0.0
 10
8.602472
 20
68.712390
 30
0.0
 10
8.295472
 20
68.647389
 30
0.0
 10
7.981472
 20
68.647389
 30
0.0
 10
7.674472
 20
68.712390
 30
0.0
 10
7.388472
 20
68.840390
 30
0.0
 10
7.134472
 20
69.024390
 30
0.0
 10
6.924472
 20
69.257390
 30
0.0
 10
6.768472
 20
69.529390
 30
0.0
 10
6.671472
 20
69.827388
 30
0.0
 10
6.638472
 20
70.139388
 30
0.0
  0
LWPOLYLINE
  5
108
100
AcDbEntity
  8
0
 62
7
100
AcDbPolyline
 90
31
 70
0
 10
6.638472
 20
75.139389
 30
0.0
 10
6.671472
 20
75.451389
 30
0.0
 10
6.768472
 20
75.749390
 30
0.0
 10
6.924472
 20
76.021390
 30
0.0
 10
7.134472
 20
76.254390
 30
0.0
 10
7.388472
 20
76.438390
 30
0.0
 10
7.674472
 20
76.566389
 30
0.0
 10
7.981472
 20
76.631388
 30
0.0
 10
8.295472
 20
76.631388
 30
0.0
 10
8.602472
 20
76.566389
 30
0.0
 10
8.888472
 20
76.438390
 30
0.0
 10
9.142472
 20
76.254390
 30
0.0
 10
9.352472
 20
76.021390
 30
0.0
 10
9.508472
 20
75.749390
 30
0.0
 10
9.605472
 20
75.451389
 30
0.0
 10
9.638472
 20
75.139389
 30
0.0
 10
9.605472
 20
74.827390
 30
0.0
 10
9.508472
 20
74.529388
 30
0.0
 10
9.352472
 20
74.257388
 30
0.0
 10
9.142472
 20
74.024388
 30
0.0
 10
8.888472
 20
73.840388
 30
0.0
 10
8.602472
 20
73.712389
 30
0.0
 10
8.295472
 20
73.647390
 30
0.0
 10
7.981472
 20
73.647390
 30
0.0
 10
7.674472
 20
73.712389
 30
0.0
 10
7.388472
 20
73.840388
 30
0.0
 10
7.134472
 20
74.024388
 30
0.0
 10
6.924472
 20
74.257388
 30
0.0
 10
6.768472
 20
74.529388
 30
0.0
 10
6.671472
 20
74.827390
 30
0.0
 10
6.638472
 20
75.139389
 30
0.0
  0
LWPOLYLINE
  5
109
100
AcDbEntity
  8
0
 62
7
100
AcDbPolyline
 90
39
 70
0
 10
48.138472
 20
103.665390
 30
0.0
 10
48.138472
 20
341.613388
 30
0.0
 10
48.275471
 20
341.613388
 30
0.0
 10
48.275471
 20
344.226388
 30
0.0
 10
49.362473
 20
349.338389
 30
0.0
 10
51.487471
 20
354.113389
 30
0.0
 10
54.559471
 20
358.341388
 30
0.0
 10
58.443472
 20
361.838390
 30
0.0
 10
62.970472
 20
364.452388
 30
0.0
 10
67.940473
 20
366.067388
 30
0.0
 10
73.138473
 20
366.613389
 30
0.0
 10
78.336473
 20
366.067388
 30
0.0
 10
83.306471
 20
364.452388
 30
0.0
 10
87.833471
 20
361.838390
 30
0.0
 10
91.717472
 20
358.341388
 30
0.0
 10
94.789473
 20
354.113389
 30
0.0
 10
96.914473
 20
349.338389
 30
0.0
 10
98.001472
 20
344.226388
 30
0.0
 10
98.001472
 20
341.613388
 30
0.0
 10
98.138471
 20
341.613388
 30
0.0
 10
98.138471
 20
103.665390
 30
0.0
 10
98.001472
 20
103.665390
 30
0.0
 10
98.001472
 20
101.052390
 30
0.0
 10
96.914473
 20
95.940389
 30
0.0
 10
94.789473
 20
91.165389
 30
0.0
 10
91.717472
 20
86.937390
 30
0.0
 10
87.833471
 20
83.440389
 30
0.0
 10
83.306471
 20
80.826390
 30
0.0
 10
78.336473
 20
79.211390
 30
0.0
 10
73.138473
 20
78.665389
 30
0.0
 10
67.940473
 20
79.211390
 30
0.0
 10
62.970472
 20
80.826390
 30
0.0
 10
58.443472
 20
83.440389
 30
0.0
 10
54.559471
 20
86.937390
 30
0.0
 10
51.487471
 20
91.165389
 30
0.0
 10
49.362473
 20
95.940389
 30
0.0
 10
48.275471
 20
101.052390
 30
0.0
 10
48.275471
 20
103.665390
 30
0.0
 10
48.138472
 20
103.665390
 30
0.0
  0
LWPOLYLINE
  5
10a
100
AcDbEntity
  8
0
 62
7
100
AcDbPolyline
 90
45
 70
0
 10
53.138471
 20
112.639390
 30
0.0
 10
53.138471
 20
222.639390
 30
0.0
 10
53.147474
 20
222.874388
 30
0.0
 10
53.175467
 20
223.108390
 30
0.0
 10
53.221472
 20
223.339389
 30
0.0
 10
53.285472
 20
223.566389
 30
0.0
 10
53.366472
 20
223.787389
 30
0.0
 10
53.465473
 20
224.001389
 30
0.0
 10
53.580473
 20
224.206390
 30
0.0
 10
53.711472
 20
224.402390
 30
0.0
 10
53.857471
 20
224.587390
 30
0.0
 10
54.017472
 20
224.760389
 30
0.0
 10
54.190471
 20
224.920389
 30
0.0
 10
54.375473
 20
225.066389
 30
0.0
 10
54.571471
 20
225.197391
 30
0.0
 10
54.776472
 20
225.312391
 30
0.0
 10
54.990472
 20
225.411388
 30
0.0
 10
55.211472
 20
225.492389
 30
0.0
 10
55.438472
 20
225.556389
 30
0.0
 10
55.669471
 20
225.602388
 30
0.0
 10
55.903472
 20
225.630384
 30
0.0
 10
56.138473
 20
225.639393
 30
0.0
 10
92.138472
 20
225.639390
 30
0.0
 10
92.138472
 20
109.639388
 30
0.0
 10
56.138473
 20
109.639388
 30
0.0
 10
55.903472
 20
109.648391
 30
0.0
 10
55.669471
 20
109.676384
 30
0.0
 10
55.438472
 20
109.722389
 30
0.0
 10
55.211472
 20
109.786389
 30
0.0
 10
54.990472
 20
109.867390
 30
0.0
 10
54.776472
 20
109.966390
 30
0.0
 10
54.571471
 20
110.081390
 30
0.0
 10
54.375473
 20
110.212389
 30
0.0
 10
54.190471
 20
110.358388
 30
0.0
 10
54.017472
 20
110.518389
 30
0.0
 10
53.857471
 20
110.691388
 30
0.0
 10
53.711472
 20
110.876390
 30
0.0
 10
53.580473
 20
111.072388
 30
0.0
 10
53.465473
 20
111.277389
 30
0.0
 10
53.366472
 20
111.491389
 30
0.0
 10
53.285472
 20
111.712389
 30
0.0
 10
53.221472
 20
111.939389
 30
0.0
 10
53.175473
 20
112.170388
 30
0.0
 10
53.147476
 20
112.404390
 30
0.0
 10
53.138468
 20
112.639390
 30
0.0
  0
LWPOLYLINE
  5
10b
100
AcDbEntity
  8
0
 62
7
100
AcDbPolyline
 90
45
 70
0
 10
53.138471
 20
232.639390
 30
0.0
 10
53.138471
 20
342.639390
 30
0.0
 10
53.147474
 20
342.874388
 30
0.0
 10
53.175467
 20
343.108390
 30
0.0
 10
53.221472
 20
343.339389
 30
0.0
 10
53.285472
 20
343.566389
 30
0.0
 10
53.366472
 20
343.787389
 30
0.0
 10
53.465473
 20
344.001389
 30
0.0
 10
53.580473
 20
344.206390
 30
0.0
 10
53.711472
 20
344.402390
 30
0.0
 10
53.857471
 20
344.587390
 30
0.0
 10
54.017472
 20
344.760389
 30
0.0
 10
54.190471
 20
344.920389
 30
0.0
 10
54.375473
 20
345.066389
 30
0.0
 10
54.571471
 20
345.197388
 30
0.0
 10
54.776472
 20
345.312388
 30
0.0
 10
54.990472
 20
345.411388
 30
0.0
 10
55.211472
 20
345.492389
 30
0.0
 10
55.438472
 20
345.556388
 30
0.0
 10
55.669471
 20
345.602388
 30
0.0
 10
55.903472
 20
345.630384
 30
0.0
 10
56.138473
 20
345.639393
 30
0.0
 10
92.138472
 20
345.639390
 30
0.0
 10
92.138472
 20
229.639391
 30
0.0
 10
56.138473
 20
229.639391
 30
0.0
 10
55.903472
 20
229.648393
 30
0.0
 10
55.669471
 20
229.676387
 30
0.0
 10
55.438472
 20
229.722389
 30
0.0
 10
55.211472
 20
229.786389
 30
0.0
 10
54.990472
 20
229.867389
 30
0.0
 10
54.776472
 20
229.966390
 30
0.0
 10
54.571471
 20
230.081390
 30
0.0
 10
54.375473
 20
230.212389
 30
0.0
 10
54.190471
 20
230.358388
 30
0.0
 10
54.017472
 20
230.518389
 30
0.0
 10
53.857471
 20
230.691388
 30
0.0
 10
53.711472
 20
230.876390
 30
0.0
 10
53.580473
 20
231.072388
 30
0.0
 10
53.465473
 20
231.277389
 30
0.0
 10
53.366472
 20
231.491389
 30
0.0
 10
53.285472
 20
231.712389
 30
0.0
 10
53.221472
 20
231.939389
 30
0.0
 10
53.175473
 20
232.170391
 30
0.0
 10
53.147476
 20
232.404389
 30
0.0
 10
53.138468
 20
232.639390
 30
0.0
  0
LWPOLYLINE
  5
10c
100
AcDbEntity
  8
0
 62
7
100
AcDbPolyline
 90
31
 70
0
 10
56.638472
 20
70.139388
 30
0.0
 10
56.671472
 20
70.451390
 30
0.0
 10
56.768472
 20
70.749389
 30
0.0
 10
56.924473
 20
71.021389
 30
0.0
 10
57.134472
 20
71.254389
 30
0.0
 10
57.388472
 20
71.438389
 30
0.0
 10
57.674473
 20
71.566388
 30
0.0
 10
57.981472
 20
71.631389
 30
0.0
 10
58.295472
 20
71.631389
 30
0.0
 10
58.602471
 20
71.566388
 30
0.0
 10
58.888472
 20
71.438389
 30
0.0
 10
59.142472
 20
71.254389
 30
0.0
 10
59.352471
 20
71.021389
 30
0.0
 10
59.508472
 20
70.749389
 30
0.0
 10
59.605472
 20
70.451390
 30
0.0
 10
59.638472
 20
70.139388
 30
0.0
 10
59.605472
 20
69.827388
 30
0.0
 10
59.508472
 20
69.529390
 30
0.0
 10
59.352471
 20
69.257390
 30
0.0
 10
59.142472
 20
69.024390
 30
0.0
 10
58.888472
 20
68.840390
 30
0.0
 10
58.602471
 20
68.712390
 30
0.0
 10
58.295472
 20
68.647389
 30
0.0
 10
57.981472
 20
68.647389
 30
0.0
 10
57.674473
 20
68.712390
 30
0.0
 10
57.388472
 20
68.840390
 30
0.0
 10
57.134472
 20
69.024390
 30
0.0
 10
56.924473
 20
69.257390
 30
0.0
 10
56.768472
 20
69.529390
 30
0.0
 10
56.671472
 20
69.827388
 30
0.0
 10
56.638472
 20
70.139388
 30
0.0
  0
LWPOLYLINE
  5
10d
100
AcDbEntity
  8
0
 62
7
100
AcDbPolyline
 90
31
 70
0
 10
56.638472
 20
75.139389
 30
0.0
 10
56.671472
 20
75.451389
 30
0.0
 10
56.768472
 20
75.749390
 30
0.0
 10
56.924473
 20
76.021390
 30
0.0
 10
57.134472
 20
76.254390
 30
0.0
 10
57.388472
 20
76.438390
 30
0.0
 10
57.674473
 20
76.566389
 30
0.0
 10
57.981472
 20
76.631388
 30
0.0
 10
58.295472
 20
76.631388
 30
0.0
 10
58.602471
 20
76.566389
 30
0.0
 10
58.888472
 20
76.438390
 30
0.0
 10
59.142472
 20
76.254390
 30
0.0
 10
59.352471
 20
76.021390
 30
0.0
 10
59.508472
 20
75.749390
 30
0.0
 10
59.605472
 20
75.451389
 30
0.0
 10
59.638472
 20
75.139389
 30
0.0
 10
59.605472
 20
74.827390
 30
0.0
 10
59.508472
 20
74.529388
 30
0.0
 10
59.352471
 20
74.257388
 30
0.0
 10
59.142472
 20
74.024388
 30
0.0
 10
58.888472
 20
73.840388
 30
0.0
 10
58.602471
 20
73.712389
 30
0.0
 10
58.295472
 20
73.647390
 30
0.0
 10
57.981472
 20
73.647390
 30
0.0
 10
57.674473
 20
73.712389
 30
0.0
 10
57.388472
 20
73.840388
 30
0.0
 10
57.134472
 20
74.024388
 30
0.0
 10
56.924473
 20
74.257388
 30
0.0
 10
56.768472
 20
74.529388
 30
0.0
 10
56.671472
 20
74.827390
 30
0.0
 10
56.638472
 20
75.139389
 30
0.0
  0
LWPOLYLINE
  5
10e
100
AcDbEntity
  8
0
 62
7
100
AcDbPolyline
 90
5
 70
0
 10
57.138471
 20
125.139388
 30
0.0
 10
57.138471
 20
136.139388
 30
0.0
 10
87.138473
 20
136.139388
 30
0.0
 10
87.138473
 20
125.139388
 30
0.0
 10
57.138471
 20
125.139388
 30
0.0
  0
LWPOLYLINE
  5
10f
100
AcDbEntity
  8
0
 62
7
100
AcDbPolyline
 90
5
 70
0
 10
57.138471
 20
319.139389
 30
0.0
 10
57.138471
 20
330.139390
 30
0.0
 10
87.138473
 20
330.139390
 30
0.0
 10
87.138473
 20
319.139389
 30
0.0
 10
57.138471
 20
319.139389
 30
0.0
  0
LWPOLYLINE
  5
110
100
AcDbEntity
  8
0
 62
7
100
AcDbPolyline
 90
5
 70
0
 10
60.388472
 20
112.389389
 30
0.0
 10
60.388472
 20
118.889391
 30
0.0
 10
65.388473
 20
118.889391
 30
0.0
 10
65.388473
 20
112.389389
 30
0.0
 10
60.388472
 20
112.389389
 30
0.0
  0
LWPOLYLINE
  5
111
100
AcDbEntity
  8
0
 62
7
100
AcDbPolyline
 90
5
 70
0
 10
60.388472
 20
216.389390
 30
0.0
 10
60.388472
 20
222.889389
 30
0.0
 10
65.388473
 20
222.889389
 30
0.0
 10
65.388473
 20
216.389390
 30
0.0
 10
60.388472
 20
216.389390
 30
0.0
  0
LWPOLYLINE
  5
112
100
AcDbEntity
  8
0
 62
7
100
AcDbPolyline
 90
5
 70
0
 10
60.388472
 20
232.389389
 30
0.0
 10
60.388472
 20
238.889390
 30
0.0
 10
65.388473
 20
238.889390
 30
0.0
 10
65.388473
 20
232.389389
 30
0.0
 10
60.388472
 20
232.389389
 30
0.0
  0
LWPOLYLINE
  5
113
100
AcDbEntity
  8
0
 62
7
100
AcDbPolyline
 90
5
 70
0
 10
60.388472
 20
336.389390
 30
0.0
 10
60.388472
 20
342.889388
 30
0.0
 10
65.388473
 20
342.889388
 30
0.0
 10
65.388473
 20
336.389390
 30
0.0
 10
60.388472
 20
336.389390
 30
0.0
  0
LWPOLYLINE
  5
114
100
AcDbEntity
  8
0
 62
7
100
AcDbPolyline
 90
7
 70
0
 10
64.638473
 20
49.139390
 30
0.0
 10
68.888472
 20
56.500389
 30
0.0
 10
77.388472
 20
56.500389
 30
0.0
 10
81.638473
 20
49.139390
 30
0.0
 10
77.388472
 20
41.778388
 30
0.0
 10
68.888472
 20
41.778388
 30
0.0
 10
64.638473
 20
49.139390
 30
0.0
  0
LWPOLYLINE
  5
115
100
AcDbEntity
  8
0
 62
7
100
AcDbPolyline
 90
7
 70
0
 10
64.638473
 20
396.139391
 30
0.0
 10
68.888472
 20
403.500390
 30
0.0
 10
77.388472
 20
403.500390
 30
0.0
 10
81.638473
 20
396.139391
 30
0.0
 10
77.388472
 20
388.778389
 30
0.0
 10
68.888472
 20
388.778389
 30
0.0
 10
64.638473
 20
396.139391
 30
0.0
  0
LWPOLYLINE
  5
116
100
AcDbEntity
  8
0
 62
7
100
AcDbPolyline
 90
14
 70
0
 10
70.667471
 20
158.121390
 30
0.0
 10
71.346472
 20
159.911390
 30
0.0
 10
72.779472
 20
161.181390
 30
0.0
 10
74.638473
 20
161.639388
 30
0.0
 10
76.497471
 20
161.181390
 30
0.0
 10
77.930471
 20
159.911390
 30
0.0
 10
78.609472
 20
158.121390
 30
0.0
 10
78.378473
 20
156.221390
 30
0.0
 10
77.290473
 20
154.645388
 30
0.0
 10
75.595472
 20
153.755389
 30
0.0
 10
73.681471
 20
153.755389
 30
0.0
 10
71.986473
 20
154.645388
 30
0.0
 10
70.898472
 20
156.221390
 30
0.0
 10
70.667471
 20
158.121390
 30
0.0
  0
LWPOLYLINE
  5
117
100
AcDbEntity
  8
0
 62
7
100
AcDbPolyline
 90
14
 70
0
 10
70.667471
 20
208.121388
 30
0.0
 10
71.346472
 20
209.911388
 30
0.0
 10
72.779472
 20
211.181388
 30
0.0
 10
74.638473
 20
211.639390
 30
0.0
 10
76.497471
 20
211.181388
 30
0.0
 10
77.930471
 20
209.911388
 30
0.0
 10
78.609472
 20
208.121388
 30
0.0
 10
78.378473
 20
206.221389
 30
0.0
 10
77.290473
 20
204.645390
 30
0.0
 10
75.595472
 20
203.755388
 30
0.0
 10
73.681471
 20
203.755388
 30
0.0
 10
71.986473
 20
204.645390
 30
0.0
 10
70.898472
 20
206.221389
 30
0.0
 10
70.667471
 20
208.121388
 30
0.0
  0
LWPOLYLINE
  5
118
100
AcDbEntity
  8
0
 62
7
100
AcDbPolyline
 90
14
 70
0
 10
70.667471
 20
247.157390
 30
0.0
 10
70.898472
 20
249.057389
 30
0.0
 10
71.986473
 20
250.633388
 30
0.0
 10
73.681471
 20
251.523390
 30
0.0
 10
75.595472
 20
251.523390
 30
0.0
 10
77.290473
 20
250.633388
 30
0.0
 10
78.378473
 20
249.057389
 30
0.0
 10
78.609472
 20
247.157390
 30
0.0
 10
77.930471
 20
245.367389
 30
0.0
 10
76.497471
 20
244.097389
 30
0.0
 10
74.638473
 20
243.639388
 30
0.0
 10
72.779472
 20
244.097389
 30
0.0
 10
71.346472
 20
245.367389
 30
0.0
 10
70.667471
 20
247.157390
 30
0.0
  0
LWPOLYLINE
  5
119
100
AcDbEntity
  8
0
 62
7
100
AcDbPolyline
 90
14
 70
0
 10
70.667471
 20
297.157389
 30
0.0
 10
70.898472
 20
299.057389
 30
0.0
 10
71.986473
 20
300.633389
 30
0.0
 10
73.681471
 20
301.523389
 30
0.0
 10
75.595472
 20
301.523389
 30
0.0
 10
77.290473
 20
300.633389
 30
0.0
 10
78.378473
 20
299.057389
 30
0.0
 10
78.609472
 20
297.157389
 30
0.0
 10
77.930471
 20
295.367389
 30
0.0
 10
76.497471
 20
294.097389
 30
0.0
 10
74.638473
 20
293.639389
 30
0.0
 10
72.779472
 20
294.097389
 30
0.0
 10
71.346472
 20
295.367389
 30
0.0
 10
70.667471
 20
297.157389
 30
0.0
  0
LWPOLYLINE
  5
11a
100
AcDbEntity
  8
0
 62
7
100
AcDbPolyline
 90
21
 70
0
 10
71.138471
 20
115.639390
 30
0.0
 10
71.211471
 20
116.103389
 30
0.0
 10
71.424473
 20
116.521388
 30
0.0
 10
71.756473
 20
116.853389
 30
0.0
 10
72.174473
 20
117.066390
 30
0.0
 10
72.638471
 20
117.139390
 30
0.0
 10
73.102473
 20
117.066390
 30
0.0
 10
73.520472
 20
116.853389
 30
0.0
 10
73.852473
 20
116.521388
 30
0.0
 10
74.065471
 20
116.103389
 30
0.0
 10
74.138471
 20
115.639390
 30
0.0
 10
74.065471
 20
115.175388
 30
0.0
 10
73.852473
 20
114.757389
 30
0.0
 10
73.520472
 20
114.425389
 30
0.0
 10
73.102473
 20
114.212390
 30
0.0
 10
72.638471
 20
114.139390
 30
0.0
 10
72.174473
 20
114.212390
 30
0.0
 10
71.756473
 20
114.425389
 30
0.0
 10
71.424473
 20
114.757389
 30
0.0
 10
71.211471
 20
115.175388
 30
0.0
 10
71.138471
 20
115.639390
 30
0.0
  0
LWPOLYLINE
  5
11b
100
AcDbEntity
  8
0
 62
7
100
AcDbPolyline
 90
21
 70
0
 10
71.138471
 20
168.639388
 30
0.0
 10
71.211471
 20
169.103390
 30
0.0
 10
71.424473
 20
169.521389
 30
0.0
 10
71.756473
 20
169.853390
 30
0.0
 10
72.174473
 20
170.066389
 30
0.0
 10
72.638471
 20
170.139388
 30
0.0
 10
73.102473
 20
170.066389
 30
0.0
 10
73.520472
 20
169.853390
 30
0.0
 10
73.852473
 20
169.521389
 30
0.0
 10
74.065471
 20
169.103390
 30
0.0
 10
74.138471
 20
168.639388
 30
0.0
 10
74.065471
 20
168.175390
 30
0.0
 10
73.852473
 20
167.757390
 30
0.0
 10
73.520472
 20
167.425390
 30
0.0
 10
73.102473
 20
167.212388
 30
0.0
 10
72.638471
 20
167.139389
 30
0.0
 10
72.174473
 20
167.212388
 30
0.0
 10
71.756473
 20
167.425390
 30
0.0
 10
71.424473
 20
167.757390
 30
0.0
 10
71.211471
 20
168.175390
 30
0.0
 10
71.138471
 20
168.639388
 30
0.0
  0
LWPOLYLINE
  5
11c
100
AcDbEntity
  8
0
 62
7
100
AcDbPolyline
 90
21
 70
0
 10
71.138471
 20
196.639389
 30
0.0
 10
71.211471
 20
197.103390
 30
0.0
 10
71.424473
 20
197.521390
 30
0.0
 10
71.756473
 20
197.853390
 30
0.0
 10
72.174473
 20
198.066389
 30
0.0
 10
72.638471
 20
198.139389
 30
0.0
 10
73.102473
 20
198.066389
 30
0.0
 10
73.520472
 20
197.853390
 30
0.0
 10
73.852473
 20
197.521390
 30
0.0
 10
74.065471
 20
197.103390
 30
0.0
 10
74.138471
 20
196.639389
 30
0.0
 10
74.065471
 20
196.175390
 30
0.0
 10
73.852473
 20
195.757388
 30
0.0
 10
73.520472
 20
195.425390
 30
0.0
 10
73.102473
 20
195.212389
 30
0.0
 10
72.638471
 20
195.139389
 30
0.0
 10
72.174473
 20
195.212389
 30
0.0
 10
71.756473
 20
195.425390
 30
0.0
 10
71.424473
 20
195.757388
 30
0.0
 10
71.211471
 20
196.175390
 30
0.0
 10
71.138471
 20
196.639389
 30
0.0
  0
LWPOLYLINE
  5
11d
100
AcDbEntity
  8
0
 62
7
100
AcDbPolyline
 90
21
 70
0
 10
71.138471
 20
219.639388
 30
0.0
 10
71.211471
 20
220.103390
 30
0.0
 10
71.424473
 20
220.521389
 30
0.0
 10
71.756473
 20
220.853389
 30
0.0
 10
72.174473
 20
221.066388
 30
0.0
 10
72.638471
 20
221.139391
 30
0.0
 10
73.102473
 20
221.066388
 30
0.0
 10
73.520472
 20
220.853389
 30
0.0
 10
73.852473
 20
220.521389
 30
0.0
 10
74.065471
 20
220.103390
 30
0.0
 10
74.138471
 20
219.639388
 30
0.0
 10
74.065471
 20
219.175389
 30
0.0
 10
73.852473
 20
218.757390
 30
0.0
 10
73.520472
 20
218.425389
 30
0.0
 10
73.102473
 20
218.212391
 30
0.0
 10
72.638471
 20
218.139388
 30
0.0
 10
72.174473
 20
218.212391
 30
0.0
 10
71.756473
 20
218.425389
 30
0.0
 10
71.424473
 20
218.757390
 30
0.0
 10
71.211471
 20
219.175389
 30
0.0
 10
71.138471
 20
219.639388
 30
0.0
  0
LWPOLYLINE
  5
11e
100
AcDbEntity
  8
0
 62
7
100
AcDbPolyline
 90
21
 70
0
 10
71.138471
 20
235.639390
 30
0.0
 10
71.211471
 20
236.103389
 30
0.0
 10
71.424473
 20
236.521388
 30
0.0
 10
71.756473
 20
236.853389
 30
0.0
 10
72.174473
 20
237.066390
 30
0.0
 10
72.638471
 20
237.139390
 30
0.0
 10
73.102473
 20
237.066390
 30
0.0
 10
73.520472
 20
236.853389
 30
0.0
 10
73.852473
 20
236.521388
 30
0.0
 10
74.065471
 20
236.103389
 30
0.0
 10
74.138471
 20
235.639390
 30
0.0
 10
74.065471
 20
235.175388
 30
0.0
 10
73.852473
 20
234.757389
 30
0.0
 10
73.520472
 20
234.425388
 30
0.0
 10
73.102473
 20
234.212390
 30
0.0
 10
72.638471
 20
234.139390
 30
0.0
 10
72.174473
 20
234.212390
 30
0.0
 10
71.756473
 20
234.425388
 30
0.0
 10
71.424473
 20
234.757389
 30
0.0
 10
71.211471
 20
235.175388
 30
0.0
 10
71.138471
 20
235.639390
 30
0.0
  0
LWPOLYLINE
  5
11f
100
AcDbEntity
  8
0
 62
7
100
AcDbPolyline
 90
21
 70
0
 10
71.138471
 20
258.639389
 30
0.0
 10
71.211471
 20
259.103388
 30
0.0
 10
71.424473
 20
259.521390
 30
0.0
 10
71.756473
 20
259.853390
 30
0.0
 10
72.174473
 20
260.066389
 30
0.0
 10
72.638471
 20
260.139389
 30
0.0
 10
73.102473
 20
260.066389
 30
0.0
 10
73.520472
 20
259.853390
 30
0.0
 10
73.852473
 20
259.521390
 30
0.0
 10
74.065471
 20
259.103388
 30
0.0
 10
74.138471
 20
258.639389
 30
0.0
 10
74.065471
 20
258.175390
 30
0.0
 10
73.852473
 20
257.757388
 30
0.0
 10
73.520472
 20
257.425390
 30
0.0
 10
73.102473
 20
257.212389
 30
0.0
 10
72.638471
 20
257.139389
 30
0.0
 10
72.174473
 20
257.212389
 30
0.0
 10
71.756473
 20
257.425390
 30
0.0
 10
71.424473
 20
257.757388
 30
0.0
 10
71.211471
 20
258.175390
 30
0.0
 10
71.138471
 20
258.639389
 30
0.0
  0
LWPOLYLINE
  5
120
100
AcDbEntity
  8
0
 62
7
100
AcDbPolyline
 90
21
 70
0
 10
71.138471
 20
286.639389
 30
0.0
 10
71.211471
 20
287.103389
 30
0.0
 10
71.424473
 20
287.521389
 30
0.0
 10
71.756473
 20
287.853389
 30
0.0
 10
72.174473
 20
288.066389
 30
0.0
 10
72.638471
 20
288.139389
 30
0.0
 10
73.102473
 20
288.066389
 30
0.0
 10
73.520472
 20
287.853389
 30
0.0
 10
73.852473
 20
287.521389
 30
0.0
 10
74.065471
 20
287.103389
 30
0.0
 10
74.138471
 20
286.639389
 30
0.0
 10
74.065471
 20
286.175389
 30
0.0
 10
73.852473
 20
285.757389
 30
0.0
 10
73.520472
 20
285.425389
 30
0.0
 10
73.102473
 20
285.212389
 30
0.0
 10
72.638471
 20
285.139389
 30
0.0
 10
72.174473
 20
285.212389
 30
0.0
 10
71.756473
 20
285.425389
 30
0.0
 10
71.424473
 20
285.757389
 30
0.0
 10
71.211471
 20
286.175389
 30
0.0
 10
71.138471
 20
286.639389
 30
0.0
  0
LWPOLYLINE
  5
121
100
AcDbEntity
  8
0
 62
7
100
AcDbPolyline
 90
21
 70
0
 10
71.138471
 20
339.639388
 30
0.0
 10
71.211471
 20
340.103389
 30
0.0
 10
71.424473
 20
340.521389
 30
0.0
 10
71.756473
 20
340.853389
 30
0.0
 10
72.174473
 20
341.066388
 30
0.0
 10
72.638471
 20
341.139388
 30
0.0
 10
73.102473
 20
341.066388
 30
0.0
 10
73.520472
 20
340.853389
 30
0.0
 10
73.852473
 20
340.521389
 30
0.0
 10
74.065471
 20
340.103389
 30
0.0
 10
74.138471
 20
339.639388
 30
0.0
 10
74.065471
 20
339.175389
 30
0.0
 10
73.852473
 20
338.757390
 30
0.0
 10
73.520472
 20
338.425389
 30
0.0
 10
73.102473
 20
338.212388
 30
0.0
 10
72.638471
 20
338.139388
 30
0.0
 10
72.174473
 20
338.212388
 30
0.0
 10
71.756473
 20
338.425389
 30
0.0
 10
71.424473
 20
338.757390
 30
0.0
 10
71.211471
 20
339.175389
 30
0.0
 10
71.138471
 20
339.639388
 30
0.0
  0
LWPOLYLINE
  5
122
100
AcDbEntity
  8
0
 62
7
100
AcDbPolyline
 90
5
 70
0
 10
79.888472
 20
112.389389
 30
0.0
 10
79.888472
 20
118.889391
 30
0.0
 10
84.888474
 20
118.889391
 30
0.0
 10
84.888474
 20
112.389389
 30
0.0
 10
79.888472
 20
112.389389
 30
0.0
  0
LWPOLYLINE
  5
123
100
AcDbEntity
  8
0
 62
7
100
AcDbPolyline
 90
5
 70
0
 10
79.888472
 20
216.389390
 30
0.0
 10
79.888472
 20
222.889389
 30
0.0
 10
84.888474
 20
222.889389
 30
0.0
 10
84.888474
 20
216.389390
 30
0.0
 10
79.888472
 20
216.389390
 30
0.0
  0
LWPOLYLINE
  5
124
100
AcDbEntity
  8
0
 62
7
100
AcDbPolyline
 90
5
 70
0
 10
79.888472
 20
232.389389
 30
0.0
 10
79.888472
 20
238.889390
 30
0.0
 10
84.888474
 20
238.889390
 30
0.0
 10
84.888474
 20
232.389389
 30
0.0
 10
79.888472
 20
232.389389
 30
0.0
  0
LWPOLYLINE
  5
125
100
AcDbEntity
  8
0
 62
7
100
AcDbPolyline
 90
5
 70
0
 10
79.888472
 20
336.389390
 30
0.0
 10
79.888472
 20
342.889388
 30
0.0
 10
84.888474
 20
342.889388
 30
0.0
 10
84.888474
 20
336.389390
 30
0.0
 10
79.888472
 20
336.389390
 30
0.0
  0
LWPOLYLINE
  5
126
100
AcDbEntity
  8
0
 62
7
100
AcDbPolyline
 90
5
 70
0
 10
106.888472
 20
20.896388
 30
0.0
 10
106.888472
 20
25.896389
 30
0.0
 10
113.388473
 20
25.896389
 30
0.0
 10
113.388473
 20
20.896388
 30
0.0
 10
106.888472
 20
20.896388
 30
0.0
  0
LWPOLYLINE
  5
127
100
AcDbEntity
  8
0
 62
7
100
AcDbPolyline
 90
5
 70
0
 10
106.888472
 20
44.409388
 30
0.0
 10
106.888472
 20
49.409390
 30
0.0
 10
113.388473
 20
49.409390
 30
0.0
 10
113.388473
 20
44.409388
 30
0.0
 10
106.888472
 20
44.409388
 30
0.0
  0
LWPOLYLINE
  5
128
100
AcDbEntity
  8
0
 62
7
100
AcDbPolyline
 90
5
 70
0
 10
106.888472
 20
395.869389
 30
0.0
 10
106.888472
 20
400.869390
 30
0.0
 10
113.388473
 20
400.869390
 30
0.0
 10
113.388473
 20
395.869389
 30
0.0
 10
106.888472
 20
395.869389
 30
0.0
  0
LWPOLYLINE
  5
129
100
AcDbEntity
  8
0
 62
7
100
AcDbPolyline
 90
5
 70
0
 10
106.888472
 20
419.382389
 30
0.0
 10
106.888472
 20
424.382390
 30
0.0
 10
113.388473
 20
424.382390
 30
0.0
 10
113.388473
 20
419.382389
 30
0.0
 10
106.888472
 20
419.382389
 30
0.0
  0
LWPOLYLINE
  5
12a
100
AcDbEntity
  8
0
 62
7
100
AcDbPolyline
 90
21
 70
0
 10
108.638473
 20
35.152389
 30
0.0
 10
108.711472
 20
35.616388
 30
0.0
 10
108.924471
 20
36.034390
 30
0.0
 10
109.256472
 20
36.366388
 30
0.0
 10
109.674474
 20
36.579389
 30
0.0
 10
110.138472
 20
36.652389
 30
0.0
 10
110.602471
 20
36.579389
 30
0.0
 10
111.020473
 20
36.366388
 30
0.0
 10
111.352471
 20
36.034390
 30
0.0
 10
111.565473
 20
35.616388
 30
0.0
 10
111.638472
 20
35.152389
 30
0.0
 10
111.565473
 20
34.688391
 30
0.0
 10
111.352471
 20
34.270388
 30
0.0
 10
111.020473
 20
33.938391
 30
0.0
 10
110.602471
 20
33.725389
 30
0.0
 10
110.138472
 20
33.652389
 30
0.0
 10
109.674474
 20
33.725389
 30
0.0
 10
109.256472
 20
33.938391
 30
0.0
 10
108.924471
 20
34.270388
 30
0.0
 10
108.711472
 20
34.688391
 30
0.0
 10
108.638473
 20
35.152389
 30
0.0
  0
LWPOLYLINE
  5
12b
100
AcDbEntity
  8
0
 62
7
100
AcDbPolyline
 90
21
 70
0
 10
108.638473
 20
410.126389
 30
0.0
 10
108.711472
 20
410.590388
 30
0.0
 10
108.924471
 20
411.008390
 30
0.0
 10
109.256472
 20
411.340390
 30
0.0
 10
109.674474
 20
411.553389
 30
0.0
 10
110.138472
 20
411.626389
 30
0.0
 10
110.602471
 20
411.553389
 30
0.0
 10
111.020473
 20
411.340390
 30
0.0
 10
111.352471
 20
411.008390
 30
0.0
 10
111.565473
 20
410.590388
 30
0.0
 10
111.638472
 20
410.126389
 30
0.0
 10
111.565473
 20
409.662390
 30
0.0
 10
111.352471
 20
409.244388
 30
0.0
 10
111.020473
 20
408.912390
 30
0.0
 10
110.602471
 20
408.699389
 30
0.0
 10
110.138472
 20
408.626389
 30
0.0
 10
109.674474
 20
408.699389
 30
0.0
 10
109.256472
 20
408.912390
 30
0.0
 10
108.924471
 20
409.244388
 30
0.0
 10
108.711472
 20
409.662390
 30
0.0
 10
108.638473
 20
410.126389
 30
0.0
  0
LWPOLYLINE
  5
12c
100
AcDbEntity
  8
0
 62
7
100
AcDbPolyline
 90
135
 70
0
 10
123.138472
 20
81.139388
 30
0.0
 10
123.138472
 20
111.139388
 30
0.0
 10
129.375473
 20
111.795388
 30
0.0
 10
135.340471
 20
113.733388
 30
0.0
 10
140.772473
 20
116.868389
 30
0.0
 10
145.432472
 20
121.065389
 30
0.0
 10
149.119471
 20
126.139389
 30
0.0
 10
151.670472
 20
131.868390
 30
0.0
 10
152.974472
 20
138.003390
 30
0.0
 10
152.974472
 20
141.139390
 30
0.0
 10
153.138471
 20
141.139390
 30
0.0
 10
153.138471
 20
304.139389
 30
0.0
 10
152.974472
 20
304.139389
 30
0.0
 10
152.974472
 20
307.275389
 30
0.0
 10
151.670472
 20
313.410389
 30
0.0
 10
149.119471
 20
319.139389
 30
0.0
 10
145.432472
 20
324.213389
 30
0.0
 10
140.772473
 20
328.410389
 30
0.0
 10
135.340471
 20
331.545390
 30
0.0
 10
129.375473
 20
333.483390
 30
0.0
 10
123.138472
 20
334.139388
 30
0.0
 10
123.138472
 20
364.139390
 30
0.0
 10
136.638473
 20
364.139390
 30
0.0
 10
136.638473
 20
358.639389
 30
0.0
 10
135.138473
 20
358.639389
 30
0.0
 10
135.138473
 20
355.639390
 30
0.0
 10
136.638473
 20
355.639390
 30
0.0
 10
136.638473
 20
354.139390
 30
0.0
 10
139.638473
 20
354.139390
 30
0.0
 10
139.638473
 20
355.639390
 30
0.0
 10
141.138473
 20
355.639390
 30
0.0
 10
141.138473
 20
358.639389
 30
0.0
 10
139.638473
 20
358.639389
 30
0.0
 10
139.638473
 20
364.139390
 30
0.0
 10
153.138471
 20
364.139390
 30
0.0
 10
153.138471
 20
409.639389
 30
0.0
 10
153.302473
 20
409.639389
 30
0.0
 10
153.302473
 20
412.775389
 30
0.0
 10
154.606473
 20
418.910389
 30
0.0
 10
157.157471
 20
424.639390
 30
0.0
 10
160.844473
 20
429.713390
 30
0.0
 10
165.504472
 20
433.910390
 30
0.0
 10
170.936471
 20
437.045388
 30
0.0
 10
176.901472
 20
438.983388
 30
0.0
 10
183.138473
 20
439.639388
 30
0.0
 10
189.375471
 20
438.983388
 30
0.0
 10
195.340472
 20
437.045388
 30
0.0
 10
200.772471
 20
433.910390
 30
0.0
 10
205.432474
 20
429.713390
 30
0.0
 10
209.119473
 20
424.639390
 30
0.0
 10
211.670471
 20
418.910389
 30
0.0
 10
212.974473
 20
412.775389
 30
0.0
 10
212.974473
 20
409.639389
 30
0.0
 10
213.138472
 20
409.639389
 30
0.0
 10
213.138472
 20
364.139390
 30
0.0
 10
226.638474
 20
364.139390
 30
0.0
 10
226.638474
 20
358.639389
 30
0.0
 10
225.138471
 20
358.639389
 30
0.0
 10
225.138471
 20
355.639390
 30
0.0
 10
226.638474
 20
355.639390
 30
0.0
 10
226.638474
 20
354.139390
 30
0.0
 10
229.638473
 20
354.139390
 30
0.0
 10
229.638473
 20
355.639390
 30
0.0
 10
231.138473
 20
355.639390
 30
0.0
 10
231.138473
 20
358.639389
 30
0.0
 10
229.638473
 20
358.639389
 30
0.0
 10
229.638473
 20
364.139390
 30
0.0
 10
243.138472
 20
364.139390
 30
0.0
 10
243.138472
 20
334.139388
 30
0.0
 10
236.901474
 20
333.483390
 30
0.0
 10
230.936473
 20
331.545390
 30
0.0
 10
225.504471
 20
328.410389
 30
0.0
 10
220.844471
 20
324.213389
 30
0.0
 10
217.157472
 20
319.139389
 30
0.0
 10
214.606471
 20
313.410389
 30
0.0
 10
213.302472
 20
307.275389
 30
0.0
 10
213.302472
 20
304.139389
 30
0.0
 10
213.138472
 20
304.139389
 30
0.0
 10
213.138472
 20
141.139390
 30
0.0
 10
213.302472
 20
141.139390
 30
0.0
 10
213.302472
 20
138.003390
 30
0.0
 10
214.606471
 20
131.868390
 30
0.0
 10
217.157472
 20
126.139389
 30
0.0
 10
220.844471
 20
121.065389
 30
0.0
 10
225.504471
 20
116.868389
 30
0.0
 10
230.936473
 20
113.733388
 30
0.0
 10
236.901474
 20
111.795388
 30
0.0
 10
243.138472
 20
111.139388
 30
0.0
 10
243.138472
 20
81.139388
 30
0.0
 10
229.638473
 20
81.139388
 30
0.0
 10
229.638473
 20
86.639389
 30
0.0
 10
231.138473
 20
86.639389
 30
0.0
 10
231.138473
 20
89.639388
 30
0.0
 10
229.638473
 20
89.639388
 30
0.0
 10
229.638473
 20
91.139388
 30
0.0
 10
226.638474
 20
91.139388
 30
0.0
 10
226.638474
 20
89.639388
 30
0.0
 10
225.138471
 20
89.639388
 30
0.0
 10
225.138471
 20
86.639389
 30
0.0
 10
226.638474
 20
86.639389
 30
0.0
 10
226.638474
 20
81.139388
 30
0.0
 10
213.138472
 20
81.139388
 30
0.0
 10
213.138472
 20
35.639389
 30
0.0
 10
212.974473
 20
35.639389
 30
0.0
 10
212.974473
 20
32.503389
 30
0.0
 10
211.670471
 20
26.368389
 30
0.0
 10
209.119473
 20
20.639388
 30
0.0
 10
205.432474
 20
15.565388
 30
0.0
 10
200.772471
 20
11.368388
 30
0.0
 10
195.340472
 20
8.233390
 30
0.0
 10
189.375471
 20
6.295390
 30
0.0
 10
183.138473
 20
5.639393
 30
0.0
 10
176.901472
 20
6.295390
 30
0.0
 10
170.936471
 20
8.233390
 30
0.0
 10
165.504472
 20
11.368388
 30
0.0
 10
160.844473
 20
15.565388
 30
0.0
 10
157.157471
 20
20.639388
 30
0.0
 10
154.606473
 20
26.368389
 30
0.0
 10
153.302473
 20
32.503389
 30
0.0
 10
153.302473
 20
35.639389
 30
0.0
 10
153.138471
 20
35.639389
 30
0.0
 10
153.138471
 20
81.139388
 30
0.0
 10
139.638473
 20
81.139388
 30
0.0
 10
139.638473
 20
86.639389
 30
0.0
 10
141.138473
 20
86.639389
 30
0.0
 10
141.138473
 20
89.639388
 30
0.0
 10
139.638473
 20
89.639388
 30
0.0
 10
139.638473
 20
91.139388
 30
0.0
 10
136.638473
 20
91.139388
 30
0.0
 10
136.638473
 20
89.639388
 30
0.0
 10
135.138473
 20
89.639388
 30
0.0
 10
135.138473
 20
86.639389
 30
0.0
 10
136.638473
 20
86.639389
 30
0.0
 10
136.638473
 20
81.139388
 30
0.0
 10
123.138472
 20
81.139388
 30
0.0
  0
LWPOLYLINE
  5
12d
100
AcDbEntity
  8
0
 62
7
100
AcDbPolyline
 90
33
 70
0
 10
151.149473
 20
108.930389
 30
0.0
 10
151.149473
 20
109.348389
 30
0.0
 10
151.236471
 20
109.757391
 30
0.0
 10
151.406473
 20
110.139390
 30
0.0
 10
151.652472
 20
110.477390
 30
0.0
 10
151.962471
 20
110.757389
 30
0.0
 10
152.325471
 20
110.966388
 30
0.0
 10
152.722473
 20
111.095389
 30
0.0
 10
153.138471
 20
111.139388
 30
0.0
 10
165.138473
 20
111.139388
 30
0.0
 10
165.554471
 20
111.095389
 30
0.0
 10
165.951473
 20
110.966388
 30
0.0
 10
166.314473
 20
110.757389
 30
0.0
 10
166.624471
 20
110.477390
 30
0.0
 10
166.870473
 20
110.139390
 30
0.0
 10
167.040473
 20
109.757391
 30
0.0
 10
167.127473
 20
109.348389
 30
0.0
 10
167.127473
 20
108.930389
 30
0.0
 10
167.040473
 20
108.521390
 30
0.0
 10
166.870473
 20
108.139388
 30
0.0
 10
166.624471
 20
107.801390
 30
0.0
 10
166.314473
 20
107.521389
 30
0.0
 10
165.951473
 20
107.312389
 30
0.0
 10
165.554471
 20
107.183388
 30
0.0
 10
165.138473
 20
107.139390
 30
0.0
 10
153.138471
 20
107.139390
 30
0.0
 10
152.722473
 20
107.183388
 30
0.0
 10
152.325471
 20
107.312389
 30
0.0
 10
151.962471
 20
107.521389
 30
0.0
 10
151.652472
 20
107.801390
 30
0.0
 10
151.406473
 20
108.139388
 30
0.0
 10
151.236471
 20
108.521390
 30
0.0
 10
151.149473
 20
108.930389
 30
0.0
  0
LWPOLYLINE
  5
12e
100
AcDbEntity
  8
0
 62
7
100
AcDbPolyline
 90
31
 70
0
 10
151.646472
 20
102.982389
 30
0.0
 10
151.646472
 20
103.296390
 30
0.0
 10
151.711471
 20
103.603388
 30
0.0
 10
151.839473
 20
103.889389
 30
0.0
 10
152.023473
 20
104.143389
 30
0.0
 10
152.256473
 20
104.353388
 30
0.0
 10
152.528473
 20
104.509389
 30
0.0
 10
152.826472
 20
104.606389
 30
0.0
 10
153.138471
 20
104.639389
 30
0.0
 10
153.450473
 20
104.606389
 30
0.0
 10
153.748472
 20
104.509389
 30
0.0
 10
154.020472
 20
104.353388
 30
0.0
 10
154.253472
 20
104.143389
 30
0.0
 10
154.437472
 20
103.889389
 30
0.0
 10
154.565471
 20
103.603388
 30
0.0
 10
154.630473
 20
103.296390
 30
0.0
 10
154.630473
 20
102.982389
 30
0.0
 10
154.565471
 20
102.675388
 30
0.0
 10
154.437472
 20
102.389390
 30
0.0
 10
154.253472
 20
102.135390
 30
0.0
 10
154.020472
 20
101.925388
 30
0.0
 10
153.748472
 20
101.769390
 30
0.0
 10
153.450473
 20
101.672390
 30
0.0
 10
153.138471
 20
101.639390
 30
0.0
 10
152.826472
 20
101.672390
 30
0.0
 10
152.528473
 20
101.769390
 30
0.0
 10
152.256473
 20
101.925388
 30
0.0
 10
152.023473
 20
102.135390
 30
0.0
 10
151.839473
 20
102.389390
 30
0.0
 10
151.711471
 20
102.675388
 30
0.0
 10
151.646472
 20
102.982389
 30
0.0
  0
LWPOLYLINE
  5
12f
100
AcDbEntity
  8
0
 62
7
100
AcDbPolyline
 90
31
 70
0
 10
163.646471
 20
102.982389
 30
0.0
 10
163.646471
 20
103.296390
 30
0.0
 10
163.711472
 20
103.603388
 30
0.0
 10
163.839471
 20
103.889389
 30
0.0
 10
164.023472
 20
104.143389
 30
0.0
 10
164.256472
 20
104.353388
 30
0.0
 10
164.528472
 20
104.509389
 30
0.0
 10
164.826473
 20
104.606389
 30
0.0
 10
165.138473
 20
104.639389
 30
0.0
 10
165.450472
 20
104.606389
 30
0.0
 10
165.748473
 20
104.509389
 30
0.0
 10
166.020473
 20
104.353388
 30
0.0
 10
166.253473
 20
104.143389
 30
0.0
 10
166.437471
 20
103.889389
 30
0.0
 10
166.565473
 20
103.603388
 30
0.0
 10
166.630471
 20
103.296390
 30
0.0
 10
166.630471
 20
102.982389
 30
0.0
 10
166.565473
 20
102.675388
 30
0.0
 10
166.437471
 20
102.389390
 30
0.0
 10
166.253473
 20
102.135390
 30
0.0
 10
166.020473
 20
101.925388
 30
0.0
 10
165.748473
 20
101.769390
 30
0.0
 10
165.450472
 20
101.672390
 30
0.0
 10
165.138473
 20
101.639390
 30
0.0
 10
164.826473
 20
101.672390
 30
0.0
 10
164.528472
 20
101.769390
 30
0.0
 10
164.256472
 20
101.925388
 30
0.0
 10
164.023472
 20
102.135390
 30
0.0
 10
163.839471
 20
102.389390
 30
0.0
 10
163.711472
 20
102.675388
 30
0.0
 10
163.646471
 20
102.982389
 30
0.0
  0
LWPOLYLINE
  5
130
100
AcDbEntity
  8
0
 62
7
100
AcDbPolyline
 90
21
 70
0
 10
166.138473
 20
33.639390
 30
0.0
 10
166.211473
 20
34.103389
 30
0.0
 10
166.424472
 20
34.521388
 30
0.0
 10
166.756472
 20
34.853389
 30
0.0
 10
167.174472
 20
35.066391
 30
0.0
 10
167.638473
 20
35.139390
 30
0.0
 10
168.102472
 20
35.066391
 30
0.0
 10
168.520471
 20
34.853389
 30
0.0
 10
168.852472
 20
34.521388
 30
0.0
 10
169.065473
 20
34.103389
 30
0.0
 10
169.138473
 20
33.639390
 30
0.0
 10
169.065473
 20
33.175389
 30
0.0
 10
168.852472
 20
32.757389
 30
0.0
 10
168.520471
 20
32.425389
 30
0.0
 10
168.102472
 20
32.212390
 30
0.0
 10
167.638473
 20
32.139390
 30
0.0
 10
167.174472
 20
32.212390
 30
0.0
 10
166.756472
 20
32.425389
 30
0.0
 10
166.424472
 20
32.757389
 30
0.0
 10
166.211473
 20
33.175389
 30
0.0
 10
166.138473
 20
33.639390
 30
0.0
  0
LWPOLYLINE
  5
131
100
AcDbEntity
  8
0
 62
7
100
AcDbPolyline
 90
21
 70
0
 10
166.138473
 20
64.639390
 30
0.0
 10
166.211473
 20
65.103389
 30
0.0
 10
166.424472
 20
65.521388
 30
0.0
 10
166.756472
 20
65.853389
 30
0.0
 10
167.174472
 20
66.066388
 30
0.0
 10
167.638473
 20
66.139390
 30
0.0
 10
168.102472
 20
66.066388
 30
0.0
 10
168.520471
 20
65.853389
 30
0.0
 10
168.852472
 20
65.521388
 30
0.0
 10
169.065473
 20
65.103389
 30
0.0
 10
169.138473
 20
64.639390
 30
0.0
 10
169.065473
 20
64.175389
 30
0.0
 10
168.852472
 20
63.757389
 30
0.0
 10
168.520471
 20
63.425389
 30
0.0
 10
168.102472
 20
63.212390
 30
0.0
 10
167.638473
 20
63.139391
 30
0.0
 10
167.174472
 20
63.212390
 30
0.0
 10
166.756472
 20
63.425389
 30
0.0
 10
166.424472
 20
63.757389
 30
0.0
 10
166.211473
 20
64.175389
 30
0.0
 10
166.138473
 20
64.639390
 30
0.0
  0
LWPOLYLINE
  5
132
100
AcDbEntity
  8
0
 62
7
100
AcDbPolyline
 90
21
 70
0
 10
166.138473
 20
380.639388
 30
0.0
 10
166.211473
 20
381.103389
 30
0.0
 10
166.424472
 20
381.521389
 30
0.0
 10
166.756472
 20
381.853389
 30
0.0
 10
167.174472
 20
382.066388
 30
0.0
 10
167.638473
 20
382.139390
 30
0.0
 10
168.102472
 20
382.066388
 30
0.0
 10
168.520471
 20
381.853389
 30
0.0
 10
168.852472
 20
381.521389
 30
0.0
 10
169.065473
 20
381.103389
 30
0.0
 10
169.138473
 20
380.639388
 30
0.0
 10
169.065473
 20
380.175389
 30
0.0
 10
168.852472
 20
379.757390
 30
0.0
 10
168.520471
 20
379.425389
 30
0.0
 10
168.102472
 20
379.212390
 30
0.0
 10
167.638473
 20
379.139388
 30
0.0
 10
167.174472
 20
379.212390
 30
0.0
 10
166.756472
 20
379.425389
 30
0.0
 10
166.424472
 20
379.757390
 30
0.0
 10
166.211473
 20
380.175389
 30
0.0
 10
166.138473
 20
380.639388
 30
0.0
  0
LWPOLYLINE
  5
133
100
AcDbEntity
  8
0
 62
7
100
AcDbPolyline
 90
21
 70
0
 10
166.138473
 20
411.639388
 30
0.0
 10
166.211473
 20
412.103389
 30
0.0
 10
166.424472
 20
412.521389
 30
0.0
 10
166.756472
 20
412.853389
 30
0.0
 10
167.174472
 20
413.066388
 30
0.0
 10
167.638473
 20
413.139390
 30
0.0
 10
168.102472
 20
413.066388
 30
0.0
 10
168.520471
 20
412.853389
 30
0.0
 10
168.852472
 20
412.521389
 30
0.0
 10
169.065473
 20
412.103389
 30
0.0
 10
169.138473
 20
411.639388
 30
0.0
 10
169.065473
 20
411.175389
 30
0.0
 10
168.852472
 20
410.757390
 30
0.0
 10
168.520471
 20
410.425389
 30
0.0
 10
168.102472
 20
410.212390
 30
0.0
 10
167.638473
 20
410.139388
 30
0.0
 10
167.174472
 20
410.212390
 30
0.0
 10
166.756472
 20
410.425389
 30
0.0
 10
166.424472
 20
410.757390
 30
0.0
 10
166.211473
 20
411.175389
 30
0.0
 10
166.138473
 20
411.639388
 30
0.0
  0
LWPOLYLINE
  5
134
100
AcDbEntity
  8
0
 62
7
100
AcDbPolyline
 90
31
 70
0
 10
171.204472
 20
47.885390
 30
0.0
 10
171.204472
 20
50.393388
 30
0.0
 10
171.725471
 20
52.847390
 30
0.0
 10
172.746472
 20
55.139390
 30
0.0
 10
174.220471
 20
57.169389
 30
0.0
 10
176.085472
 20
58.847389
 30
0.0
 10
178.257471
 20
60.102389
 30
0.0
 10
180.643471
 20
60.877388
 30
0.0
 10
183.138473
 20
61.139389
 30
0.0
 10
185.633473
 20
60.877388
 30
0.0
 10
188.019473
 20
60.102389
 30
0.0
 10
190.191472
 20
58.847389
 30
0.0
 10
192.056472
 20
57.169389
 30
0.0
 10
193.530471
 20
55.139390
 30
0.0
 10
194.551472
 20
52.847390
 30
0.0
 10
195.072471
 20
50.393388
 30
0.0
 10
195.072471
 20
47.885390
 30
0.0
 10
194.551472
 20
45.431388
 30
0.0
 10
193.530471
 20
43.139388
 30
0.0
 10
192.056472
 20
41.109389
 30
0.0
 10
190.191472
 20
39.431389
 30
0.0
 10
188.019473
 20
38.176389
 30
0.0
 10
185.633473
 20
37.401390
 30
0.0
 10
183.138473
 20
37.139389
 30
0.0
 10
180.643471
 20
37.401390
 30
0.0
 10
178.257471
 20
38.176389
 30
0.0
 10
176.085472
 20
39.431389
 30
0.0
 10
174.220471
 20
41.109389
 30
0.0
 10
172.746472
 20
43.139388
 30
0.0
 10
171.725471
 20
45.431388
 30
0.0
 10
171.204472
 20
47.885390
 30
0.0
  0
LWPOLYLINE
  5
135
100
AcDbEntity
  8
0
 62
7
100
AcDbPolyline
 90
31
 70
0
 10
171.204472
 20
394.885390
 30
0.0
 10
171.204472
 20
397.393389
 30
0.0
 10
171.725471
 20
399.847390
 30
0.0
 10
172.746472
 20
402.139390
 30
0.0
 10
174.220471
 20
404.169389
 30
0.0
 10
176.085472
 20
405.847389
 30
0.0
 10
178.257471
 20
407.102389
 30
0.0
 10
180.643471
 20
407.877388
 30
0.0
 10
183.138473
 20
408.139389
 30
0.0
 10
185.633473
 20
407.877388
 30
0.0
 10
188.019473
 20
407.102389
 30
0.0
 10
190.191472
 20
405.847389
 30
0.0
 10
192.056472
 20
404.169389
 30
0.0
 10
193.530471
 20
402.139390
 30
0.0
 10
194.551472
 20
399.847390
 30
0.0
 10
195.072471
 20
397.393389
 30
0.0
 10
195.072471
 20
394.885390
 30
0.0
 10
194.551472
 20
392.431389
 30
0.0
 10
193.530471
 20
390.139388
 30
0.0
 10
192.056472
 20
388.109389
 30
0.0
 10
190.191472
 20
386.431389
 30
0.0
 10
188.019473
 20
385.176389
 30
0.0
 10
185.633473
 20
384.401390
 30
0.0
 10
183.138473
 20
384.139389
 30
0.0
 10
180.643471
 20
384.401390
 30
0.0
 10
178.257471
 20
385.176389
 30
0.0
 10
176.085472
 20
386.431389
 30
0.0
 10
174.220471
 20
388.109389
 30
0.0
 10
172.746472
 20
390.139388
 30
0.0
 10
171.725471
 20
392.431389
 30
0.0
 10
171.204472
 20
394.885390
 30
0.0
  0
LWPOLYLINE
  5
136
100
AcDbEntity
  8
0
 62
7
100
AcDbPolyline
 90
21
 70
0
 10
173.638472
 20
19.139388
 30
0.0
 10
173.711472
 20
19.603390
 30
0.0
 10
173.924474
 20
20.021389
 30
0.0
 10
174.256471
 20
20.353390
 30
0.0
 10
174.674471
 20
20.566388
 30
0.0
 10
175.138472
 20
20.639388
 30
0.0
 10
175.602471
 20
20.566388
 30
0.0
 10
176.020473
 20
20.353390
 30
0.0
 10
176.352471
 20
20.021389
 30
0.0
 10
176.565473
 20
19.603390
 30
0.0
 10
176.638472
 20
19.139388
 30
0.0
 10
176.565473
 20
18.675390
 30
0.0
 10
176.352471
 20
18.257390
 30
0.0
 10
176.020473
 20
17.925390
 30
0.0
 10
175.602471
 20
17.712388
 30
0.0
 10
175.138472
 20
17.639388
 30
0.0
 10
174.674471
 20
17.712388
 30
0.0
 10
174.256471
 20
17.925390
 30
0.0
 10
173.924474
 20
18.257390
 30
0.0
 10
173.711472
 20
18.675390
 30
0.0
 10
173.638472
 20
19.139388
 30
0.0
  0
LWPOLYLINE
  5
137
100
AcDbEntity
  8
0
 62
7
100
AcDbPolyline
 90
21
 70
0
 10
173.638472
 20
426.139390
 30
0.0
 10
173.711472
 20
426.603389
 30
0.0
 10
173.924474
 20
427.021388
 30
0.0
 10
174.256471
 20
427.353389
 30
0.0
 10
174.674471
 20
427.566390
 30
0.0
 10
175.138472
 20
427.639390
 30
0.0
 10
175.602471
 20
427.566390
 30
0.0
 10
176.020473
 20
427.353389
 30
0.0
 10
176.352471
 20
427.021388
 30
0.0
 10
176.565473
 20
426.603389
 30
0.0
 10
176.638472
 20
426.139390
 30
0.0
 10
176.565473
 20
425.675388
 30
0.0
 10
176.352471
 20
425.257389
 30
0.0
 10
176.020473
 20
424.925388
 30
0.0
 10
175.602471
 20
424.712390
 30
0.0
 10
175.138472
 20
424.639390
 30
0.0
 10
174.674471
 20
424.712390
 30
0.0
 10
174.256471
 20
424.925388
 30
0.0
 10
173.924474
 20
425.257389
 30
0.0
 10
173.711472
 20
425.675388
 30
0.0
 10
173.638472
 20
426.139390
 30
0.0
  0
LWPOLYLINE
  5
138
100
AcDbEntity
  8
0
 62
7
100
AcDbPolyline
 90
31
 70
0
 10
175.646472
 20
102.982389
 30
0.0
 10
175.646472
 20
103.296390
 30
0.0
 10
175.711471
 20
103.603388
 30
0.0
 10
175.839473
 20
103.889389
 30
0.0
 10
176.023473
 20
104.143389
 30
0.0
 10
176.256473
 20
104.353388
 30
0.0
 10
176.528473
 20
104.509389
 30
0.0
 10
176.826472
 20
104.606389
 30
0.0
 10
177.138471
 20
104.639389
 30
0.0
 10
177.450473
 20
104.606389
 30
0.0
 10
177.748472
 20
104.509389
 30
0.0
 10
178.020472
 20
104.353388
 30
0.0
 10
178.253472
 20
104.143389
 30
0.0
 10
178.437472
 20
103.889389
 30
0.0
 10
178.565471
 20
103.603388
 30
0.0
 10
178.630473
 20
103.296390
 30
0.0
 10
178.630473
 20
102.982389
 30
0.0
 10
178.565471
 20
102.675388
 30
0.0
 10
178.437472
 20
102.389390
 30
0.0
 10
178.253472
 20
102.135390
 30
0.0
 10
178.020472
 20
101.925388
 30
0.0
 10
177.748472
 20
101.769390
 30
0.0
 10
177.450473
 20
101.672390
 30
0.0
 10
177.138471
 20
101.639390
 30
0.0
 10
176.826472
 20
101.672390
 30
0.0
 10
176.528473
 20
101.769390
 30
0.0
 10
176.256473
 20
101.925388
 30
0.0
 10
176.023473
 20
102.135390
 30
0.0
 10
175.839473
 20
102.389390
 30
0.0
 10
175.711471
 20
102.675388
 30
0.0
 10
175.646472
 20
102.982389
 30
0.0
  0
LWPOLYLINE
  5
139
100
AcDbEntity
  8
0
 62
7
100
AcDbPolyline
 90
31
 70
0
 10
175.646472
 20
146.982389
 30
0.0
 10
175.646472
 20
147.296389
 30
0.0
 10
175.711471
 20
147.603388
 30
0.0
 10
175.839473
 20
147.889389
 30
0.0
 10
176.023473
 20
148.143389
 30
0.0
 10
176.256473
 20
148.353391
 30
0.0
 10
176.528473
 20
148.509389
 30
0.0
 10
176.826472
 20
148.606389
 30
0.0
 10
177.138471
 20
148.639389
 30
0.0
 10
177.450473
 20
148.606389
 30
0.0
 10
177.748472
 20
148.509389
 30
0.0
 10
178.020472
 20
148.353391
 30
0.0
 10
178.253472
 20
148.143389
 30
0.0
 10
178.437472
 20
147.889389
 30
0.0
 10
178.565471
 20
147.603388
 30
0.0
 10
178.630473
 20
147.296389
 30
0.0
 10
178.630473
 20
146.982389
 30
0.0
 10
178.565471
 20
146.675390
 30
0.0
 10
178.437472
 20
146.389389
 30
0.0
 10
178.253472
 20
146.135389
 30
0.0
 10
178.020472
 20
145.925390
 30
0.0
 10
177.748472
 20
145.769389
 30
0.0
 10
177.450473
 20
145.672389
 30
0.0
 10
177.138471
 20
145.639389
 30
0.0
 10
176.826472
 20
145.672389
 30
0.0
 10
176.528473
 20
145.769389
 30
0.0
 10
176.256473
 20
145.925390
 30
0.0
 10
176.023473
 20
146.135389
 30
0.0
 10
175.839473
 20
146.389389
 30
0.0
 10
175.711471
 20
146.675390
 30
0.0
 10
175.646472
 20
146.982389
 30
0.0
  0
LWPOLYLINE
  5
13a
100
AcDbEntity
  8
0
 62
7
100
AcDbPolyline
 90
31
 70
0
 10
175.646472
 20
222.482390
 30
0.0
 10
175.646472
 20
222.796388
 30
0.0
 10
175.711471
 20
223.103389
 30
0.0
 10
175.839473
 20
223.389390
 30
0.0
 10
176.023473
 20
223.643390
 30
0.0
 10
176.256473
 20
223.853389
 30
0.0
 10
176.528473
 20
224.009390
 30
0.0
 10
176.826472
 20
224.106390
 30
0.0
 10
177.138471
 20
224.139390
 30
0.0
 10
177.450473
 20
224.106390
 30
0.0
 10
177.748472
 20
224.009390
 30
0.0
 10
178.020472
 20
223.853389
 30
0.0
 10
178.253472
 20
223.643390
 30
0.0
 10
178.437472
 20
223.389390
 30
0.0
 10
178.565471
 20
223.103389
 30
0.0
 10
178.630473
 20
222.796388
 30
0.0
 10
178.630473
 20
222.482390
 30
0.0
 10
178.565471
 20
222.175389
 30
0.0
 10
178.437472
 20
221.889391
 30
0.0
 10
178.253472
 20
221.635391
 30
0.0
 10
178.020472
 20
221.425389
 30
0.0
 10
177.748472
 20
221.269388
 30
0.0
 10
177.450473
 20
221.172388
 30
0.0
 10
177.138471
 20
221.139391
 30
0.0
 10
176.826472
 20
221.172388
 30
0.0
 10
176.528473
 20
221.269388
 30
0.0
 10
176.256473
 20
221.425389
 30
0.0
 10
176.023473
 20
221.635391
 30
0.0
 10
175.839473
 20
221.889391
 30
0.0
 10
175.711471
 20
222.175389
 30
0.0
 10
175.646472
 20
222.482390
 30
0.0
  0
LWPOLYLINE
  5
13b
100
AcDbEntity
  8
0
 62
7
100
AcDbPolyline
 90
31
 70
0
 10
175.646472
 20
297.982389
 30
0.0
 10
175.646472
 20
298.296389
 30
0.0
 10
175.711471
 20
298.603389
 30
0.0
 10
175.839473
 20
298.889389
 30
0.0
 10
176.023473
 20
299.143389
 30
0.0
 10
176.256473
 20
299.353389
 30
0.0
 10
176.528473
 20
299.509389
 30
0.0
 10
176.826472
 20
299.606389
 30
0.0
 10
177.138471
 20
299.639389
 30
0.0
 10
177.450473
 20
299.606389
 30
0.0
 10
177.748472
 20
299.509389
 30
0.0
 10
178.020472
 20
299.353389
 30
0.0
 10
178.253472
 20
299.143389
 30
0.0
 10
178.437472
 20
298.889389
 30
0.0
 10
178.565471
 20
298.603389
 30
0.0
 10
178.630473
 20
298.296389
 30
0.0
 10
178.630473
 20
297.982389
 30
0.0
 10
178.565471
 20
297.675389
 30
0.0
 10
178.437472
 20
297.389389
 30
0.0
 10
178.253472
 20
297.135389
 30
0.0
 10
178.020472
 20
296.925389
 30
0.0
 10
177.748472
 20
296.769389
 30
0.0
 10
177.450473
 20
296.672389
 30
0.0
 10
177.138471
 20
296.639389
 30
0.0
 10
176.826472
 20
296.672389
 30
0.0
 10
176.528473
 20
296.769389
 30
0.0
 10
176.256473
 20
296.925389
 30
0.0
 10
176.023473
 20
297.135389
 30
0.0
 10
175.839473
 20
297.389389
 30
0.0
 10
175.711471
 20
297.675389
 30
0.0
 10
175.646472
 20
297.982389
 30
0.0
  0
LWPOLYLINE
  5
13c
100
AcDbEntity
  8
0
 62
7
100
AcDbPolyline
 90
31
 70
0
 10
175.646472
 20
341.982388
 30
0.0
 10
175.646472
 20
342.296389
 30
0.0
 10
175.711471
 20
342.603390
 30
0.0
 10
175.839473
 20
342.889388
 30
0.0
 10
176.023473
 20
343.143388
 30
0.0
 10
176.256473
 20
343.353390
 30
0.0
 10
176.528473
 20
343.509388
 30
0.0
 10
176.826472
 20
343.606388
 30
0.0
 10
177.138471
 20
343.639388
 30
0.0
 10
177.450473
 20
343.606388
 30
0.0
 10
177.748472
 20
343.509388
 30
0.0
 10
178.020472
 20
343.353390
 30
0.0
 10
178.253472
 20
343.143388
 30
0.0
 10
178.437472
 20
342.889388
 30
0.0
 10
178.565471
 20
342.603390
 30
0.0
 10
178.630473
 20
342.296389
 30
0.0
 10
178.630473
 20
341.982388
 30
0.0
 10
178.565471
 20
341.675390
 30
0.0
 10
178.437472
 20
341.389389
 30
0.0
 10
178.253472
 20
341.135389
 30
0.0
 10
178.020472
 20
340.925390
 30
0.0
 10
177.748472
 20
340.769389
 30
0.0
 10
177.450473
 20
340.672389
 30
0.0
 10
177.138471
 20
340.639389
 30
0.0
 10
176.826472
 20
340.672389
 30
0.0
 10
176.528473
 20
340.769389
 30
0.0
 10
176.256473
 20
340.925390
 30
0.0
 10
176.023473
 20
341.135389
 30
0.0
 10
175.839473
 20
341.389389
 30
0.0
 10
175.711471
 20
341.675390
 30
0.0
 10
175.646472
 20
341.982388
 30
0.0
  0
LWPOLYLINE
  5
13d
100
AcDbEntity
  8
0
 62
7
100
AcDbPolyline
 90
14
 70
0
 10
179.118472
 20
18.651389
 30
0.0
 10
179.351472
 20
20.575389
 30
0.0
 10
180.452471
 20
22.170390
 30
0.0
 10
182.169472
 20
23.071390
 30
0.0
 10
184.107472
 20
23.071390
 30
0.0
 10
185.824472
 20
22.170390
 30
0.0
 10
186.925472
 20
20.575389
 30
0.0
 10
187.158472
 20
18.651389
 30
0.0
 10
186.471473
 20
16.838388
 30
0.0
 10
185.020472
 20
15.553388
 30
0.0
 10
183.138473
 20
15.089389
 30
0.0
 10
181.256472
 20
15.553388
 30
0.0
 10
179.805471
 20
16.838388
 30
0.0
 10
179.118472
 20
18.651389
 30
0.0
  0
LWPOLYLINE
  5
13e
100
AcDbEntity
  8
0
 62
7
100
AcDbPolyline
 90
14
 70
0
 10
179.118472
 20
426.627389
 30
0.0
 10
179.805471
 20
428.440390
 30
0.0
 10
181.256472
 20
429.725390
 30
0.0
 10
183.138473
 20
430.189389
 30
0.0
 10
185.020472
 20
429.725390
 30
0.0
 10
186.471473
 20
428.440390
 30
0.0
 10
187.158472
 20
426.627389
 30
0.0
 10
186.925472
 20
424.703390
 30
0.0
 10
185.824472
 20
423.108388
 30
0.0
 10
184.107472
 20
422.207388
 30
0.0
 10
182.169472
 20
422.207388
 30
0.0
 10
180.452471
 20
423.108388
 30
0.0
 10
179.351472
 20
424.703390
 30
0.0
 10
179.118472
 20
426.627389
 30
0.0
  0
LWPOLYLINE
  5
13f
100
AcDbEntity
  8
0
 62
7
100
AcDbPolyline
 90
31
 70
0
 10
187.646474
 20
102.982389
 30
0.0
 10
187.646474
 20
103.296390
 30
0.0
 10
187.711472
 20
103.603388
 30
0.0
 10
187.839471
 20
103.889389
 30
0.0
 10
188.023472
 20
104.143389
 30
0.0
 10
188.256472
 20
104.353388
 30
0.0
 10
188.528472
 20
104.509389
 30
0.0
 10
188.826473
 20
104.606389
 30
0.0
 10
189.138473
 20
104.639389
 30
0.0
 10
189.450472
 20
104.606389
 30
0.0
 10
189.748473
 20
104.509389
 30
0.0
 10
190.020473
 20
104.353388
 30
0.0
 10
190.253473
 20
104.143389
 30
0.0
 10
190.437474
 20
103.889389
 30
0.0
 10
190.565473
 20
103.603388
 30
0.0
 10
190.630471
 20
103.296390
 30
0.0
 10
190.630471
 20
102.982389
 30
0.0
 10
190.565473
 20
102.675388
 30
0.0
 10
190.437474
 20
102.389390
 30
0.0
 10
190.253473
 20
102.135390
 30
0.0
 10
190.020473
 20
101.925388
 30
0.0
 10
189.748473
 20
101.769390
 30
0.0
 10
189.450472
 20
101.672390
 30
0.0
 10
189.138473
 20
101.639390
 30
0.0
 10
188.826473
 20
101.672390
 30
0.0
 10
188.528472
 20
101.769390
 30
0.0
 10
188.256472
 20
101.925388
 30
0.0
 10
188.023472
 20
102.135390
 30
0.0
 10
187.839471
 20
102.389390
 30
0.0
 10
187.711472
 20
102.675388
 30
0.0
 10
187.646474
 20
102.982389
 30
0.0
  0
LWPOLYLINE
  5
140
100
AcDbEntity
  8
0
 62
7
100
AcDbPolyline
 90
31
 70
0
 10
187.646474
 20
146.982389
 30
0.0
 10
187.646474
 20
147.296389
 30
0.0
 10
187.711472
 20
147.603388
 30
0.0
 10
187.839471
 20
147.889389
 30
0.0
 10
188.023472
 20
148.143389
 30
0.0
 10
188.256472
 20
148.353391
 30
0.0
 10
188.528472
 20
148.509389
 30
0.0
 10
188.826473
 20
148.606389
 30
0.0
 10
189.138473
 20
148.639389
 30
0.0
 10
189.450472
 20
148.606389
 30
0.0
 10
189.748473
 20
148.509389
 30
0.0
 10
190.020473
 20
148.353391
 30
0.0
 10
190.253473
 20
148.143389
 30
0.0
 10
190.437474
 20
147.889389
 30
0.0
 10
190.565473
 20
147.603388
 30
0.0
 10
190.630471
 20
147.296389
 30
0.0
 10
190.630471
 20
146.982389
 30
0.0
 10
190.565473
 20
146.675390
 30
0.0
 10
190.437474
 20
146.389389
 30
0.0
 10
190.253473
 20
146.135389
 30
0.0
 10
190.020473
 20
145.925390
 30
0.0
 10
189.748473
 20
145.769389
 30
0.0
 10
189.450472
 20
145.672389
 30
0.0
 10
189.138473
 20
145.639389
 30
0.0
 10
188.826473
 20
145.672389
 30
0.0
 10
188.528472
 20
145.769389
 30
0.0
 10
188.256472
 20
145.925390
 30
0.0
 10
188.023472
 20
146.135389
 30
0.0
 10
187.839471
 20
146.389389
 30
0.0
 10
187.711472
 20
146.675390
 30
0.0
 10
187.646474
 20
146.982389
 30
0.0
  0
LWPOLYLINE
  5
141
100
AcDbEntity
  8
0
 62
7
100
AcDbPolyline
 90
31
 70
0
 10
187.646474
 20
222.482390
 30
0.0
 10
187.646474
 20
222.796388
 30
0.0
 10
187.711472
 20
223.103389
 30
0.0
 10
187.839471
 20
223.389390
 30
0.0
 10
188.023472
 20
223.643390
 30
0.0
 10
188.256472
 20
223.853389
 30
0.0
 10
188.528472
 20
224.009390
 30
0.0
 10
188.826473
 20
224.106390
 30
0.0
 10
189.138473
 20
224.139390
 30
0.0
 10
189.450472
 20
224.106390
 30
0.0
 10
189.748473
 20
224.009390
 30
0.0
 10
190.020473
 20
223.853389
 30
0.0
 10
190.253473
 20
223.643390
 30
0.0
 10
190.437474
 20
223.389390
 30
0.0
 10
190.565473
 20
223.103389
 30
0.0
 10
190.630471
 20
222.796388
 30
0.0
 10
190.630471
 20
222.482390
 30
0.0
 10
190.565473
 20
222.175389
 30
0.0
 10
190.437474
 20
221.889391
 30
0.0
 10
190.253473
 20
221.635391
 30
0.0
 10
190.020473
 20
221.425389
 30
0.0
 10
189.748473
 20
221.269388
 30
0.0
 10
189.450472
 20
221.172388
 30
0.0
 10
189.138473
 20
221.139391
 30
0.0
 10
188.826473
 20
221.172388
 30
0.0
 10
188.528472
 20
221.269388
 30
0.0
 10
188.256472
 20
221.425389
 30
0.0
 10
188.023472
 20
221.635391
 30
0.0
 10
187.839471
 20
221.889391
 30
0.0
 10
187.711472
 20
222.175389
 30
0.0
 10
187.646474
 20
222.482390
 30
0.0
  0
LWPOLYLINE
  5
142
100
AcDbEntity
  8
0
 62
7
100
AcDbPolyline
 90
31
 70
0
 10
187.646474
 20
297.982389
 30
0.0
 10
187.646474
 20
298.296389
 30
0.0
 10
187.711472
 20
298.603389
 30
0.0
 10
187.839471
 20
298.889389
 30
0.0
 10
188.023472
 20
299.143389
 30
0.0
 10
188.256472
 20
299.353389
 30
0.0
 10
188.528472
 20
299.509389
 30
0.0
 10
188.826473
 20
299.606389
 30
0.0
 10
189.138473
 20
299.639389
 30
0.0
 10
189.450472
 20
299.606389
 30
0.0
 10
189.748473
 20
299.509389
 30
0.0
 10
190.020473
 20
299.353389
 30
0.0
 10
190.253473
 20
299.143389
 30
0.0
 10
190.437474
 20
298.889389
 30
0.0
 10
190.565473
 20
298.603389
 30
0.0
 10
190.630471
 20
298.296389
 30
0.0
 10
190.630471
 20
297.982389
 30
0.0
 10
190.565473
 20
297.675389
 30
0.0
 10
190.437474
 20
297.389389
 30
0.0
 10
190.253473
 20
297.135389
 30
0.0
 10
190.020473
 20
296.925389
 30
0.0
 10
189.748473
 20
296.769389
 30
0.0
 10
189.450472
 20
296.672389
 30
0.0
 10
189.138473
 20
296.639389
 30
0.0
 10
188.826473
 20
296.672389
 30
0.0
 10
188.528472
 20
296.769389
 30
0.0
 10
188.256472
 20
296.925389
 30
0.0
 10
188.023472
 20
297.135389
 30
0.0
 10
187.839471
 20
297.389389
 30
0.0
 10
187.711472
 20
297.675389
 30
0.0
 10
187.646474
 20
297.982389
 30
0.0
  0
LWPOLYLINE
  5
143
100
AcDbEntity
  8
0
 62
7
100
AcDbPolyline
 90
31
 70
0
 10
187.646474
 20
341.982388
 30
0.0
 10
187.646474
 20
342.296389
 30
0.0
 10
187.711472
 20
342.603390
 30
0.0
 10
187.839471
 20
342.889388
 30
0.0
 10
188.023472
 20
343.143388
 30
0.0
 10
188.256472
 20
343.353390
 30
0.0
 10
188.528472
 20
343.509388
 30
0.0
 10
188.826473
 20
343.606388
 30
0.0
 10
189.138473
 20
343.639388
 30
0.0
 10
189.450472
 20
343.606388
 30
0.0
 10
189.748473
 20
343.509388
 30
0.0
 10
190.020473
 20
343.353390
 30
0.0
 10
190.253473
 20
343.143388
 30
0.0
 10
190.437474
 20
342.889388
 30
0.0
 10
190.565473
 20
342.603390
 30
0.0
 10
190.630471
 20
342.296389
 30
0.0
 10
190.630471
 20
341.982388
 30
0.0
 10
190.565473
 20
341.675390
 30
0.0
 10
190.437474
 20
341.389389
 30
0.0
 10
190.253473
 20
341.135389
 30
0.0
 10
190.020473
 20
340.925390
 30
0.0
 10
189.748473
 20
340.769389
 30
0.0
 10
189.450472
 20
340.672389
 30
0.0
 10
189.138473
 20
340.639389
 30
0.0
 10
188.826473
 20
340.672389
 30
0.0
 10
188.528472
 20
340.769389
 30
0.0
 10
188.256472
 20
340.925390
 30
0.0
 10
188.023472
 20
341.135389
 30
0.0
 10
187.839471
 20
341.389389
 30
0.0
 10
187.711472
 20
341.675390
 30
0.0
 10
187.646474
 20
341.982388
 30
0.0
  0
LWPOLYLINE
  5
144
100
AcDbEntity
  8
0
 62
7
100
AcDbPolyline
 90
21
 70
0
 10
189.638472
 20
19.139388
 30
0.0
 10
189.711471
 20
19.603390
 30
0.0
 10
189.924473
 20
20.021389
 30
0.0
 10
190.256473
 20
20.353390
 30
0.0
 10
190.674473
 20
20.566388
 30
0.0
 10
191.138471
 20
20.639388
 30
0.0
 10
191.602473
 20
20.566388
 30
0.0
 10
192.020472
 20
20.353390
 30
0.0
 10
192.352473
 20
20.021389
 30
0.0
 10
192.565472
 20
19.603390
 30
0.0
 10
192.638471
 20
19.139388
 30
0.0
 10
192.565472
 20
18.675390
 30
0.0
 10
192.352473
 20
18.257390
 30
0.0
 10
192.020472
 20
17.925390
 30
0.0
 10
191.602473
 20
17.712388
 30
0.0
 10
191.138471
 20
17.639388
 30
0.0
 10
190.674473
 20
17.712388
 30
0.0
 10
190.256473
 20
17.925390
 30
0.0
 10
189.924473
 20
18.257390
 30
0.0
 10
189.711471
 20
18.675390
 30
0.0
 10
189.638472
 20
19.139388
 30
0.0
  0
LWPOLYLINE
  5
145
100
AcDbEntity
  8
0
 62
7
100
AcDbPolyline
 90
21
 70
0
 10
189.638472
 20
426.139390
 30
0.0
 10
189.711471
 20
426.603389
 30
0.0
 10
189.924473
 20
427.021388
 30
0.0
 10
190.256473
 20
427.353389
 30
0.0
 10
190.674473
 20
427.566390
 30
0.0
 10
191.138471
 20
427.639390
 30
0.0
 10
191.602473
 20
427.566390
 30
0.0
 10
192.020472
 20
427.353389
 30
0.0
 10
192.352473
 20
427.021388
 30
0.0
 10
192.565472
 20
426.603389
 30
0.0
 10
192.638471
 20
426.139390
 30
0.0
 10
192.565472
 20
425.675388
 30
0.0
 10
192.352473
 20
425.257389
 30
0.0
 10
192.020472
 20
424.925388
 30
0.0
 10
191.602473
 20
424.712390
 30
0.0
 10
191.138471
 20
424.639390
 30
0.0
 10
190.674473
 20
424.712390
 30
0.0
 10
190.256473
 20
424.925388
 30
0.0
 10
189.924473
 20
425.257389
 30
0.0
 10
189.711471
 20
425.675388
 30
0.0
 10
189.638472
 20
426.139390
 30
0.0
  0
LWPOLYLINE
  5
146
100
AcDbEntity
  8
0
 62
7
100
AcDbPolyline
 90
21
 70
0
 10
197.138473
 20
33.639390
 30
0.0
 10
197.211473
 20
34.103389
 30
0.0
 10
197.424472
 20
34.521388
 30
0.0
 10
197.756472
 20
34.853389
 30
0.0
 10
198.174472
 20
35.066391
 30
0.0
 10
198.638473
 20
35.139390
 30
0.0
 10
199.102472
 20
35.066391
 30
0.0
 10
199.520471
 20
34.853389
 30
0.0
 10
199.852472
 20
34.521388
 30
0.0
 10
200.065473
 20
34.103389
 30
0.0
 10
200.138473
 20
33.639390
 30
0.0
 10
200.065473
 20
33.175389
 30
0.0
 10
199.852472
 20
32.757389
 30
0.0
 10
199.520471
 20
32.425389
 30
0.0
 10
199.102472
 20
32.212390
 30
0.0
 10
198.638473
 20
32.139390
 30
0.0
 10
198.174472
 20
32.212390
 30
0.0
 10
197.756472
 20
32.425389
 30
0.0
 10
197.424472
 20
32.757389
 30
0.0
 10
197.211473
 20
33.175389
 30
0.0
 10
197.138473
 20
33.639390
 30
0.0
  0
LWPOLYLINE
  5
147
100
AcDbEntity
  8
0
 62
7
100
AcDbPolyline
 90
21
 70
0
 10
197.138473
 20
64.639390
 30
0.0
 10
197.211473
 20
65.103389
 30
0.0
 10
197.424472
 20
65.521388
 30
0.0
 10
197.756472
 20
65.853389
 30
0.0
 10
198.174472
 20
66.066388
 30
0.0
 10
198.638473
 20
66.139390
 30
0.0
 10
199.102472
 20
66.066388
 30
0.0
 10
199.520471
 20
65.853389
 30
0.0
 10
199.852472
 20
65.521388
 30
0.0
 10
200.065473
 20
65.103389
 30
0.0
 10
200.138473
 20
64.639390
 30
0.0
 10
200.065473
 20
64.175389
 30
0.0
 10
199.852472
 20
63.757389
 30
0.0
 10
199.520471
 20
63.425389
 30
0.0
 10
199.102472
 20
63.212390
 30
0.0
 10
198.638473
 20
63.139391
 30
0.0
 10
198.174472
 20
63.212390
 30
0.0
 10
197.756472
 20
63.425389
 30
0.0
 10
197.424472
 20
63.757389
 30
0.0
 10
197.211473
 20
64.175389
 30
0.0
 10
197.138473
 20
64.639390
 30
0.0
  0
LWPOLYLINE
  5
148
100
AcDbEntity
  8
0
 62
7
100
AcDbPolyline
 90
21
 70
0
 10
197.138473
 20
380.639388
 30
0.0
 10
197.211473
 20
381.103389
 30
0.0
 10
197.424472
 20
381.521389
 30
0.0
 10
197.756472
 20
381.853389
 30
0.0
 10
198.174472
 20
382.066388
 30
0.0
 10
198.638473
 20
382.139390
 30
0.0
 10
199.102472
 20
382.066388
 30
0.0
 10
199.520471
 20
381.853389
 30
0.0
 10
199.852472
 20
381.521389
 30
0.0
 10
200.065473
 20
381.103389
 30
0.0
 10
200.138473
 20
380.639388
 30
0.0
 10
200.065473
 20
380.175389
 30
0.0
 10
199.852472
 20
379.757390
 30
0.0
 10
199.520471
 20
379.425389
 30
0.0
 10
199.102472
 20
379.212390
 30
0.0
 10
198.638473
 20
379.139388
 30
0.0
 10
198.174472
 20
379.212390
 30
0.0
 10
197.756472
 20
379.425389
 30
0.0
 10
197.424472
 20
379.757390
 30
0.0
 10
197.211473
 20
380.175389
 30
0.0
 10
197.138473
 20
380.639388
 30
0.0
  0
LWPOLYLINE
  5
149
100
AcDbEntity
  8
0
 62
7
100
AcDbPolyline
 90
21
 70
0
 10
197.138473
 20
411.639388
 30
0.0
 10
197.211473
 20
412.103389
 30
0.0
 10
197.424472
 20
412.521389
 30
0.0
 10
197.756472
 20
412.853389
 30
0.0
 10
198.174472
 20
413.066388
 30
0.0
 10
198.638473
 20
413.139390
 30
0.0
 10
199.102472
 20
413.066388
 30
0.0
 10
199.520471
 20
412.853389
 30
0.0
 10
199.852472
 20
412.521389
 30
0.0
 10
200.065473
 20
412.103389
 30
0.0
 10
200.138473
 20
411.639388
 30
0.0
 10
200.065473
 20
411.175389
 30
0.0
 10
199.852472
 20
410.757390
 30
0.0
 10
199.520471
 20
410.425389
 30
0.0
 10
199.102472
 20
410.212390
 30
0.0
 10
198.638473
 20
410.139388
 30
0.0
 10
198.174472
 20
410.212390
 30
0.0
 10
197.756472
 20
410.425389
 30
0.0
 10
197.424472
 20
410.757390
 30
0.0
 10
197.211473
 20
411.175389
 30
0.0
 10
197.138473
 20
411.639388
 30
0.0
  0
LWPOLYLINE
  5
14a
100
AcDbEntity
  8
0
 62
7
100
AcDbPolyline
 90
23
 70
0
 10
218.138471
 20
133.639388
 30
0.0
 10
218.138471
 20
151.639389
 30
0.0
 10
218.383474
 20
153.184389
 30
0.0
 10
219.093471
 20
154.578389
 30
0.0
 10
220.199472
 20
155.684389
 30
0.0
 10
221.593472
 20
156.394390
 30
0.0
 10
223.138472
 20
156.639390
 30
0.0
 10
224.683472
 20
156.394390
 30
0.0
 10
226.077472
 20
155.684389
 30
0.0
 10
227.183473
 20
154.578389
 30
0.0
 10
227.893471
 20
153.184389
 30
0.0
 10
228.138471
 20
151.639389
 30
0.0
 10
228.138471
 20
133.639388
 30
0.0
 10
227.893471
 20
132.094388
 30
0.0
 10
227.183473
 20
130.700391
 30
0.0
 10
226.077472
 20
129.594390
 30
0.0
 10
224.683472
 20
128.884389
 30
0.0
 10
223.138472
 20
128.639389
 30
0.0
 10
221.593472
 20
128.884389
 30
0.0
 10
220.199472
 20
129.594390
 30
0.0
 10
219.093471
 20
130.700391
 30
0.0
 10
218.383474
 20
132.094388
 30
0.0
 10
218.138471
 20
133.639388
 30
0.0
  0
LWPOLYLINE
  5
14b
100
AcDbEntity
  8
0
 62
7
100
AcDbPolyline
 90
23
 70
0
 10
218.138471
 20
163.639390
 30
0.0
 10
218.138471
 20
181.639391
 30
0.0
 10
218.383474
 20
183.184388
 30
0.0
 10
219.093471
 20
184.578388
 30
0.0
 10
220.199472
 20
185.684389
 30
0.0
 10
221.593472
 20
186.394389
 30
0.0
 10
223.138472
 20
186.639389
 30
0.0
 10
224.683472
 20
186.394389
 30
0.0
 10
226.077472
 20
185.684389
 30
0.0
 10
227.183473
 20
184.578388
 30
0.0
 10
227.893471
 20
183.184388
 30
0.0
 10
228.138471
 20
181.639391
 30
0.0
 10
228.138471
 20
163.639390
 30
0.0
 10
227.893471
 20
162.094390
 30
0.0
 10
227.183473
 20
160.700390
 30
0.0
 10
226.077472
 20
159.594389
 30
0.0
 10
224.683472
 20
158.884389
 30
0.0
 10
223.138472
 20
158.639389
 30
0.0
 10
221.593472
 20
158.884389
 30
0.0
 10
220.199472
 20
159.594389
 30
0.0
 10
219.093471
 20
160.700390
 30
0.0
 10
218.383474
 20
162.094390
 30
0.0
 10
218.138471
 20
163.639390
 30
0.0
  0
LWPOLYLINE
  5
14c
100
AcDbEntity
  8
0
 62
7
100
AcDbPolyline
 90
21
 70
0
 10
221.138473
 20
133.639388
 30
0.0
 10
221.236472
 20
134.257390
 30
0.0
 10
221.520472
 20
134.815388
 30
0.0
 10
221.962472
 20
135.257390
 30
0.0
 10
222.520473
 20
135.541391
 30
0.0
 10
223.138472
 20
135.639389
 30
0.0
 10
223.756471
 20
135.541391
 30
0.0
 10
224.314472
 20
135.257390
 30
0.0
 10
224.756472
 20
134.815388
 30
0.0
 10
225.040472
 20
134.257390
 30
0.0
 10
225.138471
 20
133.639388
 30
0.0
 10
225.040472
 20
133.021389
 30
0.0
 10
224.756472
 20
132.463390
 30
0.0
 10
224.314472
 20
132.021388
 30
0.0
 10
223.756471
 20
131.737388
 30
0.0
 10
223.138472
 20
131.639389
 30
0.0
 10
222.520473
 20
131.737388
 30
0.0
 10
221.962472
 20
132.021388
 30
0.0
 10
221.520472
 20
132.463390
 30
0.0
 10
221.236472
 20
133.021389
 30
0.0
 10
221.138473
 20
133.639388
 30
0.0
  0
LWPOLYLINE
  5
14d
100
AcDbEntity
  8
0
 62
7
100
AcDbPolyline
 90
21
 70
0
 10
221.138473
 20
151.639389
 30
0.0
 10
221.236472
 20
152.257390
 30
0.0
 10
221.520472
 20
152.815389
 30
0.0
 10
221.962472
 20
153.257388
 30
0.0
 10
222.520473
 20
153.541389
 30
0.0
 10
223.138472
 20
153.639390
 30
0.0
 10
223.756471
 20
153.541389
 30
0.0
 10
224.314472
 20
153.257388
 30
0.0
 10
224.756472
 20
152.815389
 30
0.0
 10
225.040472
 20
152.257390
 30
0.0
 10
225.138471
 20
151.639389
 30
0.0
 10
225.040472
 20
151.021390
 30
0.0
 10
224.756472
 20
150.463388
 30
0.0
 10
224.314472
 20
150.021389
 30
0.0
 10
223.756471
 20
149.737389
 30
0.0
 10
223.138472
 20
149.639390
 30
0.0
 10
222.520473
 20
149.737389
 30
0.0
 10
221.962472
 20
150.021389
 30
0.0
 10
221.520472
 20
150.463388
 30
0.0
 10
221.236472
 20
151.021390
 30
0.0
 10
221.138473
 20
151.639389
 30
0.0
  0
LWPOLYLINE
  5
14e
100
AcDbEntity
  8
0
 62
7
100
AcDbPolyline
 90
21
 70
0
 10
221.138473
 20
163.639390
 30
0.0
 10
221.236472
 20
164.257389
 30
0.0
 10
221.520472
 20
164.815390
 30
0.0
 10
221.962472
 20
165.257390
 30
0.0
 10
222.520473
 20
165.541390
 30
0.0
 10
223.138472
 20
165.639389
 30
0.0
 10
223.756471
 20
165.541390
 30
0.0
 10
224.314472
 20
165.257390
 30
0.0
 10
224.756472
 20
164.815390
 30
0.0
 10
225.040472
 20
164.257389
 30
0.0
 10
225.138471
 20
163.639390
 30
0.0
 10
225.040472
 20
163.021388
 30
0.0
 10
224.756472
 20
162.463390
 30
0.0
 10
224.314472
 20
162.021390
 30
0.0
 10
223.756471
 20
161.737390
 30
0.0
 10
223.138472
 20
161.639388
 30
0.0
 10
222.520473
 20
161.737390
 30
0.0
 10
221.962472
 20
162.021390
 30
0.0
 10
221.520472
 20
162.463390
 30
0.0
 10
221.236472
 20
163.021388
 30
0.0
 10
221.138473
 20
163.639390
 30
0.0
  0
LWPOLYLINE
  5
14f
100
AcDbEntity
  8
0
 62
7
100
AcDbPolyline
 90
21
 70
0
 10
221.138473
 20
181.639391
 30
0.0
 10
221.236472
 20
182.257390
 30
0.0
 10
221.520472
 20
182.815388
 30
0.0
 10
221.962472
 20
183.257390
 30
0.0
 10
222.520473
 20
183.541391
 30
0.0
 10
223.138472
 20
183.639389
 30
0.0
 10
223.756471
 20
183.541391
 30
0.0
 10
224.314472
 20
183.257390
 30
0.0
 10
224.756472
 20
182.815388
 30
0.0
 10
225.040472
 20
182.257390
 30
0.0
 10
225.138471
 20
181.639391
 30
0.0
 10
225.040472
 20
181.021389
 30
0.0
 10
224.756472
 20
180.463390
 30
0.0
 10
224.314472
 20
180.021388
 30
0.0
 10
223.756471
 20
179.737391
 30
0.0
 10
223.138472
 20
179.639389
 30
0.0
 10
222.520473
 20
179.737391
 30
0.0
 10
221.962472
 20
180.021388
 30
0.0
 10
221.520472
 20
180.463390
 30
0.0
 10
221.236472
 20
181.021389
 30
0.0
 10
221.138473
 20
181.639391
 30
0.0
  0
LWPOLYLINE
  5
150
100
AcDbEntity
  8
0
 62
7
100
AcDbPolyline
 90
34
 70
0
 10
221.138473
 20
392.639389
 30
0.0
 10
221.400472
 20
395.134389
 30
0.0
 10
222.175471
 20
397.520389
 30
0.0
 10
223.430473
 20
399.692388
 30
0.0
 10
225.108474
 20
401.557388
 30
0.0
 10
227.138473
 20
403.031390
 30
0.0
 10
229.430473
 20
404.052388
 30
0.0
 10
231.884471
 20
404.573390
 30
0.0
 10
233.138472
 20
404.573390
 30
0.0
 10
233.138472
 20
404.639391
 30
0.0
 10
271.138472
 20
404.639391
 30
0.0
 10
271.138472
 20
404.578388
 30
0.0
 10
272.611472
 20
404.455390
 30
0.0
 10
274.420471
 20
403.662388
 30
0.0
 10
275.873464
 20
402.324389
 30
0.0
 10
276.813462
 20
400.587388
 30
0.0
 10
277.138469
 20
398.639388
 30
0.0
 10
277.138469
 20
386.639390
 30
0.0
 10
276.813462
 20
384.691388
 30
0.0
 10
275.873464
 20
382.954389
 30
0.0
 10
274.420471
 20
381.616390
 30
0.0
 10
272.611472
 20
380.823388
 30
0.0
 10
271.138472
 20
380.700390
 30
0.0
 10
271.138472
 20
380.639388
 30
0.0
 10
233.138472
 20
380.639388
 30
0.0
 10
233.138472
 20
380.705388
 30
0.0
 10
231.884471
 20
380.705388
 30
0.0
 10
229.430473
 20
381.226390
 30
0.0
 10
227.138473
 20
382.247388
 30
0.0
 10
225.108474
 20
383.721390
 30
0.0
 10
223.430473
 20
385.586391
 30
0.0
 10
222.175471
 20
387.758390
 30
0.0
 10
221.400472
 20
390.144389
 30
0.0
 10
221.138473
 20
392.639389
 30
0.0
  0
LWPOLYLINE
  5
151
100
AcDbEntity
  8
0
 62
7
100
AcDbPolyline
 90
34
 70
0
 10
221.138473
 20
427.639390
 30
0.0
 10
221.400472
 20
430.134389
 30
0.0
 10
222.175471
 20
432.520389
 30
0.0
 10
223.430473
 20
434.692388
 30
0.0
 10
225.108474
 20
436.557389
 30
0.0
 10
227.138473
 20
438.031388
 30
0.0
 10
229.430473
 20
439.052389
 30
0.0
 10
231.884471
 20
439.573388
 30
0.0
 10
233.138472
 20
439.573388
 30
0.0
 10
233.138472
 20
439.639388
 30
0.0
 10
271.138472
 20
439.639388
 30
0.0
 10
271.138472
 20
439.578389
 30
0.0
 10
272.611472
 20
439.455388
 30
0.0
 10
274.420471
 20
438.662389
 30
0.0
 10
275.873464
 20
437.324390
 30
0.0
 10
276.813462
 20
435.587388
 30
0.0
 10
277.138469
 20
433.639389
 30
0.0
 10
277.138469
 20
421.639390
 30
0.0
 10
276.813462
 20
419.691388
 30
0.0
 10
275.873464
 20
417.954389
 30
0.0
 10
274.420471
 20
416.616388
 30
0.0
 10
272.611472
 20
415.823389
 30
0.0
 10
271.138472
 20
415.700391
 30
0.0
 10
271.138472
 20
415.639388
 30
0.0
 10
233.138472
 20
415.639388
 30
0.0
 10
233.138472
 20
415.705389
 30
0.0
 10
231.884471
 20
415.705389
 30
0.0
 10
229.430473
 20
416.226388
 30
0.0
 10
227.138473
 20
417.247389
 30
0.0
 10
225.108474
 20
418.721388
 30
0.0
 10
223.430473
 20
420.586388
 30
0.0
 10
222.175471
 20
422.758390
 30
0.0
 10
221.400472
 20
425.144390
 30
0.0
 10
221.138473
 20
427.639390
 30
0.0
  0
LWPOLYLINE
  5
152
100
AcDbEntity
  8
0
 62
7
100
AcDbPolyline
 90
30
 70
0
 10
221.138473
 20
462.639390
 30
0.0
 10
221.400472
 20
465.134390
 30
0.0
 10
222.175471
 20
467.520390
 30
0.0
 10
223.430473
 20
469.692389
 30
0.0
 10
225.108474
 20
471.557390
 30
0.0
 10
227.138473
 20
473.031388
 30
0.0
 10
229.430473
 20
474.052389
 30
0.0
 10
231.884471
 20
474.573388
 30
0.0
 10
233.138472
 20
474.573388
 30
0.0
 10
233.138472
 20
474.578384
 30
0.0
 10
234.611472
 20
474.455388
 30
0.0
 10
236.420471
 20
473.662389
 30
0.0
 10
237.873472
 20
472.324388
 30
0.0
 10
238.813473
 20
470.587389
 30
0.0
 10
239.138471
 20
468.639390
 30
0.0
 10
239.138471
 20
456.639388
 30
0.0
 10
238.813473
 20
454.691389
 30
0.0
 10
237.873472
 20
452.954390
 30
0.0
 10
236.420471
 20
451.616389
 30
0.0
 10
234.611472
 20
450.823389
 30
0.0
 10
233.138472
 20
450.700388
 30
0.0
 10
233.138472
 20
450.705384
 30
0.0
 10
231.884471
 20
450.705389
 30
0.0
 10
229.430473
 20
451.226388
 30
0.0
 10
227.138473
 20
452.247389
 30
0.0
 10
225.108474
 20
453.721388
 30
0.0
 10
223.430473
 20
455.586389
 30
0.0
 10
222.175471
 20
457.758388
 30
0.0
 10
221.400472
 20
460.144388
 30
0.0
 10
221.138473
 20
462.639390
 30
0.0
  0
LWPOLYLINE
  5
153
100
AcDbEntity
  8
0
 62
7
100
AcDbPolyline
 90
21
 70
0
 10
223.638471
 20
392.639389
 30
0.0
 10
223.711471
 20
393.103388
 30
0.0
 10
223.924472
 20
393.521390
 30
0.0
 10
224.256473
 20
393.853388
 30
0.0
 10
224.674472
 20
394.066389
 30
0.0
 10
225.138471
 20
394.139389
 30
0.0
 10
225.602473
 20
394.066389
 30
0.0
 10
226.020472
 20
393.853388
 30
0.0
 10
226.352473
 20
393.521390
 30
0.0
 10
226.565471
 20
393.103388
 30
0.0
 10
226.638474
 20
392.639389
 30
0.0
 10
226.565471
 20
392.175388
 30
0.0
 10
226.352473
 20
391.757388
 30
0.0
 10
226.020472
 20
391.425390
 30
0.0
 10
225.602473
 20
391.212389
 30
0.0
 10
225.138471
 20
391.139389
 30
0.0
 10
224.674472
 20
391.212389
 30
0.0
 10
224.256473
 20
391.425390
 30
0.0
 10
223.924472
 20
391.757388
 30
0.0
 10
223.711471
 20
392.175388
 30
0.0
 10
223.638471
 20
392.639389
 30
0.0
  0
LWPOLYLINE
  5
154
100
AcDbEntity
  8
0
 62
7
100
AcDbPolyline
 90
21
 70
0
 10
223.638471
 20
427.639390
 30
0.0
 10
223.711471
 20
428.103388
 30
0.0
 10
223.924472
 20
428.521391
 30
0.0
 10
224.256473
 20
428.853388
 30
0.0
 10
224.674472
 20
429.066390
 30
0.0
 10
225.138471
 20
429.139390
 30
0.0
 10
225.602473
 20
429.066390
 30
0.0
 10
226.020472
 20
428.853388
 30
0.0
 10
226.352473
 20
428.521391
 30
0.0
 10
226.565471
 20
428.103388
 30
0.0
 10
226.638474
 20
427.639390
 30
0.0
 10
226.565471
 20
427.175388
 30
0.0
 10
226.352473
 20
426.757389
 30
0.0
 10
226.020472
 20
426.425388
 30
0.0
 10
225.602473
 20
426.212389
 30
0.0
 10
225.138471
 20
426.139390
 30
0.0
 10
224.674472
 20
426.212389
 30
0.0
 10
224.256473
 20
426.425388
 30
0.0
 10
223.924472
 20
426.757389
 30
0.0
 10
223.711471
 20
427.175388
 30
0.0
 10
223.638471
 20
427.639390
 30
0.0
  0
LWPOLYLINE
  5
155
100
AcDbEntity
  8
0
 62
7
100
AcDbPolyline
 90
23
 70
0
 10
230.138472
 20
133.639388
 30
0.0
 10
230.138472
 20
151.639389
 30
0.0
 10
230.383472
 20
153.184389
 30
0.0
 10
231.093473
 20
154.578389
 30
0.0
 10
232.199474
 20
155.684389
 30
0.0
 10
233.593473
 20
156.394390
 30
0.0
 10
235.138474
 20
156.639390
 30
0.0
 10
236.683471
 20
156.394390
 30
0.0
 10
238.077471
 20
155.684389
 30
0.0
 10
239.183472
 20
154.578389
 30
0.0
 10
239.893472
 20
153.184389
 30
0.0
 10
240.138472
 20
151.639389
 30
0.0
 10
240.138472
 20
133.639388
 30
0.0
 10
239.893472
 20
132.094388
 30
0.0
 10
239.183472
 20
130.700391
 30
0.0
 10
238.077471
 20
129.594390
 30
0.0
 10
236.683471
 20
128.884389
 30
0.0
 10
235.138474
 20
128.639389
 30
0.0
 10
233.593473
 20
128.884389
 30
0.0
 10
232.199474
 20
129.594390
 30
0.0
 10
231.093473
 20
130.700391
 30
0.0
 10
230.383472
 20
132.094388
 30
0.0
 10
230.138472
 20
133.639388
 30
0.0
  0
LWPOLYLINE
  5
156
100
AcDbEntity
  8
0
 62
7
100
AcDbPolyline
 90
23
 70
0
 10
230.138472
 20
163.639390
 30
0.0
 10
230.138472
 20
181.639391
 30
0.0
 10
230.383472
 20
183.184388
 30
0.0
 10
231.093473
 20
184.578388
 30
0.0
 10
232.199474
 20
185.684389
 30
0.0
 10
233.593473
 20
186.394389
 30
0.0
 10
235.138474
 20
186.639389
 30
0.0
 10
236.683471
 20
186.394389
 30
0.0
 10
238.077471
 20
185.684389
 30
0.0
 10
239.183472
 20
184.578388
 30
0.0
 10
239.893472
 20
183.184388
 30
0.0
 10
240.138472
 20
181.639391
 30
0.0
 10
240.138472
 20
163.639390
 30
0.0
 10
239.893472
 20
162.094390
 30
0.0
 10
239.183472
 20
160.700390
 30
0.0
 10
238.077471
 20
159.594389
 30
0.0
 10
236.683471
 20
158.884389
 30
0.0
 10
235.138474
 20
158.639389
 30
0.0
 10
233.593473
 20
158.884389
 30
0.0
 10
232.199474
 20
159.594389
 30
0.0
 10
231.093473
 20
160.700390
 30
0.0
 10
230.383472
 20
162.094390
 30
0.0
 10
230.138472
 20
163.639390
 30
0.0
  0
LWPOLYLINE
  5
157
100
AcDbEntity
  8
0
 62
7
100
AcDbPolyline
 90
21
 70
0
 10
231.638472
 20
454.639389
 30
0.0
 10
231.711472
 20
455.103388
 30
0.0
 10
231.924473
 20
455.521390
 30
0.0
 10
232.256471
 20
455.853388
 30
0.0
 10
232.674473
 20
456.066390
 30
0.0
 10
233.138472
 20
456.139389
 30
0.0
 10
233.602471
 20
456.066390
 30
0.0
 10
234.020473
 20
455.853388
 30
0.0
 10
234.352473
 20
455.521390
 30
0.0
 10
234.565472
 20
455.103388
 30
0.0
 10
234.638472
 20
454.639389
 30
0.0
 10
234.565472
 20
454.175388
 30
0.0
 10
234.352473
 20
453.757388
 30
0.0
 10
234.020473
 20
453.425388
 30
0.0
 10
233.602471
 20
453.212389
 30
0.0
 10
233.138472
 20
453.139389
 30
0.0
 10
232.674473
 20
453.212389
 30
0.0
 10
232.256471
 20
453.425388
 30
0.0
 10
231.924473
 20
453.757388
 30
0.0
 10
231.711472
 20
454.175388
 30
0.0
 10
231.638472
 20
454.639389
 30
0.0
  0
LWPOLYLINE
  5
158
100
AcDbEntity
  8
0
 62
7
100
AcDbPolyline
 90
21
 70
0
 10
231.638472
 20
470.639388
 30
0.0
 10
231.711472
 20
471.103390
 30
0.0
 10
231.924473
 20
471.521389
 30
0.0
 10
232.256471
 20
471.853390
 30
0.0
 10
232.674473
 20
472.066389
 30
0.0
 10
233.138472
 20
472.139388
 30
0.0
 10
233.602471
 20
472.066389
 30
0.0
 10
234.020473
 20
471.853390
 30
0.0
 10
234.352473
 20
471.521389
 30
0.0
 10
234.565472
 20
471.103390
 30
0.0
 10
234.638472
 20
470.639388
 30
0.0
 10
234.565472
 20
470.175390
 30
0.0
 10
234.352473
 20
469.757390
 30
0.0
 10
234.020473
 20
469.425390
 30
0.0
 10
233.602471
 20
469.212388
 30
0.0
 10
233.138472
 20
469.139389
 30
0.0
 10
232.674473
 20
469.212388
 30
0.0
 10
232.256471
 20
469.425390
 30
0.0
 10
231.924473
 20
469.757390
 30
0.0
 10
231.711472
 20
470.175390
 30
0.0
 10
231.638472
 20
470.639388
 30
0.0
  0
LWPOLYLINE
  5
159
100
AcDbEntity
  8
0
 62
7
100
AcDbPolyline
 90
21
 70
0
 10
233.138472
 20
133.639388
 30
0.0
 10
233.236471
 20
134.257390
 30
0.0
 10
233.520471
 20
134.815388
 30
0.0
 10
233.962473
 20
135.257390
 30
0.0
 10
234.520472
 20
135.541391
 30
0.0
 10
235.138474
 20
135.639389
 30
0.0
 10
235.756473
 20
135.541391
 30
0.0
 10
236.314471
 20
135.257390
 30
0.0
 10
236.756473
 20
134.815388
 30
0.0
 10
237.040474
 20
134.257390
 30
0.0
 10
237.138472
 20
133.639388
 30
0.0
 10
237.040474
 20
133.021389
 30
0.0
 10
236.756473
 20
132.463390
 30
0.0
 10
236.314471
 20
132.021388
 30
0.0
 10
235.756473
 20
131.737388
 30
0.0
 10
235.138474
 20
131.639389
 30
0.0
 10
234.520472
 20
131.737388
 30
0.0
 10
233.962473
 20
132.021388
 30
0.0
 10
233.520471
 20
132.463390
 30
0.0
 10
233.236471
 20
133.021389
 30
0.0
 10
233.138472
 20
133.639388
 30
0.0
  0
LWPOLYLINE
  5
15a
100
AcDbEntity
  8
0
 62
7
100
AcDbPolyline
 90
21
 70
0
 10
233.138472
 20
151.639389
 30
0.0
 10
233.236471
 20
152.257390
 30
0.0
 10
233.520471
 20
152.815389
 30
0.0
 10
233.962473
 20
153.257388
 30
0.0
 10
234.520472
 20
153.541389
 30
0.0
 10
235.138474
 20
153.639390
 30
0.0
 10
235.756473
 20
153.541389
 30
0.0
 10
236.314471
 20
153.257388
 30
0.0
 10
236.756473
 20
152.815389
 30
0.0
 10
237.040474
 20
152.257390
 30
0.0
 10
237.138472
 20
151.639389
 30
0.0
 10
237.040474
 20
151.021390
 30
0.0
 10
236.756473
 20
150.463388
 30
0.0
 10
236.314471
 20
150.021389
 30
0.0
 10
235.756473
 20
149.737389
 30
0.0
 10
235.138474
 20
149.639390
 30
0.0
 10
234.520472
 20
149.737389
 30
0.0
 10
233.962473
 20
150.021389
 30
0.0
 10
233.520471
 20
150.463388
 30
0.0
 10
233.236471
 20
151.021390
 30
0.0
 10
233.138472
 20
151.639389
 30
0.0
  0
LWPOLYLINE
  5
15b
100
AcDbEntity
  8
0
 62
7
100
AcDbPolyline
 90
21
 70
0
 10
233.138472
 20
163.639390
 30
0.0
 10
233.236471
 20
164.257389
 30
0.0
 10
233.520471
 20
164.815390
 30
0.0
 10
233.962473
 20
165.257390
 30
0.0
 10
234.520472
 20
165.541390
 30
0.0
 10
235.138474
 20
165.639389
 30
0.0
 10
235.756473
 20
165.541390
 30
0.0
 10
236.314471
 20
165.257390
 30
0.0
 10
236.756473
 20
164.815390
 30
0.0
 10
237.040474
 20
164.257389
 30
0.0
 10
237.138472
 20
163.639390
 30
0.0
 10
237.040474
 20
163.021388
 30
0.0
 10
236.756473
 20
162.463390
 30
0.0
 10
236.314471
 20
162.021390
 30
0.0
 10
235.756473
 20
161.737390
 30
0.0
 10
235.138474
 20
161.639388
 30
0.0
 10
234.520472
 20
161.737390
 30
0.0
 10
233.962473
 20
162.021390
 30
0.0
 10
233.520471
 20
162.463390
 30
0.0
 10
233.236471
 20
163.021388
 30
0.0
 10
233.138472
 20
163.639390
 30
0.0
  0
LWPOLYLINE
  5
15c
100
AcDbEntity
  8
0
 62
7
100
AcDbPolyline
 90
21
 70
0
 10
233.138472
 20
181.639391
 30
0.0
 10
233.236471
 20
182.257390
 30
0.0
 10
233.520471
 20
182.815388
 30
0.0
 10
233.962473
 20
183.257390
 30
0.0
 10
234.520472
 20
183.541391
 30
0.0
 10
235.138474
 20
183.639389
 30
0.0
 10
235.756473
 20
183.541391
 30
0.0
 10
236.314471
 20
183.257390
 30
0.0
 10
236.756473
 20
182.815388
 30
0.0
 10
237.040474
 20
182.257390
 30
0.0
 10
237.138472
 20
181.639391
 30
0.0
 10
237.040474
 20
181.021389
 30
0.0
 10
236.756473
 20
180.463390
 30
0.0
 10
236.314471
 20
180.021388
 30
0.0
 10
235.756473
 20
179.737391
 30
0.0
 10
235.138474
 20
179.639389
 30
0.0
 10
234.520472
 20
179.737391
 30
0.0
 10
233.962473
 20
180.021388
 30
0.0
 10
233.520471
 20
180.463390
 30
0.0
 10
233.236471
 20
181.021389
 30
0.0
 10
233.138472
 20
181.639391
 30
0.0
  0
LWPOLYLINE
  5
15d
100
AcDbEntity
  8
0
 62
7
100
AcDbPolyline
 90
159
 70
0
 10
242.138471
 20
16.139389
 30
0.0
 10
242.138471
 20
21.139390
 30
0.0
 10
248.138473
 20
21.139390
 30
0.0
 10
248.138473
 20
29.639390
 30
0.0
 10
253.638473
 20
29.639390
 30
0.0
 10
253.638473
 20
28.139390
 30
0.0
 10
256.638473
 20
28.139390
 30
0.0
 10
256.638473
 20
29.639390
 30
0.0
 10
258.138473
 20
29.639390
 30
0.0
 10
258.138473
 20
32.639389
 30
0.0
 10
256.638473
 20
32.639389
 30
0.0
 10
256.638473
 20
34.139389
 30
0.0
 10
253.638473
 20
34.139389
 30
0.0
 10
253.638473
 20
32.639389
 30
0.0
 10
248.138473
 20
32.639389
 30
0.0
 10
248.138473
 20
41.139389
 30
0.0
 10
242.138471
 20
41.139389
 30
0.0
 10
242.138471
 20
46.139388
 30
0.0
 10
248.138473
 20
46.139388
 30
0.0
 10
248.138473
 20
132.639390
 30
0.0
 10
242.138471
 20
132.639390
 30
0.0
 10
242.138471
 20
137.639388
 30
0.0
 10
248.138473
 20
137.639388
 30
0.0
 10
248.138473
 20
146.139388
 30
0.0
 10
253.638473
 20
146.139388
 30
0.0
 10
253.638473
 20
144.639388
 30
0.0
 10
256.638473
 20
144.639388
 30
0.0
 10
256.638473
 20
146.139388
 30
0.0
 10
258.138473
 20
146.139388
 30
0.0
 10
258.138473
 20
149.139388
 30
0.0
 10
256.638473
 20
149.139388
 30
0.0
 10
256.638473
 20
150.639391
 30
0.0
 10
253.638473
 20
150.639391
 30
0.0
 10
253.638473
 20
149.139388
 30
0.0
 10
248.138473
 20
149.139388
 30
0.0
 10
248.138473
 20
157.639388
 30
0.0
 10
242.138471
 20
157.639388
 30
0.0
 10
242.138471
 20
162.639389
 30
0.0
 10
248.138473
 20
162.639389
 30
0.0
 10
248.138473
 20
249.139388
 30
0.0
 10
242.138471
 20
249.139388
 30
0.0
 10
242.138471
 20
254.139390
 30
0.0
 10
248.138473
 20
254.139390
 30
0.0
 10
248.138473
 20
262.639389
 30
0.0
 10
253.638473
 20
262.639389
 30
0.0
 10
253.638473
 20
261.139390
 30
0.0
 10
256.638473
 20
261.139390
 30
0.0
 10
256.638473
 20
262.639389
 30
0.0
 10
258.138473
 20
262.639389
 30
0.0
 10
258.138473
 20
265.639389
 30
0.0
 10
256.638473
 20
265.639389
 30
0.0
 10
256.638473
 20
267.139389
 30
0.0
 10
253.638473
 20
267.139389
 30
0.0
 10
253.638473
 20
265.639389
 30
0.0
 10
248.138473
 20
265.639389
 30
0.0
 10
248.138473
 20
274.139389
 30
0.0
 10
242.138471
 20
274.139389
 30
0.0
 10
242.138471
 20
279.139389
 30
0.0
 10
248.138473
 20
279.139389
 30
0.0
 10
248.138473
 20
289.139389
 30
0.0
 10
258.138473
 20
289.139389
 30
0.0
 10
258.138473
 20
295.139389
 30
0.0
 10
263.138471
 20
295.139389
 30
0.0
 10
263.138471
 20
289.139389
 30
0.0
 10
271.638471
 20
289.139389
 30
0.0
 10
271.638471
 20
283.639389
 30
0.0
 10
270.138471
 20
283.639389
 30
0.0
 10
270.138471
 20
280.639389
 30
0.0
 10
271.638471
 20
280.639389
 30
0.0
 10
271.638471
 20
279.139389
 30
0.0
 10
274.638474
 20
279.139389
 30
0.0
 10
274.638474
 20
280.639389
 30
0.0
 10
276.138471
 20
280.639389
 30
0.0
 10
276.138471
 20
283.639389
 30
0.0
 10
274.638474
 20
283.639389
 30
0.0
 10
274.638474
 20
289.139389
 30
0.0
 10
283.138485
 20
289.139389
 30
0.0
 10
283.138485
 20
295.139389
 30
0.0
 10
288.138475
 20
295.139389
 30
0.0
 10
288.138475
 20
289.139389
 30
0.0
 10
348.138468
 20
289.139389
 30
0.0
 10
348.138468
 20
295.139389
 30
0.0
 10
353.138486
 20
295.139389
 30
0.0
 10
353.138486
 20
289.139389
 30
0.0
 10
361.638483
 20
289.139389
 30
0.0
 10
361.638483
 20
283.639389
 30
0.0
 10
360.138472
 20
283.639389
 30
0.0
 10
360.138472
 20
280.639389
 30
0.0
 10
361.638483
 20
280.639389
 30
0.0
 10
361.638483
 20
279.139389
 30
0.0
 10
364.638477
 20
279.139389
 30
0.0
 10
364.638477
 20
280.639389
 30
0.0
 10
366.138460
 20
280.639389
 30
0.0
 10
366.138460
 20
283.639389
 30
0.0
 10
364.638477
 20
283.639389
 30
0.0
 10
364.638477
 20
289.139389
 30
0.0
 10
373.138474
 20
289.139389
 30
0.0
 10
373.138474
 20
295.139389
 30
0.0
 10
378.138464
 20
295.139389
 30
0.0
 10
378.138464
 20
289.139389
 30
0.0
 10
388.138472
 20
289.139389
 30
0.0
 10
388.138472
 20
274.139389
 30
0.0
 10
387.757472
 20
272.226389
 30
0.0
 10
386.674473
 20
270.603389
 30
0.0
 10
385.051469
 20
269.520389
 30
0.0
 10
383.138482
 20
269.139389
 30
0.0
 10
360.138472
 20
269.139389
 30
0.0
 10
301.138477
 20
248.068389
 30
0.0
 10
301.138477
 20
47.210390
 30
0.0
 10
360.138472
 20
26.139388
 30
0.0
 10
383.138482
 20
26.139388
 30
0.0
 10
385.051469
 20
25.758388
 30
0.0
 10
386.674473
 20
24.675389
 30
0.0
 10
387.757472
 20
23.052388
 30
0.0
 10
388.138472
 20
21.139390
 30
0.0
 10
388.138472
 20
6.139378
 30
0.0
 10
378.138464
 20
6.139378
 30
0.0
 10
378.138464
 20
0.139390
 30
0.0
 10
373.138474
 20
0.139390
 30
0.0
 10
373.138474
 20
6.139378
 30
0.0
 10
364.638477
 20
6.139378
 30
0.0
 10
364.638477
 20
11.639389
 30
0.0
 10
366.138460
 20
11.639389
 30
0.0
 10
366.138460
 20
14.639389
 30
0.0
 10
364.638477
 20
14.639389
 30
0.0
 10
364.638477
 20
16.139389
 30
0.0
 10
361.638483
 20
16.139389
 30
0.0
 10
361.638483
 20
14.639389
 30
0.0
 10
360.138472
 20
14.639389
 30
0.0
 10
360.138472
 20
11.639389
 30
0.0
 10
361.638483
 20
11.639389
 30
0.0
 10
361.638483
 20
6.139378
 30
0.0
 10
353.138486
 20
6.139378
 30
0.0
 10
353.138486
 20
0.139390
 30
0.0
 10
348.138468
 20
0.139390
 30
0.0
 10
348.138468
 20
6.139378
 30
0.0
 10
288.138475
 20
6.139378
 30
0.0
 10
288.138475
 20
0.139390
 30
0.0
 10
283.138485
 20
0.139390
 30
0.0
 10
283.138485
 20
6.139378
 30
0.0
 10
274.638474
 20
6.139378
 30
0.0
 10
274.638474
 20
11.639389
 30
0.0
 10
276.138471
 20
11.639389
 30
0.0
 10
276.138471
 20
14.639389
 30
0.0
 10
274.638474
 20
14.639389
 30
0.0
 10
274.638474
 20
16.139389
 30
0.0
 10
271.638471
 20
16.139389
 30
0.0
 10
271.638471
 20
14.639389
 30
0.0
 10
270.138471
 20
14.639389
 30
0.0
 10
270.138471
 20
11.639389
 30
0.0
 10
271.638471
 20
11.639389
 30
0.0
 10
271.638471
 20
6.139378
 30
0.0
 10
263.138471
 20
6.139378
 30
0.0
 10
263.138471
 20
0.139390
 30
0.0
 10
258.138473
 20
0.139390
 30
0.0
 10
258.138473
 20
6.139378
 30
0.0
 10
248.138473
 20
6.139378
 30
0.0
 10
248.138473
 20
16.139389
 30
0.0
 10
242.138471
 20
16.139389
 30
0.0
  0
LWPOLYLINE
  5
15e
100
AcDbEntity
  8
0
 62
7
100
AcDbPolyline
 90
30
 70
0
 10
246.138471
 20
462.639390
 30
0.0
 10
246.400472
 20
465.134390
 30
0.0
 10
247.175472
 20
467.520390
 30
0.0
 10
248.430471
 20
469.692389
 30
0.0
 10
250.108472
 20
471.557390
 30
0.0
 10
252.138474
 20
473.031388
 30
0.0
 10
254.430474
 20
474.052389
 30
0.0
 10
256.884472
 20
474.573388
 30
0.0
 10
258.138473
 20
474.573388
 30
0.0
 10
258.138473
 20
474.578384
 30
0.0
 10
259.611472
 20
474.455388
 30
0.0
 10
261.420472
 20
473.662389
 30
0.0
 10
262.873473
 20
472.324388
 30
0.0
 10
263.813473
 20
470.587389
 30
0.0
 10
264.138472
 20
468.639390
 30
0.0
 10
264.138472
 20
456.639388
 30
0.0
 10
263.813473
 20
454.691389
 30
0.0
 10
262.873473
 20
452.954390
 30
0.0
 10
261.420472
 20
451.616389
 30
0.0
 10
259.611472
 20
450.823389
 30
0.0
 10
258.138473
 20
450.700388
 30
0.0
 10
258.138473
 20
450.705384
 30
0.0
 10
256.884472
 20
450.705389
 30
0.0
 10
254.430474
 20
451.226388
 30
0.0
 10
252.138474
 20
452.247389
 30
0.0
 10
250.108472
 20
453.721388
 30
0.0
 10
248.430471
 20
455.586389
 30
0.0
 10
247.175472
 20
457.758388
 30
0.0
 10
246.400472
 20
460.144388
 30
0.0
 10
246.138471
 20
462.639390
 30
0.0
  0
LWPOLYLINE
  5
15f
100
AcDbEntity
  8
0
 62
7
100
AcDbPolyline
 90
21
 70
0
 10
256.638473
 20
454.639389
 30
0.0
 10
256.711473
 20
455.103388
 30
0.0
 10
256.924471
 20
455.521390
 30
0.0
 10
257.256472
 20
455.853388
 30
0.0
 10
257.674471
 20
456.066390
 30
0.0
 10
258.138473
 20
456.139389
 30
0.0
 10
258.602472
 20
456.066390
 30
0.0
 10
259.020474
 20
455.853388
 30
0.0
 10
259.352471
 20
455.521390
 30
0.0
 10
259.565473
 20
455.103388
 30
0.0
 10
259.638473
 20
454.639389
 30
0.0
 10
259.565473
 20
454.175388
 30
0.0
 10
259.352471
 20
453.757388
 30
0.0
 10
259.020474
 20
453.425388
 30
0.0
 10
258.602472
 20
453.212389
 30
0.0
 10
258.138473
 20
453.139389
 30
0.0
 10
257.674471
 20
453.212389
 30
0.0
 10
257.256472
 20
453.425388
 30
0.0
 10
256.924471
 20
453.757388
 30
0.0
 10
256.711473
 20
454.175388
 30
0.0
 10
256.638473
 20
454.639389
 30
0.0
  0
LWPOLYLINE
  5
160
100
AcDbEntity
  8
0
 62
7
100
AcDbPolyline
 90
21
 70
0
 10
256.638473
 20
470.639388
 30
0.0
 10
256.711473
 20
471.103390
 30
0.0
 10
256.924471
 20
471.521389
 30
0.0
 10
257.256472
 20
471.853390
 30
0.0
 10
257.674471
 20
472.066389
 30
0.0
 10
258.138473
 20
472.139388
 30
0.0
 10
258.602472
 20
472.066389
 30
0.0
 10
259.020474
 20
471.853390
 30
0.0
 10
259.352471
 20
471.521389
 30
0.0
 10
259.565473
 20
471.103390
 30
0.0
 10
259.638473
 20
470.639388
 30
0.0
 10
259.565473
 20
470.175390
 30
0.0
 10
259.352471
 20
469.757390
 30
0.0
 10
259.020474
 20
469.425390
 30
0.0
 10
258.602472
 20
469.212388
 30
0.0
 10
258.138473
 20
469.139389
 30
0.0
 10
257.674471
 20
469.212388
 30
0.0
 10
257.256472
 20
469.425390
 30
0.0
 10
256.924471
 20
469.757390
 30
0.0
 10
256.711473
 20
470.175390
 30
0.0
 10
256.638473
 20
470.639388
 30
0.0
  0
LWPOLYLINE
  5
161
100
AcDbEntity
  8
0
 62
7
100
AcDbPolyline
 90
55
 70
0
 10
267.250472
 20
163.042388
 30
0.0
 10
267.281471
 20
163.346390
 30
0.0
 10
267.372473
 20
163.642390
 30
0.0
 10
267.525472
 20
163.923390
 30
0.0
 10
267.730472
 20
164.168390
 30
0.0
 10
267.973471
 20
164.361391
 30
0.0
 10
268.244472
 20
164.500388
 30
0.0
 10
268.535472
 20
164.584388
 30
0.0
 10
268.836473
 20
164.612385
 30
0.0
 10
269.140472
 20
164.581388
 30
0.0
 10
269.436472
 20
164.490389
 30
0.0
 10
269.717472
 20
164.338389
 30
0.0
 10
269.972471
 20
164.164388
 30
0.0
 10
270.226471
 20
163.990390
 30
0.0
 10
270.481473
 20
163.817390
 30
0.0
 10
270.736472
 20
163.643389
 30
0.0
 10
270.991471
 20
163.469391
 30
0.0
 10
271.245471
 20
163.296388
 30
0.0
 10
271.755472
 20
162.948389
 30
0.0
 10
287.180472
 20
162.948389
 30
0.0
 10
287.498480
 20
162.916390
 30
0.0
 10
287.795462
 20
162.824389
 30
0.0
 10
288.063460
 20
162.679388
 30
0.0
 10
288.296463
 20
162.486388
 30
0.0
 10
288.489475
 20
162.253388
 30
0.0
 10
288.634480
 20
161.985390
 30
0.0
 10
288.726485
 20
161.689390
 30
0.0
 10
288.758461
 20
161.371390
 30
0.0
 10
288.726485
 20
161.053391
 30
0.0
 10
288.634480
 20
160.756388
 30
0.0
 10
288.489475
 20
160.488390
 30
0.0
 10
288.296463
 20
160.255390
 30
0.0
 10
288.063460
 20
160.062390
 30
0.0
 10
287.795462
 20
159.917390
 30
0.0
 10
287.498480
 20
159.825388
 30
0.0
 10
287.180472
 20
159.793390
 30
0.0
 10
276.385472
 20
159.793390
 30
0.0
 10
279.309463
 20
157.799388
 30
0.0
 10
280.772475
 20
156.802390
 30
0.0
 10
282.234471
 20
155.806388
 30
0.0
 10
283.696466
 20
154.809390
 30
0.0
 10
285.159478
 20
153.812390
 30
0.0
 10
286.621474
 20
152.815389
 30
0.0
 10
288.083470
 20
151.819390
 30
0.0
 10
288.241486
 20
151.696389
 30
0.0
 10
288.380480
 20
151.557389
 30
0.0
 10
288.498478
 20
151.405390
 30
0.0
 10
288.596465
 20
151.241390
 30
0.0
 10
288.673484
 20
151.068388
 30
0.0
 10
288.728460
 20
150.887390
 30
0.0
 10
288.762468
 20
150.702388
 30
0.0
 10
288.773475
 20
150.513390
 30
0.0
 10
288.769524
 20
150.399389
 30
0.0
 10
288.756485
 20
150.284389
 30
0.0
 10
288.735601
 20
150.170388
 30
0.0
  0
LWPOLYLINE
  5
162
100
AcDbEntity
  8
0
 62
7
100
AcDbPolyline
 90
23
 70
0
 10
288.735460
 20
150.170388
 30
0.0
 10
288.705459
 20
150.057389
 30
0.0
 10
288.667472
 20
149.946388
 30
0.0
 10
288.619466
 20
149.837388
 30
0.0
 10
288.563473
 20
149.730389
 30
0.0
 10
288.498478
 20
149.626391
 30
0.0
 10
288.293471
 20
149.382390
 30
0.0
 10
288.050478
 20
149.189389
 30
0.0
 10
287.779460
 20
149.049390
 30
0.0
 10
287.488461
 20
148.965389
 30
0.0
 10
287.187471
 20
148.937393
 30
0.0
 10
286.883461
 20
148.968389
 30
0.0
 10
286.587466
 20
149.059389
 30
0.0
 10
286.306486
 20
149.211388
 30
0.0
 10
279.418486
 20
153.906389
 30
0.0
 10
277.123483
 20
155.471391
 30
0.0
 10
270.235471
 20
160.166389
 30
0.0
 10
267.939472
 20
161.731390
 30
0.0
 10
267.695471
 20
161.936390
 30
0.0
 10
267.502473
 20
162.179389
 30
0.0
 10
267.362472
 20
162.450388
 30
0.0
 10
267.278474
 20
162.741390
 30
0.0
 10
267.250477
 20
163.042388
 30
0.0
  0
LWPOLYLINE
  5
163
100
AcDbEntity
  8
0
 62
7
100
AcDbPolyline
 90
81
 70
0
 10
269.155472
 20
174.129390
 30
0.0
 10
269.359473
 20
176.151390
 30
0.0
 10
269.946473
 20
178.035390
 30
0.0
 10
270.873471
 20
179.740388
 30
0.0
 10
272.100472
 20
181.228390
 30
0.0
 10
273.587472
 20
182.455388
 30
0.0
 10
275.293472
 20
183.382389
 30
0.0
 10
277.177472
 20
183.968390
 30
0.0
 10
279.199481
 20
184.173391
 30
0.0
 10
280.562473
 20
184.080390
 30
0.0
 10
281.882483
 20
183.808390
 30
0.0
 10
283.142464
 20
183.367389
 30
0.0
 10
284.329463
 20
182.765390
 30
0.0
 10
285.425473
 20
182.011391
 30
0.0
 10
286.417484
 20
181.115389
 30
0.0
 10
287.287462
 20
180.085390
 30
0.0
 10
288.022482
 20
178.932388
 30
0.0
 10
288.146462
 20
178.638389
 30
0.0
 10
288.207478
 20
178.333389
 30
0.0
 10
288.207478
 20
178.028388
 30
0.0
 10
288.149482
 20
177.731389
 30
0.0
 10
288.037468
 20
177.450389
 30
0.0
 10
287.871464
 20
177.194391
 30
0.0
 10
287.655480
 20
176.972389
 30
0.0
 10
287.391461
 20
176.791389
 30
0.0
 10
287.097470
 20
176.667389
 30
0.0
 10
286.793460
 20
176.606389
 30
0.0
 10
286.488463
 20
176.606389
 30
0.0
 10
286.191480
 20
176.663390
 30
0.0
 10
285.910472
 20
176.776388
 30
0.0
 10
285.653480
 20
176.942389
 30
0.0
 10
285.431484
 20
177.158390
 30
0.0
 10
285.250467
 20
177.422389
 30
0.0
 10
284.747462
 20
178.213391
 30
0.0
 10
284.149461
 20
178.919389
 30
0.0
 10
283.469475
 20
179.534388
 30
0.0
 10
282.717466
 20
180.051388
 30
0.0
 10
281.903480
 20
180.465389
 30
0.0
 10
281.038469
 20
180.768388
 30
0.0
 10
280.133467
 20
180.954389
 30
0.0
 10
279.198465
 20
181.018389
 30
0.0
 10
277.812472
 20
180.877391
 30
0.0
 10
276.520458
 20
180.475388
 30
0.0
 10
275.350472
 20
179.840388
 30
0.0
 10
274.330473
 20
178.998389
 30
0.0
 10
273.488472
 20
177.978390
 30
0.0
 10
272.852473
 20
176.808390
 30
0.0
 10
272.450473
 20
175.516390
 30
0.0
 10
272.310473
 20
174.130389
 30
0.0
 10
272.450473
 20
172.743391
 30
0.0
 10
272.852473
 20
171.451389
 30
0.0
 10
273.488472
 20
170.281388
 30
0.0
 10
274.330473
 20
169.261389
 30
0.0
 10
275.350472
 20
168.419391
 30
0.0
 10
276.520458
 20
167.783389
 30
0.0
 10
277.812472
 20
167.381388
 30
0.0
 10
279.198465
 20
167.241389
 30
0.0
 10
280.133467
 20
167.305389
 30
0.0
 10
281.039485
 20
167.491390
 30
0.0
 10
281.903480
 20
167.794390
 30
0.0
 10
282.717466
 20
168.207388
 30
0.0
 10
283.469475
 20
168.725390
 30
0.0
 10
284.150477
 20
169.340389
 30
0.0
 10
284.747462
 20
170.046390
 30
0.0
 10
285.251483
 20
170.837389
 30
0.0
 10
285.431484
 20
171.101391
 30
0.0
 10
285.654468
 20
171.317389
 30
0.0
 10
285.910472
 20
171.483390
 30
0.0
 10
286.191480
 20
171.596389
 30
0.0
 10
286.488463
 20
171.653389
 30
0.0
 10
286.793460
 20
171.653389
 30
0.0
 10
287.097470
 20
171.592390
 30
0.0
 10
287.391461
 20
171.467388
 30
0.0
 10
287.577474
 20
171.348389
 30
0.0
 10
287.741473
 20
171.208390
 30
0.0
 10
287.882471
 20
171.050390
 30
0.0
 10
287.999480
 20
170.876389
 30
0.0
 10
288.092473
 20
170.689389
 30
0.0
 10
288.159472
 20
170.492389
 30
0.0
 10
288.200479
 20
170.288390
 30
0.0
 10
288.214590
 20
170.080390
 30
0.0
  0
LWPOLYLINE
  5
164
100
AcDbEntity
  8
0
 62
7
100
AcDbPolyline
 90
2
 70
0
 10
288.214477
 20
170.080390
 30
0.0
 10
288.211373
 20
169.984389
 30
0.0
  0
LWPOLYLINE
  5
165
100
AcDbEntity
  8
0
 62
7
100
AcDbPolyline
 90
3
 70
0
 10
288.211486
 20
169.984389
 30
0.0
 10
288.202455
 20
169.888388
 30
0.0
 10
288.188372
 20
169.792390
 30
0.0
  0
LWPOLYLINE
  5
166
100
AcDbEntity
  8
0
 62
7
100
AcDbPolyline
 90
2
 70
0
 10
288.188485
 20
169.792390
 30
0.0
 10
288.167600
 20
169.697389
 30
0.0
  0
LWPOLYLINE
  5
167
100
AcDbEntity
  8
0
 62
7
100
AcDbPolyline
 90
2
 70
0
 10
288.167459
 20
169.697389
 30
0.0
 10
288.140366
 20
169.603389
 30
0.0
  0
LWPOLYLINE
  5
168
100
AcDbEntity
  8
0
 62
7
100
AcDbPolyline
 90
20
 70
0
 10
288.140479
 20
169.603389
 30
0.0
 10
288.107459
 20
169.509389
 30
0.0
 10
288.068484
 20
169.417388
 30
0.0
 10
288.022482
 20
169.326388
 30
0.0
 10
287.288478
 20
168.173389
 30
0.0
 10
286.417484
 20
167.143388
 30
0.0
 10
285.426460
 20
166.247389
 30
0.0
 10
284.329463
 20
165.493390
 30
0.0
 10
283.143480
 20
164.891390
 30
0.0
 10
281.882483
 20
164.449390
 30
0.0
 10
280.562473
 20
164.177390
 30
0.0
 10
279.199481
 20
164.085389
 30
0.0
 10
277.177472
 20
164.289390
 30
0.0
 10
275.293472
 20
164.875391
 30
0.0
 10
273.587472
 20
165.802389
 30
0.0
 10
272.100472
 20
167.030389
 30
0.0
 10
270.873471
 20
168.517389
 30
0.0
 10
269.946473
 20
170.223389
 30
0.0
 10
269.359473
 20
172.107389
 30
0.0
 10
269.155472
 20
174.129390
 30
0.0
  0
LWPOLYLINE
  5
169
100
AcDbEntity
  8
0
 62
7
100
AcDbPolyline
 90
69
 70
0
 10
269.638472
 20
186.806388
 30
0.0
 10
269.670474
 20
187.126389
 30
0.0
 10
269.762472
 20
187.423388
 30
0.0
 10
269.906473
 20
187.691389
 30
0.0
 10
270.098472
 20
187.924389
 30
0.0
 10
270.332471
 20
188.116388
 30
0.0
 10
270.600472
 20
188.261388
 30
0.0
 10
270.897471
 20
188.353390
 30
0.0
 10
271.216473
 20
188.385388
 30
0.0
 10
282.212486
 20
188.385388
 30
0.0
 10
282.997458
 20
188.463388
 30
0.0
 10
283.727483
 20
188.688390
 30
0.0
 10
284.387459
 20
189.045390
 30
0.0
 10
284.961471
 20
189.518389
 30
0.0
 10
285.434476
 20
190.092389
 30
0.0
 10
285.791458
 20
190.752389
 30
0.0
 10
286.016474
 20
191.482390
 30
0.0
 10
286.094480
 20
192.267388
 30
0.0
 10
286.016474
 20
193.045390
 30
0.0
 10
285.791458
 20
193.771390
 30
0.0
 10
285.434476
 20
194.431389
 30
0.0
 10
284.961471
 20
195.006389
 30
0.0
 10
284.387459
 20
195.482391
 30
0.0
 10
283.727483
 20
195.842388
 30
0.0
 10
282.997458
 20
196.070389
 30
0.0
 10
282.212486
 20
196.149389
 30
0.0
 10
271.216473
 20
196.149389
 30
0.0
 10
270.897471
 20
196.181390
 30
0.0
 10
270.600472
 20
196.272390
 30
0.0
 10
270.332471
 20
196.417390
 30
0.0
 10
270.098472
 20
196.609389
 30
0.0
 10
269.906473
 20
196.843390
 30
0.0
 10
269.762472
 20
197.111389
 30
0.0
 10
269.670474
 20
197.408388
 30
0.0
 10
269.638472
 20
197.727389
 30
0.0
 10
269.670474
 20
198.047390
 30
0.0
 10
269.762472
 20
198.343390
 30
0.0
 10
269.906473
 20
198.612390
 30
0.0
 10
270.098472
 20
198.845390
 30
0.0
 10
270.332471
 20
199.037389
 30
0.0
 10
270.600472
 20
199.182389
 30
0.0
 10
270.897471
 20
199.273389
 30
0.0
 10
271.216473
 20
199.305390
 30
0.0
 10
282.212486
 20
199.305390
 30
0.0
 10
283.629467
 20
199.162388
 30
0.0
 10
284.950464
 20
198.751390
 30
0.0
 10
286.145478
 20
198.102389
 30
0.0
 10
287.187471
 20
197.242390
 30
0.0
 10
288.047486
 20
196.200389
 30
0.0
 10
288.697472
 20
195.004388
 30
0.0
 10
289.107485
 20
193.684390
 30
0.0
 10
289.251475
 20
192.267388
 30
0.0
 10
289.107485
 20
190.850390
 30
0.0
 10
288.697472
 20
189.529390
 30
0.0
 10
288.047486
 20
188.334390
 30
0.0
 10
287.187471
 20
187.292389
 30
0.0
 10
286.145478
 20
186.432390
 30
0.0
 10
284.950464
 20
185.782390
 30
0.0
 10
283.629467
 20
185.372389
 30
0.0
 10
282.212486
 20
185.228388
 30
0.0
 10
271.216473
 20
185.228388
 30
0.0
 10
270.897471
 20
185.260389
 30
0.0
 10
270.600472
 20
185.352388
 30
0.0
 10
270.332471
 20
185.497388
 30
0.0
 10
270.098472
 20
185.689390
 30
0.0
 10
269.906473
 20
185.922389
 30
0.0
 10
269.762472
 20
186.190388
 30
0.0
 10
269.670474
 20
186.487390
 30
0.0
 10
269.638472
 20
186.806388
 30
0.0
  0
LWPOLYLINE
  5
16a
100
AcDbEntity
  8
0
 62
7
100
AcDbPolyline
 90
21
 70
0
 10
269.638472
 20
384.639388
 30
0.0
 10
269.711472
 20
385.103390
 30
0.0
 10
269.924471
 20
385.521389
 30
0.0
 10
270.256471
 20
385.853390
 30
0.0
 10
270.674473
 20
386.066388
 30
0.0
 10
271.138472
 20
386.139388
 30
0.0
 10
271.602471
 20
386.066388
 30
0.0
 10
272.020473
 20
385.853390
 30
0.0
 10
272.352474
 20
385.521389
 30
0.0
 10
272.565472
 20
385.103390
 30
0.0
 10
272.638472
 20
384.639388
 30
0.0
 10
272.565472
 20
384.175389
 30
0.0
 10
272.352474
 20
383.757390
 30
0.0
 10
272.020473
 20
383.425390
 30
0.0
 10
271.602471
 20
383.212388
 30
0.0
 10
271.138472
 20
383.139388
 30
0.0
 10
270.674473
 20
383.212388
 30
0.0
 10
270.256471
 20
383.425390
 30
0.0
 10
269.924471
 20
383.757390
 30
0.0
 10
269.711472
 20
384.175389
 30
0.0
 10
269.638472
 20
384.639388
 30
0.0
  0
LWPOLYLINE
  5
16b
100
AcDbEntity
  8
0
 62
7
100
AcDbPolyline
 90
21
 70
0
 10
269.638472
 20
400.639390
 30
0.0
 10
269.711472
 20
401.103389
 30
0.0
 10
269.924471
 20
401.521388
 30
0.0
 10
270.256471
 20
401.853389
 30
0.0
 10
270.674473
 20
402.066390
 30
0.0
 10
271.138472
 20
402.139390
 30
0.0
 10
271.602471
 20
402.066390
 30
0.0
 10
272.020473
 20
401.853389
 30
0.0
 10
272.352474
 20
401.521388
 30
0.0
 10
272.565472
 20
401.103389
 30
0.0
 10
272.638472
 20
400.639390
 30
0.0
 10
272.565472
 20
400.175389
 30
0.0
 10
272.352474
 20
399.757389
 30
0.0
 10
272.020473
 20
399.425389
 30
0.0
 10
271.602471
 20
399.212390
 30
0.0
 10
271.138472
 20
399.139390
 30
0.0
 10
270.674473
 20
399.212390
 30
0.0
 10
270.256471
 20
399.425389
 30
0.0
 10
269.924471
 20
399.757389
 30
0.0
 10
269.711472
 20
400.175389
 30
0.0
 10
269.638472
 20
400.639390
 30
0.0
  0
LWPOLYLINE
  5
16c
100
AcDbEntity
  8
0
 62
7
100
AcDbPolyline
 90
21
 70
0
 10
269.638472
 20
419.639389
 30
0.0
 10
269.711472
 20
420.103390
 30
0.0
 10
269.924471
 20
420.521390
 30
0.0
 10
270.256471
 20
420.853390
 30
0.0
 10
270.674473
 20
421.066389
 30
0.0
 10
271.138472
 20
421.139389
 30
0.0
 10
271.602471
 20
421.066389
 30
0.0
 10
272.020473
 20
420.853390
 30
0.0
 10
272.352474
 20
420.521390
 30
0.0
 10
272.565472
 20
420.103390
 30
0.0
 10
272.638472
 20
419.639389
 30
0.0
 10
272.565472
 20
419.175390
 30
0.0
 10
272.352474
 20
418.757388
 30
0.0
 10
272.020473
 20
418.425390
 30
0.0
 10
271.602471
 20
418.212389
 30
0.0
 10
271.138472
 20
418.139389
 30
0.0
 10
270.674473
 20
418.212389
 30
0.0
 10
270.256471
 20
418.425390
 30
0.0
 10
269.924471
 20
418.757388
 30
0.0
 10
269.711472
 20
419.175390
 30
0.0
 10
269.638472
 20
419.639389
 30
0.0
  0
LWPOLYLINE
  5
16d
100
AcDbEntity
  8
0
 62
7
100
AcDbPolyline
 90
21
 70
0
 10
269.638472
 20
435.639391
 30
0.0
 10
269.711472
 20
436.103389
 30
0.0
 10
269.924471
 20
436.521389
 30
0.0
 10
270.256471
 20
436.853389
 30
0.0
 10
270.674473
 20
437.066388
 30
0.0
 10
271.138472
 20
437.139388
 30
0.0
 10
271.602471
 20
437.066388
 30
0.0
 10
272.020473
 20
436.853389
 30
0.0
 10
272.352474
 20
436.521389
 30
0.0
 10
272.565472
 20
436.103389
 30
0.0
 10
272.638472
 20
435.639391
 30
0.0
 10
272.565472
 20
435.175389
 30
0.0
 10
272.352474
 20
434.757390
 30
0.0
 10
272.020473
 20
434.425389
 30
0.0
 10
271.602471
 20
434.212388
 30
0.0
 10
271.138472
 20
434.139388
 30
0.0
 10
270.674473
 20
434.212388
 30
0.0
 10
270.256471
 20
434.425389
 30
0.0
 10
269.924471
 20
434.757390
 30
0.0
 10
269.711472
 20
435.175389
 30
0.0
 10
269.638472
 20
435.639391
 30
0.0
  0
LWPOLYLINE
  5
16e
100
AcDbEntity
  8
0
 62
7
100
AcDbPolyline
 90
67
 70
0
 10
269.646473
 20
75.021389
 30
0.0
 10
269.659484
 20
75.270388
 30
0.0
 10
269.713473
 20
75.516390
 30
0.0
 10
269.808472
 20
75.751388
 30
0.0
 10
269.938472
 20
75.963391
 30
0.0
 10
270.099471
 20
76.151390
 30
0.0
 10
270.287473
 20
76.312389
 30
0.0
 10
270.497472
 20
76.441390
 30
0.0
 10
270.724472
 20
76.538390
 30
0.0
 10
270.966472
 20
76.598391
 30
0.0
 10
271.216473
 20
76.618400
 30
0.0
 10
282.087461
 20
76.618389
 30
0.0
 10
280.618466
 20
77.617391
 30
0.0
 10
277.682480
 20
79.615388
 30
0.0
 10
276.213485
 20
80.613388
 30
0.0
 10
274.745473
 20
81.612390
 30
0.0
 10
273.276472
 20
82.611389
 30
0.0
 10
270.340472
 20
84.609390
 30
0.0
 10
270.139473
 20
84.765388
 30
0.0
 10
269.971472
 20
84.949388
 30
0.0
 10
269.836471
 20
85.157389
 30
0.0
 10
269.735472
 20
85.382388
 30
0.0
 10
269.672472
 20
85.620389
 30
0.0
 10
269.646479
 20
85.866391
 30
0.0
 10
269.659484
 20
86.115390
 30
0.0
 10
269.713473
 20
86.362390
 30
0.0
 10
269.808472
 20
86.605389
 30
0.0
 10
269.938472
 20
86.824388
 30
0.0
 10
270.099471
 20
87.016390
 30
0.0
 10
270.287473
 20
87.179390
 30
0.0
 10
270.497472
 20
87.311388
 30
0.0
 10
270.724472
 20
87.408388
 30
0.0
 10
270.966472
 20
87.468388
 30
0.0
 10
271.216473
 20
87.489386
 30
0.0
 10
287.197461
 20
87.489388
 30
0.0
 10
287.516485
 20
87.457390
 30
0.0
 10
287.813468
 20
87.366390
 30
0.0
 10
288.081466
 20
87.221390
 30
0.0
 10
288.314469
 20
87.029389
 30
0.0
 10
288.506464
 20
86.796389
 30
0.0
 10
288.651470
 20
86.528388
 30
0.0
 10
288.743475
 20
86.231389
 30
0.0
 10
288.775479
 20
85.911388
 30
0.0
 10
288.743475
 20
85.592389
 30
0.0
 10
288.651470
 20
85.295390
 30
0.0
 10
288.506464
 20
85.027389
 30
0.0
 10
288.314469
 20
84.794389
 30
0.0
 10
288.081466
 20
84.601389
 30
0.0
 10
287.813468
 20
84.456389
 30
0.0
 10
287.516485
 20
84.365389
 30
0.0
 10
287.197461
 20
84.333388
 30
0.0
 10
276.325471
 20
84.333388
 30
0.0
 10
277.794466
 20
83.337389
 30
0.0
 10
279.262473
 20
82.342389
 30
0.0
 10
280.731468
 20
81.346390
 30
0.0
 10
282.199475
 20
80.351390
 30
0.0
 10
283.668470
 20
79.355388
 30
0.0
 10
285.136477
 20
78.359389
 30
0.0
 10
286.605472
 20
77.364390
 30
0.0
 10
288.073479
 20
76.368388
 30
0.0
 10
288.273462
 20
76.204389
 30
0.0
 10
288.442485
 20
76.016389
 30
0.0
 10
288.577472
 20
75.808388
 30
0.0
 10
288.677463
 20
75.582388
 30
0.0
 10
288.741471
 20
75.344390
 30
0.0
 10
288.767435
 20
75.097389
 30
0.0
 10
288.753352
 20
74.844388
 30
0.0
  0
LWPOLYLINE
  5
16f
100
AcDbEntity
  8
0
 62
7
100
AcDbPolyline
 90
49
 70
0
 10
288.753465
 20
74.844388
 30
0.0
 10
288.699476
 20
74.590388
 30
0.0
 10
288.605468
 20
74.355390
 30
0.0
 10
288.475476
 20
74.143390
 30
0.0
 10
288.314469
 20
73.955388
 30
0.0
 10
288.126480
 20
73.794389
 30
0.0
 10
287.916479
 20
73.665390
 30
0.0
 10
287.688472
 20
73.568388
 30
0.0
 10
287.447482
 20
73.508390
 30
0.0
 10
287.196474
 20
73.488381
 30
0.0
 10
276.325471
 20
73.488389
 30
0.0
 10
277.794466
 20
72.489390
 30
0.0
 10
279.262473
 20
71.490388
 30
0.0
 10
280.731468
 20
70.491390
 30
0.0
 10
282.199475
 20
69.492391
 30
0.0
 10
283.668470
 20
68.494388
 30
0.0
 10
285.136477
 20
67.495389
 30
0.0
 10
286.604484
 20
66.496390
 30
0.0
 10
288.073479
 20
65.497388
 30
0.0
 10
288.319464
 20
65.297389
 30
0.0
 10
288.513464
 20
65.058389
 30
0.0
 10
288.652486
 20
64.790388
 30
0.0
 10
288.736476
 20
64.502388
 30
0.0
 10
288.764416
 20
64.201390
 30
0.0
 10
288.735460
 20
63.898391
 30
0.0
 10
288.647463
 20
63.601388
 30
0.0
 10
288.498478
 20
63.318390
 30
0.0
 10
288.290480
 20
63.079390
 30
0.0
 10
288.045483
 20
62.889390
 30
0.0
 10
287.773477
 20
62.751389
 30
0.0
 10
287.481462
 20
62.667388
 30
0.0
 10
287.179484
 20
62.639392
 30
0.0
 10
286.875474
 20
62.670388
 30
0.0
 10
286.578463
 20
62.762390
 30
0.0
 10
286.295479
 20
62.917389
 30
0.0
 10
284.301466
 20
64.273390
 30
0.0
 10
282.306466
 20
65.629389
 30
0.0
 10
280.312481
 20
66.984389
 30
0.0
 10
278.317480
 20
68.340391
 30
0.0
 10
276.323467
 20
69.696389
 30
0.0
 10
274.328472
 20
71.051389
 30
0.0
 10
272.334471
 20
72.407388
 30
0.0
 10
270.340472
 20
73.763389
 30
0.0
 10
270.139473
 20
73.919388
 30
0.0
 10
269.971472
 20
74.104390
 30
0.0
 10
269.836471
 20
74.311389
 30
0.0
 10
269.735472
 20
74.536390
 30
0.0
 10
269.672472
 20
74.775390
 30
0.0
 10
269.646479
 20
75.021389
 30
0.0
  0
LWPOLYLINE
  5
170
100
AcDbEntity
  8
0
 62
7
100
AcDbPolyline
 90
67
 70
0
 10
269.646473
 20
120.959389
 30
0.0
 10
269.659484
 20
121.208388
 30
0.0
 10
269.713473
 20
121.455389
 30
0.0
 10
269.808472
 20
121.690390
 30
0.0
 10
269.938472
 20
121.902389
 30
0.0
 10
270.099471
 20
122.090389
 30
0.0
 10
270.287473
 20
122.251388
 30
0.0
 10
270.497472
 20
122.381388
 30
0.0
 10
270.724472
 20
122.477389
 30
0.0
 10
270.966472
 20
122.537389
 30
0.0
 10
271.216473
 20
122.558387
 30
0.0
 10
287.197461
 20
122.558389
 30
0.0
 10
287.516485
 20
122.526388
 30
0.0
 10
287.813468
 20
122.435389
 30
0.0
 10
288.081466
 20
122.291390
 30
0.0
 10
288.314469
 20
122.101390
 30
0.0
 10
288.506464
 20
121.870388
 30
0.0
 10
288.651470
 20
121.607388
 30
0.0
 10
288.743475
 20
121.316389
 30
0.0
 10
288.775479
 20
121.005388
 30
0.0
 10
288.743475
 20
120.685388
 30
0.0
 10
288.651470
 20
120.388388
 30
0.0
 10
288.506464
 20
120.120390
 30
0.0
 10
288.314469
 20
119.887388
 30
0.0
 10
288.081466
 20
119.695389
 30
0.0
 10
287.813468
 20
119.550389
 30
0.0
 10
287.516485
 20
119.459389
 30
0.0
 10
287.197461
 20
119.427388
 30
0.0
 10
276.325471
 20
119.427388
 30
0.0
 10
277.794466
 20
118.428389
 30
0.0
 10
279.262473
 20
117.429390
 30
0.0
 10
280.731468
 20
116.430388
 30
0.0
 10
282.199475
 20
115.431389
 30
0.0
 10
283.668470
 20
114.433390
 30
0.0
 10
285.136477
 20
113.434388
 30
0.0
 10
286.605472
 20
112.435389
 30
0.0
 10
288.073479
 20
111.436390
 30
0.0
 10
288.319464
 20
111.236390
 30
0.0
 10
288.513464
 20
110.997388
 30
0.0
 10
288.652486
 20
110.729389
 30
0.0
 10
288.737463
 20
110.441390
 30
0.0
 10
288.764557
 20
110.140389
 30
0.0
 10
288.735460
 20
109.837389
 30
0.0
 10
288.647463
 20
109.540390
 30
0.0
 10
288.498478
 20
109.257389
 30
0.0
 10
288.290480
 20
109.011390
 30
0.0
 10
288.045483
 20
108.817390
 30
0.0
 10
287.774465
 20
108.678390
 30
0.0
 10
287.484481
 20
108.594390
 30
0.0
 10
287.185467
 20
108.566393
 30
0.0
 10
286.885465
 20
108.595389
 30
0.0
 10
286.594465
 20
108.684390
 30
0.0
 10
286.320484
 20
108.832390
 30
0.0
 10
284.322464
 20
110.190390
 30
0.0
 10
282.325459
 20
111.549389
 30
0.0
 10
280.327467
 20
112.908388
 30
0.0
 10
278.330462
 20
114.267389
 30
0.0
 10
276.332470
 20
115.626388
 30
0.0
 10
274.335471
 20
116.984391
 30
0.0
 10
272.337471
 20
118.343389
 30
0.0
 10
270.340472
 20
119.702388
 30
0.0
 10
270.139473
 20
119.859388
 30
0.0
 10
269.971472
 20
120.043389
 30
0.0
 10
269.836471
 20
120.250390
 30
0.0
 10
269.735472
 20
120.475389
 30
0.0
 10
269.672472
 20
120.713390
 30
0.0
 10
269.646479
 20
120.959389
 30
0.0
  0
LWPOLYLINE
  5
171
100
AcDbEntity
  8
0
 62
7
100
AcDbPolyline
 90
68
 70
0
 10
269.646473
 20
135.713388
 30
0.0
 10
269.659484
 20
135.962390
 30
0.0
 10
269.713473
 20
136.209388
 30
0.0
 10
269.808472
 20
136.443390
 30
0.0
 10
269.938472
 20
136.656389
 30
0.0
 10
270.099471
 20
136.844388
 30
0.0
 10
270.287473
 20
137.004388
 30
0.0
 10
270.497472
 20
137.134388
 30
0.0
 10
270.724472
 20
137.230389
 30
0.0
 10
270.966472
 20
137.290389
 30
0.0
 10
271.216473
 20
137.311387
 30
0.0
 10
282.087461
 20
137.311390
 30
0.0
 10
280.618466
 20
138.310389
 30
0.0
 10
279.150459
 20
139.308388
 30
0.0
 10
277.682480
 20
140.307390
 30
0.0
 10
276.213485
 20
141.306389
 30
0.0
 10
274.745473
 20
142.305388
 30
0.0
 10
273.276472
 20
143.303388
 30
0.0
 10
270.340472
 20
145.301389
 30
0.0
 10
270.139473
 20
145.457390
 30
0.0
 10
269.971472
 20
145.642389
 30
0.0
 10
269.836471
 20
145.849388
 30
0.0
 10
269.735472
 20
146.074390
 30
0.0
 10
269.672472
 20
146.313390
 30
0.0
 10
269.646479
 20
146.559389
 30
0.0
 10
269.659484
 20
146.808390
 30
0.0
 10
269.713473
 20
147.055388
 30
0.0
 10
269.808472
 20
147.297388
 30
0.0
 10
269.938472
 20
147.516390
 30
0.0
 10
270.099471
 20
147.708389
 30
0.0
 10
270.287473
 20
147.872388
 30
0.0
 10
270.497472
 20
148.003390
 30
0.0
 10
270.724472
 20
148.100390
 30
0.0
 10
270.966472
 20
148.161389
 30
0.0
 10
271.216473
 20
148.181399
 30
0.0
 10
287.197461
 20
148.181390
 30
0.0
 10
287.516485
 20
148.150388
 30
0.0
 10
287.813468
 20
148.058389
 30
0.0
 10
288.081466
 20
147.913389
 30
0.0
 10
288.314469
 20
147.721391
 30
0.0
 10
288.506464
 20
147.488388
 30
0.0
 10
288.651470
 20
147.220390
 30
0.0
 10
288.743475
 20
146.923390
 30
0.0
 10
288.775479
 20
146.603390
 30
0.0
 10
288.743475
 20
146.284388
 30
0.0
 10
288.651470
 20
145.987389
 30
0.0
 10
288.506464
 20
145.719388
 30
0.0
 10
288.314469
 20
145.486388
 30
0.0
 10
288.081466
 20
145.294390
 30
0.0
 10
287.813468
 20
145.149389
 30
0.0
 10
287.516485
 20
145.057391
 30
0.0
 10
287.197461
 20
145.025389
 30
0.0
 10
276.325471
 20
145.025389
 30
0.0
 10
277.794466
 20
144.030390
 30
0.0
 10
279.262473
 20
143.034388
 30
0.0
 10
280.731468
 20
142.038389
 30
0.0
 10
282.199475
 20
141.043389
 30
0.0
 10
283.668470
 20
140.047390
 30
0.0
 10
285.136477
 20
139.052390
 30
0.0
 10
286.605472
 20
138.056389
 30
0.0
 10
288.073479
 20
137.060390
 30
0.0
 10
288.273462
 20
136.897389
 30
0.0
 10
288.442485
 20
136.709390
 30
0.0
 10
288.577472
 20
136.500390
 30
0.0
 10
288.677463
 20
136.275389
 30
0.0
 10
288.741471
 20
136.036389
 30
0.0
 10
288.767435
 20
135.789391
 30
0.0
 10
288.753352
 20
135.536390
 30
0.0
  0
LWPOLYLINE
  5
172
100
AcDbEntity
  8
0
 62
7
100
AcDbPolyline
 90
49
 70
0
 10
288.753465
 20
135.536390
 30
0.0
 10
288.699476
 20
135.282390
 30
0.0
 10
288.605468
 20
135.048388
 30
0.0
 10
288.475476
 20
134.835389
 30
0.0
 10
288.314469
 20
134.647390
 30
0.0
 10
288.126480
 20
134.487389
 30
0.0
 10
287.916479
 20
134.357389
 30
0.0
 10
287.688472
 20
134.260390
 30
0.0
 10
287.447482
 20
134.200389
 30
0.0
 10
287.196474
 20
134.180380
 30
0.0
 10
276.325471
 20
134.180388
 30
0.0
 10
277.794466
 20
133.181389
 30
0.0
 10
279.262473
 20
132.182390
 30
0.0
 10
280.731468
 20
131.183388
 30
0.0
 10
282.199475
 20
130.185389
 30
0.0
 10
283.668470
 20
129.186390
 30
0.0
 10
285.136477
 20
128.187388
 30
0.0
 10
286.604484
 20
127.188389
 30
0.0
 10
288.073479
 20
126.190389
 30
0.0
 10
288.319464
 20
125.989388
 30
0.0
 10
288.513464
 20
125.750388
 30
0.0
 10
288.652486
 20
125.482390
 30
0.0
 10
288.736476
 20
125.194390
 30
0.0
 10
288.764416
 20
124.894388
 30
0.0
 10
288.735460
 20
124.591389
 30
0.0
 10
288.647463
 20
124.293390
 30
0.0
 10
288.498478
 20
124.011388
 30
0.0
 10
288.290480
 20
123.771389
 30
0.0
 10
288.045483
 20
123.582390
 30
0.0
 10
287.773477
 20
123.443390
 30
0.0
 10
287.481462
 20
123.359390
 30
0.0
 10
287.179484
 20
123.331393
 30
0.0
 10
286.875474
 20
123.362390
 30
0.0
 10
286.578463
 20
123.454389
 30
0.0
 10
286.295479
 20
123.610390
 30
0.0
 10
284.301466
 20
124.965389
 30
0.0
 10
282.306466
 20
126.321388
 30
0.0
 10
280.312481
 20
127.677390
 30
0.0
 10
278.317480
 20
129.032389
 30
0.0
 10
276.323467
 20
130.388388
 30
0.0
 10
274.328472
 20
131.744390
 30
0.0
 10
272.334471
 20
133.100389
 30
0.0
 10
270.340472
 20
134.455388
 30
0.0
 10
270.139473
 20
134.612388
 30
0.0
 10
269.971472
 20
134.796389
 30
0.0
 10
269.836471
 20
135.004389
 30
0.0
 10
269.735472
 20
135.229388
 30
0.0
 10
269.672472
 20
135.467389
 30
0.0
 10
269.646479
 20
135.713388
 30
0.0
  0
LWPOLYLINE
  5
173
100
AcDbEntity
  8
0
 62
7
100
AcDbPolyline
 90
67
 70
0
 10
269.646473
 20
230.946390
 30
0.0
 10
269.659484
 20
231.195389
 30
0.0
 10
269.713473
 20
231.442390
 30
0.0
 10
269.808472
 20
231.676389
 30
0.0
 10
269.938472
 20
231.889390
 30
0.0
 10
270.099471
 20
232.077390
 30
0.0
 10
270.287473
 20
232.237390
 30
0.0
 10
270.496473
 20
232.367390
 30
0.0
 10
270.724472
 20
232.464390
 30
0.0
 10
270.966472
 20
232.523388
 30
0.0
 10
271.216473
 20
232.544386
 30
0.0
 10
287.196474
 20
232.544389
 30
0.0
 10
287.516485
 20
232.512390
 30
0.0
 10
287.813468
 20
232.421390
 30
0.0
 10
288.081466
 20
232.277389
 30
0.0
 10
288.314469
 20
232.087389
 30
0.0
 10
288.506464
 20
231.857389
 30
0.0
 10
288.651470
 20
231.593390
 30
0.0
 10
288.743475
 20
231.302388
 30
0.0
 10
288.775479
 20
230.991390
 30
0.0
 10
288.743475
 20
230.672389
 30
0.0
 10
288.651470
 20
230.375389
 30
0.0
 10
288.506464
 20
230.107388
 30
0.0
 10
288.314469
 20
229.873389
 30
0.0
 10
288.081466
 20
229.681388
 30
0.0
 10
287.813468
 20
229.536388
 30
0.0
 10
287.516485
 20
229.445388
 30
0.0
 10
287.196474
 20
229.413390
 30
0.0
 10
276.325471
 20
229.413390
 30
0.0
 10
277.794466
 20
228.414388
 30
0.0
 10
279.262473
 20
227.416388
 30
0.0
 10
280.731468
 20
226.417389
 30
0.0
 10
282.199475
 20
225.418390
 30
0.0
 10
283.668470
 20
224.419389
 30
0.0
 10
285.136477
 20
223.420390
 30
0.0
 10
286.604484
 20
222.422390
 30
0.0
 10
288.073479
 20
221.423388
 30
0.0
 10
288.319464
 20
221.222389
 30
0.0
 10
288.513464
 20
220.984389
 30
0.0
 10
288.652486
 20
220.716390
 30
0.0
 10
288.736476
 20
220.427389
 30
0.0
 10
288.764416
 20
220.127390
 30
0.0
 10
288.735460
 20
219.824390
 30
0.0
 10
288.647463
 20
219.526389
 30
0.0
 10
288.498478
 20
219.244390
 30
0.0
 10
288.290480
 20
218.997389
 30
0.0
 10
288.045483
 20
218.804388
 30
0.0
 10
287.774465
 20
218.665388
 30
0.0
 10
287.484481
 20
218.580389
 30
0.0
 10
287.185467
 20
218.552392
 30
0.0
 10
286.885465
 20
218.582390
 30
0.0
 10
286.594465
 20
218.670389
 30
0.0
 10
286.319468
 20
218.818389
 30
0.0
 10
284.322464
 20
220.177388
 30
0.0
 10
282.324471
 20
221.536390
 30
0.0
 10
280.327467
 20
222.895389
 30
0.0
 10
278.330462
 20
224.253388
 30
0.0
 10
276.332470
 20
225.612390
 30
0.0
 10
274.335471
 20
226.971389
 30
0.0
 10
272.337471
 20
228.330390
 30
0.0
 10
270.340472
 20
229.689389
 30
0.0
 10
270.139473
 20
229.845390
 30
0.0
 10
269.971472
 20
230.029391
 30
0.0
 10
269.836471
 20
230.237388
 30
0.0
 10
269.735472
 20
230.462390
 30
0.0
 10
269.672472
 20
230.700388
 30
0.0
 10
269.646479
 20
230.946390
 30
0.0
  0
LWPOLYLINE
  5
174
100
AcDbEntity
  8
0
 62
7
100
AcDbPolyline
 90
74
 70
0
 10
269.663472
 20
90.571391
 30
0.0
 10
269.663472
 20
97.734388
 30
0.0
 10
269.695473
 20
98.054389
 30
0.0
 10
269.787472
 20
98.351388
 30
0.0
 10
269.931473
 20
98.619389
 30
0.0
 10
270.124473
 20
98.852389
 30
0.0
 10
270.357473
 20
99.044390
 30
0.0
 10
270.625471
 20
99.189388
 30
0.0
 10
270.922473
 20
99.281389
 30
0.0
 10
271.241472
 20
99.312389
 30
0.0
 10
271.561473
 20
99.281389
 30
0.0
 10
271.858472
 20
99.189388
 30
0.0
 10
272.126473
 20
99.044390
 30
0.0
 10
272.359473
 20
98.852389
 30
0.0
 10
272.551471
 20
98.619389
 30
0.0
 10
272.696472
 20
98.351388
 30
0.0
 10
272.787471
 20
98.054389
 30
0.0
 10
272.819472
 20
97.734388
 30
0.0
 10
272.819472
 20
92.149388
 30
0.0
 10
276.802483
 20
92.149388
 30
0.0
 10
276.802483
 20
96.833388
 30
0.0
 10
276.834459
 20
97.152389
 30
0.0
 10
276.925476
 20
97.449389
 30
0.0
 10
277.069465
 20
97.717390
 30
0.0
 10
277.259486
 20
97.951389
 30
0.0
 10
277.490484
 20
98.143390
 30
0.0
 10
277.753459
 20
98.288390
 30
0.0
 10
278.044458
 20
98.379390
 30
0.0
 10
278.355467
 20
98.411388
 30
0.0
 10
278.674463
 20
98.379390
 30
0.0
 10
278.971474
 20
98.288390
 30
0.0
 10
279.239472
 20
98.143390
 30
0.0
 10
279.473462
 20
97.951389
 30
0.0
 10
279.665458
 20
97.717390
 30
0.0
 10
279.810464
 20
97.449389
 30
0.0
 10
279.901481
 20
97.152389
 30
0.0
 10
279.933485
 20
96.833388
 30
0.0
 10
279.933485
 20
92.149388
 30
0.0
 10
285.644477
 20
92.149388
 30
0.0
 10
285.644477
 20
98.235389
 30
0.0
 10
285.676481
 20
98.555389
 30
0.0
 10
285.767470
 20
98.852389
 30
0.0
 10
285.912475
 20
99.120390
 30
0.0
 10
286.104471
 20
99.353390
 30
0.0
 10
286.338462
 20
99.545388
 30
0.0
 10
286.606460
 20
99.690388
 30
0.0
 10
286.903470
 20
99.782390
 30
0.0
 10
287.222466
 20
99.813389
 30
0.0
 10
287.533475
 20
99.782390
 30
0.0
 10
287.824474
 20
99.690388
 30
0.0
 10
288.088465
 20
99.545388
 30
0.0
 10
288.318476
 20
99.353390
 30
0.0
 10
288.508468
 20
99.120390
 30
0.0
 10
288.652486
 20
98.852389
 30
0.0
 10
288.743475
 20
98.555389
 30
0.0
 10
288.775479
 20
98.235389
 30
0.0
 10
288.775479
 20
90.571391
 30
0.0
 10
288.743475
 20
90.251390
 30
0.0
 10
288.652486
 20
89.954388
 30
0.0
 10
288.508468
 20
89.686390
 30
0.0
 10
288.318476
 20
89.453390
 30
0.0
 10
288.087477
 20
89.261388
 30
0.0
 10
287.824474
 20
89.116388
 30
0.0
 10
287.533475
 20
89.024389
 30
0.0
 10
287.222466
 20
88.993390
 30
0.0
 10
271.241472
 20
88.993390
 30
0.0
 10
270.922473
 20
89.024389
 30
0.0
 10
270.625471
 20
89.116388
 30
0.0
 10
270.357473
 20
89.261388
 30
0.0
 10
270.124473
 20
89.453390
 30
0.0
 10
269.931473
 20
89.686390
 30
0.0
 10
269.787472
 20
89.954388
 30
0.0
 10
269.695473
 20
90.251390
 30
0.0
 10
269.663472
 20
90.571391
 30
0.0
  0
LWPOLYLINE
  5
175
100
AcDbEntity
  8
0
 62
7
100
AcDbPolyline
 90
35
 70
0
 10
269.663472
 20
202.337388
 30
0.0
 10
269.695473
 20
202.649390
 30
0.0
 10
269.787472
 20
202.942390
 30
0.0
 10
269.931473
 20
203.210389
 30
0.0
 10
270.124473
 20
203.445389
 30
0.0
 10
270.357473
 20
203.640388
 30
0.0
 10
270.625471
 20
203.787389
 30
0.0
 10
270.922473
 20
203.881389
 30
0.0
 10
271.241472
 20
203.914389
 30
0.0
 10
287.197461
 20
203.914389
 30
0.0
 10
287.516485
 20
203.881389
 30
0.0
 10
287.813468
 20
203.787389
 30
0.0
 10
288.081466
 20
203.640388
 30
0.0
 10
288.314469
 20
203.445389
 30
0.0
 10
288.506464
 20
203.210389
 30
0.0
 10
288.651470
 20
202.942390
 30
0.0
 10
288.743475
 20
202.649390
 30
0.0
 10
288.775479
 20
202.337388
 30
0.0
 10
288.743475
 20
202.017390
 30
0.0
 10
288.651470
 20
201.720388
 30
0.0
 10
288.506464
 20
201.452390
 30
0.0
 10
288.314469
 20
201.219390
 30
0.0
 10
288.081466
 20
201.027388
 30
0.0
 10
287.813468
 20
200.882388
 30
0.0
 10
287.516485
 20
200.790389
 30
0.0
 10
287.197461
 20
200.759390
 30
0.0
 10
271.241472
 20
200.759390
 30
0.0
 10
270.922473
 20
200.790389
 30
0.0
 10
270.625471
 20
200.882388
 30
0.0
 10
270.357473
 20
201.027388
 30
0.0
 10
270.124473
 20
201.219390
 30
0.0
 10
269.931473
 20
201.452390
 30
0.0
 10
269.787472
 20
201.720388
 30
0.0
 10
269.695473
 20
202.017390
 30
0.0
 10
269.663472
 20
202.337388
 30
0.0
  0
LWPOLYLINE
  5
176
100
AcDbEntity
  8
0
 62
7
100
AcDbPolyline
 90
54
 70
0
 10
269.688471
 20
101.542390
 30
0.0
 10
269.688471
 20
110.609388
 30
0.0
 10
269.720472
 20
110.921388
 30
0.0
 10
269.812474
 20
111.215390
 30
0.0
 10
269.957471
 20
111.483388
 30
0.0
 10
270.149472
 20
111.717390
 30
0.0
 10
270.382472
 20
111.912389
 30
0.0
 10
270.650473
 20
112.060389
 30
0.0
 10
270.947473
 20
112.154389
 30
0.0
 10
271.266471
 20
112.187389
 30
0.0
 10
271.578474
 20
112.154389
 30
0.0
 10
271.868471
 20
112.060389
 30
0.0
 10
272.132473
 20
111.912389
 30
0.0
 10
272.362473
 20
111.718389
 30
0.0
 10
272.552473
 20
111.483388
 30
0.0
 10
272.696472
 20
111.215390
 30
0.0
 10
272.787471
 20
110.922390
 30
0.0
 10
272.819472
 20
110.609388
 30
0.0
 10
272.819472
 20
107.654389
 30
0.0
 10
287.222466
 20
107.654389
 30
0.0
 10
287.541462
 20
107.622388
 30
0.0
 10
287.838473
 20
107.530389
 30
0.0
 10
288.106471
 20
107.385389
 30
0.0
 10
288.339474
 20
107.193388
 30
0.0
 10
288.531469
 20
106.960391
 30
0.0
 10
288.676475
 20
106.692390
 30
0.0
 10
288.768480
 20
106.395390
 30
0.0
 10
288.800484
 20
106.076389
 30
0.0
 10
288.768480
 20
105.756388
 30
0.0
 10
288.676475
 20
105.459389
 30
0.0
 10
288.531469
 20
105.191388
 30
0.0
 10
288.339474
 20
104.958388
 30
0.0
 10
288.106471
 20
104.766389
 30
0.0
 10
287.838473
 20
104.621389
 30
0.0
 10
287.541462
 20
104.529390
 30
0.0
 10
287.222466
 20
104.497389
 30
0.0
 10
272.819472
 20
104.497389
 30
0.0
 10
272.819472
 20
101.542390
 30
0.0
 10
272.787471
 20
101.230388
 30
0.0
 10
272.696472
 20
100.936388
 30
0.0
 10
272.552473
 20
100.668390
 30
0.0
 10
272.362473
 20
100.433389
 30
0.0
 10
272.132473
 20
100.239390
 30
0.0
 10
271.868471
 20
100.091390
 30
0.0
 10
271.578474
 20
99.997390
 30
0.0
 10
271.266471
 20
99.964390
 30
0.0
 10
270.947473
 20
99.997390
 30
0.0
 10
270.650473
 20
100.091390
 30
0.0
 10
270.382472
 20
100.239390
 30
0.0
 10
270.149472
 20
100.433389
 30
0.0
 10
269.957471
 20
100.668390
 30
0.0
 10
269.812474
 20
100.936388
 30
0.0
 10
269.720472
 20
101.230388
 30
0.0
 10
269.688471
 20
101.542390
 30
0.0
  0
LWPOLYLINE
  5
177
100
AcDbEntity
  8
0
 62
7
100
AcDbPolyline
 90
66
 70
0
 10
269.689473
 20
216.239389
 30
0.0
 10
269.721471
 20
216.550390
 30
0.0
 10
269.812474
 20
216.841389
 30
0.0
 10
269.957471
 20
217.104389
 30
0.0
 10
270.149472
 20
217.335388
 30
0.0
 10
270.383471
 20
217.525388
 30
0.0
 10
270.651472
 20
217.669389
 30
0.0
 10
270.948472
 20
217.760389
 30
0.0
 10
271.267473
 20
217.792390
 30
0.0
 10
287.247471
 20
217.792390
 30
0.0
 10
287.506466
 20
217.770377
 30
0.0
 10
287.753467
 20
217.707391
 30
0.0
 10
287.985482
 20
217.605390
 30
0.0
 10
288.196472
 20
217.469390
 30
0.0
 10
288.382484
 20
217.301389
 30
0.0
 10
288.540472
 20
217.104389
 30
0.0
 10
288.664481
 20
216.882390
 30
0.0
 10
288.749486
 20
216.639388
 30
0.0
 10
288.766419
 20
216.583390
 30
0.0
 10
288.779458
 20
216.530388
 30
0.0
 10
288.788517
 20
216.479388
 30
0.0
 10
288.793541
 20
216.429390
 30
0.0
 10
288.797436
 20
216.380390
 30
0.0
 10
288.800568
 20
216.333389
 30
0.0
 10
288.800484
 20
216.238390
 30
0.0
 10
288.787501
 20
216.033390
 30
0.0
 10
288.749486
 20
215.833390
 30
0.0
 10
288.687482
 20
215.639390
 30
0.0
 10
288.600473
 20
215.455390
 30
0.0
 10
288.490462
 20
215.283390
 30
0.0
 10
288.356463
 20
215.125390
 30
0.0
 10
288.201467
 20
214.984389
 30
0.0
 10
288.024485
 20
214.861388
 30
0.0
 10
286.662481
 20
214.072388
 30
0.0
 10
285.300476
 20
213.283388
 30
0.0
 10
283.938472
 20
212.494388
 30
0.0
 10
278.490482
 20
209.338390
 30
0.0
 10
277.128478
 20
208.549390
 30
0.0
 10
287.247471
 20
208.549390
 30
0.0
 10
287.558480
 20
208.517388
 30
0.0
 10
287.849479
 20
208.425390
 30
0.0
 10
288.113470
 20
208.280389
 30
0.0
 10
288.343481
 20
208.088388
 30
0.0
 10
288.533473
 20
207.855388
 30
0.0
 10
288.677463
 20
207.587390
 30
0.0
 10
288.768480
 20
207.290388
 30
0.0
 10
288.800484
 20
206.971389
 30
0.0
 10
288.768480
 20
206.659390
 30
0.0
 10
288.677463
 20
206.368390
 30
0.0
 10
288.533473
 20
206.105390
 30
0.0
 10
288.343481
 20
205.875388
 30
0.0
 10
288.113470
 20
205.684388
 30
0.0
 10
287.849479
 20
205.540390
 30
0.0
 10
287.558480
 20
205.449390
 30
0.0
 10
287.247471
 20
205.418388
 30
0.0
 10
271.267473
 20
205.418388
 30
0.0
 10
271.008472
 20
205.439385
 30
0.0
 10
270.760472
 20
205.503391
 30
0.0
 10
270.528471
 20
205.604389
 30
0.0
 10
270.315473
 20
205.740389
 30
0.0
 10
270.125472
 20
205.908388
 30
0.0
 10
269.964473
 20
206.105390
 30
0.0
 10
269.833471
 20
206.326390
 30
0.0
 10
269.739471
 20
206.570388
 30
0.0
 10
269.695473
 20
206.825390
 30
0.0
 10
269.694344
 20
207.081388
 30
0.0
  0
LWPOLYLINE
  5
178
100
AcDbEntity
  8
0
 62
7
100
AcDbPolyline
 90
21
 70
0
 10
269.694471
 20
207.081388
 30
0.0
 10
269.733471
 20
207.331389
 30
0.0
 10
269.811472
 20
207.572390
 30
0.0
 10
269.925473
 20
207.799390
 30
0.0
 10
270.074472
 20
208.007390
 30
0.0
 10
270.255472
 20
208.192390
 30
0.0
 10
270.466473
 20
208.349390
 30
0.0
 10
273.196473
 20
209.927390
 30
0.0
 10
274.561472
 20
210.716391
 30
0.0
 10
277.291461
 20
212.294388
 30
0.0
 10
278.656486
 20
213.083388
 30
0.0
 10
281.386478
 20
214.661389
 30
0.0
 10
271.267473
 20
214.661389
 30
0.0
 10
270.948472
 20
214.693390
 30
0.0
 10
270.651472
 20
214.784390
 30
0.0
 10
270.383471
 20
214.929390
 30
0.0
 10
270.149472
 20
215.121388
 30
0.0
 10
269.957471
 20
215.354388
 30
0.0
 10
269.812474
 20
215.622389
 30
0.0
 10
269.721471
 20
215.919389
 30
0.0
 10
269.689473
 20
216.239389
 30
0.0
  0
LWPOLYLINE
  5
179
100
AcDbEntity
  8
0
 62
7
100
AcDbPolyline
 90
35
 70
0
 10
283.091467
 20
174.129390
 30
0.0
 10
283.123471
 20
174.447389
 30
0.0
 10
283.215475
 20
174.743389
 30
0.0
 10
283.360481
 20
175.011390
 30
0.0
 10
283.553464
 20
175.244390
 30
0.0
 10
283.787483
 20
175.437388
 30
0.0
 10
284.055481
 20
175.583390
 30
0.0
 10
284.351476
 20
175.675389
 30
0.0
 10
284.669484
 20
175.707390
 30
0.0
 10
290.560478
 20
175.707390
 30
0.0
 10
290.878486
 20
175.675389
 30
0.0
 10
291.174480
 20
175.583390
 30
0.0
 10
291.442479
 20
175.437388
 30
0.0
 10
291.676469
 20
175.244390
 30
0.0
 10
291.869481
 20
175.011390
 30
0.0
 10
292.014458
 20
174.743389
 30
0.0
 10
292.106463
 20
174.447389
 30
0.0
 10
292.138467
 20
174.129390
 30
0.0
 10
292.106463
 20
173.811390
 30
0.0
 10
292.014458
 20
173.515390
 30
0.0
 10
291.869481
 20
173.247389
 30
0.0
 10
291.676469
 20
173.013390
 30
0.0
 10
291.442479
 20
172.820389
 30
0.0
 10
291.174480
 20
172.675389
 30
0.0
 10
290.878486
 20
172.583390
 30
0.0
 10
290.560478
 20
172.551389
 30
0.0
 10
284.669484
 20
172.551389
 30
0.0
 10
284.351476
 20
172.583390
 30
0.0
 10
284.055481
 20
172.675389
 30
0.0
 10
283.787483
 20
172.820389
 30
0.0
 10
283.553464
 20
173.013390
 30
0.0
 10
283.360481
 20
173.247389
 30
0.0
 10
283.215475
 20
173.515390
 30
0.0
 10
283.123471
 20
173.811390
 30
0.0
 10
283.091467
 20
174.129390
 30
0.0
  0
LWPOLYLINE
  5
17a
100
AcDbEntity
  8
0
 62
7
100
AcDbPolyline
 90
41
 70
0
 10
290.138471
 20
311.639389
 30
0.0
 10
290.138471
 20
373.639388
 30
0.0
 10
290.193476
 20
373.639388
 30
0.0
 10
290.193476
 20
374.684389
 30
0.0
 10
290.627477
 20
376.729388
 30
0.0
 10
291.478462
 20
378.639389
 30
0.0
 10
292.707483
 20
380.330388
 30
0.0
 10
294.260468
 20
381.729389
 30
0.0
 10
296.071459
 20
382.774390
 30
0.0
 10
298.059461
 20
383.420389
 30
0.0
 10
300.138479
 20
383.639390
 30
0.0
 10
396.138485
 20
383.639390
 30
0.0
 10
398.217475
 20
383.420389
 30
0.0
 10
400.205476
 20
382.774390
 30
0.0
 10
402.016468
 20
381.729389
 30
0.0
 10
403.569480
 20
380.330388
 30
0.0
 10
404.798474
 20
378.639389
 30
0.0
 10
405.649486
 20
376.729388
 30
0.0
 10
406.083460
 20
374.684389
 30
0.0
 10
406.083460
 20
373.639388
 30
0.0
 10
406.138465
 20
373.639388
 30
0.0
 10
406.138465
 20
311.639389
 30
0.0
 10
406.083460
 20
311.639389
 30
0.0
 10
406.083460
 20
310.594389
 30
0.0
 10
405.649486
 20
308.549389
 30
0.0
 10
404.798474
 20
306.639389
 30
0.0
 10
403.569480
 20
304.948389
 30
0.0
 10
402.016468
 20
303.549389
 30
0.0
 10
400.205476
 20
302.504389
 30
0.0
 10
398.217475
 20
301.858389
 30
0.0
 10
396.138485
 20
301.639389
 30
0.0
 10
300.138479
 20
301.639389
 30
0.0
 10
298.059461
 20
301.858389
 30
0.0
 10
296.071459
 20
302.504389
 30
0.0
 10
294.260468
 20
303.549389
 30
0.0
 10
292.707483
 20
304.948389
 30
0.0
 10
291.478462
 20
306.639389
 30
0.0
 10
290.627477
 20
308.549389
 30
0.0
 10
290.193476
 20
310.594389
 30
0.0
 10
290.193476
 20
311.639389
 30
0.0
 10
290.138471
 20
311.639389
 30
0.0
  0
LWPOLYLINE
  5
17b
100
AcDbEntity
  8
0
 62
7
100
AcDbPolyline
 90
34
 70
0
 10
302.769468
 20
195.267388
 30
0.0
 10
303.162462
 20
197.745390
 30
0.0
 10
304.061481
 20
200.087388
 30
0.0
 10
305.428481
 20
202.191389
 30
0.0
 10
306.315477
 20
203.078390
 30
0.0
 10
306.268459
 20
203.124390
 30
0.0
 10
324.653458
 20
221.509390
 30
0.0
 10
324.699461
 20
221.462388
 30
0.0
 10
325.586485
 20
222.349390
 30
0.0
 10
327.690480
 20
223.716390
 30
0.0
 10
330.032473
 20
224.615389
 30
0.0
 10
331.138474
 20
224.790389
 30
0.0
 10
331.138474
 20
225.024388
 30
0.0
 10
354.247478
 20
225.024388
 30
0.0
 10
357.138478
 20
230.031389
 30
0.0
 10
369.138482
 20
230.031389
 30
0.0
 10
375.138470
 20
219.639388
 30
0.0
 10
370.750479
 20
212.040388
 30
0.0
 10
389.517467
 20
180.031390
 30
0.0
 10
399.138479
 20
180.031390
 30
0.0
 10
405.138467
 20
169.639389
 30
0.0
 10
399.138479
 20
159.247388
 30
0.0
 10
387.138474
 20
159.247388
 30
0.0
 10
384.247475
 20
164.254389
 30
0.0
 10
331.138474
 20
164.254389
 30
0.0
 10
331.138474
 20
164.435389
 30
0.0
 10
328.837459
 20
165.051390
 30
0.0
 10
326.602485
 20
166.190388
 30
0.0
 10
324.653458
 20
167.769390
 30
0.0
 10
306.268459
 20
186.154390
 30
0.0
 10
304.689482
 20
188.103389
 30
0.0
 10
303.550461
 20
190.338388
 30
0.0
 10
302.901463
 20
192.762389
 30
0.0
 10
302.769468
 20
195.267388
 30
0.0
  0
LWPOLYLINE
  5
17c
100
AcDbEntity
  8
0
 62
7
100
AcDbPolyline
 90
91
 70
0
 10
303.138473
 20
80.639389
 30
0.0
 10
303.138473
 20
126.639391
 30
0.0
 10
303.290478
 20
126.639391
 30
0.0
 10
303.188483
 20
127.084390
 30
0.0
 10
304.270466
 20
128.441388
 30
0.0
 10
305.138469
 20
128.441388
 30
0.0
 10
305.138469
 20
128.639389
 30
0.0
 10
429.638460
 20
128.639389
 30
0.0
 10
429.638460
 20
406.639389
 30
0.0
 10
305.138469
 20
406.639389
 30
0.0
 10
303.574478
 20
407.392389
 30
0.0
 10
303.290478
 20
408.639388
 30
0.0
 10
303.138473
 20
408.639388
 30
0.0
 10
303.138473
 20
454.639389
 30
0.0
 10
303.302472
 20
454.639389
 30
0.0
 10
303.302472
 20
457.775389
 30
0.0
 10
304.606480
 20
463.910389
 30
0.0
 10
307.157459
 20
469.639390
 30
0.0
 10
310.844466
 20
474.713390
 30
0.0
 10
315.504463
 20
478.910390
 30
0.0
 10
320.936479
 20
482.045388
 30
0.0
 10
326.901471
 20
483.983388
 30
0.0
 10
333.138470
 20
484.639389
 30
0.0
 10
385.138478
 20
484.639389
 30
0.0
 10
390.579469
 20
484.449388
 30
0.0
 10
395.994467
 20
483.880389
 30
0.0
 10
401.355475
 20
482.935390
 30
0.0
 10
406.638478
 20
481.617390
 30
0.0
 10
411.816465
 20
479.935388
 30
0.0
 10
416.863474
 20
477.896388
 30
0.0
 10
421.757461
 20
475.509390
 30
0.0
 10
426.472463
 20
472.787390
 30
0.0
 10
430.985478
 20
469.742390
 30
0.0
 10
435.275482
 20
466.390389
 30
0.0
 10
439.321476
 20
462.748390
 30
0.0
 10
443.103480
 20
458.831388
 30
0.0
 10
446.603459
 20
454.661389
 30
0.0
 10
449.803464
 20
450.256388
 30
0.0
 10
452.688480
 20
445.639390
 30
0.0
 10
455.244482
 20
440.832390
 30
0.0
 10
457.458459
 20
435.858389
 30
0.0
 10
458.448466
 20
433.139390
 30
0.0
 10
480.638471
 20
433.139390
 30
0.0
 10
482.717461
 20
432.920388
 30
0.0
 10
484.705462
 20
432.274390
 30
0.0
 10
486.516482
 20
431.229389
 30
0.0
 10
488.069467
 20
429.830388
 30
0.0
 10
489.298460
 20
428.139389
 30
0.0
 10
490.149473
 20
426.229391
 30
0.0
 10
490.583474
 20
424.184389
 30
0.0
 10
490.583474
 20
423.139390
 30
0.0
 10
490.638479
 20
423.139390
 30
0.0
 10
490.638479
 20
112.139389
 30
0.0
 10
490.583474
 20
112.139389
 30
0.0
 10
490.583474
 20
111.094390
 30
0.0
 10
490.149473
 20
109.049388
 30
0.0
 10
489.298460
 20
107.139390
 30
0.0
 10
488.069467
 20
105.448388
 30
0.0
 10
486.516482
 20
104.049390
 30
0.0
 10
484.705462
 20
103.004389
 30
0.0
 10
482.717461
 20
102.358390
 30
0.0
 10
480.638471
 20
102.139389
 30
0.0
 10
458.448466
 20
102.139389
 30
0.0
 10
457.458459
 20
99.420389
 30
0.0
 10
455.244482
 20
94.446389
 30
0.0
 10
452.688480
 20
89.639388
 30
0.0
 10
449.803464
 20
85.022388
 30
0.0
 10
446.603459
 20
80.617390
 30
0.0
 10
443.103480
 20
76.447390
 30
0.0
 10
439.321476
 20
72.530389
 30
0.0
 10
435.275482
 20
68.888390
 30
0.0
 10
430.985478
 20
65.536389
 30
0.0
 10
426.472463
 20
62.491389
 30
0.0
 10
421.757461
 20
59.769389
 30
0.0
 10
416.863474
 20
57.382390
 30
0.0
 10
411.816465
 20
55.343388
 30
0.0
 10
406.638478
 20
53.661389
 30
0.0
 10
401.355475
 20
52.343389
 30
0.0
 10
395.994467
 20
51.398390
 30
0.0
 10
390.579469
 20
50.829391
 30
0.0
 10
385.138478
 20
50.639390
 30
0.0
 10
333.138470
 20
50.639390
 30
0.0
 10
326.901471
 20
51.295390
 30
0.0
 10
320.936479
 20
53.233391
 30
0.0
 10
315.504463
 20
56.368388
 30
0.0
 10
310.844466
 20
60.565388
 30
0.0
 10
307.157459
 20
65.639388
 30
0.0
 10
304.606480
 20
71.368389
 30
0.0
 10
303.302472
 20
77.503390
 30
0.0
 10
303.302472
 20
80.639389
 30
0.0
 10
303.138473
 20
80.639389
 30
0.0
  0
LWPOLYLINE
  5
17d
100
AcDbEntity
  8
0
 62
7
100
AcDbPolyline
 90
21
 70
0
 10
303.138473
 20
306.639389
 30
0.0
 10
303.211484
 20
307.103389
 30
0.0
 10
303.424477
 20
307.521389
 30
0.0
 10
303.756483
 20
307.853389
 30
0.0
 10
304.174483
 20
308.066389
 30
0.0
 10
304.638484
 20
308.139389
 30
0.0
 10
305.102486
 20
308.066389
 30
0.0
 10
305.520485
 20
307.853389
 30
0.0
 10
305.852463
 20
307.521389
 30
0.0
 10
306.065484
 20
307.103389
 30
0.0
 10
306.138467
 20
306.639389
 30
0.0
 10
306.065484
 20
306.175389
 30
0.0
 10
305.852463
 20
305.757389
 30
0.0
 10
305.520485
 20
305.425389
 30
0.0
 10
305.102486
 20
305.212389
 30
0.0
 10
304.638484
 20
305.139389
 30
0.0
 10
304.174483
 20
305.212389
 30
0.0
 10
303.756483
 20
305.425389
 30
0.0
 10
303.424477
 20
305.757389
 30
0.0
 10
303.211484
 20
306.175389
 30
0.0
 10
303.138473
 20
306.639389
 30
0.0
  0
LWPOLYLINE
  5
17e
100
AcDbEntity
  8
0
 62
7
100
AcDbPolyline
 90
21
 70
0
 10
303.138473
 20
378.639389
 30
0.0
 10
303.211484
 20
379.103388
 30
0.0
 10
303.424477
 20
379.521390
 30
0.0
 10
303.756483
 20
379.853390
 30
0.0
 10
304.174483
 20
380.066389
 30
0.0
 10
304.638484
 20
380.139389
 30
0.0
 10
305.102486
 20
380.066389
 30
0.0
 10
305.520485
 20
379.853390
 30
0.0
 10
305.852463
 20
379.521390
 30
0.0
 10
306.065484
 20
379.103388
 30
0.0
 10
306.138467
 20
378.639389
 30
0.0
 10
306.065484
 20
378.175390
 30
0.0
 10
305.852463
 20
377.757388
 30
0.0
 10
305.520485
 20
377.425390
 30
0.0
 10
305.102486
 20
377.212389
 30
0.0
 10
304.638484
 20
377.139389
 30
0.0
 10
304.174483
 20
377.212389
 30
0.0
 10
303.756483
 20
377.425390
 30
0.0
 10
303.424477
 20
377.757388
 30
0.0
 10
303.211484
 20
378.175390
 30
0.0
 10
303.138473
 20
378.639389
 30
0.0
  0
LWPOLYLINE
  5
17f
100
AcDbEntity
  8
0
 62
7
100
AcDbPolyline
 90
21
 70
0
 10
309.736462
 20
194.404389
 30
0.0
 10
309.736462
 20
194.874388
 30
0.0
 10
309.881468
 20
195.320389
 30
0.0
 10
310.157481
 20
195.700390
 30
0.0
 10
310.537465
 20
195.976390
 30
0.0
 10
310.983461
 20
196.121390
 30
0.0
 10
311.452486
 20
196.121390
 30
0.0
 10
311.899469
 20
195.976390
 30
0.0
 10
312.278466
 20
195.700390
 30
0.0
 10
312.555467
 20
195.320389
 30
0.0
 10
312.700472
 20
194.874388
 30
0.0
 10
312.700472
 20
194.404389
 30
0.0
 10
312.555467
 20
193.958388
 30
0.0
 10
312.278466
 20
193.578390
 30
0.0
 10
311.899469
 20
193.302388
 30
0.0
 10
311.452486
 20
193.157390
 30
0.0
 10
310.983461
 20
193.157390
 30
0.0
 10
310.537465
 20
193.302388
 30
0.0
 10
310.157481
 20
193.578390
 30
0.0
 10
309.881468
 20
193.958388
 30
0.0
 10
309.736462
 20
194.404389
 30
0.0
  0
LWPOLYLINE
  5
180
100
AcDbEntity
  8
0
 62
7
100
AcDbPolyline
 90
5
 70
0
 10
313.138481
 20
119.889389
 30
0.0
 10
313.138481
 20
126.389390
 30
0.0
 10
318.138471
 20
126.389390
 30
0.0
 10
318.138471
 20
119.889389
 30
0.0
 10
313.138481
 20
119.889389
 30
0.0
  0
LWPOLYLINE
  5
181
100
AcDbEntity
  8
0
 62
7
100
AcDbPolyline
 90
5
 70
0
 10
313.138481
 20
408.889389
 30
0.0
 10
313.138481
 20
415.389390
 30
0.0
 10
318.138471
 20
415.389390
 30
0.0
 10
318.138471
 20
408.889389
 30
0.0
 10
313.138481
 20
408.889389
 30
0.0
  0
LWPOLYLINE
  5
182
100
AcDbEntity
  8
0
 62
7
100
AcDbPolyline
 90
21
 70
0
 10
321.138465
 20
306.639389
 30
0.0
 10
321.211476
 20
307.103389
 30
0.0
 10
321.424469
 20
307.521389
 30
0.0
 10
321.756476
 20
307.853389
 30
0.0
 10
322.174475
 20
308.066389
 30
0.0
 10
322.638476
 20
308.139389
 30
0.0
 10
323.102478
 20
308.066389
 30
0.0
 10
323.520477
 20
307.853389
 30
0.0
 10
323.852484
 20
307.521389
 30
0.0
 10
324.065477
 20
307.103389
 30
0.0
 10
324.138459
 20
306.639389
 30
0.0
 10
324.065477
 20
306.175389
 30
0.0
 10
323.852484
 20
305.757389
 30
0.0
 10
323.520477
 20
305.425389
 30
0.0
 10
323.102478
 20
305.212389
 30
0.0
 10
322.638476
 20
305.139389
 30
0.0
 10
322.174475
 20
305.212389
 30
0.0
 10
321.756476
 20
305.425389
 30
0.0
 10
321.424469
 20
305.757389
 30
0.0
 10
321.211476
 20
306.175389
 30
0.0
 10
321.138465
 20
306.639389
 30
0.0
  0
LWPOLYLINE
  5
183
100
AcDbEntity
  8
0
 62
7
100
AcDbPolyline
 90
21
 70
0
 10
321.138465
 20
378.639389
 30
0.0
 10
321.211476
 20
379.103388
 30
0.0
 10
321.424469
 20
379.521390
 30
0.0
 10
321.756476
 20
379.853390
 30
0.0
 10
322.174475
 20
380.066389
 30
0.0
 10
322.638476
 20
380.139389
 30
0.0
 10
323.102478
 20
380.066389
 30
0.0
 10
323.520477
 20
379.853390
 30
0.0
 10
323.852484
 20
379.521390
 30
0.0
 10
324.065477
 20
379.103388
 30
0.0
 10
324.138459
 20
378.639389
 30
0.0
 10
324.065477
 20
378.175390
 30
0.0
 10
323.852484
 20
377.757388
 30
0.0
 10
323.520477
 20
377.425390
 30
0.0
 10
323.102478
 20
377.212389
 30
0.0
 10
322.638476
 20
377.139389
 30
0.0
 10
322.174475
 20
377.212389
 30
0.0
 10
321.756476
 20
377.425390
 30
0.0
 10
321.424469
 20
377.757388
 30
0.0
 10
321.211476
 20
378.175390
 30
0.0
 10
321.138465
 20
378.639389
 30
0.0
  0
LWPOLYLINE
  5
184
100
AcDbEntity
  8
0
 62
7
100
AcDbPolyline
 90
31
 70
0
 10
321.154467
 20
195.267388
 30
0.0
 10
321.547462
 20
197.745390
 30
0.0
 10
322.446481
 20
200.087388
 30
0.0
 10
323.813480
 20
202.191389
 30
0.0
 10
325.586485
 20
203.964390
 30
0.0
 10
327.690480
 20
205.331390
 30
0.0
 10
330.032473
 20
206.230389
 30
0.0
 10
332.510469
 20
206.623389
 30
0.0
 10
335.015473
 20
206.491388
 30
0.0
 10
337.439480
 20
205.842390
 30
0.0
 10
339.674482
 20
204.703389
 30
0.0
 10
341.623481
 20
203.124390
 30
0.0
 10
343.202486
 20
201.175389
 30
0.0
 10
344.341478
 20
198.940389
 30
0.0
 10
344.990476
 20
196.516388
 30
0.0
 10
345.122472
 20
194.011389
 30
0.0
 10
344.729477
 20
191.533391
 30
0.0
 10
343.830458
 20
189.191389
 30
0.0
 10
342.463459
 20
187.087389
 30
0.0
 10
340.690482
 20
185.314390
 30
0.0
 10
338.586459
 20
183.947390
 30
0.0
 10
336.244466
 20
183.048388
 30
0.0
 10
333.766470
 20
182.655391
 30
0.0
 10
331.261466
 20
182.787389
 30
0.0
 10
328.837459
 20
183.436390
 30
0.0
 10
326.602485
 20
184.575388
 30
0.0
 10
324.653458
 20
186.154390
 30
0.0
 10
323.074482
 20
188.103389
 30
0.0
 10
321.935461
 20
190.338388
 30
0.0
 10
321.286463
 20
192.762389
 30
0.0
 10
321.154467
 20
195.267388
 30
0.0
  0
LWPOLYLINE
  5
185
100
AcDbEntity
  8
0
 62
7
100
AcDbPolyline
 90
21
 70
0
 10
323.638474
 20
102.139389
 30
0.0
 10
323.711485
 20
102.603390
 30
0.0
 10
323.924478
 20
103.021390
 30
0.0
 10
324.256485
 20
103.353390
 30
0.0
 10
324.674484
 20
103.566389
 30
0.0
 10
325.138486
 20
103.639389
 30
0.0
 10
325.602459
 20
103.566389
 30
0.0
 10
326.020486
 20
103.353390
 30
0.0
 10
326.352464
 20
103.021390
 30
0.0
 10
326.565486
 20
102.603390
 30
0.0
 10
326.638468
 20
102.139389
 30
0.0
 10
326.565486
 20
101.675390
 30
0.0
 10
326.352464
 20
101.257388
 30
0.0
 10
326.020486
 20
100.925390
 30
0.0
 10
325.602459
 20
100.712389
 30
0.0
 10
325.138486
 20
100.639389
 30
0.0
 10
324.674484
 20
100.712389
 30
0.0
 10
324.256485
 20
100.925390
 30
0.0
 10
323.924478
 20
101.257388
 30
0.0
 10
323.711485
 20
101.675390
 30
0.0
 10
323.638474
 20
102.139389
 30
0.0
  0
LWPOLYLINE
  5
186
100
AcDbEntity
  8
0
 62
7
100
AcDbPolyline
 90
21
 70
0
 10
323.638474
 20
433.139390
 30
0.0
 10
323.711485
 20
433.603389
 30
0.0
 10
323.924478
 20
434.021388
 30
0.0
 10
324.256485
 20
434.353389
 30
0.0
 10
324.674484
 20
434.566390
 30
0.0
 10
325.138486
 20
434.639390
 30
0.0
 10
325.602459
 20
434.566390
 30
0.0
 10
326.020486
 20
434.353389
 30
0.0
 10
326.352464
 20
434.021388
 30
0.0
 10
326.565486
 20
433.603389
 30
0.0
 10
326.638468
 20
433.139390
 30
0.0
 10
326.565486
 20
432.675388
 30
0.0
 10
326.352464
 20
432.257389
 30
0.0
 10
326.020486
 20
431.925389
 30
0.0
 10
325.602459
 20
431.712390
 30
0.0
 10
325.138486
 20
431.639390
 30
0.0
 10
324.674484
 20
431.712390
 30
0.0
 10
324.256485
 20
431.925389
 30
0.0
 10
323.924478
 20
432.257389
 30
0.0
 10
323.711485
 20
432.675388
 30
0.0
 10
323.638474
 20
433.139390
 30
0.0
  0
LWPOLYLINE
  5
187
100
AcDbEntity
  8
0
 62
7
100
AcDbPolyline
 90
21
 70
0
 10
324.638472
 20
316.639389
 30
0.0
 10
324.711483
 20
317.103389
 30
0.0
 10
324.924476
 20
317.521389
 30
0.0
 10
325.256483
 20
317.853389
 30
0.0
 10
325.674482
 20
318.066389
 30
0.0
 10
326.138484
 20
318.139389
 30
0.0
 10
326.602485
 20
318.066389
 30
0.0
 10
327.020484
 20
317.853389
 30
0.0
 10
327.352462
 20
317.521389
 30
0.0
 10
327.565484
 20
317.103389
 30
0.0
 10
327.638466
 20
316.639389
 30
0.0
 10
327.565484
 20
316.175389
 30
0.0
 10
327.352462
 20
315.757389
 30
0.0
 10
327.020484
 20
315.425389
 30
0.0
 10
326.602485
 20
315.212389
 30
0.0
 10
326.138484
 20
315.139389
 30
0.0
 10
325.674482
 20
315.212389
 30
0.0
 10
325.256483
 20
315.425389
 30
0.0
 10
324.924476
 20
315.757389
 30
0.0
 10
324.711483
 20
316.175389
 30
0.0
 10
324.638472
 20
316.639389
 30
0.0
  0
LWPOLYLINE
  5
188
100
AcDbEntity
  8
0
 62
7
100
AcDbPolyline
 90
21
 70
0
 10
324.638472
 20
368.639389
 30
0.0
 10
324.711483
 20
369.103388
 30
0.0
 10
324.924476
 20
369.521390
 30
0.0
 10
325.256483
 20
369.853388
 30
0.0
 10
325.674482
 20
370.066389
 30
0.0
 10
326.138484
 20
370.139389
 30
0.0
 10
326.602485
 20
370.066389
 30
0.0
 10
327.020484
 20
369.853388
 30
0.0
 10
327.352462
 20
369.521390
 30
0.0
 10
327.565484
 20
369.103388
 30
0.0
 10
327.638466
 20
368.639389
 30
0.0
 10
327.565484
 20
368.175390
 30
0.0
 10
327.352462
 20
367.757388
 30
0.0
 10
327.020484
 20
367.425388
 30
0.0
 10
326.602485
 20
367.212389
 30
0.0
 10
326.138484
 20
367.139389
 30
0.0
 10
325.674482
 20
367.212389
 30
0.0
 10
325.256483
 20
367.425388
 30
0.0
 10
324.924476
 20
367.757388
 30
0.0
 10
324.711483
 20
368.175390
 30
0.0
 10
324.638472
 20
368.639389
 30
0.0
  0
LWPOLYLINE
  5
189
100
AcDbEntity
  8
0
 62
7
100
AcDbPolyline
 90
21
 70
0
 10
326.638468
 20
123.139389
 30
0.0
 10
326.711479
 20
123.603388
 30
0.0
 10
326.924472
 20
124.021390
 30
0.0
 10
327.256479
 20
124.353391
 30
0.0
 10
327.674478
 20
124.566389
 30
0.0
 10
328.138480
 20
124.639389
 30
0.0
 10
328.602481
 20
124.566389
 30
0.0
 10
329.020480
 20
124.353391
 30
0.0
 10
329.352458
 20
124.021390
 30
0.0
 10
329.565480
 20
123.603388
 30
0.0
 10
329.638462
 20
123.139389
 30
0.0
 10
329.565480
 20
122.675390
 30
0.0
 10
329.352458
 20
122.257388
 30
0.0
 10
329.020480
 20
121.925390
 30
0.0
 10
328.602481
 20
121.712389
 30
0.0
 10
328.138480
 20
121.639389
 30
0.0
 10
327.674478
 20
121.712389
 30
0.0
 10
327.256479
 20
121.925390
 30
0.0
 10
326.924472
 20
122.257388
 30
0.0
 10
326.711479
 20
122.675390
 30
0.0
 10
326.638468
 20
123.139389
 30
0.0
  0
LWPOLYLINE
  5
18a
100
AcDbEntity
  8
0
 62
7
100
AcDbPolyline
 90
21
 70
0
 10
326.638468
 20
412.139390
 30
0.0
 10
326.711479
 20
412.603388
 30
0.0
 10
326.924472
 20
413.021388
 30
0.0
 10
327.256479
 20
413.353388
 30
0.0
 10
327.674478
 20
413.566390
 30
0.0
 10
328.138480
 20
413.639389
 30
0.0
 10
328.602481
 20
413.566390
 30
0.0
 10
329.020480
 20
413.353388
 30
0.0
 10
329.352458
 20
413.021388
 30
0.0
 10
329.565480
 20
412.603388
 30
0.0
 10
329.638462
 20
412.139390
 30
0.0
 10
329.565480
 20
411.675388
 30
0.0
 10
329.352458
 20
411.257389
 30
0.0
 10
329.020480
 20
410.925388
 30
0.0
 10
328.602481
 20
410.712389
 30
0.0
 10
328.138480
 20
410.639390
 30
0.0
 10
327.674478
 20
410.712389
 30
0.0
 10
327.256479
 20
410.925388
 30
0.0
 10
326.924472
 20
411.257389
 30
0.0
 10
326.711479
 20
411.675388
 30
0.0
 10
326.638468
 20
412.139390
 30
0.0
  0
LWPOLYLINE
  5
18b
100
AcDbEntity
  8
0
 62
7
100
AcDbPolyline
 90
21
 70
0
 10
329.088468
 20
64.139389
 30
0.0
 10
329.286475
 20
65.391388
 30
0.0
 10
329.861474
 20
66.520390
 30
0.0
 10
330.757474
 20
67.416389
 30
0.0
 10
331.886475
 20
67.991389
 30
0.0
 10
333.138470
 20
68.189390
 30
0.0
 10
334.390464
 20
67.991389
 30
0.0
 10
335.519466
 20
67.416389
 30
0.0
 10
336.415465
 20
66.520390
 30
0.0
 10
336.990464
 20
65.391388
 30
0.0
 10
337.188471
 20
64.139389
 30
0.0
 10
336.990464
 20
62.887389
 30
0.0
 10
336.415465
 20
61.758390
 30
0.0
 10
335.519466
 20
60.862391
 30
0.0
 10
334.390464
 20
60.287388
 30
0.0
 10
333.138470
 20
60.089390
 30
0.0
 10
331.886475
 20
60.287388
 30
0.0
 10
330.757474
 20
60.862391
 30
0.0
 10
329.861474
 20
61.758390
 30
0.0
 10
329.286475
 20
62.887389
 30
0.0
 10
329.088468
 20
64.139389
 30
0.0
  0
LWPOLYLINE
  5
18c
100
AcDbEntity
  8
0
 62
7
100
AcDbPolyline
 90
21
 70
0
 10
329.088468
 20
94.139388
 30
0.0
 10
329.286475
 20
95.391391
 30
0.0
 10
329.861474
 20
96.520389
 30
0.0
 10
330.757474
 20
97.416389
 30
0.0
 10
331.886475
 20
97.991388
 30
0.0
 10
333.138470
 20
98.189390
 30
0.0
 10
334.390464
 20
97.991388
 30
0.0
 10
335.519466
 20
97.416389
 30
0.0
 10
336.415465
 20
96.520389
 30
0.0
 10
336.990464
 20
95.391391
 30
0.0
 10
337.188471
 20
94.139388
 30
0.0
 10
336.990464
 20
92.887388
 30
0.0
 10
336.415465
 20
91.758389
 30
0.0
 10
335.519466
 20
90.862390
 30
0.0
 10
334.390464
 20
90.287390
 30
0.0
 10
333.138470
 20
90.089389
 30
0.0
 10
331.886475
 20
90.287390
 30
0.0
 10
330.757474
 20
90.862390
 30
0.0
 10
329.861474
 20
91.758389
 30
0.0
 10
329.286475
 20
92.887388
 30
0.0
 10
329.088468
 20
94.139388
 30
0.0
  0
LWPOLYLINE
  5
18d
100
AcDbEntity
  8
0
 62
7
100
AcDbPolyline
 90
21
 70
0
 10
329.088468
 20
441.139388
 30
0.0
 10
329.286475
 20
442.391388
 30
0.0
 10
329.861474
 20
443.520390
 30
0.0
 10
330.757474
 20
444.416389
 30
0.0
 10
331.886475
 20
444.991388
 30
0.0
 10
333.138470
 20
445.189390
 30
0.0
 10
334.390464
 20
444.991388
 30
0.0
 10
335.519466
 20
444.416389
 30
0.0
 10
336.415465
 20
443.520390
 30
0.0
 10
336.990464
 20
442.391388
 30
0.0
 10
337.188471
 20
441.139388
 30
0.0
 10
336.990464
 20
439.887388
 30
0.0
 10
336.415465
 20
438.758389
 30
0.0
 10
335.519466
 20
437.862390
 30
0.0
 10
334.390464
 20
437.287388
 30
0.0
 10
333.138470
 20
437.089389
 30
0.0
 10
331.886475
 20
437.287388
 30
0.0
 10
330.757474
 20
437.862390
 30
0.0
 10
329.861474
 20
438.758389
 30
0.0
 10
329.286475
 20
439.887388
 30
0.0
 10
329.088468
 20
441.139388
 30
0.0
  0
LWPOLYLINE
  5
18e
100
AcDbEntity
  8
0
 62
7
100
AcDbPolyline
 90
21
 70
0
 10
329.088468
 20
471.139390
 30
0.0
 10
329.286475
 20
472.391390
 30
0.0
 10
329.861474
 20
473.520389
 30
0.0
 10
330.757474
 20
474.416388
 30
0.0
 10
331.886475
 20
474.991388
 30
0.0
 10
333.138470
 20
475.189389
 30
0.0
 10
334.390464
 20
474.991388
 30
0.0
 10
335.519466
 20
474.416388
 30
0.0
 10
336.415465
 20
473.520389
 30
0.0
 10
336.990464
 20
472.391390
 30
0.0
 10
337.188471
 20
471.139390
 30
0.0
 10
336.990464
 20
469.887390
 30
0.0
 10
336.415465
 20
468.758389
 30
0.0
 10
335.519466
 20
467.862389
 30
0.0
 10
334.390464
 20
467.287390
 30
0.0
 10
333.138470
 20
467.089388
 30
0.0
 10
331.886475
 20
467.287390
 30
0.0
 10
330.757474
 20
467.862389
 30
0.0
 10
329.861474
 20
468.758389
 30
0.0
 10
329.286475
 20
469.887390
 30
0.0
 10
329.088468
 20
471.139390
 30
0.0
  0
LWPOLYLINE
  5
18f
100
AcDbEntity
  8
0
 62
7
100
AcDbPolyline
 90
21
 70
0
 10
331.638458
 20
56.139388
 30
0.0
 10
331.711469
 20
56.603389
 30
0.0
 10
331.924462
 20
57.021389
 30
0.0
 10
332.256469
 20
57.353389
 30
0.0
 10
332.674468
 20
57.566388
 30
0.0
 10
333.138470
 20
57.639390
 30
0.0
 10
333.602471
 20
57.566388
 30
0.0
 10
334.020470
 20
57.353389
 30
0.0
 10
334.352477
 20
57.021389
 30
0.0
 10
334.565470
 20
56.603389
 30
0.0
 10
334.638481
 20
56.139388
 30
0.0
 10
334.565470
 20
55.675389
 30
0.0
 10
334.352477
 20
55.257390
 30
0.0
 10
334.020470
 20
54.925389
 30
0.0
 10
333.602471
 20
54.712390
 30
0.0
 10
333.138470
 20
54.639391
 30
0.0
 10
332.674468
 20
54.712390
 30
0.0
 10
332.256469
 20
54.925389
 30
0.0
 10
331.924462
 20
55.257390
 30
0.0
 10
331.711469
 20
55.675389
 30
0.0
 10
331.638458
 20
56.139388
 30
0.0
  0
LWPOLYLINE
  5
190
100
AcDbEntity
  8
0
 62
7
100
AcDbPolyline
 90
21
 70
0
 10
331.638458
 20
479.139388
 30
0.0
 10
331.711469
 20
479.603390
 30
0.0
 10
331.924462
 20
480.021389
 30
0.0
 10
332.256469
 20
480.353390
 30
0.0
 10
332.674468
 20
480.566389
 30
0.0
 10
333.138470
 20
480.639388
 30
0.0
 10
333.602471
 20
480.566389
 30
0.0
 10
334.020470
 20
480.353390
 30
0.0
 10
334.352477
 20
480.021389
 30
0.0
 10
334.565470
 20
479.603390
 30
0.0
 10
334.638481
 20
479.139388
 30
0.0
 10
334.565470
 20
478.675390
 30
0.0
 10
334.352477
 20
478.257390
 30
0.0
 10
334.020470
 20
477.925390
 30
0.0
 10
333.602471
 20
477.712388
 30
0.0
 10
333.138470
 20
477.639388
 30
0.0
 10
332.674468
 20
477.712388
 30
0.0
 10
332.256469
 20
477.925390
 30
0.0
 10
331.924462
 20
478.257390
 30
0.0
 10
331.711469
 20
478.675390
 30
0.0
 10
331.638458
 20
479.139388
 30
0.0
  0
LWPOLYLINE
  5
191
100
AcDbEntity
  8
0
 62
7
100
AcDbPolyline
 90
21
 70
0
 10
331.656464
 20
172.484390
 30
0.0
 10
331.656464
 20
172.953389
 30
0.0
 10
331.801470
 20
173.400390
 30
0.0
 10
332.077483
 20
173.779389
 30
0.0
 10
332.457467
 20
174.056390
 30
0.0
 10
332.903463
 20
174.201390
 30
0.0
 10
333.373476
 20
174.201390
 30
0.0
 10
333.819472
 20
174.056390
 30
0.0
 10
334.199484
 20
173.779389
 30
0.0
 10
334.475469
 20
173.400390
 30
0.0
 10
334.620475
 20
172.953389
 30
0.0
 10
334.620475
 20
172.484390
 30
0.0
 10
334.475469
 20
172.038388
 30
0.0
 10
334.199484
 20
171.658390
 30
0.0
 10
333.819472
 20
171.382388
 30
0.0
 10
333.373476
 20
171.237388
 30
0.0
 10
332.903463
 20
171.237388
 30
0.0
 10
332.457467
 20
171.382388
 30
0.0
 10
332.077483
 20
171.658390
 30
0.0
 10
331.801470
 20
172.038388
 30
0.0
 10
331.656464
 20
172.484390
 30
0.0
  0
LWPOLYLINE
  5
192
100
AcDbEntity
  8
0
 62
7
100
AcDbPolyline
 90
21
 70
0
 10
331.656464
 20
216.325388
 30
0.0
 10
331.656464
 20
216.794388
 30
0.0
 10
331.801470
 20
217.240389
 30
0.0
 10
332.077483
 20
217.620390
 30
0.0
 10
332.457467
 20
217.896389
 30
0.0
 10
332.903463
 20
218.041389
 30
0.0
 10
333.373476
 20
218.041389
 30
0.0
 10
333.819472
 20
217.896389
 30
0.0
 10
334.199484
 20
217.620390
 30
0.0
 10
334.475469
 20
217.240389
 30
0.0
 10
334.620475
 20
216.794388
 30
0.0
 10
334.620475
 20
216.325388
 30
0.0
 10
334.475469
 20
215.878390
 30
0.0
 10
334.199484
 20
215.499388
 30
0.0
 10
333.819472
 20
215.222390
 30
0.0
 10
333.373476
 20
215.077390
 30
0.0
 10
332.903463
 20
215.077390
 30
0.0
 10
332.457467
 20
215.222390
 30
0.0
 10
332.077483
 20
215.499388
 30
0.0
 10
331.801470
 20
215.878390
 30
0.0
 10
331.656464
 20
216.325388
 30
0.0
  0
LWPOLYLINE
  5
193
100
AcDbEntity
  8
0
 62
7
100
AcDbPolyline
 90
21
 70
0
 10
336.138464
 20
342.639390
 30
0.0
 10
336.236479
 20
343.257389
 30
0.0
 10
336.520480
 20
343.815388
 30
0.0
 10
336.962468
 20
344.257390
 30
0.0
 10
337.520478
 20
344.541390
 30
0.0
 10
338.138460
 20
344.639389
 30
0.0
 10
338.756470
 20
344.541390
 30
0.0
 10
339.314480
 20
344.257390
 30
0.0
 10
339.756468
 20
343.815388
 30
0.0
 10
340.040468
 20
343.257389
 30
0.0
 10
340.138484
 20
342.639390
 30
0.0
 10
340.040468
 20
342.021389
 30
0.0
 10
339.756468
 20
341.463390
 30
0.0
 10
339.314480
 20
341.021388
 30
0.0
 10
338.756470
 20
340.737390
 30
0.0
 10
338.138460
 20
340.639389
 30
0.0
 10
337.520478
 20
340.737390
 30
0.0
 10
336.962468
 20
341.021388
 30
0.0
 10
336.520480
 20
341.463390
 30
0.0
 10
336.236479
 20
342.021389
 30
0.0
 10
336.138464
 20
342.639390
 30
0.0
  0
LWPOLYLINE
  5
194
100
AcDbEntity
  8
0
 62
7
100
AcDbPolyline
 90
5
 70
0
 10
338.138460
 20
119.889389
 30
0.0
 10
338.138460
 20
126.389390
 30
0.0
 10
343.138478
 20
126.389390
 30
0.0
 10
343.138478
 20
119.889389
 30
0.0
 10
338.138460
 20
119.889389
 30
0.0
  0
LWPOLYLINE
  5
195
100
AcDbEntity
  8
0
 62
7
100
AcDbPolyline
 90
5
 70
0
 10
338.138460
 20
408.889389
 30
0.0
 10
338.138460
 20
415.389390
 30
0.0
 10
343.138478
 20
415.389390
 30
0.0
 10
343.138478
 20
408.889389
 30
0.0
 10
338.138460
 20
408.889389
 30
0.0
  0
LWPOLYLINE
  5
196
100
AcDbEntity
  8
0
 62
7
100
AcDbPolyline
 90
21
 70
0
 10
339.638471
 20
102.139389
 30
0.0
 10
339.711482
 20
102.603390
 30
0.0
 10
339.924475
 20
103.021390
 30
0.0
 10
340.256481
 20
103.353390
 30
0.0
 10
340.674480
 20
103.566389
 30
0.0
 10
341.138482
 20
103.639389
 30
0.0
 10
341.602483
 20
103.566389
 30
0.0
 10
342.020483
 20
103.353390
 30
0.0
 10
342.352461
 20
103.021390
 30
0.0
 10
342.565482
 20
102.603390
 30
0.0
 10
342.638465
 20
102.139389
 30
0.0
 10
342.565482
 20
101.675390
 30
0.0
 10
342.352461
 20
101.257388
 30
0.0
 10
342.020483
 20
100.925390
 30
0.0
 10
341.602483
 20
100.712389
 30
0.0
 10
341.138482
 20
100.639389
 30
0.0
 10
340.674480
 20
100.712389
 30
0.0
 10
340.256481
 20
100.925390
 30
0.0
 10
339.924475
 20
101.257388
 30
0.0
 10
339.711482
 20
101.675390
 30
0.0
 10
339.638471
 20
102.139389
 30
0.0
  0
LWPOLYLINE
  5
197
100
AcDbEntity
  8
0
 62
7
100
AcDbPolyline
 90
21
 70
0
 10
339.638471
 20
433.139390
 30
0.0
 10
339.711482
 20
433.603389
 30
0.0
 10
339.924475
 20
434.021388
 30
0.0
 10
340.256481
 20
434.353389
 30
0.0
 10
340.674480
 20
434.566390
 30
0.0
 10
341.138482
 20
434.639390
 30
0.0
 10
341.602483
 20
434.566390
 30
0.0
 10
342.020483
 20
434.353389
 30
0.0
 10
342.352461
 20
434.021388
 30
0.0
 10
342.565482
 20
433.603389
 30
0.0
 10
342.638465
 20
433.139390
 30
0.0
 10
342.565482
 20
432.675388
 30
0.0
 10
342.352461
 20
432.257389
 30
0.0
 10
342.020483
 20
431.925389
 30
0.0
 10
341.602483
 20
431.712390
 30
0.0
 10
341.138482
 20
431.639390
 30
0.0
 10
340.674480
 20
431.712390
 30
0.0
 10
340.256481
 20
431.925389
 30
0.0
 10
339.924475
 20
432.257389
 30
0.0
 10
339.711482
 20
432.675388
 30
0.0
 10
339.638471
 20
433.139390
 30
0.0
  0
LWPOLYLINE
  5
198
100
AcDbEntity
  8
0
 62
7
100
AcDbPolyline
 90
31
 70
0
 10
343.248460
 20
340.548389
 30
0.0
 10
343.248460
 20
344.730389
 30
0.0
 10
344.117478
 20
348.819388
 30
0.0
 10
345.817472
 20
352.639390
 30
0.0
 10
348.275458
 20
356.022388
 30
0.0
 10
351.382471
 20
358.819388
 30
0.0
 10
355.003467
 20
360.910389
 30
0.0
 10
358.980486
 20
362.202389
 30
0.0
 10
363.138466
 20
362.639390
 30
0.0
 10
367.296474
 20
362.202389
 30
0.0
 10
371.273465
 20
360.910389
 30
0.0
 10
374.894461
 20
358.819388
 30
0.0
 10
378.001474
 20
356.022388
 30
0.0
 10
380.459460
 20
352.639390
 30
0.0
 10
382.159482
 20
348.819388
 30
0.0
 10
383.028472
 20
344.730389
 30
0.0
 10
383.028472
 20
340.548389
 30
0.0
 10
382.159482
 20
336.459390
 30
0.0
 10
380.459460
 20
332.639388
 30
0.0
 10
378.001474
 20
329.256390
 30
0.0
 10
374.894461
 20
326.459390
 30
0.0
 10
371.273465
 20
324.368389
 30
0.0
 10
367.296474
 20
323.076389
 30
0.0
 10
363.138466
 20
322.639388
 30
0.0
 10
358.980486
 20
323.076389
 30
0.0
 10
355.003467
 20
324.368389
 30
0.0
 10
351.382471
 20
326.459390
 30
0.0
 10
348.275458
 20
329.256390
 30
0.0
 10
345.817472
 20
332.639388
 30
0.0
 10
344.117478
 20
336.459390
 30
0.0
 10
343.248460
 20
340.548389
 30
0.0
  0
LWPOLYLINE
  5
199
100
AcDbEntity
  8
0
 62
7
100
AcDbPolyline
 90
21
 70
0
 10
353.576467
 20
194.404389
 30
0.0
 10
353.576467
 20
194.874388
 30
0.0
 10
353.721472
 20
195.320389
 30
0.0
 10
353.998474
 20
195.700390
 30
0.0
 10
354.377470
 20
195.976390
 30
0.0
 10
354.824482
 20
196.121390
 30
0.0
 10
355.293478
 20
196.121390
 30
0.0
 10
355.739474
 20
195.976390
 30
0.0
 10
356.119486
 20
195.700390
 30
0.0
 10
356.395472
 20
195.320389
 30
0.0
 10
356.540477
 20
194.874388
 30
0.0
 10
356.540477
 20
194.404389
 30
0.0
 10
356.395472
 20
193.958388
 30
0.0
 10
356.119486
 20
193.578390
 30
0.0
 10
355.739474
 20
193.302388
 30
0.0
 10
355.293478
 20
193.157390
 30
0.0
 10
354.824482
 20
193.157390
 30
0.0
 10
354.377470
 20
193.302388
 30
0.0
 10
353.998474
 20
193.578390
 30
0.0
 10
353.721472
 20
193.958388
 30
0.0
 10
353.576467
 20
194.404389
 30
0.0
  0
LWPOLYLINE
  5
19a
100
AcDbEntity
  8
0
 62
7
100
AcDbPolyline
 90
21
 70
0
 10
359.160459
 20
220.057390
 30
0.0
 10
359.484478
 20
221.266391
 30
0.0
 10
360.166468
 20
222.315388
 30
0.0
 10
361.138470
 20
223.103389
 30
0.0
 10
362.306475
 20
223.551389
 30
0.0
 10
363.556465
 20
223.617389
 30
0.0
 10
364.765477
 20
223.293390
 30
0.0
 10
365.814469
 20
222.611388
 30
0.0
 10
366.602462
 20
221.639390
 30
0.0
 10
367.050461
 20
220.471390
 30
0.0
 10
367.116473
 20
219.221389
 30
0.0
 10
366.792482
 20
218.012388
 30
0.0
 10
366.110464
 20
216.963388
 30
0.0
 10
365.138462
 20
216.175390
 30
0.0
 10
363.970485
 20
215.727390
 30
0.0
 10
362.720467
 20
215.661390
 30
0.0
 10
361.511483
 20
215.985389
 30
0.0
 10
360.462463
 20
216.667390
 30
0.0
 10
359.674470
 20
217.639389
 30
0.0
 10
359.226471
 20
218.807388
 30
0.0
 10
359.160459
 20
220.057390
 30
0.0
  0
LWPOLYLINE
  5
19b
100
AcDbEntity
  8
0
 62
7
100
AcDbPolyline
 90
21
 70
0
 10
361.638483
 20
307.639389
 30
0.0
 10
361.711466
 20
308.103389
 30
0.0
 10
361.924459
 20
308.521389
 30
0.0
 10
362.256465
 20
308.853389
 30
0.0
 10
362.674464
 20
309.066389
 30
0.0
 10
363.138466
 20
309.139389
 30
0.0
 10
363.602468
 20
309.066389
 30
0.0
 10
364.020467
 20
308.853389
 30
0.0
 10
364.352473
 20
308.521389
 30
0.0
 10
364.565466
 20
308.103389
 30
0.0
 10
364.638477
 20
307.639389
 30
0.0
 10
364.565466
 20
307.175389
 30
0.0
 10
364.352473
 20
306.757389
 30
0.0
 10
364.020467
 20
306.425389
 30
0.0
 10
363.602468
 20
306.212389
 30
0.0
 10
363.138466
 20
306.139389
 30
0.0
 10
362.674464
 20
306.212389
 30
0.0
 10
362.256465
 20
306.425389
 30
0.0
 10
361.924459
 20
306.757389
 30
0.0
 10
361.711466
 20
307.175389
 30
0.0
 10
361.638483
 20
307.639389
 30
0.0
  0
LWPOLYLINE
  5
19c
100
AcDbEntity
  8
0
 62
7
100
AcDbPolyline
 90
21
 70
0
 10
361.638483
 20
377.639388
 30
0.0
 10
361.711466
 20
378.103390
 30
0.0
 10
361.924459
 20
378.521389
 30
0.0
 10
362.256465
 20
378.853390
 30
0.0
 10
362.674464
 20
379.066388
 30
0.0
 10
363.138466
 20
379.139388
 30
0.0
 10
363.602468
 20
379.066388
 30
0.0
 10
364.020467
 20
378.853390
 30
0.0
 10
364.352473
 20
378.521389
 30
0.0
 10
364.565466
 20
378.103390
 30
0.0
 10
364.638477
 20
377.639388
 30
0.0
 10
364.565466
 20
377.175389
 30
0.0
 10
364.352473
 20
376.757390
 30
0.0
 10
364.020467
 20
376.425389
 30
0.0
 10
363.602468
 20
376.212388
 30
0.0
 10
363.138466
 20
376.139388
 30
0.0
 10
362.674464
 20
376.212388
 30
0.0
 10
362.256465
 20
376.425389
 30
0.0
 10
361.924459
 20
376.757390
 30
0.0
 10
361.711466
 20
377.175389
 30
0.0
 10
361.638483
 20
377.639388
 30
0.0
  0
LWPOLYLINE
  5
19d
100
AcDbEntity
  8
0
 62
7
100
AcDbPolyline
 90
21
 70
0
 10
386.138476
 20
342.639390
 30
0.0
 10
386.236464
 20
343.257389
 30
0.0
 10
386.520464
 20
343.815388
 30
0.0
 10
386.962481
 20
344.257390
 30
0.0
 10
387.520462
 20
344.541390
 30
0.0
 10
388.138472
 20
344.639389
 30
0.0
 10
388.756483
 20
344.541390
 30
0.0
 10
389.314464
 20
344.257390
 30
0.0
 10
389.756481
 20
343.815388
 30
0.0
 10
390.040481
 20
343.257389
 30
0.0
 10
390.138468
 20
342.639390
 30
0.0
 10
390.040481
 20
342.021389
 30
0.0
 10
389.756481
 20
341.463390
 30
0.0
 10
389.314464
 20
341.021388
 30
0.0
 10
388.756483
 20
340.737390
 30
0.0
 10
388.138472
 20
340.639389
 30
0.0
 10
387.520462
 20
340.737390
 30
0.0
 10
386.962481
 20
341.021388
 30
0.0
 10
386.520464
 20
341.463390
 30
0.0
 10
386.236464
 20
342.021389
 30
0.0
 10
386.138476
 20
342.639390
 30
0.0
  0
LWPOLYLINE
  5
19e
100
AcDbEntity
  8
0
 62
7
100
AcDbPolyline
 90
21
 70
0
 10
389.160484
 20
170.057389
 30
0.0
 10
389.484475
 20
171.266389
 30
0.0
 10
390.166465
 20
172.315389
 30
0.0
 10
391.138466
 20
173.103388
 30
0.0
 10
392.306471
 20
173.551390
 30
0.0
 10
393.556462
 20
173.617388
 30
0.0
 10
394.765474
 20
173.293388
 30
0.0
 10
395.814465
 20
172.611390
 30
0.0
 10
396.602486
 20
171.639388
 30
0.0
 10
397.050486
 20
170.471389
 30
0.0
 10
397.116469
 20
169.221390
 30
0.0
 10
396.792478
 20
168.012389
 30
0.0
 10
396.110460
 20
166.963389
 30
0.0
 10
395.138458
 20
166.175388
 30
0.0
 10
393.970482
 20
165.727388
 30
0.0
 10
392.720463
 20
165.661388
 30
0.0
 10
391.511480
 20
165.985390
 30
0.0
 10
390.462460
 20
166.667389
 30
0.0
 10
389.674467
 20
167.639390
 30
0.0
 10
389.226467
 20
168.807390
 30
0.0
 10
389.160484
 20
170.057389
 30
0.0
  0
LWPOLYLINE
  5
19f
100
AcDbEntity
  8
0
 62
7
100
AcDbPolyline
 90
21
 70
0
 10
398.638466
 20
316.639389
 30
0.0
 10
398.711476
 20
317.103389
 30
0.0
 10
398.924470
 20
317.521389
 30
0.0
 10
399.256476
 20
317.853389
 30
0.0
 10
399.674475
 20
318.066389
 30
0.0
 10
400.138477
 20
318.139389
 30
0.0
 10
400.602478
 20
318.066389
 30
0.0
 10
401.020478
 20
317.853389
 30
0.0
 10
401.352484
 20
317.521389
 30
0.0
 10
401.565477
 20
317.103389
 30
0.0
 10
401.638460
 20
316.639389
 30
0.0
 10
401.565477
 20
316.175389
 30
0.0
 10
401.352484
 20
315.757389
 30
0.0
 10
401.020478
 20
315.425389
 30
0.0
 10
400.602478
 20
315.212389
 30
0.0
 10
400.138477
 20
315.139389
 30
0.0
 10
399.674475
 20
315.212389
 30
0.0
 10
399.256476
 20
315.425389
 30
0.0
 10
398.924470
 20
315.757389
 30
0.0
 10
398.711476
 20
316.175389
 30
0.0
 10
398.638466
 20
316.639389
 30
0.0
  0
LWPOLYLINE
  5
1a0
100
AcDbEntity
  8
0
 62
7
100
AcDbPolyline
 90
21
 70
0
 10
398.638466
 20
368.639389
 30
0.0
 10
398.711476
 20
369.103388
 30
0.0
 10
398.924470
 20
369.521390
 30
0.0
 10
399.256476
 20
369.853388
 30
0.0
 10
399.674475
 20
370.066389
 30
0.0
 10
400.138477
 20
370.139389
 30
0.0
 10
400.602478
 20
370.066389
 30
0.0
 10
401.020478
 20
369.853388
 30
0.0
 10
401.352484
 20
369.521390
 30
0.0
 10
401.565477
 20
369.103388
 30
0.0
 10
401.638460
 20
368.639389
 30
0.0
 10
401.565477
 20
368.175390
 30
0.0
 10
401.352484
 20
367.757388
 30
0.0
 10
401.020478
 20
367.425388
 30
0.0
 10
400.602478
 20
367.212389
 30
0.0
 10
400.138477
 20
367.139389
 30
0.0
 10
399.674475
 20
367.212389
 30
0.0
 10
399.256476
 20
367.425388
 30
0.0
 10
398.924470
 20
367.757388
 30
0.0
 10
398.711476
 20
368.175390
 30
0.0
 10
398.638466
 20
368.639389
 30
0.0
  0
LWPOLYLINE
  5
1a1
100
AcDbEntity
  8
0
 62
7
100
AcDbPolyline
 90
5
 70
0
 10
431.888477
 20
136.139388
 30
0.0
 10
431.888477
 20
141.139390
 30
0.0
 10
438.388478
 20
141.139390
 30
0.0
 10
438.388478
 20
136.139388
 30
0.0
 10
431.888477
 20
136.139388
 30
0.0
  0
LWPOLYLINE
  5
1a2
100
AcDbEntity
  8
0
 62
7
100
AcDbPolyline
 90
5
 70
0
 10
431.888477
 20
161.139389
 30
0.0
 10
431.888477
 20
166.139388
 30
0.0
 10
438.388478
 20
166.139388
 30
0.0
 10
438.388478
 20
161.139389
 30
0.0
 10
431.888477
 20
161.139389
 30
0.0
  0
LWPOLYLINE
  5
1a3
100
AcDbEntity
  8
0
 62
7
100
AcDbPolyline
 90
5
 70
0
 10
431.888477
 20
252.639390
 30
0.0
 10
431.888477
 20
257.639388
 30
0.0
 10
438.388478
 20
257.639388
 30
0.0
 10
438.388478
 20
252.639390
 30
0.0
 10
431.888477
 20
252.639390
 30
0.0
  0
LWPOLYLINE
  5
1a4
100
AcDbEntity
  8
0
 62
7
100
AcDbPolyline
 90
5
 70
0
 10
431.888477
 20
277.639389
 30
0.0
 10
431.888477
 20
282.639389
 30
0.0
 10
438.388478
 20
282.639389
 30
0.0
 10
438.388478
 20
277.639389
 30
0.0
 10
431.888477
 20
277.639389
 30
0.0
  0
LWPOLYLINE
  5
1a5
100
AcDbEntity
  8
0
 62
7
100
AcDbPolyline
 90
5
 70
0
 10
431.888477
 20
369.139388
 30
0.0
 10
431.888477
 20
374.139389
 30
0.0
 10
438.388478
 20
374.139389
 30
0.0
 10
438.388478
 20
369.139388
 30
0.0
 10
431.888477
 20
369.139388
 30
0.0
  0
LWPOLYLINE
  5
1a6
100
AcDbEntity
  8
0
 62
7
100
AcDbPolyline
 90
5
 70
0
 10
431.888477
 20
394.139389
 30
0.0
 10
431.888477
 20
399.139390
 30
0.0
 10
438.388478
 20
399.139390
 30
0.0
 10
438.388478
 20
394.139389
 30
0.0
 10
431.888477
 20
394.139389
 30
0.0
  0
LWPOLYLINE
  5
1a7
100
AcDbEntity
  8
0
 62
7
100
AcDbPolyline
 90
21
 70
0
 10
433.638480
 20
151.139390
 30
0.0
 10
433.711463
 20
151.603388
 30
0.0
 10
433.924484
 20
152.021390
 30
0.0
 10
434.256462
 20
152.353388
 30
0.0
 10
434.674462
 20
152.566390
 30
0.0
 10
435.138463
 20
152.639389
 30
0.0
 10
435.602465
 20
152.566390
 30
0.0
 10
436.020464
 20
152.353388
 30
0.0
 10
436.352470
 20
152.021390
 30
0.0
 10
436.565463
 20
151.603388
 30
0.0
 10
436.638474
 20
151.139390
 30
0.0
 10
436.565463
 20
150.675388
 30
0.0
 10
436.352470
 20
150.257389
 30
0.0
 10
436.020464
 20
149.925388
 30
0.0
 10
435.602465
 20
149.712389
 30
0.0
 10
435.138463
 20
149.639390
 30
0.0
 10
434.674462
 20
149.712389
 30
0.0
 10
434.256462
 20
149.925388
 30
0.0
 10
433.924484
 20
150.257389
 30
0.0
 10
433.711463
 20
150.675388
 30
0.0
 10
433.638480
 20
151.139390
 30
0.0
  0
LWPOLYLINE
  5
1a8
100
AcDbEntity
  8
0
 62
7
100
AcDbPolyline
 90
21
 70
0
 10
433.638480
 20
267.639389
 30
0.0
 10
433.711463
 20
268.103389
 30
0.0
 10
433.924484
 20
268.521389
 30
0.0
 10
434.256462
 20
268.853389
 30
0.0
 10
434.674462
 20
269.066389
 30
0.0
 10
435.138463
 20
269.139389
 30
0.0
 10
435.602465
 20
269.066389
 30
0.0
 10
436.020464
 20
268.853389
 30
0.0
 10
436.352470
 20
268.521389
 30
0.0
 10
436.565463
 20
268.103389
 30
0.0
 10
436.638474
 20
267.639389
 30
0.0
 10
436.565463
 20
267.175389
 30
0.0
 10
436.352470
 20
266.757389
 30
0.0
 10
436.020464
 20
266.425389
 30
0.0
 10
435.602465
 20
266.212389
 30
0.0
 10
435.138463
 20
266.139389
 30
0.0
 10
434.674462
 20
266.212389
 30
0.0
 10
434.256462
 20
266.425389
 30
0.0
 10
433.924484
 20
266.757389
 30
0.0
 10
433.711463
 20
267.175389
 30
0.0
 10
433.638480
 20
267.639389
 30
0.0
  0
LWPOLYLINE
  5
1a9
100
AcDbEntity
  8
0
 62
7
100
AcDbPolyline
 90
21
 70
0
 10
433.638480
 20
384.139389
 30
0.0
 10
433.711463
 20
384.603388
 30
0.0
 10
433.924484
 20
385.021390
 30
0.0
 10
434.256462
 20
385.353388
 30
0.0
 10
434.674462
 20
385.566389
 30
0.0
 10
435.138463
 20
385.639389
 30
0.0
 10
435.602465
 20
385.566389
 30
0.0
 10
436.020464
 20
385.353388
 30
0.0
 10
436.352470
 20
385.021390
 30
0.0
 10
436.565463
 20
384.603388
 30
0.0
 10
436.638474
 20
384.139389
 30
0.0
 10
436.565463
 20
383.675388
 30
0.0
 10
436.352470
 20
383.257388
 30
0.0
 10
436.020464
 20
382.925391
 30
0.0
 10
435.602465
 20
382.712389
 30
0.0
 10
435.138463
 20
382.639389
 30
0.0
 10
434.674462
 20
382.712389
 30
0.0
 10
434.256462
 20
382.925391
 30
0.0
 10
433.924484
 20
383.257388
 30
0.0
 10
433.711463
 20
383.675388
 30
0.0
 10
433.638480
 20
384.139389
 30
0.0
  0
LWPOLYLINE
  5
1aa
100
AcDbEntity
  8
0
 62
7
100
AcDbPolyline
 90
33
 70
0
 10
449.138463
 20
259.639390
 30
0.0
 10
449.138463
 20
275.639389
 30
0.0
 10
449.225472
 20
276.471389
 30
0.0
 10
449.484468
 20
277.266389
 30
0.0
 10
449.902467
 20
277.990389
 30
0.0
 10
450.461465
 20
278.612389
 30
0.0
 10
451.138459
 20
279.103389
 30
0.0
 10
451.902463
 20
279.443389
 30
0.0
 10
452.720484
 20
279.617389
 30
0.0
 10
453.556483
 20
279.617389
 30
0.0
 10
454.374476
 20
279.443389
 30
0.0
 10
455.138480
 20
279.103389
 30
0.0
 10
455.815474
 20
278.612389
 30
0.0
 10
456.374472
 20
277.990389
 30
0.0
 10
456.792471
 20
277.266389
 30
0.0
 10
457.051466
 20
276.471389
 30
0.0
 10
457.138476
 20
275.639389
 30
0.0
 10
457.138476
 20
259.639390
 30
0.0
 10
457.051466
 20
258.807390
 30
0.0
 10
456.792471
 20
258.012390
 30
0.0
 10
456.374472
 20
257.288388
 30
0.0
 10
455.815474
 20
256.666388
 30
0.0
 10
455.138480
 20
256.175389
 30
0.0
 10
454.374476
 20
255.835390
 30
0.0
 10
453.556483
 20
255.661389
 30
0.0
 10
452.720484
 20
255.661389
 30
0.0
 10
451.902463
 20
255.835390
 30
0.0
 10
451.138459
 20
256.175389
 30
0.0
 10
450.461465
 20
256.666388
 30
0.0
 10
449.902467
 20
257.288388
 30
0.0
 10
449.484468
 20
258.012390
 30
0.0
 10
449.225472
 20
258.807390
 30
0.0
 10
449.138463
 20
259.639390
 30
0.0
  0
LWPOLYLINE
  5
1ab
100
AcDbEntity
  8
0
 62
7
100
AcDbPolyline
 90
5
 70
0
 10
451.138459
 20
119.889389
 30
0.0
 10
451.138459
 20
126.389390
 30
0.0
 10
456.138478
 20
126.389390
 30
0.0
 10
456.138478
 20
119.889389
 30
0.0
 10
451.138459
 20
119.889389
 30
0.0
  0
LWPOLYLINE
  5
1ac
100
AcDbEntity
  8
0
 62
7
100
AcDbPolyline
 90
5
 70
0
 10
451.138459
 20
408.889389
 30
0.0
 10
451.138459
 20
415.389390
 30
0.0
 10
456.138478
 20
415.389390
 30
0.0
 10
456.138478
 20
408.889389
 30
0.0
 10
451.138459
 20
408.889389
 30
0.0
  0
LWPOLYLINE
  5
1ad
100
AcDbEntity
  8
0
 62
7
100
AcDbPolyline
 90
21
 70
0
 10
464.638475
 20
123.139389
 30
0.0
 10
464.711486
 20
123.603388
 30
0.0
 10
464.924479
 20
124.021390
 30
0.0
 10
465.256485
 20
124.353391
 30
0.0
 10
465.674484
 20
124.566389
 30
0.0
 10
466.138486
 20
124.639389
 30
0.0
 10
466.602459
 20
124.566389
 30
0.0
 10
467.020458
 20
124.353391
 30
0.0
 10
467.352465
 20
124.021390
 30
0.0
 10
467.565486
 20
123.603388
 30
0.0
 10
467.638469
 20
123.139389
 30
0.0
 10
467.565486
 20
122.675390
 30
0.0
 10
467.352465
 20
122.257388
 30
0.0
 10
467.020458
 20
121.925390
 30
0.0
 10
466.602459
 20
121.712389
 30
0.0
 10
466.138486
 20
121.639389
 30
0.0
 10
465.674484
 20
121.712389
 30
0.0
 10
465.256485
 20
121.925390
 30
0.0
 10
464.924479
 20
122.257388
 30
0.0
 10
464.711486
 20
122.675390
 30
0.0
 10
464.638475
 20
123.139389
 30
0.0
  0
LWPOLYLINE
  5
1ae
100
AcDbEntity
  8
0
 62
7
100
AcDbPolyline
 90
21
 70
0
 10
464.638475
 20
412.139390
 30
0.0
 10
464.711486
 20
412.603388
 30
0.0
 10
464.924479
 20
413.021388
 30
0.0
 10
465.256485
 20
413.353388
 30
0.0
 10
465.674484
 20
413.566390
 30
0.0
 10
466.138486
 20
413.639389
 30
0.0
 10
466.602459
 20
413.566390
 30
0.0
 10
467.020458
 20
413.353388
 30
0.0
 10
467.352465
 20
413.021388
 30
0.0
 10
467.565486
 20
412.603388
 30
0.0
 10
467.638469
 20
412.139390
 30
0.0
 10
467.565486
 20
411.675388
 30
0.0
 10
467.352465
 20
411.257389
 30
0.0
 10
467.020458
 20
410.925388
 30
0.0
 10
466.602459
 20
410.712389
 30
0.0
 10
466.138486
 20
410.639390
 30
0.0
 10
465.674484
 20
410.712389
 30
0.0
 10
465.256485
 20
410.925388
 30
0.0
 10
464.924479
 20
411.257389
 30
0.0
 10
464.711486
 20
411.675388
 30
0.0
 10
464.638475
 20
412.139390
 30
0.0
  0
LWPOLYLINE
  5
1af
100
AcDbEntity
  8
0
 62
7
100
AcDbPolyline
 90
5
 70
0
 10
476.138466
 20
119.889389
 30
0.0
 10
476.138466
 20
126.389390
 30
0.0
 10
481.138484
 20
126.389390
 30
0.0
 10
481.138484
 20
119.889389
 30
0.0
 10
476.138466
 20
119.889389
 30
0.0
  0
LWPOLYLINE
  5
1b0
100
AcDbEntity
  8
0
 62
7
100
AcDbPolyline
 90
5
 70
0
 10
476.138466
 20
408.889389
 30
0.0
 10
476.138466
 20
415.389390
 30
0.0
 10
481.138484
 20
415.389390
 30
0.0
 10
481.138484
 20
408.889389
 30
0.0
 10
476.138466
 20
408.889389
 30
0.0
  0
ENDSEC
  0
SECTION
  2
OBJECTS
  0
DICTIONARY
  5
C
330
0
100
AcDbDictionary
  3
ACAD_GROUP
350
D
  3
ACAD_MLINESTYLE
350
17
  0
DICTIONARY
  5
D
330
C
100
AcDbDictionary
  0
DICTIONARY
  5
1A
330
C
100
AcDbDictionary
  0
DICTIONARY
  5
17
330
C
100
AcDbDictionary
  3
STANDARD
350
18
  0
DICTIONARY
  5
19
330
C
100
AcDbDictionary
  0
ENDSEC
  0
EOF
