999
DXF created by Inkscape
  0
SECTION
  2
HEADER
  9
$ACADVER
  1
AC1014
  9
$HANDSEED
  5
FFFF
  9
$MEASUREMENT
 70
     1
  0
ENDSEC
  0
SECTION
  2
TABLES
  0
TABLE
  2
VPORT
  5
8
330
0
100
AcDbSymbolTable
 70
     4
  0
VPORT
  5
2E
330
8
100
AcDbSymbolTableRecord
100
AcDbViewportTableRecord
  2
*ACTIVE
 70
     0
 10
0.0
 20
0.0
 11
1.0
 21
1.0
 12
210.0
 22
148.5
 13
0.0
 23
0.0
 14
10.0
 24
10.0
 15
10.0
 25
10.0
 16
0.0
 26
0.0
 36
1.0
 17
0.0
 27
0.0
 37
0.0
 40
341.0
 41
1.24
 42
50.0
 43
0.0
 44
0.0
 50
0.0
 51
0.0
 71
     0
 72
   100
 73
     1
 74
     3
 75
     0
 76
     0
 77
     0
 78
     0
  0
ENDTAB
  0
TABLE
  2
LTYPE
  5
5
330
0
100
AcDbSymbolTable
 70
     1
  0
LTYPE
  5
14
330
5
100
AcDbSymbolTableRecord
100
AcDbLinetypeTableRecord
  2
BYBLOCK
 70
     0
  3

 72
    65
 73
     0
 40
0.0
  0
LTYPE
  5
15
330
5
100
AcDbSymbolTableRecord
100
AcDbLinetypeTableRecord
  2
BYLAYER
 70
     0
  3

 72
    65
 73
     0
 40
0.0
  0
LTYPE
  5
16
330
5
100
AcDbSymbolTableRecord
100
AcDbLinetypeTableRecord
  2
CONTINUOUS
 70
     0
  3
Solid line
 72
    65
 73
     0
 40
0.0
  0
ENDTAB
  0
TABLE
  2
LAYER
  5
2
100
AcDbSymbolTable
 70
1
  0
LAYER
  5
50
100
AcDbSymbolTableRecord
100
AcDbLayerTableRecord
  2
0
 70
0
  6
CONTINUOUS
  0
ENDTAB
  0
TABLE
  2
STYLE
  5
3
330
0
100
AcDbSymbolTable
 70
     1
  0
STYLE
  5
11
330
3
100
AcDbSymbolTableRecord
100
AcDbTextStyleTableRecord
  2
STANDARD
 70
     0
 40
0.0
 41
1.0
 50
0.0
 71
     0
 42
2.5
  3
txt
  4

  0
ENDTAB
  0
TABLE
  2
VIEW
  5
6
330
0
100
AcDbSymbolTable
 70
     0
  0
ENDTAB
  0
TABLE
  2
UCS
  5
7
330
0
100
AcDbSymbolTable
 70
     0
  0
ENDTAB
  0
TABLE
  2
APPID
  5
9
330
0
100
AcDbSymbolTable
 70
     2
  0
APPID
  5
12
330
9
100
AcDbSymbolTableRecord
100
AcDbRegAppTableRecord
  2
ACAD
 70
     0
  0
ENDTAB
  0
TABLE
  2
DIMSTYLE
  5
A
330
0
100
AcDbSymbolTable
 70
     1
  0
DIMSTYLE
105
27
330
A
100
AcDbSymbolTableRecord
100
AcDbDimStyleTableRecord
  2
ISO-25
 70
     0
  3

  4

  5

  6

  7

 40
1.0
 41
2.5
 42
0.625
 43
3.75
 44
1.25
 45
0.0
 46
0.0
 47
0.0
 48
0.0
140
2.5
141
2.5
142
0.0
143
0.03937007874016
144
1.0
145
0.0
146
1.0
147
0.625
 71
     0
 72
     0
 73
     0
 74
     0
 75
     0
 76
     0
 77
     1
 78
     8
170
     0
171
     3
172
     1
173
     0
174
     0
175
     0
176
     0
177
     0
178
     0
270
     2
271
     2
272
     2
273
     2
274
     3
340
11
275
     0
280
     0
281
     0
282
     0
283
     0
284
     8
285
     0
286
     0
287
     3
288
     0
  0
ENDTAB
  0
TABLE
  2
BLOCK_RECORD
  5
1
330
0
100
AcDbSymbolTable
 70
     1
  0
BLOCK_RECORD
  5
1F
330
1
100
AcDbSymbolTableRecord
100
AcDbBlockTableRecord
  2
*MODEL_SPACE
  0
BLOCK_RECORD
  5
1B
330
1
100
AcDbSymbolTableRecord
100
AcDbBlockTableRecord
  2
*PAPER_SPACE
  0
ENDTAB
  0
ENDSEC
  0
SECTION
  2
BLOCKS
  0
BLOCK
  5
20
330
1F
100
AcDbEntity
  8
0
100
AcDbBlockBegin
  2
*MODEL_SPACE
 70
     0
 10
0.0
 20
0.0
 30
0.0
  3
*MODEL_SPACE
  1

  0
ENDBLK
  5
21
330
1F
100
AcDbEntity
  8
0
100
AcDbBlockEnd
  0
BLOCK
  5
1C
330
1B
100
AcDbEntity
 67
     1
  8
0
100
AcDbBlockBegin
  2
*PAPER_SPACE
  1

  0
ENDBLK
  5
1D
330
1B
100
AcDbEntity
 67
     1
  8
0
100
AcDbBlockEnd
  0
ENDSEC
  0
SECTION
  2
ENTITIES
  0
LWPOLYLINE
  5
100
100
AcDbEntity
  8
0
 62
7
100
AcDbPolyline
 90
30
 70
0
 10
0.139861
 20
57.143472
 30
0.0
 10
0.139861
 20
63.143471
 30
0.0
 10
13.139861
 20
63.143471
 30
0.0
 10
13.139861
 20
63.231471
 30
0.0
 10
13.621861
 20
63.172473
 30
0.0
 10
15.411861
 20
63.851471
 30
0.0
 10
16.681861
 20
65.284471
 30
0.0
 10
17.139861
 20
67.143472
 30
0.0
 10
16.681861
 20
69.002473
 30
0.0
 10
15.411861
 20
70.435473
 30
0.0
 10
13.621861
 20
71.114471
 30
0.0
 10
13.139861
 20
71.055473
 30
0.0
 10
13.139861
 20
71.143472
 30
0.0
 10
0.139861
 20
71.143472
 30
0.0
 10
0.139861
 20
242.143472
 30
0.0
 10
0.324861
 20
246.851472
 30
0.0
 10
0.878861
 20
251.529472
 30
0.0
 10
1.797861
 20
256.150471
 30
0.0
 10
3.076861
 20
260.684472
 30
0.0
 10
4.706861
 20
265.104472
 30
0.0
 10
6.679861
 20
269.382472
 30
0.0
 10
8.981861
 20
273.493472
 30
0.0
 10
63.058861
 20
357.302472
 30
0.0
 10
63.063857
 20
357.308483
 30
0.0
 10
63.068858
 20
357.314483
 30
0.0
 10
63.080855
 20
357.324462
 30
0.0
 10
63.094859
 20
357.332458
 30
0.0
 10
63.108860
 20
357.338483
 30
0.0
 10
63.123849
 20
357.342480
 30
0.0
 10
63.131847
 20
357.343600
 30
0.0
  0
LWPOLYLINE
  5
101
100
AcDbEntity
  8
0
 62
7
100
AcDbPolyline
 90
139
 70
0
 10
63.131861
 20
357.343473
 30
0.0
 10
72.139861
 20
357.343473
 30
0.0
 10
72.139861
 20
363.343472
 30
0.0
 10
77.139862
 20
363.343472
 30
0.0
 10
77.139862
 20
357.343473
 30
0.0
 10
85.639862
 20
357.343473
 30
0.0
 10
85.639862
 20
351.843473
 30
0.0
 10
84.139862
 20
351.843473
 30
0.0
 10
84.139862
 20
348.843473
 30
0.0
 10
85.639862
 20
348.843473
 30
0.0
 10
85.639862
 20
347.343473
 30
0.0
 10
88.639862
 20
347.343473
 30
0.0
 10
88.639862
 20
348.843473
 30
0.0
 10
90.139861
 20
348.843473
 30
0.0
 10
90.139861
 20
351.843473
 30
0.0
 10
88.639862
 20
351.843473
 30
0.0
 10
88.639862
 20
357.343473
 30
0.0
 10
97.139862
 20
357.343473
 30
0.0
 10
97.139862
 20
363.343472
 30
0.0
 10
102.139860
 20
363.343472
 30
0.0
 10
102.139860
 20
357.343473
 30
0.0
 10
210.139861
 20
357.343473
 30
0.0
 10
210.139861
 20
363.343472
 30
0.0
 10
215.139860
 20
363.343472
 30
0.0
 10
215.139860
 20
357.343473
 30
0.0
 10
223.639863
 20
357.343473
 30
0.0
 10
223.639863
 20
351.843473
 30
0.0
 10
222.139860
 20
351.843473
 30
0.0
 10
222.139860
 20
348.843473
 30
0.0
 10
223.639863
 20
348.843473
 30
0.0
 10
223.639863
 20
347.343473
 30
0.0
 10
226.639862
 20
347.343473
 30
0.0
 10
226.639862
 20
348.843473
 30
0.0
 10
228.139862
 20
348.843473
 30
0.0
 10
228.139862
 20
351.843473
 30
0.0
 10
226.639862
 20
351.843473
 30
0.0
 10
226.639862
 20
357.343473
 30
0.0
 10
235.139862
 20
357.343473
 30
0.0
 10
235.139862
 20
363.343472
 30
0.0
 10
240.139861
 20
363.343472
 30
0.0
 10
240.139861
 20
357.343473
 30
0.0
 10
250.139860
 20
357.343473
 30
0.0
 10
250.139860
 20
337.343473
 30
0.0
 10
249.811862
 20
334.224472
 30
0.0
 10
248.842860
 20
331.242472
 30
0.0
 10
247.274862
 20
328.526473
 30
0.0
 10
245.176861
 20
326.196472
 30
0.0
 10
242.639861
 20
324.353473
 30
0.0
 10
239.774860
 20
323.077473
 30
0.0
 10
236.707861
 20
322.425472
 30
0.0
 10
235.139862
 20
322.425472
 30
0.0
 10
235.139862
 20
322.343472
 30
0.0
 10
137.139861
 20
322.343472
 30
0.0
 10
137.139861
 20
92.143473
 30
0.0
 10
425.139866
 20
92.143473
 30
0.0
 10
425.139866
 20
92.061473
 30
0.0
 10
426.707864
 20
92.061473
 30
0.0
 10
429.774858
 20
91.409472
 30
0.0
 10
432.639865
 20
90.133472
 30
0.0
 10
435.176874
 20
88.290473
 30
0.0
 10
437.274857
 20
85.960472
 30
0.0
 10
438.842856
 20
83.244473
 30
0.0
 10
439.811866
 20
80.262473
 30
0.0
 10
440.139864
 20
77.143472
 30
0.0
 10
440.139864
 20
71.143472
 30
0.0
 10
427.139862
 20
71.143472
 30
0.0
 10
427.139862
 20
71.055473
 30
0.0
 10
425.721865
 20
70.883472
 30
0.0
 10
424.145851
 20
69.795472
 30
0.0
 10
423.255863
 20
68.100473
 30
0.0
 10
423.255863
 20
66.186473
 30
0.0
 10
424.145851
 20
64.491472
 30
0.0
 10
425.721865
 20
63.403472
 30
0.0
 10
427.139862
 20
63.231471
 30
0.0
 10
427.139862
 20
63.143471
 30
0.0
 10
440.139864
 20
63.143471
 30
0.0
 10
440.139864
 20
57.143472
 30
0.0
 10
416.139856
 20
21.143474
 30
0.0
 10
397.139866
 20
21.143474
 30
0.0
 10
397.139866
 20
21.055471
 30
0.0
 10
395.721868
 20
20.883471
 30
0.0
 10
394.145855
 20
19.795473
 30
0.0
 10
393.255867
 20
18.100472
 30
0.0
 10
393.255867
 20
16.186472
 30
0.0
 10
394.145855
 20
14.491473
 30
0.0
 10
395.721868
 20
13.403473
 30
0.0
 10
397.139866
 20
13.231472
 30
0.0
 10
397.139866
 20
13.143473
 30
0.0
 10
410.806872
 20
13.143473
 30
0.0
 10
410.139868
 20
12.143472
 30
0.0
 10
410.139868
 20
5.143472
 30
0.0
 10
409.758868
 20
3.230485
 30
0.0
 10
408.675868
 20
1.607481
 30
0.0
 10
407.052865
 20
0.524482
 30
0.0
 10
405.139850
 20
0.143482
 30
0.0
 10
365.139873
 20
0.143482
 30
0.0
 10
363.226858
 20
0.524482
 30
0.0
 10
361.603854
 20
1.607481
 30
0.0
 10
360.520855
 20
3.230485
 30
0.0
 10
360.139855
 20
5.143472
 30
0.0
 10
360.139855
 20
12.143472
 30
0.0
 10
232.139863
 20
12.143472
 30
0.0
 10
232.139863
 20
31.143473
 30
0.0
 10
231.758860
 20
33.056472
 30
0.0
 10
230.675860
 20
34.679472
 30
0.0
 10
229.052862
 20
35.762472
 30
0.0
 10
227.139861
 20
36.143472
 30
0.0
 10
213.139861
 20
36.143472
 30
0.0
 10
211.226860
 20
35.762472
 30
0.0
 10
209.603862
 20
34.679472
 30
0.0
 10
208.520860
 20
33.056472
 30
0.0
 10
208.139863
 20
31.143473
 30
0.0
 10
208.139863
 20
12.143472
 30
0.0
 10
80.139862
 20
12.143472
 30
0.0
 10
80.139862
 20
5.143472
 30
0.0
 10
79.758862
 20
3.230485
 30
0.0
 10
78.675862
 20
1.607481
 30
0.0
 10
77.052861
 20
0.524482
 30
0.0
 10
75.139860
 20
0.143482
 30
0.0
 10
35.139861
 20
0.143482
 30
0.0
 10
33.226860
 20
0.524482
 30
0.0
 10
31.603860
 20
1.607481
 30
0.0
 10
30.520860
 20
3.230485
 30
0.0
 10
30.139860
 20
5.143472
 30
0.0
 10
30.139860
 20
12.143472
 30
0.0
 10
29.472862
 20
13.143473
 30
0.0
 10
43.139862
 20
13.143473
 30
0.0
 10
43.139862
 20
13.231472
 30
0.0
 10
43.621861
 20
13.172471
 30
0.0
 10
45.411861
 20
13.851472
 30
0.0
 10
46.681861
 20
15.284473
 30
0.0
 10
47.139860
 20
17.143473
 30
0.0
 10
46.681861
 20
19.002471
 30
0.0
 10
45.411861
 20
20.435471
 30
0.0
 10
43.621861
 20
21.114472
 30
0.0
 10
43.139862
 20
21.055471
 30
0.0
 10
43.139862
 20
21.143474
 30
0.0
 10
24.139861
 20
21.143474
 30
0.0
 10
0.139861
 20
57.143472
 30
0.0
  0
LWPOLYLINE
  5
102
100
AcDbEntity
  8
0
 62
7
100
AcDbPolyline
 90
21
 70
0
 10
2.839861
 20
136.843474
 30
0.0
 10
2.937861
 20
137.461473
 30
0.0
 10
3.221861
 20
138.019471
 30
0.0
 10
3.663861
 20
138.461473
 30
0.0
 10
4.221861
 20
138.745471
 30
0.0
 10
4.839861
 20
138.843472
 30
0.0
 10
5.457861
 20
138.745471
 30
0.0
 10
6.015861
 20
138.461473
 30
0.0
 10
6.457861
 20
138.019471
 30
0.0
 10
6.741861
 20
137.461473
 30
0.0
 10
6.839861
 20
136.843474
 30
0.0
 10
6.741861
 20
136.225472
 30
0.0
 10
6.457861
 20
135.667473
 30
0.0
 10
6.015861
 20
135.225471
 30
0.0
 10
5.457861
 20
134.941474
 30
0.0
 10
4.839861
 20
134.843472
 30
0.0
 10
4.221861
 20
134.941474
 30
0.0
 10
3.663861
 20
135.225471
 30
0.0
 10
3.221861
 20
135.667473
 30
0.0
 10
2.937861
 20
136.225472
 30
0.0
 10
2.839861
 20
136.843474
 30
0.0
  0
LWPOLYLINE
  5
103
100
AcDbEntity
  8
0
 62
7
100
AcDbPolyline
 90
21
 70
0
 10
2.839861
 20
233.443472
 30
0.0
 10
2.937861
 20
234.061471
 30
0.0
 10
3.221861
 20
234.619473
 30
0.0
 10
3.663861
 20
235.061472
 30
0.0
 10
4.221861
 20
235.345472
 30
0.0
 10
4.839861
 20
235.443471
 30
0.0
 10
5.457861
 20
235.345472
 30
0.0
 10
6.015861
 20
235.061472
 30
0.0
 10
6.457861
 20
234.619473
 30
0.0
 10
6.741861
 20
234.061471
 30
0.0
 10
6.839861
 20
233.443472
 30
0.0
 10
6.741861
 20
232.825473
 30
0.0
 10
6.457861
 20
232.267472
 30
0.0
 10
6.015861
 20
231.825473
 30
0.0
 10
5.457861
 20
231.541472
 30
0.0
 10
4.839861
 20
231.443474
 30
0.0
 10
4.221861
 20
231.541472
 30
0.0
 10
3.663861
 20
231.825473
 30
0.0
 10
3.221861
 20
232.267472
 30
0.0
 10
2.937861
 20
232.825473
 30
0.0
 10
2.839861
 20
233.443472
 30
0.0
  0
LWPOLYLINE
  5
104
100
AcDbEntity
  8
0
 62
7
100
AcDbPolyline
 90
109
 70
0
 10
20.139860
 20
383.143472
 30
0.0
 10
20.139860
 20
389.143471
 30
0.0
 10
33.139860
 20
389.143471
 30
0.0
 10
33.139860
 20
389.231471
 30
0.0
 10
34.557860
 20
389.403471
 30
0.0
 10
36.133862
 20
390.491472
 30
0.0
 10
37.023861
 20
392.186473
 30
0.0
 10
37.023861
 20
394.100473
 30
0.0
 10
36.133862
 20
395.795472
 30
0.0
 10
34.557860
 20
396.883472
 30
0.0
 10
33.139860
 20
397.055473
 30
0.0
 10
33.139860
 20
397.143472
 30
0.0
 10
20.139860
 20
397.143472
 30
0.0
 10
20.139860
 20
403.143472
 30
0.0
 10
44.139860
 20
439.143473
 30
0.0
 10
63.139862
 20
439.143473
 30
0.0
 10
63.139862
 20
439.231473
 30
0.0
 10
64.557862
 20
439.403473
 30
0.0
 10
66.133861
 20
440.491471
 30
0.0
 10
67.023861
 20
442.186472
 30
0.0
 10
67.023861
 20
444.100472
 30
0.0
 10
66.133861
 20
445.795473
 30
0.0
 10
64.557862
 20
446.883471
 30
0.0
 10
63.139862
 20
447.055471
 30
0.0
 10
63.139862
 20
447.143471
 30
0.0
 10
49.472861
 20
447.143471
 30
0.0
 10
50.139860
 20
448.143472
 30
0.0
 10
50.139860
 20
455.143472
 30
0.0
 10
50.520860
 20
457.056473
 30
0.0
 10
51.603862
 20
458.679471
 30
0.0
 10
53.226860
 20
459.762473
 30
0.0
 10
55.139861
 20
460.143473
 30
0.0
 10
95.139860
 20
460.143473
 30
0.0
 10
97.052861
 20
459.762473
 30
0.0
 10
98.675862
 20
458.679471
 30
0.0
 10
99.758861
 20
457.056473
 30
0.0
 10
100.139861
 20
455.143472
 30
0.0
 10
100.139861
 20
448.143472
 30
0.0
 10
228.139862
 20
448.143472
 30
0.0
 10
228.139862
 20
429.143473
 30
0.0
 10
228.520862
 20
427.230472
 30
0.0
 10
229.603862
 20
425.607472
 30
0.0
 10
231.226862
 20
424.524472
 30
0.0
 10
233.139861
 20
424.143472
 30
0.0
 10
247.139861
 20
424.143472
 30
0.0
 10
249.052862
 20
424.524472
 30
0.0
 10
250.675860
 20
425.607472
 30
0.0
 10
251.758862
 20
427.230472
 30
0.0
 10
252.139862
 20
429.143473
 30
0.0
 10
252.139862
 20
448.143472
 30
0.0
 10
355.139865
 20
448.143472
 30
0.0
 10
355.139865
 20
441.143472
 30
0.0
 10
355.520865
 20
439.230471
 30
0.0
 10
356.603864
 20
437.607473
 30
0.0
 10
358.226868
 20
436.524473
 30
0.0
 10
360.139855
 20
436.143473
 30
0.0
 10
375.139853
 20
436.143473
 30
0.0
 10
377.052868
 20
436.524473
 30
0.0
 10
378.675872
 20
437.607473
 30
0.0
 10
379.758871
 20
439.230471
 30
0.0
 10
380.139871
 20
441.143472
 30
0.0
 10
380.139871
 20
455.143472
 30
0.0
 10
380.520871
 20
457.056473
 30
0.0
 10
381.603871
 20
458.679471
 30
0.0
 10
383.226874
 20
459.762473
 30
0.0
 10
385.139861
 20
460.143473
 30
0.0
 10
425.139866
 20
460.143473
 30
0.0
 10
427.052853
 20
459.762473
 30
0.0
 10
428.675856
 20
458.679471
 30
0.0
 10
429.758856
 20
457.056473
 30
0.0
 10
430.139856
 20
455.143472
 30
0.0
 10
430.139856
 20
448.143472
 30
0.0
 10
430.806860
 20
447.143471
 30
0.0
 10
417.139854
 20
447.143471
 30
0.0
 10
417.139854
 20
447.055471
 30
0.0
 10
416.657875
 20
447.114473
 30
0.0
 10
414.867852
 20
446.435472
 30
0.0
 10
413.597852
 20
445.002471
 30
0.0
 10
413.139862
 20
443.143473
 30
0.0
 10
413.597852
 20
441.284473
 30
0.0
 10
414.867852
 20
439.851473
 30
0.0
 10
416.657875
 20
439.172471
 30
0.0
 10
417.139854
 20
439.231473
 30
0.0
 10
417.139854
 20
439.143473
 30
0.0
 10
436.139872
 20
439.143473
 30
0.0
 10
460.139852
 20
403.143472
 30
0.0
 10
460.139852
 20
397.143472
 30
0.0
 10
447.139850
 20
397.143472
 30
0.0
 10
447.139850
 20
397.055473
 30
0.0
 10
446.657871
 20
397.114471
 30
0.0
 10
444.867848
 20
396.435473
 30
0.0
 10
443.597848
 20
395.002472
 30
0.0
 10
443.139858
 20
393.143472
 30
0.0
 10
443.597848
 20
391.284471
 30
0.0
 10
444.867848
 20
389.851471
 30
0.0
 10
446.657871
 20
389.172473
 30
0.0
 10
447.139850
 20
389.231471
 30
0.0
 10
447.139850
 20
389.143471
 30
0.0
 10
460.139852
 20
389.143471
 30
0.0
 10
460.139852
 20
218.143472
 30
0.0
 10
459.954856
 20
213.435472
 30
0.0
 10
459.400854
 20
208.757472
 30
0.0
 10
458.481853
 20
204.136473
 30
0.0
 10
457.202850
 20
199.602471
 30
0.0
 10
455.572848
 20
195.182473
 30
0.0
 10
453.599860
 20
190.904472
 30
0.0
 10
451.297858
 20
186.793471
 30
0.0
 10
397.220863
 20
102.984472
 30
0.0
 10
397.210986
 20
102.972478
 30
0.0
  0
LWPOLYLINE
  5
105
100
AcDbEntity
  8
0
 62
7
100
AcDbPolyline
 90
2
 70
0
 10
397.210873
 20
102.972472
 30
0.0
 10
397.198737
 20
102.962481
 30
0.0
  0
LWPOLYLINE
  5
106
100
AcDbEntity
  8
0
 62
7
100
AcDbPolyline
 90
2
 70
0
 10
397.198850
 20
102.962473
 30
0.0
 10
397.184739
 20
102.954458
 30
0.0
  0
LWPOLYLINE
  5
107
100
AcDbEntity
  8
0
 62
7
100
AcDbPolyline
 90
2
 70
0
 10
397.184852
 20
102.954472
 30
0.0
 10
397.170741
 20
102.948461
 30
0.0
  0
LWPOLYLINE
  5
108
100
AcDbEntity
  8
0
 62
7
100
AcDbPolyline
 90
3
 70
0
 10
397.170854
 20
102.948472
 30
0.0
 10
397.155896
 20
102.944464
 30
0.0
 10
397.147965
 20
102.943344
 30
0.0
  0
LWPOLYLINE
  5
109
100
AcDbEntity
  8
0
 62
7
100
AcDbPolyline
 90
64
 70
0
 10
397.147852
 20
102.943474
 30
0.0
 10
388.139855
 20
102.943474
 30
0.0
 10
388.139855
 20
96.943472
 30
0.0
 10
383.139865
 20
96.943472
 30
0.0
 10
383.139865
 20
102.943474
 30
0.0
 10
374.639868
 20
102.943474
 30
0.0
 10
374.639868
 20
108.443471
 30
0.0
 10
376.139851
 20
108.443471
 30
0.0
 10
376.139851
 20
111.443474
 30
0.0
 10
374.639868
 20
111.443474
 30
0.0
 10
374.639868
 20
112.943473
 30
0.0
 10
371.639874
 20
112.943473
 30
0.0
 10
371.639874
 20
111.443474
 30
0.0
 10
370.139863
 20
111.443474
 30
0.0
 10
370.139863
 20
108.443471
 30
0.0
 10
371.639874
 20
108.443471
 30
0.0
 10
371.639874
 20
102.943474
 30
0.0
 10
363.139849
 20
102.943474
 30
0.0
 10
363.139849
 20
96.943472
 30
0.0
 10
358.139859
 20
96.943472
 30
0.0
 10
358.139859
 20
102.943474
 30
0.0
 10
250.139860
 20
102.943474
 30
0.0
 10
250.139860
 20
96.943472
 30
0.0
 10
245.139862
 20
96.943472
 30
0.0
 10
245.139862
 20
102.943474
 30
0.0
 10
236.639862
 20
102.943474
 30
0.0
 10
236.639862
 20
108.443471
 30
0.0
 10
238.139862
 20
108.443471
 30
0.0
 10
238.139862
 20
111.443474
 30
0.0
 10
236.639862
 20
111.443474
 30
0.0
 10
236.639862
 20
112.943473
 30
0.0
 10
233.639862
 20
112.943473
 30
0.0
 10
233.639862
 20
111.443474
 30
0.0
 10
232.139863
 20
111.443474
 30
0.0
 10
232.139863
 20
108.443471
 30
0.0
 10
233.639862
 20
108.443471
 30
0.0
 10
233.639862
 20
102.943474
 30
0.0
 10
225.139860
 20
102.943474
 30
0.0
 10
225.139860
 20
96.943472
 30
0.0
 10
220.139861
 20
96.943472
 30
0.0
 10
220.139861
 20
102.943474
 30
0.0
 10
210.139861
 20
102.943474
 30
0.0
 10
210.139861
 20
122.943473
 30
0.0
 10
210.467860
 20
126.062472
 30
0.0
 10
211.436862
 20
129.044471
 30
0.0
 10
213.004860
 20
131.760471
 30
0.0
 10
215.102861
 20
134.090472
 30
0.0
 10
217.639860
 20
135.933474
 30
0.0
 10
220.504862
 20
137.209474
 30
0.0
 10
223.571861
 20
137.861472
 30
0.0
 10
225.139860
 20
137.861472
 30
0.0
 10
225.139860
 20
137.943471
 30
0.0
 10
323.139872
 20
137.943471
 30
0.0
 10
323.139872
 20
368.143471
 30
0.0
 10
35.139861
 20
368.143471
 30
0.0
 10
35.139861
 20
368.225471
 30
0.0
 10
33.571860
 20
368.225471
 30
0.0
 10
30.504861
 20
368.877472
 30
0.0
 10
27.639862
 20
370.153472
 30
0.0
 10
25.102862
 20
371.996473
 30
0.0
 10
23.004862
 20
374.326472
 30
0.0
 10
21.436861
 20
377.042471
 30
0.0
 10
20.467862
 20
380.024473
 30
0.0
 10
20.139860
 20
383.143472
 30
0.0
  0
LWPOLYLINE
  5
10a
100
AcDbEntity
  8
0
 62
7
100
AcDbPolyline
 90
31
 70
0
 10
28.639860
 20
259.143472
 30
0.0
 10
28.672861
 20
259.455472
 30
0.0
 10
28.769860
 20
259.753472
 30
0.0
 10
28.925861
 20
260.025472
 30
0.0
 10
29.135860
 20
260.258472
 30
0.0
 10
29.389860
 20
260.442472
 30
0.0
 10
29.675861
 20
260.570472
 30
0.0
 10
29.982860
 20
260.635472
 30
0.0
 10
30.296860
 20
260.635472
 30
0.0
 10
30.603862
 20
260.570472
 30
0.0
 10
30.889860
 20
260.442472
 30
0.0
 10
31.143860
 20
260.258472
 30
0.0
 10
31.353862
 20
260.025472
 30
0.0
 10
31.509860
 20
259.753472
 30
0.0
 10
31.606860
 20
259.455472
 30
0.0
 10
31.639860
 20
259.143472
 30
0.0
 10
31.606860
 20
258.831472
 30
0.0
 10
31.509860
 20
258.533471
 30
0.0
 10
31.353862
 20
258.261471
 30
0.0
 10
31.143860
 20
258.028471
 30
0.0
 10
30.889860
 20
257.844473
 30
0.0
 10
30.603862
 20
257.716472
 30
0.0
 10
30.296860
 20
257.651473
 30
0.0
 10
29.982860
 20
257.651473
 30
0.0
 10
29.675861
 20
257.716472
 30
0.0
 10
29.389860
 20
257.844473
 30
0.0
 10
29.135860
 20
258.028471
 30
0.0
 10
28.925861
 20
258.261471
 30
0.0
 10
28.769860
 20
258.533471
 30
0.0
 10
28.672861
 20
258.831472
 30
0.0
 10
28.639860
 20
259.143472
 30
0.0
  0
LWPOLYLINE
  5
10b
100
AcDbEntity
  8
0
 62
7
100
AcDbPolyline
 90
31
 70
0
 10
28.639860
 20
271.143472
 30
0.0
 10
28.672861
 20
271.455472
 30
0.0
 10
28.769860
 20
271.753472
 30
0.0
 10
28.925861
 20
272.025472
 30
0.0
 10
29.135860
 20
272.258472
 30
0.0
 10
29.389860
 20
272.442472
 30
0.0
 10
29.675861
 20
272.570472
 30
0.0
 10
29.982860
 20
272.635472
 30
0.0
 10
30.296860
 20
272.635472
 30
0.0
 10
30.603862
 20
272.570472
 30
0.0
 10
30.889860
 20
272.442472
 30
0.0
 10
31.143860
 20
272.258472
 30
0.0
 10
31.353862
 20
272.025472
 30
0.0
 10
31.509860
 20
271.753472
 30
0.0
 10
31.606860
 20
271.455472
 30
0.0
 10
31.639860
 20
271.143472
 30
0.0
 10
31.606860
 20
270.831472
 30
0.0
 10
31.509860
 20
270.533472
 30
0.0
 10
31.353862
 20
270.261472
 30
0.0
 10
31.143860
 20
270.028472
 30
0.0
 10
30.889860
 20
269.844472
 30
0.0
 10
30.603862
 20
269.716472
 30
0.0
 10
30.296860
 20
269.651472
 30
0.0
 10
29.982860
 20
269.651472
 30
0.0
 10
29.675861
 20
269.716472
 30
0.0
 10
29.389860
 20
269.844472
 30
0.0
 10
29.135860
 20
270.028472
 30
0.0
 10
28.925861
 20
270.261472
 30
0.0
 10
28.769860
 20
270.533472
 30
0.0
 10
28.672861
 20
270.831472
 30
0.0
 10
28.639860
 20
271.143472
 30
0.0
  0
LWPOLYLINE
  5
10c
100
AcDbEntity
  8
0
 62
7
100
AcDbPolyline
 90
31
 70
0
 10
48.639860
 20
27.643472
 30
0.0
 10
48.672860
 20
27.955471
 30
0.0
 10
48.769860
 20
28.253473
 30
0.0
 10
48.925861
 20
28.525473
 30
0.0
 10
49.135860
 20
28.758473
 30
0.0
 10
49.389860
 20
28.942473
 30
0.0
 10
49.675861
 20
29.070472
 30
0.0
 10
49.982862
 20
29.135471
 30
0.0
 10
50.296860
 20
29.135471
 30
0.0
 10
50.603861
 20
29.070472
 30
0.0
 10
50.889862
 20
28.942473
 30
0.0
 10
51.143862
 20
28.758473
 30
0.0
 10
51.353861
 20
28.525473
 30
0.0
 10
51.509862
 20
28.253473
 30
0.0
 10
51.606862
 20
27.955471
 30
0.0
 10
51.639862
 20
27.643472
 30
0.0
 10
51.606862
 20
27.331472
 30
0.0
 10
51.509862
 20
27.033471
 30
0.0
 10
51.353861
 20
26.761471
 30
0.0
 10
51.143862
 20
26.528471
 30
0.0
 10
50.889862
 20
26.344471
 30
0.0
 10
50.603861
 20
26.216472
 30
0.0
 10
50.296860
 20
26.151473
 30
0.0
 10
49.982862
 20
26.151473
 30
0.0
 10
49.675861
 20
26.216472
 30
0.0
 10
49.389860
 20
26.344471
 30
0.0
 10
49.135860
 20
26.528471
 30
0.0
 10
48.925861
 20
26.761471
 30
0.0
 10
48.769860
 20
27.033471
 30
0.0
 10
48.672860
 20
27.331472
 30
0.0
 10
48.639860
 20
27.643472
 30
0.0
  0
LWPOLYLINE
  5
10d
100
AcDbEntity
  8
0
 62
7
100
AcDbPolyline
 90
31
 70
0
 10
48.639860
 20
32.643473
 30
0.0
 10
48.672860
 20
32.955473
 30
0.0
 10
48.769860
 20
33.253471
 30
0.0
 10
48.925861
 20
33.525471
 30
0.0
 10
49.135860
 20
33.758471
 30
0.0
 10
49.389860
 20
33.942472
 30
0.0
 10
49.675861
 20
34.070473
 30
0.0
 10
49.982862
 20
34.135472
 30
0.0
 10
50.296860
 20
34.135472
 30
0.0
 10
50.603861
 20
34.070473
 30
0.0
 10
50.889862
 20
33.942472
 30
0.0
 10
51.143862
 20
33.758471
 30
0.0
 10
51.353861
 20
33.525471
 30
0.0
 10
51.509862
 20
33.253471
 30
0.0
 10
51.606862
 20
32.955473
 30
0.0
 10
51.639862
 20
32.643473
 30
0.0
 10
51.606862
 20
32.331474
 30
0.0
 10
51.509862
 20
32.033472
 30
0.0
 10
51.353861
 20
31.761472
 30
0.0
 10
51.143862
 20
31.528472
 30
0.0
 10
50.889862
 20
31.344472
 30
0.0
 10
50.603861
 20
31.216473
 30
0.0
 10
50.296860
 20
31.151472
 30
0.0
 10
49.982862
 20
31.151472
 30
0.0
 10
49.675861
 20
31.216473
 30
0.0
 10
49.389860
 20
31.344472
 30
0.0
 10
49.135860
 20
31.528472
 30
0.0
 10
48.925861
 20
31.761472
 30
0.0
 10
48.769860
 20
32.033472
 30
0.0
 10
48.672860
 20
32.331474
 30
0.0
 10
48.639860
 20
32.643473
 30
0.0
  0
LWPOLYLINE
  5
10e
100
AcDbEntity
  8
0
 62
7
100
AcDbPolyline
 90
33
 70
0
 10
72.150862
 20
239.934473
 30
0.0
 10
72.150862
 20
240.352473
 30
0.0
 10
72.237860
 20
240.761472
 30
0.0
 10
72.407862
 20
241.143471
 30
0.0
 10
72.653861
 20
241.481472
 30
0.0
 10
72.963862
 20
241.761473
 30
0.0
 10
73.326862
 20
241.970473
 30
0.0
 10
73.723861
 20
242.099473
 30
0.0
 10
74.139860
 20
242.143472
 30
0.0
 10
86.139861
 20
242.143472
 30
0.0
 10
86.555862
 20
242.099473
 30
0.0
 10
86.952861
 20
241.970473
 30
0.0
 10
87.315861
 20
241.761473
 30
0.0
 10
87.625863
 20
241.481472
 30
0.0
 10
87.871862
 20
241.143471
 30
0.0
 10
88.041861
 20
240.761472
 30
0.0
 10
88.128862
 20
240.352473
 30
0.0
 10
88.128862
 20
239.934473
 30
0.0
 10
88.041861
 20
239.525471
 30
0.0
 10
87.871862
 20
239.143472
 30
0.0
 10
87.625863
 20
238.805472
 30
0.0
 10
87.315861
 20
238.525473
 30
0.0
 10
86.952861
 20
238.316474
 30
0.0
 10
86.555862
 20
238.187473
 30
0.0
 10
86.139861
 20
238.143471
 30
0.0
 10
74.139860
 20
238.143471
 30
0.0
 10
73.723861
 20
238.187473
 30
0.0
 10
73.326862
 20
238.316474
 30
0.0
 10
72.963862
 20
238.525473
 30
0.0
 10
72.653861
 20
238.805472
 30
0.0
 10
72.407862
 20
239.143472
 30
0.0
 10
72.237860
 20
239.525471
 30
0.0
 10
72.150862
 20
239.934473
 30
0.0
  0
LWPOLYLINE
  5
10f
100
AcDbEntity
  8
0
 62
7
100
AcDbPolyline
 90
31
 70
0
 10
72.647861
 20
249.986473
 30
0.0
 10
72.647861
 20
250.300473
 30
0.0
 10
72.712862
 20
250.607472
 30
0.0
 10
72.840861
 20
250.893473
 30
0.0
 10
73.024862
 20
251.147473
 30
0.0
 10
73.257862
 20
251.357471
 30
0.0
 10
73.529862
 20
251.513473
 30
0.0
 10
73.827860
 20
251.610472
 30
0.0
 10
74.139860
 20
251.643473
 30
0.0
 10
74.451862
 20
251.610472
 30
0.0
 10
74.749860
 20
251.513473
 30
0.0
 10
75.021861
 20
251.357471
 30
0.0
 10
75.254860
 20
251.147473
 30
0.0
 10
75.438861
 20
250.893473
 30
0.0
 10
75.566860
 20
250.607472
 30
0.0
 10
75.631861
 20
250.300473
 30
0.0
 10
75.631861
 20
249.986473
 30
0.0
 10
75.566860
 20
249.679471
 30
0.0
 10
75.438861
 20
249.393473
 30
0.0
 10
75.254860
 20
249.139473
 30
0.0
 10
75.021861
 20
248.929471
 30
0.0
 10
74.749860
 20
248.773473
 30
0.0
 10
74.451862
 20
248.676473
 30
0.0
 10
74.139860
 20
248.643473
 30
0.0
 10
73.827860
 20
248.676473
 30
0.0
 10
73.529862
 20
248.773473
 30
0.0
 10
73.257862
 20
248.929471
 30
0.0
 10
73.024862
 20
249.139473
 30
0.0
 10
72.840861
 20
249.393473
 30
0.0
 10
72.712862
 20
249.679471
 30
0.0
 10
72.647861
 20
249.986473
 30
0.0
  0
LWPOLYLINE
  5
110
100
AcDbEntity
  8
0
 62
7
100
AcDbPolyline
 90
31
 70
0
 10
78.639862
 20
333.643472
 30
0.0
 10
78.672862
 20
333.955472
 30
0.0
 10
78.769862
 20
334.253473
 30
0.0
 10
78.925860
 20
334.525473
 30
0.0
 10
79.135862
 20
334.758473
 30
0.0
 10
79.389862
 20
334.942471
 30
0.0
 10
79.675860
 20
335.070473
 30
0.0
 10
79.982862
 20
335.135471
 30
0.0
 10
80.296862
 20
335.135471
 30
0.0
 10
80.603860
 20
335.070473
 30
0.0
 10
80.889862
 20
334.942471
 30
0.0
 10
81.143862
 20
334.758473
 30
0.0
 10
81.353860
 20
334.525473
 30
0.0
 10
81.509862
 20
334.253473
 30
0.0
 10
81.606861
 20
333.955472
 30
0.0
 10
81.639862
 20
333.643472
 30
0.0
 10
81.606861
 20
333.331473
 30
0.0
 10
81.509862
 20
333.033472
 30
0.0
 10
81.353860
 20
332.761471
 30
0.0
 10
81.143862
 20
332.528472
 30
0.0
 10
80.889862
 20
332.344471
 30
0.0
 10
80.603860
 20
332.216472
 30
0.0
 10
80.296862
 20
332.151474
 30
0.0
 10
79.982862
 20
332.151474
 30
0.0
 10
79.675860
 20
332.216472
 30
0.0
 10
79.389862
 20
332.344471
 30
0.0
 10
79.135862
 20
332.528472
 30
0.0
 10
78.925860
 20
332.761471
 30
0.0
 10
78.769862
 20
333.033472
 30
0.0
 10
78.672862
 20
333.331473
 30
0.0
 10
78.639862
 20
333.643472
 30
0.0
  0
LWPOLYLINE
  5
111
100
AcDbEntity
  8
0
 62
7
100
AcDbPolyline
 90
31
 70
0
 10
78.639862
 20
340.643472
 30
0.0
 10
78.672862
 20
340.955472
 30
0.0
 10
78.769862
 20
341.253473
 30
0.0
 10
78.925860
 20
341.525473
 30
0.0
 10
79.135862
 20
341.758473
 30
0.0
 10
79.389862
 20
341.942471
 30
0.0
 10
79.675860
 20
342.070473
 30
0.0
 10
79.982862
 20
342.135471
 30
0.0
 10
80.296862
 20
342.135471
 30
0.0
 10
80.603860
 20
342.070473
 30
0.0
 10
80.889862
 20
341.942471
 30
0.0
 10
81.143862
 20
341.758473
 30
0.0
 10
81.353860
 20
341.525473
 30
0.0
 10
81.509862
 20
341.253473
 30
0.0
 10
81.606861
 20
340.955472
 30
0.0
 10
81.639862
 20
340.643472
 30
0.0
 10
81.606861
 20
340.331473
 30
0.0
 10
81.509862
 20
340.033472
 30
0.0
 10
81.353860
 20
339.761472
 30
0.0
 10
81.143862
 20
339.528472
 30
0.0
 10
80.889862
 20
339.344471
 30
0.0
 10
80.603860
 20
339.216472
 30
0.0
 10
80.296862
 20
339.151471
 30
0.0
 10
79.982862
 20
339.151471
 30
0.0
 10
79.675860
 20
339.216472
 30
0.0
 10
79.389862
 20
339.344471
 30
0.0
 10
79.135862
 20
339.528472
 30
0.0
 10
78.925860
 20
339.761472
 30
0.0
 10
78.769862
 20
340.033472
 30
0.0
 10
78.672862
 20
340.331473
 30
0.0
 10
78.639862
 20
340.643472
 30
0.0
  0
LWPOLYLINE
  5
112
100
AcDbEntity
  8
0
 62
7
100
AcDbPolyline
 90
31
 70
0
 10
84.647862
 20
249.986473
 30
0.0
 10
84.647862
 20
250.300473
 30
0.0
 10
84.712861
 20
250.607472
 30
0.0
 10
84.840860
 20
250.893473
 30
0.0
 10
85.024860
 20
251.147473
 30
0.0
 10
85.257860
 20
251.357471
 30
0.0
 10
85.529860
 20
251.513473
 30
0.0
 10
85.827862
 20
251.610472
 30
0.0
 10
86.139861
 20
251.643473
 30
0.0
 10
86.451861
 20
251.610472
 30
0.0
 10
86.749862
 20
251.513473
 30
0.0
 10
87.021862
 20
251.357471
 30
0.0
 10
87.254862
 20
251.147473
 30
0.0
 10
87.438862
 20
250.893473
 30
0.0
 10
87.566861
 20
250.607472
 30
0.0
 10
87.631860
 20
250.300473
 30
0.0
 10
87.631860
 20
249.986473
 30
0.0
 10
87.566861
 20
249.679471
 30
0.0
 10
87.438862
 20
249.393473
 30
0.0
 10
87.254862
 20
249.139473
 30
0.0
 10
87.021862
 20
248.929471
 30
0.0
 10
86.749862
 20
248.773473
 30
0.0
 10
86.451861
 20
248.676473
 30
0.0
 10
86.139861
 20
248.643473
 30
0.0
 10
85.827862
 20
248.676473
 30
0.0
 10
85.529860
 20
248.773473
 30
0.0
 10
85.257860
 20
248.929471
 30
0.0
 10
85.024860
 20
249.139473
 30
0.0
 10
84.840860
 20
249.393473
 30
0.0
 10
84.712861
 20
249.679471
 30
0.0
 10
84.647862
 20
249.986473
 30
0.0
  0
LWPOLYLINE
  5
113
100
AcDbEntity
  8
0
 62
7
100
AcDbPolyline
 90
33
 70
0
 10
85.139860
 20
332.143473
 30
0.0
 10
85.139860
 20
342.143472
 30
0.0
 10
85.183861
 20
342.559473
 30
0.0
 10
85.312862
 20
342.956473
 30
0.0
 10
85.521862
 20
343.319473
 30
0.0
 10
85.801860
 20
343.629471
 30
0.0
 10
86.139861
 20
343.875473
 30
0.0
 10
86.521860
 20
344.045472
 30
0.0
 10
86.930862
 20
344.132473
 30
0.0
 10
87.348862
 20
344.132473
 30
0.0
 10
87.757861
 20
344.045472
 30
0.0
 10
88.139860
 20
343.875473
 30
0.0
 10
88.477860
 20
343.629471
 30
0.0
 10
88.757862
 20
343.319473
 30
0.0
 10
88.966861
 20
342.956473
 30
0.0
 10
89.095862
 20
342.559473
 30
0.0
 10
89.139861
 20
342.143472
 30
0.0
 10
89.139861
 20
332.143473
 30
0.0
 10
89.095862
 20
331.727471
 30
0.0
 10
88.966861
 20
331.330472
 30
0.0
 10
88.757862
 20
330.967472
 30
0.0
 10
88.477860
 20
330.657471
 30
0.0
 10
88.139860
 20
330.411472
 30
0.0
 10
87.757861
 20
330.241473
 30
0.0
 10
87.348862
 20
330.154472
 30
0.0
 10
86.930862
 20
330.154472
 30
0.0
 10
86.521860
 20
330.241473
 30
0.0
 10
86.139861
 20
330.411472
 30
0.0
 10
85.801860
 20
330.657471
 30
0.0
 10
85.521862
 20
330.967472
 30
0.0
 10
85.312862
 20
331.330472
 30
0.0
 10
85.183861
 20
331.727471
 30
0.0
 10
85.139860
 20
332.143473
 30
0.0
  0
LWPOLYLINE
  5
114
100
AcDbEntity
  8
0
 62
7
100
AcDbPolyline
 90
31
 70
0
 10
88.647860
 20
59.986472
 30
0.0
 10
88.647860
 20
60.300472
 30
0.0
 10
88.712861
 20
60.607473
 30
0.0
 10
88.840860
 20
60.893472
 30
0.0
 10
89.024861
 20
61.147472
 30
0.0
 10
89.257861
 20
61.357473
 30
0.0
 10
89.529861
 20
61.513472
 30
0.0
 10
89.827862
 20
61.610471
 30
0.0
 10
90.139861
 20
61.643472
 30
0.0
 10
90.451861
 20
61.610471
 30
0.0
 10
90.749862
 20
61.513472
 30
0.0
 10
91.021862
 20
61.357473
 30
0.0
 10
91.254862
 20
61.147472
 30
0.0
 10
91.438860
 20
60.893472
 30
0.0
 10
91.566862
 20
60.607473
 30
0.0
 10
91.631860
 20
60.300472
 30
0.0
 10
91.631860
 20
59.986472
 30
0.0
 10
91.566862
 20
59.679473
 30
0.0
 10
91.438860
 20
59.393472
 30
0.0
 10
91.254862
 20
59.139472
 30
0.0
 10
91.021862
 20
58.929473
 30
0.0
 10
90.749862
 20
58.773472
 30
0.0
 10
90.451861
 20
58.676472
 30
0.0
 10
90.139861
 20
58.643472
 30
0.0
 10
89.827862
 20
58.676472
 30
0.0
 10
89.529861
 20
58.773472
 30
0.0
 10
89.257861
 20
58.929473
 30
0.0
 10
89.024861
 20
59.139472
 30
0.0
 10
88.840860
 20
59.393472
 30
0.0
 10
88.712861
 20
59.679473
 30
0.0
 10
88.647860
 20
59.986472
 30
0.0
  0
LWPOLYLINE
  5
115
100
AcDbEntity
  8
0
 62
7
100
AcDbPolyline
 90
31
 70
0
 10
88.647860
 20
129.986473
 30
0.0
 10
88.647860
 20
130.300473
 30
0.0
 10
88.712861
 20
130.607472
 30
0.0
 10
88.840860
 20
130.893473
 30
0.0
 10
89.024861
 20
131.147473
 30
0.0
 10
89.257861
 20
131.357472
 30
0.0
 10
89.529861
 20
131.513473
 30
0.0
 10
89.827862
 20
131.610473
 30
0.0
 10
90.139861
 20
131.643473
 30
0.0
 10
90.451861
 20
131.610473
 30
0.0
 10
90.749862
 20
131.513473
 30
0.0
 10
91.021862
 20
131.357472
 30
0.0
 10
91.254862
 20
131.147473
 30
0.0
 10
91.438860
 20
130.893473
 30
0.0
 10
91.566862
 20
130.607472
 30
0.0
 10
91.631860
 20
130.300473
 30
0.0
 10
91.631860
 20
129.986473
 30
0.0
 10
91.566862
 20
129.679471
 30
0.0
 10
91.438860
 20
129.393473
 30
0.0
 10
91.254862
 20
129.139473
 30
0.0
 10
91.021862
 20
128.929471
 30
0.0
 10
90.749862
 20
128.773473
 30
0.0
 10
90.451861
 20
128.676473
 30
0.0
 10
90.139861
 20
128.643473
 30
0.0
 10
89.827862
 20
128.676473
 30
0.0
 10
89.529861
 20
128.773473
 30
0.0
 10
89.257861
 20
128.929471
 30
0.0
 10
89.024861
 20
129.139473
 30
0.0
 10
88.840860
 20
129.393473
 30
0.0
 10
88.712861
 20
129.679471
 30
0.0
 10
88.647860
 20
129.986473
 30
0.0
  0
LWPOLYLINE
  5
116
100
AcDbEntity
  8
0
 62
7
100
AcDbPolyline
 90
31
 70
0
 10
88.647860
 20
199.986471
 30
0.0
 10
88.647860
 20
200.300471
 30
0.0
 10
88.712861
 20
200.607473
 30
0.0
 10
88.840860
 20
200.893471
 30
0.0
 10
89.024861
 20
201.147471
 30
0.0
 10
89.257861
 20
201.357473
 30
0.0
 10
89.529861
 20
201.513471
 30
0.0
 10
89.827862
 20
201.610474
 30
0.0
 10
90.139861
 20
201.643471
 30
0.0
 10
90.451861
 20
201.610474
 30
0.0
 10
90.749862
 20
201.513471
 30
0.0
 10
91.021862
 20
201.357473
 30
0.0
 10
91.254862
 20
201.147471
 30
0.0
 10
91.438860
 20
200.893471
 30
0.0
 10
91.566862
 20
200.607473
 30
0.0
 10
91.631860
 20
200.300471
 30
0.0
 10
91.631860
 20
199.986471
 30
0.0
 10
91.566862
 20
199.679473
 30
0.0
 10
91.438860
 20
199.393471
 30
0.0
 10
91.254862
 20
199.139471
 30
0.0
 10
91.021862
 20
198.929473
 30
0.0
 10
90.749862
 20
198.773471
 30
0.0
 10
90.451861
 20
198.676472
 30
0.0
 10
90.139861
 20
198.643471
 30
0.0
 10
89.827862
 20
198.676472
 30
0.0
 10
89.529861
 20
198.773471
 30
0.0
 10
89.257861
 20
198.929473
 30
0.0
 10
89.024861
 20
199.139471
 30
0.0
 10
88.840860
 20
199.393471
 30
0.0
 10
88.712861
 20
199.679473
 30
0.0
 10
88.647860
 20
199.986471
 30
0.0
  0
LWPOLYLINE
  5
117
100
AcDbEntity
  8
0
 62
7
100
AcDbPolyline
 90
31
 70
0
 10
96.166861
 20
32.696472
 30
0.0
 10
96.215860
 20
33.006473
 30
0.0
 10
96.327860
 20
33.299473
 30
0.0
 10
96.498862
 20
33.562473
 30
0.0
 10
96.720860
 20
33.784472
 30
0.0
 10
96.983860
 20
33.955474
 30
0.0
 10
97.276861
 20
34.067473
 30
0.0
 10
97.586862
 20
34.116473
 30
0.0
 10
97.899861
 20
34.100471
 30
0.0
 10
98.202860
 20
34.018471
 30
0.0
 10
98.481862
 20
33.876471
 30
0.0
 10
98.725860
 20
33.679471
 30
0.0
 10
98.922860
 20
33.435473
 30
0.0
 10
99.064860
 20
33.155472
 30
0.0
 10
99.146862
 20
32.853472
 30
0.0
 10
99.162864
 20
32.539472
 30
0.0
 10
99.113862
 20
32.230472
 30
0.0
 10
99.001862
 20
31.937472
 30
0.0
 10
98.830861
 20
31.674472
 30
0.0
 10
98.608862
 20
31.452473
 30
0.0
 10
98.345862
 20
31.281472
 30
0.0
 10
98.052862
 20
31.169472
 30
0.0
 10
97.743862
 20
31.120472
 30
0.0
 10
97.429862
 20
31.136474
 30
0.0
 10
97.127862
 20
31.218471
 30
0.0
 10
96.847860
 20
31.360471
 30
0.0
 10
96.603862
 20
31.557474
 30
0.0
 10
96.406860
 20
31.801472
 30
0.0
 10
96.264860
 20
32.080474
 30
0.0
 10
96.182860
 20
32.383473
 30
0.0
 10
96.166858
 20
32.696472
 30
0.0
  0
LWPOLYLINE
  5
118
100
AcDbEntity
  8
0
 62
7
100
AcDbPolyline
 90
21
 70
0
 10
98.439862
 20
136.843474
 30
0.0
 10
98.537861
 20
137.461473
 30
0.0
 10
98.821861
 20
138.019471
 30
0.0
 10
99.263860
 20
138.461473
 30
0.0
 10
99.821862
 20
138.745471
 30
0.0
 10
100.439861
 20
138.843472
 30
0.0
 10
101.057860
 20
138.745471
 30
0.0
 10
101.615861
 20
138.461473
 30
0.0
 10
102.057860
 20
138.019471
 30
0.0
 10
102.341861
 20
137.461473
 30
0.0
 10
102.439862
 20
136.843474
 30
0.0
 10
102.341861
 20
136.225472
 30
0.0
 10
102.057860
 20
135.667473
 30
0.0
 10
101.615861
 20
135.225471
 30
0.0
 10
101.057860
 20
134.941474
 30
0.0
 10
100.439861
 20
134.843472
 30
0.0
 10
99.821862
 20
134.941474
 30
0.0
 10
99.263860
 20
135.225471
 30
0.0
 10
98.821861
 20
135.667473
 30
0.0
 10
98.537861
 20
136.225472
 30
0.0
 10
98.439862
 20
136.843474
 30
0.0
  0
LWPOLYLINE
  5
119
100
AcDbEntity
  8
0
 62
7
100
AcDbPolyline
 90
21
 70
0
 10
98.439862
 20
233.443472
 30
0.0
 10
98.537861
 20
234.061471
 30
0.0
 10
98.821861
 20
234.619473
 30
0.0
 10
99.263860
 20
235.061472
 30
0.0
 10
99.821862
 20
235.345472
 30
0.0
 10
100.439861
 20
235.443471
 30
0.0
 10
101.057860
 20
235.345472
 30
0.0
 10
101.615861
 20
235.061472
 30
0.0
 10
102.057860
 20
234.619473
 30
0.0
 10
102.341861
 20
234.061471
 30
0.0
 10
102.439862
 20
233.443472
 30
0.0
 10
102.341861
 20
232.825473
 30
0.0
 10
102.057860
 20
232.267472
 30
0.0
 10
101.615861
 20
231.825473
 30
0.0
 10
101.057860
 20
231.541472
 30
0.0
 10
100.439861
 20
231.443474
 30
0.0
 10
99.821862
 20
231.541472
 30
0.0
 10
99.263860
 20
231.825473
 30
0.0
 10
98.821861
 20
232.267472
 30
0.0
 10
98.537861
 20
232.825473
 30
0.0
 10
98.439862
 20
233.443472
 30
0.0
  0
LWPOLYLINE
  5
11a
100
AcDbEntity
  8
0
 62
7
100
AcDbPolyline
 90
31
 70
0
 10
101.116861
 20
27.747474
 30
0.0
 10
101.165860
 20
28.056473
 30
0.0
 10
101.277860
 20
28.349473
 30
0.0
 10
101.448862
 20
28.612473
 30
0.0
 10
101.670860
 20
28.834472
 30
0.0
 10
101.933860
 20
29.005474
 30
0.0
 10
102.226861
 20
29.117473
 30
0.0
 10
102.535860
 20
29.166473
 30
0.0
 10
102.849861
 20
29.150471
 30
0.0
 10
103.151861
 20
29.068471
 30
0.0
 10
103.431862
 20
28.926471
 30
0.0
 10
103.675860
 20
28.729472
 30
0.0
 10
103.872860
 20
28.485473
 30
0.0
 10
104.014860
 20
28.206471
 30
0.0
 10
104.096862
 20
27.903472
 30
0.0
 10
104.112864
 20
27.590473
 30
0.0
 10
104.063862
 20
27.280472
 30
0.0
 10
103.951862
 20
26.987472
 30
0.0
 10
103.780861
 20
26.724472
 30
0.0
 10
103.558862
 20
26.502473
 30
0.0
 10
103.295862
 20
26.331472
 30
0.0
 10
103.002862
 20
26.219472
 30
0.0
 10
102.692860
 20
26.170472
 30
0.0
 10
102.379862
 20
26.186474
 30
0.0
 10
102.076860
 20
26.268471
 30
0.0
 10
101.797860
 20
26.410471
 30
0.0
 10
101.553862
 20
26.607474
 30
0.0
 10
101.356860
 20
26.851472
 30
0.0
 10
101.214860
 20
27.131473
 30
0.0
 10
101.132860
 20
27.433473
 30
0.0
 10
101.116858
 20
27.747474
 30
0.0
  0
LWPOLYLINE
  5
11b
100
AcDbEntity
  8
0
 62
7
100
AcDbPolyline
 90
31
 70
0
 10
108.647862
 20
59.986472
 30
0.0
 10
108.647862
 20
60.300472
 30
0.0
 10
108.712861
 20
60.607473
 30
0.0
 10
108.840860
 20
60.893472
 30
0.0
 10
109.024860
 20
61.147472
 30
0.0
 10
109.257860
 20
61.357473
 30
0.0
 10
109.529860
 20
61.513472
 30
0.0
 10
109.827862
 20
61.610471
 30
0.0
 10
110.139861
 20
61.643472
 30
0.0
 10
110.451860
 20
61.610471
 30
0.0
 10
110.749862
 20
61.513472
 30
0.0
 10
111.021862
 20
61.357473
 30
0.0
 10
111.254862
 20
61.147472
 30
0.0
 10
111.438862
 20
60.893472
 30
0.0
 10
111.566861
 20
60.607473
 30
0.0
 10
111.631863
 20
60.300472
 30
0.0
 10
111.631863
 20
59.986472
 30
0.0
 10
111.566861
 20
59.679473
 30
0.0
 10
111.438862
 20
59.393472
 30
0.0
 10
111.254862
 20
59.139472
 30
0.0
 10
111.021862
 20
58.929473
 30
0.0
 10
110.749862
 20
58.773472
 30
0.0
 10
110.451860
 20
58.676472
 30
0.0
 10
110.139861
 20
58.643472
 30
0.0
 10
109.827862
 20
58.676472
 30
0.0
 10
109.529860
 20
58.773472
 30
0.0
 10
109.257860
 20
58.929473
 30
0.0
 10
109.024860
 20
59.139472
 30
0.0
 10
108.840860
 20
59.393472
 30
0.0
 10
108.712861
 20
59.679473
 30
0.0
 10
108.647862
 20
59.986472
 30
0.0
  0
LWPOLYLINE
  5
11c
100
AcDbEntity
  8
0
 62
7
100
AcDbPolyline
 90
31
 70
0
 10
108.647862
 20
129.986473
 30
0.0
 10
108.647862
 20
130.300473
 30
0.0
 10
108.712861
 20
130.607472
 30
0.0
 10
108.840860
 20
130.893473
 30
0.0
 10
109.024860
 20
131.147473
 30
0.0
 10
109.257860
 20
131.357472
 30
0.0
 10
109.529860
 20
131.513473
 30
0.0
 10
109.827862
 20
131.610473
 30
0.0
 10
110.139861
 20
131.643473
 30
0.0
 10
110.451860
 20
131.610473
 30
0.0
 10
110.749862
 20
131.513473
 30
0.0
 10
111.021862
 20
131.357472
 30
0.0
 10
111.254862
 20
131.147473
 30
0.0
 10
111.438862
 20
130.893473
 30
0.0
 10
111.566861
 20
130.607472
 30
0.0
 10
111.631863
 20
130.300473
 30
0.0
 10
111.631863
 20
129.986473
 30
0.0
 10
111.566861
 20
129.679471
 30
0.0
 10
111.438862
 20
129.393473
 30
0.0
 10
111.254862
 20
129.139473
 30
0.0
 10
111.021862
 20
128.929471
 30
0.0
 10
110.749862
 20
128.773473
 30
0.0
 10
110.451860
 20
128.676473
 30
0.0
 10
110.139861
 20
128.643473
 30
0.0
 10
109.827862
 20
128.676473
 30
0.0
 10
109.529860
 20
128.773473
 30
0.0
 10
109.257860
 20
128.929471
 30
0.0
 10
109.024860
 20
129.139473
 30
0.0
 10
108.840860
 20
129.393473
 30
0.0
 10
108.712861
 20
129.679471
 30
0.0
 10
108.647862
 20
129.986473
 30
0.0
  0
LWPOLYLINE
  5
11d
100
AcDbEntity
  8
0
 62
7
100
AcDbPolyline
 90
31
 70
0
 10
108.647862
 20
199.986471
 30
0.0
 10
108.647862
 20
200.300471
 30
0.0
 10
108.712861
 20
200.607473
 30
0.0
 10
108.840860
 20
200.893471
 30
0.0
 10
109.024860
 20
201.147471
 30
0.0
 10
109.257860
 20
201.357473
 30
0.0
 10
109.529860
 20
201.513471
 30
0.0
 10
109.827862
 20
201.610474
 30
0.0
 10
110.139861
 20
201.643471
 30
0.0
 10
110.451860
 20
201.610474
 30
0.0
 10
110.749862
 20
201.513471
 30
0.0
 10
111.021862
 20
201.357473
 30
0.0
 10
111.254862
 20
201.147471
 30
0.0
 10
111.438862
 20
200.893471
 30
0.0
 10
111.566861
 20
200.607473
 30
0.0
 10
111.631863
 20
200.300471
 30
0.0
 10
111.631863
 20
199.986471
 30
0.0
 10
111.566861
 20
199.679473
 30
0.0
 10
111.438862
 20
199.393471
 30
0.0
 10
111.254862
 20
199.139471
 30
0.0
 10
111.021862
 20
198.929473
 30
0.0
 10
110.749862
 20
198.773471
 30
0.0
 10
110.451860
 20
198.676472
 30
0.0
 10
110.139861
 20
198.643471
 30
0.0
 10
109.827862
 20
198.676472
 30
0.0
 10
109.529860
 20
198.773471
 30
0.0
 10
109.257860
 20
198.929473
 30
0.0
 10
109.024860
 20
199.139471
 30
0.0
 10
108.840860
 20
199.393471
 30
0.0
 10
108.712861
 20
199.679473
 30
0.0
 10
108.647862
 20
199.986471
 30
0.0
  0
LWPOLYLINE
  5
11e
100
AcDbEntity
  8
0
 62
7
100
AcDbPolyline
 90
5
 70
0
 10
114.889861
 20
227.343473
 30
0.0
 10
114.889861
 20
232.343472
 30
0.0
 10
121.389860
 20
232.343472
 30
0.0
 10
121.389860
 20
227.343473
 30
0.0
 10
114.889861
 20
227.343473
 30
0.0
  0
LWPOLYLINE
  5
11f
100
AcDbEntity
  8
0
 62
7
100
AcDbPolyline
 90
5
 70
0
 10
114.889861
 20
252.343471
 30
0.0
 10
114.889861
 20
257.343473
 30
0.0
 10
121.389860
 20
257.343473
 30
0.0
 10
121.389860
 20
252.343471
 30
0.0
 10
114.889861
 20
252.343471
 30
0.0
  0
LWPOLYLINE
  5
120
100
AcDbEntity
  8
0
 62
7
100
AcDbPolyline
 90
5
 70
0
 10
114.889861
 20
317.343471
 30
0.0
 10
114.889861
 20
322.343472
 30
0.0
 10
121.389860
 20
322.343472
 30
0.0
 10
121.389860
 20
317.343471
 30
0.0
 10
114.889861
 20
317.343471
 30
0.0
  0
LWPOLYLINE
  5
121
100
AcDbEntity
  8
0
 62
7
100
AcDbPolyline
 90
5
 70
0
 10
114.889861
 20
342.343472
 30
0.0
 10
114.889861
 20
347.343473
 30
0.0
 10
121.389860
 20
347.343473
 30
0.0
 10
121.389860
 20
342.343472
 30
0.0
 10
114.889861
 20
342.343472
 30
0.0
  0
LWPOLYLINE
  5
122
100
AcDbEntity
  8
0
 62
7
100
AcDbPolyline
 90
21
 70
0
 10
116.639862
 20
242.343472
 30
0.0
 10
116.712862
 20
242.807473
 30
0.0
 10
116.925860
 20
243.225472
 30
0.0
 10
117.257861
 20
243.557473
 30
0.0
 10
117.675860
 20
243.770472
 30
0.0
 10
118.139862
 20
243.843471
 30
0.0
 10
118.603861
 20
243.770472
 30
0.0
 10
119.021860
 20
243.557473
 30
0.0
 10
119.353861
 20
243.225472
 30
0.0
 10
119.566862
 20
242.807473
 30
0.0
 10
119.639862
 20
242.343472
 30
0.0
 10
119.566862
 20
241.879473
 30
0.0
 10
119.353861
 20
241.461473
 30
0.0
 10
119.021860
 20
241.129473
 30
0.0
 10
118.603861
 20
240.916471
 30
0.0
 10
118.139862
 20
240.843472
 30
0.0
 10
117.675860
 20
240.916471
 30
0.0
 10
117.257861
 20
241.129473
 30
0.0
 10
116.925860
 20
241.461473
 30
0.0
 10
116.712862
 20
241.879473
 30
0.0
 10
116.639862
 20
242.343472
 30
0.0
  0
LWPOLYLINE
  5
123
100
AcDbEntity
  8
0
 62
7
100
AcDbPolyline
 90
21
 70
0
 10
116.639862
 20
332.343472
 30
0.0
 10
116.712862
 20
332.807474
 30
0.0
 10
116.925860
 20
333.225473
 30
0.0
 10
117.257861
 20
333.557471
 30
0.0
 10
117.675860
 20
333.770472
 30
0.0
 10
118.139862
 20
333.843472
 30
0.0
 10
118.603861
 20
333.770472
 30
0.0
 10
119.021860
 20
333.557471
 30
0.0
 10
119.353861
 20
333.225473
 30
0.0
 10
119.566862
 20
332.807474
 30
0.0
 10
119.639862
 20
332.343472
 30
0.0
 10
119.566862
 20
331.879473
 30
0.0
 10
119.353861
 20
331.461471
 30
0.0
 10
119.021860
 20
331.129473
 30
0.0
 10
118.603861
 20
330.916472
 30
0.0
 10
118.139862
 20
330.843472
 30
0.0
 10
117.675860
 20
330.916472
 30
0.0
 10
117.257861
 20
331.129473
 30
0.0
 10
116.925860
 20
331.461471
 30
0.0
 10
116.712862
 20
331.879473
 30
0.0
 10
116.639862
 20
332.343472
 30
0.0
  0
LWPOLYLINE
  5
124
100
AcDbEntity
  8
0
 62
7
100
AcDbPolyline
 90
31
 70
0
 10
118.639861
 20
34.143473
 30
0.0
 10
118.672861
 20
34.455473
 30
0.0
 10
118.769861
 20
34.753471
 30
0.0
 10
118.925862
 20
35.025471
 30
0.0
 10
119.135861
 20
35.258471
 30
0.0
 10
119.389861
 20
35.442471
 30
0.0
 10
119.675862
 20
35.570473
 30
0.0
 10
119.982861
 20
35.635472
 30
0.0
 10
120.296861
 20
35.635472
 30
0.0
 10
120.603862
 20
35.570473
 30
0.0
 10
120.889861
 20
35.442471
 30
0.0
 10
121.143861
 20
35.258471
 30
0.0
 10
121.353862
 20
35.025471
 30
0.0
 10
121.509861
 20
34.753471
 30
0.0
 10
121.606860
 20
34.455473
 30
0.0
 10
121.639861
 20
34.143473
 30
0.0
 10
121.606860
 20
33.831474
 30
0.0
 10
121.509861
 20
33.533472
 30
0.0
 10
121.353862
 20
33.261472
 30
0.0
 10
121.143861
 20
33.028472
 30
0.0
 10
120.889861
 20
32.844472
 30
0.0
 10
120.603862
 20
32.716473
 30
0.0
 10
120.296861
 20
32.651471
 30
0.0
 10
119.982861
 20
32.651471
 30
0.0
 10
119.675862
 20
32.716473
 30
0.0
 10
119.389861
 20
32.844472
 30
0.0
 10
119.135861
 20
33.028472
 30
0.0
 10
118.925862
 20
33.261472
 30
0.0
 10
118.769861
 20
33.533472
 30
0.0
 10
118.672861
 20
33.831474
 30
0.0
 10
118.639861
 20
34.143473
 30
0.0
  0
LWPOLYLINE
  5
125
100
AcDbEntity
  8
0
 62
7
100
AcDbPolyline
 90
31
 70
0
 10
118.639861
 20
46.143472
 30
0.0
 10
118.672861
 20
46.455471
 30
0.0
 10
118.769861
 20
46.753472
 30
0.0
 10
118.925862
 20
47.025473
 30
0.0
 10
119.135861
 20
47.258472
 30
0.0
 10
119.389861
 20
47.442473
 30
0.0
 10
119.675862
 20
47.570472
 30
0.0
 10
119.982861
 20
47.635473
 30
0.0
 10
120.296861
 20
47.635473
 30
0.0
 10
120.603862
 20
47.570472
 30
0.0
 10
120.889861
 20
47.442473
 30
0.0
 10
121.143861
 20
47.258472
 30
0.0
 10
121.353862
 20
47.025473
 30
0.0
 10
121.509861
 20
46.753472
 30
0.0
 10
121.606860
 20
46.455471
 30
0.0
 10
121.639861
 20
46.143472
 30
0.0
 10
121.606860
 20
45.831472
 30
0.0
 10
121.509861
 20
45.533471
 30
0.0
 10
121.353862
 20
45.261474
 30
0.0
 10
121.143861
 20
45.028474
 30
0.0
 10
120.889861
 20
44.844473
 30
0.0
 10
120.603862
 20
44.716471
 30
0.0
 10
120.296861
 20
44.651473
 30
0.0
 10
119.982861
 20
44.651473
 30
0.0
 10
119.675862
 20
44.716471
 30
0.0
 10
119.389861
 20
44.844473
 30
0.0
 10
119.135861
 20
45.028474
 30
0.0
 10
118.925862
 20
45.261474
 30
0.0
 10
118.769861
 20
45.533471
 30
0.0
 10
118.672861
 20
45.831472
 30
0.0
 10
118.639861
 20
46.143472
 30
0.0
  0
LWPOLYLINE
  5
126
100
AcDbEntity
  8
0
 62
7
100
AcDbPolyline
 90
65
 70
0
 10
138.139861
 20
195.143473
 30
0.0
 10
138.139861
 20
242.169473
 30
0.0
 10
145.389862
 20
242.169473
 30
0.0
 10
145.389862
 20
248.169472
 30
0.0
 10
150.389861
 20
248.169472
 30
0.0
 10
150.389861
 20
242.169473
 30
0.0
 10
156.139862
 20
242.169473
 30
0.0
 10
156.139862
 20
236.669473
 30
0.0
 10
154.639862
 20
236.669473
 30
0.0
 10
154.639862
 20
233.669473
 30
0.0
 10
156.139862
 20
233.669473
 30
0.0
 10
156.139862
 20
232.169473
 30
0.0
 10
159.139862
 20
232.169473
 30
0.0
 10
159.139862
 20
233.669473
 30
0.0
 10
160.639862
 20
233.669473
 30
0.0
 10
160.639862
 20
236.669473
 30
0.0
 10
159.139862
 20
236.669473
 30
0.0
 10
159.139862
 20
242.169473
 30
0.0
 10
164.889860
 20
242.169473
 30
0.0
 10
164.889860
 20
248.169472
 30
0.0
 10
169.889861
 20
248.169472
 30
0.0
 10
169.889861
 20
242.169473
 30
0.0
 10
177.139862
 20
242.169473
 30
0.0
 10
177.139862
 20
232.913473
 30
0.0
 10
183.139862
 20
232.913473
 30
0.0
 10
183.139862
 20
227.913472
 30
0.0
 10
177.139862
 20
227.913472
 30
0.0
 10
177.139862
 20
220.156473
 30
0.0
 10
171.639862
 20
220.156473
 30
0.0
 10
171.639862
 20
221.656473
 30
0.0
 10
168.639863
 20
221.656473
 30
0.0
 10
168.639863
 20
220.156473
 30
0.0
 10
167.139860
 20
220.156473
 30
0.0
 10
167.139860
 20
217.156473
 30
0.0
 10
168.639863
 20
217.156473
 30
0.0
 10
168.639863
 20
215.656473
 30
0.0
 10
171.639862
 20
215.656473
 30
0.0
 10
171.639862
 20
217.156473
 30
0.0
 10
177.139862
 20
217.156473
 30
0.0
 10
177.139862
 20
209.400473
 30
0.0
 10
183.139862
 20
209.400473
 30
0.0
 10
183.139862
 20
204.400472
 30
0.0
 10
177.139862
 20
204.400472
 30
0.0
 10
177.139862
 20
195.143473
 30
0.0
 10
169.889861
 20
195.143473
 30
0.0
 10
169.889861
 20
189.143473
 30
0.0
 10
164.889860
 20
189.143473
 30
0.0
 10
164.889860
 20
195.143473
 30
0.0
 10
159.139862
 20
195.143473
 30
0.0
 10
159.139862
 20
200.643473
 30
0.0
 10
160.639862
 20
200.643473
 30
0.0
 10
160.639862
 20
203.643473
 30
0.0
 10
159.139862
 20
203.643473
 30
0.0
 10
159.139862
 20
205.143473
 30
0.0
 10
156.139862
 20
205.143473
 30
0.0
 10
156.139862
 20
203.643473
 30
0.0
 10
154.639862
 20
203.643473
 30
0.0
 10
154.639862
 20
200.643473
 30
0.0
 10
156.139862
 20
200.643473
 30
0.0
 10
156.139862
 20
195.143473
 30
0.0
 10
150.389861
 20
195.143473
 30
0.0
 10
150.389861
 20
189.143473
 30
0.0
 10
145.389862
 20
189.143473
 30
0.0
 10
145.389862
 20
195.143473
 30
0.0
 10
138.139861
 20
195.143473
 30
0.0
  0
LWPOLYLINE
  5
127
100
AcDbEntity
  8
0
 62
7
100
AcDbPolyline
 90
31
 70
0
 10
138.639860
 20
333.643472
 30
0.0
 10
138.672861
 20
333.955472
 30
0.0
 10
138.769860
 20
334.253473
 30
0.0
 10
138.925862
 20
334.525473
 30
0.0
 10
139.135860
 20
334.758473
 30
0.0
 10
139.389860
 20
334.942471
 30
0.0
 10
139.675862
 20
335.070473
 30
0.0
 10
139.982860
 20
335.135471
 30
0.0
 10
140.296860
 20
335.135471
 30
0.0
 10
140.603862
 20
335.070473
 30
0.0
 10
140.889860
 20
334.942471
 30
0.0
 10
141.143860
 20
334.758473
 30
0.0
 10
141.353862
 20
334.525473
 30
0.0
 10
141.509860
 20
334.253473
 30
0.0
 10
141.606860
 20
333.955472
 30
0.0
 10
141.639860
 20
333.643472
 30
0.0
 10
141.606860
 20
333.331473
 30
0.0
 10
141.509860
 20
333.033472
 30
0.0
 10
141.353862
 20
332.761471
 30
0.0
 10
141.143860
 20
332.528472
 30
0.0
 10
140.889860
 20
332.344471
 30
0.0
 10
140.603862
 20
332.216472
 30
0.0
 10
140.296860
 20
332.151474
 30
0.0
 10
139.982860
 20
332.151474
 30
0.0
 10
139.675862
 20
332.216472
 30
0.0
 10
139.389860
 20
332.344471
 30
0.0
 10
139.135860
 20
332.528472
 30
0.0
 10
138.925862
 20
332.761471
 30
0.0
 10
138.769860
 20
333.033472
 30
0.0
 10
138.672861
 20
333.331473
 30
0.0
 10
138.639860
 20
333.643472
 30
0.0
  0
LWPOLYLINE
  5
128
100
AcDbEntity
  8
0
 62
7
100
AcDbPolyline
 90
31
 70
0
 10
138.639860
 20
340.643472
 30
0.0
 10
138.672861
 20
340.955472
 30
0.0
 10
138.769860
 20
341.253473
 30
0.0
 10
138.925862
 20
341.525473
 30
0.0
 10
139.135860
 20
341.758473
 30
0.0
 10
139.389860
 20
341.942471
 30
0.0
 10
139.675862
 20
342.070473
 30
0.0
 10
139.982860
 20
342.135471
 30
0.0
 10
140.296860
 20
342.135471
 30
0.0
 10
140.603862
 20
342.070473
 30
0.0
 10
140.889860
 20
341.942471
 30
0.0
 10
141.143860
 20
341.758473
 30
0.0
 10
141.353862
 20
341.525473
 30
0.0
 10
141.509860
 20
341.253473
 30
0.0
 10
141.606860
 20
340.955472
 30
0.0
 10
141.639860
 20
340.643472
 30
0.0
 10
141.606860
 20
340.331473
 30
0.0
 10
141.509860
 20
340.033472
 30
0.0
 10
141.353862
 20
339.761472
 30
0.0
 10
141.143860
 20
339.528472
 30
0.0
 10
140.889860
 20
339.344471
 30
0.0
 10
140.603862
 20
339.216472
 30
0.0
 10
140.296860
 20
339.151471
 30
0.0
 10
139.982860
 20
339.151471
 30
0.0
 10
139.675862
 20
339.216472
 30
0.0
 10
139.389860
 20
339.344471
 30
0.0
 10
139.135860
 20
339.528472
 30
0.0
 10
138.925862
 20
339.761472
 30
0.0
 10
138.769860
 20
340.033472
 30
0.0
 10
138.672861
 20
340.331473
 30
0.0
 10
138.639860
 20
340.643472
 30
0.0
  0
LWPOLYLINE
  5
129
100
AcDbEntity
  8
0
 62
7
100
AcDbPolyline
 90
85
 70
0
 10
139.139862
 20
107.393472
 30
0.0
 10
139.139862
 20
112.393473
 30
0.0
 10
145.139862
 20
112.393473
 30
0.0
 10
145.139862
 20
118.143472
 30
0.0
 10
150.639862
 20
118.143472
 30
0.0
 10
150.639862
 20
116.643472
 30
0.0
 10
153.639861
 20
116.643472
 30
0.0
 10
153.639861
 20
118.143472
 30
0.0
 10
155.139861
 20
118.143472
 30
0.0
 10
155.139861
 20
121.143471
 30
0.0
 10
153.639861
 20
121.143471
 30
0.0
 10
153.639861
 20
122.643471
 30
0.0
 10
150.639862
 20
122.643471
 30
0.0
 10
150.639862
 20
121.143471
 30
0.0
 10
145.139862
 20
121.143471
 30
0.0
 10
145.139862
 20
126.893472
 30
0.0
 10
139.139862
 20
126.893472
 30
0.0
 10
139.139862
 20
131.893471
 30
0.0
 10
145.139862
 20
131.893471
 30
0.0
 10
145.139862
 20
139.143472
 30
0.0
 10
139.139862
 20
139.143472
 30
0.0
 10
139.532862
 20
142.885473
 30
0.0
 10
140.695861
 20
146.464472
 30
0.0
 10
142.577862
 20
149.723472
 30
0.0
 10
145.095860
 20
152.520472
 30
0.0
 10
148.139861
 20
154.731472
 30
0.0
 10
151.577861
 20
156.262474
 30
0.0
 10
155.257861
 20
157.044472
 30
0.0
 10
157.139860
 20
157.044472
 30
0.0
 10
157.139860
 20
157.143473
 30
0.0
 10
180.165860
 20
157.143473
 30
0.0
 10
180.165860
 20
157.044472
 30
0.0
 10
182.047862
 20
157.044472
 30
0.0
 10
185.727862
 20
156.262474
 30
0.0
 10
189.165862
 20
154.731472
 30
0.0
 10
192.209860
 20
152.520472
 30
0.0
 10
194.727861
 20
149.723472
 30
0.0
 10
196.609860
 20
146.464472
 30
0.0
 10
197.772861
 20
142.885473
 30
0.0
 10
198.165861
 20
139.143472
 30
0.0
 10
192.165862
 20
139.143472
 30
0.0
 10
192.165862
 20
131.893471
 30
0.0
 10
198.165861
 20
131.893471
 30
0.0
 10
198.165861
 20
126.893472
 30
0.0
 10
192.165862
 20
126.893472
 30
0.0
 10
192.165862
 20
121.143471
 30
0.0
 10
186.665862
 20
121.143471
 30
0.0
 10
186.665862
 20
122.643471
 30
0.0
 10
183.665862
 20
122.643471
 30
0.0
 10
183.665862
 20
121.143471
 30
0.0
 10
182.165862
 20
121.143471
 30
0.0
 10
182.165862
 20
118.143472
 30
0.0
 10
183.665862
 20
118.143472
 30
0.0
 10
183.665862
 20
116.643472
 30
0.0
 10
186.665862
 20
116.643472
 30
0.0
 10
186.665862
 20
118.143472
 30
0.0
 10
192.165862
 20
118.143472
 30
0.0
 10
192.165862
 20
112.393473
 30
0.0
 10
198.165861
 20
112.393473
 30
0.0
 10
198.165861
 20
107.393472
 30
0.0
 10
192.165862
 20
107.393472
 30
0.0
 10
192.165862
 20
100.143471
 30
0.0
 10
182.909862
 20
100.143471
 30
0.0
 10
182.909862
 20
94.143472
 30
0.0
 10
177.909861
 20
94.143472
 30
0.0
 10
177.909861
 20
100.143471
 30
0.0
 10
170.152862
 20
100.143471
 30
0.0
 10
170.152862
 20
105.643471
 30
0.0
 10
171.652861
 20
105.643471
 30
0.0
 10
171.652861
 20
108.643471
 30
0.0
 10
170.152862
 20
108.643471
 30
0.0
 10
170.152862
 20
110.143473
 30
0.0
 10
167.152862
 20
110.143473
 30
0.0
 10
167.152862
 20
108.643471
 30
0.0
 10
165.652862
 20
108.643471
 30
0.0
 10
165.652862
 20
105.643471
 30
0.0
 10
167.152862
 20
105.643471
 30
0.0
 10
167.152862
 20
100.143471
 30
0.0
 10
159.396862
 20
100.143471
 30
0.0
 10
159.396862
 20
94.143472
 30
0.0
 10
154.396861
 20
94.143472
 30
0.0
 10
154.396861
 20
100.143471
 30
0.0
 10
145.139862
 20
100.143471
 30
0.0
 10
145.139862
 20
107.393472
 30
0.0
 10
139.139862
 20
107.393472
 30
0.0
  0
LWPOLYLINE
  5
12a
100
AcDbEntity
  8
0
 62
7
100
AcDbPolyline
 90
31
 70
0
 10
140.239860
 20
164.743471
 30
0.0
 10
140.337862
 20
165.679473
 30
0.0
 10
140.628861
 20
166.573471
 30
0.0
 10
141.098860
 20
167.388472
 30
0.0
 10
141.728862
 20
168.087472
 30
0.0
 10
142.489863
 20
168.640472
 30
0.0
 10
143.348860
 20
169.023473
 30
0.0
 10
144.269861
 20
169.218472
 30
0.0
 10
145.209861
 20
169.218472
 30
0.0
 10
146.130862
 20
169.023473
 30
0.0
 10
146.989862
 20
168.640472
 30
0.0
 10
147.750860
 20
168.087472
 30
0.0
 10
148.380862
 20
167.388472
 30
0.0
 10
148.850861
 20
166.573471
 30
0.0
 10
149.141860
 20
165.679473
 30
0.0
 10
149.239862
 20
164.743471
 30
0.0
 10
149.141860
 20
163.807473
 30
0.0
 10
148.850861
 20
162.913472
 30
0.0
 10
148.380862
 20
162.098474
 30
0.0
 10
147.750860
 20
161.399471
 30
0.0
 10
146.989862
 20
160.846474
 30
0.0
 10
146.130862
 20
160.463473
 30
0.0
 10
145.209861
 20
160.268471
 30
0.0
 10
144.269861
 20
160.268471
 30
0.0
 10
143.348860
 20
160.463473
 30
0.0
 10
142.489863
 20
160.846474
 30
0.0
 10
141.728862
 20
161.399471
 30
0.0
 10
141.098860
 20
162.098474
 30
0.0
 10
140.628861
 20
162.913472
 30
0.0
 10
140.337862
 20
163.807473
 30
0.0
 10
140.239860
 20
164.743471
 30
0.0
  0
LWPOLYLINE
  5
12b
100
AcDbEntity
  8
0
 62
7
100
AcDbPolyline
 90
31
 70
0
 10
140.239860
 20
174.343472
 30
0.0
 10
140.337862
 20
175.279473
 30
0.0
 10
140.628861
 20
176.173471
 30
0.0
 10
141.098860
 20
176.988473
 30
0.0
 10
141.728862
 20
177.687472
 30
0.0
 10
142.489863
 20
178.240473
 30
0.0
 10
143.348860
 20
178.623474
 30
0.0
 10
144.269861
 20
178.818472
 30
0.0
 10
145.209861
 20
178.818472
 30
0.0
 10
146.130862
 20
178.623474
 30
0.0
 10
146.989862
 20
178.240473
 30
0.0
 10
147.750860
 20
177.687472
 30
0.0
 10
148.380862
 20
176.988473
 30
0.0
 10
148.850861
 20
176.173471
 30
0.0
 10
149.141860
 20
175.279473
 30
0.0
 10
149.239862
 20
174.343472
 30
0.0
 10
149.141860
 20
173.407474
 30
0.0
 10
148.850861
 20
172.513473
 30
0.0
 10
148.380862
 20
171.698471
 30
0.0
 10
147.750860
 20
170.999472
 30
0.0
 10
146.989862
 20
170.446471
 30
0.0
 10
146.130862
 20
170.063473
 30
0.0
 10
145.209861
 20
169.868472
 30
0.0
 10
144.269861
 20
169.868472
 30
0.0
 10
143.348860
 20
170.063473
 30
0.0
 10
142.489863
 20
170.446471
 30
0.0
 10
141.728862
 20
170.999472
 30
0.0
 10
141.098860
 20
171.698471
 30
0.0
 10
140.628861
 20
172.513473
 30
0.0
 10
140.337862
 20
173.407474
 30
0.0
 10
140.239860
 20
174.343472
 30
0.0
  0
LWPOLYLINE
  5
12c
100
AcDbEntity
  8
0
 62
7
100
AcDbPolyline
 90
31
 70
0
 10
143.239863
 20
164.743471
 30
0.0
 10
143.272860
 20
165.055471
 30
0.0
 10
143.369863
 20
165.353472
 30
0.0
 10
143.525861
 20
165.625472
 30
0.0
 10
143.735860
 20
165.858472
 30
0.0
 10
143.989860
 20
166.042473
 30
0.0
 10
144.275861
 20
166.170472
 30
0.0
 10
144.582862
 20
166.235473
 30
0.0
 10
144.896863
 20
166.235473
 30
0.0
 10
145.203861
 20
166.170472
 30
0.0
 10
145.489862
 20
166.042473
 30
0.0
 10
145.743862
 20
165.858472
 30
0.0
 10
145.953861
 20
165.625472
 30
0.0
 10
146.109862
 20
165.353472
 30
0.0
 10
146.206862
 20
165.055471
 30
0.0
 10
146.239862
 20
164.743471
 30
0.0
 10
146.206862
 20
164.431472
 30
0.0
 10
146.109862
 20
164.133471
 30
0.0
 10
145.953861
 20
163.861473
 30
0.0
 10
145.743862
 20
163.628474
 30
0.0
 10
145.489862
 20
163.444473
 30
0.0
 10
145.203861
 20
163.316471
 30
0.0
 10
144.896863
 20
163.251473
 30
0.0
 10
144.582862
 20
163.251473
 30
0.0
 10
144.275861
 20
163.316471
 30
0.0
 10
143.989860
 20
163.444473
 30
0.0
 10
143.735860
 20
163.628474
 30
0.0
 10
143.525861
 20
163.861473
 30
0.0
 10
143.369863
 20
164.133471
 30
0.0
 10
143.272860
 20
164.431472
 30
0.0
 10
143.239863
 20
164.743471
 30
0.0
  0
LWPOLYLINE
  5
12d
100
AcDbEntity
  8
0
 62
7
100
AcDbPolyline
 90
31
 70
0
 10
143.239863
 20
174.343472
 30
0.0
 10
143.272860
 20
174.655472
 30
0.0
 10
143.369863
 20
174.953473
 30
0.0
 10
143.525861
 20
175.225473
 30
0.0
 10
143.735860
 20
175.458473
 30
0.0
 10
143.989860
 20
175.642473
 30
0.0
 10
144.275861
 20
175.770472
 30
0.0
 10
144.582862
 20
175.835474
 30
0.0
 10
144.896863
 20
175.835474
 30
0.0
 10
145.203861
 20
175.770472
 30
0.0
 10
145.489862
 20
175.642473
 30
0.0
 10
145.743862
 20
175.458473
 30
0.0
 10
145.953861
 20
175.225473
 30
0.0
 10
146.109862
 20
174.953473
 30
0.0
 10
146.206862
 20
174.655472
 30
0.0
 10
146.239862
 20
174.343472
 30
0.0
 10
146.206862
 20
174.031473
 30
0.0
 10
146.109862
 20
173.733471
 30
0.0
 10
145.953861
 20
173.461471
 30
0.0
 10
145.743862
 20
173.228471
 30
0.0
 10
145.489862
 20
173.044471
 30
0.0
 10
145.203861
 20
172.916472
 30
0.0
 10
144.896863
 20
172.851473
 30
0.0
 10
144.582862
 20
172.851473
 30
0.0
 10
144.275861
 20
172.916472
 30
0.0
 10
143.989860
 20
173.044471
 30
0.0
 10
143.735860
 20
173.228471
 30
0.0
 10
143.525861
 20
173.461471
 30
0.0
 10
143.369863
 20
173.733471
 30
0.0
 10
143.272860
 20
174.031473
 30
0.0
 10
143.239863
 20
174.343472
 30
0.0
  0
LWPOLYLINE
  5
12e
100
AcDbEntity
  8
0
 62
7
100
AcDbPolyline
 90
65
 70
0
 10
146.139862
 20
260.143472
 30
0.0
 10
146.139862
 20
307.169472
 30
0.0
 10
153.389861
 20
307.169472
 30
0.0
 10
153.389861
 20
313.169472
 30
0.0
 10
158.389862
 20
313.169472
 30
0.0
 10
158.389862
 20
307.169472
 30
0.0
 10
164.139860
 20
307.169472
 30
0.0
 10
164.139860
 20
301.669472
 30
0.0
 10
162.639860
 20
301.669472
 30
0.0
 10
162.639860
 20
298.669472
 30
0.0
 10
164.139860
 20
298.669472
 30
0.0
 10
164.139860
 20
297.169472
 30
0.0
 10
167.139860
 20
297.169472
 30
0.0
 10
167.139860
 20
298.669472
 30
0.0
 10
168.639863
 20
298.669472
 30
0.0
 10
168.639863
 20
301.669472
 30
0.0
 10
167.139860
 20
301.669472
 30
0.0
 10
167.139860
 20
307.169472
 30
0.0
 10
172.889861
 20
307.169472
 30
0.0
 10
172.889861
 20
313.169472
 30
0.0
 10
177.889862
 20
313.169472
 30
0.0
 10
177.889862
 20
307.169472
 30
0.0
 10
185.139861
 20
307.169472
 30
0.0
 10
185.139861
 20
297.913472
 30
0.0
 10
191.139860
 20
297.913472
 30
0.0
 10
191.139860
 20
292.913472
 30
0.0
 10
185.139861
 20
292.913472
 30
0.0
 10
185.139861
 20
285.156472
 30
0.0
 10
179.639860
 20
285.156472
 30
0.0
 10
179.639860
 20
286.656472
 30
0.0
 10
176.639861
 20
286.656472
 30
0.0
 10
176.639861
 20
285.156472
 30
0.0
 10
175.139861
 20
285.156472
 30
0.0
 10
175.139861
 20
282.156472
 30
0.0
 10
176.639861
 20
282.156472
 30
0.0
 10
176.639861
 20
280.656472
 30
0.0
 10
179.639860
 20
280.656472
 30
0.0
 10
179.639860
 20
282.156472
 30
0.0
 10
185.139861
 20
282.156472
 30
0.0
 10
185.139861
 20
274.400472
 30
0.0
 10
191.139860
 20
274.400472
 30
0.0
 10
191.139860
 20
269.400472
 30
0.0
 10
185.139861
 20
269.400472
 30
0.0
 10
185.139861
 20
260.143472
 30
0.0
 10
177.889862
 20
260.143472
 30
0.0
 10
177.889862
 20
254.143473
 30
0.0
 10
172.889861
 20
254.143473
 30
0.0
 10
172.889861
 20
260.143472
 30
0.0
 10
167.139860
 20
260.143472
 30
0.0
 10
167.139860
 20
265.643472
 30
0.0
 10
168.639863
 20
265.643472
 30
0.0
 10
168.639863
 20
268.643472
 30
0.0
 10
167.139860
 20
268.643472
 30
0.0
 10
167.139860
 20
270.143472
 30
0.0
 10
164.139860
 20
270.143472
 30
0.0
 10
164.139860
 20
268.643472
 30
0.0
 10
162.639860
 20
268.643472
 30
0.0
 10
162.639860
 20
265.643472
 30
0.0
 10
164.139860
 20
265.643472
 30
0.0
 10
164.139860
 20
260.143472
 30
0.0
 10
158.389862
 20
260.143472
 30
0.0
 10
158.389862
 20
254.143473
 30
0.0
 10
153.389861
 20
254.143473
 30
0.0
 10
153.389861
 20
260.143472
 30
0.0
 10
146.139862
 20
260.143472
 30
0.0
  0
LWPOLYLINE
  5
12f
100
AcDbEntity
  8
0
 62
7
100
AcDbPolyline
 90
31
 70
0
 10
149.839861
 20
164.743471
 30
0.0
 10
149.937862
 20
165.679473
 30
0.0
 10
150.228862
 20
166.573471
 30
0.0
 10
150.698860
 20
167.388472
 30
0.0
 10
151.328862
 20
168.087472
 30
0.0
 10
152.089860
 20
168.640472
 30
0.0
 10
152.948860
 20
169.023473
 30
0.0
 10
153.869861
 20
169.218472
 30
0.0
 10
154.809862
 20
169.218472
 30
0.0
 10
155.730860
 20
169.023473
 30
0.0
 10
156.589860
 20
168.640472
 30
0.0
 10
157.350861
 20
168.087472
 30
0.0
 10
157.980863
 20
167.388472
 30
0.0
 10
158.450861
 20
166.573471
 30
0.0
 10
158.741861
 20
165.679473
 30
0.0
 10
158.839862
 20
164.743471
 30
0.0
 10
158.741861
 20
163.807473
 30
0.0
 10
158.450861
 20
162.913472
 30
0.0
 10
157.980863
 20
162.098474
 30
0.0
 10
157.350861
 20
161.399471
 30
0.0
 10
156.589860
 20
160.846474
 30
0.0
 10
155.730860
 20
160.463473
 30
0.0
 10
154.809862
 20
160.268471
 30
0.0
 10
153.869861
 20
160.268471
 30
0.0
 10
152.948860
 20
160.463473
 30
0.0
 10
152.089860
 20
160.846474
 30
0.0
 10
151.328862
 20
161.399471
 30
0.0
 10
150.698860
 20
162.098474
 30
0.0
 10
150.228862
 20
162.913472
 30
0.0
 10
149.937862
 20
163.807473
 30
0.0
 10
149.839861
 20
164.743471
 30
0.0
  0
LWPOLYLINE
  5
130
100
AcDbEntity
  8
0
 62
7
100
AcDbPolyline
 90
31
 70
0
 10
149.839861
 20
174.343472
 30
0.0
 10
149.937862
 20
175.279473
 30
0.0
 10
150.228862
 20
176.173471
 30
0.0
 10
150.698860
 20
176.988473
 30
0.0
 10
151.328862
 20
177.687472
 30
0.0
 10
152.089860
 20
178.240473
 30
0.0
 10
152.948860
 20
178.623474
 30
0.0
 10
153.869861
 20
178.818472
 30
0.0
 10
154.809862
 20
178.818472
 30
0.0
 10
155.730860
 20
178.623474
 30
0.0
 10
156.589860
 20
178.240473
 30
0.0
 10
157.350861
 20
177.687472
 30
0.0
 10
157.980863
 20
176.988473
 30
0.0
 10
158.450861
 20
176.173471
 30
0.0
 10
158.741861
 20
175.279473
 30
0.0
 10
158.839862
 20
174.343472
 30
0.0
 10
158.741861
 20
173.407474
 30
0.0
 10
158.450861
 20
172.513473
 30
0.0
 10
157.980863
 20
171.698471
 30
0.0
 10
157.350861
 20
170.999472
 30
0.0
 10
156.589860
 20
170.446471
 30
0.0
 10
155.730860
 20
170.063473
 30
0.0
 10
154.809862
 20
169.868472
 30
0.0
 10
153.869861
 20
169.868472
 30
0.0
 10
152.948860
 20
170.063473
 30
0.0
 10
152.089860
 20
170.446471
 30
0.0
 10
151.328862
 20
170.999472
 30
0.0
 10
150.698860
 20
171.698471
 30
0.0
 10
150.228862
 20
172.513473
 30
0.0
 10
149.937862
 20
173.407474
 30
0.0
 10
149.839861
 20
174.343472
 30
0.0
  0
LWPOLYLINE
  5
131
100
AcDbEntity
  8
0
 62
7
100
AcDbPolyline
 90
21
 70
0
 10
151.652862
 20
109.643472
 30
0.0
 10
151.725861
 20
110.107473
 30
0.0
 10
151.938860
 20
110.525473
 30
0.0
 10
152.270861
 20
110.857473
 30
0.0
 10
152.688860
 20
111.070472
 30
0.0
 10
153.152862
 20
111.143471
 30
0.0
 10
153.616860
 20
111.070472
 30
0.0
 10
154.034863
 20
110.857473
 30
0.0
 10
154.366860
 20
110.525473
 30
0.0
 10
154.579862
 20
110.107473
 30
0.0
 10
154.652861
 20
109.643472
 30
0.0
 10
154.579862
 20
109.179473
 30
0.0
 10
154.366860
 20
108.761474
 30
0.0
 10
154.034863
 20
108.429473
 30
0.0
 10
153.616860
 20
108.216471
 30
0.0
 10
153.152862
 20
108.143472
 30
0.0
 10
152.688860
 20
108.216471
 30
0.0
 10
152.270861
 20
108.429473
 30
0.0
 10
151.938860
 20
108.761474
 30
0.0
 10
151.725861
 20
109.179473
 30
0.0
 10
151.652862
 20
109.643472
 30
0.0
  0
LWPOLYLINE
  5
132
100
AcDbEntity
  8
0
 62
7
100
AcDbPolyline
 90
21
 70
0
 10
151.652862
 20
140.643472
 30
0.0
 10
151.725861
 20
141.107473
 30
0.0
 10
151.938860
 20
141.525473
 30
0.0
 10
152.270861
 20
141.857473
 30
0.0
 10
152.688860
 20
142.070472
 30
0.0
 10
153.152862
 20
142.143472
 30
0.0
 10
153.616860
 20
142.070472
 30
0.0
 10
154.034863
 20
141.857473
 30
0.0
 10
154.366860
 20
141.525473
 30
0.0
 10
154.579862
 20
141.107473
 30
0.0
 10
154.652861
 20
140.643472
 30
0.0
 10
154.579862
 20
140.179473
 30
0.0
 10
154.366860
 20
139.761471
 30
0.0
 10
154.034863
 20
139.429473
 30
0.0
 10
153.616860
 20
139.216471
 30
0.0
 10
153.152862
 20
139.143472
 30
0.0
 10
152.688860
 20
139.216471
 30
0.0
 10
152.270861
 20
139.429473
 30
0.0
 10
151.938860
 20
139.761471
 30
0.0
 10
151.725861
 20
140.179473
 30
0.0
 10
151.652862
 20
140.643472
 30
0.0
  0
LWPOLYLINE
  5
133
100
AcDbEntity
  8
0
 62
7
100
AcDbPolyline
 90
31
 70
0
 10
152.839860
 20
164.743471
 30
0.0
 10
152.872861
 20
165.055471
 30
0.0
 10
152.969860
 20
165.353472
 30
0.0
 10
153.125861
 20
165.625472
 30
0.0
 10
153.335860
 20
165.858472
 30
0.0
 10
153.589860
 20
166.042473
 30
0.0
 10
153.875861
 20
166.170472
 30
0.0
 10
154.182860
 20
166.235473
 30
0.0
 10
154.496860
 20
166.235473
 30
0.0
 10
154.803862
 20
166.170472
 30
0.0
 10
155.089860
 20
166.042473
 30
0.0
 10
155.343860
 20
165.858472
 30
0.0
 10
155.553862
 20
165.625472
 30
0.0
 10
155.709860
 20
165.353472
 30
0.0
 10
155.806860
 20
165.055471
 30
0.0
 10
155.839860
 20
164.743471
 30
0.0
 10
155.806860
 20
164.431472
 30
0.0
 10
155.709860
 20
164.133471
 30
0.0
 10
155.553862
 20
163.861473
 30
0.0
 10
155.343860
 20
163.628474
 30
0.0
 10
155.089860
 20
163.444473
 30
0.0
 10
154.803862
 20
163.316471
 30
0.0
 10
154.496860
 20
163.251473
 30
0.0
 10
154.182860
 20
163.251473
 30
0.0
 10
153.875861
 20
163.316471
 30
0.0
 10
153.589860
 20
163.444473
 30
0.0
 10
153.335860
 20
163.628474
 30
0.0
 10
153.125861
 20
163.861473
 30
0.0
 10
152.969860
 20
164.133471
 30
0.0
 10
152.872861
 20
164.431472
 30
0.0
 10
152.839860
 20
164.743471
 30
0.0
  0
LWPOLYLINE
  5
134
100
AcDbEntity
  8
0
 62
7
100
AcDbPolyline
 90
31
 70
0
 10
152.839860
 20
174.343472
 30
0.0
 10
152.872861
 20
174.655472
 30
0.0
 10
152.969860
 20
174.953473
 30
0.0
 10
153.125861
 20
175.225473
 30
0.0
 10
153.335860
 20
175.458473
 30
0.0
 10
153.589860
 20
175.642473
 30
0.0
 10
153.875861
 20
175.770472
 30
0.0
 10
154.182860
 20
175.835474
 30
0.0
 10
154.496860
 20
175.835474
 30
0.0
 10
154.803862
 20
175.770472
 30
0.0
 10
155.089860
 20
175.642473
 30
0.0
 10
155.343860
 20
175.458473
 30
0.0
 10
155.553862
 20
175.225473
 30
0.0
 10
155.709860
 20
174.953473
 30
0.0
 10
155.806860
 20
174.655472
 30
0.0
 10
155.839860
 20
174.343472
 30
0.0
 10
155.806860
 20
174.031473
 30
0.0
 10
155.709860
 20
173.733471
 30
0.0
 10
155.553862
 20
173.461471
 30
0.0
 10
155.343860
 20
173.228471
 30
0.0
 10
155.089860
 20
173.044471
 30
0.0
 10
154.803862
 20
172.916472
 30
0.0
 10
154.496860
 20
172.851473
 30
0.0
 10
154.182860
 20
172.851473
 30
0.0
 10
153.875861
 20
172.916472
 30
0.0
 10
153.589860
 20
173.044471
 30
0.0
 10
153.335860
 20
173.228471
 30
0.0
 10
153.125861
 20
173.461471
 30
0.0
 10
152.969860
 20
173.733471
 30
0.0
 10
152.872861
 20
174.031473
 30
0.0
 10
152.839860
 20
174.343472
 30
0.0
  0
LWPOLYLINE
  5
135
100
AcDbEntity
  8
0
 62
7
100
AcDbPolyline
 90
14
 70
0
 10
153.168861
 20
219.138472
 30
0.0
 10
153.847862
 20
220.928472
 30
0.0
 10
155.280862
 20
222.198472
 30
0.0
 10
157.139860
 20
222.656473
 30
0.0
 10
158.998861
 20
222.198472
 30
0.0
 10
160.431861
 20
220.928472
 30
0.0
 10
161.110862
 20
219.138472
 30
0.0
 10
160.879861
 20
217.238473
 30
0.0
 10
159.791860
 20
215.662473
 30
0.0
 10
158.096862
 20
214.772471
 30
0.0
 10
156.182862
 20
214.772471
 30
0.0
 10
154.487860
 20
215.662473
 30
0.0
 10
153.399863
 20
217.238473
 30
0.0
 10
153.168861
 20
219.138472
 30
0.0
  0
LWPOLYLINE
  5
136
100
AcDbEntity
  8
0
 62
7
100
AcDbPolyline
 90
31
 70
0
 10
156.652860
 20
125.143472
 30
0.0
 10
156.914861
 20
127.638471
 30
0.0
 10
157.689860
 20
130.024471
 30
0.0
 10
158.944860
 20
132.196473
 30
0.0
 10
160.622861
 20
134.061474
 30
0.0
 10
162.652860
 20
135.535472
 30
0.0
 10
164.944860
 20
136.556473
 30
0.0
 10
167.398861
 20
137.077473
 30
0.0
 10
169.906863
 20
137.077473
 30
0.0
 10
172.360861
 20
136.556473
 30
0.0
 10
174.652861
 20
135.535472
 30
0.0
 10
176.682860
 20
134.061474
 30
0.0
 10
178.360860
 20
132.196473
 30
0.0
 10
179.615860
 20
130.024471
 30
0.0
 10
180.390862
 20
127.638471
 30
0.0
 10
180.652860
 20
125.143472
 30
0.0
 10
180.390862
 20
122.648472
 30
0.0
 10
179.615860
 20
120.262472
 30
0.0
 10
178.360860
 20
118.090473
 30
0.0
 10
176.682860
 20
116.225472
 30
0.0
 10
174.652861
 20
114.751471
 30
0.0
 10
172.360861
 20
113.730473
 30
0.0
 10
169.906863
 20
113.209474
 30
0.0
 10
167.398861
 20
113.209474
 30
0.0
 10
164.944860
 20
113.730473
 30
0.0
 10
162.652860
 20
114.751471
 30
0.0
 10
160.622861
 20
116.225472
 30
0.0
 10
158.944860
 20
118.090473
 30
0.0
 10
157.689860
 20
120.262472
 30
0.0
 10
156.914861
 20
122.648472
 30
0.0
 10
156.652860
 20
125.143472
 30
0.0
  0
LWPOLYLINE
  5
137
100
AcDbEntity
  8
0
 62
7
100
AcDbPolyline
 90
31
 70
0
 10
159.439861
 20
164.743471
 30
0.0
 10
159.537860
 20
165.679473
 30
0.0
 10
159.828862
 20
166.573471
 30
0.0
 10
160.298861
 20
167.388472
 30
0.0
 10
160.928860
 20
168.087472
 30
0.0
 10
161.689861
 20
168.640472
 30
0.0
 10
162.548861
 20
169.023473
 30
0.0
 10
163.469862
 20
169.218472
 30
0.0
 10
164.409862
 20
169.218472
 30
0.0
 10
165.330861
 20
169.023473
 30
0.0
 10
166.189860
 20
168.640472
 30
0.0
 10
166.950861
 20
168.087472
 30
0.0
 10
167.580860
 20
167.388472
 30
0.0
 10
168.050862
 20
166.573471
 30
0.0
 10
168.341861
 20
165.679473
 30
0.0
 10
168.439860
 20
164.743471
 30
0.0
 10
168.341861
 20
163.807473
 30
0.0
 10
168.050862
 20
162.913472
 30
0.0
 10
167.580860
 20
162.098474
 30
0.0
 10
166.950861
 20
161.399471
 30
0.0
 10
166.189860
 20
160.846474
 30
0.0
 10
165.330861
 20
160.463473
 30
0.0
 10
164.409862
 20
160.268471
 30
0.0
 10
163.469862
 20
160.268471
 30
0.0
 10
162.548861
 20
160.463473
 30
0.0
 10
161.689861
 20
160.846474
 30
0.0
 10
160.928860
 20
161.399471
 30
0.0
 10
160.298861
 20
162.098474
 30
0.0
 10
159.828862
 20
162.913472
 30
0.0
 10
159.537860
 20
163.807473
 30
0.0
 10
159.439861
 20
164.743471
 30
0.0
  0
LWPOLYLINE
  5
138
100
AcDbEntity
  8
0
 62
7
100
AcDbPolyline
 90
31
 70
0
 10
159.439861
 20
174.343472
 30
0.0
 10
159.537860
 20
175.279473
 30
0.0
 10
159.828862
 20
176.173471
 30
0.0
 10
160.298861
 20
176.988473
 30
0.0
 10
160.928860
 20
177.687472
 30
0.0
 10
161.689861
 20
178.240473
 30
0.0
 10
162.548861
 20
178.623474
 30
0.0
 10
163.469862
 20
178.818472
 30
0.0
 10
164.409862
 20
178.818472
 30
0.0
 10
165.330861
 20
178.623474
 30
0.0
 10
166.189860
 20
178.240473
 30
0.0
 10
166.950861
 20
177.687472
 30
0.0
 10
167.580860
 20
176.988473
 30
0.0
 10
168.050862
 20
176.173471
 30
0.0
 10
168.341861
 20
175.279473
 30
0.0
 10
168.439860
 20
174.343472
 30
0.0
 10
168.341861
 20
173.407474
 30
0.0
 10
168.050862
 20
172.513473
 30
0.0
 10
167.580860
 20
171.698471
 30
0.0
 10
166.950861
 20
170.999472
 30
0.0
 10
166.189860
 20
170.446471
 30
0.0
 10
165.330861
 20
170.063473
 30
0.0
 10
164.409862
 20
169.868472
 30
0.0
 10
163.469862
 20
169.868472
 30
0.0
 10
162.548861
 20
170.063473
 30
0.0
 10
161.689861
 20
170.446471
 30
0.0
 10
160.928860
 20
170.999472
 30
0.0
 10
160.298861
 20
171.698471
 30
0.0
 10
159.828862
 20
172.513473
 30
0.0
 10
159.537860
 20
173.407474
 30
0.0
 10
159.439861
 20
174.343472
 30
0.0
  0
LWPOLYLINE
  5
139
100
AcDbEntity
  8
0
 62
7
100
AcDbPolyline
 90
31
 70
0
 10
162.439861
 20
164.743471
 30
0.0
 10
162.472861
 20
165.055471
 30
0.0
 10
162.569861
 20
165.353472
 30
0.0
 10
162.725862
 20
165.625472
 30
0.0
 10
162.935861
 20
165.858472
 30
0.0
 10
163.189861
 20
166.042473
 30
0.0
 10
163.475862
 20
166.170472
 30
0.0
 10
163.782860
 20
166.235473
 30
0.0
 10
164.096861
 20
166.235473
 30
0.0
 10
164.403862
 20
166.170472
 30
0.0
 10
164.689861
 20
166.042473
 30
0.0
 10
164.943861
 20
165.858472
 30
0.0
 10
165.153862
 20
165.625472
 30
0.0
 10
165.309860
 20
165.353472
 30
0.0
 10
165.406860
 20
165.055471
 30
0.0
 10
165.439860
 20
164.743471
 30
0.0
 10
165.406860
 20
164.431472
 30
0.0
 10
165.309860
 20
164.133471
 30
0.0
 10
165.153862
 20
163.861473
 30
0.0
 10
164.943861
 20
163.628474
 30
0.0
 10
164.689861
 20
163.444473
 30
0.0
 10
164.403862
 20
163.316471
 30
0.0
 10
164.096861
 20
163.251473
 30
0.0
 10
163.782860
 20
163.251473
 30
0.0
 10
163.475862
 20
163.316471
 30
0.0
 10
163.189861
 20
163.444473
 30
0.0
 10
162.935861
 20
163.628474
 30
0.0
 10
162.725862
 20
163.861473
 30
0.0
 10
162.569861
 20
164.133471
 30
0.0
 10
162.472861
 20
164.431472
 30
0.0
 10
162.439861
 20
164.743471
 30
0.0
  0
LWPOLYLINE
  5
13a
100
AcDbEntity
  8
0
 62
7
100
AcDbPolyline
 90
31
 70
0
 10
162.439861
 20
174.343472
 30
0.0
 10
162.472861
 20
174.655472
 30
0.0
 10
162.569861
 20
174.953473
 30
0.0
 10
162.725862
 20
175.225473
 30
0.0
 10
162.935861
 20
175.458473
 30
0.0
 10
163.189861
 20
175.642473
 30
0.0
 10
163.475862
 20
175.770472
 30
0.0
 10
163.782860
 20
175.835474
 30
0.0
 10
164.096861
 20
175.835474
 30
0.0
 10
164.403862
 20
175.770472
 30
0.0
 10
164.689861
 20
175.642473
 30
0.0
 10
164.943861
 20
175.458473
 30
0.0
 10
165.153862
 20
175.225473
 30
0.0
 10
165.309860
 20
174.953473
 30
0.0
 10
165.406860
 20
174.655472
 30
0.0
 10
165.439860
 20
174.343472
 30
0.0
 10
165.406860
 20
174.031473
 30
0.0
 10
165.309860
 20
173.733471
 30
0.0
 10
165.153862
 20
173.461471
 30
0.0
 10
164.943861
 20
173.228471
 30
0.0
 10
164.689861
 20
173.044471
 30
0.0
 10
164.403862
 20
172.916472
 30
0.0
 10
164.096861
 20
172.851473
 30
0.0
 10
163.782860
 20
172.851473
 30
0.0
 10
163.475862
 20
172.916472
 30
0.0
 10
163.189861
 20
173.044471
 30
0.0
 10
162.935861
 20
173.228471
 30
0.0
 10
162.725862
 20
173.461471
 30
0.0
 10
162.569861
 20
173.733471
 30
0.0
 10
162.472861
 20
174.031473
 30
0.0
 10
162.439861
 20
174.343472
 30
0.0
  0
LWPOLYLINE
  5
13b
100
AcDbEntity
  8
0
 62
7
100
AcDbPolyline
 90
31
 70
0
 10
169.039862
 20
164.743471
 30
0.0
 10
169.137861
 20
165.679473
 30
0.0
 10
169.428860
 20
166.573471
 30
0.0
 10
169.898862
 20
167.388472
 30
0.0
 10
170.528861
 20
168.087472
 30
0.0
 10
171.289861
 20
168.640472
 30
0.0
 10
172.148861
 20
169.023473
 30
0.0
 10
173.069860
 20
169.218472
 30
0.0
 10
174.009860
 20
169.218472
 30
0.0
 10
174.930861
 20
169.023473
 30
0.0
 10
175.789861
 20
168.640472
 30
0.0
 10
176.550862
 20
168.087472
 30
0.0
 10
177.180861
 20
167.388472
 30
0.0
 10
177.650860
 20
166.573471
 30
0.0
 10
177.941862
 20
165.679473
 30
0.0
 10
178.039861
 20
164.743471
 30
0.0
 10
177.941862
 20
163.807473
 30
0.0
 10
177.650860
 20
162.913472
 30
0.0
 10
177.180861
 20
162.098474
 30
0.0
 10
176.550862
 20
161.399471
 30
0.0
 10
175.789861
 20
160.846474
 30
0.0
 10
174.930861
 20
160.463473
 30
0.0
 10
174.009860
 20
160.268471
 30
0.0
 10
173.069860
 20
160.268471
 30
0.0
 10
172.148861
 20
160.463473
 30
0.0
 10
171.289861
 20
160.846474
 30
0.0
 10
170.528861
 20
161.399471
 30
0.0
 10
169.898862
 20
162.098474
 30
0.0
 10
169.428860
 20
162.913472
 30
0.0
 10
169.137861
 20
163.807473
 30
0.0
 10
169.039862
 20
164.743471
 30
0.0
  0
LWPOLYLINE
  5
13c
100
AcDbEntity
  8
0
 62
7
100
AcDbPolyline
 90
31
 70
0
 10
169.039862
 20
174.343472
 30
0.0
 10
169.137861
 20
175.279473
 30
0.0
 10
169.428860
 20
176.173471
 30
0.0
 10
169.898862
 20
176.988473
 30
0.0
 10
170.528861
 20
177.687472
 30
0.0
 10
171.289861
 20
178.240473
 30
0.0
 10
172.148861
 20
178.623474
 30
0.0
 10
173.069860
 20
178.818472
 30
0.0
 10
174.009860
 20
178.818472
 30
0.0
 10
174.930861
 20
178.623474
 30
0.0
 10
175.789861
 20
178.240473
 30
0.0
 10
176.550862
 20
177.687472
 30
0.0
 10
177.180861
 20
176.988473
 30
0.0
 10
177.650860
 20
176.173471
 30
0.0
 10
177.941862
 20
175.279473
 30
0.0
 10
178.039861
 20
174.343472
 30
0.0
 10
177.941862
 20
173.407474
 30
0.0
 10
177.650860
 20
172.513473
 30
0.0
 10
177.180861
 20
171.698471
 30
0.0
 10
176.550862
 20
170.999472
 30
0.0
 10
175.789861
 20
170.446471
 30
0.0
 10
174.930861
 20
170.063473
 30
0.0
 10
174.009860
 20
169.868472
 30
0.0
 10
173.069860
 20
169.868472
 30
0.0
 10
172.148861
 20
170.063473
 30
0.0
 10
171.289861
 20
170.446471
 30
0.0
 10
170.528861
 20
170.999472
 30
0.0
 10
169.898862
 20
171.698471
 30
0.0
 10
169.428860
 20
172.513473
 30
0.0
 10
169.137861
 20
173.407474
 30
0.0
 10
169.039862
 20
174.343472
 30
0.0
  0
LWPOLYLINE
  5
13d
100
AcDbEntity
  8
0
 62
7
100
AcDbPolyline
 90
31
 70
0
 10
172.039861
 20
164.743471
 30
0.0
 10
172.072862
 20
165.055471
 30
0.0
 10
172.169861
 20
165.353472
 30
0.0
 10
172.325860
 20
165.625472
 30
0.0
 10
172.535861
 20
165.858472
 30
0.0
 10
172.789861
 20
166.042473
 30
0.0
 10
173.075862
 20
166.170472
 30
0.0
 10
173.382861
 20
166.235473
 30
0.0
 10
173.696861
 20
166.235473
 30
0.0
 10
174.003860
 20
166.170472
 30
0.0
 10
174.289861
 20
166.042473
 30
0.0
 10
174.543861
 20
165.858472
 30
0.0
 10
174.753860
 20
165.625472
 30
0.0
 10
174.909861
 20
165.353472
 30
0.0
 10
175.006861
 20
165.055471
 30
0.0
 10
175.039861
 20
164.743471
 30
0.0
 10
175.006861
 20
164.431472
 30
0.0
 10
174.909861
 20
164.133471
 30
0.0
 10
174.753860
 20
163.861473
 30
0.0
 10
174.543861
 20
163.628474
 30
0.0
 10
174.289861
 20
163.444473
 30
0.0
 10
174.003860
 20
163.316471
 30
0.0
 10
173.696861
 20
163.251473
 30
0.0
 10
173.382861
 20
163.251473
 30
0.0
 10
173.075862
 20
163.316471
 30
0.0
 10
172.789861
 20
163.444473
 30
0.0
 10
172.535861
 20
163.628474
 30
0.0
 10
172.325860
 20
163.861473
 30
0.0
 10
172.169861
 20
164.133471
 30
0.0
 10
172.072862
 20
164.431472
 30
0.0
 10
172.039861
 20
164.743471
 30
0.0
  0
LWPOLYLINE
  5
13e
100
AcDbEntity
  8
0
 62
7
100
AcDbPolyline
 90
31
 70
0
 10
172.039861
 20
174.343472
 30
0.0
 10
172.072862
 20
174.655472
 30
0.0
 10
172.169861
 20
174.953473
 30
0.0
 10
172.325860
 20
175.225473
 30
0.0
 10
172.535861
 20
175.458473
 30
0.0
 10
172.789861
 20
175.642473
 30
0.0
 10
173.075862
 20
175.770472
 30
0.0
 10
173.382861
 20
175.835474
 30
0.0
 10
173.696861
 20
175.835474
 30
0.0
 10
174.003860
 20
175.770472
 30
0.0
 10
174.289861
 20
175.642473
 30
0.0
 10
174.543861
 20
175.458473
 30
0.0
 10
174.753860
 20
175.225473
 30
0.0
 10
174.909861
 20
174.953473
 30
0.0
 10
175.006861
 20
174.655472
 30
0.0
 10
175.039861
 20
174.343472
 30
0.0
 10
175.006861
 20
174.031473
 30
0.0
 10
174.909861
 20
173.733471
 30
0.0
 10
174.753860
 20
173.461471
 30
0.0
 10
174.543861
 20
173.228471
 30
0.0
 10
174.289861
 20
173.044471
 30
0.0
 10
174.003860
 20
172.916472
 30
0.0
 10
173.696861
 20
172.851473
 30
0.0
 10
173.382861
 20
172.851473
 30
0.0
 10
173.075862
 20
172.916472
 30
0.0
 10
172.789861
 20
173.044471
 30
0.0
 10
172.535861
 20
173.228471
 30
0.0
 10
172.325860
 20
173.461471
 30
0.0
 10
172.169861
 20
173.733471
 30
0.0
 10
172.072862
 20
174.031473
 30
0.0
 10
172.039861
 20
174.343472
 30
0.0
  0
LWPOLYLINE
  5
13f
100
AcDbEntity
  8
0
 62
7
100
AcDbPolyline
 90
21
 70
0
 10
173.639861
 20
55.143473
 30
0.0
 10
173.712861
 20
55.607472
 30
0.0
 10
173.925862
 20
56.025471
 30
0.0
 10
174.257860
 20
56.357472
 30
0.0
 10
174.675862
 20
56.570474
 30
0.0
 10
175.139861
 20
56.643473
 30
0.0
 10
175.603862
 20
56.570474
 30
0.0
 10
176.021862
 20
56.357472
 30
0.0
 10
176.353862
 20
56.025471
 30
0.0
 10
176.566861
 20
55.607472
 30
0.0
 10
176.639861
 20
55.143473
 30
0.0
 10
176.566861
 20
54.679472
 30
0.0
 10
176.353862
 20
54.261472
 30
0.0
 10
176.021862
 20
53.929472
 30
0.0
 10
175.603862
 20
53.716473
 30
0.0
 10
175.139861
 20
53.643471
 30
0.0
 10
174.675862
 20
53.716473
 30
0.0
 10
174.257860
 20
53.929472
 30
0.0
 10
173.925862
 20
54.261472
 30
0.0
 10
173.712861
 20
54.679472
 30
0.0
 10
173.639861
 20
55.143473
 30
0.0
  0
LWPOLYLINE
  5
140
100
AcDbEntity
  8
0
 62
7
100
AcDbPolyline
 90
31
 70
0
 10
178.639862
 20
164.743471
 30
0.0
 10
178.737861
 20
165.679473
 30
0.0
 10
179.028860
 20
166.573471
 30
0.0
 10
179.498862
 20
167.388472
 30
0.0
 10
180.128861
 20
168.087472
 30
0.0
 10
180.889862
 20
168.640472
 30
0.0
 10
181.748862
 20
169.023473
 30
0.0
 10
182.669860
 20
169.218472
 30
0.0
 10
183.609861
 20
169.218472
 30
0.0
 10
184.530862
 20
169.023473
 30
0.0
 10
185.389861
 20
168.640472
 30
0.0
 10
186.150860
 20
168.087472
 30
0.0
 10
186.780861
 20
167.388472
 30
0.0
 10
187.250860
 20
166.573471
 30
0.0
 10
187.541862
 20
165.679473
 30
0.0
 10
187.639861
 20
164.743471
 30
0.0
 10
187.541862
 20
163.807473
 30
0.0
 10
187.250860
 20
162.913472
 30
0.0
 10
186.780861
 20
162.098474
 30
0.0
 10
186.150860
 20
161.399471
 30
0.0
 10
185.389861
 20
160.846474
 30
0.0
 10
184.530862
 20
160.463473
 30
0.0
 10
183.609861
 20
160.268471
 30
0.0
 10
182.669860
 20
160.268471
 30
0.0
 10
181.748862
 20
160.463473
 30
0.0
 10
180.889862
 20
160.846474
 30
0.0
 10
180.128861
 20
161.399471
 30
0.0
 10
179.498862
 20
162.098474
 30
0.0
 10
179.028860
 20
162.913472
 30
0.0
 10
178.737861
 20
163.807473
 30
0.0
 10
178.639862
 20
164.743471
 30
0.0
  0
LWPOLYLINE
  5
141
100
AcDbEntity
  8
0
 62
7
100
AcDbPolyline
 90
31
 70
0
 10
178.639862
 20
174.343472
 30
0.0
 10
178.737861
 20
175.279473
 30
0.0
 10
179.028860
 20
176.173471
 30
0.0
 10
179.498862
 20
176.988473
 30
0.0
 10
180.128861
 20
177.687472
 30
0.0
 10
180.889862
 20
178.240473
 30
0.0
 10
181.748862
 20
178.623474
 30
0.0
 10
182.669860
 20
178.818472
 30
0.0
 10
183.609861
 20
178.818472
 30
0.0
 10
184.530862
 20
178.623474
 30
0.0
 10
185.389861
 20
178.240473
 30
0.0
 10
186.150860
 20
177.687472
 30
0.0
 10
186.780861
 20
176.988473
 30
0.0
 10
187.250860
 20
176.173471
 30
0.0
 10
187.541862
 20
175.279473
 30
0.0
 10
187.639861
 20
174.343472
 30
0.0
 10
187.541862
 20
173.407474
 30
0.0
 10
187.250860
 20
172.513473
 30
0.0
 10
186.780861
 20
171.698471
 30
0.0
 10
186.150860
 20
170.999472
 30
0.0
 10
185.389861
 20
170.446471
 30
0.0
 10
184.530862
 20
170.063473
 30
0.0
 10
183.609861
 20
169.868472
 30
0.0
 10
182.669860
 20
169.868472
 30
0.0
 10
181.748862
 20
170.063473
 30
0.0
 10
180.889862
 20
170.446471
 30
0.0
 10
180.128861
 20
170.999472
 30
0.0
 10
179.498862
 20
171.698471
 30
0.0
 10
179.028860
 20
172.513473
 30
0.0
 10
178.737861
 20
173.407474
 30
0.0
 10
178.639862
 20
174.343472
 30
0.0
  0
LWPOLYLINE
  5
142
100
AcDbEntity
  8
0
 62
7
100
AcDbPolyline
 90
31
 70
0
 10
181.639862
 20
164.743471
 30
0.0
 10
181.672862
 20
165.055471
 30
0.0
 10
181.769862
 20
165.353472
 30
0.0
 10
181.925860
 20
165.625472
 30
0.0
 10
182.135862
 20
165.858472
 30
0.0
 10
182.389862
 20
166.042473
 30
0.0
 10
182.675860
 20
166.170472
 30
0.0
 10
182.982862
 20
166.235473
 30
0.0
 10
183.296862
 20
166.235473
 30
0.0
 10
183.603860
 20
166.170472
 30
0.0
 10
183.889862
 20
166.042473
 30
0.0
 10
184.143862
 20
165.858472
 30
0.0
 10
184.353860
 20
165.625472
 30
0.0
 10
184.509862
 20
165.353472
 30
0.0
 10
184.606861
 20
165.055471
 30
0.0
 10
184.639862
 20
164.743471
 30
0.0
 10
184.606861
 20
164.431472
 30
0.0
 10
184.509862
 20
164.133471
 30
0.0
 10
184.353860
 20
163.861473
 30
0.0
 10
184.143862
 20
163.628474
 30
0.0
 10
183.889862
 20
163.444473
 30
0.0
 10
183.603860
 20
163.316471
 30
0.0
 10
183.296862
 20
163.251473
 30
0.0
 10
182.982862
 20
163.251473
 30
0.0
 10
182.675860
 20
163.316471
 30
0.0
 10
182.389862
 20
163.444473
 30
0.0
 10
182.135862
 20
163.628474
 30
0.0
 10
181.925860
 20
163.861473
 30
0.0
 10
181.769862
 20
164.133471
 30
0.0
 10
181.672862
 20
164.431472
 30
0.0
 10
181.639862
 20
164.743471
 30
0.0
  0
LWPOLYLINE
  5
143
100
AcDbEntity
  8
0
 62
7
100
AcDbPolyline
 90
31
 70
0
 10
181.639862
 20
174.343472
 30
0.0
 10
181.672862
 20
174.655472
 30
0.0
 10
181.769862
 20
174.953473
 30
0.0
 10
181.925860
 20
175.225473
 30
0.0
 10
182.135862
 20
175.458473
 30
0.0
 10
182.389862
 20
175.642473
 30
0.0
 10
182.675860
 20
175.770472
 30
0.0
 10
182.982862
 20
175.835474
 30
0.0
 10
183.296862
 20
175.835474
 30
0.0
 10
183.603860
 20
175.770472
 30
0.0
 10
183.889862
 20
175.642473
 30
0.0
 10
184.143862
 20
175.458473
 30
0.0
 10
184.353860
 20
175.225473
 30
0.0
 10
184.509862
 20
174.953473
 30
0.0
 10
184.606861
 20
174.655472
 30
0.0
 10
184.639862
 20
174.343472
 30
0.0
 10
184.606861
 20
174.031473
 30
0.0
 10
184.509862
 20
173.733471
 30
0.0
 10
184.353860
 20
173.461471
 30
0.0
 10
184.143862
 20
173.228471
 30
0.0
 10
183.889862
 20
173.044471
 30
0.0
 10
183.603860
 20
172.916472
 30
0.0
 10
183.296862
 20
172.851473
 30
0.0
 10
182.982862
 20
172.851473
 30
0.0
 10
182.675860
 20
172.916472
 30
0.0
 10
182.389862
 20
173.044471
 30
0.0
 10
182.135862
 20
173.228471
 30
0.0
 10
181.925860
 20
173.461471
 30
0.0
 10
181.769862
 20
173.733471
 30
0.0
 10
181.672862
 20
174.031473
 30
0.0
 10
181.639862
 20
174.343472
 30
0.0
  0
LWPOLYLINE
  5
144
100
AcDbEntity
  8
0
 62
7
100
AcDbPolyline
 90
21
 70
0
 10
182.652862
 20
109.643472
 30
0.0
 10
182.725862
 20
110.107473
 30
0.0
 10
182.938860
 20
110.525473
 30
0.0
 10
183.270861
 20
110.857473
 30
0.0
 10
183.688860
 20
111.070472
 30
0.0
 10
184.152862
 20
111.143471
 30
0.0
 10
184.616860
 20
111.070472
 30
0.0
 10
185.034863
 20
110.857473
 30
0.0
 10
185.366860
 20
110.525473
 30
0.0
 10
185.579862
 20
110.107473
 30
0.0
 10
185.652862
 20
109.643472
 30
0.0
 10
185.579862
 20
109.179473
 30
0.0
 10
185.366860
 20
108.761474
 30
0.0
 10
185.034863
 20
108.429473
 30
0.0
 10
184.616860
 20
108.216471
 30
0.0
 10
184.152862
 20
108.143472
 30
0.0
 10
183.688860
 20
108.216471
 30
0.0
 10
183.270861
 20
108.429473
 30
0.0
 10
182.938860
 20
108.761474
 30
0.0
 10
182.725862
 20
109.179473
 30
0.0
 10
182.652862
 20
109.643472
 30
0.0
  0
LWPOLYLINE
  5
145
100
AcDbEntity
  8
0
 62
7
100
AcDbPolyline
 90
21
 70
0
 10
182.652862
 20
140.643472
 30
0.0
 10
182.725862
 20
141.107473
 30
0.0
 10
182.938860
 20
141.525473
 30
0.0
 10
183.270861
 20
141.857473
 30
0.0
 10
183.688860
 20
142.070472
 30
0.0
 10
184.152862
 20
142.143472
 30
0.0
 10
184.616860
 20
142.070472
 30
0.0
 10
185.034863
 20
141.857473
 30
0.0
 10
185.366860
 20
141.525473
 30
0.0
 10
185.579862
 20
141.107473
 30
0.0
 10
185.652862
 20
140.643472
 30
0.0
 10
185.579862
 20
140.179473
 30
0.0
 10
185.366860
 20
139.761471
 30
0.0
 10
185.034863
 20
139.429473
 30
0.0
 10
184.616860
 20
139.216471
 30
0.0
 10
184.152862
 20
139.143472
 30
0.0
 10
183.688860
 20
139.216471
 30
0.0
 10
183.270861
 20
139.429473
 30
0.0
 10
182.938860
 20
139.761471
 30
0.0
 10
182.725862
 20
140.179473
 30
0.0
 10
182.652862
 20
140.643472
 30
0.0
  0
LWPOLYLINE
  5
146
100
AcDbEntity
  8
0
 62
7
100
AcDbPolyline
 90
77
 70
0
 10
187.139862
 20
190.143471
 30
0.0
 10
187.139862
 20
232.143472
 30
0.0
 10
187.148865
 20
232.378473
 30
0.0
 10
187.176859
 20
232.612472
 30
0.0
 10
187.222861
 20
232.843474
 30
0.0
 10
187.286860
 20
233.070473
 30
0.0
 10
187.367861
 20
233.291473
 30
0.0
 10
187.466862
 20
233.505471
 30
0.0
 10
187.581862
 20
233.710472
 30
0.0
 10
187.712861
 20
233.906472
 30
0.0
 10
187.858860
 20
234.091472
 30
0.0
 10
188.018860
 20
234.264474
 30
0.0
 10
188.191860
 20
234.424471
 30
0.0
 10
188.376862
 20
234.570473
 30
0.0
 10
188.572860
 20
234.701472
 30
0.0
 10
188.777860
 20
234.816472
 30
0.0
 10
188.991861
 20
234.915473
 30
0.0
 10
189.212861
 20
234.996474
 30
0.0
 10
189.439860
 20
235.060473
 30
0.0
 10
189.670862
 20
235.106472
 30
0.0
 10
189.904861
 20
235.134469
 30
0.0
 10
190.139862
 20
235.143475
 30
0.0
 10
210.139861
 20
235.143472
 30
0.0
 10
210.576860
 20
239.301472
 30
0.0
 10
211.868862
 20
243.278474
 30
0.0
 10
213.959861
 20
246.899472
 30
0.0
 10
216.756861
 20
250.006474
 30
0.0
 10
220.139861
 20
252.464471
 30
0.0
 10
223.959860
 20
254.164473
 30
0.0
 10
228.048862
 20
255.033472
 30
0.0
 10
232.230862
 20
255.033472
 30
0.0
 10
236.319862
 20
254.164473
 30
0.0
 10
240.139861
 20
252.464471
 30
0.0
 10
243.522861
 20
250.006474
 30
0.0
 10
246.319861
 20
246.899472
 30
0.0
 10
248.410860
 20
243.278474
 30
0.0
 10
249.702862
 20
239.301472
 30
0.0
 10
250.139860
 20
235.143472
 30
0.0
 10
300.139862
 20
235.143472
 30
0.0
 10
300.374868
 20
235.134469
 30
0.0
 10
300.608859
 20
235.106475
 30
0.0
 10
300.839858
 20
235.060473
 30
0.0
 10
301.066849
 20
234.996474
 30
0.0
 10
301.287857
 20
234.915473
 30
0.0
 10
301.501866
 20
234.816472
 30
0.0
 10
301.706873
 20
234.701472
 30
0.0
 10
301.902848
 20
234.570473
 30
0.0
 10
302.087873
 20
234.424471
 30
0.0
 10
302.260875
 20
234.264474
 30
0.0
 10
302.420867
 20
234.091472
 30
0.0
 10
302.566860
 20
233.906472
 30
0.0
 10
302.697868
 20
233.710472
 30
0.0
 10
302.812873
 20
233.505471
 30
0.0
 10
302.911849
 20
233.291473
 30
0.0
 10
302.992875
 20
233.070473
 30
0.0
 10
303.056854
 20
232.843474
 30
0.0
 10
303.102857
 20
232.612472
 30
0.0
 10
303.130797
 20
232.378473
 30
0.0
 10
303.139884
 20
232.143472
 30
0.0
 10
303.139856
 20
190.143471
 30
0.0
 10
250.139860
 20
190.143471
 30
0.0
 10
249.702862
 20
185.985472
 30
0.0
 10
248.410860
 20
182.008472
 30
0.0
 10
246.319861
 20
178.387471
 30
0.0
 10
243.522861
 20
175.280472
 30
0.0
 10
240.139861
 20
172.822472
 30
0.0
 10
236.319862
 20
171.122473
 30
0.0
 10
232.230862
 20
170.253474
 30
0.0
 10
228.048862
 20
170.253474
 30
0.0
 10
223.959860
 20
171.122473
 30
0.0
 10
220.139861
 20
172.822472
 30
0.0
 10
216.756861
 20
175.280472
 30
0.0
 10
213.959861
 20
178.387471
 30
0.0
 10
211.868862
 20
182.008472
 30
0.0
 10
210.576860
 20
185.985472
 30
0.0
 10
210.139861
 20
190.143471
 30
0.0
 10
187.139862
 20
190.143471
 30
0.0
  0
LWPOLYLINE
  5
147
100
AcDbEntity
  8
0
 62
7
100
AcDbPolyline
 90
31
 70
0
 10
188.239860
 20
164.743471
 30
0.0
 10
188.337862
 20
165.679473
 30
0.0
 10
188.628861
 20
166.573471
 30
0.0
 10
189.098863
 20
167.388472
 30
0.0
 10
189.728862
 20
168.087472
 30
0.0
 10
190.489860
 20
168.640472
 30
0.0
 10
191.348862
 20
169.023473
 30
0.0
 10
192.269861
 20
169.218472
 30
0.0
 10
193.209861
 20
169.218472
 30
0.0
 10
194.130862
 20
169.023473
 30
0.0
 10
194.989862
 20
168.640472
 30
0.0
 10
195.750860
 20
168.087472
 30
0.0
 10
196.380862
 20
167.388472
 30
0.0
 10
196.850861
 20
166.573471
 30
0.0
 10
197.141860
 20
165.679473
 30
0.0
 10
197.239862
 20
164.743471
 30
0.0
 10
197.141860
 20
163.807473
 30
0.0
 10
196.850861
 20
162.913472
 30
0.0
 10
196.380862
 20
162.098474
 30
0.0
 10
195.750860
 20
161.399471
 30
0.0
 10
194.989862
 20
160.846474
 30
0.0
 10
194.130862
 20
160.463473
 30
0.0
 10
193.209861
 20
160.268471
 30
0.0
 10
192.269861
 20
160.268471
 30
0.0
 10
191.348862
 20
160.463473
 30
0.0
 10
190.489860
 20
160.846474
 30
0.0
 10
189.728862
 20
161.399471
 30
0.0
 10
189.098863
 20
162.098474
 30
0.0
 10
188.628861
 20
162.913472
 30
0.0
 10
188.337862
 20
163.807473
 30
0.0
 10
188.239860
 20
164.743471
 30
0.0
  0
LWPOLYLINE
  5
148
100
AcDbEntity
  8
0
 62
7
100
AcDbPolyline
 90
31
 70
0
 10
188.239860
 20
174.343472
 30
0.0
 10
188.337862
 20
175.279473
 30
0.0
 10
188.628861
 20
176.173471
 30
0.0
 10
189.098863
 20
176.988473
 30
0.0
 10
189.728862
 20
177.687472
 30
0.0
 10
190.489860
 20
178.240473
 30
0.0
 10
191.348862
 20
178.623474
 30
0.0
 10
192.269861
 20
178.818472
 30
0.0
 10
193.209861
 20
178.818472
 30
0.0
 10
194.130862
 20
178.623474
 30
0.0
 10
194.989862
 20
178.240473
 30
0.0
 10
195.750860
 20
177.687472
 30
0.0
 10
196.380862
 20
176.988473
 30
0.0
 10
196.850861
 20
176.173471
 30
0.0
 10
197.141860
 20
175.279473
 30
0.0
 10
197.239862
 20
174.343472
 30
0.0
 10
197.141860
 20
173.407474
 30
0.0
 10
196.850861
 20
172.513473
 30
0.0
 10
196.380862
 20
171.698471
 30
0.0
 10
195.750860
 20
170.999472
 30
0.0
 10
194.989862
 20
170.446471
 30
0.0
 10
194.130862
 20
170.063473
 30
0.0
 10
193.209861
 20
169.868472
 30
0.0
 10
192.269861
 20
169.868472
 30
0.0
 10
191.348862
 20
170.063473
 30
0.0
 10
190.489860
 20
170.446471
 30
0.0
 10
189.728862
 20
170.999472
 30
0.0
 10
189.098863
 20
171.698471
 30
0.0
 10
188.628861
 20
172.513473
 30
0.0
 10
188.337862
 20
173.407474
 30
0.0
 10
188.239860
 20
174.343472
 30
0.0
  0
LWPOLYLINE
  5
149
100
AcDbEntity
  8
0
 62
7
100
AcDbPolyline
 90
5
 70
0
 10
189.889861
 20
203.393472
 30
0.0
 10
189.889861
 20
208.393473
 30
0.0
 10
196.389862
 20
208.393473
 30
0.0
 10
196.389862
 20
203.393472
 30
0.0
 10
189.889861
 20
203.393472
 30
0.0
  0
LWPOLYLINE
  5
14a
100
AcDbEntity
  8
0
 62
7
100
AcDbPolyline
 90
5
 70
0
 10
189.889861
 20
222.893472
 30
0.0
 10
189.889861
 20
227.893474
 30
0.0
 10
196.389862
 20
227.893474
 30
0.0
 10
196.389862
 20
222.893472
 30
0.0
 10
189.889861
 20
222.893472
 30
0.0
  0
LWPOLYLINE
  5
14b
100
AcDbEntity
  8
0
 62
7
100
AcDbPolyline
 90
5
 70
0
 10
190.139862
 20
52.143474
 30
0.0
 10
190.139862
 20
58.143473
 30
0.0
 10
250.139860
 20
58.143473
 30
0.0
 10
250.139860
 20
52.143474
 30
0.0
 10
190.139862
 20
52.143474
 30
0.0
  0
LWPOLYLINE
  5
14c
100
AcDbEntity
  8
0
 62
7
100
AcDbPolyline
 90
31
 70
0
 10
191.239860
 20
164.743471
 30
0.0
 10
191.272860
 20
165.055471
 30
0.0
 10
191.369860
 20
165.353472
 30
0.0
 10
191.525861
 20
165.625472
 30
0.0
 10
191.735862
 20
165.858472
 30
0.0
 10
191.989862
 20
166.042473
 30
0.0
 10
192.275861
 20
166.170472
 30
0.0
 10
192.582862
 20
166.235473
 30
0.0
 10
192.896860
 20
166.235473
 30
0.0
 10
193.203861
 20
166.170472
 30
0.0
 10
193.489862
 20
166.042473
 30
0.0
 10
193.743862
 20
165.858472
 30
0.0
 10
193.953861
 20
165.625472
 30
0.0
 10
194.109862
 20
165.353472
 30
0.0
 10
194.206862
 20
165.055471
 30
0.0
 10
194.239862
 20
164.743471
 30
0.0
 10
194.206862
 20
164.431472
 30
0.0
 10
194.109862
 20
164.133471
 30
0.0
 10
193.953861
 20
163.861473
 30
0.0
 10
193.743862
 20
163.628474
 30
0.0
 10
193.489862
 20
163.444473
 30
0.0
 10
193.203861
 20
163.316471
 30
0.0
 10
192.896860
 20
163.251473
 30
0.0
 10
192.582862
 20
163.251473
 30
0.0
 10
192.275861
 20
163.316471
 30
0.0
 10
191.989862
 20
163.444473
 30
0.0
 10
191.735862
 20
163.628474
 30
0.0
 10
191.525861
 20
163.861473
 30
0.0
 10
191.369860
 20
164.133471
 30
0.0
 10
191.272860
 20
164.431472
 30
0.0
 10
191.239860
 20
164.743471
 30
0.0
  0
LWPOLYLINE
  5
14d
100
AcDbEntity
  8
0
 62
7
100
AcDbPolyline
 90
31
 70
0
 10
191.239860
 20
174.343472
 30
0.0
 10
191.272860
 20
174.655472
 30
0.0
 10
191.369860
 20
174.953473
 30
0.0
 10
191.525861
 20
175.225473
 30
0.0
 10
191.735862
 20
175.458473
 30
0.0
 10
191.989862
 20
175.642473
 30
0.0
 10
192.275861
 20
175.770472
 30
0.0
 10
192.582862
 20
175.835474
 30
0.0
 10
192.896860
 20
175.835474
 30
0.0
 10
193.203861
 20
175.770472
 30
0.0
 10
193.489862
 20
175.642473
 30
0.0
 10
193.743862
 20
175.458473
 30
0.0
 10
193.953861
 20
175.225473
 30
0.0
 10
194.109862
 20
174.953473
 30
0.0
 10
194.206862
 20
174.655472
 30
0.0
 10
194.239862
 20
174.343472
 30
0.0
 10
194.206862
 20
174.031473
 30
0.0
 10
194.109862
 20
173.733471
 30
0.0
 10
193.953861
 20
173.461471
 30
0.0
 10
193.743862
 20
173.228471
 30
0.0
 10
193.489862
 20
173.044471
 30
0.0
 10
193.203861
 20
172.916472
 30
0.0
 10
192.896860
 20
172.851473
 30
0.0
 10
192.582862
 20
172.851473
 30
0.0
 10
192.275861
 20
172.916472
 30
0.0
 10
191.989862
 20
173.044471
 30
0.0
 10
191.735862
 20
173.228471
 30
0.0
 10
191.525861
 20
173.461471
 30
0.0
 10
191.369860
 20
173.733471
 30
0.0
 10
191.272860
 20
174.031473
 30
0.0
 10
191.239860
 20
174.343472
 30
0.0
  0
LWPOLYLINE
  5
14e
100
AcDbEntity
  8
0
 62
7
100
AcDbPolyline
 90
21
 70
0
 10
191.639862
 20
215.643471
 30
0.0
 10
191.712861
 20
216.107473
 30
0.0
 10
191.925860
 20
216.525472
 30
0.0
 10
192.257861
 20
216.857473
 30
0.0
 10
192.675860
 20
217.070472
 30
0.0
 10
193.139862
 20
217.143471
 30
0.0
 10
193.603860
 20
217.070472
 30
0.0
 10
194.021860
 20
216.857473
 30
0.0
 10
194.353860
 20
216.525472
 30
0.0
 10
194.566862
 20
216.107473
 30
0.0
 10
194.639861
 20
215.643471
 30
0.0
 10
194.566862
 20
215.179473
 30
0.0
 10
194.353860
 20
214.761473
 30
0.0
 10
194.021860
 20
214.429473
 30
0.0
 10
193.603860
 20
214.216471
 30
0.0
 10
193.139862
 20
214.143471
 30
0.0
 10
192.675860
 20
214.216471
 30
0.0
 10
192.257861
 20
214.429473
 30
0.0
 10
191.925860
 20
214.761473
 30
0.0
 10
191.712861
 20
215.179473
 30
0.0
 10
191.639862
 20
215.643471
 30
0.0
  0
LWPOLYLINE
  5
14f
100
AcDbEntity
  8
0
 62
7
100
AcDbPolyline
 90
21
 70
0
 10
193.639861
 20
405.143473
 30
0.0
 10
193.712860
 20
405.607472
 30
0.0
 10
193.925862
 20
406.025471
 30
0.0
 10
194.257862
 20
406.357472
 30
0.0
 10
194.675862
 20
406.570471
 30
0.0
 10
195.139860
 20
406.643473
 30
0.0
 10
195.603862
 20
406.570471
 30
0.0
 10
196.021861
 20
406.357472
 30
0.0
 10
196.353862
 20
406.025471
 30
0.0
 10
196.566861
 20
405.607472
 30
0.0
 10
196.639860
 20
405.143473
 30
0.0
 10
196.566861
 20
404.679472
 30
0.0
 10
196.353862
 20
404.261472
 30
0.0
 10
196.021861
 20
403.929472
 30
0.0
 10
195.603862
 20
403.716473
 30
0.0
 10
195.139860
 20
403.643473
 30
0.0
 10
194.675862
 20
403.716473
 30
0.0
 10
194.257862
 20
403.929472
 30
0.0
 10
193.925862
 20
404.261472
 30
0.0
 10
193.712860
 20
404.679472
 30
0.0
 10
193.639861
 20
405.143473
 30
0.0
  0
LWPOLYLINE
  5
150
100
AcDbEntity
  8
0
 62
7
100
AcDbPolyline
 90
77
 70
0
 10
197.139862
 20
260.143472
 30
0.0
 10
197.139862
 20
302.143472
 30
0.0
 10
197.148865
 20
302.378472
 30
0.0
 10
197.176858
 20
302.612472
 30
0.0
 10
197.222861
 20
302.843472
 30
0.0
 10
197.286860
 20
303.070472
 30
0.0
 10
197.367861
 20
303.291472
 30
0.0
 10
197.466862
 20
303.505472
 30
0.0
 10
197.581861
 20
303.710472
 30
0.0
 10
197.712861
 20
303.906472
 30
0.0
 10
197.858860
 20
304.091472
 30
0.0
 10
198.018860
 20
304.264472
 30
0.0
 10
198.191862
 20
304.424472
 30
0.0
 10
198.376862
 20
304.570472
 30
0.0
 10
198.572862
 20
304.701472
 30
0.0
 10
198.777860
 20
304.816472
 30
0.0
 10
198.991861
 20
304.915472
 30
0.0
 10
199.212860
 20
304.996472
 30
0.0
 10
199.439860
 20
305.060472
 30
0.0
 10
199.670862
 20
305.106472
 30
0.0
 10
199.904861
 20
305.134471
 30
0.0
 10
200.139862
 20
305.143472
 30
0.0
 10
250.139860
 20
305.143472
 30
0.0
 10
250.576862
 20
309.301472
 30
0.0
 10
251.868861
 20
313.278472
 30
0.0
 10
253.959862
 20
316.899473
 30
0.0
 10
256.756862
 20
320.006472
 30
0.0
 10
260.139860
 20
322.464472
 30
0.0
 10
263.959862
 20
324.164472
 30
0.0
 10
268.048861
 20
325.033473
 30
0.0
 10
272.230861
 20
325.033473
 30
0.0
 10
276.319855
 20
324.164472
 30
0.0
 10
280.139874
 20
322.464472
 30
0.0
 10
283.522872
 20
320.006472
 30
0.0
 10
286.319863
 20
316.899473
 30
0.0
 10
288.410848
 20
313.278472
 30
0.0
 10
289.702861
 20
309.301472
 30
0.0
 10
290.139854
 20
305.143472
 30
0.0
 10
310.139870
 20
305.143472
 30
0.0
 10
310.374848
 20
305.134472
 30
0.0
 10
310.608867
 20
305.106473
 30
0.0
 10
310.839866
 20
305.060472
 30
0.0
 10
311.066857
 20
304.996472
 30
0.0
 10
311.287866
 20
304.915472
 30
0.0
 10
311.501875
 20
304.816472
 30
0.0
 10
311.706853
 20
304.701472
 30
0.0
 10
311.902856
 20
304.570472
 30
0.0
 10
312.087853
 20
304.424472
 30
0.0
 10
312.260855
 20
304.264472
 30
0.0
 10
312.420875
 20
304.091472
 30
0.0
 10
312.566868
 20
303.906472
 30
0.0
 10
312.697848
 20
303.710472
 30
0.0
 10
312.812853
 20
303.505472
 30
0.0
 10
312.911857
 20
303.291472
 30
0.0
 10
312.992855
 20
303.070472
 30
0.0
 10
313.056863
 20
302.843472
 30
0.0
 10
313.102865
 20
302.612472
 30
0.0
 10
313.130805
 20
302.378472
 30
0.0
 10
313.139892
 20
302.143472
 30
0.0
 10
313.139864
 20
260.143472
 30
0.0
 10
290.139854
 20
260.143472
 30
0.0
 10
289.702861
 20
255.985473
 30
0.0
 10
288.410848
 20
252.008473
 30
0.0
 10
286.319863
 20
248.387472
 30
0.0
 10
283.522872
 20
245.280474
 30
0.0
 10
280.139874
 20
242.822473
 30
0.0
 10
276.319855
 20
241.122474
 30
0.0
 10
272.230861
 20
240.253472
 30
0.0
 10
268.048861
 20
240.253472
 30
0.0
 10
263.959862
 20
241.122474
 30
0.0
 10
260.139860
 20
242.822473
 30
0.0
 10
256.756862
 20
245.280474
 30
0.0
 10
253.959862
 20
248.387472
 30
0.0
 10
251.868861
 20
252.008473
 30
0.0
 10
250.576862
 20
255.985473
 30
0.0
 10
250.139860
 20
260.143472
 30
0.0
 10
197.139862
 20
260.143472
 30
0.0
  0
LWPOLYLINE
  5
151
100
AcDbEntity
  8
0
 62
7
100
AcDbPolyline
 90
31
 70
0
 10
198.639862
 20
34.143473
 30
0.0
 10
198.672862
 20
34.455473
 30
0.0
 10
198.769862
 20
34.753471
 30
0.0
 10
198.925860
 20
35.025471
 30
0.0
 10
199.135862
 20
35.258471
 30
0.0
 10
199.389862
 20
35.442471
 30
0.0
 10
199.675860
 20
35.570473
 30
0.0
 10
199.982861
 20
35.635472
 30
0.0
 10
200.296862
 20
35.635472
 30
0.0
 10
200.603860
 20
35.570473
 30
0.0
 10
200.889862
 20
35.442471
 30
0.0
 10
201.143862
 20
35.258471
 30
0.0
 10
201.353860
 20
35.025471
 30
0.0
 10
201.509861
 20
34.753471
 30
0.0
 10
201.606861
 20
34.455473
 30
0.0
 10
201.639861
 20
34.143473
 30
0.0
 10
201.606861
 20
33.831474
 30
0.0
 10
201.509861
 20
33.533472
 30
0.0
 10
201.353860
 20
33.261472
 30
0.0
 10
201.143862
 20
33.028472
 30
0.0
 10
200.889862
 20
32.844472
 30
0.0
 10
200.603860
 20
32.716473
 30
0.0
 10
200.296862
 20
32.651471
 30
0.0
 10
199.982861
 20
32.651471
 30
0.0
 10
199.675860
 20
32.716473
 30
0.0
 10
199.389862
 20
32.844472
 30
0.0
 10
199.135862
 20
33.028472
 30
0.0
 10
198.925860
 20
33.261472
 30
0.0
 10
198.769862
 20
33.533472
 30
0.0
 10
198.672862
 20
33.831474
 30
0.0
 10
198.639862
 20
34.143473
 30
0.0
  0
LWPOLYLINE
  5
152
100
AcDbEntity
  8
0
 62
7
100
AcDbPolyline
 90
31
 70
0
 10
198.639862
 20
46.143472
 30
0.0
 10
198.672862
 20
46.455471
 30
0.0
 10
198.769862
 20
46.753472
 30
0.0
 10
198.925860
 20
47.025473
 30
0.0
 10
199.135862
 20
47.258472
 30
0.0
 10
199.389862
 20
47.442473
 30
0.0
 10
199.675860
 20
47.570472
 30
0.0
 10
199.982861
 20
47.635473
 30
0.0
 10
200.296862
 20
47.635473
 30
0.0
 10
200.603860
 20
47.570472
 30
0.0
 10
200.889862
 20
47.442473
 30
0.0
 10
201.143862
 20
47.258472
 30
0.0
 10
201.353860
 20
47.025473
 30
0.0
 10
201.509861
 20
46.753472
 30
0.0
 10
201.606861
 20
46.455471
 30
0.0
 10
201.639861
 20
46.143472
 30
0.0
 10
201.606861
 20
45.831472
 30
0.0
 10
201.509861
 20
45.533471
 30
0.0
 10
201.353860
 20
45.261474
 30
0.0
 10
201.143862
 20
45.028474
 30
0.0
 10
200.889862
 20
44.844473
 30
0.0
 10
200.603860
 20
44.716471
 30
0.0
 10
200.296862
 20
44.651473
 30
0.0
 10
199.982861
 20
44.651473
 30
0.0
 10
199.675860
 20
44.716471
 30
0.0
 10
199.389862
 20
44.844473
 30
0.0
 10
199.135862
 20
45.028474
 30
0.0
 10
198.925860
 20
45.261474
 30
0.0
 10
198.769862
 20
45.533471
 30
0.0
 10
198.672862
 20
45.831472
 30
0.0
 10
198.639862
 20
46.143472
 30
0.0
  0
LWPOLYLINE
  5
153
100
AcDbEntity
  8
0
 62
7
100
AcDbPolyline
 90
31
 70
0
 10
198.639862
 20
333.643472
 30
0.0
 10
198.672862
 20
333.955472
 30
0.0
 10
198.769862
 20
334.253473
 30
0.0
 10
198.925860
 20
334.525473
 30
0.0
 10
199.135862
 20
334.758473
 30
0.0
 10
199.389862
 20
334.942471
 30
0.0
 10
199.675860
 20
335.070473
 30
0.0
 10
199.982861
 20
335.135471
 30
0.0
 10
200.296862
 20
335.135471
 30
0.0
 10
200.603860
 20
335.070473
 30
0.0
 10
200.889862
 20
334.942471
 30
0.0
 10
201.143862
 20
334.758473
 30
0.0
 10
201.353860
 20
334.525473
 30
0.0
 10
201.509861
 20
334.253473
 30
0.0
 10
201.606861
 20
333.955472
 30
0.0
 10
201.639861
 20
333.643472
 30
0.0
 10
201.606861
 20
333.331473
 30
0.0
 10
201.509861
 20
333.033472
 30
0.0
 10
201.353860
 20
332.761471
 30
0.0
 10
201.143862
 20
332.528472
 30
0.0
 10
200.889862
 20
332.344471
 30
0.0
 10
200.603860
 20
332.216472
 30
0.0
 10
200.296862
 20
332.151474
 30
0.0
 10
199.982861
 20
332.151474
 30
0.0
 10
199.675860
 20
332.216472
 30
0.0
 10
199.389862
 20
332.344471
 30
0.0
 10
199.135862
 20
332.528472
 30
0.0
 10
198.925860
 20
332.761471
 30
0.0
 10
198.769862
 20
333.033472
 30
0.0
 10
198.672862
 20
333.331473
 30
0.0
 10
198.639862
 20
333.643472
 30
0.0
  0
LWPOLYLINE
  5
154
100
AcDbEntity
  8
0
 62
7
100
AcDbPolyline
 90
31
 70
0
 10
198.639862
 20
340.643472
 30
0.0
 10
198.672862
 20
340.955472
 30
0.0
 10
198.769862
 20
341.253473
 30
0.0
 10
198.925860
 20
341.525473
 30
0.0
 10
199.135862
 20
341.758473
 30
0.0
 10
199.389862
 20
341.942471
 30
0.0
 10
199.675860
 20
342.070473
 30
0.0
 10
199.982861
 20
342.135471
 30
0.0
 10
200.296862
 20
342.135471
 30
0.0
 10
200.603860
 20
342.070473
 30
0.0
 10
200.889862
 20
341.942471
 30
0.0
 10
201.143862
 20
341.758473
 30
0.0
 10
201.353860
 20
341.525473
 30
0.0
 10
201.509861
 20
341.253473
 30
0.0
 10
201.606861
 20
340.955472
 30
0.0
 10
201.639861
 20
340.643472
 30
0.0
 10
201.606861
 20
340.331473
 30
0.0
 10
201.509861
 20
340.033472
 30
0.0
 10
201.353860
 20
339.761472
 30
0.0
 10
201.143862
 20
339.528472
 30
0.0
 10
200.889862
 20
339.344471
 30
0.0
 10
200.603860
 20
339.216472
 30
0.0
 10
200.296862
 20
339.151471
 30
0.0
 10
199.982861
 20
339.151471
 30
0.0
 10
199.675860
 20
339.216472
 30
0.0
 10
199.389862
 20
339.344471
 30
0.0
 10
199.135862
 20
339.528472
 30
0.0
 10
198.925860
 20
339.761472
 30
0.0
 10
198.769862
 20
340.033472
 30
0.0
 10
198.672862
 20
340.331473
 30
0.0
 10
198.639862
 20
340.643472
 30
0.0
  0
LWPOLYLINE
  5
155
100
AcDbEntity
  8
0
 62
7
100
AcDbPolyline
 90
5
 70
0
 10
199.889861
 20
273.393472
 30
0.0
 10
199.889861
 20
278.393472
 30
0.0
 10
206.389862
 20
278.393472
 30
0.0
 10
206.389862
 20
273.393472
 30
0.0
 10
199.889861
 20
273.393472
 30
0.0
  0
LWPOLYLINE
  5
156
100
AcDbEntity
  8
0
 62
7
100
AcDbPolyline
 90
5
 70
0
 10
199.889861
 20
292.893472
 30
0.0
 10
199.889861
 20
297.893472
 30
0.0
 10
206.389862
 20
297.893472
 30
0.0
 10
206.389862
 20
292.893472
 30
0.0
 10
199.889861
 20
292.893472
 30
0.0
  0
LWPOLYLINE
  5
157
100
AcDbEntity
  8
0
 62
7
100
AcDbPolyline
 90
21
 70
0
 10
201.639861
 20
285.643472
 30
0.0
 10
201.712861
 20
286.107472
 30
0.0
 10
201.925860
 20
286.525472
 30
0.0
 10
202.257860
 20
286.857472
 30
0.0
 10
202.675863
 20
287.070472
 30
0.0
 10
203.139861
 20
287.143472
 30
0.0
 10
203.603860
 20
287.070472
 30
0.0
 10
204.021862
 20
286.857472
 30
0.0
 10
204.353860
 20
286.525472
 30
0.0
 10
204.566861
 20
286.107472
 30
0.0
 10
204.639861
 20
285.643472
 30
0.0
 10
204.566861
 20
285.179472
 30
0.0
 10
204.353860
 20
284.761472
 30
0.0
 10
204.021862
 20
284.429472
 30
0.0
 10
203.603860
 20
284.216472
 30
0.0
 10
203.139861
 20
284.143472
 30
0.0
 10
202.675863
 20
284.216472
 30
0.0
 10
202.257860
 20
284.429472
 30
0.0
 10
201.925860
 20
284.761472
 30
0.0
 10
201.712861
 20
285.179472
 30
0.0
 10
201.639861
 20
285.643472
 30
0.0
  0
LWPOLYLINE
  5
158
100
AcDbEntity
  8
0
 62
1
100
AcDbPolyline
 90
98
 70
0
 10
210.139861
 20
201.787472
 30
0.0
 10
210.171860
 20
201.949473
 30
0.0
 10
210.245861
 20
202.099472
 30
0.0
 10
213.101860
 20
206.295473
 30
0.0
 10
214.529862
 20
208.393473
 30
0.0
 10
215.957861
 20
210.493472
 30
0.0
 10
216.055860
 20
210.605472
 30
0.0
 10
216.177862
 20
210.689472
 30
0.0
 10
216.315860
 20
210.741472
 30
0.0
 10
216.463860
 20
210.761481
 30
0.0
 10
218.743860
 20
210.761473
 30
0.0
 10
219.883860
 20
210.763448
 30
0.0
 10
221.023860
 20
210.763474
 30
0.0
 10
225.979860
 20
218.047471
 30
0.0
 10
228.457862
 20
221.689473
 30
0.0
 10
230.935860
 20
225.331472
 30
0.0
 10
231.069862
 20
225.473472
 30
0.0
 10
231.237861
 20
225.563472
 30
0.0
 10
231.427861
 20
225.597472
 30
0.0
 10
231.621861
 20
225.571479
 30
0.0
 10
231.797860
 20
225.485472
 30
0.0
 10
231.933860
 20
225.349472
 30
0.0
 10
232.021860
 20
225.181473
 30
0.0
 10
232.053861
 20
224.987474
 30
0.0
 10
232.053861
 20
212.139474
 30
0.0
 10
236.541860
 20
218.735473
 30
0.0
 10
238.783862
 20
222.033473
 30
0.0
 10
241.027862
 20
225.331472
 30
0.0
 10
241.163862
 20
225.473472
 30
0.0
 10
241.331860
 20
225.563472
 30
0.0
 10
241.519862
 20
225.597472
 30
0.0
 10
241.713862
 20
225.571479
 30
0.0
 10
241.889861
 20
225.485472
 30
0.0
 10
242.027860
 20
225.349472
 30
0.0
 10
242.115862
 20
225.181473
 30
0.0
 10
242.145862
 20
224.987474
 30
0.0
 10
242.145862
 20
210.763474
 30
0.0
 10
249.527862
 20
210.763474
 30
0.0
 10
249.693862
 20
210.741460
 30
0.0
 10
249.843860
 20
210.675471
 30
0.0
 10
249.971862
 20
210.573473
 30
0.0
 10
250.067860
 20
210.439471
 30
0.0
 10
250.125862
 20
210.281472
 30
0.0
 10
250.139860
 20
210.119471
 30
0.0
 10
250.107862
 20
209.957472
 30
0.0
 10
250.033861
 20
209.809472
 30
0.0
 10
248.605861
 20
207.709474
 30
0.0
 10
247.177862
 20
205.611473
 30
0.0
 10
245.749860
 20
203.513473
 30
0.0
 10
244.321861
 20
201.413471
 30
0.0
 10
244.221861
 20
201.301471
 30
0.0
 10
244.101860
 20
201.217474
 30
0.0
 10
243.963862
 20
201.165471
 30
0.0
 10
243.815862
 20
201.147466
 30
0.0
 10
242.593862
 20
201.145496
 30
0.0
 10
241.373860
 20
201.145473
 30
0.0
 10
240.151861
 20
201.143497
 30
0.0
 10
238.931862
 20
201.143472
 30
0.0
 10
238.811861
 20
201.155467
 30
0.0
 10
238.697860
 20
201.189471
 30
0.0
 10
238.591860
 20
201.245473
 30
0.0
 10
238.499862
 20
201.321472
 30
0.0
 10
238.421861
 20
201.415472
 30
0.0
 10
238.365860
 20
201.521472
 30
0.0
 10
238.331860
 20
201.635473
 30
0.0
 10
238.319866
 20
201.755471
 30
0.0
 10
238.319860
 20
214.601473
 30
0.0
 10
236.075861
 20
211.303472
 30
0.0
 10
233.831861
 20
208.007472
 30
0.0
 10
229.343862
 20
201.411473
 30
0.0
 10
229.243862
 20
201.297472
 30
0.0
 10
229.121860
 20
201.213472
 30
0.0
 10
228.983862
 20
201.161472
 30
0.0
 10
228.837860
 20
201.143466
 30
0.0
 10
228.791860
 20
201.145448
 30
0.0
 10
228.747862
 20
201.149481
 30
0.0
 10
228.701860
 20
201.159463
 30
0.0
 10
228.657861
 20
201.171466
 30
0.0
 10
228.481862
 20
201.257473
 30
0.0
 10
228.345862
 20
201.391472
 30
0.0
 10
228.257862
 20
201.561471
 30
0.0
 10
228.225861
 20
201.755471
 30
0.0
 10
228.225861
 20
214.601473
 30
0.0
 10
225.981861
 20
211.303472
 30
0.0
 10
223.737861
 20
208.007472
 30
0.0
 10
221.495860
 20
204.709471
 30
0.0
 10
219.251860
 20
201.411473
 30
0.0
 10
219.151860
 20
201.299473
 30
0.0
 10
219.031862
 20
201.215473
 30
0.0
 10
218.893861
 20
201.161472
 30
0.0
 10
218.745861
 20
201.143466
 30
0.0
 10
210.751860
 20
201.143472
 30
0.0
 10
210.585860
 20
201.165457
 30
0.0
 10
210.435862
 20
201.231472
 30
0.0
 10
210.307860
 20
201.333473
 30
0.0
 10
210.211862
 20
201.469473
 30
0.0
 10
210.153862
 20
201.625474
 30
0.0
 10
210.139864
 20
201.787472
 30
0.0
  0
LWPOLYLINE
  5
159
100
AcDbEntity
  8
0
 62
7
100
AcDbPolyline
 90
5
 70
0
 10
210.139861
 20
402.143474
 30
0.0
 10
210.139861
 20
408.143473
 30
0.0
 10
270.139860
 20
408.143473
 30
0.0
 10
270.139860
 20
402.143474
 30
0.0
 10
210.139861
 20
402.143474
 30
0.0
  0
LWPOLYLINE
  5
15a
100
AcDbEntity
  8
0
 62
1
100
AcDbPolyline
 90
70
 70
0
 10
211.907862
 20
202.365472
 30
0.0
 10
213.127861
 20
204.159471
 30
0.0
 10
214.347862
 20
205.951472
 30
0.0
 10
215.567861
 20
207.745471
 30
0.0
 10
216.787863
 20
209.537472
 30
0.0
 10
217.927860
 20
209.539448
 30
0.0
 10
220.209861
 20
209.539473
 30
0.0
 10
221.349861
 20
209.541449
 30
0.0
 10
221.497861
 20
209.559477
 30
0.0
 10
221.635862
 20
209.611471
 30
0.0
 10
221.755860
 20
209.695471
 30
0.0
 10
221.853862
 20
209.809472
 30
0.0
 10
224.097861
 20
213.107473
 30
0.0
 10
226.341861
 20
216.403473
 30
0.0
 10
230.829860
 20
222.999472
 30
0.0
 10
230.829860
 20
210.151472
 30
0.0
 10
230.859861
 20
209.959473
 30
0.0
 10
230.949861
 20
209.789471
 30
0.0
 10
231.085861
 20
209.655472
 30
0.0
 10
231.261861
 20
209.567472
 30
0.0
 10
231.455860
 20
209.541480
 30
0.0
 10
231.643863
 20
209.575473
 30
0.0
 10
231.811861
 20
209.665471
 30
0.0
 10
231.947861
 20
209.809472
 30
0.0
 10
234.191861
 20
213.107473
 30
0.0
 10
236.435860
 20
216.403473
 30
0.0
 10
238.679860
 20
219.701471
 30
0.0
 10
240.921862
 20
222.999472
 30
0.0
 10
240.921862
 20
210.153473
 30
0.0
 10
240.933856
 20
210.033472
 30
0.0
 10
240.969862
 20
209.919471
 30
0.0
 10
241.025861
 20
209.813471
 30
0.0
 10
241.101860
 20
209.719472
 30
0.0
 10
241.195860
 20
209.643472
 30
0.0
 10
241.299862
 20
209.587473
 30
0.0
 10
241.413863
 20
209.553471
 30
0.0
 10
241.533861
 20
209.541477
 30
0.0
 10
248.371862
 20
209.541471
 30
0.0
 10
247.151861
 20
207.747472
 30
0.0
 10
245.931862
 20
205.955471
 30
0.0
 10
244.711861
 20
204.161472
 30
0.0
 10
243.491862
 20
202.369474
 30
0.0
 10
242.503861
 20
202.369474
 30
0.0
 10
241.517861
 20
202.367498
 30
0.0
 10
239.543861
 20
202.367473
 30
0.0
 10
239.543861
 20
216.589472
 30
0.0
 10
239.511863
 20
216.783471
 30
0.0
 10
239.423860
 20
216.953473
 30
0.0
 10
239.287860
 20
217.087473
 30
0.0
 10
239.111861
 20
217.173471
 30
0.0
 10
238.917861
 20
217.199464
 30
0.0
 10
238.727861
 20
217.165473
 30
0.0
 10
238.559862
 20
217.075472
 30
0.0
 10
238.425860
 20
216.933472
 30
0.0
 10
233.937861
 20
210.337473
 30
0.0
 10
229.449861
 20
203.741472
 30
0.0
 10
229.449861
 20
216.589472
 30
0.0
 10
229.417860
 20
216.783471
 30
0.0
 10
229.329861
 20
216.953473
 30
0.0
 10
229.193860
 20
217.087473
 30
0.0
 10
229.017861
 20
217.173471
 30
0.0
 10
228.823861
 20
217.201468
 30
0.0
 10
228.635862
 20
217.165473
 30
0.0
 10
228.465863
 20
217.075472
 30
0.0
 10
228.331861
 20
216.933472
 30
0.0
 10
225.853862
 20
213.291474
 30
0.0
 10
223.375861
 20
209.649472
 30
0.0
 10
220.897862
 20
206.007473
 30
0.0
 10
218.421862
 20
202.365472
 30
0.0
 10
211.907862
 20
202.365472
 30
0.0
  0
LWPOLYLINE
  5
15b
100
AcDbEntity
  8
0
 62
7
100
AcDbPolyline
 90
21
 70
0
 10
214.639861
 20
190.143471
 30
0.0
 10
214.712860
 20
190.607473
 30
0.0
 10
214.925862
 20
191.025472
 30
0.0
 10
215.257860
 20
191.357473
 30
0.0
 10
215.675862
 20
191.570472
 30
0.0
 10
216.139861
 20
191.643471
 30
0.0
 10
216.603862
 20
191.570472
 30
0.0
 10
217.021862
 20
191.357473
 30
0.0
 10
217.353862
 20
191.025472
 30
0.0
 10
217.566861
 20
190.607473
 30
0.0
 10
217.639860
 20
190.143471
 30
0.0
 10
217.566861
 20
189.679473
 30
0.0
 10
217.353862
 20
189.261473
 30
0.0
 10
217.021862
 20
188.929473
 30
0.0
 10
216.603862
 20
188.716471
 30
0.0
 10
216.139861
 20
188.643472
 30
0.0
 10
215.675862
 20
188.716471
 30
0.0
 10
215.257860
 20
188.929473
 30
0.0
 10
214.925862
 20
189.261473
 30
0.0
 10
214.712860
 20
189.679473
 30
0.0
 10
214.639861
 20
190.143471
 30
0.0
  0
LWPOLYLINE
  5
15c
100
AcDbEntity
  8
0
 62
7
100
AcDbPolyline
 90
21
 70
0
 10
214.639861
 20
235.143472
 30
0.0
 10
214.712860
 20
235.607473
 30
0.0
 10
214.925862
 20
236.025473
 30
0.0
 10
215.257860
 20
236.357473
 30
0.0
 10
215.675862
 20
236.570472
 30
0.0
 10
216.139861
 20
236.643472
 30
0.0
 10
216.603862
 20
236.570472
 30
0.0
 10
217.021862
 20
236.357473
 30
0.0
 10
217.353862
 20
236.025473
 30
0.0
 10
217.566861
 20
235.607473
 30
0.0
 10
217.639860
 20
235.143472
 30
0.0
 10
217.566861
 20
234.679473
 30
0.0
 10
217.353862
 20
234.261474
 30
0.0
 10
217.021862
 20
233.929473
 30
0.0
 10
216.603862
 20
233.716472
 30
0.0
 10
216.139861
 20
233.643472
 30
0.0
 10
215.675862
 20
233.716472
 30
0.0
 10
215.257860
 20
233.929473
 30
0.0
 10
214.925862
 20
234.261474
 30
0.0
 10
214.712860
 20
234.679473
 30
0.0
 10
214.639861
 20
235.143472
 30
0.0
  0
LWPOLYLINE
  5
15d
100
AcDbEntity
  8
0
 62
7
100
AcDbPolyline
 90
21
 70
0
 10
242.639861
 20
190.143471
 30
0.0
 10
242.712861
 20
190.607473
 30
0.0
 10
242.925862
 20
191.025472
 30
0.0
 10
243.257860
 20
191.357473
 30
0.0
 10
243.675862
 20
191.570472
 30
0.0
 10
244.139861
 20
191.643471
 30
0.0
 10
244.603860
 20
191.570472
 30
0.0
 10
245.021862
 20
191.357473
 30
0.0
 10
245.353860
 20
191.025472
 30
0.0
 10
245.566861
 20
190.607473
 30
0.0
 10
245.639861
 20
190.143471
 30
0.0
 10
245.566861
 20
189.679473
 30
0.0
 10
245.353860
 20
189.261473
 30
0.0
 10
245.021862
 20
188.929473
 30
0.0
 10
244.603860
 20
188.716471
 30
0.0
 10
244.139861
 20
188.643472
 30
0.0
 10
243.675862
 20
188.716471
 30
0.0
 10
243.257860
 20
188.929473
 30
0.0
 10
242.925862
 20
189.261473
 30
0.0
 10
242.712861
 20
189.679473
 30
0.0
 10
242.639861
 20
190.143471
 30
0.0
  0
LWPOLYLINE
  5
15e
100
AcDbEntity
  8
0
 62
7
100
AcDbPolyline
 90
21
 70
0
 10
242.639861
 20
235.143472
 30
0.0
 10
242.712861
 20
235.607473
 30
0.0
 10
242.925862
 20
236.025473
 30
0.0
 10
243.257860
 20
236.357473
 30
0.0
 10
243.675862
 20
236.570472
 30
0.0
 10
244.139861
 20
236.643472
 30
0.0
 10
244.603860
 20
236.570472
 30
0.0
 10
245.021862
 20
236.357473
 30
0.0
 10
245.353860
 20
236.025473
 30
0.0
 10
245.566861
 20
235.607473
 30
0.0
 10
245.639861
 20
235.143472
 30
0.0
 10
245.566861
 20
234.679473
 30
0.0
 10
245.353860
 20
234.261474
 30
0.0
 10
245.021862
 20
233.929473
 30
0.0
 10
244.603860
 20
233.716472
 30
0.0
 10
244.139861
 20
233.643472
 30
0.0
 10
243.675862
 20
233.716472
 30
0.0
 10
243.257860
 20
233.929473
 30
0.0
 10
242.925862
 20
234.261474
 30
0.0
 10
242.712861
 20
234.679473
 30
0.0
 10
242.639861
 20
235.143472
 30
0.0
  0
LWPOLYLINE
  5
15f
100
AcDbEntity
  8
0
 62
1
100
AcDbPolyline
 90
45
 70
0
 10
250.139860
 20
271.787472
 30
0.0
 10
250.171862
 20
271.949472
 30
0.0
 10
250.245860
 20
272.099472
 30
0.0
 10
253.101862
 20
276.295472
 30
0.0
 10
254.529861
 20
278.393472
 30
0.0
 10
255.957860
 20
280.493472
 30
0.0
 10
256.055862
 20
280.605472
 30
0.0
 10
256.177861
 20
280.689472
 30
0.0
 10
256.315862
 20
280.741472
 30
0.0
 10
256.463862
 20
280.761473
 30
0.0
 10
258.743862
 20
280.761472
 30
0.0
 10
259.883862
 20
280.763476
 30
0.0
 10
261.023862
 20
280.763472
 30
0.0
 10
265.979862
 20
288.047472
 30
0.0
 10
268.457861
 20
291.689472
 30
0.0
 10
270.935862
 20
295.331472
 30
0.0
 10
271.069861
 20
295.473472
 30
0.0
 10
271.237860
 20
295.563472
 30
0.0
 10
271.427860
 20
295.597472
 30
0.0
 10
271.621860
 20
295.571471
 30
0.0
 10
271.797862
 20
295.485472
 30
0.0
 10
271.933862
 20
295.349472
 30
0.0
 10
272.021862
 20
295.181472
 30
0.0
 10
272.053860
 20
294.987472
 30
0.0
 10
272.053860
 20
282.139472
 30
0.0
 10
274.297874
 20
285.437472
 30
0.0
 10
276.541851
 20
288.735472
 30
0.0
 10
278.783852
 20
292.033472
 30
0.0
 10
281.027858
 20
295.331472
 30
0.0
 10
281.163861
 20
295.473472
 30
0.0
 10
281.331868
 20
295.563472
 30
0.0
 10
281.519856
 20
295.597472
 30
0.0
 10
281.713855
 20
295.571471
 30
0.0
 10
281.889849
 20
295.485472
 30
0.0
 10
282.027856
 20
295.349472
 30
0.0
 10
282.115853
 20
295.181472
 30
0.0
 10
282.145853
 20
294.987472
 30
0.0
 10
282.145853
 20
280.763472
 30
0.0
 10
289.527855
 20
280.763472
 30
0.0
 10
289.693858
 20
280.741473
 30
0.0
 10
289.843859
 20
280.675472
 30
0.0
 10
289.971875
 20
280.573472
 30
0.0
 10
290.067859
 20
280.439472
 30
0.0
 10
290.125856
 20
280.281472
 30
0.0
 10
290.139967
 20
280.119472
 30
0.0
  0
LWPOLYLINE
  5
160
100
AcDbEntity
  8
0
 62
1
100
AcDbPolyline
 90
22
 70
0
 10
290.139854
 20
280.119472
 30
0.0
 10
290.107850
 20
279.957472
 30
0.0
 10
290.033851
 20
279.809472
 30
0.0
 10
288.605863
 20
277.709472
 30
0.0
 10
285.749859
 20
273.513472
 30
0.0
 10
284.321871
 20
271.413472
 30
0.0
 10
284.221851
 20
271.301472
 30
0.0
 10
284.101850
 20
271.217472
 30
0.0
 10
283.963872
 20
271.165472
 30
0.0
 10
283.815875
 20
271.147472
 30
0.0
 10
282.593852
 20
271.145468
 30
0.0
 10
281.373862
 20
271.145472
 30
0.0
 10
280.151868
 20
271.143468
 30
0.0
 10
278.931850
 20
271.143472
 30
0.0
 10
278.811849
 20
271.155472
 30
0.0
 10
278.697859
 20
271.189472
 30
0.0
 10
278.591857
 20
271.245472
 30
0.0
 10
278.499852
 20
271.321472
 30
0.0
 10
278.421874
 20
271.415472
 30
0.0
 10
278.365853
 20
271.521472
 30
0.0
 10
278.331874
 20
271.635472
 30
0.0
 10
278.319738
 20
271.755472
 30
0.0
  0
LWPOLYLINE
  5
161
100
AcDbEntity
  8
0
 62
1
100
AcDbPolyline
 90
34
 70
0
 10
278.319851
 20
271.755472
 30
0.0
 10
278.319851
 20
284.601472
 30
0.0
 10
276.075874
 20
281.303472
 30
0.0
 10
273.831868
 20
278.007472
 30
0.0
 10
271.587860
 20
274.709472
 30
0.0
 10
269.343861
 20
271.411472
 30
0.0
 10
269.243861
 20
271.297472
 30
0.0
 10
269.121862
 20
271.213472
 30
0.0
 10
268.983861
 20
271.161472
 30
0.0
 10
268.837862
 20
271.143472
 30
0.0
 10
268.791862
 20
271.145476
 30
0.0
 10
268.747861
 20
271.149471
 30
0.0
 10
268.701861
 20
271.159471
 30
0.0
 10
268.657860
 20
271.171472
 30
0.0
 10
268.481861
 20
271.257472
 30
0.0
 10
268.345861
 20
271.391472
 30
0.0
 10
268.257861
 20
271.561472
 30
0.0
 10
268.225860
 20
271.755472
 30
0.0
 10
268.225860
 20
284.601472
 30
0.0
 10
265.981860
 20
281.303472
 30
0.0
 10
263.737860
 20
278.007472
 30
0.0
 10
261.495862
 20
274.709472
 30
0.0
 10
259.251862
 20
271.411472
 30
0.0
 10
259.151862
 20
271.299472
 30
0.0
 10
259.031861
 20
271.215472
 30
0.0
 10
258.893860
 20
271.161472
 30
0.0
 10
258.745860
 20
271.143472
 30
0.0
 10
250.751862
 20
271.143472
 30
0.0
 10
250.585862
 20
271.165472
 30
0.0
 10
250.435861
 20
271.231472
 30
0.0
 10
250.307862
 20
271.333472
 30
0.0
 10
250.211861
 20
271.469472
 30
0.0
 10
250.153861
 20
271.625472
 30
0.0
 10
250.139863
 20
271.787472
 30
0.0
  0
LWPOLYLINE
  5
162
100
AcDbEntity
  8
0
 62
1
100
AcDbPolyline
 90
31
 70
0
 10
251.907861
 20
272.365472
 30
0.0
 10
253.127860
 20
274.159472
 30
0.0
 10
254.347861
 20
275.951472
 30
0.0
 10
255.567860
 20
277.745472
 30
0.0
 10
256.787862
 20
279.537472
 30
0.0
 10
257.927862
 20
279.539476
 30
0.0
 10
260.209863
 20
279.539472
 30
0.0
 10
261.349863
 20
279.541476
 30
0.0
 10
261.497860
 20
279.559472
 30
0.0
 10
261.635861
 20
279.611472
 30
0.0
 10
261.755862
 20
279.695472
 30
0.0
 10
261.853861
 20
279.809472
 30
0.0
 10
264.097860
 20
283.107472
 30
0.0
 10
266.341860
 20
286.403472
 30
0.0
 10
268.585860
 20
289.701472
 30
0.0
 10
270.829862
 20
292.999472
 30
0.0
 10
270.829862
 20
280.151472
 30
0.0
 10
270.859860
 20
279.959472
 30
0.0
 10
270.949860
 20
279.789472
 30
0.0
 10
271.085860
 20
279.655472
 30
0.0
 10
271.261863
 20
279.567472
 30
0.0
 10
271.455862
 20
279.541471
 30
0.0
 10
271.643862
 20
279.575472
 30
0.0
 10
271.811860
 20
279.665472
 30
0.0
 10
271.947860
 20
279.809472
 30
0.0
 10
274.191871
 20
283.107472
 30
0.0
 10
276.435848
 20
286.403472
 30
0.0
 10
278.679854
 20
289.701472
 30
0.0
 10
280.921855
 20
292.999472
 30
0.0
 10
280.921855
 20
280.153472
 30
0.0
 10
280.933991
 20
280.033472
 30
0.0
  0
LWPOLYLINE
  5
163
100
AcDbEntity
  8
0
 62
1
100
AcDbPolyline
 90
40
 70
0
 10
280.933850
 20
280.033472
 30
0.0
 10
280.969861
 20
279.919472
 30
0.0
 10
281.025854
 20
279.813472
 30
0.0
 10
281.101856
 20
279.719472
 30
0.0
 10
281.195865
 20
279.643472
 30
0.0
 10
281.299864
 20
279.587472
 30
0.0
 10
281.413853
 20
279.553472
 30
0.0
 10
281.533854
 20
279.541472
 30
0.0
 10
288.371873
 20
279.541472
 30
0.0
 10
287.151854
 20
277.747472
 30
0.0
 10
285.931864
 20
275.955472
 30
0.0
 10
284.711874
 20
274.161472
 30
0.0
 10
283.491855
 20
272.369472
 30
0.0
 10
282.503852
 20
272.369472
 30
0.0
 10
281.517852
 20
272.367468
 30
0.0
 10
279.543849
 20
272.367472
 30
0.0
 10
279.543849
 20
286.589472
 30
0.0
 10
279.511873
 20
286.783472
 30
0.0
 10
279.423848
 20
286.953472
 30
0.0
 10
279.287873
 20
287.087472
 30
0.0
 10
279.111851
 20
287.173472
 30
0.0
 10
278.917852
 20
287.199472
 30
0.0
 10
278.727860
 20
287.165472
 30
0.0
 10
278.559853
 20
287.075472
 30
0.0
 10
278.425854
 20
286.933472
 30
0.0
 10
273.937871
 20
280.337472
 30
0.0
 10
271.693860
 20
277.039472
 30
0.0
 10
269.449860
 20
273.741472
 30
0.0
 10
269.449860
 20
286.589472
 30
0.0
 10
269.417862
 20
286.783472
 30
0.0
 10
269.329862
 20
286.953472
 30
0.0
 10
269.193862
 20
287.087472
 30
0.0
 10
269.017860
 20
287.173472
 30
0.0
 10
268.823861
 20
287.201472
 30
0.0
 10
268.635861
 20
287.165472
 30
0.0
 10
268.465862
 20
287.075472
 30
0.0
 10
268.331863
 20
286.933472
 30
0.0
 10
260.897861
 20
276.007472
 30
0.0
 10
258.421861
 20
272.365472
 30
0.0
 10
251.907861
 20
272.365472
 30
0.0
  0
LWPOLYLINE
  5
164
100
AcDbEntity
  8
0
 62
7
100
AcDbPolyline
 90
65
 70
0
 10
254.139861
 20
154.393471
 30
0.0
 10
254.139861
 20
159.393472
 30
0.0
 10
260.139860
 20
159.393472
 30
0.0
 10
260.139860
 20
165.143474
 30
0.0
 10
265.639860
 20
165.143474
 30
0.0
 10
265.639860
 20
163.643471
 30
0.0
 10
268.639860
 20
163.643471
 30
0.0
 10
268.639860
 20
165.143474
 30
0.0
 10
270.139860
 20
165.143474
 30
0.0
 10
270.139860
 20
168.143473
 30
0.0
 10
268.639860
 20
168.143473
 30
0.0
 10
268.639860
 20
169.643473
 30
0.0
 10
265.639860
 20
169.643473
 30
0.0
 10
265.639860
 20
168.143473
 30
0.0
 10
260.139860
 20
168.143473
 30
0.0
 10
260.139860
 20
173.893472
 30
0.0
 10
254.139861
 20
173.893472
 30
0.0
 10
254.139861
 20
178.893473
 30
0.0
 10
260.139860
 20
178.893473
 30
0.0
 10
260.139860
 20
186.143471
 30
0.0
 10
307.165869
 20
186.143471
 30
0.0
 10
307.165869
 20
178.893473
 30
0.0
 10
313.165857
 20
178.893473
 30
0.0
 10
313.165857
 20
173.893472
 30
0.0
 10
307.165869
 20
173.893472
 30
0.0
 10
307.165869
 20
168.143473
 30
0.0
 10
301.665866
 20
168.143473
 30
0.0
 10
301.665866
 20
169.643473
 30
0.0
 10
298.665872
 20
169.643473
 30
0.0
 10
298.665872
 20
168.143473
 30
0.0
 10
297.165861
 20
168.143473
 30
0.0
 10
297.165861
 20
165.143474
 30
0.0
 10
298.665872
 20
165.143474
 30
0.0
 10
298.665872
 20
163.643471
 30
0.0
 10
301.665866
 20
163.643471
 30
0.0
 10
301.665866
 20
165.143474
 30
0.0
 10
307.165869
 20
165.143474
 30
0.0
 10
307.165869
 20
159.393472
 30
0.0
 10
313.165857
 20
159.393472
 30
0.0
 10
313.165857
 20
154.393471
 30
0.0
 10
307.165869
 20
154.393471
 30
0.0
 10
307.165869
 20
147.143473
 30
0.0
 10
297.909855
 20
147.143473
 30
0.0
 10
297.909855
 20
141.143471
 30
0.0
 10
292.909865
 20
141.143471
 30
0.0
 10
292.909865
 20
147.143473
 30
0.0
 10
285.152874
 20
147.143473
 30
0.0
 10
285.152874
 20
152.643473
 30
0.0
 10
286.652857
 20
152.643473
 30
0.0
 10
286.652857
 20
155.643473
 30
0.0
 10
285.152874
 20
155.643473
 30
0.0
 10
285.152874
 20
157.143473
 30
0.0
 10
282.152852
 20
157.143473
 30
0.0
 10
282.152852
 20
155.643473
 30
0.0
 10
280.652869
 20
155.643473
 30
0.0
 10
280.652869
 20
152.643473
 30
0.0
 10
282.152852
 20
152.643473
 30
0.0
 10
282.152852
 20
147.143473
 30
0.0
 10
274.396849
 20
147.143473
 30
0.0
 10
274.396849
 20
141.143471
 30
0.0
 10
269.396862
 20
141.143471
 30
0.0
 10
269.396862
 20
147.143473
 30
0.0
 10
260.139860
 20
147.143473
 30
0.0
 10
260.139860
 20
154.393471
 30
0.0
 10
254.139861
 20
154.393471
 30
0.0
  0
LWPOLYLINE
  5
165
100
AcDbEntity
  8
0
 62
7
100
AcDbPolyline
 90
21
 70
0
 10
254.639860
 20
260.143472
 30
0.0
 10
254.712862
 20
260.607472
 30
0.0
 10
254.925861
 20
261.025472
 30
0.0
 10
255.257862
 20
261.357472
 30
0.0
 10
255.675861
 20
261.570472
 30
0.0
 10
256.139860
 20
261.643472
 30
0.0
 10
256.603861
 20
261.570472
 30
0.0
 10
257.021861
 20
261.357472
 30
0.0
 10
257.353861
 20
261.025472
 30
0.0
 10
257.566860
 20
260.607472
 30
0.0
 10
257.639862
 20
260.143472
 30
0.0
 10
257.566860
 20
259.679472
 30
0.0
 10
257.353861
 20
259.261472
 30
0.0
 10
257.021861
 20
258.929472
 30
0.0
 10
256.603861
 20
258.716472
 30
0.0
 10
256.139860
 20
258.643473
 30
0.0
 10
255.675861
 20
258.716472
 30
0.0
 10
255.257862
 20
258.929472
 30
0.0
 10
254.925861
 20
259.261472
 30
0.0
 10
254.712862
 20
259.679472
 30
0.0
 10
254.639860
 20
260.143472
 30
0.0
  0
LWPOLYLINE
  5
166
100
AcDbEntity
  8
0
 62
7
100
AcDbPolyline
 90
21
 70
0
 10
254.639860
 20
305.143472
 30
0.0
 10
254.712862
 20
305.607472
 30
0.0
 10
254.925861
 20
306.025472
 30
0.0
 10
255.257862
 20
306.357472
 30
0.0
 10
255.675861
 20
306.570472
 30
0.0
 10
256.139860
 20
306.643472
 30
0.0
 10
256.603861
 20
306.570472
 30
0.0
 10
257.021861
 20
306.357472
 30
0.0
 10
257.353861
 20
306.025472
 30
0.0
 10
257.566860
 20
305.607472
 30
0.0
 10
257.639862
 20
305.143472
 30
0.0
 10
257.566860
 20
304.679472
 30
0.0
 10
257.353861
 20
304.261472
 30
0.0
 10
257.021861
 20
303.929472
 30
0.0
 10
256.603861
 20
303.716472
 30
0.0
 10
256.139860
 20
303.643472
 30
0.0
 10
255.675861
 20
303.716472
 30
0.0
 10
255.257862
 20
303.929472
 30
0.0
 10
254.925861
 20
304.261472
 30
0.0
 10
254.712862
 20
304.679472
 30
0.0
 10
254.639860
 20
305.143472
 30
0.0
  0
LWPOLYLINE
  5
167
100
AcDbEntity
  8
0
 62
7
100
AcDbPolyline
 90
31
 70
0
 10
258.639860
 20
414.143472
 30
0.0
 10
258.672861
 20
414.455472
 30
0.0
 10
258.769860
 20
414.753473
 30
0.0
 10
258.925862
 20
415.025473
 30
0.0
 10
259.135860
 20
415.258473
 30
0.0
 10
259.389860
 20
415.442473
 30
0.0
 10
259.675861
 20
415.570472
 30
0.0
 10
259.982860
 20
415.635471
 30
0.0
 10
260.296860
 20
415.635471
 30
0.0
 10
260.603862
 20
415.570472
 30
0.0
 10
260.889860
 20
415.442473
 30
0.0
 10
261.143860
 20
415.258473
 30
0.0
 10
261.353862
 20
415.025473
 30
0.0
 10
261.509860
 20
414.753473
 30
0.0
 10
261.606860
 20
414.455472
 30
0.0
 10
261.639860
 20
414.143472
 30
0.0
 10
261.606860
 20
413.831473
 30
0.0
 10
261.509860
 20
413.533471
 30
0.0
 10
261.353862
 20
413.261471
 30
0.0
 10
261.143860
 20
413.028471
 30
0.0
 10
260.889860
 20
412.844471
 30
0.0
 10
260.603862
 20
412.716472
 30
0.0
 10
260.296860
 20
412.651473
 30
0.0
 10
259.982860
 20
412.651473
 30
0.0
 10
259.675861
 20
412.716472
 30
0.0
 10
259.389860
 20
412.844471
 30
0.0
 10
259.135860
 20
413.028471
 30
0.0
 10
258.925862
 20
413.261471
 30
0.0
 10
258.769860
 20
413.533471
 30
0.0
 10
258.672861
 20
413.831473
 30
0.0
 10
258.639860
 20
414.143472
 30
0.0
  0
LWPOLYLINE
  5
168
100
AcDbEntity
  8
0
 62
7
100
AcDbPolyline
 90
31
 70
0
 10
258.639860
 20
426.143471
 30
0.0
 10
258.672861
 20
426.455473
 30
0.0
 10
258.769860
 20
426.753472
 30
0.0
 10
258.925862
 20
427.025472
 30
0.0
 10
259.135860
 20
427.258472
 30
0.0
 10
259.389860
 20
427.442472
 30
0.0
 10
259.675861
 20
427.570471
 30
0.0
 10
259.982860
 20
427.635472
 30
0.0
 10
260.296860
 20
427.635472
 30
0.0
 10
260.603862
 20
427.570471
 30
0.0
 10
260.889860
 20
427.442472
 30
0.0
 10
261.143860
 20
427.258472
 30
0.0
 10
261.353862
 20
427.025472
 30
0.0
 10
261.509860
 20
426.753472
 30
0.0
 10
261.606860
 20
426.455473
 30
0.0
 10
261.639860
 20
426.143471
 30
0.0
 10
261.606860
 20
425.831471
 30
0.0
 10
261.509860
 20
425.533473
 30
0.0
 10
261.353862
 20
425.261473
 30
0.0
 10
261.143860
 20
425.028473
 30
0.0
 10
260.889860
 20
424.844472
 30
0.0
 10
260.603862
 20
424.716473
 30
0.0
 10
260.296860
 20
424.651472
 30
0.0
 10
259.982860
 20
424.651472
 30
0.0
 10
259.675861
 20
424.716473
 30
0.0
 10
259.389860
 20
424.844472
 30
0.0
 10
259.135860
 20
425.028473
 30
0.0
 10
258.925862
 20
425.261473
 30
0.0
 10
258.769860
 20
425.533473
 30
0.0
 10
258.672861
 20
425.831471
 30
0.0
 10
258.639860
 20
426.143471
 30
0.0
  0
LWPOLYLINE
  5
169
100
AcDbEntity
  8
0
 62
7
100
AcDbPolyline
 90
21
 70
0
 10
263.639862
 20
55.143473
 30
0.0
 10
263.712861
 20
55.607472
 30
0.0
 10
263.925860
 20
56.025471
 30
0.0
 10
264.257861
 20
56.357472
 30
0.0
 10
264.675860
 20
56.570474
 30
0.0
 10
265.139861
 20
56.643473
 30
0.0
 10
265.603860
 20
56.570474
 30
0.0
 10
266.021862
 20
56.357472
 30
0.0
 10
266.353860
 20
56.025471
 30
0.0
 10
266.566862
 20
55.607472
 30
0.0
 10
266.639861
 20
55.143473
 30
0.0
 10
266.566862
 20
54.679472
 30
0.0
 10
266.353860
 20
54.261472
 30
0.0
 10
266.021862
 20
53.929472
 30
0.0
 10
265.603860
 20
53.716473
 30
0.0
 10
265.139861
 20
53.643471
 30
0.0
 10
264.675860
 20
53.716473
 30
0.0
 10
264.257861
 20
53.929472
 30
0.0
 10
263.925860
 20
54.261472
 30
0.0
 10
263.712861
 20
54.679472
 30
0.0
 10
263.639862
 20
55.143473
 30
0.0
  0
LWPOLYLINE
  5
16a
100
AcDbEntity
  8
0
 62
7
100
AcDbPolyline
 90
21
 70
0
 10
282.639855
 20
260.143472
 30
0.0
 10
282.712866
 20
260.607472
 30
0.0
 10
282.925859
 20
261.025472
 30
0.0
 10
283.257865
 20
261.357472
 30
0.0
 10
283.675864
 20
261.570472
 30
0.0
 10
284.139866
 20
261.643472
 30
0.0
 10
284.603867
 20
261.570472
 30
0.0
 10
285.021867
 20
261.357472
 30
0.0
 10
285.353873
 20
261.025472
 30
0.0
 10
285.566866
 20
260.607472
 30
0.0
 10
285.639849
 20
260.143472
 30
0.0
 10
285.566866
 20
259.679472
 30
0.0
 10
285.353873
 20
259.261472
 30
0.0
 10
285.021867
 20
258.929472
 30
0.0
 10
284.603867
 20
258.716472
 30
0.0
 10
284.139866
 20
258.643473
 30
0.0
 10
283.675864
 20
258.716472
 30
0.0
 10
283.257865
 20
258.929472
 30
0.0
 10
282.925859
 20
259.261472
 30
0.0
 10
282.712866
 20
259.679472
 30
0.0
 10
282.639855
 20
260.143472
 30
0.0
  0
LWPOLYLINE
  5
16b
100
AcDbEntity
  8
0
 62
7
100
AcDbPolyline
 90
21
 70
0
 10
282.639855
 20
305.143472
 30
0.0
 10
282.712866
 20
305.607472
 30
0.0
 10
282.925859
 20
306.025472
 30
0.0
 10
283.257865
 20
306.357472
 30
0.0
 10
283.675864
 20
306.570472
 30
0.0
 10
284.139866
 20
306.643472
 30
0.0
 10
284.603867
 20
306.570472
 30
0.0
 10
285.021867
 20
306.357472
 30
0.0
 10
285.353873
 20
306.025472
 30
0.0
 10
285.566866
 20
305.607472
 30
0.0
 10
285.639849
 20
305.143472
 30
0.0
 10
285.566866
 20
304.679472
 30
0.0
 10
285.353873
 20
304.261472
 30
0.0
 10
285.021867
 20
303.929472
 30
0.0
 10
284.603867
 20
303.716472
 30
0.0
 10
284.139866
 20
303.643472
 30
0.0
 10
283.675864
 20
303.716472
 30
0.0
 10
283.257865
 20
303.929472
 30
0.0
 10
282.925859
 20
304.261472
 30
0.0
 10
282.712866
 20
304.679472
 30
0.0
 10
282.639855
 20
305.143472
 30
0.0
  0
LWPOLYLINE
  5
16c
100
AcDbEntity
  8
0
 62
7
100
AcDbPolyline
 90
21
 70
0
 10
283.639853
 20
405.143473
 30
0.0
 10
283.712864
 20
405.607472
 30
0.0
 10
283.925857
 20
406.025471
 30
0.0
 10
284.257863
 20
406.357472
 30
0.0
 10
284.675862
 20
406.570471
 30
0.0
 10
285.139864
 20
406.643473
 30
0.0
 10
285.603865
 20
406.570471
 30
0.0
 10
286.021865
 20
406.357472
 30
0.0
 10
286.353871
 20
406.025471
 30
0.0
 10
286.566864
 20
405.607472
 30
0.0
 10
286.639875
 20
405.143473
 30
0.0
 10
286.566864
 20
404.679472
 30
0.0
 10
286.353871
 20
404.261472
 30
0.0
 10
286.021865
 20
403.929472
 30
0.0
 10
285.603865
 20
403.716473
 30
0.0
 10
285.139864
 20
403.643473
 30
0.0
 10
284.675862
 20
403.716473
 30
0.0
 10
284.257863
 20
403.929472
 30
0.0
 10
283.925857
 20
404.261472
 30
0.0
 10
283.712864
 20
404.679472
 30
0.0
 10
283.639853
 20
405.143473
 30
0.0
  0
LWPOLYLINE
  5
16d
100
AcDbEntity
  8
0
 62
7
100
AcDbPolyline
 90
5
 70
0
 10
293.889853
 20
203.393472
 30
0.0
 10
293.889853
 20
208.393473
 30
0.0
 10
300.389854
 20
208.393473
 30
0.0
 10
300.389854
 20
203.393472
 30
0.0
 10
293.889853
 20
203.393472
 30
0.0
  0
LWPOLYLINE
  5
16e
100
AcDbEntity
  8
0
 62
7
100
AcDbPolyline
 90
5
 70
0
 10
293.889853
 20
222.893472
 30
0.0
 10
293.889853
 20
227.893474
 30
0.0
 10
300.389854
 20
227.893474
 30
0.0
 10
300.389854
 20
222.893472
 30
0.0
 10
293.889853
 20
222.893472
 30
0.0
  0
LWPOLYLINE
  5
16f
100
AcDbEntity
  8
0
 62
7
100
AcDbPolyline
 90
21
 70
0
 10
295.639857
 20
215.643471
 30
0.0
 10
295.712868
 20
216.107473
 30
0.0
 10
295.925861
 20
216.525472
 30
0.0
 10
296.257867
 20
216.857473
 30
0.0
 10
296.675866
 20
217.070472
 30
0.0
 10
297.139868
 20
217.143471
 30
0.0
 10
297.603870
 20
217.070472
 30
0.0
 10
298.021869
 20
216.857473
 30
0.0
 10
298.353875
 20
216.525472
 30
0.0
 10
298.566868
 20
216.107473
 30
0.0
 10
298.639851
 20
215.643471
 30
0.0
 10
298.566868
 20
215.179473
 30
0.0
 10
298.353875
 20
214.761473
 30
0.0
 10
298.021869
 20
214.429473
 30
0.0
 10
297.603870
 20
214.216471
 30
0.0
 10
297.139868
 20
214.143471
 30
0.0
 10
296.675866
 20
214.216471
 30
0.0
 10
296.257867
 20
214.429473
 30
0.0
 10
295.925861
 20
214.761473
 30
0.0
 10
295.712868
 20
215.179473
 30
0.0
 10
295.639857
 20
215.643471
 30
0.0
  0
LWPOLYLINE
  5
170
100
AcDbEntity
  8
0
 62
7
100
AcDbPolyline
 90
5
 70
0
 10
303.889862
 20
273.393472
 30
0.0
 10
303.889862
 20
278.393472
 30
0.0
 10
310.389863
 20
278.393472
 30
0.0
 10
310.389863
 20
273.393472
 30
0.0
 10
303.889862
 20
273.393472
 30
0.0
  0
LWPOLYLINE
  5
171
100
AcDbEntity
  8
0
 62
7
100
AcDbPolyline
 90
5
 70
0
 10
303.889862
 20
292.893472
 30
0.0
 10
303.889862
 20
297.893472
 30
0.0
 10
310.389863
 20
297.893472
 30
0.0
 10
310.389863
 20
292.893472
 30
0.0
 10
303.889862
 20
292.893472
 30
0.0
  0
LWPOLYLINE
  5
172
100
AcDbEntity
  8
0
 62
7
100
AcDbPolyline
 90
21
 70
0
 10
305.639865
 20
285.643472
 30
0.0
 10
305.712848
 20
286.107472
 30
0.0
 10
305.925869
 20
286.525472
 30
0.0
 10
306.257875
 20
286.857472
 30
0.0
 10
306.675875
 20
287.070472
 30
0.0
 10
307.139848
 20
287.143472
 30
0.0
 10
307.603850
 20
287.070472
 30
0.0
 10
308.021849
 20
286.857472
 30
0.0
 10
308.353855
 20
286.525472
 30
0.0
 10
308.566848
 20
286.107472
 30
0.0
 10
308.639859
 20
285.643472
 30
0.0
 10
308.566848
 20
285.179472
 30
0.0
 10
308.353855
 20
284.761472
 30
0.0
 10
308.021849
 20
284.429472
 30
0.0
 10
307.603850
 20
284.216472
 30
0.0
 10
307.139848
 20
284.143472
 30
0.0
 10
306.675875
 20
284.216472
 30
0.0
 10
306.257875
 20
284.429472
 30
0.0
 10
305.925869
 20
284.761472
 30
0.0
 10
305.712848
 20
285.179472
 30
0.0
 10
305.639865
 20
285.643472
 30
0.0
  0
LWPOLYLINE
  5
173
100
AcDbEntity
  8
0
 62
7
100
AcDbPolyline
 90
21
 70
0
 10
325.639853
 20
416.143471
 30
0.0
 10
325.761858
 20
416.916472
 30
0.0
 10
326.116865
 20
417.612472
 30
0.0
 10
326.670868
 20
418.166471
 30
0.0
 10
327.366856
 20
418.521473
 30
0.0
 10
328.139862
 20
418.643472
 30
0.0
 10
328.912869
 20
418.521473
 30
0.0
 10
329.608857
 20
418.166471
 30
0.0
 10
330.162860
 20
417.612472
 30
0.0
 10
330.517867
 20
416.916472
 30
0.0
 10
330.639872
 20
416.143471
 30
0.0
 10
330.517867
 20
415.370473
 30
0.0
 10
330.162860
 20
414.674473
 30
0.0
 10
329.608857
 20
414.120471
 30
0.0
 10
328.912869
 20
413.765472
 30
0.0
 10
328.139862
 20
413.643473
 30
0.0
 10
327.366856
 20
413.765472
 30
0.0
 10
326.670868
 20
414.120471
 30
0.0
 10
326.116865
 20
414.674473
 30
0.0
 10
325.761858
 20
415.370473
 30
0.0
 10
325.639853
 20
416.143471
 30
0.0
  0
LWPOLYLINE
  5
174
100
AcDbEntity
  8
0
 62
7
100
AcDbPolyline
 90
21
 70
0
 10
332.639868
 20
244.143474
 30
0.0
 10
332.761872
 20
244.916472
 30
0.0
 10
333.116851
 20
245.612471
 30
0.0
 10
333.670854
 20
246.166473
 30
0.0
 10
334.366870
 20
246.521472
 30
0.0
 10
335.139848
 20
246.643471
 30
0.0
 10
335.912855
 20
246.521472
 30
0.0
 10
336.608872
 20
246.166473
 30
0.0
 10
337.162874
 20
245.612471
 30
0.0
 10
337.517853
 20
244.916472
 30
0.0
 10
337.639858
 20
244.143474
 30
0.0
 10
337.517853
 20
243.370473
 30
0.0
 10
337.162874
 20
242.674473
 30
0.0
 10
336.608872
 20
242.120474
 30
0.0
 10
335.912855
 20
241.765472
 30
0.0
 10
335.139848
 20
241.643473
 30
0.0
 10
334.366870
 20
241.765472
 30
0.0
 10
333.670854
 20
242.120474
 30
0.0
 10
333.116851
 20
242.674473
 30
0.0
 10
332.761872
 20
243.370473
 30
0.0
 10
332.639868
 20
244.143474
 30
0.0
  0
LWPOLYLINE
  5
175
100
AcDbEntity
  8
0
 62
7
100
AcDbPolyline
 90
5
 70
0
 10
338.889848
 20
112.943473
 30
0.0
 10
338.889848
 20
117.943472
 30
0.0
 10
345.389849
 20
117.943472
 30
0.0
 10
345.389849
 20
112.943473
 30
0.0
 10
338.889848
 20
112.943473
 30
0.0
  0
LWPOLYLINE
  5
176
100
AcDbEntity
  8
0
 62
7
100
AcDbPolyline
 90
5
 70
0
 10
338.889848
 20
137.943471
 30
0.0
 10
338.889848
 20
142.943473
 30
0.0
 10
345.389849
 20
142.943473
 30
0.0
 10
345.389849
 20
137.943471
 30
0.0
 10
338.889848
 20
137.943471
 30
0.0
  0
LWPOLYLINE
  5
177
100
AcDbEntity
  8
0
 62
7
100
AcDbPolyline
 90
5
 70
0
 10
338.889848
 20
202.943471
 30
0.0
 10
338.889848
 20
207.943473
 30
0.0
 10
345.389849
 20
207.943473
 30
0.0
 10
345.389849
 20
202.943471
 30
0.0
 10
338.889848
 20
202.943471
 30
0.0
  0
LWPOLYLINE
  5
178
100
AcDbEntity
  8
0
 62
7
100
AcDbPolyline
 90
5
 70
0
 10
338.889848
 20
227.943472
 30
0.0
 10
338.889848
 20
232.943473
 30
0.0
 10
345.389849
 20
232.943473
 30
0.0
 10
345.389849
 20
227.943472
 30
0.0
 10
338.889848
 20
227.943472
 30
0.0
  0
LWPOLYLINE
  5
179
100
AcDbEntity
  8
0
 62
7
100
AcDbPolyline
 90
21
 70
0
 10
340.639852
 20
127.943472
 30
0.0
 10
340.712862
 20
128.407473
 30
0.0
 10
340.925856
 20
128.825473
 30
0.0
 10
341.257862
 20
129.157473
 30
0.0
 10
341.675861
 20
129.370472
 30
0.0
 10
342.139863
 20
129.443472
 30
0.0
 10
342.603864
 20
129.370472
 30
0.0
 10
343.021864
 20
129.157473
 30
0.0
 10
343.353870
 20
128.825473
 30
0.0
 10
343.566863
 20
128.407473
 30
0.0
 10
343.639874
 20
127.943472
 30
0.0
 10
343.566863
 20
127.479473
 30
0.0
 10
343.353870
 20
127.061471
 30
0.0
 10
343.021864
 20
126.729473
 30
0.0
 10
342.603864
 20
126.516471
 30
0.0
 10
342.139863
 20
126.443472
 30
0.0
 10
341.675861
 20
126.516471
 30
0.0
 10
341.257862
 20
126.729473
 30
0.0
 10
340.925856
 20
127.061471
 30
0.0
 10
340.712862
 20
127.479473
 30
0.0
 10
340.639852
 20
127.943472
 30
0.0
  0
LWPOLYLINE
  5
17a
100
AcDbEntity
  8
0
 62
7
100
AcDbPolyline
 90
21
 70
0
 10
340.639852
 20
217.943472
 30
0.0
 10
340.712862
 20
218.407471
 30
0.0
 10
340.925856
 20
218.825473
 30
0.0
 10
341.257862
 20
219.157471
 30
0.0
 10
341.675861
 20
219.370473
 30
0.0
 10
342.139863
 20
219.443472
 30
0.0
 10
342.603864
 20
219.370473
 30
0.0
 10
343.021864
 20
219.157471
 30
0.0
 10
343.353870
 20
218.825473
 30
0.0
 10
343.566863
 20
218.407471
 30
0.0
 10
343.639874
 20
217.943472
 30
0.0
 10
343.566863
 20
217.479474
 30
0.0
 10
343.353870
 20
217.061471
 30
0.0
 10
343.021864
 20
216.729474
 30
0.0
 10
342.603864
 20
216.516472
 30
0.0
 10
342.139863
 20
216.443473
 30
0.0
 10
341.675861
 20
216.516472
 30
0.0
 10
341.257862
 20
216.729474
 30
0.0
 10
340.925856
 20
217.061471
 30
0.0
 10
340.712862
 20
217.479474
 30
0.0
 10
340.639852
 20
217.943472
 30
0.0
  0
LWPOLYLINE
  5
17b
100
AcDbEntity
  8
0
 62
7
100
AcDbPolyline
 90
31
 70
0
 10
358.639872
 20
423.143471
 30
0.0
 10
358.672864
 20
423.455473
 30
0.0
 10
358.769864
 20
423.753472
 30
0.0
 10
358.925848
 20
424.025472
 30
0.0
 10
359.135849
 20
424.258472
 30
0.0
 10
359.389849
 20
424.442472
 30
0.0
 10
359.675853
 20
424.570471
 30
0.0
 10
359.982855
 20
424.635473
 30
0.0
 10
360.296855
 20
424.635473
 30
0.0
 10
360.603856
 20
424.570471
 30
0.0
 10
360.889860
 20
424.442472
 30
0.0
 10
361.143860
 20
424.258472
 30
0.0
 10
361.353862
 20
424.025472
 30
0.0
 10
361.509874
 20
423.753472
 30
0.0
 10
361.606874
 20
423.455473
 30
0.0
 10
361.639866
 20
423.143471
 30
0.0
 10
361.606874
 20
422.831472
 30
0.0
 10
361.509874
 20
422.533473
 30
0.0
 10
361.353862
 20
422.261473
 30
0.0
 10
361.143860
 20
422.028473
 30
0.0
 10
360.889860
 20
421.844473
 30
0.0
 10
360.603856
 20
421.716471
 30
0.0
 10
360.296855
 20
421.651472
 30
0.0
 10
359.982855
 20
421.651472
 30
0.0
 10
359.675853
 20
421.716471
 30
0.0
 10
359.389849
 20
421.844473
 30
0.0
 10
359.135849
 20
422.028473
 30
0.0
 10
358.925848
 20
422.261473
 30
0.0
 10
358.769864
 20
422.533473
 30
0.0
 10
358.672864
 20
422.831472
 30
0.0
 10
358.639872
 20
423.143471
 30
0.0
  0
LWPOLYLINE
  5
17c
100
AcDbEntity
  8
0
 62
7
100
AcDbPolyline
 90
31
 70
0
 10
358.639872
 20
433.143474
 30
0.0
 10
358.672864
 20
433.455473
 30
0.0
 10
358.769864
 20
433.753472
 30
0.0
 10
358.925848
 20
434.025472
 30
0.0
 10
359.135849
 20
434.258472
 30
0.0
 10
359.389849
 20
434.442472
 30
0.0
 10
359.675853
 20
434.570471
 30
0.0
 10
359.982855
 20
434.635473
 30
0.0
 10
360.296855
 20
434.635473
 30
0.0
 10
360.603856
 20
434.570471
 30
0.0
 10
360.889860
 20
434.442472
 30
0.0
 10
361.143860
 20
434.258472
 30
0.0
 10
361.353862
 20
434.025472
 30
0.0
 10
361.509874
 20
433.753472
 30
0.0
 10
361.606874
 20
433.455473
 30
0.0
 10
361.639866
 20
433.143474
 30
0.0
 10
361.606874
 20
432.831471
 30
0.0
 10
361.509874
 20
432.533473
 30
0.0
 10
361.353862
 20
432.261473
 30
0.0
 10
361.143860
 20
432.028473
 30
0.0
 10
360.889860
 20
431.844473
 30
0.0
 10
360.603856
 20
431.716471
 30
0.0
 10
360.296855
 20
431.651472
 30
0.0
 10
359.982855
 20
431.651472
 30
0.0
 10
359.675853
 20
431.716471
 30
0.0
 10
359.389849
 20
431.844473
 30
0.0
 10
359.135849
 20
432.028473
 30
0.0
 10
358.925848
 20
432.261473
 30
0.0
 10
358.769864
 20
432.533473
 30
0.0
 10
358.672864
 20
432.831471
 30
0.0
 10
358.639872
 20
433.143474
 30
0.0
  0
LWPOLYLINE
  5
17d
100
AcDbEntity
  8
0
 62
7
100
AcDbPolyline
 90
31
 70
0
 10
362.647851
 20
432.986471
 30
0.0
 10
362.647851
 20
433.300471
 30
0.0
 10
362.712875
 20
433.607472
 30
0.0
 10
362.840863
 20
433.893474
 30
0.0
 10
363.024872
 20
434.147471
 30
0.0
 10
363.257874
 20
434.357472
 30
0.0
 10
363.529852
 20
434.513471
 30
0.0
 10
363.827850
 20
434.610473
 30
0.0
 10
364.139875
 20
434.643471
 30
0.0
 10
364.451872
 20
434.610473
 30
0.0
 10
364.749870
 20
434.513471
 30
0.0
 10
365.021848
 20
434.357472
 30
0.0
 10
365.254850
 20
434.147471
 30
0.0
 10
365.438859
 20
433.893474
 30
0.0
 10
365.566875
 20
433.607472
 30
0.0
 10
365.631871
 20
433.300471
 30
0.0
 10
365.631871
 20
432.986471
 30
0.0
 10
365.566875
 20
432.679472
 30
0.0
 10
365.438859
 20
432.393471
 30
0.0
 10
365.254850
 20
432.139471
 30
0.0
 10
365.021848
 20
431.929472
 30
0.0
 10
364.749870
 20
431.773471
 30
0.0
 10
364.451872
 20
431.676471
 30
0.0
 10
364.139875
 20
431.643471
 30
0.0
 10
363.827850
 20
431.676471
 30
0.0
 10
363.529852
 20
431.773471
 30
0.0
 10
363.257874
 20
431.929472
 30
0.0
 10
363.024872
 20
432.139471
 30
0.0
 10
362.840863
 20
432.393471
 30
0.0
 10
362.712875
 20
432.679472
 30
0.0
 10
362.647851
 20
432.986471
 30
0.0
  0
LWPOLYLINE
  5
17e
100
AcDbEntity
  8
0
 62
7
100
AcDbPolyline
 90
31
 70
0
 10
374.647855
 20
432.986471
 30
0.0
 10
374.647855
 20
433.300471
 30
0.0
 10
374.712851
 20
433.607472
 30
0.0
 10
374.840867
 20
433.893474
 30
0.0
 10
375.024848
 20
434.147471
 30
0.0
 10
375.257850
 20
434.357472
 30
0.0
 10
375.529856
 20
434.513471
 30
0.0
 10
375.827854
 20
434.610473
 30
0.0
 10
376.139851
 20
434.643471
 30
0.0
 10
376.451848
 20
434.610473
 30
0.0
 10
376.749874
 20
434.513471
 30
0.0
 10
377.021852
 20
434.357472
 30
0.0
 10
377.254855
 20
434.147471
 30
0.0
 10
377.438864
 20
433.893474
 30
0.0
 10
377.566851
 20
433.607472
 30
0.0
 10
377.631875
 20
433.300471
 30
0.0
 10
377.631875
 20
432.986471
 30
0.0
 10
377.566851
 20
432.679472
 30
0.0
 10
377.438864
 20
432.393471
 30
0.0
 10
377.254855
 20
432.139471
 30
0.0
 10
377.021852
 20
431.929472
 30
0.0
 10
376.749874
 20
431.773471
 30
0.0
 10
376.451848
 20
431.676471
 30
0.0
 10
376.139851
 20
431.643471
 30
0.0
 10
375.827854
 20
431.676471
 30
0.0
 10
375.529856
 20
431.773471
 30
0.0
 10
375.257850
 20
431.929472
 30
0.0
 10
375.024848
 20
432.139471
 30
0.0
 10
374.840867
 20
432.393471
 30
0.0
 10
374.712851
 20
432.679472
 30
0.0
 10
374.647855
 20
432.986471
 30
0.0
  0
LWPOLYLINE
  5
17f
100
AcDbEntity
  8
0
 62
7
100
AcDbPolyline
 90
31
 70
0
 10
393.639858
 20
430.143471
 30
0.0
 10
393.672850
 20
430.455471
 30
0.0
 10
393.769850
 20
430.753472
 30
0.0
 10
393.925862
 20
431.025472
 30
0.0
 10
394.135864
 20
431.258472
 30
0.0
 10
394.389864
 20
431.442472
 30
0.0
 10
394.675868
 20
431.570471
 30
0.0
 10
394.982869
 20
431.635473
 30
0.0
 10
395.296870
 20
431.635473
 30
0.0
 10
395.603871
 20
431.570471
 30
0.0
 10
395.889875
 20
431.442472
 30
0.0
 10
396.143875
 20
431.258472
 30
0.0
 10
396.353848
 20
431.025472
 30
0.0
 10
396.509861
 20
430.753472
 30
0.0
 10
396.606861
 20
430.455471
 30
0.0
 10
396.639852
 20
430.143471
 30
0.0
 10
396.606861
 20
429.831472
 30
0.0
 10
396.509861
 20
429.533473
 30
0.0
 10
396.353848
 20
429.261473
 30
0.0
 10
396.143875
 20
429.028473
 30
0.0
 10
395.889875
 20
428.844473
 30
0.0
 10
395.603871
 20
428.716471
 30
0.0
 10
395.296870
 20
428.651472
 30
0.0
 10
394.982869
 20
428.651472
 30
0.0
 10
394.675868
 20
428.716471
 30
0.0
 10
394.389864
 20
428.844473
 30
0.0
 10
394.135864
 20
429.028473
 30
0.0
 10
393.925862
 20
429.261473
 30
0.0
 10
393.769850
 20
429.533473
 30
0.0
 10
393.672850
 20
429.831472
 30
0.0
 10
393.639858
 20
430.143471
 30
0.0
  0
LWPOLYLINE
  5
180
100
AcDbEntity
  8
0
 62
7
100
AcDbPolyline
 90
31
 70
0
 10
393.639858
 20
442.143473
 30
0.0
 10
393.672850
 20
442.455472
 30
0.0
 10
393.769850
 20
442.753473
 30
0.0
 10
393.925862
 20
443.025474
 30
0.0
 10
394.135864
 20
443.258473
 30
0.0
 10
394.389864
 20
443.442471
 30
0.0
 10
394.675868
 20
443.570473
 30
0.0
 10
394.982869
 20
443.635471
 30
0.0
 10
395.296870
 20
443.635471
 30
0.0
 10
395.603871
 20
443.570473
 30
0.0
 10
395.889875
 20
443.442471
 30
0.0
 10
396.143875
 20
443.258473
 30
0.0
 10
396.353848
 20
443.025474
 30
0.0
 10
396.509861
 20
442.753473
 30
0.0
 10
396.606861
 20
442.455472
 30
0.0
 10
396.639852
 20
442.143473
 30
0.0
 10
396.606861
 20
441.831473
 30
0.0
 10
396.509861
 20
441.533472
 30
0.0
 10
396.353848
 20
441.261472
 30
0.0
 10
396.143875
 20
441.028472
 30
0.0
 10
395.889875
 20
440.844472
 30
0.0
 10
395.603871
 20
440.716472
 30
0.0
 10
395.296870
 20
440.651471
 30
0.0
 10
394.982869
 20
440.651471
 30
0.0
 10
394.675868
 20
440.716472
 30
0.0
 10
394.389864
 20
440.844472
 30
0.0
 10
394.135864
 20
441.028472
 30
0.0
 10
393.925862
 20
441.261472
 30
0.0
 10
393.769850
 20
441.533472
 30
0.0
 10
393.672850
 20
441.831473
 30
0.0
 10
393.639858
 20
442.143473
 30
0.0
  0
LWPOLYLINE
  5
181
100
AcDbEntity
  8
0
 62
7
100
AcDbPolyline
 90
31
 70
0
 10
403.639867
 20
430.143471
 30
0.0
 10
403.672858
 20
430.455471
 30
0.0
 10
403.769858
 20
430.753472
 30
0.0
 10
403.925871
 20
431.025472
 30
0.0
 10
404.135872
 20
431.258472
 30
0.0
 10
404.389872
 20
431.442472
 30
0.0
 10
404.675848
 20
431.570471
 30
0.0
 10
404.982849
 20
431.635473
 30
0.0
 10
405.296850
 20
431.635473
 30
0.0
 10
405.603851
 20
431.570471
 30
0.0
 10
405.889855
 20
431.442472
 30
0.0
 10
406.143855
 20
431.258472
 30
0.0
 10
406.353857
 20
431.025472
 30
0.0
 10
406.509869
 20
430.753472
 30
0.0
 10
406.606869
 20
430.455471
 30
0.0
 10
406.639861
 20
430.143471
 30
0.0
 10
406.606869
 20
429.831472
 30
0.0
 10
406.509869
 20
429.533473
 30
0.0
 10
406.353857
 20
429.261473
 30
0.0
 10
406.143855
 20
429.028473
 30
0.0
 10
405.889855
 20
428.844473
 30
0.0
 10
405.603851
 20
428.716471
 30
0.0
 10
405.296850
 20
428.651472
 30
0.0
 10
404.982849
 20
428.651472
 30
0.0
 10
404.675848
 20
428.716471
 30
0.0
 10
404.389872
 20
428.844473
 30
0.0
 10
404.135872
 20
429.028473
 30
0.0
 10
403.925871
 20
429.261473
 30
0.0
 10
403.769858
 20
429.533473
 30
0.0
 10
403.672858
 20
429.831472
 30
0.0
 10
403.639867
 20
430.143471
 30
0.0
  0
LWPOLYLINE
  5
182
100
AcDbEntity
  8
0
 62
7
100
AcDbPolyline
 90
31
 70
0
 10
403.639867
 20
442.143473
 30
0.0
 10
403.672858
 20
442.455472
 30
0.0
 10
403.769858
 20
442.753473
 30
0.0
 10
403.925871
 20
443.025474
 30
0.0
 10
404.135872
 20
443.258473
 30
0.0
 10
404.389872
 20
443.442471
 30
0.0
 10
404.675848
 20
443.570473
 30
0.0
 10
404.982849
 20
443.635471
 30
0.0
 10
405.296850
 20
443.635471
 30
0.0
 10
405.603851
 20
443.570473
 30
0.0
 10
405.889855
 20
443.442471
 30
0.0
 10
406.143855
 20
443.258473
 30
0.0
 10
406.353857
 20
443.025474
 30
0.0
 10
406.509869
 20
442.753473
 30
0.0
 10
406.606869
 20
442.455472
 30
0.0
 10
406.639861
 20
442.143473
 30
0.0
 10
406.606869
 20
441.831473
 30
0.0
 10
406.509869
 20
441.533472
 30
0.0
 10
406.353857
 20
441.261472
 30
0.0
 10
406.143855
 20
441.028472
 30
0.0
 10
405.889855
 20
440.844472
 30
0.0
 10
405.603851
 20
440.716472
 30
0.0
 10
405.296850
 20
440.651471
 30
0.0
 10
404.982849
 20
440.651471
 30
0.0
 10
404.675848
 20
440.716472
 30
0.0
 10
404.389872
 20
440.844472
 30
0.0
 10
404.135872
 20
441.028472
 30
0.0
 10
403.925871
 20
441.261472
 30
0.0
 10
403.769858
 20
441.533472
 30
0.0
 10
403.672858
 20
441.831473
 30
0.0
 10
403.639867
 20
442.143473
 30
0.0
  0
LWPOLYLINE
  5
183
100
AcDbEntity
  8
0
 62
7
100
AcDbPolyline
 90
21
 70
0
 10
424.639853
 20
245.143472
 30
0.0
 10
424.761858
 20
245.916473
 30
0.0
 10
425.116865
 20
246.612472
 30
0.0
 10
425.670867
 20
247.166471
 30
0.0
 10
426.366855
 20
247.521473
 30
0.0
 10
427.139862
 20
247.643472
 30
0.0
 10
427.912869
 20
247.521473
 30
0.0
 10
428.608857
 20
247.166471
 30
0.0
 10
429.162859
 20
246.612472
 30
0.0
 10
429.517866
 20
245.916473
 30
0.0
 10
429.639871
 20
245.143472
 30
0.0
 10
429.517866
 20
244.370473
 30
0.0
 10
429.162859
 20
243.674471
 30
0.0
 10
428.608857
 20
243.120472
 30
0.0
 10
427.912869
 20
242.765473
 30
0.0
 10
427.139862
 20
242.643474
 30
0.0
 10
426.366855
 20
242.765473
 30
0.0
 10
425.670867
 20
243.120472
 30
0.0
 10
425.116865
 20
243.674471
 30
0.0
 10
424.761858
 20
244.370473
 30
0.0
 10
424.639853
 20
245.143472
 30
0.0
  0
LWPOLYLINE
  5
184
100
AcDbEntity
  8
0
 62
7
100
AcDbPolyline
 90
21
 70
0
 10
425.639851
 20
415.143473
 30
0.0
 10
425.761856
 20
415.916471
 30
0.0
 10
426.116863
 20
416.612471
 30
0.0
 10
426.670865
 20
417.166473
 30
0.0
 10
427.366853
 20
417.521472
 30
0.0
 10
428.139860
 20
417.643471
 30
0.0
 10
428.912867
 20
417.521472
 30
0.0
 10
429.608855
 20
417.166473
 30
0.0
 10
430.162857
 20
416.612471
 30
0.0
 10
430.517864
 20
415.916471
 30
0.0
 10
430.639869
 20
415.143473
 30
0.0
 10
430.517864
 20
414.370472
 30
0.0
 10
430.162857
 20
413.674473
 30
0.0
 10
429.608855
 20
413.120473
 30
0.0
 10
428.912867
 20
412.765471
 30
0.0
 10
428.139860
 20
412.643472
 30
0.0
 10
427.366853
 20
412.765471
 30
0.0
 10
426.670865
 20
413.120473
 30
0.0
 10
426.116863
 20
413.674473
 30
0.0
 10
425.761856
 20
414.370472
 30
0.0
 10
425.639851
 20
415.143473
 30
0.0
  0
SPLINE
  5
185
100
AcDbEntity
  8
0
 62
1
100
AcDbSpline
 70
8
 71
3
 72
8
 73
4
 74
0
 40
0
 40
0
 40
0
 40
0
 40
1
 40
1
 40
1
 40
1
 10
385.847138
 20
454.503262
 30
0.0
 10
385.847138
 20
454.223224
 30
0.0
 10
385.613769
 20
453.989858
 30
0.0
 10
385.333748
 20
453.989858
 30
0.0
  0
SPLINE
  5
186
100
AcDbEntity
  8
0
 62
1
100
AcDbSpline
 70
8
 71
3
 72
8
 73
4
 74
0
 40
0
 40
0
 40
0
 40
0
 40
1
 40
1
 40
1
 40
1
 10
385.333748
 20
453.989858
 30
0.0
 10
384.376930
 20
453.989858
 30
0.0
 10
383.606830
 20
453.219752
 30
0.0
 10
383.606830
 20
452.262954
 30
0.0
  0
SPLINE
  5
187
100
AcDbEntity
  8
0
 62
1
100
AcDbSpline
 70
8
 71
3
 72
8
 73
4
 74
0
 40
0
 40
0
 40
0
 40
0
 40
1
 40
1
 40
1
 40
1
 10
383.606830
 20
452.262954
 30
0.0
 10
383.606830
 20
451.313937
 30
0.0
 10
384.376930
 20
450.536050
 30
0.0
 10
385.333748
 20
450.536050
 30
0.0
  0
LWPOLYLINE
  5
188
100
AcDbEntity
  8
0
 62
1
100
AcDbPolyline
 90
3
 70
0
 10
384.408059
 20
455.016667
 30
0.0
 10
385.847138
 20
455.016667
 30
0.0
 10
385.847138
 20
454.503262
 30
0.0
  0
SPLINE
  5
189
100
AcDbEntity
  8
0
 62
1
100
AcDbSpline
 70
8
 71
3
 72
8
 73
4
 74
0
 40
0
 40
0
 40
0
 40
0
 40
1
 40
1
 40
1
 40
1
 10
386.274987
 20
450.536050
 30
0.0
 10
386.679468
 20
450.536050
 30
0.0
 10
387.006197
 20
450.862762
 30
0.0
 10
387.006197
 20
451.267263
 30
0.0
  0
SPLINE
  5
18a
100
AcDbEntity
  8
0
 62
1
100
AcDbSpline
 70
8
 71
3
 72
8
 73
4
 74
0
 40
0
 40
0
 40
0
 40
0
 40
1
 40
1
 40
1
 40
1
 10
387.006197
 20
451.267263
 30
0.0
 10
387.006197
 20
451.671763
 30
0.0
 10
386.679468
 20
451.990694
 30
0.0
 10
386.274987
 20
451.990694
 30
0.0
  0
LWPOLYLINE
  5
18b
100
AcDbEntity
  8
0
 62
1
100
AcDbPolyline
 90
2
 70
0
 10
385.333748
 20
450.536050
 30
0.0
 10
386.274987
 20
450.536050
 30
0.0
  0
SPLINE
  5
18c
100
AcDbEntity
  8
0
 62
1
100
AcDbSpline
 70
8
 71
3
 72
8
 73
4
 74
0
 40
0
 40
0
 40
0
 40
0
 40
1
 40
1
 40
1
 40
1
 10
385.333748
 20
451.990694
 30
0.0
 10
385.185948
 20
451.990694
 30
0.0
 10
385.061488
 20
452.115157
 30
0.0
 10
385.061488
 20
452.262954
 30
0.0
  0
SPLINE
  5
18d
100
AcDbEntity
  8
0
 62
1
100
AcDbSpline
 70
8
 71
3
 72
8
 73
4
 74
0
 40
0
 40
0
 40
0
 40
0
 40
1
 40
1
 40
1
 40
1
 10
385.061488
 20
452.262954
 30
0.0
 10
385.061488
 20
452.410754
 30
0.0
 10
385.185948
 20
452.535214
 30
0.0
 10
385.333748
 20
452.535214
 30
0.0
  0
SPLINE
  5
18e
100
AcDbEntity
  8
0
 62
1
100
AcDbSpline
 70
8
 71
3
 72
8
 73
4
 74
0
 40
0
 40
0
 40
0
 40
0
 40
1
 40
1
 40
1
 40
1
 10
385.333748
 20
452.535214
 30
0.0
 10
386.414998
 20
452.535214
 30
0.0
 10
387.301796
 20
453.422004
 30
0.0
 10
387.301796
 20
454.503262
 30
0.0
  0
LWPOLYLINE
  5
18f
100
AcDbEntity
  8
0
 62
1
100
AcDbPolyline
 90
2
 70
0
 10
386.274987
 20
451.990694
 30
0.0
 10
385.333748
 20
451.990694
 30
0.0
  0
SPLINE
  5
190
100
AcDbEntity
  8
0
 62
1
100
AcDbSpline
 70
8
 71
3
 72
8
 73
4
 74
0
 40
0
 40
0
 40
0
 40
0
 40
1
 40
1
 40
1
 40
1
 10
387.301796
 20
455.747879
 30
0.0
 10
387.301796
 20
456.144599
 30
0.0
 10
386.975068
 20
456.471311
 30
0.0
 10
386.570587
 20
456.471311
 30
0.0
  0
LWPOLYLINE
  5
191
100
AcDbEntity
  8
0
 62
1
100
AcDbPolyline
 90
2
 70
0
 10
387.301796
 20
454.503262
 30
0.0
 10
387.301796
 20
455.747879
 30
0.0
  0
SPLINE
  5
192
100
AcDbEntity
  8
0
 62
1
100
AcDbSpline
 70
8
 71
3
 72
8
 73
4
 74
0
 40
0
 40
0
 40
0
 40
0
 40
1
 40
1
 40
1
 40
1
 10
384.408059
 20
456.471311
 30
0.0
 10
384.003550
 20
456.471311
 30
0.0
 10
383.676850
 20
456.144599
 30
0.0
 10
383.676850
 20
455.747879
 30
0.0
  0
SPLINE
  5
193
100
AcDbEntity
  8
0
 62
1
100
AcDbSpline
 70
8
 71
3
 72
8
 73
4
 74
0
 40
0
 40
0
 40
0
 40
0
 40
1
 40
1
 40
1
 40
1
 10
383.676850
 20
455.747879
 30
0.0
 10
383.676850
 20
455.343379
 30
0.0
 10
384.003550
 20
455.016667
 30
0.0
 10
384.408059
 20
455.016667
 30
0.0
  0
SPLINE
  5
194
100
AcDbEntity
  8
0
 62
1
100
AcDbSpline
 70
8
 71
3
 72
8
 73
4
 74
0
 40
0
 40
0
 40
0
 40
0
 40
1
 40
1
 40
1
 40
1
 10
388.199997
 20
450.551609
 30
0.0
 10
388.472257
 20
450.434927
 30
0.0
 10
388.791196
 20
450.497157
 30
0.0
 10
388.993436
 20
450.707187
 30
0.0
  0
LWPOLYLINE
  5
195
100
AcDbEntity
  8
0
 62
1
100
AcDbPolyline
 90
2
 70
0
 10
386.570587
 20
456.471311
 30
0.0
 10
384.408059
 20
456.471311
 30
0.0
  0
SPLINE
  5
196
100
AcDbEntity
  8
0
 62
1
100
AcDbSpline
 70
8
 71
3
 72
8
 73
4
 74
0
 40
0
 40
0
 40
0
 40
0
 40
1
 40
1
 40
1
 40
1
 10
390.066925
 20
451.780667
 30
0.0
 10
390.354735
 20
452.060705
 30
0.0
 10
390.354735
 20
452.527436
 30
0.0
 10
390.066925
 20
452.807474
 30
0.0
  0
SPLINE
  5
197
100
AcDbEntity
  8
0
 62
1
100
AcDbSpline
 70
8
 71
3
 72
8
 73
4
 74
0
 40
0
 40
0
 40
0
 40
0
 40
1
 40
1
 40
1
 40
1
 10
390.066925
 20
452.807474
 30
0.0
 10
389.833556
 20
453.040840
 30
0.0
 10
389.483515
 20
453.087511
 30
0.0
 10
389.211256
 20
452.931936
 30
0.0
  0
LWPOLYLINE
  5
198
100
AcDbEntity
  8
0
 62
1
100
AcDbPolyline
 90
2
 70
0
 10
388.993436
 20
450.707187
 30
0.0
 10
390.066925
 20
451.780667
 30
0.0
  0
SPLINE
  5
199
100
AcDbEntity
  8
0
 62
1
100
AcDbSpline
 70
8
 71
3
 72
8
 73
4
 74
0
 40
0
 40
0
 40
0
 40
0
 40
1
 40
1
 40
1
 40
1
 10
389.211256
 20
455.786772
 30
0.0
 10
389.211256
 20
456.191273
 30
0.0
 10
388.884527
 20
456.517985
 30
0.0
 10
388.480046
 20
456.517985
 30
0.0
  0
SPLINE
  5
19a
100
AcDbEntity
  8
0
 62
1
100
AcDbSpline
 70
8
 71
3
 72
8
 73
4
 74
0
 40
0
 40
0
 40
0
 40
0
 40
1
 40
1
 40
1
 40
1
 10
388.480046
 20
456.517985
 30
0.0
 10
388.083326
 20
456.517985
 30
0.0
 10
387.756598
 20
456.191273
 30
0.0
 10
387.756598
 20
455.786772
 30
0.0
  0
LWPOLYLINE
  5
19b
100
AcDbEntity
  8
0
 62
1
100
AcDbPolyline
 90
2
 70
0
 10
389.211256
 20
452.931936
 30
0.0
 10
389.211256
 20
455.786772
 30
0.0
  0
SPLINE
  5
19c
100
AcDbEntity
  8
0
 62
1
100
AcDbSpline
 70
8
 71
3
 72
8
 73
4
 74
0
 40
0
 40
0
 40
0
 40
0
 40
1
 40
1
 40
1
 40
1
 10
387.756598
 20
451.220589
 30
0.0
 10
387.756598
 20
450.924995
 30
0.0
 10
387.935526
 20
450.660513
 30
0.0
 10
388.199997
 20
450.551609
 30
0.0
  0
LWPOLYLINE
  5
19d
100
AcDbEntity
  8
0
 62
1
100
AcDbPolyline
 90
2
 70
0
 10
387.756598
 20
455.786772
 30
0.0
 10
387.756598
 20
451.220589
 30
0.0
  0
SPLINE
  5
19e
100
AcDbEntity
  8
0
 62
1
100
AcDbSpline
 70
8
 71
3
 72
8
 73
4
 74
0
 40
0
 40
0
 40
0
 40
0
 40
1
 40
1
 40
1
 40
1
 10
391.159125
 20
453.989858
 30
0.0
 10
390.762405
 20
453.989858
 30
0.0
 10
390.435677
 20
453.663146
 30
0.0
 10
390.435677
 20
453.258648
 30
0.0
  0
SPLINE
  5
19f
100
AcDbEntity
  8
0
 62
1
100
AcDbSpline
 70
8
 71
3
 72
8
 73
4
 74
0
 40
0
 40
0
 40
0
 40
0
 40
1
 40
1
 40
1
 40
1
 10
390.435677
 20
453.258648
 30
0.0
 10
390.435677
 20
452.861926
 30
0.0
 10
390.762405
 20
452.535214
 30
0.0
 10
391.159125
 20
452.535214
 30
0.0
  0
LWPOLYLINE
  5
1a0
100
AcDbEntity
  8
0
 62
1
100
AcDbPolyline
 90
3
 70
0
 10
392.839363
 20
453.989858
 30
0.0
 10
391.159125
 20
453.989858
 30
0.0
 10
391.159125
 20
453.989858
 30
0.0
  0
SPLINE
  5
1a1
100
AcDbEntity
  8
0
 62
1
100
AcDbSpline
 70
8
 71
3
 72
8
 73
4
 74
0
 40
0
 40
0
 40
0
 40
0
 40
1
 40
1
 40
1
 40
1
 10
392.839363
 20
452.535214
 30
0.0
 10
393.236083
 20
452.535214
 30
0.0
 10
393.562784
 20
452.861926
 30
0.0
 10
393.562784
 20
453.258648
 30
0.0
  0
SPLINE
  5
1a2
100
AcDbEntity
  8
0
 62
1
100
AcDbSpline
 70
8
 71
3
 72
8
 73
4
 74
0
 40
0
 40
0
 40
0
 40
0
 40
1
 40
1
 40
1
 40
1
 10
393.562784
 20
453.258648
 30
0.0
 10
393.562784
 20
453.663146
 30
0.0
 10
393.236083
 20
453.989858
 30
0.0
 10
392.839363
 20
453.989858
 30
0.0
  0
SPLINE
  5
1a3
100
AcDbEntity
  8
0
 62
1
100
AcDbSpline
 70
8
 71
3
 72
8
 73
4
 74
0
 40
0
 40
0
 40
0
 40
0
 40
1
 40
1
 40
1
 40
1
 10
393.979682
 20
452.527436
 30
0.0
 10
393.979682
 20
451.430619
 30
0.0
 10
394.874242
 20
450.536050
 30
0.0
 10
395.978860
 20
450.536050
 30
0.0
  0
LWPOLYLINE
  5
1a4
100
AcDbEntity
  8
0
 62
1
100
AcDbPolyline
 90
4
 70
0
 10
391.159125
 20
452.535214
 30
0.0
 10
391.159125
 20
452.535214
 30
0.0
 10
392.839363
 20
452.535214
 30
0.0
 10
392.839363
 20
452.535214
 30
0.0
  0
SPLINE
  5
1a5
100
AcDbEntity
  8
0
 62
1
100
AcDbSpline
 70
8
 71
3
 72
8
 73
4
 74
0
 40
0
 40
0
 40
0
 40
0
 40
1
 40
1
 40
1
 40
1
 10
397.099000
 20
450.536050
 30
0.0
 10
397.503509
 20
450.536050
 30
0.0
 10
397.830209
 20
450.862762
 30
0.0
 10
397.830209
 20
451.267263
 30
0.0
  0
LWPOLYLINE
  5
1a6
100
AcDbEntity
  8
0
 62
1
100
AcDbPolyline
 90
2
 70
0
 10
395.978860
 20
450.536050
 30
0.0
 10
397.099000
 20
450.536050
 30
0.0
  0
SPLINE
  5
1a7
100
AcDbEntity
  8
0
 62
1
100
AcDbSpline
 70
8
 71
3
 72
8
 73
4
 74
0
 40
0
 40
0
 40
0
 40
0
 40
1
 40
1
 40
1
 40
1
 10
397.830209
 20
455.747879
 30
0.0
 10
397.830209
 20
456.144599
 30
0.0
 10
397.503509
 20
456.471311
 30
0.0
 10
397.099000
 20
456.471311
 30
0.0
  0
SPLINE
  5
1a8
100
AcDbEntity
  8
0
 62
1
100
AcDbSpline
 70
8
 71
3
 72
8
 73
4
 74
0
 40
0
 40
0
 40
0
 40
0
 40
1
 40
1
 40
1
 40
1
 10
397.099000
 20
456.471311
 30
0.0
 10
396.694491
 20
456.471311
 30
0.0
 10
396.375580
 20
456.144599
 30
0.0
 10
396.375580
 20
455.747879
 30
0.0
  0
LWPOLYLINE
  5
1a9
100
AcDbEntity
  8
0
 62
1
100
AcDbPolyline
 90
2
 70
0
 10
397.830209
 20
451.267263
 30
0.0
 10
397.830209
 20
455.747879
 30
0.0
  0
SPLINE
  5
1aa
100
AcDbEntity
  8
0
 62
1
100
AcDbSpline
 70
8
 71
3
 72
8
 73
4
 74
0
 40
0
 40
0
 40
0
 40
0
 40
1
 40
1
 40
1
 40
1
 10
395.978860
 20
451.990694
 30
0.0
 10
395.675471
 20
451.990694
 30
0.0
 10
395.434340
 20
452.231839
 30
0.0
 10
395.434340
 20
452.527436
 30
0.0
  0
SPLINE
  5
1ab
100
AcDbEntity
  8
0
 62
1
100
AcDbSpline
 70
8
 71
3
 72
8
 73
4
 74
0
 40
0
 40
0
 40
0
 40
0
 40
1
 40
1
 40
1
 40
1
 10
395.434340
 20
452.527436
 30
0.0
 10
395.434340
 20
452.776359
 30
0.0
 10
395.589901
 20
452.978610
 30
0.0
 10
395.823271
 20
453.048618
 30
0.0
  0
SPLINE
  5
1ac
100
AcDbEntity
  8
0
 62
1
100
AcDbSpline
 70
8
 71
3
 72
8
 73
4
 74
0
 40
0
 40
0
 40
0
 40
0
 40
1
 40
1
 40
1
 40
1
 10
395.823271
 20
453.048618
 30
0.0
 10
396.142210
 20
453.141963
 30
0.0
 10
396.352240
 20
453.437560
 30
0.0
 10
396.344450
 20
453.772050
 30
0.0
  0
SPLINE
  5
1ad
100
AcDbEntity
  8
0
 62
1
100
AcDbSpline
 70
8
 71
3
 72
8
 73
4
 74
0
 40
0
 40
0
 40
0
 40
0
 40
1
 40
1
 40
1
 40
1
 10
396.344450
 20
453.772050
 30
0.0
 10
396.336548
 20
454.098762
 30
0.0
 10
396.103320
 20
454.386580
 30
0.0
 10
395.776591
 20
454.456588
 30
0.0
  0
SPLINE
  5
1ae
100
AcDbEntity
  8
0
 62
1
100
AcDbSpline
 70
8
 71
3
 72
8
 73
4
 74
0
 40
0
 40
0
 40
0
 40
0
 40
1
 40
1
 40
1
 40
1
 10
395.776591
 20
454.456588
 30
0.0
 10
395.473230
 20
454.526599
 30
0.0
 10
395.286540
 20
454.736629
 30
0.0
 10
395.286540
 20
455.008889
 30
0.0
  0
LWPOLYLINE
  5
1af
100
AcDbEntity
  8
0
 62
1
100
AcDbPolyline
 90
3
 70
0
 10
396.375580
 20
455.747879
 30
0.0
 10
396.375580
 20
451.990694
 30
0.0
 10
395.978860
 20
451.990694
 30
0.0
  0
SPLINE
  5
1b0
100
AcDbEntity
  8
0
 62
1
100
AcDbSpline
 70
8
 71
3
 72
8
 73
4
 74
0
 40
0
 40
0
 40
0
 40
0
 40
1
 40
1
 40
1
 40
1
 10
395.286540
 20
455.747879
 30
0.0
 10
395.286540
 20
456.144599
 30
0.0
 10
394.959812
 20
456.471311
 30
0.0
 10
394.563092
 20
456.471311
 30
0.0
  0
SPLINE
  5
1b1
100
AcDbEntity
  8
0
 62
1
100
AcDbSpline
 70
8
 71
3
 72
8
 73
4
 74
0
 40
0
 40
0
 40
0
 40
0
 40
1
 40
1
 40
1
 40
1
 10
394.563092
 20
456.471311
 30
0.0
 10
394.158611
 20
456.471311
 30
0.0
 10
393.831882
 20
456.144599
 30
0.0
 10
393.831882
 20
455.747879
 30
0.0
  0
LWPOLYLINE
  5
1b2
100
AcDbEntity
  8
0
 62
1
100
AcDbPolyline
 90
2
 70
0
 10
395.286540
 20
455.008889
 30
0.0
 10
395.286540
 20
455.747879
 30
0.0
  0
SPLINE
  5
1b3
100
AcDbEntity
  8
0
 62
1
100
AcDbSpline
 70
8
 71
3
 72
8
 73
4
 74
0
 40
0
 40
0
 40
0
 40
0
 40
1
 40
1
 40
1
 40
1
 10
393.831882
 20
455.008889
 30
0.0
 10
393.831882
 20
454.495484
 30
0.0
 10
394.018572
 20
454.036532
 30
0.0
 10
394.337512
 20
453.678705
 30
0.0
  0
SPLINE
  5
1b4
100
AcDbEntity
  8
0
 62
1
100
AcDbSpline
 70
8
 71
3
 72
8
 73
4
 74
0
 40
0
 40
0
 40
0
 40
0
 40
1
 40
1
 40
1
 40
1
 10
394.337512
 20
453.678705
 30
0.0
 10
394.111932
 20
453.351993
 30
0.0
 10
393.979682
 20
452.955271
 30
0.0
 10
393.979682
 20
452.527436
 30
0.0
  0
SPLINE
  5
1b5
100
AcDbEntity
  8
0
 62
1
100
AcDbSpline
 70
8
 71
3
 72
8
 73
4
 74
0
 40
0
 40
0
 40
0
 40
0
 40
1
 40
1
 40
1
 40
1
 10
400.320058
 20
450.403809
 30
0.0
 10
401.440198
 20
450.403809
 30
0.0
 10
402.358098
 20
451.321715
 30
0.0
 10
402.358098
 20
452.441869
 30
0.0
  0
LWPOLYLINE
  5
1b6
100
AcDbEntity
  8
0
 62
1
100
AcDbPolyline
 90
2
 70
0
 10
393.831882
 20
455.747879
 30
0.0
 10
393.831882
 20
455.008889
 30
0.0
  0
SPLINE
  5
1b7
100
AcDbEntity
  8
0
 62
1
100
AcDbSpline
 70
8
 71
3
 72
8
 73
4
 74
0
 40
0
 40
0
 40
0
 40
0
 40
1
 40
1
 40
1
 40
1
 10
402.358098
 20
455.747879
 30
0.0
 10
402.358098
 20
456.152377
 30
0.0
 10
402.031398
 20
456.479089
 30
0.0
 10
401.626888
 20
456.479089
 30
0.0
  0
SPLINE
  5
1b8
100
AcDbEntity
  8
0
 62
1
100
AcDbSpline
 70
8
 71
3
 72
8
 73
4
 74
0
 40
0
 40
0
 40
0
 40
0
 40
1
 40
1
 40
1
 40
1
 10
401.626888
 20
456.479089
 30
0.0
 10
401.230169
 20
456.479089
 30
0.0
 10
400.903468
 20
456.152377
 30
0.0
 10
400.903468
 20
455.747879
 30
0.0
  0
LWPOLYLINE
  5
1b9
100
AcDbEntity
  8
0
 62
1
100
AcDbPolyline
 90
2
 70
0
 10
402.358098
 20
452.441869
 30
0.0
 10
402.358098
 20
455.747879
 30
0.0
  0
SPLINE
  5
1ba
100
AcDbEntity
  8
0
 62
1
100
AcDbSpline
 70
8
 71
3
 72
8
 73
4
 74
0
 40
0
 40
0
 40
0
 40
0
 40
1
 40
1
 40
1
 40
1
 10
399.736649
 20
455.747879
 30
0.0
 10
399.736649
 20
456.152377
 30
0.0
 10
399.409920
 20
456.479089
 30
0.0
 10
399.005439
 20
456.479089
 30
0.0
  0
SPLINE
  5
1bb
100
AcDbEntity
  8
0
 62
1
100
AcDbSpline
 70
8
 71
3
 72
8
 73
4
 74
0
 40
0
 40
0
 40
0
 40
0
 40
1
 40
1
 40
1
 40
1
 10
399.005439
 20
456.479089
 30
0.0
 10
398.608691
 20
456.479089
 30
0.0
 10
398.281991
 20
456.152377
 30
0.0
 10
398.281991
 20
455.747879
 30
0.0
  0
LWPOLYLINE
  5
1bc
100
AcDbEntity
  8
0
 62
1
100
AcDbPolyline
 90
4
 70
0
 10
400.903468
 20
455.747879
 30
0.0
 10
400.903468
 20
454.651062
 30
0.0
 10
399.736649
 20
454.651062
 30
0.0
 10
399.736649
 20
455.747879
 30
0.0
  0
SPLINE
  5
1bd
100
AcDbEntity
  8
0
 62
1
100
AcDbSpline
 70
8
 71
3
 72
8
 73
4
 74
0
 40
0
 40
0
 40
0
 40
0
 40
1
 40
1
 40
1
 40
1
 10
398.281991
 20
452.441869
 30
0.0
 10
398.281991
 20
451.321715
 30
0.0
 10
399.192129
 20
450.403809
 30
0.0
 10
400.320058
 20
450.403809
 30
0.0
  0
LWPOLYLINE
  5
1be
100
AcDbEntity
  8
0
 62
1
100
AcDbPolyline
 90
2
 70
0
 10
398.281991
 20
455.747879
 30
0.0
 10
398.281991
 20
452.441869
 30
0.0
  0
SPLINE
  5
1bf
100
AcDbEntity
  8
0
 62
1
100
AcDbSpline
 70
8
 71
3
 72
8
 73
4
 74
0
 40
0
 40
0
 40
0
 40
0
 40
1
 40
1
 40
1
 40
1
 10
400.903468
 20
452.441869
 30
0.0
 10
400.903468
 20
452.122935
 30
0.0
 10
400.638970
 20
451.858456
 30
0.0
 10
400.320058
 20
451.858456
 30
0.0
  0
SPLINE
  5
1c0
100
AcDbEntity
  8
0
 62
1
100
AcDbSpline
 70
8
 71
3
 72
8
 73
4
 74
0
 40
0
 40
0
 40
0
 40
0
 40
1
 40
1
 40
1
 40
1
 10
400.320058
 20
451.858456
 30
0.0
 10
399.993330
 20
451.858456
 30
0.0
 10
399.736649
 20
452.122935
 30
0.0
 10
399.736649
 20
452.441869
 30
0.0
  0
LWPOLYLINE
  5
1c1
100
AcDbEntity
  8
0
 62
1
100
AcDbPolyline
 90
2
 70
0
 10
400.903468
 20
453.196415
 30
0.0
 10
400.903468
 20
452.441869
 30
0.0
  0
LWPOLYLINE
  5
1c2
100
AcDbEntity
  8
0
 62
1
100
AcDbPolyline
 90
3
 70
0
 10
399.736649
 20
452.441869
 30
0.0
 10
399.736649
 20
453.196415
 30
0.0
 10
400.903468
 20
453.196415
 30
0.0
  0
SPLINE
  5
1c3
100
AcDbEntity
  8
0
 62
1
100
AcDbSpline
 70
8
 71
3
 72
8
 73
4
 74
0
 40
0
 40
0
 40
0
 40
0
 40
1
 40
1
 40
1
 40
1
 10
403.315283
 20
451.166137
 30
0.0
 10
403.361934
 20
450.831647
 30
0.0
 10
403.626433
 20
450.574946
 30
0.0
 10
403.960923
 20
450.536050
 30
0.0
  0
SPLINE
  5
1c4
100
AcDbEntity
  8
0
 62
1
100
AcDbSpline
 70
8
 71
3
 72
8
 73
4
 74
0
 40
0
 40
0
 40
0
 40
0
 40
1
 40
1
 40
1
 40
1
 10
403.960923
 20
450.536050
 30
0.0
 10
404.287623
 20
450.504935
 30
0.0
 10
404.606562
 20
450.699406
 30
0.0
 10
404.715472
 20
451.010562
 30
0.0
  0
LWPOLYLINE
  5
1c5
100
AcDbEntity
  8
0
 62
1
100
AcDbPolyline
 90
2
 70
0
 10
402.700744
 20
455.646753
 30
0.0
 10
403.315283
 20
451.166137
 30
0.0
  0
SPLINE
  5
1c6
100
AcDbEntity
  8
0
 62
1
100
AcDbSpline
 70
8
 71
3
 72
8
 73
4
 74
0
 40
0
 40
0
 40
0
 40
0
 40
1
 40
1
 40
1
 40
1
 10
406.247882
 20
451.010562
 30
0.0
 10
406.364581
 20
450.699406
 30
0.0
 10
406.675731
 20
450.504935
 30
0.0
 10
407.010221
 20
450.536050
 30
0.0
  0
SPLINE
  5
1c7
100
AcDbEntity
  8
0
 62
1
100
AcDbSpline
 70
8
 71
3
 72
8
 73
4
 74
0
 40
0
 40
0
 40
0
 40
0
 40
1
 40
1
 40
1
 40
1
 10
407.010221
 20
450.536050
 30
0.0
 10
407.336921
 20
450.574946
 30
0.0
 10
407.601420
 20
450.831647
 30
0.0
 10
407.648100
 20
451.166137
 30
0.0
  0
LWPOLYLINE
  5
1c8
100
AcDbEntity
  8
0
 62
1
100
AcDbPolyline
 90
3
 70
0
 10
404.715472
 20
451.010562
 30
0.0
 10
405.485572
 20
453.087511
 30
0.0
 10
406.247882
 20
451.010562
 30
0.0
  0
SPLINE
  5
1c9
100
AcDbEntity
  8
0
 62
1
100
AcDbSpline
 70
8
 71
3
 72
8
 73
4
 74
0
 40
0
 40
0
 40
0
 40
0
 40
1
 40
1
 40
1
 40
1
 10
408.270400
 20
455.646753
 30
0.0
 10
408.324840
 20
456.043473
 30
0.0
 10
408.044819
 20
456.409081
 30
0.0
 10
407.648100
 20
456.463533
 30
0.0
  0
SPLINE
  5
1ca
100
AcDbEntity
  8
0
 62
1
100
AcDbSpline
 70
8
 71
3
 72
8
 73
4
 74
0
 40
0
 40
0
 40
0
 40
0
 40
1
 40
1
 40
1
 40
1
 10
407.648100
 20
456.463533
 30
0.0
 10
407.251380
 20
456.517985
 30
0.0
 10
406.877972
 20
456.237944
 30
0.0
 10
406.823531
 20
455.841224
 30
0.0
  0
LWPOLYLINE
  5
1cb
100
AcDbEntity
  8
0
 62
1
100
AcDbPolyline
 90
2
 70
0
 10
407.648100
 20
451.166137
 30
0.0
 10
408.270400
 20
455.646753
 30
0.0
  0
SPLINE
  5
1cc
100
AcDbEntity
  8
0
 62
1
100
AcDbSpline
 70
8
 71
3
 72
8
 73
4
 74
0
 40
0
 40
0
 40
0
 40
0
 40
1
 40
1
 40
1
 40
1
 10
406.162341
 20
455.452282
 30
0.0
 10
406.061192
 20
455.740098
 30
0.0
 10
405.788932
 20
455.926791
 30
0.0
 10
405.485572
 20
455.926791
 30
0.0
  0
SPLINE
  5
1cd
100
AcDbEntity
  8
0
 62
1
100
AcDbSpline
 70
8
 71
3
 72
8
 73
4
 74
0
 40
0
 40
0
 40
0
 40
0
 40
1
 40
1
 40
1
 40
1
 10
405.485572
 20
455.926791
 30
0.0
 10
405.174422
 20
455.926791
 30
0.0
 10
404.902162
 20
455.740098
 30
0.0
 10
404.801042
 20
455.452282
 30
0.0
  0
LWPOLYLINE
  5
1ce
100
AcDbEntity
  8
0
 62
1
100
AcDbPolyline
 90
3
 70
0
 10
406.823531
 20
455.841224
 30
0.0
 10
406.605712
 20
454.254339
 30
0.0
 10
406.162341
 20
455.452282
 30
0.0
  0
SPLINE
  5
1cf
100
AcDbEntity
  8
0
 62
1
100
AcDbSpline
 70
8
 71
3
 72
8
 73
4
 74
0
 40
0
 40
0
 40
0
 40
0
 40
1
 40
1
 40
1
 40
1
 10
404.139823
 20
455.841224
 30
0.0
 10
404.085383
 20
456.237944
 30
0.0
 10
403.719764
 20
456.517985
 30
0.0
 10
403.315283
 20
456.463533
 30
0.0
  0
SPLINE
  5
1d0
100
AcDbEntity
  8
0
 62
1
100
AcDbSpline
 70
8
 71
3
 72
8
 73
4
 74
0
 40
0
 40
0
 40
0
 40
0
 40
1
 40
1
 40
1
 40
1
 10
403.315283
 20
456.463533
 30
0.0
 10
402.918563
 20
456.409081
 30
0.0
 10
402.638514
 20
456.043473
 30
0.0
 10
402.700744
 20
455.646753
 30
0.0
  0
LWPOLYLINE
  5
1d1
100
AcDbEntity
  8
0
 62
1
100
AcDbPolyline
 90
3
 70
0
 10
404.801042
 20
455.452282
 30
0.0
 10
404.357642
 20
454.254339
 30
0.0
 10
404.139823
 20
455.841224
 30
0.0
  0
SPLINE
  5
1d2
100
AcDbEntity
  8
0
 62
1
100
AcDbSpline
 70
8
 71
3
 72
8
 73
4
 74
0
 40
0
 40
0
 40
0
 40
0
 40
1
 40
1
 40
1
 40
1
 10
409.071741
 20
453.989858
 30
0.0
 10
408.675022
 20
453.989858
 30
0.0
 10
408.348293
 20
453.663146
 30
0.0
 10
408.348293
 20
453.258648
 30
0.0
  0
SPLINE
  5
1d3
100
AcDbEntity
  8
0
 62
1
100
AcDbSpline
 70
8
 71
3
 72
8
 73
4
 74
0
 40
0
 40
0
 40
0
 40
0
 40
1
 40
1
 40
1
 40
1
 10
408.348293
 20
453.258648
 30
0.0
 10
408.348293
 20
452.861926
 30
0.0
 10
408.675022
 20
452.535214
 30
0.0
 10
409.071741
 20
452.535214
 30
0.0
  0
LWPOLYLINE
  5
1d4
100
AcDbEntity
  8
0
 62
1
100
AcDbPolyline
 90
3
 70
0
 10
410.751980
 20
453.989858
 30
0.0
 10
409.071741
 20
453.989858
 30
0.0
 10
409.071741
 20
453.989858
 30
0.0
  0
SPLINE
  5
1d5
100
AcDbEntity
  8
0
 62
1
100
AcDbSpline
 70
8
 71
3
 72
8
 73
4
 74
0
 40
0
 40
0
 40
0
 40
0
 40
1
 40
1
 40
1
 40
1
 10
410.751980
 20
452.535214
 30
0.0
 10
411.148699
 20
452.535214
 30
0.0
 10
411.475400
 20
452.861926
 30
0.0
 10
411.475400
 20
453.258648
 30
0.0
  0
SPLINE
  5
1d6
100
AcDbEntity
  8
0
 62
1
100
AcDbSpline
 70
8
 71
3
 72
8
 73
4
 74
0
 40
0
 40
0
 40
0
 40
0
 40
1
 40
1
 40
1
 40
1
 10
411.475400
 20
453.258648
 30
0.0
 10
411.475400
 20
453.663146
 30
0.0
 10
411.148699
 20
453.989858
 30
0.0
 10
410.751980
 20
453.989858
 30
0.0
  0
SPLINE
  5
1d7
100
AcDbEntity
  8
0
 62
1
100
AcDbSpline
 70
8
 71
3
 72
8
 73
4
 74
0
 40
0
 40
0
 40
0
 40
0
 40
1
 40
1
 40
1
 40
1
 10
412.327175
 20
453.188637
 30
0.0
 10
412.140485
 20
452.900821
 30
0.0
 10
412.023814
 20
452.558551
 30
0.0
 10
412.023814
 20
452.192946
 30
0.0
  0
SPLINE
  5
1d8
100
AcDbEntity
  8
0
 62
1
100
AcDbSpline
 70
8
 71
3
 72
8
 73
4
 74
0
 40
0
 40
0
 40
0
 40
0
 40
1
 40
1
 40
1
 40
1
 10
412.023814
 20
452.192946
 30
0.0
 10
412.023814
 20
451.205033
 30
0.0
 10
412.832804
 20
450.396031
 30
0.0
 10
413.828512
 20
450.396031
 30
0.0
  0
SPLINE
  5
1d9
100
AcDbEntity
  8
0
 62
1
100
AcDbSpline
 70
8
 71
3
 72
8
 73
4
 74
0
 40
0
 40
0
 40
0
 40
0
 40
1
 40
1
 40
1
 40
1
 10
413.828512
 20
450.396031
 30
0.0
 10
414.816403
 20
450.396031
 30
0.0
 10
415.625421
 20
451.205033
 30
0.0
 10
415.625421
 20
452.192946
 30
0.0
  0
SPLINE
  5
1da
100
AcDbEntity
  8
0
 62
1
100
AcDbSpline
 70
8
 71
3
 72
8
 73
4
 74
0
 40
0
 40
0
 40
0
 40
0
 40
1
 40
1
 40
1
 40
1
 10
415.625421
 20
452.192946
 30
0.0
 10
415.625421
 20
452.216286
 30
0.0
 10
415.625421
 20
452.239620
 30
0.0
 10
415.617519
 20
452.262954
 30
0.0
  0
SPLINE
  5
1db
100
AcDbEntity
  8
0
 62
1
100
AcDbSpline
 70
8
 71
3
 72
8
 73
4
 74
0
 40
0
 40
0
 40
0
 40
0
 40
1
 40
1
 40
1
 40
1
 10
415.617519
 20
452.262954
 30
0.0
 10
415.601997
 20
452.667455
 30
0.0
 10
415.267479
 20
452.978607
 30
0.0
 10
414.862970
 20
452.963051
 30
0.0
  0
SPLINE
  5
1dc
100
AcDbEntity
  8
0
 62
1
100
AcDbSpline
 70
8
 71
3
 72
8
 73
4
 74
0
 40
0
 40
0
 40
0
 40
0
 40
1
 40
1
 40
1
 40
1
 10
414.862970
 20
452.963051
 30
0.0
 10
414.466250
 20
452.947501
 30
0.0
 10
414.147310
 20
452.605225
 30
0.0
 10
414.162889
 20
452.208502
 30
0.0
  0
SPLINE
  5
1dd
100
AcDbEntity
  8
0
 62
1
100
AcDbSpline
 70
8
 71
3
 72
8
 73
4
 74
0
 40
0
 40
0
 40
0
 40
0
 40
1
 40
1
 40
1
 40
1
 10
414.162889
 20
452.208502
 30
0.0
 10
414.162889
 20
452.208502
 30
0.0
 10
414.162889
 20
452.200713
 30
0.0
 10
414.162889
 20
452.192952
 30
0.0
  0
SPLINE
  5
1de
100
AcDbEntity
  8
0
 62
1
100
AcDbSpline
 70
8
 71
3
 72
8
 73
4
 74
0
 40
0
 40
0
 40
0
 40
0
 40
1
 40
1
 40
1
 40
1
 10
414.162889
 20
452.192952
 30
0.0
 10
414.162889
 20
452.006259
 30
0.0
 10
414.015089
 20
451.850681
 30
0.0
 10
413.828399
 20
451.850681
 30
0.0
  0
SPLINE
  5
1df
100
AcDbEntity
  8
0
 62
1
100
AcDbSpline
 70
8
 71
3
 72
8
 73
4
 74
0
 40
0
 40
0
 40
0
 40
0
 40
1
 40
1
 40
1
 40
1
 10
413.828399
 20
451.850681
 30
0.0
 10
413.633920
 20
451.850681
 30
0.0
 10
413.486120
 20
452.006259
 30
0.0
 10
413.486120
 20
452.192952
 30
0.0
  0
SPLINE
  5
1e0
100
AcDbEntity
  8
0
 62
1
100
AcDbSpline
 70
8
 71
3
 72
8
 73
4
 74
0
 40
0
 40
0
 40
0
 40
0
 40
1
 40
1
 40
1
 40
1
 10
413.486120
 20
452.192952
 30
0.0
 10
413.486120
 20
452.379644
 30
0.0
 10
413.633920
 20
452.535219
 30
0.0
 10
413.820610
 20
452.535219
 30
0.0
  0
SPLINE
  5
1e1
100
AcDbEntity
  8
0
 62
1
100
AcDbSpline
 70
8
 71
3
 72
8
 73
4
 74
0
 40
0
 40
0
 40
0
 40
0
 40
1
 40
1
 40
1
 40
1
 10
413.820610
 20
452.535219
 30
0.0
 10
414.225119
 20
452.535219
 30
0.0
 10
414.551820
 20
452.861931
 30
0.0
 10
414.551820
 20
453.266432
 30
0.0
  0
SPLINE
  5
1e2
100
AcDbEntity
  8
0
 62
1
100
AcDbSpline
 70
8
 71
3
 72
8
 73
4
 74
0
 40
0
 40
0
 40
0
 40
0
 40
1
 40
1
 40
1
 40
1
 10
414.551820
 20
453.266432
 30
0.0
 10
414.551820
 20
453.663152
 30
0.0
 10
414.225119
 20
453.989863
 30
0.0
 10
413.820610
 20
453.989863
 30
0.0
  0
SPLINE
  5
1e3
100
AcDbEntity
  8
0
 62
1
100
AcDbSpline
 70
8
 71
3
 72
8
 73
4
 74
0
 40
0
 40
0
 40
0
 40
0
 40
1
 40
1
 40
1
 40
1
 10
413.820610
 20
453.989863
 30
0.0
 10
413.501671
 20
453.989863
 30
0.0
 10
413.237200
 20
454.254345
 30
0.0
 10
413.237200
 20
454.573279
 30
0.0
  0
SPLINE
  5
1e4
100
AcDbEntity
  8
0
 62
1
100
AcDbSpline
 70
8
 71
3
 72
8
 73
4
 74
0
 40
0
 40
0
 40
0
 40
0
 40
1
 40
1
 40
1
 40
1
 10
413.237200
 20
454.573279
 30
0.0
 10
413.237200
 20
454.892210
 30
0.0
 10
413.493910
 20
455.148913
 30
0.0
 10
413.812821
 20
455.148913
 30
0.0
  0
SPLINE
  5
1e5
100
AcDbEntity
  8
0
 62
1
100
AcDbSpline
 70
8
 71
3
 72
8
 73
4
 74
0
 40
0
 40
0
 40
0
 40
0
 40
1
 40
1
 40
1
 40
1
 10
413.812821
 20
455.148913
 30
0.0
 10
414.131760
 20
455.148913
 30
0.0
 10
414.396259
 20
454.892210
 30
0.0
 10
414.396259
 20
454.573279
 30
0.0
  0
SPLINE
  5
1e6
100
AcDbEntity
  8
0
 62
1
100
AcDbSpline
 70
8
 71
3
 72
8
 73
4
 74
0
 40
0
 40
0
 40
0
 40
0
 40
1
 40
1
 40
1
 40
1
 10
414.396259
 20
454.573279
 30
0.0
 10
414.396259
 20
454.168778
 30
0.0
 10
414.715170
 20
453.849844
 30
0.0
 10
415.119679
 20
453.849844
 30
0.0
  0
SPLINE
  5
1e7
100
AcDbEntity
  8
0
 62
1
100
AcDbSpline
 70
8
 71
3
 72
8
 73
4
 74
0
 40
0
 40
0
 40
0
 40
0
 40
1
 40
1
 40
1
 40
1
 10
415.119679
 20
453.849844
 30
0.0
 10
415.524188
 20
453.849844
 30
0.0
 10
415.850888
 20
454.168778
 30
0.0
 10
415.850888
 20
454.573279
 30
0.0
  0
SPLINE
  5
1e8
100
AcDbEntity
  8
0
 62
1
100
AcDbSpline
 70
8
 71
3
 72
8
 73
4
 74
0
 40
0
 40
0
 40
0
 40
0
 40
1
 40
1
 40
1
 40
1
 10
415.850888
 20
454.573279
 30
0.0
 10
415.850888
 20
455.693430
 30
0.0
 10
414.932989
 20
456.611335
 30
0.0
 10
413.812821
 20
456.611335
 30
0.0
  0
SPLINE
  5
1e9
100
AcDbEntity
  8
0
 62
1
100
AcDbSpline
 70
8
 71
3
 72
8
 73
4
 74
0
 40
0
 40
0
 40
0
 40
0
 40
1
 40
1
 40
1
 40
1
 10
413.812821
 20
456.611335
 30
0.0
 10
412.692681
 20
456.611335
 30
0.0
 10
411.782542
 20
455.693430
 30
0.0
 10
411.782542
 20
454.573279
 30
0.0
  0
SPLINE
  5
1ea
100
AcDbEntity
  8
0
 62
1
100
AcDbSpline
 70
8
 71
3
 72
8
 73
4
 74
0
 40
0
 40
0
 40
0
 40
0
 40
1
 40
1
 40
1
 40
1
 10
411.782542
 20
454.573279
 30
0.0
 10
411.782542
 20
454.036537
 30
0.0
 10
411.984811
 20
453.554248
 30
0.0
 10
412.327062
 20
453.188643
 30
0.0
  0
SPLINE
  5
1eb
100
AcDbEntity
  8
0
 62
1
100
AcDbSpline
 70
8
 71
3
 72
8
 73
4
 74
0
 40
0
 40
0
 40
0
 40
0
 40
1
 40
1
 40
1
 40
1
 10
416.686972
 20
450.551609
 30
0.0
 10
416.959232
 20
450.434927
 30
0.0
 10
417.278171
 20
450.497157
 30
0.0
 10
417.480440
 20
450.707187
 30
0.0
  0
LWPOLYLINE
  5
1ec
100
AcDbEntity
  8
0
 62
1
100
AcDbPolyline
 90
4
 70
0
 10
409.071741
 20
452.535214
 30
0.0
 10
409.071741
 20
452.535214
 30
0.0
 10
410.751980
 20
452.535214
 30
0.0
 10
410.751980
 20
452.535214
 30
0.0
  0
SPLINE
  5
1ed
100
AcDbEntity
  8
0
 62
1
100
AcDbSpline
 70
8
 71
3
 72
8
 73
4
 74
0
 40
0
 40
0
 40
0
 40
0
 40
1
 40
1
 40
1
 40
1
 10
418.553900
 20
451.780667
 30
0.0
 10
418.841738
 20
452.060705
 30
0.0
 10
418.841738
 20
452.527436
 30
0.0
 10
418.553900
 20
452.807474
 30
0.0
  0
SPLINE
  5
1ee
100
AcDbEntity
  8
0
 62
1
100
AcDbSpline
 70
8
 71
3
 72
8
 73
4
 74
0
 40
0
 40
0
 40
0
 40
0
 40
1
 40
1
 40
1
 40
1
 10
418.553900
 20
452.807474
 30
0.0
 10
418.320530
 20
453.040840
 30
0.0
 10
417.970490
 20
453.087511
 30
0.0
 10
417.698230
 20
452.931936
 30
0.0
  0
LWPOLYLINE
  5
1ef
100
AcDbEntity
  8
0
 62
1
100
AcDbPolyline
 90
2
 70
0
 10
417.480440
 20
450.707187
 30
0.0
 10
418.553900
 20
451.780667
 30
0.0
  0
SPLINE
  5
1f0
100
AcDbEntity
  8
0
 62
1
100
AcDbSpline
 70
8
 71
3
 72
8
 73
4
 74
0
 40
0
 40
0
 40
0
 40
0
 40
1
 40
1
 40
1
 40
1
 10
417.698230
 20
455.786772
 30
0.0
 10
417.698230
 20
456.191273
 30
0.0
 10
417.371530
 20
456.517985
 30
0.0
 10
416.967021
 20
456.517985
 30
0.0
  0
SPLINE
  5
1f1
100
AcDbEntity
  8
0
 62
1
100
AcDbSpline
 70
8
 71
3
 72
8
 73
4
 74
0
 40
0
 40
0
 40
0
 40
0
 40
1
 40
1
 40
1
 40
1
 10
416.967021
 20
456.517985
 30
0.0
 10
416.570301
 20
456.517985
 30
0.0
 10
416.243601
 20
456.191273
 30
0.0
 10
416.243601
 20
455.786772
 30
0.0
  0
LWPOLYLINE
  5
1f2
100
AcDbEntity
  8
0
 62
1
100
AcDbPolyline
 90
2
 70
0
 10
417.698230
 20
452.931936
 30
0.0
 10
417.698230
 20
455.786772
 30
0.0
  0
SPLINE
  5
1f3
100
AcDbEntity
  8
0
 62
1
100
AcDbSpline
 70
8
 71
3
 72
8
 73
4
 74
0
 40
0
 40
0
 40
0
 40
0
 40
1
 40
1
 40
1
 40
1
 10
416.243601
 20
451.220589
 30
0.0
 10
416.243601
 20
450.924995
 30
0.0
 10
416.422501
 20
450.660513
 30
0.0
 10
416.686972
 20
450.551609
 30
0.0
  0
SPLINE
  5
1f4
100
AcDbEntity
  8
0
 62
1
100
AcDbSpline
 70
8
 71
3
 72
8
 73
4
 74
0
 40
0
 40
0
 40
0
 40
0
 40
1
 40
1
 40
1
 40
1
 10
420.415127
 20
454.573273
 30
0.0
 10
420.415127
 20
454.892204
 30
0.0
 10
420.671808
 20
455.156686
 30
0.0
 10
420.998537
 20
455.156686
 30
0.0
  0
SPLINE
  5
1f5
100
AcDbEntity
  8
0
 62
1
100
AcDbSpline
 70
8
 71
3
 72
8
 73
4
 74
0
 40
0
 40
0
 40
0
 40
0
 40
1
 40
1
 40
1
 40
1
 10
420.998537
 20
455.156686
 30
0.0
 10
421.317476
 20
455.156686
 30
0.0
 10
421.581947
 20
454.892204
 30
0.0
 10
421.581947
 20
454.573273
 30
0.0
  0
LWPOLYLINE
  5
1f6
100
AcDbEntity
  8
0
 62
1
100
AcDbPolyline
 90
2
 70
0
 10
416.243601
 20
455.786772
 30
0.0
 10
416.243601
 20
451.220589
 30
0.0
  0
SPLINE
  5
1f7
100
AcDbEntity
  8
0
 62
1
100
AcDbSpline
 70
8
 71
3
 72
8
 73
4
 74
0
 40
0
 40
0
 40
0
 40
0
 40
1
 40
1
 40
1
 40
1
 10
421.581947
 20
452.441869
 30
0.0
 10
421.581947
 20
452.115157
 30
0.0
 10
421.317476
 20
451.858456
 30
0.0
 10
420.998537
 20
451.858456
 30
0.0
  0
SPLINE
  5
1f8
100
AcDbEntity
  8
0
 62
1
100
AcDbSpline
 70
8
 71
3
 72
8
 73
4
 74
0
 40
0
 40
0
 40
0
 40
0
 40
1
 40
1
 40
1
 40
1
 10
420.998537
 20
451.858456
 30
0.0
 10
420.671808
 20
451.858456
 30
0.0
 10
420.415127
 20
452.115157
 30
0.0
 10
420.415127
 20
452.441869
 30
0.0
  0
LWPOLYLINE
  5
1f9
100
AcDbEntity
  8
0
 62
1
100
AcDbPolyline
 90
2
 70
0
 10
421.581947
 20
454.573273
 30
0.0
 10
421.581947
 20
452.441869
 30
0.0
  0
SPLINE
  5
1fa
100
AcDbEntity
  8
0
 62
1
100
AcDbSpline
 70
8
 71
3
 72
8
 73
4
 74
0
 40
0
 40
0
 40
0
 40
0
 40
1
 40
1
 40
1
 40
1
 10
418.960469
 20
452.441869
 30
0.0
 10
418.960469
 20
451.313937
 30
0.0
 10
419.870608
 20
450.403809
 30
0.0
 10
420.998537
 20
450.403809
 30
0.0
  0
SPLINE
  5
1fb
100
AcDbEntity
  8
0
 62
1
100
AcDbSpline
 70
8
 71
3
 72
8
 73
4
 74
0
 40
0
 40
0
 40
0
 40
0
 40
1
 40
1
 40
1
 40
1
 10
420.998537
 20
450.403809
 30
0.0
 10
422.118677
 20
450.403809
 30
0.0
 10
423.036577
 20
451.313937
 30
0.0
 10
423.036577
 20
452.441869
 30
0.0
  0
LWPOLYLINE
  5
1fc
100
AcDbEntity
  8
0
 62
1
100
AcDbPolyline
 90
2
 70
0
 10
420.415127
 20
452.441869
 30
0.0
 10
420.415127
 20
454.573273
 30
0.0
  0
SPLINE
  5
1fd
100
AcDbEntity
  8
0
 62
1
100
AcDbSpline
 70
8
 71
3
 72
8
 73
4
 74
0
 40
0
 40
0
 40
0
 40
0
 40
1
 40
1
 40
1
 40
1
 10
423.036577
 20
454.573273
 30
0.0
 10
423.036577
 20
455.693424
 30
0.0
 10
422.118677
 20
456.611330
 30
0.0
 10
420.998537
 20
456.611330
 30
0.0
  0
SPLINE
  5
1fe
100
AcDbEntity
  8
0
 62
1
100
AcDbSpline
 70
8
 71
3
 72
8
 73
4
 74
0
 40
0
 40
0
 40
0
 40
0
 40
1
 40
1
 40
1
 40
1
 10
420.998537
 20
456.611330
 30
0.0
 10
419.870608
 20
456.611330
 30
0.0
 10
418.960469
 20
455.693424
 30
0.0
 10
418.960469
 20
454.573273
 30
0.0
  0
LWPOLYLINE
  5
1ff
100
AcDbEntity
  8
0
 62
1
100
AcDbPolyline
 90
2
 70
0
 10
423.036577
 20
452.441869
 30
0.0
 10
423.036577
 20
454.573273
 30
0.0
  0
LWPOLYLINE
  5
200
100
AcDbEntity
  8
0
 62
1
100
AcDbPolyline
 90
2
 70
0
 10
418.960469
 20
454.573273
 30
0.0
 10
418.960469
 20
452.441869
 30
0.0
  0
SPLINE
  5
201
100
AcDbEntity
  8
0
 62
1
100
AcDbSpline
 70
8
 71
3
 72
8
 73
4
 74
0
 40
0
 40
0
 40
0
 40
0
 40
1
 40
1
 40
1
 40
1
 10
425.622579
 20
454.503262
 30
0.0
 10
425.622579
 20
454.223224
 30
0.0
 10
425.389209
 20
453.989858
 30
0.0
 10
425.109160
 20
453.989858
 30
0.0
  0
SPLINE
  5
202
100
AcDbEntity
  8
0
 62
1
100
AcDbSpline
 70
8
 71
3
 72
8
 73
4
 74
0
 40
0
 40
0
 40
0
 40
0
 40
1
 40
1
 40
1
 40
1
 10
425.109160
 20
453.989858
 30
0.0
 10
424.152370
 20
453.989858
 30
0.0
 10
423.382271
 20
453.219752
 30
0.0
 10
423.382271
 20
452.262954
 30
0.0
  0
SPLINE
  5
203
100
AcDbEntity
  8
0
 62
1
100
AcDbSpline
 70
8
 71
3
 72
8
 73
4
 74
0
 40
0
 40
0
 40
0
 40
0
 40
1
 40
1
 40
1
 40
1
 10
423.382271
 20
452.262954
 30
0.0
 10
423.382271
 20
451.313937
 30
0.0
 10
424.152370
 20
450.536050
 30
0.0
 10
425.109160
 20
450.536050
 30
0.0
  0
LWPOLYLINE
  5
204
100
AcDbEntity
  8
0
 62
1
100
AcDbPolyline
 90
3
 70
0
 10
424.183471
 20
455.016667
 30
0.0
 10
425.622579
 20
455.016667
 30
0.0
 10
425.622579
 20
454.503262
 30
0.0
  0
SPLINE
  5
205
100
AcDbEntity
  8
0
 62
1
100
AcDbSpline
 70
8
 71
3
 72
8
 73
4
 74
0
 40
0
 40
0
 40
0
 40
0
 40
1
 40
1
 40
1
 40
1
 10
426.050400
 20
450.536050
 30
0.0
 10
426.454909
 20
450.536050
 30
0.0
 10
426.781609
 20
450.862762
 30
0.0
 10
426.781609
 20
451.267263
 30
0.0
  0
SPLINE
  5
206
100
AcDbEntity
  8
0
 62
1
100
AcDbSpline
 70
8
 71
3
 72
8
 73
4
 74
0
 40
0
 40
0
 40
0
 40
0
 40
1
 40
1
 40
1
 40
1
 10
426.781609
 20
451.267263
 30
0.0
 10
426.781609
 20
451.671763
 30
0.0
 10
426.454909
 20
451.990694
 30
0.0
 10
426.050400
 20
451.990694
 30
0.0
  0
LWPOLYLINE
  5
207
100
AcDbEntity
  8
0
 62
1
100
AcDbPolyline
 90
2
 70
0
 10
425.109160
 20
450.536050
 30
0.0
 10
426.050400
 20
450.536050
 30
0.0
  0
SPLINE
  5
208
100
AcDbEntity
  8
0
 62
1
100
AcDbSpline
 70
8
 71
3
 72
8
 73
4
 74
0
 40
0
 40
0
 40
0
 40
0
 40
1
 40
1
 40
1
 40
1
 10
425.109160
 20
451.990694
 30
0.0
 10
424.961360
 20
451.990694
 30
0.0
 10
424.836900
 20
452.115157
 30
0.0
 10
424.836900
 20
452.262954
 30
0.0
  0
SPLINE
  5
209
100
AcDbEntity
  8
0
 62
1
100
AcDbSpline
 70
8
 71
3
 72
8
 73
4
 74
0
 40
0
 40
0
 40
0
 40
0
 40
1
 40
1
 40
1
 40
1
 10
424.836900
 20
452.262954
 30
0.0
 10
424.836900
 20
452.410754
 30
0.0
 10
424.961360
 20
452.535214
 30
0.0
 10
425.109160
 20
452.535214
 30
0.0
  0
SPLINE
  5
20a
100
AcDbEntity
  8
0
 62
1
100
AcDbSpline
 70
8
 71
3
 72
8
 73
4
 74
0
 40
0
 40
0
 40
0
 40
0
 40
1
 40
1
 40
1
 40
1
 10
425.109160
 20
452.535214
 30
0.0
 10
426.190410
 20
452.535214
 30
0.0
 10
427.077209
 20
453.422004
 30
0.0
 10
427.077209
 20
454.503262
 30
0.0
  0
LWPOLYLINE
  5
20b
100
AcDbEntity
  8
0
 62
1
100
AcDbPolyline
 90
2
 70
0
 10
426.050400
 20
451.990694
 30
0.0
 10
425.109160
 20
451.990694
 30
0.0
  0
SPLINE
  5
20c
100
AcDbEntity
  8
0
 62
1
100
AcDbSpline
 70
8
 71
3
 72
8
 73
4
 74
0
 40
0
 40
0
 40
0
 40
0
 40
1
 40
1
 40
1
 40
1
 10
427.077209
 20
455.747879
 30
0.0
 10
427.077209
 20
456.144599
 30
0.0
 10
426.750508
 20
456.471311
 30
0.0
 10
426.345999
 20
456.471311
 30
0.0
  0
LWPOLYLINE
  5
20d
100
AcDbEntity
  8
0
 62
1
100
AcDbPolyline
 90
2
 70
0
 10
427.077209
 20
454.503262
 30
0.0
 10
427.077209
 20
455.747879
 30
0.0
  0
SPLINE
  5
20e
100
AcDbEntity
  8
0
 62
1
100
AcDbSpline
 70
8
 71
3
 72
8
 73
4
 74
0
 40
0
 40
0
 40
0
 40
0
 40
1
 40
1
 40
1
 40
1
 10
424.183471
 20
456.471311
 30
0.0
 10
423.778990
 20
456.471311
 30
0.0
 10
423.452262
 20
456.144599
 30
0.0
 10
423.452262
 20
455.747879
 30
0.0
  0
SPLINE
  5
20f
100
AcDbEntity
  8
0
 62
1
100
AcDbSpline
 70
8
 71
3
 72
8
 73
4
 74
0
 40
0
 40
0
 40
0
 40
0
 40
1
 40
1
 40
1
 40
1
 10
423.452262
 20
455.747879
 30
0.0
 10
423.452262
 20
455.343379
 30
0.0
 10
423.778990
 20
455.016667
 30
0.0
 10
424.183471
 20
455.016667
 30
0.0
  0
LWPOLYLINE
  5
210
100
AcDbEntity
  8
0
 62
1
100
AcDbPolyline
 90
2
 70
0
 10
426.345999
 20
456.471311
 30
0.0
 10
424.183471
 20
456.471311
 30
0.0
  0
ENDSEC
  0
SECTION
  2
OBJECTS
  0
DICTIONARY
  5
C
330
0
100
AcDbDictionary
  3
ACAD_GROUP
350
D
  3
ACAD_MLINESTYLE
350
17
  0
DICTIONARY
  5
D
330
C
100
AcDbDictionary
  0
DICTIONARY
  5
1A
330
C
100
AcDbDictionary
  0
DICTIONARY
  5
17
330
C
100
AcDbDictionary
  3
STANDARD
350
18
  0
DICTIONARY
  5
19
330
C
100
AcDbDictionary
  0
ENDSEC
  0
EOF
