  0
SECTION
  2
HEADER
  9
$ACADVER
  1
AC1014
  9
$HANDSEED
  5
FFFF
  9
$MEASUREMENT
 70
     1
  0
ENDSEC
  0
SECTION
  2
TABLES
  0
TABLE
  2
VPORT
  5
8
330
0
100
AcDbSymbolTable
 70
     4
  0
VPORT
  5
2E
330
8
100
AcDbSymbolTableRecord
100
AcDbViewportTableRecord
  2
*ACTIVE
 70
     0
 10
0.0
 20
0.0
 11
1.0
 21
1.0
 12
210.0
 22
148.5
 13
0.0
 23
0.0
 14
10.0
 24
10.0
 15
10.0
 25
10.0
 16
0.0
 26
0.0
 36
1.0
 17
0.0
 27
0.0
 37
0.0
 40
341.0
 41
1.24
 42
50.0
 43
0.0
 44
0.0
 50
0.0
 51
0.0
 71
     0
 72
   100
 73
     1
 74
     3
 75
     0
 76
     0
 77
     0
 78
     0
  0
ENDTAB
  0
TABLE
  2
LTYPE
  5
5
330
0
100
AcDbSymbolTable
 70
     1
  0
LTYPE
  5
14
330
5
100
AcDbSymbolTableRecord
100
AcDbLinetypeTableRecord
  2
BYBLOCK
 70
     0
  3

 72
    65
 73
     0
 40
0.0
  0
LTYPE
  5
15
330
5
100
AcDbSymbolTableRecord
100
AcDbLinetypeTableRecord
  2
BYLAYER
 70
     0
  3

 72
    65
 73
     0
 40
0.0
  0
LTYPE
  5
16
330
5
100
AcDbSymbolTableRecord
100
AcDbLinetypeTableRecord
  2
CONTINUOUS
 70
     0
  3
Solid line
 72
    65
 73
     0
 40
0.0
  0
ENDTAB
  0
TABLE
  2
LAYER
  5
2
100
AcDbSymbolTable
 70
9
  0
LAYER
  5
50
100
AcDbSymbolTableRecord
100
AcDbLayerTableRecord
  2
0
 70
0
  6
CONTINUOUS
  0
LAYER
  5
51
100
AcDbSymbolTableRecord
100
AcDbLayerTableRecord
  2
slice5
 70
0
  6
CONTINUOUS
  0
LAYER
  5
52
100
AcDbSymbolTableRecord
100
AcDbLayerTableRecord
  2
slice4
 70
0
  6
CONTINUOUS
  0
LAYER
  5
53
100
AcDbSymbolTableRecord
100
AcDbLayerTableRecord
  2
slice3
 70
0
  6
CONTINUOUS
  0
LAYER
  5
54
100
AcDbSymbolTableRecord
100
AcDbLayerTableRecord
  2
slice2
 70
0
  6
CONTINUOUS
  0
LAYER
  5
55
100
AcDbSymbolTableRecord
100
AcDbLayerTableRecord
  2
slice1
 70
0
  6
CONTINUOUS
  0
LAYER
  5
56
100
AcDbSymbolTableRecord
100
AcDbLayerTableRecord
  2
handle
 70
0
  6
CONTINUOUS
  0
LAYER
  5
57
100
AcDbSymbolTableRecord
100
AcDbLayerTableRecord
  2
idler
 70
0
  6
CONTINUOUS
  0
LAYER
  5
58
100
AcDbSymbolTableRecord
100
AcDbLayerTableRecord
  2
idler2
 70
0
  6
CONTINUOUS
  0
ENDTAB
  0
TABLE
  2
STYLE
  5
3
330
0
100
AcDbSymbolTable
 70
     1
  0
STYLE
  5
11
330
3
100
AcDbSymbolTableRecord
100
AcDbTextStyleTableRecord
  2
STANDARD
 70
     0
 40
0.0
 41
1.0
 50
0.0
 71
     0
 42
2.5
  3
txt
  4

  0
ENDTAB
  0
TABLE
  2
VIEW
  5
6
330
0
100
AcDbSymbolTable
 70
     0
  0
ENDTAB
  0
TABLE
  2
UCS
  5
7
330
0
100
AcDbSymbolTable
 70
     0
  0
ENDTAB
  0
TABLE
  2
APPID
  5
9
330
0
100
AcDbSymbolTable
 70
     2
  0
APPID
  5
12
330
9
100
AcDbSymbolTableRecord
100
AcDbRegAppTableRecord
  2
ACAD
 70
     0
  0
ENDTAB
  0
TABLE
  2
DIMSTYLE
  5
A
330
0
100
AcDbSymbolTable
 70
     1
  0
DIMSTYLE
105
27
330
A
100
AcDbSymbolTableRecord
100
AcDbDimStyleTableRecord
  2
ISO-25
 70
     0
  3

  4

  5

  6

  7

 40
1.0
 41
2.5
 42
0.625
 43
3.75
 44
1.25
 45
0.0
 46
0.0
 47
0.0
 48
0.0
140
2.5
141
2.5
142
0.0
143
0.03937007874016
144
1.0
145
0.0
146
1.0
147
0.625
 71
     0
 72
     0
 73
     0
 74
     0
 75
     0
 76
     0
 77
     1
 78
     8
170
     0
171
     3
172
     1
173
     0
174
     0
175
     0
176
     0
177
     0
178
     0
270
     2
271
     2
272
     2
273
     2
274
     3
340
11
275
     0
280
     0
281
     0
282
     0
283
     0
284
     8
285
     0
286
     0
287
     3
288
     0
  0
ENDTAB
  0
TABLE
  2
BLOCK_RECORD
  5
1
330
0
100
AcDbSymbolTable
 70
     1
  0
BLOCK_RECORD
  5
1F
330
1
100
AcDbSymbolTableRecord
100
AcDbBlockTableRecord
  2
*MODEL_SPACE
  0
BLOCK_RECORD
  5
1B
330
1
100
AcDbSymbolTableRecord
100
AcDbBlockTableRecord
  2
*PAPER_SPACE
  0
ENDTAB
  0
ENDSEC
  0
SECTION
  2
BLOCKS
  0
BLOCK
  5
20
330
1F
100
AcDbEntity
  8
0
100
AcDbBlockBegin
  2
*MODEL_SPACE
 70
     0
 10
0.0
 20
0.0
 30
0.0
  3
*MODEL_SPACE
  1

  0
ENDBLK
  5
21
330
1F
100
AcDbEntity
  8
0
100
AcDbBlockEnd
  0
BLOCK
  5
1C
330
1B
100
AcDbEntity
 67
     1
  8
0
100
AcDbBlockBegin
  2
*PAPER_SPACE
  1

  0
ENDBLK
  5
1D
330
1B
100
AcDbEntity
 67
     1
  8
0
100
AcDbBlockEnd
  0
ENDSEC
  0
SECTION
  2
ENTITIES
  0
LWPOLYLINE
  5
100
100
AcDbEntity
  8
slice5
 62
7
100
AcDbPolyline
 90
116
 70
0
 10
29.853819
 20
67.592253
 30
0.0
 10
28.619097
 20
67.230656
 30
0.0
 10
27.622500
 20
66.313434
 30
0.0
 10
26.961042
 20
64.822948
 30
0.0
 10
26.714097
 20
62.706281
 30
0.0
 10
26.714097
 20
61.480378
 30
0.0
 10
26.714097
 20
60.254475
 30
0.0
 10
26.714097
 20
59.028573
 30
0.0
 10
26.714097
 20
57.802670
 30
0.0
 10
26.811111
 20
54.336628
 30
0.0
 10
27.481389
 20
51.823087
 30
0.0
 10
29.271736
 20
49.044962
 30
0.0
 10
32.755417
 20
44.811628
 30
0.0
 10
34.307639
 20
45.966975
 30
0.0
 10
36.062708
 20
46.840100
 30
0.0
 10
37.967708
 20
47.378087
 30
0.0
 10
40.005000
 20
47.572114
 30
0.0
 10
44.247153
 20
46.716628
 30
0.0
 10
47.713194
 20
44.379475
 30
0.0
 10
50.050347
 20
40.913434
 30
0.0
 10
50.905833
 20
36.671281
 30
0.0
 10
50.050347
 20
32.429128
 30
0.0
 10
47.713194
 20
28.963087
 30
0.0
 10
44.247153
 20
26.625934
 30
0.0
 10
40.005000
 20
25.770448
 30
0.0
 10
37.967708
 20
25.964475
 30
0.0
 10
36.062708
 20
26.502462
 30
0.0
 10
34.307639
 20
27.375587
 30
0.0
 10
32.755417
 20
28.530934
 30
0.0
 10
31.882292
 20
21.378364
 30
0.0
 10
29.492222
 20
15.539892
 30
0.0
 10
25.946806
 20
11.606420
 30
0.0
 10
21.607639
 20
10.168850
 30
0.0
 10
17.480139
 20
10.168850
 30
0.0
 10
13.343819
 20
10.168850
 30
0.0
 10
9.207500
 20
10.168850
 30
0.0
 10
5.080000
 20
10.168850
 30
0.0
 10
5.088819
 20
10.177670
 30
0.0
 10
5.097639
 20
10.186489
 30
0.0
 10
5.097639
 20
10.195309
 30
0.0
 10
5.106458
 20
10.204128
 30
0.0
 10
3.148542
 20
9.807253
 30
0.0
 10
1.543403
 20
8.731281
 30
0.0
 10
0.467431
 20
7.126142
 30
0.0
 10
0.070556
 20
5.168225
 30
0.0
 10
0.467431
 20
3.210309
 30
0.0
 10
1.543403
 20
1.605170
 30
0.0
 10
3.148542
 20
0.529198
 30
0.0
 10
5.106458
 20
0.132323
 30
0.0
 10
5.141736
 20
0.123503
 30
0.0
 10
5.177014
 20
0.114684
 30
0.0
 10
5.203472
 20
0.105864
 30
0.0
 10
5.238750
 20
0.097045
 30
0.0
 10
21.052014
 20
0.097045
 30
0.0
 10
36.865278
 20
0.097045
 30
0.0
 10
52.678542
 20
0.097045
 30
0.0
 10
68.491806
 20
0.097045
 30
0.0
 10
68.491806
 20
0.088225
 30
0.0
 10
68.491806
 20
0.079406
 30
0.0
 10
68.491806
 20
0.070587
 30
0.0
 10
69.894097
 20
0.220517
 30
0.0
 10
71.190556
 20
0.723225
 30
0.0
 10
72.345903
 20
1.640448
 30
0.0
 10
73.324861
 20
3.069198
 30
0.0
 10
75.970694
 20
7.037948
 30
0.0
 10
77.840417
 20
10.115934
 30
0.0
 10
78.907569
 20
12.514823
 30
0.0
 10
79.145694
 20
14.463920
 30
0.0
 10
78.528333
 20
16.192531
 30
0.0
 10
77.029028
 20
17.921142
 30
0.0
 10
74.638958
 20
19.879059
 30
0.0
 10
71.322847
 20
22.295587
 30
0.0
 10
68.094931
 20
25.523503
 30
0.0
 10
66.092917
 20
28.663225
 30
0.0
 10
65.061042
 20
32.111628
 30
0.0
 10
64.770000
 20
36.265587
 30
0.0
 10
66.216389
 20
42.747878
 30
0.0
 10
70.061667
 20
46.928295
 30
0.0
 10
75.529722
 20
49.168434
 30
0.0
 10
81.853264
 20
49.829892
 30
0.0
 10
81.879722
 20
49.829892
 30
0.0
 10
81.906181
 20
49.829892
 30
0.0
 10
81.923819
 20
49.829892
 30
0.0
 10
81.950278
 20
49.829892
 30
0.0
 10
83.811181
 20
49.865170
 30
0.0
 10
85.672083
 20
49.891628
 30
0.0
 10
87.524167
 20
49.918087
 30
0.0
 10
89.385069
 20
49.953364
 30
0.0
 10
91.731042
 20
50.191489
 30
0.0
 10
93.653681
 20
50.967600
 30
0.0
 10
94.941319
 20
52.369892
 30
0.0
 10
95.417569
 20
54.477739
 30
0.0
 10
94.941319
 20
56.823712
 30
0.0
 10
93.653681
 20
58.746350
 30
0.0
 10
91.731042
 20
60.033989
 30
0.0
 10
89.437986
 20
60.501420
 30
0.0
 10
76.570417
 20
59.839962
 30
0.0
 10
63.649931
 20
59.178503
 30
0.0
 10
50.729444
 20
58.525864
 30
0.0
 10
37.817778
 20
57.864406
 30
0.0
 10
37.870694
 20
59.055031
 30
0.0
 10
37.923611
 20
60.236837
 30
0.0
 10
37.967708
 20
61.427462
 30
0.0
 10
38.020625
 20
62.618087
 30
0.0
 10
37.756042
 20
64.814128
 30
0.0
 10
37.032847
 20
66.339892
 30
0.0
 10
35.948056
 20
67.221837
 30
0.0
 10
34.633958
 20
67.512878
 30
0.0
 10
33.452153
 20
67.530517
 30
0.0
 10
32.270347
 20
67.548156
 30
0.0
 10
31.088542
 20
67.574614
 30
0.0
 10
29.906736
 20
67.592253
 30
0.0
 10
29.897917
 20
67.592253
 30
0.0
 10
29.880278
 20
67.592253
 30
0.0
 10
29.871458
 20
67.592253
 30
0.0
 10
29.853819
 20
67.592253
 30
0.0
  0
LWPOLYLINE
  5
101
100
AcDbEntity
  8
slice5
 62
7
100
AcDbPolyline
 90
25
 70
0
 10
85.530972
 20
57.996698
 30
0.0
 10
86.324722
 20
57.996698
 30
0.0
 10
87.127292
 20
57.996698
 30
0.0
 10
87.929861
 20
57.996698
 30
0.0
 10
88.723611
 20
57.996698
 30
0.0
 10
90.002431
 20
57.758573
 30
0.0
 10
91.043125
 20
57.114753
 30
0.0
 10
91.748681
 20
56.153434
 30
0.0
 10
92.004444
 20
54.980448
 30
0.0
 10
91.748681
 20
53.807462
 30
0.0
 10
91.043125
 20
52.846142
 30
0.0
 10
90.002431
 20
52.202323
 30
0.0
 10
88.723611
 20
51.964198
 30
0.0
 10
87.929861
 20
51.964198
 30
0.0
 10
87.127292
 20
51.964198
 30
0.0
 10
86.324722
 20
51.964198
 30
0.0
 10
85.530972
 20
51.964198
 30
0.0
 10
84.252153
 20
52.202323
 30
0.0
 10
83.211458
 20
52.846142
 30
0.0
 10
82.505903
 20
53.807462
 30
0.0
 10
82.250139
 20
54.980448
 30
0.0
 10
82.505903
 20
56.153434
 30
0.0
 10
83.211458
 20
57.114753
 30
0.0
 10
84.252153
 20
57.758573
 30
0.0
 10
85.530972
 20
57.996698
 30
0.0
  0
LWPOLYLINE
  5
102
100
AcDbEntity
  8
slice5
 62
7
100
AcDbPolyline
 90
17
 70
0
 10
71.463958
 20
57.167670
 30
0.0
 10
72.028403
 20
57.053017
 30
0.0
 10
72.495833
 20
56.744337
 30
0.0
 10
72.813333
 20
56.276906
 30
0.0
 10
72.927986
 20
55.712462
 30
0.0
 10
72.813333
 20
55.148017
 30
0.0
 10
72.495833
 20
54.680587
 30
0.0
 10
72.028403
 20
54.371906
 30
0.0
 10
71.463958
 20
54.257253
 30
0.0
 10
70.899514
 20
54.371906
 30
0.0
 10
70.432083
 20
54.680587
 30
0.0
 10
70.123403
 20
55.148017
 30
0.0
 10
70.008750
 20
55.712462
 30
0.0
 10
70.123403
 20
56.276906
 30
0.0
 10
70.432083
 20
56.744337
 30
0.0
 10
70.899514
 20
57.053017
 30
0.0
 10
71.463958
 20
57.167670
 30
0.0
  0
LWPOLYLINE
  5
103
100
AcDbEntity
  8
slice5
 62
7
100
AcDbPolyline
 90
21
 70
0
 10
49.177222
 20
52.969614
 30
0.0
 10
49.212500
 20
52.969614
 30
0.0
 10
49.247778
 20
52.969614
 30
0.0
 10
49.291875
 20
52.969614
 30
0.0
 10
49.327153
 20
52.969614
 30
0.0
 10
49.891597
 20
52.854962
 30
0.0
 10
50.359028
 20
52.546281
 30
0.0
 10
50.667708
 20
52.078850
 30
0.0
 10
50.782361
 20
51.514406
 30
0.0
 10
50.667708
 20
50.949962
 30
0.0
 10
50.359028
 20
50.482531
 30
0.0
 10
49.891597
 20
50.173850
 30
0.0
 10
49.327153
 20
50.059198
 30
0.0
 10
48.762708
 20
50.173850
 30
0.0
 10
48.295278
 20
50.482531
 30
0.0
 10
47.986597
 20
50.949962
 30
0.0
 10
47.871944
 20
51.514406
 30
0.0
 10
47.968958
 20
52.052392
 30
0.0
 10
48.251181
 20
52.493364
 30
0.0
 10
48.665694
 20
52.819684
 30
0.0
 10
49.177222
 20
52.969614
 30
0.0
  0
LWPOLYLINE
  5
104
100
AcDbEntity
  8
slice5
 62
7
100
AcDbPolyline
 90
25
 70
0
 10
58.631667
 20
45.808225
 30
0.0
 10
59.425417
 20
45.808225
 30
0.0
 10
60.227986
 20
45.808225
 30
0.0
 10
61.021736
 20
45.808225
 30
0.0
 10
61.815486
 20
45.808225
 30
0.0
 10
63.094306
 20
45.570100
 30
0.0
 10
64.135000
 20
44.926281
 30
0.0
 10
64.840556
 20
43.973781
 30
0.0
 10
65.096319
 20
42.800795
 30
0.0
 10
64.840556
 20
41.627809
 30
0.0
 10
64.135000
 20
40.666489
 30
0.0
 10
63.094306
 20
40.022670
 30
0.0
 10
61.815486
 20
39.784545
 30
0.0
 10
61.021736
 20
39.784545
 30
0.0
 10
60.227986
 20
39.784545
 30
0.0
 10
59.425417
 20
39.784545
 30
0.0
 10
58.631667
 20
39.784545
 30
0.0
 10
57.352847
 20
40.022670
 30
0.0
 10
56.312153
 20
40.666489
 30
0.0
 10
55.606597
 20
41.627809
 30
0.0
 10
55.350833
 20
42.800795
 30
0.0
 10
55.606597
 20
43.973781
 30
0.0
 10
56.312153
 20
44.926281
 30
0.0
 10
57.352847
 20
45.570100
 30
0.0
 10
58.631667
 20
45.808225
 30
0.0
  0
LWPOLYLINE
  5
105
100
AcDbEntity
  8
slice5
 62
7
100
AcDbPolyline
 90
17
 70
0
 10
49.327153
 20
18.000517
 30
0.0
 10
49.891597
 20
17.885864
 30
0.0
 10
50.359028
 20
17.577184
 30
0.0
 10
50.667708
 20
17.109753
 30
0.0
 10
50.782361
 20
16.545309
 30
0.0
 10
50.667708
 20
15.980864
 30
0.0
 10
50.359028
 20
15.513434
 30
0.0
 10
49.891597
 20
15.204753
 30
0.0
 10
49.327153
 20
15.090100
 30
0.0
 10
48.762708
 20
15.204753
 30
0.0
 10
48.295278
 20
15.513434
 30
0.0
 10
47.986597
 20
15.980864
 30
0.0
 10
47.871944
 20
16.545309
 30
0.0
 10
47.986597
 20
17.109753
 30
0.0
 10
48.295278
 20
17.577184
 30
0.0
 10
48.762708
 20
17.885864
 30
0.0
 10
49.327153
 20
18.000517
 30
0.0
  0
LWPOLYLINE
  5
106
100
AcDbEntity
  8
slice5
 62
7
100
AcDbPolyline
 90
25
 70
0
 10
70.493819
 20
17.515448
 30
0.0
 10
71.296389
 20
17.515448
 30
0.0
 10
72.090139
 20
17.515448
 30
0.0
 10
72.892708
 20
17.515448
 30
0.0
 10
73.686458
 20
17.515448
 30
0.0
 10
74.965278
 20
17.277323
 30
0.0
 10
76.005972
 20
16.633503
 30
0.0
 10
76.711528
 20
15.672184
 30
0.0
 10
76.967292
 20
14.499198
 30
0.0
 10
76.711528
 20
13.326212
 30
0.0
 10
76.005972
 20
12.364892
 30
0.0
 10
74.965278
 20
11.721073
 30
0.0
 10
73.686458
 20
11.482948
 30
0.0
 10
72.892708
 20
11.482948
 30
0.0
 10
72.090139
 20
11.482948
 30
0.0
 10
71.296389
 20
11.482948
 30
0.0
 10
70.493819
 20
11.482948
 30
0.0
 10
69.215000
 20
11.721073
 30
0.0
 10
68.174306
 20
12.364892
 30
0.0
 10
67.468750
 20
13.326212
 30
0.0
 10
67.212986
 20
14.499198
 30
0.0
 10
67.468750
 20
15.672184
 30
0.0
 10
68.174306
 20
16.633503
 30
0.0
 10
69.215000
 20
17.277323
 30
0.0
 10
70.493819
 20
17.515448
 30
0.0
  0
LWPOLYLINE
  5
107
100
AcDbEntity
  8
slice5
 62
7
100
AcDbPolyline
 90
17
 70
0
 10
5.106458
 20
6.676350
 30
0.0
 10
5.697361
 20
6.561698
 30
0.0
 10
6.173611
 20
6.235378
 30
0.0
 10
6.499931
 20
5.759128
 30
0.0
 10
6.614583
 20
5.168225
 30
0.0
 10
6.499931
 20
4.577323
 30
0.0
 10
6.173611
 20
4.101073
 30
0.0
 10
5.697361
 20
3.774753
 30
0.0
 10
5.106458
 20
3.660100
 30
0.0
 10
4.515556
 20
3.774753
 30
0.0
 10
4.039306
 20
4.101073
 30
0.0
 10
3.712986
 20
4.577323
 30
0.0
 10
3.598333
 20
5.168225
 30
0.0
 10
3.712986
 20
5.759128
 30
0.0
 10
4.039306
 20
6.235378
 30
0.0
 10
4.515556
 20
6.561698
 30
0.0
 10
5.106458
 20
6.676350
 30
0.0
  0
LWPOLYLINE
  5
108
100
AcDbEntity
  8
slice5
 62
7
100
AcDbPolyline
 90
17
 70
0
 10
68.571181
 20
6.649892
 30
0.0
 10
69.162083
 20
6.535239
 30
0.0
 10
69.638333
 20
6.208920
 30
0.0
 10
69.964653
 20
5.732670
 30
0.0
 10
70.079306
 20
5.141767
 30
0.0
 10
69.964653
 20
4.550864
 30
0.0
 10
69.638333
 20
4.074614
 30
0.0
 10
69.162083
 20
3.748295
 30
0.0
 10
68.571181
 20
3.633642
 30
0.0
 10
67.980278
 20
3.748295
 30
0.0
 10
67.504028
 20
4.074614
 30
0.0
 10
67.177708
 20
4.550864
 30
0.0
 10
67.063056
 20
5.141767
 30
0.0
 10
67.177708
 20
5.732670
 30
0.0
 10
67.504028
 20
6.208920
 30
0.0
 10
67.980278
 20
6.535239
 30
0.0
 10
68.571181
 20
6.649892
 30
0.0
  0
LWPOLYLINE
  5
109
100
AcDbEntity
  8
slice5
 62
7
100
AcDbPolyline
 90
21
 70
0
 10
29.368750
 20
6.641073
 30
0.0
 10
29.404028
 20
6.641073
 30
0.0
 10
29.439306
 20
6.641073
 30
0.0
 10
29.483403
 20
6.641073
 30
0.0
 10
29.518681
 20
6.641073
 30
0.0
 10
30.109583
 20
6.526420
 30
0.0
 10
30.585833
 20
6.200100
 30
0.0
 10
30.912153
 20
5.723850
 30
0.0
 10
31.026806
 20
5.141767
 30
0.0
 10
30.912153
 20
4.550864
 30
0.0
 10
30.585833
 20
4.074614
 30
0.0
 10
30.109583
 20
3.748295
 30
0.0
 10
29.518681
 20
3.633642
 30
0.0
 10
28.927778
 20
3.748295
 30
0.0
 10
28.451528
 20
4.074614
 30
0.0
 10
28.125208
 20
4.550864
 30
0.0
 10
28.010556
 20
5.141767
 30
0.0
 10
28.116389
 20
5.697392
 30
0.0
 10
28.407431
 20
6.156003
 30
0.0
 10
28.839583
 20
6.482323
 30
0.0
 10
29.368750
 20
6.641073
 30
0.0
  0
LWPOLYLINE
  5
10a
100
AcDbEntity
  8
slice5
 62
7
100
AcDbPolyline
 90
21
 70
0
 10
43.920833
 20
6.641073
 30
0.0
 10
43.956111
 20
6.641073
 30
0.0
 10
43.991389
 20
6.641073
 30
0.0
 10
44.035486
 20
6.641073
 30
0.0
 10
44.070764
 20
6.641073
 30
0.0
 10
44.661667
 20
6.526420
 30
0.0
 10
45.137917
 20
6.200100
 30
0.0
 10
45.464236
 20
5.723850
 30
0.0
 10
45.578889
 20
5.141767
 30
0.0
 10
45.464236
 20
4.550864
 30
0.0
 10
45.137917
 20
4.074614
 30
0.0
 10
44.661667
 20
3.748295
 30
0.0
 10
44.070764
 20
3.633642
 30
0.0
 10
43.479861
 20
3.748295
 30
0.0
 10
43.003611
 20
4.074614
 30
0.0
 10
42.677292
 20
4.550864
 30
0.0
 10
42.562639
 20
5.141767
 30
0.0
 10
42.668472
 20
5.697392
 30
0.0
 10
42.959514
 20
6.156003
 30
0.0
 10
43.391667
 20
6.482323
 30
0.0
 10
43.920833
 20
6.641073
 30
0.0
  0
LWPOLYLINE
  5
10b
100
AcDbEntity
  8
slice5
 62
7
100
AcDbPolyline
 90
17
 70
0
 10
20.681597
 20
6.632253
 30
0.0
 10
21.246042
 20
6.517600
 30
0.0
 10
21.713472
 20
6.200100
 30
0.0
 10
22.022153
 20
5.732670
 30
0.0
 10
22.136806
 20
5.168225
 30
0.0
 10
22.022153
 20
4.603781
 30
0.0
 10
21.713472
 20
4.136350
 30
0.0
 10
21.246042
 20
3.827670
 30
0.0
 10
20.681597
 20
3.713017
 30
0.0
 10
20.117153
 20
3.827670
 30
0.0
 10
19.649722
 20
4.136350
 30
0.0
 10
19.341042
 20
4.603781
 30
0.0
 10
19.226389
 20
5.168225
 30
0.0
 10
19.341042
 20
5.732670
 30
0.0
 10
19.649722
 20
6.200100
 30
0.0
 10
20.117153
 20
6.517600
 30
0.0
 10
20.681597
 20
6.632253
 30
0.0
  0
LWPOLYLINE
  5
10c
100
AcDbEntity
  8
slice4
 62
7
100
AcDbPolyline
 90
157
 70
0
 10
89.332139
 20
60.492558
 30
0.0
 10
80.571961
 20
60.080062
 30
0.0
 10
61.299542
 20
59.173621
 30
0.0
 10
42.027122
 20
58.267433
 30
0.0
 10
33.266944
 20
57.855558
 30
0.0
 10
33.268948
 20
51.967979
 30
0.0
 10
33.595705
 20
47.735634
 30
0.0
 10
34.728206
 20
43.999181
 30
0.0
 10
37.147500
 20
39.599308
 30
0.0
 10
37.740872
 20
40.066725
 30
0.0
 10
38.416202
 20
40.419249
 30
0.0
 10
39.158333
 20
40.641837
 30
0.0
 10
39.952083
 20
40.719364
 30
0.0
 10
41.535548
 20
40.400170
 30
0.0
 10
42.827815
 20
39.529345
 30
0.0
 10
43.698640
 20
38.237078
 30
0.0
 10
44.017833
 20
36.653614
 30
0.0
 10
43.698640
 20
35.068767
 30
0.0
 10
42.827815
 20
33.773480
 30
0.0
 10
41.535548
 20
32.899607
 30
0.0
 10
39.952083
 20
32.579031
 30
0.0
 10
39.158559
 20
32.656670
 30
0.0
 10
38.416371
 20
32.879371
 30
0.0
 10
37.740900
 20
33.231923
 30
0.0
 10
37.147500
 20
33.699086
 30
0.0
 10
36.061763
 20
30.918943
 30
0.0
 10
33.411301
 20
28.151331
 30
0.0
 10
29.941210
 20
26.027693
 30
0.0
 10
26.396583
 20
25.179503
 30
0.0
 10
25.765986
 20
25.179503
 30
0.0
 10
25.135417
 20
25.179503
 30
0.0
 10
24.504819
 20
25.179503
 30
0.0
 10
23.874222
 20
25.179503
 30
0.0
 10
21.879616
 20
24.796301
 30
0.0
 10
20.250884
 20
23.740875
 30
0.0
 10
19.152785
 20
22.154645
 30
0.0
 10
18.750139
 20
20.178892
 30
0.0
 10
18.750139
 20
17.669767
 30
0.0
 10
18.750139
 20
15.160614
 30
0.0
 10
18.750139
 20
12.651489
 30
0.0
 10
18.750139
 20
10.142364
 30
0.0
 10
15.253236
 20
10.142364
 30
0.0
 10
11.756334
 20
10.142364
 30
0.0
 10
8.259403
 20
10.142364
 30
0.0
 10
4.762500
 20
10.142364
 30
0.0
 10
4.751465
 20
10.142364
 30
0.0
 10
4.740458
 20
10.142364
 30
0.0
 10
4.729424
 20
10.142364
 30
0.0
 10
4.718389
 20
10.142364
 30
0.0
 10
2.895036
 20
9.648108
 30
0.0
 10
1.419239
 20
8.553707
 30
0.0
 10
0.431066
 20
6.999057
 30
0.0
 10
0.070556
 20
5.124086
 30
0.0
 10
0.466400
 20
3.164053
 30
0.0
 10
1.545788
 20
1.563316
 30
0.0
 10
3.146552
 20
0.483986
 30
0.0
 10
5.106444
 20
0.088197
 30
0.0
 10
5.115278
 20
0.083795
 30
0.0
 10
5.124083
 20
0.079364
 30
0.0
 10
5.132917
 20
0.074961
 30
0.0
 10
5.141722
 20
0.070558
 30
0.0
 10
11.282257
 20
0.070558
 30
0.0
 10
17.422820
 20
0.070558
 30
0.0
 10
23.563354
 20
0.070558
 30
0.0
 10
29.703889
 20
0.070558
 30
0.0
 10
29.703889
 20
0.961308
 30
0.0
 10
29.703889
 20
1.852086
 30
0.0
 10
29.703889
 20
2.742836
 30
0.0
 10
29.703889
 20
3.633614
 30
0.0
 10
29.645723
 20
3.625853
 30
0.0
 10
29.586061
 20
3.620349
 30
0.0
 10
29.525807
 20
3.617047
 30
0.0
 10
29.465750
 20
3.615975
 30
0.0
 10
28.878982
 20
3.734565
 30
0.0
 10
28.399571
 20
4.057907
 30
0.0
 10
28.076229
 20
4.537318
 30
0.0
 10
27.957639
 20
5.124086
 30
0.0
 10
28.076229
 20
5.710882
 30
0.0
 10
28.399571
 20
6.190265
 30
0.0
 10
28.878982
 20
6.513635
 30
0.0
 10
29.465750
 20
6.632225
 30
0.0
 10
29.525863
 20
6.629770
 30
0.0
 10
29.586089
 20
6.623476
 30
0.0
 10
29.645666
 20
6.614925
 30
0.0
 10
29.703889
 20
6.605753
 30
0.0
 10
29.703889
 20
7.483294
 30
0.0
 10
29.703889
 20
8.360808
 30
0.0
 10
29.703889
 20
9.238350
 30
0.0
 10
29.703889
 20
10.115891
 30
0.0
 10
33.220632
 20
10.115891
 30
0.0
 10
36.737403
 20
10.115891
 30
0.0
 10
40.254146
 20
10.115891
 30
0.0
 10
43.770889
 20
10.115891
 30
0.0
 10
43.770889
 20
9.238350
 30
0.0
 10
43.770889
 20
8.360808
 30
0.0
 10
43.770889
 20
7.483294
 30
0.0
 10
43.770889
 20
6.605753
 30
0.0
 10
43.831228
 20
6.615320
 30
0.0
 10
43.893006
 20
6.623815
 30
0.0
 10
43.955462
 20
6.629883
 30
0.0
 10
44.017833
 20
6.632225
 30
0.0
 10
44.604630
 20
6.513635
 30
0.0
 10
45.084040
 20
6.190265
 30
0.0
 10
45.407382
 20
5.710882
 30
0.0
 10
45.525972
 20
5.124086
 30
0.0
 10
45.407382
 20
4.537318
 30
0.0
 10
45.084040
 20
4.057907
 30
0.0
 10
44.604630
 20
3.734565
 30
0.0
 10
44.017833
 20
3.615975
 30
0.0
 10
43.955518
 20
3.616935
 30
0.0
 10
43.893006
 20
3.620011
 30
0.0
 10
43.831171
 20
3.625458
 30
0.0
 10
43.770889
 20
3.633614
 30
0.0
 10
43.770889
 20
2.742836
 30
0.0
 10
43.770889
 20
1.852086
 30
0.0
 10
43.770889
 20
0.961308
 30
0.0
 10
43.770889
 20
0.070558
 30
0.0
 10
49.933465
 20
0.070558
 30
0.0
 10
56.096069
 20
0.070558
 30
0.0
 10
62.258674
 20
0.070558
 30
0.0
 10
68.421250
 20
0.070558
 30
0.0
 10
69.807808
 20
0.214689
 30
0.0
 10
71.079332
 20
0.701889
 30
0.0
 10
72.210224
 20
1.614229
 30
0.0
 10
73.174916
 20
3.033892
 30
0.0
 10
75.825068
 20
7.008004
 30
0.0
 10
77.693943
 20
10.082759
 30
0.0
 10
78.757836
 20
12.483567
 30
0.0
 10
78.993012
 20
14.435867
 30
0.0
 10
78.375820
 20
16.165155
 30
0.0
 10
76.882554
 20
17.896815
 30
0.0
 10
74.489479
 20
19.856312
 30
0.0
 10
71.172917
 20
22.269086
 30
0.0
 10
67.962159
 20
25.495733
 30
0.0
 10
65.987648
 20
28.637035
 30
0.0
 10
64.991798
 20
32.089065
 30
0.0
 10
64.717083
 20
36.247919
 30
0.0
 10
66.167536
 20
42.732031
 30
0.0
 10
70.008524
 20
46.909795
 30
0.0
 10
75.474632
 20
49.147705
 30
0.0
 10
81.800333
 20
49.812225
 30
0.0
 10
81.822375
 20
49.812225
 30
0.0
 10
81.844444
 20
49.812225
 30
0.0
 10
81.866486
 20
49.812225
 30
0.0
 10
81.888528
 20
49.812225
 30
0.0
 10
83.749444
 20
49.843100
 30
0.0
 10
85.610333
 20
49.873947
 30
0.0
 10
87.471250
 20
49.904822
 30
0.0
 10
89.332139
 20
49.935697
 30
0.0
 10
91.679437
 20
50.174260
 30
0.0
 10
93.597024
 20
50.948875
 30
0.0
 10
94.890308
 20
52.347992
 30
0.0
 10
95.364639
 20
54.460058
 30
0.0
 10
94.890308
 20
56.807216
 30
0.0
 10
93.597024
 20
58.724803
 30
0.0
 10
91.679437
 20
60.018171
 30
0.0
 10
89.332139
 20
60.492558
 30
0.0
  0
LWPOLYLINE
  5
10d
100
AcDbEntity
  8
slice4
 62
7
100
AcDbPolyline
 90
21
 70
0
 10
71.261111
 20
57.150003
 30
0.0
 10
71.298110
 20
57.152091
 30
0.0
 10
71.335561
 20
57.151865
 30
0.0
 10
71.373266
 20
57.150708
 30
0.0
 10
71.411028
 20
57.150003
 30
0.0
 10
71.977758
 20
57.035787
 30
0.0
 10
72.440292
 20
56.724129
 30
0.0
 10
72.752006
 20
56.261595
 30
0.0
 10
72.866250
 20
55.694780
 30
0.0
 10
72.752006
 20
55.127909
 30
0.0
 10
72.440292
 20
54.665403
 30
0.0
 10
71.977758
 20
54.353801
 30
0.0
 10
71.411028
 20
54.239586
 30
0.0
 10
70.844128
 20
54.353801
 30
0.0
 10
70.381650
 20
54.665403
 30
0.0
 10
70.070049
 20
55.127909
 30
0.0
 10
69.955833
 20
55.694780
 30
0.0
 10
70.056446
 20
56.229902
 30
0.0
 10
70.332939
 20
56.677281
 30
0.0
 10
70.747184
 20
56.997208
 30
0.0
 10
71.261111
 20
57.150003
 30
0.0
  0
LWPOLYLINE
  5
10e
100
AcDbEntity
  8
slice4
 62
7
100
AcDbPolyline
 90
29
 70
0
 10
85.160556
 20
56.506169
 30
0.0
 10
85.199728
 20
56.508399
 30
0.0
 10
85.239408
 20
56.508145
 30
0.0
 10
85.279371
 20
56.506903
 30
0.0
 10
85.319306
 20
56.506169
 30
0.0
 10
86.196847
 20
56.506169
 30
0.0
 10
87.074389
 20
56.506169
 30
0.0
 10
87.951903
 20
56.506169
 30
0.0
 10
88.829444
 20
56.506169
 30
0.0
 10
89.428066
 20
56.385068
 30
0.0
 10
89.915718
 20
56.054614
 30
0.0
 10
90.243858
 20
55.564083
 30
0.0
 10
90.364028
 20
54.962781
 30
0.0
 10
90.243858
 20
54.361196
 30
0.0
 10
89.915718
 20
53.870693
 30
0.0
 10
89.428066
 20
53.540381
 30
0.0
 10
88.829444
 20
53.419364
 30
0.0
 10
87.951903
 20
53.419364
 30
0.0
 10
87.074389
 20
53.419364
 30
0.0
 10
86.196847
 20
53.419364
 30
0.0
 10
85.319306
 20
53.419364
 30
0.0
 10
84.719470
 20
53.540381
 30
0.0
 10
84.228771
 20
53.870693
 30
0.0
 10
83.897498
 20
54.361196
 30
0.0
 10
83.775889
 20
54.962781
 30
0.0
 10
83.883077
 20
55.530442
 30
0.0
 10
84.177096
 20
56.004886
 30
0.0
 10
84.616685
 20
56.344145
 30
0.0
 10
85.160556
 20
56.506169
 30
0.0
  0
LWPOLYLINE
  5
10f
100
AcDbEntity
  8
slice4
 62
7
100
AcDbPolyline
 90
17
 70
0
 10
49.159583
 20
52.978391
 30
0.0
 10
49.726455
 20
52.862821
 30
0.0
 10
50.188961
 20
52.548172
 30
0.0
 10
50.500562
 20
52.082646
 30
0.0
 10
50.614778
 20
51.514364
 30
0.0
 10
50.500562
 20
50.947549
 30
0.0
 10
50.188961
 20
50.485043
 30
0.0
 10
49.726455
 20
50.173385
 30
0.0
 10
49.159583
 20
50.059169
 30
0.0
 10
48.592684
 20
50.173385
 30
0.0
 10
48.130178
 20
50.485043
 30
0.0
 10
47.818576
 20
50.947549
 30
0.0
 10
47.704361
 20
51.514364
 30
0.0
 10
47.818576
 20
52.082646
 30
0.0
 10
48.130178
 20
52.548172
 30
0.0
 10
48.592684
 20
52.862821
 30
0.0
 10
49.159583
 20
52.978391
 30
0.0
  0
LWPOLYLINE
  5
110
100
AcDbEntity
  8
slice4
 62
7
100
AcDbPolyline
 90
25
 70
0
 10
57.687972
 20
44.326531
 30
0.0
 10
58.878611
 20
44.326531
 30
0.0
 10
60.069222
 20
44.326531
 30
0.0
 10
61.259861
 20
44.326531
 30
0.0
 10
62.450472
 20
44.326531
 30
0.0
 10
63.050476
 20
44.205514
 30
0.0
 10
63.541176
 20
43.875229
 30
0.0
 10
63.872336
 20
43.384727
 30
0.0
 10
63.993889
 20
42.783114
 30
0.0
 10
63.872336
 20
42.180287
 30
0.0
 10
63.541176
 20
41.686737
 30
0.0
 10
63.050476
 20
41.353319
 30
0.0
 10
62.450472
 20
41.230891
 30
0.0
 10
61.259861
 20
41.230891
 30
0.0
 10
60.069222
 20
41.230891
 30
0.0
 10
58.878611
 20
41.230891
 30
0.0
 10
57.687972
 20
41.230891
 30
0.0
 10
57.089492
 20
41.353319
 30
0.0
 10
56.601840
 20
41.686737
 30
0.0
 10
56.273587
 20
42.180287
 30
0.0
 10
56.153389
 20
42.783114
 30
0.0
 10
56.273587
 20
43.384727
 30
0.0
 10
56.601840
 20
43.875229
 30
0.0
 10
57.089492
 20
44.205514
 30
0.0
 10
57.687972
 20
44.326531
 30
0.0
  0
LWPOLYLINE
  5
111
100
AcDbEntity
  8
slice4
 62
7
100
AcDbPolyline
 90
17
 70
0
 10
23.874222
 20
22.683614
 30
0.0
 10
24.461018
 20
22.565024
 30
0.0
 10
24.940429
 20
22.241654
 30
0.0
 10
25.263771
 20
21.762271
 30
0.0
 10
25.382361
 20
21.175475
 30
0.0
 10
25.263771
 20
20.588707
 30
0.0
 10
24.940429
 20
20.109296
 30
0.0
 10
24.461018
 20
19.785954
 30
0.0
 10
23.874222
 20
19.667364
 30
0.0
 10
23.287454
 20
19.785954
 30
0.0
 10
22.808043
 20
20.109296
 30
0.0
 10
22.484701
 20
20.588707
 30
0.0
 10
22.366111
 20
21.175475
 30
0.0
 10
22.484701
 20
21.762271
 30
0.0
 10
22.808043
 20
22.241654
 30
0.0
 10
23.287454
 20
22.565024
 30
0.0
 10
23.874222
 20
22.683614
 30
0.0
  0
LWPOLYLINE
  5
112
100
AcDbEntity
  8
slice4
 62
7
100
AcDbPolyline
 90
17
 70
0
 10
49.159583
 20
18.000475
 30
0.0
 10
49.726314
 20
17.886175
 30
0.0
 10
50.188848
 20
17.574404
 30
0.0
 10
50.500534
 20
17.111870
 30
0.0
 10
50.614778
 20
16.545281
 30
0.0
 10
50.500534
 20
15.976998
 30
0.0
 10
50.188848
 20
15.511472
 30
0.0
 10
49.726314
 20
15.196823
 30
0.0
 10
49.159583
 20
15.081253
 30
0.0
 10
48.592684
 20
15.196823
 30
0.0
 10
48.130178
 20
15.511472
 30
0.0
 10
47.818576
 20
15.976998
 30
0.0
 10
47.704361
 20
16.545281
 30
0.0
 10
47.818576
 20
17.111870
 30
0.0
 10
48.130178
 20
17.574404
 30
0.0
 10
48.592684
 20
17.886175
 30
0.0
 10
49.159583
 20
18.000475
 30
0.0
  0
LWPOLYLINE
  5
113
100
AcDbEntity
  8
slice4
 62
7
100
AcDbPolyline
 90
25
 70
0
 10
70.282139
 20
16.024919
 30
0.0
 10
71.159680
 20
16.024919
 30
0.0
 10
72.037222
 20
16.024919
 30
0.0
 10
72.914736
 20
16.024919
 30
0.0
 10
73.792278
 20
16.024919
 30
0.0
 10
74.390758
 20
15.903902
 30
0.0
 10
74.878410
 20
15.573618
 30
0.0
 10
75.206662
 20
15.083144
 30
0.0
 10
75.326861
 20
14.481531
 30
0.0
 10
75.206662
 20
13.878563
 30
0.0
 10
74.878410
 20
13.385041
 30
0.0
 10
74.390758
 20
13.051708
 30
0.0
 10
73.792278
 20
12.929308
 30
0.0
 10
72.914736
 20
12.929308
 30
0.0
 10
72.037222
 20
12.929308
 30
0.0
 10
71.159680
 20
12.929308
 30
0.0
 10
70.282139
 20
12.929308
 30
0.0
 10
69.682275
 20
13.051708
 30
0.0
 10
69.191604
 20
13.385041
 30
0.0
 10
68.860331
 20
13.878563
 30
0.0
 10
68.738750
 20
14.481531
 30
0.0
 10
68.860331
 20
15.083144
 30
0.0
 10
69.191604
 20
15.573618
 30
0.0
 10
69.682275
 20
15.903902
 30
0.0
 10
70.282139
 20
16.024919
 30
0.0
  0
LWPOLYLINE
  5
114
100
AcDbEntity
  8
slice4
 62
7
100
AcDbPolyline
 90
17
 70
0
 10
5.106444
 20
6.632225
 30
0.0
 10
5.691858
 20
6.513635
 30
0.0
 10
6.168221
 20
6.190265
 30
0.0
 10
6.488543
 20
5.710882
 30
0.0
 10
6.605750
 20
5.124086
 30
0.0
 10
6.488543
 20
4.537318
 30
0.0
 10
6.168221
 20
4.057907
 30
0.0
 10
5.691858
 20
3.734565
 30
0.0
 10
5.106444
 20
3.615975
 30
0.0
 10
4.519507
 20
3.734565
 30
0.0
 10
4.040152
 20
4.057907
 30
0.0
 10
3.716895
 20
4.537318
 30
0.0
 10
3.598333
 20
5.124086
 30
0.0
 10
3.716895
 20
5.710882
 30
0.0
 10
4.040152
 20
6.190265
 30
0.0
 10
4.519507
 20
6.513635
 30
0.0
 10
5.106444
 20
6.632225
 30
0.0
  0
LWPOLYLINE
  5
115
100
AcDbEntity
  8
slice4
 62
7
100
AcDbPolyline
 90
17
 70
0
 10
68.518250
 20
6.632225
 30
0.0
 10
69.105046
 20
6.513635
 30
0.0
 10
69.584457
 20
6.190265
 30
0.0
 10
69.907799
 20
5.710882
 30
0.0
 10
70.026389
 20
5.124086
 30
0.0
 10
69.907799
 20
4.537318
 30
0.0
 10
69.584457
 20
4.057907
 30
0.0
 10
69.105046
 20
3.734565
 30
0.0
 10
68.518250
 20
3.615975
 30
0.0
 10
67.931482
 20
3.734565
 30
0.0
 10
67.452071
 20
4.057907
 30
0.0
 10
67.128729
 20
4.537318
 30
0.0
 10
67.010139
 20
5.124086
 30
0.0
 10
67.128729
 20
5.710882
 30
0.0
 10
67.452071
 20
6.190265
 30
0.0
 10
67.931482
 20
6.513635
 30
0.0
 10
68.518250
 20
6.632225
 30
0.0
  0
LWPOLYLINE
  5
116
100
AcDbEntity
  8
slice4
 62
7
100
AcDbPolyline
 90
17
 70
0
 10
20.549306
 20
6.579308
 30
0.0
 10
21.116064
 20
6.465093
 30
0.0
 10
21.578570
 20
6.153491
 30
0.0
 10
21.890256
 20
5.690957
 30
0.0
 10
22.004500
 20
5.124086
 30
0.0
 10
21.890256
 20
4.555803
 30
0.0
 10
21.578570
 20
4.090278
 30
0.0
 10
21.116036
 20
3.775628
 30
0.0
 10
20.549306
 20
3.660058
 30
0.0
 10
19.982434
 20
3.775628
 30
0.0
 10
19.519900
 20
4.090278
 30
0.0
 10
19.208298
 20
4.555803
 30
0.0
 10
19.094083
 20
5.124086
 30
0.0
 10
19.208298
 20
5.690986
 30
0.0
 10
19.519900
 20
6.153491
 30
0.0
 10
19.982434
 20
6.465093
 30
0.0
 10
20.549306
 20
6.579308
 30
0.0
  0
LWPOLYLINE
  5
117
100
AcDbEntity
  8
slice3
 62
7
100
AcDbPolyline
 90
65
 70
0
 10
38.346944
 20
57.846753
 30
0.0
 10
38.346944
 20
53.988239
 30
0.0
 10
38.346944
 20
50.129725
 30
0.0
 10
38.346944
 20
46.271239
 30
0.0
 10
38.346944
 20
42.412725
 30
0.0
 10
38.722215
 20
42.006325
 30
0.0
 10
39.114589
 20
41.587761
 30
0.0
 10
39.524404
 20
41.156159
 30
0.0
 10
39.952083
 20
40.710587
 30
0.0
 10
41.535548
 20
40.391365
 30
0.0
 10
42.827815
 20
39.520540
 30
0.0
 10
43.698640
 20
38.228301
 30
0.0
 10
44.017861
 20
36.644809
 30
0.0
 10
43.698640
 20
35.059961
 30
0.0
 10
42.827815
 20
33.764674
 30
0.0
 10
41.535548
 20
32.890801
 30
0.0
 10
39.952083
 20
32.570225
 30
0.0
 10
39.524347
 20
32.168933
 30
0.0
 10
39.096611
 20
31.767642
 30
0.0
 10
38.668847
 20
31.366378
 30
0.0
 10
38.241111
 20
30.965086
 30
0.0
 10
38.241111
 20
25.750579
 30
0.0
 10
38.241111
 20
20.536072
 30
0.0
 10
38.241111
 20
15.321593
 30
0.0
 10
38.241111
 20
10.107086
 30
0.0
 10
39.874924
 20
10.107086
 30
0.0
 10
41.508736
 20
10.107086
 30
0.0
 10
43.142521
 20
10.107086
 30
0.0
 10
44.776334
 20
10.107086
 30
0.0
 10
44.776334
 20
9.183260
 30
0.0
 10
44.776334
 20
8.259405
 30
0.0
 10
44.776334
 20
7.335579
 30
0.0
 10
44.776334
 20
6.411753
 30
0.0
 10
45.082855
 20
6.177283
 30
0.0
 10
45.319498
 20
5.874345
 30
0.0
 10
45.471955
 20
5.515980
 30
0.0
 10
45.525972
 20
5.115281
 30
0.0
 10
45.471955
 20
4.713227
 30
0.0
 10
45.319498
 20
4.351841
 30
0.0
 10
45.082855
 20
4.045856
 30
0.0
 10
44.776334
 20
3.810003
 30
0.0
 10
44.776334
 20
2.875142
 30
0.0
 10
44.776334
 20
1.940281
 30
0.0
 10
44.776334
 20
1.005419
 30
0.0
 10
44.776334
 20
0.070558
 30
0.0
 10
48.066000
 20
0.070558
 30
0.0
 10
51.355639
 20
0.070558
 30
0.0
 10
54.645306
 20
0.070558
 30
0.0
 10
57.934945
 20
0.070558
 30
0.0
 10
57.934945
 20
2.584086
 30
0.0
 10
57.934945
 20
5.097642
 30
0.0
 10
57.934945
 20
7.611169
 30
0.0
 10
57.934945
 20
10.124725
 30
0.0
 10
56.956000
 20
10.124725
 30
0.0
 10
55.977028
 20
10.124725
 30
0.0
 10
54.998084
 20
10.124725
 30
0.0
 10
54.019111
 20
10.124725
 30
0.0
 10
54.019111
 20
22.055218
 30
0.0
 10
54.019111
 20
33.985739
 30
0.0
 10
54.019111
 20
45.916232
 30
0.0
 10
54.019111
 20
57.846753
 30
0.0
 10
50.101077
 20
57.846753
 30
0.0
 10
46.183042
 20
57.846753
 30
0.0
 10
42.264979
 20
57.846753
 30
0.0
 10
38.346944
 20
57.846753
 30
0.0
  0
LWPOLYLINE
  5
118
100
AcDbEntity
  8
slice3
 62
7
100
AcDbPolyline
 90
13
 70
0
 10
38.346944
 20
42.412725
 30
0.0
 10
38.331535
 20
42.430054
 30
0.0
 10
38.316013
 20
42.448031
 30
0.0
 10
38.300547
 20
42.466009
 30
0.0
 10
38.285222
 20
42.483281
 30
0.0
 10
38.300660
 20
42.448003
 30
0.0
 10
38.316098
 20
42.412725
 30
0.0
 10
38.331507
 20
42.377447
 30
0.0
 10
38.346944
 20
42.342170
 30
0.0
 10
38.346944
 20
42.359809
 30
0.0
 10
38.346944
 20
42.377447
 30
0.0
 10
38.346944
 20
42.395086
 30
0.0
 10
38.346944
 20
42.412725
 30
0.0
  0
LWPOLYLINE
  5
119
100
AcDbEntity
  8
slice3
 62
7
100
AcDbPolyline
 90
17
 70
0
 10
49.159583
 20
52.969614
 30
0.0
 10
49.726483
 20
52.855399
 30
0.0
 10
50.188989
 20
52.543797
 30
0.0
 10
50.500590
 20
52.081292
 30
0.0
 10
50.614806
 20
51.514392
 30
0.0
 10
50.500590
 20
50.946053
 30
0.0
 10
50.188989
 20
50.480527
 30
0.0
 10
49.726483
 20
50.165934
 30
0.0
 10
49.159583
 20
50.050364
 30
0.0
 10
48.592684
 20
50.165934
 30
0.0
 10
48.130178
 20
50.480527
 30
0.0
 10
47.818576
 20
50.946053
 30
0.0
 10
47.704389
 20
51.514392
 30
0.0
 10
47.818576
 20
52.081292
 30
0.0
 10
48.130178
 20
52.543797
 30
0.0
 10
48.592684
 20
52.855399
 30
0.0
 10
49.159583
 20
52.969614
 30
0.0
  0
LWPOLYLINE
  5
11a
100
AcDbEntity
  8
slice3
 62
7
100
AcDbPolyline
 90
17
 70
0
 10
49.159583
 20
17.991669
 30
0.0
 10
49.726483
 20
17.877482
 30
0.0
 10
50.188989
 20
17.565881
 30
0.0
 10
50.500590
 20
17.103375
 30
0.0
 10
50.614806
 20
16.536475
 30
0.0
 10
50.500590
 20
15.967910
 30
0.0
 10
50.188989
 20
15.502413
 30
0.0
 10
49.726483
 20
15.187933
 30
0.0
 10
49.159583
 20
15.072447
 30
0.0
 10
48.592684
 20
15.187933
 30
0.0
 10
48.130178
 20
15.502413
 30
0.0
 10
47.818576
 20
15.967910
 30
0.0
 10
47.704389
 20
16.536475
 30
0.0
 10
47.818576
 20
17.103375
 30
0.0
 10
48.130178
 20
17.565881
 30
0.0
 10
48.592684
 20
17.877482
 30
0.0
 10
49.159583
 20
17.991669
 30
0.0
  0
LWPOLYLINE
  5
11b
100
AcDbEntity
  8
slice3
 62
7
100
AcDbPolyline
 90
17
 70
0
 10
68.394806
 20
10.133559
 30
0.0
 10
66.434914
 20
9.737657
 30
0.0
 10
64.834149
 20
8.658185
 30
0.0
 10
63.754734
 20
7.057393
 30
0.0
 10
63.358889
 20
5.097642
 30
0.0
 10
63.754734
 20
3.138991
 30
0.0
 10
64.834149
 20
1.541275
 30
0.0
 10
66.434914
 20
0.464992
 30
0.0
 10
68.394806
 20
0.070558
 30
0.0
 10
70.354698
 20
0.464992
 30
0.0
 10
71.955462
 20
1.541275
 30
0.0
 10
73.034850
 20
3.138991
 30
0.0
 10
73.430694
 20
5.097642
 30
0.0
 10
73.034850
 20
7.057393
 30
0.0
 10
71.955462
 20
8.658185
 30
0.0
 10
70.354698
 20
9.737657
 30
0.0
 10
68.394806
 20
10.133559
 30
0.0
  0
LWPOLYLINE
  5
11c
100
AcDbEntity
  8
slice3
 62
7
100
AcDbPolyline
 90
17
 70
0
 10
68.394806
 20
6.623420
 30
0.0
 10
68.981574
 20
6.504830
 30
0.0
 10
69.460985
 20
6.181460
 30
0.0
 10
69.784327
 20
5.702077
 30
0.0
 10
69.902917
 20
5.115281
 30
0.0
 10
69.784327
 20
4.528512
 30
0.0
 10
69.460985
 20
4.049101
 30
0.0
 10
68.981574
 20
3.725759
 30
0.0
 10
68.394806
 20
3.607170
 30
0.0
 10
67.807868
 20
3.725759
 30
0.0
 10
67.328486
 20
4.049101
 30
0.0
 10
67.005228
 20
4.528512
 30
0.0
 10
66.886667
 20
5.115281
 30
0.0
 10
67.005228
 20
5.702077
 30
0.0
 10
67.328486
 20
6.181460
 30
0.0
 10
67.807868
 20
6.504830
 30
0.0
 10
68.394806
 20
6.623420
 30
0.0
  0
LWPOLYLINE
  5
11d
100
AcDbEntity
  8
slice3
 62
7
100
AcDbPolyline
 90
61
 70
0
 10
34.201806
 20
28.821975
 30
0.0
 10
34.190799
 20
28.810941
 30
0.0
 10
34.179764
 20
28.799906
 30
0.0
 10
34.168757
 20
28.788899
 30
0.0
 10
34.157722
 20
28.777864
 30
0.0
 10
32.360870
 20
27.364890
 30
0.0
 10
30.381025
 20
26.219294
 30
0.0
 10
28.349250
 20
25.451198
 30
0.0
 10
26.396611
 20
25.170697
 30
0.0
 10
25.766014
 20
25.170697
 30
0.0
 10
25.135445
 20
25.170697
 30
0.0
 10
24.504848
 20
25.170697
 30
0.0
 10
23.874250
 20
25.170697
 30
0.0
 10
21.879645
 20
24.787383
 30
0.0
 10
20.250884
 20
23.731815
 30
0.0
 10
19.152785
 20
22.145557
 30
0.0
 10
18.750139
 20
20.170086
 30
0.0
 10
18.750139
 20
17.660961
 30
0.0
 10
18.750139
 20
15.151808
 30
0.0
 10
18.750139
 20
12.642683
 30
0.0
 10
18.750139
 20
10.133559
 30
0.0
 10
17.493375
 20
10.133559
 30
0.0
 10
16.236611
 20
10.133559
 30
0.0
 10
14.979819
 20
10.133559
 30
0.0
 10
13.723056
 20
10.133559
 30
0.0
 10
13.724241
 20
8.561214
 30
0.0
 10
13.724128
 20
5.102044
 30
0.0
 10
13.723451
 20
1.642903
 30
0.0
 10
13.723056
 20
0.070558
 30
0.0
 10
17.466903
 20
0.070558
 30
0.0
 10
21.210778
 20
0.070558
 30
0.0
 10
24.954625
 20
0.070558
 30
0.0
 10
28.698472
 20
0.070558
 30
0.0
 10
28.698472
 20
1.007621
 30
0.0
 10
28.698472
 20
1.944683
 30
0.0
 10
28.698472
 20
2.881774
 30
0.0
 10
28.698472
 20
3.818836
 30
0.0
 10
28.398583
 20
4.055226
 30
0.0
 10
28.167556
 20
4.359687
 30
0.0
 10
28.018994
 20
4.717855
 30
0.0
 10
27.966472
 20
5.115281
 30
0.0
 10
28.018994
 20
5.511351
 30
0.0
 10
28.167556
 20
5.866471
 30
0.0
 10
28.398583
 20
6.167913
 30
0.0
 10
28.698472
 20
6.402919
 30
0.0
 10
28.698472
 20
7.328947
 30
0.0
 10
28.698472
 20
8.255003
 30
0.0
 10
28.698472
 20
9.181030
 30
0.0
 10
28.698472
 20
10.107086
 30
0.0
 10
30.305812
 20
10.107086
 30
0.0
 10
31.913181
 20
10.107086
 30
0.0
 10
33.520521
 20
10.107086
 30
0.0
 10
35.127861
 20
10.107086
 30
0.0
 10
35.127861
 20
14.380128
 30
0.0
 10
35.127861
 20
18.653142
 30
0.0
 10
35.127861
 20
22.926156
 30
0.0
 10
35.127861
 20
27.199198
 30
0.0
 10
35.096140
 20
27.558862
 30
0.0
 10
34.966120
 20
28.104905
 30
0.0
 10
34.685450
 20
28.603789
 30
0.0
 10
34.201806
 20
28.821975
 30
0.0
  0
LWPOLYLINE
  5
11e
100
AcDbEntity
  8
slice3
 62
7
100
AcDbPolyline
 90
17
 70
0
 10
23.874250
 20
22.674809
 30
0.0
 10
24.461018
 20
22.556219
 30
0.0
 10
24.940429
 20
22.232849
 30
0.0
 10
25.263771
 20
21.753466
 30
0.0
 10
25.382361
 20
21.166669
 30
0.0
 10
25.263771
 20
20.579901
 30
0.0
 10
24.940429
 20
20.100490
 30
0.0
 10
24.461018
 20
19.777148
 30
0.0
 10
23.874250
 20
19.658559
 30
0.0
 10
23.287313
 20
19.777148
 30
0.0
 10
22.807930
 20
20.100490
 30
0.0
 10
22.484673
 20
20.579901
 30
0.0
 10
22.366111
 20
21.166669
 30
0.0
 10
22.484673
 20
21.753466
 30
0.0
 10
22.807930
 20
22.232849
 30
0.0
 10
23.287313
 20
22.556219
 30
0.0
 10
23.874250
 20
22.674809
 30
0.0
  0
LWPOLYLINE
  5
11f
100
AcDbEntity
  8
slice3
 62
7
100
AcDbPolyline
 90
17
 70
0
 10
20.672778
 20
6.570503
 30
0.0
 10
21.240919
 20
6.456288
 30
0.0
 10
21.706473
 20
6.144686
 30
0.0
 10
22.021179
 20
5.682152
 30
0.0
 10
22.136806
 20
5.115281
 30
0.0
 10
22.021179
 20
4.546998
 30
0.0
 10
21.706473
 20
4.081472
 30
0.0
 10
21.240919
 20
3.766823
 30
0.0
 10
20.672778
 20
3.651253
 30
0.0
 10
20.105906
 20
3.766823
 30
0.0
 10
19.643400
 20
4.081472
 30
0.0
 10
19.331799
 20
4.546998
 30
0.0
 10
19.217584
 20
5.115281
 30
0.0
 10
19.331799
 20
5.682152
 30
0.0
 10
19.643400
 20
6.144686
 30
0.0
 10
20.105906
 20
6.456288
 30
0.0
 10
20.672778
 20
6.570503
 30
0.0
  0
LWPOLYLINE
  5
120
100
AcDbEntity
  8
slice3
 62
7
100
AcDbPolyline
 90
17
 70
0
 10
5.106472
 20
10.133559
 30
0.0
 10
3.146580
 20
9.737657
 30
0.0
 10
1.545816
 20
8.658185
 30
0.0
 10
0.466400
 20
7.057393
 30
0.0
 10
0.070556
 20
5.097642
 30
0.0
 10
0.466400
 20
3.138991
 30
0.0
 10
1.545816
 20
1.541275
 30
0.0
 10
3.146580
 20
0.464992
 30
0.0
 10
5.106472
 20
0.070558
 30
0.0
 10
7.066365
 20
0.464992
 30
0.0
 10
8.667129
 20
1.541275
 30
0.0
 10
9.746516
 20
3.138991
 30
0.0
 10
10.142361
 20
5.097642
 30
0.0
 10
9.746516
 20
7.057393
 30
0.0
 10
8.667129
 20
8.658185
 30
0.0
 10
7.066365
 20
9.737657
 30
0.0
 10
5.106472
 20
10.133559
 30
0.0
  0
LWPOLYLINE
  5
121
100
AcDbEntity
  8
slice3
 62
7
100
AcDbPolyline
 90
17
 70
0
 10
5.106472
 20
6.623420
 30
0.0
 10
5.693410
 20
6.504915
 30
0.0
 10
6.172793
 20
6.181714
 30
0.0
 10
6.496022
 20
5.702359
 30
0.0
 10
6.614583
 20
5.115281
 30
0.0
 10
6.496022
 20
4.528202
 30
0.0
 10
6.172793
 20
4.048847
 30
0.0
 10
5.693410
 20
3.725675
 30
0.0
 10
5.106472
 20
3.607170
 30
0.0
 10
4.519535
 20
3.725675
 30
0.0
 10
4.040152
 20
4.048847
 30
0.0
 10
3.716895
 20
4.528202
 30
0.0
 10
3.598333
 20
5.115281
 30
0.0
 10
3.716895
 20
5.702359
 30
0.0
 10
4.040152
 20
6.181714
 30
0.0
 10
4.519535
 20
6.504915
 30
0.0
 10
5.106472
 20
6.623420
 30
0.0
  0
LWPOLYLINE
  5
122
100
AcDbEntity
  8
slice2
 62
7
100
AcDbPolyline
 90
145
 70
0
 10
29.703889
 20
0.070587
 30
0.0
 10
29.703889
 20
0.961336
 30
0.0
 10
29.703889
 20
1.852114
 30
0.0
 10
29.703889
 20
2.742864
 30
0.0
 10
29.703889
 20
3.633642
 30
0.0
 10
29.645638
 20
3.624470
 30
0.0
 10
29.586061
 20
3.615919
 30
0.0
 10
29.525863
 20
3.609625
 30
0.0
 10
29.465750
 20
3.607170
 30
0.0
 10
28.878812
 20
3.725731
 30
0.0
 10
28.399430
 20
4.048989
 30
0.0
 10
28.076172
 20
4.528371
 30
0.0
 10
27.957611
 20
5.115309
 30
0.0
 10
28.076172
 20
5.702303
 30
0.0
 10
28.399430
 20
6.181685
 30
0.0
 10
28.878812
 20
6.504886
 30
0.0
 10
29.465750
 20
6.623420
 30
0.0
 10
29.525807
 20
6.622347
 30
0.0
 10
29.586061
 20
6.619045
 30
0.0
 10
29.645695
 20
6.613542
 30
0.0
 10
29.703889
 20
6.605781
 30
0.0
 10
29.703889
 20
7.483323
 30
0.0
 10
29.703889
 20
8.360836
 30
0.0
 10
29.703889
 20
9.238378
 30
0.0
 10
29.703889
 20
10.115920
 30
0.0
 10
33.220632
 20
10.115920
 30
0.0
 10
36.737403
 20
10.115920
 30
0.0
 10
40.254146
 20
10.115920
 30
0.0
 10
43.770889
 20
10.115920
 30
0.0
 10
43.770889
 20
9.236177
 30
0.0
 10
43.770889
 20
8.356433
 30
0.0
 10
43.770889
 20
7.476719
 30
0.0
 10
43.770889
 20
6.596975
 30
0.0
 10
43.831228
 20
6.606515
 30
0.0
 10
43.893006
 20
6.615009
 30
0.0
 10
43.955490
 20
6.621105
 30
0.0
 10
44.017833
 20
6.623420
 30
0.0
 10
44.604630
 20
6.504802
 30
0.0
 10
45.084040
 20
6.181431
 30
0.0
 10
45.407382
 20
5.702021
 30
0.0
 10
45.525972
 20
5.115309
 30
0.0
 10
45.407382
 20
4.528512
 30
0.0
 10
45.084040
 20
4.049101
 30
0.0
 10
44.604630
 20
3.725759
 30
0.0
 10
44.017833
 20
3.607170
 30
0.0
 10
43.955547
 20
3.608129
 30
0.0
 10
43.893006
 20
3.611205
 30
0.0
 10
43.831171
 20
3.616681
 30
0.0
 10
43.770889
 20
3.624809
 30
0.0
 10
43.770889
 20
2.738461
 30
0.0
 10
43.770889
 20
1.852086
 30
0.0
 10
43.770889
 20
0.965739
 30
0.0
 10
43.770889
 20
0.079392
 30
0.0
 10
49.926861
 20
0.079392
 30
0.0
 10
56.082833
 20
0.079392
 30
0.0
 10
62.238805
 20
0.079392
 30
0.0
 10
68.394778
 20
0.079392
 30
0.0
 10
70.354670
 20
0.475237
 30
0.0
 10
71.955434
 20
1.554652
 30
0.0
 10
73.034850
 20
3.155417
 30
0.0
 10
73.430694
 20
5.115309
 30
0.0
 10
73.034850
 20
7.075342
 30
0.0
 10
71.955434
 20
8.676078
 30
0.0
 10
70.354670
 20
9.755409
 30
0.0
 10
68.394778
 20
10.151197
 30
0.0
 10
68.392576
 20
10.148996
 30
0.0
 10
68.390375
 20
10.146795
 30
0.0
 10
68.388174
 20
10.144593
 30
0.0
 10
68.385972
 20
10.142392
 30
0.0
 10
64.792042
 20
10.142392
 30
0.0
 10
61.198139
 20
10.142392
 30
0.0
 10
57.604208
 20
10.142392
 30
0.0
 10
54.010278
 20
10.142392
 30
0.0
 10
54.012479
 20
22.068482
 30
0.0
 10
54.014680
 20
33.994573
 30
0.0
 10
54.016882
 20
45.920663
 30
0.0
 10
54.019083
 20
57.846753
 30
0.0
 10
50.101048
 20
57.846753
 30
0.0
 10
46.183014
 20
57.846753
 30
0.0
 10
42.264979
 20
57.846753
 30
0.0
 10
38.346944
 20
57.846753
 30
0.0
 10
37.076944
 20
57.846753
 30
0.0
 10
35.806944
 20
57.846753
 30
0.0
 10
34.536916
 20
57.846753
 30
0.0
 10
33.266916
 20
57.846753
 30
0.0
 10
33.268920
 20
51.959315
 30
0.0
 10
33.595677
 20
47.726970
 30
0.0
 10
34.728178
 20
43.990432
 30
0.0
 10
37.147500
 20
39.590503
 30
0.0
 10
37.740872
 20
40.057891
 30
0.0
 10
38.416230
 20
40.410415
 30
0.0
 10
39.158390
 20
40.633032
 30
0.0
 10
39.952083
 20
40.710587
 30
0.0
 10
41.535689
 20
40.391365
 30
0.0
 10
42.827928
 20
39.520540
 30
0.0
 10
43.698668
 20
38.228301
 30
0.0
 10
44.017833
 20
36.644809
 30
0.0
 10
43.698668
 20
35.061034
 30
0.0
 10
42.827928
 20
33.768823
 30
0.0
 10
41.535689
 20
32.898167
 30
0.0
 10
39.952083
 20
32.579059
 30
0.0
 10
39.158390
 20
32.656613
 30
0.0
 10
38.416230
 20
32.879174
 30
0.0
 10
37.740872
 20
33.231698
 30
0.0
 10
37.147500
 20
33.699114
 30
0.0
 10
36.061763
 20
30.917645
 30
0.0
 10
33.411301
 20
28.147013
 30
0.0
 10
29.941210
 20
26.020327
 30
0.0
 10
26.396583
 20
25.170725
 30
0.0
 10
25.765986
 20
25.170725
 30
0.0
 10
25.135417
 20
25.170725
 30
0.0
 10
24.504819
 20
25.170725
 30
0.0
 10
23.874222
 20
25.170725
 30
0.0
 10
21.879616
 20
24.787468
 30
0.0
 10
20.250884
 20
23.731985
 30
0.0
 10
19.152757
 20
22.145698
 30
0.0
 10
18.750111
 20
20.170086
 30
0.0
 10
18.750111
 20
17.663163
 30
0.0
 10
18.750111
 20
15.156239
 30
0.0
 10
18.750111
 20
12.649316
 30
0.0
 10
18.750111
 20
10.142392
 30
0.0
 10
15.337000
 20
10.142392
 30
0.0
 10
11.923861
 20
10.142392
 30
0.0
 10
8.510750
 20
10.142392
 30
0.0
 10
5.097611
 20
10.142392
 30
0.0
 10
5.099812
 20
10.144593
 30
0.0
 10
5.102042
 20
10.146795
 30
0.0
 10
5.104243
 20
10.148996
 30
0.0
 10
5.106444
 20
10.151197
 30
0.0
 10
3.146552
 20
9.755409
 30
0.0
 10
1.545788
 20
8.676078
 30
0.0
 10
0.466400
 20
7.075342
 30
0.0
 10
0.070556
 20
5.115309
 30
0.0
 10
0.466400
 20
3.155417
 30
0.0
 10
1.545816
 20
1.554652
 30
0.0
 10
3.146552
 20
0.475237
 30
0.0
 10
5.106444
 20
0.079392
 30
0.0
 10
5.106444
 20
0.077191
 30
0.0
 10
5.106444
 20
0.074989
 30
0.0
 10
5.106444
 20
0.072788
 30
0.0
 10
5.106444
 20
0.070587
 30
0.0
 10
11.255812
 20
0.070587
 30
0.0
 10
17.405181
 20
0.070587
 30
0.0
 10
23.554521
 20
0.070587
 30
0.0
 10
29.703889
 20
0.070587
 30
0.0
  0
LWPOLYLINE
  5
123
100
AcDbEntity
  8
slice2
 62
7
100
AcDbPolyline
 90
17
 70
0
 10
68.394778
 20
3.607170
 30
0.0
 10
67.807840
 20
3.725731
 30
0.0
 10
67.328486
 20
4.048989
 30
0.0
 10
67.005228
 20
4.528371
 30
0.0
 10
66.886667
 20
5.115309
 30
0.0
 10
67.005228
 20
5.702303
 30
0.0
 10
67.328486
 20
6.181685
 30
0.0
 10
67.807840
 20
6.504886
 30
0.0
 10
68.394778
 20
6.623420
 30
0.0
 10
68.981715
 20
6.504886
 30
0.0
 10
69.461098
 20
6.181685
 30
0.0
 10
69.784355
 20
5.702303
 30
0.0
 10
69.902917
 20
5.115309
 30
0.0
 10
69.784355
 20
4.528371
 30
0.0
 10
69.461098
 20
4.048989
 30
0.0
 10
68.981715
 20
3.725731
 30
0.0
 10
68.394778
 20
3.607170
 30
0.0
  0
LWPOLYLINE
  5
124
100
AcDbEntity
  8
slice2
 62
7
100
AcDbPolyline
 90
17
 70
0
 10
5.097611
 20
3.607170
 30
0.0
 10
4.512056
 20
3.725731
 30
0.0
 10
4.035721
 20
4.048989
 30
0.0
 10
3.715512
 20
4.528371
 30
0.0
 10
3.598333
 20
5.115309
 30
0.0
 10
3.715512
 20
5.702303
 30
0.0
 10
4.035721
 20
6.181685
 30
0.0
 10
4.512056
 20
6.504886
 30
0.0
 10
5.097611
 20
6.623420
 30
0.0
 10
5.684548
 20
6.504886
 30
0.0
 10
6.163931
 20
6.181685
 30
0.0
 10
6.487188
 20
5.702303
 30
0.0
 10
6.605750
 20
5.115309
 30
0.0
 10
6.487188
 20
4.528371
 30
0.0
 10
6.163931
 20
4.048989
 30
0.0
 10
5.684548
 20
3.725731
 30
0.0
 10
5.097611
 20
3.607170
 30
0.0
  0
LWPOLYLINE
  5
125
100
AcDbEntity
  8
slice2
 62
7
100
AcDbPolyline
 90
17
 70
0
 10
20.549277
 20
3.660086
 30
0.0
 10
19.982547
 20
3.774330
 30
0.0
 10
19.520013
 20
4.086044
 30
0.0
 10
19.208327
 20
4.548578
 30
0.0
 10
19.094083
 20
5.115309
 30
0.0
 10
19.208327
 20
5.682124
 30
0.0
 10
19.520013
 20
6.144630
 30
0.0
 10
19.982547
 20
6.456288
 30
0.0
 10
20.549277
 20
6.570503
 30
0.0
 10
21.116177
 20
6.456288
 30
0.0
 10
21.578683
 20
6.144630
 30
0.0
 10
21.890284
 20
5.682124
 30
0.0
 10
22.004500
 20
5.115309
 30
0.0
 10
21.890284
 20
4.548578
 30
0.0
 10
21.578683
 20
4.086044
 30
0.0
 10
21.116177
 20
3.774330
 30
0.0
 10
20.549277
 20
3.660086
 30
0.0
  0
LWPOLYLINE
  5
126
100
AcDbEntity
  8
slice2
 62
7
100
AcDbPolyline
 90
21
 70
0
 10
49.318333
 20
15.107725
 30
0.0
 10
49.281306
 20
15.105637
 30
0.0
 10
49.243855
 20
15.105863
 30
0.0
 10
49.206150
 20
15.107020
 30
0.0
 10
49.168389
 20
15.107725
 30
0.0
 10
48.601630
 20
15.221941
 30
0.0
 10
48.139124
 20
15.533599
 30
0.0
 10
47.827438
 20
15.996133
 30
0.0
 10
47.713194
 20
16.562948
 30
0.0
 10
47.827438
 20
17.129763
 30
0.0
 10
48.139124
 20
17.592269
 30
0.0
 10
48.601630
 20
17.903927
 30
0.0
 10
49.168389
 20
18.018142
 30
0.0
 10
49.735260
 20
17.903927
 30
0.0
 10
50.197794
 20
17.592269
 30
0.0
 10
50.509396
 20
17.129763
 30
0.0
 10
50.623611
 20
16.562948
 30
0.0
 10
50.522971
 20
16.027826
 30
0.0
 10
50.246506
 20
15.580447
 30
0.0
 10
49.832260
 20
15.260520
 30
0.0
 10
49.318333
 20
15.107725
 30
0.0
  0
LWPOLYLINE
  5
127
100
AcDbEntity
  8
slice2
 62
7
100
AcDbPolyline
 90
17
 70
0
 10
23.874222
 20
19.667392
 30
0.0
 10
23.287454
 20
19.785982
 30
0.0
 10
22.808043
 20
20.109324
 30
0.0
 10
22.484701
 20
20.588735
 30
0.0
 10
22.366111
 20
21.175503
 30
0.0
 10
22.484701
 20
21.760917
 30
0.0
 10
22.808043
 20
22.237279
 30
0.0
 10
23.287454
 20
22.557602
 30
0.0
 10
23.874222
 20
22.674809
 30
0.0
 10
24.461018
 20
22.557602
 30
0.0
 10
24.940401
 20
22.237279
 30
0.0
 10
25.263743
 20
21.760917
 30
0.0
 10
25.382333
 20
21.175503
 30
0.0
 10
25.263743
 20
20.588735
 30
0.0
 10
24.940401
 20
20.109324
 30
0.0
 10
24.461018
 20
19.785982
 30
0.0
 10
23.874222
 20
19.667392
 30
0.0
  0
LWPOLYLINE
  5
128
100
AcDbEntity
  8
slice2
 62
7
100
AcDbPolyline
 90
17
 70
0
 10
49.168389
 20
50.076837
 30
0.0
 10
48.601489
 20
50.191024
 30
0.0
 10
48.139011
 20
50.502625
 30
0.0
 10
47.827410
 20
50.965131
 30
0.0
 10
47.713194
 20
51.532031
 30
0.0
 10
47.827410
 20
52.100313
 30
0.0
 10
48.139011
 20
52.565839
 30
0.0
 10
48.601489
 20
52.880489
 30
0.0
 10
49.168389
 20
52.996059
 30
0.0
 10
49.736784
 20
52.880489
 30
0.0
 10
50.202310
 20
52.565839
 30
0.0
 10
50.516875
 20
52.100313
 30
0.0
 10
50.632416
 20
51.532031
 30
0.0
 10
50.516875
 20
50.965131
 30
0.0
 10
50.202310
 20
50.502625
 30
0.0
 10
49.736784
 20
50.191024
 30
0.0
 10
49.168389
 20
50.076837
 30
0.0
  0
LWPOLYLINE
  5
129
100
AcDbEntity
  8
slice1
 62
7
100
AcDbPolyline
 90
109
 70
0
 10
30.047861
 20
67.565809
 30
0.0
 10
28.731154
 20
67.278733
 30
0.0
 10
27.657693
 20
66.392357
 30
0.0
 10
26.934809
 20
64.869006
 30
0.0
 10
26.670000
 20
62.671003
 30
0.0
 10
26.670000
 20
61.445086
 30
0.0
 10
26.670000
 20
60.219198
 30
0.0
 10
26.670000
 20
58.993281
 30
0.0
 10
26.670000
 20
57.767392
 30
0.0
 10
26.667799
 20
57.791635
 30
0.0
 10
26.665597
 20
57.815878
 30
0.0
 10
26.663396
 20
57.840149
 30
0.0
 10
26.661195
 20
57.864392
 30
0.0
 10
26.755259
 20
54.349907
 30
0.0
 10
27.415462
 20
51.813886
 30
0.0
 10
29.208843
 20
49.031119
 30
0.0
 10
32.702500
 20
44.776336
 30
0.0
 10
34.256528
 20
45.932206
 30
0.0
 10
36.005770
 20
46.800632
 30
0.0
 10
37.915794
 20
47.347014
 30
0.0
 10
39.952112
 20
47.536837
 30
0.0
 10
44.195182
 20
46.680207
 30
0.0
 10
47.660137
 20
44.344085
 30
0.0
 10
49.996288
 20
40.879158
 30
0.0
 10
50.852945
 20
36.636003
 30
0.0
 10
49.996288
 20
32.392990
 30
0.0
 10
47.660137
 20
28.928035
 30
0.0
 10
44.195182
 20
26.591855
 30
0.0
 10
39.952112
 20
25.735170
 30
0.0
 10
37.915794
 20
25.924993
 30
0.0
 10
36.005770
 20
26.471403
 30
0.0
 10
34.256528
 20
27.339801
 30
0.0
 10
32.702500
 20
28.495642
 30
0.0
 10
31.844996
 20
21.415589
 30
0.0
 10
29.503031
 20
15.617503
 30
0.0
 10
26.022356
 20
11.670146
 30
0.0
 10
21.748778
 20
10.142392
 30
0.0
 10
17.550723
 20
10.142392
 30
0.0
 10
13.352667
 20
10.142392
 30
0.0
 10
9.154612
 20
10.142392
 30
0.0
 10
4.956556
 20
10.142392
 30
0.0
 10
3.049806
 20
9.706839
 30
0.0
 10
1.497274
 20
8.622371
 30
0.0
 10
0.452882
 20
7.041137
 30
0.0
 10
0.070556
 20
5.115309
 30
0.0
 10
0.466400
 20
3.155558
 30
0.0
 10
1.545816
 20
1.554765
 30
0.0
 10
3.146580
 20
0.475293
 30
0.0
 10
5.106472
 20
0.079392
 30
0.0
 10
5.117507
 20
0.077191
 30
0.0
 10
5.128514
 20
0.074989
 30
0.0
 10
5.139549
 20
0.072788
 30
0.0
 10
5.150556
 20
0.070587
 30
0.0
 10
20.974840
 20
0.070587
 30
0.0
 10
36.799153
 20
0.070587
 30
0.0
 10
52.623438
 20
0.070587
 30
0.0
 10
68.447722
 20
0.070587
 30
0.0
 10
68.434486
 20
0.072788
 30
0.0
 10
68.421278
 20
0.074989
 30
0.0
 10
68.408042
 20
0.077191
 30
0.0
 10
68.394806
 20
0.079392
 30
0.0
 10
70.354698
 20
0.475180
 30
0.0
 10
71.955462
 20
1.554511
 30
0.0
 10
73.034878
 20
3.155275
 30
0.0
 10
73.430723
 20
5.115309
 30
0.0
 10
73.034878
 20
7.075060
 30
0.0
 10
71.955462
 20
8.675824
 30
0.0
 10
70.354698
 20
9.755296
 30
0.0
 10
68.394806
 20
10.151197
 30
0.0
 10
68.372764
 20
10.148996
 30
0.0
 10
68.350723
 20
10.146795
 30
0.0
 10
68.328653
 20
10.144593
 30
0.0
 10
68.306611
 20
10.142392
 30
0.0
 10
67.556973
 20
10.142392
 30
0.0
 10
66.807306
 20
10.142392
 30
0.0
 10
66.057667
 20
10.142392
 30
0.0
 10
65.308000
 20
10.142392
 30
0.0
 10
65.305799
 20
10.140191
 30
0.0
 10
65.303598
 20
10.137961
 30
0.0
 10
65.301368
 20
10.135760
 30
0.0
 10
65.299167
 20
10.133559
 30
0.0
 10
60.936547
 20
11.575404
 30
0.0
 10
57.347922
 20
15.508650
 30
0.0
 10
54.914913
 20
21.344865
 30
0.0
 10
54.019111
 20
28.495642
 30
0.0
 10
54.019111
 20
28.500045
 30
0.0
 10
54.019111
 20
28.504447
 30
0.0
 10
54.019111
 20
28.508878
 30
0.0
 10
54.019111
 20
28.513281
 30
0.0
 10
54.019111
 20
35.844455
 30
0.0
 10
54.019111
 20
43.175600
 30
0.0
 10
54.019111
 20
50.506774
 30
0.0
 10
54.019111
 20
57.837948
 30
0.0
 10
50.019486
 20
57.837948
 30
0.0
 10
46.019889
 20
57.837948
 30
0.0
 10
42.020264
 20
57.837948
 30
0.0
 10
38.020639
 20
57.837948
 30
0.0
 10
38.058118
 20
59.046197
 30
0.0
 10
38.095597
 20
60.254475
 30
0.0
 10
38.133076
 20
61.462725
 30
0.0
 10
38.170556
 20
62.671003
 30
0.0
 10
37.935775
 20
64.754593
 30
0.0
 10
37.290897
 20
66.241030
 30
0.0
 10
36.325189
 20
67.161751
 30
0.0
 10
35.127861
 20
67.548170
 30
0.0
 10
33.857861
 20
67.552573
 30
0.0
 10
32.587861
 20
67.556975
 30
0.0
 10
31.317861
 20
67.561406
 30
0.0
 10
30.047861
 20
67.565809
 30
0.0
  0
LWPOLYLINE
  5
12a
100
AcDbEntity
  8
slice1
 62
7
100
AcDbPolyline
 90
17
 70
0
 10
49.177222
 20
52.996059
 30
0.0
 10
49.743981
 20
52.881843
 30
0.0
 10
50.206515
 20
52.570242
 30
0.0
 10
50.518201
 20
52.107764
 30
0.0
 10
50.632445
 20
51.540864
 30
0.0
 10
50.518201
 20
50.972666
 30
0.0
 10
50.206515
 20
50.507113
 30
0.0
 10
49.743981
 20
50.192435
 30
0.0
 10
49.177222
 20
50.076837
 30
0.0
 10
48.610351
 20
50.192435
 30
0.0
 10
48.147845
 20
50.507113
 30
0.0
 10
47.836243
 20
50.972666
 30
0.0
 10
47.722028
 20
51.540864
 30
0.0
 10
47.836243
 20
52.107764
 30
0.0
 10
48.147845
 20
52.570242
 30
0.0
 10
48.610351
 20
52.881843
 30
0.0
 10
49.177222
 20
52.996059
 30
0.0
  0
LWPOLYLINE
  5
12b
100
AcDbEntity
  8
slice1
 62
7
100
AcDbPolyline
 90
17
 70
0
 10
49.177222
 20
18.026975
 30
0.0
 10
49.743981
 20
17.912760
 30
0.0
 10
50.206515
 20
17.601159
 30
0.0
 10
50.518201
 20
17.138653
 30
0.0
 10
50.632445
 20
16.571753
 30
0.0
 10
50.518201
 20
16.003499
 30
0.0
 10
50.206515
 20
15.537945
 30
0.0
 10
49.743981
 20
15.223323
 30
0.0
 10
49.177222
 20
15.107725
 30
0.0
 10
48.610351
 20
15.223323
 30
0.0
 10
48.147845
 20
15.537945
 30
0.0
 10
47.836243
 20
16.003499
 30
0.0
 10
47.722028
 20
16.571753
 30
0.0
 10
47.836243
 20
17.138653
 30
0.0
 10
48.147845
 20
17.601159
 30
0.0
 10
48.610351
 20
17.912760
 30
0.0
 10
49.177222
 20
18.026975
 30
0.0
  0
LWPOLYLINE
  5
12c
100
AcDbEntity
  8
slice1
 62
7
100
AcDbPolyline
 90
17
 70
0
 10
5.106472
 20
6.623420
 30
0.0
 10
5.693410
 20
6.504830
 30
0.0
 10
6.172793
 20
6.181488
 30
0.0
 10
6.496050
 20
5.702077
 30
0.0
 10
6.614612
 20
5.115309
 30
0.0
 10
6.496050
 20
4.528230
 30
0.0
 10
6.172793
 20
4.048847
 30
0.0
 10
5.693410
 20
3.725675
 30
0.0
 10
5.106472
 20
3.607170
 30
0.0
 10
4.519676
 20
3.725675
 30
0.0
 10
4.040293
 20
4.048847
 30
0.0
 10
3.716923
 20
4.528230
 30
0.0
 10
3.598333
 20
5.115309
 30
0.0
 10
3.716923
 20
5.702077
 30
0.0
 10
4.040293
 20
6.181488
 30
0.0
 10
4.519676
 20
6.504830
 30
0.0
 10
5.106472
 20
6.623420
 30
0.0
  0
LWPOLYLINE
  5
12d
100
AcDbEntity
  8
slice1
 62
7
100
AcDbPolyline
 90
17
 70
0
 10
68.394806
 20
6.623420
 30
0.0
 10
68.981461
 20
6.504717
 30
0.0
 10
69.460872
 20
6.181234
 30
0.0
 10
69.784299
 20
5.701795
 30
0.0
 10
69.902945
 20
5.115309
 30
0.0
 10
69.784299
 20
4.528512
 30
0.0
 10
69.460872
 20
4.049101
 30
0.0
 10
68.981461
 20
3.725759
 30
0.0
 10
68.394806
 20
3.607170
 30
0.0
 10
67.809392
 20
3.725759
 30
0.0
 10
67.333029
 20
4.049101
 30
0.0
 10
67.012707
 20
4.528512
 30
0.0
 10
66.895500
 20
5.115309
 30
0.0
 10
67.012707
 20
5.701795
 30
0.0
 10
67.333029
 20
6.181234
 30
0.0
 10
67.809392
 20
6.504717
 30
0.0
 10
68.394806
 20
6.623420
 30
0.0
  0
LWPOLYLINE
  5
12e
100
AcDbEntity
  8
slice1
 62
7
100
AcDbPolyline
 90
17
 70
0
 10
29.474612
 20
6.614614
 30
0.0
 10
30.061380
 20
6.496025
 30
0.0
 10
30.540791
 20
6.172683
 30
0.0
 10
30.864133
 20
5.693272
 30
0.0
 10
30.982722
 20
5.106475
 30
0.0
 10
30.864133
 20
4.519707
 30
0.0
 10
30.540791
 20
4.040296
 30
0.0
 10
30.061380
 20
3.716954
 30
0.0
 10
29.474612
 20
3.598364
 30
0.0
 10
28.887956
 20
3.716954
 30
0.0
 10
28.408545
 20
4.040296
 30
0.0
 10
28.085119
 20
4.519707
 30
0.0
 10
27.966472
 20
5.106475
 30
0.0
 10
28.085119
 20
5.693272
 30
0.0
 10
28.408545
 20
6.172683
 30
0.0
 10
28.887956
 20
6.496025
 30
0.0
 10
29.474612
 20
6.614614
 30
0.0
  0
LWPOLYLINE
  5
12f
100
AcDbEntity
  8
slice1
 62
7
100
AcDbPolyline
 90
17
 70
0
 10
44.017861
 20
6.614614
 30
0.0
 10
44.604658
 20
6.496025
 30
0.0
 10
45.084069
 20
6.172683
 30
0.0
 10
45.407411
 20
5.693272
 30
0.0
 10
45.526000
 20
5.106475
 30
0.0
 10
45.407411
 20
4.519707
 30
0.0
 10
45.084069
 20
4.040296
 30
0.0
 10
44.604658
 20
3.716954
 30
0.0
 10
44.017861
 20
3.598364
 30
0.0
 10
43.432307
 20
3.716954
 30
0.0
 10
42.955972
 20
4.040296
 30
0.0
 10
42.635734
 20
4.519707
 30
0.0
 10
42.518556
 20
5.106475
 30
0.0
 10
42.635734
 20
5.693272
 30
0.0
 10
42.955972
 20
6.172683
 30
0.0
 10
43.432307
 20
6.496025
 30
0.0
 10
44.017861
 20
6.614614
 30
0.0
  0
LWPOLYLINE
  5
130
100
AcDbEntity
  8
slice1
 62
7
100
AcDbPolyline
 90
17
 70
0
 10
20.558139
 20
6.570503
 30
0.0
 10
21.124870
 20
6.456203
 30
0.0
 10
21.587404
 20
6.144432
 30
0.0
 10
21.899090
 20
5.681898
 30
0.0
 10
22.013333
 20
5.115309
 30
0.0
 10
21.899090
 20
4.548409
 30
0.0
 10
21.587404
 20
4.085903
 30
0.0
 10
21.124870
 20
3.774302
 30
0.0
 10
20.558139
 20
3.660086
 30
0.0
 10
19.989998
 20
3.774302
 30
0.0
 10
19.524472
 20
4.085903
 30
0.0
 10
19.209738
 20
4.548409
 30
0.0
 10
19.094111
 20
5.115309
 30
0.0
 10
19.209738
 20
5.681898
 30
0.0
 10
19.524472
 20
6.144432
 30
0.0
 10
19.989998
 20
6.456203
 30
0.0
 10
20.558139
 20
6.570503
 30
0.0
  0
LWPOLYLINE
  5
131
100
AcDbEntity
  8
handle
 62
7
100
AcDbPolyline
 90
49
 70
0
 10
4.303889
 20
19.067667
 30
0.0
 10
2.656164
 20
18.759661
 30
0.0
 10
1.310541
 20
18.002315
 30
0.0
 10
0.403259
 20
17.045630
 30
0.0
 10
0.070556
 20
16.139612
 30
0.0
 10
0.070556
 20
15.819905
 30
0.0
 10
0.070556
 20
15.500195
 30
0.0
 10
0.070556
 20
15.180488
 30
0.0
 10
0.070556
 20
14.860778
 30
0.0
 10
2.319027
 20
12.764299
 30
0.0
 10
3.070782
 20
10.090373
 30
0.0
 10
2.322424
 20
7.499773
 30
0.0
 10
0.070556
 20
5.653278
 30
0.0
 10
0.070556
 20
4.738257
 30
0.0
 10
0.070556
 20
3.823236
 30
0.0
 10
0.070556
 20
2.908215
 30
0.0
 10
0.070556
 20
1.993194
 30
0.0
 10
0.403259
 20
1.244261
 30
0.0
 10
1.310541
 20
0.633191
 30
0.0
 10
2.656164
 20
0.221460
 30
0.0
 10
4.303889
 20
0.070556
 30
0.0
 10
9.061986
 20
0.070556
 30
0.0
 10
13.820084
 20
0.070556
 30
0.0
 10
18.578181
 20
0.070556
 30
0.0
 10
23.336278
 20
0.070556
 30
0.0
 10
24.992421
 20
0.221460
 30
0.0
 10
26.356208
 20
0.633191
 30
0.0
 10
27.281585
 20
1.244261
 30
0.0
 10
27.622500
 20
1.993194
 30
0.0
 10
27.622500
 20
2.932467
 30
0.0
 10
27.622500
 20
3.871736
 30
0.0
 10
27.622500
 20
4.811008
 30
0.0
 10
27.622500
 20
5.750278
 30
0.0
 10
25.362379
 20
7.596776
 30
0.0
 10
24.595840
 20
10.187376
 30
0.0
 10
25.329408
 20
12.861310
 30
0.0
 10
27.569612
 20
14.957806
 30
0.0
 10
27.569612
 20
15.253259
 30
0.0
 10
27.569612
 20
15.548709
 30
0.0
 10
27.569612
 20
15.844162
 30
0.0
 10
27.569612
 20
16.139612
 30
0.0
 10
27.236960
 20
17.045630
 30
0.0
 10
26.329763
 20
18.002315
 30
0.0
 10
24.984157
 20
18.759661
 30
0.0
 10
23.336278
 20
19.067667
 30
0.0
 10
18.578181
 20
19.067667
 30
0.0
 10
13.820084
 20
19.067667
 30
0.0
 10
9.061986
 20
19.067667
 30
0.0
 10
4.303889
 20
19.067667
 30
0.0
  0
LWPOLYLINE
  5
132
100
AcDbEntity
  8
handle
 62
7
100
AcDbPolyline
 90
25
 70
0
 10
8.501944
 20
7.346611
 30
0.0
 10
9.182482
 20
7.233706
 30
0.0
 10
9.737468
 20
6.925731
 30
0.0
 10
10.111261
 20
6.468799
 30
0.0
 10
10.248223
 20
5.909028
 30
0.0
 10
10.248223
 20
5.434988
 30
0.0
 10
10.248223
 20
4.960945
 30
0.0
 10
10.248223
 20
4.486904
 30
0.0
 10
10.248223
 20
4.012861
 30
0.0
 10
10.111261
 20
3.451713
 30
0.0
 10
9.737468
 20
2.991756
 30
0.0
 10
9.182482
 20
2.680756
 30
0.0
 10
8.501944
 20
2.566472
 30
0.0
 10
7.819916
 20
2.680756
 30
0.0
 10
7.261927
 20
2.991756
 30
0.0
 10
6.885183
 20
3.451713
 30
0.0
 10
6.746889
 20
4.012861
 30
0.0
 10
6.746889
 20
4.486904
 30
0.0
 10
6.746889
 20
4.960945
 30
0.0
 10
6.746889
 20
5.434988
 30
0.0
 10
6.746889
 20
5.909028
 30
0.0
 10
6.885183
 20
6.468799
 30
0.0
 10
7.261927
 20
6.925731
 30
0.0
 10
7.819916
 20
7.233706
 30
0.0
 10
8.501944
 20
7.346611
 30
0.0
  0
LWPOLYLINE
  5
133
100
AcDbEntity
  8
handle
 62
7
100
AcDbPolyline
 90
25
 70
0
 10
19.499806
 20
7.346611
 30
0.0
 10
20.180327
 20
7.233706
 30
0.0
 10
20.735304
 20
6.925731
 30
0.0
 10
21.109094
 20
6.468799
 30
0.0
 10
21.246056
 20
5.909028
 30
0.0
 10
21.246056
 20
5.434988
 30
0.0
 10
21.246056
 20
4.960945
 30
0.0
 10
21.246056
 20
4.486904
 30
0.0
 10
21.246056
 20
4.012861
 30
0.0
 10
21.109094
 20
3.451713
 30
0.0
 10
20.735304
 20
2.991756
 30
0.0
 10
20.180327
 20
2.680756
 30
0.0
 10
19.499806
 20
2.566472
 30
0.0
 10
18.817749
 20
2.680756
 30
0.0
 10
18.259753
 20
2.991756
 30
0.0
 10
17.883013
 20
3.451713
 30
0.0
 10
17.744722
 20
4.012861
 30
0.0
 10
17.744722
 20
4.486904
 30
0.0
 10
17.744722
 20
4.960945
 30
0.0
 10
17.744722
 20
5.434988
 30
0.0
 10
17.744722
 20
5.909028
 30
0.0
 10
17.883013
 20
6.468799
 30
0.0
 10
18.259753
 20
6.925731
 30
0.0
 10
18.817749
 20
7.233706
 30
0.0
 10
19.499806
 20
7.346611
 30
0.0
  0
SPLINE
  5
134
100
AcDbEntity
  8
idler
 62
7
100
AcDbSpline
 70
8
 71
3
 72
8
 73
4
 74
0
 40
0
 40
0
 40
0
 40
0
 40
1
 40
1
 40
1
 40
1
 10
22.436780
 20
20.710429
 30
0.0
 10
22.432857
 20
20.722536
 30
0.0
 10
22.429583
 20
20.734587
 30
0.0
 10
22.426732
 20
20.746610
 30
0.0
  0
SPLINE
  5
135
100
AcDbEntity
  8
idler
 62
7
100
AcDbSpline
 70
8
 71
3
 72
8
 73
4
 74
0
 40
0
 40
0
 40
0
 40
0
 40
1
 40
1
 40
1
 40
1
 10
22.426732
 20
20.746610
 30
0.0
 10
22.423882
 20
20.758661
 30
0.0
 10
22.421455
 20
20.770683
 30
0.0
 10
22.419169
 20
20.782791
 30
0.0
  0
SPLINE
  5
136
100
AcDbEntity
  8
idler
 62
7
100
AcDbSpline
 70
8
 71
3
 72
8
 73
4
 74
0
 40
0
 40
0
 40
0
 40
0
 40
1
 40
1
 40
1
 40
1
 10
22.419169
 20
20.782791
 30
0.0
 10
22.416883
 20
20.794898
 30
0.0
 10
22.414738
 20
20.807090
 30
0.0
 10
22.412480
 20
20.819423
 30
0.0
  0
SPLINE
  5
137
100
AcDbEntity
  8
idler
 62
7
100
AcDbSpline
 70
8
 71
3
 72
8
 73
4
 74
0
 40
0
 40
0
 40
0
 40
0
 40
1
 40
1
 40
1
 40
1
 10
22.412480
 20
20.819423
 30
0.0
 10
22.410222
 20
20.831756
 30
0.0
 10
22.407824
 20
20.844231
 30
0.0
 10
22.405086
 20
20.856959
 30
0.0
  0
SPLINE
  5
138
100
AcDbEntity
  8
idler
 62
7
100
AcDbSpline
 70
8
 71
3
 72
8
 73
4
 74
0
 40
0
 40
0
 40
0
 40
0
 40
1
 40
1
 40
1
 40
1
 10
22.405086
 20
20.856959
 30
0.0
 10
22.361116
 20
21.060328
 30
0.0
 10
22.360438
 20
21.263077
 30
0.0
 10
22.396902
 20
21.455552
 30
0.0
  0
SPLINE
  5
139
100
AcDbEntity
  8
idler
 62
7
100
AcDbSpline
 70
8
 71
3
 72
8
 73
4
 74
0
 40
0
 40
0
 40
0
 40
0
 40
1
 40
1
 40
1
 40
1
 10
22.396902
 20
21.455552
 30
0.0
 10
22.433336
 20
21.647999
 30
0.0
 10
22.506940
 20
21.830174
 30
0.0
 10
22.611447
 20
21.992423
 30
0.0
  0
SPLINE
  5
13a
100
AcDbEntity
  8
idler
 62
7
100
AcDbSpline
 70
8
 71
3
 72
8
 73
4
 74
0
 40
0
 40
0
 40
0
 40
0
 40
1
 40
1
 40
1
 40
1
 10
22.611447
 20
21.992423
 30
0.0
 10
22.715982
 20
22.154673
 30
0.0
 10
22.851420
 20
22.297026
 30
0.0
 10
23.011666
 20
22.409802
 30
0.0
  0
SPLINE
  5
13b
100
AcDbEntity
  8
idler
 62
7
100
AcDbSpline
 70
8
 71
3
 72
8
 73
4
 74
0
 40
0
 40
0
 40
0
 40
0
 40
1
 40
1
 40
1
 40
1
 10
23.011666
 20
22.409802
 30
0.0
 10
23.171884
 20
22.522578
 30
0.0
 10
23.356852
 20
22.605777
 30
0.0
 10
23.560419
 20
22.649804
 30
0.0
  0
SPLINE
  5
13c
100
AcDbEntity
  8
idler
 62
7
100
AcDbSpline
 70
8
 71
3
 72
8
 73
4
 74
0
 40
0
 40
0
 40
0
 40
0
 40
1
 40
1
 40
1
 40
1
 10
23.560419
 20
22.649804
 30
0.0
 10
23.763788
 20
22.693774
 30
0.0
 10
23.966537
 20
22.694395
 30
0.0
 10
24.159012
 20
22.657903
 30
0.0
  0
SPLINE
  5
13d
100
AcDbEntity
  8
idler
 62
7
100
AcDbSpline
 70
8
 71
3
 72
8
 73
4
 74
0
 40
0
 40
0
 40
0
 40
0
 40
1
 40
1
 40
1
 40
1
 10
24.159012
 20
22.657903
 30
0.0
 10
24.351460
 20
22.621384
 30
0.0
 10
24.533634
 20
22.547752
 30
0.0
 10
24.695912
 20
22.443189
 30
0.0
  0
SPLINE
  5
13e
100
AcDbEntity
  8
idler
 62
7
100
AcDbSpline
 70
8
 71
3
 72
8
 73
4
 74
0
 40
0
 40
0
 40
0
 40
0
 40
1
 40
1
 40
1
 40
1
 10
24.695912
 20
22.443189
 30
0.0
 10
24.858162
 20
22.338625
 30
0.0
 10
25.000514
 20
22.203131
 30
0.0
 10
25.113262
 20
22.042941
 30
0.0
  0
SPLINE
  5
13f
100
AcDbEntity
  8
idler
 62
7
100
AcDbSpline
 70
8
 71
3
 72
8
 73
4
 74
0
 40
0
 40
0
 40
0
 40
0
 40
1
 40
1
 40
1
 40
1
 10
25.113262
 20
22.042941
 30
0.0
 10
25.226038
 20
21.882752
 30
0.0
 10
25.309237
 20
21.697868
 30
0.0
 10
25.353236
 20
21.494499
 30
0.0
  0
SPLINE
  5
140
100
AcDbEntity
  8
idler
 62
7
100
AcDbSpline
 70
8
 71
3
 72
8
 73
4
 74
0
 40
0
 40
0
 40
0
 40
0
 40
1
 40
1
 40
1
 40
1
 10
25.353236
 20
21.494499
 30
0.0
 10
25.397234
 20
21.291017
 30
0.0
 10
25.397855
 20
21.088240
 30
0.0
 10
25.361364
 20
20.895736
 30
0.0
  0
SPLINE
  5
141
100
AcDbEntity
  8
idler
 62
7
100
AcDbSpline
 70
8
 71
3
 72
8
 73
4
 74
0
 40
0
 40
0
 40
0
 40
0
 40
1
 40
1
 40
1
 40
1
 10
25.361364
 20
20.895736
 30
0.0
 10
25.324844
 20
20.703261
 30
0.0
 10
25.251212
 20
20.521086
 30
0.0
 10
25.146649
 20
20.358837
 30
0.0
  0
SPLINE
  5
142
100
AcDbEntity
  8
idler
 62
7
100
AcDbSpline
 70
8
 71
3
 72
8
 73
4
 74
0
 40
0
 40
0
 40
0
 40
0
 40
1
 40
1
 40
1
 40
1
 10
25.146649
 20
20.358837
 30
0.0
 10
25.042086
 20
20.196615
 30
0.0
 10
24.906591
 20
20.054291
 30
0.0
 10
24.746402
 20
19.941571
 30
0.0
  0
SPLINE
  5
143
100
AcDbEntity
  8
idler
 62
7
100
AcDbSpline
 70
8
 71
3
 72
8
 73
4
 74
0
 40
0
 40
0
 40
0
 40
0
 40
1
 40
1
 40
1
 40
1
 10
24.746402
 20
19.941571
 30
0.0
 10
24.586212
 20
19.828823
 30
0.0
 10
24.401300
 20
19.745652
 30
0.0
 10
24.197931
 20
19.701682
 30
0.0
  0
SPLINE
  5
144
100
AcDbEntity
  8
idler
 62
7
100
AcDbSpline
 70
8
 71
3
 72
8
 73
4
 74
0
 40
0
 40
0
 40
0
 40
0
 40
1
 40
1
 40
1
 40
1
 10
24.197931
 20
19.701682
 30
0.0
 10
24.007092
 20
19.660421
 30
0.0
 10
23.816366
 20
19.657401
 30
0.0
 10
23.633938
 20
19.687458
 30
0.0
  0
SPLINE
  5
145
100
AcDbEntity
  8
idler
 62
7
100
AcDbSpline
 70
8
 71
3
 72
8
 73
4
 74
0
 40
0
 40
0
 40
0
 40
0
 40
1
 40
1
 40
1
 40
1
 10
23.633938
 20
19.687458
 30
0.0
 10
23.451481
 20
19.717515
 30
0.0
 10
23.277350
 20
19.780620
 30
0.0
 10
23.119673
 20
19.871608
 30
0.0
  0
SPLINE
  5
146
100
AcDbEntity
  8
idler
 62
7
100
AcDbSpline
 70
8
 71
3
 72
8
 73
4
 74
0
 40
0
 40
0
 40
0
 40
0
 40
1
 40
1
 40
1
 40
1
 10
23.119673
 20
19.871608
 30
0.0
 10
22.961995
 20
19.962597
 30
0.0
 10
22.820771
 20
20.081469
 30
0.0
 10
22.704242
 20
20.223003
 30
0.0
  0
SPLINE
  5
147
100
AcDbEntity
  8
idler
 62
7
100
AcDbSpline
 70
8
 71
3
 72
8
 73
4
 74
0
 40
0
 40
0
 40
0
 40
0
 40
1
 40
1
 40
1
 40
1
 10
22.704242
 20
20.223003
 30
0.0
 10
22.587684
 20
20.364509
 30
0.0
 10
22.495820
 20
20.528734
 30
0.0
 10
22.436780
 20
20.710429
 30
0.0
  0
LWPOLYLINE
  5
148
100
AcDbEntity
  8
idler
 62
7
100
AcDbPolyline
 90
137
 70
0
 10
-2.118388
 20
43.255300
 30
0.0
 10
-0.725226
 20
43.270088
 30
0.0
 10
0.667935
 20
43.284848
 30
0.0
 10
2.061097
 20
43.299637
 30
0.0
 10
3.454259
 20
43.314425
 30
0.0
 10
3.453638
 20
41.439679
 30
0.0
 10
3.452989
 20
39.564962
 30
0.0
 10
3.452368
 20
37.690216
 30
0.0
 10
3.451719
 20
35.815499
 30
0.0
 10
3.434644
 20
35.800541
 30
0.0
 10
3.417598
 20
35.785583
 30
0.0
 10
3.400524
 20
35.770597
 30
0.0
 10
3.383449
 20
35.755639
 30
0.0
 10
3.892522
 20
34.358131
 30
0.0
 10
4.606911
 20
32.834837
 30
0.0
 10
5.504632
 20
31.215587
 30
0.0
 10
6.563727
 20
29.530099
 30
0.0
 10
7.762184
 20
27.808205
 30
0.0
 10
9.078016
 20
26.079679
 30
0.0
 10
10.489269
 20
24.374266
 30
0.0
 10
11.973927
 20
22.721770
 30
0.0
 10
13.510034
 20
21.151994
 30
0.0
 10
15.075577
 20
19.694683
 30
0.0
 10
16.648599
 20
18.379640
 30
0.0
 10
18.207087
 20
17.236640
 30
0.0
 10
19.729083
 20
16.295486
 30
0.0
 10
21.192631
 20
15.585923
 30
0.0
 10
22.575689
 20
15.137754
 30
0.0
 10
23.856301
 20
14.980782
 30
0.0
 10
26.269047
 20
15.464652
 30
0.0
 10
28.240877
 20
16.789770
 30
0.0
 10
29.571781
 20
18.757254
 30
0.0
 10
30.061718
 20
21.168250
 30
0.0
 10
29.565741
 20
24.275545
 30
0.0
 10
29.069736
 20
27.382811
 30
0.0
 10
28.573758
 20
30.490106
 30
0.0
 10
28.077753
 20
33.597401
 30
0.0
 10
27.823922
 20
33.707186
 30
0.0
 10
27.570063
 20
33.816970
 30
0.0
 10
27.316232
 20
33.926755
 30
0.0
 10
27.062374
 20
34.036539
 30
0.0
 10
26.667460
 20
33.683169
 30
0.0
 10
26.221803
 20
33.388472
 30
0.0
 10
25.729099
 20
33.158856
 30
0.0
 10
25.192990
 20
33.000671
 30
0.0
 10
23.723318
 20
32.979617
 30
0.0
 10
22.405142
 20
33.504240
 30
0.0
 10
21.380506
 20
34.484285
 30
0.0
 10
20.791452
 20
35.829581
 30
0.0
 10
20.771725
 20
37.299423
 30
0.0
 10
21.299226
 20
38.618219
 30
0.0
 10
22.282235
 20
39.643561
 30
0.0
 10
23.628999
 20
40.232982
 30
0.0
 10
24.627445
 20
40.310254
 30
0.0
 10
25.577631
 20
40.125229
 30
0.0
 10
26.436715
 20
39.706863
 30
0.0
 10
27.161942
 20
39.084055
 30
0.0
 10
27.347164
 20
39.270745
 30
0.0
 10
27.532386
 20
39.457407
 30
0.0
 10
27.717581
 20
39.644097
 30
0.0
 10
27.902803
 20
39.830787
 30
0.0
 10
27.146730
 20
42.359611
 30
0.0
 10
26.328370
 20
44.911267
 30
0.0
 10
25.438918
 20
47.460100
 30
0.0
 10
24.469598
 20
49.980486
 30
0.0
 10
23.411575
 20
52.446798
 30
0.0
 10
22.256044
 20
54.833410
 30
0.0
 10
20.994201
 20
57.114669
 30
0.0
 10
19.617267
 20
59.264948
 30
0.0
 10
18.116409
 20
61.258622
 30
0.0
 10
16.482878
 20
63.070094
 30
0.0
 10
14.707814
 20
64.673680
 30
0.0
 10
12.782437
 20
66.043785
 30
0.0
 10
10.697944
 20
67.154752
 30
0.0
 10
8.445500
 20
67.980986
 30
0.0
 10
6.016357
 20
68.496804
 30
0.0
 10
3.401681
 20
68.676607
 30
0.0
 10
3.401201
 20
65.820631
 30
0.0
 10
3.400721
 20
62.964627
 30
0.0
 10
3.400213
 20
60.108651
 30
0.0
 10
3.399734
 20
57.252675
 30
0.0
 10
2.025340
 20
57.255469
 30
0.0
 10
0.650917
 20
57.258263
 30
0.0
 10
-0.723477
 20
57.261085
 30
0.0
 10
-2.097871
 20
57.263879
 30
0.0
 10
-2.099564
 20
55.957388
 30
0.0
 10
-2.101257
 20
54.650897
 30
0.0
 10
-2.102979
 20
53.344434
 30
0.0
 10
-2.104672
 20
52.037942
 30
0.0
 10
-0.245505
 20
52.036193
 30
0.0
 10
1.613690
 20
52.034443
 30
0.0
 10
3.472857
 20
52.032721
 30
0.0
 10
5.332024
 20
52.030971
 30
0.0
 10
5.331601
 20
52.585792
 30
0.0
 10
5.331178
 20
53.140641
 30
0.0
 10
5.330726
 20
53.695462
 30
0.0
 10
5.330303
 20
54.250311
 30
0.0
 10
6.061174
 20
54.250452
 30
0.0
 10
6.792016
 20
54.250593
 30
0.0
 10
7.522887
 20
54.250734
 30
0.0
 10
8.253730
 20
54.250875
 30
0.0
 10
8.252460
 20
53.693401
 30
0.0
 10
8.251218
 20
53.135956
 30
0.0
 10
8.249948
 20
52.578483
 30
0.0
 10
8.248678
 20
52.021037
 30
0.0
 10
8.837253
 20
52.021997
 30
0.0
 10
9.425827
 20
52.022928
 30
0.0
 10
10.014402
 20
52.023888
 30
0.0
 10
10.602976
 20
52.024847
 30
0.0
 10
10.601254
 20
51.135678
 30
0.0
 10
10.599533
 20
50.246509
 30
0.0
 10
10.597811
 20
49.357339
 30
0.0
 10
10.596090
 20
48.468170
 30
0.0
 10
10.009688
 20
48.467690
 30
0.0
 10
9.423287
 20
48.467210
 30
0.0
 10
8.836858
 20
48.466731
 30
0.0
 10
8.250456
 20
48.466251
 30
0.0
 10
8.248735
 20
47.910950
 30
0.0
 10
8.246985
 20
47.355622
 30
0.0
 10
8.245263
 20
46.800321
 30
0.0
 10
8.243514
 20
46.245021
 30
0.0
 10
7.514816
 20
46.245331
 30
0.0
 10
6.786118
 20
46.245642
 30
0.0
 10
6.057392
 20
46.245980
 30
0.0
 10
5.328694
 20
46.246291
 30
0.0
 10
5.327819
 20
46.803285
 30
0.0
 10
5.326916
 20
47.360278
 30
0.0
 10
5.326041
 20
47.917272
 30
0.0
 10
5.325138
 20
48.474266
 30
0.0
 10
3.465971
 20
48.476016
 30
0.0
 10
1.606776
 20
48.477765
 30
0.0
 10
-0.252391
 20
48.479515
 30
0.0
 10
-2.111587
 20
48.481265
 30
0.0
 10
-2.113280
 20
47.174774
 30
0.0
 10
-2.114973
 20
45.868282
 30
0.0
 10
-2.116695
 20
44.561791
 30
0.0
 10
-2.118388
 20
43.255300
 30
0.0
  0
LWPOLYLINE
  5
149
100
AcDbEntity
  8
idler
 62
7
100
AcDbPolyline
 90
2
 70
0
 10
22.436780
 20
20.710429
 30
0.0
 10
22.436780
 20
20.710429
 30
0.0
  0
LWPOLYLINE
  5
14a
100
AcDbEntity
  8
idler2
 62
7
100
AcDbPolyline
 90
33
 70
0
 10
4.303889
 20
34.325278
 30
0.0
 10
2.656081
 20
33.992603
 30
0.0
 10
1.310467
 20
33.085365
 30
0.0
 10
0.403231
 20
31.739753
 30
0.0
 10
0.070556
 20
30.091944
 30
0.0
 10
0.070556
 20
23.644931
 30
0.0
 10
0.070556
 20
17.197917
 30
0.0
 10
0.070556
 20
10.750903
 30
0.0
 10
0.070556
 20
4.303889
 30
0.0
 10
0.403255
 20
2.655866
 30
0.0
 10
1.310532
 20
1.310276
 30
0.0
 10
2.656154
 20
0.403160
 30
0.0
 10
4.303889
 20
0.070556
 30
0.0
 10
10.938316
 20
0.070556
 30
0.0
 10
17.572743
 20
0.070556
 30
0.0
 10
24.207170
 20
0.070556
 30
0.0
 10
30.841597
 20
0.070556
 30
0.0
 10
32.489479
 20
0.403160
 30
0.0
 10
33.835083
 20
1.310276
 30
0.0
 10
34.742281
 20
2.655866
 30
0.0
 10
35.074931
 20
4.303889
 30
0.0
 10
35.074931
 20
10.750903
 30
0.0
 10
35.074931
 20
17.197917
 30
0.0
 10
35.074931
 20
23.644931
 30
0.0
 10
35.074931
 20
30.091944
 30
0.0
 10
34.742281
 20
31.739679
 30
0.0
 10
33.835083
 20
33.085301
 30
0.0
 10
32.489479
 20
33.992577
 30
0.0
 10
30.841597
 20
34.325278
 30
0.0
 10
24.207170
 20
34.325278
 30
0.0
 10
17.572743
 20
34.325278
 30
0.0
 10
10.938316
 20
34.325278
 30
0.0
 10
4.303889
 20
34.325278
 30
0.0
  0
LWPOLYLINE
  5
14b
100
AcDbEntity
  8
idler2
 62
7
100
AcDbPolyline
 90
25
 70
0
 10
12.250208
 20
31.035625
 30
0.0
 10
12.930738
 20
30.897336
 30
0.0
 10
13.485714
 20
30.520600
 30
0.0
 10
13.859500
 20
29.962610
 30
0.0
 10
13.996458
 20
29.280556
 30
0.0
 10
13.996458
 20
28.705088
 30
0.0
 10
13.996458
 20
28.129619
 30
0.0
 10
13.996458
 20
27.554149
 30
0.0
 10
13.996458
 20
26.978681
 30
0.0
 10
13.859500
 20
26.298003
 30
0.0
 10
13.485714
 20
25.743044
 30
0.0
 10
12.930738
 20
25.369339
 30
0.0
 10
12.250208
 20
25.232431
 30
0.0
 10
11.568154
 20
25.369339
 30
0.0
 10
11.010163
 20
25.743044
 30
0.0
 10
10.633427
 20
26.298003
 30
0.0
 10
10.495139
 20
26.978681
 30
0.0
 10
10.495139
 20
27.554149
 30
0.0
 10
10.495139
 20
28.129619
 30
0.0
 10
10.495139
 20
28.705088
 30
0.0
 10
10.495139
 20
29.280556
 30
0.0
 10
10.633427
 20
29.962610
 30
0.0
 10
11.010163
 20
30.520600
 30
0.0
 10
11.568154
 20
30.897336
 30
0.0
 10
12.250208
 20
31.035625
 30
0.0
  0
LWPOLYLINE
  5
14c
100
AcDbEntity
  8
idler2
 62
7
100
AcDbPolyline
 90
25
 70
0
 10
23.248056
 20
31.035625
 30
0.0
 10
23.928585
 20
30.897336
 30
0.0
 10
24.483561
 20
30.520600
 30
0.0
 10
24.857347
 20
29.962610
 30
0.0
 10
24.994306
 20
29.280556
 30
0.0
 10
24.994306
 20
28.705088
 30
0.0
 10
24.994306
 20
28.129619
 30
0.0
 10
24.994306
 20
27.554149
 30
0.0
 10
24.994306
 20
26.978681
 30
0.0
 10
24.857347
 20
26.298003
 30
0.0
 10
24.483561
 20
25.743044
 30
0.0
 10
23.928585
 20
25.369339
 30
0.0
 10
23.248056
 20
25.232431
 30
0.0
 10
22.566001
 20
25.369339
 30
0.0
 10
22.008010
 20
25.743044
 30
0.0
 10
21.631274
 20
26.298003
 30
0.0
 10
21.492986
 20
26.978681
 30
0.0
 10
21.492986
 20
27.554149
 30
0.0
 10
21.492986
 20
28.129619
 30
0.0
 10
21.492986
 20
28.705088
 30
0.0
 10
21.492986
 20
29.280556
 30
0.0
 10
21.631274
 20
29.962610
 30
0.0
 10
22.008010
 20
30.520600
 30
0.0
 10
22.566001
 20
30.897336
 30
0.0
 10
23.248056
 20
31.035625
 30
0.0
  0
LWPOLYLINE
  5
14d
100
AcDbEntity
  8
idler2
 62
7
100
AcDbPolyline
 90
17
 70
0
 10
2.072569
 20
23.159861
 30
0.0
 10
3.697552
 20
23.159861
 30
0.0
 10
5.322535
 20
23.159861
 30
0.0
 10
6.947518
 20
23.159861
 30
0.0
 10
8.572500
 20
23.159861
 30
0.0
 10
8.572500
 20
19.535069
 30
0.0
 10
8.572500
 20
15.910278
 30
0.0
 10
8.572500
 20
12.285486
 30
0.0
 10
8.572500
 20
8.660694
 30
0.0
 10
6.947518
 20
8.660694
 30
0.0
 10
5.322535
 20
8.660694
 30
0.0
 10
3.697552
 20
8.660694
 30
0.0
 10
2.072569
 20
8.660694
 30
0.0
 10
2.072569
 20
12.285486
 30
0.0
 10
2.072569
 20
15.910278
 30
0.0
 10
2.072569
 20
19.535069
 30
0.0
 10
2.072569
 20
23.159861
 30
0.0
  0
LWPOLYLINE
  5
14e
100
AcDbEntity
  8
idler2
 62
7
100
AcDbPolyline
 90
17
 70
0
 10
26.572987
 20
23.159861
 30
0.0
 10
28.197969
 20
23.159861
 30
0.0
 10
29.822953
 20
23.159861
 30
0.0
 10
31.447935
 20
23.159861
 30
0.0
 10
33.072917
 20
23.159861
 30
0.0
 10
33.072917
 20
19.535069
 30
0.0
 10
33.072917
 20
15.910278
 30
0.0
 10
33.072917
 20
12.285486
 30
0.0
 10
33.072917
 20
8.660694
 30
0.0
 10
31.447935
 20
8.660694
 30
0.0
 10
29.822953
 20
8.660694
 30
0.0
 10
28.197969
 20
8.660694
 30
0.0
 10
26.572987
 20
8.660694
 30
0.0
 10
26.572987
 20
12.285486
 30
0.0
 10
26.572987
 20
15.910278
 30
0.0
 10
26.572987
 20
19.535069
 30
0.0
 10
26.572987
 20
23.159861
 30
0.0
  0
ENDSEC
  0
SECTION
  2
OBJECTS
  0
DICTIONARY
  5
C
330
0
100
AcDbDictionary
  3
ACAD_GROUP
350
D
  3
ACAD_MLINESTYLE
350
17
  0
DICTIONARY
  5
D
330
C
100
AcDbDictionary
  0
DICTIONARY
  5
1A
330
C
100
AcDbDictionary
  0
DICTIONARY
  5
17
330
C
100
AcDbDictionary
  3
STANDARD
350
18
  0
DICTIONARY
  5
19
330
C
100
AcDbDictionary
  0
ENDSEC
  0
EOF
