<?xml version="1.0" encoding="UTF-8" standalone="no"?>
<!-- Created with Inkscape (http://www.inkscape.org/) -->

<svg
   xmlns:dc="http://purl.org/dc/elements/1.1/"
   xmlns:cc="http://creativecommons.org/ns#"
   xmlns:rdf="http://www.w3.org/1999/02/22-rdf-syntax-ns#"
   xmlns:svg="http://www.w3.org/2000/svg"
   xmlns="http://www.w3.org/2000/svg"
   xmlns:sodipodi="http://sodipodi.sourceforge.net/DTD/sodipodi-0.dtd"
   xmlns:inkscape="http://www.inkscape.org/namespaces/inkscape"
   width="1281.3545"
   height="239.76697"
   id="svg2"
   version="1.1"
   inkscape:version="0.48+devel r11513 custom"
   sodipodi:docname="extruder-printrbot.svg">
  <defs
     id="defs4">
    <symbol
       id="block 90">
      <path
         id="path305"
         d="m -145.68726,640.61172 c 0,0 0.011,0 0.011,0 0,0 -58.56201,0 -58.56201,0 0,0 0.0916,-0.13916 0.0916,-0.13916 -9.85351,0 -17.84179,7.98828 -17.84179,17.83935 0,9.85108 7.98828,17.83936 17.84179,17.83936 0,0 0.46875,0.13916 0.46875,0.13916 0,0 224.116212,0 224.116212,0 0,0 0,0.0806 0,0.0806 6.782227,0 13.023682,-2.56347 17.148438,-10.59814 C 66.243896,623.27041 66.243896,623.27041 30.46875,597.62343 11.972656,581.55654 7.269287,570.06972 7.269287,548.13064 c 0,-36.65284 29.807129,-48.06153 60.517578,-48.06153 0,0 0.334473,0.007 0.334473,0.007 0,0 26.367187,-0.44922 26.367187,-0.44922 11.799315,0 21.363525,-4.22119 21.363525,-16.02051 0,-11.79932 -9.56421,-21.3623 -21.363525,-21.3623 0,0 0.338135,0.002 0.338135,0.002 0,0 -183.337402,9.34326 -183.337402,9.34326 0,0 0.277099,0.23437 0.277099,0.23437 0,0 0.709229,-17.07397 0.709229,-17.07397 0,-12.03613 -5.361328,-17.34863 -11.987305,-17.34863 0,0 -16.954341,-0.2771 -16.954341,-0.2771 0,0 0.88012,-0.0207 0.88012,-0.0207 -6.62719,0 -11.98974,5.3125 -11.98974,17.34985 0,0 0,17.37183 0,17.37183 0,0 -0.0134,-0.31861 -0.0134,-0.31861 0,20.84473 0,20.84473 21.41846,46.35254 0,0 0,57.69348 0,57.69348 0,35.95948 -17.67456,65.0586 -39.51661,65.0586 z"
         style="fill:none;stroke:#000000;stroke-width:0.5"
         inkscape:connector-curvature="0" />
    </symbol>
    <symbol
       id="block 89" />
    <symbol
       id="block 88">
      <path
         id="path301"
         d="m -66.081543,663.7709 c -2.950439,0 -5.340576,-2.39014 -5.340576,-5.3418 0,-2.94922 2.390137,-5.33936 5.340576,-5.33936 2.949219,0 5.340576,2.39014 5.340576,5.33936 0,2.95166 -2.391357,5.3418 -5.340576,5.3418 z"
         style="fill:none;stroke:#000000;stroke-width:0.5"
         inkscape:connector-curvature="0" />
    </symbol>
    <symbol
       id="block 87">
      <path
         id="path298"
         d="m -117.6355,663.7709 c -2.94922,0 -5.33935,-2.39258 -5.33935,-5.3418 0,-2.94678 2.39013,-5.33936 5.33935,-5.33936 2.94922,0 5.33936,2.39258 5.33936,5.33936 0,2.94922 -2.39014,5.3418 -5.33936,5.3418 z"
         style="fill:none;stroke:#000000;stroke-width:0.5"
         inkscape:connector-curvature="0" />
    </symbol>
    <symbol
       id="block 86">
      <path
         id="path295"
         d="m 30.993652,484.39162 c -2.851562,0 -5.162353,-2.3114 -5.162353,-5.16235 0,-2.85156 2.310791,-5.16357 5.162353,-5.16357 2.851563,0 5.163575,2.31201 5.163575,5.16357 0,2.85095 -2.312012,5.16235 -5.163575,5.16235 z"
         style="fill:none;stroke:#000000;stroke-width:0.5"
         inkscape:connector-curvature="0" />
    </symbol>
    <symbol
       id="block 85">
      <path
         id="path292"
         d="m -148.9624,663.47304 c -2.85156,0 -5.16236,-2.31201 -5.16236,-5.16357 0,-2.84912 2.3108,-5.16113 5.16236,-5.16113 2.85034,0 5.16113,2.31201 5.16113,5.16113 0,2.85156 -2.31079,5.16357 -5.16113,5.16357 z"
         style="fill:none;stroke:#000000;stroke-width:0.5"
         inkscape:connector-curvature="0" />
    </symbol>
    <symbol
       id="block 84">
      <path
         id="path289"
         d="m 50.463867,625.25527 c 0,5.89844 -5.201416,10.68115 -11.622314,10.68115 0,0 -11.295166,0 -11.295166,0 -6.418457,0 -11.621094,-4.78271 -11.621094,-10.68115 0,-5.89599 5.202637,-10.67871 11.621094,-10.67871 0,0 11.295166,0 11.295166,0 6.420898,0 11.622314,4.78272 11.622314,10.67871 z"
         style="fill:none;stroke:#000000;stroke-width:0.5"
         inkscape:connector-curvature="0" />
    </symbol>
    <symbol
       id="block 83">
      <path
         id="path286"
         d="m 103.74878,481.82693 c 0,5.89843 -5.201417,10.68115 -11.621094,10.68115 0,0 -11.293946,0 -11.293946,0 -6.418457,0 -11.623535,-4.78272 -11.623535,-10.68115 0,-5.89844 5.205078,-10.67871 11.623535,-10.67871 0,0 11.293946,0 11.293946,0 6.419677,0 11.621094,4.78027 11.621094,10.67871 z"
         style="fill:none;stroke:#000000;stroke-width:0.5"
         inkscape:connector-curvature="0" />
    </symbol>
    <symbol
       id="block 82">
      <path
         id="path283"
         d="m 8.424072,524.99343 c 0,5.896 -5.205078,10.67871 -11.622314,10.67871 0,0 -11.295166,0 -11.295166,0 -6.419678,0 -11.622315,-4.78271 -11.622315,-10.67871 0,-5.89844 5.202637,-10.68115 11.622315,-10.68115 0,0 11.295166,0 11.295166,0 6.417236,0 11.622314,4.78271 11.622314,10.68115 z"
         style="fill:none;stroke:#000000;stroke-width:0.5"
         inkscape:connector-curvature="0" />
    </symbol>
    <symbol
       id="block 81">
      <path
         id="path280"
         d="m 20.736084,663.75625 c -2.949219,0 -5.339355,-2.39014 -5.339355,-5.33936 0,-2.94922 2.390136,-5.33935 5.339355,-5.33935 2.949219,0 5.340576,2.39013 5.340576,5.33935 0,2.94922 -2.391357,5.33936 -5.340576,5.33936 z"
         style="fill:none;stroke:#000000;stroke-width:0.5"
         inkscape:connector-curvature="0" />
    </symbol>
    <symbol
       id="block 80">
      <path
         id="path277"
         d="m -204.14795,663.65127 c -2.94922,0 -5.34057,-2.39014 -5.34057,-5.3418 0,-2.94922 2.39135,-5.33936 5.34057,-5.33936 2.95044,0 5.3418,2.39014 5.3418,5.33936 0,2.95166 -2.39136,5.3418 -5.3418,5.3418 z"
         style="fill:none;stroke:#000000;stroke-width:0.5"
         inkscape:connector-curvature="0" />
    </symbol>
    <symbol
       id="block 79">
      <path
         id="path274"
         d="m -47.463379,499.25735 c -2.851562,0 -5.162353,-2.31141 -5.162353,-5.16236 0,-2.85156 2.310791,-5.16235 5.162353,-5.16235 2.850342,0 5.162354,2.31079 5.162354,5.16235 0,2.85095 -2.312012,5.16236 -5.162354,5.16236 z"
         style="fill:none;stroke:#000000;stroke-width:0.5"
         inkscape:connector-curvature="0" />
    </symbol>
    <symbol
       id="block 78">
      <path
         id="path271"
         d="m -42.301025,618.00674 c 0,-2.85157 -2.312012,-5.16358 -5.162354,-5.16358 -2.851562,0 -5.162353,2.31201 -5.162353,5.16358 0,2.85156 2.310791,5.16113 5.162353,5.16113 2.850342,0 5.162354,-2.30957 5.162354,-5.16113 z"
         style="fill:none;stroke:#000000;stroke-width:0.5"
         inkscape:connector-curvature="0" />
    </symbol>
    <symbol
       id="block 77">
      <path
         id="path268"
         d="m -80.495605,585.3334 c -21.333005,0 -38.626705,-17.29004 -38.626705,-38.6261 0,-21.33362 17.2937,-38.62732 38.626705,-38.62732 21.333007,0 38.627929,17.2937 38.627929,38.62732 0,21.33362 -17.294922,38.6261 -38.627929,38.6261 z"
         style="fill:none;stroke:#000000;stroke-width:0.5"
         inkscape:connector-curvature="0" />
    </symbol>
    <symbol
       id="block 76">
      <path
         id="path265"
         d="m 839.73633,640.62636 c 0,0 0.71289,-0.0146 0.71289,-0.0146 0,0 -59.52881,0 -59.52881,0 0,0 0.53223,-0.0342 0.53223,-0.0342 -9.8523,0 -17.83936,7.98584 -17.83936,17.83935 0,9.85108 7.98706,17.83936 17.83936,17.83936 0,0 0.14038,0.0342 0.14038,0.0342 0,0 224.30058,0 224.30058,0 0,0 -0.1807,-0.0366 -0.1807,-0.0366 9.8523,0 17.8393,-7.98584 17.8393,-17.83936 0,-9.85107 -7.987,-17.83935 -17.8393,-17.83935 0,0 -0.3394,0.0366 -0.3394,0.0366 0,0 -10.61886,0 -10.61886,0 0,0 -0.0354,0.0146 -0.0354,0.0146 -21.83838,0 -39.95362,-29.09668 -39.95362,-65.05859 0,0 10e-4,-0.0586 10e-4,-0.0586 0,0 0,-103.89221 0,-103.89221 0,0 -56.70654,0 -56.70654,0 0,0 0.004,0.2246 0.004,0.2246 0,0 0.54565,-17.35107 0.54565,-17.35107 0,-12.03735 -5.36133,-17.34985 -11.98731,-17.34985 0,0 1.21582,0.061 1.21582,0.061 0,0 -18.00537,-0.0818 -18.00537,-0.0818 -6.62597,0 -11.9873,5.3125 -11.9873,17.34986 0,0 0,17.37182 0,17.37182 0,0 -0.0134,-0.3186 -0.0134,-0.3186 0,20.84473 0,20.84473 21.4148,46.35254 0,0 0,57.69226 0,57.69226 0,35.96191 -17.67212,65.05859 -39.5105,65.05859 z"
         style="fill:none;stroke:#000000;stroke-width:0.5"
         inkscape:connector-curvature="0" />
    </symbol>
    <symbol
       id="block 75" />
    <symbol
       id="block 74" />
    <symbol
       id="block 73">
      <path
         id="path260"
         d="m 906.74072,617.9042 c 2.15698,2.15576 5.65186,0.32959 7.80762,-1.82617 2.15576,-2.15577 2.15576,-5.65186 0,-7.80762 -2.15576,-2.15576 -5.65064,-2.15576 -7.8064,0"
         style="fill:none;stroke:#000000;stroke-width:0.5"
         inkscape:connector-curvature="0" />
    </symbol>
    <symbol
       id="block 72">
      <path
         id="path257"
         d="m 924.67651,658.44619 c 0,-2.94922 -2.39135,-5.3418 -5.34057,-5.3418 -2.95044,0 -5.34058,2.39258 -5.34058,5.3418 0,2.94922 2.39014,5.33935 5.34058,5.33935 2.94922,0 5.34057,-2.39013 5.34057,-5.33935 z"
         style="fill:none;stroke:#000000;stroke-width:0.5"
         inkscape:connector-curvature="0" />
    </symbol>
    <symbol
       id="block 71">
      <path
         id="path254"
         d="m 873.12256,658.44619 c 0,-2.94922 -2.39014,-5.33936 -5.33936,-5.33936 -2.948,0 -5.33813,2.39014 -5.33813,5.33936 0,2.94922 2.39013,5.33935 5.33813,5.33935 2.94922,0 5.33936,-2.39013 5.33936,-5.33935 z"
         style="fill:none;stroke:#000000;stroke-width:0.5"
         inkscape:connector-curvature="0" />
    </symbol>
    <symbol
       id="block 70">
      <path
         id="path251"
         d="m 841.34522,658.41445 c 0,-2.84912 -2.3108,-5.16113 -5.16114,-5.16113 -2.85034,0 -5.16113,2.31201 -5.16113,5.16113 0,2.85156 2.31079,5.16113 5.16113,5.16113 2.85034,0 5.16114,-2.30957 5.16114,-5.16113 z"
         style="fill:none;stroke:#000000;stroke-width:0.5"
         inkscape:connector-curvature="0" />
    </symbol>
    <symbol
       id="block 69">
      <path
         id="path248"
         d="m 942.76367,493.9302 c 0,-2.85156 -2.31201,-5.16235 -5.16235,-5.16235 -2.85156,0 -5.16235,2.31079 -5.16235,5.16235 0,2.85095 2.31079,5.16235 5.16235,5.16235 2.85034,0 5.16235,-2.3114 5.16235,-5.16235 z"
         style="fill:none;stroke:#000000;stroke-width:0.5"
         inkscape:connector-curvature="0" />
    </symbol>
    <symbol
       id="block 68">
      <path
         id="path245"
         d="m 942.76367,617.83828 c 0,-2.85156 -2.31201,-5.16113 -5.16235,-5.16113 -2.85156,0 -5.16235,2.30957 -5.16235,5.16113 0,2.85156 2.31079,5.16357 5.16235,5.16357 2.85034,0 5.16235,-2.31201 5.16235,-5.16357 z"
         style="fill:none;stroke:#000000;stroke-width:0.5"
         inkscape:connector-curvature="0" />
    </symbol>
    <symbol
       id="block 67">
      <path
         id="path242"
         d="m 943.5498,546.72439 c 0,-21.3324 -17.2937,-38.62549 -38.62548,-38.62549 -21.33179,0 -38.62427,17.29309 -38.62427,38.62549 0,21.33117 17.29248,38.62365 38.62427,38.62365 21.33178,0 38.62548,-17.29248 38.62548,-38.62365 z"
         style="fill:none;stroke:#000000;stroke-width:0.5"
         inkscape:connector-curvature="0" />
    </symbol>
    <symbol
       id="block 66">
      <path
         id="path239"
         d="m 1011.0522,658.41445 c 0,-2.94678 -2.3913,-5.33935 -5.3393,-5.33935 -2.9492,0 -5.3394,2.39257 -5.3394,5.33935 0,2.94922 2.3902,5.33936 5.3394,5.33936 2.948,0 5.3393,-2.39014 5.3393,-5.33936 z"
         style="fill:none;stroke:#000000;stroke-width:0.5"
         inkscape:connector-curvature="0" />
    </symbol>
    <symbol
       id="block 65">
      <path
         id="path236"
         d="m 781.45142,663.75625 c -2.94922,0 -5.34058,-2.39014 -5.34058,-5.3418 0,-2.94922 2.39136,-5.33935 5.34058,-5.33935 2.95043,0 5.34179,2.39013 5.34179,5.33935 0,2.95166 -2.39136,5.3418 -5.34179,5.3418 z"
         style="fill:none;stroke:#000000;stroke-width:0.5"
         inkscape:connector-curvature="0" />
    </symbol>
    <symbol
       id="block 64">
      <path
         id="path233"
         d="m 347.36694,665.86562 c 28.65723,-42.50976 28.65723,-42.50976 -7.11792,-68.15918 -18.49487,-16.06933 -22.86133,-27.60254 -22.86133,-49.54406 0,-36.65894 29.80836,-48.06885 60.5188,-48.06885 0,0 0.33326,0.006 0.33326,0.006 0,0 26.3684,-0.44678 26.3684,-0.44678 11.7981,0 21.36353,-4.22241 21.36353,-16.02417 0,-11.79687 -9.56543,-21.3623 -21.36353,-21.3623 0,0.004 -198.65112,9.34814 -198.65112,9.34814 0,33.55103 -1.48804,40.49073 13.73901,64.67041 0,0 0,20.67872 0,20.67872 0,12.17102 -22.25585,30.43518 -38.09814,30.43518 0,0 -8.93188,0 -8.93188,0 -10.02808,0 -18.15796,7.6831 -18.15796,17.71484 0,0 0,35.54443 0,35.54443 0,0 -49.72901,0 -49.72901,0 0,0 1.37451,-0.0391 1.37451,-0.0391 -9.85229,0 -17.839351,7.98828 -17.839351,17.8418 0,9.85351 7.987061,17.84179 17.839351,17.84179 0,0 0.14038,0.0366 0.14038,0.0366 0,0 87.02149,0 87.02149,0 0,0 0,-35.58594 0,-35.58594 0,0 49.83765,0 49.83765,0 0,0 0,35.58594 0,35.58594 0,0 87.3584,0 87.3584,0 6.78222,0 12.73071,-2.43897 16.85546,-10.47364 z"
         style="fill:none;stroke:#000000;stroke-width:0.5"
         inkscape:connector-curvature="0" />
    </symbol>
    <symbol
       id="block 63" />
    <symbol
       id="block 62" />
    <symbol
       id="block 61">
      <path
         id="path228"
         d="m 235.56396,589.96474 c 0,-2.4414 -1.97753,-4.41894 -4.41894,-4.41894 -2.44141,0 -6.02051,1.97754 -6.02051,4.41894"
         style="fill:none;stroke:#000000;stroke-width:0.5"
         inkscape:connector-curvature="0" />
    </symbol>
    <symbol
       id="block 60">
      <path
         id="path225"
         d="m 346.27441,479.25368 c 0,-2.85095 -2.31201,-5.16235 -5.16235,-5.16235 -2.85156,0 -5.16235,2.3114 -5.16235,5.16235 0,2.85157 2.31079,5.16236 5.16235,5.16236 2.85034,0 5.16235,-2.31079 5.16235,-5.16236 z"
         style="fill:none;stroke:#000000;stroke-width:0.5"
         inkscape:connector-curvature="0" />
    </symbol>
    <symbol
       id="block 59">
      <path
         id="path222"
         d="m 166.04736,658.46084 c 0,-2.85156 -2.31201,-5.16358 -5.16235,-5.16358 -2.85156,0 -5.16235,2.31202 -5.16235,5.16358 0,2.85156 2.31079,5.16113 5.16235,5.16113 2.85034,0 5.16235,-2.30957 5.16235,-5.16113 z"
         style="fill:none;stroke:#000000;stroke-width:0.5"
         inkscape:connector-curvature="0" />
    </symbol>
    <symbol
       id="block 58">
      <path
         id="path219"
         d="m 249.375,658.46084 c 0,-2.94922 -2.39136,-5.3418 -5.34058,-5.3418 -2.94922,0 -5.34057,2.39258 -5.34057,5.3418 0,2.94922 2.39135,5.33935 5.34057,5.33935 2.94922,0 5.34058,-2.39013 5.34058,-5.33935 z"
         style="fill:none;stroke:#000000;stroke-width:0.5"
         inkscape:connector-curvature="0" />
    </symbol>
    <symbol
       id="block 57" />
    <symbol
       id="block 56">
      <path
         id="path215"
         d="m 267.41821,494.06326 c 0,-2.85157 -2.31079,-5.16358 -5.16235,-5.16358 -2.85156,0 -5.16358,2.31201 -5.16358,5.16358 0,2.85095 2.31202,5.16235 5.16358,5.16235 2.85156,0 5.16235,-2.3114 5.16235,-5.16235 z"
         style="fill:none;stroke:#000000;stroke-width:0.5"
         inkscape:connector-curvature="0" />
    </symbol>
    <symbol
       id="block 55">
      <path
         id="path212"
         d="m 267.41821,617.98965 c 0,-2.84912 -2.31201,-5.16114 -5.16235,-5.16114 -2.85156,0 -5.16235,2.31202 -5.16235,5.16114 0,2.85156 2.31079,5.16357 5.16235,5.16357 2.85034,0 5.16235,-2.31201 5.16235,-5.16357 z"
         style="fill:none;stroke:#000000;stroke-width:0.5"
         inkscape:connector-curvature="0" />
    </symbol>
    <symbol
       id="block 54">
      <path
         id="path209"
         d="m 178.00537,601.56875 c 0,-2.94922 -2.39014,-5.33936 -5.33935,-5.33936 -2.94922,0 -5.34058,2.39014 -5.34058,5.33936 0,2.94922 2.39136,5.33935 5.34058,5.33935 2.94921,0 5.33935,-2.39013 5.33935,-5.33935 z"
         style="fill:none;stroke:#000000;stroke-width:0.5"
         inkscape:connector-curvature="0" />
    </symbol>
    <symbol
       id="block 53">
      <path
         id="path206"
         d="m 336.19629,658.46084 c 0,-2.94922 -2.39136,-5.3418 -5.34058,-5.3418 -2.94922,0 -5.34057,2.39258 -5.34057,5.3418 0,2.94922 2.39135,5.33935 5.34057,5.33935 2.94922,0 5.34058,-2.39013 5.34058,-5.33935 z"
         style="fill:none;stroke:#000000;stroke-width:0.5"
         inkscape:connector-curvature="0" />
    </symbol>
    <symbol
       id="block 52">
      <path
         id="path203"
         d="m 111.49292,658.46084 c 0,-2.94922 -2.39136,-5.3418 -5.34058,-5.3418 -2.95044,0 -5.34179,2.39258 -5.34179,5.3418 0,2.94922 2.39135,5.34179 5.34179,5.34179 2.94922,0 5.34058,-2.39257 5.34058,-5.34179 z"
         style="fill:none;stroke:#000000;stroke-width:0.5"
         inkscape:connector-curvature="0" />
    </symbol>
    <symbol
       id="block 51">
      <path
         id="path200"
         d="m 197.82471,658.46084 c 0,-2.94922 -2.39136,-5.3418 -5.34058,-5.3418 -2.94922,0 -5.34058,2.39258 -5.34058,5.3418 0,2.94922 2.39136,5.33935 5.34058,5.33935 2.94922,0 5.34058,-2.39013 5.34058,-5.33935 z"
         style="fill:none;stroke:#000000;stroke-width:0.5"
         inkscape:connector-curvature="0" />
    </symbol>
    <symbol
       id="block 50">
      <path
         id="path197"
         d="m 408.26782,481.8489 c 0,-3.0249 -2.44018,-5.47852 -5.4541,-5.47852 0,0 -12.42798,0 -12.42798,0 -3.01269,0 -5.45654,2.45362 -5.45654,5.47852 0,3.02734 2.44385,5.48096 5.45654,5.48096 0,0 12.42798,0 12.42798,0 3.01392,0 5.4541,-2.45362 5.4541,-5.48096 z"
         style="fill:none;stroke:#000000;stroke-width:0.5"
         inkscape:connector-curvature="0" />
    </symbol>
    <symbol
       id="block 49">
      <path
         id="path194"
         d="m 314.81689,525.02029 c 0,-3.02735 -2.44384,-5.48096 -5.45776,-5.48096 0,0 -16.87866,0 -16.87866,0 -3.0127,0 -5.4541,2.45361 -5.4541,5.48096 0,3.02612 2.4414,5.48095 5.4541,5.48095 0,0 16.87866,0 16.87866,0 3.01392,0 5.45776,-2.45483 5.45776,-5.48095 z"
         style="fill:none;stroke:#000000;stroke-width:0.5"
         inkscape:connector-curvature="0" />
    </symbol>
    <symbol
       id="block 48">
      <path
         id="path191"
         d="m 354.98291,625.29678 c 0,-3.02735 -2.44263,-5.47852 -5.45532,-5.47852 0,0 -12.42676,0 -12.42676,0 -3.01269,0 -5.45654,2.45117 -5.45654,5.47852 0,3.02734 2.44385,5.48095 5.45654,5.48095 0,0 12.42676,0 12.42676,0 3.01269,0 5.45532,-2.45361 5.45532,-5.48095 z"
         style="fill:none;stroke:#000000;stroke-width:0.5"
         inkscape:connector-curvature="0" />
    </symbol>
    <symbol
       id="block 47">
      <path
         id="path188"
         d="m 229.62524,561.15859 c -7.96508,0 -14.42138,-6.45691 -14.42138,-14.42078 0,-7.96386 6.4563,-14.42016 14.42138,-14.42016 7.96387,0 14.42017,6.4563 14.42017,14.42016 0,7.96387 -6.4563,14.42078 -14.42017,14.42078 z"
         style="fill:none;stroke:#000000;stroke-width:0.5"
         inkscape:connector-curvature="0" />
    </symbol>
    <symbol
       id="block 46">
      <path
         id="path185"
         d="m 601.65527,676.33681 c 0,0 0,-35.625 0,-35.625 0,0 -13.86596,0 -13.86596,0 0,0 0,-169.10339 0,-169.10339 0,0 -55.53101,0 -55.53101,0 0,-0.005 0,54.93408 0,54.93408 0,0 -0.21728,-0.49194 -0.21728,-0.49194 1.79199,1.96289 3.7561,4.03687 5.90576,6.26587 0,0 0,28.83972 0,28.83972 0,0 -6.04615,5.68359 -6.04615,5.68359 0,0 0,73.91114 0,73.91114 0,0 23.13477,0 23.13477,0 0,0 0,35.58593 0,35.58593 0,0 46.61987,0 46.61987,0 z"
         style="fill:none;stroke:#000000;stroke-width:0.5"
         inkscape:connector-curvature="0" />
    </symbol>
    <symbol
       id="block 45">
      <path
         id="path182"
         d="m 539.21143,621.30508 c -0.0452,2.27783 1.62719,3.02734 3.90625,3.07128 2.27661,0.0439 4.15893,-1.76513 4.20288,-4.04296 0.0452,-2.27784 -1.76514,-4.16016 -4.04297,-4.20411"
         style="fill:none;stroke:#000000;stroke-width:0.5"
         inkscape:connector-curvature="0" />
    </symbol>
    <symbol
       id="block 44">
      <path
         id="path179"
         d="m 543.50952,615.99502 c 2.27783,0 4.12476,-1.84815 4.12476,-4.12598 0,-2.27783 -1.84693,-4.12353 -4.12476,-4.12353 -2.27783,0 -4.69604,1.27441 -4.69604,3.55224"
         style="fill:none;stroke:#000000;stroke-width:0.5"
         inkscape:connector-curvature="0" />
    </symbol>
    <symbol
       id="block 43">
      <path
         id="path176"
         d="m 552.36694,546.73659 c 0,-7.96386 -6.4563,-14.42016 -14.42016,-14.42016 -7.96509,0 -14.42017,6.4563 -14.42017,14.42016 0,7.96387 6.45508,14.41956 14.42017,14.41956 7.96386,0 14.42016,-6.45569 14.42016,-14.41956 z"
         style="fill:none;stroke:#000000;stroke-width:0.5"
         inkscape:connector-curvature="0" />
    </symbol>
    <symbol
       id="block 42">
      <path
         id="path173"
         d="m 557.69653,658.46084 c 0,-2.94922 -2.39135,-5.3418 -5.34057,-5.3418 -2.95044,0 -5.3418,2.39258 -5.3418,5.3418 0,2.94922 2.39136,5.34179 5.3418,5.34179 2.94922,0 5.34057,-2.39257 5.34057,-5.34179 z"
         style="fill:none;stroke:#000000;stroke-width:0.5"
         inkscape:connector-curvature="0" />
    </symbol>
    <symbol
       id="block 41">
      <path
         id="path170"
         d="m 575.74097,494.05715 c 0,-2.85156 -2.31202,-5.16357 -5.16358,-5.16357 -2.85156,0 -5.16357,2.31201 -5.16357,5.16357 0,2.85217 2.31201,5.16358 5.16357,5.16358 2.85156,0 5.16358,-2.31141 5.16358,-5.16358 z"
         style="fill:none;stroke:#000000;stroke-width:0.5"
         inkscape:connector-curvature="0" />
    </symbol>
    <symbol
       id="block 40">
      <path
         id="path167"
         d="m 570.57739,623.15322 c -2.85156,0 -5.16357,-2.30957 -5.16357,-5.16357 0,-2.85157 2.31201,-5.16358 5.16357,-5.16358 2.85156,0 5.16358,2.31201 5.16358,5.16358 0,2.854 -2.31202,5.16357 -5.16358,5.16357 z"
         style="fill:none;stroke:#000000;stroke-width:0.5"
         inkscape:connector-curvature="0" />
    </symbol>
    <symbol
       id="block 39">
      <path
         id="path164"
         d="m 656.57227,658.49502 c 0,-9.85108 -7.98707,-17.83936 -17.83936,-17.83936 -9.85229,0 -17.83936,7.98828 -17.83936,17.83936 0,9.85351 7.98707,17.83935 17.83936,17.83935 9.85229,0 17.83936,-7.98584 17.83936,-17.83935 z"
         style="fill:none;stroke:#000000;stroke-width:0.5"
         inkscape:connector-curvature="0" />
    </symbol>
    <symbol
       id="block 38">
      <path
         id="path161"
         d="m 638.73535,663.80263 c -2.95044,0 -5.3418,-2.39257 -5.3418,-5.34179 0,-2.94922 2.39136,-5.3418 5.3418,-5.3418 2.94922,0 5.34058,2.39258 5.34058,5.3418 0,2.94922 -2.39136,5.34179 -5.34058,5.34179 z"
         style="fill:none;stroke:#000000;stroke-width:0.5"
         inkscape:connector-curvature="0" />
    </symbol>
    <symbol
       id="block 37">
      <path
         id="path158"
         d="m 520.85937,580.19424 c 0,-0.89112 -0.42846,-5.74952 -3.27514,-5.74952 0,0 -0.15747,0.14405 -0.15747,0.14405 -7.85034,7.13379 -18.67554,12.81006 -27.50733,12.81006 0,0 -8.93188,0 -8.93188,0 -10.02808,0 -18.15796,7.6831 -18.15796,17.7124 0,0 0,35.54443 0,35.54443 0,0 -17.82837,0 -17.82837,0 0.006,0 0.006,35.68115 0.006,35.68115 0,0 53.06763,0 53.06763,0 0,0 0,-35.58593 0,-35.58593 0,0 22.78442,0 22.78442,0 0,0 0,-60.87891 0,-60.87891 0,0 0,0.32227 0,0.32227 z"
         style="fill:none;stroke:#000000;stroke-width:0.5"
         inkscape:connector-curvature="0" />
    </symbol>
    <symbol
       id="block 36">
      <path
         id="path155"
         d="m 494.49951,618.78554 c -0.0452,2.27784 3.72681,4.16016 6.00586,4.20411 2.27661,0.0439 4.15894,-1.76758 4.20288,-4.04541 0.0452,-2.27539 -1.76514,-4.15772 -4.04297,-4.20411"
         style="fill:none;stroke:#000000;stroke-width:0.5"
         inkscape:connector-curvature="0" />
    </symbol>
    <symbol
       id="block 35">
      <path
         id="path152"
         d="m 500.89722,614.60586 c 2.27783,0 4.12475,-1.84571 4.12475,-4.12354 0,-2.27783 -1.84692,-4.12353 -4.12475,-4.12353 -2.27783,0 -6.08521,1.8457 -6.08521,4.12353"
         style="fill:none;stroke:#000000;stroke-width:0.5"
         inkscape:connector-curvature="0" />
    </symbol>
    <symbol
       id="block 34">
      <path
         id="path149"
         d="m 474.80835,658.46084 c 0,-2.85156 -2.31079,-5.16113 -5.16113,-5.16113 -2.85157,0 -5.16236,2.30957 -5.16236,5.16113 0,2.85156 2.31079,5.16113 5.16236,5.16113 2.85034,0 5.16113,-2.30957 5.16113,-5.16113 z"
         style="fill:none;stroke:#000000;stroke-width:0.5"
         inkscape:connector-curvature="0" />
    </symbol>
    <symbol
       id="block 33">
      <path
         id="path146"
         d="m 486.32812,601.56875 c 0,-2.94922 -2.39135,-5.3418 -5.34057,-5.3418 -2.95044,0 -5.3418,2.39258 -5.3418,5.3418 0,2.94922 2.39136,5.34179 5.3418,5.34179 2.94922,0 5.34057,-2.39257 5.34057,-5.34179 z"
         style="fill:none;stroke:#000000;stroke-width:0.5"
         inkscape:connector-curvature="0" />
    </symbol>
    <symbol
       id="block 32">
      <path
         id="path143"
         d="m 500.80566,663.80263 c -2.95044,0 -5.34179,-2.39257 -5.34179,-5.34179 0,-2.94922 2.39135,-5.3418 5.34179,-5.3418 2.94922,0 5.34058,2.39258 5.34058,5.3418 0,2.94922 -2.39136,5.34179 -5.34058,5.34179 z"
         style="fill:none;stroke:#000000;stroke-width:0.5"
         inkscape:connector-curvature="0" />
    </symbol>
    <symbol
       id="block 31">
      <path
         id="path140"
         d="m 432.31445,658.49502 c 0,-9.85108 -7.98706,-17.83936 -17.83935,-17.83936 -9.8523,0 -17.83936,7.98828 -17.83936,17.83936 0,9.85351 7.98706,17.83935 17.83936,17.83935 9.85229,0 17.83935,-7.98584 17.83935,-17.83935 z"
         style="fill:none;stroke:#000000;stroke-width:0.5"
         inkscape:connector-curvature="0" />
    </symbol>
    <symbol
       id="block 30">
      <path
         id="path137"
         d="m 414.47388,663.80263 c -2.95044,0 -5.34302,-2.39013 -5.34302,-5.34179 0,-2.95166 2.39258,-5.3418 5.34302,-5.3418 2.95044,0 5.34179,2.39014 5.34179,5.3418 0,2.95166 -2.39135,5.34179 -5.34179,5.34179 z"
         style="fill:none;stroke:#000000;stroke-width:0.5"
         inkscape:connector-curvature="0" />
    </symbol>
    <symbol
       id="block 29">
      <path
         id="path134"
         d="m 759.4812,575.44326 c 0,0 0,4.53369 0,4.53369 14.15283,7.5 14.19556,26.70898 0,32.63428 0,0 0,12.96142 0,12.96142 0,3.76709 6.71631,6.82373 15,6.82373 0,0 67.44507,0 67.44507,0 8.28491,0 15.18799,-3.05664 15.18799,-6.82373 0,0 0,-13.29834 0,-13.29834 -14.19556,-5.92529 -14.34082,-25.13671 -0.18799,-32.63671 0,0 0,-4.19434 0,-4.19434 0,-3.76709 -6.71509,-10.36621 -15,-10.36621 0,0 -67.44507,0 -67.44507,0 -8.28369,0 -15,6.59912 -15,10.36621 z"
         style="fill:none;stroke:#000000;stroke-width:0.5"
         inkscape:connector-curvature="0" />
    </symbol>
    <symbol
       id="block 28">
      <path
         id="path131"
         d="m 834.5166,611.71035 c 0,-2.81494 -2.77588,-5.09766 -6.19995,-5.09766 -3.42529,0 -6.20117,2.28272 -6.20117,5.09766 0,0 0,6.71875 0,6.71875 0,2.81494 2.77588,5.09766 6.20117,5.09766 3.42407,0 6.19995,-2.28272 6.19995,-5.09766 0,0 0,-6.71875 0,-6.71875 z"
         style="fill:none;stroke:#000000;stroke-width:0.5"
         inkscape:connector-curvature="0" />
    </symbol>
    <symbol
       id="block 27">
      <path
         id="path128"
         d="m 795.54199,618.4291 c 0,2.81494 -2.77588,5.09766 -6.19995,5.09766 -3.42529,0 -6.20117,-2.28272 -6.20117,-5.09766 0,0 0,-6.71875 0,-6.71875 0,-2.81494 2.77588,-5.09766 6.20117,-5.09766 3.42407,0 6.19995,2.28272 6.19995,5.09766 0,0 0,6.71875 0,6.71875 z"
         style="fill:none;stroke:#000000;stroke-width:0.5"
         inkscape:connector-curvature="0" />
    </symbol>
    <symbol
       id="block 26">
      <path
         id="path125"
         d="m 738.22144,676.31972 c 0,-33.5498 1.48803,-40.49072 -13.73902,-64.67041 0,0 0,-20.67871 0,-20.67871 0,-12.17041 22.25586,-30.43701 38.09815,-30.43701 0,0 8.93188,0 8.93188,0 10.02808,0 18.15796,-7.68249 18.15796,-17.71301 0,0 0,0.011 0,0.011 0,0 0,-35.5371 0,-35.5371 0,0 48.37524,0 48.37524,0 0,0 -0.0208,0.0342 -0.0208,0.0342 9.8523,0 17.83936,-7.98829 17.83936,-17.8418 0,-9.8523 -7.98706,-17.8418 -17.83936,-17.8418 0,0 0.0134,-0.033 0.0134,-0.033 0,0 -0.0134,0 -0.0134,0 0,0 -87.16186,0 -87.16186,0 0,0 0,35.58106 0,35.58106 0,0 -49.83765,0 -49.83765,0 0,0 0,-35.58106 0,-35.58106 0,0 0,0.033 0,0.033 0,0 -87.2583,0 -87.2583,0 0,0 -0.15747,-0.033 -0.15747,-0.033 0,0 0.15747,0.033 0.15747,0.033 -9.85229,0 -17.83936,7.9895 -17.83936,17.8418 0,9.85351 7.98707,17.8418 17.83936,17.8418 0,0 0.006,-0.0342 0.006,-0.0342 0,0 50.94483,0 50.94483,0 0,0 -0.007,169.0155 -0.007,169.0155 0,0 55.53101,0 55.53101,0 0,0 17.97974,0.01 17.97974,0.01 z"
         style="fill:none;stroke:#000000;stroke-width:0.5"
         inkscape:connector-curvature="0" />
    </symbol>
    <symbol
       id="block 25" />
    <symbol
       id="block 24" />
    <symbol
       id="block 23" />
    <symbol
       id="block 22">
      <path
         id="path119"
         d="m 728.97339,601.19765 c 0,-7.9663 -6.4563,-14.42138 -14.42017,-14.42138 -7.96509,0 -14.42016,6.45508 -14.42016,14.42138 0,7.96387 6.45507,14.41895 14.42016,14.41895 7.96387,0 14.42017,-6.45508 14.42017,-14.41895 z"
         style="fill:none;stroke:#000000;stroke-width:0.5"
         inkscape:connector-curvature="0" />
    </symbol>
    <symbol
       id="block 21">
      <path
         id="path116"
         d="m 788.45459,489.48684 c 0,-2.85034 -2.31079,-5.16113 -5.16113,-5.16113 -2.85157,0 -5.16236,2.31079 -5.16236,5.16113 0,2.85095 2.31079,5.16235 5.16236,5.16235 2.85034,0 5.16113,-2.3114 5.16113,-5.16235 z"
         style="fill:none;stroke:#000000;stroke-width:0.5"
         inkscape:connector-curvature="0" />
    </symbol>
    <symbol
       id="block 20">
      <path
         id="path113"
         d="m 705.4834,489.47463 c 0,-2.94922 -2.39136,-5.33935 -5.33936,-5.33935 -2.94922,0 -5.33935,2.39013 -5.33935,5.33935 0,2.94861 2.39013,5.33936 5.33935,5.33936 2.948,0 5.33936,-2.39075 5.33936,-5.33936 z"
         style="fill:none;stroke:#000000;stroke-width:0.5"
         inkscape:connector-curvature="0" />
    </symbol>
    <symbol
       id="block 19">
      <path
         id="path110"
         d="m 687.04102,653.96133 c 0,-2.85157 -2.31202,-5.16358 -5.16358,-5.16358 -2.85278,0 -5.16479,2.31201 -5.16479,5.16358 0,2.85156 2.31201,5.16357 5.16479,5.16357 2.85156,0 5.16358,-2.31201 5.16358,-5.16357 z"
         style="fill:none;stroke:#000000;stroke-width:0.5"
         inkscape:connector-curvature="0" />
    </symbol>
    <symbol
       id="block 18">
      <path
         id="path107"
         d="m 687.0398,530.03432 c 0,-2.85095 -2.31202,-5.16296 -5.16236,-5.16296 -2.85156,0 -5.16235,2.31201 -5.16235,5.16296 0,2.85096 2.31079,5.16297 5.16235,5.16297 2.85034,0 5.16236,-2.31201 5.16236,-5.16297 z"
         style="fill:none;stroke:#000000;stroke-width:0.5"
         inkscape:connector-curvature="0" />
    </symbol>
    <symbol
       id="block 17">
      <path
         id="path104"
         d="m 776.85181,546.37283 c 0,-2.94922 -2.39014,-5.34058 -5.33936,-5.34058 -2.94922,0 -5.34058,2.39136 -5.34058,5.34058 0,2.94921 2.39136,5.33935 5.34058,5.33935 2.94922,0 5.33936,-2.39014 5.33936,-5.33935 z"
         style="fill:none;stroke:#000000;stroke-width:0.5"
         inkscape:connector-curvature="0" />
    </symbol>
    <symbol
       id="block 16">
      <path
         id="path101"
         d="m 619.10889,489.48684 c 0,-2.95044 -2.39136,-5.3418 -5.3418,-5.3418 -2.95044,0 -5.34302,2.39136 -5.34302,5.3418 0,2.95105 2.39258,5.34302 5.34302,5.34302 2.95044,0 5.3418,-2.39197 5.3418,-5.34302 z"
         style="fill:none;stroke:#000000;stroke-width:0.5"
         inkscape:connector-curvature="0" />
    </symbol>
    <symbol
       id="block 15">
      <path
         id="path98"
         d="m 843.36792,489.48684 c 0,-2.95044 -2.39136,-5.3418 -5.3418,-5.3418 -2.95044,0 -5.34302,2.39136 -5.34302,5.3418 0,2.95105 2.39258,5.34302 5.34302,5.34302 2.95044,0 5.3418,-2.39197 5.3418,-5.34302 z"
         style="fill:none;stroke:#000000;stroke-width:0.5"
         inkscape:connector-curvature="0" />
    </symbol>
    <symbol
       id="block 14">
      <path
         id="path95"
         d="m 751.69434,494.8323 c -2.95044,0 -5.34302,-2.39197 -5.34302,-5.34302 0,-2.95044 2.39258,-5.3418 5.34302,-5.3418 2.95043,0 5.34179,2.39136 5.34179,5.3418 0,2.95105 -2.39136,5.34302 -5.34179,5.34302 z"
         style="fill:none;stroke:#000000;stroke-width:0.5"
         inkscape:connector-curvature="0" />
    </symbol>
    <symbol
       id="block 13">
      <path
         id="path92"
         d="m 406.71265,586.99843 c 0,0 2.02026,3.14698 2.02026,3.14698 49.24805,-3.42285 107.34863,-13.21289 118.23486,-63.26233 0,0 -39.552,-8.56201 -39.552,-8.56201 0,0 4.14185,-19.04053 4.14185,-19.04053 0,0 -18.07862,-3.93189 -18.07862,-3.93189 0,0 -5.6018,25.75074 -5.6018,25.75074 0,0 7.69287,1.67358 7.69287,1.67358 0,0 -2.19971,10.11108 -2.19971,10.11108 0,0 -7.69287,-1.67236 -7.69287,-1.67236 0,0 -1.7688,8.13599 -1.7688,8.13599 0,0 -12.31201,-2.677 -12.31201,-2.677 0,0 1.77002,-8.13599 1.77002,-8.13599 0,0 -7.69776,-1.67358 -7.69776,-1.67358 0,0 2.19849,-10.11353 2.19849,-10.11353 0,0 7.7002,1.67481 7.7002,1.67481 0,0 5.59936,-25.75074 5.59936,-25.75074 0,0 -18.08227,-3.93432 -18.08227,-3.93432 0,0 -3.98072,19.34326 -3.98072,19.34326 0,0 -25.97412,-5.62134 -25.97412,-5.62134 0,0 -0.15625,-0.30273 -0.15625,-0.30273 -26.06201,2.08008 -82.3706,32.80029 -87.27905,55.36682 -2.5769,11.84814 4.93774,23.54004 16.78589,26.11572 0,0 44.52148,2.44873 44.52148,2.44873 0,0 2.2876,-3.21045 2.2876,-3.21045"
         style="fill:none;stroke:#000000;stroke-width:0.5"
         inkscape:connector-curvature="0" />
    </symbol>
    <symbol
       id="block 12">
      <path
         id="path89"
         d="m 413.31665,575.63125 c 0,-7.24121 -5.87036,-13.11035 -13.11035,-13.11035 -7.23999,0 -13.11035,5.86914 -13.11035,13.11035 0,7.24121 5.87036,13.11035 13.11035,13.11035 7.23999,0 13.11035,-5.86914 13.11035,-13.11035 z"
         style="fill:none;stroke:#000000;stroke-width:0.5"
         inkscape:connector-curvature="0" />
    </symbol>
    <symbol
       id="block 11">
      <path
         id="path86"
         d="m 347.13867,567.55752 c -2.95044,0 -5.3418,-2.39258 -5.3418,-5.3418 0,-2.95166 2.39136,-5.34241 5.3418,-5.34241 2.94922,0 5.34058,2.39075 5.34058,5.34241 0,2.94922 -2.39136,5.3418 -5.34058,5.3418 z"
         style="fill:none;stroke:#000000;stroke-width:0.5"
         inkscape:connector-curvature="0" />
    </symbol>
    <symbol
       id="block 10">
      <path
         id="path83"
         d="m 92.962646,588.24843 c 0,0 2.020264,3.14698 2.020264,3.14698 49.24805,-3.42285 107.34863,-13.21289 118.23486,-63.26233 0,0 -39.552,-8.56201 -39.552,-8.56201 0,0 4.14185,-19.04053 4.14185,-19.04053 0,0 -18.07862,-3.93189 -18.07862,-3.93189 0,0 -5.6018,25.75074 -5.6018,25.75074 0,0 7.69287,1.67358 7.69287,1.67358 0,0 -2.19971,10.11108 -2.19971,10.11108 0,0 -7.69287,-1.67236 -7.69287,-1.67236 0,0 -1.7688,8.13599 -1.7688,8.13599 0,0 -12.31201,-2.677 -12.31201,-2.677 0,0 1.77002,-8.13599 1.77002,-8.13599 0,0 -7.69776,-1.67358 -7.69776,-1.67358 0,0 2.19849,-10.11353 2.19849,-10.11353 0,0 7.7002,1.67481 7.7002,1.67481 0,0 5.59936,-25.75074 5.59936,-25.75074 0,0 -18.08227,-3.93432 -18.08227,-3.93432 0,0 -3.98072,19.34326 -3.98072,19.34326 0,0 -25.974117,-5.62134 -25.974117,-5.62134 0,0 -0.15625,-0.30273 -0.15625,-0.30273 -26.062012,2.08008 -82.370606,32.80029 -87.279053,55.36682 -2.576904,11.84814 4.937744,23.54004 16.785889,26.11572 0,0 44.521484,2.44873 44.521484,2.44873 0,0 2.287598,-3.21045 2.287598,-3.21045"
         style="fill:none;stroke:#000000;stroke-width:0.5"
         inkscape:connector-curvature="0" />
    </symbol>
    <symbol
       id="block 9">
      <path
         id="path80"
         d="m 99.56665,576.88125 c 0,-7.24121 -5.870361,-13.11035 -13.110351,-13.11035 -7.23999,0 -13.110352,5.86914 -13.110352,13.11035 0,7.24121 5.870362,13.11035 13.110352,13.11035 7.23999,0 13.110351,-5.86914 13.110351,-13.11035 z"
         style="fill:none;stroke:#000000;stroke-width:0.5"
         inkscape:connector-curvature="0" />
    </symbol>
    <symbol
       id="block 8">
      <path
         id="path77"
         d="m 33.388672,568.80752 c -2.95044,0 -5.341797,-2.39258 -5.341797,-5.3418 0,-2.95166 2.391357,-5.3418 5.341797,-5.3418 2.949219,0 5.340576,2.39014 5.340576,5.3418 0,2.94922 -2.391357,5.3418 -5.340576,5.3418 z"
         style="fill:none;stroke:#000000;stroke-width:0.5"
         inkscape:connector-curvature="0" />
    </symbol>
    <symbol
       id="block 7" />
    <symbol
       id="block 6">
      <path
         id="path73"
         d="m -168.98071,511.77688 c 0,-3.4253 -2.77588,-6.20117 -6.19995,-6.20117 -3.4253,0 -6.20118,2.77587 -6.20118,6.20117 0,0 0,8.17138 0,8.17138 0,3.4253 2.77588,6.20118 6.20118,6.20118 3.42407,0 6.19995,-2.77588 6.19995,-6.20118 0,0 0,-8.17138 0,-8.17138 z"
         style="fill:none;stroke:#000000;stroke-width:0.5"
         inkscape:connector-curvature="0" />
    </symbol>
    <symbol
       id="block 5">
      <path
         id="path70"
         d="m -207.95532,511.77688 c 0,-3.4253 -2.77588,-6.20117 -6.19995,-6.20117 -3.4253,0 -6.20117,2.77587 -6.20117,6.20117 0,0 0,8.17138 0,8.17138 0,3.4253 2.77587,6.20118 6.20117,6.20118 3.42407,0 6.19995,-2.77588 6.19995,-6.20118 0,0 0,-8.17138 0,-8.17138 z"
         style="fill:none;stroke:#000000;stroke-width:0.5"
         inkscape:connector-curvature="0" />
    </symbol>
    <symbol
       id="block 4">
      <path
         id="path67"
         d="m -133.28491,508.9302 c 0,-8.28369 -6.71509,-15 -15,-15 0,0 -94.01734,0 -94.01734,0 -8.2843,0 -15,6.7157 -15,15 0,0 0,91.36658 0,91.36658 0,8.28613 6.71631,15.00244 15,15.00244 0,0 94.01734,0 94.01734,0 8.28491,0 15,-6.71631 15,-15.00244 0,0 0,-91.36658 0,-91.36658 z"
         style="fill:none;stroke:#000000;stroke-width:0.5"
         inkscape:connector-curvature="0" />
    </symbol>
    <symbol
       id="block 3" />
    <symbol
       id="block 2" />
    <symbol
       id="*Paper_Space0" />
    <symbol
       id="*Paper_Space" />
    <symbol
       id="*Model_Space" />
    <pattern
       id="Hatch"
       x="0"
       y="0"
       patternUnits="userSpaceOnUse"
       width="8"
       height="8">
      <path
         id="path55"
         d="M8 4 l-4,4"
         stroke-width="0.25"
         stroke="#000000"
         linecap="square" />
      <path
         id="path57"
         d="M6 2 l-4,4"
         stroke-width="0.25"
         stroke="#000000"
         linecap="square" />
      <path
         id="path59"
         d="M4 0 l-4,4"
         stroke-width="0.25"
         stroke="#000000"
         linecap="square" />
    </pattern>
    <marker
       orient="auto"
       id="DistanceX"
       style="overflow:visible"
       refX="0"
       refY="0">
      <path
         id="path52"
         d="M 3,-3 -3,3 M 0,-5 0,5"
         style="stroke:#000000;stroke-width:0.5"
         inkscape:connector-curvature="0" />
    </marker>
  </defs>
  <sodipodi:namedview
     id="base"
     pagecolor="#ffffff"
     bordercolor="#666666"
     borderopacity="1.0"
     inkscape:pageopacity="0.0"
     inkscape:pageshadow="2"
     inkscape:zoom="1.8537942"
     inkscape:cx="6.3685556"
     inkscape:cy="114.46648"
     inkscape:document-units="px"
     inkscape:current-layer="layer1"
     showgrid="false"
     width="0px"
     height="0px"
     fit-margin-top="0"
     fit-margin-left="0"
     fit-margin-right="0"
     fit-margin-bottom="0"
     inkscape:window-width="1024"
     inkscape:window-height="531"
     inkscape:window-x="0"
     inkscape:window-y="0"
     inkscape:window-maximized="1" />
  <metadata
     id="metadata7">
    <rdf:RDF>
      <cc:Work
         rdf:about="">
        <dc:format>image/svg+xml</dc:format>
        <dc:type
           rdf:resource="http://purl.org/dc/dcmitype/StillImage" />
        <dc:title />
      </cc:Work>
    </rdf:RDF>
  </metadata>
  <g
     inkscape:label="Camada 1"
     inkscape:groupmode="layer"
     id="layer1"
     transform="translate(-599.32275,-852.4787)">
    <path
       style="fill:#008000;stroke:#000000;stroke-width:0.5"
       d="M 15.25 57.0625 C 6.9657 57.0625 0.25 63.7782 0.25 72.0625 L 0.25 163.4375 C 0.25 171.7236 6.96631 178.4375 15.25 178.4375 L 109.28125 178.4375 C 117.56616 178.4375 124.28125 171.7236 124.28125 163.4375 L 124.28125 72.0625 C 124.28125 63.77881 117.56616 57.0625 109.28125 57.0625 L 15.25 57.0625 z M 43.40625 68.71875 C 46.83032 68.71875 49.59375 71.5122 49.59375 74.9375 L 49.59375 83.09375 C 49.59375 86.51905 46.83032 89.28125 43.40625 89.28125 C 39.98095 89.28125 37.1875 86.51905 37.1875 83.09375 L 37.1875 74.9375 C 37.1875 71.5122 39.98095 68.71875 43.40625 68.71875 z M 82.375 68.71875 C 85.79907 68.71875 88.5625 71.5122 88.5625 74.9375 L 88.5625 83.09375 C 88.5625 86.51905 85.79907 89.28125 82.375 89.28125 C 78.9497 89.28125 76.15625 86.51905 76.15625 83.09375 L 76.15625 74.9375 C 76.15625 71.5122 78.9497 68.71875 82.375 68.71875 z M 7.34375 96.625 L 30.375 96.625 L 30.375 148 L 7.34375 148 L 7.34375 96.625 z M 94.15625 96.625 L 117.1875 96.625 L 117.1875 148 L 94.15625 148 L 94.15625 96.625 z "
       transform="translate(599.32275,852.4787)"
       id="path851" />
    <path
       style="fill:#008000;stroke:#000000;stroke-width:0.5"
       d="M 662.15625 25.40625 C 662.15625 25.41025 463.5 34.75 463.5 34.75 C 463.5 68.30103 462.023 75.25782 477.25 99.4375 C 479.83588 96.981615 483.3394 95.46875 487.1875 95.46875 C 495.1514 95.46875 501.59375 101.91114 501.59375 109.875 C 501.59375 117.83887 495.1514 124.3125 487.1875 124.3125 C 483.34145 124.3125 479.83547 122.79747 477.25 120.34375 C 476.99014 132.5136 454.90516 150.53125 439.15625 150.53125 L 430.21875 150.53125 C 420.19065 150.53125 412.0625 158.2183 412.0625 168.25 L 412.0625 203.8125 L 362.5 203.8125 L 362.34375 203.8125 C 353.12895 204.50959 345.875 212.1993 345.875 221.59375 C 345.875 231.44725 353.86646 239.4375 363.71875 239.4375 L 363.84375 239.5 L 450.875 239.5 L 450.875 226.875 C 450.60495 226.91706 450.31309 226.9375 450.03125 226.9375 C 447.08205 226.9375 444.6875 224.54295 444.6875 221.59375 C 444.6875 218.64455 447.08205 216.25 450.03125 216.25 C 450.31393 216.25 450.60418 216.30141 450.875 216.34375 L 450.875 203.90625 L 500.71875 203.90625 L 500.71875 216.34375 C 500.99911 216.29826 501.30056 216.25 501.59375 216.25 C 504.54295 216.25 506.9375 218.64455 506.9375 221.59375 C 506.9375 224.54295 504.54295 226.9375 501.59375 226.9375 C 501.30122 226.9375 500.99851 226.92025 500.71875 226.875 L 500.71875 239.5 L 588.0625 239.5 C 594.8447 239.5 600.78155 237.0347 604.90625 229 C 633.56355 186.4902 633.5877 186.49315 597.8125 160.84375 C 579.3177 144.77443 574.9375 133.25402 574.9375 111.3125 C 574.9375 74.65356 604.75835 63.25 635.46875 63.25 L 635.78125 63.25 L 662.15625 62.8125 C 673.95435 62.8125 683.53125 58.58301 683.53125 46.78125 C 683.53125 34.98438 673.95435 25.40625 662.15625 25.40625 z M 598.125 37.25 C 598.29857 37.232375 598.47803 37.25 598.65625 37.25 C 601.50655 37.25 603.8125 39.5553 603.8125 42.40625 C 603.8125 45.25782 601.50655 47.5625 598.65625 47.5625 C 595.80465 47.5625 593.5 45.25782 593.5 42.40625 C 593.5 39.733484 595.52148 37.514378 598.125 37.25 z M 647.375 39.53125 C 647.55839 39.512541 647.74921 39.53125 647.9375 39.53125 L 660.375 39.53125 C 663.3889 39.53125 665.8125 41.9751 665.8125 45 C 665.8125 48.02734 663.3889 50.46875 660.375 50.46875 L 647.9375 50.46875 C 644.9249 50.46875 642.46875 48.02734 642.46875 45 C 642.46875 42.164156 644.6242 39.81189 647.375 39.53125 z M 519.8125 52.03125 C 522.664 52.03125 524.96875 54.36718 524.96875 57.21875 C 524.96875 60.0697 522.664 62.375 519.8125 62.375 C 516.9609 62.375 514.65625 60.0697 514.65625 57.21875 C 514.65625 54.36718 516.9609 52.03125 519.8125 52.03125 z M 550.03125 82.6875 L 566.90625 82.6875 C 569.92025 82.6875 572.375 85.1289 572.375 88.15625 C 572.375 91.18237 569.92025 93.65625 566.90625 93.65625 L 550.03125 93.65625 C 547.01855 93.65625 544.59375 91.18237 544.59375 88.15625 C 544.59375 85.1289 547.01855 82.6875 550.03125 82.6875 z M 430.21875 159.375 C 433.16795 159.375 435.5625 161.76955 435.5625 164.71875 C 435.5625 167.66795 433.16795 170.0625 430.21875 170.0625 C 427.26955 170.0625 424.875 167.66795 424.875 164.71875 C 424.875 161.76955 427.26955 159.375 430.21875 159.375 z M 519.8125 175.96875 C 522.6628 175.96875 524.96875 178.2759 524.96875 181.125 C 524.96875 183.9766 522.6628 186.3125 519.8125 186.3125 C 516.9609 186.3125 514.65625 183.9766 514.65625 181.125 C 514.65625 178.2759 516.9609 175.96875 519.8125 175.96875 z M 594.65625 182.96875 L 607.09375 182.96875 C 610.10645 182.96875 612.53125 185.4101 612.53125 188.4375 C 612.53125 191.4648 610.10645 193.9375 607.09375 193.9375 L 594.65625 193.9375 C 591.64355 193.9375 589.1875 191.4648 589.1875 188.4375 C 589.1875 185.4101 591.64355 182.96875 594.65625 182.96875 z M 363.71875 216.25 C 366.66797 216.25 369.03125 218.64455 369.03125 221.59375 C 369.03125 224.54295 366.66797 226.9375 363.71875 226.9375 C 360.76831 226.9375 358.375 224.54295 358.375 221.59375 C 358.375 218.64455 360.76831 216.25 363.71875 216.25 z M 588.40625 216.25 C 591.35545 216.25 593.75 218.64455 593.75 221.59375 C 593.75 224.54295 591.35545 226.9375 588.40625 226.9375 C 585.45705 226.9375 583.0625 224.54295 583.0625 221.59375 C 583.0625 218.64455 585.45705 216.25 588.40625 216.25 z M 418.4375 216.4375 C 421.2879 216.4375 423.59375 218.74225 423.59375 221.59375 C 423.59375 224.44535 421.2878 226.78125 418.4375 226.78125 C 415.586 226.78125 413.28125 224.44535 413.28125 221.59375 C 413.28125 218.74215 415.586 216.4375 418.4375 216.4375 z "
       transform="translate(599.32275,852.4787)"
       id="path1077" />
    <path
       style="fill:#008000;stroke:#000000;stroke-width:0.5"
       d="M 386.875 53.125 L 382.90625 72.46875 L 356.9375 66.84375 L 356.78125 66.5625 C 330.71924 68.64258 274.40845 99.33972 269.5 121.90625 C 266.9231 133.75439 274.4331 145.4556 286.28125 148.03125 L 330.8125 150.46875 L 333.09375 147.28125 C 331.70403 145.20038 330.90625 142.72148 330.90625 140.03125 C 330.90625 132.79004 336.76001 126.90625 344 126.90625 C 351.23999 126.90625 357.125 132.79004 357.125 140.03125 C 357.125 144.905 354.44634 149.14676 350.5 151.40625 L 352.53125 154.53125 C 401.77934 151.10835 459.89495 141.33069 470.78125 91.28125 L 431.21875 82.71875 L 435.375 63.6875 L 417.28125 59.75 L 411.6875 85.5 L 419.375 87.15625 L 417.1875 97.28125 L 409.46875 95.59375 L 407.71875 103.75 L 395.40625 101.0625 L 397.15625 92.9375 L 389.46875 91.25 L 391.65625 81.15625 L 399.375 82.8125 L 404.96875 57.0625 L 386.875 53.125 z M 290.9375 121.28125 C 293.88672 121.28125 296.28125 123.67334 296.28125 126.625 C 296.28125 129.57422 293.88672 131.96875 290.9375 131.96875 C 287.98706 131.96875 285.59375 129.57422 285.59375 126.625 C 285.59375 123.67334 287.98706 121.28125 290.9375 121.28125 z "
       transform="translate(599.32275,852.4787)"
       id="path873" />
    <path
       style="fill:#008000;stroke:#000000;stroke-width:0.5"
       d="M 700.625 51.875 L 696.65625 71.21875 L 670.6875 65.59375 L 670.53125 65.3125 C 644.46925 67.39258 588.1584 98.08972 583.25 120.65625 C 580.6731 132.50439 588.18305 144.20557 600.03125 146.78125 L 644.5625 149.21875 L 646.84375 146.03125 C 645.45404 143.95038 644.65625 141.47148 644.65625 138.78125 C 644.65625 131.54004 650.51 125.65625 657.75 125.65625 C 664.99 125.65625 670.875 131.54004 670.875 138.78125 C 670.875 143.655 668.19636 147.89676 664.25 150.15625 L 666.28125 153.28125 C 715.52935 149.85835 773.64495 140.08069 784.53125 90.03125 L 744.96875 81.46875 L 749.125 62.4375 L 731.03125 58.5 L 725.4375 84.25 L 733.125 85.90625 L 730.9375 96.03125 L 723.21875 94.34375 L 721.46875 102.5 L 709.15625 99.8125 L 710.90625 91.6875 L 703.21875 90 L 705.40625 79.90625 L 713.125 81.5625 L 718.71875 55.8125 L 700.625 51.875 z M 604.15625 120.03125 C 604.33584 120.01302 604.50309 120.03125 604.6875 120.03125 C 607.6367 120.03125 610.03125 122.42334 610.03125 125.375 C 610.03125 128.32422 607.6367 130.71875 604.6875 130.71875 C 601.737 130.71875 599.34375 128.32422 599.34375 125.375 C 599.34375 122.60782 601.4624 120.30471 604.15625 120.03125 z "
       transform="translate(599.32275,852.4787)"
       id="path885" />
    <path
       style="fill:#008000;stroke:#000000;stroke-width:0.5"
       d="M 1008.4062 34.75 L 1008.4062 47.375 C 1008.6772 47.332676 1008.9672 47.28125 1009.25 47.28125 C 1012.2005 47.28125 1014.5938 49.67456 1014.5938 52.625 C 1014.5938 55.57605 1012.2005 57.96875 1009.25 57.96875 C 1008.9681 57.96875 1008.6764 57.948339 1008.4062 57.90625 L 1008.4062 70.34375 L 958.5625 70.34375 L 958.5625 57.875 C 958.28224 57.920454 957.98057 57.96875 957.6875 57.96875 C 954.7383 57.96875 952.34375 55.57361 952.34375 52.625 C 952.34375 49.67578 954.7383 47.28125 957.6875 47.28125 C 957.97991 47.28125 958.28283 47.298506 958.5625 47.34375 L 958.5625 34.78125 L 871.3125 34.78125 C 861.4603 34.78125 853.46875 42.7727 853.46875 52.625 C 853.46875 62.47851 861.4603 70.46875 871.3125 70.46875 L 871.34375 70.4375 L 922.28125 70.4375 L 922.25 239.46875 L 977.78125 239.46875 L 995.78125 239.46875 C 995.78125 205.91895 997.25835 198.96095 982.03125 174.78125 C 979.44551 177.23685 975.94132 178.75 972.09375 178.75 C 964.12865 178.75 957.6875 172.30765 957.6875 164.34375 C 957.6875 156.37745 964.12865 149.9375 972.09375 149.9375 C 975.94132 149.9375 979.44551 151.45038 982.03125 153.90625 C 982.29111 141.73695 1004.3761 123.6875 1020.125 123.6875 L 1029.0625 123.6875 C 1039.0905 123.6875 1047.2188 115.99927 1047.2188 105.96875 L 1047.2188 70.4375 L 1095.5938 70.4375 L 1095.5625 70.46875 C 1105.4148 70.46875 1113.4062 62.47851 1113.4062 52.625 C 1113.4062 42.7727 1105.4147 34.78125 1095.5625 34.78125 L 1095.5625 34.75 L 1008.4062 34.75 z M 871.3125 47.28125 C 874.2629 47.28125 876.65625 49.67456 876.65625 52.625 C 876.65625 55.57605 874.2629 57.96875 871.3125 57.96875 C 868.362 57.96875 865.96875 55.57605 865.96875 52.625 C 865.96875 49.67456 868.3621 47.28125 871.3125 47.28125 z M 1095.5938 47.28125 C 1098.5442 47.28125 1100.9062 49.67456 1100.9062 52.625 C 1100.9062 55.57605 1098.5442 57.96875 1095.5938 57.96875 C 1092.6433 57.96875 1090.25 55.57605 1090.25 52.625 C 1090.25 49.67456 1092.6434 47.28125 1095.5938 47.28125 z M 1040.8438 47.46875 C 1043.6941 47.46875 1046 49.77466 1046 52.625 C 1046 55.47595 1043.6941 57.78125 1040.8438 57.78125 C 1037.9922 57.78125 1035.6875 55.47595 1035.6875 52.625 C 1035.6875 49.77466 1037.9922 47.46875 1040.8438 47.46875 z M 938.90625 88.03125 C 939.07981 88.01362 939.25928 88.03125 939.4375 88.03125 C 942.2879 88.03125 944.59375 90.33655 944.59375 93.1875 C 944.59375 96.03846 942.2879 98.34375 939.4375 98.34375 C 936.586 98.34375 934.28125 96.03846 934.28125 93.1875 C 934.28125 90.514734 936.30281 88.295695 938.90625 88.03125 z M 1029.0625 104.1875 C 1032.0117 104.1875 1034.4062 106.58203 1034.4062 109.53125 C 1034.4062 112.48046 1032.0117 114.84375 1029.0625 114.84375 C 1026.1132 114.84375 1023.7188 112.48046 1023.7188 109.53125 C 1023.7188 106.58203 1026.1132 104.1875 1029.0625 104.1875 z M 939.4375 211.9375 C 942.2891 211.9375 944.59375 214.24215 944.59375 217.09375 C 944.59375 219.94535 942.2891 222.28125 939.4375 222.28125 C 936.5848 222.28125 934.25 219.94535 934.25 217.09375 C 934.25 214.24215 936.5848 211.9375 939.4375 211.9375 z "
       id="path931"
       transform="translate(599.32275,852.4787)" />
    <path
       style="fill:#008000;stroke:#000000;stroke-width:0.5"
       d="M 1032.0312 128.21875 C 1023.7476 128.21875 1017.0312 134.82666 1017.0312 138.59375 L 1017.0312 143.125 C 1031.1841 150.62498 1031.2269 169.8247 1017.0312 175.75 L 1017.0312 188.71875 C 1017.0312 192.48585 1023.7476 195.53125 1032.0312 195.53125 L 1099.4688 195.53125 C 1107.7537 195.53125 1114.6562 192.48585 1114.6562 188.71875 L 1114.6562 175.40625 C 1100.4606 169.48095 1100.3159 150.28128 1114.4688 142.78125 L 1114.4688 138.59375 C 1114.4688 134.82666 1107.7537 128.21875 1099.4688 128.21875 L 1032.0312 128.21875 z M 1046.9062 169.75 C 1050.3303 169.75 1053.0938 172.02885 1053.0938 174.84375 L 1053.0938 181.5625 C 1053.0938 184.3774 1050.3303 186.6875 1046.9062 186.6875 C 1043.4811 186.6875 1040.6875 184.3774 1040.6875 181.5625 L 1040.6875 174.84375 C 1040.6875 172.02885 1043.4811 169.75 1046.9062 169.75 z M 1085.875 169.75 C 1089.299 169.75 1092.0625 172.02885 1092.0625 174.84375 L 1092.0625 181.5625 C 1092.0625 184.3774 1089.299 186.6875 1085.875 186.6875 C 1082.4497 186.6875 1079.6562 184.3774 1079.6562 181.5625 L 1079.6562 174.84375 C 1079.6562 172.02885 1082.4497 169.75 1085.875 169.75 z "
       transform="translate(599.32275,852.4787)"
       id="path943" />
    <path
       style="fill:#008000;stroke:#000000;stroke-width:0.5"
       d="M 672.03125 203.8125 C 662.17895 203.8125 654.1875 211.80515 654.1875 221.65625 C 654.1875 231.50975 662.17895 239.46875 672.03125 239.46875 C 681.88355 239.46875 689.875 231.50975 689.875 221.65625 C 689.875 211.80515 681.88355 203.8125 672.03125 203.8125 z M 672.03125 216.25 C 674.98165 216.25 677.375 218.64215 677.375 221.59375 C 677.375 224.54545 674.98165 226.9375 672.03125 226.9375 C 669.08075 226.9375 666.6875 224.54545 666.6875 221.59375 C 666.6875 218.64215 669.08075 216.25 672.03125 216.25 z "
       transform="translate(599.32275,852.4787)"
       id="path951" />
    <path
       style="fill:#008000;stroke:#000000;stroke-width:0.5"
       d="M 775.125 137.59375 L 774.96875 137.75 C 767.11835 144.88379 756.30055 150.53125 747.46875 150.53125 L 738.53125 150.53125 C 728.50315 150.53125 720.375 158.2207 720.375 168.25 L 720.375 203.8125 L 702.5625 203.8125 C 702.5725 203.8125 702.5625 239.46875 702.5625 239.46875 L 755.625 239.46875 L 755.625 226.1875 C 754.06676 225.25417 753.03125 223.54147 753.03125 221.59375 C 753.03125 219.64603 754.06676 217.96458 755.625 217.03125 L 755.625 203.90625 L 778.40625 203.90625 L 778.40625 143.34375 C 778.40625 142.45263 777.9717 137.59375 775.125 137.59375 z M 738.53125 159.375 C 741.48045 159.375 743.875 161.76955 743.875 164.71875 C 743.875 167.66795 741.48045 170.0625 738.53125 170.0625 C 735.58075 170.0625 733.1875 167.66795 733.1875 164.71875 C 733.1875 161.76955 735.58075 159.375 738.53125 159.375 z M 727.1875 216.4375 C 730.0379 216.4375 732.375 218.74225 732.375 221.59375 C 732.375 224.44535 730.0379 226.78125 727.1875 226.78125 C 724.336 226.78125 722.03125 224.44535 722.03125 221.59375 C 722.03125 218.74225 724.336 216.4375 727.1875 216.4375 z "
       transform="translate(599.32275,852.4787)"
       id="path975" />
    <path
       style="fill:#008000;stroke:#000000;stroke-width:0.5"
       d="M 896.28125 203.8125 C 886.42895 203.8125 878.4375 211.80515 878.4375 221.65625 C 878.4375 231.50975 886.42895 239.46875 896.28125 239.46875 C 906.13355 239.46875 914.125 231.50975 914.125 221.65625 C 914.125 211.80515 906.13355 203.8125 896.28125 203.8125 z M 896.28125 216.25 C 899.23045 216.25 901.625 218.64455 901.625 221.59375 C 901.625 224.54295 899.23045 226.9375 896.28125 226.9375 C 893.33075 226.9375 890.9375 224.54295 890.9375 221.59375 C 890.9375 218.64455 893.33075 216.25 896.28125 216.25 z "
       transform="translate(599.32275,852.4787)"
       id="path983" />
    <path
       style="fill:#008000;stroke:#000000;stroke-width:0.5"
       d="M 789.8125 34.75 L 789.8125 89.4375 C 791.54584 91.330209 793.43661 93.329246 795.5 95.46875 C 803.4638 95.46875 809.90625 101.91114 809.90625 109.875 C 809.90625 117.83887 803.4638 124.3125 795.5 124.3125 L 789.4375 130 L 789.4375 203.90625 L 812.59375 203.90625 L 812.59375 217 C 814.18441 217.92529 815.25 219.62141 815.25 221.59375 C 815.25 223.56609 814.18441 225.29346 812.59375 226.21875 L 812.59375 239.46875 L 859.21875 239.46875 L 859.21875 203.84375 L 845.34375 203.84375 L 845.34375 34.75 L 789.8125 34.75 z M 789.8125 89.4375 C 789.73999 89.358327 789.6657 89.266312 789.59375 89.1875 L 789.8125 89.6875 L 789.8125 89.4375 z M 828.125 52.03125 C 830.9766 52.03125 833.28125 54.33594 833.28125 57.1875 C 833.28125 60.03967 830.9766 62.375 828.125 62.375 C 825.2734 62.375 822.96875 60.03967 822.96875 57.1875 C 822.96875 54.33594 825.2734 52.03125 828.125 52.03125 z M 828.125 175.96875 C 830.9766 175.96875 833.28125 178.2734 833.28125 181.125 C 833.28125 183.979 830.9766 186.3125 828.125 186.3125 C 825.2734 186.3125 822.96875 183.979 822.96875 181.125 C 822.96875 178.2734 825.2734 175.96875 828.125 175.96875 z "
       transform="translate(599.32275,852.4787)"
       id="path1011" />
    <path
       style="fill:#008000;stroke:#000000;stroke-width:0.5"
       d="M 1127.375 0.28125 C 1120.749 0.28125 1115.4062 5.58764 1115.4062 17.625 L 1115.4062 35 L 1115.375 34.65625 C 1115.375 55.50098 1115.3664 55.52344 1136.7812 81.03125 C 1143.6076 74.945883 1152.6043 71.25 1162.4688 71.25 C 1183.8006 71.25 1201.0938 88.5426 1201.0938 109.875 C 1201.0938 131.20617 1183.8005 148.5 1162.4688 148.5 C 1152.6043 148.5 1143.6076 144.80385 1136.7812 138.71875 C 1136.7812 174.30031 1119.4875 203.14348 1097.9688 203.75 L 1038.4688 203.75 C 1028.8661 204.03531 1021.1562 211.88957 1021.1562 221.5625 C 1021.1562 231.4136 1029.1477 239.40625 1039 239.40625 L 1039.1562 239.4375 L 1263.4375 239.4375 L 1263.25 239.40625 C 1273.1023 239.40625 1281.0938 231.416 1281.0938 221.5625 C 1281.0938 211.7114 1273.1023 203.71875 1263.25 203.71875 L 1262.9375 203.75 L 1252.3125 203.75 L 1252.2812 203.78125 C 1230.443 203.78125 1212.3125 174.68061 1212.3125 138.71875 L 1212.3125 138.65625 L 1212.3125 34.75 L 1155.625 34.75 L 1156.1562 17.625 C 1156.1562 6.3212229 1151.4382 0.95671825 1145.375 0.34375 L 1127.375 0.28125 z M 1195.1562 51.90625 C 1198.0067 51.90625 1200.3125 54.21094 1200.3125 57.0625 C 1200.3125 59.91345 1198.0067 62.25 1195.1562 62.25 C 1192.3048 62.25 1190 59.91345 1190 57.0625 C 1190 54.21094 1192.3048 51.90625 1195.1562 51.90625 z M 1195.1562 175.8125 C 1198.0067 175.8125 1200.3125 178.11715 1200.3125 180.96875 C 1200.3125 183.82025 1198.0067 186.15625 1195.1562 186.15625 C 1192.3048 186.15625 1190 183.82025 1190 180.96875 C 1190 178.11715 1192.3048 175.8125 1195.1562 175.8125 z M 1039 216.21875 C 1041.9505 216.21875 1044.3438 218.6133 1044.3438 221.5625 C 1044.3438 224.5142 1041.9505 226.90625 1039 226.90625 C 1036.0508 226.90625 1033.6562 224.5142 1033.6562 221.5625 C 1033.6562 218.6133 1036.0508 216.21875 1039 216.21875 z M 1263.25 216.21875 C 1266.198 216.21875 1268.5938 218.6157 1268.5938 221.5625 C 1268.5938 224.5117 1266.198 226.90625 1263.25 226.90625 C 1260.3008 226.90625 1257.9375 224.5117 1257.9375 221.5625 C 1257.9375 218.6157 1260.3008 216.21875 1263.25 216.21875 z M 1125.3438 216.25 C 1128.293 216.25 1130.6875 218.64445 1130.6875 221.59375 C 1130.6875 224.54295 1128.293 226.9375 1125.3438 226.9375 C 1122.3958 226.9375 1120 224.54295 1120 221.59375 C 1120 218.64445 1122.3957 216.25 1125.3438 216.25 z M 1176.875 216.25 C 1179.8243 216.25 1182.2188 218.64445 1182.2188 221.59375 C 1182.2188 224.54295 1179.8243 226.9375 1176.875 226.9375 C 1173.9246 226.9375 1171.5625 224.54295 1171.5625 221.59375 C 1171.5625 218.64445 1173.9246 216.25 1176.875 216.25 z M 1093.75 216.40625 C 1096.6003 216.40625 1098.9062 218.7134 1098.9062 221.5625 C 1098.9062 224.4141 1096.6003 226.71875 1093.75 226.71875 C 1090.8996 226.71875 1088.5625 224.4141 1088.5625 221.5625 C 1088.5625 218.7134 1090.8996 216.40625 1093.75 216.40625 z "
       transform="translate(599.32275,852.4787)"
       id="path1121" />
    <path
       style="fill:#008000;stroke:#000000;stroke-width:0.5"
       d="M 141.09375 0.28125 C 134.87988 0.73898596 129.96875 6.0961074 129.96875 17.59375 L 129.96875 34.96875 C 129.96943 55.464163 130.07714 55.635812 151.375 81 C 158.2018 74.914372 167.19745 71.21875 177.0625 71.21875 C 198.3955 71.21875 215.6875 88.51013 215.6875 109.84375 C 215.6875 131.17737 198.3955 148.46875 177.0625 148.46875 C 167.19745 148.46875 158.2018 144.77254 151.375 138.6875 C 151.375 174.64703 133.71705 203.75 111.875 203.75 L 53.3125 203.75 L 53.40625 203.625 C 43.55274 203.625 35.5625 211.61765 35.5625 221.46875 C 35.5625 231.31985 43.55274 239.3125 53.40625 239.3125 L 53.875 239.4375 L 278 239.4375 L 278 239.53125 C 284.78223 239.53125 291.00024 236.94085 295.125 228.90625 C 323.78217 186.40375 323.8064 186.42825 288.03125 160.78125 C 269.53516 144.71436 264.8125 133.22033 264.8125 111.28125 C 264.8125 74.62841 294.6333 63.21875 325.34375 63.21875 L 325.6875 63.21875 L 352.03125 62.78125 C 363.83057 62.78125 373.40625 58.54932 373.40625 46.75 C 373.40625 34.95068 363.83057 25.375 352.03125 25.375 L 352.375 25.40625 L 169.3125 34.75 L 170.03125 17.90625 C 170.03125 5.87012 164.65723 0.5625 158.03125 0.5625 L 141.28125 0.28125 L 141.09375 0.28125 z M 338.375 34.28125 L 349.6875 34.28125 C 356.10717 34.28125 361.3125 39.07031 361.3125 44.96875 C 361.3125 50.86718 356.10717 55.65625 349.6875 55.65625 L 338.375 55.65625 C 331.95654 55.65625 326.75 50.86718 326.75 44.96875 C 326.75 39.07031 331.95654 34.28125 338.375 34.28125 z M 288.53125 37.21875 C 291.38282 37.21875 293.71875 39.52344 293.71875 42.375 C 293.71875 45.22595 291.38282 47.53125 288.53125 47.53125 C 285.67969 47.53125 283.375 45.22595 283.375 42.375 C 283.375 39.52344 285.67969 37.21875 288.53125 37.21875 z M 209.5625 52.09375 C 209.73607 52.076129 209.91553 52.09375 210.09375 52.09375 C 212.94409 52.09375 215.25 54.39844 215.25 57.25 C 215.25 60.10095 212.94409 62.40625 210.09375 62.40625 C 207.24219 62.40625 204.9375 60.10095 204.9375 57.25 C 204.9375 54.576663 206.95902 52.358064 209.5625 52.09375 z M 243.0625 77.46875 L 254.34375 77.46875 C 260.76098 77.46875 265.96875 82.22656 265.96875 88.125 C 265.96875 94.021 260.76098 98.8125 254.34375 98.8125 L 243.0625 98.8125 C 236.64282 98.8125 231.4375 94.021 231.4375 88.125 C 231.4375 82.22656 236.64282 77.46875 243.0625 77.46875 z M 210.09375 176 C 212.94409 176 215.25 178.30465 215.25 181.15625 C 215.25 184.00785 212.94409 186.3125 210.09375 186.3125 C 207.24219 186.3125 204.9375 184.00785 204.9375 181.15625 C 204.9375 178.30465 207.24219 176 210.09375 176 z M 285.09375 177.71875 L 296.40625 177.71875 C 302.82715 177.71875 308.03125 182.51035 308.03125 188.40625 C 308.03125 194.30475 302.82715 199.09375 296.40625 199.09375 L 285.09375 199.09375 C 278.67529 199.09375 273.46875 194.30475 273.46875 188.40625 C 273.46875 182.51035 278.67529 177.71875 285.09375 177.71875 z M 53.40625 216.125 C 56.35669 216.125 58.75 218.51955 58.75 221.46875 C 58.75 224.42045 56.35669 226.8125 53.40625 226.8125 C 50.45703 226.8125 48.0625 224.42045 48.0625 221.46875 C 48.0625 218.51955 50.45703 216.125 53.40625 216.125 z M 278.28125 216.21875 C 281.23047 216.21875 283.625 218.6132 283.625 221.5625 C 283.625 224.5117 281.23047 226.90625 278.28125 226.90625 C 275.33204 226.90625 272.9375 224.5117 272.9375 221.5625 C 272.9375 218.6132 275.33204 216.21875 278.28125 216.21875 z M 139.375 216.25 C 139.55451 216.23176 139.72192 216.25 139.90625 216.25 C 142.85547 216.25 145.25 218.6157 145.25 221.5625 C 145.25 224.5117 142.85547 226.90625 139.90625 226.90625 C 136.95703 226.90625 134.5625 224.5117 134.5625 221.5625 C 134.5625 218.79988 136.68233 216.52365 139.375 216.25 z M 190.9375 216.25 C 191.11708 216.23177 191.28435 216.25 191.46875 216.25 C 194.41797 216.25 196.8125 218.6132 196.8125 221.5625 C 196.8125 224.5141 194.41797 226.90625 191.46875 226.90625 C 188.51831 226.90625 186.125 224.5141 186.125 221.5625 C 186.125 218.79762 188.24382 216.5234 190.9375 216.25 z M 108.59375 216.28125 C 111.44409 216.28125 113.75 218.61965 113.75 221.46875 C 113.75 224.32035 111.44409 226.625 108.59375 226.625 C 105.74219 226.625 103.4375 224.32035 103.4375 221.46875 C 103.4375 218.61965 105.74219 216.28125 108.59375 216.28125 z "
       transform="translate(599.32275,852.4787)"
       id="path1175" />
  </g>
</svg>
